  0
SECTION
  2
HEADER
  9
$ANGBASE
  50
0.0
  9
$ANGDIR
  70
1
  9
$MEASUREMENT
  70
0
  0
ENDSEC
  0
SECTION
  2
TABLES
  0
TABLE
  2
LTYPE
  70
4
  0
LTYPE
  5
40F
  2
CONTINUOUS
  70
0
  3
Solid line
  72
65
  73
0
  40
0.0
  0
LTYPE
  5
410
  2
DASHDOT
 70
0
  3
Dash Dot ____ _ ____ _
 72
65
 73
4
 40
2.0
 49
1.25
 49
-0.25
 49
0.25
 49
-0.25
  0
LTYPE
  5
411
  2
DASHED
 70
0
  3
Dashed __ __ __ __ __
 72
65
 73
2
 40
0.75
 49
0.5
 49
-0.25
  0
LTYPE
  5
43B
  2
DOTTED
 70
0
  3
Dotted .  .  .  .
 72
65
 73
2
 40
0.2
 49
0.0
 49
-0.2
  0
ENDTAB
  0
TABLE
  2
STYLE
  70
4
  0
STYLE
  2
KICAD
  70
0
  40
0
  41
1
  42
1
  50
0
  71
0
  3
isocp.shx
  0
STYLE
  2
KICADB
  70
0
  40
0
  41
1
  42
1
  50
0
  71
0
  3
isocp.shx
  0
STYLE
  2
KICADI
  70
0
  40
0
  41
1
  42
1
  50
15
  71
0
  3
isocp.shx
  0
STYLE
  2
KICADBI
  70
0
  40
0
  41
1
  42
1
  50
15
  71
0
  3
isocp.shx
  0
ENDTAB
  0
TABLE
  2
LAYER
  70
1
  0
LAYER
  2
BLACK
  70
0
  62
7
  6
CONTINUOUS
  0
ENDTAB
  0
ENDSEC
  0
SECTION
  2
ENTITIES
0
LINE
8
BLACK
6
CONTINUOUS
10
0.837829
20
0.364299
11
0.843633
21
0.361567
0
LINE
8
BLACK
6
CONTINUOUS
10
0.843633
20
0.361567
11
0.848576
21
0.357479
0
LINE
8
BLACK
6
CONTINUOUS
10
0.848576
20
0.357479
11
0.852346
21
0.352289
0
LINE
8
BLACK
6
CONTINUOUS
10
0.852346
20
0.352289
11
0.854708
21
0.346325
0
LINE
8
BLACK
6
CONTINUOUS
10
0.854708
20
0.346325
11
0.855512
21
0.339961
0
LINE
8
BLACK
6
CONTINUOUS
10
0.855512
20
0.339961
11
0.855512
21
0.300591
0
LINE
8
BLACK
6
CONTINUOUS
10
0.855512
20
0.300591
11
0.85531
21
0.297383
0
LINE
8
BLACK
6
CONTINUOUS
10
0.85531
20
0.297383
11
0.853715
21
0.29117
0
LINE
8
BLACK
6
CONTINUOUS
10
0.853715
20
0.29117
11
0.850624
21
0.285549
0
LINE
8
BLACK
6
CONTINUOUS
10
0.850624
20
0.285549
11
0.846233
21
0.280873
0
LINE
8
BLACK
6
CONTINUOUS
10
0.846233
20
0.280873
11
0.840817
21
0.277436
0
LINE
8
BLACK
6
CONTINUOUS
10
0.840817
20
0.277436
11
0.834716
21
0.275453
0
LINE
8
BLACK
6
CONTINUOUS
10
0.834716
20
0.275453
11
0.828314
21
0.275051
0
LINE
8
BLACK
6
CONTINUOUS
10
0.828314
20
0.275051
11
0.822013
21
0.276252
0
LINE
8
BLACK
6
CONTINUOUS
10
0.822013
20
0.276252
11
0.816209
21
0.278984
0
LINE
8
BLACK
6
CONTINUOUS
10
0.816209
20
0.278984
11
0.811267
21
0.283073
0
LINE
8
BLACK
6
CONTINUOUS
10
0.811267
20
0.283073
11
0.807496
21
0.288262
0
LINE
8
BLACK
6
CONTINUOUS
10
0.807496
20
0.288262
11
0.805135
21
0.294226
0
LINE
8
BLACK
6
CONTINUOUS
10
0.805135
20
0.294226
11
0.804331
21
0.300591
0
LINE
8
BLACK
6
CONTINUOUS
10
0.804331
20
0.300591
11
0.804331
21
0.339961
0
LINE
8
BLACK
6
CONTINUOUS
10
0.804331
20
0.339961
11
0.804532
21
0.343168
0
LINE
8
BLACK
6
CONTINUOUS
10
0.804532
20
0.343168
11
0.806128
21
0.349381
0
LINE
8
BLACK
6
CONTINUOUS
10
0.806128
20
0.349381
11
0.809218
21
0.355002
0
LINE
8
BLACK
6
CONTINUOUS
10
0.809218
20
0.355002
11
0.813609
21
0.359679
0
LINE
8
BLACK
6
CONTINUOUS
10
0.813609
20
0.359679
11
0.819025
21
0.363116
0
LINE
8
BLACK
6
CONTINUOUS
10
0.819025
20
0.363116
11
0.825126
21
0.365098
0
LINE
8
BLACK
6
CONTINUOUS
10
0.825126
20
0.365098
11
0.831528
21
0.365501
0
LINE
8
BLACK
6
CONTINUOUS
10
0.831528
20
0.365501
11
0.837829
21
0.364299
0
LINE
8
BLACK
6
CONTINUOUS
10
1.17799
20
0.364299
11
1.18379
21
0.361567
0
LINE
8
BLACK
6
CONTINUOUS
10
1.18379
20
0.361567
11
1.18873
21
0.357479
0
LINE
8
BLACK
6
CONTINUOUS
10
1.18873
20
0.357479
11
1.1925
21
0.352289
0
LINE
8
BLACK
6
CONTINUOUS
10
1.1925
20
0.352289
11
1.19487
21
0.346325
0
LINE
8
BLACK
6
CONTINUOUS
10
1.19487
20
0.346325
11
1.19567
21
0.339961
0
LINE
8
BLACK
6
CONTINUOUS
10
1.19567
20
0.339961
11
1.19567
21
0.300591
0
LINE
8
BLACK
6
CONTINUOUS
10
1.19567
20
0.300591
11
1.19547
21
0.297383
0
LINE
8
BLACK
6
CONTINUOUS
10
1.19547
20
0.297383
11
1.19387
21
0.29117
0
LINE
8
BLACK
6
CONTINUOUS
10
1.19387
20
0.29117
11
1.19078
21
0.285549
0
LINE
8
BLACK
6
CONTINUOUS
10
1.19078
20
0.285549
11
1.18639
21
0.280873
0
LINE
8
BLACK
6
CONTINUOUS
10
1.18639
20
0.280873
11
1.18097
21
0.277436
0
LINE
8
BLACK
6
CONTINUOUS
10
1.18097
20
0.277436
11
1.17487
21
0.275453
0
LINE
8
BLACK
6
CONTINUOUS
10
1.17487
20
0.275453
11
1.16847
21
0.275051
0
LINE
8
BLACK
6
CONTINUOUS
10
1.16847
20
0.275051
11
1.16217
21
0.276252
0
LINE
8
BLACK
6
CONTINUOUS
10
1.16217
20
0.276252
11
1.15637
21
0.278984
0
LINE
8
BLACK
6
CONTINUOUS
10
1.15637
20
0.278984
11
1.15142
21
0.283073
0
LINE
8
BLACK
6
CONTINUOUS
10
1.15142
20
0.283073
11
1.14765
21
0.288262
0
LINE
8
BLACK
6
CONTINUOUS
10
1.14765
20
0.288262
11
1.14529
21
0.294226
0
LINE
8
BLACK
6
CONTINUOUS
10
1.14529
20
0.294226
11
1.14449
21
0.300591
0
LINE
8
BLACK
6
CONTINUOUS
10
1.14449
20
0.300591
11
1.14449
21
0.339961
0
LINE
8
BLACK
6
CONTINUOUS
10
1.14449
20
0.339961
11
1.14469
21
0.343168
0
LINE
8
BLACK
6
CONTINUOUS
10
1.14469
20
0.343168
11
1.14629
21
0.349381
0
LINE
8
BLACK
6
CONTINUOUS
10
1.14629
20
0.349381
11
1.14938
21
0.355002
0
LINE
8
BLACK
6
CONTINUOUS
10
1.14938
20
0.355002
11
1.15377
21
0.359679
0
LINE
8
BLACK
6
CONTINUOUS
10
1.15377
20
0.359679
11
1.15918
21
0.363116
0
LINE
8
BLACK
6
CONTINUOUS
10
1.15918
20
0.363116
11
1.16528
21
0.365098
0
LINE
8
BLACK
6
CONTINUOUS
10
1.16528
20
0.365098
11
1.17169
21
0.365501
0
LINE
8
BLACK
6
CONTINUOUS
10
1.17169
20
0.365501
11
1.17799
21
0.364299
0
LINE
8
BLACK
6
CONTINUOUS
10
0.413885
20
0.523236
11
0.427596
21
0.520906
0
LINE
8
BLACK
6
CONTINUOUS
10
0.427596
20
0.520906
11
0.44096
21
0.517056
0
LINE
8
BLACK
6
CONTINUOUS
10
0.44096
20
0.517056
11
0.453808
21
0.511734
0
LINE
8
BLACK
6
CONTINUOUS
10
0.453808
20
0.511734
11
0.46598
21
0.505007
0
LINE
8
BLACK
6
CONTINUOUS
10
0.46598
20
0.505007
11
0.477323
21
0.496959
0
LINE
8
BLACK
6
CONTINUOUS
10
0.477323
20
0.496959
11
0.487692
21
0.487692
0
LINE
8
BLACK
6
CONTINUOUS
10
0.487692
20
0.487692
11
0.496959
21
0.477323
0
LINE
8
BLACK
6
CONTINUOUS
10
0.496959
20
0.477323
11
0.505007
21
0.46598
0
LINE
8
BLACK
6
CONTINUOUS
10
0.505007
20
0.46598
11
0.511734
21
0.453808
0
LINE
8
BLACK
6
CONTINUOUS
10
0.511734
20
0.453808
11
0.517056
21
0.44096
0
LINE
8
BLACK
6
CONTINUOUS
10
0.517056
20
0.44096
11
0.520906
21
0.427596
0
LINE
8
BLACK
6
CONTINUOUS
10
0.520906
20
0.427596
11
0.523236
21
0.413885
0
LINE
8
BLACK
6
CONTINUOUS
10
0.523236
20
0.413885
11
0.524016
21
0.4
0
LINE
8
BLACK
6
CONTINUOUS
10
0.524016
20
0.4
11
0.523236
21
0.386115
0
LINE
8
BLACK
6
CONTINUOUS
10
0.523236
20
0.386115
11
0.520906
21
0.372404
0
LINE
8
BLACK
6
CONTINUOUS
10
0.520906
20
0.372404
11
0.517056
21
0.35904
0
LINE
8
BLACK
6
CONTINUOUS
10
0.517056
20
0.35904
11
0.511734
21
0.346192
0
LINE
8
BLACK
6
CONTINUOUS
10
0.511734
20
0.346192
11
0.505007
21
0.33402
0
LINE
8
BLACK
6
CONTINUOUS
10
0.505007
20
0.33402
11
0.496959
21
0.322677
0
LINE
8
BLACK
6
CONTINUOUS
10
0.496959
20
0.322677
11
0.487692
21
0.312308
0
LINE
8
BLACK
6
CONTINUOUS
10
0.487692
20
0.312308
11
0.477323
21
0.303041
0
LINE
8
BLACK
6
CONTINUOUS
10
0.477323
20
0.303041
11
0.46598
21
0.294993
0
LINE
8
BLACK
6
CONTINUOUS
10
0.46598
20
0.294993
11
0.453808
21
0.288266
0
LINE
8
BLACK
6
CONTINUOUS
10
0.453808
20
0.288266
11
0.44096
21
0.282944
0
LINE
8
BLACK
6
CONTINUOUS
10
0.44096
20
0.282944
11
0.427596
21
0.279094
0
LINE
8
BLACK
6
CONTINUOUS
10
0.427596
20
0.279094
11
0.413885
21
0.276764
0
LINE
8
BLACK
6
CONTINUOUS
10
0.413885
20
0.276764
11
0.4
21
0.275984
0
LINE
8
BLACK
6
CONTINUOUS
10
0.4
20
0.275984
11
0.386115
21
0.276764
0
LINE
8
BLACK
6
CONTINUOUS
10
0.386115
20
0.276764
11
0.372404
21
0.279094
0
LINE
8
BLACK
6
CONTINUOUS
10
0.372404
20
0.279094
11
0.35904
21
0.282944
0
LINE
8
BLACK
6
CONTINUOUS
10
0.35904
20
0.282944
11
0.346192
21
0.288266
0
LINE
8
BLACK
6
CONTINUOUS
10
0.346192
20
0.288266
11
0.33402
21
0.294993
0
LINE
8
BLACK
6
CONTINUOUS
10
0.33402
20
0.294993
11
0.322677
21
0.303041
0
LINE
8
BLACK
6
CONTINUOUS
10
0.322677
20
0.303041
11
0.312308
21
0.312308
0
LINE
8
BLACK
6
CONTINUOUS
10
0.312308
20
0.312308
11
0.303041
21
0.322677
0
LINE
8
BLACK
6
CONTINUOUS
10
0.303041
20
0.322677
11
0.294993
21
0.33402
0
LINE
8
BLACK
6
CONTINUOUS
10
0.294993
20
0.33402
11
0.288266
21
0.346192
0
LINE
8
BLACK
6
CONTINUOUS
10
0.288266
20
0.346192
11
0.282944
21
0.35904
0
LINE
8
BLACK
6
CONTINUOUS
10
0.282944
20
0.35904
11
0.279094
21
0.372404
0
LINE
8
BLACK
6
CONTINUOUS
10
0.279094
20
0.372404
11
0.276764
21
0.386115
0
LINE
8
BLACK
6
CONTINUOUS
10
0.276764
20
0.386115
11
0.275984
21
0.4
0
LINE
8
BLACK
6
CONTINUOUS
10
0.275984
20
0.4
11
0.276764
21
0.413885
0
LINE
8
BLACK
6
CONTINUOUS
10
0.276764
20
0.413885
11
0.279094
21
0.427596
0
LINE
8
BLACK
6
CONTINUOUS
10
0.279094
20
0.427596
11
0.282944
21
0.44096
0
LINE
8
BLACK
6
CONTINUOUS
10
0.282944
20
0.44096
11
0.288266
21
0.453808
0
LINE
8
BLACK
6
CONTINUOUS
10
0.288266
20
0.453808
11
0.294993
21
0.46598
0
LINE
8
BLACK
6
CONTINUOUS
10
0.294993
20
0.46598
11
0.303041
21
0.477323
0
LINE
8
BLACK
6
CONTINUOUS
10
0.303041
20
0.477323
11
0.312308
21
0.487692
0
LINE
8
BLACK
6
CONTINUOUS
10
0.312308
20
0.487692
11
0.322677
21
0.496959
0
LINE
8
BLACK
6
CONTINUOUS
10
0.322677
20
0.496959
11
0.33402
21
0.505007
0
LINE
8
BLACK
6
CONTINUOUS
10
0.33402
20
0.505007
11
0.346192
21
0.511734
0
LINE
8
BLACK
6
CONTINUOUS
10
0.346192
20
0.511734
11
0.35904
21
0.517056
0
LINE
8
BLACK
6
CONTINUOUS
10
0.35904
20
0.517056
11
0.372404
21
0.520906
0
LINE
8
BLACK
6
CONTINUOUS
10
0.372404
20
0.520906
11
0.386115
21
0.523236
0
LINE
8
BLACK
6
CONTINUOUS
10
0.386115
20
0.523236
11
0.4
21
0.524016
0
LINE
8
BLACK
6
CONTINUOUS
10
0.4
20
0.524016
11
0.413885
21
0.523236
0
LINE
8
BLACK
6
CONTINUOUS
10
1.61389
20
0.523236
11
1.6276
21
0.520906
0
LINE
8
BLACK
6
CONTINUOUS
10
1.6276
20
0.520906
11
1.64096
21
0.517056
0
LINE
8
BLACK
6
CONTINUOUS
10
1.64096
20
0.517056
11
1.65381
21
0.511734
0
LINE
8
BLACK
6
CONTINUOUS
10
1.65381
20
0.511734
11
1.66598
21
0.505007
0
LINE
8
BLACK
6
CONTINUOUS
10
1.66598
20
0.505007
11
1.67732
21
0.496959
0
LINE
8
BLACK
6
CONTINUOUS
10
1.67732
20
0.496959
11
1.68769
21
0.487692
0
LINE
8
BLACK
6
CONTINUOUS
10
1.68769
20
0.487692
11
1.69696
21
0.477323
0
LINE
8
BLACK
6
CONTINUOUS
10
1.69696
20
0.477323
11
1.70501
21
0.46598
0
LINE
8
BLACK
6
CONTINUOUS
10
1.70501
20
0.46598
11
1.71173
21
0.453808
0
LINE
8
BLACK
6
CONTINUOUS
10
1.71173
20
0.453808
11
1.71706
21
0.44096
0
LINE
8
BLACK
6
CONTINUOUS
10
1.71706
20
0.44096
11
1.72091
21
0.427596
0
LINE
8
BLACK
6
CONTINUOUS
10
1.72091
20
0.427596
11
1.72324
21
0.413885
0
LINE
8
BLACK
6
CONTINUOUS
10
1.72324
20
0.413885
11
1.72402
21
0.4
0
LINE
8
BLACK
6
CONTINUOUS
10
1.72402
20
0.4
11
1.72324
21
0.386115
0
LINE
8
BLACK
6
CONTINUOUS
10
1.72324
20
0.386115
11
1.72091
21
0.372404
0
LINE
8
BLACK
6
CONTINUOUS
10
1.72091
20
0.372404
11
1.71706
21
0.35904
0
LINE
8
BLACK
6
CONTINUOUS
10
1.71706
20
0.35904
11
1.71173
21
0.346192
0
LINE
8
BLACK
6
CONTINUOUS
10
1.71173
20
0.346192
11
1.70501
21
0.33402
0
LINE
8
BLACK
6
CONTINUOUS
10
1.70501
20
0.33402
11
1.69696
21
0.322677
0
LINE
8
BLACK
6
CONTINUOUS
10
1.69696
20
0.322677
11
1.68769
21
0.312308
0
LINE
8
BLACK
6
CONTINUOUS
10
1.68769
20
0.312308
11
1.67732
21
0.303041
0
LINE
8
BLACK
6
CONTINUOUS
10
1.67732
20
0.303041
11
1.66598
21
0.294993
0
LINE
8
BLACK
6
CONTINUOUS
10
1.66598
20
0.294993
11
1.65381
21
0.288266
0
LINE
8
BLACK
6
CONTINUOUS
10
1.65381
20
0.288266
11
1.64096
21
0.282944
0
LINE
8
BLACK
6
CONTINUOUS
10
1.64096
20
0.282944
11
1.6276
21
0.279094
0
LINE
8
BLACK
6
CONTINUOUS
10
1.6276
20
0.279094
11
1.61389
21
0.276764
0
LINE
8
BLACK
6
CONTINUOUS
10
1.61389
20
0.276764
11
1.6
21
0.275984
0
LINE
8
BLACK
6
CONTINUOUS
10
1.6
20
0.275984
11
1.58611
21
0.276764
0
LINE
8
BLACK
6
CONTINUOUS
10
1.58611
20
0.276764
11
1.5724
21
0.279094
0
LINE
8
BLACK
6
CONTINUOUS
10
1.5724
20
0.279094
11
1.55904
21
0.282944
0
LINE
8
BLACK
6
CONTINUOUS
10
1.55904
20
0.282944
11
1.54619
21
0.288266
0
LINE
8
BLACK
6
CONTINUOUS
10
1.54619
20
0.288266
11
1.53402
21
0.294993
0
LINE
8
BLACK
6
CONTINUOUS
10
1.53402
20
0.294993
11
1.52268
21
0.303041
0
LINE
8
BLACK
6
CONTINUOUS
10
1.52268
20
0.303041
11
1.51231
21
0.312308
0
LINE
8
BLACK
6
CONTINUOUS
10
1.51231
20
0.312308
11
1.50304
21
0.322677
0
LINE
8
BLACK
6
CONTINUOUS
10
1.50304
20
0.322677
11
1.49499
21
0.33402
0
LINE
8
BLACK
6
CONTINUOUS
10
1.49499
20
0.33402
11
1.48827
21
0.346192
0
LINE
8
BLACK
6
CONTINUOUS
10
1.48827
20
0.346192
11
1.48294
21
0.35904
0
LINE
8
BLACK
6
CONTINUOUS
10
1.48294
20
0.35904
11
1.47909
21
0.372404
0
LINE
8
BLACK
6
CONTINUOUS
10
1.47909
20
0.372404
11
1.47676
21
0.386115
0
LINE
8
BLACK
6
CONTINUOUS
10
1.47676
20
0.386115
11
1.47598
21
0.4
0
LINE
8
BLACK
6
CONTINUOUS
10
1.47598
20
0.4
11
1.47676
21
0.413885
0
LINE
8
BLACK
6
CONTINUOUS
10
1.47676
20
0.413885
11
1.47909
21
0.427596
0
LINE
8
BLACK
6
CONTINUOUS
10
1.47909
20
0.427596
11
1.48294
21
0.44096
0
LINE
8
BLACK
6
CONTINUOUS
10
1.48294
20
0.44096
11
1.48827
21
0.453808
0
LINE
8
BLACK
6
CONTINUOUS
10
1.48827
20
0.453808
11
1.49499
21
0.46598
0
LINE
8
BLACK
6
CONTINUOUS
10
1.49499
20
0.46598
11
1.50304
21
0.477323
0
LINE
8
BLACK
6
CONTINUOUS
10
1.50304
20
0.477323
11
1.51231
21
0.487692
0
LINE
8
BLACK
6
CONTINUOUS
10
1.51231
20
0.487692
11
1.52268
21
0.496959
0
LINE
8
BLACK
6
CONTINUOUS
10
1.52268
20
0.496959
11
1.53402
21
0.505007
0
LINE
8
BLACK
6
CONTINUOUS
10
1.53402
20
0.505007
11
1.54619
21
0.511734
0
LINE
8
BLACK
6
CONTINUOUS
10
1.54619
20
0.511734
11
1.55904
21
0.517056
0
LINE
8
BLACK
6
CONTINUOUS
10
1.55904
20
0.517056
11
1.5724
21
0.520906
0
LINE
8
BLACK
6
CONTINUOUS
10
1.5724
20
0.520906
11
1.58611
21
0.523236
0
LINE
8
BLACK
6
CONTINUOUS
10
1.58611
20
0.523236
11
1.6
21
0.524016
0
LINE
8
BLACK
6
CONTINUOUS
10
1.6
20
0.524016
11
1.61389
21
0.523236
0
LINE
8
BLACK
6
CONTINUOUS
10
0.839345
20
0.53036
11
0.845017
21
0.527382
0
LINE
8
BLACK
6
CONTINUOUS
10
0.845017
20
0.527382
11
0.849813
21
0.523134
0
LINE
8
BLACK
6
CONTINUOUS
10
0.849813
20
0.523134
11
0.853452
21
0.517862
0
LINE
8
BLACK
6
CONTINUOUS
10
0.853452
20
0.517862
11
0.855724
21
0.511872
0
LINE
8
BLACK
6
CONTINUOUS
10
0.855724
20
0.511872
11
0.856496
21
0.505512
0
LINE
8
BLACK
6
CONTINUOUS
10
0.856496
20
0.505512
11
0.856496
21
0.464173
0
LINE
8
BLACK
6
CONTINUOUS
10
0.856496
20
0.464173
11
0.855724
21
0.457813
0
LINE
8
BLACK
6
CONTINUOUS
10
0.855724
20
0.457813
11
0.853452
21
0.451823
0
LINE
8
BLACK
6
CONTINUOUS
10
0.853452
20
0.451823
11
0.849813
21
0.446551
0
LINE
8
BLACK
6
CONTINUOUS
10
0.849813
20
0.446551
11
0.845017
21
0.442303
0
LINE
8
BLACK
6
CONTINUOUS
10
0.845017
20
0.442303
11
0.839345
21
0.439325
0
LINE
8
BLACK
6
CONTINUOUS
10
0.839345
20
0.439325
11
0.833124
21
0.437792
0
LINE
8
BLACK
6
CONTINUOUS
10
0.833124
20
0.437792
11
0.826718
21
0.437792
0
LINE
8
BLACK
6
CONTINUOUS
10
0.826718
20
0.437792
11
0.820498
21
0.439325
0
LINE
8
BLACK
6
CONTINUOUS
10
0.820498
20
0.439325
11
0.814825
21
0.442303
0
LINE
8
BLACK
6
CONTINUOUS
10
0.814825
20
0.442303
11
0.81003
21
0.446551
0
LINE
8
BLACK
6
CONTINUOUS
10
0.81003
20
0.446551
11
0.80639
21
0.451823
0
LINE
8
BLACK
6
CONTINUOUS
10
0.80639
20
0.451823
11
0.804119
21
0.457813
0
LINE
8
BLACK
6
CONTINUOUS
10
0.804119
20
0.457813
11
0.803346
21
0.464173
0
LINE
8
BLACK
6
CONTINUOUS
10
0.803346
20
0.464173
11
0.803346
21
0.505512
0
LINE
8
BLACK
6
CONTINUOUS
10
0.803346
20
0.505512
11
0.804119
21
0.511872
0
LINE
8
BLACK
6
CONTINUOUS
10
0.804119
20
0.511872
11
0.80639
21
0.517862
0
LINE
8
BLACK
6
CONTINUOUS
10
0.80639
20
0.517862
11
0.81003
21
0.523134
0
LINE
8
BLACK
6
CONTINUOUS
10
0.81003
20
0.523134
11
0.814825
21
0.527382
0
LINE
8
BLACK
6
CONTINUOUS
10
0.814825
20
0.527382
11
0.820498
21
0.53036
0
LINE
8
BLACK
6
CONTINUOUS
10
0.820498
20
0.53036
11
0.826718
21
0.531893
0
LINE
8
BLACK
6
CONTINUOUS
10
0.826718
20
0.531893
11
0.833124
21
0.531893
0
LINE
8
BLACK
6
CONTINUOUS
10
0.833124
20
0.531893
11
0.839345
21
0.53036
0
LINE
8
BLACK
6
CONTINUOUS
10
1.1795
20
0.53036
11
1.18517
21
0.527382
0
LINE
8
BLACK
6
CONTINUOUS
10
1.18517
20
0.527382
11
1.18997
21
0.523134
0
LINE
8
BLACK
6
CONTINUOUS
10
1.18997
20
0.523134
11
1.19361
21
0.517862
0
LINE
8
BLACK
6
CONTINUOUS
10
1.19361
20
0.517862
11
1.19588
21
0.511872
0
LINE
8
BLACK
6
CONTINUOUS
10
1.19588
20
0.511872
11
1.19665
21
0.505512
0
LINE
8
BLACK
6
CONTINUOUS
10
1.19665
20
0.505512
11
1.19665
21
0.464173
0
LINE
8
BLACK
6
CONTINUOUS
10
1.19665
20
0.464173
11
1.19588
21
0.457813
0
LINE
8
BLACK
6
CONTINUOUS
10
1.19588
20
0.457813
11
1.19361
21
0.451823
0
LINE
8
BLACK
6
CONTINUOUS
10
1.19361
20
0.451823
11
1.18997
21
0.446551
0
LINE
8
BLACK
6
CONTINUOUS
10
1.18997
20
0.446551
11
1.18517
21
0.442303
0
LINE
8
BLACK
6
CONTINUOUS
10
1.18517
20
0.442303
11
1.1795
21
0.439325
0
LINE
8
BLACK
6
CONTINUOUS
10
1.1795
20
0.439325
11
1.17328
21
0.437792
0
LINE
8
BLACK
6
CONTINUOUS
10
1.17328
20
0.437792
11
1.16688
21
0.437792
0
LINE
8
BLACK
6
CONTINUOUS
10
1.16688
20
0.437792
11
1.16066
21
0.439325
0
LINE
8
BLACK
6
CONTINUOUS
10
1.16066
20
0.439325
11
1.15498
21
0.442303
0
LINE
8
BLACK
6
CONTINUOUS
10
1.15498
20
0.442303
11
1.15019
21
0.446551
0
LINE
8
BLACK
6
CONTINUOUS
10
1.15019
20
0.446551
11
1.14655
21
0.451823
0
LINE
8
BLACK
6
CONTINUOUS
10
1.14655
20
0.451823
11
1.14428
21
0.457813
0
LINE
8
BLACK
6
CONTINUOUS
10
1.14428
20
0.457813
11
1.1435
21
0.464173
0
LINE
8
BLACK
6
CONTINUOUS
10
1.1435
20
0.464173
11
1.1435
21
0.505512
0
LINE
8
BLACK
6
CONTINUOUS
10
1.1435
20
0.505512
11
1.14428
21
0.511872
0
LINE
8
BLACK
6
CONTINUOUS
10
1.14428
20
0.511872
11
1.14655
21
0.517862
0
LINE
8
BLACK
6
CONTINUOUS
10
1.14655
20
0.517862
11
1.15019
21
0.523134
0
LINE
8
BLACK
6
CONTINUOUS
10
1.15019
20
0.523134
11
1.15498
21
0.527382
0
LINE
8
BLACK
6
CONTINUOUS
10
1.15498
20
0.527382
11
1.16066
21
0.53036
0
LINE
8
BLACK
6
CONTINUOUS
10
1.16066
20
0.53036
11
1.16688
21
0.531893
0
LINE
8
BLACK
6
CONTINUOUS
10
1.16688
20
0.531893
11
1.17328
21
0.531893
0
LINE
8
BLACK
6
CONTINUOUS
10
1.17328
20
0.531893
11
1.1795
21
0.53036
0
LINE
8
BLACK
6
CONTINUOUS
10
0.893989
20
0.482168
11
0.898467
21
0.479291
0
LINE
8
BLACK
6
CONTINUOUS
10
0.898467
20
0.479291
11
0.901953
21
0.475268
0
LINE
8
BLACK
6
CONTINUOUS
10
0.901953
20
0.475268
11
0.904164
21
0.470426
0
LINE
8
BLACK
6
CONTINUOUS
10
0.904164
20
0.470426
11
0.904921
21
0.465157
0
LINE
8
BLACK
6
CONTINUOUS
10
0.904921
20
0.465157
11
0.904164
21
0.459889
0
LINE
8
BLACK
6
CONTINUOUS
10
0.904164
20
0.459889
11
0.901953
21
0.455047
0
LINE
8
BLACK
6
CONTINUOUS
10
0.901953
20
0.455047
11
0.898467
21
0.451024
0
LINE
8
BLACK
6
CONTINUOUS
10
0.898467
20
0.451024
11
0.893989
21
0.448147
0
LINE
8
BLACK
6
CONTINUOUS
10
0.893989
20
0.448147
11
0.888882
21
0.446647
0
LINE
8
BLACK
6
CONTINUOUS
10
0.888882
20
0.446647
11
0.883559
21
0.446647
0
LINE
8
BLACK
6
CONTINUOUS
10
0.883559
20
0.446647
11
0.878452
21
0.448147
0
LINE
8
BLACK
6
CONTINUOUS
10
0.878452
20
0.448147
11
0.873974
21
0.451024
0
LINE
8
BLACK
6
CONTINUOUS
10
0.873974
20
0.451024
11
0.870488
21
0.455047
0
LINE
8
BLACK
6
CONTINUOUS
10
0.870488
20
0.455047
11
0.868277
21
0.459889
0
LINE
8
BLACK
6
CONTINUOUS
10
0.868277
20
0.459889
11
0.86752
21
0.465157
0
LINE
8
BLACK
6
CONTINUOUS
10
0.86752
20
0.465157
11
0.868277
21
0.470426
0
LINE
8
BLACK
6
CONTINUOUS
10
0.868277
20
0.470426
11
0.870488
21
0.475268
0
LINE
8
BLACK
6
CONTINUOUS
10
0.870488
20
0.475268
11
0.873974
21
0.479291
0
LINE
8
BLACK
6
CONTINUOUS
10
0.873974
20
0.479291
11
0.878452
21
0.482168
0
LINE
8
BLACK
6
CONTINUOUS
10
0.878452
20
0.482168
11
0.883559
21
0.483668
0
LINE
8
BLACK
6
CONTINUOUS
10
0.883559
20
0.483668
11
0.888882
21
0.483668
0
LINE
8
BLACK
6
CONTINUOUS
10
0.888882
20
0.483668
11
0.893989
21
0.482168
0
LINE
8
BLACK
6
CONTINUOUS
10
1.12155
20
0.482168
11
1.12603
21
0.479291
0
LINE
8
BLACK
6
CONTINUOUS
10
1.12603
20
0.479291
11
1.12951
21
0.475268
0
LINE
8
BLACK
6
CONTINUOUS
10
1.12951
20
0.475268
11
1.13172
21
0.470426
0
LINE
8
BLACK
6
CONTINUOUS
10
1.13172
20
0.470426
11
1.13248
21
0.465157
0
LINE
8
BLACK
6
CONTINUOUS
10
1.13248
20
0.465157
11
1.13172
21
0.459889
0
LINE
8
BLACK
6
CONTINUOUS
10
1.13172
20
0.459889
11
1.12951
21
0.455047
0
LINE
8
BLACK
6
CONTINUOUS
10
1.12951
20
0.455047
11
1.12603
21
0.451024
0
LINE
8
BLACK
6
CONTINUOUS
10
1.12603
20
0.451024
11
1.12155
21
0.448147
0
LINE
8
BLACK
6
CONTINUOUS
10
1.12155
20
0.448147
11
1.11644
21
0.446647
0
LINE
8
BLACK
6
CONTINUOUS
10
1.11644
20
0.446647
11
1.11112
21
0.446647
0
LINE
8
BLACK
6
CONTINUOUS
10
1.11112
20
0.446647
11
1.10601
21
0.448147
0
LINE
8
BLACK
6
CONTINUOUS
10
1.10601
20
0.448147
11
1.10153
21
0.451024
0
LINE
8
BLACK
6
CONTINUOUS
10
1.10153
20
0.451024
11
1.09805
21
0.455047
0
LINE
8
BLACK
6
CONTINUOUS
10
1.09805
20
0.455047
11
1.09584
21
0.459889
0
LINE
8
BLACK
6
CONTINUOUS
10
1.09584
20
0.459889
11
1.09508
21
0.465157
0
LINE
8
BLACK
6
CONTINUOUS
10
1.09508
20
0.465157
11
1.09584
21
0.470426
0
LINE
8
BLACK
6
CONTINUOUS
10
1.09584
20
0.470426
11
1.09805
21
0.475268
0
LINE
8
BLACK
6
CONTINUOUS
10
1.09805
20
0.475268
11
1.10153
21
0.479291
0
LINE
8
BLACK
6
CONTINUOUS
10
1.10153
20
0.479291
11
1.10601
21
0.482168
0
LINE
8
BLACK
6
CONTINUOUS
10
1.10601
20
0.482168
11
1.11112
21
0.483668
0
LINE
8
BLACK
6
CONTINUOUS
10
1.11112
20
0.483668
11
1.11644
21
0.483668
0
LINE
8
BLACK
6
CONTINUOUS
10
1.11644
20
0.483668
11
1.12155
21
0.482168
0
LINE
8
BLACK
6
CONTINUOUS
10
1.58248
20
0.687432
11
1.58987
21
0.685192
0
LINE
8
BLACK
6
CONTINUOUS
10
1.58987
20
0.685192
11
1.59668
21
0.681554
0
LINE
8
BLACK
6
CONTINUOUS
10
1.59668
20
0.681554
11
1.60264
21
0.676658
0
LINE
8
BLACK
6
CONTINUOUS
10
1.60264
20
0.676658
11
1.60754
21
0.670692
0
LINE
8
BLACK
6
CONTINUOUS
10
1.60754
20
0.670692
11
1.61118
21
0.663885
0
LINE
8
BLACK
6
CONTINUOUS
10
1.61118
20
0.663885
11
1.61342
21
0.6565
0
LINE
8
BLACK
6
CONTINUOUS
10
1.61342
20
0.6565
11
1.61417
21
0.648819
0
LINE
8
BLACK
6
CONTINUOUS
10
1.61417
20
0.648819
11
1.61342
21
0.641138
0
LINE
8
BLACK
6
CONTINUOUS
10
1.61342
20
0.641138
11
1.61118
21
0.633753
0
LINE
8
BLACK
6
CONTINUOUS
10
1.61118
20
0.633753
11
1.60754
21
0.626946
0
LINE
8
BLACK
6
CONTINUOUS
10
1.60754
20
0.626946
11
1.60264
21
0.62098
0
LINE
8
BLACK
6
CONTINUOUS
10
1.60264
20
0.62098
11
1.59668
21
0.616084
0
LINE
8
BLACK
6
CONTINUOUS
10
1.59668
20
0.616084
11
1.58987
21
0.612446
0
LINE
8
BLACK
6
CONTINUOUS
10
1.58987
20
0.612446
11
1.58248
21
0.610205
0
LINE
8
BLACK
6
CONTINUOUS
10
1.58248
20
0.610205
11
1.5748
21
0.609449
0
LINE
8
BLACK
6
CONTINUOUS
10
1.5748
20
0.609449
11
1.56712
21
0.610205
0
LINE
8
BLACK
6
CONTINUOUS
10
1.56712
20
0.610205
11
1.55974
21
0.612446
0
LINE
8
BLACK
6
CONTINUOUS
10
1.55974
20
0.612446
11
1.55293
21
0.616084
0
LINE
8
BLACK
6
CONTINUOUS
10
1.55293
20
0.616084
11
1.54696
21
0.62098
0
LINE
8
BLACK
6
CONTINUOUS
10
1.54696
20
0.62098
11
1.54207
21
0.626946
0
LINE
8
BLACK
6
CONTINUOUS
10
1.54207
20
0.626946
11
1.53843
21
0.633753
0
LINE
8
BLACK
6
CONTINUOUS
10
1.53843
20
0.633753
11
1.53619
21
0.641138
0
LINE
8
BLACK
6
CONTINUOUS
10
1.53619
20
0.641138
11
1.53543
21
0.648819
0
LINE
8
BLACK
6
CONTINUOUS
10
1.53543
20
0.648819
11
1.53619
21
0.6565
0
LINE
8
BLACK
6
CONTINUOUS
10
1.53619
20
0.6565
11
1.53843
21
0.663885
0
LINE
8
BLACK
6
CONTINUOUS
10
1.53843
20
0.663885
11
1.54207
21
0.670692
0
LINE
8
BLACK
6
CONTINUOUS
10
1.54207
20
0.670692
11
1.54696
21
0.676658
0
LINE
8
BLACK
6
CONTINUOUS
10
1.54696
20
0.676658
11
1.55293
21
0.681554
0
LINE
8
BLACK
6
CONTINUOUS
10
1.55293
20
0.681554
11
1.55974
21
0.685192
0
LINE
8
BLACK
6
CONTINUOUS
10
1.55974
20
0.685192
11
1.56712
21
0.687432
0
LINE
8
BLACK
6
CONTINUOUS
10
1.56712
20
0.687432
11
1.5748
21
0.688189
0
LINE
8
BLACK
6
CONTINUOUS
10
1.5748
20
0.688189
11
1.58248
21
0.687432
0
LINE
8
BLACK
6
CONTINUOUS
10
1.68248
20
0.687432
11
1.68987
21
0.685192
0
LINE
8
BLACK
6
CONTINUOUS
10
1.68987
20
0.685192
11
1.69668
21
0.681554
0
LINE
8
BLACK
6
CONTINUOUS
10
1.69668
20
0.681554
11
1.70264
21
0.676658
0
LINE
8
BLACK
6
CONTINUOUS
10
1.70264
20
0.676658
11
1.70754
21
0.670692
0
LINE
8
BLACK
6
CONTINUOUS
10
1.70754
20
0.670692
11
1.71118
21
0.663885
0
LINE
8
BLACK
6
CONTINUOUS
10
1.71118
20
0.663885
11
1.71342
21
0.6565
0
LINE
8
BLACK
6
CONTINUOUS
10
1.71342
20
0.6565
11
1.71417
21
0.648819
0
LINE
8
BLACK
6
CONTINUOUS
10
1.71417
20
0.648819
11
1.71342
21
0.641138
0
LINE
8
BLACK
6
CONTINUOUS
10
1.71342
20
0.641138
11
1.71118
21
0.633753
0
LINE
8
BLACK
6
CONTINUOUS
10
1.71118
20
0.633753
11
1.70754
21
0.626946
0
LINE
8
BLACK
6
CONTINUOUS
10
1.70754
20
0.626946
11
1.70264
21
0.62098
0
LINE
8
BLACK
6
CONTINUOUS
10
1.70264
20
0.62098
11
1.69668
21
0.616084
0
LINE
8
BLACK
6
CONTINUOUS
10
1.69668
20
0.616084
11
1.68987
21
0.612446
0
LINE
8
BLACK
6
CONTINUOUS
10
1.68987
20
0.612446
11
1.68248
21
0.610205
0
LINE
8
BLACK
6
CONTINUOUS
10
1.68248
20
0.610205
11
1.6748
21
0.609449
0
LINE
8
BLACK
6
CONTINUOUS
10
1.6748
20
0.609449
11
1.66712
21
0.610205
0
LINE
8
BLACK
6
CONTINUOUS
10
1.66712
20
0.610205
11
1.65974
21
0.612446
0
LINE
8
BLACK
6
CONTINUOUS
10
1.65974
20
0.612446
11
1.65293
21
0.616084
0
LINE
8
BLACK
6
CONTINUOUS
10
1.65293
20
0.616084
11
1.64696
21
0.62098
0
LINE
8
BLACK
6
CONTINUOUS
10
1.64696
20
0.62098
11
1.64207
21
0.626946
0
LINE
8
BLACK
6
CONTINUOUS
10
1.64207
20
0.626946
11
1.63843
21
0.633753
0
LINE
8
BLACK
6
CONTINUOUS
10
1.63843
20
0.633753
11
1.63619
21
0.641138
0
LINE
8
BLACK
6
CONTINUOUS
10
1.63619
20
0.641138
11
1.63543
21
0.648819
0
LINE
8
BLACK
6
CONTINUOUS
10
1.63543
20
0.648819
11
1.63619
21
0.6565
0
LINE
8
BLACK
6
CONTINUOUS
10
1.63619
20
0.6565
11
1.63843
21
0.663885
0
LINE
8
BLACK
6
CONTINUOUS
10
1.63843
20
0.663885
11
1.64207
21
0.670692
0
LINE
8
BLACK
6
CONTINUOUS
10
1.64207
20
0.670692
11
1.64696
21
0.676658
0
LINE
8
BLACK
6
CONTINUOUS
10
1.64696
20
0.676658
11
1.65293
21
0.681554
0
LINE
8
BLACK
6
CONTINUOUS
10
1.65293
20
0.681554
11
1.65974
21
0.685192
0
LINE
8
BLACK
6
CONTINUOUS
10
1.65974
20
0.685192
11
1.66712
21
0.687432
0
LINE
8
BLACK
6
CONTINUOUS
10
1.66712
20
0.687432
11
1.6748
21
0.688189
0
LINE
8
BLACK
6
CONTINUOUS
10
1.6748
20
0.688189
11
1.68248
21
0.687432
0
LINE
8
BLACK
6
CONTINUOUS
10
0.980606
20
0.691283
11
0.982522
21
0.690003
0
LINE
8
BLACK
6
CONTINUOUS
10
0.982522
20
0.690003
11
0.983802
21
0.688087
0
LINE
8
BLACK
6
CONTINUOUS
10
0.983802
20
0.688087
11
0.984252
21
0.685827
0
LINE
8
BLACK
6
CONTINUOUS
10
0.984252
20
0.685827
11
0.984252
21
0.618898
0
LINE
8
BLACK
6
CONTINUOUS
10
0.984252
20
0.618898
11
0.983802
21
0.616638
0
LINE
8
BLACK
6
CONTINUOUS
10
0.983802
20
0.616638
11
0.982522
21
0.614722
0
LINE
8
BLACK
6
CONTINUOUS
10
0.982522
20
0.614722
11
0.980606
21
0.613442
0
LINE
8
BLACK
6
CONTINUOUS
10
0.980606
20
0.613442
11
0.978346
21
0.612992
0
LINE
8
BLACK
6
CONTINUOUS
10
0.978346
20
0.612992
11
0.911417
21
0.612992
0
LINE
8
BLACK
6
CONTINUOUS
10
0.911417
20
0.612992
11
0.909157
21
0.613442
0
LINE
8
BLACK
6
CONTINUOUS
10
0.909157
20
0.613442
11
0.907241
21
0.614722
0
LINE
8
BLACK
6
CONTINUOUS
10
0.907241
20
0.614722
11
0.905961
21
0.616638
0
LINE
8
BLACK
6
CONTINUOUS
10
0.905961
20
0.616638
11
0.905512
21
0.618898
0
LINE
8
BLACK
6
CONTINUOUS
10
0.905512
20
0.618898
11
0.905512
21
0.685827
0
LINE
8
BLACK
6
CONTINUOUS
10
0.905512
20
0.685827
11
0.905961
21
0.688087
0
LINE
8
BLACK
6
CONTINUOUS
10
0.905961
20
0.688087
11
0.907241
21
0.690003
0
LINE
8
BLACK
6
CONTINUOUS
10
0.907241
20
0.690003
11
0.909157
21
0.691283
0
LINE
8
BLACK
6
CONTINUOUS
10
0.909157
20
0.691283
11
0.911417
21
0.691732
0
LINE
8
BLACK
6
CONTINUOUS
10
0.911417
20
0.691732
11
0.978346
21
0.691732
0
LINE
8
BLACK
6
CONTINUOUS
10
0.978346
20
0.691732
11
0.980606
21
0.691283
0
LINE
8
BLACK
6
CONTINUOUS
10
1.05256
20
0.690976
11
1.05995
21
0.688735
0
LINE
8
BLACK
6
CONTINUOUS
10
1.05995
20
0.688735
11
1.06675
21
0.685097
0
LINE
8
BLACK
6
CONTINUOUS
10
1.06675
20
0.685097
11
1.07272
21
0.680201
0
LINE
8
BLACK
6
CONTINUOUS
10
1.07272
20
0.680201
11
1.07762
21
0.674235
0
LINE
8
BLACK
6
CONTINUOUS
10
1.07762
20
0.674235
11
1.08126
21
0.667428
0
LINE
8
BLACK
6
CONTINUOUS
10
1.08126
20
0.667428
11
1.0835
21
0.660043
0
LINE
8
BLACK
6
CONTINUOUS
10
1.0835
20
0.660043
11
1.08425
21
0.652362
0
LINE
8
BLACK
6
CONTINUOUS
10
1.08425
20
0.652362
11
1.0835
21
0.644681
0
LINE
8
BLACK
6
CONTINUOUS
10
1.0835
20
0.644681
11
1.08126
21
0.637296
0
LINE
8
BLACK
6
CONTINUOUS
10
1.08126
20
0.637296
11
1.07762
21
0.630489
0
LINE
8
BLACK
6
CONTINUOUS
10
1.07762
20
0.630489
11
1.07272
21
0.624523
0
LINE
8
BLACK
6
CONTINUOUS
10
1.07272
20
0.624523
11
1.06675
21
0.619627
0
LINE
8
BLACK
6
CONTINUOUS
10
1.06675
20
0.619627
11
1.05995
21
0.615989
0
LINE
8
BLACK
6
CONTINUOUS
10
1.05995
20
0.615989
11
1.05256
21
0.613749
0
LINE
8
BLACK
6
CONTINUOUS
10
1.05256
20
0.613749
11
1.04488
21
0.612992
0
LINE
8
BLACK
6
CONTINUOUS
10
1.04488
20
0.612992
11
1.0372
21
0.613749
0
LINE
8
BLACK
6
CONTINUOUS
10
1.0372
20
0.613749
11
1.02982
21
0.615989
0
LINE
8
BLACK
6
CONTINUOUS
10
1.02982
20
0.615989
11
1.02301
21
0.619627
0
LINE
8
BLACK
6
CONTINUOUS
10
1.02301
20
0.619627
11
1.01704
21
0.624523
0
LINE
8
BLACK
6
CONTINUOUS
10
1.01704
20
0.624523
11
1.01215
21
0.630489
0
LINE
8
BLACK
6
CONTINUOUS
10
1.01215
20
0.630489
11
1.00851
21
0.637296
0
LINE
8
BLACK
6
CONTINUOUS
10
1.00851
20
0.637296
11
1.00627
21
0.644681
0
LINE
8
BLACK
6
CONTINUOUS
10
1.00627
20
0.644681
11
1.00551
21
0.652362
0
LINE
8
BLACK
6
CONTINUOUS
10
1.00551
20
0.652362
11
1.00627
21
0.660043
0
LINE
8
BLACK
6
CONTINUOUS
10
1.00627
20
0.660043
11
1.00851
21
0.667428
0
LINE
8
BLACK
6
CONTINUOUS
10
1.00851
20
0.667428
11
1.01215
21
0.674235
0
LINE
8
BLACK
6
CONTINUOUS
10
1.01215
20
0.674235
11
1.01704
21
0.680201
0
LINE
8
BLACK
6
CONTINUOUS
10
1.01704
20
0.680201
11
1.02301
21
0.685097
0
LINE
8
BLACK
6
CONTINUOUS
10
1.02301
20
0.685097
11
1.02982
21
0.688735
0
LINE
8
BLACK
6
CONTINUOUS
10
1.02982
20
0.688735
11
1.0372
21
0.690976
0
LINE
8
BLACK
6
CONTINUOUS
10
1.0372
20
0.690976
11
1.04488
21
0.691732
0
LINE
8
BLACK
6
CONTINUOUS
10
1.04488
20
0.691732
11
1.05256
21
0.690976
0
LINE
8
BLACK
6
CONTINUOUS
10
0.568901
20
0.719125
11
0.576287
21
0.716885
0
LINE
8
BLACK
6
CONTINUOUS
10
0.576287
20
0.716885
11
0.583093
21
0.713247
0
LINE
8
BLACK
6
CONTINUOUS
10
0.583093
20
0.713247
11
0.589059
21
0.708351
0
LINE
8
BLACK
6
CONTINUOUS
10
0.589059
20
0.708351
11
0.593956
21
0.702385
0
LINE
8
BLACK
6
CONTINUOUS
10
0.593956
20
0.702385
11
0.597594
21
0.695578
0
LINE
8
BLACK
6
CONTINUOUS
10
0.597594
20
0.695578
11
0.599834
21
0.688193
0
LINE
8
BLACK
6
CONTINUOUS
10
0.599834
20
0.688193
11
0.600591
21
0.680512
0
LINE
8
BLACK
6
CONTINUOUS
10
0.600591
20
0.680512
11
0.599834
21
0.672831
0
LINE
8
BLACK
6
CONTINUOUS
10
0.599834
20
0.672831
11
0.597594
21
0.665446
0
LINE
8
BLACK
6
CONTINUOUS
10
0.597594
20
0.665446
11
0.593956
21
0.658639
0
LINE
8
BLACK
6
CONTINUOUS
10
0.593956
20
0.658639
11
0.589059
21
0.652673
0
LINE
8
BLACK
6
CONTINUOUS
10
0.589059
20
0.652673
11
0.583093
21
0.647777
0
LINE
8
BLACK
6
CONTINUOUS
10
0.583093
20
0.647777
11
0.576287
21
0.644139
0
LINE
8
BLACK
6
CONTINUOUS
10
0.576287
20
0.644139
11
0.568901
21
0.641898
0
LINE
8
BLACK
6
CONTINUOUS
10
0.568901
20
0.641898
11
0.56122
21
0.641142
0
LINE
8
BLACK
6
CONTINUOUS
10
0.56122
20
0.641142
11
0.55354
21
0.641898
0
LINE
8
BLACK
6
CONTINUOUS
10
0.55354
20
0.641898
11
0.546154
21
0.644139
0
LINE
8
BLACK
6
CONTINUOUS
10
0.546154
20
0.644139
11
0.539348
21
0.647777
0
LINE
8
BLACK
6
CONTINUOUS
10
0.539348
20
0.647777
11
0.533382
21
0.652673
0
LINE
8
BLACK
6
CONTINUOUS
10
0.533382
20
0.652673
11
0.528485
21
0.658639
0
LINE
8
BLACK
6
CONTINUOUS
10
0.528485
20
0.658639
11
0.524847
21
0.665446
0
LINE
8
BLACK
6
CONTINUOUS
10
0.524847
20
0.665446
11
0.522607
21
0.672831
0
LINE
8
BLACK
6
CONTINUOUS
10
0.522607
20
0.672831
11
0.52185
21
0.680512
0
LINE
8
BLACK
6
CONTINUOUS
10
0.52185
20
0.680512
11
0.522607
21
0.688193
0
LINE
8
BLACK
6
CONTINUOUS
10
0.522607
20
0.688193
11
0.524847
21
0.695578
0
LINE
8
BLACK
6
CONTINUOUS
10
0.524847
20
0.695578
11
0.528485
21
0.702385
0
LINE
8
BLACK
6
CONTINUOUS
10
0.528485
20
0.702385
11
0.533382
21
0.708351
0
LINE
8
BLACK
6
CONTINUOUS
10
0.533382
20
0.708351
11
0.539348
21
0.713247
0
LINE
8
BLACK
6
CONTINUOUS
10
0.539348
20
0.713247
11
0.546154
21
0.716885
0
LINE
8
BLACK
6
CONTINUOUS
10
0.546154
20
0.716885
11
0.55354
21
0.719125
0
LINE
8
BLACK
6
CONTINUOUS
10
0.55354
20
0.719125
11
0.56122
21
0.719882
0
LINE
8
BLACK
6
CONTINUOUS
10
0.56122
20
0.719882
11
0.568901
21
0.719125
0
LINE
8
BLACK
6
CONTINUOUS
10
0.668901
20
0.719125
11
0.676287
21
0.716885
0
LINE
8
BLACK
6
CONTINUOUS
10
0.676287
20
0.716885
11
0.683093
21
0.713247
0
LINE
8
BLACK
6
CONTINUOUS
10
0.683093
20
0.713247
11
0.689059
21
0.708351
0
LINE
8
BLACK
6
CONTINUOUS
10
0.689059
20
0.708351
11
0.693956
21
0.702385
0
LINE
8
BLACK
6
CONTINUOUS
10
0.693956
20
0.702385
11
0.697594
21
0.695578
0
LINE
8
BLACK
6
CONTINUOUS
10
0.697594
20
0.695578
11
0.699834
21
0.688193
0
LINE
8
BLACK
6
CONTINUOUS
10
0.699834
20
0.688193
11
0.700591
21
0.680512
0
LINE
8
BLACK
6
CONTINUOUS
10
0.700591
20
0.680512
11
0.699834
21
0.672831
0
LINE
8
BLACK
6
CONTINUOUS
10
0.699834
20
0.672831
11
0.697594
21
0.665446
0
LINE
8
BLACK
6
CONTINUOUS
10
0.697594
20
0.665446
11
0.693956
21
0.658639
0
LINE
8
BLACK
6
CONTINUOUS
10
0.693956
20
0.658639
11
0.689059
21
0.652673
0
LINE
8
BLACK
6
CONTINUOUS
10
0.689059
20
0.652673
11
0.683093
21
0.647777
0
LINE
8
BLACK
6
CONTINUOUS
10
0.683093
20
0.647777
11
0.676287
21
0.644139
0
LINE
8
BLACK
6
CONTINUOUS
10
0.676287
20
0.644139
11
0.668901
21
0.641898
0
LINE
8
BLACK
6
CONTINUOUS
10
0.668901
20
0.641898
11
0.66122
21
0.641142
0
LINE
8
BLACK
6
CONTINUOUS
10
0.66122
20
0.641142
11
0.65354
21
0.641898
0
LINE
8
BLACK
6
CONTINUOUS
10
0.65354
20
0.641898
11
0.646154
21
0.644139
0
LINE
8
BLACK
6
CONTINUOUS
10
0.646154
20
0.644139
11
0.639348
21
0.647777
0
LINE
8
BLACK
6
CONTINUOUS
10
0.639348
20
0.647777
11
0.633382
21
0.652673
0
LINE
8
BLACK
6
CONTINUOUS
10
0.633382
20
0.652673
11
0.628485
21
0.658639
0
LINE
8
BLACK
6
CONTINUOUS
10
0.628485
20
0.658639
11
0.624847
21
0.665446
0
LINE
8
BLACK
6
CONTINUOUS
10
0.624847
20
0.665446
11
0.622607
21
0.672831
0
LINE
8
BLACK
6
CONTINUOUS
10
0.622607
20
0.672831
11
0.62185
21
0.680512
0
LINE
8
BLACK
6
CONTINUOUS
10
0.62185
20
0.680512
11
0.622607
21
0.688193
0
LINE
8
BLACK
6
CONTINUOUS
10
0.622607
20
0.688193
11
0.624847
21
0.695578
0
LINE
8
BLACK
6
CONTINUOUS
10
0.624847
20
0.695578
11
0.628485
21
0.702385
0
LINE
8
BLACK
6
CONTINUOUS
10
0.628485
20
0.702385
11
0.633382
21
0.708351
0
LINE
8
BLACK
6
CONTINUOUS
10
0.633382
20
0.708351
11
0.639348
21
0.713247
0
LINE
8
BLACK
6
CONTINUOUS
10
0.639348
20
0.713247
11
0.646154
21
0.716885
0
LINE
8
BLACK
6
CONTINUOUS
10
0.646154
20
0.716885
11
0.65354
21
0.719125
0
LINE
8
BLACK
6
CONTINUOUS
10
0.65354
20
0.719125
11
0.66122
21
0.719882
0
LINE
8
BLACK
6
CONTINUOUS
10
0.66122
20
0.719882
11
0.668901
21
0.719125
0
LINE
8
BLACK
6
CONTINUOUS
10
1.58248
20
0.787432
11
1.58987
21
0.785192
0
LINE
8
BLACK
6
CONTINUOUS
10
1.58987
20
0.785192
11
1.59668
21
0.781554
0
LINE
8
BLACK
6
CONTINUOUS
10
1.59668
20
0.781554
11
1.60264
21
0.776658
0
LINE
8
BLACK
6
CONTINUOUS
10
1.60264
20
0.776658
11
1.60754
21
0.770692
0
LINE
8
BLACK
6
CONTINUOUS
10
1.60754
20
0.770692
11
1.61118
21
0.763885
0
LINE
8
BLACK
6
CONTINUOUS
10
1.61118
20
0.763885
11
1.61342
21
0.7565
0
LINE
8
BLACK
6
CONTINUOUS
10
1.61342
20
0.7565
11
1.61417
21
0.748819
0
LINE
8
BLACK
6
CONTINUOUS
10
1.61417
20
0.748819
11
1.61342
21
0.741138
0
LINE
8
BLACK
6
CONTINUOUS
10
1.61342
20
0.741138
11
1.61118
21
0.733753
0
LINE
8
BLACK
6
CONTINUOUS
10
1.61118
20
0.733753
11
1.60754
21
0.726946
0
LINE
8
BLACK
6
CONTINUOUS
10
1.60754
20
0.726946
11
1.60264
21
0.72098
0
LINE
8
BLACK
6
CONTINUOUS
10
1.60264
20
0.72098
11
1.59668
21
0.716084
0
LINE
8
BLACK
6
CONTINUOUS
10
1.59668
20
0.716084
11
1.58987
21
0.712446
0
LINE
8
BLACK
6
CONTINUOUS
10
1.58987
20
0.712446
11
1.58248
21
0.710205
0
LINE
8
BLACK
6
CONTINUOUS
10
1.58248
20
0.710205
11
1.5748
21
0.709449
0
LINE
8
BLACK
6
CONTINUOUS
10
1.5748
20
0.709449
11
1.56712
21
0.710205
0
LINE
8
BLACK
6
CONTINUOUS
10
1.56712
20
0.710205
11
1.55974
21
0.712446
0
LINE
8
BLACK
6
CONTINUOUS
10
1.55974
20
0.712446
11
1.55293
21
0.716084
0
LINE
8
BLACK
6
CONTINUOUS
10
1.55293
20
0.716084
11
1.54696
21
0.72098
0
LINE
8
BLACK
6
CONTINUOUS
10
1.54696
20
0.72098
11
1.54207
21
0.726946
0
LINE
8
BLACK
6
CONTINUOUS
10
1.54207
20
0.726946
11
1.53843
21
0.733753
0
LINE
8
BLACK
6
CONTINUOUS
10
1.53843
20
0.733753
11
1.53619
21
0.741138
0
LINE
8
BLACK
6
CONTINUOUS
10
1.53619
20
0.741138
11
1.53543
21
0.748819
0
LINE
8
BLACK
6
CONTINUOUS
10
1.53543
20
0.748819
11
1.53619
21
0.7565
0
LINE
8
BLACK
6
CONTINUOUS
10
1.53619
20
0.7565
11
1.53843
21
0.763885
0
LINE
8
BLACK
6
CONTINUOUS
10
1.53843
20
0.763885
11
1.54207
21
0.770692
0
LINE
8
BLACK
6
CONTINUOUS
10
1.54207
20
0.770692
11
1.54696
21
0.776658
0
LINE
8
BLACK
6
CONTINUOUS
10
1.54696
20
0.776658
11
1.55293
21
0.781554
0
LINE
8
BLACK
6
CONTINUOUS
10
1.55293
20
0.781554
11
1.55974
21
0.785192
0
LINE
8
BLACK
6
CONTINUOUS
10
1.55974
20
0.785192
11
1.56712
21
0.787432
0
LINE
8
BLACK
6
CONTINUOUS
10
1.56712
20
0.787432
11
1.5748
21
0.788189
0
LINE
8
BLACK
6
CONTINUOUS
10
1.5748
20
0.788189
11
1.58248
21
0.787432
0
LINE
8
BLACK
6
CONTINUOUS
10
1.68248
20
0.787432
11
1.68987
21
0.785192
0
LINE
8
BLACK
6
CONTINUOUS
10
1.68987
20
0.785192
11
1.69668
21
0.781554
0
LINE
8
BLACK
6
CONTINUOUS
10
1.69668
20
0.781554
11
1.70264
21
0.776658
0
LINE
8
BLACK
6
CONTINUOUS
10
1.70264
20
0.776658
11
1.70754
21
0.770692
0
LINE
8
BLACK
6
CONTINUOUS
10
1.70754
20
0.770692
11
1.71118
21
0.763885
0
LINE
8
BLACK
6
CONTINUOUS
10
1.71118
20
0.763885
11
1.71342
21
0.7565
0
LINE
8
BLACK
6
CONTINUOUS
10
1.71342
20
0.7565
11
1.71417
21
0.748819
0
LINE
8
BLACK
6
CONTINUOUS
10
1.71417
20
0.748819
11
1.71342
21
0.741138
0
LINE
8
BLACK
6
CONTINUOUS
10
1.71342
20
0.741138
11
1.71118
21
0.733753
0
LINE
8
BLACK
6
CONTINUOUS
10
1.71118
20
0.733753
11
1.70754
21
0.726946
0
LINE
8
BLACK
6
CONTINUOUS
10
1.70754
20
0.726946
11
1.70264
21
0.72098
0
LINE
8
BLACK
6
CONTINUOUS
10
1.70264
20
0.72098
11
1.69668
21
0.716084
0
LINE
8
BLACK
6
CONTINUOUS
10
1.69668
20
0.716084
11
1.68987
21
0.712446
0
LINE
8
BLACK
6
CONTINUOUS
10
1.68987
20
0.712446
11
1.68248
21
0.710205
0
LINE
8
BLACK
6
CONTINUOUS
10
1.68248
20
0.710205
11
1.6748
21
0.709449
0
LINE
8
BLACK
6
CONTINUOUS
10
1.6748
20
0.709449
11
1.66712
21
0.710205
0
LINE
8
BLACK
6
CONTINUOUS
10
1.66712
20
0.710205
11
1.65974
21
0.712446
0
LINE
8
BLACK
6
CONTINUOUS
10
1.65974
20
0.712446
11
1.65293
21
0.716084
0
LINE
8
BLACK
6
CONTINUOUS
10
1.65293
20
0.716084
11
1.64696
21
0.72098
0
LINE
8
BLACK
6
CONTINUOUS
10
1.64696
20
0.72098
11
1.64207
21
0.726946
0
LINE
8
BLACK
6
CONTINUOUS
10
1.64207
20
0.726946
11
1.63843
21
0.733753
0
LINE
8
BLACK
6
CONTINUOUS
10
1.63843
20
0.733753
11
1.63619
21
0.741138
0
LINE
8
BLACK
6
CONTINUOUS
10
1.63619
20
0.741138
11
1.63543
21
0.748819
0
LINE
8
BLACK
6
CONTINUOUS
10
1.63543
20
0.748819
11
1.63619
21
0.7565
0
LINE
8
BLACK
6
CONTINUOUS
10
1.63619
20
0.7565
11
1.63843
21
0.763885
0
LINE
8
BLACK
6
CONTINUOUS
10
1.63843
20
0.763885
11
1.64207
21
0.770692
0
LINE
8
BLACK
6
CONTINUOUS
10
1.64207
20
0.770692
11
1.64696
21
0.776658
0
LINE
8
BLACK
6
CONTINUOUS
10
1.64696
20
0.776658
11
1.65293
21
0.781554
0
LINE
8
BLACK
6
CONTINUOUS
10
1.65293
20
0.781554
11
1.65974
21
0.785192
0
LINE
8
BLACK
6
CONTINUOUS
10
1.65974
20
0.785192
11
1.66712
21
0.787432
0
LINE
8
BLACK
6
CONTINUOUS
10
1.66712
20
0.787432
11
1.6748
21
0.788189
0
LINE
8
BLACK
6
CONTINUOUS
10
1.6748
20
0.788189
11
1.68248
21
0.787432
0
LINE
8
BLACK
6
CONTINUOUS
10
0.568901
20
0.819125
11
0.576287
21
0.816885
0
LINE
8
BLACK
6
CONTINUOUS
10
0.576287
20
0.816885
11
0.583093
21
0.813247
0
LINE
8
BLACK
6
CONTINUOUS
10
0.583093
20
0.813247
11
0.589059
21
0.808351
0
LINE
8
BLACK
6
CONTINUOUS
10
0.589059
20
0.808351
11
0.593956
21
0.802385
0
LINE
8
BLACK
6
CONTINUOUS
10
0.593956
20
0.802385
11
0.597594
21
0.795578
0
LINE
8
BLACK
6
CONTINUOUS
10
0.597594
20
0.795578
11
0.599834
21
0.788193
0
LINE
8
BLACK
6
CONTINUOUS
10
0.599834
20
0.788193
11
0.600591
21
0.780512
0
LINE
8
BLACK
6
CONTINUOUS
10
0.600591
20
0.780512
11
0.599834
21
0.772831
0
LINE
8
BLACK
6
CONTINUOUS
10
0.599834
20
0.772831
11
0.597594
21
0.765446
0
LINE
8
BLACK
6
CONTINUOUS
10
0.597594
20
0.765446
11
0.593956
21
0.758639
0
LINE
8
BLACK
6
CONTINUOUS
10
0.593956
20
0.758639
11
0.589059
21
0.752673
0
LINE
8
BLACK
6
CONTINUOUS
10
0.589059
20
0.752673
11
0.583093
21
0.747777
0
LINE
8
BLACK
6
CONTINUOUS
10
0.583093
20
0.747777
11
0.576287
21
0.744139
0
LINE
8
BLACK
6
CONTINUOUS
10
0.576287
20
0.744139
11
0.568901
21
0.741898
0
LINE
8
BLACK
6
CONTINUOUS
10
0.568901
20
0.741898
11
0.56122
21
0.741142
0
LINE
8
BLACK
6
CONTINUOUS
10
0.56122
20
0.741142
11
0.55354
21
0.741898
0
LINE
8
BLACK
6
CONTINUOUS
10
0.55354
20
0.741898
11
0.546154
21
0.744139
0
LINE
8
BLACK
6
CONTINUOUS
10
0.546154
20
0.744139
11
0.539348
21
0.747777
0
LINE
8
BLACK
6
CONTINUOUS
10
0.539348
20
0.747777
11
0.533382
21
0.752673
0
LINE
8
BLACK
6
CONTINUOUS
10
0.533382
20
0.752673
11
0.528485
21
0.758639
0
LINE
8
BLACK
6
CONTINUOUS
10
0.528485
20
0.758639
11
0.524847
21
0.765446
0
LINE
8
BLACK
6
CONTINUOUS
10
0.524847
20
0.765446
11
0.522607
21
0.772831
0
LINE
8
BLACK
6
CONTINUOUS
10
0.522607
20
0.772831
11
0.52185
21
0.780512
0
LINE
8
BLACK
6
CONTINUOUS
10
0.52185
20
0.780512
11
0.522607
21
0.788193
0
LINE
8
BLACK
6
CONTINUOUS
10
0.522607
20
0.788193
11
0.524847
21
0.795578
0
LINE
8
BLACK
6
CONTINUOUS
10
0.524847
20
0.795578
11
0.528485
21
0.802385
0
LINE
8
BLACK
6
CONTINUOUS
10
0.528485
20
0.802385
11
0.533382
21
0.808351
0
LINE
8
BLACK
6
CONTINUOUS
10
0.533382
20
0.808351
11
0.539348
21
0.813247
0
LINE
8
BLACK
6
CONTINUOUS
10
0.539348
20
0.813247
11
0.546154
21
0.816885
0
LINE
8
BLACK
6
CONTINUOUS
10
0.546154
20
0.816885
11
0.55354
21
0.819125
0
LINE
8
BLACK
6
CONTINUOUS
10
0.55354
20
0.819125
11
0.56122
21
0.819882
0
LINE
8
BLACK
6
CONTINUOUS
10
0.56122
20
0.819882
11
0.568901
21
0.819125
0
LINE
8
BLACK
6
CONTINUOUS
10
0.668901
20
0.819125
11
0.676287
21
0.816885
0
LINE
8
BLACK
6
CONTINUOUS
10
0.676287
20
0.816885
11
0.683093
21
0.813247
0
LINE
8
BLACK
6
CONTINUOUS
10
0.683093
20
0.813247
11
0.689059
21
0.808351
0
LINE
8
BLACK
6
CONTINUOUS
10
0.689059
20
0.808351
11
0.693956
21
0.802385
0
LINE
8
BLACK
6
CONTINUOUS
10
0.693956
20
0.802385
11
0.697594
21
0.795578
0
LINE
8
BLACK
6
CONTINUOUS
10
0.697594
20
0.795578
11
0.699834
21
0.788193
0
LINE
8
BLACK
6
CONTINUOUS
10
0.699834
20
0.788193
11
0.700591
21
0.780512
0
LINE
8
BLACK
6
CONTINUOUS
10
0.700591
20
0.780512
11
0.699834
21
0.772831
0
LINE
8
BLACK
6
CONTINUOUS
10
0.699834
20
0.772831
11
0.697594
21
0.765446
0
LINE
8
BLACK
6
CONTINUOUS
10
0.697594
20
0.765446
11
0.693956
21
0.758639
0
LINE
8
BLACK
6
CONTINUOUS
10
0.693956
20
0.758639
11
0.689059
21
0.752673
0
LINE
8
BLACK
6
CONTINUOUS
10
0.689059
20
0.752673
11
0.683093
21
0.747777
0
LINE
8
BLACK
6
CONTINUOUS
10
0.683093
20
0.747777
11
0.676287
21
0.744139
0
LINE
8
BLACK
6
CONTINUOUS
10
0.676287
20
0.744139
11
0.668901
21
0.741898
0
LINE
8
BLACK
6
CONTINUOUS
10
0.668901
20
0.741898
11
0.66122
21
0.741142
0
LINE
8
BLACK
6
CONTINUOUS
10
0.66122
20
0.741142
11
0.65354
21
0.741898
0
LINE
8
BLACK
6
CONTINUOUS
10
0.65354
20
0.741898
11
0.646154
21
0.744139
0
LINE
8
BLACK
6
CONTINUOUS
10
0.646154
20
0.744139
11
0.639348
21
0.747777
0
LINE
8
BLACK
6
CONTINUOUS
10
0.639348
20
0.747777
11
0.633382
21
0.752673
0
LINE
8
BLACK
6
CONTINUOUS
10
0.633382
20
0.752673
11
0.628485
21
0.758639
0
LINE
8
BLACK
6
CONTINUOUS
10
0.628485
20
0.758639
11
0.624847
21
0.765446
0
LINE
8
BLACK
6
CONTINUOUS
10
0.624847
20
0.765446
11
0.622607
21
0.772831
0
LINE
8
BLACK
6
CONTINUOUS
10
0.622607
20
0.772831
11
0.62185
21
0.780512
0
LINE
8
BLACK
6
CONTINUOUS
10
0.62185
20
0.780512
11
0.622607
21
0.788193
0
LINE
8
BLACK
6
CONTINUOUS
10
0.622607
20
0.788193
11
0.624847
21
0.795578
0
LINE
8
BLACK
6
CONTINUOUS
10
0.624847
20
0.795578
11
0.628485
21
0.802385
0
LINE
8
BLACK
6
CONTINUOUS
10
0.628485
20
0.802385
11
0.633382
21
0.808351
0
LINE
8
BLACK
6
CONTINUOUS
10
0.633382
20
0.808351
11
0.639348
21
0.813247
0
LINE
8
BLACK
6
CONTINUOUS
10
0.639348
20
0.813247
11
0.646154
21
0.816885
0
LINE
8
BLACK
6
CONTINUOUS
10
0.646154
20
0.816885
11
0.65354
21
0.819125
0
LINE
8
BLACK
6
CONTINUOUS
10
0.65354
20
0.819125
11
0.66122
21
0.819882
0
LINE
8
BLACK
6
CONTINUOUS
10
0.66122
20
0.819882
11
0.668901
21
0.819125
0
LINE
8
BLACK
6
CONTINUOUS
10
1.58248
20
0.887432
11
1.58987
21
0.885192
0
LINE
8
BLACK
6
CONTINUOUS
10
1.58987
20
0.885192
11
1.59668
21
0.881554
0
LINE
8
BLACK
6
CONTINUOUS
10
1.59668
20
0.881554
11
1.60264
21
0.876658
0
LINE
8
BLACK
6
CONTINUOUS
10
1.60264
20
0.876658
11
1.60754
21
0.870692
0
LINE
8
BLACK
6
CONTINUOUS
10
1.60754
20
0.870692
11
1.61118
21
0.863885
0
LINE
8
BLACK
6
CONTINUOUS
10
1.61118
20
0.863885
11
1.61342
21
0.8565
0
LINE
8
BLACK
6
CONTINUOUS
10
1.61342
20
0.8565
11
1.61417
21
0.848819
0
LINE
8
BLACK
6
CONTINUOUS
10
1.61417
20
0.848819
11
1.61342
21
0.841138
0
LINE
8
BLACK
6
CONTINUOUS
10
1.61342
20
0.841138
11
1.61118
21
0.833753
0
LINE
8
BLACK
6
CONTINUOUS
10
1.61118
20
0.833753
11
1.60754
21
0.826946
0
LINE
8
BLACK
6
CONTINUOUS
10
1.60754
20
0.826946
11
1.60264
21
0.82098
0
LINE
8
BLACK
6
CONTINUOUS
10
1.60264
20
0.82098
11
1.59668
21
0.816084
0
LINE
8
BLACK
6
CONTINUOUS
10
1.59668
20
0.816084
11
1.58987
21
0.812446
0
LINE
8
BLACK
6
CONTINUOUS
10
1.58987
20
0.812446
11
1.58248
21
0.810205
0
LINE
8
BLACK
6
CONTINUOUS
10
1.58248
20
0.810205
11
1.5748
21
0.809449
0
LINE
8
BLACK
6
CONTINUOUS
10
1.5748
20
0.809449
11
1.56712
21
0.810205
0
LINE
8
BLACK
6
CONTINUOUS
10
1.56712
20
0.810205
11
1.55974
21
0.812446
0
LINE
8
BLACK
6
CONTINUOUS
10
1.55974
20
0.812446
11
1.55293
21
0.816084
0
LINE
8
BLACK
6
CONTINUOUS
10
1.55293
20
0.816084
11
1.54696
21
0.82098
0
LINE
8
BLACK
6
CONTINUOUS
10
1.54696
20
0.82098
11
1.54207
21
0.826946
0
LINE
8
BLACK
6
CONTINUOUS
10
1.54207
20
0.826946
11
1.53843
21
0.833753
0
LINE
8
BLACK
6
CONTINUOUS
10
1.53843
20
0.833753
11
1.53619
21
0.841138
0
LINE
8
BLACK
6
CONTINUOUS
10
1.53619
20
0.841138
11
1.53543
21
0.848819
0
LINE
8
BLACK
6
CONTINUOUS
10
1.53543
20
0.848819
11
1.53619
21
0.8565
0
LINE
8
BLACK
6
CONTINUOUS
10
1.53619
20
0.8565
11
1.53843
21
0.863885
0
LINE
8
BLACK
6
CONTINUOUS
10
1.53843
20
0.863885
11
1.54207
21
0.870692
0
LINE
8
BLACK
6
CONTINUOUS
10
1.54207
20
0.870692
11
1.54696
21
0.876658
0
LINE
8
BLACK
6
CONTINUOUS
10
1.54696
20
0.876658
11
1.55293
21
0.881554
0
LINE
8
BLACK
6
CONTINUOUS
10
1.55293
20
0.881554
11
1.55974
21
0.885192
0
LINE
8
BLACK
6
CONTINUOUS
10
1.55974
20
0.885192
11
1.56712
21
0.887432
0
LINE
8
BLACK
6
CONTINUOUS
10
1.56712
20
0.887432
11
1.5748
21
0.888189
0
LINE
8
BLACK
6
CONTINUOUS
10
1.5748
20
0.888189
11
1.58248
21
0.887432
0
LINE
8
BLACK
6
CONTINUOUS
10
1.68248
20
0.887432
11
1.68987
21
0.885192
0
LINE
8
BLACK
6
CONTINUOUS
10
1.68987
20
0.885192
11
1.69668
21
0.881554
0
LINE
8
BLACK
6
CONTINUOUS
10
1.69668
20
0.881554
11
1.70264
21
0.876658
0
LINE
8
BLACK
6
CONTINUOUS
10
1.70264
20
0.876658
11
1.70754
21
0.870692
0
LINE
8
BLACK
6
CONTINUOUS
10
1.70754
20
0.870692
11
1.71118
21
0.863885
0
LINE
8
BLACK
6
CONTINUOUS
10
1.71118
20
0.863885
11
1.71342
21
0.8565
0
LINE
8
BLACK
6
CONTINUOUS
10
1.71342
20
0.8565
11
1.71417
21
0.848819
0
LINE
8
BLACK
6
CONTINUOUS
10
1.71417
20
0.848819
11
1.71342
21
0.841138
0
LINE
8
BLACK
6
CONTINUOUS
10
1.71342
20
0.841138
11
1.71118
21
0.833753
0
LINE
8
BLACK
6
CONTINUOUS
10
1.71118
20
0.833753
11
1.70754
21
0.826946
0
LINE
8
BLACK
6
CONTINUOUS
10
1.70754
20
0.826946
11
1.70264
21
0.82098
0
LINE
8
BLACK
6
CONTINUOUS
10
1.70264
20
0.82098
11
1.69668
21
0.816084
0
LINE
8
BLACK
6
CONTINUOUS
10
1.69668
20
0.816084
11
1.68987
21
0.812446
0
LINE
8
BLACK
6
CONTINUOUS
10
1.68987
20
0.812446
11
1.68248
21
0.810205
0
LINE
8
BLACK
6
CONTINUOUS
10
1.68248
20
0.810205
11
1.6748
21
0.809449
0
LINE
8
BLACK
6
CONTINUOUS
10
1.6748
20
0.809449
11
1.66712
21
0.810205
0
LINE
8
BLACK
6
CONTINUOUS
10
1.66712
20
0.810205
11
1.65974
21
0.812446
0
LINE
8
BLACK
6
CONTINUOUS
10
1.65974
20
0.812446
11
1.65293
21
0.816084
0
LINE
8
BLACK
6
CONTINUOUS
10
1.65293
20
0.816084
11
1.64696
21
0.82098
0
LINE
8
BLACK
6
CONTINUOUS
10
1.64696
20
0.82098
11
1.64207
21
0.826946
0
LINE
8
BLACK
6
CONTINUOUS
10
1.64207
20
0.826946
11
1.63843
21
0.833753
0
LINE
8
BLACK
6
CONTINUOUS
10
1.63843
20
0.833753
11
1.63619
21
0.841138
0
LINE
8
BLACK
6
CONTINUOUS
10
1.63619
20
0.841138
11
1.63543
21
0.848819
0
LINE
8
BLACK
6
CONTINUOUS
10
1.63543
20
0.848819
11
1.63619
21
0.8565
0
LINE
8
BLACK
6
CONTINUOUS
10
1.63619
20
0.8565
11
1.63843
21
0.863885
0
LINE
8
BLACK
6
CONTINUOUS
10
1.63843
20
0.863885
11
1.64207
21
0.870692
0
LINE
8
BLACK
6
CONTINUOUS
10
1.64207
20
0.870692
11
1.64696
21
0.876658
0
LINE
8
BLACK
6
CONTINUOUS
10
1.64696
20
0.876658
11
1.65293
21
0.881554
0
LINE
8
BLACK
6
CONTINUOUS
10
1.65293
20
0.881554
11
1.65974
21
0.885192
0
LINE
8
BLACK
6
CONTINUOUS
10
1.65974
20
0.885192
11
1.66712
21
0.887432
0
LINE
8
BLACK
6
CONTINUOUS
10
1.66712
20
0.887432
11
1.6748
21
0.888189
0
LINE
8
BLACK
6
CONTINUOUS
10
1.6748
20
0.888189
11
1.68248
21
0.887432
0
LINE
8
BLACK
6
CONTINUOUS
10
0.568901
20
0.919125
11
0.576287
21
0.916885
0
LINE
8
BLACK
6
CONTINUOUS
10
0.576287
20
0.916885
11
0.583093
21
0.913247
0
LINE
8
BLACK
6
CONTINUOUS
10
0.583093
20
0.913247
11
0.589059
21
0.908351
0
LINE
8
BLACK
6
CONTINUOUS
10
0.589059
20
0.908351
11
0.593956
21
0.902385
0
LINE
8
BLACK
6
CONTINUOUS
10
0.593956
20
0.902385
11
0.597594
21
0.895578
0
LINE
8
BLACK
6
CONTINUOUS
10
0.597594
20
0.895578
11
0.599834
21
0.888193
0
LINE
8
BLACK
6
CONTINUOUS
10
0.599834
20
0.888193
11
0.600591
21
0.880512
0
LINE
8
BLACK
6
CONTINUOUS
10
0.600591
20
0.880512
11
0.599834
21
0.872831
0
LINE
8
BLACK
6
CONTINUOUS
10
0.599834
20
0.872831
11
0.597594
21
0.865446
0
LINE
8
BLACK
6
CONTINUOUS
10
0.597594
20
0.865446
11
0.593956
21
0.858639
0
LINE
8
BLACK
6
CONTINUOUS
10
0.593956
20
0.858639
11
0.589059
21
0.852673
0
LINE
8
BLACK
6
CONTINUOUS
10
0.589059
20
0.852673
11
0.583093
21
0.847777
0
LINE
8
BLACK
6
CONTINUOUS
10
0.583093
20
0.847777
11
0.576287
21
0.844139
0
LINE
8
BLACK
6
CONTINUOUS
10
0.576287
20
0.844139
11
0.568901
21
0.841898
0
LINE
8
BLACK
6
CONTINUOUS
10
0.568901
20
0.841898
11
0.56122
21
0.841142
0
LINE
8
BLACK
6
CONTINUOUS
10
0.56122
20
0.841142
11
0.55354
21
0.841898
0
LINE
8
BLACK
6
CONTINUOUS
10
0.55354
20
0.841898
11
0.546154
21
0.844139
0
LINE
8
BLACK
6
CONTINUOUS
10
0.546154
20
0.844139
11
0.539348
21
0.847777
0
LINE
8
BLACK
6
CONTINUOUS
10
0.539348
20
0.847777
11
0.533382
21
0.852673
0
LINE
8
BLACK
6
CONTINUOUS
10
0.533382
20
0.852673
11
0.528485
21
0.858639
0
LINE
8
BLACK
6
CONTINUOUS
10
0.528485
20
0.858639
11
0.524847
21
0.865446
0
LINE
8
BLACK
6
CONTINUOUS
10
0.524847
20
0.865446
11
0.522607
21
0.872831
0
LINE
8
BLACK
6
CONTINUOUS
10
0.522607
20
0.872831
11
0.52185
21
0.880512
0
LINE
8
BLACK
6
CONTINUOUS
10
0.52185
20
0.880512
11
0.522607
21
0.888193
0
LINE
8
BLACK
6
CONTINUOUS
10
0.522607
20
0.888193
11
0.524847
21
0.895578
0
LINE
8
BLACK
6
CONTINUOUS
10
0.524847
20
0.895578
11
0.528485
21
0.902385
0
LINE
8
BLACK
6
CONTINUOUS
10
0.528485
20
0.902385
11
0.533382
21
0.908351
0
LINE
8
BLACK
6
CONTINUOUS
10
0.533382
20
0.908351
11
0.539348
21
0.913247
0
LINE
8
BLACK
6
CONTINUOUS
10
0.539348
20
0.913247
11
0.546154
21
0.916885
0
LINE
8
BLACK
6
CONTINUOUS
10
0.546154
20
0.916885
11
0.55354
21
0.919125
0
LINE
8
BLACK
6
CONTINUOUS
10
0.55354
20
0.919125
11
0.56122
21
0.919882
0
LINE
8
BLACK
6
CONTINUOUS
10
0.56122
20
0.919882
11
0.568901
21
0.919125
0
LINE
8
BLACK
6
CONTINUOUS
10
0.668901
20
0.919125
11
0.676287
21
0.916885
0
LINE
8
BLACK
6
CONTINUOUS
10
0.676287
20
0.916885
11
0.683093
21
0.913247
0
LINE
8
BLACK
6
CONTINUOUS
10
0.683093
20
0.913247
11
0.689059
21
0.908351
0
LINE
8
BLACK
6
CONTINUOUS
10
0.689059
20
0.908351
11
0.693956
21
0.902385
0
LINE
8
BLACK
6
CONTINUOUS
10
0.693956
20
0.902385
11
0.697594
21
0.895578
0
LINE
8
BLACK
6
CONTINUOUS
10
0.697594
20
0.895578
11
0.699834
21
0.888193
0
LINE
8
BLACK
6
CONTINUOUS
10
0.699834
20
0.888193
11
0.700591
21
0.880512
0
LINE
8
BLACK
6
CONTINUOUS
10
0.700591
20
0.880512
11
0.699834
21
0.872831
0
LINE
8
BLACK
6
CONTINUOUS
10
0.699834
20
0.872831
11
0.697594
21
0.865446
0
LINE
8
BLACK
6
CONTINUOUS
10
0.697594
20
0.865446
11
0.693956
21
0.858639
0
LINE
8
BLACK
6
CONTINUOUS
10
0.693956
20
0.858639
11
0.689059
21
0.852673
0
LINE
8
BLACK
6
CONTINUOUS
10
0.689059
20
0.852673
11
0.683093
21
0.847777
0
LINE
8
BLACK
6
CONTINUOUS
10
0.683093
20
0.847777
11
0.676287
21
0.844139
0
LINE
8
BLACK
6
CONTINUOUS
10
0.676287
20
0.844139
11
0.668901
21
0.841898
0
LINE
8
BLACK
6
CONTINUOUS
10
0.668901
20
0.841898
11
0.66122
21
0.841142
0
LINE
8
BLACK
6
CONTINUOUS
10
0.66122
20
0.841142
11
0.65354
21
0.841898
0
LINE
8
BLACK
6
CONTINUOUS
10
0.65354
20
0.841898
11
0.646154
21
0.844139
0
LINE
8
BLACK
6
CONTINUOUS
10
0.646154
20
0.844139
11
0.639348
21
0.847777
0
LINE
8
BLACK
6
CONTINUOUS
10
0.639348
20
0.847777
11
0.633382
21
0.852673
0
LINE
8
BLACK
6
CONTINUOUS
10
0.633382
20
0.852673
11
0.628485
21
0.858639
0
LINE
8
BLACK
6
CONTINUOUS
10
0.628485
20
0.858639
11
0.624847
21
0.865446
0
LINE
8
BLACK
6
CONTINUOUS
10
0.624847
20
0.865446
11
0.622607
21
0.872831
0
LINE
8
BLACK
6
CONTINUOUS
10
0.622607
20
0.872831
11
0.62185
21
0.880512
0
LINE
8
BLACK
6
CONTINUOUS
10
0.62185
20
0.880512
11
0.622607
21
0.888193
0
LINE
8
BLACK
6
CONTINUOUS
10
0.622607
20
0.888193
11
0.624847
21
0.895578
0
LINE
8
BLACK
6
CONTINUOUS
10
0.624847
20
0.895578
11
0.628485
21
0.902385
0
LINE
8
BLACK
6
CONTINUOUS
10
0.628485
20
0.902385
11
0.633382
21
0.908351
0
LINE
8
BLACK
6
CONTINUOUS
10
0.633382
20
0.908351
11
0.639348
21
0.913247
0
LINE
8
BLACK
6
CONTINUOUS
10
0.639348
20
0.913247
11
0.646154
21
0.916885
0
LINE
8
BLACK
6
CONTINUOUS
10
0.646154
20
0.916885
11
0.65354
21
0.919125
0
LINE
8
BLACK
6
CONTINUOUS
10
0.65354
20
0.919125
11
0.66122
21
0.919882
0
LINE
8
BLACK
6
CONTINUOUS
10
0.66122
20
0.919882
11
0.668901
21
0.919125
0
LINE
8
BLACK
6
CONTINUOUS
10
1.61053
20
0.987739
11
1.61244
21
0.986459
0
LINE
8
BLACK
6
CONTINUOUS
10
1.61244
20
0.986459
11
1.61372
21
0.984543
0
LINE
8
BLACK
6
CONTINUOUS
10
1.61372
20
0.984543
11
1.61417
21
0.982283
0
LINE
8
BLACK
6
CONTINUOUS
10
1.61417
20
0.982283
11
1.61417
21
0.915354
0
LINE
8
BLACK
6
CONTINUOUS
10
1.61417
20
0.915354
11
1.61372
21
0.913094
0
LINE
8
BLACK
6
CONTINUOUS
10
1.61372
20
0.913094
11
1.61244
21
0.911179
0
LINE
8
BLACK
6
CONTINUOUS
10
1.61244
20
0.911179
11
1.61053
21
0.909898
0
LINE
8
BLACK
6
CONTINUOUS
10
1.61053
20
0.909898
11
1.60827
21
0.909449
0
LINE
8
BLACK
6
CONTINUOUS
10
1.60827
20
0.909449
11
1.54134
21
0.909449
0
LINE
8
BLACK
6
CONTINUOUS
10
1.54134
20
0.909449
11
1.53908
21
0.909898
0
LINE
8
BLACK
6
CONTINUOUS
10
1.53908
20
0.909898
11
1.53716
21
0.911179
0
LINE
8
BLACK
6
CONTINUOUS
10
1.53716
20
0.911179
11
1.53588
21
0.913094
0
LINE
8
BLACK
6
CONTINUOUS
10
1.53588
20
0.913094
11
1.53543
21
0.915354
0
LINE
8
BLACK
6
CONTINUOUS
10
1.53543
20
0.915354
11
1.53543
21
0.982283
0
LINE
8
BLACK
6
CONTINUOUS
10
1.53543
20
0.982283
11
1.53588
21
0.984543
0
LINE
8
BLACK
6
CONTINUOUS
10
1.53588
20
0.984543
11
1.53716
21
0.986459
0
LINE
8
BLACK
6
CONTINUOUS
10
1.53716
20
0.986459
11
1.53908
21
0.987739
0
LINE
8
BLACK
6
CONTINUOUS
10
1.53908
20
0.987739
11
1.54134
21
0.988189
0
LINE
8
BLACK
6
CONTINUOUS
10
1.54134
20
0.988189
11
1.60827
21
0.988189
0
LINE
8
BLACK
6
CONTINUOUS
10
1.60827
20
0.988189
11
1.61053
21
0.987739
0
LINE
8
BLACK
6
CONTINUOUS
10
1.68248
20
0.987432
11
1.68987
21
0.985192
0
LINE
8
BLACK
6
CONTINUOUS
10
1.68987
20
0.985192
11
1.69668
21
0.981554
0
LINE
8
BLACK
6
CONTINUOUS
10
1.69668
20
0.981554
11
1.70264
21
0.976658
0
LINE
8
BLACK
6
CONTINUOUS
10
1.70264
20
0.976658
11
1.70754
21
0.970692
0
LINE
8
BLACK
6
CONTINUOUS
10
1.70754
20
0.970692
11
1.71118
21
0.963885
0
LINE
8
BLACK
6
CONTINUOUS
10
1.71118
20
0.963885
11
1.71342
21
0.9565
0
LINE
8
BLACK
6
CONTINUOUS
10
1.71342
20
0.9565
11
1.71417
21
0.948819
0
LINE
8
BLACK
6
CONTINUOUS
10
1.71417
20
0.948819
11
1.71342
21
0.941138
0
LINE
8
BLACK
6
CONTINUOUS
10
1.71342
20
0.941138
11
1.71118
21
0.933753
0
LINE
8
BLACK
6
CONTINUOUS
10
1.71118
20
0.933753
11
1.70754
21
0.926946
0
LINE
8
BLACK
6
CONTINUOUS
10
1.70754
20
0.926946
11
1.70264
21
0.92098
0
LINE
8
BLACK
6
CONTINUOUS
10
1.70264
20
0.92098
11
1.69668
21
0.916084
0
LINE
8
BLACK
6
CONTINUOUS
10
1.69668
20
0.916084
11
1.68987
21
0.912446
0
LINE
8
BLACK
6
CONTINUOUS
10
1.68987
20
0.912446
11
1.68248
21
0.910205
0
LINE
8
BLACK
6
CONTINUOUS
10
1.68248
20
0.910205
11
1.6748
21
0.909449
0
LINE
8
BLACK
6
CONTINUOUS
10
1.6748
20
0.909449
11
1.66712
21
0.910205
0
LINE
8
BLACK
6
CONTINUOUS
10
1.66712
20
0.910205
11
1.65974
21
0.912446
0
LINE
8
BLACK
6
CONTINUOUS
10
1.65974
20
0.912446
11
1.65293
21
0.916084
0
LINE
8
BLACK
6
CONTINUOUS
10
1.65293
20
0.916084
11
1.64696
21
0.92098
0
LINE
8
BLACK
6
CONTINUOUS
10
1.64696
20
0.92098
11
1.64207
21
0.926946
0
LINE
8
BLACK
6
CONTINUOUS
10
1.64207
20
0.926946
11
1.63843
21
0.933753
0
LINE
8
BLACK
6
CONTINUOUS
10
1.63843
20
0.933753
11
1.63619
21
0.941138
0
LINE
8
BLACK
6
CONTINUOUS
10
1.63619
20
0.941138
11
1.63543
21
0.948819
0
LINE
8
BLACK
6
CONTINUOUS
10
1.63543
20
0.948819
11
1.63619
21
0.9565
0
LINE
8
BLACK
6
CONTINUOUS
10
1.63619
20
0.9565
11
1.63843
21
0.963885
0
LINE
8
BLACK
6
CONTINUOUS
10
1.63843
20
0.963885
11
1.64207
21
0.970692
0
LINE
8
BLACK
6
CONTINUOUS
10
1.64207
20
0.970692
11
1.64696
21
0.976658
0
LINE
8
BLACK
6
CONTINUOUS
10
1.64696
20
0.976658
11
1.65293
21
0.981554
0
LINE
8
BLACK
6
CONTINUOUS
10
1.65293
20
0.981554
11
1.65974
21
0.985192
0
LINE
8
BLACK
6
CONTINUOUS
10
1.65974
20
0.985192
11
1.66712
21
0.987432
0
LINE
8
BLACK
6
CONTINUOUS
10
1.66712
20
0.987432
11
1.6748
21
0.988189
0
LINE
8
BLACK
6
CONTINUOUS
10
1.6748
20
0.988189
11
1.68248
21
0.987432
0
LINE
8
BLACK
6
CONTINUOUS
10
0.568901
20
1.01913
11
0.576287
21
1.01689
0
LINE
8
BLACK
6
CONTINUOUS
10
0.576287
20
1.01689
11
0.583093
21
1.01325
0
LINE
8
BLACK
6
CONTINUOUS
10
0.583093
20
1.01325
11
0.589059
21
1.00835
0
LINE
8
BLACK
6
CONTINUOUS
10
0.589059
20
1.00835
11
0.593956
21
1.00238
0
LINE
8
BLACK
6
CONTINUOUS
10
0.593956
20
1.00238
11
0.597594
21
0.995578
0
LINE
8
BLACK
6
CONTINUOUS
10
0.597594
20
0.995578
11
0.599834
21
0.988193
0
LINE
8
BLACK
6
CONTINUOUS
10
0.599834
20
0.988193
11
0.600591
21
0.980512
0
LINE
8
BLACK
6
CONTINUOUS
10
0.600591
20
0.980512
11
0.599834
21
0.972831
0
LINE
8
BLACK
6
CONTINUOUS
10
0.599834
20
0.972831
11
0.597594
21
0.965446
0
LINE
8
BLACK
6
CONTINUOUS
10
0.597594
20
0.965446
11
0.593956
21
0.958639
0
LINE
8
BLACK
6
CONTINUOUS
10
0.593956
20
0.958639
11
0.589059
21
0.952673
0
LINE
8
BLACK
6
CONTINUOUS
10
0.589059
20
0.952673
11
0.583093
21
0.947777
0
LINE
8
BLACK
6
CONTINUOUS
10
0.583093
20
0.947777
11
0.576287
21
0.944139
0
LINE
8
BLACK
6
CONTINUOUS
10
0.576287
20
0.944139
11
0.568901
21
0.941898
0
LINE
8
BLACK
6
CONTINUOUS
10
0.568901
20
0.941898
11
0.56122
21
0.941142
0
LINE
8
BLACK
6
CONTINUOUS
10
0.56122
20
0.941142
11
0.55354
21
0.941898
0
LINE
8
BLACK
6
CONTINUOUS
10
0.55354
20
0.941898
11
0.546154
21
0.944139
0
LINE
8
BLACK
6
CONTINUOUS
10
0.546154
20
0.944139
11
0.539348
21
0.947777
0
LINE
8
BLACK
6
CONTINUOUS
10
0.539348
20
0.947777
11
0.533382
21
0.952673
0
LINE
8
BLACK
6
CONTINUOUS
10
0.533382
20
0.952673
11
0.528485
21
0.958639
0
LINE
8
BLACK
6
CONTINUOUS
10
0.528485
20
0.958639
11
0.524847
21
0.965446
0
LINE
8
BLACK
6
CONTINUOUS
10
0.524847
20
0.965446
11
0.522607
21
0.972831
0
LINE
8
BLACK
6
CONTINUOUS
10
0.522607
20
0.972831
11
0.52185
21
0.980512
0
LINE
8
BLACK
6
CONTINUOUS
10
0.52185
20
0.980512
11
0.522607
21
0.988193
0
LINE
8
BLACK
6
CONTINUOUS
10
0.522607
20
0.988193
11
0.524847
21
0.995578
0
LINE
8
BLACK
6
CONTINUOUS
10
0.524847
20
0.995578
11
0.528485
21
1.00238
0
LINE
8
BLACK
6
CONTINUOUS
10
0.528485
20
1.00238
11
0.533382
21
1.00835
0
LINE
8
BLACK
6
CONTINUOUS
10
0.533382
20
1.00835
11
0.539348
21
1.01325
0
LINE
8
BLACK
6
CONTINUOUS
10
0.539348
20
1.01325
11
0.546154
21
1.01689
0
LINE
8
BLACK
6
CONTINUOUS
10
0.546154
20
1.01689
11
0.55354
21
1.01913
0
LINE
8
BLACK
6
CONTINUOUS
10
0.55354
20
1.01913
11
0.56122
21
1.01988
0
LINE
8
BLACK
6
CONTINUOUS
10
0.56122
20
1.01988
11
0.568901
21
1.01913
0
LINE
8
BLACK
6
CONTINUOUS
10
0.668901
20
1.01913
11
0.676287
21
1.01689
0
LINE
8
BLACK
6
CONTINUOUS
10
0.676287
20
1.01689
11
0.683093
21
1.01325
0
LINE
8
BLACK
6
CONTINUOUS
10
0.683093
20
1.01325
11
0.689059
21
1.00835
0
LINE
8
BLACK
6
CONTINUOUS
10
0.689059
20
1.00835
11
0.693956
21
1.00238
0
LINE
8
BLACK
6
CONTINUOUS
10
0.693956
20
1.00238
11
0.697594
21
0.995578
0
LINE
8
BLACK
6
CONTINUOUS
10
0.697594
20
0.995578
11
0.699834
21
0.988193
0
LINE
8
BLACK
6
CONTINUOUS
10
0.699834
20
0.988193
11
0.700591
21
0.980512
0
LINE
8
BLACK
6
CONTINUOUS
10
0.700591
20
0.980512
11
0.699834
21
0.972831
0
LINE
8
BLACK
6
CONTINUOUS
10
0.699834
20
0.972831
11
0.697594
21
0.965446
0
LINE
8
BLACK
6
CONTINUOUS
10
0.697594
20
0.965446
11
0.693956
21
0.958639
0
LINE
8
BLACK
6
CONTINUOUS
10
0.693956
20
0.958639
11
0.689059
21
0.952673
0
LINE
8
BLACK
6
CONTINUOUS
10
0.689059
20
0.952673
11
0.683093
21
0.947777
0
LINE
8
BLACK
6
CONTINUOUS
10
0.683093
20
0.947777
11
0.676287
21
0.944139
0
LINE
8
BLACK
6
CONTINUOUS
10
0.676287
20
0.944139
11
0.668901
21
0.941898
0
LINE
8
BLACK
6
CONTINUOUS
10
0.668901
20
0.941898
11
0.66122
21
0.941142
0
LINE
8
BLACK
6
CONTINUOUS
10
0.66122
20
0.941142
11
0.65354
21
0.941898
0
LINE
8
BLACK
6
CONTINUOUS
10
0.65354
20
0.941898
11
0.646154
21
0.944139
0
LINE
8
BLACK
6
CONTINUOUS
10
0.646154
20
0.944139
11
0.639348
21
0.947777
0
LINE
8
BLACK
6
CONTINUOUS
10
0.639348
20
0.947777
11
0.633382
21
0.952673
0
LINE
8
BLACK
6
CONTINUOUS
10
0.633382
20
0.952673
11
0.628485
21
0.958639
0
LINE
8
BLACK
6
CONTINUOUS
10
0.628485
20
0.958639
11
0.624847
21
0.965446
0
LINE
8
BLACK
6
CONTINUOUS
10
0.624847
20
0.965446
11
0.622607
21
0.972831
0
LINE
8
BLACK
6
CONTINUOUS
10
0.622607
20
0.972831
11
0.62185
21
0.980512
0
LINE
8
BLACK
6
CONTINUOUS
10
0.62185
20
0.980512
11
0.622607
21
0.988193
0
LINE
8
BLACK
6
CONTINUOUS
10
0.622607
20
0.988193
11
0.624847
21
0.995578
0
LINE
8
BLACK
6
CONTINUOUS
10
0.624847
20
0.995578
11
0.628485
21
1.00238
0
LINE
8
BLACK
6
CONTINUOUS
10
0.628485
20
1.00238
11
0.633382
21
1.00835
0
LINE
8
BLACK
6
CONTINUOUS
10
0.633382
20
1.00835
11
0.639348
21
1.01325
0
LINE
8
BLACK
6
CONTINUOUS
10
0.639348
20
1.01325
11
0.646154
21
1.01689
0
LINE
8
BLACK
6
CONTINUOUS
10
0.646154
20
1.01689
11
0.65354
21
1.01913
0
LINE
8
BLACK
6
CONTINUOUS
10
0.65354
20
1.01913
11
0.66122
21
1.01988
0
LINE
8
BLACK
6
CONTINUOUS
10
0.66122
20
1.01988
11
0.668901
21
1.01913
0
LINE
8
BLACK
6
CONTINUOUS
10
0.568901
20
1.11913
11
0.576287
21
1.11689
0
LINE
8
BLACK
6
CONTINUOUS
10
0.576287
20
1.11689
11
0.583093
21
1.11325
0
LINE
8
BLACK
6
CONTINUOUS
10
0.583093
20
1.11325
11
0.589059
21
1.10835
0
LINE
8
BLACK
6
CONTINUOUS
10
0.589059
20
1.10835
11
0.593956
21
1.10238
0
LINE
8
BLACK
6
CONTINUOUS
10
0.593956
20
1.10238
11
0.597594
21
1.09558
0
LINE
8
BLACK
6
CONTINUOUS
10
0.597594
20
1.09558
11
0.599834
21
1.08819
0
LINE
8
BLACK
6
CONTINUOUS
10
0.599834
20
1.08819
11
0.600591
21
1.08051
0
LINE
8
BLACK
6
CONTINUOUS
10
0.600591
20
1.08051
11
0.599834
21
1.07283
0
LINE
8
BLACK
6
CONTINUOUS
10
0.599834
20
1.07283
11
0.597594
21
1.06545
0
LINE
8
BLACK
6
CONTINUOUS
10
0.597594
20
1.06545
11
0.593956
21
1.05864
0
LINE
8
BLACK
6
CONTINUOUS
10
0.593956
20
1.05864
11
0.589059
21
1.05267
0
LINE
8
BLACK
6
CONTINUOUS
10
0.589059
20
1.05267
11
0.583093
21
1.04778
0
LINE
8
BLACK
6
CONTINUOUS
10
0.583093
20
1.04778
11
0.576287
21
1.04414
0
LINE
8
BLACK
6
CONTINUOUS
10
0.576287
20
1.04414
11
0.568901
21
1.0419
0
LINE
8
BLACK
6
CONTINUOUS
10
0.568901
20
1.0419
11
0.56122
21
1.04114
0
LINE
8
BLACK
6
CONTINUOUS
10
0.56122
20
1.04114
11
0.55354
21
1.0419
0
LINE
8
BLACK
6
CONTINUOUS
10
0.55354
20
1.0419
11
0.546154
21
1.04414
0
LINE
8
BLACK
6
CONTINUOUS
10
0.546154
20
1.04414
11
0.539348
21
1.04778
0
LINE
8
BLACK
6
CONTINUOUS
10
0.539348
20
1.04778
11
0.533382
21
1.05267
0
LINE
8
BLACK
6
CONTINUOUS
10
0.533382
20
1.05267
11
0.528485
21
1.05864
0
LINE
8
BLACK
6
CONTINUOUS
10
0.528485
20
1.05864
11
0.524847
21
1.06545
0
LINE
8
BLACK
6
CONTINUOUS
10
0.524847
20
1.06545
11
0.522607
21
1.07283
0
LINE
8
BLACK
6
CONTINUOUS
10
0.522607
20
1.07283
11
0.52185
21
1.08051
0
LINE
8
BLACK
6
CONTINUOUS
10
0.52185
20
1.08051
11
0.522607
21
1.08819
0
LINE
8
BLACK
6
CONTINUOUS
10
0.522607
20
1.08819
11
0.524847
21
1.09558
0
LINE
8
BLACK
6
CONTINUOUS
10
0.524847
20
1.09558
11
0.528485
21
1.10238
0
LINE
8
BLACK
6
CONTINUOUS
10
0.528485
20
1.10238
11
0.533382
21
1.10835
0
LINE
8
BLACK
6
CONTINUOUS
10
0.533382
20
1.10835
11
0.539348
21
1.11325
0
LINE
8
BLACK
6
CONTINUOUS
10
0.539348
20
1.11325
11
0.546154
21
1.11689
0
LINE
8
BLACK
6
CONTINUOUS
10
0.546154
20
1.11689
11
0.55354
21
1.11913
0
LINE
8
BLACK
6
CONTINUOUS
10
0.55354
20
1.11913
11
0.56122
21
1.11988
0
LINE
8
BLACK
6
CONTINUOUS
10
0.56122
20
1.11988
11
0.568901
21
1.11913
0
LINE
8
BLACK
6
CONTINUOUS
10
0.668901
20
1.11913
11
0.676287
21
1.11689
0
LINE
8
BLACK
6
CONTINUOUS
10
0.676287
20
1.11689
11
0.683093
21
1.11325
0
LINE
8
BLACK
6
CONTINUOUS
10
0.683093
20
1.11325
11
0.689059
21
1.10835
0
LINE
8
BLACK
6
CONTINUOUS
10
0.689059
20
1.10835
11
0.693956
21
1.10238
0
LINE
8
BLACK
6
CONTINUOUS
10
0.693956
20
1.10238
11
0.697594
21
1.09558
0
LINE
8
BLACK
6
CONTINUOUS
10
0.697594
20
1.09558
11
0.699834
21
1.08819
0
LINE
8
BLACK
6
CONTINUOUS
10
0.699834
20
1.08819
11
0.700591
21
1.08051
0
LINE
8
BLACK
6
CONTINUOUS
10
0.700591
20
1.08051
11
0.699834
21
1.07283
0
LINE
8
BLACK
6
CONTINUOUS
10
0.699834
20
1.07283
11
0.697594
21
1.06545
0
LINE
8
BLACK
6
CONTINUOUS
10
0.697594
20
1.06545
11
0.693956
21
1.05864
0
LINE
8
BLACK
6
CONTINUOUS
10
0.693956
20
1.05864
11
0.689059
21
1.05267
0
LINE
8
BLACK
6
CONTINUOUS
10
0.689059
20
1.05267
11
0.683093
21
1.04778
0
LINE
8
BLACK
6
CONTINUOUS
10
0.683093
20
1.04778
11
0.676287
21
1.04414
0
LINE
8
BLACK
6
CONTINUOUS
10
0.676287
20
1.04414
11
0.668901
21
1.0419
0
LINE
8
BLACK
6
CONTINUOUS
10
0.668901
20
1.0419
11
0.66122
21
1.04114
0
LINE
8
BLACK
6
CONTINUOUS
10
0.66122
20
1.04114
11
0.65354
21
1.0419
0
LINE
8
BLACK
6
CONTINUOUS
10
0.65354
20
1.0419
11
0.646154
21
1.04414
0
LINE
8
BLACK
6
CONTINUOUS
10
0.646154
20
1.04414
11
0.639348
21
1.04778
0
LINE
8
BLACK
6
CONTINUOUS
10
0.639348
20
1.04778
11
0.633382
21
1.05267
0
LINE
8
BLACK
6
CONTINUOUS
10
0.633382
20
1.05267
11
0.628485
21
1.05864
0
LINE
8
BLACK
6
CONTINUOUS
10
0.628485
20
1.05864
11
0.624847
21
1.06545
0
LINE
8
BLACK
6
CONTINUOUS
10
0.624847
20
1.06545
11
0.622607
21
1.07283
0
LINE
8
BLACK
6
CONTINUOUS
10
0.622607
20
1.07283
11
0.62185
21
1.08051
0
LINE
8
BLACK
6
CONTINUOUS
10
0.62185
20
1.08051
11
0.622607
21
1.08819
0
LINE
8
BLACK
6
CONTINUOUS
10
0.622607
20
1.08819
11
0.624847
21
1.09558
0
LINE
8
BLACK
6
CONTINUOUS
10
0.624847
20
1.09558
11
0.628485
21
1.10238
0
LINE
8
BLACK
6
CONTINUOUS
10
0.628485
20
1.10238
11
0.633382
21
1.10835
0
LINE
8
BLACK
6
CONTINUOUS
10
0.633382
20
1.10835
11
0.639348
21
1.11325
0
LINE
8
BLACK
6
CONTINUOUS
10
0.639348
20
1.11325
11
0.646154
21
1.11689
0
LINE
8
BLACK
6
CONTINUOUS
10
0.646154
20
1.11689
11
0.65354
21
1.11913
0
LINE
8
BLACK
6
CONTINUOUS
10
0.65354
20
1.11913
11
0.66122
21
1.11988
0
LINE
8
BLACK
6
CONTINUOUS
10
0.66122
20
1.11988
11
0.668901
21
1.11913
0
LINE
8
BLACK
6
CONTINUOUS
10
0.568901
20
1.21913
11
0.576287
21
1.21689
0
LINE
8
BLACK
6
CONTINUOUS
10
0.576287
20
1.21689
11
0.583093
21
1.21325
0
LINE
8
BLACK
6
CONTINUOUS
10
0.583093
20
1.21325
11
0.589059
21
1.20835
0
LINE
8
BLACK
6
CONTINUOUS
10
0.589059
20
1.20835
11
0.593956
21
1.20238
0
LINE
8
BLACK
6
CONTINUOUS
10
0.593956
20
1.20238
11
0.597594
21
1.19558
0
LINE
8
BLACK
6
CONTINUOUS
10
0.597594
20
1.19558
11
0.599834
21
1.18819
0
LINE
8
BLACK
6
CONTINUOUS
10
0.599834
20
1.18819
11
0.600591
21
1.18051
0
LINE
8
BLACK
6
CONTINUOUS
10
0.600591
20
1.18051
11
0.599834
21
1.17283
0
LINE
8
BLACK
6
CONTINUOUS
10
0.599834
20
1.17283
11
0.597594
21
1.16545
0
LINE
8
BLACK
6
CONTINUOUS
10
0.597594
20
1.16545
11
0.593956
21
1.15864
0
LINE
8
BLACK
6
CONTINUOUS
10
0.593956
20
1.15864
11
0.589059
21
1.15267
0
LINE
8
BLACK
6
CONTINUOUS
10
0.589059
20
1.15267
11
0.583093
21
1.14778
0
LINE
8
BLACK
6
CONTINUOUS
10
0.583093
20
1.14778
11
0.576287
21
1.14414
0
LINE
8
BLACK
6
CONTINUOUS
10
0.576287
20
1.14414
11
0.568901
21
1.1419
0
LINE
8
BLACK
6
CONTINUOUS
10
0.568901
20
1.1419
11
0.56122
21
1.14114
0
LINE
8
BLACK
6
CONTINUOUS
10
0.56122
20
1.14114
11
0.55354
21
1.1419
0
LINE
8
BLACK
6
CONTINUOUS
10
0.55354
20
1.1419
11
0.546154
21
1.14414
0
LINE
8
BLACK
6
CONTINUOUS
10
0.546154
20
1.14414
11
0.539348
21
1.14778
0
LINE
8
BLACK
6
CONTINUOUS
10
0.539348
20
1.14778
11
0.533382
21
1.15267
0
LINE
8
BLACK
6
CONTINUOUS
10
0.533382
20
1.15267
11
0.528485
21
1.15864
0
LINE
8
BLACK
6
CONTINUOUS
10
0.528485
20
1.15864
11
0.524847
21
1.16545
0
LINE
8
BLACK
6
CONTINUOUS
10
0.524847
20
1.16545
11
0.522607
21
1.17283
0
LINE
8
BLACK
6
CONTINUOUS
10
0.522607
20
1.17283
11
0.52185
21
1.18051
0
LINE
8
BLACK
6
CONTINUOUS
10
0.52185
20
1.18051
11
0.522607
21
1.18819
0
LINE
8
BLACK
6
CONTINUOUS
10
0.522607
20
1.18819
11
0.524847
21
1.19558
0
LINE
8
BLACK
6
CONTINUOUS
10
0.524847
20
1.19558
11
0.528485
21
1.20238
0
LINE
8
BLACK
6
CONTINUOUS
10
0.528485
20
1.20238
11
0.533382
21
1.20835
0
LINE
8
BLACK
6
CONTINUOUS
10
0.533382
20
1.20835
11
0.539348
21
1.21325
0
LINE
8
BLACK
6
CONTINUOUS
10
0.539348
20
1.21325
11
0.546154
21
1.21689
0
LINE
8
BLACK
6
CONTINUOUS
10
0.546154
20
1.21689
11
0.55354
21
1.21913
0
LINE
8
BLACK
6
CONTINUOUS
10
0.55354
20
1.21913
11
0.56122
21
1.21988
0
LINE
8
BLACK
6
CONTINUOUS
10
0.56122
20
1.21988
11
0.568901
21
1.21913
0
LINE
8
BLACK
6
CONTINUOUS
10
0.668901
20
1.21913
11
0.676287
21
1.21689
0
LINE
8
BLACK
6
CONTINUOUS
10
0.676287
20
1.21689
11
0.683093
21
1.21325
0
LINE
8
BLACK
6
CONTINUOUS
10
0.683093
20
1.21325
11
0.689059
21
1.20835
0
LINE
8
BLACK
6
CONTINUOUS
10
0.689059
20
1.20835
11
0.693956
21
1.20238
0
LINE
8
BLACK
6
CONTINUOUS
10
0.693956
20
1.20238
11
0.697594
21
1.19558
0
LINE
8
BLACK
6
CONTINUOUS
10
0.697594
20
1.19558
11
0.699834
21
1.18819
0
LINE
8
BLACK
6
CONTINUOUS
10
0.699834
20
1.18819
11
0.700591
21
1.18051
0
LINE
8
BLACK
6
CONTINUOUS
10
0.700591
20
1.18051
11
0.699834
21
1.17283
0
LINE
8
BLACK
6
CONTINUOUS
10
0.699834
20
1.17283
11
0.697594
21
1.16545
0
LINE
8
BLACK
6
CONTINUOUS
10
0.697594
20
1.16545
11
0.693956
21
1.15864
0
LINE
8
BLACK
6
CONTINUOUS
10
0.693956
20
1.15864
11
0.689059
21
1.15267
0
LINE
8
BLACK
6
CONTINUOUS
10
0.689059
20
1.15267
11
0.683093
21
1.14778
0
LINE
8
BLACK
6
CONTINUOUS
10
0.683093
20
1.14778
11
0.676287
21
1.14414
0
LINE
8
BLACK
6
CONTINUOUS
10
0.676287
20
1.14414
11
0.668901
21
1.1419
0
LINE
8
BLACK
6
CONTINUOUS
10
0.668901
20
1.1419
11
0.66122
21
1.14114
0
LINE
8
BLACK
6
CONTINUOUS
10
0.66122
20
1.14114
11
0.65354
21
1.1419
0
LINE
8
BLACK
6
CONTINUOUS
10
0.65354
20
1.1419
11
0.646154
21
1.14414
0
LINE
8
BLACK
6
CONTINUOUS
10
0.646154
20
1.14414
11
0.639348
21
1.14778
0
LINE
8
BLACK
6
CONTINUOUS
10
0.639348
20
1.14778
11
0.633382
21
1.15267
0
LINE
8
BLACK
6
CONTINUOUS
10
0.633382
20
1.15267
11
0.628485
21
1.15864
0
LINE
8
BLACK
6
CONTINUOUS
10
0.628485
20
1.15864
11
0.624847
21
1.16545
0
LINE
8
BLACK
6
CONTINUOUS
10
0.624847
20
1.16545
11
0.622607
21
1.17283
0
LINE
8
BLACK
6
CONTINUOUS
10
0.622607
20
1.17283
11
0.62185
21
1.18051
0
LINE
8
BLACK
6
CONTINUOUS
10
0.62185
20
1.18051
11
0.622607
21
1.18819
0
LINE
8
BLACK
6
CONTINUOUS
10
0.622607
20
1.18819
11
0.624847
21
1.19558
0
LINE
8
BLACK
6
CONTINUOUS
10
0.624847
20
1.19558
11
0.628485
21
1.20238
0
LINE
8
BLACK
6
CONTINUOUS
10
0.628485
20
1.20238
11
0.633382
21
1.20835
0
LINE
8
BLACK
6
CONTINUOUS
10
0.633382
20
1.20835
11
0.639348
21
1.21325
0
LINE
8
BLACK
6
CONTINUOUS
10
0.639348
20
1.21325
11
0.646154
21
1.21689
0
LINE
8
BLACK
6
CONTINUOUS
10
0.646154
20
1.21689
11
0.65354
21
1.21913
0
LINE
8
BLACK
6
CONTINUOUS
10
0.65354
20
1.21913
11
0.66122
21
1.21988
0
LINE
8
BLACK
6
CONTINUOUS
10
0.66122
20
1.21988
11
0.668901
21
1.21913
0
LINE
8
BLACK
6
CONTINUOUS
10
0.596945
20
1.31943
11
0.598861
21
1.31815
0
LINE
8
BLACK
6
CONTINUOUS
10
0.598861
20
1.31815
11
0.600141
21
1.31624
0
LINE
8
BLACK
6
CONTINUOUS
10
0.600141
20
1.31624
11
0.600591
21
1.31398
0
LINE
8
BLACK
6
CONTINUOUS
10
0.600591
20
1.31398
11
0.600591
21
1.24705
0
LINE
8
BLACK
6
CONTINUOUS
10
0.600591
20
1.24705
11
0.600141
21
1.24479
0
LINE
8
BLACK
6
CONTINUOUS
10
0.600141
20
1.24479
11
0.598861
21
1.24287
0
LINE
8
BLACK
6
CONTINUOUS
10
0.598861
20
1.24287
11
0.596945
21
1.24159
0
LINE
8
BLACK
6
CONTINUOUS
10
0.596945
20
1.24159
11
0.594685
21
1.24114
0
LINE
8
BLACK
6
CONTINUOUS
10
0.594685
20
1.24114
11
0.527756
21
1.24114
0
LINE
8
BLACK
6
CONTINUOUS
10
0.527756
20
1.24114
11
0.525496
21
1.24159
0
LINE
8
BLACK
6
CONTINUOUS
10
0.525496
20
1.24159
11
0.52358
21
1.24287
0
LINE
8
BLACK
6
CONTINUOUS
10
0.52358
20
1.24287
11
0.5223
21
1.24479
0
LINE
8
BLACK
6
CONTINUOUS
10
0.5223
20
1.24479
11
0.52185
21
1.24705
0
LINE
8
BLACK
6
CONTINUOUS
10
0.52185
20
1.24705
11
0.52185
21
1.31398
0
LINE
8
BLACK
6
CONTINUOUS
10
0.52185
20
1.31398
11
0.5223
21
1.31624
0
LINE
8
BLACK
6
CONTINUOUS
10
0.5223
20
1.31624
11
0.52358
21
1.31815
0
LINE
8
BLACK
6
CONTINUOUS
10
0.52358
20
1.31815
11
0.525496
21
1.31943
0
LINE
8
BLACK
6
CONTINUOUS
10
0.525496
20
1.31943
11
0.527756
21
1.31988
0
LINE
8
BLACK
6
CONTINUOUS
10
0.527756
20
1.31988
11
0.594685
21
1.31988
0
LINE
8
BLACK
6
CONTINUOUS
10
0.594685
20
1.31988
11
0.596945
21
1.31943
0
LINE
8
BLACK
6
CONTINUOUS
10
0.668901
20
1.31913
11
0.676287
21
1.31689
0
LINE
8
BLACK
6
CONTINUOUS
10
0.676287
20
1.31689
11
0.683093
21
1.31325
0
LINE
8
BLACK
6
CONTINUOUS
10
0.683093
20
1.31325
11
0.689059
21
1.30835
0
LINE
8
BLACK
6
CONTINUOUS
10
0.689059
20
1.30835
11
0.693956
21
1.30238
0
LINE
8
BLACK
6
CONTINUOUS
10
0.693956
20
1.30238
11
0.697594
21
1.29558
0
LINE
8
BLACK
6
CONTINUOUS
10
0.697594
20
1.29558
11
0.699834
21
1.28819
0
LINE
8
BLACK
6
CONTINUOUS
10
0.699834
20
1.28819
11
0.700591
21
1.28051
0
LINE
8
BLACK
6
CONTINUOUS
10
0.700591
20
1.28051
11
0.699834
21
1.27283
0
LINE
8
BLACK
6
CONTINUOUS
10
0.699834
20
1.27283
11
0.697594
21
1.26545
0
LINE
8
BLACK
6
CONTINUOUS
10
0.697594
20
1.26545
11
0.693956
21
1.25864
0
LINE
8
BLACK
6
CONTINUOUS
10
0.693956
20
1.25864
11
0.689059
21
1.25267
0
LINE
8
BLACK
6
CONTINUOUS
10
0.689059
20
1.25267
11
0.683093
21
1.24778
0
LINE
8
BLACK
6
CONTINUOUS
10
0.683093
20
1.24778
11
0.676287
21
1.24414
0
LINE
8
BLACK
6
CONTINUOUS
10
0.676287
20
1.24414
11
0.668901
21
1.2419
0
LINE
8
BLACK
6
CONTINUOUS
10
0.668901
20
1.2419
11
0.66122
21
1.24114
0
LINE
8
BLACK
6
CONTINUOUS
10
0.66122
20
1.24114
11
0.65354
21
1.2419
0
LINE
8
BLACK
6
CONTINUOUS
10
0.65354
20
1.2419
11
0.646154
21
1.24414
0
LINE
8
BLACK
6
CONTINUOUS
10
0.646154
20
1.24414
11
0.639348
21
1.24778
0
LINE
8
BLACK
6
CONTINUOUS
10
0.639348
20
1.24778
11
0.633382
21
1.25267
0
LINE
8
BLACK
6
CONTINUOUS
10
0.633382
20
1.25267
11
0.628485
21
1.25864
0
LINE
8
BLACK
6
CONTINUOUS
10
0.628485
20
1.25864
11
0.624847
21
1.26545
0
LINE
8
BLACK
6
CONTINUOUS
10
0.624847
20
1.26545
11
0.622607
21
1.27283
0
LINE
8
BLACK
6
CONTINUOUS
10
0.622607
20
1.27283
11
0.62185
21
1.28051
0
LINE
8
BLACK
6
CONTINUOUS
10
0.62185
20
1.28051
11
0.622607
21
1.28819
0
LINE
8
BLACK
6
CONTINUOUS
10
0.622607
20
1.28819
11
0.624847
21
1.29558
0
LINE
8
BLACK
6
CONTINUOUS
10
0.624847
20
1.29558
11
0.628485
21
1.30238
0
LINE
8
BLACK
6
CONTINUOUS
10
0.628485
20
1.30238
11
0.633382
21
1.30835
0
LINE
8
BLACK
6
CONTINUOUS
10
0.633382
20
1.30835
11
0.639348
21
1.31325
0
LINE
8
BLACK
6
CONTINUOUS
10
0.639348
20
1.31325
11
0.646154
21
1.31689
0
LINE
8
BLACK
6
CONTINUOUS
10
0.646154
20
1.31689
11
0.65354
21
1.31913
0
LINE
8
BLACK
6
CONTINUOUS
10
0.65354
20
1.31913
11
0.66122
21
1.31988
0
LINE
8
BLACK
6
CONTINUOUS
10
0.66122
20
1.31988
11
0.668901
21
1.31913
0
LINE
8
BLACK
6
CONTINUOUS
10
0.743901
20
1.46302
11
0.751287
21
1.46078
0
LINE
8
BLACK
6
CONTINUOUS
10
0.751287
20
1.46078
11
0.758093
21
1.45714
0
LINE
8
BLACK
6
CONTINUOUS
10
0.758093
20
1.45714
11
0.764059
21
1.45225
0
LINE
8
BLACK
6
CONTINUOUS
10
0.764059
20
1.45225
11
0.768956
21
1.44628
0
LINE
8
BLACK
6
CONTINUOUS
10
0.768956
20
1.44628
11
0.772594
21
1.43948
0
LINE
8
BLACK
6
CONTINUOUS
10
0.772594
20
1.43948
11
0.774834
21
1.43209
0
LINE
8
BLACK
6
CONTINUOUS
10
0.774834
20
1.43209
11
0.775591
21
1.42441
0
LINE
8
BLACK
6
CONTINUOUS
10
0.775591
20
1.42441
11
0.774834
21
1.41673
0
LINE
8
BLACK
6
CONTINUOUS
10
0.774834
20
1.41673
11
0.772594
21
1.40934
0
LINE
8
BLACK
6
CONTINUOUS
10
0.772594
20
1.40934
11
0.768956
21
1.40254
0
LINE
8
BLACK
6
CONTINUOUS
10
0.768956
20
1.40254
11
0.764059
21
1.39657
0
LINE
8
BLACK
6
CONTINUOUS
10
0.764059
20
1.39657
11
0.758093
21
1.39167
0
LINE
8
BLACK
6
CONTINUOUS
10
0.758093
20
1.39167
11
0.751287
21
1.38804
0
LINE
8
BLACK
6
CONTINUOUS
10
0.751287
20
1.38804
11
0.743901
21
1.3858
0
LINE
8
BLACK
6
CONTINUOUS
10
0.743901
20
1.3858
11
0.73622
21
1.38504
0
LINE
8
BLACK
6
CONTINUOUS
10
0.73622
20
1.38504
11
0.72854
21
1.3858
0
LINE
8
BLACK
6
CONTINUOUS
10
0.72854
20
1.3858
11
0.721154
21
1.38804
0
LINE
8
BLACK
6
CONTINUOUS
10
0.721154
20
1.38804
11
0.714348
21
1.39167
0
LINE
8
BLACK
6
CONTINUOUS
10
0.714348
20
1.39167
11
0.708382
21
1.39657
0
LINE
8
BLACK
6
CONTINUOUS
10
0.708382
20
1.39657
11
0.703485
21
1.40254
0
LINE
8
BLACK
6
CONTINUOUS
10
0.703485
20
1.40254
11
0.699847
21
1.40934
0
LINE
8
BLACK
6
CONTINUOUS
10
0.699847
20
1.40934
11
0.697607
21
1.41673
0
LINE
8
BLACK
6
CONTINUOUS
10
0.697607
20
1.41673
11
0.69685
21
1.42441
0
LINE
8
BLACK
6
CONTINUOUS
10
0.69685
20
1.42441
11
0.697607
21
1.43209
0
LINE
8
BLACK
6
CONTINUOUS
10
0.697607
20
1.43209
11
0.699847
21
1.43948
0
LINE
8
BLACK
6
CONTINUOUS
10
0.699847
20
1.43948
11
0.703485
21
1.44628
0
LINE
8
BLACK
6
CONTINUOUS
10
0.703485
20
1.44628
11
0.708382
21
1.45225
0
LINE
8
BLACK
6
CONTINUOUS
10
0.708382
20
1.45225
11
0.714348
21
1.45714
0
LINE
8
BLACK
6
CONTINUOUS
10
0.714348
20
1.45714
11
0.721154
21
1.46078
0
LINE
8
BLACK
6
CONTINUOUS
10
0.721154
20
1.46078
11
0.72854
21
1.46302
0
LINE
8
BLACK
6
CONTINUOUS
10
0.72854
20
1.46302
11
0.73622
21
1.46378
0
LINE
8
BLACK
6
CONTINUOUS
10
0.73622
20
1.46378
11
0.743901
21
1.46302
0
LINE
8
BLACK
6
CONTINUOUS
10
0.871945
20
1.46333
11
0.873861
21
1.46205
0
LINE
8
BLACK
6
CONTINUOUS
10
0.873861
20
1.46205
11
0.875141
21
1.46013
0
LINE
8
BLACK
6
CONTINUOUS
10
0.875141
20
1.46013
11
0.875591
21
1.45787
0
LINE
8
BLACK
6
CONTINUOUS
10
0.875591
20
1.45787
11
0.875591
21
1.39094
0
LINE
8
BLACK
6
CONTINUOUS
10
0.875591
20
1.39094
11
0.875141
21
1.38868
0
LINE
8
BLACK
6
CONTINUOUS
10
0.875141
20
1.38868
11
0.873861
21
1.38677
0
LINE
8
BLACK
6
CONTINUOUS
10
0.873861
20
1.38677
11
0.871945
21
1.38549
0
LINE
8
BLACK
6
CONTINUOUS
10
0.871945
20
1.38549
11
0.869685
21
1.38504
0
LINE
8
BLACK
6
CONTINUOUS
10
0.869685
20
1.38504
11
0.802756
21
1.38504
0
LINE
8
BLACK
6
CONTINUOUS
10
0.802756
20
1.38504
11
0.800496
21
1.38549
0
LINE
8
BLACK
6
CONTINUOUS
10
0.800496
20
1.38549
11
0.79858
21
1.38677
0
LINE
8
BLACK
6
CONTINUOUS
10
0.79858
20
1.38677
11
0.7973
21
1.38868
0
LINE
8
BLACK
6
CONTINUOUS
10
0.7973
20
1.38868
11
0.79685
21
1.39094
0
LINE
8
BLACK
6
CONTINUOUS
10
0.79685
20
1.39094
11
0.79685
21
1.45787
0
LINE
8
BLACK
6
CONTINUOUS
10
0.79685
20
1.45787
11
0.7973
21
1.46013
0
LINE
8
BLACK
6
CONTINUOUS
10
0.7973
20
1.46013
11
0.79858
21
1.46205
0
LINE
8
BLACK
6
CONTINUOUS
10
0.79858
20
1.46205
11
0.800496
21
1.46333
0
LINE
8
BLACK
6
CONTINUOUS
10
0.800496
20
1.46333
11
0.802756
21
1.46378
0
LINE
8
BLACK
6
CONTINUOUS
10
0.802756
20
1.46378
11
0.869685
21
1.46378
0
LINE
8
BLACK
6
CONTINUOUS
10
0.869685
20
1.46378
11
0.871945
21
1.46333
0
LINE
8
BLACK
6
CONTINUOUS
10
1.28912
20
1.51721
11
1.29773
21
1.51426
0
LINE
8
BLACK
6
CONTINUOUS
10
1.29773
20
1.51426
11
1.30574
21
1.50992
0
LINE
8
BLACK
6
CONTINUOUS
10
1.30574
20
1.50992
11
1.31292
21
1.50433
0
LINE
8
BLACK
6
CONTINUOUS
10
1.31292
20
1.50433
11
1.31909
21
1.49763
0
LINE
8
BLACK
6
CONTINUOUS
10
1.31909
20
1.49763
11
1.32407
21
1.49001
0
LINE
8
BLACK
6
CONTINUOUS
10
1.32407
20
1.49001
11
1.32772
21
1.48168
0
LINE
8
BLACK
6
CONTINUOUS
10
1.32772
20
1.48168
11
1.32996
21
1.47285
0
LINE
8
BLACK
6
CONTINUOUS
10
1.32996
20
1.47285
11
1.33071
21
1.46378
0
LINE
8
BLACK
6
CONTINUOUS
10
1.33071
20
1.46378
11
1.32996
21
1.45471
0
LINE
8
BLACK
6
CONTINUOUS
10
1.32996
20
1.45471
11
1.32772
21
1.44588
0
LINE
8
BLACK
6
CONTINUOUS
10
1.32772
20
1.44588
11
1.32407
21
1.43755
0
LINE
8
BLACK
6
CONTINUOUS
10
1.32407
20
1.43755
11
1.31909
21
1.42993
0
LINE
8
BLACK
6
CONTINUOUS
10
1.31909
20
1.42993
11
1.31292
21
1.42323
0
LINE
8
BLACK
6
CONTINUOUS
10
1.31292
20
1.42323
11
1.30574
21
1.41764
0
LINE
8
BLACK
6
CONTINUOUS
10
1.30574
20
1.41764
11
1.29773
21
1.4133
0
LINE
8
BLACK
6
CONTINUOUS
10
1.29773
20
1.4133
11
1.28912
21
1.41035
0
LINE
8
BLACK
6
CONTINUOUS
10
1.28912
20
1.41035
11
1.28014
21
1.40885
0
LINE
8
BLACK
6
CONTINUOUS
10
1.28014
20
1.40885
11
1.27104
21
1.40885
0
LINE
8
BLACK
6
CONTINUOUS
10
1.27104
20
1.40885
11
1.26206
21
1.41035
0
LINE
8
BLACK
6
CONTINUOUS
10
1.26206
20
1.41035
11
1.25345
21
1.4133
0
LINE
8
BLACK
6
CONTINUOUS
10
1.25345
20
1.4133
11
1.24544
21
1.41764
0
LINE
8
BLACK
6
CONTINUOUS
10
1.24544
20
1.41764
11
1.23826
21
1.42323
0
LINE
8
BLACK
6
CONTINUOUS
10
1.23826
20
1.42323
11
1.23209
21
1.42993
0
LINE
8
BLACK
6
CONTINUOUS
10
1.23209
20
1.42993
11
1.22712
21
1.43755
0
LINE
8
BLACK
6
CONTINUOUS
10
1.22712
20
1.43755
11
1.22346
21
1.44588
0
LINE
8
BLACK
6
CONTINUOUS
10
1.22346
20
1.44588
11
1.22122
21
1.45471
0
LINE
8
BLACK
6
CONTINUOUS
10
1.22122
20
1.45471
11
1.22047
21
1.46378
0
LINE
8
BLACK
6
CONTINUOUS
10
1.22047
20
1.46378
11
1.22122
21
1.47285
0
LINE
8
BLACK
6
CONTINUOUS
10
1.22122
20
1.47285
11
1.22346
21
1.48168
0
LINE
8
BLACK
6
CONTINUOUS
10
1.22346
20
1.48168
11
1.22712
21
1.49001
0
LINE
8
BLACK
6
CONTINUOUS
10
1.22712
20
1.49001
11
1.23209
21
1.49763
0
LINE
8
BLACK
6
CONTINUOUS
10
1.23209
20
1.49763
11
1.23826
21
1.50433
0
LINE
8
BLACK
6
CONTINUOUS
10
1.23826
20
1.50433
11
1.24544
21
1.50992
0
LINE
8
BLACK
6
CONTINUOUS
10
1.24544
20
1.50992
11
1.25345
21
1.51426
0
LINE
8
BLACK
6
CONTINUOUS
10
1.25345
20
1.51426
11
1.26206
21
1.51721
0
LINE
8
BLACK
6
CONTINUOUS
10
1.26206
20
1.51721
11
1.27104
21
1.51871
0
LINE
8
BLACK
6
CONTINUOUS
10
1.27104
20
1.51871
11
1.28014
21
1.51871
0
LINE
8
BLACK
6
CONTINUOUS
10
1.28014
20
1.51871
11
1.28912
21
1.51721
0
LINE
8
BLACK
6
CONTINUOUS
10
1.61196
20
1.51721
11
1.62057
21
1.51426
0
LINE
8
BLACK
6
CONTINUOUS
10
1.62057
20
1.51426
11
1.62857
21
1.50992
0
LINE
8
BLACK
6
CONTINUOUS
10
1.62857
20
1.50992
11
1.63576
21
1.50433
0
LINE
8
BLACK
6
CONTINUOUS
10
1.63576
20
1.50433
11
1.64192
21
1.49763
0
LINE
8
BLACK
6
CONTINUOUS
10
1.64192
20
1.49763
11
1.6469
21
1.49001
0
LINE
8
BLACK
6
CONTINUOUS
10
1.6469
20
1.49001
11
1.65056
21
1.48168
0
LINE
8
BLACK
6
CONTINUOUS
10
1.65056
20
1.48168
11
1.65279
21
1.47285
0
LINE
8
BLACK
6
CONTINUOUS
10
1.65279
20
1.47285
11
1.65354
21
1.46378
0
LINE
8
BLACK
6
CONTINUOUS
10
1.65354
20
1.46378
11
1.65279
21
1.45471
0
LINE
8
BLACK
6
CONTINUOUS
10
1.65279
20
1.45471
11
1.65056
21
1.44588
0
LINE
8
BLACK
6
CONTINUOUS
10
1.65056
20
1.44588
11
1.6469
21
1.43755
0
LINE
8
BLACK
6
CONTINUOUS
10
1.6469
20
1.43755
11
1.64192
21
1.42993
0
LINE
8
BLACK
6
CONTINUOUS
10
1.64192
20
1.42993
11
1.63576
21
1.42323
0
LINE
8
BLACK
6
CONTINUOUS
10
1.63576
20
1.42323
11
1.62857
21
1.41764
0
LINE
8
BLACK
6
CONTINUOUS
10
1.62857
20
1.41764
11
1.62057
21
1.4133
0
LINE
8
BLACK
6
CONTINUOUS
10
1.62057
20
1.4133
11
1.61196
21
1.41035
0
LINE
8
BLACK
6
CONTINUOUS
10
1.61196
20
1.41035
11
1.60298
21
1.40885
0
LINE
8
BLACK
6
CONTINUOUS
10
1.60298
20
1.40885
11
1.59387
21
1.40885
0
LINE
8
BLACK
6
CONTINUOUS
10
1.59387
20
1.40885
11
1.58489
21
1.41035
0
LINE
8
BLACK
6
CONTINUOUS
10
1.58489
20
1.41035
11
1.57628
21
1.4133
0
LINE
8
BLACK
6
CONTINUOUS
10
1.57628
20
1.4133
11
1.56828
21
1.41764
0
LINE
8
BLACK
6
CONTINUOUS
10
1.56828
20
1.41764
11
1.56109
21
1.42323
0
LINE
8
BLACK
6
CONTINUOUS
10
1.56109
20
1.42323
11
1.55493
21
1.42993
0
LINE
8
BLACK
6
CONTINUOUS
10
1.55493
20
1.42993
11
1.54995
21
1.43755
0
LINE
8
BLACK
6
CONTINUOUS
10
1.54995
20
1.43755
11
1.54629
21
1.44588
0
LINE
8
BLACK
6
CONTINUOUS
10
1.54629
20
1.44588
11
1.54406
21
1.45471
0
LINE
8
BLACK
6
CONTINUOUS
10
1.54406
20
1.45471
11
1.54331
21
1.46378
0
LINE
8
BLACK
6
CONTINUOUS
10
1.54331
20
1.46378
11
1.54406
21
1.47285
0
LINE
8
BLACK
6
CONTINUOUS
10
1.54406
20
1.47285
11
1.54629
21
1.48168
0
LINE
8
BLACK
6
CONTINUOUS
10
1.54629
20
1.48168
11
1.54995
21
1.49001
0
LINE
8
BLACK
6
CONTINUOUS
10
1.54995
20
1.49001
11
1.55493
21
1.49763
0
LINE
8
BLACK
6
CONTINUOUS
10
1.55493
20
1.49763
11
1.56109
21
1.50433
0
LINE
8
BLACK
6
CONTINUOUS
10
1.56109
20
1.50433
11
1.56828
21
1.50992
0
LINE
8
BLACK
6
CONTINUOUS
10
1.56828
20
1.50992
11
1.57628
21
1.51426
0
LINE
8
BLACK
6
CONTINUOUS
10
1.57628
20
1.51426
11
1.58489
21
1.51721
0
LINE
8
BLACK
6
CONTINUOUS
10
1.58489
20
1.51721
11
1.59387
21
1.51871
0
LINE
8
BLACK
6
CONTINUOUS
10
1.59387
20
1.51871
11
1.60298
21
1.51871
0
LINE
8
BLACK
6
CONTINUOUS
10
1.60298
20
1.51871
11
1.61196
21
1.51721
0
LINE
8
BLACK
6
CONTINUOUS
10
0.325004
20
1.59983
11
0.332389
21
1.59759
0
LINE
8
BLACK
6
CONTINUOUS
10
0.332389
20
1.59759
11
0.339196
21
1.59396
0
LINE
8
BLACK
6
CONTINUOUS
10
0.339196
20
1.59396
11
0.345162
21
1.58906
0
LINE
8
BLACK
6
CONTINUOUS
10
0.345162
20
1.58906
11
0.350058
21
1.58309
0
LINE
8
BLACK
6
CONTINUOUS
10
0.350058
20
1.58309
11
0.353696
21
1.57629
0
LINE
8
BLACK
6
CONTINUOUS
10
0.353696
20
1.57629
11
0.355936
21
1.5689
0
LINE
8
BLACK
6
CONTINUOUS
10
0.355936
20
1.5689
11
0.356693
21
1.56122
0
LINE
8
BLACK
6
CONTINUOUS
10
0.356693
20
1.56122
11
0.355936
21
1.55354
0
LINE
8
BLACK
6
CONTINUOUS
10
0.355936
20
1.55354
11
0.353696
21
1.54615
0
LINE
8
BLACK
6
CONTINUOUS
10
0.353696
20
1.54615
11
0.350058
21
1.53935
0
LINE
8
BLACK
6
CONTINUOUS
10
0.350058
20
1.53935
11
0.345162
21
1.53338
0
LINE
8
BLACK
6
CONTINUOUS
10
0.345162
20
1.53338
11
0.339196
21
1.52849
0
LINE
8
BLACK
6
CONTINUOUS
10
0.339196
20
1.52849
11
0.332389
21
1.52485
0
LINE
8
BLACK
6
CONTINUOUS
10
0.332389
20
1.52485
11
0.325004
21
1.52261
0
LINE
8
BLACK
6
CONTINUOUS
10
0.325004
20
1.52261
11
0.317323
21
1.52185
0
LINE
8
BLACK
6
CONTINUOUS
10
0.317323
20
1.52185
11
0.309642
21
1.52261
0
LINE
8
BLACK
6
CONTINUOUS
10
0.309642
20
1.52261
11
0.302257
21
1.52485
0
LINE
8
BLACK
6
CONTINUOUS
10
0.302257
20
1.52485
11
0.29545
21
1.52849
0
LINE
8
BLACK
6
CONTINUOUS
10
0.29545
20
1.52849
11
0.289484
21
1.53338
0
LINE
8
BLACK
6
CONTINUOUS
10
0.289484
20
1.53338
11
0.284588
21
1.53935
0
LINE
8
BLACK
6
CONTINUOUS
10
0.284588
20
1.53935
11
0.28095
21
1.54615
0
LINE
8
BLACK
6
CONTINUOUS
10
0.28095
20
1.54615
11
0.278709
21
1.55354
0
LINE
8
BLACK
6
CONTINUOUS
10
0.278709
20
1.55354
11
0.277953
21
1.56122
0
LINE
8
BLACK
6
CONTINUOUS
10
0.277953
20
1.56122
11
0.278709
21
1.5689
0
LINE
8
BLACK
6
CONTINUOUS
10
0.278709
20
1.5689
11
0.28095
21
1.57629
0
LINE
8
BLACK
6
CONTINUOUS
10
0.28095
20
1.57629
11
0.284588
21
1.58309
0
LINE
8
BLACK
6
CONTINUOUS
10
0.284588
20
1.58309
11
0.289484
21
1.58906
0
LINE
8
BLACK
6
CONTINUOUS
10
0.289484
20
1.58906
11
0.29545
21
1.59396
0
LINE
8
BLACK
6
CONTINUOUS
10
0.29545
20
1.59396
11
0.302257
21
1.59759
0
LINE
8
BLACK
6
CONTINUOUS
10
0.302257
20
1.59759
11
0.309642
21
1.59983
0
LINE
8
BLACK
6
CONTINUOUS
10
0.309642
20
1.59983
11
0.317323
21
1.60059
0
LINE
8
BLACK
6
CONTINUOUS
10
0.317323
20
1.60059
11
0.325004
21
1.59983
0
LINE
8
BLACK
6
CONTINUOUS
10
0.453047
20
1.60014
11
0.454963
21
1.59886
0
LINE
8
BLACK
6
CONTINUOUS
10
0.454963
20
1.59886
11
0.456243
21
1.59695
0
LINE
8
BLACK
6
CONTINUOUS
10
0.456243
20
1.59695
11
0.456693
21
1.59469
0
LINE
8
BLACK
6
CONTINUOUS
10
0.456693
20
1.59469
11
0.456693
21
1.52776
0
LINE
8
BLACK
6
CONTINUOUS
10
0.456693
20
1.52776
11
0.456243
21
1.5255
0
LINE
8
BLACK
6
CONTINUOUS
10
0.456243
20
1.5255
11
0.454963
21
1.52358
0
LINE
8
BLACK
6
CONTINUOUS
10
0.454963
20
1.52358
11
0.453047
21
1.5223
0
LINE
8
BLACK
6
CONTINUOUS
10
0.453047
20
1.5223
11
0.450787
21
1.52185
0
LINE
8
BLACK
6
CONTINUOUS
10
0.450787
20
1.52185
11
0.383858
21
1.52185
0
LINE
8
BLACK
6
CONTINUOUS
10
0.383858
20
1.52185
11
0.381598
21
1.5223
0
LINE
8
BLACK
6
CONTINUOUS
10
0.381598
20
1.5223
11
0.379682
21
1.52358
0
LINE
8
BLACK
6
CONTINUOUS
10
0.379682
20
1.52358
11
0.378402
21
1.5255
0
LINE
8
BLACK
6
CONTINUOUS
10
0.378402
20
1.5255
11
0.377953
21
1.52776
0
LINE
8
BLACK
6
CONTINUOUS
10
0.377953
20
1.52776
11
0.377953
21
1.59469
0
LINE
8
BLACK
6
CONTINUOUS
10
0.377953
20
1.59469
11
0.378402
21
1.59695
0
LINE
8
BLACK
6
CONTINUOUS
10
0.378402
20
1.59695
11
0.379682
21
1.59886
0
LINE
8
BLACK
6
CONTINUOUS
10
0.379682
20
1.59886
11
0.381598
21
1.60014
0
LINE
8
BLACK
6
CONTINUOUS
10
0.381598
20
1.60014
11
0.383858
21
1.60059
0
LINE
8
BLACK
6
CONTINUOUS
10
0.383858
20
1.60059
11
0.450787
21
1.60059
0
LINE
8
BLACK
6
CONTINUOUS
10
0.450787
20
1.60059
11
0.453047
21
1.60014
0
LINE
8
BLACK
6
CONTINUOUS
10
0.720764
20
1.61294
11
0.72268
21
1.61166
0
LINE
8
BLACK
6
CONTINUOUS
10
0.72268
20
1.61166
11
0.72396
21
1.60974
0
LINE
8
BLACK
6
CONTINUOUS
10
0.72396
20
1.60974
11
0.724409
21
1.60748
0
LINE
8
BLACK
6
CONTINUOUS
10
0.724409
20
1.60748
11
0.724409
21
1.54055
0
LINE
8
BLACK
6
CONTINUOUS
10
0.724409
20
1.54055
11
0.72396
21
1.53829
0
LINE
8
BLACK
6
CONTINUOUS
10
0.72396
20
1.53829
11
0.72268
21
1.53638
0
LINE
8
BLACK
6
CONTINUOUS
10
0.72268
20
1.53638
11
0.720764
21
1.5351
0
LINE
8
BLACK
6
CONTINUOUS
10
0.720764
20
1.5351
11
0.718504
21
1.53465
0
LINE
8
BLACK
6
CONTINUOUS
10
0.718504
20
1.53465
11
0.651575
21
1.53465
0
LINE
8
BLACK
6
CONTINUOUS
10
0.651575
20
1.53465
11
0.649315
21
1.5351
0
LINE
8
BLACK
6
CONTINUOUS
10
0.649315
20
1.5351
11
0.647399
21
1.53638
0
LINE
8
BLACK
6
CONTINUOUS
10
0.647399
20
1.53638
11
0.646119
21
1.53829
0
LINE
8
BLACK
6
CONTINUOUS
10
0.646119
20
1.53829
11
0.645669
21
1.54055
0
LINE
8
BLACK
6
CONTINUOUS
10
0.645669
20
1.54055
11
0.645669
21
1.60748
0
LINE
8
BLACK
6
CONTINUOUS
10
0.645669
20
1.60748
11
0.646119
21
1.60974
0
LINE
8
BLACK
6
CONTINUOUS
10
0.646119
20
1.60974
11
0.647399
21
1.61166
0
LINE
8
BLACK
6
CONTINUOUS
10
0.647399
20
1.61166
11
0.649315
21
1.61294
0
LINE
8
BLACK
6
CONTINUOUS
10
0.649315
20
1.61294
11
0.651575
21
1.61339
0
LINE
8
BLACK
6
CONTINUOUS
10
0.651575
20
1.61339
11
0.718504
21
1.61339
0
LINE
8
BLACK
6
CONTINUOUS
10
0.718504
20
1.61339
11
0.720764
21
1.61294
0
LINE
8
BLACK
6
CONTINUOUS
10
1.32706
20
1.7153
11
1.32898
21
1.71402
0
LINE
8
BLACK
6
CONTINUOUS
10
1.32898
20
1.71402
11
1.33026
21
1.7121
0
LINE
8
BLACK
6
CONTINUOUS
10
1.33026
20
1.7121
11
1.33071
21
1.70984
0
LINE
8
BLACK
6
CONTINUOUS
10
1.33071
20
1.70984
11
1.33071
21
1.61142
0
LINE
8
BLACK
6
CONTINUOUS
10
1.33071
20
1.61142
11
1.33026
21
1.60916
0
LINE
8
BLACK
6
CONTINUOUS
10
1.33026
20
1.60916
11
1.32898
21
1.60724
0
LINE
8
BLACK
6
CONTINUOUS
10
1.32898
20
1.60724
11
1.32706
21
1.60596
0
LINE
8
BLACK
6
CONTINUOUS
10
1.32706
20
1.60596
11
1.3248
21
1.60551
0
LINE
8
BLACK
6
CONTINUOUS
10
1.3248
20
1.60551
11
1.22638
21
1.60551
0
LINE
8
BLACK
6
CONTINUOUS
10
1.22638
20
1.60551
11
1.22412
21
1.60596
0
LINE
8
BLACK
6
CONTINUOUS
10
1.22412
20
1.60596
11
1.2222
21
1.60724
0
LINE
8
BLACK
6
CONTINUOUS
10
1.2222
20
1.60724
11
1.22092
21
1.60916
0
LINE
8
BLACK
6
CONTINUOUS
10
1.22092
20
1.60916
11
1.22047
21
1.61142
0
LINE
8
BLACK
6
CONTINUOUS
10
1.22047
20
1.61142
11
1.22047
21
1.70984
0
LINE
8
BLACK
6
CONTINUOUS
10
1.22047
20
1.70984
11
1.22092
21
1.7121
0
LINE
8
BLACK
6
CONTINUOUS
10
1.22092
20
1.7121
11
1.2222
21
1.71402
0
LINE
8
BLACK
6
CONTINUOUS
10
1.2222
20
1.71402
11
1.22412
21
1.7153
0
LINE
8
BLACK
6
CONTINUOUS
10
1.22412
20
1.7153
11
1.22638
21
1.71575
0
LINE
8
BLACK
6
CONTINUOUS
10
1.22638
20
1.71575
11
1.3248
21
1.71575
0
LINE
8
BLACK
6
CONTINUOUS
10
1.3248
20
1.71575
11
1.32706
21
1.7153
0
LINE
8
BLACK
6
CONTINUOUS
10
1.6499
20
1.7153
11
1.65181
21
1.71402
0
LINE
8
BLACK
6
CONTINUOUS
10
1.65181
20
1.71402
11
1.65309
21
1.7121
0
LINE
8
BLACK
6
CONTINUOUS
10
1.65309
20
1.7121
11
1.65354
21
1.70984
0
LINE
8
BLACK
6
CONTINUOUS
10
1.65354
20
1.70984
11
1.65354
21
1.61142
0
LINE
8
BLACK
6
CONTINUOUS
10
1.65354
20
1.61142
11
1.65309
21
1.60916
0
LINE
8
BLACK
6
CONTINUOUS
10
1.65309
20
1.60916
11
1.65181
21
1.60724
0
LINE
8
BLACK
6
CONTINUOUS
10
1.65181
20
1.60724
11
1.6499
21
1.60596
0
LINE
8
BLACK
6
CONTINUOUS
10
1.6499
20
1.60596
11
1.64764
21
1.60551
0
LINE
8
BLACK
6
CONTINUOUS
10
1.64764
20
1.60551
11
1.54921
21
1.60551
0
LINE
8
BLACK
6
CONTINUOUS
10
1.54921
20
1.60551
11
1.54695
21
1.60596
0
LINE
8
BLACK
6
CONTINUOUS
10
1.54695
20
1.60596
11
1.54504
21
1.60724
0
LINE
8
BLACK
6
CONTINUOUS
10
1.54504
20
1.60724
11
1.54376
21
1.60916
0
LINE
8
BLACK
6
CONTINUOUS
10
1.54376
20
1.60916
11
1.54331
21
1.61142
0
LINE
8
BLACK
6
CONTINUOUS
10
1.54331
20
1.61142
11
1.54331
21
1.70984
0
LINE
8
BLACK
6
CONTINUOUS
10
1.54331
20
1.70984
11
1.54376
21
1.7121
0
LINE
8
BLACK
6
CONTINUOUS
10
1.54376
20
1.7121
11
1.54504
21
1.71402
0
LINE
8
BLACK
6
CONTINUOUS
10
1.54504
20
1.71402
11
1.54695
21
1.7153
0
LINE
8
BLACK
6
CONTINUOUS
10
1.54695
20
1.7153
11
1.54921
21
1.71575
0
LINE
8
BLACK
6
CONTINUOUS
10
1.54921
20
1.71575
11
1.64764
21
1.71575
0
LINE
8
BLACK
6
CONTINUOUS
10
1.64764
20
1.71575
11
1.6499
21
1.7153
0
LINE
8
BLACK
6
CONTINUOUS
10
0.325004
20
1.69983
11
0.332389
21
1.69759
0
LINE
8
BLACK
6
CONTINUOUS
10
0.332389
20
1.69759
11
0.339196
21
1.69396
0
LINE
8
BLACK
6
CONTINUOUS
10
0.339196
20
1.69396
11
0.345162
21
1.68906
0
LINE
8
BLACK
6
CONTINUOUS
10
0.345162
20
1.68906
11
0.350058
21
1.68309
0
LINE
8
BLACK
6
CONTINUOUS
10
0.350058
20
1.68309
11
0.353696
21
1.67629
0
LINE
8
BLACK
6
CONTINUOUS
10
0.353696
20
1.67629
11
0.355936
21
1.6689
0
LINE
8
BLACK
6
CONTINUOUS
10
0.355936
20
1.6689
11
0.356693
21
1.66122
0
LINE
8
BLACK
6
CONTINUOUS
10
0.356693
20
1.66122
11
0.355936
21
1.65354
0
LINE
8
BLACK
6
CONTINUOUS
10
0.355936
20
1.65354
11
0.353696
21
1.64615
0
LINE
8
BLACK
6
CONTINUOUS
10
0.353696
20
1.64615
11
0.350058
21
1.63935
0
LINE
8
BLACK
6
CONTINUOUS
10
0.350058
20
1.63935
11
0.345162
21
1.63338
0
LINE
8
BLACK
6
CONTINUOUS
10
0.345162
20
1.63338
11
0.339196
21
1.62849
0
LINE
8
BLACK
6
CONTINUOUS
10
0.339196
20
1.62849
11
0.332389
21
1.62485
0
LINE
8
BLACK
6
CONTINUOUS
10
0.332389
20
1.62485
11
0.325004
21
1.62261
0
LINE
8
BLACK
6
CONTINUOUS
10
0.325004
20
1.62261
11
0.317323
21
1.62185
0
LINE
8
BLACK
6
CONTINUOUS
10
0.317323
20
1.62185
11
0.309642
21
1.62261
0
LINE
8
BLACK
6
CONTINUOUS
10
0.309642
20
1.62261
11
0.302257
21
1.62485
0
LINE
8
BLACK
6
CONTINUOUS
10
0.302257
20
1.62485
11
0.29545
21
1.62849
0
LINE
8
BLACK
6
CONTINUOUS
10
0.29545
20
1.62849
11
0.289484
21
1.63338
0
LINE
8
BLACK
6
CONTINUOUS
10
0.289484
20
1.63338
11
0.284588
21
1.63935
0
LINE
8
BLACK
6
CONTINUOUS
10
0.284588
20
1.63935
11
0.28095
21
1.64615
0
LINE
8
BLACK
6
CONTINUOUS
10
0.28095
20
1.64615
11
0.278709
21
1.65354
0
LINE
8
BLACK
6
CONTINUOUS
10
0.278709
20
1.65354
11
0.277953
21
1.66122
0
LINE
8
BLACK
6
CONTINUOUS
10
0.277953
20
1.66122
11
0.278709
21
1.6689
0
LINE
8
BLACK
6
CONTINUOUS
10
0.278709
20
1.6689
11
0.28095
21
1.67629
0
LINE
8
BLACK
6
CONTINUOUS
10
0.28095
20
1.67629
11
0.284588
21
1.68309
0
LINE
8
BLACK
6
CONTINUOUS
10
0.284588
20
1.68309
11
0.289484
21
1.68906
0
LINE
8
BLACK
6
CONTINUOUS
10
0.289484
20
1.68906
11
0.29545
21
1.69396
0
LINE
8
BLACK
6
CONTINUOUS
10
0.29545
20
1.69396
11
0.302257
21
1.69759
0
LINE
8
BLACK
6
CONTINUOUS
10
0.302257
20
1.69759
11
0.309642
21
1.69983
0
LINE
8
BLACK
6
CONTINUOUS
10
0.309642
20
1.69983
11
0.317323
21
1.70059
0
LINE
8
BLACK
6
CONTINUOUS
10
0.317323
20
1.70059
11
0.325004
21
1.69983
0
LINE
8
BLACK
6
CONTINUOUS
10
0.425004
20
1.69983
11
0.432389
21
1.69759
0
LINE
8
BLACK
6
CONTINUOUS
10
0.432389
20
1.69759
11
0.439196
21
1.69396
0
LINE
8
BLACK
6
CONTINUOUS
10
0.439196
20
1.69396
11
0.445162
21
1.68906
0
LINE
8
BLACK
6
CONTINUOUS
10
0.445162
20
1.68906
11
0.450058
21
1.68309
0
LINE
8
BLACK
6
CONTINUOUS
10
0.450058
20
1.68309
11
0.453696
21
1.67629
0
LINE
8
BLACK
6
CONTINUOUS
10
0.453696
20
1.67629
11
0.455936
21
1.6689
0
LINE
8
BLACK
6
CONTINUOUS
10
0.455936
20
1.6689
11
0.456693
21
1.66122
0
LINE
8
BLACK
6
CONTINUOUS
10
0.456693
20
1.66122
11
0.455936
21
1.65354
0
LINE
8
BLACK
6
CONTINUOUS
10
0.455936
20
1.65354
11
0.453696
21
1.64615
0
LINE
8
BLACK
6
CONTINUOUS
10
0.453696
20
1.64615
11
0.450058
21
1.63935
0
LINE
8
BLACK
6
CONTINUOUS
10
0.450058
20
1.63935
11
0.445162
21
1.63338
0
LINE
8
BLACK
6
CONTINUOUS
10
0.445162
20
1.63338
11
0.439196
21
1.62849
0
LINE
8
BLACK
6
CONTINUOUS
10
0.439196
20
1.62849
11
0.432389
21
1.62485
0
LINE
8
BLACK
6
CONTINUOUS
10
0.432389
20
1.62485
11
0.425004
21
1.62261
0
LINE
8
BLACK
6
CONTINUOUS
10
0.425004
20
1.62261
11
0.417323
21
1.62185
0
LINE
8
BLACK
6
CONTINUOUS
10
0.417323
20
1.62185
11
0.409642
21
1.62261
0
LINE
8
BLACK
6
CONTINUOUS
10
0.409642
20
1.62261
11
0.402257
21
1.62485
0
LINE
8
BLACK
6
CONTINUOUS
10
0.402257
20
1.62485
11
0.39545
21
1.62849
0
LINE
8
BLACK
6
CONTINUOUS
10
0.39545
20
1.62849
11
0.389484
21
1.63338
0
LINE
8
BLACK
6
CONTINUOUS
10
0.389484
20
1.63338
11
0.384588
21
1.63935
0
LINE
8
BLACK
6
CONTINUOUS
10
0.384588
20
1.63935
11
0.38095
21
1.64615
0
LINE
8
BLACK
6
CONTINUOUS
10
0.38095
20
1.64615
11
0.378709
21
1.65354
0
LINE
8
BLACK
6
CONTINUOUS
10
0.378709
20
1.65354
11
0.377953
21
1.66122
0
LINE
8
BLACK
6
CONTINUOUS
10
0.377953
20
1.66122
11
0.378709
21
1.6689
0
LINE
8
BLACK
6
CONTINUOUS
10
0.378709
20
1.6689
11
0.38095
21
1.67629
0
LINE
8
BLACK
6
CONTINUOUS
10
0.38095
20
1.67629
11
0.384588
21
1.68309
0
LINE
8
BLACK
6
CONTINUOUS
10
0.384588
20
1.68309
11
0.389484
21
1.68906
0
LINE
8
BLACK
6
CONTINUOUS
10
0.389484
20
1.68906
11
0.39545
21
1.69396
0
LINE
8
BLACK
6
CONTINUOUS
10
0.39545
20
1.69396
11
0.402257
21
1.69759
0
LINE
8
BLACK
6
CONTINUOUS
10
0.402257
20
1.69759
11
0.409642
21
1.69983
0
LINE
8
BLACK
6
CONTINUOUS
10
0.409642
20
1.69983
11
0.417323
21
1.70059
0
LINE
8
BLACK
6
CONTINUOUS
10
0.417323
20
1.70059
11
0.425004
21
1.69983
0
LINE
8
BLACK
6
CONTINUOUS
10
0.69272
20
1.71263
11
0.700106
21
1.71039
0
LINE
8
BLACK
6
CONTINUOUS
10
0.700106
20
1.71039
11
0.706912
21
1.70675
0
LINE
8
BLACK
6
CONTINUOUS
10
0.706912
20
1.70675
11
0.712878
21
1.70185
0
LINE
8
BLACK
6
CONTINUOUS
10
0.712878
20
1.70185
11
0.717774
21
1.69589
0
LINE
8
BLACK
6
CONTINUOUS
10
0.717774
20
1.69589
11
0.721413
21
1.68908
0
LINE
8
BLACK
6
CONTINUOUS
10
0.721413
20
1.68908
11
0.723653
21
1.6817
0
LINE
8
BLACK
6
CONTINUOUS
10
0.723653
20
1.6817
11
0.724409
21
1.67402
0
LINE
8
BLACK
6
CONTINUOUS
10
0.724409
20
1.67402
11
0.723653
21
1.66634
0
LINE
8
BLACK
6
CONTINUOUS
10
0.723653
20
1.66634
11
0.721413
21
1.65895
0
LINE
8
BLACK
6
CONTINUOUS
10
0.721413
20
1.65895
11
0.717774
21
1.65214
0
LINE
8
BLACK
6
CONTINUOUS
10
0.717774
20
1.65214
11
0.712878
21
1.64618
0
LINE
8
BLACK
6
CONTINUOUS
10
0.712878
20
1.64618
11
0.706912
21
1.64128
0
LINE
8
BLACK
6
CONTINUOUS
10
0.706912
20
1.64128
11
0.700106
21
1.63764
0
LINE
8
BLACK
6
CONTINUOUS
10
0.700106
20
1.63764
11
0.69272
21
1.6354
0
LINE
8
BLACK
6
CONTINUOUS
10
0.69272
20
1.6354
11
0.685039
21
1.63465
0
LINE
8
BLACK
6
CONTINUOUS
10
0.685039
20
1.63465
11
0.677359
21
1.6354
0
LINE
8
BLACK
6
CONTINUOUS
10
0.677359
20
1.6354
11
0.669973
21
1.63764
0
LINE
8
BLACK
6
CONTINUOUS
10
0.669973
20
1.63764
11
0.663167
21
1.64128
0
LINE
8
BLACK
6
CONTINUOUS
10
0.663167
20
1.64128
11
0.657201
21
1.64618
0
LINE
8
BLACK
6
CONTINUOUS
10
0.657201
20
1.64618
11
0.652304
21
1.65214
0
LINE
8
BLACK
6
CONTINUOUS
10
0.652304
20
1.65214
11
0.648666
21
1.65895
0
LINE
8
BLACK
6
CONTINUOUS
10
0.648666
20
1.65895
11
0.646426
21
1.66634
0
LINE
8
BLACK
6
CONTINUOUS
10
0.646426
20
1.66634
11
0.645669
21
1.67402
0
LINE
8
BLACK
6
CONTINUOUS
10
0.645669
20
1.67402
11
0.646426
21
1.6817
0
LINE
8
BLACK
6
CONTINUOUS
10
0.646426
20
1.6817
11
0.648666
21
1.68908
0
LINE
8
BLACK
6
CONTINUOUS
10
0.648666
20
1.68908
11
0.652304
21
1.69589
0
LINE
8
BLACK
6
CONTINUOUS
10
0.652304
20
1.69589
11
0.657201
21
1.70185
0
LINE
8
BLACK
6
CONTINUOUS
10
0.657201
20
1.70185
11
0.663167
21
1.70675
0
LINE
8
BLACK
6
CONTINUOUS
10
0.663167
20
1.70675
11
0.669973
21
1.71039
0
LINE
8
BLACK
6
CONTINUOUS
10
0.669973
20
1.71039
11
0.677359
21
1.71263
0
LINE
8
BLACK
6
CONTINUOUS
10
0.677359
20
1.71263
11
0.685039
21
1.71339
0
LINE
8
BLACK
6
CONTINUOUS
10
0.685039
20
1.71339
11
0.69272
21
1.71263
0
LINE
8
BLACK
6
CONTINUOUS
10
0.325004
20
1.79983
11
0.332389
21
1.79759
0
LINE
8
BLACK
6
CONTINUOUS
10
0.332389
20
1.79759
11
0.339196
21
1.79396
0
LINE
8
BLACK
6
CONTINUOUS
10
0.339196
20
1.79396
11
0.345162
21
1.78906
0
LINE
8
BLACK
6
CONTINUOUS
10
0.345162
20
1.78906
11
0.350058
21
1.78309
0
LINE
8
BLACK
6
CONTINUOUS
10
0.350058
20
1.78309
11
0.353696
21
1.77629
0
LINE
8
BLACK
6
CONTINUOUS
10
0.353696
20
1.77629
11
0.355936
21
1.7689
0
LINE
8
BLACK
6
CONTINUOUS
10
0.355936
20
1.7689
11
0.356693
21
1.76122
0
LINE
8
BLACK
6
CONTINUOUS
10
0.356693
20
1.76122
11
0.355936
21
1.75354
0
LINE
8
BLACK
6
CONTINUOUS
10
0.355936
20
1.75354
11
0.353696
21
1.74615
0
LINE
8
BLACK
6
CONTINUOUS
10
0.353696
20
1.74615
11
0.350058
21
1.73935
0
LINE
8
BLACK
6
CONTINUOUS
10
0.350058
20
1.73935
11
0.345162
21
1.73338
0
LINE
8
BLACK
6
CONTINUOUS
10
0.345162
20
1.73338
11
0.339196
21
1.72849
0
LINE
8
BLACK
6
CONTINUOUS
10
0.339196
20
1.72849
11
0.332389
21
1.72485
0
LINE
8
BLACK
6
CONTINUOUS
10
0.332389
20
1.72485
11
0.325004
21
1.72261
0
LINE
8
BLACK
6
CONTINUOUS
10
0.325004
20
1.72261
11
0.317323
21
1.72185
0
LINE
8
BLACK
6
CONTINUOUS
10
0.317323
20
1.72185
11
0.309642
21
1.72261
0
LINE
8
BLACK
6
CONTINUOUS
10
0.309642
20
1.72261
11
0.302257
21
1.72485
0
LINE
8
BLACK
6
CONTINUOUS
10
0.302257
20
1.72485
11
0.29545
21
1.72849
0
LINE
8
BLACK
6
CONTINUOUS
10
0.29545
20
1.72849
11
0.289484
21
1.73338
0
LINE
8
BLACK
6
CONTINUOUS
10
0.289484
20
1.73338
11
0.284588
21
1.73935
0
LINE
8
BLACK
6
CONTINUOUS
10
0.284588
20
1.73935
11
0.28095
21
1.74615
0
LINE
8
BLACK
6
CONTINUOUS
10
0.28095
20
1.74615
11
0.278709
21
1.75354
0
LINE
8
BLACK
6
CONTINUOUS
10
0.278709
20
1.75354
11
0.277953
21
1.76122
0
LINE
8
BLACK
6
CONTINUOUS
10
0.277953
20
1.76122
11
0.278709
21
1.7689
0
LINE
8
BLACK
6
CONTINUOUS
10
0.278709
20
1.7689
11
0.28095
21
1.77629
0
LINE
8
BLACK
6
CONTINUOUS
10
0.28095
20
1.77629
11
0.284588
21
1.78309
0
LINE
8
BLACK
6
CONTINUOUS
10
0.284588
20
1.78309
11
0.289484
21
1.78906
0
LINE
8
BLACK
6
CONTINUOUS
10
0.289484
20
1.78906
11
0.29545
21
1.79396
0
LINE
8
BLACK
6
CONTINUOUS
10
0.29545
20
1.79396
11
0.302257
21
1.79759
0
LINE
8
BLACK
6
CONTINUOUS
10
0.302257
20
1.79759
11
0.309642
21
1.79983
0
LINE
8
BLACK
6
CONTINUOUS
10
0.309642
20
1.79983
11
0.317323
21
1.80059
0
LINE
8
BLACK
6
CONTINUOUS
10
0.317323
20
1.80059
11
0.325004
21
1.79983
0
LINE
8
BLACK
6
CONTINUOUS
10
0.425004
20
1.79983
11
0.432389
21
1.79759
0
LINE
8
BLACK
6
CONTINUOUS
10
0.432389
20
1.79759
11
0.439196
21
1.79396
0
LINE
8
BLACK
6
CONTINUOUS
10
0.439196
20
1.79396
11
0.445162
21
1.78906
0
LINE
8
BLACK
6
CONTINUOUS
10
0.445162
20
1.78906
11
0.450058
21
1.78309
0
LINE
8
BLACK
6
CONTINUOUS
10
0.450058
20
1.78309
11
0.453696
21
1.77629
0
LINE
8
BLACK
6
CONTINUOUS
10
0.453696
20
1.77629
11
0.455936
21
1.7689
0
LINE
8
BLACK
6
CONTINUOUS
10
0.455936
20
1.7689
11
0.456693
21
1.76122
0
LINE
8
BLACK
6
CONTINUOUS
10
0.456693
20
1.76122
11
0.455936
21
1.75354
0
LINE
8
BLACK
6
CONTINUOUS
10
0.455936
20
1.75354
11
0.453696
21
1.74615
0
LINE
8
BLACK
6
CONTINUOUS
10
0.453696
20
1.74615
11
0.450058
21
1.73935
0
LINE
8
BLACK
6
CONTINUOUS
10
0.450058
20
1.73935
11
0.445162
21
1.73338
0
LINE
8
BLACK
6
CONTINUOUS
10
0.445162
20
1.73338
11
0.439196
21
1.72849
0
LINE
8
BLACK
6
CONTINUOUS
10
0.439196
20
1.72849
11
0.432389
21
1.72485
0
LINE
8
BLACK
6
CONTINUOUS
10
0.432389
20
1.72485
11
0.425004
21
1.72261
0
LINE
8
BLACK
6
CONTINUOUS
10
0.425004
20
1.72261
11
0.417323
21
1.72185
0
LINE
8
BLACK
6
CONTINUOUS
10
0.417323
20
1.72185
11
0.409642
21
1.72261
0
LINE
8
BLACK
6
CONTINUOUS
10
0.409642
20
1.72261
11
0.402257
21
1.72485
0
LINE
8
BLACK
6
CONTINUOUS
10
0.402257
20
1.72485
11
0.39545
21
1.72849
0
LINE
8
BLACK
6
CONTINUOUS
10
0.39545
20
1.72849
11
0.389484
21
1.73338
0
LINE
8
BLACK
6
CONTINUOUS
10
0.389484
20
1.73338
11
0.384588
21
1.73935
0
LINE
8
BLACK
6
CONTINUOUS
10
0.384588
20
1.73935
11
0.38095
21
1.74615
0
LINE
8
BLACK
6
CONTINUOUS
10
0.38095
20
1.74615
11
0.378709
21
1.75354
0
LINE
8
BLACK
6
CONTINUOUS
10
0.378709
20
1.75354
11
0.377953
21
1.76122
0
LINE
8
BLACK
6
CONTINUOUS
10
0.377953
20
1.76122
11
0.378709
21
1.7689
0
LINE
8
BLACK
6
CONTINUOUS
10
0.378709
20
1.7689
11
0.38095
21
1.77629
0
LINE
8
BLACK
6
CONTINUOUS
10
0.38095
20
1.77629
11
0.384588
21
1.78309
0
LINE
8
BLACK
6
CONTINUOUS
10
0.384588
20
1.78309
11
0.389484
21
1.78906
0
LINE
8
BLACK
6
CONTINUOUS
10
0.389484
20
1.78906
11
0.39545
21
1.79396
0
LINE
8
BLACK
6
CONTINUOUS
10
0.39545
20
1.79396
11
0.402257
21
1.79759
0
LINE
8
BLACK
6
CONTINUOUS
10
0.402257
20
1.79759
11
0.409642
21
1.79983
0
LINE
8
BLACK
6
CONTINUOUS
10
0.409642
20
1.79983
11
0.417323
21
1.80059
0
LINE
8
BLACK
6
CONTINUOUS
10
0.417323
20
1.80059
11
0.425004
21
1.79983
0
LINE
8
BLACK
6
CONTINUOUS
10
0.69272
20
1.81263
11
0.700106
21
1.81039
0
LINE
8
BLACK
6
CONTINUOUS
10
0.700106
20
1.81039
11
0.706912
21
1.80675
0
LINE
8
BLACK
6
CONTINUOUS
10
0.706912
20
1.80675
11
0.712878
21
1.80185
0
LINE
8
BLACK
6
CONTINUOUS
10
0.712878
20
1.80185
11
0.717774
21
1.79589
0
LINE
8
BLACK
6
CONTINUOUS
10
0.717774
20
1.79589
11
0.721413
21
1.78908
0
LINE
8
BLACK
6
CONTINUOUS
10
0.721413
20
1.78908
11
0.723653
21
1.7817
0
LINE
8
BLACK
6
CONTINUOUS
10
0.723653
20
1.7817
11
0.724409
21
1.77402
0
LINE
8
BLACK
6
CONTINUOUS
10
0.724409
20
1.77402
11
0.723653
21
1.76634
0
LINE
8
BLACK
6
CONTINUOUS
10
0.723653
20
1.76634
11
0.721413
21
1.75895
0
LINE
8
BLACK
6
CONTINUOUS
10
0.721413
20
1.75895
11
0.717774
21
1.75214
0
LINE
8
BLACK
6
CONTINUOUS
10
0.717774
20
1.75214
11
0.712878
21
1.74618
0
LINE
8
BLACK
6
CONTINUOUS
10
0.712878
20
1.74618
11
0.706912
21
1.74128
0
LINE
8
BLACK
6
CONTINUOUS
10
0.706912
20
1.74128
11
0.700106
21
1.73764
0
LINE
8
BLACK
6
CONTINUOUS
10
0.700106
20
1.73764
11
0.69272
21
1.7354
0
LINE
8
BLACK
6
CONTINUOUS
10
0.69272
20
1.7354
11
0.685039
21
1.73465
0
LINE
8
BLACK
6
CONTINUOUS
10
0.685039
20
1.73465
11
0.677359
21
1.7354
0
LINE
8
BLACK
6
CONTINUOUS
10
0.677359
20
1.7354
11
0.669973
21
1.73764
0
LINE
8
BLACK
6
CONTINUOUS
10
0.669973
20
1.73764
11
0.663167
21
1.74128
0
LINE
8
BLACK
6
CONTINUOUS
10
0.663167
20
1.74128
11
0.657201
21
1.74618
0
LINE
8
BLACK
6
CONTINUOUS
10
0.657201
20
1.74618
11
0.652304
21
1.75214
0
LINE
8
BLACK
6
CONTINUOUS
10
0.652304
20
1.75214
11
0.648666
21
1.75895
0
LINE
8
BLACK
6
CONTINUOUS
10
0.648666
20
1.75895
11
0.646426
21
1.76634
0
LINE
8
BLACK
6
CONTINUOUS
10
0.646426
20
1.76634
11
0.645669
21
1.77402
0
LINE
8
BLACK
6
CONTINUOUS
10
0.645669
20
1.77402
11
0.646426
21
1.7817
0
LINE
8
BLACK
6
CONTINUOUS
10
0.646426
20
1.7817
11
0.648666
21
1.78908
0
LINE
8
BLACK
6
CONTINUOUS
10
0.648666
20
1.78908
11
0.652304
21
1.79589
0
LINE
8
BLACK
6
CONTINUOUS
10
0.652304
20
1.79589
11
0.657201
21
1.80185
0
LINE
8
BLACK
6
CONTINUOUS
10
0.657201
20
1.80185
11
0.663167
21
1.80675
0
LINE
8
BLACK
6
CONTINUOUS
10
0.663167
20
1.80675
11
0.669973
21
1.81039
0
LINE
8
BLACK
6
CONTINUOUS
10
0.669973
20
1.81039
11
0.677359
21
1.81263
0
LINE
8
BLACK
6
CONTINUOUS
10
0.677359
20
1.81263
11
0.685039
21
1.81339
0
LINE
8
BLACK
6
CONTINUOUS
10
0.685039
20
1.81339
11
0.69272
21
1.81263
0
LINE
8
BLACK
6
CONTINUOUS
10
0.413885
20
2.12324
11
0.427596
21
2.12091
0
LINE
8
BLACK
6
CONTINUOUS
10
0.427596
20
2.12091
11
0.44096
21
2.11706
0
LINE
8
BLACK
6
CONTINUOUS
10
0.44096
20
2.11706
11
0.453808
21
2.11173
0
LINE
8
BLACK
6
CONTINUOUS
10
0.453808
20
2.11173
11
0.46598
21
2.10501
0
LINE
8
BLACK
6
CONTINUOUS
10
0.46598
20
2.10501
11
0.477323
21
2.09696
0
LINE
8
BLACK
6
CONTINUOUS
10
0.477323
20
2.09696
11
0.487692
21
2.08769
0
LINE
8
BLACK
6
CONTINUOUS
10
0.487692
20
2.08769
11
0.496959
21
2.07732
0
LINE
8
BLACK
6
CONTINUOUS
10
0.496959
20
2.07732
11
0.505007
21
2.06598
0
LINE
8
BLACK
6
CONTINUOUS
10
0.505007
20
2.06598
11
0.511734
21
2.05381
0
LINE
8
BLACK
6
CONTINUOUS
10
0.511734
20
2.05381
11
0.517056
21
2.04096
0
LINE
8
BLACK
6
CONTINUOUS
10
0.517056
20
2.04096
11
0.520906
21
2.0276
0
LINE
8
BLACK
6
CONTINUOUS
10
0.520906
20
2.0276
11
0.523236
21
2.01389
0
LINE
8
BLACK
6
CONTINUOUS
10
0.523236
20
2.01389
11
0.524016
21
2
0
LINE
8
BLACK
6
CONTINUOUS
10
0.524016
20
2
11
0.523236
21
1.98611
0
LINE
8
BLACK
6
CONTINUOUS
10
0.523236
20
1.98611
11
0.520906
21
1.9724
0
LINE
8
BLACK
6
CONTINUOUS
10
0.520906
20
1.9724
11
0.517056
21
1.95904
0
LINE
8
BLACK
6
CONTINUOUS
10
0.517056
20
1.95904
11
0.511734
21
1.94619
0
LINE
8
BLACK
6
CONTINUOUS
10
0.511734
20
1.94619
11
0.505007
21
1.93402
0
LINE
8
BLACK
6
CONTINUOUS
10
0.505007
20
1.93402
11
0.496959
21
1.92268
0
LINE
8
BLACK
6
CONTINUOUS
10
0.496959
20
1.92268
11
0.487692
21
1.91231
0
LINE
8
BLACK
6
CONTINUOUS
10
0.487692
20
1.91231
11
0.477323
21
1.90304
0
LINE
8
BLACK
6
CONTINUOUS
10
0.477323
20
1.90304
11
0.46598
21
1.89499
0
LINE
8
BLACK
6
CONTINUOUS
10
0.46598
20
1.89499
11
0.453808
21
1.88827
0
LINE
8
BLACK
6
CONTINUOUS
10
0.453808
20
1.88827
11
0.44096
21
1.88294
0
LINE
8
BLACK
6
CONTINUOUS
10
0.44096
20
1.88294
11
0.427596
21
1.87909
0
LINE
8
BLACK
6
CONTINUOUS
10
0.427596
20
1.87909
11
0.413885
21
1.87676
0
LINE
8
BLACK
6
CONTINUOUS
10
0.413885
20
1.87676
11
0.4
21
1.87598
0
LINE
8
BLACK
6
CONTINUOUS
10
0.4
20
1.87598
11
0.386115
21
1.87676
0
LINE
8
BLACK
6
CONTINUOUS
10
0.386115
20
1.87676
11
0.372404
21
1.87909
0
LINE
8
BLACK
6
CONTINUOUS
10
0.372404
20
1.87909
11
0.35904
21
1.88294
0
LINE
8
BLACK
6
CONTINUOUS
10
0.35904
20
1.88294
11
0.346192
21
1.88827
0
LINE
8
BLACK
6
CONTINUOUS
10
0.346192
20
1.88827
11
0.33402
21
1.89499
0
LINE
8
BLACK
6
CONTINUOUS
10
0.33402
20
1.89499
11
0.322677
21
1.90304
0
LINE
8
BLACK
6
CONTINUOUS
10
0.322677
20
1.90304
11
0.312308
21
1.91231
0
LINE
8
BLACK
6
CONTINUOUS
10
0.312308
20
1.91231
11
0.303041
21
1.92268
0
LINE
8
BLACK
6
CONTINUOUS
10
0.303041
20
1.92268
11
0.294993
21
1.93402
0
LINE
8
BLACK
6
CONTINUOUS
10
0.294993
20
1.93402
11
0.288266
21
1.94619
0
LINE
8
BLACK
6
CONTINUOUS
10
0.288266
20
1.94619
11
0.282944
21
1.95904
0
LINE
8
BLACK
6
CONTINUOUS
10
0.282944
20
1.95904
11
0.279094
21
1.9724
0
LINE
8
BLACK
6
CONTINUOUS
10
0.279094
20
1.9724
11
0.276764
21
1.98611
0
LINE
8
BLACK
6
CONTINUOUS
10
0.276764
20
1.98611
11
0.275984
21
2
0
LINE
8
BLACK
6
CONTINUOUS
10
0.275984
20
2
11
0.276764
21
2.01389
0
LINE
8
BLACK
6
CONTINUOUS
10
0.276764
20
2.01389
11
0.279094
21
2.0276
0
LINE
8
BLACK
6
CONTINUOUS
10
0.279094
20
2.0276
11
0.282944
21
2.04096
0
LINE
8
BLACK
6
CONTINUOUS
10
0.282944
20
2.04096
11
0.288266
21
2.05381
0
LINE
8
BLACK
6
CONTINUOUS
10
0.288266
20
2.05381
11
0.294993
21
2.06598
0
LINE
8
BLACK
6
CONTINUOUS
10
0.294993
20
2.06598
11
0.303041
21
2.07732
0
LINE
8
BLACK
6
CONTINUOUS
10
0.303041
20
2.07732
11
0.312308
21
2.08769
0
LINE
8
BLACK
6
CONTINUOUS
10
0.312308
20
2.08769
11
0.322677
21
2.09696
0
LINE
8
BLACK
6
CONTINUOUS
10
0.322677
20
2.09696
11
0.33402
21
2.10501
0
LINE
8
BLACK
6
CONTINUOUS
10
0.33402
20
2.10501
11
0.346192
21
2.11173
0
LINE
8
BLACK
6
CONTINUOUS
10
0.346192
20
2.11173
11
0.35904
21
2.11706
0
LINE
8
BLACK
6
CONTINUOUS
10
0.35904
20
2.11706
11
0.372404
21
2.12091
0
LINE
8
BLACK
6
CONTINUOUS
10
0.372404
20
2.12091
11
0.386115
21
2.12324
0
LINE
8
BLACK
6
CONTINUOUS
10
0.386115
20
2.12324
11
0.4
21
2.12402
0
LINE
8
BLACK
6
CONTINUOUS
10
0.4
20
2.12402
11
0.413885
21
2.12324
0
LINE
8
BLACK
6
CONTINUOUS
10
1.61389
20
2.12324
11
1.6276
21
2.12091
0
LINE
8
BLACK
6
CONTINUOUS
10
1.6276
20
2.12091
11
1.64096
21
2.11706
0
LINE
8
BLACK
6
CONTINUOUS
10
1.64096
20
2.11706
11
1.65381
21
2.11173
0
LINE
8
BLACK
6
CONTINUOUS
10
1.65381
20
2.11173
11
1.66598
21
2.10501
0
LINE
8
BLACK
6
CONTINUOUS
10
1.66598
20
2.10501
11
1.67732
21
2.09696
0
LINE
8
BLACK
6
CONTINUOUS
10
1.67732
20
2.09696
11
1.68769
21
2.08769
0
LINE
8
BLACK
6
CONTINUOUS
10
1.68769
20
2.08769
11
1.69696
21
2.07732
0
LINE
8
BLACK
6
CONTINUOUS
10
1.69696
20
2.07732
11
1.70501
21
2.06598
0
LINE
8
BLACK
6
CONTINUOUS
10
1.70501
20
2.06598
11
1.71173
21
2.05381
0
LINE
8
BLACK
6
CONTINUOUS
10
1.71173
20
2.05381
11
1.71706
21
2.04096
0
LINE
8
BLACK
6
CONTINUOUS
10
1.71706
20
2.04096
11
1.72091
21
2.0276
0
LINE
8
BLACK
6
CONTINUOUS
10
1.72091
20
2.0276
11
1.72324
21
2.01389
0
LINE
8
BLACK
6
CONTINUOUS
10
1.72324
20
2.01389
11
1.72402
21
2
0
LINE
8
BLACK
6
CONTINUOUS
10
1.72402
20
2
11
1.72324
21
1.98611
0
LINE
8
BLACK
6
CONTINUOUS
10
1.72324
20
1.98611
11
1.72091
21
1.9724
0
LINE
8
BLACK
6
CONTINUOUS
10
1.72091
20
1.9724
11
1.71706
21
1.95904
0
LINE
8
BLACK
6
CONTINUOUS
10
1.71706
20
1.95904
11
1.71173
21
1.94619
0
LINE
8
BLACK
6
CONTINUOUS
10
1.71173
20
1.94619
11
1.70501
21
1.93402
0
LINE
8
BLACK
6
CONTINUOUS
10
1.70501
20
1.93402
11
1.69696
21
1.92268
0
LINE
8
BLACK
6
CONTINUOUS
10
1.69696
20
1.92268
11
1.68769
21
1.91231
0
LINE
8
BLACK
6
CONTINUOUS
10
1.68769
20
1.91231
11
1.67732
21
1.90304
0
LINE
8
BLACK
6
CONTINUOUS
10
1.67732
20
1.90304
11
1.66598
21
1.89499
0
LINE
8
BLACK
6
CONTINUOUS
10
1.66598
20
1.89499
11
1.65381
21
1.88827
0
LINE
8
BLACK
6
CONTINUOUS
10
1.65381
20
1.88827
11
1.64096
21
1.88294
0
LINE
8
BLACK
6
CONTINUOUS
10
1.64096
20
1.88294
11
1.6276
21
1.87909
0
LINE
8
BLACK
6
CONTINUOUS
10
1.6276
20
1.87909
11
1.61389
21
1.87676
0
LINE
8
BLACK
6
CONTINUOUS
10
1.61389
20
1.87676
11
1.6
21
1.87598
0
LINE
8
BLACK
6
CONTINUOUS
10
1.6
20
1.87598
11
1.58611
21
1.87676
0
LINE
8
BLACK
6
CONTINUOUS
10
1.58611
20
1.87676
11
1.5724
21
1.87909
0
LINE
8
BLACK
6
CONTINUOUS
10
1.5724
20
1.87909
11
1.55904
21
1.88294
0
LINE
8
BLACK
6
CONTINUOUS
10
1.55904
20
1.88294
11
1.54619
21
1.88827
0
LINE
8
BLACK
6
CONTINUOUS
10
1.54619
20
1.88827
11
1.53402
21
1.89499
0
LINE
8
BLACK
6
CONTINUOUS
10
1.53402
20
1.89499
11
1.52268
21
1.90304
0
LINE
8
BLACK
6
CONTINUOUS
10
1.52268
20
1.90304
11
1.51231
21
1.91231
0
LINE
8
BLACK
6
CONTINUOUS
10
1.51231
20
1.91231
11
1.50304
21
1.92268
0
LINE
8
BLACK
6
CONTINUOUS
10
1.50304
20
1.92268
11
1.49499
21
1.93402
0
LINE
8
BLACK
6
CONTINUOUS
10
1.49499
20
1.93402
11
1.48827
21
1.94619
0
LINE
8
BLACK
6
CONTINUOUS
10
1.48827
20
1.94619
11
1.48294
21
1.95904
0
LINE
8
BLACK
6
CONTINUOUS
10
1.48294
20
1.95904
11
1.47909
21
1.9724
0
LINE
8
BLACK
6
CONTINUOUS
10
1.47909
20
1.9724
11
1.47676
21
1.98611
0
LINE
8
BLACK
6
CONTINUOUS
10
1.47676
20
1.98611
11
1.47598
21
2
0
LINE
8
BLACK
6
CONTINUOUS
10
1.47598
20
2
11
1.47676
21
2.01389
0
LINE
8
BLACK
6
CONTINUOUS
10
1.47676
20
2.01389
11
1.47909
21
2.0276
0
LINE
8
BLACK
6
CONTINUOUS
10
1.47909
20
2.0276
11
1.48294
21
2.04096
0
LINE
8
BLACK
6
CONTINUOUS
10
1.48294
20
2.04096
11
1.48827
21
2.05381
0
LINE
8
BLACK
6
CONTINUOUS
10
1.48827
20
2.05381
11
1.49499
21
2.06598
0
LINE
8
BLACK
6
CONTINUOUS
10
1.49499
20
2.06598
11
1.50304
21
2.07732
0
LINE
8
BLACK
6
CONTINUOUS
10
1.50304
20
2.07732
11
1.51231
21
2.08769
0
LINE
8
BLACK
6
CONTINUOUS
10
1.51231
20
2.08769
11
1.52268
21
2.09696
0
LINE
8
BLACK
6
CONTINUOUS
10
1.52268
20
2.09696
11
1.53402
21
2.10501
0
LINE
8
BLACK
6
CONTINUOUS
10
1.53402
20
2.10501
11
1.54619
21
2.11173
0
LINE
8
BLACK
6
CONTINUOUS
10
1.54619
20
2.11173
11
1.55904
21
2.11706
0
LINE
8
BLACK
6
CONTINUOUS
10
1.55904
20
2.11706
11
1.5724
21
2.12091
0
LINE
8
BLACK
6
CONTINUOUS
10
1.5724
20
2.12091
11
1.58611
21
2.12324
0
LINE
8
BLACK
6
CONTINUOUS
10
1.58611
20
2.12324
11
1.6
21
2.12402
0
LINE
8
BLACK
6
CONTINUOUS
10
1.6
20
2.12402
11
1.61389
21
2.12324
0
LINE
8
BLACK
6
CONTINUOUS
10
0.807484
20
2.00082
11
0.814869
21
1.99858
0
LINE
8
BLACK
6
CONTINUOUS
10
0.814869
20
1.99858
11
0.821676
21
1.99494
0
LINE
8
BLACK
6
CONTINUOUS
10
0.821676
20
1.99494
11
0.827642
21
1.99004
0
LINE
8
BLACK
6
CONTINUOUS
10
0.827642
20
1.99004
11
0.832538
21
1.98408
0
LINE
8
BLACK
6
CONTINUOUS
10
0.832538
20
1.98408
11
0.836176
21
1.97727
0
LINE
8
BLACK
6
CONTINUOUS
10
0.836176
20
1.97727
11
0.838417
21
1.96989
0
LINE
8
BLACK
6
CONTINUOUS
10
0.838417
20
1.96989
11
0.839173
21
1.9622
0
LINE
8
BLACK
6
CONTINUOUS
10
0.839173
20
1.9622
11
0.838417
21
1.95452
0
LINE
8
BLACK
6
CONTINUOUS
10
0.838417
20
1.95452
11
0.836176
21
1.94714
0
LINE
8
BLACK
6
CONTINUOUS
10
0.836176
20
1.94714
11
0.832538
21
1.94033
0
LINE
8
BLACK
6
CONTINUOUS
10
0.832538
20
1.94033
11
0.827642
21
1.93437
0
LINE
8
BLACK
6
CONTINUOUS
10
0.827642
20
1.93437
11
0.821676
21
1.92947
0
LINE
8
BLACK
6
CONTINUOUS
10
0.821676
20
1.92947
11
0.814869
21
1.92583
0
LINE
8
BLACK
6
CONTINUOUS
10
0.814869
20
1.92583
11
0.807484
21
1.92359
0
LINE
8
BLACK
6
CONTINUOUS
10
0.807484
20
1.92359
11
0.799803
21
1.92283
0
LINE
8
BLACK
6
CONTINUOUS
10
0.799803
20
1.92283
11
0.792122
21
1.92359
0
LINE
8
BLACK
6
CONTINUOUS
10
0.792122
20
1.92359
11
0.784737
21
1.92583
0
LINE
8
BLACK
6
CONTINUOUS
10
0.784737
20
1.92583
11
0.77793
21
1.92947
0
LINE
8
BLACK
6
CONTINUOUS
10
0.77793
20
1.92947
11
0.771964
21
1.93437
0
LINE
8
BLACK
6
CONTINUOUS
10
0.771964
20
1.93437
11
0.767068
21
1.94033
0
LINE
8
BLACK
6
CONTINUOUS
10
0.767068
20
1.94033
11
0.76343
21
1.94714
0
LINE
8
BLACK
6
CONTINUOUS
10
0.76343
20
1.94714
11
0.76119
21
1.95452
0
LINE
8
BLACK
6
CONTINUOUS
10
0.76119
20
1.95452
11
0.760433
21
1.9622
0
LINE
8
BLACK
6
CONTINUOUS
10
0.760433
20
1.9622
11
0.76119
21
1.96989
0
LINE
8
BLACK
6
CONTINUOUS
10
0.76119
20
1.96989
11
0.76343
21
1.97727
0
LINE
8
BLACK
6
CONTINUOUS
10
0.76343
20
1.97727
11
0.767068
21
1.98408
0
LINE
8
BLACK
6
CONTINUOUS
10
0.767068
20
1.98408
11
0.771964
21
1.99004
0
LINE
8
BLACK
6
CONTINUOUS
10
0.771964
20
1.99004
11
0.77793
21
1.99494
0
LINE
8
BLACK
6
CONTINUOUS
10
0.77793
20
1.99494
11
0.784737
21
1.99858
0
LINE
8
BLACK
6
CONTINUOUS
10
0.784737
20
1.99858
11
0.792122
21
2.00082
0
LINE
8
BLACK
6
CONTINUOUS
10
0.792122
20
2.00082
11
0.799803
21
2.00157
0
LINE
8
BLACK
6
CONTINUOUS
10
0.799803
20
2.00157
11
0.807484
21
2.00082
0
LINE
8
BLACK
6
CONTINUOUS
10
0.907484
20
2.00082
11
0.914869
21
1.99858
0
LINE
8
BLACK
6
CONTINUOUS
10
0.914869
20
1.99858
11
0.921676
21
1.99494
0
LINE
8
BLACK
6
CONTINUOUS
10
0.921676
20
1.99494
11
0.927642
21
1.99004
0
LINE
8
BLACK
6
CONTINUOUS
10
0.927642
20
1.99004
11
0.932538
21
1.98408
0
LINE
8
BLACK
6
CONTINUOUS
10
0.932538
20
1.98408
11
0.936176
21
1.97727
0
LINE
8
BLACK
6
CONTINUOUS
10
0.936176
20
1.97727
11
0.938417
21
1.96989
0
LINE
8
BLACK
6
CONTINUOUS
10
0.938417
20
1.96989
11
0.939173
21
1.9622
0
LINE
8
BLACK
6
CONTINUOUS
10
0.939173
20
1.9622
11
0.938417
21
1.95452
0
LINE
8
BLACK
6
CONTINUOUS
10
0.938417
20
1.95452
11
0.936176
21
1.94714
0
LINE
8
BLACK
6
CONTINUOUS
10
0.936176
20
1.94714
11
0.932538
21
1.94033
0
LINE
8
BLACK
6
CONTINUOUS
10
0.932538
20
1.94033
11
0.927642
21
1.93437
0
LINE
8
BLACK
6
CONTINUOUS
10
0.927642
20
1.93437
11
0.921676
21
1.92947
0
LINE
8
BLACK
6
CONTINUOUS
10
0.921676
20
1.92947
11
0.914869
21
1.92583
0
LINE
8
BLACK
6
CONTINUOUS
10
0.914869
20
1.92583
11
0.907484
21
1.92359
0
LINE
8
BLACK
6
CONTINUOUS
10
0.907484
20
1.92359
11
0.899803
21
1.92283
0
LINE
8
BLACK
6
CONTINUOUS
10
0.899803
20
1.92283
11
0.892122
21
1.92359
0
LINE
8
BLACK
6
CONTINUOUS
10
0.892122
20
1.92359
11
0.884737
21
1.92583
0
LINE
8
BLACK
6
CONTINUOUS
10
0.884737
20
1.92583
11
0.87793
21
1.92947
0
LINE
8
BLACK
6
CONTINUOUS
10
0.87793
20
1.92947
11
0.871964
21
1.93437
0
LINE
8
BLACK
6
CONTINUOUS
10
0.871964
20
1.93437
11
0.867068
21
1.94033
0
LINE
8
BLACK
6
CONTINUOUS
10
0.867068
20
1.94033
11
0.86343
21
1.94714
0
LINE
8
BLACK
6
CONTINUOUS
10
0.86343
20
1.94714
11
0.86119
21
1.95452
0
LINE
8
BLACK
6
CONTINUOUS
10
0.86119
20
1.95452
11
0.860433
21
1.9622
0
LINE
8
BLACK
6
CONTINUOUS
10
0.860433
20
1.9622
11
0.86119
21
1.96989
0
LINE
8
BLACK
6
CONTINUOUS
10
0.86119
20
1.96989
11
0.86343
21
1.97727
0
LINE
8
BLACK
6
CONTINUOUS
10
0.86343
20
1.97727
11
0.867068
21
1.98408
0
LINE
8
BLACK
6
CONTINUOUS
10
0.867068
20
1.98408
11
0.871964
21
1.99004
0
LINE
8
BLACK
6
CONTINUOUS
10
0.871964
20
1.99004
11
0.87793
21
1.99494
0
LINE
8
BLACK
6
CONTINUOUS
10
0.87793
20
1.99494
11
0.884737
21
1.99858
0
LINE
8
BLACK
6
CONTINUOUS
10
0.884737
20
1.99858
11
0.892122
21
2.00082
0
LINE
8
BLACK
6
CONTINUOUS
10
0.892122
20
2.00082
11
0.899803
21
2.00157
0
LINE
8
BLACK
6
CONTINUOUS
10
0.899803
20
2.00157
11
0.907484
21
2.00082
0
LINE
8
BLACK
6
CONTINUOUS
10
1.00748
20
2.00082
11
1.01487
21
1.99858
0
LINE
8
BLACK
6
CONTINUOUS
10
1.01487
20
1.99858
11
1.02168
21
1.99494
0
LINE
8
BLACK
6
CONTINUOUS
10
1.02168
20
1.99494
11
1.02764
21
1.99004
0
LINE
8
BLACK
6
CONTINUOUS
10
1.02764
20
1.99004
11
1.03254
21
1.98408
0
LINE
8
BLACK
6
CONTINUOUS
10
1.03254
20
1.98408
11
1.03618
21
1.97727
0
LINE
8
BLACK
6
CONTINUOUS
10
1.03618
20
1.97727
11
1.03842
21
1.96989
0
LINE
8
BLACK
6
CONTINUOUS
10
1.03842
20
1.96989
11
1.03917
21
1.9622
0
LINE
8
BLACK
6
CONTINUOUS
10
1.03917
20
1.9622
11
1.03842
21
1.95452
0
LINE
8
BLACK
6
CONTINUOUS
10
1.03842
20
1.95452
11
1.03618
21
1.94714
0
LINE
8
BLACK
6
CONTINUOUS
10
1.03618
20
1.94714
11
1.03254
21
1.94033
0
LINE
8
BLACK
6
CONTINUOUS
10
1.03254
20
1.94033
11
1.02764
21
1.93437
0
LINE
8
BLACK
6
CONTINUOUS
10
1.02764
20
1.93437
11
1.02168
21
1.92947
0
LINE
8
BLACK
6
CONTINUOUS
10
1.02168
20
1.92947
11
1.01487
21
1.92583
0
LINE
8
BLACK
6
CONTINUOUS
10
1.01487
20
1.92583
11
1.00748
21
1.92359
0
LINE
8
BLACK
6
CONTINUOUS
10
1.00748
20
1.92359
11
0.999803
21
1.92283
0
LINE
8
BLACK
6
CONTINUOUS
10
0.999803
20
1.92283
11
0.992122
21
1.92359
0
LINE
8
BLACK
6
CONTINUOUS
10
0.992122
20
1.92359
11
0.984737
21
1.92583
0
LINE
8
BLACK
6
CONTINUOUS
10
0.984737
20
1.92583
11
0.97793
21
1.92947
0
LINE
8
BLACK
6
CONTINUOUS
10
0.97793
20
1.92947
11
0.971964
21
1.93437
0
LINE
8
BLACK
6
CONTINUOUS
10
0.971964
20
1.93437
11
0.967068
21
1.94033
0
LINE
8
BLACK
6
CONTINUOUS
10
0.967068
20
1.94033
11
0.96343
21
1.94714
0
LINE
8
BLACK
6
CONTINUOUS
10
0.96343
20
1.94714
11
0.96119
21
1.95452
0
LINE
8
BLACK
6
CONTINUOUS
10
0.96119
20
1.95452
11
0.960433
21
1.9622
0
LINE
8
BLACK
6
CONTINUOUS
10
0.960433
20
1.9622
11
0.96119
21
1.96989
0
LINE
8
BLACK
6
CONTINUOUS
10
0.96119
20
1.96989
11
0.96343
21
1.97727
0
LINE
8
BLACK
6
CONTINUOUS
10
0.96343
20
1.97727
11
0.967068
21
1.98408
0
LINE
8
BLACK
6
CONTINUOUS
10
0.967068
20
1.98408
11
0.971964
21
1.99004
0
LINE
8
BLACK
6
CONTINUOUS
10
0.971964
20
1.99004
11
0.97793
21
1.99494
0
LINE
8
BLACK
6
CONTINUOUS
10
0.97793
20
1.99494
11
0.984737
21
1.99858
0
LINE
8
BLACK
6
CONTINUOUS
10
0.984737
20
1.99858
11
0.992122
21
2.00082
0
LINE
8
BLACK
6
CONTINUOUS
10
0.992122
20
2.00082
11
0.999803
21
2.00157
0
LINE
8
BLACK
6
CONTINUOUS
10
0.999803
20
2.00157
11
1.00748
21
2.00082
0
LINE
8
BLACK
6
CONTINUOUS
10
1.10748
20
2.00082
11
1.11487
21
1.99858
0
LINE
8
BLACK
6
CONTINUOUS
10
1.11487
20
1.99858
11
1.12168
21
1.99494
0
LINE
8
BLACK
6
CONTINUOUS
10
1.12168
20
1.99494
11
1.12764
21
1.99004
0
LINE
8
BLACK
6
CONTINUOUS
10
1.12764
20
1.99004
11
1.13254
21
1.98408
0
LINE
8
BLACK
6
CONTINUOUS
10
1.13254
20
1.98408
11
1.13618
21
1.97727
0
LINE
8
BLACK
6
CONTINUOUS
10
1.13618
20
1.97727
11
1.13842
21
1.96989
0
LINE
8
BLACK
6
CONTINUOUS
10
1.13842
20
1.96989
11
1.13917
21
1.9622
0
LINE
8
BLACK
6
CONTINUOUS
10
1.13917
20
1.9622
11
1.13842
21
1.95452
0
LINE
8
BLACK
6
CONTINUOUS
10
1.13842
20
1.95452
11
1.13618
21
1.94714
0
LINE
8
BLACK
6
CONTINUOUS
10
1.13618
20
1.94714
11
1.13254
21
1.94033
0
LINE
8
BLACK
6
CONTINUOUS
10
1.13254
20
1.94033
11
1.12764
21
1.93437
0
LINE
8
BLACK
6
CONTINUOUS
10
1.12764
20
1.93437
11
1.12168
21
1.92947
0
LINE
8
BLACK
6
CONTINUOUS
10
1.12168
20
1.92947
11
1.11487
21
1.92583
0
LINE
8
BLACK
6
CONTINUOUS
10
1.11487
20
1.92583
11
1.10748
21
1.92359
0
LINE
8
BLACK
6
CONTINUOUS
10
1.10748
20
1.92359
11
1.0998
21
1.92283
0
LINE
8
BLACK
6
CONTINUOUS
10
1.0998
20
1.92283
11
1.09212
21
1.92359
0
LINE
8
BLACK
6
CONTINUOUS
10
1.09212
20
1.92359
11
1.08474
21
1.92583
0
LINE
8
BLACK
6
CONTINUOUS
10
1.08474
20
1.92583
11
1.07793
21
1.92947
0
LINE
8
BLACK
6
CONTINUOUS
10
1.07793
20
1.92947
11
1.07196
21
1.93437
0
LINE
8
BLACK
6
CONTINUOUS
10
1.07196
20
1.93437
11
1.06707
21
1.94033
0
LINE
8
BLACK
6
CONTINUOUS
10
1.06707
20
1.94033
11
1.06343
21
1.94714
0
LINE
8
BLACK
6
CONTINUOUS
10
1.06343
20
1.94714
11
1.06119
21
1.95452
0
LINE
8
BLACK
6
CONTINUOUS
10
1.06119
20
1.95452
11
1.06043
21
1.9622
0
LINE
8
BLACK
6
CONTINUOUS
10
1.06043
20
1.9622
11
1.06119
21
1.96989
0
LINE
8
BLACK
6
CONTINUOUS
10
1.06119
20
1.96989
11
1.06343
21
1.97727
0
LINE
8
BLACK
6
CONTINUOUS
10
1.06343
20
1.97727
11
1.06707
21
1.98408
0
LINE
8
BLACK
6
CONTINUOUS
10
1.06707
20
1.98408
11
1.07196
21
1.99004
0
LINE
8
BLACK
6
CONTINUOUS
10
1.07196
20
1.99004
11
1.07793
21
1.99494
0
LINE
8
BLACK
6
CONTINUOUS
10
1.07793
20
1.99494
11
1.08474
21
1.99858
0
LINE
8
BLACK
6
CONTINUOUS
10
1.08474
20
1.99858
11
1.09212
21
2.00082
0
LINE
8
BLACK
6
CONTINUOUS
10
1.09212
20
2.00082
11
1.0998
21
2.00157
0
LINE
8
BLACK
6
CONTINUOUS
10
1.0998
20
2.00157
11
1.10748
21
2.00082
0
LINE
8
BLACK
6
CONTINUOUS
10
1.20748
20
2.00082
11
1.21487
21
1.99858
0
LINE
8
BLACK
6
CONTINUOUS
10
1.21487
20
1.99858
11
1.22168
21
1.99494
0
LINE
8
BLACK
6
CONTINUOUS
10
1.22168
20
1.99494
11
1.22764
21
1.99004
0
LINE
8
BLACK
6
CONTINUOUS
10
1.22764
20
1.99004
11
1.23254
21
1.98408
0
LINE
8
BLACK
6
CONTINUOUS
10
1.23254
20
1.98408
11
1.23618
21
1.97727
0
LINE
8
BLACK
6
CONTINUOUS
10
1.23618
20
1.97727
11
1.23842
21
1.96989
0
LINE
8
BLACK
6
CONTINUOUS
10
1.23842
20
1.96989
11
1.23917
21
1.9622
0
LINE
8
BLACK
6
CONTINUOUS
10
1.23917
20
1.9622
11
1.23842
21
1.95452
0
LINE
8
BLACK
6
CONTINUOUS
10
1.23842
20
1.95452
11
1.23618
21
1.94714
0
LINE
8
BLACK
6
CONTINUOUS
10
1.23618
20
1.94714
11
1.23254
21
1.94033
0
LINE
8
BLACK
6
CONTINUOUS
10
1.23254
20
1.94033
11
1.22764
21
1.93437
0
LINE
8
BLACK
6
CONTINUOUS
10
1.22764
20
1.93437
11
1.22168
21
1.92947
0
LINE
8
BLACK
6
CONTINUOUS
10
1.22168
20
1.92947
11
1.21487
21
1.92583
0
LINE
8
BLACK
6
CONTINUOUS
10
1.21487
20
1.92583
11
1.20748
21
1.92359
0
LINE
8
BLACK
6
CONTINUOUS
10
1.20748
20
1.92359
11
1.1998
21
1.92283
0
LINE
8
BLACK
6
CONTINUOUS
10
1.1998
20
1.92283
11
1.19212
21
1.92359
0
LINE
8
BLACK
6
CONTINUOUS
10
1.19212
20
1.92359
11
1.18474
21
1.92583
0
LINE
8
BLACK
6
CONTINUOUS
10
1.18474
20
1.92583
11
1.17793
21
1.92947
0
LINE
8
BLACK
6
CONTINUOUS
10
1.17793
20
1.92947
11
1.17196
21
1.93437
0
LINE
8
BLACK
6
CONTINUOUS
10
1.17196
20
1.93437
11
1.16707
21
1.94033
0
LINE
8
BLACK
6
CONTINUOUS
10
1.16707
20
1.94033
11
1.16343
21
1.94714
0
LINE
8
BLACK
6
CONTINUOUS
10
1.16343
20
1.94714
11
1.16119
21
1.95452
0
LINE
8
BLACK
6
CONTINUOUS
10
1.16119
20
1.95452
11
1.16043
21
1.9622
0
LINE
8
BLACK
6
CONTINUOUS
10
1.16043
20
1.9622
11
1.16119
21
1.96989
0
LINE
8
BLACK
6
CONTINUOUS
10
1.16119
20
1.96989
11
1.16343
21
1.97727
0
LINE
8
BLACK
6
CONTINUOUS
10
1.16343
20
1.97727
11
1.16707
21
1.98408
0
LINE
8
BLACK
6
CONTINUOUS
10
1.16707
20
1.98408
11
1.17196
21
1.99004
0
LINE
8
BLACK
6
CONTINUOUS
10
1.17196
20
1.99004
11
1.17793
21
1.99494
0
LINE
8
BLACK
6
CONTINUOUS
10
1.17793
20
1.99494
11
1.18474
21
1.99858
0
LINE
8
BLACK
6
CONTINUOUS
10
1.18474
20
1.99858
11
1.19212
21
2.00082
0
LINE
8
BLACK
6
CONTINUOUS
10
1.19212
20
2.00082
11
1.1998
21
2.00157
0
LINE
8
BLACK
6
CONTINUOUS
10
1.1998
20
2.00157
11
1.20748
21
2.00082
0
LINE
8
BLACK
6
CONTINUOUS
10
0.807484
20
2.10082
11
0.814869
21
2.09858
0
LINE
8
BLACK
6
CONTINUOUS
10
0.814869
20
2.09858
11
0.821676
21
2.09494
0
LINE
8
BLACK
6
CONTINUOUS
10
0.821676
20
2.09494
11
0.827642
21
2.09004
0
LINE
8
BLACK
6
CONTINUOUS
10
0.827642
20
2.09004
11
0.832538
21
2.08408
0
LINE
8
BLACK
6
CONTINUOUS
10
0.832538
20
2.08408
11
0.836176
21
2.07727
0
LINE
8
BLACK
6
CONTINUOUS
10
0.836176
20
2.07727
11
0.838417
21
2.06989
0
LINE
8
BLACK
6
CONTINUOUS
10
0.838417
20
2.06989
11
0.839173
21
2.0622
0
LINE
8
BLACK
6
CONTINUOUS
10
0.839173
20
2.0622
11
0.838417
21
2.05452
0
LINE
8
BLACK
6
CONTINUOUS
10
0.838417
20
2.05452
11
0.836176
21
2.04714
0
LINE
8
BLACK
6
CONTINUOUS
10
0.836176
20
2.04714
11
0.832538
21
2.04033
0
LINE
8
BLACK
6
CONTINUOUS
10
0.832538
20
2.04033
11
0.827642
21
2.03437
0
LINE
8
BLACK
6
CONTINUOUS
10
0.827642
20
2.03437
11
0.821676
21
2.02947
0
LINE
8
BLACK
6
CONTINUOUS
10
0.821676
20
2.02947
11
0.814869
21
2.02583
0
LINE
8
BLACK
6
CONTINUOUS
10
0.814869
20
2.02583
11
0.807484
21
2.02359
0
LINE
8
BLACK
6
CONTINUOUS
10
0.807484
20
2.02359
11
0.799803
21
2.02283
0
LINE
8
BLACK
6
CONTINUOUS
10
0.799803
20
2.02283
11
0.792122
21
2.02359
0
LINE
8
BLACK
6
CONTINUOUS
10
0.792122
20
2.02359
11
0.784737
21
2.02583
0
LINE
8
BLACK
6
CONTINUOUS
10
0.784737
20
2.02583
11
0.77793
21
2.02947
0
LINE
8
BLACK
6
CONTINUOUS
10
0.77793
20
2.02947
11
0.771964
21
2.03437
0
LINE
8
BLACK
6
CONTINUOUS
10
0.771964
20
2.03437
11
0.767068
21
2.04033
0
LINE
8
BLACK
6
CONTINUOUS
10
0.767068
20
2.04033
11
0.76343
21
2.04714
0
LINE
8
BLACK
6
CONTINUOUS
10
0.76343
20
2.04714
11
0.76119
21
2.05452
0
LINE
8
BLACK
6
CONTINUOUS
10
0.76119
20
2.05452
11
0.760433
21
2.0622
0
LINE
8
BLACK
6
CONTINUOUS
10
0.760433
20
2.0622
11
0.76119
21
2.06989
0
LINE
8
BLACK
6
CONTINUOUS
10
0.76119
20
2.06989
11
0.76343
21
2.07727
0
LINE
8
BLACK
6
CONTINUOUS
10
0.76343
20
2.07727
11
0.767068
21
2.08408
0
LINE
8
BLACK
6
CONTINUOUS
10
0.767068
20
2.08408
11
0.771964
21
2.09004
0
LINE
8
BLACK
6
CONTINUOUS
10
0.771964
20
2.09004
11
0.77793
21
2.09494
0
LINE
8
BLACK
6
CONTINUOUS
10
0.77793
20
2.09494
11
0.784737
21
2.09858
0
LINE
8
BLACK
6
CONTINUOUS
10
0.784737
20
2.09858
11
0.792122
21
2.10082
0
LINE
8
BLACK
6
CONTINUOUS
10
0.792122
20
2.10082
11
0.799803
21
2.10157
0
LINE
8
BLACK
6
CONTINUOUS
10
0.799803
20
2.10157
11
0.807484
21
2.10082
0
LINE
8
BLACK
6
CONTINUOUS
10
0.907484
20
2.10082
11
0.914869
21
2.09858
0
LINE
8
BLACK
6
CONTINUOUS
10
0.914869
20
2.09858
11
0.921676
21
2.09494
0
LINE
8
BLACK
6
CONTINUOUS
10
0.921676
20
2.09494
11
0.927642
21
2.09004
0
LINE
8
BLACK
6
CONTINUOUS
10
0.927642
20
2.09004
11
0.932538
21
2.08408
0
LINE
8
BLACK
6
CONTINUOUS
10
0.932538
20
2.08408
11
0.936176
21
2.07727
0
LINE
8
BLACK
6
CONTINUOUS
10
0.936176
20
2.07727
11
0.938417
21
2.06989
0
LINE
8
BLACK
6
CONTINUOUS
10
0.938417
20
2.06989
11
0.939173
21
2.0622
0
LINE
8
BLACK
6
CONTINUOUS
10
0.939173
20
2.0622
11
0.938417
21
2.05452
0
LINE
8
BLACK
6
CONTINUOUS
10
0.938417
20
2.05452
11
0.936176
21
2.04714
0
LINE
8
BLACK
6
CONTINUOUS
10
0.936176
20
2.04714
11
0.932538
21
2.04033
0
LINE
8
BLACK
6
CONTINUOUS
10
0.932538
20
2.04033
11
0.927642
21
2.03437
0
LINE
8
BLACK
6
CONTINUOUS
10
0.927642
20
2.03437
11
0.921676
21
2.02947
0
LINE
8
BLACK
6
CONTINUOUS
10
0.921676
20
2.02947
11
0.914869
21
2.02583
0
LINE
8
BLACK
6
CONTINUOUS
10
0.914869
20
2.02583
11
0.907484
21
2.02359
0
LINE
8
BLACK
6
CONTINUOUS
10
0.907484
20
2.02359
11
0.899803
21
2.02283
0
LINE
8
BLACK
6
CONTINUOUS
10
0.899803
20
2.02283
11
0.892122
21
2.02359
0
LINE
8
BLACK
6
CONTINUOUS
10
0.892122
20
2.02359
11
0.884737
21
2.02583
0
LINE
8
BLACK
6
CONTINUOUS
10
0.884737
20
2.02583
11
0.87793
21
2.02947
0
LINE
8
BLACK
6
CONTINUOUS
10
0.87793
20
2.02947
11
0.871964
21
2.03437
0
LINE
8
BLACK
6
CONTINUOUS
10
0.871964
20
2.03437
11
0.867068
21
2.04033
0
LINE
8
BLACK
6
CONTINUOUS
10
0.867068
20
2.04033
11
0.86343
21
2.04714
0
LINE
8
BLACK
6
CONTINUOUS
10
0.86343
20
2.04714
11
0.86119
21
2.05452
0
LINE
8
BLACK
6
CONTINUOUS
10
0.86119
20
2.05452
11
0.860433
21
2.0622
0
LINE
8
BLACK
6
CONTINUOUS
10
0.860433
20
2.0622
11
0.86119
21
2.06989
0
LINE
8
BLACK
6
CONTINUOUS
10
0.86119
20
2.06989
11
0.86343
21
2.07727
0
LINE
8
BLACK
6
CONTINUOUS
10
0.86343
20
2.07727
11
0.867068
21
2.08408
0
LINE
8
BLACK
6
CONTINUOUS
10
0.867068
20
2.08408
11
0.871964
21
2.09004
0
LINE
8
BLACK
6
CONTINUOUS
10
0.871964
20
2.09004
11
0.87793
21
2.09494
0
LINE
8
BLACK
6
CONTINUOUS
10
0.87793
20
2.09494
11
0.884737
21
2.09858
0
LINE
8
BLACK
6
CONTINUOUS
10
0.884737
20
2.09858
11
0.892122
21
2.10082
0
LINE
8
BLACK
6
CONTINUOUS
10
0.892122
20
2.10082
11
0.899803
21
2.10157
0
LINE
8
BLACK
6
CONTINUOUS
10
0.899803
20
2.10157
11
0.907484
21
2.10082
0
LINE
8
BLACK
6
CONTINUOUS
10
1.00748
20
2.10082
11
1.01487
21
2.09858
0
LINE
8
BLACK
6
CONTINUOUS
10
1.01487
20
2.09858
11
1.02168
21
2.09494
0
LINE
8
BLACK
6
CONTINUOUS
10
1.02168
20
2.09494
11
1.02764
21
2.09004
0
LINE
8
BLACK
6
CONTINUOUS
10
1.02764
20
2.09004
11
1.03254
21
2.08408
0
LINE
8
BLACK
6
CONTINUOUS
10
1.03254
20
2.08408
11
1.03618
21
2.07727
0
LINE
8
BLACK
6
CONTINUOUS
10
1.03618
20
2.07727
11
1.03842
21
2.06989
0
LINE
8
BLACK
6
CONTINUOUS
10
1.03842
20
2.06989
11
1.03917
21
2.0622
0
LINE
8
BLACK
6
CONTINUOUS
10
1.03917
20
2.0622
11
1.03842
21
2.05452
0
LINE
8
BLACK
6
CONTINUOUS
10
1.03842
20
2.05452
11
1.03618
21
2.04714
0
LINE
8
BLACK
6
CONTINUOUS
10
1.03618
20
2.04714
11
1.03254
21
2.04033
0
LINE
8
BLACK
6
CONTINUOUS
10
1.03254
20
2.04033
11
1.02764
21
2.03437
0
LINE
8
BLACK
6
CONTINUOUS
10
1.02764
20
2.03437
11
1.02168
21
2.02947
0
LINE
8
BLACK
6
CONTINUOUS
10
1.02168
20
2.02947
11
1.01487
21
2.02583
0
LINE
8
BLACK
6
CONTINUOUS
10
1.01487
20
2.02583
11
1.00748
21
2.02359
0
LINE
8
BLACK
6
CONTINUOUS
10
1.00748
20
2.02359
11
0.999803
21
2.02283
0
LINE
8
BLACK
6
CONTINUOUS
10
0.999803
20
2.02283
11
0.992122
21
2.02359
0
LINE
8
BLACK
6
CONTINUOUS
10
0.992122
20
2.02359
11
0.984737
21
2.02583
0
LINE
8
BLACK
6
CONTINUOUS
10
0.984737
20
2.02583
11
0.97793
21
2.02947
0
LINE
8
BLACK
6
CONTINUOUS
10
0.97793
20
2.02947
11
0.971964
21
2.03437
0
LINE
8
BLACK
6
CONTINUOUS
10
0.971964
20
2.03437
11
0.967068
21
2.04033
0
LINE
8
BLACK
6
CONTINUOUS
10
0.967068
20
2.04033
11
0.96343
21
2.04714
0
LINE
8
BLACK
6
CONTINUOUS
10
0.96343
20
2.04714
11
0.96119
21
2.05452
0
LINE
8
BLACK
6
CONTINUOUS
10
0.96119
20
2.05452
11
0.960433
21
2.0622
0
LINE
8
BLACK
6
CONTINUOUS
10
0.960433
20
2.0622
11
0.96119
21
2.06989
0
LINE
8
BLACK
6
CONTINUOUS
10
0.96119
20
2.06989
11
0.96343
21
2.07727
0
LINE
8
BLACK
6
CONTINUOUS
10
0.96343
20
2.07727
11
0.967068
21
2.08408
0
LINE
8
BLACK
6
CONTINUOUS
10
0.967068
20
2.08408
11
0.971964
21
2.09004
0
LINE
8
BLACK
6
CONTINUOUS
10
0.971964
20
2.09004
11
0.97793
21
2.09494
0
LINE
8
BLACK
6
CONTINUOUS
10
0.97793
20
2.09494
11
0.984737
21
2.09858
0
LINE
8
BLACK
6
CONTINUOUS
10
0.984737
20
2.09858
11
0.992122
21
2.10082
0
LINE
8
BLACK
6
CONTINUOUS
10
0.992122
20
2.10082
11
0.999803
21
2.10157
0
LINE
8
BLACK
6
CONTINUOUS
10
0.999803
20
2.10157
11
1.00748
21
2.10082
0
LINE
8
BLACK
6
CONTINUOUS
10
1.10748
20
2.10082
11
1.11487
21
2.09858
0
LINE
8
BLACK
6
CONTINUOUS
10
1.11487
20
2.09858
11
1.12168
21
2.09494
0
LINE
8
BLACK
6
CONTINUOUS
10
1.12168
20
2.09494
11
1.12764
21
2.09004
0
LINE
8
BLACK
6
CONTINUOUS
10
1.12764
20
2.09004
11
1.13254
21
2.08408
0
LINE
8
BLACK
6
CONTINUOUS
10
1.13254
20
2.08408
11
1.13618
21
2.07727
0
LINE
8
BLACK
6
CONTINUOUS
10
1.13618
20
2.07727
11
1.13842
21
2.06989
0
LINE
8
BLACK
6
CONTINUOUS
10
1.13842
20
2.06989
11
1.13917
21
2.0622
0
LINE
8
BLACK
6
CONTINUOUS
10
1.13917
20
2.0622
11
1.13842
21
2.05452
0
LINE
8
BLACK
6
CONTINUOUS
10
1.13842
20
2.05452
11
1.13618
21
2.04714
0
LINE
8
BLACK
6
CONTINUOUS
10
1.13618
20
2.04714
11
1.13254
21
2.04033
0
LINE
8
BLACK
6
CONTINUOUS
10
1.13254
20
2.04033
11
1.12764
21
2.03437
0
LINE
8
BLACK
6
CONTINUOUS
10
1.12764
20
2.03437
11
1.12168
21
2.02947
0
LINE
8
BLACK
6
CONTINUOUS
10
1.12168
20
2.02947
11
1.11487
21
2.02583
0
LINE
8
BLACK
6
CONTINUOUS
10
1.11487
20
2.02583
11
1.10748
21
2.02359
0
LINE
8
BLACK
6
CONTINUOUS
10
1.10748
20
2.02359
11
1.0998
21
2.02283
0
LINE
8
BLACK
6
CONTINUOUS
10
1.0998
20
2.02283
11
1.09212
21
2.02359
0
LINE
8
BLACK
6
CONTINUOUS
10
1.09212
20
2.02359
11
1.08474
21
2.02583
0
LINE
8
BLACK
6
CONTINUOUS
10
1.08474
20
2.02583
11
1.07793
21
2.02947
0
LINE
8
BLACK
6
CONTINUOUS
10
1.07793
20
2.02947
11
1.07196
21
2.03437
0
LINE
8
BLACK
6
CONTINUOUS
10
1.07196
20
2.03437
11
1.06707
21
2.04033
0
LINE
8
BLACK
6
CONTINUOUS
10
1.06707
20
2.04033
11
1.06343
21
2.04714
0
LINE
8
BLACK
6
CONTINUOUS
10
1.06343
20
2.04714
11
1.06119
21
2.05452
0
LINE
8
BLACK
6
CONTINUOUS
10
1.06119
20
2.05452
11
1.06043
21
2.0622
0
LINE
8
BLACK
6
CONTINUOUS
10
1.06043
20
2.0622
11
1.06119
21
2.06989
0
LINE
8
BLACK
6
CONTINUOUS
10
1.06119
20
2.06989
11
1.06343
21
2.07727
0
LINE
8
BLACK
6
CONTINUOUS
10
1.06343
20
2.07727
11
1.06707
21
2.08408
0
LINE
8
BLACK
6
CONTINUOUS
10
1.06707
20
2.08408
11
1.07196
21
2.09004
0
LINE
8
BLACK
6
CONTINUOUS
10
1.07196
20
2.09004
11
1.07793
21
2.09494
0
LINE
8
BLACK
6
CONTINUOUS
10
1.07793
20
2.09494
11
1.08474
21
2.09858
0
LINE
8
BLACK
6
CONTINUOUS
10
1.08474
20
2.09858
11
1.09212
21
2.10082
0
LINE
8
BLACK
6
CONTINUOUS
10
1.09212
20
2.10082
11
1.0998
21
2.10157
0
LINE
8
BLACK
6
CONTINUOUS
10
1.0998
20
2.10157
11
1.10748
21
2.10082
0
LINE
8
BLACK
6
CONTINUOUS
10
1.23553
20
2.10113
11
1.23744
21
2.09985
0
LINE
8
BLACK
6
CONTINUOUS
10
1.23744
20
2.09985
11
1.23872
21
2.09793
0
LINE
8
BLACK
6
CONTINUOUS
10
1.23872
20
2.09793
11
1.23917
21
2.09567
0
LINE
8
BLACK
6
CONTINUOUS
10
1.23917
20
2.09567
11
1.23917
21
2.02874
0
LINE
8
BLACK
6
CONTINUOUS
10
1.23917
20
2.02874
11
1.23872
21
2.02648
0
LINE
8
BLACK
6
CONTINUOUS
10
1.23872
20
2.02648
11
1.23744
21
2.02456
0
LINE
8
BLACK
6
CONTINUOUS
10
1.23744
20
2.02456
11
1.23553
21
2.02328
0
LINE
8
BLACK
6
CONTINUOUS
10
1.23553
20
2.02328
11
1.23327
21
2.02283
0
LINE
8
BLACK
6
CONTINUOUS
10
1.23327
20
2.02283
11
1.16634
21
2.02283
0
LINE
8
BLACK
6
CONTINUOUS
10
1.16634
20
2.02283
11
1.16408
21
2.02328
0
LINE
8
BLACK
6
CONTINUOUS
10
1.16408
20
2.02328
11
1.16216
21
2.02456
0
LINE
8
BLACK
6
CONTINUOUS
10
1.16216
20
2.02456
11
1.16088
21
2.02648
0
LINE
8
BLACK
6
CONTINUOUS
10
1.16088
20
2.02648
11
1.16043
21
2.02874
0
LINE
8
BLACK
6
CONTINUOUS
10
1.16043
20
2.02874
11
1.16043
21
2.09567
0
LINE
8
BLACK
6
CONTINUOUS
10
1.16043
20
2.09567
11
1.16088
21
2.09793
0
LINE
8
BLACK
6
CONTINUOUS
10
1.16088
20
2.09793
11
1.16216
21
2.09985
0
LINE
8
BLACK
6
CONTINUOUS
10
1.16216
20
2.09985
11
1.16408
21
2.10113
0
LINE
8
BLACK
6
CONTINUOUS
10
1.16408
20
2.10113
11
1.16634
21
2.10157
0
LINE
8
BLACK
6
CONTINUOUS
10
1.16634
20
2.10157
11
1.23327
21
2.10157
0
LINE
8
BLACK
6
CONTINUOUS
10
1.23327
20
2.10157
11
1.23553
21
2.10113
  0
ENDSEC
  0
EOF
