  0
SECTION
  2
HEADER
  9
$ANGBASE
  50
0.0
  9
$ANGDIR
  70
1
  9
$MEASUREMENT
  70
0
  0
ENDSEC
  0
SECTION
  2
TABLES
  0
TABLE
  2
LTYPE
  70
4
  0
LTYPE
  5
40F
  2
CONTINUOUS
  70
0
  3
Solid line
  72
65
  73
0
  40
0.0
  0
LTYPE
  5
410
  2
DASHDOT
 70
0
  3
Dash Dot ____ _ ____ _
 72
65
 73
4
 40
2.0
 49
1.25
 49
-0.25
 49
0.25
 49
-0.25
  0
LTYPE
  5
411
  2
DASHED
 70
0
  3
Dashed __ __ __ __ __
 72
65
 73
2
 40
0.75
 49
0.5
 49
-0.25
  0
LTYPE
  5
43B
  2
DOTTED
 70
0
  3
Dotted .  .  .  .
 72
65
 73
2
 40
0.2
 49
0.0
 49
-0.2
  0
ENDTAB
  0
TABLE
  2
STYLE
  70
4
  0
STYLE
  2
KICAD
  70
0
  40
0
  41
1
  42
1
  50
0
  71
0
  3
isocp.shx
  0
STYLE
  2
KICADB
  70
0
  40
0
  41
1
  42
1
  50
0
  71
0
  3
isocp.shx
  0
STYLE
  2
KICADI
  70
0
  40
0
  41
1
  42
1
  50
15
  71
0
  3
isocp.shx
  0
STYLE
  2
KICADBI
  70
0
  40
0
  41
1
  42
1
  50
15
  71
0
  3
isocp.shx
  0
ENDTAB
  0
TABLE
  2
LAYER
  70
1
  0
LAYER
  2
BLACK
  70
0
  62
7
  6
CONTINUOUS
  0
ENDTAB
  0
ENDSEC
  0
SECTION
  2
ENTITIES
0
LINE
8
BLACK
6
CONTINUOUS
10
0.440945
20
0.819094
11
0.444899
21
0.818468
0
LINE
8
BLACK
6
CONTINUOUS
10
0.444899
20
0.818468
11
0.448466
21
0.816651
0
LINE
8
BLACK
6
CONTINUOUS
10
0.448466
20
0.816651
11
0.451296
21
0.81382
0
LINE
8
BLACK
6
CONTINUOUS
10
0.451296
20
0.81382
11
0.453114
21
0.810253
0
LINE
8
BLACK
6
CONTINUOUS
10
0.453114
20
0.810253
11
0.45374
21
0.806299
0
LINE
8
BLACK
6
CONTINUOUS
10
0.45374
20
0.806299
11
0.45374
21
0.751181
0
LINE
8
BLACK
6
CONTINUOUS
10
0.45374
20
0.751181
11
0.453114
21
0.747227
0
LINE
8
BLACK
6
CONTINUOUS
10
0.453114
20
0.747227
11
0.451296
21
0.74366
0
LINE
8
BLACK
6
CONTINUOUS
10
0.451296
20
0.74366
11
0.448466
21
0.740829
0
LINE
8
BLACK
6
CONTINUOUS
10
0.448466
20
0.740829
11
0.444899
21
0.739012
0
LINE
8
BLACK
6
CONTINUOUS
10
0.444899
20
0.739012
11
0.440945
21
0.738386
0
LINE
8
BLACK
6
CONTINUOUS
10
0.440945
20
0.738386
11
0.377953
21
0.738386
0
LINE
8
BLACK
6
CONTINUOUS
10
0.377953
20
0.738386
11
0.373999
21
0.739012
0
LINE
8
BLACK
6
CONTINUOUS
10
0.373999
20
0.739012
11
0.370432
21
0.740829
0
LINE
8
BLACK
6
CONTINUOUS
10
0.370432
20
0.740829
11
0.367601
21
0.74366
0
LINE
8
BLACK
6
CONTINUOUS
10
0.367601
20
0.74366
11
0.365784
21
0.747227
0
LINE
8
BLACK
6
CONTINUOUS
10
0.365784
20
0.747227
11
0.365157
21
0.751181
0
LINE
8
BLACK
6
CONTINUOUS
10
0.365157
20
0.751181
11
0.365157
21
0.806299
0
LINE
8
BLACK
6
CONTINUOUS
10
0.365157
20
0.806299
11
0.365784
21
0.810253
0
LINE
8
BLACK
6
CONTINUOUS
10
0.365784
20
0.810253
11
0.367601
21
0.81382
0
LINE
8
BLACK
6
CONTINUOUS
10
0.367601
20
0.81382
11
0.370432
21
0.816651
0
LINE
8
BLACK
6
CONTINUOUS
10
0.370432
20
0.816651
11
0.373999
21
0.818468
0
LINE
8
BLACK
6
CONTINUOUS
10
0.373999
20
0.818468
11
0.377953
21
0.819094
0
LINE
8
BLACK
6
CONTINUOUS
10
0.377953
20
0.819094
11
0.440945
21
0.819094
0
LINE
8
BLACK
6
CONTINUOUS
10
0.377953
20
0.817126
11
0.376238
21
0.817126
0
LINE
8
BLACK
6
CONTINUOUS
10
0.376238
20
0.817126
11
0.372976
21
0.816066
0
LINE
8
BLACK
6
CONTINUOUS
10
0.372976
20
0.816066
11
0.370202
21
0.81405
0
LINE
8
BLACK
6
CONTINUOUS
10
0.370202
20
0.81405
11
0.368186
21
0.811276
0
LINE
8
BLACK
6
CONTINUOUS
10
0.368186
20
0.811276
11
0.367126
21
0.808014
0
LINE
8
BLACK
6
CONTINUOUS
10
0.367126
20
0.808014
11
0.367126
21
0.806299
0
LINE
8
BLACK
6
CONTINUOUS
10
0.367126
20
0.806299
11
0.367126
21
0.751181
0
LINE
8
BLACK
6
CONTINUOUS
10
0.367126
20
0.751181
11
0.367126
21
0.749466
0
LINE
8
BLACK
6
CONTINUOUS
10
0.367126
20
0.749466
11
0.368186
21
0.746205
0
LINE
8
BLACK
6
CONTINUOUS
10
0.368186
20
0.746205
11
0.370202
21
0.74343
0
LINE
8
BLACK
6
CONTINUOUS
10
0.370202
20
0.74343
11
0.372976
21
0.741414
0
LINE
8
BLACK
6
CONTINUOUS
10
0.372976
20
0.741414
11
0.376238
21
0.740354
0
LINE
8
BLACK
6
CONTINUOUS
10
0.376238
20
0.740354
11
0.377953
21
0.740354
0
LINE
8
BLACK
6
CONTINUOUS
10
0.377953
20
0.740354
11
0.440945
21
0.740354
0
LINE
8
BLACK
6
CONTINUOUS
10
0.440945
20
0.740354
11
0.44266
21
0.740354
0
LINE
8
BLACK
6
CONTINUOUS
10
0.44266
20
0.740354
11
0.445921
21
0.741414
0
LINE
8
BLACK
6
CONTINUOUS
10
0.445921
20
0.741414
11
0.448696
21
0.74343
0
LINE
8
BLACK
6
CONTINUOUS
10
0.448696
20
0.74343
11
0.450712
21
0.746205
0
LINE
8
BLACK
6
CONTINUOUS
10
0.450712
20
0.746205
11
0.451772
21
0.749466
0
LINE
8
BLACK
6
CONTINUOUS
10
0.451772
20
0.749466
11
0.451772
21
0.751181
0
LINE
8
BLACK
6
CONTINUOUS
10
0.451772
20
0.751181
11
0.451772
21
0.806299
0
LINE
8
BLACK
6
CONTINUOUS
10
0.451772
20
0.806299
11
0.451772
21
0.808014
0
LINE
8
BLACK
6
CONTINUOUS
10
0.451772
20
0.808014
11
0.450712
21
0.811276
0
LINE
8
BLACK
6
CONTINUOUS
10
0.450712
20
0.811276
11
0.448696
21
0.81405
0
LINE
8
BLACK
6
CONTINUOUS
10
0.448696
20
0.81405
11
0.445921
21
0.816066
0
LINE
8
BLACK
6
CONTINUOUS
10
0.445921
20
0.816066
11
0.44266
21
0.817126
0
LINE
8
BLACK
6
CONTINUOUS
10
0.44266
20
0.817126
11
0.440945
21
0.817126
0
LINE
8
BLACK
6
CONTINUOUS
10
0.440945
20
0.817126
11
0.377953
21
0.817126
0
LINE
8
BLACK
6
CONTINUOUS
10
0.378543
20
0.920144
11
0.441535
21
0.920144
0
LINE
8
BLACK
6
CONTINUOUS
10
0.441535
20
0.920144
11
0.445489
21
0.919518
0
LINE
8
BLACK
6
CONTINUOUS
10
0.445489
20
0.919518
11
0.449056
21
0.917701
0
LINE
8
BLACK
6
CONTINUOUS
10
0.449056
20
0.917701
11
0.451886
21
0.91487
0
LINE
8
BLACK
6
CONTINUOUS
10
0.451886
20
0.91487
11
0.453704
21
0.911303
0
LINE
8
BLACK
6
CONTINUOUS
10
0.453704
20
0.911303
11
0.454329
21
0.907354
0
LINE
8
BLACK
6
CONTINUOUS
10
0.454329
20
0.907354
11
0.454331
21
0.907349
0
LINE
8
BLACK
6
CONTINUOUS
10
0.454331
20
0.907349
11
0.454331
21
0.852231
0
LINE
8
BLACK
6
CONTINUOUS
10
0.454331
20
0.852231
11
0.454331
21
0.852231
0
LINE
8
BLACK
6
CONTINUOUS
10
0.454331
20
0.852231
11
0.454331
21
0.852231
0
LINE
8
BLACK
6
CONTINUOUS
10
0.454331
20
0.852231
11
0.453704
21
0.848277
0
LINE
8
BLACK
6
CONTINUOUS
10
0.453704
20
0.848277
11
0.451887
21
0.844711
0
LINE
8
BLACK
6
CONTINUOUS
10
0.451887
20
0.844711
11
0.449056
21
0.84188
0
LINE
8
BLACK
6
CONTINUOUS
10
0.449056
20
0.84188
11
0.445489
21
0.840063
0
LINE
8
BLACK
6
CONTINUOUS
10
0.445489
20
0.840063
11
0.44154
21
0.839438
0
LINE
8
BLACK
6
CONTINUOUS
10
0.44154
20
0.839438
11
0.441535
21
0.839436
0
LINE
8
BLACK
6
CONTINUOUS
10
0.441535
20
0.839436
11
0.378543
21
0.839436
0
LINE
8
BLACK
6
CONTINUOUS
10
0.378543
20
0.839436
11
0.374589
21
0.840062
0
LINE
8
BLACK
6
CONTINUOUS
10
0.374589
20
0.840062
11
0.371022
21
0.841879
0
LINE
8
BLACK
6
CONTINUOUS
10
0.371022
20
0.841879
11
0.368191
21
0.84471
0
LINE
8
BLACK
6
CONTINUOUS
10
0.368191
20
0.84471
11
0.366373
21
0.848277
0
LINE
8
BLACK
6
CONTINUOUS
10
0.366373
20
0.848277
11
0.365747
21
0.852231
0
LINE
8
BLACK
6
CONTINUOUS
10
0.365747
20
0.852231
11
0.365748
21
0.852231
0
LINE
8
BLACK
6
CONTINUOUS
10
0.365748
20
0.852231
11
0.365748
21
0.852231
0
LINE
8
BLACK
6
CONTINUOUS
10
0.365748
20
0.852231
11
0.365748
21
0.852231
0
LINE
8
BLACK
6
CONTINUOUS
10
0.365748
20
0.852231
11
0.365748
21
0.907349
0
LINE
8
BLACK
6
CONTINUOUS
10
0.365748
20
0.907349
11
0.365748
21
0.907349
0
LINE
8
BLACK
6
CONTINUOUS
10
0.365748
20
0.907349
11
0.366374
21
0.911303
0
LINE
8
BLACK
6
CONTINUOUS
10
0.366374
20
0.911303
11
0.368191
21
0.914871
0
LINE
8
BLACK
6
CONTINUOUS
10
0.368191
20
0.914871
11
0.371022
21
0.917702
0
LINE
8
BLACK
6
CONTINUOUS
10
0.371022
20
0.917702
11
0.374589
21
0.919519
0
LINE
8
BLACK
6
CONTINUOUS
10
0.374589
20
0.919519
11
0.378543
21
0.920146
0
LINE
8
BLACK
6
CONTINUOUS
10
0.378543
20
0.920146
11
0.378543
21
0.920144
0
LINE
8
BLACK
6
CONTINUOUS
10
0.373566
20
0.917117
11
0.370792
21
0.915101
0
LINE
8
BLACK
6
CONTINUOUS
10
0.370792
20
0.915101
11
0.368776
21
0.912326
0
LINE
8
BLACK
6
CONTINUOUS
10
0.368776
20
0.912326
11
0.367716
21
0.909064
0
LINE
8
BLACK
6
CONTINUOUS
10
0.367716
20
0.909064
11
0.367717
21
0.907349
0
LINE
8
BLACK
6
CONTINUOUS
10
0.367717
20
0.907349
11
0.367716
21
0.907349
0
LINE
8
BLACK
6
CONTINUOUS
10
0.367716
20
0.907349
11
0.367717
21
0.907349
0
LINE
8
BLACK
6
CONTINUOUS
10
0.367717
20
0.907349
11
0.367717
21
0.852231
0
LINE
8
BLACK
6
CONTINUOUS
10
0.367717
20
0.852231
11
0.367715
21
0.852228
0
LINE
8
BLACK
6
CONTINUOUS
10
0.367715
20
0.852228
11
0.367715
21
0.850516
0
LINE
8
BLACK
6
CONTINUOUS
10
0.367715
20
0.850516
11
0.368776
21
0.847254
0
LINE
8
BLACK
6
CONTINUOUS
10
0.368776
20
0.847254
11
0.370792
21
0.84448
0
LINE
8
BLACK
6
CONTINUOUS
10
0.370792
20
0.84448
11
0.373567
21
0.842464
0
LINE
8
BLACK
6
CONTINUOUS
10
0.373567
20
0.842464
11
0.376828
21
0.841404
0
LINE
8
BLACK
6
CONTINUOUS
10
0.376828
20
0.841404
11
0.378543
21
0.841404
0
LINE
8
BLACK
6
CONTINUOUS
10
0.378543
20
0.841404
11
0.441535
21
0.841404
0
LINE
8
BLACK
6
CONTINUOUS
10
0.441535
20
0.841404
11
0.441535
21
0.841406
0
LINE
8
BLACK
6
CONTINUOUS
10
0.441535
20
0.841406
11
0.44325
21
0.841405
0
LINE
8
BLACK
6
CONTINUOUS
10
0.44325
20
0.841405
11
0.446512
21
0.842465
0
LINE
8
BLACK
6
CONTINUOUS
10
0.446512
20
0.842465
11
0.449286
21
0.844481
0
LINE
8
BLACK
6
CONTINUOUS
10
0.449286
20
0.844481
11
0.451302
21
0.847255
0
LINE
8
BLACK
6
CONTINUOUS
10
0.451302
20
0.847255
11
0.452362
21
0.850516
0
LINE
8
BLACK
6
CONTINUOUS
10
0.452362
20
0.850516
11
0.452362
21
0.852231
0
LINE
8
BLACK
6
CONTINUOUS
10
0.452362
20
0.852231
11
0.452362
21
0.907349
0
LINE
8
BLACK
6
CONTINUOUS
10
0.452362
20
0.907349
11
0.452362
21
0.907349
0
LINE
8
BLACK
6
CONTINUOUS
10
0.452362
20
0.907349
11
0.452362
21
0.907349
0
LINE
8
BLACK
6
CONTINUOUS
10
0.452362
20
0.907349
11
0.452361
21
0.907349
0
LINE
8
BLACK
6
CONTINUOUS
10
0.452361
20
0.907349
11
0.452361
21
0.909064
0
LINE
8
BLACK
6
CONTINUOUS
10
0.452361
20
0.909064
11
0.451302
21
0.912326
0
LINE
8
BLACK
6
CONTINUOUS
10
0.451302
20
0.912326
11
0.449286
21
0.9151
0
LINE
8
BLACK
6
CONTINUOUS
10
0.449286
20
0.9151
11
0.446512
21
0.917116
0
LINE
8
BLACK
6
CONTINUOUS
10
0.446512
20
0.917116
11
0.44325
21
0.918176
0
LINE
8
BLACK
6
CONTINUOUS
10
0.44325
20
0.918176
11
0.441535
21
0.918176
0
LINE
8
BLACK
6
CONTINUOUS
10
0.441535
20
0.918176
11
0.378543
21
0.918176
0
LINE
8
BLACK
6
CONTINUOUS
10
0.378543
20
0.918176
11
0.37854
21
0.918177
0
LINE
8
BLACK
6
CONTINUOUS
10
0.37854
20
0.918177
11
0.376828
21
0.918177
0
LINE
8
BLACK
6
CONTINUOUS
10
0.376828
20
0.918177
11
0.373566
21
0.917117
0
LINE
8
BLACK
6
CONTINUOUS
10
0.441929
20
1.02119
11
0.445883
21
1.02057
0
LINE
8
BLACK
6
CONTINUOUS
10
0.445883
20
1.02057
11
0.44945
21
1.01875
0
LINE
8
BLACK
6
CONTINUOUS
10
0.44945
20
1.01875
11
0.452281
21
1.01592
0
LINE
8
BLACK
6
CONTINUOUS
10
0.452281
20
1.01592
11
0.454099
21
1.01235
0
LINE
8
BLACK
6
CONTINUOUS
10
0.454099
20
1.01235
11
0.454726
21
1.0084
0
LINE
8
BLACK
6
CONTINUOUS
10
0.454726
20
1.0084
11
0.454724
21
1.0084
0
LINE
8
BLACK
6
CONTINUOUS
10
0.454724
20
1.0084
11
0.454724
21
1.0084
0
LINE
8
BLACK
6
CONTINUOUS
10
0.454724
20
1.0084
11
0.454724
21
1.0084
0
LINE
8
BLACK
6
CONTINUOUS
10
0.454724
20
1.0084
11
0.454724
21
0.953281
0
LINE
8
BLACK
6
CONTINUOUS
10
0.454724
20
0.953281
11
0.454099
21
0.949327
0
LINE
8
BLACK
6
CONTINUOUS
10
0.454099
20
0.949327
11
0.452281
21
0.945759
0
LINE
8
BLACK
6
CONTINUOUS
10
0.452281
20
0.945759
11
0.44945
21
0.942928
0
LINE
8
BLACK
6
CONTINUOUS
10
0.44945
20
0.942928
11
0.445883
21
0.941111
0
LINE
8
BLACK
6
CONTINUOUS
10
0.445883
20
0.941111
11
0.441929
21
0.940484
0
LINE
8
BLACK
6
CONTINUOUS
10
0.441929
20
0.940484
11
0.441929
21
0.940486
0
LINE
8
BLACK
6
CONTINUOUS
10
0.441929
20
0.940486
11
0.378937
21
0.940486
0
LINE
8
BLACK
6
CONTINUOUS
10
0.378937
20
0.940486
11
0.374983
21
0.941112
0
LINE
8
BLACK
6
CONTINUOUS
10
0.374983
20
0.941112
11
0.371416
21
0.942929
0
LINE
8
BLACK
6
CONTINUOUS
10
0.371416
20
0.942929
11
0.368586
21
0.94576
0
LINE
8
BLACK
6
CONTINUOUS
10
0.368586
20
0.94576
11
0.366769
21
0.949327
0
LINE
8
BLACK
6
CONTINUOUS
10
0.366769
20
0.949327
11
0.366144
21
0.953276
0
LINE
8
BLACK
6
CONTINUOUS
10
0.366144
20
0.953276
11
0.366142
21
0.953281
0
LINE
8
BLACK
6
CONTINUOUS
10
0.366142
20
0.953281
11
0.366142
21
1.0084
0
LINE
8
BLACK
6
CONTINUOUS
10
0.366142
20
1.0084
11
0.366142
21
1.0084
0
LINE
8
BLACK
6
CONTINUOUS
10
0.366142
20
1.0084
11
0.366142
21
1.0084
0
LINE
8
BLACK
6
CONTINUOUS
10
0.366142
20
1.0084
11
0.366768
21
1.01235
0
LINE
8
BLACK
6
CONTINUOUS
10
0.366768
20
1.01235
11
0.368586
21
1.01592
0
LINE
8
BLACK
6
CONTINUOUS
10
0.368586
20
1.01592
11
0.371417
21
1.01875
0
LINE
8
BLACK
6
CONTINUOUS
10
0.371417
20
1.01875
11
0.374983
21
1.02057
0
LINE
8
BLACK
6
CONTINUOUS
10
0.374983
20
1.02057
11
0.378932
21
1.02119
0
LINE
8
BLACK
6
CONTINUOUS
10
0.378932
20
1.02119
11
0.378937
21
1.02119
0
LINE
8
BLACK
6
CONTINUOUS
10
0.378937
20
1.02119
11
0.441929
21
1.02119
0
LINE
8
BLACK
6
CONTINUOUS
10
0.378937
20
1.01923
11
0.378937
21
1.01922
0
LINE
8
BLACK
6
CONTINUOUS
10
0.378937
20
1.01922
11
0.377222
21
1.01922
0
LINE
8
BLACK
6
CONTINUOUS
10
0.377222
20
1.01922
11
0.373961
21
1.01816
0
LINE
8
BLACK
6
CONTINUOUS
10
0.373961
20
1.01816
11
0.371186
21
1.01615
0
LINE
8
BLACK
6
CONTINUOUS
10
0.371186
20
1.01615
11
0.36917
21
1.01337
0
LINE
8
BLACK
6
CONTINUOUS
10
0.36917
20
1.01337
11
0.36811
21
1.01011
0
LINE
8
BLACK
6
CONTINUOUS
10
0.36811
20
1.01011
11
0.36811
21
1.0084
0
LINE
8
BLACK
6
CONTINUOUS
10
0.36811
20
1.0084
11
0.36811
21
0.953281
0
LINE
8
BLACK
6
CONTINUOUS
10
0.36811
20
0.953281
11
0.36811
21
0.953281
0
LINE
8
BLACK
6
CONTINUOUS
10
0.36811
20
0.953281
11
0.36811
21
0.953281
0
LINE
8
BLACK
6
CONTINUOUS
10
0.36811
20
0.953281
11
0.368112
21
0.953281
0
LINE
8
BLACK
6
CONTINUOUS
10
0.368112
20
0.953281
11
0.368111
21
0.951566
0
LINE
8
BLACK
6
CONTINUOUS
10
0.368111
20
0.951566
11
0.369171
21
0.948304
0
LINE
8
BLACK
6
CONTINUOUS
10
0.369171
20
0.948304
11
0.371186
21
0.94553
0
LINE
8
BLACK
6
CONTINUOUS
10
0.371186
20
0.94553
11
0.373961
21
0.943514
0
LINE
8
BLACK
6
CONTINUOUS
10
0.373961
20
0.943514
11
0.377222
21
0.942454
0
LINE
8
BLACK
6
CONTINUOUS
10
0.377222
20
0.942454
11
0.378937
21
0.942454
0
LINE
8
BLACK
6
CONTINUOUS
10
0.378937
20
0.942454
11
0.441929
21
0.942454
0
LINE
8
BLACK
6
CONTINUOUS
10
0.441929
20
0.942454
11
0.441932
21
0.942453
0
LINE
8
BLACK
6
CONTINUOUS
10
0.441932
20
0.942453
11
0.443644
21
0.942453
0
LINE
8
BLACK
6
CONTINUOUS
10
0.443644
20
0.942453
11
0.446906
21
0.943513
0
LINE
8
BLACK
6
CONTINUOUS
10
0.446906
20
0.943513
11
0.449681
21
0.945529
0
LINE
8
BLACK
6
CONTINUOUS
10
0.449681
20
0.945529
11
0.451696
21
0.948304
0
LINE
8
BLACK
6
CONTINUOUS
10
0.451696
20
0.948304
11
0.452756
21
0.951566
0
LINE
8
BLACK
6
CONTINUOUS
10
0.452756
20
0.951566
11
0.452756
21
0.953281
0
LINE
8
BLACK
6
CONTINUOUS
10
0.452756
20
0.953281
11
0.452756
21
0.953281
0
LINE
8
BLACK
6
CONTINUOUS
10
0.452756
20
0.953281
11
0.452756
21
0.953281
0
LINE
8
BLACK
6
CONTINUOUS
10
0.452756
20
0.953281
11
0.452756
21
1.0084
0
LINE
8
BLACK
6
CONTINUOUS
10
0.452756
20
1.0084
11
0.452757
21
1.0084
0
LINE
8
BLACK
6
CONTINUOUS
10
0.452757
20
1.0084
11
0.452757
21
1.01011
0
LINE
8
BLACK
6
CONTINUOUS
10
0.452757
20
1.01011
11
0.451697
21
1.01338
0
LINE
8
BLACK
6
CONTINUOUS
10
0.451697
20
1.01338
11
0.449681
21
1.01615
0
LINE
8
BLACK
6
CONTINUOUS
10
0.449681
20
1.01615
11
0.446906
21
1.01817
0
LINE
8
BLACK
6
CONTINUOUS
10
0.446906
20
1.01817
11
0.443644
21
1.01923
0
LINE
8
BLACK
6
CONTINUOUS
10
0.443644
20
1.01923
11
0.441929
21
1.01923
0
LINE
8
BLACK
6
CONTINUOUS
10
0.441929
20
1.01923
11
0.378937
21
1.01923
0
LINE
8
BLACK
6
CONTINUOUS
10
0.441929
20
1.12224
11
0.445883
21
1.12162
0
LINE
8
BLACK
6
CONTINUOUS
10
0.445883
20
1.12162
11
0.44945
21
1.1198
0
LINE
8
BLACK
6
CONTINUOUS
10
0.44945
20
1.1198
11
0.452281
21
1.11697
0
LINE
8
BLACK
6
CONTINUOUS
10
0.452281
20
1.11697
11
0.454098
21
1.1134
0
LINE
8
BLACK
6
CONTINUOUS
10
0.454098
20
1.1134
11
0.454724
21
1.10945
0
LINE
8
BLACK
6
CONTINUOUS
10
0.454724
20
1.10945
11
0.454724
21
1.05433
0
LINE
8
BLACK
6
CONTINUOUS
10
0.454724
20
1.05433
11
0.454098
21
1.05038
0
LINE
8
BLACK
6
CONTINUOUS
10
0.454098
20
1.05038
11
0.452281
21
1.04681
0
LINE
8
BLACK
6
CONTINUOUS
10
0.452281
20
1.04681
11
0.44945
21
1.04398
0
LINE
8
BLACK
6
CONTINUOUS
10
0.44945
20
1.04398
11
0.445883
21
1.04216
0
LINE
8
BLACK
6
CONTINUOUS
10
0.445883
20
1.04216
11
0.441929
21
1.04154
0
LINE
8
BLACK
6
CONTINUOUS
10
0.441929
20
1.04154
11
0.378937
21
1.04154
0
LINE
8
BLACK
6
CONTINUOUS
10
0.378937
20
1.04154
11
0.374983
21
1.04216
0
LINE
8
BLACK
6
CONTINUOUS
10
0.374983
20
1.04216
11
0.371416
21
1.04398
0
LINE
8
BLACK
6
CONTINUOUS
10
0.371416
20
1.04398
11
0.368585
21
1.04681
0
LINE
8
BLACK
6
CONTINUOUS
10
0.368585
20
1.04681
11
0.366768
21
1.05038
0
LINE
8
BLACK
6
CONTINUOUS
10
0.366768
20
1.05038
11
0.366142
21
1.05433
0
LINE
8
BLACK
6
CONTINUOUS
10
0.366142
20
1.05433
11
0.366142
21
1.10945
0
LINE
8
BLACK
6
CONTINUOUS
10
0.366142
20
1.10945
11
0.366768
21
1.1134
0
LINE
8
BLACK
6
CONTINUOUS
10
0.366768
20
1.1134
11
0.368585
21
1.11697
0
LINE
8
BLACK
6
CONTINUOUS
10
0.368585
20
1.11697
11
0.371416
21
1.1198
0
LINE
8
BLACK
6
CONTINUOUS
10
0.371416
20
1.1198
11
0.374983
21
1.12162
0
LINE
8
BLACK
6
CONTINUOUS
10
0.374983
20
1.12162
11
0.378937
21
1.12224
0
LINE
8
BLACK
6
CONTINUOUS
10
0.378937
20
1.12224
11
0.441929
21
1.12224
0
LINE
8
BLACK
6
CONTINUOUS
10
0.378937
20
1.12028
11
0.377222
21
1.12028
0
LINE
8
BLACK
6
CONTINUOUS
10
0.377222
20
1.12028
11
0.37396
21
1.11922
0
LINE
8
BLACK
6
CONTINUOUS
10
0.37396
20
1.11922
11
0.371186
21
1.1172
0
LINE
8
BLACK
6
CONTINUOUS
10
0.371186
20
1.1172
11
0.36917
21
1.11443
0
LINE
8
BLACK
6
CONTINUOUS
10
0.36917
20
1.11443
11
0.36811
21
1.11116
0
LINE
8
BLACK
6
CONTINUOUS
10
0.36811
20
1.11116
11
0.36811
21
1.10945
0
LINE
8
BLACK
6
CONTINUOUS
10
0.36811
20
1.10945
11
0.36811
21
1.05433
0
LINE
8
BLACK
6
CONTINUOUS
10
0.36811
20
1.05433
11
0.36811
21
1.05262
0
LINE
8
BLACK
6
CONTINUOUS
10
0.36811
20
1.05262
11
0.36917
21
1.04935
0
LINE
8
BLACK
6
CONTINUOUS
10
0.36917
20
1.04935
11
0.371186
21
1.04658
0
LINE
8
BLACK
6
CONTINUOUS
10
0.371186
20
1.04658
11
0.37396
21
1.04456
0
LINE
8
BLACK
6
CONTINUOUS
10
0.37396
20
1.04456
11
0.377222
21
1.0435
0
LINE
8
BLACK
6
CONTINUOUS
10
0.377222
20
1.0435
11
0.378937
21
1.0435
0
LINE
8
BLACK
6
CONTINUOUS
10
0.378937
20
1.0435
11
0.441929
21
1.0435
0
LINE
8
BLACK
6
CONTINUOUS
10
0.441929
20
1.0435
11
0.443644
21
1.0435
0
LINE
8
BLACK
6
CONTINUOUS
10
0.443644
20
1.0435
11
0.446906
21
1.04456
0
LINE
8
BLACK
6
CONTINUOUS
10
0.446906
20
1.04456
11
0.44968
21
1.04658
0
LINE
8
BLACK
6
CONTINUOUS
10
0.44968
20
1.04658
11
0.451696
21
1.04935
0
LINE
8
BLACK
6
CONTINUOUS
10
0.451696
20
1.04935
11
0.452756
21
1.05262
0
LINE
8
BLACK
6
CONTINUOUS
10
0.452756
20
1.05262
11
0.452756
21
1.05433
0
LINE
8
BLACK
6
CONTINUOUS
10
0.452756
20
1.05433
11
0.452756
21
1.10945
0
LINE
8
BLACK
6
CONTINUOUS
10
0.452756
20
1.10945
11
0.452756
21
1.11116
0
LINE
8
BLACK
6
CONTINUOUS
10
0.452756
20
1.11116
11
0.451696
21
1.11443
0
LINE
8
BLACK
6
CONTINUOUS
10
0.451696
20
1.11443
11
0.44968
21
1.1172
0
LINE
8
BLACK
6
CONTINUOUS
10
0.44968
20
1.1172
11
0.446906
21
1.11922
0
LINE
8
BLACK
6
CONTINUOUS
10
0.446906
20
1.11922
11
0.443644
21
1.12028
0
LINE
8
BLACK
6
CONTINUOUS
10
0.443644
20
1.12028
11
0.441929
21
1.12028
0
LINE
8
BLACK
6
CONTINUOUS
10
0.441929
20
1.12028
11
0.378937
21
1.12028
0
LINE
8
BLACK
6
CONTINUOUS
10
0.440551
20
1.32047
11
0.444505
21
1.31985
0
LINE
8
BLACK
6
CONTINUOUS
10
0.444505
20
1.31985
11
0.448072
21
1.31803
0
LINE
8
BLACK
6
CONTINUOUS
10
0.448072
20
1.31803
11
0.450903
21
1.3152
0
LINE
8
BLACK
6
CONTINUOUS
10
0.450903
20
1.3152
11
0.45272
21
1.31163
0
LINE
8
BLACK
6
CONTINUOUS
10
0.45272
20
1.31163
11
0.453346
21
1.30768
0
LINE
8
BLACK
6
CONTINUOUS
10
0.453346
20
1.30768
11
0.453346
21
1.25256
0
LINE
8
BLACK
6
CONTINUOUS
10
0.453346
20
1.25256
11
0.45272
21
1.24861
0
LINE
8
BLACK
6
CONTINUOUS
10
0.45272
20
1.24861
11
0.450903
21
1.24504
0
LINE
8
BLACK
6
CONTINUOUS
10
0.450903
20
1.24504
11
0.448072
21
1.24221
0
LINE
8
BLACK
6
CONTINUOUS
10
0.448072
20
1.24221
11
0.444505
21
1.24039
0
LINE
8
BLACK
6
CONTINUOUS
10
0.444505
20
1.24039
11
0.440551
21
1.23976
0
LINE
8
BLACK
6
CONTINUOUS
10
0.440551
20
1.23976
11
0.377559
21
1.23976
0
LINE
8
BLACK
6
CONTINUOUS
10
0.377559
20
1.23976
11
0.373605
21
1.24039
0
LINE
8
BLACK
6
CONTINUOUS
10
0.373605
20
1.24039
11
0.370038
21
1.24221
0
LINE
8
BLACK
6
CONTINUOUS
10
0.370038
20
1.24221
11
0.367207
21
1.24504
0
LINE
8
BLACK
6
CONTINUOUS
10
0.367207
20
1.24504
11
0.36539
21
1.24861
0
LINE
8
BLACK
6
CONTINUOUS
10
0.36539
20
1.24861
11
0.364764
21
1.25256
0
LINE
8
BLACK
6
CONTINUOUS
10
0.364764
20
1.25256
11
0.364764
21
1.30768
0
LINE
8
BLACK
6
CONTINUOUS
10
0.364764
20
1.30768
11
0.36539
21
1.31163
0
LINE
8
BLACK
6
CONTINUOUS
10
0.36539
20
1.31163
11
0.367207
21
1.3152
0
LINE
8
BLACK
6
CONTINUOUS
10
0.367207
20
1.3152
11
0.370038
21
1.31803
0
LINE
8
BLACK
6
CONTINUOUS
10
0.370038
20
1.31803
11
0.373605
21
1.31985
0
LINE
8
BLACK
6
CONTINUOUS
10
0.373605
20
1.31985
11
0.377559
21
1.32047
0
LINE
8
BLACK
6
CONTINUOUS
10
0.377559
20
1.32047
11
0.440551
21
1.32047
0
LINE
8
BLACK
6
CONTINUOUS
10
0.377559
20
1.3185
11
0.375844
21
1.3185
0
LINE
8
BLACK
6
CONTINUOUS
10
0.375844
20
1.3185
11
0.372583
21
1.31744
0
LINE
8
BLACK
6
CONTINUOUS
10
0.372583
20
1.31744
11
0.369808
21
1.31543
0
LINE
8
BLACK
6
CONTINUOUS
10
0.369808
20
1.31543
11
0.367792
21
1.31265
0
LINE
8
BLACK
6
CONTINUOUS
10
0.367792
20
1.31265
11
0.366732
21
1.30939
0
LINE
8
BLACK
6
CONTINUOUS
10
0.366732
20
1.30939
11
0.366732
21
1.30768
0
LINE
8
BLACK
6
CONTINUOUS
10
0.366732
20
1.30768
11
0.366732
21
1.25256
0
LINE
8
BLACK
6
CONTINUOUS
10
0.366732
20
1.25256
11
0.366732
21
1.25084
0
LINE
8
BLACK
6
CONTINUOUS
10
0.366732
20
1.25084
11
0.367792
21
1.24758
0
LINE
8
BLACK
6
CONTINUOUS
10
0.367792
20
1.24758
11
0.369808
21
1.24481
0
LINE
8
BLACK
6
CONTINUOUS
10
0.369808
20
1.24481
11
0.372583
21
1.24279
0
LINE
8
BLACK
6
CONTINUOUS
10
0.372583
20
1.24279
11
0.375844
21
1.24173
0
LINE
8
BLACK
6
CONTINUOUS
10
0.375844
20
1.24173
11
0.377559
21
1.24173
0
LINE
8
BLACK
6
CONTINUOUS
10
0.377559
20
1.24173
11
0.440551
21
1.24173
0
LINE
8
BLACK
6
CONTINUOUS
10
0.440551
20
1.24173
11
0.442266
21
1.24173
0
LINE
8
BLACK
6
CONTINUOUS
10
0.442266
20
1.24173
11
0.445528
21
1.24279
0
LINE
8
BLACK
6
CONTINUOUS
10
0.445528
20
1.24279
11
0.448302
21
1.24481
0
LINE
8
BLACK
6
CONTINUOUS
10
0.448302
20
1.24481
11
0.450318
21
1.24758
0
LINE
8
BLACK
6
CONTINUOUS
10
0.450318
20
1.24758
11
0.451378
21
1.25084
0
LINE
8
BLACK
6
CONTINUOUS
10
0.451378
20
1.25084
11
0.451378
21
1.25256
0
LINE
8
BLACK
6
CONTINUOUS
10
0.451378
20
1.25256
11
0.451378
21
1.30768
0
LINE
8
BLACK
6
CONTINUOUS
10
0.451378
20
1.30768
11
0.451378
21
1.30939
0
LINE
8
BLACK
6
CONTINUOUS
10
0.451378
20
1.30939
11
0.450318
21
1.31265
0
LINE
8
BLACK
6
CONTINUOUS
10
0.450318
20
1.31265
11
0.448302
21
1.31543
0
LINE
8
BLACK
6
CONTINUOUS
10
0.448302
20
1.31543
11
0.445528
21
1.31744
0
LINE
8
BLACK
6
CONTINUOUS
10
0.445528
20
1.31744
11
0.442266
21
1.3185
0
LINE
8
BLACK
6
CONTINUOUS
10
0.442266
20
1.3185
11
0.440551
21
1.3185
0
LINE
8
BLACK
6
CONTINUOUS
10
0.440551
20
1.3185
11
0.377559
21
1.3185
0
LINE
8
BLACK
6
CONTINUOUS
10
1.00078
20
2.29527
11
1.0011
21
2.29449
0
LINE
8
BLACK
6
CONTINUOUS
10
1.0011
20
2.29449
11
1.0011
21
2.19295
0
LINE
8
BLACK
6
CONTINUOUS
10
1.0011
20
2.19295
11
1.79
21
2.19295
0
LINE
8
BLACK
6
CONTINUOUS
10
1.79
20
2.19295
11
1.79038
21
2.19289
0
LINE
8
BLACK
6
CONTINUOUS
10
1.79038
20
2.19289
11
1.79051
21
2.19291
0
LINE
8
BLACK
6
CONTINUOUS
10
1.79051
20
2.19291
11
1.79063
21
2.19284
0
LINE
8
BLACK
6
CONTINUOUS
10
1.79063
20
2.19284
11
1.79101
21
2.19277
0
LINE
8
BLACK
6
CONTINUOUS
10
1.79101
20
2.19277
11
1.7916
21
2.19228
0
LINE
8
BLACK
6
CONTINUOUS
10
1.7916
20
2.19228
11
1.79226
21
2.1919
0
LINE
8
BLACK
6
CONTINUOUS
10
1.79226
20
2.1919
11
1.79235
21
2.19165
0
LINE
8
BLACK
6
CONTINUOUS
10
1.79235
20
2.19165
11
1.79256
21
2.19148
0
LINE
8
BLACK
6
CONTINUOUS
10
1.79256
20
2.19148
11
1.79269
21
2.19072
0
LINE
8
BLACK
6
CONTINUOUS
10
1.79269
20
2.19072
11
1.79295
21
2.19
0
LINE
8
BLACK
6
CONTINUOUS
10
1.79295
20
2.19
11
1.79295
21
1.69323
0
LINE
8
BLACK
6
CONTINUOUS
10
1.79295
20
1.69323
11
1.89603
21
1.69323
0
LINE
8
BLACK
6
CONTINUOUS
10
1.89603
20
1.69323
11
1.89681
21
1.6929
0
LINE
8
BLACK
6
CONTINUOUS
10
1.89681
20
1.6929
11
1.89713
21
1.69213
0
LINE
8
BLACK
6
CONTINUOUS
10
1.89713
20
1.69213
11
1.89681
21
1.69135
0
LINE
8
BLACK
6
CONTINUOUS
10
1.89681
20
1.69135
11
1.89603
21
1.69103
0
LINE
8
BLACK
6
CONTINUOUS
10
1.89603
20
1.69103
11
1.79295
21
1.69103
0
LINE
8
BLACK
6
CONTINUOUS
10
1.79295
20
1.69103
11
1.79295
21
0.610549
0
LINE
8
BLACK
6
CONTINUOUS
10
1.79295
20
0.610549
11
1.89579
21
0.610549
0
LINE
8
BLACK
6
CONTINUOUS
10
1.89579
20
0.610549
11
1.89657
21
0.610227
0
LINE
8
BLACK
6
CONTINUOUS
10
1.89657
20
0.610227
11
1.89689
21
0.609449
0
LINE
8
BLACK
6
CONTINUOUS
10
1.89689
20
0.609449
11
1.89657
21
0.608671
0
LINE
8
BLACK
6
CONTINUOUS
10
1.89657
20
0.608671
11
1.89579
21
0.608349
0
LINE
8
BLACK
6
CONTINUOUS
10
1.89579
20
0.608349
11
1.79295
21
0.608349
0
LINE
8
BLACK
6
CONTINUOUS
10
1.79295
20
0.608349
11
1.79295
21
0.21
0
LINE
8
BLACK
6
CONTINUOUS
10
1.79295
20
0.21
11
1.79289
21
0.209617
0
LINE
8
BLACK
6
CONTINUOUS
10
1.79289
20
0.209617
11
1.79291
21
0.209487
0
LINE
8
BLACK
6
CONTINUOUS
10
1.79291
20
0.209487
11
1.79284
21
0.209374
0
LINE
8
BLACK
6
CONTINUOUS
10
1.79284
20
0.209374
11
1.79277
21
0.20899
0
LINE
8
BLACK
6
CONTINUOUS
10
1.79277
20
0.20899
11
1.79228
21
0.208402
0
LINE
8
BLACK
6
CONTINUOUS
10
1.79228
20
0.208402
11
1.7919
21
0.207738
0
LINE
8
BLACK
6
CONTINUOUS
10
1.7919
20
0.207738
11
1.79165
21
0.207647
0
LINE
8
BLACK
6
CONTINUOUS
10
1.79165
20
0.207647
11
1.79148
21
0.207443
0
LINE
8
BLACK
6
CONTINUOUS
10
1.79148
20
0.207443
11
1.79072
21
0.20731
0
LINE
8
BLACK
6
CONTINUOUS
10
1.79072
20
0.20731
11
1.79
21
0.207047
0
LINE
8
BLACK
6
CONTINUOUS
10
1.79
20
0.207047
11
0.21
21
0.207047
0
LINE
8
BLACK
6
CONTINUOUS
10
0.21
20
0.207047
11
0.209616
21
0.207115
0
LINE
8
BLACK
6
CONTINUOUS
10
0.209616
20
0.207115
11
0.209487
21
0.207092
0
LINE
8
BLACK
6
CONTINUOUS
10
0.209487
20
0.207092
11
0.209374
21
0.207158
0
LINE
8
BLACK
6
CONTINUOUS
10
0.209374
20
0.207158
11
0.20899
21
0.207225
0
LINE
8
BLACK
6
CONTINUOUS
10
0.20899
20
0.207225
11
0.208402
21
0.207719
0
LINE
8
BLACK
6
CONTINUOUS
10
0.208402
20
0.207719
11
0.207738
21
0.208102
0
LINE
8
BLACK
6
CONTINUOUS
10
0.207738
20
0.208102
11
0.207647
21
0.208352
0
LINE
8
BLACK
6
CONTINUOUS
10
0.207647
20
0.208352
11
0.207443
21
0.208524
0
LINE
8
BLACK
6
CONTINUOUS
10
0.207443
20
0.208524
11
0.20731
21
0.209279
0
LINE
8
BLACK
6
CONTINUOUS
10
0.20731
20
0.209279
11
0.207047
21
0.21
0
LINE
8
BLACK
6
CONTINUOUS
10
0.207047
20
0.21
11
0.207047
21
0.608349
0
LINE
8
BLACK
6
CONTINUOUS
10
0.207047
20
0.608349
11
0.105055
21
0.608349
0
LINE
8
BLACK
6
CONTINUOUS
10
0.105055
20
0.608349
11
0.104277
21
0.608671
0
LINE
8
BLACK
6
CONTINUOUS
10
0.104277
20
0.608671
11
0.103955
21
0.609449
0
LINE
8
BLACK
6
CONTINUOUS
10
0.103955
20
0.609449
11
0.104277
21
0.610227
0
LINE
8
BLACK
6
CONTINUOUS
10
0.104277
20
0.610227
11
0.105055
21
0.610549
0
LINE
8
BLACK
6
CONTINUOUS
10
0.105055
20
0.610549
11
0.207047
21
0.610549
0
LINE
8
BLACK
6
CONTINUOUS
10
0.207047
20
0.610549
11
0.207047
21
1.69103
0
LINE
8
BLACK
6
CONTINUOUS
10
0.207047
20
1.69103
11
0.105299
21
1.69103
0
LINE
8
BLACK
6
CONTINUOUS
10
0.105299
20
1.69103
11
0.104521
21
1.69135
0
LINE
8
BLACK
6
CONTINUOUS
10
0.104521
20
1.69135
11
0.104199
21
1.69213
0
LINE
8
BLACK
6
CONTINUOUS
10
0.104199
20
1.69213
11
0.104521
21
1.6929
0
LINE
8
BLACK
6
CONTINUOUS
10
0.104521
20
1.6929
11
0.105299
21
1.69323
0
LINE
8
BLACK
6
CONTINUOUS
10
0.105299
20
1.69323
11
0.207047
21
1.69323
0
LINE
8
BLACK
6
CONTINUOUS
10
0.207047
20
1.69323
11
0.207047
21
2.19
0
LINE
8
BLACK
6
CONTINUOUS
10
0.207047
20
2.19
11
0.207115
21
2.19038
0
LINE
8
BLACK
6
CONTINUOUS
10
0.207115
20
2.19038
11
0.207092
21
2.19051
0
LINE
8
BLACK
6
CONTINUOUS
10
0.207092
20
2.19051
11
0.207158
21
2.19063
0
LINE
8
BLACK
6
CONTINUOUS
10
0.207158
20
2.19063
11
0.207225
21
2.19101
0
LINE
8
BLACK
6
CONTINUOUS
10
0.207225
20
2.19101
11
0.207718
21
2.1916
0
LINE
8
BLACK
6
CONTINUOUS
10
0.207718
20
2.1916
11
0.208102
21
2.19226
0
LINE
8
BLACK
6
CONTINUOUS
10
0.208102
20
2.19226
11
0.208352
21
2.19235
0
LINE
8
BLACK
6
CONTINUOUS
10
0.208352
20
2.19235
11
0.208524
21
2.19256
0
LINE
8
BLACK
6
CONTINUOUS
10
0.208524
20
2.19256
11
0.209279
21
2.19269
0
LINE
8
BLACK
6
CONTINUOUS
10
0.209279
20
2.19269
11
0.21
21
2.19295
0
LINE
8
BLACK
6
CONTINUOUS
10
0.21
20
2.19295
11
0.9989
21
2.19295
0
LINE
8
BLACK
6
CONTINUOUS
10
0.9989
20
2.19295
11
0.9989
21
2.29449
0
LINE
8
BLACK
6
CONTINUOUS
10
0.9989
20
2.29449
11
0.999222
21
2.29527
0
LINE
8
BLACK
6
CONTINUOUS
10
0.999222
20
2.29527
11
1
21
2.29559
0
LINE
8
BLACK
6
CONTINUOUS
10
1
20
2.29559
11
1.00078
21
2.29527
0
LINE
8
BLACK
6
CONTINUOUS
10
0.212953
20
2.18705
11
0.212953
21
0.212953
0
LINE
8
BLACK
6
CONTINUOUS
10
0.212953
20
0.212953
11
1.78705
21
0.212953
0
LINE
8
BLACK
6
CONTINUOUS
10
1.78705
20
0.212953
11
1.78705
21
2.18705
0
LINE
8
BLACK
6
CONTINUOUS
10
1.78705
20
2.18705
11
0.212953
21
2.18705
  0
ENDSEC
  0
EOF
