  0
SECTION
  2
HEADER
  9
$ANGBASE
  50
0.0
  9
$ANGDIR
  70
1
  9
$MEASUREMENT
  70
0
  0
ENDSEC
  0
SECTION
  2
TABLES
  0
TABLE
  2
LTYPE
  70
4
  0
LTYPE
  5
40F
  2
CONTINUOUS
  70
0
  3
Solid line
  72
65
  73
0
  40
0.0
  0
LTYPE
  5
410
  2
DASHDOT
 70
0
  3
Dash Dot ____ _ ____ _
 72
65
 73
4
 40
2.0
 49
1.25
 49
-0.25
 49
0.25
 49
-0.25
  0
LTYPE
  5
411
  2
DASHED
 70
0
  3
Dashed __ __ __ __ __
 72
65
 73
2
 40
0.75
 49
0.5
 49
-0.25
  0
LTYPE
  5
43B
  2
DOTTED
 70
0
  3
Dotted .  .  .  .
 72
65
 73
2
 40
0.2
 49
0.0
 49
-0.2
  0
ENDTAB
  0
TABLE
  2
STYLE
  70
4
  0
STYLE
  2
KICAD
  70
0
  40
0
  41
1
  42
1
  50
0
  71
0
  3
isocp.shx
  0
STYLE
  2
KICADB
  70
0
  40
0
  41
1
  42
1
  50
0
  71
0
  3
isocp.shx
  0
STYLE
  2
KICADI
  70
0
  40
0
  41
1
  42
1
  50
15
  71
0
  3
isocp.shx
  0
STYLE
  2
KICADBI
  70
0
  40
0
  41
1
  42
1
  50
15
  71
0
  3
isocp.shx
  0
ENDTAB
  0
TABLE
  2
LAYER
  70
1
  0
LAYER
  2
BLACK
  70
0
  62
7
  6
CONTINUOUS
  0
ENDTAB
  0
ENDSEC
  0
SECTION
  2
ENTITIES
0
LINE
8
BLACK
6
CONTINUOUS
10
1.26624
20
0.540945
11
1.26694
21
0.540657
0
LINE
8
BLACK
6
CONTINUOUS
10
1.26694
20
0.540657
11
1.26722
21
0.539961
0
LINE
8
BLACK
6
CONTINUOUS
10
1.26722
20
0.539961
11
1.26722
21
0.208071
0
LINE
8
BLACK
6
CONTINUOUS
10
1.26722
20
0.208071
11
1.26694
21
0.207375
0
LINE
8
BLACK
6
CONTINUOUS
10
1.26694
20
0.207375
11
1.26624
21
0.207087
0
LINE
8
BLACK
6
CONTINUOUS
10
1.26624
20
0.207087
11
0.864665
21
0.207087
0
LINE
8
BLACK
6
CONTINUOUS
10
0.864665
20
0.207087
11
0.863969
21
0.207375
0
LINE
8
BLACK
6
CONTINUOUS
10
0.863969
20
0.207375
11
0.863681
21
0.208071
0
LINE
8
BLACK
6
CONTINUOUS
10
0.863681
20
0.208071
11
0.863681
21
0.208071
0
LINE
8
BLACK
6
CONTINUOUS
10
0.863681
20
0.208071
11
0.863681
21
0.539961
0
LINE
8
BLACK
6
CONTINUOUS
10
0.863681
20
0.539961
11
0.863969
21
0.540657
0
LINE
8
BLACK
6
CONTINUOUS
10
0.863969
20
0.540657
11
0.864665
21
0.540945
0
LINE
8
BLACK
6
CONTINUOUS
10
0.864665
20
0.540945
11
1.26624
21
0.540945
0
LINE
8
BLACK
6
CONTINUOUS
10
0.86565
20
0.538976
11
0.86565
21
0.209055
0
LINE
8
BLACK
6
CONTINUOUS
10
0.86565
20
0.209055
11
1.26526
21
0.209055
0
LINE
8
BLACK
6
CONTINUOUS
10
1.26526
20
0.209055
11
1.26526
21
0.538976
0
LINE
8
BLACK
6
CONTINUOUS
10
1.26526
20
0.538976
11
0.86565
21
0.538976
0
LINE
8
BLACK
6
CONTINUOUS
10
0.718898
20
0.486319
11
0.719594
21
0.486031
0
LINE
8
BLACK
6
CONTINUOUS
10
0.719594
20
0.486031
11
0.719882
21
0.485335
0
LINE
8
BLACK
6
CONTINUOUS
10
0.719882
20
0.485335
11
0.719882
21
0.353051
0
LINE
8
BLACK
6
CONTINUOUS
10
0.719882
20
0.353051
11
0.719594
21
0.352355
0
LINE
8
BLACK
6
CONTINUOUS
10
0.719594
20
0.352355
11
0.718898
21
0.352067
0
LINE
8
BLACK
6
CONTINUOUS
10
0.718898
20
0.352067
11
0.644094
21
0.352067
0
LINE
8
BLACK
6
CONTINUOUS
10
0.644094
20
0.352067
11
0.643399
21
0.352355
0
LINE
8
BLACK
6
CONTINUOUS
10
0.643399
20
0.352355
11
0.64311
21
0.353051
0
LINE
8
BLACK
6
CONTINUOUS
10
0.64311
20
0.353051
11
0.64311
21
0.485335
0
LINE
8
BLACK
6
CONTINUOUS
10
0.64311
20
0.485335
11
0.643399
21
0.486031
0
LINE
8
BLACK
6
CONTINUOUS
10
0.643399
20
0.486031
11
0.644094
21
0.486319
0
LINE
8
BLACK
6
CONTINUOUS
10
0.644094
20
0.486319
11
0.718898
21
0.486319
0
LINE
8
BLACK
6
CONTINUOUS
10
0.645079
20
0.48435
11
0.645079
21
0.354035
0
LINE
8
BLACK
6
CONTINUOUS
10
0.645079
20
0.354035
11
0.717913
21
0.354035
0
LINE
8
BLACK
6
CONTINUOUS
10
0.717913
20
0.354035
11
0.717913
21
0.48435
0
LINE
8
BLACK
6
CONTINUOUS
10
0.717913
20
0.48435
11
0.645079
21
0.48435
0
LINE
8
BLACK
6
CONTINUOUS
10
0.638583
20
0.486713
11
0.639279
21
0.486424
0
LINE
8
BLACK
6
CONTINUOUS
10
0.639279
20
0.486424
11
0.639567
21
0.485728
0
LINE
8
BLACK
6
CONTINUOUS
10
0.639567
20
0.485728
11
0.639567
21
0.353445
0
LINE
8
BLACK
6
CONTINUOUS
10
0.639567
20
0.353445
11
0.639279
21
0.352749
0
LINE
8
BLACK
6
CONTINUOUS
10
0.639279
20
0.352749
11
0.638583
21
0.352461
0
LINE
8
BLACK
6
CONTINUOUS
10
0.638583
20
0.352461
11
0.56378
21
0.352461
0
LINE
8
BLACK
6
CONTINUOUS
10
0.56378
20
0.352461
11
0.563084
21
0.352749
0
LINE
8
BLACK
6
CONTINUOUS
10
0.563084
20
0.352749
11
0.562795
21
0.353445
0
LINE
8
BLACK
6
CONTINUOUS
10
0.562795
20
0.353445
11
0.562795
21
0.485728
0
LINE
8
BLACK
6
CONTINUOUS
10
0.562795
20
0.485728
11
0.563084
21
0.486424
0
LINE
8
BLACK
6
CONTINUOUS
10
0.563084
20
0.486424
11
0.56378
21
0.486713
0
LINE
8
BLACK
6
CONTINUOUS
10
0.56378
20
0.486713
11
0.638583
21
0.486713
0
LINE
8
BLACK
6
CONTINUOUS
10
0.564764
20
0.484744
11
0.564764
21
0.354429
0
LINE
8
BLACK
6
CONTINUOUS
10
0.564764
20
0.354429
11
0.637598
21
0.354429
0
LINE
8
BLACK
6
CONTINUOUS
10
0.637598
20
0.354429
11
0.637598
21
0.484744
0
LINE
8
BLACK
6
CONTINUOUS
10
0.637598
20
0.484744
11
0.564764
21
0.484744
0
LINE
8
BLACK
6
CONTINUOUS
10
0.768504
20
0.62372
11
0.7692
21
0.623432
0
LINE
8
BLACK
6
CONTINUOUS
10
0.7692
20
0.623432
11
0.769488
21
0.622736
0
LINE
8
BLACK
6
CONTINUOUS
10
0.769488
20
0.622736
11
0.769488
21
0.490453
0
LINE
8
BLACK
6
CONTINUOUS
10
0.769488
20
0.490453
11
0.7692
21
0.489757
0
LINE
8
BLACK
6
CONTINUOUS
10
0.7692
20
0.489757
11
0.768504
21
0.489469
0
LINE
8
BLACK
6
CONTINUOUS
10
0.768504
20
0.489469
11
0.693701
21
0.489469
0
LINE
8
BLACK
6
CONTINUOUS
10
0.693701
20
0.489469
11
0.693005
21
0.489757
0
LINE
8
BLACK
6
CONTINUOUS
10
0.693005
20
0.489757
11
0.692717
21
0.490453
0
LINE
8
BLACK
6
CONTINUOUS
10
0.692717
20
0.490453
11
0.692717
21
0.622736
0
LINE
8
BLACK
6
CONTINUOUS
10
0.692717
20
0.622736
11
0.693005
21
0.623432
0
LINE
8
BLACK
6
CONTINUOUS
10
0.693005
20
0.623432
11
0.693701
21
0.62372
0
LINE
8
BLACK
6
CONTINUOUS
10
0.693701
20
0.62372
11
0.768504
21
0.62372
0
LINE
8
BLACK
6
CONTINUOUS
10
0.694685
20
0.621752
11
0.694685
21
0.491437
0
LINE
8
BLACK
6
CONTINUOUS
10
0.694685
20
0.491437
11
0.76752
21
0.491437
0
LINE
8
BLACK
6
CONTINUOUS
10
0.76752
20
0.491437
11
0.76752
21
0.621752
0
LINE
8
BLACK
6
CONTINUOUS
10
0.76752
20
0.621752
11
0.694685
21
0.621752
0
LINE
8
BLACK
6
CONTINUOUS
10
0.604724
20
0.623917
11
0.60542
21
0.623629
0
LINE
8
BLACK
6
CONTINUOUS
10
0.60542
20
0.623629
11
0.605709
21
0.622933
0
LINE
8
BLACK
6
CONTINUOUS
10
0.605709
20
0.622933
11
0.605709
21
0.49065
0
LINE
8
BLACK
6
CONTINUOUS
10
0.605709
20
0.49065
11
0.60542
21
0.489954
0
LINE
8
BLACK
6
CONTINUOUS
10
0.60542
20
0.489954
11
0.604724
21
0.489665
0
LINE
8
BLACK
6
CONTINUOUS
10
0.604724
20
0.489665
11
0.529921
21
0.489665
0
LINE
8
BLACK
6
CONTINUOUS
10
0.529921
20
0.489665
11
0.529225
21
0.489954
0
LINE
8
BLACK
6
CONTINUOUS
10
0.529225
20
0.489954
11
0.528937
21
0.49065
0
LINE
8
BLACK
6
CONTINUOUS
10
0.528937
20
0.49065
11
0.528937
21
0.622933
0
LINE
8
BLACK
6
CONTINUOUS
10
0.528937
20
0.622933
11
0.529225
21
0.623629
0
LINE
8
BLACK
6
CONTINUOUS
10
0.529225
20
0.623629
11
0.529921
21
0.623917
0
LINE
8
BLACK
6
CONTINUOUS
10
0.529921
20
0.623917
11
0.604724
21
0.623917
0
LINE
8
BLACK
6
CONTINUOUS
10
0.530906
20
0.621949
11
0.530906
21
0.491634
0
LINE
8
BLACK
6
CONTINUOUS
10
0.530906
20
0.491634
11
0.60374
21
0.491634
0
LINE
8
BLACK
6
CONTINUOUS
10
0.60374
20
0.491634
11
0.60374
21
0.621949
0
LINE
8
BLACK
6
CONTINUOUS
10
0.60374
20
0.621949
11
0.530906
21
0.621949
0
LINE
8
BLACK
6
CONTINUOUS
10
0.68622
20
0.623917
11
0.686916
21
0.623629
0
LINE
8
BLACK
6
CONTINUOUS
10
0.686916
20
0.623629
11
0.687205
21
0.622933
0
LINE
8
BLACK
6
CONTINUOUS
10
0.687205
20
0.622933
11
0.687205
21
0.49065
0
LINE
8
BLACK
6
CONTINUOUS
10
0.687205
20
0.49065
11
0.686916
21
0.489954
0
LINE
8
BLACK
6
CONTINUOUS
10
0.686916
20
0.489954
11
0.68622
21
0.489665
0
LINE
8
BLACK
6
CONTINUOUS
10
0.68622
20
0.489665
11
0.611417
21
0.489665
0
LINE
8
BLACK
6
CONTINUOUS
10
0.611417
20
0.489665
11
0.610721
21
0.489954
0
LINE
8
BLACK
6
CONTINUOUS
10
0.610721
20
0.489954
11
0.610433
21
0.49065
0
LINE
8
BLACK
6
CONTINUOUS
10
0.610433
20
0.49065
11
0.610433
21
0.622933
0
LINE
8
BLACK
6
CONTINUOUS
10
0.610433
20
0.622933
11
0.610721
21
0.623629
0
LINE
8
BLACK
6
CONTINUOUS
10
0.610721
20
0.623629
11
0.611417
21
0.623917
0
LINE
8
BLACK
6
CONTINUOUS
10
0.611417
20
0.623917
11
0.68622
21
0.623917
0
LINE
8
BLACK
6
CONTINUOUS
10
0.612402
20
0.621949
11
0.612402
21
0.491634
0
LINE
8
BLACK
6
CONTINUOUS
10
0.612402
20
0.491634
11
0.685236
21
0.491634
0
LINE
8
BLACK
6
CONTINUOUS
10
0.685236
20
0.491634
11
0.685236
21
0.621949
0
LINE
8
BLACK
6
CONTINUOUS
10
0.685236
20
0.621949
11
0.612402
21
0.621949
0
LINE
8
BLACK
6
CONTINUOUS
10
1.46821
20
0.573819
11
1.4689
21
0.573531
0
LINE
8
BLACK
6
CONTINUOUS
10
1.4689
20
0.573531
11
1.46919
21
0.572835
0
LINE
8
BLACK
6
CONTINUOUS
10
1.46919
20
0.572835
11
1.46919
21
0.498031
0
LINE
8
BLACK
6
CONTINUOUS
10
1.46919
20
0.498031
11
1.4689
21
0.497336
0
LINE
8
BLACK
6
CONTINUOUS
10
1.4689
20
0.497336
11
1.46821
21
0.497047
0
LINE
8
BLACK
6
CONTINUOUS
10
1.46821
20
0.497047
11
1.33593
21
0.497047
0
LINE
8
BLACK
6
CONTINUOUS
10
1.33593
20
0.497047
11
1.33523
21
0.497336
0
LINE
8
BLACK
6
CONTINUOUS
10
1.33523
20
0.497336
11
1.33494
21
0.498031
0
LINE
8
BLACK
6
CONTINUOUS
10
1.33494
20
0.498031
11
1.33494
21
0.572835
0
LINE
8
BLACK
6
CONTINUOUS
10
1.33494
20
0.572835
11
1.33523
21
0.573531
0
LINE
8
BLACK
6
CONTINUOUS
10
1.33523
20
0.573531
11
1.33593
21
0.573819
0
LINE
8
BLACK
6
CONTINUOUS
10
1.33593
20
0.573819
11
1.46821
21
0.573819
0
LINE
8
BLACK
6
CONTINUOUS
10
1.33691
20
0.57185
11
1.33691
21
0.499016
0
LINE
8
BLACK
6
CONTINUOUS
10
1.33691
20
0.499016
11
1.46722
21
0.499016
0
LINE
8
BLACK
6
CONTINUOUS
10
1.46722
20
0.499016
11
1.46722
21
0.57185
0
LINE
8
BLACK
6
CONTINUOUS
10
1.46722
20
0.57185
11
1.33691
21
0.57185
0
LINE
8
BLACK
6
CONTINUOUS
10
0.485827
20
0.688484
11
0.486523
21
0.688196
0
LINE
8
BLACK
6
CONTINUOUS
10
0.486523
20
0.688196
11
0.486811
21
0.6875
0
LINE
8
BLACK
6
CONTINUOUS
10
0.486811
20
0.6875
11
0.486811
21
0.555217
0
LINE
8
BLACK
6
CONTINUOUS
10
0.486811
20
0.555217
11
0.486523
21
0.554521
0
LINE
8
BLACK
6
CONTINUOUS
10
0.486523
20
0.554521
11
0.485827
21
0.554232
0
LINE
8
BLACK
6
CONTINUOUS
10
0.485827
20
0.554232
11
0.411024
21
0.554232
0
LINE
8
BLACK
6
CONTINUOUS
10
0.411024
20
0.554232
11
0.410328
21
0.554521
0
LINE
8
BLACK
6
CONTINUOUS
10
0.410328
20
0.554521
11
0.410039
21
0.555217
0
LINE
8
BLACK
6
CONTINUOUS
10
0.410039
20
0.555217
11
0.410039
21
0.6875
0
LINE
8
BLACK
6
CONTINUOUS
10
0.410039
20
0.6875
11
0.410328
21
0.688196
0
LINE
8
BLACK
6
CONTINUOUS
10
0.410328
20
0.688196
11
0.411024
21
0.688484
0
LINE
8
BLACK
6
CONTINUOUS
10
0.411024
20
0.688484
11
0.485827
21
0.688484
0
LINE
8
BLACK
6
CONTINUOUS
10
0.412008
20
0.686516
11
0.412008
21
0.556201
0
LINE
8
BLACK
6
CONTINUOUS
10
0.412008
20
0.556201
11
0.484843
21
0.556201
0
LINE
8
BLACK
6
CONTINUOUS
10
0.484843
20
0.556201
11
0.484843
21
0.686516
0
LINE
8
BLACK
6
CONTINUOUS
10
0.484843
20
0.686516
11
0.412008
21
0.686516
0
LINE
8
BLACK
6
CONTINUOUS
10
0.331496
20
0.689665
11
0.332192
21
0.689377
0
LINE
8
BLACK
6
CONTINUOUS
10
0.332192
20
0.689377
11
0.33248
21
0.688681
0
LINE
8
BLACK
6
CONTINUOUS
10
0.33248
20
0.688681
11
0.33248
21
0.556398
0
LINE
8
BLACK
6
CONTINUOUS
10
0.33248
20
0.556398
11
0.332192
21
0.555702
0
LINE
8
BLACK
6
CONTINUOUS
10
0.332192
20
0.555702
11
0.331496
21
0.555413
0
LINE
8
BLACK
6
CONTINUOUS
10
0.331496
20
0.555413
11
0.256693
21
0.555413
0
LINE
8
BLACK
6
CONTINUOUS
10
0.256693
20
0.555413
11
0.255997
21
0.555702
0
LINE
8
BLACK
6
CONTINUOUS
10
0.255997
20
0.555702
11
0.255709
21
0.556398
0
LINE
8
BLACK
6
CONTINUOUS
10
0.255709
20
0.556398
11
0.255709
21
0.688681
0
LINE
8
BLACK
6
CONTINUOUS
10
0.255709
20
0.688681
11
0.255997
21
0.689377
0
LINE
8
BLACK
6
CONTINUOUS
10
0.255997
20
0.689377
11
0.256693
21
0.689665
0
LINE
8
BLACK
6
CONTINUOUS
10
0.256693
20
0.689665
11
0.331496
21
0.689665
0
LINE
8
BLACK
6
CONTINUOUS
10
0.257677
20
0.687697
11
0.257677
21
0.557382
0
LINE
8
BLACK
6
CONTINUOUS
10
0.257677
20
0.557382
11
0.330512
21
0.557382
0
LINE
8
BLACK
6
CONTINUOUS
10
0.330512
20
0.557382
11
0.330512
21
0.687697
0
LINE
8
BLACK
6
CONTINUOUS
10
0.330512
20
0.687697
11
0.257677
21
0.687697
0
LINE
8
BLACK
6
CONTINUOUS
10
1.49587
20
0.790945
11
1.49656
21
0.790657
0
LINE
8
BLACK
6
CONTINUOUS
10
1.49656
20
0.790657
11
1.49685
21
0.789961
0
LINE
8
BLACK
6
CONTINUOUS
10
1.49685
20
0.789961
11
1.49685
21
0.577362
0
LINE
8
BLACK
6
CONTINUOUS
10
1.49685
20
0.577362
11
1.49656
21
0.576666
0
LINE
8
BLACK
6
CONTINUOUS
10
1.49656
20
0.576666
11
1.49587
21
0.576378
0
LINE
8
BLACK
6
CONTINUOUS
10
1.49587
20
0.576378
11
1.20453
21
0.576378
0
LINE
8
BLACK
6
CONTINUOUS
10
1.20453
20
0.576378
11
1.20383
21
0.576666
0
LINE
8
BLACK
6
CONTINUOUS
10
1.20383
20
0.576666
11
1.20354
21
0.577362
0
LINE
8
BLACK
6
CONTINUOUS
10
1.20354
20
0.577362
11
1.20354
21
0.789961
0
LINE
8
BLACK
6
CONTINUOUS
10
1.20354
20
0.789961
11
1.20383
21
0.790657
0
LINE
8
BLACK
6
CONTINUOUS
10
1.20383
20
0.790657
11
1.20453
21
0.790945
0
LINE
8
BLACK
6
CONTINUOUS
10
1.20453
20
0.790945
11
1.49587
21
0.790945
0
LINE
8
BLACK
6
CONTINUOUS
10
1.20551
20
0.788976
11
1.20551
21
0.578346
0
LINE
8
BLACK
6
CONTINUOUS
10
1.20551
20
0.578346
11
1.49488
21
0.578346
0
LINE
8
BLACK
6
CONTINUOUS
10
1.49488
20
0.578346
11
1.49488
21
0.788976
0
LINE
8
BLACK
6
CONTINUOUS
10
1.49488
20
0.788976
11
1.20551
21
0.788976
0
LINE
8
BLACK
6
CONTINUOUS
10
1.12008
20
0.857972
11
1.12077
21
0.857684
0
LINE
8
BLACK
6
CONTINUOUS
10
1.12077
20
0.857684
11
1.12106
21
0.856988
0
LINE
8
BLACK
6
CONTINUOUS
10
1.12106
20
0.856988
11
1.12106
21
0.724705
0
LINE
8
BLACK
6
CONTINUOUS
10
1.12106
20
0.724705
11
1.12077
21
0.724009
0
LINE
8
BLACK
6
CONTINUOUS
10
1.12077
20
0.724009
11
1.12008
21
0.72372
0
LINE
8
BLACK
6
CONTINUOUS
10
1.12008
20
0.72372
11
1.04528
21
0.72372
0
LINE
8
BLACK
6
CONTINUOUS
10
1.04528
20
0.72372
11
1.04458
21
0.724009
0
LINE
8
BLACK
6
CONTINUOUS
10
1.04458
20
0.724009
11
1.04429
21
0.724705
0
LINE
8
BLACK
6
CONTINUOUS
10
1.04429
20
0.724705
11
1.04429
21
0.856988
0
LINE
8
BLACK
6
CONTINUOUS
10
1.04429
20
0.856988
11
1.04458
21
0.857684
0
LINE
8
BLACK
6
CONTINUOUS
10
1.04458
20
0.857684
11
1.04528
21
0.857972
0
LINE
8
BLACK
6
CONTINUOUS
10
1.04528
20
0.857972
11
1.12008
21
0.857972
0
LINE
8
BLACK
6
CONTINUOUS
10
1.04626
20
0.856004
11
1.04626
21
0.725689
0
LINE
8
BLACK
6
CONTINUOUS
10
1.04626
20
0.725689
11
1.11909
21
0.725689
0
LINE
8
BLACK
6
CONTINUOUS
10
1.11909
20
0.725689
11
1.11909
21
0.856004
0
LINE
8
BLACK
6
CONTINUOUS
10
1.11909
20
0.856004
11
1.04626
21
0.856004
0
LINE
8
BLACK
6
CONTINUOUS
10
1.19882
20
0.857972
11
1.19951
21
0.857684
0
LINE
8
BLACK
6
CONTINUOUS
10
1.19951
20
0.857684
11
1.1998
21
0.856988
0
LINE
8
BLACK
6
CONTINUOUS
10
1.1998
20
0.856988
11
1.1998
21
0.724705
0
LINE
8
BLACK
6
CONTINUOUS
10
1.1998
20
0.724705
11
1.19951
21
0.724009
0
LINE
8
BLACK
6
CONTINUOUS
10
1.19951
20
0.724009
11
1.19882
21
0.72372
0
LINE
8
BLACK
6
CONTINUOUS
10
1.19882
20
0.72372
11
1.12402
21
0.72372
0
LINE
8
BLACK
6
CONTINUOUS
10
1.12402
20
0.72372
11
1.12332
21
0.724009
0
LINE
8
BLACK
6
CONTINUOUS
10
1.12332
20
0.724009
11
1.12303
21
0.724705
0
LINE
8
BLACK
6
CONTINUOUS
10
1.12303
20
0.724705
11
1.12303
21
0.856988
0
LINE
8
BLACK
6
CONTINUOUS
10
1.12303
20
0.856988
11
1.12332
21
0.857684
0
LINE
8
BLACK
6
CONTINUOUS
10
1.12332
20
0.857684
11
1.12402
21
0.857972
0
LINE
8
BLACK
6
CONTINUOUS
10
1.12402
20
0.857972
11
1.19882
21
0.857972
0
LINE
8
BLACK
6
CONTINUOUS
10
1.125
20
0.856004
11
1.125
21
0.725689
0
LINE
8
BLACK
6
CONTINUOUS
10
1.125
20
0.725689
11
1.19783
21
0.725689
0
LINE
8
BLACK
6
CONTINUOUS
10
1.19783
20
0.725689
11
1.19783
21
0.856004
0
LINE
8
BLACK
6
CONTINUOUS
10
1.19783
20
0.856004
11
1.125
21
0.856004
0
LINE
8
BLACK
6
CONTINUOUS
10
1.41535
20
0.925886
11
1.41605
21
0.925598
0
LINE
8
BLACK
6
CONTINUOUS
10
1.41605
20
0.925598
11
1.41634
21
0.924902
0
LINE
8
BLACK
6
CONTINUOUS
10
1.41634
20
0.924902
11
1.41634
21
0.792618
0
LINE
8
BLACK
6
CONTINUOUS
10
1.41634
20
0.792618
11
1.41605
21
0.791922
0
LINE
8
BLACK
6
CONTINUOUS
10
1.41605
20
0.791922
11
1.41535
21
0.791634
0
LINE
8
BLACK
6
CONTINUOUS
10
1.41535
20
0.791634
11
1.34055
21
0.791634
0
LINE
8
BLACK
6
CONTINUOUS
10
1.34055
20
0.791634
11
1.33986
21
0.791922
0
LINE
8
BLACK
6
CONTINUOUS
10
1.33986
20
0.791922
11
1.33957
21
0.792618
0
LINE
8
BLACK
6
CONTINUOUS
10
1.33957
20
0.792618
11
1.33957
21
0.924902
0
LINE
8
BLACK
6
CONTINUOUS
10
1.33957
20
0.924902
11
1.33986
21
0.925598
0
LINE
8
BLACK
6
CONTINUOUS
10
1.33986
20
0.925598
11
1.34055
21
0.925886
0
LINE
8
BLACK
6
CONTINUOUS
10
1.34055
20
0.925886
11
1.41535
21
0.925886
0
LINE
8
BLACK
6
CONTINUOUS
10
1.34154
20
0.923917
11
1.34154
21
0.793602
0
LINE
8
BLACK
6
CONTINUOUS
10
1.34154
20
0.793602
11
1.41437
21
0.793602
0
LINE
8
BLACK
6
CONTINUOUS
10
1.41437
20
0.793602
11
1.41437
21
0.923917
0
LINE
8
BLACK
6
CONTINUOUS
10
1.41437
20
0.923917
11
1.34154
21
0.923917
0
LINE
8
BLACK
6
CONTINUOUS
10
1.49528
20
0.92815
11
1.49597
21
0.927861
0
LINE
8
BLACK
6
CONTINUOUS
10
1.49597
20
0.927861
11
1.49626
21
0.927165
0
LINE
8
BLACK
6
CONTINUOUS
10
1.49626
20
0.927165
11
1.49626
21
0.793307
0
LINE
8
BLACK
6
CONTINUOUS
10
1.49626
20
0.793307
11
1.49597
21
0.792611
0
LINE
8
BLACK
6
CONTINUOUS
10
1.49597
20
0.792611
11
1.49528
21
0.792323
0
LINE
8
BLACK
6
CONTINUOUS
10
1.49528
20
0.792323
11
1.41811
21
0.792323
0
LINE
8
BLACK
6
CONTINUOUS
10
1.41811
20
0.792323
11
1.41741
21
0.792611
0
LINE
8
BLACK
6
CONTINUOUS
10
1.41741
20
0.792611
11
1.41713
21
0.793307
0
LINE
8
BLACK
6
CONTINUOUS
10
1.41713
20
0.793307
11
1.41713
21
0.927165
0
LINE
8
BLACK
6
CONTINUOUS
10
1.41713
20
0.927165
11
1.41741
21
0.927861
0
LINE
8
BLACK
6
CONTINUOUS
10
1.41741
20
0.927861
11
1.41811
21
0.92815
0
LINE
8
BLACK
6
CONTINUOUS
10
1.41811
20
0.92815
11
1.49528
21
0.92815
0
LINE
8
BLACK
6
CONTINUOUS
10
1.41909
20
0.926181
11
1.41909
21
0.794291
0
LINE
8
BLACK
6
CONTINUOUS
10
1.41909
20
0.794291
11
1.49429
21
0.794291
0
LINE
8
BLACK
6
CONTINUOUS
10
1.49429
20
0.794291
11
1.49429
21
0.926181
0
LINE
8
BLACK
6
CONTINUOUS
10
1.49429
20
0.926181
11
1.41909
21
0.926181
0
LINE
8
BLACK
6
CONTINUOUS
10
1.33661
20
0.929331
11
1.33731
21
0.929042
0
LINE
8
BLACK
6
CONTINUOUS
10
1.33731
20
0.929042
11
1.3376
21
0.928346
0
LINE
8
BLACK
6
CONTINUOUS
10
1.3376
20
0.928346
11
1.3376
21
0.796063
0
LINE
8
BLACK
6
CONTINUOUS
10
1.3376
20
0.796063
11
1.33731
21
0.795367
0
LINE
8
BLACK
6
CONTINUOUS
10
1.33731
20
0.795367
11
1.33661
21
0.795079
0
LINE
8
BLACK
6
CONTINUOUS
10
1.33661
20
0.795079
11
1.26181
21
0.795079
0
LINE
8
BLACK
6
CONTINUOUS
10
1.26181
20
0.795079
11
1.26112
21
0.795367
0
LINE
8
BLACK
6
CONTINUOUS
10
1.26112
20
0.795367
11
1.26083
21
0.796063
0
LINE
8
BLACK
6
CONTINUOUS
10
1.26083
20
0.796063
11
1.26083
21
0.928346
0
LINE
8
BLACK
6
CONTINUOUS
10
1.26083
20
0.928346
11
1.26112
21
0.929042
0
LINE
8
BLACK
6
CONTINUOUS
10
1.26112
20
0.929042
11
1.26181
21
0.929331
0
LINE
8
BLACK
6
CONTINUOUS
10
1.26181
20
0.929331
11
1.33661
21
0.929331
0
LINE
8
BLACK
6
CONTINUOUS
10
1.2628
20
0.927362
11
1.2628
21
0.797047
0
LINE
8
BLACK
6
CONTINUOUS
10
1.2628
20
0.797047
11
1.33563
21
0.797047
0
LINE
8
BLACK
6
CONTINUOUS
10
1.33563
20
0.797047
11
1.33563
21
0.927362
0
LINE
8
BLACK
6
CONTINUOUS
10
1.33563
20
0.927362
11
1.2628
21
0.927362
0
LINE
8
BLACK
6
CONTINUOUS
10
1.10709
20
0.979331
11
1.10778
21
0.979042
0
LINE
8
BLACK
6
CONTINUOUS
10
1.10778
20
0.979042
11
1.10807
21
0.978346
0
LINE
8
BLACK
6
CONTINUOUS
10
1.10807
20
0.978346
11
1.10807
21
0.901181
0
LINE
8
BLACK
6
CONTINUOUS
10
1.10807
20
0.901181
11
1.10778
21
0.900485
0
LINE
8
BLACK
6
CONTINUOUS
10
1.10778
20
0.900485
11
1.10709
21
0.900197
0
LINE
8
BLACK
6
CONTINUOUS
10
1.10709
20
0.900197
11
0.973228
21
0.900197
0
LINE
8
BLACK
6
CONTINUOUS
10
0.973228
20
0.900197
11
0.972532
21
0.900485
0
LINE
8
BLACK
6
CONTINUOUS
10
0.972532
20
0.900485
11
0.972244
21
0.901181
0
LINE
8
BLACK
6
CONTINUOUS
10
0.972244
20
0.901181
11
0.972244
21
0.978346
0
LINE
8
BLACK
6
CONTINUOUS
10
0.972244
20
0.978346
11
0.972532
21
0.979042
0
LINE
8
BLACK
6
CONTINUOUS
10
0.972532
20
0.979042
11
0.973228
21
0.979331
0
LINE
8
BLACK
6
CONTINUOUS
10
0.973228
20
0.979331
11
1.10709
21
0.979331
0
LINE
8
BLACK
6
CONTINUOUS
10
0.974213
20
0.977362
11
0.974213
21
0.902165
0
LINE
8
BLACK
6
CONTINUOUS
10
0.974213
20
0.902165
11
1.1061
21
0.902165
0
LINE
8
BLACK
6
CONTINUOUS
10
1.1061
20
0.902165
11
1.1061
21
0.977362
0
LINE
8
BLACK
6
CONTINUOUS
10
1.1061
20
0.977362
11
0.974213
21
0.977362
0
LINE
8
BLACK
6
CONTINUOUS
10
1.18898
20
1.03602
11
1.18967
21
1.03574
0
LINE
8
BLACK
6
CONTINUOUS
10
1.18967
20
1.03574
11
1.18996
21
1.03504
0
LINE
8
BLACK
6
CONTINUOUS
10
1.18996
20
1.03504
11
1.18996
21
0.901181
0
LINE
8
BLACK
6
CONTINUOUS
10
1.18996
20
0.901181
11
1.18967
21
0.900485
0
LINE
8
BLACK
6
CONTINUOUS
10
1.18967
20
0.900485
11
1.18898
21
0.900197
0
LINE
8
BLACK
6
CONTINUOUS
10
1.18898
20
0.900197
11
1.11181
21
0.900197
0
LINE
8
BLACK
6
CONTINUOUS
10
1.11181
20
0.900197
11
1.11112
21
0.900485
0
LINE
8
BLACK
6
CONTINUOUS
10
1.11112
20
0.900485
11
1.11083
21
0.901181
0
LINE
8
BLACK
6
CONTINUOUS
10
1.11083
20
0.901181
11
1.11083
21
1.03504
0
LINE
8
BLACK
6
CONTINUOUS
10
1.11083
20
1.03504
11
1.11112
21
1.03574
0
LINE
8
BLACK
6
CONTINUOUS
10
1.11112
20
1.03574
11
1.11181
21
1.03602
0
LINE
8
BLACK
6
CONTINUOUS
10
1.11181
20
1.03602
11
1.18898
21
1.03602
0
LINE
8
BLACK
6
CONTINUOUS
10
1.1128
20
1.03406
11
1.1128
21
0.902165
0
LINE
8
BLACK
6
CONTINUOUS
10
1.1128
20
0.902165
11
1.18799
21
0.902165
0
LINE
8
BLACK
6
CONTINUOUS
10
1.18799
20
0.902165
11
1.18799
21
1.03406
0
LINE
8
BLACK
6
CONTINUOUS
10
1.18799
20
1.03406
11
1.1128
21
1.03406
0
LINE
8
BLACK
6
CONTINUOUS
10
1.12776
20
1.24685
11
1.12845
21
1.24656
0
LINE
8
BLACK
6
CONTINUOUS
10
1.12845
20
1.24656
11
1.12874
21
1.24587
0
LINE
8
BLACK
6
CONTINUOUS
10
1.12874
20
1.24587
11
1.12874
21
1.03957
0
LINE
8
BLACK
6
CONTINUOUS
10
1.12874
20
1.03957
11
1.12845
21
1.03887
0
LINE
8
BLACK
6
CONTINUOUS
10
1.12845
20
1.03887
11
1.12776
21
1.03858
0
LINE
8
BLACK
6
CONTINUOUS
10
1.12776
20
1.03858
11
0.921457
21
1.03858
0
LINE
8
BLACK
6
CONTINUOUS
10
0.921457
20
1.03858
11
0.920761
21
1.03887
0
LINE
8
BLACK
6
CONTINUOUS
10
0.920761
20
1.03887
11
0.920472
21
1.03957
0
LINE
8
BLACK
6
CONTINUOUS
10
0.920472
20
1.03957
11
0.920472
21
1.03957
0
LINE
8
BLACK
6
CONTINUOUS
10
0.920472
20
1.03957
11
0.920472
21
1.24587
0
LINE
8
BLACK
6
CONTINUOUS
10
0.920472
20
1.24587
11
0.920761
21
1.24656
0
LINE
8
BLACK
6
CONTINUOUS
10
0.920761
20
1.24656
11
0.921457
21
1.24685
0
LINE
8
BLACK
6
CONTINUOUS
10
0.921457
20
1.24685
11
1.12776
21
1.24685
0
LINE
8
BLACK
6
CONTINUOUS
10
0.922441
20
1.24488
11
0.922441
21
1.04055
0
LINE
8
BLACK
6
CONTINUOUS
10
0.922441
20
1.04055
11
1.12677
21
1.04055
0
LINE
8
BLACK
6
CONTINUOUS
10
1.12677
20
1.04055
11
1.12677
21
1.24488
0
LINE
8
BLACK
6
CONTINUOUS
10
1.12677
20
1.24488
11
0.922441
21
1.24488
0
LINE
8
BLACK
6
CONTINUOUS
10
1.27826
20
1.14912
11
1.27854
21
1.14843
0
LINE
8
BLACK
6
CONTINUOUS
10
1.27854
20
1.14843
11
1.27854
21
1.07126
0
LINE
8
BLACK
6
CONTINUOUS
10
1.27854
20
1.07126
11
1.27826
21
1.07056
0
LINE
8
BLACK
6
CONTINUOUS
10
1.27826
20
1.07056
11
1.27756
21
1.07028
0
LINE
8
BLACK
6
CONTINUOUS
10
1.27756
20
1.07028
11
1.1437
21
1.07028
0
LINE
8
BLACK
6
CONTINUOUS
10
1.1437
20
1.07028
11
1.143
21
1.07056
0
LINE
8
BLACK
6
CONTINUOUS
10
1.143
20
1.07056
11
1.14272
21
1.07126
0
LINE
8
BLACK
6
CONTINUOUS
10
1.14272
20
1.07126
11
1.14272
21
1.14843
0
LINE
8
BLACK
6
CONTINUOUS
10
1.14272
20
1.14843
11
1.143
21
1.14912
0
LINE
8
BLACK
6
CONTINUOUS
10
1.143
20
1.14912
11
1.1437
21
1.14941
0
LINE
8
BLACK
6
CONTINUOUS
10
1.1437
20
1.14941
11
1.143
21
1.1497
0
LINE
8
BLACK
6
CONTINUOUS
10
1.143
20
1.1497
11
1.14272
21
1.15039
0
LINE
8
BLACK
6
CONTINUOUS
10
1.14272
20
1.15039
11
1.14272
21
1.22756
0
LINE
8
BLACK
6
CONTINUOUS
10
1.14272
20
1.22756
11
1.143
21
1.22826
0
LINE
8
BLACK
6
CONTINUOUS
10
1.143
20
1.22826
11
1.1437
21
1.22854
0
LINE
8
BLACK
6
CONTINUOUS
10
1.1437
20
1.22854
11
1.27756
21
1.22854
0
LINE
8
BLACK
6
CONTINUOUS
10
1.27756
20
1.22854
11
1.27826
21
1.22826
0
LINE
8
BLACK
6
CONTINUOUS
10
1.27826
20
1.22826
11
1.27854
21
1.22756
0
LINE
8
BLACK
6
CONTINUOUS
10
1.27854
20
1.22756
11
1.27854
21
1.15039
0
LINE
8
BLACK
6
CONTINUOUS
10
1.27854
20
1.15039
11
1.27826
21
1.1497
0
LINE
8
BLACK
6
CONTINUOUS
10
1.27826
20
1.1497
11
1.27756
21
1.14941
0
LINE
8
BLACK
6
CONTINUOUS
10
1.27756
20
1.14941
11
1.27826
21
1.14912
0
LINE
8
BLACK
6
CONTINUOUS
10
1.14469
20
1.14744
11
1.14469
21
1.07224
0
LINE
8
BLACK
6
CONTINUOUS
10
1.14469
20
1.07224
11
1.27657
21
1.07224
0
LINE
8
BLACK
6
CONTINUOUS
10
1.27657
20
1.07224
11
1.27657
21
1.14744
0
LINE
8
BLACK
6
CONTINUOUS
10
1.27657
20
1.14744
11
1.14469
21
1.14744
0
LINE
8
BLACK
6
CONTINUOUS
10
1.14469
20
1.22657
11
1.14469
21
1.15138
0
LINE
8
BLACK
6
CONTINUOUS
10
1.14469
20
1.15138
11
1.27657
21
1.15138
0
LINE
8
BLACK
6
CONTINUOUS
10
1.27657
20
1.15138
11
1.27657
21
1.22657
0
LINE
8
BLACK
6
CONTINUOUS
10
1.27657
20
1.22657
11
1.14469
21
1.22657
0
LINE
8
BLACK
6
CONTINUOUS
10
1.41929
20
1.24035
11
1.41999
21
1.24007
0
LINE
8
BLACK
6
CONTINUOUS
10
1.41999
20
1.24007
11
1.42028
21
1.23937
0
LINE
8
BLACK
6
CONTINUOUS
10
1.42028
20
1.23937
11
1.42028
21
1.10709
0
LINE
8
BLACK
6
CONTINUOUS
10
1.42028
20
1.10709
11
1.41999
21
1.10639
0
LINE
8
BLACK
6
CONTINUOUS
10
1.41999
20
1.10639
11
1.41929
21
1.1061
0
LINE
8
BLACK
6
CONTINUOUS
10
1.41929
20
1.1061
11
1.34449
21
1.1061
0
LINE
8
BLACK
6
CONTINUOUS
10
1.34449
20
1.1061
11
1.34379
21
1.10639
0
LINE
8
BLACK
6
CONTINUOUS
10
1.34379
20
1.10639
11
1.3435
21
1.10709
0
LINE
8
BLACK
6
CONTINUOUS
10
1.3435
20
1.10709
11
1.3435
21
1.23937
0
LINE
8
BLACK
6
CONTINUOUS
10
1.3435
20
1.23937
11
1.34379
21
1.24007
0
LINE
8
BLACK
6
CONTINUOUS
10
1.34379
20
1.24007
11
1.34449
21
1.24035
0
LINE
8
BLACK
6
CONTINUOUS
10
1.34449
20
1.24035
11
1.41929
21
1.24035
0
LINE
8
BLACK
6
CONTINUOUS
10
1.34547
20
1.23839
11
1.34547
21
1.10807
0
LINE
8
BLACK
6
CONTINUOUS
10
1.34547
20
1.10807
11
1.41831
21
1.10807
0
LINE
8
BLACK
6
CONTINUOUS
10
1.41831
20
1.10807
11
1.41831
21
1.23839
0
LINE
8
BLACK
6
CONTINUOUS
10
1.41831
20
1.23839
11
1.34547
21
1.23839
0
LINE
8
BLACK
6
CONTINUOUS
10
0.968799
20
1.32461
11
0.969495
21
1.32432
0
LINE
8
BLACK
6
CONTINUOUS
10
0.969495
20
1.32432
11
0.969783
21
1.32362
0
LINE
8
BLACK
6
CONTINUOUS
10
0.969783
20
1.32362
11
0.969783
21
1.24882
0
LINE
8
BLACK
6
CONTINUOUS
10
0.969783
20
1.24882
11
0.969495
21
1.24812
0
LINE
8
BLACK
6
CONTINUOUS
10
0.969495
20
1.24812
11
0.968799
21
1.24783
0
LINE
8
BLACK
6
CONTINUOUS
10
0.968799
20
1.24783
11
0.836516
21
1.24783
0
LINE
8
BLACK
6
CONTINUOUS
10
0.836516
20
1.24783
11
0.83582
21
1.24812
0
LINE
8
BLACK
6
CONTINUOUS
10
0.83582
20
1.24812
11
0.835531
21
1.24882
0
LINE
8
BLACK
6
CONTINUOUS
10
0.835531
20
1.24882
11
0.835531
21
1.32362
0
LINE
8
BLACK
6
CONTINUOUS
10
0.835531
20
1.32362
11
0.83582
21
1.32432
0
LINE
8
BLACK
6
CONTINUOUS
10
0.83582
20
1.32432
11
0.836516
21
1.32461
0
LINE
8
BLACK
6
CONTINUOUS
10
0.836516
20
1.32461
11
0.968799
21
1.32461
0
LINE
8
BLACK
6
CONTINUOUS
10
0.8375
20
1.32264
11
0.8375
21
1.2498
0
LINE
8
BLACK
6
CONTINUOUS
10
0.8375
20
1.2498
11
0.967815
21
1.2498
0
LINE
8
BLACK
6
CONTINUOUS
10
0.967815
20
1.2498
11
0.967815
21
1.32264
0
LINE
8
BLACK
6
CONTINUOUS
10
0.967815
20
1.32264
11
0.8375
21
1.32264
0
LINE
8
BLACK
6
CONTINUOUS
10
1.52362
20
1.39744
11
1.52432
21
1.39715
0
LINE
8
BLACK
6
CONTINUOUS
10
1.52432
20
1.39715
11
1.52461
21
1.39646
0
LINE
8
BLACK
6
CONTINUOUS
10
1.52461
20
1.39646
11
1.52461
21
1.31929
0
LINE
8
BLACK
6
CONTINUOUS
10
1.52461
20
1.31929
11
1.52432
21
1.3186
0
LINE
8
BLACK
6
CONTINUOUS
10
1.52432
20
1.3186
11
1.52362
21
1.31831
0
LINE
8
BLACK
6
CONTINUOUS
10
1.52362
20
1.31831
11
1.38976
21
1.31831
0
LINE
8
BLACK
6
CONTINUOUS
10
1.38976
20
1.31831
11
1.38907
21
1.3186
0
LINE
8
BLACK
6
CONTINUOUS
10
1.38907
20
1.3186
11
1.38878
21
1.31929
0
LINE
8
BLACK
6
CONTINUOUS
10
1.38878
20
1.31929
11
1.38878
21
1.39646
0
LINE
8
BLACK
6
CONTINUOUS
10
1.38878
20
1.39646
11
1.38907
21
1.39715
0
LINE
8
BLACK
6
CONTINUOUS
10
1.38907
20
1.39715
11
1.38976
21
1.39744
0
LINE
8
BLACK
6
CONTINUOUS
10
1.38976
20
1.39744
11
1.52362
21
1.39744
0
LINE
8
BLACK
6
CONTINUOUS
10
1.39075
20
1.39547
11
1.39075
21
1.32028
0
LINE
8
BLACK
6
CONTINUOUS
10
1.39075
20
1.32028
11
1.52264
21
1.32028
0
LINE
8
BLACK
6
CONTINUOUS
10
1.52264
20
1.32028
11
1.52264
21
1.39547
0
LINE
8
BLACK
6
CONTINUOUS
10
1.52264
20
1.39547
11
1.39075
21
1.39547
0
LINE
8
BLACK
6
CONTINUOUS
10
1.67362
20
1.39744
11
1.67432
21
1.39715
0
LINE
8
BLACK
6
CONTINUOUS
10
1.67432
20
1.39715
11
1.67461
21
1.39646
0
LINE
8
BLACK
6
CONTINUOUS
10
1.67461
20
1.39646
11
1.67461
21
1.31929
0
LINE
8
BLACK
6
CONTINUOUS
10
1.67461
20
1.31929
11
1.67432
21
1.3186
0
LINE
8
BLACK
6
CONTINUOUS
10
1.67432
20
1.3186
11
1.67362
21
1.31831
0
LINE
8
BLACK
6
CONTINUOUS
10
1.67362
20
1.31831
11
1.53976
21
1.31831
0
LINE
8
BLACK
6
CONTINUOUS
10
1.53976
20
1.31831
11
1.53907
21
1.3186
0
LINE
8
BLACK
6
CONTINUOUS
10
1.53907
20
1.3186
11
1.53878
21
1.31929
0
LINE
8
BLACK
6
CONTINUOUS
10
1.53878
20
1.31929
11
1.53878
21
1.39646
0
LINE
8
BLACK
6
CONTINUOUS
10
1.53878
20
1.39646
11
1.53907
21
1.39715
0
LINE
8
BLACK
6
CONTINUOUS
10
1.53907
20
1.39715
11
1.53976
21
1.39744
0
LINE
8
BLACK
6
CONTINUOUS
10
1.53976
20
1.39744
11
1.67362
21
1.39744
0
LINE
8
BLACK
6
CONTINUOUS
10
1.54075
20
1.39547
11
1.54075
21
1.32028
0
LINE
8
BLACK
6
CONTINUOUS
10
1.54075
20
1.32028
11
1.67264
21
1.32028
0
LINE
8
BLACK
6
CONTINUOUS
10
1.67264
20
1.32028
11
1.67264
21
1.39547
0
LINE
8
BLACK
6
CONTINUOUS
10
1.67264
20
1.39547
11
1.54075
21
1.39547
0
LINE
8
BLACK
6
CONTINUOUS
10
0.327559
20
1.47618
11
0.328255
21
1.47589
0
LINE
8
BLACK
6
CONTINUOUS
10
0.328255
20
1.47589
11
0.328543
21
1.4752
0
LINE
8
BLACK
6
CONTINUOUS
10
0.328543
20
1.4752
11
0.328543
21
1.34291
0
LINE
8
BLACK
6
CONTINUOUS
10
0.328543
20
1.34291
11
0.328255
21
1.34222
0
LINE
8
BLACK
6
CONTINUOUS
10
0.328255
20
1.34222
11
0.327559
21
1.34193
0
LINE
8
BLACK
6
CONTINUOUS
10
0.327559
20
1.34193
11
0.252756
21
1.34193
0
LINE
8
BLACK
6
CONTINUOUS
10
0.252756
20
1.34193
11
0.25206
21
1.34222
0
LINE
8
BLACK
6
CONTINUOUS
10
0.25206
20
1.34222
11
0.251772
21
1.34291
0
LINE
8
BLACK
6
CONTINUOUS
10
0.251772
20
1.34291
11
0.251772
21
1.4752
0
LINE
8
BLACK
6
CONTINUOUS
10
0.251772
20
1.4752
11
0.25206
21
1.47589
0
LINE
8
BLACK
6
CONTINUOUS
10
0.25206
20
1.47589
11
0.252756
21
1.47618
0
LINE
8
BLACK
6
CONTINUOUS
10
0.252756
20
1.47618
11
0.327559
21
1.47618
0
LINE
8
BLACK
6
CONTINUOUS
10
0.25374
20
1.47421
11
0.25374
21
1.3439
0
LINE
8
BLACK
6
CONTINUOUS
10
0.25374
20
1.3439
11
0.326575
21
1.3439
0
LINE
8
BLACK
6
CONTINUOUS
10
0.326575
20
1.3439
11
0.326575
21
1.47421
0
LINE
8
BLACK
6
CONTINUOUS
10
0.326575
20
1.47421
11
0.25374
21
1.47421
0
LINE
8
BLACK
6
CONTINUOUS
10
0.408268
20
1.47618
11
0.408964
21
1.47589
0
LINE
8
BLACK
6
CONTINUOUS
10
0.408964
20
1.47589
11
0.409252
21
1.4752
0
LINE
8
BLACK
6
CONTINUOUS
10
0.409252
20
1.4752
11
0.409252
21
1.34291
0
LINE
8
BLACK
6
CONTINUOUS
10
0.409252
20
1.34291
11
0.408964
21
1.34222
0
LINE
8
BLACK
6
CONTINUOUS
10
0.408964
20
1.34222
11
0.408268
21
1.34193
0
LINE
8
BLACK
6
CONTINUOUS
10
0.408268
20
1.34193
11
0.333465
21
1.34193
0
LINE
8
BLACK
6
CONTINUOUS
10
0.333465
20
1.34193
11
0.332769
21
1.34222
0
LINE
8
BLACK
6
CONTINUOUS
10
0.332769
20
1.34222
11
0.33248
21
1.34291
0
LINE
8
BLACK
6
CONTINUOUS
10
0.33248
20
1.34291
11
0.33248
21
1.4752
0
LINE
8
BLACK
6
CONTINUOUS
10
0.33248
20
1.4752
11
0.332769
21
1.47589
0
LINE
8
BLACK
6
CONTINUOUS
10
0.332769
20
1.47589
11
0.333465
21
1.47618
0
LINE
8
BLACK
6
CONTINUOUS
10
0.333465
20
1.47618
11
0.408268
21
1.47618
0
LINE
8
BLACK
6
CONTINUOUS
10
0.334449
20
1.47421
11
0.334449
21
1.3439
0
LINE
8
BLACK
6
CONTINUOUS
10
0.334449
20
1.3439
11
0.407283
21
1.3439
0
LINE
8
BLACK
6
CONTINUOUS
10
0.407283
20
1.3439
11
0.407283
21
1.47421
0
LINE
8
BLACK
6
CONTINUOUS
10
0.407283
20
1.47421
11
0.334449
21
1.47421
0
LINE
8
BLACK
6
CONTINUOUS
10
0.488976
20
1.47667
11
0.489672
21
1.47638
0
LINE
8
BLACK
6
CONTINUOUS
10
0.489672
20
1.47638
11
0.489961
21
1.47569
0
LINE
8
BLACK
6
CONTINUOUS
10
0.489961
20
1.47569
11
0.489961
21
1.34341
0
LINE
8
BLACK
6
CONTINUOUS
10
0.489961
20
1.34341
11
0.489672
21
1.34271
0
LINE
8
BLACK
6
CONTINUOUS
10
0.489672
20
1.34271
11
0.488976
21
1.34242
0
LINE
8
BLACK
6
CONTINUOUS
10
0.488976
20
1.34242
11
0.414173
21
1.34242
0
LINE
8
BLACK
6
CONTINUOUS
10
0.414173
20
1.34242
11
0.413477
21
1.34271
0
LINE
8
BLACK
6
CONTINUOUS
10
0.413477
20
1.34271
11
0.413189
21
1.34341
0
LINE
8
BLACK
6
CONTINUOUS
10
0.413189
20
1.34341
11
0.413189
21
1.47569
0
LINE
8
BLACK
6
CONTINUOUS
10
0.413189
20
1.47569
11
0.413477
21
1.47638
0
LINE
8
BLACK
6
CONTINUOUS
10
0.413477
20
1.47638
11
0.414173
21
1.47667
0
LINE
8
BLACK
6
CONTINUOUS
10
0.414173
20
1.47667
11
0.488976
21
1.47667
0
LINE
8
BLACK
6
CONTINUOUS
10
0.415157
20
1.4747
11
0.415157
21
1.34439
0
LINE
8
BLACK
6
CONTINUOUS
10
0.415157
20
1.34439
11
0.487992
21
1.34439
0
LINE
8
BLACK
6
CONTINUOUS
10
0.487992
20
1.34439
11
0.487992
21
1.4747
0
LINE
8
BLACK
6
CONTINUOUS
10
0.487992
20
1.4747
11
0.415157
21
1.4747
0
LINE
8
BLACK
6
CONTINUOUS
10
0.682283
20
1.48681
11
0.682979
21
1.48652
0
LINE
8
BLACK
6
CONTINUOUS
10
0.682979
20
1.48652
11
0.683268
21
1.48583
0
LINE
8
BLACK
6
CONTINUOUS
10
0.683268
20
1.48583
11
0.683268
21
1.35354
0
LINE
8
BLACK
6
CONTINUOUS
10
0.683268
20
1.35354
11
0.682979
21
1.35285
0
LINE
8
BLACK
6
CONTINUOUS
10
0.682979
20
1.35285
11
0.682283
21
1.35256
0
LINE
8
BLACK
6
CONTINUOUS
10
0.682283
20
1.35256
11
0.60748
21
1.35256
0
LINE
8
BLACK
6
CONTINUOUS
10
0.60748
20
1.35256
11
0.606784
21
1.35285
0
LINE
8
BLACK
6
CONTINUOUS
10
0.606784
20
1.35285
11
0.606496
21
1.35354
0
LINE
8
BLACK
6
CONTINUOUS
10
0.606496
20
1.35354
11
0.606496
21
1.48583
0
LINE
8
BLACK
6
CONTINUOUS
10
0.606496
20
1.48583
11
0.606784
21
1.48652
0
LINE
8
BLACK
6
CONTINUOUS
10
0.606784
20
1.48652
11
0.60748
21
1.48681
0
LINE
8
BLACK
6
CONTINUOUS
10
0.60748
20
1.48681
11
0.682283
21
1.48681
0
LINE
8
BLACK
6
CONTINUOUS
10
0.608465
20
1.48484
11
0.608465
21
1.35453
0
LINE
8
BLACK
6
CONTINUOUS
10
0.608465
20
1.35453
11
0.681299
21
1.35453
0
LINE
8
BLACK
6
CONTINUOUS
10
0.681299
20
1.35453
11
0.681299
21
1.48484
0
LINE
8
BLACK
6
CONTINUOUS
10
0.681299
20
1.48484
11
0.608465
21
1.48484
0
LINE
8
BLACK
6
CONTINUOUS
10
0.596063
20
1.48691
11
0.596759
21
1.48662
0
LINE
8
BLACK
6
CONTINUOUS
10
0.596759
20
1.48662
11
0.597047
21
1.48593
0
LINE
8
BLACK
6
CONTINUOUS
10
0.597047
20
1.48593
11
0.597047
21
1.35364
0
LINE
8
BLACK
6
CONTINUOUS
10
0.597047
20
1.35364
11
0.596759
21
1.35295
0
LINE
8
BLACK
6
CONTINUOUS
10
0.596759
20
1.35295
11
0.596063
21
1.35266
0
LINE
8
BLACK
6
CONTINUOUS
10
0.596063
20
1.35266
11
0.52126
21
1.35266
0
LINE
8
BLACK
6
CONTINUOUS
10
0.52126
20
1.35266
11
0.520564
21
1.35295
0
LINE
8
BLACK
6
CONTINUOUS
10
0.520564
20
1.35295
11
0.520276
21
1.35364
0
LINE
8
BLACK
6
CONTINUOUS
10
0.520276
20
1.35364
11
0.520276
21
1.48593
0
LINE
8
BLACK
6
CONTINUOUS
10
0.520276
20
1.48593
11
0.520564
21
1.48662
0
LINE
8
BLACK
6
CONTINUOUS
10
0.520564
20
1.48662
11
0.52126
21
1.48691
0
LINE
8
BLACK
6
CONTINUOUS
10
0.52126
20
1.48691
11
0.596063
21
1.48691
0
LINE
8
BLACK
6
CONTINUOUS
10
0.522244
20
1.48494
11
0.522244
21
1.35463
0
LINE
8
BLACK
6
CONTINUOUS
10
0.522244
20
1.35463
11
0.595079
21
1.35463
0
LINE
8
BLACK
6
CONTINUOUS
10
0.595079
20
1.35463
11
0.595079
21
1.48494
0
LINE
8
BLACK
6
CONTINUOUS
10
0.595079
20
1.48494
11
0.522244
21
1.48494
0
LINE
8
BLACK
6
CONTINUOUS
10
1.67441
20
1.74902
11
1.67511
21
1.74873
0
LINE
8
BLACK
6
CONTINUOUS
10
1.67511
20
1.74873
11
1.67539
21
1.74803
0
LINE
8
BLACK
6
CONTINUOUS
10
1.67539
20
1.74803
11
1.67539
21
1.40157
0
LINE
8
BLACK
6
CONTINUOUS
10
1.67539
20
1.40157
11
1.67511
21
1.40088
0
LINE
8
BLACK
6
CONTINUOUS
10
1.67511
20
1.40088
11
1.67441
21
1.40059
0
LINE
8
BLACK
6
CONTINUOUS
10
1.67441
20
1.40059
11
1.39094
21
1.40059
0
LINE
8
BLACK
6
CONTINUOUS
10
1.39094
20
1.40059
11
1.39025
21
1.40088
0
LINE
8
BLACK
6
CONTINUOUS
10
1.39025
20
1.40088
11
1.38996
21
1.40157
0
LINE
8
BLACK
6
CONTINUOUS
10
1.38996
20
1.40157
11
1.38996
21
1.74803
0
LINE
8
BLACK
6
CONTINUOUS
10
1.38996
20
1.74803
11
1.39025
21
1.74873
0
LINE
8
BLACK
6
CONTINUOUS
10
1.39025
20
1.74873
11
1.39094
21
1.74902
0
LINE
8
BLACK
6
CONTINUOUS
10
1.39094
20
1.74902
11
1.67441
21
1.74902
0
LINE
8
BLACK
6
CONTINUOUS
10
1.39193
20
1.74705
11
1.39193
21
1.40256
0
LINE
8
BLACK
6
CONTINUOUS
10
1.39193
20
1.40256
11
1.67343
21
1.40256
0
LINE
8
BLACK
6
CONTINUOUS
10
1.67343
20
1.40256
11
1.67343
21
1.74705
0
LINE
8
BLACK
6
CONTINUOUS
10
1.67343
20
1.74705
11
1.39193
21
1.74705
0
LINE
8
BLACK
6
CONTINUOUS
10
1.16565
20
1.54587
11
1.16635
21
1.54558
0
LINE
8
BLACK
6
CONTINUOUS
10
1.16635
20
1.54558
11
1.16663
21
1.54488
0
LINE
8
BLACK
6
CONTINUOUS
10
1.16663
20
1.54488
11
1.16663
21
1.47008
0
LINE
8
BLACK
6
CONTINUOUS
10
1.16663
20
1.47008
11
1.16635
21
1.46938
0
LINE
8
BLACK
6
CONTINUOUS
10
1.16635
20
1.46938
11
1.16565
21
1.46909
0
LINE
8
BLACK
6
CONTINUOUS
10
1.16565
20
1.46909
11
1.03337
21
1.46909
0
LINE
8
BLACK
6
CONTINUOUS
10
1.03337
20
1.46909
11
1.03267
21
1.46938
0
LINE
8
BLACK
6
CONTINUOUS
10
1.03267
20
1.46938
11
1.03238
21
1.47008
0
LINE
8
BLACK
6
CONTINUOUS
10
1.03238
20
1.47008
11
1.03238
21
1.54488
0
LINE
8
BLACK
6
CONTINUOUS
10
1.03238
20
1.54488
11
1.03267
21
1.54558
0
LINE
8
BLACK
6
CONTINUOUS
10
1.03267
20
1.54558
11
1.03337
21
1.54587
0
LINE
8
BLACK
6
CONTINUOUS
10
1.03337
20
1.54587
11
1.16565
21
1.54587
0
LINE
8
BLACK
6
CONTINUOUS
10
1.03435
20
1.5439
11
1.03435
21
1.47106
0
LINE
8
BLACK
6
CONTINUOUS
10
1.03435
20
1.47106
11
1.16467
21
1.47106
0
LINE
8
BLACK
6
CONTINUOUS
10
1.16467
20
1.47106
11
1.16467
21
1.5439
0
LINE
8
BLACK
6
CONTINUOUS
10
1.16467
20
1.5439
11
1.03435
21
1.5439
0
LINE
8
BLACK
6
CONTINUOUS
10
1.03031
20
1.54626
11
1.03101
21
1.54597
0
LINE
8
BLACK
6
CONTINUOUS
10
1.03101
20
1.54597
11
1.0313
21
1.54528
0
LINE
8
BLACK
6
CONTINUOUS
10
1.0313
20
1.54528
11
1.0313
21
1.47047
0
LINE
8
BLACK
6
CONTINUOUS
10
1.0313
20
1.47047
11
1.03101
21
1.46978
0
LINE
8
BLACK
6
CONTINUOUS
10
1.03101
20
1.46978
11
1.03031
21
1.46949
0
LINE
8
BLACK
6
CONTINUOUS
10
1.03031
20
1.46949
11
0.898031
21
1.46949
0
LINE
8
BLACK
6
CONTINUOUS
10
0.898031
20
1.46949
11
0.897336
21
1.46978
0
LINE
8
BLACK
6
CONTINUOUS
10
0.897336
20
1.46978
11
0.897047
21
1.47047
0
LINE
8
BLACK
6
CONTINUOUS
10
0.897047
20
1.47047
11
0.897047
21
1.54528
0
LINE
8
BLACK
6
CONTINUOUS
10
0.897047
20
1.54528
11
0.897336
21
1.54597
0
LINE
8
BLACK
6
CONTINUOUS
10
0.897336
20
1.54597
11
0.898031
21
1.54626
0
LINE
8
BLACK
6
CONTINUOUS
10
0.898031
20
1.54626
11
1.03031
21
1.54626
0
LINE
8
BLACK
6
CONTINUOUS
10
0.899016
20
1.54429
11
0.899016
21
1.47146
0
LINE
8
BLACK
6
CONTINUOUS
10
0.899016
20
1.47146
11
1.02933
21
1.47146
0
LINE
8
BLACK
6
CONTINUOUS
10
1.02933
20
1.47146
11
1.02933
21
1.54429
0
LINE
8
BLACK
6
CONTINUOUS
10
1.02933
20
1.54429
11
0.899016
21
1.54429
0
LINE
8
BLACK
6
CONTINUOUS
10
1.28238
20
1.90413
11
1.28308
21
1.90385
0
LINE
8
BLACK
6
CONTINUOUS
10
1.28308
20
1.90385
11
1.28337
21
1.90315
0
LINE
8
BLACK
6
CONTINUOUS
10
1.28337
20
1.90315
11
1.28337
21
1.82835
0
LINE
8
BLACK
6
CONTINUOUS
10
1.28337
20
1.82835
11
1.28308
21
1.82765
0
LINE
8
BLACK
6
CONTINUOUS
10
1.28308
20
1.82765
11
1.28238
21
1.82736
0
LINE
8
BLACK
6
CONTINUOUS
10
1.28238
20
1.82736
11
1.1501
21
1.82736
0
LINE
8
BLACK
6
CONTINUOUS
10
1.1501
20
1.82736
11
1.1494
21
1.82765
0
LINE
8
BLACK
6
CONTINUOUS
10
1.1494
20
1.82765
11
1.14911
21
1.82835
0
LINE
8
BLACK
6
CONTINUOUS
10
1.14911
20
1.82835
11
1.14911
21
1.90315
0
LINE
8
BLACK
6
CONTINUOUS
10
1.14911
20
1.90315
11
1.1494
21
1.90385
0
LINE
8
BLACK
6
CONTINUOUS
10
1.1494
20
1.90385
11
1.1501
21
1.90413
0
LINE
8
BLACK
6
CONTINUOUS
10
1.1501
20
1.90413
11
1.28238
21
1.90413
0
LINE
8
BLACK
6
CONTINUOUS
10
1.15108
20
1.90217
11
1.15108
21
1.82933
0
LINE
8
BLACK
6
CONTINUOUS
10
1.15108
20
1.82933
11
1.2814
21
1.82933
0
LINE
8
BLACK
6
CONTINUOUS
10
1.2814
20
1.82933
11
1.2814
21
1.90217
0
LINE
8
BLACK
6
CONTINUOUS
10
1.2814
20
1.90217
11
1.15108
21
1.90217
0
LINE
8
BLACK
6
CONTINUOUS
10
1.13514
20
1.90453
11
1.13583
21
1.90424
0
LINE
8
BLACK
6
CONTINUOUS
10
1.13583
20
1.90424
11
1.13612
21
1.90354
0
LINE
8
BLACK
6
CONTINUOUS
10
1.13612
20
1.90354
11
1.13612
21
1.82874
0
LINE
8
BLACK
6
CONTINUOUS
10
1.13612
20
1.82874
11
1.13583
21
1.82804
0
LINE
8
BLACK
6
CONTINUOUS
10
1.13583
20
1.82804
11
1.13514
21
1.82776
0
LINE
8
BLACK
6
CONTINUOUS
10
1.13514
20
1.82776
11
1.00285
21
1.82776
0
LINE
8
BLACK
6
CONTINUOUS
10
1.00285
20
1.82776
11
1.00216
21
1.82804
0
LINE
8
BLACK
6
CONTINUOUS
10
1.00216
20
1.82804
11
1.00187
21
1.82874
0
LINE
8
BLACK
6
CONTINUOUS
10
1.00187
20
1.82874
11
1.00187
21
1.90354
0
LINE
8
BLACK
6
CONTINUOUS
10
1.00187
20
1.90354
11
1.00216
21
1.90424
0
LINE
8
BLACK
6
CONTINUOUS
10
1.00216
20
1.90424
11
1.00285
21
1.90453
0
LINE
8
BLACK
6
CONTINUOUS
10
1.00285
20
1.90453
11
1.13514
21
1.90453
0
LINE
8
BLACK
6
CONTINUOUS
10
1.00384
20
1.90256
11
1.00384
21
1.82972
0
LINE
8
BLACK
6
CONTINUOUS
10
1.00384
20
1.82972
11
1.13415
21
1.82972
0
LINE
8
BLACK
6
CONTINUOUS
10
1.13415
20
1.82972
11
1.13415
21
1.90256
0
LINE
8
BLACK
6
CONTINUOUS
10
1.13415
20
1.90256
11
1.00384
21
1.90256
  0
ENDSEC
  0
EOF
