  0
SECTION
  2
HEADER
  9
$ANGBASE
  50
0.0
  9
$ANGDIR
  70
1
  9
$MEASUREMENT
  70
0
  0
ENDSEC
  0
SECTION
  2
TABLES
  0
TABLE
  2
LTYPE
  70
4
  0
LTYPE
  5
40F
  2
CONTINUOUS
  70
0
  3
Solid line
  72
65
  73
0
  40
0.0
  0
LTYPE
  5
410
  2
DASHDOT
 70
0
  3
Dash Dot ____ _ ____ _
 72
65
 73
4
 40
2.0
 49
1.25
 49
-0.25
 49
0.25
 49
-0.25
  0
LTYPE
  5
411
  2
DASHED
 70
0
  3
Dashed __ __ __ __ __
 72
65
 73
2
 40
0.75
 49
0.5
 49
-0.25
  0
LTYPE
  5
43B
  2
DOTTED
 70
0
  3
Dotted .  .  .  .
 72
65
 73
2
 40
0.2
 49
0.0
 49
-0.2
  0
ENDTAB
  0
TABLE
  2
STYLE
  70
4
  0
STYLE
  2
KICAD
  70
0
  40
0
  41
1
  42
1
  50
0
  71
0
  3
isocp.shx
  0
STYLE
  2
KICADB
  70
0
  40
0
  41
1
  42
1
  50
0
  71
0
  3
isocp.shx
  0
STYLE
  2
KICADI
  70
0
  40
0
  41
1
  42
1
  50
15
  71
0
  3
isocp.shx
  0
STYLE
  2
KICADBI
  70
0
  40
0
  41
1
  42
1
  50
15
  71
0
  3
isocp.shx
  0
ENDTAB
  0
TABLE
  2
LAYER
  70
1
  0
LAYER
  2
BLACK
  70
0
  62
7
  6
CONTINUOUS
  0
ENDTAB
  0
ENDSEC
  0
SECTION
  2
ENTITIES
0
LINE
8
BLACK
6
CONTINUOUS
10
0.839694
20
0.365729
11
0.845577
21
0.362641
0
LINE
8
BLACK
6
CONTINUOUS
10
0.845577
20
0.362641
11
0.85055
21
0.358236
0
LINE
8
BLACK
6
CONTINUOUS
10
0.85055
20
0.358236
11
0.854324
21
0.352768
0
LINE
8
BLACK
6
CONTINUOUS
10
0.854324
20
0.352768
11
0.856679
21
0.346556
0
LINE
8
BLACK
6
CONTINUOUS
10
0.856679
20
0.346556
11
0.85748
21
0.339961
0
LINE
8
BLACK
6
CONTINUOUS
10
0.85748
20
0.339961
11
0.85748
21
0.300591
0
LINE
8
BLACK
6
CONTINUOUS
10
0.85748
20
0.300591
11
0.856679
21
0.293995
0
LINE
8
BLACK
6
CONTINUOUS
10
0.856679
20
0.293995
11
0.854324
21
0.287783
0
LINE
8
BLACK
6
CONTINUOUS
10
0.854324
20
0.287783
11
0.85055
21
0.282316
0
LINE
8
BLACK
6
CONTINUOUS
10
0.85055
20
0.282316
11
0.845577
21
0.27791
0
LINE
8
BLACK
6
CONTINUOUS
10
0.845577
20
0.27791
11
0.839694
21
0.274822
0
LINE
8
BLACK
6
CONTINUOUS
10
0.839694
20
0.274822
11
0.833243
21
0.273232
0
LINE
8
BLACK
6
CONTINUOUS
10
0.833243
20
0.273232
11
0.826599
21
0.273232
0
LINE
8
BLACK
6
CONTINUOUS
10
0.826599
20
0.273232
11
0.820149
21
0.274822
0
LINE
8
BLACK
6
CONTINUOUS
10
0.820149
20
0.274822
11
0.814266
21
0.27791
0
LINE
8
BLACK
6
CONTINUOUS
10
0.814266
20
0.27791
11
0.809293
21
0.282316
0
LINE
8
BLACK
6
CONTINUOUS
10
0.809293
20
0.282316
11
0.805519
21
0.287783
0
LINE
8
BLACK
6
CONTINUOUS
10
0.805519
20
0.287783
11
0.803163
21
0.293995
0
LINE
8
BLACK
6
CONTINUOUS
10
0.803163
20
0.293995
11
0.802362
21
0.300591
0
LINE
8
BLACK
6
CONTINUOUS
10
0.802362
20
0.300591
11
0.802362
21
0.339961
0
LINE
8
BLACK
6
CONTINUOUS
10
0.802362
20
0.339961
11
0.803163
21
0.346556
0
LINE
8
BLACK
6
CONTINUOUS
10
0.803163
20
0.346556
11
0.805519
21
0.352768
0
LINE
8
BLACK
6
CONTINUOUS
10
0.805519
20
0.352768
11
0.809293
21
0.358236
0
LINE
8
BLACK
6
CONTINUOUS
10
0.809293
20
0.358236
11
0.814266
21
0.362641
0
LINE
8
BLACK
6
CONTINUOUS
10
0.814266
20
0.362641
11
0.820149
21
0.365729
0
LINE
8
BLACK
6
CONTINUOUS
10
0.820149
20
0.365729
11
0.826599
21
0.367319
0
LINE
8
BLACK
6
CONTINUOUS
10
0.826599
20
0.367319
11
0.833243
21
0.367319
0
LINE
8
BLACK
6
CONTINUOUS
10
0.833243
20
0.367319
11
0.839694
21
0.365729
0
LINE
8
BLACK
6
CONTINUOUS
10
1.17985
20
0.365729
11
1.18573
21
0.362641
0
LINE
8
BLACK
6
CONTINUOUS
10
1.18573
20
0.362641
11
1.19071
21
0.358236
0
LINE
8
BLACK
6
CONTINUOUS
10
1.19071
20
0.358236
11
1.19448
21
0.352768
0
LINE
8
BLACK
6
CONTINUOUS
10
1.19448
20
0.352768
11
1.19684
21
0.346556
0
LINE
8
BLACK
6
CONTINUOUS
10
1.19684
20
0.346556
11
1.19764
21
0.339961
0
LINE
8
BLACK
6
CONTINUOUS
10
1.19764
20
0.339961
11
1.19764
21
0.300591
0
LINE
8
BLACK
6
CONTINUOUS
10
1.19764
20
0.300591
11
1.19684
21
0.293995
0
LINE
8
BLACK
6
CONTINUOUS
10
1.19684
20
0.293995
11
1.19448
21
0.287783
0
LINE
8
BLACK
6
CONTINUOUS
10
1.19448
20
0.287783
11
1.19071
21
0.282316
0
LINE
8
BLACK
6
CONTINUOUS
10
1.19071
20
0.282316
11
1.18573
21
0.27791
0
LINE
8
BLACK
6
CONTINUOUS
10
1.18573
20
0.27791
11
1.17985
21
0.274822
0
LINE
8
BLACK
6
CONTINUOUS
10
1.17985
20
0.274822
11
1.1734
21
0.273232
0
LINE
8
BLACK
6
CONTINUOUS
10
1.1734
20
0.273232
11
1.16676
21
0.273232
0
LINE
8
BLACK
6
CONTINUOUS
10
1.16676
20
0.273232
11
1.16031
21
0.274822
0
LINE
8
BLACK
6
CONTINUOUS
10
1.16031
20
0.274822
11
1.15442
21
0.27791
0
LINE
8
BLACK
6
CONTINUOUS
10
1.15442
20
0.27791
11
1.14945
21
0.282316
0
LINE
8
BLACK
6
CONTINUOUS
10
1.14945
20
0.282316
11
1.14568
21
0.287783
0
LINE
8
BLACK
6
CONTINUOUS
10
1.14568
20
0.287783
11
1.14332
21
0.293995
0
LINE
8
BLACK
6
CONTINUOUS
10
1.14332
20
0.293995
11
1.14252
21
0.300591
0
LINE
8
BLACK
6
CONTINUOUS
10
1.14252
20
0.300591
11
1.14252
21
0.339961
0
LINE
8
BLACK
6
CONTINUOUS
10
1.14252
20
0.339961
11
1.14332
21
0.346556
0
LINE
8
BLACK
6
CONTINUOUS
10
1.14332
20
0.346556
11
1.14568
21
0.352768
0
LINE
8
BLACK
6
CONTINUOUS
10
1.14568
20
0.352768
11
1.14945
21
0.358236
0
LINE
8
BLACK
6
CONTINUOUS
10
1.14945
20
0.358236
11
1.15442
21
0.362641
0
LINE
8
BLACK
6
CONTINUOUS
10
1.15442
20
0.362641
11
1.16031
21
0.365729
0
LINE
8
BLACK
6
CONTINUOUS
10
1.16031
20
0.365729
11
1.16676
21
0.367319
0
LINE
8
BLACK
6
CONTINUOUS
10
1.16676
20
0.367319
11
1.1734
21
0.367319
0
LINE
8
BLACK
6
CONTINUOUS
10
1.1734
20
0.367319
11
1.17985
21
0.365729
0
LINE
8
BLACK
6
CONTINUOUS
10
0.414106
20
0.525192
11
0.428034
21
0.522826
0
LINE
8
BLACK
6
CONTINUOUS
10
0.428034
20
0.522826
11
0.44161
21
0.518914
0
LINE
8
BLACK
6
CONTINUOUS
10
0.44161
20
0.518914
11
0.454663
21
0.513508
0
LINE
8
BLACK
6
CONTINUOUS
10
0.454663
20
0.513508
11
0.467028
21
0.506674
0
LINE
8
BLACK
6
CONTINUOUS
10
0.467028
20
0.506674
11
0.47855
21
0.498498
0
LINE
8
BLACK
6
CONTINUOUS
10
0.47855
20
0.498498
11
0.489084
21
0.489084
0
LINE
8
BLACK
6
CONTINUOUS
10
0.489084
20
0.489084
11
0.498498
21
0.47855
0
LINE
8
BLACK
6
CONTINUOUS
10
0.498498
20
0.47855
11
0.506674
21
0.467028
0
LINE
8
BLACK
6
CONTINUOUS
10
0.506674
20
0.467028
11
0.513508
21
0.454663
0
LINE
8
BLACK
6
CONTINUOUS
10
0.513508
20
0.454663
11
0.518914
21
0.44161
0
LINE
8
BLACK
6
CONTINUOUS
10
0.518914
20
0.44161
11
0.522826
21
0.428034
0
LINE
8
BLACK
6
CONTINUOUS
10
0.522826
20
0.428034
11
0.525192
21
0.414106
0
LINE
8
BLACK
6
CONTINUOUS
10
0.525192
20
0.414106
11
0.525984
21
0.4
0
LINE
8
BLACK
6
CONTINUOUS
10
0.525984
20
0.4
11
0.525192
21
0.385894
0
LINE
8
BLACK
6
CONTINUOUS
10
0.525192
20
0.385894
11
0.522826
21
0.371966
0
LINE
8
BLACK
6
CONTINUOUS
10
0.522826
20
0.371966
11
0.518914
21
0.35839
0
LINE
8
BLACK
6
CONTINUOUS
10
0.518914
20
0.35839
11
0.513508
21
0.345337
0
LINE
8
BLACK
6
CONTINUOUS
10
0.513508
20
0.345337
11
0.506674
21
0.332972
0
LINE
8
BLACK
6
CONTINUOUS
10
0.506674
20
0.332972
11
0.498498
21
0.32145
0
LINE
8
BLACK
6
CONTINUOUS
10
0.498498
20
0.32145
11
0.489084
21
0.310916
0
LINE
8
BLACK
6
CONTINUOUS
10
0.489084
20
0.310916
11
0.47855
21
0.301502
0
LINE
8
BLACK
6
CONTINUOUS
10
0.47855
20
0.301502
11
0.467028
21
0.293326
0
LINE
8
BLACK
6
CONTINUOUS
10
0.467028
20
0.293326
11
0.454663
21
0.286492
0
LINE
8
BLACK
6
CONTINUOUS
10
0.454663
20
0.286492
11
0.44161
21
0.281086
0
LINE
8
BLACK
6
CONTINUOUS
10
0.44161
20
0.281086
11
0.428034
21
0.277174
0
LINE
8
BLACK
6
CONTINUOUS
10
0.428034
20
0.277174
11
0.414106
21
0.274808
0
LINE
8
BLACK
6
CONTINUOUS
10
0.414106
20
0.274808
11
0.4
21
0.274016
0
LINE
8
BLACK
6
CONTINUOUS
10
0.4
20
0.274016
11
0.385894
21
0.274808
0
LINE
8
BLACK
6
CONTINUOUS
10
0.385894
20
0.274808
11
0.371966
21
0.277174
0
LINE
8
BLACK
6
CONTINUOUS
10
0.371966
20
0.277174
11
0.35839
21
0.281086
0
LINE
8
BLACK
6
CONTINUOUS
10
0.35839
20
0.281086
11
0.345337
21
0.286492
0
LINE
8
BLACK
6
CONTINUOUS
10
0.345337
20
0.286492
11
0.332972
21
0.293326
0
LINE
8
BLACK
6
CONTINUOUS
10
0.332972
20
0.293326
11
0.32145
21
0.301502
0
LINE
8
BLACK
6
CONTINUOUS
10
0.32145
20
0.301502
11
0.310916
21
0.310916
0
LINE
8
BLACK
6
CONTINUOUS
10
0.310916
20
0.310916
11
0.301502
21
0.32145
0
LINE
8
BLACK
6
CONTINUOUS
10
0.301502
20
0.32145
11
0.293326
21
0.332972
0
LINE
8
BLACK
6
CONTINUOUS
10
0.293326
20
0.332972
11
0.286492
21
0.345337
0
LINE
8
BLACK
6
CONTINUOUS
10
0.286492
20
0.345337
11
0.281086
21
0.35839
0
LINE
8
BLACK
6
CONTINUOUS
10
0.281086
20
0.35839
11
0.277174
21
0.371966
0
LINE
8
BLACK
6
CONTINUOUS
10
0.277174
20
0.371966
11
0.274808
21
0.385894
0
LINE
8
BLACK
6
CONTINUOUS
10
0.274808
20
0.385894
11
0.274016
21
0.4
0
LINE
8
BLACK
6
CONTINUOUS
10
0.274016
20
0.4
11
0.274808
21
0.414106
0
LINE
8
BLACK
6
CONTINUOUS
10
0.274808
20
0.414106
11
0.277174
21
0.428034
0
LINE
8
BLACK
6
CONTINUOUS
10
0.277174
20
0.428034
11
0.281086
21
0.44161
0
LINE
8
BLACK
6
CONTINUOUS
10
0.281086
20
0.44161
11
0.286492
21
0.454663
0
LINE
8
BLACK
6
CONTINUOUS
10
0.286492
20
0.454663
11
0.293326
21
0.467028
0
LINE
8
BLACK
6
CONTINUOUS
10
0.293326
20
0.467028
11
0.301502
21
0.47855
0
LINE
8
BLACK
6
CONTINUOUS
10
0.301502
20
0.47855
11
0.310916
21
0.489084
0
LINE
8
BLACK
6
CONTINUOUS
10
0.310916
20
0.489084
11
0.32145
21
0.498498
0
LINE
8
BLACK
6
CONTINUOUS
10
0.32145
20
0.498498
11
0.332972
21
0.506674
0
LINE
8
BLACK
6
CONTINUOUS
10
0.332972
20
0.506674
11
0.345337
21
0.513508
0
LINE
8
BLACK
6
CONTINUOUS
10
0.345337
20
0.513508
11
0.35839
21
0.518914
0
LINE
8
BLACK
6
CONTINUOUS
10
0.35839
20
0.518914
11
0.371966
21
0.522826
0
LINE
8
BLACK
6
CONTINUOUS
10
0.371966
20
0.522826
11
0.385894
21
0.525192
0
LINE
8
BLACK
6
CONTINUOUS
10
0.385894
20
0.525192
11
0.4
21
0.525984
0
LINE
8
BLACK
6
CONTINUOUS
10
0.4
20
0.525984
11
0.414106
21
0.525192
0
LINE
8
BLACK
6
CONTINUOUS
10
1.61411
20
0.525192
11
1.62803
21
0.522826
0
LINE
8
BLACK
6
CONTINUOUS
10
1.62803
20
0.522826
11
1.64161
21
0.518914
0
LINE
8
BLACK
6
CONTINUOUS
10
1.64161
20
0.518914
11
1.65466
21
0.513508
0
LINE
8
BLACK
6
CONTINUOUS
10
1.65466
20
0.513508
11
1.66703
21
0.506674
0
LINE
8
BLACK
6
CONTINUOUS
10
1.66703
20
0.506674
11
1.67855
21
0.498498
0
LINE
8
BLACK
6
CONTINUOUS
10
1.67855
20
0.498498
11
1.68908
21
0.489084
0
LINE
8
BLACK
6
CONTINUOUS
10
1.68908
20
0.489084
11
1.6985
21
0.47855
0
LINE
8
BLACK
6
CONTINUOUS
10
1.6985
20
0.47855
11
1.70667
21
0.467028
0
LINE
8
BLACK
6
CONTINUOUS
10
1.70667
20
0.467028
11
1.71351
21
0.454663
0
LINE
8
BLACK
6
CONTINUOUS
10
1.71351
20
0.454663
11
1.71891
21
0.44161
0
LINE
8
BLACK
6
CONTINUOUS
10
1.71891
20
0.44161
11
1.72283
21
0.428034
0
LINE
8
BLACK
6
CONTINUOUS
10
1.72283
20
0.428034
11
1.72519
21
0.414106
0
LINE
8
BLACK
6
CONTINUOUS
10
1.72519
20
0.414106
11
1.72598
21
0.4
0
LINE
8
BLACK
6
CONTINUOUS
10
1.72598
20
0.4
11
1.72519
21
0.385894
0
LINE
8
BLACK
6
CONTINUOUS
10
1.72519
20
0.385894
11
1.72283
21
0.371966
0
LINE
8
BLACK
6
CONTINUOUS
10
1.72283
20
0.371966
11
1.71891
21
0.35839
0
LINE
8
BLACK
6
CONTINUOUS
10
1.71891
20
0.35839
11
1.71351
21
0.345337
0
LINE
8
BLACK
6
CONTINUOUS
10
1.71351
20
0.345337
11
1.70667
21
0.332972
0
LINE
8
BLACK
6
CONTINUOUS
10
1.70667
20
0.332972
11
1.6985
21
0.32145
0
LINE
8
BLACK
6
CONTINUOUS
10
1.6985
20
0.32145
11
1.68908
21
0.310916
0
LINE
8
BLACK
6
CONTINUOUS
10
1.68908
20
0.310916
11
1.67855
21
0.301502
0
LINE
8
BLACK
6
CONTINUOUS
10
1.67855
20
0.301502
11
1.66703
21
0.293326
0
LINE
8
BLACK
6
CONTINUOUS
10
1.66703
20
0.293326
11
1.65466
21
0.286492
0
LINE
8
BLACK
6
CONTINUOUS
10
1.65466
20
0.286492
11
1.64161
21
0.281086
0
LINE
8
BLACK
6
CONTINUOUS
10
1.64161
20
0.281086
11
1.62803
21
0.277174
0
LINE
8
BLACK
6
CONTINUOUS
10
1.62803
20
0.277174
11
1.61411
21
0.274808
0
LINE
8
BLACK
6
CONTINUOUS
10
1.61411
20
0.274808
11
1.6
21
0.274016
0
LINE
8
BLACK
6
CONTINUOUS
10
1.6
20
0.274016
11
1.58589
21
0.274808
0
LINE
8
BLACK
6
CONTINUOUS
10
1.58589
20
0.274808
11
1.57197
21
0.277174
0
LINE
8
BLACK
6
CONTINUOUS
10
1.57197
20
0.277174
11
1.55839
21
0.281086
0
LINE
8
BLACK
6
CONTINUOUS
10
1.55839
20
0.281086
11
1.54534
21
0.286492
0
LINE
8
BLACK
6
CONTINUOUS
10
1.54534
20
0.286492
11
1.53297
21
0.293326
0
LINE
8
BLACK
6
CONTINUOUS
10
1.53297
20
0.293326
11
1.52145
21
0.301502
0
LINE
8
BLACK
6
CONTINUOUS
10
1.52145
20
0.301502
11
1.51092
21
0.310916
0
LINE
8
BLACK
6
CONTINUOUS
10
1.51092
20
0.310916
11
1.5015
21
0.32145
0
LINE
8
BLACK
6
CONTINUOUS
10
1.5015
20
0.32145
11
1.49333
21
0.332972
0
LINE
8
BLACK
6
CONTINUOUS
10
1.49333
20
0.332972
11
1.48649
21
0.345337
0
LINE
8
BLACK
6
CONTINUOUS
10
1.48649
20
0.345337
11
1.48109
21
0.35839
0
LINE
8
BLACK
6
CONTINUOUS
10
1.48109
20
0.35839
11
1.47717
21
0.371966
0
LINE
8
BLACK
6
CONTINUOUS
10
1.47717
20
0.371966
11
1.47481
21
0.385894
0
LINE
8
BLACK
6
CONTINUOUS
10
1.47481
20
0.385894
11
1.47402
21
0.4
0
LINE
8
BLACK
6
CONTINUOUS
10
1.47402
20
0.4
11
1.47481
21
0.414106
0
LINE
8
BLACK
6
CONTINUOUS
10
1.47481
20
0.414106
11
1.47717
21
0.428034
0
LINE
8
BLACK
6
CONTINUOUS
10
1.47717
20
0.428034
11
1.48109
21
0.44161
0
LINE
8
BLACK
6
CONTINUOUS
10
1.48109
20
0.44161
11
1.48649
21
0.454663
0
LINE
8
BLACK
6
CONTINUOUS
10
1.48649
20
0.454663
11
1.49333
21
0.467028
0
LINE
8
BLACK
6
CONTINUOUS
10
1.49333
20
0.467028
11
1.5015
21
0.47855
0
LINE
8
BLACK
6
CONTINUOUS
10
1.5015
20
0.47855
11
1.51092
21
0.489084
0
LINE
8
BLACK
6
CONTINUOUS
10
1.51092
20
0.489084
11
1.52145
21
0.498498
0
LINE
8
BLACK
6
CONTINUOUS
10
1.52145
20
0.498498
11
1.53297
21
0.506674
0
LINE
8
BLACK
6
CONTINUOUS
10
1.53297
20
0.506674
11
1.54534
21
0.513508
0
LINE
8
BLACK
6
CONTINUOUS
10
1.54534
20
0.513508
11
1.55839
21
0.518914
0
LINE
8
BLACK
6
CONTINUOUS
10
1.55839
20
0.518914
11
1.57197
21
0.522826
0
LINE
8
BLACK
6
CONTINUOUS
10
1.57197
20
0.522826
11
1.58589
21
0.525192
0
LINE
8
BLACK
6
CONTINUOUS
10
1.58589
20
0.525192
11
1.6
21
0.525984
0
LINE
8
BLACK
6
CONTINUOUS
10
1.6
20
0.525984
11
1.61411
21
0.525192
0
LINE
8
BLACK
6
CONTINUOUS
10
0.834878
20
0.533621
11
0.841227
21
0.531721
0
LINE
8
BLACK
6
CONTINUOUS
10
0.841227
20
0.531721
11
0.846966
21
0.528407
0
LINE
8
BLACK
6
CONTINUOUS
10
0.846966
20
0.528407
11
0.851787
21
0.523859
0
LINE
8
BLACK
6
CONTINUOUS
10
0.851787
20
0.523859
11
0.855429
21
0.518322
0
LINE
8
BLACK
6
CONTINUOUS
10
0.855429
20
0.518322
11
0.857695
21
0.512094
0
LINE
8
BLACK
6
CONTINUOUS
10
0.857695
20
0.512094
11
0.858465
21
0.505512
0
LINE
8
BLACK
6
CONTINUOUS
10
0.858465
20
0.505512
11
0.858465
21
0.464173
0
LINE
8
BLACK
6
CONTINUOUS
10
0.858465
20
0.464173
11
0.858272
21
0.46086
0
LINE
8
BLACK
6
CONTINUOUS
10
0.858272
20
0.46086
11
0.856743
21
0.454411
0
LINE
8
BLACK
6
CONTINUOUS
10
0.856743
20
0.454411
11
0.853769
21
0.448488
0
LINE
8
BLACK
6
CONTINUOUS
10
0.853769
20
0.448488
11
0.849509
21
0.443412
0
LINE
8
BLACK
6
CONTINUOUS
10
0.849509
20
0.443412
11
0.844193
21
0.439454
0
LINE
8
BLACK
6
CONTINUOUS
10
0.844193
20
0.439454
11
0.838108
21
0.436829
0
LINE
8
BLACK
6
CONTINUOUS
10
0.838108
20
0.436829
11
0.831581
21
0.435678
0
LINE
8
BLACK
6
CONTINUOUS
10
0.831581
20
0.435678
11
0.824965
21
0.436064
0
LINE
8
BLACK
6
CONTINUOUS
10
0.824965
20
0.436064
11
0.818616
21
0.437964
0
LINE
8
BLACK
6
CONTINUOUS
10
0.818616
20
0.437964
11
0.812876
21
0.441278
0
LINE
8
BLACK
6
CONTINUOUS
10
0.812876
20
0.441278
11
0.808056
21
0.445826
0
LINE
8
BLACK
6
CONTINUOUS
10
0.808056
20
0.445826
11
0.804414
21
0.451363
0
LINE
8
BLACK
6
CONTINUOUS
10
0.804414
20
0.451363
11
0.802147
21
0.457591
0
LINE
8
BLACK
6
CONTINUOUS
10
0.802147
20
0.457591
11
0.801378
21
0.464173
0
LINE
8
BLACK
6
CONTINUOUS
10
0.801378
20
0.464173
11
0.801378
21
0.505512
0
LINE
8
BLACK
6
CONTINUOUS
10
0.801378
20
0.505512
11
0.801571
21
0.508825
0
LINE
8
BLACK
6
CONTINUOUS
10
0.801571
20
0.508825
11
0.803099
21
0.515274
0
LINE
8
BLACK
6
CONTINUOUS
10
0.803099
20
0.515274
11
0.806074
21
0.521197
0
LINE
8
BLACK
6
CONTINUOUS
10
0.806074
20
0.521197
11
0.810334
21
0.526273
0
LINE
8
BLACK
6
CONTINUOUS
10
0.810334
20
0.526273
11
0.81565
21
0.530231
0
LINE
8
BLACK
6
CONTINUOUS
10
0.81565
20
0.530231
11
0.821735
21
0.532856
0
LINE
8
BLACK
6
CONTINUOUS
10
0.821735
20
0.532856
11
0.828262
21
0.534007
0
LINE
8
BLACK
6
CONTINUOUS
10
0.828262
20
0.534007
11
0.834878
21
0.533621
0
LINE
8
BLACK
6
CONTINUOUS
10
1.17504
20
0.533621
11
1.18138
21
0.531721
0
LINE
8
BLACK
6
CONTINUOUS
10
1.18138
20
0.531721
11
1.18712
21
0.528407
0
LINE
8
BLACK
6
CONTINUOUS
10
1.18712
20
0.528407
11
1.19194
21
0.523859
0
LINE
8
BLACK
6
CONTINUOUS
10
1.19194
20
0.523859
11
1.19559
21
0.518322
0
LINE
8
BLACK
6
CONTINUOUS
10
1.19559
20
0.518322
11
1.19785
21
0.512094
0
LINE
8
BLACK
6
CONTINUOUS
10
1.19785
20
0.512094
11
1.19862
21
0.505512
0
LINE
8
BLACK
6
CONTINUOUS
10
1.19862
20
0.505512
11
1.19862
21
0.464173
0
LINE
8
BLACK
6
CONTINUOUS
10
1.19862
20
0.464173
11
1.19843
21
0.46086
0
LINE
8
BLACK
6
CONTINUOUS
10
1.19843
20
0.46086
11
1.1969
21
0.454411
0
LINE
8
BLACK
6
CONTINUOUS
10
1.1969
20
0.454411
11
1.19393
21
0.448488
0
LINE
8
BLACK
6
CONTINUOUS
10
1.19393
20
0.448488
11
1.18967
21
0.443412
0
LINE
8
BLACK
6
CONTINUOUS
10
1.18967
20
0.443412
11
1.18435
21
0.439454
0
LINE
8
BLACK
6
CONTINUOUS
10
1.18435
20
0.439454
11
1.17827
21
0.436829
0
LINE
8
BLACK
6
CONTINUOUS
10
1.17827
20
0.436829
11
1.17174
21
0.435678
0
LINE
8
BLACK
6
CONTINUOUS
10
1.17174
20
0.435678
11
1.16512
21
0.436064
0
LINE
8
BLACK
6
CONTINUOUS
10
1.16512
20
0.436064
11
1.15877
21
0.437964
0
LINE
8
BLACK
6
CONTINUOUS
10
1.15877
20
0.437964
11
1.15303
21
0.441278
0
LINE
8
BLACK
6
CONTINUOUS
10
1.15303
20
0.441278
11
1.14821
21
0.445826
0
LINE
8
BLACK
6
CONTINUOUS
10
1.14821
20
0.445826
11
1.14457
21
0.451363
0
LINE
8
BLACK
6
CONTINUOUS
10
1.14457
20
0.451363
11
1.1423
21
0.457591
0
LINE
8
BLACK
6
CONTINUOUS
10
1.1423
20
0.457591
11
1.14154
21
0.464173
0
LINE
8
BLACK
6
CONTINUOUS
10
1.14154
20
0.464173
11
1.14154
21
0.505512
0
LINE
8
BLACK
6
CONTINUOUS
10
1.14154
20
0.505512
11
1.14173
21
0.508825
0
LINE
8
BLACK
6
CONTINUOUS
10
1.14173
20
0.508825
11
1.14326
21
0.515274
0
LINE
8
BLACK
6
CONTINUOUS
10
1.14326
20
0.515274
11
1.14623
21
0.521197
0
LINE
8
BLACK
6
CONTINUOUS
10
1.14623
20
0.521197
11
1.15049
21
0.526273
0
LINE
8
BLACK
6
CONTINUOUS
10
1.15049
20
0.526273
11
1.15581
21
0.530231
0
LINE
8
BLACK
6
CONTINUOUS
10
1.15581
20
0.530231
11
1.16189
21
0.532856
0
LINE
8
BLACK
6
CONTINUOUS
10
1.16189
20
0.532856
11
1.16842
21
0.534007
0
LINE
8
BLACK
6
CONTINUOUS
10
1.16842
20
0.534007
11
1.17504
21
0.533621
0
LINE
8
BLACK
6
CONTINUOUS
10
0.89157
20
0.485122
11
0.896555
21
0.483058
0
LINE
8
BLACK
6
CONTINUOUS
10
0.896555
20
0.483058
11
0.900836
21
0.479773
0
LINE
8
BLACK
6
CONTINUOUS
10
0.900836
20
0.479773
11
0.904121
21
0.475492
0
LINE
8
BLACK
6
CONTINUOUS
10
0.904121
20
0.475492
11
0.906185
21
0.470507
0
LINE
8
BLACK
6
CONTINUOUS
10
0.906185
20
0.470507
11
0.90689
21
0.465157
0
LINE
8
BLACK
6
CONTINUOUS
10
0.90689
20
0.465157
11
0.906185
21
0.459808
0
LINE
8
BLACK
6
CONTINUOUS
10
0.906185
20
0.459808
11
0.904121
21
0.454823
0
LINE
8
BLACK
6
CONTINUOUS
10
0.904121
20
0.454823
11
0.900836
21
0.450542
0
LINE
8
BLACK
6
CONTINUOUS
10
0.900836
20
0.450542
11
0.896555
21
0.447257
0
LINE
8
BLACK
6
CONTINUOUS
10
0.896555
20
0.447257
11
0.89157
21
0.445192
0
LINE
8
BLACK
6
CONTINUOUS
10
0.89157
20
0.445192
11
0.88622
21
0.444488
0
LINE
8
BLACK
6
CONTINUOUS
10
0.88622
20
0.444488
11
0.880871
21
0.445192
0
LINE
8
BLACK
6
CONTINUOUS
10
0.880871
20
0.445192
11
0.875886
21
0.447257
0
LINE
8
BLACK
6
CONTINUOUS
10
0.875886
20
0.447257
11
0.871605
21
0.450542
0
LINE
8
BLACK
6
CONTINUOUS
10
0.871605
20
0.450542
11
0.86832
21
0.454823
0
LINE
8
BLACK
6
CONTINUOUS
10
0.86832
20
0.454823
11
0.866255
21
0.459808
0
LINE
8
BLACK
6
CONTINUOUS
10
0.866255
20
0.459808
11
0.865551
21
0.465157
0
LINE
8
BLACK
6
CONTINUOUS
10
0.865551
20
0.465157
11
0.866255
21
0.470507
0
LINE
8
BLACK
6
CONTINUOUS
10
0.866255
20
0.470507
11
0.86832
21
0.475492
0
LINE
8
BLACK
6
CONTINUOUS
10
0.86832
20
0.475492
11
0.871605
21
0.479773
0
LINE
8
BLACK
6
CONTINUOUS
10
0.871605
20
0.479773
11
0.875886
21
0.483058
0
LINE
8
BLACK
6
CONTINUOUS
10
0.875886
20
0.483058
11
0.880871
21
0.485122
0
LINE
8
BLACK
6
CONTINUOUS
10
0.880871
20
0.485122
11
0.88622
21
0.485827
0
LINE
8
BLACK
6
CONTINUOUS
10
0.88622
20
0.485827
11
0.89157
21
0.485122
0
LINE
8
BLACK
6
CONTINUOUS
10
1.11913
20
0.485122
11
1.12411
21
0.483058
0
LINE
8
BLACK
6
CONTINUOUS
10
1.12411
20
0.483058
11
1.12839
21
0.479773
0
LINE
8
BLACK
6
CONTINUOUS
10
1.12839
20
0.479773
11
1.13168
21
0.475492
0
LINE
8
BLACK
6
CONTINUOUS
10
1.13168
20
0.475492
11
1.13374
21
0.470507
0
LINE
8
BLACK
6
CONTINUOUS
10
1.13374
20
0.470507
11
1.13445
21
0.465157
0
LINE
8
BLACK
6
CONTINUOUS
10
1.13445
20
0.465157
11
1.13374
21
0.459808
0
LINE
8
BLACK
6
CONTINUOUS
10
1.13374
20
0.459808
11
1.13168
21
0.454823
0
LINE
8
BLACK
6
CONTINUOUS
10
1.13168
20
0.454823
11
1.12839
21
0.450542
0
LINE
8
BLACK
6
CONTINUOUS
10
1.12839
20
0.450542
11
1.12411
21
0.447257
0
LINE
8
BLACK
6
CONTINUOUS
10
1.12411
20
0.447257
11
1.11913
21
0.445192
0
LINE
8
BLACK
6
CONTINUOUS
10
1.11913
20
0.445192
11
1.11378
21
0.444488
0
LINE
8
BLACK
6
CONTINUOUS
10
1.11378
20
0.444488
11
1.10843
21
0.445192
0
LINE
8
BLACK
6
CONTINUOUS
10
1.10843
20
0.445192
11
1.10344
21
0.447257
0
LINE
8
BLACK
6
CONTINUOUS
10
1.10344
20
0.447257
11
1.09916
21
0.450542
0
LINE
8
BLACK
6
CONTINUOUS
10
1.09916
20
0.450542
11
1.09588
21
0.454823
0
LINE
8
BLACK
6
CONTINUOUS
10
1.09588
20
0.454823
11
1.09381
21
0.459808
0
LINE
8
BLACK
6
CONTINUOUS
10
1.09381
20
0.459808
11
1.09311
21
0.465157
0
LINE
8
BLACK
6
CONTINUOUS
10
1.09311
20
0.465157
11
1.09381
21
0.470507
0
LINE
8
BLACK
6
CONTINUOUS
10
1.09381
20
0.470507
11
1.09588
21
0.475492
0
LINE
8
BLACK
6
CONTINUOUS
10
1.09588
20
0.475492
11
1.09916
21
0.479773
0
LINE
8
BLACK
6
CONTINUOUS
10
1.09916
20
0.479773
11
1.10344
21
0.483058
0
LINE
8
BLACK
6
CONTINUOUS
10
1.10344
20
0.483058
11
1.10843
21
0.485122
0
LINE
8
BLACK
6
CONTINUOUS
10
1.10843
20
0.485122
11
1.11378
21
0.485827
0
LINE
8
BLACK
6
CONTINUOUS
10
1.11378
20
0.485827
11
1.11913
21
0.485122
0
LINE
8
BLACK
6
CONTINUOUS
10
1.58287
20
0.689363
11
1.59062
21
0.687011
0
LINE
8
BLACK
6
CONTINUOUS
10
1.59062
20
0.687011
11
1.59777
21
0.683191
0
LINE
8
BLACK
6
CONTINUOUS
10
1.59777
20
0.683191
11
1.60403
21
0.67805
0
LINE
8
BLACK
6
CONTINUOUS
10
1.60403
20
0.67805
11
1.60917
21
0.671785
0
LINE
8
BLACK
6
CONTINUOUS
10
1.60917
20
0.671785
11
1.613
21
0.664639
0
LINE
8
BLACK
6
CONTINUOUS
10
1.613
20
0.664639
11
1.61535
21
0.656884
0
LINE
8
BLACK
6
CONTINUOUS
10
1.61535
20
0.656884
11
1.61614
21
0.648819
0
LINE
8
BLACK
6
CONTINUOUS
10
1.61614
20
0.648819
11
1.61535
21
0.640754
0
LINE
8
BLACK
6
CONTINUOUS
10
1.61535
20
0.640754
11
1.613
21
0.632999
0
LINE
8
BLACK
6
CONTINUOUS
10
1.613
20
0.632999
11
1.60917
21
0.625852
0
LINE
8
BLACK
6
CONTINUOUS
10
1.60917
20
0.625852
11
1.60403
21
0.619588
0
LINE
8
BLACK
6
CONTINUOUS
10
1.60403
20
0.619588
11
1.59777
21
0.614447
0
LINE
8
BLACK
6
CONTINUOUS
10
1.59777
20
0.614447
11
1.59062
21
0.610627
0
LINE
8
BLACK
6
CONTINUOUS
10
1.59062
20
0.610627
11
1.58287
21
0.608275
0
LINE
8
BLACK
6
CONTINUOUS
10
1.58287
20
0.608275
11
1.5748
21
0.60748
0
LINE
8
BLACK
6
CONTINUOUS
10
1.5748
20
0.60748
11
1.56674
21
0.608275
0
LINE
8
BLACK
6
CONTINUOUS
10
1.56674
20
0.608275
11
1.55898
21
0.610627
0
LINE
8
BLACK
6
CONTINUOUS
10
1.55898
20
0.610627
11
1.55184
21
0.614447
0
LINE
8
BLACK
6
CONTINUOUS
10
1.55184
20
0.614447
11
1.54557
21
0.619588
0
LINE
8
BLACK
6
CONTINUOUS
10
1.54557
20
0.619588
11
1.54043
21
0.625852
0
LINE
8
BLACK
6
CONTINUOUS
10
1.54043
20
0.625852
11
1.53661
21
0.632999
0
LINE
8
BLACK
6
CONTINUOUS
10
1.53661
20
0.632999
11
1.53426
21
0.640754
0
LINE
8
BLACK
6
CONTINUOUS
10
1.53426
20
0.640754
11
1.53346
21
0.648819
0
LINE
8
BLACK
6
CONTINUOUS
10
1.53346
20
0.648819
11
1.53426
21
0.656884
0
LINE
8
BLACK
6
CONTINUOUS
10
1.53426
20
0.656884
11
1.53661
21
0.664639
0
LINE
8
BLACK
6
CONTINUOUS
10
1.53661
20
0.664639
11
1.54043
21
0.671785
0
LINE
8
BLACK
6
CONTINUOUS
10
1.54043
20
0.671785
11
1.54557
21
0.67805
0
LINE
8
BLACK
6
CONTINUOUS
10
1.54557
20
0.67805
11
1.55184
21
0.683191
0
LINE
8
BLACK
6
CONTINUOUS
10
1.55184
20
0.683191
11
1.55898
21
0.687011
0
LINE
8
BLACK
6
CONTINUOUS
10
1.55898
20
0.687011
11
1.56674
21
0.689363
0
LINE
8
BLACK
6
CONTINUOUS
10
1.56674
20
0.689363
11
1.5748
21
0.690157
0
LINE
8
BLACK
6
CONTINUOUS
10
1.5748
20
0.690157
11
1.58287
21
0.689363
0
LINE
8
BLACK
6
CONTINUOUS
10
1.68287
20
0.689363
11
1.69062
21
0.687011
0
LINE
8
BLACK
6
CONTINUOUS
10
1.69062
20
0.687011
11
1.69777
21
0.683191
0
LINE
8
BLACK
6
CONTINUOUS
10
1.69777
20
0.683191
11
1.70403
21
0.67805
0
LINE
8
BLACK
6
CONTINUOUS
10
1.70403
20
0.67805
11
1.70917
21
0.671785
0
LINE
8
BLACK
6
CONTINUOUS
10
1.70917
20
0.671785
11
1.713
21
0.664639
0
LINE
8
BLACK
6
CONTINUOUS
10
1.713
20
0.664639
11
1.71535
21
0.656884
0
LINE
8
BLACK
6
CONTINUOUS
10
1.71535
20
0.656884
11
1.71614
21
0.648819
0
LINE
8
BLACK
6
CONTINUOUS
10
1.71614
20
0.648819
11
1.71535
21
0.640754
0
LINE
8
BLACK
6
CONTINUOUS
10
1.71535
20
0.640754
11
1.713
21
0.632999
0
LINE
8
BLACK
6
CONTINUOUS
10
1.713
20
0.632999
11
1.70917
21
0.625852
0
LINE
8
BLACK
6
CONTINUOUS
10
1.70917
20
0.625852
11
1.70403
21
0.619588
0
LINE
8
BLACK
6
CONTINUOUS
10
1.70403
20
0.619588
11
1.69777
21
0.614447
0
LINE
8
BLACK
6
CONTINUOUS
10
1.69777
20
0.614447
11
1.69062
21
0.610627
0
LINE
8
BLACK
6
CONTINUOUS
10
1.69062
20
0.610627
11
1.68287
21
0.608275
0
LINE
8
BLACK
6
CONTINUOUS
10
1.68287
20
0.608275
11
1.6748
21
0.60748
0
LINE
8
BLACK
6
CONTINUOUS
10
1.6748
20
0.60748
11
1.66674
21
0.608275
0
LINE
8
BLACK
6
CONTINUOUS
10
1.66674
20
0.608275
11
1.65898
21
0.610627
0
LINE
8
BLACK
6
CONTINUOUS
10
1.65898
20
0.610627
11
1.65184
21
0.614447
0
LINE
8
BLACK
6
CONTINUOUS
10
1.65184
20
0.614447
11
1.64557
21
0.619588
0
LINE
8
BLACK
6
CONTINUOUS
10
1.64557
20
0.619588
11
1.64043
21
0.625852
0
LINE
8
BLACK
6
CONTINUOUS
10
1.64043
20
0.625852
11
1.63661
21
0.632999
0
LINE
8
BLACK
6
CONTINUOUS
10
1.63661
20
0.632999
11
1.63426
21
0.640754
0
LINE
8
BLACK
6
CONTINUOUS
10
1.63426
20
0.640754
11
1.63346
21
0.648819
0
LINE
8
BLACK
6
CONTINUOUS
10
1.63346
20
0.648819
11
1.63426
21
0.656884
0
LINE
8
BLACK
6
CONTINUOUS
10
1.63426
20
0.656884
11
1.63661
21
0.664639
0
LINE
8
BLACK
6
CONTINUOUS
10
1.63661
20
0.664639
11
1.64043
21
0.671785
0
LINE
8
BLACK
6
CONTINUOUS
10
1.64043
20
0.671785
11
1.64557
21
0.67805
0
LINE
8
BLACK
6
CONTINUOUS
10
1.64557
20
0.67805
11
1.65184
21
0.683191
0
LINE
8
BLACK
6
CONTINUOUS
10
1.65184
20
0.683191
11
1.65898
21
0.687011
0
LINE
8
BLACK
6
CONTINUOUS
10
1.65898
20
0.687011
11
1.66674
21
0.689363
0
LINE
8
BLACK
6
CONTINUOUS
10
1.66674
20
0.689363
11
1.6748
21
0.690157
0
LINE
8
BLACK
6
CONTINUOUS
10
1.6748
20
0.690157
11
1.68287
21
0.689363
0
LINE
8
BLACK
6
CONTINUOUS
10
0.98136
20
0.693101
11
0.983914
21
0.691395
0
LINE
8
BLACK
6
CONTINUOUS
10
0.983914
20
0.691395
11
0.985621
21
0.68884
0
LINE
8
BLACK
6
CONTINUOUS
10
0.985621
20
0.68884
11
0.98622
21
0.685827
0
LINE
8
BLACK
6
CONTINUOUS
10
0.98622
20
0.685827
11
0.98622
21
0.618898
0
LINE
8
BLACK
6
CONTINUOUS
10
0.98622
20
0.618898
11
0.985621
21
0.615884
0
LINE
8
BLACK
6
CONTINUOUS
10
0.985621
20
0.615884
11
0.983914
21
0.61333
0
LINE
8
BLACK
6
CONTINUOUS
10
0.983914
20
0.61333
11
0.98136
21
0.611623
0
LINE
8
BLACK
6
CONTINUOUS
10
0.98136
20
0.611623
11
0.978346
21
0.611024
0
LINE
8
BLACK
6
CONTINUOUS
10
0.978346
20
0.611024
11
0.911417
21
0.611024
0
LINE
8
BLACK
6
CONTINUOUS
10
0.911417
20
0.611024
11
0.908404
21
0.611623
0
LINE
8
BLACK
6
CONTINUOUS
10
0.908404
20
0.611623
11
0.90585
21
0.61333
0
LINE
8
BLACK
6
CONTINUOUS
10
0.90585
20
0.61333
11
0.904143
21
0.615884
0
LINE
8
BLACK
6
CONTINUOUS
10
0.904143
20
0.615884
11
0.903543
21
0.618898
0
LINE
8
BLACK
6
CONTINUOUS
10
0.903543
20
0.618898
11
0.903543
21
0.685827
0
LINE
8
BLACK
6
CONTINUOUS
10
0.903543
20
0.685827
11
0.904143
21
0.68884
0
LINE
8
BLACK
6
CONTINUOUS
10
0.904143
20
0.68884
11
0.90585
21
0.691395
0
LINE
8
BLACK
6
CONTINUOUS
10
0.90585
20
0.691395
11
0.908404
21
0.693101
0
LINE
8
BLACK
6
CONTINUOUS
10
0.908404
20
0.693101
11
0.911417
21
0.693701
0
LINE
8
BLACK
6
CONTINUOUS
10
0.911417
20
0.693701
11
0.978346
21
0.693701
0
LINE
8
BLACK
6
CONTINUOUS
10
0.978346
20
0.693701
11
0.98136
21
0.693101
0
LINE
8
BLACK
6
CONTINUOUS
10
1.05295
20
0.692906
11
1.0607
21
0.690554
0
LINE
8
BLACK
6
CONTINUOUS
10
1.0607
20
0.690554
11
1.06785
21
0.686734
0
LINE
8
BLACK
6
CONTINUOUS
10
1.06785
20
0.686734
11
1.07411
21
0.681593
0
LINE
8
BLACK
6
CONTINUOUS
10
1.07411
20
0.681593
11
1.07925
21
0.675329
0
LINE
8
BLACK
6
CONTINUOUS
10
1.07925
20
0.675329
11
1.08307
21
0.668182
0
LINE
8
BLACK
6
CONTINUOUS
10
1.08307
20
0.668182
11
1.08543
21
0.660427
0
LINE
8
BLACK
6
CONTINUOUS
10
1.08543
20
0.660427
11
1.08622
21
0.652362
0
LINE
8
BLACK
6
CONTINUOUS
10
1.08622
20
0.652362
11
1.08543
21
0.644297
0
LINE
8
BLACK
6
CONTINUOUS
10
1.08543
20
0.644297
11
1.08307
21
0.636543
0
LINE
8
BLACK
6
CONTINUOUS
10
1.08307
20
0.636543
11
1.07925
21
0.629396
0
LINE
8
BLACK
6
CONTINUOUS
10
1.07925
20
0.629396
11
1.07411
21
0.623131
0
LINE
8
BLACK
6
CONTINUOUS
10
1.07411
20
0.623131
11
1.06785
21
0.61799
0
LINE
8
BLACK
6
CONTINUOUS
10
1.06785
20
0.61799
11
1.0607
21
0.61417
0
LINE
8
BLACK
6
CONTINUOUS
10
1.0607
20
0.61417
11
1.05295
21
0.611818
0
LINE
8
BLACK
6
CONTINUOUS
10
1.05295
20
0.611818
11
1.04488
21
0.611024
0
LINE
8
BLACK
6
CONTINUOUS
10
1.04488
20
0.611024
11
1.03682
21
0.611818
0
LINE
8
BLACK
6
CONTINUOUS
10
1.03682
20
0.611818
11
1.02906
21
0.61417
0
LINE
8
BLACK
6
CONTINUOUS
10
1.02906
20
0.61417
11
1.02192
21
0.61799
0
LINE
8
BLACK
6
CONTINUOUS
10
1.02192
20
0.61799
11
1.01565
21
0.623131
0
LINE
8
BLACK
6
CONTINUOUS
10
1.01565
20
0.623131
11
1.01051
21
0.629396
0
LINE
8
BLACK
6
CONTINUOUS
10
1.01051
20
0.629396
11
1.00669
21
0.636543
0
LINE
8
BLACK
6
CONTINUOUS
10
1.00669
20
0.636543
11
1.00434
21
0.644297
0
LINE
8
BLACK
6
CONTINUOUS
10
1.00434
20
0.644297
11
1.00354
21
0.652362
0
LINE
8
BLACK
6
CONTINUOUS
10
1.00354
20
0.652362
11
1.00434
21
0.660427
0
LINE
8
BLACK
6
CONTINUOUS
10
1.00434
20
0.660427
11
1.00669
21
0.668182
0
LINE
8
BLACK
6
CONTINUOUS
10
1.00669
20
0.668182
11
1.01051
21
0.675329
0
LINE
8
BLACK
6
CONTINUOUS
10
1.01051
20
0.675329
11
1.01565
21
0.681593
0
LINE
8
BLACK
6
CONTINUOUS
10
1.01565
20
0.681593
11
1.02192
21
0.686734
0
LINE
8
BLACK
6
CONTINUOUS
10
1.02192
20
0.686734
11
1.02906
21
0.690554
0
LINE
8
BLACK
6
CONTINUOUS
10
1.02906
20
0.690554
11
1.03682
21
0.692906
0
LINE
8
BLACK
6
CONTINUOUS
10
1.03682
20
0.692906
11
1.04488
21
0.693701
0
LINE
8
BLACK
6
CONTINUOUS
10
1.04488
20
0.693701
11
1.05295
21
0.692906
0
LINE
8
BLACK
6
CONTINUOUS
10
0.569285
20
0.721056
11
0.57704
21
0.718704
0
LINE
8
BLACK
6
CONTINUOUS
10
0.57704
20
0.718704
11
0.584187
21
0.714884
0
LINE
8
BLACK
6
CONTINUOUS
10
0.584187
20
0.714884
11
0.590451
21
0.709743
0
LINE
8
BLACK
6
CONTINUOUS
10
0.590451
20
0.709743
11
0.595592
21
0.703478
0
LINE
8
BLACK
6
CONTINUOUS
10
0.595592
20
0.703478
11
0.599412
21
0.696331
0
LINE
8
BLACK
6
CONTINUOUS
10
0.599412
20
0.696331
11
0.601765
21
0.688577
0
LINE
8
BLACK
6
CONTINUOUS
10
0.601765
20
0.688577
11
0.602559
21
0.680512
0
LINE
8
BLACK
6
CONTINUOUS
10
0.602559
20
0.680512
11
0.601765
21
0.672447
0
LINE
8
BLACK
6
CONTINUOUS
10
0.601765
20
0.672447
11
0.599412
21
0.664692
0
LINE
8
BLACK
6
CONTINUOUS
10
0.599412
20
0.664692
11
0.595592
21
0.657545
0
LINE
8
BLACK
6
CONTINUOUS
10
0.595592
20
0.657545
11
0.590451
21
0.651281
0
LINE
8
BLACK
6
CONTINUOUS
10
0.590451
20
0.651281
11
0.584187
21
0.64614
0
LINE
8
BLACK
6
CONTINUOUS
10
0.584187
20
0.64614
11
0.57704
21
0.64232
0
LINE
8
BLACK
6
CONTINUOUS
10
0.57704
20
0.64232
11
0.569285
21
0.639968
0
LINE
8
BLACK
6
CONTINUOUS
10
0.569285
20
0.639968
11
0.56122
21
0.639173
0
LINE
8
BLACK
6
CONTINUOUS
10
0.56122
20
0.639173
11
0.553156
21
0.639968
0
LINE
8
BLACK
6
CONTINUOUS
10
0.553156
20
0.639968
11
0.545401
21
0.64232
0
LINE
8
BLACK
6
CONTINUOUS
10
0.545401
20
0.64232
11
0.538254
21
0.64614
0
LINE
8
BLACK
6
CONTINUOUS
10
0.538254
20
0.64614
11
0.53199
21
0.651281
0
LINE
8
BLACK
6
CONTINUOUS
10
0.53199
20
0.651281
11
0.526849
21
0.657545
0
LINE
8
BLACK
6
CONTINUOUS
10
0.526849
20
0.657545
11
0.523029
21
0.664692
0
LINE
8
BLACK
6
CONTINUOUS
10
0.523029
20
0.664692
11
0.520676
21
0.672447
0
LINE
8
BLACK
6
CONTINUOUS
10
0.520676
20
0.672447
11
0.519882
21
0.680512
0
LINE
8
BLACK
6
CONTINUOUS
10
0.519882
20
0.680512
11
0.520676
21
0.688577
0
LINE
8
BLACK
6
CONTINUOUS
10
0.520676
20
0.688577
11
0.523029
21
0.696331
0
LINE
8
BLACK
6
CONTINUOUS
10
0.523029
20
0.696331
11
0.526849
21
0.703478
0
LINE
8
BLACK
6
CONTINUOUS
10
0.526849
20
0.703478
11
0.53199
21
0.709743
0
LINE
8
BLACK
6
CONTINUOUS
10
0.53199
20
0.709743
11
0.538254
21
0.714884
0
LINE
8
BLACK
6
CONTINUOUS
10
0.538254
20
0.714884
11
0.545401
21
0.718704
0
LINE
8
BLACK
6
CONTINUOUS
10
0.545401
20
0.718704
11
0.553156
21
0.721056
0
LINE
8
BLACK
6
CONTINUOUS
10
0.553156
20
0.721056
11
0.56122
21
0.72185
0
LINE
8
BLACK
6
CONTINUOUS
10
0.56122
20
0.72185
11
0.569285
21
0.721056
0
LINE
8
BLACK
6
CONTINUOUS
10
0.669285
20
0.721056
11
0.67704
21
0.718704
0
LINE
8
BLACK
6
CONTINUOUS
10
0.67704
20
0.718704
11
0.684187
21
0.714884
0
LINE
8
BLACK
6
CONTINUOUS
10
0.684187
20
0.714884
11
0.690451
21
0.709743
0
LINE
8
BLACK
6
CONTINUOUS
10
0.690451
20
0.709743
11
0.695592
21
0.703478
0
LINE
8
BLACK
6
CONTINUOUS
10
0.695592
20
0.703478
11
0.699412
21
0.696331
0
LINE
8
BLACK
6
CONTINUOUS
10
0.699412
20
0.696331
11
0.701765
21
0.688577
0
LINE
8
BLACK
6
CONTINUOUS
10
0.701765
20
0.688577
11
0.702559
21
0.680512
0
LINE
8
BLACK
6
CONTINUOUS
10
0.702559
20
0.680512
11
0.701765
21
0.672447
0
LINE
8
BLACK
6
CONTINUOUS
10
0.701765
20
0.672447
11
0.699412
21
0.664692
0
LINE
8
BLACK
6
CONTINUOUS
10
0.699412
20
0.664692
11
0.695592
21
0.657545
0
LINE
8
BLACK
6
CONTINUOUS
10
0.695592
20
0.657545
11
0.690451
21
0.651281
0
LINE
8
BLACK
6
CONTINUOUS
10
0.690451
20
0.651281
11
0.684187
21
0.64614
0
LINE
8
BLACK
6
CONTINUOUS
10
0.684187
20
0.64614
11
0.67704
21
0.64232
0
LINE
8
BLACK
6
CONTINUOUS
10
0.67704
20
0.64232
11
0.669285
21
0.639968
0
LINE
8
BLACK
6
CONTINUOUS
10
0.669285
20
0.639968
11
0.66122
21
0.639173
0
LINE
8
BLACK
6
CONTINUOUS
10
0.66122
20
0.639173
11
0.653156
21
0.639968
0
LINE
8
BLACK
6
CONTINUOUS
10
0.653156
20
0.639968
11
0.645401
21
0.64232
0
LINE
8
BLACK
6
CONTINUOUS
10
0.645401
20
0.64232
11
0.638254
21
0.64614
0
LINE
8
BLACK
6
CONTINUOUS
10
0.638254
20
0.64614
11
0.63199
21
0.651281
0
LINE
8
BLACK
6
CONTINUOUS
10
0.63199
20
0.651281
11
0.626849
21
0.657545
0
LINE
8
BLACK
6
CONTINUOUS
10
0.626849
20
0.657545
11
0.623029
21
0.664692
0
LINE
8
BLACK
6
CONTINUOUS
10
0.623029
20
0.664692
11
0.620676
21
0.672447
0
LINE
8
BLACK
6
CONTINUOUS
10
0.620676
20
0.672447
11
0.619882
21
0.680512
0
LINE
8
BLACK
6
CONTINUOUS
10
0.619882
20
0.680512
11
0.620676
21
0.688577
0
LINE
8
BLACK
6
CONTINUOUS
10
0.620676
20
0.688577
11
0.623029
21
0.696331
0
LINE
8
BLACK
6
CONTINUOUS
10
0.623029
20
0.696331
11
0.626849
21
0.703478
0
LINE
8
BLACK
6
CONTINUOUS
10
0.626849
20
0.703478
11
0.63199
21
0.709743
0
LINE
8
BLACK
6
CONTINUOUS
10
0.63199
20
0.709743
11
0.638254
21
0.714884
0
LINE
8
BLACK
6
CONTINUOUS
10
0.638254
20
0.714884
11
0.645401
21
0.718704
0
LINE
8
BLACK
6
CONTINUOUS
10
0.645401
20
0.718704
11
0.653156
21
0.721056
0
LINE
8
BLACK
6
CONTINUOUS
10
0.653156
20
0.721056
11
0.66122
21
0.72185
0
LINE
8
BLACK
6
CONTINUOUS
10
0.66122
20
0.72185
11
0.669285
21
0.721056
0
LINE
8
BLACK
6
CONTINUOUS
10
1.58287
20
0.789363
11
1.59062
21
0.787011
0
LINE
8
BLACK
6
CONTINUOUS
10
1.59062
20
0.787011
11
1.59777
21
0.783191
0
LINE
8
BLACK
6
CONTINUOUS
10
1.59777
20
0.783191
11
1.60403
21
0.77805
0
LINE
8
BLACK
6
CONTINUOUS
10
1.60403
20
0.77805
11
1.60917
21
0.771785
0
LINE
8
BLACK
6
CONTINUOUS
10
1.60917
20
0.771785
11
1.613
21
0.764639
0
LINE
8
BLACK
6
CONTINUOUS
10
1.613
20
0.764639
11
1.61535
21
0.756884
0
LINE
8
BLACK
6
CONTINUOUS
10
1.61535
20
0.756884
11
1.61614
21
0.748819
0
LINE
8
BLACK
6
CONTINUOUS
10
1.61614
20
0.748819
11
1.61535
21
0.740754
0
LINE
8
BLACK
6
CONTINUOUS
10
1.61535
20
0.740754
11
1.613
21
0.732999
0
LINE
8
BLACK
6
CONTINUOUS
10
1.613
20
0.732999
11
1.60917
21
0.725852
0
LINE
8
BLACK
6
CONTINUOUS
10
1.60917
20
0.725852
11
1.60403
21
0.719588
0
LINE
8
BLACK
6
CONTINUOUS
10
1.60403
20
0.719588
11
1.59777
21
0.714447
0
LINE
8
BLACK
6
CONTINUOUS
10
1.59777
20
0.714447
11
1.59062
21
0.710627
0
LINE
8
BLACK
6
CONTINUOUS
10
1.59062
20
0.710627
11
1.58287
21
0.708275
0
LINE
8
BLACK
6
CONTINUOUS
10
1.58287
20
0.708275
11
1.5748
21
0.70748
0
LINE
8
BLACK
6
CONTINUOUS
10
1.5748
20
0.70748
11
1.56674
21
0.708275
0
LINE
8
BLACK
6
CONTINUOUS
10
1.56674
20
0.708275
11
1.55898
21
0.710627
0
LINE
8
BLACK
6
CONTINUOUS
10
1.55898
20
0.710627
11
1.55184
21
0.714447
0
LINE
8
BLACK
6
CONTINUOUS
10
1.55184
20
0.714447
11
1.54557
21
0.719588
0
LINE
8
BLACK
6
CONTINUOUS
10
1.54557
20
0.719588
11
1.54043
21
0.725852
0
LINE
8
BLACK
6
CONTINUOUS
10
1.54043
20
0.725852
11
1.53661
21
0.732999
0
LINE
8
BLACK
6
CONTINUOUS
10
1.53661
20
0.732999
11
1.53426
21
0.740754
0
LINE
8
BLACK
6
CONTINUOUS
10
1.53426
20
0.740754
11
1.53346
21
0.748819
0
LINE
8
BLACK
6
CONTINUOUS
10
1.53346
20
0.748819
11
1.53426
21
0.756884
0
LINE
8
BLACK
6
CONTINUOUS
10
1.53426
20
0.756884
11
1.53661
21
0.764639
0
LINE
8
BLACK
6
CONTINUOUS
10
1.53661
20
0.764639
11
1.54043
21
0.771785
0
LINE
8
BLACK
6
CONTINUOUS
10
1.54043
20
0.771785
11
1.54557
21
0.77805
0
LINE
8
BLACK
6
CONTINUOUS
10
1.54557
20
0.77805
11
1.55184
21
0.783191
0
LINE
8
BLACK
6
CONTINUOUS
10
1.55184
20
0.783191
11
1.55898
21
0.787011
0
LINE
8
BLACK
6
CONTINUOUS
10
1.55898
20
0.787011
11
1.56674
21
0.789363
0
LINE
8
BLACK
6
CONTINUOUS
10
1.56674
20
0.789363
11
1.5748
21
0.790157
0
LINE
8
BLACK
6
CONTINUOUS
10
1.5748
20
0.790157
11
1.58287
21
0.789363
0
LINE
8
BLACK
6
CONTINUOUS
10
1.68287
20
0.789363
11
1.69062
21
0.787011
0
LINE
8
BLACK
6
CONTINUOUS
10
1.69062
20
0.787011
11
1.69777
21
0.783191
0
LINE
8
BLACK
6
CONTINUOUS
10
1.69777
20
0.783191
11
1.70403
21
0.77805
0
LINE
8
BLACK
6
CONTINUOUS
10
1.70403
20
0.77805
11
1.70917
21
0.771785
0
LINE
8
BLACK
6
CONTINUOUS
10
1.70917
20
0.771785
11
1.713
21
0.764639
0
LINE
8
BLACK
6
CONTINUOUS
10
1.713
20
0.764639
11
1.71535
21
0.756884
0
LINE
8
BLACK
6
CONTINUOUS
10
1.71535
20
0.756884
11
1.71614
21
0.748819
0
LINE
8
BLACK
6
CONTINUOUS
10
1.71614
20
0.748819
11
1.71535
21
0.740754
0
LINE
8
BLACK
6
CONTINUOUS
10
1.71535
20
0.740754
11
1.713
21
0.732999
0
LINE
8
BLACK
6
CONTINUOUS
10
1.713
20
0.732999
11
1.70917
21
0.725852
0
LINE
8
BLACK
6
CONTINUOUS
10
1.70917
20
0.725852
11
1.70403
21
0.719588
0
LINE
8
BLACK
6
CONTINUOUS
10
1.70403
20
0.719588
11
1.69777
21
0.714447
0
LINE
8
BLACK
6
CONTINUOUS
10
1.69777
20
0.714447
11
1.69062
21
0.710627
0
LINE
8
BLACK
6
CONTINUOUS
10
1.69062
20
0.710627
11
1.68287
21
0.708275
0
LINE
8
BLACK
6
CONTINUOUS
10
1.68287
20
0.708275
11
1.6748
21
0.70748
0
LINE
8
BLACK
6
CONTINUOUS
10
1.6748
20
0.70748
11
1.66674
21
0.708275
0
LINE
8
BLACK
6
CONTINUOUS
10
1.66674
20
0.708275
11
1.65898
21
0.710627
0
LINE
8
BLACK
6
CONTINUOUS
10
1.65898
20
0.710627
11
1.65184
21
0.714447
0
LINE
8
BLACK
6
CONTINUOUS
10
1.65184
20
0.714447
11
1.64557
21
0.719588
0
LINE
8
BLACK
6
CONTINUOUS
10
1.64557
20
0.719588
11
1.64043
21
0.725852
0
LINE
8
BLACK
6
CONTINUOUS
10
1.64043
20
0.725852
11
1.63661
21
0.732999
0
LINE
8
BLACK
6
CONTINUOUS
10
1.63661
20
0.732999
11
1.63426
21
0.740754
0
LINE
8
BLACK
6
CONTINUOUS
10
1.63426
20
0.740754
11
1.63346
21
0.748819
0
LINE
8
BLACK
6
CONTINUOUS
10
1.63346
20
0.748819
11
1.63426
21
0.756884
0
LINE
8
BLACK
6
CONTINUOUS
10
1.63426
20
0.756884
11
1.63661
21
0.764639
0
LINE
8
BLACK
6
CONTINUOUS
10
1.63661
20
0.764639
11
1.64043
21
0.771785
0
LINE
8
BLACK
6
CONTINUOUS
10
1.64043
20
0.771785
11
1.64557
21
0.77805
0
LINE
8
BLACK
6
CONTINUOUS
10
1.64557
20
0.77805
11
1.65184
21
0.783191
0
LINE
8
BLACK
6
CONTINUOUS
10
1.65184
20
0.783191
11
1.65898
21
0.787011
0
LINE
8
BLACK
6
CONTINUOUS
10
1.65898
20
0.787011
11
1.66674
21
0.789363
0
LINE
8
BLACK
6
CONTINUOUS
10
1.66674
20
0.789363
11
1.6748
21
0.790157
0
LINE
8
BLACK
6
CONTINUOUS
10
1.6748
20
0.790157
11
1.68287
21
0.789363
0
LINE
8
BLACK
6
CONTINUOUS
10
0.569285
20
0.821056
11
0.57704
21
0.818704
0
LINE
8
BLACK
6
CONTINUOUS
10
0.57704
20
0.818704
11
0.584187
21
0.814884
0
LINE
8
BLACK
6
CONTINUOUS
10
0.584187
20
0.814884
11
0.590451
21
0.809743
0
LINE
8
BLACK
6
CONTINUOUS
10
0.590451
20
0.809743
11
0.595592
21
0.803478
0
LINE
8
BLACK
6
CONTINUOUS
10
0.595592
20
0.803478
11
0.599412
21
0.796331
0
LINE
8
BLACK
6
CONTINUOUS
10
0.599412
20
0.796331
11
0.601765
21
0.788577
0
LINE
8
BLACK
6
CONTINUOUS
10
0.601765
20
0.788577
11
0.602559
21
0.780512
0
LINE
8
BLACK
6
CONTINUOUS
10
0.602559
20
0.780512
11
0.601765
21
0.772447
0
LINE
8
BLACK
6
CONTINUOUS
10
0.601765
20
0.772447
11
0.599412
21
0.764692
0
LINE
8
BLACK
6
CONTINUOUS
10
0.599412
20
0.764692
11
0.595592
21
0.757545
0
LINE
8
BLACK
6
CONTINUOUS
10
0.595592
20
0.757545
11
0.590451
21
0.751281
0
LINE
8
BLACK
6
CONTINUOUS
10
0.590451
20
0.751281
11
0.584187
21
0.74614
0
LINE
8
BLACK
6
CONTINUOUS
10
0.584187
20
0.74614
11
0.57704
21
0.74232
0
LINE
8
BLACK
6
CONTINUOUS
10
0.57704
20
0.74232
11
0.569285
21
0.739968
0
LINE
8
BLACK
6
CONTINUOUS
10
0.569285
20
0.739968
11
0.56122
21
0.739173
0
LINE
8
BLACK
6
CONTINUOUS
10
0.56122
20
0.739173
11
0.553156
21
0.739968
0
LINE
8
BLACK
6
CONTINUOUS
10
0.553156
20
0.739968
11
0.545401
21
0.74232
0
LINE
8
BLACK
6
CONTINUOUS
10
0.545401
20
0.74232
11
0.538254
21
0.74614
0
LINE
8
BLACK
6
CONTINUOUS
10
0.538254
20
0.74614
11
0.53199
21
0.751281
0
LINE
8
BLACK
6
CONTINUOUS
10
0.53199
20
0.751281
11
0.526849
21
0.757545
0
LINE
8
BLACK
6
CONTINUOUS
10
0.526849
20
0.757545
11
0.523029
21
0.764692
0
LINE
8
BLACK
6
CONTINUOUS
10
0.523029
20
0.764692
11
0.520676
21
0.772447
0
LINE
8
BLACK
6
CONTINUOUS
10
0.520676
20
0.772447
11
0.519882
21
0.780512
0
LINE
8
BLACK
6
CONTINUOUS
10
0.519882
20
0.780512
11
0.520676
21
0.788577
0
LINE
8
BLACK
6
CONTINUOUS
10
0.520676
20
0.788577
11
0.523029
21
0.796331
0
LINE
8
BLACK
6
CONTINUOUS
10
0.523029
20
0.796331
11
0.526849
21
0.803478
0
LINE
8
BLACK
6
CONTINUOUS
10
0.526849
20
0.803478
11
0.53199
21
0.809743
0
LINE
8
BLACK
6
CONTINUOUS
10
0.53199
20
0.809743
11
0.538254
21
0.814884
0
LINE
8
BLACK
6
CONTINUOUS
10
0.538254
20
0.814884
11
0.545401
21
0.818704
0
LINE
8
BLACK
6
CONTINUOUS
10
0.545401
20
0.818704
11
0.553156
21
0.821056
0
LINE
8
BLACK
6
CONTINUOUS
10
0.553156
20
0.821056
11
0.56122
21
0.82185
0
LINE
8
BLACK
6
CONTINUOUS
10
0.56122
20
0.82185
11
0.569285
21
0.821056
0
LINE
8
BLACK
6
CONTINUOUS
10
0.669285
20
0.821056
11
0.67704
21
0.818704
0
LINE
8
BLACK
6
CONTINUOUS
10
0.67704
20
0.818704
11
0.684187
21
0.814884
0
LINE
8
BLACK
6
CONTINUOUS
10
0.684187
20
0.814884
11
0.690451
21
0.809743
0
LINE
8
BLACK
6
CONTINUOUS
10
0.690451
20
0.809743
11
0.695592
21
0.803478
0
LINE
8
BLACK
6
CONTINUOUS
10
0.695592
20
0.803478
11
0.699412
21
0.796331
0
LINE
8
BLACK
6
CONTINUOUS
10
0.699412
20
0.796331
11
0.701765
21
0.788577
0
LINE
8
BLACK
6
CONTINUOUS
10
0.701765
20
0.788577
11
0.702559
21
0.780512
0
LINE
8
BLACK
6
CONTINUOUS
10
0.702559
20
0.780512
11
0.701765
21
0.772447
0
LINE
8
BLACK
6
CONTINUOUS
10
0.701765
20
0.772447
11
0.699412
21
0.764692
0
LINE
8
BLACK
6
CONTINUOUS
10
0.699412
20
0.764692
11
0.695592
21
0.757545
0
LINE
8
BLACK
6
CONTINUOUS
10
0.695592
20
0.757545
11
0.690451
21
0.751281
0
LINE
8
BLACK
6
CONTINUOUS
10
0.690451
20
0.751281
11
0.684187
21
0.74614
0
LINE
8
BLACK
6
CONTINUOUS
10
0.684187
20
0.74614
11
0.67704
21
0.74232
0
LINE
8
BLACK
6
CONTINUOUS
10
0.67704
20
0.74232
11
0.669285
21
0.739968
0
LINE
8
BLACK
6
CONTINUOUS
10
0.669285
20
0.739968
11
0.66122
21
0.739173
0
LINE
8
BLACK
6
CONTINUOUS
10
0.66122
20
0.739173
11
0.653156
21
0.739968
0
LINE
8
BLACK
6
CONTINUOUS
10
0.653156
20
0.739968
11
0.645401
21
0.74232
0
LINE
8
BLACK
6
CONTINUOUS
10
0.645401
20
0.74232
11
0.638254
21
0.74614
0
LINE
8
BLACK
6
CONTINUOUS
10
0.638254
20
0.74614
11
0.63199
21
0.751281
0
LINE
8
BLACK
6
CONTINUOUS
10
0.63199
20
0.751281
11
0.626849
21
0.757545
0
LINE
8
BLACK
6
CONTINUOUS
10
0.626849
20
0.757545
11
0.623029
21
0.764692
0
LINE
8
BLACK
6
CONTINUOUS
10
0.623029
20
0.764692
11
0.620676
21
0.772447
0
LINE
8
BLACK
6
CONTINUOUS
10
0.620676
20
0.772447
11
0.619882
21
0.780512
0
LINE
8
BLACK
6
CONTINUOUS
10
0.619882
20
0.780512
11
0.620676
21
0.788577
0
LINE
8
BLACK
6
CONTINUOUS
10
0.620676
20
0.788577
11
0.623029
21
0.796331
0
LINE
8
BLACK
6
CONTINUOUS
10
0.623029
20
0.796331
11
0.626849
21
0.803478
0
LINE
8
BLACK
6
CONTINUOUS
10
0.626849
20
0.803478
11
0.63199
21
0.809743
0
LINE
8
BLACK
6
CONTINUOUS
10
0.63199
20
0.809743
11
0.638254
21
0.814884
0
LINE
8
BLACK
6
CONTINUOUS
10
0.638254
20
0.814884
11
0.645401
21
0.818704
0
LINE
8
BLACK
6
CONTINUOUS
10
0.645401
20
0.818704
11
0.653156
21
0.821056
0
LINE
8
BLACK
6
CONTINUOUS
10
0.653156
20
0.821056
11
0.66122
21
0.82185
0
LINE
8
BLACK
6
CONTINUOUS
10
0.66122
20
0.82185
11
0.669285
21
0.821056
0
LINE
8
BLACK
6
CONTINUOUS
10
1.58287
20
0.889363
11
1.59062
21
0.887011
0
LINE
8
BLACK
6
CONTINUOUS
10
1.59062
20
0.887011
11
1.59777
21
0.883191
0
LINE
8
BLACK
6
CONTINUOUS
10
1.59777
20
0.883191
11
1.60403
21
0.87805
0
LINE
8
BLACK
6
CONTINUOUS
10
1.60403
20
0.87805
11
1.60917
21
0.871785
0
LINE
8
BLACK
6
CONTINUOUS
10
1.60917
20
0.871785
11
1.613
21
0.864639
0
LINE
8
BLACK
6
CONTINUOUS
10
1.613
20
0.864639
11
1.61535
21
0.856884
0
LINE
8
BLACK
6
CONTINUOUS
10
1.61535
20
0.856884
11
1.61614
21
0.848819
0
LINE
8
BLACK
6
CONTINUOUS
10
1.61614
20
0.848819
11
1.61535
21
0.840754
0
LINE
8
BLACK
6
CONTINUOUS
10
1.61535
20
0.840754
11
1.613
21
0.832999
0
LINE
8
BLACK
6
CONTINUOUS
10
1.613
20
0.832999
11
1.60917
21
0.825852
0
LINE
8
BLACK
6
CONTINUOUS
10
1.60917
20
0.825852
11
1.60403
21
0.819588
0
LINE
8
BLACK
6
CONTINUOUS
10
1.60403
20
0.819588
11
1.59777
21
0.814447
0
LINE
8
BLACK
6
CONTINUOUS
10
1.59777
20
0.814447
11
1.59062
21
0.810627
0
LINE
8
BLACK
6
CONTINUOUS
10
1.59062
20
0.810627
11
1.58287
21
0.808275
0
LINE
8
BLACK
6
CONTINUOUS
10
1.58287
20
0.808275
11
1.5748
21
0.80748
0
LINE
8
BLACK
6
CONTINUOUS
10
1.5748
20
0.80748
11
1.56674
21
0.808275
0
LINE
8
BLACK
6
CONTINUOUS
10
1.56674
20
0.808275
11
1.55898
21
0.810627
0
LINE
8
BLACK
6
CONTINUOUS
10
1.55898
20
0.810627
11
1.55184
21
0.814447
0
LINE
8
BLACK
6
CONTINUOUS
10
1.55184
20
0.814447
11
1.54557
21
0.819588
0
LINE
8
BLACK
6
CONTINUOUS
10
1.54557
20
0.819588
11
1.54043
21
0.825852
0
LINE
8
BLACK
6
CONTINUOUS
10
1.54043
20
0.825852
11
1.53661
21
0.832999
0
LINE
8
BLACK
6
CONTINUOUS
10
1.53661
20
0.832999
11
1.53426
21
0.840754
0
LINE
8
BLACK
6
CONTINUOUS
10
1.53426
20
0.840754
11
1.53346
21
0.848819
0
LINE
8
BLACK
6
CONTINUOUS
10
1.53346
20
0.848819
11
1.53426
21
0.856884
0
LINE
8
BLACK
6
CONTINUOUS
10
1.53426
20
0.856884
11
1.53661
21
0.864639
0
LINE
8
BLACK
6
CONTINUOUS
10
1.53661
20
0.864639
11
1.54043
21
0.871785
0
LINE
8
BLACK
6
CONTINUOUS
10
1.54043
20
0.871785
11
1.54557
21
0.87805
0
LINE
8
BLACK
6
CONTINUOUS
10
1.54557
20
0.87805
11
1.55184
21
0.883191
0
LINE
8
BLACK
6
CONTINUOUS
10
1.55184
20
0.883191
11
1.55898
21
0.887011
0
LINE
8
BLACK
6
CONTINUOUS
10
1.55898
20
0.887011
11
1.56674
21
0.889363
0
LINE
8
BLACK
6
CONTINUOUS
10
1.56674
20
0.889363
11
1.5748
21
0.890157
0
LINE
8
BLACK
6
CONTINUOUS
10
1.5748
20
0.890157
11
1.58287
21
0.889363
0
LINE
8
BLACK
6
CONTINUOUS
10
1.68287
20
0.889363
11
1.69062
21
0.887011
0
LINE
8
BLACK
6
CONTINUOUS
10
1.69062
20
0.887011
11
1.69777
21
0.883191
0
LINE
8
BLACK
6
CONTINUOUS
10
1.69777
20
0.883191
11
1.70403
21
0.87805
0
LINE
8
BLACK
6
CONTINUOUS
10
1.70403
20
0.87805
11
1.70917
21
0.871785
0
LINE
8
BLACK
6
CONTINUOUS
10
1.70917
20
0.871785
11
1.713
21
0.864639
0
LINE
8
BLACK
6
CONTINUOUS
10
1.713
20
0.864639
11
1.71535
21
0.856884
0
LINE
8
BLACK
6
CONTINUOUS
10
1.71535
20
0.856884
11
1.71614
21
0.848819
0
LINE
8
BLACK
6
CONTINUOUS
10
1.71614
20
0.848819
11
1.71535
21
0.840754
0
LINE
8
BLACK
6
CONTINUOUS
10
1.71535
20
0.840754
11
1.713
21
0.832999
0
LINE
8
BLACK
6
CONTINUOUS
10
1.713
20
0.832999
11
1.70917
21
0.825852
0
LINE
8
BLACK
6
CONTINUOUS
10
1.70917
20
0.825852
11
1.70403
21
0.819588
0
LINE
8
BLACK
6
CONTINUOUS
10
1.70403
20
0.819588
11
1.69777
21
0.814447
0
LINE
8
BLACK
6
CONTINUOUS
10
1.69777
20
0.814447
11
1.69062
21
0.810627
0
LINE
8
BLACK
6
CONTINUOUS
10
1.69062
20
0.810627
11
1.68287
21
0.808275
0
LINE
8
BLACK
6
CONTINUOUS
10
1.68287
20
0.808275
11
1.6748
21
0.80748
0
LINE
8
BLACK
6
CONTINUOUS
10
1.6748
20
0.80748
11
1.66674
21
0.808275
0
LINE
8
BLACK
6
CONTINUOUS
10
1.66674
20
0.808275
11
1.65898
21
0.810627
0
LINE
8
BLACK
6
CONTINUOUS
10
1.65898
20
0.810627
11
1.65184
21
0.814447
0
LINE
8
BLACK
6
CONTINUOUS
10
1.65184
20
0.814447
11
1.64557
21
0.819588
0
LINE
8
BLACK
6
CONTINUOUS
10
1.64557
20
0.819588
11
1.64043
21
0.825852
0
LINE
8
BLACK
6
CONTINUOUS
10
1.64043
20
0.825852
11
1.63661
21
0.832999
0
LINE
8
BLACK
6
CONTINUOUS
10
1.63661
20
0.832999
11
1.63426
21
0.840754
0
LINE
8
BLACK
6
CONTINUOUS
10
1.63426
20
0.840754
11
1.63346
21
0.848819
0
LINE
8
BLACK
6
CONTINUOUS
10
1.63346
20
0.848819
11
1.63426
21
0.856884
0
LINE
8
BLACK
6
CONTINUOUS
10
1.63426
20
0.856884
11
1.63661
21
0.864639
0
LINE
8
BLACK
6
CONTINUOUS
10
1.63661
20
0.864639
11
1.64043
21
0.871785
0
LINE
8
BLACK
6
CONTINUOUS
10
1.64043
20
0.871785
11
1.64557
21
0.87805
0
LINE
8
BLACK
6
CONTINUOUS
10
1.64557
20
0.87805
11
1.65184
21
0.883191
0
LINE
8
BLACK
6
CONTINUOUS
10
1.65184
20
0.883191
11
1.65898
21
0.887011
0
LINE
8
BLACK
6
CONTINUOUS
10
1.65898
20
0.887011
11
1.66674
21
0.889363
0
LINE
8
BLACK
6
CONTINUOUS
10
1.66674
20
0.889363
11
1.6748
21
0.890157
0
LINE
8
BLACK
6
CONTINUOUS
10
1.6748
20
0.890157
11
1.68287
21
0.889363
0
LINE
8
BLACK
6
CONTINUOUS
10
0.569285
20
0.921056
11
0.57704
21
0.918704
0
LINE
8
BLACK
6
CONTINUOUS
10
0.57704
20
0.918704
11
0.584187
21
0.914884
0
LINE
8
BLACK
6
CONTINUOUS
10
0.584187
20
0.914884
11
0.590451
21
0.909743
0
LINE
8
BLACK
6
CONTINUOUS
10
0.590451
20
0.909743
11
0.595592
21
0.903478
0
LINE
8
BLACK
6
CONTINUOUS
10
0.595592
20
0.903478
11
0.599412
21
0.896331
0
LINE
8
BLACK
6
CONTINUOUS
10
0.599412
20
0.896331
11
0.601765
21
0.888577
0
LINE
8
BLACK
6
CONTINUOUS
10
0.601765
20
0.888577
11
0.602559
21
0.880512
0
LINE
8
BLACK
6
CONTINUOUS
10
0.602559
20
0.880512
11
0.601765
21
0.872447
0
LINE
8
BLACK
6
CONTINUOUS
10
0.601765
20
0.872447
11
0.599412
21
0.864692
0
LINE
8
BLACK
6
CONTINUOUS
10
0.599412
20
0.864692
11
0.595592
21
0.857545
0
LINE
8
BLACK
6
CONTINUOUS
10
0.595592
20
0.857545
11
0.590451
21
0.851281
0
LINE
8
BLACK
6
CONTINUOUS
10
0.590451
20
0.851281
11
0.584187
21
0.84614
0
LINE
8
BLACK
6
CONTINUOUS
10
0.584187
20
0.84614
11
0.57704
21
0.84232
0
LINE
8
BLACK
6
CONTINUOUS
10
0.57704
20
0.84232
11
0.569285
21
0.839968
0
LINE
8
BLACK
6
CONTINUOUS
10
0.569285
20
0.839968
11
0.56122
21
0.839173
0
LINE
8
BLACK
6
CONTINUOUS
10
0.56122
20
0.839173
11
0.553156
21
0.839968
0
LINE
8
BLACK
6
CONTINUOUS
10
0.553156
20
0.839968
11
0.545401
21
0.84232
0
LINE
8
BLACK
6
CONTINUOUS
10
0.545401
20
0.84232
11
0.538254
21
0.84614
0
LINE
8
BLACK
6
CONTINUOUS
10
0.538254
20
0.84614
11
0.53199
21
0.851281
0
LINE
8
BLACK
6
CONTINUOUS
10
0.53199
20
0.851281
11
0.526849
21
0.857545
0
LINE
8
BLACK
6
CONTINUOUS
10
0.526849
20
0.857545
11
0.523029
21
0.864692
0
LINE
8
BLACK
6
CONTINUOUS
10
0.523029
20
0.864692
11
0.520676
21
0.872447
0
LINE
8
BLACK
6
CONTINUOUS
10
0.520676
20
0.872447
11
0.519882
21
0.880512
0
LINE
8
BLACK
6
CONTINUOUS
10
0.519882
20
0.880512
11
0.520676
21
0.888577
0
LINE
8
BLACK
6
CONTINUOUS
10
0.520676
20
0.888577
11
0.523029
21
0.896331
0
LINE
8
BLACK
6
CONTINUOUS
10
0.523029
20
0.896331
11
0.526849
21
0.903478
0
LINE
8
BLACK
6
CONTINUOUS
10
0.526849
20
0.903478
11
0.53199
21
0.909743
0
LINE
8
BLACK
6
CONTINUOUS
10
0.53199
20
0.909743
11
0.538254
21
0.914884
0
LINE
8
BLACK
6
CONTINUOUS
10
0.538254
20
0.914884
11
0.545401
21
0.918704
0
LINE
8
BLACK
6
CONTINUOUS
10
0.545401
20
0.918704
11
0.553156
21
0.921056
0
LINE
8
BLACK
6
CONTINUOUS
10
0.553156
20
0.921056
11
0.56122
21
0.92185
0
LINE
8
BLACK
6
CONTINUOUS
10
0.56122
20
0.92185
11
0.569285
21
0.921056
0
LINE
8
BLACK
6
CONTINUOUS
10
0.669285
20
0.921056
11
0.67704
21
0.918704
0
LINE
8
BLACK
6
CONTINUOUS
10
0.67704
20
0.918704
11
0.684187
21
0.914884
0
LINE
8
BLACK
6
CONTINUOUS
10
0.684187
20
0.914884
11
0.690451
21
0.909743
0
LINE
8
BLACK
6
CONTINUOUS
10
0.690451
20
0.909743
11
0.695592
21
0.903478
0
LINE
8
BLACK
6
CONTINUOUS
10
0.695592
20
0.903478
11
0.699412
21
0.896331
0
LINE
8
BLACK
6
CONTINUOUS
10
0.699412
20
0.896331
11
0.701765
21
0.888577
0
LINE
8
BLACK
6
CONTINUOUS
10
0.701765
20
0.888577
11
0.702559
21
0.880512
0
LINE
8
BLACK
6
CONTINUOUS
10
0.702559
20
0.880512
11
0.701765
21
0.872447
0
LINE
8
BLACK
6
CONTINUOUS
10
0.701765
20
0.872447
11
0.699412
21
0.864692
0
LINE
8
BLACK
6
CONTINUOUS
10
0.699412
20
0.864692
11
0.695592
21
0.857545
0
LINE
8
BLACK
6
CONTINUOUS
10
0.695592
20
0.857545
11
0.690451
21
0.851281
0
LINE
8
BLACK
6
CONTINUOUS
10
0.690451
20
0.851281
11
0.684187
21
0.84614
0
LINE
8
BLACK
6
CONTINUOUS
10
0.684187
20
0.84614
11
0.67704
21
0.84232
0
LINE
8
BLACK
6
CONTINUOUS
10
0.67704
20
0.84232
11
0.669285
21
0.839968
0
LINE
8
BLACK
6
CONTINUOUS
10
0.669285
20
0.839968
11
0.66122
21
0.839173
0
LINE
8
BLACK
6
CONTINUOUS
10
0.66122
20
0.839173
11
0.653156
21
0.839968
0
LINE
8
BLACK
6
CONTINUOUS
10
0.653156
20
0.839968
11
0.645401
21
0.84232
0
LINE
8
BLACK
6
CONTINUOUS
10
0.645401
20
0.84232
11
0.638254
21
0.84614
0
LINE
8
BLACK
6
CONTINUOUS
10
0.638254
20
0.84614
11
0.63199
21
0.851281
0
LINE
8
BLACK
6
CONTINUOUS
10
0.63199
20
0.851281
11
0.626849
21
0.857545
0
LINE
8
BLACK
6
CONTINUOUS
10
0.626849
20
0.857545
11
0.623029
21
0.864692
0
LINE
8
BLACK
6
CONTINUOUS
10
0.623029
20
0.864692
11
0.620676
21
0.872447
0
LINE
8
BLACK
6
CONTINUOUS
10
0.620676
20
0.872447
11
0.619882
21
0.880512
0
LINE
8
BLACK
6
CONTINUOUS
10
0.619882
20
0.880512
11
0.620676
21
0.888577
0
LINE
8
BLACK
6
CONTINUOUS
10
0.620676
20
0.888577
11
0.623029
21
0.896331
0
LINE
8
BLACK
6
CONTINUOUS
10
0.623029
20
0.896331
11
0.626849
21
0.903478
0
LINE
8
BLACK
6
CONTINUOUS
10
0.626849
20
0.903478
11
0.63199
21
0.909743
0
LINE
8
BLACK
6
CONTINUOUS
10
0.63199
20
0.909743
11
0.638254
21
0.914884
0
LINE
8
BLACK
6
CONTINUOUS
10
0.638254
20
0.914884
11
0.645401
21
0.918704
0
LINE
8
BLACK
6
CONTINUOUS
10
0.645401
20
0.918704
11
0.653156
21
0.921056
0
LINE
8
BLACK
6
CONTINUOUS
10
0.653156
20
0.921056
11
0.66122
21
0.92185
0
LINE
8
BLACK
6
CONTINUOUS
10
0.66122
20
0.92185
11
0.669285
21
0.921056
0
LINE
8
BLACK
6
CONTINUOUS
10
1.61128
20
0.989558
11
1.61384
21
0.987851
0
LINE
8
BLACK
6
CONTINUOUS
10
1.61384
20
0.987851
11
1.61554
21
0.985297
0
LINE
8
BLACK
6
CONTINUOUS
10
1.61554
20
0.985297
11
1.61614
21
0.982283
0
LINE
8
BLACK
6
CONTINUOUS
10
1.61614
20
0.982283
11
1.61614
21
0.915354
0
LINE
8
BLACK
6
CONTINUOUS
10
1.61614
20
0.915354
11
1.61554
21
0.912341
0
LINE
8
BLACK
6
CONTINUOUS
10
1.61554
20
0.912341
11
1.61384
21
0.909787
0
LINE
8
BLACK
6
CONTINUOUS
10
1.61384
20
0.909787
11
1.61128
21
0.90808
0
LINE
8
BLACK
6
CONTINUOUS
10
1.61128
20
0.90808
11
1.60827
21
0.90748
0
LINE
8
BLACK
6
CONTINUOUS
10
1.60827
20
0.90748
11
1.54134
21
0.90748
0
LINE
8
BLACK
6
CONTINUOUS
10
1.54134
20
0.90748
11
1.53833
21
0.90808
0
LINE
8
BLACK
6
CONTINUOUS
10
1.53833
20
0.90808
11
1.53577
21
0.909787
0
LINE
8
BLACK
6
CONTINUOUS
10
1.53577
20
0.909787
11
1.53406
21
0.912341
0
LINE
8
BLACK
6
CONTINUOUS
10
1.53406
20
0.912341
11
1.53346
21
0.915354
0
LINE
8
BLACK
6
CONTINUOUS
10
1.53346
20
0.915354
11
1.53346
21
0.982283
0
LINE
8
BLACK
6
CONTINUOUS
10
1.53346
20
0.982283
11
1.53406
21
0.985297
0
LINE
8
BLACK
6
CONTINUOUS
10
1.53406
20
0.985297
11
1.53577
21
0.987851
0
LINE
8
BLACK
6
CONTINUOUS
10
1.53577
20
0.987851
11
1.53833
21
0.989558
0
LINE
8
BLACK
6
CONTINUOUS
10
1.53833
20
0.989558
11
1.54134
21
0.990157
0
LINE
8
BLACK
6
CONTINUOUS
10
1.54134
20
0.990157
11
1.60827
21
0.990157
0
LINE
8
BLACK
6
CONTINUOUS
10
1.60827
20
0.990157
11
1.61128
21
0.989558
0
LINE
8
BLACK
6
CONTINUOUS
10
1.68287
20
0.989363
11
1.69062
21
0.987011
0
LINE
8
BLACK
6
CONTINUOUS
10
1.69062
20
0.987011
11
1.69777
21
0.983191
0
LINE
8
BLACK
6
CONTINUOUS
10
1.69777
20
0.983191
11
1.70403
21
0.97805
0
LINE
8
BLACK
6
CONTINUOUS
10
1.70403
20
0.97805
11
1.70917
21
0.971785
0
LINE
8
BLACK
6
CONTINUOUS
10
1.70917
20
0.971785
11
1.713
21
0.964639
0
LINE
8
BLACK
6
CONTINUOUS
10
1.713
20
0.964639
11
1.71535
21
0.956884
0
LINE
8
BLACK
6
CONTINUOUS
10
1.71535
20
0.956884
11
1.71614
21
0.948819
0
LINE
8
BLACK
6
CONTINUOUS
10
1.71614
20
0.948819
11
1.71535
21
0.940754
0
LINE
8
BLACK
6
CONTINUOUS
10
1.71535
20
0.940754
11
1.713
21
0.932999
0
LINE
8
BLACK
6
CONTINUOUS
10
1.713
20
0.932999
11
1.70917
21
0.925852
0
LINE
8
BLACK
6
CONTINUOUS
10
1.70917
20
0.925852
11
1.70403
21
0.919588
0
LINE
8
BLACK
6
CONTINUOUS
10
1.70403
20
0.919588
11
1.69777
21
0.914447
0
LINE
8
BLACK
6
CONTINUOUS
10
1.69777
20
0.914447
11
1.69062
21
0.910627
0
LINE
8
BLACK
6
CONTINUOUS
10
1.69062
20
0.910627
11
1.68287
21
0.908275
0
LINE
8
BLACK
6
CONTINUOUS
10
1.68287
20
0.908275
11
1.6748
21
0.90748
0
LINE
8
BLACK
6
CONTINUOUS
10
1.6748
20
0.90748
11
1.66674
21
0.908275
0
LINE
8
BLACK
6
CONTINUOUS
10
1.66674
20
0.908275
11
1.65898
21
0.910627
0
LINE
8
BLACK
6
CONTINUOUS
10
1.65898
20
0.910627
11
1.65184
21
0.914447
0
LINE
8
BLACK
6
CONTINUOUS
10
1.65184
20
0.914447
11
1.64557
21
0.919588
0
LINE
8
BLACK
6
CONTINUOUS
10
1.64557
20
0.919588
11
1.64043
21
0.925852
0
LINE
8
BLACK
6
CONTINUOUS
10
1.64043
20
0.925852
11
1.63661
21
0.932999
0
LINE
8
BLACK
6
CONTINUOUS
10
1.63661
20
0.932999
11
1.63426
21
0.940754
0
LINE
8
BLACK
6
CONTINUOUS
10
1.63426
20
0.940754
11
1.63346
21
0.948819
0
LINE
8
BLACK
6
CONTINUOUS
10
1.63346
20
0.948819
11
1.63426
21
0.956884
0
LINE
8
BLACK
6
CONTINUOUS
10
1.63426
20
0.956884
11
1.63661
21
0.964639
0
LINE
8
BLACK
6
CONTINUOUS
10
1.63661
20
0.964639
11
1.64043
21
0.971785
0
LINE
8
BLACK
6
CONTINUOUS
10
1.64043
20
0.971785
11
1.64557
21
0.97805
0
LINE
8
BLACK
6
CONTINUOUS
10
1.64557
20
0.97805
11
1.65184
21
0.983191
0
LINE
8
BLACK
6
CONTINUOUS
10
1.65184
20
0.983191
11
1.65898
21
0.987011
0
LINE
8
BLACK
6
CONTINUOUS
10
1.65898
20
0.987011
11
1.66674
21
0.989363
0
LINE
8
BLACK
6
CONTINUOUS
10
1.66674
20
0.989363
11
1.6748
21
0.990157
0
LINE
8
BLACK
6
CONTINUOUS
10
1.6748
20
0.990157
11
1.68287
21
0.989363
0
LINE
8
BLACK
6
CONTINUOUS
10
0.569285
20
1.02106
11
0.57704
21
1.0187
0
LINE
8
BLACK
6
CONTINUOUS
10
0.57704
20
1.0187
11
0.584187
21
1.01488
0
LINE
8
BLACK
6
CONTINUOUS
10
0.584187
20
1.01488
11
0.590451
21
1.00974
0
LINE
8
BLACK
6
CONTINUOUS
10
0.590451
20
1.00974
11
0.595592
21
1.00348
0
LINE
8
BLACK
6
CONTINUOUS
10
0.595592
20
1.00348
11
0.599412
21
0.996331
0
LINE
8
BLACK
6
CONTINUOUS
10
0.599412
20
0.996331
11
0.601765
21
0.988577
0
LINE
8
BLACK
6
CONTINUOUS
10
0.601765
20
0.988577
11
0.602559
21
0.980512
0
LINE
8
BLACK
6
CONTINUOUS
10
0.602559
20
0.980512
11
0.601765
21
0.972447
0
LINE
8
BLACK
6
CONTINUOUS
10
0.601765
20
0.972447
11
0.599412
21
0.964692
0
LINE
8
BLACK
6
CONTINUOUS
10
0.599412
20
0.964692
11
0.595592
21
0.957545
0
LINE
8
BLACK
6
CONTINUOUS
10
0.595592
20
0.957545
11
0.590451
21
0.951281
0
LINE
8
BLACK
6
CONTINUOUS
10
0.590451
20
0.951281
11
0.584187
21
0.94614
0
LINE
8
BLACK
6
CONTINUOUS
10
0.584187
20
0.94614
11
0.57704
21
0.94232
0
LINE
8
BLACK
6
CONTINUOUS
10
0.57704
20
0.94232
11
0.569285
21
0.939968
0
LINE
8
BLACK
6
CONTINUOUS
10
0.569285
20
0.939968
11
0.56122
21
0.939173
0
LINE
8
BLACK
6
CONTINUOUS
10
0.56122
20
0.939173
11
0.553156
21
0.939968
0
LINE
8
BLACK
6
CONTINUOUS
10
0.553156
20
0.939968
11
0.545401
21
0.94232
0
LINE
8
BLACK
6
CONTINUOUS
10
0.545401
20
0.94232
11
0.538254
21
0.94614
0
LINE
8
BLACK
6
CONTINUOUS
10
0.538254
20
0.94614
11
0.53199
21
0.951281
0
LINE
8
BLACK
6
CONTINUOUS
10
0.53199
20
0.951281
11
0.526849
21
0.957545
0
LINE
8
BLACK
6
CONTINUOUS
10
0.526849
20
0.957545
11
0.523029
21
0.964692
0
LINE
8
BLACK
6
CONTINUOUS
10
0.523029
20
0.964692
11
0.520676
21
0.972447
0
LINE
8
BLACK
6
CONTINUOUS
10
0.520676
20
0.972447
11
0.519882
21
0.980512
0
LINE
8
BLACK
6
CONTINUOUS
10
0.519882
20
0.980512
11
0.520676
21
0.988577
0
LINE
8
BLACK
6
CONTINUOUS
10
0.520676
20
0.988577
11
0.523029
21
0.996331
0
LINE
8
BLACK
6
CONTINUOUS
10
0.523029
20
0.996331
11
0.526849
21
1.00348
0
LINE
8
BLACK
6
CONTINUOUS
10
0.526849
20
1.00348
11
0.53199
21
1.00974
0
LINE
8
BLACK
6
CONTINUOUS
10
0.53199
20
1.00974
11
0.538254
21
1.01488
0
LINE
8
BLACK
6
CONTINUOUS
10
0.538254
20
1.01488
11
0.545401
21
1.0187
0
LINE
8
BLACK
6
CONTINUOUS
10
0.545401
20
1.0187
11
0.553156
21
1.02106
0
LINE
8
BLACK
6
CONTINUOUS
10
0.553156
20
1.02106
11
0.56122
21
1.02185
0
LINE
8
BLACK
6
CONTINUOUS
10
0.56122
20
1.02185
11
0.569285
21
1.02106
0
LINE
8
BLACK
6
CONTINUOUS
10
0.669285
20
1.02106
11
0.67704
21
1.0187
0
LINE
8
BLACK
6
CONTINUOUS
10
0.67704
20
1.0187
11
0.684187
21
1.01488
0
LINE
8
BLACK
6
CONTINUOUS
10
0.684187
20
1.01488
11
0.690451
21
1.00974
0
LINE
8
BLACK
6
CONTINUOUS
10
0.690451
20
1.00974
11
0.695592
21
1.00348
0
LINE
8
BLACK
6
CONTINUOUS
10
0.695592
20
1.00348
11
0.699412
21
0.996331
0
LINE
8
BLACK
6
CONTINUOUS
10
0.699412
20
0.996331
11
0.701765
21
0.988577
0
LINE
8
BLACK
6
CONTINUOUS
10
0.701765
20
0.988577
11
0.702559
21
0.980512
0
LINE
8
BLACK
6
CONTINUOUS
10
0.702559
20
0.980512
11
0.701765
21
0.972447
0
LINE
8
BLACK
6
CONTINUOUS
10
0.701765
20
0.972447
11
0.699412
21
0.964692
0
LINE
8
BLACK
6
CONTINUOUS
10
0.699412
20
0.964692
11
0.695592
21
0.957545
0
LINE
8
BLACK
6
CONTINUOUS
10
0.695592
20
0.957545
11
0.690451
21
0.951281
0
LINE
8
BLACK
6
CONTINUOUS
10
0.690451
20
0.951281
11
0.684187
21
0.94614
0
LINE
8
BLACK
6
CONTINUOUS
10
0.684187
20
0.94614
11
0.67704
21
0.94232
0
LINE
8
BLACK
6
CONTINUOUS
10
0.67704
20
0.94232
11
0.669285
21
0.939968
0
LINE
8
BLACK
6
CONTINUOUS
10
0.669285
20
0.939968
11
0.66122
21
0.939173
0
LINE
8
BLACK
6
CONTINUOUS
10
0.66122
20
0.939173
11
0.653156
21
0.939968
0
LINE
8
BLACK
6
CONTINUOUS
10
0.653156
20
0.939968
11
0.645401
21
0.94232
0
LINE
8
BLACK
6
CONTINUOUS
10
0.645401
20
0.94232
11
0.638254
21
0.94614
0
LINE
8
BLACK
6
CONTINUOUS
10
0.638254
20
0.94614
11
0.63199
21
0.951281
0
LINE
8
BLACK
6
CONTINUOUS
10
0.63199
20
0.951281
11
0.626849
21
0.957545
0
LINE
8
BLACK
6
CONTINUOUS
10
0.626849
20
0.957545
11
0.623029
21
0.964692
0
LINE
8
BLACK
6
CONTINUOUS
10
0.623029
20
0.964692
11
0.620676
21
0.972447
0
LINE
8
BLACK
6
CONTINUOUS
10
0.620676
20
0.972447
11
0.619882
21
0.980512
0
LINE
8
BLACK
6
CONTINUOUS
10
0.619882
20
0.980512
11
0.620676
21
0.988577
0
LINE
8
BLACK
6
CONTINUOUS
10
0.620676
20
0.988577
11
0.623029
21
0.996331
0
LINE
8
BLACK
6
CONTINUOUS
10
0.623029
20
0.996331
11
0.626849
21
1.00348
0
LINE
8
BLACK
6
CONTINUOUS
10
0.626849
20
1.00348
11
0.63199
21
1.00974
0
LINE
8
BLACK
6
CONTINUOUS
10
0.63199
20
1.00974
11
0.638254
21
1.01488
0
LINE
8
BLACK
6
CONTINUOUS
10
0.638254
20
1.01488
11
0.645401
21
1.0187
0
LINE
8
BLACK
6
CONTINUOUS
10
0.645401
20
1.0187
11
0.653156
21
1.02106
0
LINE
8
BLACK
6
CONTINUOUS
10
0.653156
20
1.02106
11
0.66122
21
1.02185
0
LINE
8
BLACK
6
CONTINUOUS
10
0.66122
20
1.02185
11
0.669285
21
1.02106
0
LINE
8
BLACK
6
CONTINUOUS
10
0.569285
20
1.12106
11
0.57704
21
1.1187
0
LINE
8
BLACK
6
CONTINUOUS
10
0.57704
20
1.1187
11
0.584187
21
1.11488
0
LINE
8
BLACK
6
CONTINUOUS
10
0.584187
20
1.11488
11
0.590451
21
1.10974
0
LINE
8
BLACK
6
CONTINUOUS
10
0.590451
20
1.10974
11
0.595592
21
1.10348
0
LINE
8
BLACK
6
CONTINUOUS
10
0.595592
20
1.10348
11
0.599412
21
1.09633
0
LINE
8
BLACK
6
CONTINUOUS
10
0.599412
20
1.09633
11
0.601765
21
1.08858
0
LINE
8
BLACK
6
CONTINUOUS
10
0.601765
20
1.08858
11
0.602559
21
1.08051
0
LINE
8
BLACK
6
CONTINUOUS
10
0.602559
20
1.08051
11
0.601765
21
1.07245
0
LINE
8
BLACK
6
CONTINUOUS
10
0.601765
20
1.07245
11
0.599412
21
1.06469
0
LINE
8
BLACK
6
CONTINUOUS
10
0.599412
20
1.06469
11
0.595592
21
1.05755
0
LINE
8
BLACK
6
CONTINUOUS
10
0.595592
20
1.05755
11
0.590451
21
1.05128
0
LINE
8
BLACK
6
CONTINUOUS
10
0.590451
20
1.05128
11
0.584187
21
1.04614
0
LINE
8
BLACK
6
CONTINUOUS
10
0.584187
20
1.04614
11
0.57704
21
1.04232
0
LINE
8
BLACK
6
CONTINUOUS
10
0.57704
20
1.04232
11
0.569285
21
1.03997
0
LINE
8
BLACK
6
CONTINUOUS
10
0.569285
20
1.03997
11
0.56122
21
1.03917
0
LINE
8
BLACK
6
CONTINUOUS
10
0.56122
20
1.03917
11
0.553156
21
1.03997
0
LINE
8
BLACK
6
CONTINUOUS
10
0.553156
20
1.03997
11
0.545401
21
1.04232
0
LINE
8
BLACK
6
CONTINUOUS
10
0.545401
20
1.04232
11
0.538254
21
1.04614
0
LINE
8
BLACK
6
CONTINUOUS
10
0.538254
20
1.04614
11
0.53199
21
1.05128
0
LINE
8
BLACK
6
CONTINUOUS
10
0.53199
20
1.05128
11
0.526849
21
1.05755
0
LINE
8
BLACK
6
CONTINUOUS
10
0.526849
20
1.05755
11
0.523029
21
1.06469
0
LINE
8
BLACK
6
CONTINUOUS
10
0.523029
20
1.06469
11
0.520676
21
1.07245
0
LINE
8
BLACK
6
CONTINUOUS
10
0.520676
20
1.07245
11
0.519882
21
1.08051
0
LINE
8
BLACK
6
CONTINUOUS
10
0.519882
20
1.08051
11
0.520676
21
1.08858
0
LINE
8
BLACK
6
CONTINUOUS
10
0.520676
20
1.08858
11
0.523029
21
1.09633
0
LINE
8
BLACK
6
CONTINUOUS
10
0.523029
20
1.09633
11
0.526849
21
1.10348
0
LINE
8
BLACK
6
CONTINUOUS
10
0.526849
20
1.10348
11
0.53199
21
1.10974
0
LINE
8
BLACK
6
CONTINUOUS
10
0.53199
20
1.10974
11
0.538254
21
1.11488
0
LINE
8
BLACK
6
CONTINUOUS
10
0.538254
20
1.11488
11
0.545401
21
1.1187
0
LINE
8
BLACK
6
CONTINUOUS
10
0.545401
20
1.1187
11
0.553156
21
1.12106
0
LINE
8
BLACK
6
CONTINUOUS
10
0.553156
20
1.12106
11
0.56122
21
1.12185
0
LINE
8
BLACK
6
CONTINUOUS
10
0.56122
20
1.12185
11
0.569285
21
1.12106
0
LINE
8
BLACK
6
CONTINUOUS
10
0.669285
20
1.12106
11
0.67704
21
1.1187
0
LINE
8
BLACK
6
CONTINUOUS
10
0.67704
20
1.1187
11
0.684187
21
1.11488
0
LINE
8
BLACK
6
CONTINUOUS
10
0.684187
20
1.11488
11
0.690451
21
1.10974
0
LINE
8
BLACK
6
CONTINUOUS
10
0.690451
20
1.10974
11
0.695592
21
1.10348
0
LINE
8
BLACK
6
CONTINUOUS
10
0.695592
20
1.10348
11
0.699412
21
1.09633
0
LINE
8
BLACK
6
CONTINUOUS
10
0.699412
20
1.09633
11
0.701765
21
1.08858
0
LINE
8
BLACK
6
CONTINUOUS
10
0.701765
20
1.08858
11
0.702559
21
1.08051
0
LINE
8
BLACK
6
CONTINUOUS
10
0.702559
20
1.08051
11
0.701765
21
1.07245
0
LINE
8
BLACK
6
CONTINUOUS
10
0.701765
20
1.07245
11
0.699412
21
1.06469
0
LINE
8
BLACK
6
CONTINUOUS
10
0.699412
20
1.06469
11
0.695592
21
1.05755
0
LINE
8
BLACK
6
CONTINUOUS
10
0.695592
20
1.05755
11
0.690451
21
1.05128
0
LINE
8
BLACK
6
CONTINUOUS
10
0.690451
20
1.05128
11
0.684187
21
1.04614
0
LINE
8
BLACK
6
CONTINUOUS
10
0.684187
20
1.04614
11
0.67704
21
1.04232
0
LINE
8
BLACK
6
CONTINUOUS
10
0.67704
20
1.04232
11
0.669285
21
1.03997
0
LINE
8
BLACK
6
CONTINUOUS
10
0.669285
20
1.03997
11
0.66122
21
1.03917
0
LINE
8
BLACK
6
CONTINUOUS
10
0.66122
20
1.03917
11
0.653156
21
1.03997
0
LINE
8
BLACK
6
CONTINUOUS
10
0.653156
20
1.03997
11
0.645401
21
1.04232
0
LINE
8
BLACK
6
CONTINUOUS
10
0.645401
20
1.04232
11
0.638254
21
1.04614
0
LINE
8
BLACK
6
CONTINUOUS
10
0.638254
20
1.04614
11
0.63199
21
1.05128
0
LINE
8
BLACK
6
CONTINUOUS
10
0.63199
20
1.05128
11
0.626849
21
1.05755
0
LINE
8
BLACK
6
CONTINUOUS
10
0.626849
20
1.05755
11
0.623029
21
1.06469
0
LINE
8
BLACK
6
CONTINUOUS
10
0.623029
20
1.06469
11
0.620676
21
1.07245
0
LINE
8
BLACK
6
CONTINUOUS
10
0.620676
20
1.07245
11
0.619882
21
1.08051
0
LINE
8
BLACK
6
CONTINUOUS
10
0.619882
20
1.08051
11
0.620676
21
1.08858
0
LINE
8
BLACK
6
CONTINUOUS
10
0.620676
20
1.08858
11
0.623029
21
1.09633
0
LINE
8
BLACK
6
CONTINUOUS
10
0.623029
20
1.09633
11
0.626849
21
1.10348
0
LINE
8
BLACK
6
CONTINUOUS
10
0.626849
20
1.10348
11
0.63199
21
1.10974
0
LINE
8
BLACK
6
CONTINUOUS
10
0.63199
20
1.10974
11
0.638254
21
1.11488
0
LINE
8
BLACK
6
CONTINUOUS
10
0.638254
20
1.11488
11
0.645401
21
1.1187
0
LINE
8
BLACK
6
CONTINUOUS
10
0.645401
20
1.1187
11
0.653156
21
1.12106
0
LINE
8
BLACK
6
CONTINUOUS
10
0.653156
20
1.12106
11
0.66122
21
1.12185
0
LINE
8
BLACK
6
CONTINUOUS
10
0.66122
20
1.12185
11
0.669285
21
1.12106
0
LINE
8
BLACK
6
CONTINUOUS
10
0.569285
20
1.22106
11
0.57704
21
1.2187
0
LINE
8
BLACK
6
CONTINUOUS
10
0.57704
20
1.2187
11
0.584187
21
1.21488
0
LINE
8
BLACK
6
CONTINUOUS
10
0.584187
20
1.21488
11
0.590451
21
1.20974
0
LINE
8
BLACK
6
CONTINUOUS
10
0.590451
20
1.20974
11
0.595592
21
1.20348
0
LINE
8
BLACK
6
CONTINUOUS
10
0.595592
20
1.20348
11
0.599412
21
1.19633
0
LINE
8
BLACK
6
CONTINUOUS
10
0.599412
20
1.19633
11
0.601765
21
1.18858
0
LINE
8
BLACK
6
CONTINUOUS
10
0.601765
20
1.18858
11
0.602559
21
1.18051
0
LINE
8
BLACK
6
CONTINUOUS
10
0.602559
20
1.18051
11
0.601765
21
1.17245
0
LINE
8
BLACK
6
CONTINUOUS
10
0.601765
20
1.17245
11
0.599412
21
1.16469
0
LINE
8
BLACK
6
CONTINUOUS
10
0.599412
20
1.16469
11
0.595592
21
1.15755
0
LINE
8
BLACK
6
CONTINUOUS
10
0.595592
20
1.15755
11
0.590451
21
1.15128
0
LINE
8
BLACK
6
CONTINUOUS
10
0.590451
20
1.15128
11
0.584187
21
1.14614
0
LINE
8
BLACK
6
CONTINUOUS
10
0.584187
20
1.14614
11
0.57704
21
1.14232
0
LINE
8
BLACK
6
CONTINUOUS
10
0.57704
20
1.14232
11
0.569285
21
1.13997
0
LINE
8
BLACK
6
CONTINUOUS
10
0.569285
20
1.13997
11
0.56122
21
1.13917
0
LINE
8
BLACK
6
CONTINUOUS
10
0.56122
20
1.13917
11
0.553156
21
1.13997
0
LINE
8
BLACK
6
CONTINUOUS
10
0.553156
20
1.13997
11
0.545401
21
1.14232
0
LINE
8
BLACK
6
CONTINUOUS
10
0.545401
20
1.14232
11
0.538254
21
1.14614
0
LINE
8
BLACK
6
CONTINUOUS
10
0.538254
20
1.14614
11
0.53199
21
1.15128
0
LINE
8
BLACK
6
CONTINUOUS
10
0.53199
20
1.15128
11
0.526849
21
1.15755
0
LINE
8
BLACK
6
CONTINUOUS
10
0.526849
20
1.15755
11
0.523029
21
1.16469
0
LINE
8
BLACK
6
CONTINUOUS
10
0.523029
20
1.16469
11
0.520676
21
1.17245
0
LINE
8
BLACK
6
CONTINUOUS
10
0.520676
20
1.17245
11
0.519882
21
1.18051
0
LINE
8
BLACK
6
CONTINUOUS
10
0.519882
20
1.18051
11
0.520676
21
1.18858
0
LINE
8
BLACK
6
CONTINUOUS
10
0.520676
20
1.18858
11
0.523029
21
1.19633
0
LINE
8
BLACK
6
CONTINUOUS
10
0.523029
20
1.19633
11
0.526849
21
1.20348
0
LINE
8
BLACK
6
CONTINUOUS
10
0.526849
20
1.20348
11
0.53199
21
1.20974
0
LINE
8
BLACK
6
CONTINUOUS
10
0.53199
20
1.20974
11
0.538254
21
1.21488
0
LINE
8
BLACK
6
CONTINUOUS
10
0.538254
20
1.21488
11
0.545401
21
1.2187
0
LINE
8
BLACK
6
CONTINUOUS
10
0.545401
20
1.2187
11
0.553156
21
1.22106
0
LINE
8
BLACK
6
CONTINUOUS
10
0.553156
20
1.22106
11
0.56122
21
1.22185
0
LINE
8
BLACK
6
CONTINUOUS
10
0.56122
20
1.22185
11
0.569285
21
1.22106
0
LINE
8
BLACK
6
CONTINUOUS
10
0.669285
20
1.22106
11
0.67704
21
1.2187
0
LINE
8
BLACK
6
CONTINUOUS
10
0.67704
20
1.2187
11
0.684187
21
1.21488
0
LINE
8
BLACK
6
CONTINUOUS
10
0.684187
20
1.21488
11
0.690451
21
1.20974
0
LINE
8
BLACK
6
CONTINUOUS
10
0.690451
20
1.20974
11
0.695592
21
1.20348
0
LINE
8
BLACK
6
CONTINUOUS
10
0.695592
20
1.20348
11
0.699412
21
1.19633
0
LINE
8
BLACK
6
CONTINUOUS
10
0.699412
20
1.19633
11
0.701765
21
1.18858
0
LINE
8
BLACK
6
CONTINUOUS
10
0.701765
20
1.18858
11
0.702559
21
1.18051
0
LINE
8
BLACK
6
CONTINUOUS
10
0.702559
20
1.18051
11
0.701765
21
1.17245
0
LINE
8
BLACK
6
CONTINUOUS
10
0.701765
20
1.17245
11
0.699412
21
1.16469
0
LINE
8
BLACK
6
CONTINUOUS
10
0.699412
20
1.16469
11
0.695592
21
1.15755
0
LINE
8
BLACK
6
CONTINUOUS
10
0.695592
20
1.15755
11
0.690451
21
1.15128
0
LINE
8
BLACK
6
CONTINUOUS
10
0.690451
20
1.15128
11
0.684187
21
1.14614
0
LINE
8
BLACK
6
CONTINUOUS
10
0.684187
20
1.14614
11
0.67704
21
1.14232
0
LINE
8
BLACK
6
CONTINUOUS
10
0.67704
20
1.14232
11
0.669285
21
1.13997
0
LINE
8
BLACK
6
CONTINUOUS
10
0.669285
20
1.13997
11
0.66122
21
1.13917
0
LINE
8
BLACK
6
CONTINUOUS
10
0.66122
20
1.13917
11
0.653156
21
1.13997
0
LINE
8
BLACK
6
CONTINUOUS
10
0.653156
20
1.13997
11
0.645401
21
1.14232
0
LINE
8
BLACK
6
CONTINUOUS
10
0.645401
20
1.14232
11
0.638254
21
1.14614
0
LINE
8
BLACK
6
CONTINUOUS
10
0.638254
20
1.14614
11
0.63199
21
1.15128
0
LINE
8
BLACK
6
CONTINUOUS
10
0.63199
20
1.15128
11
0.626849
21
1.15755
0
LINE
8
BLACK
6
CONTINUOUS
10
0.626849
20
1.15755
11
0.623029
21
1.16469
0
LINE
8
BLACK
6
CONTINUOUS
10
0.623029
20
1.16469
11
0.620676
21
1.17245
0
LINE
8
BLACK
6
CONTINUOUS
10
0.620676
20
1.17245
11
0.619882
21
1.18051
0
LINE
8
BLACK
6
CONTINUOUS
10
0.619882
20
1.18051
11
0.620676
21
1.18858
0
LINE
8
BLACK
6
CONTINUOUS
10
0.620676
20
1.18858
11
0.623029
21
1.19633
0
LINE
8
BLACK
6
CONTINUOUS
10
0.623029
20
1.19633
11
0.626849
21
1.20348
0
LINE
8
BLACK
6
CONTINUOUS
10
0.626849
20
1.20348
11
0.63199
21
1.20974
0
LINE
8
BLACK
6
CONTINUOUS
10
0.63199
20
1.20974
11
0.638254
21
1.21488
0
LINE
8
BLACK
6
CONTINUOUS
10
0.638254
20
1.21488
11
0.645401
21
1.2187
0
LINE
8
BLACK
6
CONTINUOUS
10
0.645401
20
1.2187
11
0.653156
21
1.22106
0
LINE
8
BLACK
6
CONTINUOUS
10
0.653156
20
1.22106
11
0.66122
21
1.22185
0
LINE
8
BLACK
6
CONTINUOUS
10
0.66122
20
1.22185
11
0.669285
21
1.22106
0
LINE
8
BLACK
6
CONTINUOUS
10
0.597698
20
1.32125
11
0.600253
21
1.31954
0
LINE
8
BLACK
6
CONTINUOUS
10
0.600253
20
1.31954
11
0.60196
21
1.31699
0
LINE
8
BLACK
6
CONTINUOUS
10
0.60196
20
1.31699
11
0.602559
21
1.31398
0
LINE
8
BLACK
6
CONTINUOUS
10
0.602559
20
1.31398
11
0.602559
21
1.24705
0
LINE
8
BLACK
6
CONTINUOUS
10
0.602559
20
1.24705
11
0.60196
21
1.24403
0
LINE
8
BLACK
6
CONTINUOUS
10
0.60196
20
1.24403
11
0.600253
21
1.24148
0
LINE
8
BLACK
6
CONTINUOUS
10
0.600253
20
1.24148
11
0.597698
21
1.23977
0
LINE
8
BLACK
6
CONTINUOUS
10
0.597698
20
1.23977
11
0.594685
21
1.23917
0
LINE
8
BLACK
6
CONTINUOUS
10
0.594685
20
1.23917
11
0.527756
21
1.23917
0
LINE
8
BLACK
6
CONTINUOUS
10
0.527756
20
1.23917
11
0.524743
21
1.23977
0
LINE
8
BLACK
6
CONTINUOUS
10
0.524743
20
1.23977
11
0.522188
21
1.24148
0
LINE
8
BLACK
6
CONTINUOUS
10
0.522188
20
1.24148
11
0.520481
21
1.24403
0
LINE
8
BLACK
6
CONTINUOUS
10
0.520481
20
1.24403
11
0.519882
21
1.24705
0
LINE
8
BLACK
6
CONTINUOUS
10
0.519882
20
1.24705
11
0.519882
21
1.31398
0
LINE
8
BLACK
6
CONTINUOUS
10
0.519882
20
1.31398
11
0.520481
21
1.31699
0
LINE
8
BLACK
6
CONTINUOUS
10
0.520481
20
1.31699
11
0.522188
21
1.31954
0
LINE
8
BLACK
6
CONTINUOUS
10
0.522188
20
1.31954
11
0.524743
21
1.32125
0
LINE
8
BLACK
6
CONTINUOUS
10
0.524743
20
1.32125
11
0.527756
21
1.32185
0
LINE
8
BLACK
6
CONTINUOUS
10
0.527756
20
1.32185
11
0.594685
21
1.32185
0
LINE
8
BLACK
6
CONTINUOUS
10
0.594685
20
1.32185
11
0.597698
21
1.32125
0
LINE
8
BLACK
6
CONTINUOUS
10
0.669285
20
1.32106
11
0.67704
21
1.3187
0
LINE
8
BLACK
6
CONTINUOUS
10
0.67704
20
1.3187
11
0.684187
21
1.31488
0
LINE
8
BLACK
6
CONTINUOUS
10
0.684187
20
1.31488
11
0.690451
21
1.30974
0
LINE
8
BLACK
6
CONTINUOUS
10
0.690451
20
1.30974
11
0.695592
21
1.30348
0
LINE
8
BLACK
6
CONTINUOUS
10
0.695592
20
1.30348
11
0.699412
21
1.29633
0
LINE
8
BLACK
6
CONTINUOUS
10
0.699412
20
1.29633
11
0.701765
21
1.28858
0
LINE
8
BLACK
6
CONTINUOUS
10
0.701765
20
1.28858
11
0.702559
21
1.28051
0
LINE
8
BLACK
6
CONTINUOUS
10
0.702559
20
1.28051
11
0.701765
21
1.27245
0
LINE
8
BLACK
6
CONTINUOUS
10
0.701765
20
1.27245
11
0.699412
21
1.26469
0
LINE
8
BLACK
6
CONTINUOUS
10
0.699412
20
1.26469
11
0.695592
21
1.25755
0
LINE
8
BLACK
6
CONTINUOUS
10
0.695592
20
1.25755
11
0.690451
21
1.25128
0
LINE
8
BLACK
6
CONTINUOUS
10
0.690451
20
1.25128
11
0.684187
21
1.24614
0
LINE
8
BLACK
6
CONTINUOUS
10
0.684187
20
1.24614
11
0.67704
21
1.24232
0
LINE
8
BLACK
6
CONTINUOUS
10
0.67704
20
1.24232
11
0.669285
21
1.23997
0
LINE
8
BLACK
6
CONTINUOUS
10
0.669285
20
1.23997
11
0.66122
21
1.23917
0
LINE
8
BLACK
6
CONTINUOUS
10
0.66122
20
1.23917
11
0.653156
21
1.23997
0
LINE
8
BLACK
6
CONTINUOUS
10
0.653156
20
1.23997
11
0.645401
21
1.24232
0
LINE
8
BLACK
6
CONTINUOUS
10
0.645401
20
1.24232
11
0.638254
21
1.24614
0
LINE
8
BLACK
6
CONTINUOUS
10
0.638254
20
1.24614
11
0.63199
21
1.25128
0
LINE
8
BLACK
6
CONTINUOUS
10
0.63199
20
1.25128
11
0.626849
21
1.25755
0
LINE
8
BLACK
6
CONTINUOUS
10
0.626849
20
1.25755
11
0.623029
21
1.26469
0
LINE
8
BLACK
6
CONTINUOUS
10
0.623029
20
1.26469
11
0.620676
21
1.27245
0
LINE
8
BLACK
6
CONTINUOUS
10
0.620676
20
1.27245
11
0.619882
21
1.28051
0
LINE
8
BLACK
6
CONTINUOUS
10
0.619882
20
1.28051
11
0.620676
21
1.28858
0
LINE
8
BLACK
6
CONTINUOUS
10
0.620676
20
1.28858
11
0.623029
21
1.29633
0
LINE
8
BLACK
6
CONTINUOUS
10
0.623029
20
1.29633
11
0.626849
21
1.30348
0
LINE
8
BLACK
6
CONTINUOUS
10
0.626849
20
1.30348
11
0.63199
21
1.30974
0
LINE
8
BLACK
6
CONTINUOUS
10
0.63199
20
1.30974
11
0.638254
21
1.31488
0
LINE
8
BLACK
6
CONTINUOUS
10
0.638254
20
1.31488
11
0.645401
21
1.3187
0
LINE
8
BLACK
6
CONTINUOUS
10
0.645401
20
1.3187
11
0.653156
21
1.32106
0
LINE
8
BLACK
6
CONTINUOUS
10
0.653156
20
1.32106
11
0.66122
21
1.32185
0
LINE
8
BLACK
6
CONTINUOUS
10
0.66122
20
1.32185
11
0.669285
21
1.32106
0
LINE
8
BLACK
6
CONTINUOUS
10
0.744285
20
1.46495
11
0.75204
21
1.4626
0
LINE
8
BLACK
6
CONTINUOUS
10
0.75204
20
1.4626
11
0.759187
21
1.45878
0
LINE
8
BLACK
6
CONTINUOUS
10
0.759187
20
1.45878
11
0.765451
21
1.45364
0
LINE
8
BLACK
6
CONTINUOUS
10
0.765451
20
1.45364
11
0.770592
21
1.44738
0
LINE
8
BLACK
6
CONTINUOUS
10
0.770592
20
1.44738
11
0.774412
21
1.44023
0
LINE
8
BLACK
6
CONTINUOUS
10
0.774412
20
1.44023
11
0.776765
21
1.43247
0
LINE
8
BLACK
6
CONTINUOUS
10
0.776765
20
1.43247
11
0.777559
21
1.42441
0
LINE
8
BLACK
6
CONTINUOUS
10
0.777559
20
1.42441
11
0.776765
21
1.41634
0
LINE
8
BLACK
6
CONTINUOUS
10
0.776765
20
1.41634
11
0.774412
21
1.40859
0
LINE
8
BLACK
6
CONTINUOUS
10
0.774412
20
1.40859
11
0.770592
21
1.40144
0
LINE
8
BLACK
6
CONTINUOUS
10
0.770592
20
1.40144
11
0.765451
21
1.39518
0
LINE
8
BLACK
6
CONTINUOUS
10
0.765451
20
1.39518
11
0.759187
21
1.39004
0
LINE
8
BLACK
6
CONTINUOUS
10
0.759187
20
1.39004
11
0.75204
21
1.38622
0
LINE
8
BLACK
6
CONTINUOUS
10
0.75204
20
1.38622
11
0.744285
21
1.38387
0
LINE
8
BLACK
6
CONTINUOUS
10
0.744285
20
1.38387
11
0.73622
21
1.38307
0
LINE
8
BLACK
6
CONTINUOUS
10
0.73622
20
1.38307
11
0.728156
21
1.38387
0
LINE
8
BLACK
6
CONTINUOUS
10
0.728156
20
1.38387
11
0.720401
21
1.38622
0
LINE
8
BLACK
6
CONTINUOUS
10
0.720401
20
1.38622
11
0.713254
21
1.39004
0
LINE
8
BLACK
6
CONTINUOUS
10
0.713254
20
1.39004
11
0.70699
21
1.39518
0
LINE
8
BLACK
6
CONTINUOUS
10
0.70699
20
1.39518
11
0.701849
21
1.40144
0
LINE
8
BLACK
6
CONTINUOUS
10
0.701849
20
1.40144
11
0.698029
21
1.40859
0
LINE
8
BLACK
6
CONTINUOUS
10
0.698029
20
1.40859
11
0.695676
21
1.41634
0
LINE
8
BLACK
6
CONTINUOUS
10
0.695676
20
1.41634
11
0.694882
21
1.42441
0
LINE
8
BLACK
6
CONTINUOUS
10
0.694882
20
1.42441
11
0.695676
21
1.43247
0
LINE
8
BLACK
6
CONTINUOUS
10
0.695676
20
1.43247
11
0.698029
21
1.44023
0
LINE
8
BLACK
6
CONTINUOUS
10
0.698029
20
1.44023
11
0.701849
21
1.44738
0
LINE
8
BLACK
6
CONTINUOUS
10
0.701849
20
1.44738
11
0.70699
21
1.45364
0
LINE
8
BLACK
6
CONTINUOUS
10
0.70699
20
1.45364
11
0.713254
21
1.45878
0
LINE
8
BLACK
6
CONTINUOUS
10
0.713254
20
1.45878
11
0.720401
21
1.4626
0
LINE
8
BLACK
6
CONTINUOUS
10
0.720401
20
1.4626
11
0.728156
21
1.46495
0
LINE
8
BLACK
6
CONTINUOUS
10
0.728156
20
1.46495
11
0.73622
21
1.46575
0
LINE
8
BLACK
6
CONTINUOUS
10
0.73622
20
1.46575
11
0.744285
21
1.46495
0
LINE
8
BLACK
6
CONTINUOUS
10
0.872698
20
1.46515
11
0.875253
21
1.46344
0
LINE
8
BLACK
6
CONTINUOUS
10
0.875253
20
1.46344
11
0.87696
21
1.46089
0
LINE
8
BLACK
6
CONTINUOUS
10
0.87696
20
1.46089
11
0.877559
21
1.45787
0
LINE
8
BLACK
6
CONTINUOUS
10
0.877559
20
1.45787
11
0.877559
21
1.39094
0
LINE
8
BLACK
6
CONTINUOUS
10
0.877559
20
1.39094
11
0.87696
21
1.38793
0
LINE
8
BLACK
6
CONTINUOUS
10
0.87696
20
1.38793
11
0.875253
21
1.38538
0
LINE
8
BLACK
6
CONTINUOUS
10
0.875253
20
1.38538
11
0.872698
21
1.38367
0
LINE
8
BLACK
6
CONTINUOUS
10
0.872698
20
1.38367
11
0.869685
21
1.38307
0
LINE
8
BLACK
6
CONTINUOUS
10
0.869685
20
1.38307
11
0.802756
21
1.38307
0
LINE
8
BLACK
6
CONTINUOUS
10
0.802756
20
1.38307
11
0.799743
21
1.38367
0
LINE
8
BLACK
6
CONTINUOUS
10
0.799743
20
1.38367
11
0.797188
21
1.38538
0
LINE
8
BLACK
6
CONTINUOUS
10
0.797188
20
1.38538
11
0.795481
21
1.38793
0
LINE
8
BLACK
6
CONTINUOUS
10
0.795481
20
1.38793
11
0.794882
21
1.39094
0
LINE
8
BLACK
6
CONTINUOUS
10
0.794882
20
1.39094
11
0.794882
21
1.45787
0
LINE
8
BLACK
6
CONTINUOUS
10
0.794882
20
1.45787
11
0.795481
21
1.46089
0
LINE
8
BLACK
6
CONTINUOUS
10
0.795481
20
1.46089
11
0.797188
21
1.46344
0
LINE
8
BLACK
6
CONTINUOUS
10
0.797188
20
1.46344
11
0.799743
21
1.46515
0
LINE
8
BLACK
6
CONTINUOUS
10
0.799743
20
1.46515
11
0.802756
21
1.46575
0
LINE
8
BLACK
6
CONTINUOUS
10
0.802756
20
1.46575
11
0.869685
21
1.46575
0
LINE
8
BLACK
6
CONTINUOUS
10
0.869685
20
1.46575
11
0.872698
21
1.46515
0
LINE
8
BLACK
6
CONTINUOUS
10
1.2896
20
1.51912
11
1.29852
21
1.51606
0
LINE
8
BLACK
6
CONTINUOUS
10
1.29852
20
1.51606
11
1.30681
21
1.51157
0
LINE
8
BLACK
6
CONTINUOUS
10
1.30681
20
1.51157
11
1.31425
21
1.50578
0
LINE
8
BLACK
6
CONTINUOUS
10
1.31425
20
1.50578
11
1.32064
21
1.49884
0
LINE
8
BLACK
6
CONTINUOUS
10
1.32064
20
1.49884
11
1.3258
21
1.49095
0
LINE
8
BLACK
6
CONTINUOUS
10
1.3258
20
1.49095
11
1.32958
21
1.48232
0
LINE
8
BLACK
6
CONTINUOUS
10
1.32958
20
1.48232
11
1.3319
21
1.47318
0
LINE
8
BLACK
6
CONTINUOUS
10
1.3319
20
1.47318
11
1.33268
21
1.46378
0
LINE
8
BLACK
6
CONTINUOUS
10
1.33268
20
1.46378
11
1.3319
21
1.45438
0
LINE
8
BLACK
6
CONTINUOUS
10
1.3319
20
1.45438
11
1.32958
21
1.44524
0
LINE
8
BLACK
6
CONTINUOUS
10
1.32958
20
1.44524
11
1.3258
21
1.43661
0
LINE
8
BLACK
6
CONTINUOUS
10
1.3258
20
1.43661
11
1.32064
21
1.42872
0
LINE
8
BLACK
6
CONTINUOUS
10
1.32064
20
1.42872
11
1.31425
21
1.42178
0
LINE
8
BLACK
6
CONTINUOUS
10
1.31425
20
1.42178
11
1.30681
21
1.41599
0
LINE
8
BLACK
6
CONTINUOUS
10
1.30681
20
1.41599
11
1.29852
21
1.4115
0
LINE
8
BLACK
6
CONTINUOUS
10
1.29852
20
1.4115
11
1.2896
21
1.40844
0
LINE
8
BLACK
6
CONTINUOUS
10
1.2896
20
1.40844
11
1.2803
21
1.40689
0
LINE
8
BLACK
6
CONTINUOUS
10
1.2803
20
1.40689
11
1.27088
21
1.40689
0
LINE
8
BLACK
6
CONTINUOUS
10
1.27088
20
1.40689
11
1.26158
21
1.40844
0
LINE
8
BLACK
6
CONTINUOUS
10
1.26158
20
1.40844
11
1.25266
21
1.4115
0
LINE
8
BLACK
6
CONTINUOUS
10
1.25266
20
1.4115
11
1.24437
21
1.41599
0
LINE
8
BLACK
6
CONTINUOUS
10
1.24437
20
1.41599
11
1.23693
21
1.42178
0
LINE
8
BLACK
6
CONTINUOUS
10
1.23693
20
1.42178
11
1.23054
21
1.42872
0
LINE
8
BLACK
6
CONTINUOUS
10
1.23054
20
1.42872
11
1.22538
21
1.43661
0
LINE
8
BLACK
6
CONTINUOUS
10
1.22538
20
1.43661
11
1.2216
21
1.44524
0
LINE
8
BLACK
6
CONTINUOUS
10
1.2216
20
1.44524
11
1.21928
21
1.45438
0
LINE
8
BLACK
6
CONTINUOUS
10
1.21928
20
1.45438
11
1.2185
21
1.46378
0
LINE
8
BLACK
6
CONTINUOUS
10
1.2185
20
1.46378
11
1.21928
21
1.47318
0
LINE
8
BLACK
6
CONTINUOUS
10
1.21928
20
1.47318
11
1.2216
21
1.48232
0
LINE
8
BLACK
6
CONTINUOUS
10
1.2216
20
1.48232
11
1.22538
21
1.49095
0
LINE
8
BLACK
6
CONTINUOUS
10
1.22538
20
1.49095
11
1.23054
21
1.49884
0
LINE
8
BLACK
6
CONTINUOUS
10
1.23054
20
1.49884
11
1.23693
21
1.50578
0
LINE
8
BLACK
6
CONTINUOUS
10
1.23693
20
1.50578
11
1.24437
21
1.51157
0
LINE
8
BLACK
6
CONTINUOUS
10
1.24437
20
1.51157
11
1.25266
21
1.51606
0
LINE
8
BLACK
6
CONTINUOUS
10
1.25266
20
1.51606
11
1.26158
21
1.51912
0
LINE
8
BLACK
6
CONTINUOUS
10
1.26158
20
1.51912
11
1.27088
21
1.52067
0
LINE
8
BLACK
6
CONTINUOUS
10
1.27088
20
1.52067
11
1.2803
21
1.52067
0
LINE
8
BLACK
6
CONTINUOUS
10
1.2803
20
1.52067
11
1.2896
21
1.51912
0
LINE
8
BLACK
6
CONTINUOUS
10
1.61244
20
1.51912
11
1.62136
21
1.51606
0
LINE
8
BLACK
6
CONTINUOUS
10
1.62136
20
1.51606
11
1.62965
21
1.51157
0
LINE
8
BLACK
6
CONTINUOUS
10
1.62965
20
1.51157
11
1.63709
21
1.50578
0
LINE
8
BLACK
6
CONTINUOUS
10
1.63709
20
1.50578
11
1.64347
21
1.49884
0
LINE
8
BLACK
6
CONTINUOUS
10
1.64347
20
1.49884
11
1.64863
21
1.49095
0
LINE
8
BLACK
6
CONTINUOUS
10
1.64863
20
1.49095
11
1.65242
21
1.48232
0
LINE
8
BLACK
6
CONTINUOUS
10
1.65242
20
1.48232
11
1.65473
21
1.47318
0
LINE
8
BLACK
6
CONTINUOUS
10
1.65473
20
1.47318
11
1.65551
21
1.46378
0
LINE
8
BLACK
6
CONTINUOUS
10
1.65551
20
1.46378
11
1.65473
21
1.45438
0
LINE
8
BLACK
6
CONTINUOUS
10
1.65473
20
1.45438
11
1.65242
21
1.44524
0
LINE
8
BLACK
6
CONTINUOUS
10
1.65242
20
1.44524
11
1.64863
21
1.43661
0
LINE
8
BLACK
6
CONTINUOUS
10
1.64863
20
1.43661
11
1.64347
21
1.42872
0
LINE
8
BLACK
6
CONTINUOUS
10
1.64347
20
1.42872
11
1.63709
21
1.42178
0
LINE
8
BLACK
6
CONTINUOUS
10
1.63709
20
1.42178
11
1.62965
21
1.41599
0
LINE
8
BLACK
6
CONTINUOUS
10
1.62965
20
1.41599
11
1.62136
21
1.4115
0
LINE
8
BLACK
6
CONTINUOUS
10
1.62136
20
1.4115
11
1.61244
21
1.40844
0
LINE
8
BLACK
6
CONTINUOUS
10
1.61244
20
1.40844
11
1.60314
21
1.40689
0
LINE
8
BLACK
6
CONTINUOUS
10
1.60314
20
1.40689
11
1.59371
21
1.40689
0
LINE
8
BLACK
6
CONTINUOUS
10
1.59371
20
1.40689
11
1.58441
21
1.40844
0
LINE
8
BLACK
6
CONTINUOUS
10
1.58441
20
1.40844
11
1.57549
21
1.4115
0
LINE
8
BLACK
6
CONTINUOUS
10
1.57549
20
1.4115
11
1.5672
21
1.41599
0
LINE
8
BLACK
6
CONTINUOUS
10
1.5672
20
1.41599
11
1.55976
21
1.42178
0
LINE
8
BLACK
6
CONTINUOUS
10
1.55976
20
1.42178
11
1.55338
21
1.42872
0
LINE
8
BLACK
6
CONTINUOUS
10
1.55338
20
1.42872
11
1.54822
21
1.43661
0
LINE
8
BLACK
6
CONTINUOUS
10
1.54822
20
1.43661
11
1.54443
21
1.44524
0
LINE
8
BLACK
6
CONTINUOUS
10
1.54443
20
1.44524
11
1.54212
21
1.45438
0
LINE
8
BLACK
6
CONTINUOUS
10
1.54212
20
1.45438
11
1.54134
21
1.46378
0
LINE
8
BLACK
6
CONTINUOUS
10
1.54134
20
1.46378
11
1.54212
21
1.47318
0
LINE
8
BLACK
6
CONTINUOUS
10
1.54212
20
1.47318
11
1.54443
21
1.48232
0
LINE
8
BLACK
6
CONTINUOUS
10
1.54443
20
1.48232
11
1.54822
21
1.49095
0
LINE
8
BLACK
6
CONTINUOUS
10
1.54822
20
1.49095
11
1.55338
21
1.49884
0
LINE
8
BLACK
6
CONTINUOUS
10
1.55338
20
1.49884
11
1.55976
21
1.50578
0
LINE
8
BLACK
6
CONTINUOUS
10
1.55976
20
1.50578
11
1.5672
21
1.51157
0
LINE
8
BLACK
6
CONTINUOUS
10
1.5672
20
1.51157
11
1.57549
21
1.51606
0
LINE
8
BLACK
6
CONTINUOUS
10
1.57549
20
1.51606
11
1.58441
21
1.51912
0
LINE
8
BLACK
6
CONTINUOUS
10
1.58441
20
1.51912
11
1.59371
21
1.52067
0
LINE
8
BLACK
6
CONTINUOUS
10
1.59371
20
1.52067
11
1.60314
21
1.52067
0
LINE
8
BLACK
6
CONTINUOUS
10
1.60314
20
1.52067
11
1.61244
21
1.51912
0
LINE
8
BLACK
6
CONTINUOUS
10
0.325388
20
1.60176
11
0.333142
21
1.59941
0
LINE
8
BLACK
6
CONTINUOUS
10
0.333142
20
1.59941
11
0.340289
21
1.59559
0
LINE
8
BLACK
6
CONTINUOUS
10
0.340289
20
1.59559
11
0.346554
21
1.59045
0
LINE
8
BLACK
6
CONTINUOUS
10
0.346554
20
1.59045
11
0.351695
21
1.58419
0
LINE
8
BLACK
6
CONTINUOUS
10
0.351695
20
1.58419
11
0.355515
21
1.57704
0
LINE
8
BLACK
6
CONTINUOUS
10
0.355515
20
1.57704
11
0.357867
21
1.56929
0
LINE
8
BLACK
6
CONTINUOUS
10
0.357867
20
1.56929
11
0.358661
21
1.56122
0
LINE
8
BLACK
6
CONTINUOUS
10
0.358661
20
1.56122
11
0.357867
21
1.55316
0
LINE
8
BLACK
6
CONTINUOUS
10
0.357867
20
1.55316
11
0.355515
21
1.5454
0
LINE
8
BLACK
6
CONTINUOUS
10
0.355515
20
1.5454
11
0.351695
21
1.53825
0
LINE
8
BLACK
6
CONTINUOUS
10
0.351695
20
1.53825
11
0.346554
21
1.53199
0
LINE
8
BLACK
6
CONTINUOUS
10
0.346554
20
1.53199
11
0.340289
21
1.52685
0
LINE
8
BLACK
6
CONTINUOUS
10
0.340289
20
1.52685
11
0.333142
21
1.52303
0
LINE
8
BLACK
6
CONTINUOUS
10
0.333142
20
1.52303
11
0.325388
21
1.52068
0
LINE
8
BLACK
6
CONTINUOUS
10
0.325388
20
1.52068
11
0.317323
21
1.51988
0
LINE
8
BLACK
6
CONTINUOUS
10
0.317323
20
1.51988
11
0.309258
21
1.52068
0
LINE
8
BLACK
6
CONTINUOUS
10
0.309258
20
1.52068
11
0.301503
21
1.52303
0
LINE
8
BLACK
6
CONTINUOUS
10
0.301503
20
1.52303
11
0.294356
21
1.52685
0
LINE
8
BLACK
6
CONTINUOUS
10
0.294356
20
1.52685
11
0.288092
21
1.53199
0
LINE
8
BLACK
6
CONTINUOUS
10
0.288092
20
1.53199
11
0.282951
21
1.53825
0
LINE
8
BLACK
6
CONTINUOUS
10
0.282951
20
1.53825
11
0.279131
21
1.5454
0
LINE
8
BLACK
6
CONTINUOUS
10
0.279131
20
1.5454
11
0.276779
21
1.55316
0
LINE
8
BLACK
6
CONTINUOUS
10
0.276779
20
1.55316
11
0.275984
21
1.56122
0
LINE
8
BLACK
6
CONTINUOUS
10
0.275984
20
1.56122
11
0.276779
21
1.56929
0
LINE
8
BLACK
6
CONTINUOUS
10
0.276779
20
1.56929
11
0.279131
21
1.57704
0
LINE
8
BLACK
6
CONTINUOUS
10
0.279131
20
1.57704
11
0.282951
21
1.58419
0
LINE
8
BLACK
6
CONTINUOUS
10
0.282951
20
1.58419
11
0.288092
21
1.59045
0
LINE
8
BLACK
6
CONTINUOUS
10
0.288092
20
1.59045
11
0.294356
21
1.59559
0
LINE
8
BLACK
6
CONTINUOUS
10
0.294356
20
1.59559
11
0.301503
21
1.59941
0
LINE
8
BLACK
6
CONTINUOUS
10
0.301503
20
1.59941
11
0.309258
21
1.60176
0
LINE
8
BLACK
6
CONTINUOUS
10
0.309258
20
1.60176
11
0.317323
21
1.60256
0
LINE
8
BLACK
6
CONTINUOUS
10
0.317323
20
1.60256
11
0.325388
21
1.60176
0
LINE
8
BLACK
6
CONTINUOUS
10
0.453801
20
1.60196
11
0.456355
21
1.60025
0
LINE
8
BLACK
6
CONTINUOUS
10
0.456355
20
1.60025
11
0.458062
21
1.5977
0
LINE
8
BLACK
6
CONTINUOUS
10
0.458062
20
1.5977
11
0.458661
21
1.59469
0
LINE
8
BLACK
6
CONTINUOUS
10
0.458661
20
1.59469
11
0.458661
21
1.52776
0
LINE
8
BLACK
6
CONTINUOUS
10
0.458661
20
1.52776
11
0.458062
21
1.52474
0
LINE
8
BLACK
6
CONTINUOUS
10
0.458062
20
1.52474
11
0.456355
21
1.52219
0
LINE
8
BLACK
6
CONTINUOUS
10
0.456355
20
1.52219
11
0.453801
21
1.52048
0
LINE
8
BLACK
6
CONTINUOUS
10
0.453801
20
1.52048
11
0.450787
21
1.51988
0
LINE
8
BLACK
6
CONTINUOUS
10
0.450787
20
1.51988
11
0.383858
21
1.51988
0
LINE
8
BLACK
6
CONTINUOUS
10
0.383858
20
1.51988
11
0.380845
21
1.52048
0
LINE
8
BLACK
6
CONTINUOUS
10
0.380845
20
1.52048
11
0.378291
21
1.52219
0
LINE
8
BLACK
6
CONTINUOUS
10
0.378291
20
1.52219
11
0.376584
21
1.52474
0
LINE
8
BLACK
6
CONTINUOUS
10
0.376584
20
1.52474
11
0.375984
21
1.52776
0
LINE
8
BLACK
6
CONTINUOUS
10
0.375984
20
1.52776
11
0.375984
21
1.59469
0
LINE
8
BLACK
6
CONTINUOUS
10
0.375984
20
1.59469
11
0.376584
21
1.5977
0
LINE
8
BLACK
6
CONTINUOUS
10
0.376584
20
1.5977
11
0.378291
21
1.60025
0
LINE
8
BLACK
6
CONTINUOUS
10
0.378291
20
1.60025
11
0.380845
21
1.60196
0
LINE
8
BLACK
6
CONTINUOUS
10
0.380845
20
1.60196
11
0.383858
21
1.60256
0
LINE
8
BLACK
6
CONTINUOUS
10
0.383858
20
1.60256
11
0.450787
21
1.60256
0
LINE
8
BLACK
6
CONTINUOUS
10
0.450787
20
1.60256
11
0.453801
21
1.60196
0
LINE
8
BLACK
6
CONTINUOUS
10
0.721517
20
1.61475
11
0.724072
21
1.61305
0
LINE
8
BLACK
6
CONTINUOUS
10
0.724072
20
1.61305
11
0.725779
21
1.61049
0
LINE
8
BLACK
6
CONTINUOUS
10
0.725779
20
1.61049
11
0.726378
21
1.60748
0
LINE
8
BLACK
6
CONTINUOUS
10
0.726378
20
1.60748
11
0.726378
21
1.54055
0
LINE
8
BLACK
6
CONTINUOUS
10
0.726378
20
1.54055
11
0.725779
21
1.53754
0
LINE
8
BLACK
6
CONTINUOUS
10
0.725779
20
1.53754
11
0.724072
21
1.53498
0
LINE
8
BLACK
6
CONTINUOUS
10
0.724072
20
1.53498
11
0.721517
21
1.53328
0
LINE
8
BLACK
6
CONTINUOUS
10
0.721517
20
1.53328
11
0.718504
21
1.53268
0
LINE
8
BLACK
6
CONTINUOUS
10
0.718504
20
1.53268
11
0.651575
21
1.53268
0
LINE
8
BLACK
6
CONTINUOUS
10
0.651575
20
1.53268
11
0.648562
21
1.53328
0
LINE
8
BLACK
6
CONTINUOUS
10
0.648562
20
1.53328
11
0.646007
21
1.53498
0
LINE
8
BLACK
6
CONTINUOUS
10
0.646007
20
1.53498
11
0.6443
21
1.53754
0
LINE
8
BLACK
6
CONTINUOUS
10
0.6443
20
1.53754
11
0.643701
21
1.54055
0
LINE
8
BLACK
6
CONTINUOUS
10
0.643701
20
1.54055
11
0.643701
21
1.60748
0
LINE
8
BLACK
6
CONTINUOUS
10
0.643701
20
1.60748
11
0.6443
21
1.61049
0
LINE
8
BLACK
6
CONTINUOUS
10
0.6443
20
1.61049
11
0.646007
21
1.61305
0
LINE
8
BLACK
6
CONTINUOUS
10
0.646007
20
1.61305
11
0.648562
21
1.61475
0
LINE
8
BLACK
6
CONTINUOUS
10
0.648562
20
1.61475
11
0.651575
21
1.61535
0
LINE
8
BLACK
6
CONTINUOUS
10
0.651575
20
1.61535
11
0.718504
21
1.61535
0
LINE
8
BLACK
6
CONTINUOUS
10
0.718504
20
1.61535
11
0.721517
21
1.61475
0
LINE
8
BLACK
6
CONTINUOUS
10
1.32782
20
1.71712
11
1.33037
21
1.71541
0
LINE
8
BLACK
6
CONTINUOUS
10
1.33037
20
1.71541
11
1.33208
21
1.71286
0
LINE
8
BLACK
6
CONTINUOUS
10
1.33208
20
1.71286
11
1.33268
21
1.70984
0
LINE
8
BLACK
6
CONTINUOUS
10
1.33268
20
1.70984
11
1.33268
21
1.61142
0
LINE
8
BLACK
6
CONTINUOUS
10
1.33268
20
1.61142
11
1.33208
21
1.6084
0
LINE
8
BLACK
6
CONTINUOUS
10
1.33208
20
1.6084
11
1.33037
21
1.60585
0
LINE
8
BLACK
6
CONTINUOUS
10
1.33037
20
1.60585
11
1.32782
21
1.60414
0
LINE
8
BLACK
6
CONTINUOUS
10
1.32782
20
1.60414
11
1.3248
21
1.60354
0
LINE
8
BLACK
6
CONTINUOUS
10
1.3248
20
1.60354
11
1.22638
21
1.60354
0
LINE
8
BLACK
6
CONTINUOUS
10
1.22638
20
1.60354
11
1.22336
21
1.60414
0
LINE
8
BLACK
6
CONTINUOUS
10
1.22336
20
1.60414
11
1.22081
21
1.60585
0
LINE
8
BLACK
6
CONTINUOUS
10
1.22081
20
1.60585
11
1.2191
21
1.6084
0
LINE
8
BLACK
6
CONTINUOUS
10
1.2191
20
1.6084
11
1.2185
21
1.61142
0
LINE
8
BLACK
6
CONTINUOUS
10
1.2185
20
1.61142
11
1.2185
21
1.70984
0
LINE
8
BLACK
6
CONTINUOUS
10
1.2185
20
1.70984
11
1.2191
21
1.71286
0
LINE
8
BLACK
6
CONTINUOUS
10
1.2191
20
1.71286
11
1.22081
21
1.71541
0
LINE
8
BLACK
6
CONTINUOUS
10
1.22081
20
1.71541
11
1.22336
21
1.71712
0
LINE
8
BLACK
6
CONTINUOUS
10
1.22336
20
1.71712
11
1.22638
21
1.71772
0
LINE
8
BLACK
6
CONTINUOUS
10
1.22638
20
1.71772
11
1.3248
21
1.71772
0
LINE
8
BLACK
6
CONTINUOUS
10
1.3248
20
1.71772
11
1.32782
21
1.71712
0
LINE
8
BLACK
6
CONTINUOUS
10
1.65065
20
1.71712
11
1.65321
21
1.71541
0
LINE
8
BLACK
6
CONTINUOUS
10
1.65321
20
1.71541
11
1.65491
21
1.71286
0
LINE
8
BLACK
6
CONTINUOUS
10
1.65491
20
1.71286
11
1.65551
21
1.70984
0
LINE
8
BLACK
6
CONTINUOUS
10
1.65551
20
1.70984
11
1.65551
21
1.61142
0
LINE
8
BLACK
6
CONTINUOUS
10
1.65551
20
1.61142
11
1.65491
21
1.6084
0
LINE
8
BLACK
6
CONTINUOUS
10
1.65491
20
1.6084
11
1.65321
21
1.60585
0
LINE
8
BLACK
6
CONTINUOUS
10
1.65321
20
1.60585
11
1.65065
21
1.60414
0
LINE
8
BLACK
6
CONTINUOUS
10
1.65065
20
1.60414
11
1.64764
21
1.60354
0
LINE
8
BLACK
6
CONTINUOUS
10
1.64764
20
1.60354
11
1.54921
21
1.60354
0
LINE
8
BLACK
6
CONTINUOUS
10
1.54921
20
1.60354
11
1.5462
21
1.60414
0
LINE
8
BLACK
6
CONTINUOUS
10
1.5462
20
1.60414
11
1.54364
21
1.60585
0
LINE
8
BLACK
6
CONTINUOUS
10
1.54364
20
1.60585
11
1.54194
21
1.6084
0
LINE
8
BLACK
6
CONTINUOUS
10
1.54194
20
1.6084
11
1.54134
21
1.61142
0
LINE
8
BLACK
6
CONTINUOUS
10
1.54134
20
1.61142
11
1.54134
21
1.70984
0
LINE
8
BLACK
6
CONTINUOUS
10
1.54134
20
1.70984
11
1.54194
21
1.71286
0
LINE
8
BLACK
6
CONTINUOUS
10
1.54194
20
1.71286
11
1.54364
21
1.71541
0
LINE
8
BLACK
6
CONTINUOUS
10
1.54364
20
1.71541
11
1.5462
21
1.71712
0
LINE
8
BLACK
6
CONTINUOUS
10
1.5462
20
1.71712
11
1.54921
21
1.71772
0
LINE
8
BLACK
6
CONTINUOUS
10
1.54921
20
1.71772
11
1.64764
21
1.71772
0
LINE
8
BLACK
6
CONTINUOUS
10
1.64764
20
1.71772
11
1.65065
21
1.71712
0
LINE
8
BLACK
6
CONTINUOUS
10
0.325388
20
1.70176
11
0.333142
21
1.69941
0
LINE
8
BLACK
6
CONTINUOUS
10
0.333142
20
1.69941
11
0.340289
21
1.69559
0
LINE
8
BLACK
6
CONTINUOUS
10
0.340289
20
1.69559
11
0.346554
21
1.69045
0
LINE
8
BLACK
6
CONTINUOUS
10
0.346554
20
1.69045
11
0.351695
21
1.68419
0
LINE
8
BLACK
6
CONTINUOUS
10
0.351695
20
1.68419
11
0.355515
21
1.67704
0
LINE
8
BLACK
6
CONTINUOUS
10
0.355515
20
1.67704
11
0.357867
21
1.66929
0
LINE
8
BLACK
6
CONTINUOUS
10
0.357867
20
1.66929
11
0.358661
21
1.66122
0
LINE
8
BLACK
6
CONTINUOUS
10
0.358661
20
1.66122
11
0.357867
21
1.65316
0
LINE
8
BLACK
6
CONTINUOUS
10
0.357867
20
1.65316
11
0.355515
21
1.6454
0
LINE
8
BLACK
6
CONTINUOUS
10
0.355515
20
1.6454
11
0.351695
21
1.63825
0
LINE
8
BLACK
6
CONTINUOUS
10
0.351695
20
1.63825
11
0.346554
21
1.63199
0
LINE
8
BLACK
6
CONTINUOUS
10
0.346554
20
1.63199
11
0.340289
21
1.62685
0
LINE
8
BLACK
6
CONTINUOUS
10
0.340289
20
1.62685
11
0.333142
21
1.62303
0
LINE
8
BLACK
6
CONTINUOUS
10
0.333142
20
1.62303
11
0.325388
21
1.62068
0
LINE
8
BLACK
6
CONTINUOUS
10
0.325388
20
1.62068
11
0.317323
21
1.61988
0
LINE
8
BLACK
6
CONTINUOUS
10
0.317323
20
1.61988
11
0.309258
21
1.62068
0
LINE
8
BLACK
6
CONTINUOUS
10
0.309258
20
1.62068
11
0.301503
21
1.62303
0
LINE
8
BLACK
6
CONTINUOUS
10
0.301503
20
1.62303
11
0.294356
21
1.62685
0
LINE
8
BLACK
6
CONTINUOUS
10
0.294356
20
1.62685
11
0.288092
21
1.63199
0
LINE
8
BLACK
6
CONTINUOUS
10
0.288092
20
1.63199
11
0.282951
21
1.63825
0
LINE
8
BLACK
6
CONTINUOUS
10
0.282951
20
1.63825
11
0.279131
21
1.6454
0
LINE
8
BLACK
6
CONTINUOUS
10
0.279131
20
1.6454
11
0.276779
21
1.65316
0
LINE
8
BLACK
6
CONTINUOUS
10
0.276779
20
1.65316
11
0.275984
21
1.66122
0
LINE
8
BLACK
6
CONTINUOUS
10
0.275984
20
1.66122
11
0.276779
21
1.66929
0
LINE
8
BLACK
6
CONTINUOUS
10
0.276779
20
1.66929
11
0.279131
21
1.67704
0
LINE
8
BLACK
6
CONTINUOUS
10
0.279131
20
1.67704
11
0.282951
21
1.68419
0
LINE
8
BLACK
6
CONTINUOUS
10
0.282951
20
1.68419
11
0.288092
21
1.69045
0
LINE
8
BLACK
6
CONTINUOUS
10
0.288092
20
1.69045
11
0.294356
21
1.69559
0
LINE
8
BLACK
6
CONTINUOUS
10
0.294356
20
1.69559
11
0.301503
21
1.69941
0
LINE
8
BLACK
6
CONTINUOUS
10
0.301503
20
1.69941
11
0.309258
21
1.70176
0
LINE
8
BLACK
6
CONTINUOUS
10
0.309258
20
1.70176
11
0.317323
21
1.70256
0
LINE
8
BLACK
6
CONTINUOUS
10
0.317323
20
1.70256
11
0.325388
21
1.70176
0
LINE
8
BLACK
6
CONTINUOUS
10
0.425388
20
1.70176
11
0.433142
21
1.69941
0
LINE
8
BLACK
6
CONTINUOUS
10
0.433142
20
1.69941
11
0.440289
21
1.69559
0
LINE
8
BLACK
6
CONTINUOUS
10
0.440289
20
1.69559
11
0.446554
21
1.69045
0
LINE
8
BLACK
6
CONTINUOUS
10
0.446554
20
1.69045
11
0.451695
21
1.68419
0
LINE
8
BLACK
6
CONTINUOUS
10
0.451695
20
1.68419
11
0.455515
21
1.67704
0
LINE
8
BLACK
6
CONTINUOUS
10
0.455515
20
1.67704
11
0.457867
21
1.66929
0
LINE
8
BLACK
6
CONTINUOUS
10
0.457867
20
1.66929
11
0.458661
21
1.66122
0
LINE
8
BLACK
6
CONTINUOUS
10
0.458661
20
1.66122
11
0.457867
21
1.65316
0
LINE
8
BLACK
6
CONTINUOUS
10
0.457867
20
1.65316
11
0.455515
21
1.6454
0
LINE
8
BLACK
6
CONTINUOUS
10
0.455515
20
1.6454
11
0.451695
21
1.63825
0
LINE
8
BLACK
6
CONTINUOUS
10
0.451695
20
1.63825
11
0.446554
21
1.63199
0
LINE
8
BLACK
6
CONTINUOUS
10
0.446554
20
1.63199
11
0.440289
21
1.62685
0
LINE
8
BLACK
6
CONTINUOUS
10
0.440289
20
1.62685
11
0.433142
21
1.62303
0
LINE
8
BLACK
6
CONTINUOUS
10
0.433142
20
1.62303
11
0.425388
21
1.62068
0
LINE
8
BLACK
6
CONTINUOUS
10
0.425388
20
1.62068
11
0.417323
21
1.61988
0
LINE
8
BLACK
6
CONTINUOUS
10
0.417323
20
1.61988
11
0.409258
21
1.62068
0
LINE
8
BLACK
6
CONTINUOUS
10
0.409258
20
1.62068
11
0.401503
21
1.62303
0
LINE
8
BLACK
6
CONTINUOUS
10
0.401503
20
1.62303
11
0.394356
21
1.62685
0
LINE
8
BLACK
6
CONTINUOUS
10
0.394356
20
1.62685
11
0.388092
21
1.63199
0
LINE
8
BLACK
6
CONTINUOUS
10
0.388092
20
1.63199
11
0.382951
21
1.63825
0
LINE
8
BLACK
6
CONTINUOUS
10
0.382951
20
1.63825
11
0.379131
21
1.6454
0
LINE
8
BLACK
6
CONTINUOUS
10
0.379131
20
1.6454
11
0.376779
21
1.65316
0
LINE
8
BLACK
6
CONTINUOUS
10
0.376779
20
1.65316
11
0.375984
21
1.66122
0
LINE
8
BLACK
6
CONTINUOUS
10
0.375984
20
1.66122
11
0.376779
21
1.66929
0
LINE
8
BLACK
6
CONTINUOUS
10
0.376779
20
1.66929
11
0.379131
21
1.67704
0
LINE
8
BLACK
6
CONTINUOUS
10
0.379131
20
1.67704
11
0.382951
21
1.68419
0
LINE
8
BLACK
6
CONTINUOUS
10
0.382951
20
1.68419
11
0.388092
21
1.69045
0
LINE
8
BLACK
6
CONTINUOUS
10
0.388092
20
1.69045
11
0.394356
21
1.69559
0
LINE
8
BLACK
6
CONTINUOUS
10
0.394356
20
1.69559
11
0.401503
21
1.69941
0
LINE
8
BLACK
6
CONTINUOUS
10
0.401503
20
1.69941
11
0.409258
21
1.70176
0
LINE
8
BLACK
6
CONTINUOUS
10
0.409258
20
1.70176
11
0.417323
21
1.70256
0
LINE
8
BLACK
6
CONTINUOUS
10
0.417323
20
1.70256
11
0.425388
21
1.70176
0
LINE
8
BLACK
6
CONTINUOUS
10
0.693104
20
1.71456
11
0.700859
21
1.71221
0
LINE
8
BLACK
6
CONTINUOUS
10
0.700859
20
1.71221
11
0.708006
21
1.70839
0
LINE
8
BLACK
6
CONTINUOUS
10
0.708006
20
1.70839
11
0.71427
21
1.70325
0
LINE
8
BLACK
6
CONTINUOUS
10
0.71427
20
1.70325
11
0.719411
21
1.69698
0
LINE
8
BLACK
6
CONTINUOUS
10
0.719411
20
1.69698
11
0.723231
21
1.68984
0
LINE
8
BLACK
6
CONTINUOUS
10
0.723231
20
1.68984
11
0.725584
21
1.68208
0
LINE
8
BLACK
6
CONTINUOUS
10
0.725584
20
1.68208
11
0.726378
21
1.67402
0
LINE
8
BLACK
6
CONTINUOUS
10
0.726378
20
1.67402
11
0.725584
21
1.66595
0
LINE
8
BLACK
6
CONTINUOUS
10
0.725584
20
1.66595
11
0.723231
21
1.6582
0
LINE
8
BLACK
6
CONTINUOUS
10
0.723231
20
1.6582
11
0.719411
21
1.65105
0
LINE
8
BLACK
6
CONTINUOUS
10
0.719411
20
1.65105
11
0.71427
21
1.64478
0
LINE
8
BLACK
6
CONTINUOUS
10
0.71427
20
1.64478
11
0.708006
21
1.63964
0
LINE
8
BLACK
6
CONTINUOUS
10
0.708006
20
1.63964
11
0.700859
21
1.63582
0
LINE
8
BLACK
6
CONTINUOUS
10
0.700859
20
1.63582
11
0.693104
21
1.63347
0
LINE
8
BLACK
6
CONTINUOUS
10
0.693104
20
1.63347
11
0.685039
21
1.63268
0
LINE
8
BLACK
6
CONTINUOUS
10
0.685039
20
1.63268
11
0.676975
21
1.63347
0
LINE
8
BLACK
6
CONTINUOUS
10
0.676975
20
1.63347
11
0.66922
21
1.63582
0
LINE
8
BLACK
6
CONTINUOUS
10
0.66922
20
1.63582
11
0.662073
21
1.63964
0
LINE
8
BLACK
6
CONTINUOUS
10
0.662073
20
1.63964
11
0.655809
21
1.64478
0
LINE
8
BLACK
6
CONTINUOUS
10
0.655809
20
1.64478
11
0.650668
21
1.65105
0
LINE
8
BLACK
6
CONTINUOUS
10
0.650668
20
1.65105
11
0.646847
21
1.6582
0
LINE
8
BLACK
6
CONTINUOUS
10
0.646847
20
1.6582
11
0.644495
21
1.66595
0
LINE
8
BLACK
6
CONTINUOUS
10
0.644495
20
1.66595
11
0.643701
21
1.67402
0
LINE
8
BLACK
6
CONTINUOUS
10
0.643701
20
1.67402
11
0.644495
21
1.68208
0
LINE
8
BLACK
6
CONTINUOUS
10
0.644495
20
1.68208
11
0.646847
21
1.68984
0
LINE
8
BLACK
6
CONTINUOUS
10
0.646847
20
1.68984
11
0.650668
21
1.69698
0
LINE
8
BLACK
6
CONTINUOUS
10
0.650668
20
1.69698
11
0.655809
21
1.70325
0
LINE
8
BLACK
6
CONTINUOUS
10
0.655809
20
1.70325
11
0.662073
21
1.70839
0
LINE
8
BLACK
6
CONTINUOUS
10
0.662073
20
1.70839
11
0.66922
21
1.71221
0
LINE
8
BLACK
6
CONTINUOUS
10
0.66922
20
1.71221
11
0.676975
21
1.71456
0
LINE
8
BLACK
6
CONTINUOUS
10
0.676975
20
1.71456
11
0.685039
21
1.71535
0
LINE
8
BLACK
6
CONTINUOUS
10
0.685039
20
1.71535
11
0.693104
21
1.71456
0
LINE
8
BLACK
6
CONTINUOUS
10
0.325388
20
1.80176
11
0.333142
21
1.79941
0
LINE
8
BLACK
6
CONTINUOUS
10
0.333142
20
1.79941
11
0.340289
21
1.79559
0
LINE
8
BLACK
6
CONTINUOUS
10
0.340289
20
1.79559
11
0.346554
21
1.79045
0
LINE
8
BLACK
6
CONTINUOUS
10
0.346554
20
1.79045
11
0.351695
21
1.78419
0
LINE
8
BLACK
6
CONTINUOUS
10
0.351695
20
1.78419
11
0.355515
21
1.77704
0
LINE
8
BLACK
6
CONTINUOUS
10
0.355515
20
1.77704
11
0.357867
21
1.76929
0
LINE
8
BLACK
6
CONTINUOUS
10
0.357867
20
1.76929
11
0.358661
21
1.76122
0
LINE
8
BLACK
6
CONTINUOUS
10
0.358661
20
1.76122
11
0.357867
21
1.75316
0
LINE
8
BLACK
6
CONTINUOUS
10
0.357867
20
1.75316
11
0.355515
21
1.7454
0
LINE
8
BLACK
6
CONTINUOUS
10
0.355515
20
1.7454
11
0.351695
21
1.73825
0
LINE
8
BLACK
6
CONTINUOUS
10
0.351695
20
1.73825
11
0.346554
21
1.73199
0
LINE
8
BLACK
6
CONTINUOUS
10
0.346554
20
1.73199
11
0.340289
21
1.72685
0
LINE
8
BLACK
6
CONTINUOUS
10
0.340289
20
1.72685
11
0.333142
21
1.72303
0
LINE
8
BLACK
6
CONTINUOUS
10
0.333142
20
1.72303
11
0.325388
21
1.72068
0
LINE
8
BLACK
6
CONTINUOUS
10
0.325388
20
1.72068
11
0.317323
21
1.71988
0
LINE
8
BLACK
6
CONTINUOUS
10
0.317323
20
1.71988
11
0.309258
21
1.72068
0
LINE
8
BLACK
6
CONTINUOUS
10
0.309258
20
1.72068
11
0.301503
21
1.72303
0
LINE
8
BLACK
6
CONTINUOUS
10
0.301503
20
1.72303
11
0.294356
21
1.72685
0
LINE
8
BLACK
6
CONTINUOUS
10
0.294356
20
1.72685
11
0.288092
21
1.73199
0
LINE
8
BLACK
6
CONTINUOUS
10
0.288092
20
1.73199
11
0.282951
21
1.73825
0
LINE
8
BLACK
6
CONTINUOUS
10
0.282951
20
1.73825
11
0.279131
21
1.7454
0
LINE
8
BLACK
6
CONTINUOUS
10
0.279131
20
1.7454
11
0.276779
21
1.75316
0
LINE
8
BLACK
6
CONTINUOUS
10
0.276779
20
1.75316
11
0.275984
21
1.76122
0
LINE
8
BLACK
6
CONTINUOUS
10
0.275984
20
1.76122
11
0.276779
21
1.76929
0
LINE
8
BLACK
6
CONTINUOUS
10
0.276779
20
1.76929
11
0.279131
21
1.77704
0
LINE
8
BLACK
6
CONTINUOUS
10
0.279131
20
1.77704
11
0.282951
21
1.78419
0
LINE
8
BLACK
6
CONTINUOUS
10
0.282951
20
1.78419
11
0.288092
21
1.79045
0
LINE
8
BLACK
6
CONTINUOUS
10
0.288092
20
1.79045
11
0.294356
21
1.79559
0
LINE
8
BLACK
6
CONTINUOUS
10
0.294356
20
1.79559
11
0.301503
21
1.79941
0
LINE
8
BLACK
6
CONTINUOUS
10
0.301503
20
1.79941
11
0.309258
21
1.80176
0
LINE
8
BLACK
6
CONTINUOUS
10
0.309258
20
1.80176
11
0.317323
21
1.80256
0
LINE
8
BLACK
6
CONTINUOUS
10
0.317323
20
1.80256
11
0.325388
21
1.80176
0
LINE
8
BLACK
6
CONTINUOUS
10
0.425388
20
1.80176
11
0.433142
21
1.79941
0
LINE
8
BLACK
6
CONTINUOUS
10
0.433142
20
1.79941
11
0.440289
21
1.79559
0
LINE
8
BLACK
6
CONTINUOUS
10
0.440289
20
1.79559
11
0.446554
21
1.79045
0
LINE
8
BLACK
6
CONTINUOUS
10
0.446554
20
1.79045
11
0.451695
21
1.78419
0
LINE
8
BLACK
6
CONTINUOUS
10
0.451695
20
1.78419
11
0.455515
21
1.77704
0
LINE
8
BLACK
6
CONTINUOUS
10
0.455515
20
1.77704
11
0.457867
21
1.76929
0
LINE
8
BLACK
6
CONTINUOUS
10
0.457867
20
1.76929
11
0.458661
21
1.76122
0
LINE
8
BLACK
6
CONTINUOUS
10
0.458661
20
1.76122
11
0.457867
21
1.75316
0
LINE
8
BLACK
6
CONTINUOUS
10
0.457867
20
1.75316
11
0.455515
21
1.7454
0
LINE
8
BLACK
6
CONTINUOUS
10
0.455515
20
1.7454
11
0.451695
21
1.73825
0
LINE
8
BLACK
6
CONTINUOUS
10
0.451695
20
1.73825
11
0.446554
21
1.73199
0
LINE
8
BLACK
6
CONTINUOUS
10
0.446554
20
1.73199
11
0.440289
21
1.72685
0
LINE
8
BLACK
6
CONTINUOUS
10
0.440289
20
1.72685
11
0.433142
21
1.72303
0
LINE
8
BLACK
6
CONTINUOUS
10
0.433142
20
1.72303
11
0.425388
21
1.72068
0
LINE
8
BLACK
6
CONTINUOUS
10
0.425388
20
1.72068
11
0.417323
21
1.71988
0
LINE
8
BLACK
6
CONTINUOUS
10
0.417323
20
1.71988
11
0.409258
21
1.72068
0
LINE
8
BLACK
6
CONTINUOUS
10
0.409258
20
1.72068
11
0.401503
21
1.72303
0
LINE
8
BLACK
6
CONTINUOUS
10
0.401503
20
1.72303
11
0.394356
21
1.72685
0
LINE
8
BLACK
6
CONTINUOUS
10
0.394356
20
1.72685
11
0.388092
21
1.73199
0
LINE
8
BLACK
6
CONTINUOUS
10
0.388092
20
1.73199
11
0.382951
21
1.73825
0
LINE
8
BLACK
6
CONTINUOUS
10
0.382951
20
1.73825
11
0.379131
21
1.7454
0
LINE
8
BLACK
6
CONTINUOUS
10
0.379131
20
1.7454
11
0.376779
21
1.75316
0
LINE
8
BLACK
6
CONTINUOUS
10
0.376779
20
1.75316
11
0.375984
21
1.76122
0
LINE
8
BLACK
6
CONTINUOUS
10
0.375984
20
1.76122
11
0.376779
21
1.76929
0
LINE
8
BLACK
6
CONTINUOUS
10
0.376779
20
1.76929
11
0.379131
21
1.77704
0
LINE
8
BLACK
6
CONTINUOUS
10
0.379131
20
1.77704
11
0.382951
21
1.78419
0
LINE
8
BLACK
6
CONTINUOUS
10
0.382951
20
1.78419
11
0.388092
21
1.79045
0
LINE
8
BLACK
6
CONTINUOUS
10
0.388092
20
1.79045
11
0.394356
21
1.79559
0
LINE
8
BLACK
6
CONTINUOUS
10
0.394356
20
1.79559
11
0.401503
21
1.79941
0
LINE
8
BLACK
6
CONTINUOUS
10
0.401503
20
1.79941
11
0.409258
21
1.80176
0
LINE
8
BLACK
6
CONTINUOUS
10
0.409258
20
1.80176
11
0.417323
21
1.80256
0
LINE
8
BLACK
6
CONTINUOUS
10
0.417323
20
1.80256
11
0.425388
21
1.80176
0
LINE
8
BLACK
6
CONTINUOUS
10
0.693104
20
1.81456
11
0.700859
21
1.81221
0
LINE
8
BLACK
6
CONTINUOUS
10
0.700859
20
1.81221
11
0.708006
21
1.80839
0
LINE
8
BLACK
6
CONTINUOUS
10
0.708006
20
1.80839
11
0.71427
21
1.80325
0
LINE
8
BLACK
6
CONTINUOUS
10
0.71427
20
1.80325
11
0.719411
21
1.79698
0
LINE
8
BLACK
6
CONTINUOUS
10
0.719411
20
1.79698
11
0.723231
21
1.78984
0
LINE
8
BLACK
6
CONTINUOUS
10
0.723231
20
1.78984
11
0.725584
21
1.78208
0
LINE
8
BLACK
6
CONTINUOUS
10
0.725584
20
1.78208
11
0.726378
21
1.77402
0
LINE
8
BLACK
6
CONTINUOUS
10
0.726378
20
1.77402
11
0.725584
21
1.76595
0
LINE
8
BLACK
6
CONTINUOUS
10
0.725584
20
1.76595
11
0.723231
21
1.7582
0
LINE
8
BLACK
6
CONTINUOUS
10
0.723231
20
1.7582
11
0.719411
21
1.75105
0
LINE
8
BLACK
6
CONTINUOUS
10
0.719411
20
1.75105
11
0.71427
21
1.74478
0
LINE
8
BLACK
6
CONTINUOUS
10
0.71427
20
1.74478
11
0.708006
21
1.73964
0
LINE
8
BLACK
6
CONTINUOUS
10
0.708006
20
1.73964
11
0.700859
21
1.73582
0
LINE
8
BLACK
6
CONTINUOUS
10
0.700859
20
1.73582
11
0.693104
21
1.73347
0
LINE
8
BLACK
6
CONTINUOUS
10
0.693104
20
1.73347
11
0.685039
21
1.73268
0
LINE
8
BLACK
6
CONTINUOUS
10
0.685039
20
1.73268
11
0.676975
21
1.73347
0
LINE
8
BLACK
6
CONTINUOUS
10
0.676975
20
1.73347
11
0.66922
21
1.73582
0
LINE
8
BLACK
6
CONTINUOUS
10
0.66922
20
1.73582
11
0.662073
21
1.73964
0
LINE
8
BLACK
6
CONTINUOUS
10
0.662073
20
1.73964
11
0.655809
21
1.74478
0
LINE
8
BLACK
6
CONTINUOUS
10
0.655809
20
1.74478
11
0.650668
21
1.75105
0
LINE
8
BLACK
6
CONTINUOUS
10
0.650668
20
1.75105
11
0.646847
21
1.7582
0
LINE
8
BLACK
6
CONTINUOUS
10
0.646847
20
1.7582
11
0.644495
21
1.76595
0
LINE
8
BLACK
6
CONTINUOUS
10
0.644495
20
1.76595
11
0.643701
21
1.77402
0
LINE
8
BLACK
6
CONTINUOUS
10
0.643701
20
1.77402
11
0.644495
21
1.78208
0
LINE
8
BLACK
6
CONTINUOUS
10
0.644495
20
1.78208
11
0.646847
21
1.78984
0
LINE
8
BLACK
6
CONTINUOUS
10
0.646847
20
1.78984
11
0.650668
21
1.79698
0
LINE
8
BLACK
6
CONTINUOUS
10
0.650668
20
1.79698
11
0.655809
21
1.80325
0
LINE
8
BLACK
6
CONTINUOUS
10
0.655809
20
1.80325
11
0.662073
21
1.80839
0
LINE
8
BLACK
6
CONTINUOUS
10
0.662073
20
1.80839
11
0.66922
21
1.81221
0
LINE
8
BLACK
6
CONTINUOUS
10
0.66922
20
1.81221
11
0.676975
21
1.81456
0
LINE
8
BLACK
6
CONTINUOUS
10
0.676975
20
1.81456
11
0.685039
21
1.81535
0
LINE
8
BLACK
6
CONTINUOUS
10
0.685039
20
1.81535
11
0.693104
21
1.81456
0
LINE
8
BLACK
6
CONTINUOUS
10
0.414106
20
2.12519
11
0.428034
21
2.12283
0
LINE
8
BLACK
6
CONTINUOUS
10
0.428034
20
2.12283
11
0.44161
21
2.11891
0
LINE
8
BLACK
6
CONTINUOUS
10
0.44161
20
2.11891
11
0.454663
21
2.11351
0
LINE
8
BLACK
6
CONTINUOUS
10
0.454663
20
2.11351
11
0.467028
21
2.10667
0
LINE
8
BLACK
6
CONTINUOUS
10
0.467028
20
2.10667
11
0.47855
21
2.0985
0
LINE
8
BLACK
6
CONTINUOUS
10
0.47855
20
2.0985
11
0.489084
21
2.08908
0
LINE
8
BLACK
6
CONTINUOUS
10
0.489084
20
2.08908
11
0.498498
21
2.07855
0
LINE
8
BLACK
6
CONTINUOUS
10
0.498498
20
2.07855
11
0.506674
21
2.06703
0
LINE
8
BLACK
6
CONTINUOUS
10
0.506674
20
2.06703
11
0.513508
21
2.05466
0
LINE
8
BLACK
6
CONTINUOUS
10
0.513508
20
2.05466
11
0.518914
21
2.04161
0
LINE
8
BLACK
6
CONTINUOUS
10
0.518914
20
2.04161
11
0.522826
21
2.02803
0
LINE
8
BLACK
6
CONTINUOUS
10
0.522826
20
2.02803
11
0.525192
21
2.01411
0
LINE
8
BLACK
6
CONTINUOUS
10
0.525192
20
2.01411
11
0.525984
21
2
0
LINE
8
BLACK
6
CONTINUOUS
10
0.525984
20
2
11
0.525192
21
1.98589
0
LINE
8
BLACK
6
CONTINUOUS
10
0.525192
20
1.98589
11
0.522826
21
1.97197
0
LINE
8
BLACK
6
CONTINUOUS
10
0.522826
20
1.97197
11
0.518914
21
1.95839
0
LINE
8
BLACK
6
CONTINUOUS
10
0.518914
20
1.95839
11
0.513508
21
1.94534
0
LINE
8
BLACK
6
CONTINUOUS
10
0.513508
20
1.94534
11
0.506674
21
1.93297
0
LINE
8
BLACK
6
CONTINUOUS
10
0.506674
20
1.93297
11
0.498498
21
1.92145
0
LINE
8
BLACK
6
CONTINUOUS
10
0.498498
20
1.92145
11
0.489084
21
1.91092
0
LINE
8
BLACK
6
CONTINUOUS
10
0.489084
20
1.91092
11
0.47855
21
1.9015
0
LINE
8
BLACK
6
CONTINUOUS
10
0.47855
20
1.9015
11
0.467028
21
1.89333
0
LINE
8
BLACK
6
CONTINUOUS
10
0.467028
20
1.89333
11
0.454663
21
1.88649
0
LINE
8
BLACK
6
CONTINUOUS
10
0.454663
20
1.88649
11
0.44161
21
1.88109
0
LINE
8
BLACK
6
CONTINUOUS
10
0.44161
20
1.88109
11
0.428034
21
1.87717
0
LINE
8
BLACK
6
CONTINUOUS
10
0.428034
20
1.87717
11
0.414106
21
1.87481
0
LINE
8
BLACK
6
CONTINUOUS
10
0.414106
20
1.87481
11
0.4
21
1.87402
0
LINE
8
BLACK
6
CONTINUOUS
10
0.4
20
1.87402
11
0.385894
21
1.87481
0
LINE
8
BLACK
6
CONTINUOUS
10
0.385894
20
1.87481
11
0.371966
21
1.87717
0
LINE
8
BLACK
6
CONTINUOUS
10
0.371966
20
1.87717
11
0.35839
21
1.88109
0
LINE
8
BLACK
6
CONTINUOUS
10
0.35839
20
1.88109
11
0.345337
21
1.88649
0
LINE
8
BLACK
6
CONTINUOUS
10
0.345337
20
1.88649
11
0.332972
21
1.89333
0
LINE
8
BLACK
6
CONTINUOUS
10
0.332972
20
1.89333
11
0.32145
21
1.9015
0
LINE
8
BLACK
6
CONTINUOUS
10
0.32145
20
1.9015
11
0.310916
21
1.91092
0
LINE
8
BLACK
6
CONTINUOUS
10
0.310916
20
1.91092
11
0.301502
21
1.92145
0
LINE
8
BLACK
6
CONTINUOUS
10
0.301502
20
1.92145
11
0.293326
21
1.93297
0
LINE
8
BLACK
6
CONTINUOUS
10
0.293326
20
1.93297
11
0.286492
21
1.94534
0
LINE
8
BLACK
6
CONTINUOUS
10
0.286492
20
1.94534
11
0.281086
21
1.95839
0
LINE
8
BLACK
6
CONTINUOUS
10
0.281086
20
1.95839
11
0.277174
21
1.97197
0
LINE
8
BLACK
6
CONTINUOUS
10
0.277174
20
1.97197
11
0.274808
21
1.98589
0
LINE
8
BLACK
6
CONTINUOUS
10
0.274808
20
1.98589
11
0.274016
21
2
0
LINE
8
BLACK
6
CONTINUOUS
10
0.274016
20
2
11
0.274808
21
2.01411
0
LINE
8
BLACK
6
CONTINUOUS
10
0.274808
20
2.01411
11
0.277174
21
2.02803
0
LINE
8
BLACK
6
CONTINUOUS
10
0.277174
20
2.02803
11
0.281086
21
2.04161
0
LINE
8
BLACK
6
CONTINUOUS
10
0.281086
20
2.04161
11
0.286492
21
2.05466
0
LINE
8
BLACK
6
CONTINUOUS
10
0.286492
20
2.05466
11
0.293326
21
2.06703
0
LINE
8
BLACK
6
CONTINUOUS
10
0.293326
20
2.06703
11
0.301502
21
2.07855
0
LINE
8
BLACK
6
CONTINUOUS
10
0.301502
20
2.07855
11
0.310916
21
2.08908
0
LINE
8
BLACK
6
CONTINUOUS
10
0.310916
20
2.08908
11
0.32145
21
2.0985
0
LINE
8
BLACK
6
CONTINUOUS
10
0.32145
20
2.0985
11
0.332972
21
2.10667
0
LINE
8
BLACK
6
CONTINUOUS
10
0.332972
20
2.10667
11
0.345337
21
2.11351
0
LINE
8
BLACK
6
CONTINUOUS
10
0.345337
20
2.11351
11
0.35839
21
2.11891
0
LINE
8
BLACK
6
CONTINUOUS
10
0.35839
20
2.11891
11
0.371966
21
2.12283
0
LINE
8
BLACK
6
CONTINUOUS
10
0.371966
20
2.12283
11
0.385894
21
2.12519
0
LINE
8
BLACK
6
CONTINUOUS
10
0.385894
20
2.12519
11
0.4
21
2.12598
0
LINE
8
BLACK
6
CONTINUOUS
10
0.4
20
2.12598
11
0.414106
21
2.12519
0
LINE
8
BLACK
6
CONTINUOUS
10
1.61411
20
2.12519
11
1.62803
21
2.12283
0
LINE
8
BLACK
6
CONTINUOUS
10
1.62803
20
2.12283
11
1.64161
21
2.11891
0
LINE
8
BLACK
6
CONTINUOUS
10
1.64161
20
2.11891
11
1.65466
21
2.11351
0
LINE
8
BLACK
6
CONTINUOUS
10
1.65466
20
2.11351
11
1.66703
21
2.10667
0
LINE
8
BLACK
6
CONTINUOUS
10
1.66703
20
2.10667
11
1.67855
21
2.0985
0
LINE
8
BLACK
6
CONTINUOUS
10
1.67855
20
2.0985
11
1.68908
21
2.08908
0
LINE
8
BLACK
6
CONTINUOUS
10
1.68908
20
2.08908
11
1.6985
21
2.07855
0
LINE
8
BLACK
6
CONTINUOUS
10
1.6985
20
2.07855
11
1.70667
21
2.06703
0
LINE
8
BLACK
6
CONTINUOUS
10
1.70667
20
2.06703
11
1.71351
21
2.05466
0
LINE
8
BLACK
6
CONTINUOUS
10
1.71351
20
2.05466
11
1.71891
21
2.04161
0
LINE
8
BLACK
6
CONTINUOUS
10
1.71891
20
2.04161
11
1.72283
21
2.02803
0
LINE
8
BLACK
6
CONTINUOUS
10
1.72283
20
2.02803
11
1.72519
21
2.01411
0
LINE
8
BLACK
6
CONTINUOUS
10
1.72519
20
2.01411
11
1.72598
21
2
0
LINE
8
BLACK
6
CONTINUOUS
10
1.72598
20
2
11
1.72519
21
1.98589
0
LINE
8
BLACK
6
CONTINUOUS
10
1.72519
20
1.98589
11
1.72283
21
1.97197
0
LINE
8
BLACK
6
CONTINUOUS
10
1.72283
20
1.97197
11
1.71891
21
1.95839
0
LINE
8
BLACK
6
CONTINUOUS
10
1.71891
20
1.95839
11
1.71351
21
1.94534
0
LINE
8
BLACK
6
CONTINUOUS
10
1.71351
20
1.94534
11
1.70667
21
1.93297
0
LINE
8
BLACK
6
CONTINUOUS
10
1.70667
20
1.93297
11
1.6985
21
1.92145
0
LINE
8
BLACK
6
CONTINUOUS
10
1.6985
20
1.92145
11
1.68908
21
1.91092
0
LINE
8
BLACK
6
CONTINUOUS
10
1.68908
20
1.91092
11
1.67855
21
1.9015
0
LINE
8
BLACK
6
CONTINUOUS
10
1.67855
20
1.9015
11
1.66703
21
1.89333
0
LINE
8
BLACK
6
CONTINUOUS
10
1.66703
20
1.89333
11
1.65466
21
1.88649
0
LINE
8
BLACK
6
CONTINUOUS
10
1.65466
20
1.88649
11
1.64161
21
1.88109
0
LINE
8
BLACK
6
CONTINUOUS
10
1.64161
20
1.88109
11
1.62803
21
1.87717
0
LINE
8
BLACK
6
CONTINUOUS
10
1.62803
20
1.87717
11
1.61411
21
1.87481
0
LINE
8
BLACK
6
CONTINUOUS
10
1.61411
20
1.87481
11
1.6
21
1.87402
0
LINE
8
BLACK
6
CONTINUOUS
10
1.6
20
1.87402
11
1.58589
21
1.87481
0
LINE
8
BLACK
6
CONTINUOUS
10
1.58589
20
1.87481
11
1.57197
21
1.87717
0
LINE
8
BLACK
6
CONTINUOUS
10
1.57197
20
1.87717
11
1.55839
21
1.88109
0
LINE
8
BLACK
6
CONTINUOUS
10
1.55839
20
1.88109
11
1.54534
21
1.88649
0
LINE
8
BLACK
6
CONTINUOUS
10
1.54534
20
1.88649
11
1.53297
21
1.89333
0
LINE
8
BLACK
6
CONTINUOUS
10
1.53297
20
1.89333
11
1.52145
21
1.9015
0
LINE
8
BLACK
6
CONTINUOUS
10
1.52145
20
1.9015
11
1.51092
21
1.91092
0
LINE
8
BLACK
6
CONTINUOUS
10
1.51092
20
1.91092
11
1.5015
21
1.92145
0
LINE
8
BLACK
6
CONTINUOUS
10
1.5015
20
1.92145
11
1.49333
21
1.93297
0
LINE
8
BLACK
6
CONTINUOUS
10
1.49333
20
1.93297
11
1.48649
21
1.94534
0
LINE
8
BLACK
6
CONTINUOUS
10
1.48649
20
1.94534
11
1.48109
21
1.95839
0
LINE
8
BLACK
6
CONTINUOUS
10
1.48109
20
1.95839
11
1.47717
21
1.97197
0
LINE
8
BLACK
6
CONTINUOUS
10
1.47717
20
1.97197
11
1.47481
21
1.98589
0
LINE
8
BLACK
6
CONTINUOUS
10
1.47481
20
1.98589
11
1.47402
21
2
0
LINE
8
BLACK
6
CONTINUOUS
10
1.47402
20
2
11
1.47481
21
2.01411
0
LINE
8
BLACK
6
CONTINUOUS
10
1.47481
20
2.01411
11
1.47717
21
2.02803
0
LINE
8
BLACK
6
CONTINUOUS
10
1.47717
20
2.02803
11
1.48109
21
2.04161
0
LINE
8
BLACK
6
CONTINUOUS
10
1.48109
20
2.04161
11
1.48649
21
2.05466
0
LINE
8
BLACK
6
CONTINUOUS
10
1.48649
20
2.05466
11
1.49333
21
2.06703
0
LINE
8
BLACK
6
CONTINUOUS
10
1.49333
20
2.06703
11
1.5015
21
2.07855
0
LINE
8
BLACK
6
CONTINUOUS
10
1.5015
20
2.07855
11
1.51092
21
2.08908
0
LINE
8
BLACK
6
CONTINUOUS
10
1.51092
20
2.08908
11
1.52145
21
2.0985
0
LINE
8
BLACK
6
CONTINUOUS
10
1.52145
20
2.0985
11
1.53297
21
2.10667
0
LINE
8
BLACK
6
CONTINUOUS
10
1.53297
20
2.10667
11
1.54534
21
2.11351
0
LINE
8
BLACK
6
CONTINUOUS
10
1.54534
20
2.11351
11
1.55839
21
2.11891
0
LINE
8
BLACK
6
CONTINUOUS
10
1.55839
20
2.11891
11
1.57197
21
2.12283
0
LINE
8
BLACK
6
CONTINUOUS
10
1.57197
20
2.12283
11
1.58589
21
2.12519
0
LINE
8
BLACK
6
CONTINUOUS
10
1.58589
20
2.12519
11
1.6
21
2.12598
0
LINE
8
BLACK
6
CONTINUOUS
10
1.6
20
2.12598
11
1.61411
21
2.12519
0
LINE
8
BLACK
6
CONTINUOUS
10
0.807868
20
2.00275
11
0.815623
21
2.0004
0
LINE
8
BLACK
6
CONTINUOUS
10
0.815623
20
2.0004
11
0.82277
21
1.99658
0
LINE
8
BLACK
6
CONTINUOUS
10
0.82277
20
1.99658
11
0.829034
21
1.99144
0
LINE
8
BLACK
6
CONTINUOUS
10
0.829034
20
1.99144
11
0.834175
21
1.98517
0
LINE
8
BLACK
6
CONTINUOUS
10
0.834175
20
1.98517
11
0.837995
21
1.97802
0
LINE
8
BLACK
6
CONTINUOUS
10
0.837995
20
1.97802
11
0.840347
21
1.97027
0
LINE
8
BLACK
6
CONTINUOUS
10
0.840347
20
1.97027
11
0.841142
21
1.9622
0
LINE
8
BLACK
6
CONTINUOUS
10
0.841142
20
1.9622
11
0.840347
21
1.95414
0
LINE
8
BLACK
6
CONTINUOUS
10
0.840347
20
1.95414
11
0.837995
21
1.94639
0
LINE
8
BLACK
6
CONTINUOUS
10
0.837995
20
1.94639
11
0.834175
21
1.93924
0
LINE
8
BLACK
6
CONTINUOUS
10
0.834175
20
1.93924
11
0.829034
21
1.93297
0
LINE
8
BLACK
6
CONTINUOUS
10
0.829034
20
1.93297
11
0.82277
21
1.92783
0
LINE
8
BLACK
6
CONTINUOUS
10
0.82277
20
1.92783
11
0.815623
21
1.92401
0
LINE
8
BLACK
6
CONTINUOUS
10
0.815623
20
1.92401
11
0.807868
21
1.92166
0
LINE
8
BLACK
6
CONTINUOUS
10
0.807868
20
1.92166
11
0.799803
21
1.92087
0
LINE
8
BLACK
6
CONTINUOUS
10
0.799803
20
1.92087
11
0.791738
21
1.92166
0
LINE
8
BLACK
6
CONTINUOUS
10
0.791738
20
1.92166
11
0.783984
21
1.92401
0
LINE
8
BLACK
6
CONTINUOUS
10
0.783984
20
1.92401
11
0.776837
21
1.92783
0
LINE
8
BLACK
6
CONTINUOUS
10
0.776837
20
1.92783
11
0.770572
21
1.93297
0
LINE
8
BLACK
6
CONTINUOUS
10
0.770572
20
1.93297
11
0.765431
21
1.93924
0
LINE
8
BLACK
6
CONTINUOUS
10
0.765431
20
1.93924
11
0.761611
21
1.94639
0
LINE
8
BLACK
6
CONTINUOUS
10
0.761611
20
1.94639
11
0.759259
21
1.95414
0
LINE
8
BLACK
6
CONTINUOUS
10
0.759259
20
1.95414
11
0.758465
21
1.9622
0
LINE
8
BLACK
6
CONTINUOUS
10
0.758465
20
1.9622
11
0.759259
21
1.97027
0
LINE
8
BLACK
6
CONTINUOUS
10
0.759259
20
1.97027
11
0.761611
21
1.97802
0
LINE
8
BLACK
6
CONTINUOUS
10
0.761611
20
1.97802
11
0.765431
21
1.98517
0
LINE
8
BLACK
6
CONTINUOUS
10
0.765431
20
1.98517
11
0.770572
21
1.99144
0
LINE
8
BLACK
6
CONTINUOUS
10
0.770572
20
1.99144
11
0.776837
21
1.99658
0
LINE
8
BLACK
6
CONTINUOUS
10
0.776837
20
1.99658
11
0.783984
21
2.0004
0
LINE
8
BLACK
6
CONTINUOUS
10
0.783984
20
2.0004
11
0.791738
21
2.00275
0
LINE
8
BLACK
6
CONTINUOUS
10
0.791738
20
2.00275
11
0.799803
21
2.00354
0
LINE
8
BLACK
6
CONTINUOUS
10
0.799803
20
2.00354
11
0.807868
21
2.00275
0
LINE
8
BLACK
6
CONTINUOUS
10
0.907868
20
2.00275
11
0.915623
21
2.0004
0
LINE
8
BLACK
6
CONTINUOUS
10
0.915623
20
2.0004
11
0.92277
21
1.99658
0
LINE
8
BLACK
6
CONTINUOUS
10
0.92277
20
1.99658
11
0.929034
21
1.99144
0
LINE
8
BLACK
6
CONTINUOUS
10
0.929034
20
1.99144
11
0.934175
21
1.98517
0
LINE
8
BLACK
6
CONTINUOUS
10
0.934175
20
1.98517
11
0.937995
21
1.97802
0
LINE
8
BLACK
6
CONTINUOUS
10
0.937995
20
1.97802
11
0.940347
21
1.97027
0
LINE
8
BLACK
6
CONTINUOUS
10
0.940347
20
1.97027
11
0.941142
21
1.9622
0
LINE
8
BLACK
6
CONTINUOUS
10
0.941142
20
1.9622
11
0.940347
21
1.95414
0
LINE
8
BLACK
6
CONTINUOUS
10
0.940347
20
1.95414
11
0.937995
21
1.94639
0
LINE
8
BLACK
6
CONTINUOUS
10
0.937995
20
1.94639
11
0.934175
21
1.93924
0
LINE
8
BLACK
6
CONTINUOUS
10
0.934175
20
1.93924
11
0.929034
21
1.93297
0
LINE
8
BLACK
6
CONTINUOUS
10
0.929034
20
1.93297
11
0.92277
21
1.92783
0
LINE
8
BLACK
6
CONTINUOUS
10
0.92277
20
1.92783
11
0.915623
21
1.92401
0
LINE
8
BLACK
6
CONTINUOUS
10
0.915623
20
1.92401
11
0.907868
21
1.92166
0
LINE
8
BLACK
6
CONTINUOUS
10
0.907868
20
1.92166
11
0.899803
21
1.92087
0
LINE
8
BLACK
6
CONTINUOUS
10
0.899803
20
1.92087
11
0.891738
21
1.92166
0
LINE
8
BLACK
6
CONTINUOUS
10
0.891738
20
1.92166
11
0.883984
21
1.92401
0
LINE
8
BLACK
6
CONTINUOUS
10
0.883984
20
1.92401
11
0.876837
21
1.92783
0
LINE
8
BLACK
6
CONTINUOUS
10
0.876837
20
1.92783
11
0.870572
21
1.93297
0
LINE
8
BLACK
6
CONTINUOUS
10
0.870572
20
1.93297
11
0.865431
21
1.93924
0
LINE
8
BLACK
6
CONTINUOUS
10
0.865431
20
1.93924
11
0.861611
21
1.94639
0
LINE
8
BLACK
6
CONTINUOUS
10
0.861611
20
1.94639
11
0.859259
21
1.95414
0
LINE
8
BLACK
6
CONTINUOUS
10
0.859259
20
1.95414
11
0.858465
21
1.9622
0
LINE
8
BLACK
6
CONTINUOUS
10
0.858465
20
1.9622
11
0.859259
21
1.97027
0
LINE
8
BLACK
6
CONTINUOUS
10
0.859259
20
1.97027
11
0.861611
21
1.97802
0
LINE
8
BLACK
6
CONTINUOUS
10
0.861611
20
1.97802
11
0.865431
21
1.98517
0
LINE
8
BLACK
6
CONTINUOUS
10
0.865431
20
1.98517
11
0.870572
21
1.99144
0
LINE
8
BLACK
6
CONTINUOUS
10
0.870572
20
1.99144
11
0.876837
21
1.99658
0
LINE
8
BLACK
6
CONTINUOUS
10
0.876837
20
1.99658
11
0.883984
21
2.0004
0
LINE
8
BLACK
6
CONTINUOUS
10
0.883984
20
2.0004
11
0.891738
21
2.00275
0
LINE
8
BLACK
6
CONTINUOUS
10
0.891738
20
2.00275
11
0.899803
21
2.00354
0
LINE
8
BLACK
6
CONTINUOUS
10
0.899803
20
2.00354
11
0.907868
21
2.00275
0
LINE
8
BLACK
6
CONTINUOUS
10
1.00787
20
2.00275
11
1.01562
21
2.0004
0
LINE
8
BLACK
6
CONTINUOUS
10
1.01562
20
2.0004
11
1.02277
21
1.99658
0
LINE
8
BLACK
6
CONTINUOUS
10
1.02277
20
1.99658
11
1.02903
21
1.99144
0
LINE
8
BLACK
6
CONTINUOUS
10
1.02903
20
1.99144
11
1.03417
21
1.98517
0
LINE
8
BLACK
6
CONTINUOUS
10
1.03417
20
1.98517
11
1.038
21
1.97802
0
LINE
8
BLACK
6
CONTINUOUS
10
1.038
20
1.97802
11
1.04035
21
1.97027
0
LINE
8
BLACK
6
CONTINUOUS
10
1.04035
20
1.97027
11
1.04114
21
1.9622
0
LINE
8
BLACK
6
CONTINUOUS
10
1.04114
20
1.9622
11
1.04035
21
1.95414
0
LINE
8
BLACK
6
CONTINUOUS
10
1.04035
20
1.95414
11
1.038
21
1.94639
0
LINE
8
BLACK
6
CONTINUOUS
10
1.038
20
1.94639
11
1.03417
21
1.93924
0
LINE
8
BLACK
6
CONTINUOUS
10
1.03417
20
1.93924
11
1.02903
21
1.93297
0
LINE
8
BLACK
6
CONTINUOUS
10
1.02903
20
1.93297
11
1.02277
21
1.92783
0
LINE
8
BLACK
6
CONTINUOUS
10
1.02277
20
1.92783
11
1.01562
21
1.92401
0
LINE
8
BLACK
6
CONTINUOUS
10
1.01562
20
1.92401
11
1.00787
21
1.92166
0
LINE
8
BLACK
6
CONTINUOUS
10
1.00787
20
1.92166
11
0.999803
21
1.92087
0
LINE
8
BLACK
6
CONTINUOUS
10
0.999803
20
1.92087
11
0.991738
21
1.92166
0
LINE
8
BLACK
6
CONTINUOUS
10
0.991738
20
1.92166
11
0.983984
21
1.92401
0
LINE
8
BLACK
6
CONTINUOUS
10
0.983984
20
1.92401
11
0.976837
21
1.92783
0
LINE
8
BLACK
6
CONTINUOUS
10
0.976837
20
1.92783
11
0.970572
21
1.93297
0
LINE
8
BLACK
6
CONTINUOUS
10
0.970572
20
1.93297
11
0.965431
21
1.93924
0
LINE
8
BLACK
6
CONTINUOUS
10
0.965431
20
1.93924
11
0.961611
21
1.94639
0
LINE
8
BLACK
6
CONTINUOUS
10
0.961611
20
1.94639
11
0.959259
21
1.95414
0
LINE
8
BLACK
6
CONTINUOUS
10
0.959259
20
1.95414
11
0.958465
21
1.9622
0
LINE
8
BLACK
6
CONTINUOUS
10
0.958465
20
1.9622
11
0.959259
21
1.97027
0
LINE
8
BLACK
6
CONTINUOUS
10
0.959259
20
1.97027
11
0.961611
21
1.97802
0
LINE
8
BLACK
6
CONTINUOUS
10
0.961611
20
1.97802
11
0.965431
21
1.98517
0
LINE
8
BLACK
6
CONTINUOUS
10
0.965431
20
1.98517
11
0.970572
21
1.99144
0
LINE
8
BLACK
6
CONTINUOUS
10
0.970572
20
1.99144
11
0.976837
21
1.99658
0
LINE
8
BLACK
6
CONTINUOUS
10
0.976837
20
1.99658
11
0.983984
21
2.0004
0
LINE
8
BLACK
6
CONTINUOUS
10
0.983984
20
2.0004
11
0.991738
21
2.00275
0
LINE
8
BLACK
6
CONTINUOUS
10
0.991738
20
2.00275
11
0.999803
21
2.00354
0
LINE
8
BLACK
6
CONTINUOUS
10
0.999803
20
2.00354
11
1.00787
21
2.00275
0
LINE
8
BLACK
6
CONTINUOUS
10
1.10787
20
2.00275
11
1.11562
21
2.0004
0
LINE
8
BLACK
6
CONTINUOUS
10
1.11562
20
2.0004
11
1.12277
21
1.99658
0
LINE
8
BLACK
6
CONTINUOUS
10
1.12277
20
1.99658
11
1.12903
21
1.99144
0
LINE
8
BLACK
6
CONTINUOUS
10
1.12903
20
1.99144
11
1.13417
21
1.98517
0
LINE
8
BLACK
6
CONTINUOUS
10
1.13417
20
1.98517
11
1.138
21
1.97802
0
LINE
8
BLACK
6
CONTINUOUS
10
1.138
20
1.97802
11
1.14035
21
1.97027
0
LINE
8
BLACK
6
CONTINUOUS
10
1.14035
20
1.97027
11
1.14114
21
1.9622
0
LINE
8
BLACK
6
CONTINUOUS
10
1.14114
20
1.9622
11
1.14035
21
1.95414
0
LINE
8
BLACK
6
CONTINUOUS
10
1.14035
20
1.95414
11
1.138
21
1.94639
0
LINE
8
BLACK
6
CONTINUOUS
10
1.138
20
1.94639
11
1.13417
21
1.93924
0
LINE
8
BLACK
6
CONTINUOUS
10
1.13417
20
1.93924
11
1.12903
21
1.93297
0
LINE
8
BLACK
6
CONTINUOUS
10
1.12903
20
1.93297
11
1.12277
21
1.92783
0
LINE
8
BLACK
6
CONTINUOUS
10
1.12277
20
1.92783
11
1.11562
21
1.92401
0
LINE
8
BLACK
6
CONTINUOUS
10
1.11562
20
1.92401
11
1.10787
21
1.92166
0
LINE
8
BLACK
6
CONTINUOUS
10
1.10787
20
1.92166
11
1.0998
21
1.92087
0
LINE
8
BLACK
6
CONTINUOUS
10
1.0998
20
1.92087
11
1.09174
21
1.92166
0
LINE
8
BLACK
6
CONTINUOUS
10
1.09174
20
1.92166
11
1.08398
21
1.92401
0
LINE
8
BLACK
6
CONTINUOUS
10
1.08398
20
1.92401
11
1.07684
21
1.92783
0
LINE
8
BLACK
6
CONTINUOUS
10
1.07684
20
1.92783
11
1.07057
21
1.93297
0
LINE
8
BLACK
6
CONTINUOUS
10
1.07057
20
1.93297
11
1.06543
21
1.93924
0
LINE
8
BLACK
6
CONTINUOUS
10
1.06543
20
1.93924
11
1.06161
21
1.94639
0
LINE
8
BLACK
6
CONTINUOUS
10
1.06161
20
1.94639
11
1.05926
21
1.95414
0
LINE
8
BLACK
6
CONTINUOUS
10
1.05926
20
1.95414
11
1.05846
21
1.9622
0
LINE
8
BLACK
6
CONTINUOUS
10
1.05846
20
1.9622
11
1.05926
21
1.97027
0
LINE
8
BLACK
6
CONTINUOUS
10
1.05926
20
1.97027
11
1.06161
21
1.97802
0
LINE
8
BLACK
6
CONTINUOUS
10
1.06161
20
1.97802
11
1.06543
21
1.98517
0
LINE
8
BLACK
6
CONTINUOUS
10
1.06543
20
1.98517
11
1.07057
21
1.99144
0
LINE
8
BLACK
6
CONTINUOUS
10
1.07057
20
1.99144
11
1.07684
21
1.99658
0
LINE
8
BLACK
6
CONTINUOUS
10
1.07684
20
1.99658
11
1.08398
21
2.0004
0
LINE
8
BLACK
6
CONTINUOUS
10
1.08398
20
2.0004
11
1.09174
21
2.00275
0
LINE
8
BLACK
6
CONTINUOUS
10
1.09174
20
2.00275
11
1.0998
21
2.00354
0
LINE
8
BLACK
6
CONTINUOUS
10
1.0998
20
2.00354
11
1.10787
21
2.00275
0
LINE
8
BLACK
6
CONTINUOUS
10
1.20787
20
2.00275
11
1.21562
21
2.0004
0
LINE
8
BLACK
6
CONTINUOUS
10
1.21562
20
2.0004
11
1.22277
21
1.99658
0
LINE
8
BLACK
6
CONTINUOUS
10
1.22277
20
1.99658
11
1.22903
21
1.99144
0
LINE
8
BLACK
6
CONTINUOUS
10
1.22903
20
1.99144
11
1.23417
21
1.98517
0
LINE
8
BLACK
6
CONTINUOUS
10
1.23417
20
1.98517
11
1.238
21
1.97802
0
LINE
8
BLACK
6
CONTINUOUS
10
1.238
20
1.97802
11
1.24035
21
1.97027
0
LINE
8
BLACK
6
CONTINUOUS
10
1.24035
20
1.97027
11
1.24114
21
1.9622
0
LINE
8
BLACK
6
CONTINUOUS
10
1.24114
20
1.9622
11
1.24035
21
1.95414
0
LINE
8
BLACK
6
CONTINUOUS
10
1.24035
20
1.95414
11
1.238
21
1.94639
0
LINE
8
BLACK
6
CONTINUOUS
10
1.238
20
1.94639
11
1.23417
21
1.93924
0
LINE
8
BLACK
6
CONTINUOUS
10
1.23417
20
1.93924
11
1.22903
21
1.93297
0
LINE
8
BLACK
6
CONTINUOUS
10
1.22903
20
1.93297
11
1.22277
21
1.92783
0
LINE
8
BLACK
6
CONTINUOUS
10
1.22277
20
1.92783
11
1.21562
21
1.92401
0
LINE
8
BLACK
6
CONTINUOUS
10
1.21562
20
1.92401
11
1.20787
21
1.92166
0
LINE
8
BLACK
6
CONTINUOUS
10
1.20787
20
1.92166
11
1.1998
21
1.92087
0
LINE
8
BLACK
6
CONTINUOUS
10
1.1998
20
1.92087
11
1.19174
21
1.92166
0
LINE
8
BLACK
6
CONTINUOUS
10
1.19174
20
1.92166
11
1.18398
21
1.92401
0
LINE
8
BLACK
6
CONTINUOUS
10
1.18398
20
1.92401
11
1.17684
21
1.92783
0
LINE
8
BLACK
6
CONTINUOUS
10
1.17684
20
1.92783
11
1.17057
21
1.93297
0
LINE
8
BLACK
6
CONTINUOUS
10
1.17057
20
1.93297
11
1.16543
21
1.93924
0
LINE
8
BLACK
6
CONTINUOUS
10
1.16543
20
1.93924
11
1.16161
21
1.94639
0
LINE
8
BLACK
6
CONTINUOUS
10
1.16161
20
1.94639
11
1.15926
21
1.95414
0
LINE
8
BLACK
6
CONTINUOUS
10
1.15926
20
1.95414
11
1.15846
21
1.9622
0
LINE
8
BLACK
6
CONTINUOUS
10
1.15846
20
1.9622
11
1.15926
21
1.97027
0
LINE
8
BLACK
6
CONTINUOUS
10
1.15926
20
1.97027
11
1.16161
21
1.97802
0
LINE
8
BLACK
6
CONTINUOUS
10
1.16161
20
1.97802
11
1.16543
21
1.98517
0
LINE
8
BLACK
6
CONTINUOUS
10
1.16543
20
1.98517
11
1.17057
21
1.99144
0
LINE
8
BLACK
6
CONTINUOUS
10
1.17057
20
1.99144
11
1.17684
21
1.99658
0
LINE
8
BLACK
6
CONTINUOUS
10
1.17684
20
1.99658
11
1.18398
21
2.0004
0
LINE
8
BLACK
6
CONTINUOUS
10
1.18398
20
2.0004
11
1.19174
21
2.00275
0
LINE
8
BLACK
6
CONTINUOUS
10
1.19174
20
2.00275
11
1.1998
21
2.00354
0
LINE
8
BLACK
6
CONTINUOUS
10
1.1998
20
2.00354
11
1.20787
21
2.00275
0
LINE
8
BLACK
6
CONTINUOUS
10
0.807868
20
2.10275
11
0.815623
21
2.1004
0
LINE
8
BLACK
6
CONTINUOUS
10
0.815623
20
2.1004
11
0.82277
21
2.09658
0
LINE
8
BLACK
6
CONTINUOUS
10
0.82277
20
2.09658
11
0.829034
21
2.09144
0
LINE
8
BLACK
6
CONTINUOUS
10
0.829034
20
2.09144
11
0.834175
21
2.08517
0
LINE
8
BLACK
6
CONTINUOUS
10
0.834175
20
2.08517
11
0.837995
21
2.07802
0
LINE
8
BLACK
6
CONTINUOUS
10
0.837995
20
2.07802
11
0.840347
21
2.07027
0
LINE
8
BLACK
6
CONTINUOUS
10
0.840347
20
2.07027
11
0.841142
21
2.0622
0
LINE
8
BLACK
6
CONTINUOUS
10
0.841142
20
2.0622
11
0.840347
21
2.05414
0
LINE
8
BLACK
6
CONTINUOUS
10
0.840347
20
2.05414
11
0.837995
21
2.04639
0
LINE
8
BLACK
6
CONTINUOUS
10
0.837995
20
2.04639
11
0.834175
21
2.03924
0
LINE
8
BLACK
6
CONTINUOUS
10
0.834175
20
2.03924
11
0.829034
21
2.03297
0
LINE
8
BLACK
6
CONTINUOUS
10
0.829034
20
2.03297
11
0.82277
21
2.02783
0
LINE
8
BLACK
6
CONTINUOUS
10
0.82277
20
2.02783
11
0.815623
21
2.02401
0
LINE
8
BLACK
6
CONTINUOUS
10
0.815623
20
2.02401
11
0.807868
21
2.02166
0
LINE
8
BLACK
6
CONTINUOUS
10
0.807868
20
2.02166
11
0.799803
21
2.02087
0
LINE
8
BLACK
6
CONTINUOUS
10
0.799803
20
2.02087
11
0.791738
21
2.02166
0
LINE
8
BLACK
6
CONTINUOUS
10
0.791738
20
2.02166
11
0.783984
21
2.02401
0
LINE
8
BLACK
6
CONTINUOUS
10
0.783984
20
2.02401
11
0.776837
21
2.02783
0
LINE
8
BLACK
6
CONTINUOUS
10
0.776837
20
2.02783
11
0.770572
21
2.03297
0
LINE
8
BLACK
6
CONTINUOUS
10
0.770572
20
2.03297
11
0.765431
21
2.03924
0
LINE
8
BLACK
6
CONTINUOUS
10
0.765431
20
2.03924
11
0.761611
21
2.04639
0
LINE
8
BLACK
6
CONTINUOUS
10
0.761611
20
2.04639
11
0.759259
21
2.05414
0
LINE
8
BLACK
6
CONTINUOUS
10
0.759259
20
2.05414
11
0.758465
21
2.0622
0
LINE
8
BLACK
6
CONTINUOUS
10
0.758465
20
2.0622
11
0.759259
21
2.07027
0
LINE
8
BLACK
6
CONTINUOUS
10
0.759259
20
2.07027
11
0.761611
21
2.07802
0
LINE
8
BLACK
6
CONTINUOUS
10
0.761611
20
2.07802
11
0.765431
21
2.08517
0
LINE
8
BLACK
6
CONTINUOUS
10
0.765431
20
2.08517
11
0.770572
21
2.09144
0
LINE
8
BLACK
6
CONTINUOUS
10
0.770572
20
2.09144
11
0.776837
21
2.09658
0
LINE
8
BLACK
6
CONTINUOUS
10
0.776837
20
2.09658
11
0.783984
21
2.1004
0
LINE
8
BLACK
6
CONTINUOUS
10
0.783984
20
2.1004
11
0.791738
21
2.10275
0
LINE
8
BLACK
6
CONTINUOUS
10
0.791738
20
2.10275
11
0.799803
21
2.10354
0
LINE
8
BLACK
6
CONTINUOUS
10
0.799803
20
2.10354
11
0.807868
21
2.10275
0
LINE
8
BLACK
6
CONTINUOUS
10
0.907868
20
2.10275
11
0.915623
21
2.1004
0
LINE
8
BLACK
6
CONTINUOUS
10
0.915623
20
2.1004
11
0.92277
21
2.09658
0
LINE
8
BLACK
6
CONTINUOUS
10
0.92277
20
2.09658
11
0.929034
21
2.09144
0
LINE
8
BLACK
6
CONTINUOUS
10
0.929034
20
2.09144
11
0.934175
21
2.08517
0
LINE
8
BLACK
6
CONTINUOUS
10
0.934175
20
2.08517
11
0.937995
21
2.07802
0
LINE
8
BLACK
6
CONTINUOUS
10
0.937995
20
2.07802
11
0.940347
21
2.07027
0
LINE
8
BLACK
6
CONTINUOUS
10
0.940347
20
2.07027
11
0.941142
21
2.0622
0
LINE
8
BLACK
6
CONTINUOUS
10
0.941142
20
2.0622
11
0.940347
21
2.05414
0
LINE
8
BLACK
6
CONTINUOUS
10
0.940347
20
2.05414
11
0.937995
21
2.04639
0
LINE
8
BLACK
6
CONTINUOUS
10
0.937995
20
2.04639
11
0.934175
21
2.03924
0
LINE
8
BLACK
6
CONTINUOUS
10
0.934175
20
2.03924
11
0.929034
21
2.03297
0
LINE
8
BLACK
6
CONTINUOUS
10
0.929034
20
2.03297
11
0.92277
21
2.02783
0
LINE
8
BLACK
6
CONTINUOUS
10
0.92277
20
2.02783
11
0.915623
21
2.02401
0
LINE
8
BLACK
6
CONTINUOUS
10
0.915623
20
2.02401
11
0.907868
21
2.02166
0
LINE
8
BLACK
6
CONTINUOUS
10
0.907868
20
2.02166
11
0.899803
21
2.02087
0
LINE
8
BLACK
6
CONTINUOUS
10
0.899803
20
2.02087
11
0.891738
21
2.02166
0
LINE
8
BLACK
6
CONTINUOUS
10
0.891738
20
2.02166
11
0.883984
21
2.02401
0
LINE
8
BLACK
6
CONTINUOUS
10
0.883984
20
2.02401
11
0.876837
21
2.02783
0
LINE
8
BLACK
6
CONTINUOUS
10
0.876837
20
2.02783
11
0.870572
21
2.03297
0
LINE
8
BLACK
6
CONTINUOUS
10
0.870572
20
2.03297
11
0.865431
21
2.03924
0
LINE
8
BLACK
6
CONTINUOUS
10
0.865431
20
2.03924
11
0.861611
21
2.04639
0
LINE
8
BLACK
6
CONTINUOUS
10
0.861611
20
2.04639
11
0.859259
21
2.05414
0
LINE
8
BLACK
6
CONTINUOUS
10
0.859259
20
2.05414
11
0.858465
21
2.0622
0
LINE
8
BLACK
6
CONTINUOUS
10
0.858465
20
2.0622
11
0.859259
21
2.07027
0
LINE
8
BLACK
6
CONTINUOUS
10
0.859259
20
2.07027
11
0.861611
21
2.07802
0
LINE
8
BLACK
6
CONTINUOUS
10
0.861611
20
2.07802
11
0.865431
21
2.08517
0
LINE
8
BLACK
6
CONTINUOUS
10
0.865431
20
2.08517
11
0.870572
21
2.09144
0
LINE
8
BLACK
6
CONTINUOUS
10
0.870572
20
2.09144
11
0.876837
21
2.09658
0
LINE
8
BLACK
6
CONTINUOUS
10
0.876837
20
2.09658
11
0.883984
21
2.1004
0
LINE
8
BLACK
6
CONTINUOUS
10
0.883984
20
2.1004
11
0.891738
21
2.10275
0
LINE
8
BLACK
6
CONTINUOUS
10
0.891738
20
2.10275
11
0.899803
21
2.10354
0
LINE
8
BLACK
6
CONTINUOUS
10
0.899803
20
2.10354
11
0.907868
21
2.10275
0
LINE
8
BLACK
6
CONTINUOUS
10
1.00787
20
2.10275
11
1.01562
21
2.1004
0
LINE
8
BLACK
6
CONTINUOUS
10
1.01562
20
2.1004
11
1.02277
21
2.09658
0
LINE
8
BLACK
6
CONTINUOUS
10
1.02277
20
2.09658
11
1.02903
21
2.09144
0
LINE
8
BLACK
6
CONTINUOUS
10
1.02903
20
2.09144
11
1.03417
21
2.08517
0
LINE
8
BLACK
6
CONTINUOUS
10
1.03417
20
2.08517
11
1.038
21
2.07802
0
LINE
8
BLACK
6
CONTINUOUS
10
1.038
20
2.07802
11
1.04035
21
2.07027
0
LINE
8
BLACK
6
CONTINUOUS
10
1.04035
20
2.07027
11
1.04114
21
2.0622
0
LINE
8
BLACK
6
CONTINUOUS
10
1.04114
20
2.0622
11
1.04035
21
2.05414
0
LINE
8
BLACK
6
CONTINUOUS
10
1.04035
20
2.05414
11
1.038
21
2.04639
0
LINE
8
BLACK
6
CONTINUOUS
10
1.038
20
2.04639
11
1.03417
21
2.03924
0
LINE
8
BLACK
6
CONTINUOUS
10
1.03417
20
2.03924
11
1.02903
21
2.03297
0
LINE
8
BLACK
6
CONTINUOUS
10
1.02903
20
2.03297
11
1.02277
21
2.02783
0
LINE
8
BLACK
6
CONTINUOUS
10
1.02277
20
2.02783
11
1.01562
21
2.02401
0
LINE
8
BLACK
6
CONTINUOUS
10
1.01562
20
2.02401
11
1.00787
21
2.02166
0
LINE
8
BLACK
6
CONTINUOUS
10
1.00787
20
2.02166
11
0.999803
21
2.02087
0
LINE
8
BLACK
6
CONTINUOUS
10
0.999803
20
2.02087
11
0.991738
21
2.02166
0
LINE
8
BLACK
6
CONTINUOUS
10
0.991738
20
2.02166
11
0.983984
21
2.02401
0
LINE
8
BLACK
6
CONTINUOUS
10
0.983984
20
2.02401
11
0.976837
21
2.02783
0
LINE
8
BLACK
6
CONTINUOUS
10
0.976837
20
2.02783
11
0.970572
21
2.03297
0
LINE
8
BLACK
6
CONTINUOUS
10
0.970572
20
2.03297
11
0.965431
21
2.03924
0
LINE
8
BLACK
6
CONTINUOUS
10
0.965431
20
2.03924
11
0.961611
21
2.04639
0
LINE
8
BLACK
6
CONTINUOUS
10
0.961611
20
2.04639
11
0.959259
21
2.05414
0
LINE
8
BLACK
6
CONTINUOUS
10
0.959259
20
2.05414
11
0.958465
21
2.0622
0
LINE
8
BLACK
6
CONTINUOUS
10
0.958465
20
2.0622
11
0.959259
21
2.07027
0
LINE
8
BLACK
6
CONTINUOUS
10
0.959259
20
2.07027
11
0.961611
21
2.07802
0
LINE
8
BLACK
6
CONTINUOUS
10
0.961611
20
2.07802
11
0.965431
21
2.08517
0
LINE
8
BLACK
6
CONTINUOUS
10
0.965431
20
2.08517
11
0.970572
21
2.09144
0
LINE
8
BLACK
6
CONTINUOUS
10
0.970572
20
2.09144
11
0.976837
21
2.09658
0
LINE
8
BLACK
6
CONTINUOUS
10
0.976837
20
2.09658
11
0.983984
21
2.1004
0
LINE
8
BLACK
6
CONTINUOUS
10
0.983984
20
2.1004
11
0.991738
21
2.10275
0
LINE
8
BLACK
6
CONTINUOUS
10
0.991738
20
2.10275
11
0.999803
21
2.10354
0
LINE
8
BLACK
6
CONTINUOUS
10
0.999803
20
2.10354
11
1.00787
21
2.10275
0
LINE
8
BLACK
6
CONTINUOUS
10
1.10787
20
2.10275
11
1.11562
21
2.1004
0
LINE
8
BLACK
6
CONTINUOUS
10
1.11562
20
2.1004
11
1.12277
21
2.09658
0
LINE
8
BLACK
6
CONTINUOUS
10
1.12277
20
2.09658
11
1.12903
21
2.09144
0
LINE
8
BLACK
6
CONTINUOUS
10
1.12903
20
2.09144
11
1.13417
21
2.08517
0
LINE
8
BLACK
6
CONTINUOUS
10
1.13417
20
2.08517
11
1.138
21
2.07802
0
LINE
8
BLACK
6
CONTINUOUS
10
1.138
20
2.07802
11
1.14035
21
2.07027
0
LINE
8
BLACK
6
CONTINUOUS
10
1.14035
20
2.07027
11
1.14114
21
2.0622
0
LINE
8
BLACK
6
CONTINUOUS
10
1.14114
20
2.0622
11
1.14035
21
2.05414
0
LINE
8
BLACK
6
CONTINUOUS
10
1.14035
20
2.05414
11
1.138
21
2.04639
0
LINE
8
BLACK
6
CONTINUOUS
10
1.138
20
2.04639
11
1.13417
21
2.03924
0
LINE
8
BLACK
6
CONTINUOUS
10
1.13417
20
2.03924
11
1.12903
21
2.03297
0
LINE
8
BLACK
6
CONTINUOUS
10
1.12903
20
2.03297
11
1.12277
21
2.02783
0
LINE
8
BLACK
6
CONTINUOUS
10
1.12277
20
2.02783
11
1.11562
21
2.02401
0
LINE
8
BLACK
6
CONTINUOUS
10
1.11562
20
2.02401
11
1.10787
21
2.02166
0
LINE
8
BLACK
6
CONTINUOUS
10
1.10787
20
2.02166
11
1.0998
21
2.02087
0
LINE
8
BLACK
6
CONTINUOUS
10
1.0998
20
2.02087
11
1.09174
21
2.02166
0
LINE
8
BLACK
6
CONTINUOUS
10
1.09174
20
2.02166
11
1.08398
21
2.02401
0
LINE
8
BLACK
6
CONTINUOUS
10
1.08398
20
2.02401
11
1.07684
21
2.02783
0
LINE
8
BLACK
6
CONTINUOUS
10
1.07684
20
2.02783
11
1.07057
21
2.03297
0
LINE
8
BLACK
6
CONTINUOUS
10
1.07057
20
2.03297
11
1.06543
21
2.03924
0
LINE
8
BLACK
6
CONTINUOUS
10
1.06543
20
2.03924
11
1.06161
21
2.04639
0
LINE
8
BLACK
6
CONTINUOUS
10
1.06161
20
2.04639
11
1.05926
21
2.05414
0
LINE
8
BLACK
6
CONTINUOUS
10
1.05926
20
2.05414
11
1.05846
21
2.0622
0
LINE
8
BLACK
6
CONTINUOUS
10
1.05846
20
2.0622
11
1.05926
21
2.07027
0
LINE
8
BLACK
6
CONTINUOUS
10
1.05926
20
2.07027
11
1.06161
21
2.07802
0
LINE
8
BLACK
6
CONTINUOUS
10
1.06161
20
2.07802
11
1.06543
21
2.08517
0
LINE
8
BLACK
6
CONTINUOUS
10
1.06543
20
2.08517
11
1.07057
21
2.09144
0
LINE
8
BLACK
6
CONTINUOUS
10
1.07057
20
2.09144
11
1.07684
21
2.09658
0
LINE
8
BLACK
6
CONTINUOUS
10
1.07684
20
2.09658
11
1.08398
21
2.1004
0
LINE
8
BLACK
6
CONTINUOUS
10
1.08398
20
2.1004
11
1.09174
21
2.10275
0
LINE
8
BLACK
6
CONTINUOUS
10
1.09174
20
2.10275
11
1.0998
21
2.10354
0
LINE
8
BLACK
6
CONTINUOUS
10
1.0998
20
2.10354
11
1.10787
21
2.10275
0
LINE
8
BLACK
6
CONTINUOUS
10
1.23628
20
2.10294
11
1.23884
21
2.10124
0
LINE
8
BLACK
6
CONTINUOUS
10
1.23884
20
2.10124
11
1.24054
21
2.09868
0
LINE
8
BLACK
6
CONTINUOUS
10
1.24054
20
2.09868
11
1.24114
21
2.09567
0
LINE
8
BLACK
6
CONTINUOUS
10
1.24114
20
2.09567
11
1.24114
21
2.02874
0
LINE
8
BLACK
6
CONTINUOUS
10
1.24114
20
2.02874
11
1.24054
21
2.02573
0
LINE
8
BLACK
6
CONTINUOUS
10
1.24054
20
2.02573
11
1.23884
21
2.02317
0
LINE
8
BLACK
6
CONTINUOUS
10
1.23884
20
2.02317
11
1.23628
21
2.02147
0
LINE
8
BLACK
6
CONTINUOUS
10
1.23628
20
2.02147
11
1.23327
21
2.02087
0
LINE
8
BLACK
6
CONTINUOUS
10
1.23327
20
2.02087
11
1.16634
21
2.02087
0
LINE
8
BLACK
6
CONTINUOUS
10
1.16634
20
2.02087
11
1.16333
21
2.02147
0
LINE
8
BLACK
6
CONTINUOUS
10
1.16333
20
2.02147
11
1.16077
21
2.02317
0
LINE
8
BLACK
6
CONTINUOUS
10
1.16077
20
2.02317
11
1.15906
21
2.02573
0
LINE
8
BLACK
6
CONTINUOUS
10
1.15906
20
2.02573
11
1.15846
21
2.02874
0
LINE
8
BLACK
6
CONTINUOUS
10
1.15846
20
2.02874
11
1.15846
21
2.09567
0
LINE
8
BLACK
6
CONTINUOUS
10
1.15846
20
2.09567
11
1.15906
21
2.09868
0
LINE
8
BLACK
6
CONTINUOUS
10
1.15906
20
2.09868
11
1.16077
21
2.10124
0
LINE
8
BLACK
6
CONTINUOUS
10
1.16077
20
2.10124
11
1.16333
21
2.10294
0
LINE
8
BLACK
6
CONTINUOUS
10
1.16333
20
2.10294
11
1.16634
21
2.10354
0
LINE
8
BLACK
6
CONTINUOUS
10
1.16634
20
2.10354
11
1.23327
21
2.10354
0
LINE
8
BLACK
6
CONTINUOUS
10
1.23327
20
2.10354
11
1.23628
21
2.10294
  0
ENDSEC
  0
EOF
