  0
SECTION
  2
HEADER
  9
$ANGBASE
  50
0.0
  9
$ANGDIR
  70
1
  9
$MEASUREMENT
  70
0
  0
ENDSEC
  0
SECTION
  2
TABLES
  0
TABLE
  2
LTYPE
  70
4
  0
LTYPE
  5
40F
  2
CONTINUOUS
  70
0
  3
Solid line
  72
65
  73
0
  40
0.0
  0
LTYPE
  5
410
  2
DASHDOT
 70
0
  3
Dash Dot ____ _ ____ _
 72
65
 73
4
 40
2.0
 49
1.25
 49
-0.25
 49
0.25
 49
-0.25
  0
LTYPE
  5
411
  2
DASHED
 70
0
  3
Dashed __ __ __ __ __
 72
65
 73
2
 40
0.75
 49
0.5
 49
-0.25
  0
LTYPE
  5
43B
  2
DOTTED
 70
0
  3
Dotted .  .  .  .
 72
65
 73
2
 40
0.2
 49
0.0
 49
-0.2
  0
ENDTAB
  0
TABLE
  2
STYLE
  70
4
  0
STYLE
  2
KICAD
  70
0
  40
0
  41
1
  42
1
  50
0
  71
0
  3
isocp.shx
  0
STYLE
  2
KICADB
  70
0
  40
0
  41
1
  42
1
  50
0
  71
0
  3
isocp.shx
  0
STYLE
  2
KICADI
  70
0
  40
0
  41
1
  42
1
  50
15
  71
0
  3
isocp.shx
  0
STYLE
  2
KICADBI
  70
0
  40
0
  41
1
  42
1
  50
15
  71
0
  3
isocp.shx
  0
ENDTAB
  0
TABLE
  2
LAYER
  70
1
  0
LAYER
  2
BLACK
  70
0
  62
7
  6
CONTINUOUS
  0
ENDTAB
  0
ENDSEC
  0
SECTION
  2
ENTITIES
0
LINE
8
BLACK
6
CONTINUOUS
10
0.414063
20
0.52481
11
0.427949
21
0.522451
0
LINE
8
BLACK
6
CONTINUOUS
10
0.427949
20
0.522451
11
0.441483
21
0.518552
0
LINE
8
BLACK
6
CONTINUOUS
10
0.441483
20
0.518552
11
0.454496
21
0.513162
0
LINE
8
BLACK
6
CONTINUOUS
10
0.454496
20
0.513162
11
0.466823
21
0.506349
0
LINE
8
BLACK
6
CONTINUOUS
10
0.466823
20
0.506349
11
0.47831
21
0.498198
0
LINE
8
BLACK
6
CONTINUOUS
10
0.47831
20
0.498198
11
0.488813
21
0.488813
0
LINE
8
BLACK
6
CONTINUOUS
10
0.488813
20
0.488813
11
0.498198
21
0.47831
0
LINE
8
BLACK
6
CONTINUOUS
10
0.498198
20
0.47831
11
0.506349
21
0.466823
0
LINE
8
BLACK
6
CONTINUOUS
10
0.506349
20
0.466823
11
0.513162
21
0.454496
0
LINE
8
BLACK
6
CONTINUOUS
10
0.513162
20
0.454496
11
0.518552
21
0.441483
0
LINE
8
BLACK
6
CONTINUOUS
10
0.518552
20
0.441483
11
0.522451
21
0.427949
0
LINE
8
BLACK
6
CONTINUOUS
10
0.522451
20
0.427949
11
0.52481
21
0.414063
0
LINE
8
BLACK
6
CONTINUOUS
10
0.52481
20
0.414063
11
0.5256
21
0.4
0
LINE
8
BLACK
6
CONTINUOUS
10
0.5256
20
0.4
11
0.52481
21
0.385937
0
LINE
8
BLACK
6
CONTINUOUS
10
0.52481
20
0.385937
11
0.522451
21
0.372051
0
LINE
8
BLACK
6
CONTINUOUS
10
0.522451
20
0.372051
11
0.518552
21
0.358517
0
LINE
8
BLACK
6
CONTINUOUS
10
0.518552
20
0.358517
11
0.513162
21
0.345504
0
LINE
8
BLACK
6
CONTINUOUS
10
0.513162
20
0.345504
11
0.506349
21
0.333177
0
LINE
8
BLACK
6
CONTINUOUS
10
0.506349
20
0.333177
11
0.498198
21
0.32169
0
LINE
8
BLACK
6
CONTINUOUS
10
0.498198
20
0.32169
11
0.488813
21
0.311187
0
LINE
8
BLACK
6
CONTINUOUS
10
0.488813
20
0.311187
11
0.47831
21
0.301802
0
LINE
8
BLACK
6
CONTINUOUS
10
0.47831
20
0.301802
11
0.466823
21
0.293651
0
LINE
8
BLACK
6
CONTINUOUS
10
0.466823
20
0.293651
11
0.454496
21
0.286838
0
LINE
8
BLACK
6
CONTINUOUS
10
0.454496
20
0.286838
11
0.441483
21
0.281448
0
LINE
8
BLACK
6
CONTINUOUS
10
0.441483
20
0.281448
11
0.427949
21
0.277549
0
LINE
8
BLACK
6
CONTINUOUS
10
0.427949
20
0.277549
11
0.414063
21
0.27519
0
LINE
8
BLACK
6
CONTINUOUS
10
0.414063
20
0.27519
11
0.4
21
0.2744
0
LINE
8
BLACK
6
CONTINUOUS
10
0.4
20
0.2744
11
0.385937
21
0.27519
0
LINE
8
BLACK
6
CONTINUOUS
10
0.385937
20
0.27519
11
0.372051
21
0.277549
0
LINE
8
BLACK
6
CONTINUOUS
10
0.372051
20
0.277549
11
0.358517
21
0.281448
0
LINE
8
BLACK
6
CONTINUOUS
10
0.358517
20
0.281448
11
0.345504
21
0.286838
0
LINE
8
BLACK
6
CONTINUOUS
10
0.345504
20
0.286838
11
0.333177
21
0.293651
0
LINE
8
BLACK
6
CONTINUOUS
10
0.333177
20
0.293651
11
0.32169
21
0.301802
0
LINE
8
BLACK
6
CONTINUOUS
10
0.32169
20
0.301802
11
0.311187
21
0.311187
0
LINE
8
BLACK
6
CONTINUOUS
10
0.311187
20
0.311187
11
0.301802
21
0.32169
0
LINE
8
BLACK
6
CONTINUOUS
10
0.301802
20
0.32169
11
0.293651
21
0.333177
0
LINE
8
BLACK
6
CONTINUOUS
10
0.293651
20
0.333177
11
0.286838
21
0.345504
0
LINE
8
BLACK
6
CONTINUOUS
10
0.286838
20
0.345504
11
0.281448
21
0.358517
0
LINE
8
BLACK
6
CONTINUOUS
10
0.281448
20
0.358517
11
0.277549
21
0.372051
0
LINE
8
BLACK
6
CONTINUOUS
10
0.277549
20
0.372051
11
0.27519
21
0.385937
0
LINE
8
BLACK
6
CONTINUOUS
10
0.27519
20
0.385937
11
0.2744
21
0.4
0
LINE
8
BLACK
6
CONTINUOUS
10
0.2744
20
0.4
11
0.27519
21
0.414063
0
LINE
8
BLACK
6
CONTINUOUS
10
0.27519
20
0.414063
11
0.277549
21
0.427949
0
LINE
8
BLACK
6
CONTINUOUS
10
0.277549
20
0.427949
11
0.281448
21
0.441483
0
LINE
8
BLACK
6
CONTINUOUS
10
0.281448
20
0.441483
11
0.286838
21
0.454496
0
LINE
8
BLACK
6
CONTINUOUS
10
0.286838
20
0.454496
11
0.293651
21
0.466823
0
LINE
8
BLACK
6
CONTINUOUS
10
0.293651
20
0.466823
11
0.301802
21
0.47831
0
LINE
8
BLACK
6
CONTINUOUS
10
0.301802
20
0.47831
11
0.311187
21
0.488813
0
LINE
8
BLACK
6
CONTINUOUS
10
0.311187
20
0.488813
11
0.32169
21
0.498198
0
LINE
8
BLACK
6
CONTINUOUS
10
0.32169
20
0.498198
11
0.333177
21
0.506349
0
LINE
8
BLACK
6
CONTINUOUS
10
0.333177
20
0.506349
11
0.345504
21
0.513162
0
LINE
8
BLACK
6
CONTINUOUS
10
0.345504
20
0.513162
11
0.358517
21
0.518552
0
LINE
8
BLACK
6
CONTINUOUS
10
0.358517
20
0.518552
11
0.372051
21
0.522451
0
LINE
8
BLACK
6
CONTINUOUS
10
0.372051
20
0.522451
11
0.385937
21
0.52481
0
LINE
8
BLACK
6
CONTINUOUS
10
0.385937
20
0.52481
11
0.4
21
0.5256
0
LINE
8
BLACK
6
CONTINUOUS
10
0.4
20
0.5256
11
0.414063
21
0.52481
0
LINE
8
BLACK
6
CONTINUOUS
10
0.289962
20
0.387138
11
0.292199
21
0.374451
0
LINE
8
BLACK
6
CONTINUOUS
10
0.292199
20
0.374451
11
0.295894
21
0.362108
0
LINE
8
BLACK
6
CONTINUOUS
10
0.295894
20
0.362108
11
0.300997
21
0.350279
0
LINE
8
BLACK
6
CONTINUOUS
10
0.300997
20
0.350279
11
0.307438
21
0.339121
0
LINE
8
BLACK
6
CONTINUOUS
10
0.307438
20
0.339121
11
0.315132
21
0.328787
0
LINE
8
BLACK
6
CONTINUOUS
10
0.315132
20
0.328787
11
0.323973
21
0.319416
0
LINE
8
BLACK
6
CONTINUOUS
10
0.323973
20
0.319416
11
0.333842
21
0.311135
0
LINE
8
BLACK
6
CONTINUOUS
10
0.333842
20
0.311135
11
0.344606
21
0.304055
0
LINE
8
BLACK
6
CONTINUOUS
10
0.344606
20
0.304055
11
0.356119
21
0.298273
0
LINE
8
BLACK
6
CONTINUOUS
10
0.356119
20
0.298273
11
0.368226
21
0.293867
0
LINE
8
BLACK
6
CONTINUOUS
10
0.368226
20
0.293867
11
0.380762
21
0.290896
0
LINE
8
BLACK
6
CONTINUOUS
10
0.380762
20
0.290896
11
0.393558
21
0.2894
0
LINE
8
BLACK
6
CONTINUOUS
10
0.393558
20
0.2894
11
0.406442
21
0.2894
0
LINE
8
BLACK
6
CONTINUOUS
10
0.406442
20
0.2894
11
0.419238
21
0.290896
0
LINE
8
BLACK
6
CONTINUOUS
10
0.419238
20
0.290896
11
0.431774
21
0.293867
0
LINE
8
BLACK
6
CONTINUOUS
10
0.431774
20
0.293867
11
0.443881
21
0.298273
0
LINE
8
BLACK
6
CONTINUOUS
10
0.443881
20
0.298273
11
0.455394
21
0.304055
0
LINE
8
BLACK
6
CONTINUOUS
10
0.455394
20
0.304055
11
0.466158
21
0.311135
0
LINE
8
BLACK
6
CONTINUOUS
10
0.466158
20
0.311135
11
0.476027
21
0.319416
0
LINE
8
BLACK
6
CONTINUOUS
10
0.476027
20
0.319416
11
0.484868
21
0.328787
0
LINE
8
BLACK
6
CONTINUOUS
10
0.484868
20
0.328787
11
0.492562
21
0.339121
0
LINE
8
BLACK
6
CONTINUOUS
10
0.492562
20
0.339121
11
0.499003
21
0.350279
0
LINE
8
BLACK
6
CONTINUOUS
10
0.499003
20
0.350279
11
0.504106
21
0.362108
0
LINE
8
BLACK
6
CONTINUOUS
10
0.504106
20
0.362108
11
0.507801
21
0.374451
0
LINE
8
BLACK
6
CONTINUOUS
10
0.507801
20
0.374451
11
0.510038
21
0.387138
0
LINE
8
BLACK
6
CONTINUOUS
10
0.510038
20
0.387138
11
0.510787
21
0.4
0
LINE
8
BLACK
6
CONTINUOUS
10
0.510787
20
0.4
11
0.510038
21
0.412862
0
LINE
8
BLACK
6
CONTINUOUS
10
0.510038
20
0.412862
11
0.507801
21
0.425549
0
LINE
8
BLACK
6
CONTINUOUS
10
0.507801
20
0.425549
11
0.504106
21
0.437892
0
LINE
8
BLACK
6
CONTINUOUS
10
0.504106
20
0.437892
11
0.499003
21
0.449721
0
LINE
8
BLACK
6
CONTINUOUS
10
0.499003
20
0.449721
11
0.492562
21
0.460879
0
LINE
8
BLACK
6
CONTINUOUS
10
0.492562
20
0.460879
11
0.484868
21
0.471213
0
LINE
8
BLACK
6
CONTINUOUS
10
0.484868
20
0.471213
11
0.476027
21
0.480584
0
LINE
8
BLACK
6
CONTINUOUS
10
0.476027
20
0.480584
11
0.466158
21
0.488865
0
LINE
8
BLACK
6
CONTINUOUS
10
0.466158
20
0.488865
11
0.455394
21
0.495945
0
LINE
8
BLACK
6
CONTINUOUS
10
0.455394
20
0.495945
11
0.443881
21
0.501727
0
LINE
8
BLACK
6
CONTINUOUS
10
0.443881
20
0.501727
11
0.431774
21
0.506133
0
LINE
8
BLACK
6
CONTINUOUS
10
0.431774
20
0.506133
11
0.419238
21
0.509104
0
LINE
8
BLACK
6
CONTINUOUS
10
0.419238
20
0.509104
11
0.406442
21
0.5106
0
LINE
8
BLACK
6
CONTINUOUS
10
0.406442
20
0.5106
11
0.393558
21
0.5106
0
LINE
8
BLACK
6
CONTINUOUS
10
0.393558
20
0.5106
11
0.380762
21
0.509104
0
LINE
8
BLACK
6
CONTINUOUS
10
0.380762
20
0.509104
11
0.368226
21
0.506133
0
LINE
8
BLACK
6
CONTINUOUS
10
0.368226
20
0.506133
11
0.356119
21
0.501727
0
LINE
8
BLACK
6
CONTINUOUS
10
0.356119
20
0.501727
11
0.344606
21
0.495945
0
LINE
8
BLACK
6
CONTINUOUS
10
0.344606
20
0.495945
11
0.333842
21
0.488865
0
LINE
8
BLACK
6
CONTINUOUS
10
0.333842
20
0.488865
11
0.323973
21
0.480584
0
LINE
8
BLACK
6
CONTINUOUS
10
0.323973
20
0.480584
11
0.315132
21
0.471213
0
LINE
8
BLACK
6
CONTINUOUS
10
0.315132
20
0.471213
11
0.307438
21
0.460879
0
LINE
8
BLACK
6
CONTINUOUS
10
0.307438
20
0.460879
11
0.300997
21
0.449721
0
LINE
8
BLACK
6
CONTINUOUS
10
0.300997
20
0.449721
11
0.295894
21
0.437892
0
LINE
8
BLACK
6
CONTINUOUS
10
0.295894
20
0.437892
11
0.292199
21
0.425549
0
LINE
8
BLACK
6
CONTINUOUS
10
0.292199
20
0.425549
11
0.289962
21
0.412862
0
LINE
8
BLACK
6
CONTINUOUS
10
0.289962
20
0.412862
11
0.289213
21
0.4
0
LINE
8
BLACK
6
CONTINUOUS
10
0.289213
20
0.4
11
0.289962
21
0.387138
0
LINE
8
BLACK
6
CONTINUOUS
10
1.61406
20
0.52481
11
1.62795
21
0.522451
0
LINE
8
BLACK
6
CONTINUOUS
10
1.62795
20
0.522451
11
1.64148
21
0.518552
0
LINE
8
BLACK
6
CONTINUOUS
10
1.64148
20
0.518552
11
1.6545
21
0.513162
0
LINE
8
BLACK
6
CONTINUOUS
10
1.6545
20
0.513162
11
1.66682
21
0.506349
0
LINE
8
BLACK
6
CONTINUOUS
10
1.66682
20
0.506349
11
1.67831
21
0.498198
0
LINE
8
BLACK
6
CONTINUOUS
10
1.67831
20
0.498198
11
1.68881
21
0.488813
0
LINE
8
BLACK
6
CONTINUOUS
10
1.68881
20
0.488813
11
1.6982
21
0.47831
0
LINE
8
BLACK
6
CONTINUOUS
10
1.6982
20
0.47831
11
1.70635
21
0.466823
0
LINE
8
BLACK
6
CONTINUOUS
10
1.70635
20
0.466823
11
1.71316
21
0.454496
0
LINE
8
BLACK
6
CONTINUOUS
10
1.71316
20
0.454496
11
1.71855
21
0.441483
0
LINE
8
BLACK
6
CONTINUOUS
10
1.71855
20
0.441483
11
1.72245
21
0.427949
0
LINE
8
BLACK
6
CONTINUOUS
10
1.72245
20
0.427949
11
1.72481
21
0.414063
0
LINE
8
BLACK
6
CONTINUOUS
10
1.72481
20
0.414063
11
1.7256
21
0.4
0
LINE
8
BLACK
6
CONTINUOUS
10
1.7256
20
0.4
11
1.72481
21
0.385937
0
LINE
8
BLACK
6
CONTINUOUS
10
1.72481
20
0.385937
11
1.72245
21
0.372051
0
LINE
8
BLACK
6
CONTINUOUS
10
1.72245
20
0.372051
11
1.71855
21
0.358517
0
LINE
8
BLACK
6
CONTINUOUS
10
1.71855
20
0.358517
11
1.71316
21
0.345504
0
LINE
8
BLACK
6
CONTINUOUS
10
1.71316
20
0.345504
11
1.70635
21
0.333177
0
LINE
8
BLACK
6
CONTINUOUS
10
1.70635
20
0.333177
11
1.6982
21
0.32169
0
LINE
8
BLACK
6
CONTINUOUS
10
1.6982
20
0.32169
11
1.68881
21
0.311187
0
LINE
8
BLACK
6
CONTINUOUS
10
1.68881
20
0.311187
11
1.67831
21
0.301802
0
LINE
8
BLACK
6
CONTINUOUS
10
1.67831
20
0.301802
11
1.66682
21
0.293651
0
LINE
8
BLACK
6
CONTINUOUS
10
1.66682
20
0.293651
11
1.6545
21
0.286838
0
LINE
8
BLACK
6
CONTINUOUS
10
1.6545
20
0.286838
11
1.64148
21
0.281448
0
LINE
8
BLACK
6
CONTINUOUS
10
1.64148
20
0.281448
11
1.62795
21
0.277549
0
LINE
8
BLACK
6
CONTINUOUS
10
1.62795
20
0.277549
11
1.61406
21
0.27519
0
LINE
8
BLACK
6
CONTINUOUS
10
1.61406
20
0.27519
11
1.6
21
0.2744
0
LINE
8
BLACK
6
CONTINUOUS
10
1.6
20
0.2744
11
1.58594
21
0.27519
0
LINE
8
BLACK
6
CONTINUOUS
10
1.58594
20
0.27519
11
1.57205
21
0.277549
0
LINE
8
BLACK
6
CONTINUOUS
10
1.57205
20
0.277549
11
1.55852
21
0.281448
0
LINE
8
BLACK
6
CONTINUOUS
10
1.55852
20
0.281448
11
1.5455
21
0.286838
0
LINE
8
BLACK
6
CONTINUOUS
10
1.5455
20
0.286838
11
1.53318
21
0.293651
0
LINE
8
BLACK
6
CONTINUOUS
10
1.53318
20
0.293651
11
1.52169
21
0.301802
0
LINE
8
BLACK
6
CONTINUOUS
10
1.52169
20
0.301802
11
1.51119
21
0.311187
0
LINE
8
BLACK
6
CONTINUOUS
10
1.51119
20
0.311187
11
1.5018
21
0.32169
0
LINE
8
BLACK
6
CONTINUOUS
10
1.5018
20
0.32169
11
1.49365
21
0.333177
0
LINE
8
BLACK
6
CONTINUOUS
10
1.49365
20
0.333177
11
1.48684
21
0.345504
0
LINE
8
BLACK
6
CONTINUOUS
10
1.48684
20
0.345504
11
1.48145
21
0.358517
0
LINE
8
BLACK
6
CONTINUOUS
10
1.48145
20
0.358517
11
1.47755
21
0.372051
0
LINE
8
BLACK
6
CONTINUOUS
10
1.47755
20
0.372051
11
1.47519
21
0.385937
0
LINE
8
BLACK
6
CONTINUOUS
10
1.47519
20
0.385937
11
1.4744
21
0.4
0
LINE
8
BLACK
6
CONTINUOUS
10
1.4744
20
0.4
11
1.47519
21
0.414063
0
LINE
8
BLACK
6
CONTINUOUS
10
1.47519
20
0.414063
11
1.47755
21
0.427949
0
LINE
8
BLACK
6
CONTINUOUS
10
1.47755
20
0.427949
11
1.48145
21
0.441483
0
LINE
8
BLACK
6
CONTINUOUS
10
1.48145
20
0.441483
11
1.48684
21
0.454496
0
LINE
8
BLACK
6
CONTINUOUS
10
1.48684
20
0.454496
11
1.49365
21
0.466823
0
LINE
8
BLACK
6
CONTINUOUS
10
1.49365
20
0.466823
11
1.5018
21
0.47831
0
LINE
8
BLACK
6
CONTINUOUS
10
1.5018
20
0.47831
11
1.51119
21
0.488813
0
LINE
8
BLACK
6
CONTINUOUS
10
1.51119
20
0.488813
11
1.52169
21
0.498198
0
LINE
8
BLACK
6
CONTINUOUS
10
1.52169
20
0.498198
11
1.53318
21
0.506349
0
LINE
8
BLACK
6
CONTINUOUS
10
1.53318
20
0.506349
11
1.5455
21
0.513162
0
LINE
8
BLACK
6
CONTINUOUS
10
1.5455
20
0.513162
11
1.55852
21
0.518552
0
LINE
8
BLACK
6
CONTINUOUS
10
1.55852
20
0.518552
11
1.57205
21
0.522451
0
LINE
8
BLACK
6
CONTINUOUS
10
1.57205
20
0.522451
11
1.58594
21
0.52481
0
LINE
8
BLACK
6
CONTINUOUS
10
1.58594
20
0.52481
11
1.6
21
0.5256
0
LINE
8
BLACK
6
CONTINUOUS
10
1.6
20
0.5256
11
1.61406
21
0.52481
0
LINE
8
BLACK
6
CONTINUOUS
10
1.48996
20
0.387138
11
1.4922
21
0.374451
0
LINE
8
BLACK
6
CONTINUOUS
10
1.4922
20
0.374451
11
1.49589
21
0.362108
0
LINE
8
BLACK
6
CONTINUOUS
10
1.49589
20
0.362108
11
1.501
21
0.350279
0
LINE
8
BLACK
6
CONTINUOUS
10
1.501
20
0.350279
11
1.50744
21
0.339121
0
LINE
8
BLACK
6
CONTINUOUS
10
1.50744
20
0.339121
11
1.51513
21
0.328787
0
LINE
8
BLACK
6
CONTINUOUS
10
1.51513
20
0.328787
11
1.52397
21
0.319416
0
LINE
8
BLACK
6
CONTINUOUS
10
1.52397
20
0.319416
11
1.53384
21
0.311135
0
LINE
8
BLACK
6
CONTINUOUS
10
1.53384
20
0.311135
11
1.54461
21
0.304055
0
LINE
8
BLACK
6
CONTINUOUS
10
1.54461
20
0.304055
11
1.55612
21
0.298273
0
LINE
8
BLACK
6
CONTINUOUS
10
1.55612
20
0.298273
11
1.56823
21
0.293867
0
LINE
8
BLACK
6
CONTINUOUS
10
1.56823
20
0.293867
11
1.58076
21
0.290896
0
LINE
8
BLACK
6
CONTINUOUS
10
1.58076
20
0.290896
11
1.59356
21
0.2894
0
LINE
8
BLACK
6
CONTINUOUS
10
1.59356
20
0.2894
11
1.60644
21
0.2894
0
LINE
8
BLACK
6
CONTINUOUS
10
1.60644
20
0.2894
11
1.61924
21
0.290896
0
LINE
8
BLACK
6
CONTINUOUS
10
1.61924
20
0.290896
11
1.63177
21
0.293867
0
LINE
8
BLACK
6
CONTINUOUS
10
1.63177
20
0.293867
11
1.64388
21
0.298273
0
LINE
8
BLACK
6
CONTINUOUS
10
1.64388
20
0.298273
11
1.65539
21
0.304055
0
LINE
8
BLACK
6
CONTINUOUS
10
1.65539
20
0.304055
11
1.66616
21
0.311135
0
LINE
8
BLACK
6
CONTINUOUS
10
1.66616
20
0.311135
11
1.67603
21
0.319416
0
LINE
8
BLACK
6
CONTINUOUS
10
1.67603
20
0.319416
11
1.68487
21
0.328787
0
LINE
8
BLACK
6
CONTINUOUS
10
1.68487
20
0.328787
11
1.69256
21
0.339121
0
LINE
8
BLACK
6
CONTINUOUS
10
1.69256
20
0.339121
11
1.699
21
0.350279
0
LINE
8
BLACK
6
CONTINUOUS
10
1.699
20
0.350279
11
1.70411
21
0.362108
0
LINE
8
BLACK
6
CONTINUOUS
10
1.70411
20
0.362108
11
1.7078
21
0.374451
0
LINE
8
BLACK
6
CONTINUOUS
10
1.7078
20
0.374451
11
1.71004
21
0.387138
0
LINE
8
BLACK
6
CONTINUOUS
10
1.71004
20
0.387138
11
1.71079
21
0.4
0
LINE
8
BLACK
6
CONTINUOUS
10
1.71079
20
0.4
11
1.71004
21
0.412862
0
LINE
8
BLACK
6
CONTINUOUS
10
1.71004
20
0.412862
11
1.7078
21
0.425549
0
LINE
8
BLACK
6
CONTINUOUS
10
1.7078
20
0.425549
11
1.70411
21
0.437892
0
LINE
8
BLACK
6
CONTINUOUS
10
1.70411
20
0.437892
11
1.699
21
0.449721
0
LINE
8
BLACK
6
CONTINUOUS
10
1.699
20
0.449721
11
1.69256
21
0.460879
0
LINE
8
BLACK
6
CONTINUOUS
10
1.69256
20
0.460879
11
1.68487
21
0.471213
0
LINE
8
BLACK
6
CONTINUOUS
10
1.68487
20
0.471213
11
1.67603
21
0.480584
0
LINE
8
BLACK
6
CONTINUOUS
10
1.67603
20
0.480584
11
1.66616
21
0.488865
0
LINE
8
BLACK
6
CONTINUOUS
10
1.66616
20
0.488865
11
1.65539
21
0.495945
0
LINE
8
BLACK
6
CONTINUOUS
10
1.65539
20
0.495945
11
1.64388
21
0.501727
0
LINE
8
BLACK
6
CONTINUOUS
10
1.64388
20
0.501727
11
1.63177
21
0.506133
0
LINE
8
BLACK
6
CONTINUOUS
10
1.63177
20
0.506133
11
1.61924
21
0.509104
0
LINE
8
BLACK
6
CONTINUOUS
10
1.61924
20
0.509104
11
1.60644
21
0.5106
0
LINE
8
BLACK
6
CONTINUOUS
10
1.60644
20
0.5106
11
1.59356
21
0.5106
0
LINE
8
BLACK
6
CONTINUOUS
10
1.59356
20
0.5106
11
1.58076
21
0.509104
0
LINE
8
BLACK
6
CONTINUOUS
10
1.58076
20
0.509104
11
1.56823
21
0.506133
0
LINE
8
BLACK
6
CONTINUOUS
10
1.56823
20
0.506133
11
1.55612
21
0.501727
0
LINE
8
BLACK
6
CONTINUOUS
10
1.55612
20
0.501727
11
1.54461
21
0.495945
0
LINE
8
BLACK
6
CONTINUOUS
10
1.54461
20
0.495945
11
1.53384
21
0.488865
0
LINE
8
BLACK
6
CONTINUOUS
10
1.53384
20
0.488865
11
1.52397
21
0.480584
0
LINE
8
BLACK
6
CONTINUOUS
10
1.52397
20
0.480584
11
1.51513
21
0.471213
0
LINE
8
BLACK
6
CONTINUOUS
10
1.51513
20
0.471213
11
1.50744
21
0.460879
0
LINE
8
BLACK
6
CONTINUOUS
10
1.50744
20
0.460879
11
1.501
21
0.449721
0
LINE
8
BLACK
6
CONTINUOUS
10
1.501
20
0.449721
11
1.49589
21
0.437892
0
LINE
8
BLACK
6
CONTINUOUS
10
1.49589
20
0.437892
11
1.4922
21
0.425549
0
LINE
8
BLACK
6
CONTINUOUS
10
1.4922
20
0.425549
11
1.48996
21
0.412862
0
LINE
8
BLACK
6
CONTINUOUS
10
1.48996
20
0.412862
11
1.48921
21
0.4
0
LINE
8
BLACK
6
CONTINUOUS
10
1.48921
20
0.4
11
1.48996
21
0.387138
0
LINE
8
BLACK
6
CONTINUOUS
10
1.63233
20
0.788495
11
1.63239
21
0.788497
0
LINE
8
BLACK
6
CONTINUOUS
10
1.63239
20
0.788497
11
1.63802
21
0.786622
0
LINE
8
BLACK
6
CONTINUOUS
10
1.63802
20
0.786622
11
1.63892
21
0.786134
0
LINE
8
BLACK
6
CONTINUOUS
10
1.63892
20
0.786134
11
1.63901
21
0.785983
0
LINE
8
BLACK
6
CONTINUOUS
10
1.63901
20
0.785983
11
1.63917
21
0.785909
0
LINE
8
BLACK
6
CONTINUOUS
10
1.63917
20
0.785909
11
1.64292
21
0.782159
0
LINE
8
BLACK
6
CONTINUOUS
10
1.64292
20
0.782159
11
1.64351
21
0.781319
0
LINE
8
BLACK
6
CONTINUOUS
10
1.64351
20
0.781319
11
1.64353
21
0.781143
0
LINE
8
BLACK
6
CONTINUOUS
10
1.64353
20
0.781143
11
1.64364
21
0.781005
0
LINE
8
BLACK
6
CONTINUOUS
10
1.64364
20
0.781005
11
1.64551
21
0.775381
0
LINE
8
BLACK
6
CONTINUOUS
10
1.64551
20
0.775381
11
1.64564
21
0.774508
0
LINE
8
BLACK
6
CONTINUOUS
10
1.64564
20
0.774508
11
1.64566
21
0.774447
0
LINE
8
BLACK
6
CONTINUOUS
10
1.64566
20
0.774447
11
1.64566
21
0.770697
0
LINE
8
BLACK
6
CONTINUOUS
10
1.64566
20
0.770697
11
1.64548
21
0.769688
0
LINE
8
BLACK
6
CONTINUOUS
10
1.64548
20
0.769688
11
1.64419
21
0.76814
0
LINE
8
BLACK
6
CONTINUOUS
10
1.64419
20
0.76814
11
1.6422
21
0.76779
0
LINE
8
BLACK
6
CONTINUOUS
10
1.6422
20
0.76779
11
1.64045
21
0.768799
0
LINE
8
BLACK
6
CONTINUOUS
10
1.64045
20
0.768799
11
1.63976
21
0.770697
0
LINE
8
BLACK
6
CONTINUOUS
10
1.63976
20
0.770697
11
1.63976
21
0.773968
0
LINE
8
BLACK
6
CONTINUOUS
10
1.63976
20
0.773968
11
1.63825
21
0.778476
0
LINE
8
BLACK
6
CONTINUOUS
10
1.63825
20
0.778476
11
1.63549
21
0.78124
0
LINE
8
BLACK
6
CONTINUOUS
10
1.63549
20
0.78124
11
1.63098
21
0.782743
0
LINE
8
BLACK
6
CONTINUOUS
10
1.63098
20
0.782743
11
1.60334
21
0.782743
0
LINE
8
BLACK
6
CONTINUOUS
10
1.60334
20
0.782743
11
1.60233
21
0.782921
0
LINE
8
BLACK
6
CONTINUOUS
10
1.60233
20
0.782921
11
1.60078
21
0.784219
0
LINE
8
BLACK
6
CONTINUOUS
10
1.60078
20
0.784219
11
1.60043
21
0.786208
0
LINE
8
BLACK
6
CONTINUOUS
10
1.60043
20
0.786208
11
1.60144
21
0.787957
0
LINE
8
BLACK
6
CONTINUOUS
10
1.60144
20
0.787957
11
1.60334
21
0.788648
0
LINE
8
BLACK
6
CONTINUOUS
10
1.60334
20
0.788648
11
1.63146
21
0.788648
0
LINE
8
BLACK
6
CONTINUOUS
10
1.63146
20
0.788648
11
1.63233
21
0.788495
0
LINE
8
BLACK
6
CONTINUOUS
10
1.63622
20
0.82784
11
1.63636
21
0.827727
0
LINE
8
BLACK
6
CONTINUOUS
10
1.63636
20
0.827727
11
1.63653
21
0.827707
0
LINE
8
BLACK
6
CONTINUOUS
10
1.63653
20
0.827707
11
1.64028
21
0.825832
0
LINE
8
BLACK
6
CONTINUOUS
10
1.64028
20
0.825832
11
1.64099
21
0.825306
0
LINE
8
BLACK
6
CONTINUOUS
10
1.64099
20
0.825306
11
1.64105
21
0.825279
0
LINE
8
BLACK
6
CONTINUOUS
10
1.64105
20
0.825279
11
1.64292
21
0.823404
0
LINE
8
BLACK
6
CONTINUOUS
10
1.64292
20
0.823404
11
1.64343
21
0.822681
0
LINE
8
BLACK
6
CONTINUOUS
10
1.64343
20
0.822681
11
1.64348
21
0.822637
0
LINE
8
BLACK
6
CONTINUOUS
10
1.64348
20
0.822637
11
1.64535
21
0.818887
0
LINE
8
BLACK
6
CONTINUOUS
10
1.64535
20
0.818887
11
1.64564
21
0.817904
0
LINE
8
BLACK
6
CONTINUOUS
10
1.64564
20
0.817904
11
1.6456
21
0.817732
0
LINE
8
BLACK
6
CONTINUOUS
10
1.6456
20
0.817732
11
1.64566
21
0.817567
0
LINE
8
BLACK
6
CONTINUOUS
10
1.64566
20
0.817567
11
1.64566
21
0.806318
0
LINE
8
BLACK
6
CONTINUOUS
10
1.64566
20
0.806318
11
1.64548
21
0.805308
0
LINE
8
BLACK
6
CONTINUOUS
10
1.64548
20
0.805308
11
1.64537
21
0.805173
0
LINE
8
BLACK
6
CONTINUOUS
10
1.64537
20
0.805173
11
1.64535
21
0.804997
0
LINE
8
BLACK
6
CONTINUOUS
10
1.64535
20
0.804997
11
1.64348
21
0.801248
0
LINE
8
BLACK
6
CONTINUOUS
10
1.64348
20
0.801248
11
1.64295
21
0.800539
0
LINE
8
BLACK
6
CONTINUOUS
10
1.64295
20
0.800539
11
1.64292
21
0.800481
0
LINE
8
BLACK
6
CONTINUOUS
10
1.64292
20
0.800481
11
1.64105
21
0.798606
0
LINE
8
BLACK
6
CONTINUOUS
10
1.64105
20
0.798606
11
1.64021
21
0.798018
0
LINE
8
BLACK
6
CONTINUOUS
10
1.64021
20
0.798018
11
1.6382
21
0.797842
0
LINE
8
BLACK
6
CONTINUOUS
10
1.6382
20
0.797842
11
1.63654
21
0.799
0
LINE
8
BLACK
6
CONTINUOUS
10
1.63654
20
0.799
11
1.63602
21
0.800951
0
LINE
8
BLACK
6
CONTINUOUS
10
1.63602
20
0.800951
11
1.63687
21
0.802782
0
LINE
8
BLACK
6
CONTINUOUS
10
1.63687
20
0.802782
11
1.63841
21
0.804318
0
LINE
8
BLACK
6
CONTINUOUS
10
1.63841
20
0.804318
11
1.63976
21
0.807015
0
LINE
8
BLACK
6
CONTINUOUS
10
1.63976
20
0.807015
11
1.63976
21
0.81687
0
LINE
8
BLACK
6
CONTINUOUS
10
1.63976
20
0.81687
11
1.63841
21
0.819567
0
LINE
8
BLACK
6
CONTINUOUS
10
1.63841
20
0.819567
11
1.63721
21
0.820764
0
LINE
8
BLACK
6
CONTINUOUS
10
1.63721
20
0.820764
11
1.63451
21
0.822113
0
LINE
8
BLACK
6
CONTINUOUS
10
1.63451
20
0.822113
11
1.62653
21
0.822113
0
LINE
8
BLACK
6
CONTINUOUS
10
1.62653
20
0.822113
11
1.62384
21
0.820764
0
LINE
8
BLACK
6
CONTINUOUS
10
1.62384
20
0.820764
11
1.62264
21
0.819567
0
LINE
8
BLACK
6
CONTINUOUS
10
1.62264
20
0.819567
11
1.62129
21
0.81687
0
LINE
8
BLACK
6
CONTINUOUS
10
1.62129
20
0.81687
11
1.62129
21
0.811942
0
LINE
8
BLACK
6
CONTINUOUS
10
1.62129
20
0.811942
11
1.62121
21
0.811505
0
LINE
8
BLACK
6
CONTINUOUS
10
1.62121
20
0.811505
11
1.62123
21
0.811369
0
LINE
8
BLACK
6
CONTINUOUS
10
1.62123
20
0.811369
11
1.62117
21
0.811265
0
LINE
8
BLACK
6
CONTINUOUS
10
1.62117
20
0.811265
11
1.62111
21
0.810932
0
LINE
8
BLACK
6
CONTINUOUS
10
1.62111
20
0.810932
11
1.6206
21
0.810323
0
LINE
8
BLACK
6
CONTINUOUS
10
1.6206
20
0.810323
11
1.62019
21
0.809642
0
LINE
8
BLACK
6
CONTINUOUS
10
1.62019
20
0.809642
11
1.61997
21
0.809566
0
LINE
8
BLACK
6
CONTINUOUS
10
1.61997
20
0.809566
11
1.61981
21
0.809385
0
LINE
8
BLACK
6
CONTINUOUS
10
1.61981
20
0.809385
11
1.61903
21
0.809247
0
LINE
8
BLACK
6
CONTINUOUS
10
1.61903
20
0.809247
11
1.61828
21
0.80899
0
LINE
8
BLACK
6
CONTINUOUS
10
1.61828
20
0.80899
11
1.61806
21
0.809075
0
LINE
8
BLACK
6
CONTINUOUS
10
1.61806
20
0.809075
11
1.61782
21
0.809034
0
LINE
8
BLACK
6
CONTINUOUS
10
1.61782
20
0.809034
11
1.61714
21
0.809432
0
LINE
8
BLACK
6
CONTINUOUS
10
1.61714
20
0.809432
11
1.61639
21
0.80972
0
LINE
8
BLACK
6
CONTINUOUS
10
1.61639
20
0.80972
11
1.60629
21
0.818558
0
LINE
8
BLACK
6
CONTINUOUS
10
1.60629
20
0.818558
11
1.60629
21
0.800694
0
LINE
8
BLACK
6
CONTINUOUS
10
1.60629
20
0.800694
11
1.60611
21
0.799684
0
LINE
8
BLACK
6
CONTINUOUS
10
1.60611
20
0.799684
11
1.60482
21
0.798137
0
LINE
8
BLACK
6
CONTINUOUS
10
1.60482
20
0.798137
11
1.60283
21
0.797786
0
LINE
8
BLACK
6
CONTINUOUS
10
1.60283
20
0.797786
11
1.60108
21
0.798796
0
LINE
8
BLACK
6
CONTINUOUS
10
1.60108
20
0.798796
11
1.60039
21
0.800694
0
LINE
8
BLACK
6
CONTINUOUS
10
1.60039
20
0.800694
11
1.60039
21
0.825066
0
LINE
8
BLACK
6
CONTINUOUS
10
1.60039
20
0.825066
11
1.60046
21
0.825503
0
LINE
8
BLACK
6
CONTINUOUS
10
1.60046
20
0.825503
11
1.60044
21
0.825638
0
LINE
8
BLACK
6
CONTINUOUS
10
1.60044
20
0.825638
11
1.60051
21
0.825743
0
LINE
8
BLACK
6
CONTINUOUS
10
1.60051
20
0.825743
11
1.60056
21
0.826076
0
LINE
8
BLACK
6
CONTINUOUS
10
1.60056
20
0.826076
11
1.60108
21
0.826685
0
LINE
8
BLACK
6
CONTINUOUS
10
1.60108
20
0.826685
11
1.60149
21
0.827366
0
LINE
8
BLACK
6
CONTINUOUS
10
1.60149
20
0.827366
11
1.60171
21
0.827442
0
LINE
8
BLACK
6
CONTINUOUS
10
1.60171
20
0.827442
11
1.60186
21
0.827623
0
LINE
8
BLACK
6
CONTINUOUS
10
1.60186
20
0.827623
11
1.60265
21
0.827761
0
LINE
8
BLACK
6
CONTINUOUS
10
1.60265
20
0.827761
11
1.6034
21
0.828018
0
LINE
8
BLACK
6
CONTINUOUS
10
1.6034
20
0.828018
11
1.60362
21
0.827933
0
LINE
8
BLACK
6
CONTINUOUS
10
1.60362
20
0.827933
11
1.60385
21
0.827974
0
LINE
8
BLACK
6
CONTINUOUS
10
1.60385
20
0.827974
11
1.60454
21
0.827575
0
LINE
8
BLACK
6
CONTINUOUS
10
1.60454
20
0.827575
11
1.60528
21
0.827288
0
LINE
8
BLACK
6
CONTINUOUS
10
1.60528
20
0.827288
11
1.61552
21
0.818331
0
LINE
8
BLACK
6
CONTINUOUS
10
1.61552
20
0.818331
11
1.61556
21
0.818576
0
LINE
8
BLACK
6
CONTINUOUS
10
1.61556
20
0.818576
11
1.61568
21
0.818712
0
LINE
8
BLACK
6
CONTINUOUS
10
1.61568
20
0.818712
11
1.6157
21
0.818887
0
LINE
8
BLACK
6
CONTINUOUS
10
1.6157
20
0.818887
11
1.61757
21
0.822637
0
LINE
8
BLACK
6
CONTINUOUS
10
1.61757
20
0.822637
11
1.6181
21
0.823346
0
LINE
8
BLACK
6
CONTINUOUS
10
1.6181
20
0.823346
11
1.61812
21
0.823404
0
LINE
8
BLACK
6
CONTINUOUS
10
1.61812
20
0.823404
11
1.62
21
0.825279
0
LINE
8
BLACK
6
CONTINUOUS
10
1.62
20
0.825279
11
1.62072
21
0.825785
0
LINE
8
BLACK
6
CONTINUOUS
10
1.62072
20
0.825785
11
1.62077
21
0.825832
0
LINE
8
BLACK
6
CONTINUOUS
10
1.62077
20
0.825832
11
1.62452
21
0.827707
0
LINE
8
BLACK
6
CONTINUOUS
10
1.62452
20
0.827707
11
1.6255
21
0.827999
0
LINE
8
BLACK
6
CONTINUOUS
10
1.6255
20
0.827999
11
1.62567
21
0.827958
0
LINE
8
BLACK
6
CONTINUOUS
10
1.62567
20
0.827958
11
1.62584
21
0.828018
0
LINE
8
BLACK
6
CONTINUOUS
10
1.62584
20
0.828018
11
1.63521
21
0.828018
0
LINE
8
BLACK
6
CONTINUOUS
10
1.63521
20
0.828018
11
1.63622
21
0.82784
0
LINE
8
BLACK
6
CONTINUOUS
10
1.7248
20
1.00079
11
1.7262
21
1.00021
0
LINE
8
BLACK
6
CONTINUOUS
10
1.7262
20
1.00021
11
1.72677
21
0.998819
0
LINE
8
BLACK
6
CONTINUOUS
10
1.72677
20
0.998819
11
1.72677
21
0.598819
0
LINE
8
BLACK
6
CONTINUOUS
10
1.72677
20
0.598819
11
1.7262
21
0.597427
0
LINE
8
BLACK
6
CONTINUOUS
10
1.7262
20
0.597427
11
1.7248
21
0.59685
0
LINE
8
BLACK
6
CONTINUOUS
10
1.7248
20
0.59685
11
1.5248
21
0.59685
0
LINE
8
BLACK
6
CONTINUOUS
10
1.5248
20
0.59685
11
1.52341
21
0.597427
0
LINE
8
BLACK
6
CONTINUOUS
10
1.52341
20
0.597427
11
1.52283
21
0.598819
0
LINE
8
BLACK
6
CONTINUOUS
10
1.52283
20
0.598819
11
1.52283
21
0.948819
0
LINE
8
BLACK
6
CONTINUOUS
10
1.52283
20
0.948819
11
1.52341
21
0.950211
0
LINE
8
BLACK
6
CONTINUOUS
10
1.52341
20
0.950211
11
1.57341
21
1.00021
0
LINE
8
BLACK
6
CONTINUOUS
10
1.57341
20
1.00021
11
1.57355
21
1.00027
0
LINE
8
BLACK
6
CONTINUOUS
10
1.57355
20
1.00027
11
1.5748
21
1.00079
0
LINE
8
BLACK
6
CONTINUOUS
10
1.5748
20
1.00079
11
1.7248
21
1.00079
0
LINE
8
BLACK
6
CONTINUOUS
10
1.57562
20
0.99685
11
1.52677
21
0.948004
0
LINE
8
BLACK
6
CONTINUOUS
10
1.52677
20
0.948004
11
1.52677
21
0.600787
0
LINE
8
BLACK
6
CONTINUOUS
10
1.52677
20
0.600787
11
1.72283
21
0.600787
0
LINE
8
BLACK
6
CONTINUOUS
10
1.72283
20
0.600787
11
1.72283
21
0.99685
0
LINE
8
BLACK
6
CONTINUOUS
10
1.72283
20
0.99685
11
1.57562
21
0.99685
0
LINE
8
BLACK
6
CONTINUOUS
10
1.09896
20
0.705403
11
1.0991
21
0.703601
0
LINE
8
BLACK
6
CONTINUOUS
10
1.0991
20
0.703601
11
1.09792
21
0.702226
0
LINE
8
BLACK
6
CONTINUOUS
10
1.09792
20
0.702226
11
1.09685
21
0.701679
0
LINE
8
BLACK
6
CONTINUOUS
10
1.09685
20
0.701679
11
1.09685
21
0.603045
0
LINE
8
BLACK
6
CONTINUOUS
10
1.09685
20
0.603045
11
1.09792
21
0.602498
0
LINE
8
BLACK
6
CONTINUOUS
10
1.09792
20
0.602498
11
1.0991
21
0.601123
0
LINE
8
BLACK
6
CONTINUOUS
10
1.0991
20
0.601123
11
1.09896
21
0.599321
0
LINE
8
BLACK
6
CONTINUOUS
10
1.09896
20
0.599321
11
1.09758
21
0.598147
0
LINE
8
BLACK
6
CONTINUOUS
10
1.09758
20
0.598147
11
1.09578
21
0.598289
0
LINE
8
BLACK
6
CONTINUOUS
10
1.09578
20
0.598289
11
1.09165
21
0.600394
0
LINE
8
BLACK
6
CONTINUOUS
10
1.09165
20
0.600394
11
0.898116
21
0.600394
0
LINE
8
BLACK
6
CONTINUOUS
10
0.898116
20
0.600394
11
0.893986
21
0.598289
0
LINE
8
BLACK
6
CONTINUOUS
10
0.893986
20
0.598289
11
0.892184
21
0.598147
0
LINE
8
BLACK
6
CONTINUOUS
10
0.892184
20
0.598147
11
0.890809
21
0.599321
0
LINE
8
BLACK
6
CONTINUOUS
10
0.890809
20
0.599321
11
0.890667
21
0.601123
0
LINE
8
BLACK
6
CONTINUOUS
10
0.890667
20
0.601123
11
0.891841
21
0.602498
0
LINE
8
BLACK
6
CONTINUOUS
10
0.891841
20
0.602498
11
0.892913
21
0.603045
0
LINE
8
BLACK
6
CONTINUOUS
10
0.892913
20
0.603045
11
0.892913
21
0.652362
0
LINE
8
BLACK
6
CONTINUOUS
10
0.892913
20
0.652362
11
0.89349
21
0.653754
0
LINE
8
BLACK
6
CONTINUOUS
10
0.89349
20
0.653754
11
0.89349
21
0.653754
0
LINE
8
BLACK
6
CONTINUOUS
10
0.89349
20
0.653754
11
0.925041
21
0.685305
0
LINE
8
BLACK
6
CONTINUOUS
10
0.925041
20
0.685305
11
0.891841
21
0.702226
0
LINE
8
BLACK
6
CONTINUOUS
10
0.891841
20
0.702226
11
0.890667
21
0.703601
0
LINE
8
BLACK
6
CONTINUOUS
10
0.890667
20
0.703601
11
0.890809
21
0.705403
0
LINE
8
BLACK
6
CONTINUOUS
10
0.890809
20
0.705403
11
0.892184
21
0.706577
0
LINE
8
BLACK
6
CONTINUOUS
10
0.892184
20
0.706577
11
0.893986
21
0.706435
0
LINE
8
BLACK
6
CONTINUOUS
10
0.893986
20
0.706435
11
0.928554
21
0.688818
0
LINE
8
BLACK
6
CONTINUOUS
10
0.928554
20
0.688818
11
0.94349
21
0.703754
0
LINE
8
BLACK
6
CONTINUOUS
10
0.94349
20
0.703754
11
0.94349
21
0.703754
0
LINE
8
BLACK
6
CONTINUOUS
10
0.94349
20
0.703754
11
0.944882
21
0.704331
0
LINE
8
BLACK
6
CONTINUOUS
10
0.944882
20
0.704331
11
1.09165
21
0.704331
0
LINE
8
BLACK
6
CONTINUOUS
10
1.09165
20
0.704331
11
1.09578
21
0.706435
0
LINE
8
BLACK
6
CONTINUOUS
10
1.09578
20
0.706435
11
1.09758
21
0.706577
0
LINE
8
BLACK
6
CONTINUOUS
10
1.09758
20
0.706577
11
1.09896
21
0.705403
0
LINE
8
BLACK
6
CONTINUOUS
10
0.980128
20
0.642192
11
1.00154
21
0.642192
0
LINE
8
BLACK
6
CONTINUOUS
10
1.00154
20
0.642192
11
1.00241
21
0.642038
0
LINE
8
BLACK
6
CONTINUOUS
10
1.00241
20
0.642038
11
1.00247
21
0.64204
0
LINE
8
BLACK
6
CONTINUOUS
10
1.00247
20
0.64204
11
1.0081
21
0.640165
0
LINE
8
BLACK
6
CONTINUOUS
10
1.0081
20
0.640165
11
1.009
21
0.639677
0
LINE
8
BLACK
6
CONTINUOUS
10
1.009
20
0.639677
11
1.00909
21
0.639527
0
LINE
8
BLACK
6
CONTINUOUS
10
1.00909
20
0.639527
11
1.00925
21
0.639452
0
LINE
8
BLACK
6
CONTINUOUS
10
1.00925
20
0.639452
11
1.013
21
0.635702
0
LINE
8
BLACK
6
CONTINUOUS
10
1.013
20
0.635702
11
1.01359
21
0.634862
0
LINE
8
BLACK
6
CONTINUOUS
10
1.01359
20
0.634862
11
1.0136
21
0.634687
0
LINE
8
BLACK
6
CONTINUOUS
10
1.0136
20
0.634687
11
1.01371
21
0.634548
0
LINE
8
BLACK
6
CONTINUOUS
10
1.01371
20
0.634548
11
1.01559
21
0.628924
0
LINE
8
BLACK
6
CONTINUOUS
10
1.01559
20
0.628924
11
1.01572
21
0.628051
0
LINE
8
BLACK
6
CONTINUOUS
10
1.01572
20
0.628051
11
1.01574
21
0.62799
0
LINE
8
BLACK
6
CONTINUOUS
10
1.01574
20
0.62799
11
1.01574
21
0.624241
0
LINE
8
BLACK
6
CONTINUOUS
10
1.01574
20
0.624241
11
1.01556
21
0.623231
0
LINE
8
BLACK
6
CONTINUOUS
10
1.01556
20
0.623231
11
1.01426
21
0.621684
0
LINE
8
BLACK
6
CONTINUOUS
10
1.01426
20
0.621684
11
1.01228
21
0.621333
0
LINE
8
BLACK
6
CONTINUOUS
10
1.01228
20
0.621333
11
1.01053
21
0.622343
0
LINE
8
BLACK
6
CONTINUOUS
10
1.01053
20
0.622343
11
1.00984
21
0.624241
0
LINE
8
BLACK
6
CONTINUOUS
10
1.00984
20
0.624241
11
1.00984
21
0.627511
0
LINE
8
BLACK
6
CONTINUOUS
10
1.00984
20
0.627511
11
1.00833
21
0.63202
0
LINE
8
BLACK
6
CONTINUOUS
10
1.00833
20
0.63202
11
1.00557
21
0.634783
0
LINE
8
BLACK
6
CONTINUOUS
10
1.00557
20
0.634783
11
1.00106
21
0.636286
0
LINE
8
BLACK
6
CONTINUOUS
10
1.00106
20
0.636286
11
0.973418
21
0.636286
0
LINE
8
BLACK
6
CONTINUOUS
10
0.973418
20
0.636286
11
0.972408
21
0.636464
0
LINE
8
BLACK
6
CONTINUOUS
10
0.972408
20
0.636464
11
0.971079
21
0.63758
0
LINE
8
BLACK
6
CONTINUOUS
10
0.971079
20
0.63758
11
0.90584
21
0.604331
0
LINE
8
BLACK
6
CONTINUOUS
10
0.90584
20
0.604331
11
1.08392
21
0.604331
0
LINE
8
BLACK
6
CONTINUOUS
10
1.08392
20
0.604331
11
0.994882
21
0.649711
0
LINE
8
BLACK
6
CONTINUOUS
10
0.994882
20
0.649711
11
0.980128
21
0.642192
0
LINE
8
BLACK
6
CONTINUOUS
10
0.89685
20
0.651547
11
0.89685
21
0.605052
0
LINE
8
BLACK
6
CONTINUOUS
10
0.89685
20
0.605052
11
0.98968
21
0.652362
0
LINE
8
BLACK
6
CONTINUOUS
10
0.98968
20
0.652362
11
0.987164
21
0.653644
0
LINE
8
BLACK
6
CONTINUOUS
10
0.987164
20
0.653644
11
0.973124
21
0.655048
0
LINE
8
BLACK
6
CONTINUOUS
10
0.973124
20
0.655048
11
0.972974
21
0.655091
0
LINE
8
BLACK
6
CONTINUOUS
10
0.972974
20
0.655091
11
0.972905
21
0.655079
0
LINE
8
BLACK
6
CONTINUOUS
10
0.972905
20
0.655079
11
0.972799
21
0.65514
0
LINE
8
BLACK
6
CONTINUOUS
10
0.972799
20
0.65514
11
0.972137
21
0.655326
0
LINE
8
BLACK
6
CONTINUOUS
10
0.972137
20
0.655326
11
0.971699
21
0.655775
0
LINE
8
BLACK
6
CONTINUOUS
10
0.971699
20
0.655775
11
0.971156
21
0.656089
0
LINE
8
BLACK
6
CONTINUOUS
10
0.971156
20
0.656089
11
0.971015
21
0.656476
0
LINE
8
BLACK
6
CONTINUOUS
10
0.971015
20
0.656476
11
0.970727
21
0.656772
0
LINE
8
BLACK
6
CONTINUOUS
10
0.970727
20
0.656772
11
0.97068
21
0.657397
0
LINE
8
BLACK
6
CONTINUOUS
10
0.97068
20
0.657397
11
0.970465
21
0.657987
0
LINE
8
BLACK
6
CONTINUOUS
10
0.970465
20
0.657987
11
0.970465
21
0.662155
0
LINE
8
BLACK
6
CONTINUOUS
10
0.970465
20
0.662155
11
0.928729
21
0.683426
0
LINE
8
BLACK
6
CONTINUOUS
10
0.928729
20
0.683426
11
0.89685
21
0.651547
0
LINE
8
BLACK
6
CONTINUOUS
10
1.01527
20
0.660103
11
1.01355
21
0.656666
0
LINE
8
BLACK
6
CONTINUOUS
10
1.01355
20
0.656666
11
1.01303
21
0.655957
0
LINE
8
BLACK
6
CONTINUOUS
10
1.01303
20
0.655957
11
1.013
21
0.655899
0
LINE
8
BLACK
6
CONTINUOUS
10
1.013
20
0.655899
11
1.01113
21
0.654024
0
LINE
8
BLACK
6
CONTINUOUS
10
1.01113
20
0.654024
11
1.01029
21
0.653436
0
LINE
8
BLACK
6
CONTINUOUS
10
1.01029
20
0.653436
11
1.00827
21
0.65326
0
LINE
8
BLACK
6
CONTINUOUS
10
1.00827
20
0.65326
11
1.00662
21
0.654418
0
LINE
8
BLACK
6
CONTINUOUS
10
1.00662
20
0.654418
11
1.00632
21
0.65554
0
LINE
8
BLACK
6
CONTINUOUS
10
1.00632
20
0.65554
11
1.00008
21
0.652362
0
LINE
8
BLACK
6
CONTINUOUS
10
1.00008
20
0.652362
11
1.09291
21
0.605052
0
LINE
8
BLACK
6
CONTINUOUS
10
1.09291
20
0.605052
11
1.09291
21
0.699673
0
LINE
8
BLACK
6
CONTINUOUS
10
1.09291
20
0.699673
11
1.01527
21
0.660103
0
LINE
8
BLACK
6
CONTINUOUS
10
0.993915
20
0.674307
11
0.992718
21
0.67311
0
LINE
8
BLACK
6
CONTINUOUS
10
0.992718
20
0.67311
11
0.991369
21
0.670413
0
LINE
8
BLACK
6
CONTINUOUS
10
0.991369
20
0.670413
11
0.991369
21
0.662433
0
LINE
8
BLACK
6
CONTINUOUS
10
0.991369
20
0.662433
11
0.992718
21
0.659736
0
LINE
8
BLACK
6
CONTINUOUS
10
0.992718
20
0.659736
11
0.994254
21
0.6582
0
LINE
8
BLACK
6
CONTINUOUS
10
0.994254
20
0.6582
11
0.994842
21
0.65736
0
LINE
8
BLACK
6
CONTINUOUS
10
0.994842
20
0.65736
11
0.994843
21
0.65734
0
LINE
8
BLACK
6
CONTINUOUS
10
0.994843
20
0.65734
11
0.994857
21
0.657326
0
LINE
8
BLACK
6
CONTINUOUS
10
0.994857
20
0.657326
11
0.994931
21
0.656336
0
LINE
8
BLACK
6
CONTINUOUS
10
0.994931
20
0.656336
11
0.995018
21
0.655348
0
LINE
8
BLACK
6
CONTINUOUS
10
0.995018
20
0.655348
11
0.995007
21
0.655332
0
LINE
8
BLACK
6
CONTINUOUS
10
0.995007
20
0.655332
11
0.995008
21
0.655312
0
LINE
8
BLACK
6
CONTINUOUS
10
0.995008
20
0.655312
11
0.994817
21
0.655047
0
LINE
8
BLACK
6
CONTINUOUS
10
0.994817
20
0.655047
11
0.994882
21
0.655014
0
LINE
8
BLACK
6
CONTINUOUS
10
0.994882
20
0.655014
11
1.00984
21
0.662635
0
LINE
8
BLACK
6
CONTINUOUS
10
1.00984
20
0.662635
11
1.00984
21
0.670413
0
LINE
8
BLACK
6
CONTINUOUS
10
1.00984
20
0.670413
11
1.00849
21
0.67311
0
LINE
8
BLACK
6
CONTINUOUS
10
1.00849
20
0.67311
11
1.00729
21
0.674307
0
LINE
8
BLACK
6
CONTINUOUS
10
1.00729
20
0.674307
11
1.00459
21
0.675656
0
LINE
8
BLACK
6
CONTINUOUS
10
1.00459
20
0.675656
11
0.996612
21
0.675656
0
LINE
8
BLACK
6
CONTINUOUS
10
0.996612
20
0.675656
11
0.993915
21
0.674307
0
LINE
8
BLACK
6
CONTINUOUS
10
0.945697
20
0.700394
11
0.932242
21
0.686938
0
LINE
8
BLACK
6
CONTINUOUS
10
0.932242
20
0.686938
11
0.970465
21
0.667458
0
LINE
8
BLACK
6
CONTINUOUS
10
0.970465
20
0.667458
11
0.970465
21
0.676734
0
LINE
8
BLACK
6
CONTINUOUS
10
0.970465
20
0.676734
11
0.970643
21
0.677744
0
LINE
8
BLACK
6
CONTINUOUS
10
0.970643
20
0.677744
11
0.971942
21
0.679291
0
LINE
8
BLACK
6
CONTINUOUS
10
0.971942
20
0.679291
11
0.973931
21
0.679642
0
LINE
8
BLACK
6
CONTINUOUS
10
0.973931
20
0.679642
11
0.97568
21
0.678632
0
LINE
8
BLACK
6
CONTINUOUS
10
0.97568
20
0.678632
11
0.976371
21
0.676734
0
LINE
8
BLACK
6
CONTINUOUS
10
0.976371
20
0.676734
11
0.976371
21
0.664448
0
LINE
8
BLACK
6
CONTINUOUS
10
0.976371
20
0.664448
11
0.98562
21
0.659734
0
LINE
8
BLACK
6
CONTINUOUS
10
0.98562
20
0.659734
11
0.986142
21
0.659682
0
LINE
8
BLACK
6
CONTINUOUS
10
0.986142
20
0.659682
11
0.985775
21
0.660416
0
LINE
8
BLACK
6
CONTINUOUS
10
0.985775
20
0.660416
11
0.985483
21
0.661399
0
LINE
8
BLACK
6
CONTINUOUS
10
0.985483
20
0.661399
11
0.985524
21
0.66157
0
LINE
8
BLACK
6
CONTINUOUS
10
0.985524
20
0.66157
11
0.985463
21
0.661736
0
LINE
8
BLACK
6
CONTINUOUS
10
0.985463
20
0.661736
11
0.985463
21
0.67111
0
LINE
8
BLACK
6
CONTINUOUS
10
0.985463
20
0.67111
11
0.985641
21
0.67212
0
LINE
8
BLACK
6
CONTINUOUS
10
0.985641
20
0.67212
11
0.985755
21
0.672255
0
LINE
8
BLACK
6
CONTINUOUS
10
0.985755
20
0.672255
11
0.985775
21
0.67243
0
LINE
8
BLACK
6
CONTINUOUS
10
0.985775
20
0.67243
11
0.98765
21
0.67618
0
LINE
8
BLACK
6
CONTINUOUS
10
0.98765
20
0.67618
11
0.988176
21
0.676889
0
LINE
8
BLACK
6
CONTINUOUS
10
0.988176
20
0.676889
11
0.988203
21
0.676947
0
LINE
8
BLACK
6
CONTINUOUS
10
0.988203
20
0.676947
11
0.990078
21
0.678822
0
LINE
8
BLACK
6
CONTINUOUS
10
0.990078
20
0.678822
11
0.990801
21
0.679328
0
LINE
8
BLACK
6
CONTINUOUS
10
0.990801
20
0.679328
11
0.990845
21
0.679375
0
LINE
8
BLACK
6
CONTINUOUS
10
0.990845
20
0.679375
11
0.994595
21
0.68125
0
LINE
8
BLACK
6
CONTINUOUS
10
0.994595
20
0.68125
11
0.995578
21
0.681542
0
LINE
8
BLACK
6
CONTINUOUS
10
0.995578
20
0.681542
11
0.995749
21
0.681501
0
LINE
8
BLACK
6
CONTINUOUS
10
0.995749
20
0.681501
11
0.995915
21
0.681562
0
LINE
8
BLACK
6
CONTINUOUS
10
0.995915
20
0.681562
11
1.00529
21
0.681562
0
LINE
8
BLACK
6
CONTINUOUS
10
1.00529
20
0.681562
11
1.0063
21
0.681384
0
LINE
8
BLACK
6
CONTINUOUS
10
1.0063
20
0.681384
11
1.00643
21
0.68127
0
LINE
8
BLACK
6
CONTINUOUS
10
1.00643
20
0.68127
11
1.00661
21
0.68125
0
LINE
8
BLACK
6
CONTINUOUS
10
1.00661
20
0.68125
11
1.01036
21
0.679375
0
LINE
8
BLACK
6
CONTINUOUS
10
1.01036
20
0.679375
11
1.01107
21
0.678849
0
LINE
8
BLACK
6
CONTINUOUS
10
1.01107
20
0.678849
11
1.01113
21
0.678822
0
LINE
8
BLACK
6
CONTINUOUS
10
1.01113
20
0.678822
11
1.013
21
0.676947
0
LINE
8
BLACK
6
CONTINUOUS
10
1.013
20
0.676947
11
1.01351
21
0.676224
0
LINE
8
BLACK
6
CONTINUOUS
10
1.01351
20
0.676224
11
1.01355
21
0.67618
0
LINE
8
BLACK
6
CONTINUOUS
10
1.01355
20
0.67618
11
1.01543
21
0.67243
0
LINE
8
BLACK
6
CONTINUOUS
10
1.01543
20
0.67243
11
1.01572
21
0.671447
0
LINE
8
BLACK
6
CONTINUOUS
10
1.01572
20
0.671447
11
1.01568
21
0.671276
0
LINE
8
BLACK
6
CONTINUOUS
10
1.01568
20
0.671276
11
1.01574
21
0.67111
0
LINE
8
BLACK
6
CONTINUOUS
10
1.01574
20
0.67111
11
1.01574
21
0.665644
0
LINE
8
BLACK
6
CONTINUOUS
10
1.01574
20
0.665644
11
1.08392
21
0.700394
0
LINE
8
BLACK
6
CONTINUOUS
10
1.08392
20
0.700394
11
0.945697
21
0.700394
0
LINE
8
BLACK
6
CONTINUOUS
10
0.618747
20
0.970188
11
0.618812
21
0.97019
0
LINE
8
BLACK
6
CONTINUOUS
10
0.618812
20
0.97019
11
0.624436
21
0.968315
0
LINE
8
BLACK
6
CONTINUOUS
10
0.624436
20
0.968315
11
0.625338
21
0.967827
0
LINE
8
BLACK
6
CONTINUOUS
10
0.625338
20
0.967827
11
0.62543
21
0.967676
0
LINE
8
BLACK
6
CONTINUOUS
10
0.62543
20
0.967676
11
0.62559
21
0.967602
0
LINE
8
BLACK
6
CONTINUOUS
10
0.62559
20
0.967602
11
0.62934
21
0.963852
0
LINE
8
BLACK
6
CONTINUOUS
10
0.62934
20
0.963852
11
0.629928
21
0.963012
0
LINE
8
BLACK
6
CONTINUOUS
10
0.629928
20
0.963012
11
0.629943
21
0.962836
0
LINE
8
BLACK
6
CONTINUOUS
10
0.629943
20
0.962836
11
0.630053
21
0.962698
0
LINE
8
BLACK
6
CONTINUOUS
10
0.630053
20
0.962698
11
0.631928
21
0.957074
0
LINE
8
BLACK
6
CONTINUOUS
10
0.631928
20
0.957074
11
0.632057
21
0.9562
0
LINE
8
BLACK
6
CONTINUOUS
10
0.632057
20
0.9562
11
0.632079
21
0.95614
0
LINE
8
BLACK
6
CONTINUOUS
10
0.632079
20
0.95614
11
0.632079
21
0.95239
0
LINE
8
BLACK
6
CONTINUOUS
10
0.632079
20
0.95239
11
0.631901
21
0.95138
0
LINE
8
BLACK
6
CONTINUOUS
10
0.631901
20
0.95138
11
0.630603
21
0.949833
0
LINE
8
BLACK
6
CONTINUOUS
10
0.630603
20
0.949833
11
0.628614
21
0.949482
0
LINE
8
BLACK
6
CONTINUOUS
10
0.628614
20
0.949482
11
0.626865
21
0.950492
0
LINE
8
BLACK
6
CONTINUOUS
10
0.626865
20
0.950492
11
0.626174
21
0.95239
0
LINE
8
BLACK
6
CONTINUOUS
10
0.626174
20
0.95239
11
0.626174
21
0.955661
0
LINE
8
BLACK
6
CONTINUOUS
10
0.626174
20
0.955661
11
0.624671
21
0.960169
0
LINE
8
BLACK
6
CONTINUOUS
10
0.624671
20
0.960169
11
0.621907
21
0.962933
0
LINE
8
BLACK
6
CONTINUOUS
10
0.621907
20
0.962933
11
0.617399
21
0.964436
0
LINE
8
BLACK
6
CONTINUOUS
10
0.617399
20
0.964436
11
0.589757
21
0.964436
0
LINE
8
BLACK
6
CONTINUOUS
10
0.589757
20
0.964436
11
0.588747
21
0.964614
0
LINE
8
BLACK
6
CONTINUOUS
10
0.588747
20
0.964614
11
0.587199
21
0.965912
0
LINE
8
BLACK
6
CONTINUOUS
10
0.587199
20
0.965912
11
0.586849
21
0.967901
0
LINE
8
BLACK
6
CONTINUOUS
10
0.586849
20
0.967901
11
0.587859
21
0.96965
0
LINE
8
BLACK
6
CONTINUOUS
10
0.587859
20
0.96965
11
0.589757
21
0.970341
0
LINE
8
BLACK
6
CONTINUOUS
10
0.589757
20
0.970341
11
0.617878
21
0.970341
0
LINE
8
BLACK
6
CONTINUOUS
10
0.617878
20
0.970341
11
0.618747
21
0.970188
0
LINE
8
BLACK
6
CONTINUOUS
10
0.622638
20
1.00953
11
0.622773
21
1.00942
0
LINE
8
BLACK
6
CONTINUOUS
10
0.622773
20
1.00942
11
0.622948
21
1.0094
0
LINE
8
BLACK
6
CONTINUOUS
10
0.622948
20
1.0094
11
0.626698
21
1.00752
0
LINE
8
BLACK
6
CONTINUOUS
10
0.626698
20
1.00752
11
0.627407
21
1.007
0
LINE
8
BLACK
6
CONTINUOUS
10
0.627407
20
1.007
11
0.627465
21
1.00697
0
LINE
8
BLACK
6
CONTINUOUS
10
0.627465
20
1.00697
11
0.62934
21
1.0051
0
LINE
8
BLACK
6
CONTINUOUS
10
0.62934
20
1.0051
11
0.629846
21
1.00437
0
LINE
8
BLACK
6
CONTINUOUS
10
0.629846
20
1.00437
11
0.629893
21
1.00433
0
LINE
8
BLACK
6
CONTINUOUS
10
0.629893
20
1.00433
11
0.631768
21
1.00058
0
LINE
8
BLACK
6
CONTINUOUS
10
0.631768
20
1.00058
11
0.63206
21
0.999597
0
LINE
8
BLACK
6
CONTINUOUS
10
0.63206
20
0.999597
11
0.632019
21
0.999425
0
LINE
8
BLACK
6
CONTINUOUS
10
0.632019
20
0.999425
11
0.632079
21
0.999259
0
LINE
8
BLACK
6
CONTINUOUS
10
0.632079
20
0.999259
11
0.632079
21
0.99176
0
LINE
8
BLACK
6
CONTINUOUS
10
0.632079
20
0.99176
11
0.631901
21
0.990751
0
LINE
8
BLACK
6
CONTINUOUS
10
0.631901
20
0.990751
11
0.631788
21
0.990615
0
LINE
8
BLACK
6
CONTINUOUS
10
0.631788
20
0.990615
11
0.631768
21
0.99044
0
LINE
8
BLACK
6
CONTINUOUS
10
0.631768
20
0.99044
11
0.629893
21
0.98669
0
LINE
8
BLACK
6
CONTINUOUS
10
0.629893
20
0.98669
11
0.629367
21
0.985981
0
LINE
8
BLACK
6
CONTINUOUS
10
0.629367
20
0.985981
11
0.62934
21
0.985923
0
LINE
8
BLACK
6
CONTINUOUS
10
0.62934
20
0.985923
11
0.627465
21
0.984048
0
LINE
8
BLACK
6
CONTINUOUS
10
0.627465
20
0.984048
11
0.626742
21
0.983542
0
LINE
8
BLACK
6
CONTINUOUS
10
0.626742
20
0.983542
11
0.626698
21
0.983495
0
LINE
8
BLACK
6
CONTINUOUS
10
0.626698
20
0.983495
11
0.622948
21
0.98162
0
LINE
8
BLACK
6
CONTINUOUS
10
0.622948
20
0.98162
11
0.621965
21
0.981328
0
LINE
8
BLACK
6
CONTINUOUS
10
0.621965
20
0.981328
11
0.621794
21
0.981369
0
LINE
8
BLACK
6
CONTINUOUS
10
0.621794
20
0.981369
11
0.621628
21
0.981309
0
LINE
8
BLACK
6
CONTINUOUS
10
0.621628
20
0.981309
11
0.60663
21
0.981309
0
LINE
8
BLACK
6
CONTINUOUS
10
0.60663
20
0.981309
11
0.606049
21
0.981411
0
LINE
8
BLACK
6
CONTINUOUS
10
0.606049
20
0.981411
11
0.605913
21
0.981397
0
LINE
8
BLACK
6
CONTINUOUS
10
0.605913
20
0.981397
11
0.598414
21
0.983272
0
LINE
8
BLACK
6
CONTINUOUS
10
0.598414
20
0.983272
11
0.597509
21
0.983675
0
LINE
8
BLACK
6
CONTINUOUS
10
0.597509
20
0.983675
11
0.597493
21
0.983679
0
LINE
8
BLACK
6
CONTINUOUS
10
0.597493
20
0.983679
11
0.591868
21
0.987429
0
LINE
8
BLACK
6
CONTINUOUS
10
0.591868
20
0.987429
11
0.591543
21
0.98774
0
LINE
8
BLACK
6
CONTINUOUS
10
0.591543
20
0.98774
11
0.591418
21
0.987798
0
LINE
8
BLACK
6
CONTINUOUS
10
0.591418
20
0.987798
11
0.589544
21
0.989673
0
LINE
8
BLACK
6
CONTINUOUS
10
0.589544
20
0.989673
11
0.589037
21
0.990396
0
LINE
8
BLACK
6
CONTINUOUS
10
0.589037
20
0.990396
11
0.58899
21
0.99044
0
LINE
8
BLACK
6
CONTINUOUS
10
0.58899
20
0.99044
11
0.587116
21
0.994189
0
LINE
8
BLACK
6
CONTINUOUS
10
0.587116
20
0.994189
11
0.586823
21
0.995172
0
LINE
8
BLACK
6
CONTINUOUS
10
0.586823
20
0.995172
11
0.586864
21
0.995344
0
LINE
8
BLACK
6
CONTINUOUS
10
0.586864
20
0.995344
11
0.586804
21
0.99551
0
LINE
8
BLACK
6
CONTINUOUS
10
0.586804
20
0.99551
11
0.586804
21
1.00301
0
LINE
8
BLACK
6
CONTINUOUS
10
0.586804
20
1.00301
11
0.586982
21
1.00402
0
LINE
8
BLACK
6
CONTINUOUS
10
0.586982
20
1.00402
11
0.58828
21
1.00557
0
LINE
8
BLACK
6
CONTINUOUS
10
0.58828
20
1.00557
11
0.590269
21
1.00592
0
LINE
8
BLACK
6
CONTINUOUS
10
0.590269
20
1.00592
11
0.592019
21
1.00491
0
LINE
8
BLACK
6
CONTINUOUS
10
0.592019
20
1.00491
11
0.592709
21
1.00301
0
LINE
8
BLACK
6
CONTINUOUS
10
0.592709
20
1.00301
11
0.592709
21
0.996207
0
LINE
8
BLACK
6
CONTINUOUS
10
0.592709
20
0.996207
11
0.594058
21
0.99351
0
LINE
8
BLACK
6
CONTINUOUS
10
0.594058
20
0.99351
11
0.595387
21
0.99218
0
LINE
8
BLACK
6
CONTINUOUS
10
0.595387
20
0.99218
11
0.600343
21
0.988877
0
LINE
8
BLACK
6
CONTINUOUS
10
0.600343
20
0.988877
11
0.60326
21
0.988147
0
LINE
8
BLACK
6
CONTINUOUS
10
0.60326
20
0.988147
11
0.602114
21
0.99044
0
LINE
8
BLACK
6
CONTINUOUS
10
0.602114
20
0.99044
11
0.601821
21
0.991423
0
LINE
8
BLACK
6
CONTINUOUS
10
0.601821
20
0.991423
11
0.601862
21
0.991595
0
LINE
8
BLACK
6
CONTINUOUS
10
0.601862
20
0.991595
11
0.601802
21
0.99176
0
LINE
8
BLACK
6
CONTINUOUS
10
0.601802
20
0.99176
11
0.601802
21
0.999259
0
LINE
8
BLACK
6
CONTINUOUS
10
0.601802
20
0.999259
11
0.60198
21
1.00027
0
LINE
8
BLACK
6
CONTINUOUS
10
0.60198
20
1.00027
11
0.602094
21
1.0004
0
LINE
8
BLACK
6
CONTINUOUS
10
0.602094
20
1.0004
11
0.602114
21
1.00058
0
LINE
8
BLACK
6
CONTINUOUS
10
0.602114
20
1.00058
11
0.603989
21
1.00433
0
LINE
8
BLACK
6
CONTINUOUS
10
0.603989
20
1.00433
11
0.604514
21
1.00504
0
LINE
8
BLACK
6
CONTINUOUS
10
0.604514
20
1.00504
11
0.604542
21
1.0051
0
LINE
8
BLACK
6
CONTINUOUS
10
0.604542
20
1.0051
11
0.606416
21
1.00697
0
LINE
8
BLACK
6
CONTINUOUS
10
0.606416
20
1.00697
11
0.607139
21
1.00748
0
LINE
8
BLACK
6
CONTINUOUS
10
0.607139
20
1.00748
11
0.607184
21
1.00752
0
LINE
8
BLACK
6
CONTINUOUS
10
0.607184
20
1.00752
11
0.610933
21
1.0094
0
LINE
8
BLACK
6
CONTINUOUS
10
0.610933
20
1.0094
11
0.611916
21
1.00969
0
LINE
8
BLACK
6
CONTINUOUS
10
0.611916
20
1.00969
11
0.612088
21
1.00965
0
LINE
8
BLACK
6
CONTINUOUS
10
0.612088
20
1.00965
11
0.612254
21
1.00971
0
LINE
8
BLACK
6
CONTINUOUS
10
0.612254
20
1.00971
11
0.621628
21
1.00971
0
LINE
8
BLACK
6
CONTINUOUS
10
0.621628
20
1.00971
11
0.622638
21
1.00953
0
LINE
8
BLACK
6
CONTINUOUS
10
0.610253
20
1.00246
11
0.609056
21
1.00126
0
LINE
8
BLACK
6
CONTINUOUS
10
0.609056
20
1.00126
11
0.607708
21
0.998562
0
LINE
8
BLACK
6
CONTINUOUS
10
0.607708
20
0.998562
11
0.607708
21
0.992457
0
LINE
8
BLACK
6
CONTINUOUS
10
0.607708
20
0.992457
11
0.609056
21
0.98976
0
LINE
8
BLACK
6
CONTINUOUS
10
0.609056
20
0.98976
11
0.610253
21
0.988563
0
LINE
8
BLACK
6
CONTINUOUS
10
0.610253
20
0.988563
11
0.612951
21
0.987214
0
LINE
8
BLACK
6
CONTINUOUS
10
0.612951
20
0.987214
11
0.620931
21
0.987214
0
LINE
8
BLACK
6
CONTINUOUS
10
0.620931
20
0.987214
11
0.623628
21
0.988563
0
LINE
8
BLACK
6
CONTINUOUS
10
0.623628
20
0.988563
11
0.624825
21
0.98976
0
LINE
8
BLACK
6
CONTINUOUS
10
0.624825
20
0.98976
11
0.626174
21
0.992458
0
LINE
8
BLACK
6
CONTINUOUS
10
0.626174
20
0.992458
11
0.626174
21
0.998562
0
LINE
8
BLACK
6
CONTINUOUS
10
0.626174
20
0.998562
11
0.624825
21
1.00126
0
LINE
8
BLACK
6
CONTINUOUS
10
0.624825
20
1.00126
11
0.623628
21
1.00246
0
LINE
8
BLACK
6
CONTINUOUS
10
0.623628
20
1.00246
11
0.620931
21
1.00381
0
LINE
8
BLACK
6
CONTINUOUS
10
0.620931
20
1.00381
11
0.612951
21
1.00381
0
LINE
8
BLACK
6
CONTINUOUS
10
0.612951
20
1.00381
11
0.610253
21
1.00246
0
LINE
8
BLACK
6
CONTINUOUS
10
0.71122
20
1.33248
11
0.712612
21
1.3319
0
LINE
8
BLACK
6
CONTINUOUS
10
0.712612
20
1.3319
11
0.713189
21
1.33051
0
LINE
8
BLACK
6
CONTINUOUS
10
0.713189
20
1.33051
11
0.713189
21
0.630512
0
LINE
8
BLACK
6
CONTINUOUS
10
0.713189
20
0.630512
11
0.712612
21
0.62912
0
LINE
8
BLACK
6
CONTINUOUS
10
0.712612
20
0.62912
11
0.71122
21
0.628543
0
LINE
8
BLACK
6
CONTINUOUS
10
0.71122
20
0.628543
11
0.51122
21
0.628543
0
LINE
8
BLACK
6
CONTINUOUS
10
0.51122
20
0.628543
11
0.509829
21
0.62912
0
LINE
8
BLACK
6
CONTINUOUS
10
0.509829
20
0.62912
11
0.509252
21
0.630512
0
LINE
8
BLACK
6
CONTINUOUS
10
0.509252
20
0.630512
11
0.509252
21
0.630512
0
LINE
8
BLACK
6
CONTINUOUS
10
0.509252
20
0.630512
11
0.509252
21
1.28051
0
LINE
8
BLACK
6
CONTINUOUS
10
0.509252
20
1.28051
11
0.509829
21
1.2819
0
LINE
8
BLACK
6
CONTINUOUS
10
0.509829
20
1.2819
11
0.509829
21
1.2819
0
LINE
8
BLACK
6
CONTINUOUS
10
0.509829
20
1.2819
11
0.559829
21
1.3319
0
LINE
8
BLACK
6
CONTINUOUS
10
0.559829
20
1.3319
11
0.559829
21
1.3319
0
LINE
8
BLACK
6
CONTINUOUS
10
0.559829
20
1.3319
11
0.56122
21
1.33248
0
LINE
8
BLACK
6
CONTINUOUS
10
0.56122
20
1.33248
11
0.71122
21
1.33248
0
LINE
8
BLACK
6
CONTINUOUS
10
0.562036
20
1.32854
11
0.513189
21
1.2797
0
LINE
8
BLACK
6
CONTINUOUS
10
0.513189
20
1.2797
11
0.513189
21
0.63248
0
LINE
8
BLACK
6
CONTINUOUS
10
0.513189
20
0.63248
11
0.709252
21
0.63248
0
LINE
8
BLACK
6
CONTINUOUS
10
0.709252
20
0.63248
11
0.709252
21
1.32854
0
LINE
8
BLACK
6
CONTINUOUS
10
0.709252
20
1.32854
11
0.562036
21
1.32854
0
LINE
8
BLACK
6
CONTINUOUS
10
0.469144
20
0.773697
11
0.469937
21
0.771839
0
LINE
8
BLACK
6
CONTINUOUS
10
0.469937
20
0.771839
11
0.469351
21
0.769906
0
LINE
8
BLACK
6
CONTINUOUS
10
0.469351
20
0.769906
11
0.454015
21
0.749458
0
LINE
8
BLACK
6
CONTINUOUS
10
0.454015
20
0.749458
11
0.469077
21
0.734396
0
LINE
8
BLACK
6
CONTINUOUS
10
0.469077
20
0.734396
11
0.469665
21
0.733556
0
LINE
8
BLACK
6
CONTINUOUS
10
0.469665
20
0.733556
11
0.469841
21
0.731544
0
LINE
8
BLACK
6
CONTINUOUS
10
0.469841
20
0.731544
11
0.468683
21
0.729889
0
LINE
8
BLACK
6
CONTINUOUS
10
0.468683
20
0.729889
11
0.466732
21
0.729366
0
LINE
8
BLACK
6
CONTINUOUS
10
0.466732
20
0.729366
11
0.464901
21
0.73022
0
LINE
8
BLACK
6
CONTINUOUS
10
0.464901
20
0.73022
11
0.447445
21
0.747676
0
LINE
8
BLACK
6
CONTINUOUS
10
0.447445
20
0.747676
11
0.447445
21
0.732308
0
LINE
8
BLACK
6
CONTINUOUS
10
0.447445
20
0.732308
11
0.447267
21
0.731298
0
LINE
8
BLACK
6
CONTINUOUS
10
0.447267
20
0.731298
11
0.445968
21
0.729751
0
LINE
8
BLACK
6
CONTINUOUS
10
0.445968
20
0.729751
11
0.443979
21
0.7294
0
LINE
8
BLACK
6
CONTINUOUS
10
0.443979
20
0.7294
11
0.44223
21
0.73041
0
LINE
8
BLACK
6
CONTINUOUS
10
0.44223
20
0.73041
11
0.441539
21
0.732308
0
LINE
8
BLACK
6
CONTINUOUS
10
0.441539
20
0.732308
11
0.441539
21
0.771678
0
LINE
8
BLACK
6
CONTINUOUS
10
0.441539
20
0.771678
11
0.441717
21
0.772688
0
LINE
8
BLACK
6
CONTINUOUS
10
0.441717
20
0.772688
11
0.443016
21
0.774235
0
LINE
8
BLACK
6
CONTINUOUS
10
0.443016
20
0.774235
11
0.445005
21
0.774586
0
LINE
8
BLACK
6
CONTINUOUS
10
0.445005
20
0.774586
11
0.446754
21
0.773576
0
LINE
8
BLACK
6
CONTINUOUS
10
0.446754
20
0.773576
11
0.447445
21
0.771678
0
LINE
8
BLACK
6
CONTINUOUS
10
0.447445
20
0.771678
11
0.447445
21
0.756028
0
LINE
8
BLACK
6
CONTINUOUS
10
0.447445
20
0.756028
11
0.449797
21
0.753676
0
LINE
8
BLACK
6
CONTINUOUS
10
0.449797
20
0.753676
11
0.464627
21
0.77345
0
LINE
8
BLACK
6
CONTINUOUS
10
0.464627
20
0.77345
11
0.465375
21
0.774151
0
LINE
8
BLACK
6
CONTINUOUS
10
0.465375
20
0.774151
11
0.467342
21
0.77461
0
LINE
8
BLACK
6
CONTINUOUS
10
0.467342
20
0.77461
11
0.469144
21
0.773697
0
LINE
8
BLACK
6
CONTINUOUS
10
0.469735
20
0.892988
11
0.470528
21
0.891131
0
LINE
8
BLACK
6
CONTINUOUS
10
0.470528
20
0.891131
11
0.469942
21
0.889198
0
LINE
8
BLACK
6
CONTINUOUS
10
0.469942
20
0.889198
11
0.454606
21
0.868749
0
LINE
8
BLACK
6
CONTINUOUS
10
0.454606
20
0.868749
11
0.469668
21
0.853687
0
LINE
8
BLACK
6
CONTINUOUS
10
0.469668
20
0.853687
11
0.470256
21
0.852847
0
LINE
8
BLACK
6
CONTINUOUS
10
0.470256
20
0.852847
11
0.470432
21
0.850835
0
LINE
8
BLACK
6
CONTINUOUS
10
0.470432
20
0.850835
11
0.469273
21
0.84918
0
LINE
8
BLACK
6
CONTINUOUS
10
0.469273
20
0.84918
11
0.467322
21
0.848658
0
LINE
8
BLACK
6
CONTINUOUS
10
0.467322
20
0.848658
11
0.465492
21
0.849511
0
LINE
8
BLACK
6
CONTINUOUS
10
0.465492
20
0.849511
11
0.448035
21
0.866968
0
LINE
8
BLACK
6
CONTINUOUS
10
0.448035
20
0.866968
11
0.448035
21
0.851599
0
LINE
8
BLACK
6
CONTINUOUS
10
0.448035
20
0.851599
11
0.447857
21
0.850589
0
LINE
8
BLACK
6
CONTINUOUS
10
0.447857
20
0.850589
11
0.446559
21
0.849042
0
LINE
8
BLACK
6
CONTINUOUS
10
0.446559
20
0.849042
11
0.44457
21
0.848691
0
LINE
8
BLACK
6
CONTINUOUS
10
0.44457
20
0.848691
11
0.442821
21
0.849701
0
LINE
8
BLACK
6
CONTINUOUS
10
0.442821
20
0.849701
11
0.44213
21
0.851599
0
LINE
8
BLACK
6
CONTINUOUS
10
0.44213
20
0.851599
11
0.44213
21
0.890969
0
LINE
8
BLACK
6
CONTINUOUS
10
0.44213
20
0.890969
11
0.442308
21
0.891979
0
LINE
8
BLACK
6
CONTINUOUS
10
0.442308
20
0.891979
11
0.443606
21
0.893526
0
LINE
8
BLACK
6
CONTINUOUS
10
0.443606
20
0.893526
11
0.445595
21
0.893877
0
LINE
8
BLACK
6
CONTINUOUS
10
0.445595
20
0.893877
11
0.447344
21
0.892867
0
LINE
8
BLACK
6
CONTINUOUS
10
0.447344
20
0.892867
11
0.448035
21
0.890969
0
LINE
8
BLACK
6
CONTINUOUS
10
0.448035
20
0.890969
11
0.448035
21
0.875319
0
LINE
8
BLACK
6
CONTINUOUS
10
0.448035
20
0.875319
11
0.450387
21
0.872967
0
LINE
8
BLACK
6
CONTINUOUS
10
0.450387
20
0.872967
11
0.465217
21
0.892741
0
LINE
8
BLACK
6
CONTINUOUS
10
0.465217
20
0.892741
11
0.465966
21
0.893442
0
LINE
8
BLACK
6
CONTINUOUS
10
0.465966
20
0.893442
11
0.467933
21
0.893901
0
LINE
8
BLACK
6
CONTINUOUS
10
0.467933
20
0.893901
11
0.469735
21
0.892988
0
LINE
8
BLACK
6
CONTINUOUS
10
0.470128
20
1.01228
11
0.470922
21
1.01042
0
LINE
8
BLACK
6
CONTINUOUS
10
0.470922
20
1.01042
11
0.470336
21
1.00849
0
LINE
8
BLACK
6
CONTINUOUS
10
0.470336
20
1.00849
11
0.454999
21
0.988041
0
LINE
8
BLACK
6
CONTINUOUS
10
0.454999
20
0.988041
11
0.470061
21
0.972978
0
LINE
8
BLACK
6
CONTINUOUS
10
0.470061
20
0.972978
11
0.470649
21
0.972138
0
LINE
8
BLACK
6
CONTINUOUS
10
0.470649
20
0.972138
11
0.470825
21
0.970126
0
LINE
8
BLACK
6
CONTINUOUS
10
0.470825
20
0.970126
11
0.469667
21
0.968472
0
LINE
8
BLACK
6
CONTINUOUS
10
0.469667
20
0.968472
11
0.467716
21
0.967949
0
LINE
8
BLACK
6
CONTINUOUS
10
0.467716
20
0.967949
11
0.465885
21
0.968803
0
LINE
8
BLACK
6
CONTINUOUS
10
0.465885
20
0.968803
11
0.448429
21
0.986259
0
LINE
8
BLACK
6
CONTINUOUS
10
0.448429
20
0.986259
11
0.448429
21
0.970891
0
LINE
8
BLACK
6
CONTINUOUS
10
0.448429
20
0.970891
11
0.448251
21
0.969881
0
LINE
8
BLACK
6
CONTINUOUS
10
0.448251
20
0.969881
11
0.446953
21
0.968333
0
LINE
8
BLACK
6
CONTINUOUS
10
0.446953
20
0.968333
11
0.444963
21
0.967983
0
LINE
8
BLACK
6
CONTINUOUS
10
0.444963
20
0.967983
11
0.443214
21
0.968993
0
LINE
8
BLACK
6
CONTINUOUS
10
0.443214
20
0.968993
11
0.442523
21
0.970891
0
LINE
8
BLACK
6
CONTINUOUS
10
0.442523
20
0.970891
11
0.442523
21
1.01026
0
LINE
8
BLACK
6
CONTINUOUS
10
0.442523
20
1.01026
11
0.442701
21
1.01127
0
LINE
8
BLACK
6
CONTINUOUS
10
0.442701
20
1.01127
11
0.444
21
1.01282
0
LINE
8
BLACK
6
CONTINUOUS
10
0.444
20
1.01282
11
0.445989
21
1.01317
0
LINE
8
BLACK
6
CONTINUOUS
10
0.445989
20
1.01317
11
0.447738
21
1.01216
0
LINE
8
BLACK
6
CONTINUOUS
10
0.447738
20
1.01216
11
0.448429
21
1.01026
0
LINE
8
BLACK
6
CONTINUOUS
10
0.448429
20
1.01026
11
0.448429
21
0.994611
0
LINE
8
BLACK
6
CONTINUOUS
10
0.448429
20
0.994611
11
0.450781
21
0.992259
0
LINE
8
BLACK
6
CONTINUOUS
10
0.450781
20
0.992259
11
0.465611
21
1.01203
0
LINE
8
BLACK
6
CONTINUOUS
10
0.465611
20
1.01203
11
0.46636
21
1.01273
0
LINE
8
BLACK
6
CONTINUOUS
10
0.46636
20
1.01273
11
0.468327
21
1.01319
0
LINE
8
BLACK
6
CONTINUOUS
10
0.468327
20
1.01319
11
0.470128
21
1.01228
0
LINE
8
BLACK
6
CONTINUOUS
10
0.470128
20
1.13157
11
0.470922
21
1.12971
0
LINE
8
BLACK
6
CONTINUOUS
10
0.470922
20
1.12971
11
0.470336
21
1.12778
0
LINE
8
BLACK
6
CONTINUOUS
10
0.470336
20
1.12778
11
0.454999
21
1.10733
0
LINE
8
BLACK
6
CONTINUOUS
10
0.454999
20
1.10733
11
0.470061
21
1.09227
0
LINE
8
BLACK
6
CONTINUOUS
10
0.470061
20
1.09227
11
0.470649
21
1.09143
0
LINE
8
BLACK
6
CONTINUOUS
10
0.470649
20
1.09143
11
0.470825
21
1.08942
0
LINE
8
BLACK
6
CONTINUOUS
10
0.470825
20
1.08942
11
0.469667
21
1.08776
0
LINE
8
BLACK
6
CONTINUOUS
10
0.469667
20
1.08776
11
0.467716
21
1.08724
0
LINE
8
BLACK
6
CONTINUOUS
10
0.467716
20
1.08724
11
0.465885
21
1.08809
0
LINE
8
BLACK
6
CONTINUOUS
10
0.465885
20
1.08809
11
0.448429
21
1.10555
0
LINE
8
BLACK
6
CONTINUOUS
10
0.448429
20
1.10555
11
0.448429
21
1.09018
0
LINE
8
BLACK
6
CONTINUOUS
10
0.448429
20
1.09018
11
0.448251
21
1.08917
0
LINE
8
BLACK
6
CONTINUOUS
10
0.448251
20
1.08917
11
0.446953
21
1.08762
0
LINE
8
BLACK
6
CONTINUOUS
10
0.446953
20
1.08762
11
0.444963
21
1.08727
0
LINE
8
BLACK
6
CONTINUOUS
10
0.444963
20
1.08727
11
0.443214
21
1.08828
0
LINE
8
BLACK
6
CONTINUOUS
10
0.443214
20
1.08828
11
0.442523
21
1.09018
0
LINE
8
BLACK
6
CONTINUOUS
10
0.442523
20
1.09018
11
0.442523
21
1.12955
0
LINE
8
BLACK
6
CONTINUOUS
10
0.442523
20
1.12955
11
0.442701
21
1.13056
0
LINE
8
BLACK
6
CONTINUOUS
10
0.442701
20
1.13056
11
0.444
21
1.13211
0
LINE
8
BLACK
6
CONTINUOUS
10
0.444
20
1.13211
11
0.445989
21
1.13246
0
LINE
8
BLACK
6
CONTINUOUS
10
0.445989
20
1.13246
11
0.447738
21
1.13145
0
LINE
8
BLACK
6
CONTINUOUS
10
0.447738
20
1.13145
11
0.448429
21
1.12955
0
LINE
8
BLACK
6
CONTINUOUS
10
0.448429
20
1.12955
11
0.448429
21
1.1139
0
LINE
8
BLACK
6
CONTINUOUS
10
0.448429
20
1.1139
11
0.450781
21
1.11155
0
LINE
8
BLACK
6
CONTINUOUS
10
0.450781
20
1.11155
11
0.465611
21
1.13132
0
LINE
8
BLACK
6
CONTINUOUS
10
0.465611
20
1.13132
11
0.46636
21
1.13202
0
LINE
8
BLACK
6
CONTINUOUS
10
0.46636
20
1.13202
11
0.468327
21
1.13248
0
LINE
8
BLACK
6
CONTINUOUS
10
0.468327
20
1.13248
11
0.470128
21
1.13157
0
LINE
8
BLACK
6
CONTINUOUS
10
0.46875
20
1.30204
11
0.469544
21
1.30019
0
LINE
8
BLACK
6
CONTINUOUS
10
0.469544
20
1.30019
11
0.468958
21
1.29825
0
LINE
8
BLACK
6
CONTINUOUS
10
0.468958
20
1.29825
11
0.453621
21
1.2778
0
LINE
8
BLACK
6
CONTINUOUS
10
0.453621
20
1.2778
11
0.468683
21
1.26274
0
LINE
8
BLACK
6
CONTINUOUS
10
0.468683
20
1.26274
11
0.469271
21
1.2619
0
LINE
8
BLACK
6
CONTINUOUS
10
0.469271
20
1.2619
11
0.469448
21
1.25989
0
LINE
8
BLACK
6
CONTINUOUS
10
0.469448
20
1.25989
11
0.468289
21
1.25824
0
LINE
8
BLACK
6
CONTINUOUS
10
0.468289
20
1.25824
11
0.466338
21
1.25771
0
LINE
8
BLACK
6
CONTINUOUS
10
0.466338
20
1.25771
11
0.464507
21
1.25857
0
LINE
8
BLACK
6
CONTINUOUS
10
0.464507
20
1.25857
11
0.447051
21
1.27602
0
LINE
8
BLACK
6
CONTINUOUS
10
0.447051
20
1.27602
11
0.447051
21
1.26065
0
LINE
8
BLACK
6
CONTINUOUS
10
0.447051
20
1.26065
11
0.446873
21
1.25964
0
LINE
8
BLACK
6
CONTINUOUS
10
0.446873
20
1.25964
11
0.445575
21
1.2581
0
LINE
8
BLACK
6
CONTINUOUS
10
0.445575
20
1.2581
11
0.443585
21
1.25775
0
LINE
8
BLACK
6
CONTINUOUS
10
0.443585
20
1.25775
11
0.441836
21
1.25876
0
LINE
8
BLACK
6
CONTINUOUS
10
0.441836
20
1.25876
11
0.441145
21
1.26065
0
LINE
8
BLACK
6
CONTINUOUS
10
0.441145
20
1.26065
11
0.441145
21
1.30002
0
LINE
8
BLACK
6
CONTINUOUS
10
0.441145
20
1.30002
11
0.441324
21
1.30103
0
LINE
8
BLACK
6
CONTINUOUS
10
0.441324
20
1.30103
11
0.442622
21
1.30258
0
LINE
8
BLACK
6
CONTINUOUS
10
0.442622
20
1.30258
11
0.444611
21
1.30293
0
LINE
8
BLACK
6
CONTINUOUS
10
0.444611
20
1.30293
11
0.44636
21
1.30192
0
LINE
8
BLACK
6
CONTINUOUS
10
0.44636
20
1.30192
11
0.447051
21
1.30002
0
LINE
8
BLACK
6
CONTINUOUS
10
0.447051
20
1.30002
11
0.447051
21
1.28437
0
LINE
8
BLACK
6
CONTINUOUS
10
0.447051
20
1.28437
11
0.449403
21
1.28202
0
LINE
8
BLACK
6
CONTINUOUS
10
0.449403
20
1.28202
11
0.464233
21
1.3018
0
LINE
8
BLACK
6
CONTINUOUS
10
0.464233
20
1.3018
11
0.464982
21
1.3025
0
LINE
8
BLACK
6
CONTINUOUS
10
0.464982
20
1.3025
11
0.466949
21
1.30296
0
LINE
8
BLACK
6
CONTINUOUS
10
0.466949
20
1.30296
11
0.46875
21
1.30204
0
LINE
8
BLACK
6
CONTINUOUS
10
1.40862
20
1.36352
11
1.40876
21
1.36353
0
LINE
8
BLACK
6
CONTINUOUS
10
1.40876
20
1.36353
11
1.41626
21
1.36166
0
LINE
8
BLACK
6
CONTINUOUS
10
1.41626
20
1.36166
11
1.41672
21
1.36145
0
LINE
8
BLACK
6
CONTINUOUS
10
1.41672
20
1.36145
11
1.41686
21
1.36143
0
LINE
8
BLACK
6
CONTINUOUS
10
1.41686
20
1.36143
11
1.42061
21
1.35956
0
LINE
8
BLACK
6
CONTINUOUS
10
1.42061
20
1.35956
11
1.42132
21
1.35903
0
LINE
8
BLACK
6
CONTINUOUS
10
1.42132
20
1.35903
11
1.42138
21
1.35901
0
LINE
8
BLACK
6
CONTINUOUS
10
1.42138
20
1.35901
11
1.42325
21
1.35713
0
LINE
8
BLACK
6
CONTINUOUS
10
1.42325
20
1.35713
11
1.42376
21
1.35641
0
LINE
8
BLACK
6
CONTINUOUS
10
1.42376
20
1.35641
11
1.4238
21
1.35636
0
LINE
8
BLACK
6
CONTINUOUS
10
1.4238
20
1.35636
11
1.42568
21
1.35261
0
LINE
8
BLACK
6
CONTINUOUS
10
1.42568
20
1.35261
11
1.42597
21
1.35163
0
LINE
8
BLACK
6
CONTINUOUS
10
1.42597
20
1.35163
11
1.42593
21
1.35146
0
LINE
8
BLACK
6
CONTINUOUS
10
1.42593
20
1.35146
11
1.42599
21
1.35129
0
LINE
8
BLACK
6
CONTINUOUS
10
1.42599
20
1.35129
11
1.42599
21
1.34754
0
LINE
8
BLACK
6
CONTINUOUS
10
1.42599
20
1.34754
11
1.42581
21
1.34653
0
LINE
8
BLACK
6
CONTINUOUS
10
1.42581
20
1.34653
11
1.4257
21
1.3464
0
LINE
8
BLACK
6
CONTINUOUS
10
1.4257
20
1.3464
11
1.42568
21
1.34622
0
LINE
8
BLACK
6
CONTINUOUS
10
1.42568
20
1.34622
11
1.4238
21
1.34247
0
LINE
8
BLACK
6
CONTINUOUS
10
1.4238
20
1.34247
11
1.42328
21
1.34176
0
LINE
8
BLACK
6
CONTINUOUS
10
1.42328
20
1.34176
11
1.42325
21
1.34171
0
LINE
8
BLACK
6
CONTINUOUS
10
1.42325
20
1.34171
11
1.42138
21
1.33983
0
LINE
8
BLACK
6
CONTINUOUS
10
1.42138
20
1.33983
11
1.42065
21
1.33933
0
LINE
8
BLACK
6
CONTINUOUS
10
1.42065
20
1.33933
11
1.42061
21
1.33928
0
LINE
8
BLACK
6
CONTINUOUS
10
1.42061
20
1.33928
11
1.41686
21
1.3374
0
LINE
8
BLACK
6
CONTINUOUS
10
1.41686
20
1.3374
11
1.41637
21
1.33726
0
LINE
8
BLACK
6
CONTINUOUS
10
1.41637
20
1.33726
11
1.41626
21
1.33718
0
LINE
8
BLACK
6
CONTINUOUS
10
1.41626
20
1.33718
11
1.40876
21
1.33531
0
LINE
8
BLACK
6
CONTINUOUS
10
1.40876
20
1.33531
11
1.40817
21
1.33526
0
LINE
8
BLACK
6
CONTINUOUS
10
1.40817
20
1.33526
11
1.40804
21
1.33522
0
LINE
8
BLACK
6
CONTINUOUS
10
1.40804
20
1.33522
11
1.39867
21
1.33522
0
LINE
8
BLACK
6
CONTINUOUS
10
1.39867
20
1.33522
11
1.39809
21
1.33532
0
LINE
8
BLACK
6
CONTINUOUS
10
1.39809
20
1.33532
11
1.39795
21
1.33531
0
LINE
8
BLACK
6
CONTINUOUS
10
1.39795
20
1.33531
11
1.39045
21
1.33718
0
LINE
8
BLACK
6
CONTINUOUS
10
1.39045
20
1.33718
11
1.38999
21
1.33739
0
LINE
8
BLACK
6
CONTINUOUS
10
1.38999
20
1.33739
11
1.38985
21
1.3374
0
LINE
8
BLACK
6
CONTINUOUS
10
1.38985
20
1.3374
11
1.3861
21
1.33928
0
LINE
8
BLACK
6
CONTINUOUS
10
1.3861
20
1.33928
11
1.38539
21
1.3398
0
LINE
8
BLACK
6
CONTINUOUS
10
1.38539
20
1.3398
11
1.38533
21
1.33983
0
LINE
8
BLACK
6
CONTINUOUS
10
1.38533
20
1.33983
11
1.38346
21
1.34171
0
LINE
8
BLACK
6
CONTINUOUS
10
1.38346
20
1.34171
11
1.38295
21
1.34243
0
LINE
8
BLACK
6
CONTINUOUS
10
1.38295
20
1.34243
11
1.3829
21
1.34247
0
LINE
8
BLACK
6
CONTINUOUS
10
1.3829
20
1.34247
11
1.38103
21
1.34622
0
LINE
8
BLACK
6
CONTINUOUS
10
1.38103
20
1.34622
11
1.38074
21
1.34721
0
LINE
8
BLACK
6
CONTINUOUS
10
1.38074
20
1.34721
11
1.38078
21
1.34738
0
LINE
8
BLACK
6
CONTINUOUS
10
1.38078
20
1.34738
11
1.38072
21
1.34754
0
LINE
8
BLACK
6
CONTINUOUS
10
1.38072
20
1.34754
11
1.38072
21
1.35129
0
LINE
8
BLACK
6
CONTINUOUS
10
1.38072
20
1.35129
11
1.38089
21
1.3523
0
LINE
8
BLACK
6
CONTINUOUS
10
1.38089
20
1.3523
11
1.38101
21
1.35244
0
LINE
8
BLACK
6
CONTINUOUS
10
1.38101
20
1.35244
11
1.38103
21
1.35261
0
LINE
8
BLACK
6
CONTINUOUS
10
1.38103
20
1.35261
11
1.3829
21
1.35636
0
LINE
8
BLACK
6
CONTINUOUS
10
1.3829
20
1.35636
11
1.38343
21
1.35707
0
LINE
8
BLACK
6
CONTINUOUS
10
1.38343
20
1.35707
11
1.38346
21
1.35713
0
LINE
8
BLACK
6
CONTINUOUS
10
1.38346
20
1.35713
11
1.38533
21
1.35901
0
LINE
8
BLACK
6
CONTINUOUS
10
1.38533
20
1.35901
11
1.38605
21
1.35951
0
LINE
8
BLACK
6
CONTINUOUS
10
1.38605
20
1.35951
11
1.3861
21
1.35956
0
LINE
8
BLACK
6
CONTINUOUS
10
1.3861
20
1.35956
11
1.38985
21
1.36143
0
LINE
8
BLACK
6
CONTINUOUS
10
1.38985
20
1.36143
11
1.39034
21
1.36158
0
LINE
8
BLACK
6
CONTINUOUS
10
1.39034
20
1.36158
11
1.39045
21
1.36166
0
LINE
8
BLACK
6
CONTINUOUS
10
1.39045
20
1.36166
11
1.39795
21
1.36353
0
LINE
8
BLACK
6
CONTINUOUS
10
1.39795
20
1.36353
11
1.39854
21
1.36357
0
LINE
8
BLACK
6
CONTINUOUS
10
1.39854
20
1.36357
11
1.39867
21
1.36362
0
LINE
8
BLACK
6
CONTINUOUS
10
1.39867
20
1.36362
11
1.40804
21
1.36362
0
LINE
8
BLACK
6
CONTINUOUS
10
1.40804
20
1.36362
11
1.40862
21
1.36352
0
LINE
8
BLACK
6
CONTINUOUS
10
1.3922
20
1.35601
11
1.38917
21
1.35449
0
LINE
8
BLACK
6
CONTINUOUS
10
1.38917
20
1.35449
11
1.38797
21
1.35329
0
LINE
8
BLACK
6
CONTINUOUS
10
1.38797
20
1.35329
11
1.38662
21
1.3506
0
LINE
8
BLACK
6
CONTINUOUS
10
1.38662
20
1.3506
11
1.38662
21
1.34824
0
LINE
8
BLACK
6
CONTINUOUS
10
1.38662
20
1.34824
11
1.38797
21
1.34554
0
LINE
8
BLACK
6
CONTINUOUS
10
1.38797
20
1.34554
11
1.38917
21
1.34435
0
LINE
8
BLACK
6
CONTINUOUS
10
1.38917
20
1.34435
11
1.3922
21
1.34283
0
LINE
8
BLACK
6
CONTINUOUS
10
1.3922
20
1.34283
11
1.39903
21
1.34112
0
LINE
8
BLACK
6
CONTINUOUS
10
1.39903
20
1.34112
11
1.40768
21
1.34112
0
LINE
8
BLACK
6
CONTINUOUS
10
1.40768
20
1.34112
11
1.41451
21
1.34283
0
LINE
8
BLACK
6
CONTINUOUS
10
1.41451
20
1.34283
11
1.41754
21
1.34435
0
LINE
8
BLACK
6
CONTINUOUS
10
1.41754
20
1.34435
11
1.41874
21
1.34554
0
LINE
8
BLACK
6
CONTINUOUS
10
1.41874
20
1.34554
11
1.42009
21
1.34824
0
LINE
8
BLACK
6
CONTINUOUS
10
1.42009
20
1.34824
11
1.42009
21
1.3506
0
LINE
8
BLACK
6
CONTINUOUS
10
1.42009
20
1.3506
11
1.41874
21
1.35329
0
LINE
8
BLACK
6
CONTINUOUS
10
1.41874
20
1.35329
11
1.41754
21
1.35449
0
LINE
8
BLACK
6
CONTINUOUS
10
1.41754
20
1.35449
11
1.41451
21
1.35601
0
LINE
8
BLACK
6
CONTINUOUS
10
1.41451
20
1.35601
11
1.40768
21
1.35771
0
LINE
8
BLACK
6
CONTINUOUS
10
1.40768
20
1.35771
11
1.39903
21
1.35771
0
LINE
8
BLACK
6
CONTINUOUS
10
1.39903
20
1.35771
11
1.3922
21
1.35601
0
LINE
8
BLACK
6
CONTINUOUS
10
1.38593
20
1.40006
11
1.38662
21
1.39816
0
LINE
8
BLACK
6
CONTINUOUS
10
1.38662
20
1.39816
11
1.38662
21
1.38987
0
LINE
8
BLACK
6
CONTINUOUS
10
1.38662
20
1.38987
11
1.41404
21
1.38987
0
LINE
8
BLACK
6
CONTINUOUS
10
1.41404
20
1.38987
11
1.41158
21
1.39233
0
LINE
8
BLACK
6
CONTINUOUS
10
1.41158
20
1.39233
11
1.41107
21
1.39305
0
LINE
8
BLACK
6
CONTINUOUS
10
1.41107
20
1.39305
11
1.41102
21
1.39309
0
LINE
8
BLACK
6
CONTINUOUS
10
1.41102
20
1.39309
11
1.40915
21
1.39684
0
LINE
8
BLACK
6
CONTINUOUS
10
1.40915
20
1.39684
11
1.40886
21
1.39783
0
LINE
8
BLACK
6
CONTINUOUS
10
1.40886
20
1.39783
11
1.40933
21
1.39979
0
LINE
8
BLACK
6
CONTINUOUS
10
1.40933
20
1.39979
11
1.41095
21
1.40099
0
LINE
8
BLACK
6
CONTINUOUS
10
1.41095
20
1.40099
11
1.41296
21
1.40087
0
LINE
8
BLACK
6
CONTINUOUS
10
1.41296
20
1.40087
11
1.41443
21
1.39948
0
LINE
8
BLACK
6
CONTINUOUS
10
1.41443
20
1.39948
11
1.41609
21
1.39616
0
LINE
8
BLACK
6
CONTINUOUS
10
1.41609
20
1.39616
11
1.4193
21
1.39296
0
LINE
8
BLACK
6
CONTINUOUS
10
1.4193
20
1.39296
11
1.42468
21
1.38937
0
LINE
8
BLACK
6
CONTINUOUS
10
1.42468
20
1.38937
11
1.42542
21
1.38866
0
LINE
8
BLACK
6
CONTINUOUS
10
1.42542
20
1.38866
11
1.42547
21
1.3885
0
LINE
8
BLACK
6
CONTINUOUS
10
1.42547
20
1.3885
11
1.4256
21
1.38839
0
LINE
8
BLACK
6
CONTINUOUS
10
1.4256
20
1.38839
11
1.42574
21
1.38755
0
LINE
8
BLACK
6
CONTINUOUS
10
1.42574
20
1.38755
11
1.42599
21
1.38672
0
LINE
8
BLACK
6
CONTINUOUS
10
1.42599
20
1.38672
11
1.42592
21
1.38657
0
LINE
8
BLACK
6
CONTINUOUS
10
1.42592
20
1.38657
11
1.42595
21
1.3864
0
LINE
8
BLACK
6
CONTINUOUS
10
1.42595
20
1.3864
11
1.42552
21
1.38566
0
LINE
8
BLACK
6
CONTINUOUS
10
1.42552
20
1.38566
11
1.42517
21
1.38487
0
LINE
8
BLACK
6
CONTINUOUS
10
1.42517
20
1.38487
11
1.42502
21
1.3848
0
LINE
8
BLACK
6
CONTINUOUS
10
1.42502
20
1.3848
11
1.42494
21
1.38465
0
LINE
8
BLACK
6
CONTINUOUS
10
1.42494
20
1.38465
11
1.42413
21
1.38436
0
LINE
8
BLACK
6
CONTINUOUS
10
1.42413
20
1.38436
11
1.42336
21
1.38398
0
LINE
8
BLACK
6
CONTINUOUS
10
1.42336
20
1.38398
11
1.4232
21
1.38402
0
LINE
8
BLACK
6
CONTINUOUS
10
1.4232
20
1.38402
11
1.42304
21
1.38396
0
LINE
8
BLACK
6
CONTINUOUS
10
1.42304
20
1.38396
11
1.38662
21
1.38396
0
LINE
8
BLACK
6
CONTINUOUS
10
1.38662
20
1.38396
11
1.38662
21
1.37567
0
LINE
8
BLACK
6
CONTINUOUS
10
1.38662
20
1.37567
11
1.38644
21
1.37466
0
LINE
8
BLACK
6
CONTINUOUS
10
1.38644
20
1.37466
11
1.38514
21
1.37311
0
LINE
8
BLACK
6
CONTINUOUS
10
1.38514
20
1.37311
11
1.38316
21
1.37276
0
LINE
8
BLACK
6
CONTINUOUS
10
1.38316
20
1.37276
11
1.38141
21
1.37377
0
LINE
8
BLACK
6
CONTINUOUS
10
1.38141
20
1.37377
11
1.38072
21
1.37567
0
LINE
8
BLACK
6
CONTINUOUS
10
1.38072
20
1.37567
11
1.38072
21
1.39816
0
LINE
8
BLACK
6
CONTINUOUS
10
1.38072
20
1.39816
11
1.38089
21
1.39917
0
LINE
8
BLACK
6
CONTINUOUS
10
1.38089
20
1.39917
11
1.38219
21
1.40072
0
LINE
8
BLACK
6
CONTINUOUS
10
1.38219
20
1.40072
11
1.38418
21
1.40107
0
LINE
8
BLACK
6
CONTINUOUS
10
1.38418
20
1.40107
11
1.38593
21
1.40006
0
LINE
8
BLACK
6
CONTINUOUS
10
1.4253
20
1.43943
11
1.42599
21
1.43753
0
LINE
8
BLACK
6
CONTINUOUS
10
1.42599
20
1.43753
11
1.42599
21
1.41316
0
LINE
8
BLACK
6
CONTINUOUS
10
1.42599
20
1.41316
11
1.42591
21
1.41272
0
LINE
8
BLACK
6
CONTINUOUS
10
1.42591
20
1.41272
11
1.42594
21
1.41259
0
LINE
8
BLACK
6
CONTINUOUS
10
1.42594
20
1.41259
11
1.42587
21
1.41248
0
LINE
8
BLACK
6
CONTINUOUS
10
1.42587
20
1.41248
11
1.42581
21
1.41215
0
LINE
8
BLACK
6
CONTINUOUS
10
1.42581
20
1.41215
11
1.4253
21
1.41154
0
LINE
8
BLACK
6
CONTINUOUS
10
1.4253
20
1.41154
11
1.42489
21
1.41086
0
LINE
8
BLACK
6
CONTINUOUS
10
1.42489
20
1.41086
11
1.42467
21
1.41078
0
LINE
8
BLACK
6
CONTINUOUS
10
1.42467
20
1.41078
11
1.42451
21
1.4106
0
LINE
8
BLACK
6
CONTINUOUS
10
1.42451
20
1.4106
11
1.42373
21
1.41047
0
LINE
8
BLACK
6
CONTINUOUS
10
1.42373
20
1.41047
11
1.42298
21
1.41021
0
LINE
8
BLACK
6
CONTINUOUS
10
1.42298
20
1.41021
11
1.42276
21
1.41029
0
LINE
8
BLACK
6
CONTINUOUS
10
1.42276
20
1.41029
11
1.42253
21
1.41025
0
LINE
8
BLACK
6
CONTINUOUS
10
1.42253
20
1.41025
11
1.42184
21
1.41065
0
LINE
8
BLACK
6
CONTINUOUS
10
1.42184
20
1.41065
11
1.42109
21
1.41094
0
LINE
8
BLACK
6
CONTINUOUS
10
1.42109
20
1.41094
11
1.41086
21
1.4199
0
LINE
8
BLACK
6
CONTINUOUS
10
1.41086
20
1.4199
11
1.41082
21
1.41965
0
LINE
8
BLACK
6
CONTINUOUS
10
1.41082
20
1.41965
11
1.4107
21
1.41951
0
LINE
8
BLACK
6
CONTINUOUS
10
1.4107
20
1.41951
11
1.41068
21
1.41934
0
LINE
8
BLACK
6
CONTINUOUS
10
1.41068
20
1.41934
11
1.40881
21
1.41559
0
LINE
8
BLACK
6
CONTINUOUS
10
1.40881
20
1.41559
11
1.40828
21
1.41488
0
LINE
8
BLACK
6
CONTINUOUS
10
1.40828
20
1.41488
11
1.40825
21
1.41482
0
LINE
8
BLACK
6
CONTINUOUS
10
1.40825
20
1.41482
11
1.40638
21
1.41295
0
LINE
8
BLACK
6
CONTINUOUS
10
1.40638
20
1.41295
11
1.40566
21
1.41244
0
LINE
8
BLACK
6
CONTINUOUS
10
1.40566
20
1.41244
11
1.40561
21
1.41239
0
LINE
8
BLACK
6
CONTINUOUS
10
1.40561
20
1.41239
11
1.40186
21
1.41052
0
LINE
8
BLACK
6
CONTINUOUS
10
1.40186
20
1.41052
11
1.40088
21
1.41023
0
LINE
8
BLACK
6
CONTINUOUS
10
1.40088
20
1.41023
11
1.40071
21
1.41027
0
LINE
8
BLACK
6
CONTINUOUS
10
1.40071
20
1.41027
11
1.40054
21
1.41021
0
LINE
8
BLACK
6
CONTINUOUS
10
1.40054
20
1.41021
11
1.39117
21
1.41021
0
LINE
8
BLACK
6
CONTINUOUS
10
1.39117
20
1.41021
11
1.39016
21
1.41039
0
LINE
8
BLACK
6
CONTINUOUS
10
1.39016
20
1.41039
11
1.39002
21
1.4105
0
LINE
8
BLACK
6
CONTINUOUS
10
1.39002
20
1.4105
11
1.38985
21
1.41052
0
LINE
8
BLACK
6
CONTINUOUS
10
1.38985
20
1.41052
11
1.3861
21
1.41239
0
LINE
8
BLACK
6
CONTINUOUS
10
1.3861
20
1.41239
11
1.38539
21
1.41292
0
LINE
8
BLACK
6
CONTINUOUS
10
1.38539
20
1.41292
11
1.38533
21
1.41295
0
LINE
8
BLACK
6
CONTINUOUS
10
1.38533
20
1.41295
11
1.38346
21
1.41482
0
LINE
8
BLACK
6
CONTINUOUS
10
1.38346
20
1.41482
11
1.38295
21
1.41555
0
LINE
8
BLACK
6
CONTINUOUS
10
1.38295
20
1.41555
11
1.3829
21
1.41559
0
LINE
8
BLACK
6
CONTINUOUS
10
1.3829
20
1.41559
11
1.38103
21
1.41934
0
LINE
8
BLACK
6
CONTINUOUS
10
1.38103
20
1.41934
11
1.38074
21
1.42032
0
LINE
8
BLACK
6
CONTINUOUS
10
1.38074
20
1.42032
11
1.38078
21
1.42049
0
LINE
8
BLACK
6
CONTINUOUS
10
1.38078
20
1.42049
11
1.38072
21
1.42066
0
LINE
8
BLACK
6
CONTINUOUS
10
1.38072
20
1.42066
11
1.38072
21
1.43191
0
LINE
8
BLACK
6
CONTINUOUS
10
1.38072
20
1.43191
11
1.38089
21
1.43292
0
LINE
8
BLACK
6
CONTINUOUS
10
1.38089
20
1.43292
11
1.38101
21
1.43305
0
LINE
8
BLACK
6
CONTINUOUS
10
1.38101
20
1.43305
11
1.38103
21
1.43323
0
LINE
8
BLACK
6
CONTINUOUS
10
1.38103
20
1.43323
11
1.3829
21
1.43698
0
LINE
8
BLACK
6
CONTINUOUS
10
1.3829
20
1.43698
11
1.38343
21
1.43769
0
LINE
8
BLACK
6
CONTINUOUS
10
1.38343
20
1.43769
11
1.38346
21
1.43775
0
LINE
8
BLACK
6
CONTINUOUS
10
1.38346
20
1.43775
11
1.38533
21
1.43962
0
LINE
8
BLACK
6
CONTINUOUS
10
1.38533
20
1.43962
11
1.38617
21
1.44021
0
LINE
8
BLACK
6
CONTINUOUS
10
1.38617
20
1.44021
11
1.38818
21
1.44038
0
LINE
8
BLACK
6
CONTINUOUS
10
1.38818
20
1.44038
11
1.38984
21
1.43923
0
LINE
8
BLACK
6
CONTINUOUS
10
1.38984
20
1.43923
11
1.39036
21
1.43728
0
LINE
8
BLACK
6
CONTINUOUS
10
1.39036
20
1.43728
11
1.38951
21
1.43544
0
LINE
8
BLACK
6
CONTINUOUS
10
1.38951
20
1.43544
11
1.38797
21
1.43391
0
LINE
8
BLACK
6
CONTINUOUS
10
1.38797
20
1.43391
11
1.38662
21
1.43121
0
LINE
8
BLACK
6
CONTINUOUS
10
1.38662
20
1.43121
11
1.38662
21
1.42136
0
LINE
8
BLACK
6
CONTINUOUS
10
1.38662
20
1.42136
11
1.38797
21
1.41866
0
LINE
8
BLACK
6
CONTINUOUS
10
1.38797
20
1.41866
11
1.38917
21
1.41746
0
LINE
8
BLACK
6
CONTINUOUS
10
1.38917
20
1.41746
11
1.39186
21
1.41611
0
LINE
8
BLACK
6
CONTINUOUS
10
1.39186
20
1.41611
11
1.39984
21
1.41611
0
LINE
8
BLACK
6
CONTINUOUS
10
1.39984
20
1.41611
11
1.40254
21
1.41746
0
LINE
8
BLACK
6
CONTINUOUS
10
1.40254
20
1.41746
11
1.40374
21
1.41866
0
LINE
8
BLACK
6
CONTINUOUS
10
1.40374
20
1.41866
11
1.40509
21
1.42136
0
LINE
8
BLACK
6
CONTINUOUS
10
1.40509
20
1.42136
11
1.40509
21
1.42628
0
LINE
8
BLACK
6
CONTINUOUS
10
1.40509
20
1.42628
11
1.40516
21
1.42672
0
LINE
8
BLACK
6
CONTINUOUS
10
1.40516
20
1.42672
11
1.40514
21
1.42686
0
LINE
8
BLACK
6
CONTINUOUS
10
1.40514
20
1.42686
11
1.40521
21
1.42696
0
LINE
8
BLACK
6
CONTINUOUS
10
1.40521
20
1.42696
11
1.40527
21
1.42729
0
LINE
8
BLACK
6
CONTINUOUS
10
1.40527
20
1.42729
11
1.40578
21
1.4279
0
LINE
8
BLACK
6
CONTINUOUS
10
1.40578
20
1.4279
11
1.40619
21
1.42858
0
LINE
8
BLACK
6
CONTINUOUS
10
1.40619
20
1.42858
11
1.40641
21
1.42866
0
LINE
8
BLACK
6
CONTINUOUS
10
1.40641
20
1.42866
11
1.40656
21
1.42884
0
LINE
8
BLACK
6
CONTINUOUS
10
1.40656
20
1.42884
11
1.40735
21
1.42898
0
LINE
8
BLACK
6
CONTINUOUS
10
1.40735
20
1.42898
11
1.4081
21
1.42924
0
LINE
8
BLACK
6
CONTINUOUS
10
1.4081
20
1.42924
11
1.40832
21
1.42915
0
LINE
8
BLACK
6
CONTINUOUS
10
1.40832
20
1.42915
11
1.40855
21
1.42919
0
LINE
8
BLACK
6
CONTINUOUS
10
1.40855
20
1.42919
11
1.40924
21
1.42879
0
LINE
8
BLACK
6
CONTINUOUS
10
1.40924
20
1.42879
11
1.40998
21
1.42851
0
LINE
8
BLACK
6
CONTINUOUS
10
1.40998
20
1.42851
11
1.42009
21
1.41967
0
LINE
8
BLACK
6
CONTINUOUS
10
1.42009
20
1.41967
11
1.42009
21
1.43753
0
LINE
8
BLACK
6
CONTINUOUS
10
1.42009
20
1.43753
11
1.42026
21
1.43854
0
LINE
8
BLACK
6
CONTINUOUS
10
1.42026
20
1.43854
11
1.42156
21
1.44009
0
LINE
8
BLACK
6
CONTINUOUS
10
1.42156
20
1.44009
11
1.42355
21
1.44044
0
LINE
8
BLACK
6
CONTINUOUS
10
1.42355
20
1.44044
11
1.4253
21
1.43943
0
LINE
8
BLACK
6
CONTINUOUS
10
1.40093
20
1.48443
11
1.40162
21
1.48253
0
LINE
8
BLACK
6
CONTINUOUS
10
1.40162
20
1.48253
11
1.40162
21
1.45253
0
LINE
8
BLACK
6
CONTINUOUS
10
1.40162
20
1.45253
11
1.40144
21
1.45152
0
LINE
8
BLACK
6
CONTINUOUS
10
1.40144
20
1.45152
11
1.40014
21
1.44997
0
LINE
8
BLACK
6
CONTINUOUS
10
1.40014
20
1.44997
11
1.39815
21
1.44962
0
LINE
8
BLACK
6
CONTINUOUS
10
1.39815
20
1.44962
11
1.3964
21
1.45063
0
LINE
8
BLACK
6
CONTINUOUS
10
1.3964
20
1.45063
11
1.39571
21
1.45253
0
LINE
8
BLACK
6
CONTINUOUS
10
1.39571
20
1.45253
11
1.39571
21
1.48253
0
LINE
8
BLACK
6
CONTINUOUS
10
1.39571
20
1.48253
11
1.39589
21
1.48354
0
LINE
8
BLACK
6
CONTINUOUS
10
1.39589
20
1.48354
11
1.39719
21
1.48508
0
LINE
8
BLACK
6
CONTINUOUS
10
1.39719
20
1.48508
11
1.39918
21
1.48544
0
LINE
8
BLACK
6
CONTINUOUS
10
1.39918
20
1.48544
11
1.40093
21
1.48443
0
LINE
8
BLACK
6
CONTINUOUS
10
1.3975
20
1.52469
11
1.39773
21
1.5247
0
LINE
8
BLACK
6
CONTINUOUS
10
1.39773
20
1.5247
11
1.42585
21
1.51532
0
LINE
8
BLACK
6
CONTINUOUS
10
1.42585
20
1.51532
11
1.42675
21
1.51484
0
LINE
8
BLACK
6
CONTINUOUS
10
1.42675
20
1.51484
11
1.42781
21
1.51312
0
LINE
8
BLACK
6
CONTINUOUS
10
1.42781
20
1.51312
11
1.42751
21
1.51112
0
LINE
8
BLACK
6
CONTINUOUS
10
1.42751
20
1.51112
11
1.426
21
1.50978
0
LINE
8
BLACK
6
CONTINUOUS
10
1.426
20
1.50978
11
1.42398
21
1.50972
0
LINE
8
BLACK
6
CONTINUOUS
10
1.42398
20
1.50972
11
1.39974
21
1.5178
0
LINE
8
BLACK
6
CONTINUOUS
10
1.39974
20
1.5178
11
1.39974
21
1.5061
0
LINE
8
BLACK
6
CONTINUOUS
10
1.39974
20
1.5061
11
1.40992
21
1.5061
0
LINE
8
BLACK
6
CONTINUOUS
10
1.40992
20
1.5061
11
1.41093
21
1.50592
0
LINE
8
BLACK
6
CONTINUOUS
10
1.41093
20
1.50592
11
1.41247
21
1.50463
0
LINE
8
BLACK
6
CONTINUOUS
10
1.41247
20
1.50463
11
1.41282
21
1.50264
0
LINE
8
BLACK
6
CONTINUOUS
10
1.41282
20
1.50264
11
1.41181
21
1.50089
0
LINE
8
BLACK
6
CONTINUOUS
10
1.41181
20
1.50089
11
1.40992
21
1.5002
0
LINE
8
BLACK
6
CONTINUOUS
10
1.40992
20
1.5002
11
1.39974
21
1.5002
0
LINE
8
BLACK
6
CONTINUOUS
10
1.39974
20
1.5002
11
1.39974
21
1.49753
0
LINE
8
BLACK
6
CONTINUOUS
10
1.39974
20
1.49753
11
1.39957
21
1.49652
0
LINE
8
BLACK
6
CONTINUOUS
10
1.39957
20
1.49652
11
1.39827
21
1.49497
0
LINE
8
BLACK
6
CONTINUOUS
10
1.39827
20
1.49497
11
1.39628
21
1.49462
0
LINE
8
BLACK
6
CONTINUOUS
10
1.39628
20
1.49462
11
1.39453
21
1.49563
0
LINE
8
BLACK
6
CONTINUOUS
10
1.39453
20
1.49563
11
1.39384
21
1.49753
0
LINE
8
BLACK
6
CONTINUOUS
10
1.39384
20
1.49753
11
1.39384
21
1.5002
0
LINE
8
BLACK
6
CONTINUOUS
10
1.39384
20
1.5002
11
1.38367
21
1.5002
0
LINE
8
BLACK
6
CONTINUOUS
10
1.38367
20
1.5002
11
1.38266
21
1.50037
0
LINE
8
BLACK
6
CONTINUOUS
10
1.38266
20
1.50037
11
1.38111
21
1.50167
0
LINE
8
BLACK
6
CONTINUOUS
10
1.38111
20
1.50167
11
1.38076
21
1.50366
0
LINE
8
BLACK
6
CONTINUOUS
10
1.38076
20
1.50366
11
1.38177
21
1.50541
0
LINE
8
BLACK
6
CONTINUOUS
10
1.38177
20
1.50541
11
1.38367
21
1.5061
0
LINE
8
BLACK
6
CONTINUOUS
10
1.38367
20
1.5061
11
1.39384
21
1.5061
0
LINE
8
BLACK
6
CONTINUOUS
10
1.39384
20
1.5061
11
1.39384
21
1.5219
0
LINE
8
BLACK
6
CONTINUOUS
10
1.39384
20
1.5219
11
1.39402
21
1.52291
0
LINE
8
BLACK
6
CONTINUOUS
10
1.39402
20
1.52291
11
1.39416
21
1.52308
0
LINE
8
BLACK
6
CONTINUOUS
10
1.39416
20
1.52308
11
1.3942
21
1.5233
0
LINE
8
BLACK
6
CONTINUOUS
10
1.3942
20
1.5233
11
1.3948
21
1.52384
0
LINE
8
BLACK
6
CONTINUOUS
10
1.3948
20
1.52384
11
1.39532
21
1.52445
0
LINE
8
BLACK
6
CONTINUOUS
10
1.39532
20
1.52445
11
1.39554
21
1.52449
0
LINE
8
BLACK
6
CONTINUOUS
10
1.39554
20
1.52449
11
1.39571
21
1.52464
0
LINE
8
BLACK
6
CONTINUOUS
10
1.39571
20
1.52464
11
1.39651
21
1.52467
0
LINE
8
BLACK
6
CONTINUOUS
10
1.39651
20
1.52467
11
1.3973
21
1.52481
0
LINE
8
BLACK
6
CONTINUOUS
10
1.3973
20
1.52481
11
1.3975
21
1.52469
0
LINE
8
BLACK
6
CONTINUOUS
10
1.48436
20
1.56223
11
1.48505
21
1.56033
0
LINE
8
BLACK
6
CONTINUOUS
10
1.48505
20
1.56033
11
1.48505
21
1.53408
0
LINE
8
BLACK
6
CONTINUOUS
10
1.48505
20
1.53408
11
1.48487
21
1.53307
0
LINE
8
BLACK
6
CONTINUOUS
10
1.48487
20
1.53307
11
1.48464
21
1.53281
0
LINE
8
BLACK
6
CONTINUOUS
10
1.48464
20
1.53281
11
1.48456
21
1.53247
0
LINE
8
BLACK
6
CONTINUOUS
10
1.48456
20
1.53247
11
1.48401
21
1.53205
0
LINE
8
BLACK
6
CONTINUOUS
10
1.48401
20
1.53205
11
1.48357
21
1.53153
0
LINE
8
BLACK
6
CONTINUOUS
10
1.48357
20
1.53153
11
1.48323
21
1.53147
0
LINE
8
BLACK
6
CONTINUOUS
10
1.48323
20
1.53147
11
1.48295
21
1.53126
0
LINE
8
BLACK
6
CONTINUOUS
10
1.48295
20
1.53126
11
1.48226
21
1.5313
0
LINE
8
BLACK
6
CONTINUOUS
10
1.48226
20
1.5313
11
1.48158
21
1.53118
0
LINE
8
BLACK
6
CONTINUOUS
10
1.48158
20
1.53118
11
1.48128
21
1.53135
0
LINE
8
BLACK
6
CONTINUOUS
10
1.48128
20
1.53135
11
1.48093
21
1.53137
0
LINE
8
BLACK
6
CONTINUOUS
10
1.48093
20
1.53137
11
1.44156
21
1.54824
0
LINE
8
BLACK
6
CONTINUOUS
10
1.44156
20
1.54824
11
1.4407
21
1.5488
0
LINE
8
BLACK
6
CONTINUOUS
10
1.4407
20
1.5488
11
1.43979
21
1.55061
0
LINE
8
BLACK
6
CONTINUOUS
10
1.43979
20
1.55061
11
1.44025
21
1.55257
0
LINE
8
BLACK
6
CONTINUOUS
10
1.44025
20
1.55257
11
1.44187
21
1.55378
0
LINE
8
BLACK
6
CONTINUOUS
10
1.44187
20
1.55378
11
1.44389
21
1.55367
0
LINE
8
BLACK
6
CONTINUOUS
10
1.44389
20
1.55367
11
1.47914
21
1.53856
0
LINE
8
BLACK
6
CONTINUOUS
10
1.47914
20
1.53856
11
1.47914
21
1.56033
0
LINE
8
BLACK
6
CONTINUOUS
10
1.47914
20
1.56033
11
1.47932
21
1.56134
0
LINE
8
BLACK
6
CONTINUOUS
10
1.47932
20
1.56134
11
1.48062
21
1.56289
0
LINE
8
BLACK
6
CONTINUOUS
10
1.48062
20
1.56289
11
1.48261
21
1.56324
0
LINE
8
BLACK
6
CONTINUOUS
10
1.48261
20
1.56324
11
1.48436
21
1.56223
0
LINE
8
BLACK
6
CONTINUOUS
10
1.40862
20
1.56224
11
1.40876
21
1.56226
0
LINE
8
BLACK
6
CONTINUOUS
10
1.40876
20
1.56226
11
1.41626
21
1.56038
0
LINE
8
BLACK
6
CONTINUOUS
10
1.41626
20
1.56038
11
1.41672
21
1.56017
0
LINE
8
BLACK
6
CONTINUOUS
10
1.41672
20
1.56017
11
1.41686
21
1.56016
0
LINE
8
BLACK
6
CONTINUOUS
10
1.41686
20
1.56016
11
1.42061
21
1.55828
0
LINE
8
BLACK
6
CONTINUOUS
10
1.42061
20
1.55828
11
1.42132
21
1.55776
0
LINE
8
BLACK
6
CONTINUOUS
10
1.42132
20
1.55776
11
1.42138
21
1.55773
0
LINE
8
BLACK
6
CONTINUOUS
10
1.42138
20
1.55773
11
1.42325
21
1.55586
0
LINE
8
BLACK
6
CONTINUOUS
10
1.42325
20
1.55586
11
1.42376
21
1.55513
0
LINE
8
BLACK
6
CONTINUOUS
10
1.42376
20
1.55513
11
1.4238
21
1.55509
0
LINE
8
BLACK
6
CONTINUOUS
10
1.4238
20
1.55509
11
1.42568
21
1.55134
0
LINE
8
BLACK
6
CONTINUOUS
10
1.42568
20
1.55134
11
1.42597
21
1.55036
0
LINE
8
BLACK
6
CONTINUOUS
10
1.42597
20
1.55036
11
1.42593
21
1.55018
0
LINE
8
BLACK
6
CONTINUOUS
10
1.42593
20
1.55018
11
1.42599
21
1.55002
0
LINE
8
BLACK
6
CONTINUOUS
10
1.42599
20
1.55002
11
1.42599
21
1.54627
0
LINE
8
BLACK
6
CONTINUOUS
10
1.42599
20
1.54627
11
1.42581
21
1.54526
0
LINE
8
BLACK
6
CONTINUOUS
10
1.42581
20
1.54526
11
1.4257
21
1.54512
0
LINE
8
BLACK
6
CONTINUOUS
10
1.4257
20
1.54512
11
1.42568
21
1.54495
0
LINE
8
BLACK
6
CONTINUOUS
10
1.42568
20
1.54495
11
1.4238
21
1.5412
0
LINE
8
BLACK
6
CONTINUOUS
10
1.4238
20
1.5412
11
1.42328
21
1.54049
0
LINE
8
BLACK
6
CONTINUOUS
10
1.42328
20
1.54049
11
1.42325
21
1.54043
0
LINE
8
BLACK
6
CONTINUOUS
10
1.42325
20
1.54043
11
1.42138
21
1.53856
0
LINE
8
BLACK
6
CONTINUOUS
10
1.42138
20
1.53856
11
1.42065
21
1.53805
0
LINE
8
BLACK
6
CONTINUOUS
10
1.42065
20
1.53805
11
1.42061
21
1.538
0
LINE
8
BLACK
6
CONTINUOUS
10
1.42061
20
1.538
11
1.41686
21
1.53613
0
LINE
8
BLACK
6
CONTINUOUS
10
1.41686
20
1.53613
11
1.41637
21
1.53598
0
LINE
8
BLACK
6
CONTINUOUS
10
1.41637
20
1.53598
11
1.41626
21
1.53591
0
LINE
8
BLACK
6
CONTINUOUS
10
1.41626
20
1.53591
11
1.40876
21
1.53403
0
LINE
8
BLACK
6
CONTINUOUS
10
1.40876
20
1.53403
11
1.40817
21
1.53399
0
LINE
8
BLACK
6
CONTINUOUS
10
1.40817
20
1.53399
11
1.40804
21
1.53394
0
LINE
8
BLACK
6
CONTINUOUS
10
1.40804
20
1.53394
11
1.39867
21
1.53394
0
LINE
8
BLACK
6
CONTINUOUS
10
1.39867
20
1.53394
11
1.39809
21
1.53404
0
LINE
8
BLACK
6
CONTINUOUS
10
1.39809
20
1.53404
11
1.39795
21
1.53403
0
LINE
8
BLACK
6
CONTINUOUS
10
1.39795
20
1.53403
11
1.39045
21
1.53591
0
LINE
8
BLACK
6
CONTINUOUS
10
1.39045
20
1.53591
11
1.38999
21
1.53611
0
LINE
8
BLACK
6
CONTINUOUS
10
1.38999
20
1.53611
11
1.38985
21
1.53613
0
LINE
8
BLACK
6
CONTINUOUS
10
1.38985
20
1.53613
11
1.3861
21
1.538
0
LINE
8
BLACK
6
CONTINUOUS
10
1.3861
20
1.538
11
1.38539
21
1.53853
0
LINE
8
BLACK
6
CONTINUOUS
10
1.38539
20
1.53853
11
1.38533
21
1.53856
0
LINE
8
BLACK
6
CONTINUOUS
10
1.38533
20
1.53856
11
1.38346
21
1.54043
0
LINE
8
BLACK
6
CONTINUOUS
10
1.38346
20
1.54043
11
1.38295
21
1.54115
0
LINE
8
BLACK
6
CONTINUOUS
10
1.38295
20
1.54115
11
1.3829
21
1.5412
0
LINE
8
BLACK
6
CONTINUOUS
10
1.3829
20
1.5412
11
1.38103
21
1.54495
0
LINE
8
BLACK
6
CONTINUOUS
10
1.38103
20
1.54495
11
1.38074
21
1.54593
0
LINE
8
BLACK
6
CONTINUOUS
10
1.38074
20
1.54593
11
1.38078
21
1.5461
0
LINE
8
BLACK
6
CONTINUOUS
10
1.38078
20
1.5461
11
1.38072
21
1.54627
0
LINE
8
BLACK
6
CONTINUOUS
10
1.38072
20
1.54627
11
1.38072
21
1.55002
0
LINE
8
BLACK
6
CONTINUOUS
10
1.38072
20
1.55002
11
1.38089
21
1.55103
0
LINE
8
BLACK
6
CONTINUOUS
10
1.38089
20
1.55103
11
1.38101
21
1.55116
0
LINE
8
BLACK
6
CONTINUOUS
10
1.38101
20
1.55116
11
1.38103
21
1.55134
0
LINE
8
BLACK
6
CONTINUOUS
10
1.38103
20
1.55134
11
1.3829
21
1.55509
0
LINE
8
BLACK
6
CONTINUOUS
10
1.3829
20
1.55509
11
1.38343
21
1.5558
0
LINE
8
BLACK
6
CONTINUOUS
10
1.38343
20
1.5558
11
1.38346
21
1.55586
0
LINE
8
BLACK
6
CONTINUOUS
10
1.38346
20
1.55586
11
1.38533
21
1.55773
0
LINE
8
BLACK
6
CONTINUOUS
10
1.38533
20
1.55773
11
1.38605
21
1.55824
0
LINE
8
BLACK
6
CONTINUOUS
10
1.38605
20
1.55824
11
1.3861
21
1.55828
0
LINE
8
BLACK
6
CONTINUOUS
10
1.3861
20
1.55828
11
1.38985
21
1.56016
0
LINE
8
BLACK
6
CONTINUOUS
10
1.38985
20
1.56016
11
1.39034
21
1.5603
0
LINE
8
BLACK
6
CONTINUOUS
10
1.39034
20
1.5603
11
1.39045
21
1.56038
0
LINE
8
BLACK
6
CONTINUOUS
10
1.39045
20
1.56038
11
1.39795
21
1.56226
0
LINE
8
BLACK
6
CONTINUOUS
10
1.39795
20
1.56226
11
1.39854
21
1.5623
0
LINE
8
BLACK
6
CONTINUOUS
10
1.39854
20
1.5623
11
1.39867
21
1.56235
0
LINE
8
BLACK
6
CONTINUOUS
10
1.39867
20
1.56235
11
1.40804
21
1.56235
0
LINE
8
BLACK
6
CONTINUOUS
10
1.40804
20
1.56235
11
1.40862
21
1.56224
0
LINE
8
BLACK
6
CONTINUOUS
10
1.3922
20
1.55473
11
1.38917
21
1.55322
0
LINE
8
BLACK
6
CONTINUOUS
10
1.38917
20
1.55322
11
1.38797
21
1.55202
0
LINE
8
BLACK
6
CONTINUOUS
10
1.38797
20
1.55202
11
1.38662
21
1.54932
0
LINE
8
BLACK
6
CONTINUOUS
10
1.38662
20
1.54932
11
1.38662
21
1.54697
0
LINE
8
BLACK
6
CONTINUOUS
10
1.38662
20
1.54697
11
1.38797
21
1.54427
0
LINE
8
BLACK
6
CONTINUOUS
10
1.38797
20
1.54427
11
1.38917
21
1.54307
0
LINE
8
BLACK
6
CONTINUOUS
10
1.38917
20
1.54307
11
1.3922
21
1.54156
0
LINE
8
BLACK
6
CONTINUOUS
10
1.3922
20
1.54156
11
1.39903
21
1.53985
0
LINE
8
BLACK
6
CONTINUOUS
10
1.39903
20
1.53985
11
1.40768
21
1.53985
0
LINE
8
BLACK
6
CONTINUOUS
10
1.40768
20
1.53985
11
1.41451
21
1.54156
0
LINE
8
BLACK
6
CONTINUOUS
10
1.41451
20
1.54156
11
1.41754
21
1.54307
0
LINE
8
BLACK
6
CONTINUOUS
10
1.41754
20
1.54307
11
1.41874
21
1.54427
0
LINE
8
BLACK
6
CONTINUOUS
10
1.41874
20
1.54427
11
1.42009
21
1.54697
0
LINE
8
BLACK
6
CONTINUOUS
10
1.42009
20
1.54697
11
1.42009
21
1.54932
0
LINE
8
BLACK
6
CONTINUOUS
10
1.42009
20
1.54932
11
1.41874
21
1.55202
0
LINE
8
BLACK
6
CONTINUOUS
10
1.41874
20
1.55202
11
1.41754
21
1.55322
0
LINE
8
BLACK
6
CONTINUOUS
10
1.41754
20
1.55322
11
1.41451
21
1.55473
0
LINE
8
BLACK
6
CONTINUOUS
10
1.41451
20
1.55473
11
1.40768
21
1.55644
0
LINE
8
BLACK
6
CONTINUOUS
10
1.40768
20
1.55644
11
1.39903
21
1.55644
0
LINE
8
BLACK
6
CONTINUOUS
10
1.39903
20
1.55644
11
1.3922
21
1.55473
0
LINE
8
BLACK
6
CONTINUOUS
10
1.40675
20
1.59974
11
1.40688
21
1.59975
0
LINE
8
BLACK
6
CONTINUOUS
10
1.40688
20
1.59975
11
1.41438
21
1.59788
0
LINE
8
BLACK
6
CONTINUOUS
10
1.41438
20
1.59788
11
1.41529
21
1.59747
0
LINE
8
BLACK
6
CONTINUOUS
10
1.41529
20
1.59747
11
1.4153
21
1.59747
0
LINE
8
BLACK
6
CONTINUOUS
10
1.4153
20
1.59747
11
1.42093
21
1.59372
0
LINE
8
BLACK
6
CONTINUOUS
10
1.42093
20
1.59372
11
1.42125
21
1.59341
0
LINE
8
BLACK
6
CONTINUOUS
10
1.42125
20
1.59341
11
1.42138
21
1.59335
0
LINE
8
BLACK
6
CONTINUOUS
10
1.42138
20
1.59335
11
1.42325
21
1.59148
0
LINE
8
BLACK
6
CONTINUOUS
10
1.42325
20
1.59148
11
1.42376
21
1.59075
0
LINE
8
BLACK
6
CONTINUOUS
10
1.42376
20
1.59075
11
1.4238
21
1.59071
0
LINE
8
BLACK
6
CONTINUOUS
10
1.4238
20
1.59071
11
1.42568
21
1.58696
0
LINE
8
BLACK
6
CONTINUOUS
10
1.42568
20
1.58696
11
1.42597
21
1.58598
0
LINE
8
BLACK
6
CONTINUOUS
10
1.42597
20
1.58598
11
1.42593
21
1.58581
0
LINE
8
BLACK
6
CONTINUOUS
10
1.42593
20
1.58581
11
1.42599
21
1.58564
0
LINE
8
BLACK
6
CONTINUOUS
10
1.42599
20
1.58564
11
1.42599
21
1.57814
0
LINE
8
BLACK
6
CONTINUOUS
10
1.42599
20
1.57814
11
1.42581
21
1.57713
0
LINE
8
BLACK
6
CONTINUOUS
10
1.42581
20
1.57713
11
1.42451
21
1.57558
0
LINE
8
BLACK
6
CONTINUOUS
10
1.42451
20
1.57558
11
1.42253
21
1.57523
0
LINE
8
BLACK
6
CONTINUOUS
10
1.42253
20
1.57523
11
1.42078
21
1.57624
0
LINE
8
BLACK
6
CONTINUOUS
10
1.42078
20
1.57624
11
1.42009
21
1.57814
0
LINE
8
BLACK
6
CONTINUOUS
10
1.42009
20
1.57814
11
1.42009
21
1.58494
0
LINE
8
BLACK
6
CONTINUOUS
10
1.42009
20
1.58494
11
1.41874
21
1.58764
0
LINE
8
BLACK
6
CONTINUOUS
10
1.41874
20
1.58764
11
1.41741
21
1.58897
0
LINE
8
BLACK
6
CONTINUOUS
10
1.41741
20
1.58897
11
1.41245
21
1.59227
0
LINE
8
BLACK
6
CONTINUOUS
10
1.41245
20
1.59227
11
1.40954
21
1.593
0
LINE
8
BLACK
6
CONTINUOUS
10
1.40954
20
1.593
11
1.41068
21
1.59071
0
LINE
8
BLACK
6
CONTINUOUS
10
1.41068
20
1.59071
11
1.41097
21
1.58973
0
LINE
8
BLACK
6
CONTINUOUS
10
1.41097
20
1.58973
11
1.41093
21
1.58955
0
LINE
8
BLACK
6
CONTINUOUS
10
1.41093
20
1.58955
11
1.41099
21
1.58939
0
LINE
8
BLACK
6
CONTINUOUS
10
1.41099
20
1.58939
11
1.41099
21
1.58189
0
LINE
8
BLACK
6
CONTINUOUS
10
1.41099
20
1.58189
11
1.41082
21
1.58088
0
LINE
8
BLACK
6
CONTINUOUS
10
1.41082
20
1.58088
11
1.4107
21
1.58074
0
LINE
8
BLACK
6
CONTINUOUS
10
1.4107
20
1.58074
11
1.41068
21
1.58057
0
LINE
8
BLACK
6
CONTINUOUS
10
1.41068
20
1.58057
11
1.40881
21
1.57682
0
LINE
8
BLACK
6
CONTINUOUS
10
1.40881
20
1.57682
11
1.40828
21
1.57611
0
LINE
8
BLACK
6
CONTINUOUS
10
1.40828
20
1.57611
11
1.40825
21
1.57605
0
LINE
8
BLACK
6
CONTINUOUS
10
1.40825
20
1.57605
11
1.40638
21
1.57418
0
LINE
8
BLACK
6
CONTINUOUS
10
1.40638
20
1.57418
11
1.40566
21
1.57367
0
LINE
8
BLACK
6
CONTINUOUS
10
1.40566
20
1.57367
11
1.40561
21
1.57362
0
LINE
8
BLACK
6
CONTINUOUS
10
1.40561
20
1.57362
11
1.40186
21
1.57175
0
LINE
8
BLACK
6
CONTINUOUS
10
1.40186
20
1.57175
11
1.40088
21
1.57146
0
LINE
8
BLACK
6
CONTINUOUS
10
1.40088
20
1.57146
11
1.40071
21
1.5715
0
LINE
8
BLACK
6
CONTINUOUS
10
1.40071
20
1.5715
11
1.40054
21
1.57144
0
LINE
8
BLACK
6
CONTINUOUS
10
1.40054
20
1.57144
11
1.39117
21
1.57144
0
LINE
8
BLACK
6
CONTINUOUS
10
1.39117
20
1.57144
11
1.39016
21
1.57162
0
LINE
8
BLACK
6
CONTINUOUS
10
1.39016
20
1.57162
11
1.39002
21
1.57173
0
LINE
8
BLACK
6
CONTINUOUS
10
1.39002
20
1.57173
11
1.38985
21
1.57175
0
LINE
8
BLACK
6
CONTINUOUS
10
1.38985
20
1.57175
11
1.3861
21
1.57362
0
LINE
8
BLACK
6
CONTINUOUS
10
1.3861
20
1.57362
11
1.38539
21
1.57415
0
LINE
8
BLACK
6
CONTINUOUS
10
1.38539
20
1.57415
11
1.38533
21
1.57418
0
LINE
8
BLACK
6
CONTINUOUS
10
1.38533
20
1.57418
11
1.38346
21
1.57605
0
LINE
8
BLACK
6
CONTINUOUS
10
1.38346
20
1.57605
11
1.38295
21
1.57678
0
LINE
8
BLACK
6
CONTINUOUS
10
1.38295
20
1.57678
11
1.3829
21
1.57682
0
LINE
8
BLACK
6
CONTINUOUS
10
1.3829
20
1.57682
11
1.38103
21
1.58057
0
LINE
8
BLACK
6
CONTINUOUS
10
1.38103
20
1.58057
11
1.38074
21
1.58155
0
LINE
8
BLACK
6
CONTINUOUS
10
1.38074
20
1.58155
11
1.38078
21
1.58172
0
LINE
8
BLACK
6
CONTINUOUS
10
1.38078
20
1.58172
11
1.38072
21
1.58189
0
LINE
8
BLACK
6
CONTINUOUS
10
1.38072
20
1.58189
11
1.38072
21
1.58939
0
LINE
8
BLACK
6
CONTINUOUS
10
1.38072
20
1.58939
11
1.38089
21
1.5904
0
LINE
8
BLACK
6
CONTINUOUS
10
1.38089
20
1.5904
11
1.38101
21
1.59053
0
LINE
8
BLACK
6
CONTINUOUS
10
1.38101
20
1.59053
11
1.38103
21
1.59071
0
LINE
8
BLACK
6
CONTINUOUS
10
1.38103
20
1.59071
11
1.3829
21
1.59446
0
LINE
8
BLACK
6
CONTINUOUS
10
1.3829
20
1.59446
11
1.38343
21
1.59517
0
LINE
8
BLACK
6
CONTINUOUS
10
1.38343
20
1.59517
11
1.38346
21
1.59523
0
LINE
8
BLACK
6
CONTINUOUS
10
1.38346
20
1.59523
11
1.38533
21
1.5971
0
LINE
8
BLACK
6
CONTINUOUS
10
1.38533
20
1.5971
11
1.38605
21
1.59761
0
LINE
8
BLACK
6
CONTINUOUS
10
1.38605
20
1.59761
11
1.3861
21
1.59765
0
LINE
8
BLACK
6
CONTINUOUS
10
1.3861
20
1.59765
11
1.38985
21
1.59953
0
LINE
8
BLACK
6
CONTINUOUS
10
1.38985
20
1.59953
11
1.39083
21
1.59982
0
LINE
8
BLACK
6
CONTINUOUS
10
1.39083
20
1.59982
11
1.391
21
1.59978
0
LINE
8
BLACK
6
CONTINUOUS
10
1.391
20
1.59978
11
1.39117
21
1.59984
0
LINE
8
BLACK
6
CONTINUOUS
10
1.39117
20
1.59984
11
1.40617
21
1.59984
0
LINE
8
BLACK
6
CONTINUOUS
10
1.40617
20
1.59984
11
1.40675
21
1.59974
0
LINE
8
BLACK
6
CONTINUOUS
10
1.38917
20
1.59259
11
1.38797
21
1.59139
0
LINE
8
BLACK
6
CONTINUOUS
10
1.38797
20
1.59139
11
1.38662
21
1.58869
0
LINE
8
BLACK
6
CONTINUOUS
10
1.38662
20
1.58869
11
1.38662
21
1.58259
0
LINE
8
BLACK
6
CONTINUOUS
10
1.38662
20
1.58259
11
1.38797
21
1.57989
0
LINE
8
BLACK
6
CONTINUOUS
10
1.38797
20
1.57989
11
1.38917
21
1.57869
0
LINE
8
BLACK
6
CONTINUOUS
10
1.38917
20
1.57869
11
1.39186
21
1.57734
0
LINE
8
BLACK
6
CONTINUOUS
10
1.39186
20
1.57734
11
1.39984
21
1.57734
0
LINE
8
BLACK
6
CONTINUOUS
10
1.39984
20
1.57734
11
1.40254
21
1.57869
0
LINE
8
BLACK
6
CONTINUOUS
10
1.40254
20
1.57869
11
1.40374
21
1.57989
0
LINE
8
BLACK
6
CONTINUOUS
10
1.40374
20
1.57989
11
1.40509
21
1.58259
0
LINE
8
BLACK
6
CONTINUOUS
10
1.40509
20
1.58259
11
1.40509
21
1.58869
0
LINE
8
BLACK
6
CONTINUOUS
10
1.40509
20
1.58869
11
1.40374
21
1.59139
0
LINE
8
BLACK
6
CONTINUOUS
10
1.40374
20
1.59139
11
1.40254
21
1.59259
0
LINE
8
BLACK
6
CONTINUOUS
10
1.40254
20
1.59259
11
1.39984
21
1.59394
0
LINE
8
BLACK
6
CONTINUOUS
10
1.39984
20
1.59394
11
1.39186
21
1.59394
0
LINE
8
BLACK
6
CONTINUOUS
10
1.39186
20
1.59394
11
1.38917
21
1.59259
0
LINE
8
BLACK
6
CONTINUOUS
10
1.44499
20
1.59222
11
1.44568
21
1.59033
0
LINE
8
BLACK
6
CONTINUOUS
10
1.44568
20
1.59033
11
1.44568
21
1.58706
0
LINE
8
BLACK
6
CONTINUOUS
10
1.44568
20
1.58706
11
1.44718
21
1.58255
0
LINE
8
BLACK
6
CONTINUOUS
10
1.44718
20
1.58255
11
1.44994
21
1.57978
0
LINE
8
BLACK
6
CONTINUOUS
10
1.44994
20
1.57978
11
1.45445
21
1.57828
0
LINE
8
BLACK
6
CONTINUOUS
10
1.45445
20
1.57828
11
1.48209
21
1.57828
0
LINE
8
BLACK
6
CONTINUOUS
10
1.48209
20
1.57828
11
1.4831
21
1.5781
0
LINE
8
BLACK
6
CONTINUOUS
10
1.4831
20
1.5781
11
1.48465
21
1.5768
0
LINE
8
BLACK
6
CONTINUOUS
10
1.48465
20
1.5768
11
1.485
21
1.57482
0
LINE
8
BLACK
6
CONTINUOUS
10
1.485
20
1.57482
11
1.48399
21
1.57307
0
LINE
8
BLACK
6
CONTINUOUS
10
1.48399
20
1.57307
11
1.48209
21
1.57238
0
LINE
8
BLACK
6
CONTINUOUS
10
1.48209
20
1.57238
11
1.45397
21
1.57238
0
LINE
8
BLACK
6
CONTINUOUS
10
1.45397
20
1.57238
11
1.4531
21
1.57253
0
LINE
8
BLACK
6
CONTINUOUS
10
1.4531
20
1.57253
11
1.45304
21
1.57253
0
LINE
8
BLACK
6
CONTINUOUS
10
1.45304
20
1.57253
11
1.44741
21
1.5744
0
LINE
8
BLACK
6
CONTINUOUS
10
1.44741
20
1.5744
11
1.44651
21
1.57489
0
LINE
8
BLACK
6
CONTINUOUS
10
1.44651
20
1.57489
11
1.44642
21
1.57504
0
LINE
8
BLACK
6
CONTINUOUS
10
1.44642
20
1.57504
11
1.44626
21
1.57511
0
LINE
8
BLACK
6
CONTINUOUS
10
1.44626
20
1.57511
11
1.44251
21
1.57886
0
LINE
8
BLACK
6
CONTINUOUS
10
1.44251
20
1.57886
11
1.44192
21
1.5797
0
LINE
8
BLACK
6
CONTINUOUS
10
1.44192
20
1.5797
11
1.44191
21
1.57988
0
LINE
8
BLACK
6
CONTINUOUS
10
1.44191
20
1.57988
11
1.4418
21
1.58002
0
LINE
8
BLACK
6
CONTINUOUS
10
1.4418
20
1.58002
11
1.43992
21
1.58564
0
LINE
8
BLACK
6
CONTINUOUS
10
1.43992
20
1.58564
11
1.43979
21
1.58652
0
LINE
8
BLACK
6
CONTINUOUS
10
1.43979
20
1.58652
11
1.43977
21
1.58658
0
LINE
8
BLACK
6
CONTINUOUS
10
1.43977
20
1.58658
11
1.43977
21
1.59033
0
LINE
8
BLACK
6
CONTINUOUS
10
1.43977
20
1.59033
11
1.43995
21
1.59134
0
LINE
8
BLACK
6
CONTINUOUS
10
1.43995
20
1.59134
11
1.44125
21
1.59288
0
LINE
8
BLACK
6
CONTINUOUS
10
1.44125
20
1.59288
11
1.44324
21
1.59323
0
LINE
8
BLACK
6
CONTINUOUS
10
1.44324
20
1.59323
11
1.44499
21
1.59222
0
LINE
8
BLACK
6
CONTINUOUS
10
1.38405
20
1.63914
11
1.38418
21
1.63917
0
LINE
8
BLACK
6
CONTINUOUS
10
1.38418
20
1.63917
11
1.38495
21
1.63872
0
LINE
8
BLACK
6
CONTINUOUS
10
1.38495
20
1.63872
11
1.38576
21
1.63835
0
LINE
8
BLACK
6
CONTINUOUS
10
1.38576
20
1.63835
11
1.40776
21
1.61634
0
LINE
8
BLACK
6
CONTINUOUS
10
1.40776
20
1.61634
11
1.41227
21
1.61484
0
LINE
8
BLACK
6
CONTINUOUS
10
1.41227
20
1.61484
11
1.41484
21
1.61484
0
LINE
8
BLACK
6
CONTINUOUS
10
1.41484
20
1.61484
11
1.41754
21
1.61619
0
LINE
8
BLACK
6
CONTINUOUS
10
1.41754
20
1.61619
11
1.41874
21
1.61738
0
LINE
8
BLACK
6
CONTINUOUS
10
1.41874
20
1.61738
11
1.42009
21
1.62008
0
LINE
8
BLACK
6
CONTINUOUS
10
1.42009
20
1.62008
11
1.42009
21
1.62806
0
LINE
8
BLACK
6
CONTINUOUS
10
1.42009
20
1.62806
11
1.41874
21
1.63076
0
LINE
8
BLACK
6
CONTINUOUS
10
1.41874
20
1.63076
11
1.4172
21
1.6323
0
LINE
8
BLACK
6
CONTINUOUS
10
1.4172
20
1.6323
11
1.41661
21
1.63314
0
LINE
8
BLACK
6
CONTINUOUS
10
1.41661
20
1.63314
11
1.41644
21
1.63515
0
LINE
8
BLACK
6
CONTINUOUS
10
1.41644
20
1.63515
11
1.4176
21
1.6368
0
LINE
8
BLACK
6
CONTINUOUS
10
1.4176
20
1.6368
11
1.41955
21
1.63732
0
LINE
8
BLACK
6
CONTINUOUS
10
1.41955
20
1.63732
11
1.42138
21
1.63647
0
LINE
8
BLACK
6
CONTINUOUS
10
1.42138
20
1.63647
11
1.42325
21
1.6346
0
LINE
8
BLACK
6
CONTINUOUS
10
1.42325
20
1.6346
11
1.42376
21
1.63387
0
LINE
8
BLACK
6
CONTINUOUS
10
1.42376
20
1.63387
11
1.4238
21
1.63383
0
LINE
8
BLACK
6
CONTINUOUS
10
1.4238
20
1.63383
11
1.42568
21
1.63008
0
LINE
8
BLACK
6
CONTINUOUS
10
1.42568
20
1.63008
11
1.42597
21
1.6291
0
LINE
8
BLACK
6
CONTINUOUS
10
1.42597
20
1.6291
11
1.42593
21
1.62892
0
LINE
8
BLACK
6
CONTINUOUS
10
1.42593
20
1.62892
11
1.42599
21
1.62876
0
LINE
8
BLACK
6
CONTINUOUS
10
1.42599
20
1.62876
11
1.42599
21
1.61939
0
LINE
8
BLACK
6
CONTINUOUS
10
1.42599
20
1.61939
11
1.42581
21
1.61838
0
LINE
8
BLACK
6
CONTINUOUS
10
1.42581
20
1.61838
11
1.4257
21
1.61824
0
LINE
8
BLACK
6
CONTINUOUS
10
1.4257
20
1.61824
11
1.42568
21
1.61806
0
LINE
8
BLACK
6
CONTINUOUS
10
1.42568
20
1.61806
11
1.4238
21
1.61432
0
LINE
8
BLACK
6
CONTINUOUS
10
1.4238
20
1.61432
11
1.42328
21
1.61361
0
LINE
8
BLACK
6
CONTINUOUS
10
1.42328
20
1.61361
11
1.42325
21
1.61355
0
LINE
8
BLACK
6
CONTINUOUS
10
1.42325
20
1.61355
11
1.42138
21
1.61167
0
LINE
8
BLACK
6
CONTINUOUS
10
1.42138
20
1.61167
11
1.42065
21
1.61117
0
LINE
8
BLACK
6
CONTINUOUS
10
1.42065
20
1.61117
11
1.42061
21
1.61112
0
LINE
8
BLACK
6
CONTINUOUS
10
1.42061
20
1.61112
11
1.41686
21
1.60925
0
LINE
8
BLACK
6
CONTINUOUS
10
1.41686
20
1.60925
11
1.41588
21
1.60895
0
LINE
8
BLACK
6
CONTINUOUS
10
1.41588
20
1.60895
11
1.41571
21
1.60899
0
LINE
8
BLACK
6
CONTINUOUS
10
1.41571
20
1.60899
11
1.41554
21
1.60893
0
LINE
8
BLACK
6
CONTINUOUS
10
1.41554
20
1.60893
11
1.41179
21
1.60893
0
LINE
8
BLACK
6
CONTINUOUS
10
1.41179
20
1.60893
11
1.41092
21
1.60909
0
LINE
8
BLACK
6
CONTINUOUS
10
1.41092
20
1.60909
11
1.41086
21
1.60908
0
LINE
8
BLACK
6
CONTINUOUS
10
1.41086
20
1.60908
11
1.40523
21
1.61096
0
LINE
8
BLACK
6
CONTINUOUS
10
1.40523
20
1.61096
11
1.40433
21
1.61145
0
LINE
8
BLACK
6
CONTINUOUS
10
1.40433
20
1.61145
11
1.40424
21
1.6116
0
LINE
8
BLACK
6
CONTINUOUS
10
1.40424
20
1.6116
11
1.40408
21
1.61167
0
LINE
8
BLACK
6
CONTINUOUS
10
1.40408
20
1.61167
11
1.38662
21
1.62913
0
LINE
8
BLACK
6
CONTINUOUS
10
1.38662
20
1.62913
11
1.38662
21
1.61189
0
LINE
8
BLACK
6
CONTINUOUS
10
1.38662
20
1.61189
11
1.38644
21
1.61088
0
LINE
8
BLACK
6
CONTINUOUS
10
1.38644
20
1.61088
11
1.38514
21
1.60933
0
LINE
8
BLACK
6
CONTINUOUS
10
1.38514
20
1.60933
11
1.38316
21
1.60898
0
LINE
8
BLACK
6
CONTINUOUS
10
1.38316
20
1.60898
11
1.38141
21
1.60999
0
LINE
8
BLACK
6
CONTINUOUS
10
1.38141
20
1.60999
11
1.38072
21
1.61189
0
LINE
8
BLACK
6
CONTINUOUS
10
1.38072
20
1.61189
11
1.38072
21
1.63626
0
LINE
8
BLACK
6
CONTINUOUS
10
1.38072
20
1.63626
11
1.38083
21
1.63689
0
LINE
8
BLACK
6
CONTINUOUS
10
1.38083
20
1.63689
11
1.38082
21
1.63702
0
LINE
8
BLACK
6
CONTINUOUS
10
1.38082
20
1.63702
11
1.38086
21
1.63709
0
LINE
8
BLACK
6
CONTINUOUS
10
1.38086
20
1.63709
11
1.38089
21
1.63727
0
LINE
8
BLACK
6
CONTINUOUS
10
1.38089
20
1.63727
11
1.38147
21
1.63795
0
LINE
8
BLACK
6
CONTINUOUS
10
1.38147
20
1.63795
11
1.38197
21
1.63868
0
LINE
8
BLACK
6
CONTINUOUS
10
1.38197
20
1.63868
11
1.38211
21
1.63871
0
LINE
8
BLACK
6
CONTINUOUS
10
1.38211
20
1.63871
11
1.38219
21
1.63882
0
LINE
8
BLACK
6
CONTINUOUS
10
1.38219
20
1.63882
11
1.38307
21
1.63897
0
LINE
8
BLACK
6
CONTINUOUS
10
1.38307
20
1.63897
11
1.38393
21
1.6392
0
LINE
8
BLACK
6
CONTINUOUS
10
1.38393
20
1.6392
11
1.38405
21
1.63914
0
LINE
8
BLACK
6
CONTINUOUS
10
1.38218
20
1.67378
11
1.38287
21
1.67188
0
LINE
8
BLACK
6
CONTINUOUS
10
1.38287
20
1.67188
11
1.38287
21
1.64188
0
LINE
8
BLACK
6
CONTINUOUS
10
1.38287
20
1.64188
11
1.38269
21
1.64087
0
LINE
8
BLACK
6
CONTINUOUS
10
1.38269
20
1.64087
11
1.3814
21
1.63933
0
LINE
8
BLACK
6
CONTINUOUS
10
1.3814
20
1.63933
11
1.37941
21
1.63897
0
LINE
8
BLACK
6
CONTINUOUS
10
1.37941
20
1.63897
11
1.37766
21
1.63998
0
LINE
8
BLACK
6
CONTINUOUS
10
1.37766
20
1.63998
11
1.37697
21
1.64188
0
LINE
8
BLACK
6
CONTINUOUS
10
1.37697
20
1.64188
11
1.37697
21
1.67188
0
LINE
8
BLACK
6
CONTINUOUS
10
1.37697
20
1.67188
11
1.37714
21
1.67289
0
LINE
8
BLACK
6
CONTINUOUS
10
1.37714
20
1.67289
11
1.37844
21
1.67444
0
LINE
8
BLACK
6
CONTINUOUS
10
1.37844
20
1.67444
11
1.38043
21
1.67479
0
LINE
8
BLACK
6
CONTINUOUS
10
1.38043
20
1.67479
11
1.38218
21
1.67378
0
LINE
8
BLACK
6
CONTINUOUS
10
1.4105
20
1.70847
11
1.41063
21
1.70849
0
LINE
8
BLACK
6
CONTINUOUS
10
1.41063
20
1.70849
11
1.41813
21
1.70661
0
LINE
8
BLACK
6
CONTINUOUS
10
1.41813
20
1.70661
11
1.41907
21
1.7062
0
LINE
8
BLACK
6
CONTINUOUS
10
1.41907
20
1.7062
11
1.41924
21
1.70596
0
LINE
8
BLACK
6
CONTINUOUS
10
1.41924
20
1.70596
11
1.4195
21
1.70584
0
LINE
8
BLACK
6
CONTINUOUS
10
1.4195
20
1.70584
11
1.42325
21
1.70209
0
LINE
8
BLACK
6
CONTINUOUS
10
1.42325
20
1.70209
11
1.42376
21
1.70136
0
LINE
8
BLACK
6
CONTINUOUS
10
1.42376
20
1.70136
11
1.4238
21
1.70132
0
LINE
8
BLACK
6
CONTINUOUS
10
1.4238
20
1.70132
11
1.42568
21
1.69757
0
LINE
8
BLACK
6
CONTINUOUS
10
1.42568
20
1.69757
11
1.42597
21
1.69659
0
LINE
8
BLACK
6
CONTINUOUS
10
1.42597
20
1.69659
11
1.42593
21
1.69642
0
LINE
8
BLACK
6
CONTINUOUS
10
1.42593
20
1.69642
11
1.42599
21
1.69625
0
LINE
8
BLACK
6
CONTINUOUS
10
1.42599
20
1.69625
11
1.42599
21
1.68875
0
LINE
8
BLACK
6
CONTINUOUS
10
1.42599
20
1.68875
11
1.42581
21
1.68774
0
LINE
8
BLACK
6
CONTINUOUS
10
1.42581
20
1.68774
11
1.4257
21
1.68761
0
LINE
8
BLACK
6
CONTINUOUS
10
1.4257
20
1.68761
11
1.42568
21
1.68743
0
LINE
8
BLACK
6
CONTINUOUS
10
1.42568
20
1.68743
11
1.4238
21
1.68368
0
LINE
8
BLACK
6
CONTINUOUS
10
1.4238
20
1.68368
11
1.42328
21
1.68297
0
LINE
8
BLACK
6
CONTINUOUS
10
1.42328
20
1.68297
11
1.42325
21
1.68291
0
LINE
8
BLACK
6
CONTINUOUS
10
1.42325
20
1.68291
11
1.4195
21
1.67916
0
LINE
8
BLACK
6
CONTINUOUS
10
1.4195
20
1.67916
11
1.41866
21
1.67858
0
LINE
8
BLACK
6
CONTINUOUS
10
1.41866
20
1.67858
11
1.41837
21
1.67855
0
LINE
8
BLACK
6
CONTINUOUS
10
1.41837
20
1.67855
11
1.41813
21
1.67839
0
LINE
8
BLACK
6
CONTINUOUS
10
1.41813
20
1.67839
11
1.41063
21
1.67651
0
LINE
8
BLACK
6
CONTINUOUS
10
1.41063
20
1.67651
11
1.41004
21
1.67647
0
LINE
8
BLACK
6
CONTINUOUS
10
1.41004
20
1.67647
11
1.40992
21
1.67642
0
LINE
8
BLACK
6
CONTINUOUS
10
1.40992
20
1.67642
11
1.39679
21
1.67642
0
LINE
8
BLACK
6
CONTINUOUS
10
1.39679
20
1.67642
11
1.39621
21
1.67653
0
LINE
8
BLACK
6
CONTINUOUS
10
1.39621
20
1.67653
11
1.39608
21
1.67651
0
LINE
8
BLACK
6
CONTINUOUS
10
1.39608
20
1.67651
11
1.38858
21
1.67839
0
LINE
8
BLACK
6
CONTINUOUS
10
1.38858
20
1.67839
11
1.38764
21
1.67881
0
LINE
8
BLACK
6
CONTINUOUS
10
1.38764
20
1.67881
11
1.38747
21
1.67904
0
LINE
8
BLACK
6
CONTINUOUS
10
1.38747
20
1.67904
11
1.3872
21
1.67916
0
LINE
8
BLACK
6
CONTINUOUS
10
1.3872
20
1.67916
11
1.38346
21
1.68291
0
LINE
8
BLACK
6
CONTINUOUS
10
1.38346
20
1.68291
11
1.38295
21
1.68364
0
LINE
8
BLACK
6
CONTINUOUS
10
1.38295
20
1.68364
11
1.3829
21
1.68368
0
LINE
8
BLACK
6
CONTINUOUS
10
1.3829
20
1.68368
11
1.38103
21
1.68743
0
LINE
8
BLACK
6
CONTINUOUS
10
1.38103
20
1.68743
11
1.38074
21
1.68841
0
LINE
8
BLACK
6
CONTINUOUS
10
1.38074
20
1.68841
11
1.38078
21
1.68859
0
LINE
8
BLACK
6
CONTINUOUS
10
1.38078
20
1.68859
11
1.38072
21
1.68875
0
LINE
8
BLACK
6
CONTINUOUS
10
1.38072
20
1.68875
11
1.38072
21
1.69625
0
LINE
8
BLACK
6
CONTINUOUS
10
1.38072
20
1.69625
11
1.38089
21
1.69726
0
LINE
8
BLACK
6
CONTINUOUS
10
1.38089
20
1.69726
11
1.38101
21
1.6974
0
LINE
8
BLACK
6
CONTINUOUS
10
1.38101
20
1.6974
11
1.38103
21
1.69757
0
LINE
8
BLACK
6
CONTINUOUS
10
1.38103
20
1.69757
11
1.3829
21
1.70132
0
LINE
8
BLACK
6
CONTINUOUS
10
1.3829
20
1.70132
11
1.38343
21
1.70203
0
LINE
8
BLACK
6
CONTINUOUS
10
1.38343
20
1.70203
11
1.38346
21
1.70209
0
LINE
8
BLACK
6
CONTINUOUS
10
1.38346
20
1.70209
11
1.3872
21
1.70584
0
LINE
8
BLACK
6
CONTINUOUS
10
1.3872
20
1.70584
11
1.38804
21
1.70643
0
LINE
8
BLACK
6
CONTINUOUS
10
1.38804
20
1.70643
11
1.38834
21
1.70645
0
LINE
8
BLACK
6
CONTINUOUS
10
1.38834
20
1.70645
11
1.38858
21
1.70661
0
LINE
8
BLACK
6
CONTINUOUS
10
1.38858
20
1.70661
11
1.39608
21
1.70849
0
LINE
8
BLACK
6
CONTINUOUS
10
1.39608
20
1.70849
11
1.39666
21
1.70853
0
LINE
8
BLACK
6
CONTINUOUS
10
1.39666
20
1.70853
11
1.39679
21
1.70858
0
LINE
8
BLACK
6
CONTINUOUS
10
1.39679
20
1.70858
11
1.40992
21
1.70858
0
LINE
8
BLACK
6
CONTINUOUS
10
1.40992
20
1.70858
11
1.4105
21
1.70847
0
LINE
8
BLACK
6
CONTINUOUS
10
1.3908
20
1.70108
11
1.38797
21
1.69825
0
LINE
8
BLACK
6
CONTINUOUS
10
1.38797
20
1.69825
11
1.38662
21
1.69555
0
LINE
8
BLACK
6
CONTINUOUS
10
1.38662
20
1.69555
11
1.38662
21
1.68945
0
LINE
8
BLACK
6
CONTINUOUS
10
1.38662
20
1.68945
11
1.38797
21
1.68675
0
LINE
8
BLACK
6
CONTINUOUS
10
1.38797
20
1.68675
11
1.3908
21
1.68392
0
LINE
8
BLACK
6
CONTINUOUS
10
1.3908
20
1.68392
11
1.39716
21
1.68233
0
LINE
8
BLACK
6
CONTINUOUS
10
1.39716
20
1.68233
11
1.40955
21
1.68233
0
LINE
8
BLACK
6
CONTINUOUS
10
1.40955
20
1.68233
11
1.4159
21
1.68392
0
LINE
8
BLACK
6
CONTINUOUS
10
1.4159
20
1.68392
11
1.41874
21
1.68675
0
LINE
8
BLACK
6
CONTINUOUS
10
1.41874
20
1.68675
11
1.42009
21
1.68945
0
LINE
8
BLACK
6
CONTINUOUS
10
1.42009
20
1.68945
11
1.42009
21
1.69555
0
LINE
8
BLACK
6
CONTINUOUS
10
1.42009
20
1.69555
11
1.41874
21
1.69825
0
LINE
8
BLACK
6
CONTINUOUS
10
1.41874
20
1.69825
11
1.4159
21
1.70108
0
LINE
8
BLACK
6
CONTINUOUS
10
1.4159
20
1.70108
11
1.40955
21
1.70267
0
LINE
8
BLACK
6
CONTINUOUS
10
1.40955
20
1.70267
11
1.39716
21
1.70267
0
LINE
8
BLACK
6
CONTINUOUS
10
1.39716
20
1.70267
11
1.3908
21
1.70108
0
LINE
8
BLACK
6
CONTINUOUS
10
1.40675
20
1.74784
11
1.40688
21
1.74786
0
LINE
8
BLACK
6
CONTINUOUS
10
1.40688
20
1.74786
11
1.41438
21
1.74598
0
LINE
8
BLACK
6
CONTINUOUS
10
1.41438
20
1.74598
11
1.41485
21
1.74578
0
LINE
8
BLACK
6
CONTINUOUS
10
1.41485
20
1.74578
11
1.41499
21
1.74576
0
LINE
8
BLACK
6
CONTINUOUS
10
1.41499
20
1.74576
11
1.41873
21
1.74389
0
LINE
8
BLACK
6
CONTINUOUS
10
1.41873
20
1.74389
11
1.41944
21
1.74336
0
LINE
8
BLACK
6
CONTINUOUS
10
1.41944
20
1.74336
11
1.4195
21
1.74333
0
LINE
8
BLACK
6
CONTINUOUS
10
1.4195
20
1.74333
11
1.42325
21
1.73958
0
LINE
8
BLACK
6
CONTINUOUS
10
1.42325
20
1.73958
11
1.42384
21
1.73874
0
LINE
8
BLACK
6
CONTINUOUS
10
1.42384
20
1.73874
11
1.42386
21
1.73857
0
LINE
8
BLACK
6
CONTINUOUS
10
1.42386
20
1.73857
11
1.42397
21
1.73843
0
LINE
8
BLACK
6
CONTINUOUS
10
1.42397
20
1.73843
11
1.42584
21
1.7328
0
LINE
8
BLACK
6
CONTINUOUS
10
1.42584
20
1.7328
11
1.42597
21
1.73193
0
LINE
8
BLACK
6
CONTINUOUS
10
1.42597
20
1.73193
11
1.42599
21
1.73187
0
LINE
8
BLACK
6
CONTINUOUS
10
1.42599
20
1.73187
11
1.42599
21
1.72625
0
LINE
8
BLACK
6
CONTINUOUS
10
1.42599
20
1.72625
11
1.42581
21
1.72524
0
LINE
8
BLACK
6
CONTINUOUS
10
1.42581
20
1.72524
11
1.4257
21
1.7251
0
LINE
8
BLACK
6
CONTINUOUS
10
1.4257
20
1.7251
11
1.42568
21
1.72493
0
LINE
8
BLACK
6
CONTINUOUS
10
1.42568
20
1.72493
11
1.4238
21
1.72118
0
LINE
8
BLACK
6
CONTINUOUS
10
1.4238
20
1.72118
11
1.42319
21
1.72035
0
LINE
8
BLACK
6
CONTINUOUS
10
1.42319
20
1.72035
11
1.42134
21
1.71955
0
LINE
8
BLACK
6
CONTINUOUS
10
1.42134
20
1.71955
11
1.4194
21
1.72013
0
LINE
8
BLACK
6
CONTINUOUS
10
1.4194
20
1.72013
11
1.41829
21
1.72181
0
LINE
8
BLACK
6
CONTINUOUS
10
1.41829
20
1.72181
11
1.41852
21
1.72382
0
LINE
8
BLACK
6
CONTINUOUS
10
1.41852
20
1.72382
11
1.42009
21
1.72694
0
LINE
8
BLACK
6
CONTINUOUS
10
1.42009
20
1.72694
11
1.42009
21
1.73139
0
LINE
8
BLACK
6
CONTINUOUS
10
1.42009
20
1.73139
11
1.41858
21
1.7359
0
LINE
8
BLACK
6
CONTINUOUS
10
1.41858
20
1.7359
11
1.41567
21
1.73882
0
LINE
8
BLACK
6
CONTINUOUS
10
1.41567
20
1.73882
11
1.41263
21
1.74033
0
LINE
8
BLACK
6
CONTINUOUS
10
1.41263
20
1.74033
11
1.4058
21
1.74204
0
LINE
8
BLACK
6
CONTINUOUS
10
1.4058
20
1.74204
11
1.4009
21
1.74204
0
LINE
8
BLACK
6
CONTINUOUS
10
1.4009
20
1.74204
11
1.39407
21
1.74033
0
LINE
8
BLACK
6
CONTINUOUS
10
1.39407
20
1.74033
11
1.39104
21
1.73882
0
LINE
8
BLACK
6
CONTINUOUS
10
1.39104
20
1.73882
11
1.38812
21
1.7359
0
LINE
8
BLACK
6
CONTINUOUS
10
1.38812
20
1.7359
11
1.38662
21
1.73139
0
LINE
8
BLACK
6
CONTINUOUS
10
1.38662
20
1.73139
11
1.38662
21
1.7286
0
LINE
8
BLACK
6
CONTINUOUS
10
1.38662
20
1.7286
11
1.38812
21
1.72409
0
LINE
8
BLACK
6
CONTINUOUS
10
1.38812
20
1.72409
11
1.38864
21
1.72358
0
LINE
8
BLACK
6
CONTINUOUS
10
1.38864
20
1.72358
11
1.39759
21
1.72358
0
LINE
8
BLACK
6
CONTINUOUS
10
1.39759
20
1.72358
11
1.39759
21
1.72812
0
LINE
8
BLACK
6
CONTINUOUS
10
1.39759
20
1.72812
11
1.39777
21
1.72913
0
LINE
8
BLACK
6
CONTINUOUS
10
1.39777
20
1.72913
11
1.39907
21
1.73068
0
LINE
8
BLACK
6
CONTINUOUS
10
1.39907
20
1.73068
11
1.40105
21
1.73103
0
LINE
8
BLACK
6
CONTINUOUS
10
1.40105
20
1.73103
11
1.4028
21
1.73002
0
LINE
8
BLACK
6
CONTINUOUS
10
1.4028
20
1.73002
11
1.40349
21
1.72812
0
LINE
8
BLACK
6
CONTINUOUS
10
1.40349
20
1.72812
11
1.40349
21
1.72062
0
LINE
8
BLACK
6
CONTINUOUS
10
1.40349
20
1.72062
11
1.40343
21
1.72024
0
LINE
8
BLACK
6
CONTINUOUS
10
1.40343
20
1.72024
11
1.40345
21
1.72011
0
LINE
8
BLACK
6
CONTINUOUS
10
1.40345
20
1.72011
11
1.40338
21
1.72
0
LINE
8
BLACK
6
CONTINUOUS
10
1.40338
20
1.72
11
1.40332
21
1.71961
0
LINE
8
BLACK
6
CONTINUOUS
10
1.40332
20
1.71961
11
1.40282
21
1.71902
0
LINE
8
BLACK
6
CONTINUOUS
10
1.40282
20
1.71902
11
1.40244
21
1.71836
0
LINE
8
BLACK
6
CONTINUOUS
10
1.40244
20
1.71836
11
1.40219
21
1.71827
0
LINE
8
BLACK
6
CONTINUOUS
10
1.40219
20
1.71827
11
1.40202
21
1.71807
0
LINE
8
BLACK
6
CONTINUOUS
10
1.40202
20
1.71807
11
1.40126
21
1.71793
0
LINE
8
BLACK
6
CONTINUOUS
10
1.40126
20
1.71793
11
1.40054
21
1.71767
0
LINE
8
BLACK
6
CONTINUOUS
10
1.40054
20
1.71767
11
1.38742
21
1.71767
0
LINE
8
BLACK
6
CONTINUOUS
10
1.38742
20
1.71767
11
1.38724
21
1.7177
0
LINE
8
BLACK
6
CONTINUOUS
10
1.38724
20
1.7177
11
1.38716
21
1.71768
0
LINE
8
BLACK
6
CONTINUOUS
10
1.38716
20
1.71768
11
1.38704
21
1.71774
0
LINE
8
BLACK
6
CONTINUOUS
10
1.38704
20
1.71774
11
1.38641
21
1.71785
0
LINE
8
BLACK
6
CONTINUOUS
10
1.38641
20
1.71785
11
1.38591
21
1.71826
0
LINE
8
BLACK
6
CONTINUOUS
10
1.38591
20
1.71826
11
1.38533
21
1.71853
0
LINE
8
BLACK
6
CONTINUOUS
10
1.38533
20
1.71853
11
1.38346
21
1.72041
0
LINE
8
BLACK
6
CONTINUOUS
10
1.38346
20
1.72041
11
1.38287
21
1.72125
0
LINE
8
BLACK
6
CONTINUOUS
10
1.38287
20
1.72125
11
1.38285
21
1.72143
0
LINE
8
BLACK
6
CONTINUOUS
10
1.38285
20
1.72143
11
1.38274
21
1.72156
0
LINE
8
BLACK
6
CONTINUOUS
10
1.38274
20
1.72156
11
1.38087
21
1.72719
0
LINE
8
BLACK
6
CONTINUOUS
10
1.38087
20
1.72719
11
1.38074
21
1.72806
0
LINE
8
BLACK
6
CONTINUOUS
10
1.38074
20
1.72806
11
1.38072
21
1.72812
0
LINE
8
BLACK
6
CONTINUOUS
10
1.38072
20
1.72812
11
1.38072
21
1.73187
0
LINE
8
BLACK
6
CONTINUOUS
10
1.38072
20
1.73187
11
1.38087
21
1.73274
0
LINE
8
BLACK
6
CONTINUOUS
10
1.38087
20
1.73274
11
1.38087
21
1.7328
0
LINE
8
BLACK
6
CONTINUOUS
10
1.38087
20
1.7328
11
1.38274
21
1.73843
0
LINE
8
BLACK
6
CONTINUOUS
10
1.38274
20
1.73843
11
1.38323
21
1.73933
0
LINE
8
BLACK
6
CONTINUOUS
10
1.38323
20
1.73933
11
1.38338
21
1.73942
0
LINE
8
BLACK
6
CONTINUOUS
10
1.38338
20
1.73942
11
1.38346
21
1.73958
0
LINE
8
BLACK
6
CONTINUOUS
10
1.38346
20
1.73958
11
1.3872
21
1.74333
0
LINE
8
BLACK
6
CONTINUOUS
10
1.3872
20
1.74333
11
1.38793
21
1.74384
0
LINE
8
BLACK
6
CONTINUOUS
10
1.38793
20
1.74384
11
1.38797
21
1.74389
0
LINE
8
BLACK
6
CONTINUOUS
10
1.38797
20
1.74389
11
1.39172
21
1.74576
0
LINE
8
BLACK
6
CONTINUOUS
10
1.39172
20
1.74576
11
1.39221
21
1.74591
0
LINE
8
BLACK
6
CONTINUOUS
10
1.39221
20
1.74591
11
1.39233
21
1.74598
0
LINE
8
BLACK
6
CONTINUOUS
10
1.39233
20
1.74598
11
1.39983
21
1.74786
0
LINE
8
BLACK
6
CONTINUOUS
10
1.39983
20
1.74786
11
1.40041
21
1.7479
0
LINE
8
BLACK
6
CONTINUOUS
10
1.40041
20
1.7479
11
1.40054
21
1.74795
0
LINE
8
BLACK
6
CONTINUOUS
10
1.40054
20
1.74795
11
1.40617
21
1.74795
0
LINE
8
BLACK
6
CONTINUOUS
10
1.40617
20
1.74795
11
1.40675
21
1.74784
0
LINE
8
BLACK
6
CONTINUOUS
10
1.42397
20
1.77217
11
1.42487
21
1.77168
0
LINE
8
BLACK
6
CONTINUOUS
10
1.42487
20
1.77168
11
1.42492
21
1.77161
0
LINE
8
BLACK
6
CONTINUOUS
10
1.42492
20
1.77161
11
1.425
21
1.77158
0
LINE
8
BLACK
6
CONTINUOUS
10
1.425
20
1.77158
11
1.42544
21
1.77075
0
LINE
8
BLACK
6
CONTINUOUS
10
1.42544
20
1.77075
11
1.42593
21
1.76996
0
LINE
8
BLACK
6
CONTINUOUS
10
1.42593
20
1.76996
11
1.42592
21
1.76987
0
LINE
8
BLACK
6
CONTINUOUS
10
1.42592
20
1.76987
11
1.42596
21
1.7698
0
LINE
8
BLACK
6
CONTINUOUS
10
1.42596
20
1.7698
11
1.42577
21
1.76888
0
LINE
8
BLACK
6
CONTINUOUS
10
1.42577
20
1.76888
11
1.42564
21
1.76796
0
LINE
8
BLACK
6
CONTINUOUS
10
1.42564
20
1.76796
11
1.42557
21
1.7679
0
LINE
8
BLACK
6
CONTINUOUS
10
1.42557
20
1.7679
11
1.42555
21
1.76782
0
LINE
8
BLACK
6
CONTINUOUS
10
1.42555
20
1.76782
11
1.42482
21
1.76724
0
LINE
8
BLACK
6
CONTINUOUS
10
1.42482
20
1.76724
11
1.42412
21
1.76662
0
LINE
8
BLACK
6
CONTINUOUS
10
1.42412
20
1.76662
11
1.42404
21
1.76662
0
LINE
8
BLACK
6
CONTINUOUS
10
1.42404
20
1.76662
11
1.42397
21
1.76657
0
LINE
8
BLACK
6
CONTINUOUS
10
1.42397
20
1.76657
11
1.3846
21
1.75344
0
LINE
8
BLACK
6
CONTINUOUS
10
1.3846
20
1.75344
11
1.38359
21
1.75329
0
LINE
8
BLACK
6
CONTINUOUS
10
1.38359
20
1.75329
11
1.38171
21
1.75403
0
LINE
8
BLACK
6
CONTINUOUS
10
1.38171
20
1.75403
11
1.38075
21
1.75581
0
LINE
8
BLACK
6
CONTINUOUS
10
1.38075
20
1.75581
11
1.38115
21
1.75779
0
LINE
8
BLACK
6
CONTINUOUS
10
1.38115
20
1.75779
11
1.38273
21
1.75904
0
LINE
8
BLACK
6
CONTINUOUS
10
1.38273
20
1.75904
11
1.39196
21
1.76212
0
LINE
8
BLACK
6
CONTINUOUS
10
1.39196
20
1.76212
11
1.39196
21
1.77661
0
LINE
8
BLACK
6
CONTINUOUS
10
1.39196
20
1.77661
11
1.38273
21
1.77969
0
LINE
8
BLACK
6
CONTINUOUS
10
1.38273
20
1.77969
11
1.38183
21
1.78018
0
LINE
8
BLACK
6
CONTINUOUS
10
1.38183
20
1.78018
11
1.38078
21
1.7819
0
LINE
8
BLACK
6
CONTINUOUS
10
1.38078
20
1.7819
11
1.38107
21
1.7839
0
LINE
8
BLACK
6
CONTINUOUS
10
1.38107
20
1.7839
11
1.38258
21
1.78524
0
LINE
8
BLACK
6
CONTINUOUS
10
1.38258
20
1.78524
11
1.3846
21
1.78529
0
LINE
8
BLACK
6
CONTINUOUS
10
1.3846
20
1.78529
11
1.42397
21
1.77217
0
LINE
8
BLACK
6
CONTINUOUS
10
1.39787
20
1.76409
11
1.4137
21
1.76937
0
LINE
8
BLACK
6
CONTINUOUS
10
1.4137
20
1.76937
11
1.39787
21
1.77464
0
LINE
8
BLACK
6
CONTINUOUS
10
1.39787
20
1.77464
11
1.39787
21
1.76409
0
LINE
8
BLACK
6
CONTINUOUS
10
1.42518
20
1.82764
11
1.42599
21
1.82578
0
LINE
8
BLACK
6
CONTINUOUS
10
1.42599
20
1.82578
11
1.42541
21
1.82385
0
LINE
8
BLACK
6
CONTINUOUS
10
1.42541
20
1.82385
11
1.42372
21
1.82274
0
LINE
8
BLACK
6
CONTINUOUS
10
1.42372
20
1.82274
11
1.39574
21
1.81607
0
LINE
8
BLACK
6
CONTINUOUS
10
1.39574
20
1.81607
11
1.41024
21
1.8122
0
LINE
8
BLACK
6
CONTINUOUS
10
1.41024
20
1.8122
11
1.74016
21
1.8122
0
LINE
8
BLACK
6
CONTINUOUS
10
1.74016
20
1.8122
11
1.74155
21
1.81163
0
LINE
8
BLACK
6
CONTINUOUS
10
1.74155
20
1.81163
11
1.74213
21
1.81024
0
LINE
8
BLACK
6
CONTINUOUS
10
1.74213
20
1.81024
11
1.74213
21
1.32205
0
LINE
8
BLACK
6
CONTINUOUS
10
1.74213
20
1.32205
11
1.74155
21
1.32066
0
LINE
8
BLACK
6
CONTINUOUS
10
1.74155
20
1.32066
11
1.74016
21
1.32008
0
LINE
8
BLACK
6
CONTINUOUS
10
1.74016
20
1.32008
11
1.42507
21
1.32008
0
LINE
8
BLACK
6
CONTINUOUS
10
1.42507
20
1.32008
11
1.42568
21
1.31887
0
LINE
8
BLACK
6
CONTINUOUS
10
1.42568
20
1.31887
11
1.42597
21
1.31789
0
LINE
8
BLACK
6
CONTINUOUS
10
1.42597
20
1.31789
11
1.42593
21
1.31771
0
LINE
8
BLACK
6
CONTINUOUS
10
1.42593
20
1.31771
11
1.42599
21
1.31755
0
LINE
8
BLACK
6
CONTINUOUS
10
1.42599
20
1.31755
11
1.42599
21
1.30817
0
LINE
8
BLACK
6
CONTINUOUS
10
1.42599
20
1.30817
11
1.42581
21
1.30716
0
LINE
8
BLACK
6
CONTINUOUS
10
1.42581
20
1.30716
11
1.4257
21
1.30703
0
LINE
8
BLACK
6
CONTINUOUS
10
1.4257
20
1.30703
11
1.42568
21
1.30685
0
LINE
8
BLACK
6
CONTINUOUS
10
1.42568
20
1.30685
11
1.4238
21
1.3031
0
LINE
8
BLACK
6
CONTINUOUS
10
1.4238
20
1.3031
11
1.42328
21
1.30239
0
LINE
8
BLACK
6
CONTINUOUS
10
1.42328
20
1.30239
11
1.42325
21
1.30234
0
LINE
8
BLACK
6
CONTINUOUS
10
1.42325
20
1.30234
11
1.42138
21
1.30046
0
LINE
8
BLACK
6
CONTINUOUS
10
1.42138
20
1.30046
11
1.42065
21
1.29996
0
LINE
8
BLACK
6
CONTINUOUS
10
1.42065
20
1.29996
11
1.42061
21
1.29991
0
LINE
8
BLACK
6
CONTINUOUS
10
1.42061
20
1.29991
11
1.41686
21
1.29803
0
LINE
8
BLACK
6
CONTINUOUS
10
1.41686
20
1.29803
11
1.41588
21
1.29774
0
LINE
8
BLACK
6
CONTINUOUS
10
1.41588
20
1.29774
11
1.41571
21
1.29778
0
LINE
8
BLACK
6
CONTINUOUS
10
1.41571
20
1.29778
11
1.41554
21
1.29772
0
LINE
8
BLACK
6
CONTINUOUS
10
1.41554
20
1.29772
11
1.41179
21
1.29772
0
LINE
8
BLACK
6
CONTINUOUS
10
1.41179
20
1.29772
11
1.41092
21
1.29788
0
LINE
8
BLACK
6
CONTINUOUS
10
1.41092
20
1.29788
11
1.41086
21
1.29787
0
LINE
8
BLACK
6
CONTINUOUS
10
1.41086
20
1.29787
11
1.40523
21
1.29975
0
LINE
8
BLACK
6
CONTINUOUS
10
1.40523
20
1.29975
11
1.40433
21
1.30024
0
LINE
8
BLACK
6
CONTINUOUS
10
1.40433
20
1.30024
11
1.40424
21
1.30039
0
LINE
8
BLACK
6
CONTINUOUS
10
1.40424
20
1.30039
11
1.40408
21
1.30046
0
LINE
8
BLACK
6
CONTINUOUS
10
1.40408
20
1.30046
11
1.38662
21
1.31792
0
LINE
8
BLACK
6
CONTINUOUS
10
1.38662
20
1.31792
11
1.38662
21
1.30067
0
LINE
8
BLACK
6
CONTINUOUS
10
1.38662
20
1.30067
11
1.38644
21
1.29967
0
LINE
8
BLACK
6
CONTINUOUS
10
1.38644
20
1.29967
11
1.38514
21
1.29812
0
LINE
8
BLACK
6
CONTINUOUS
10
1.38514
20
1.29812
11
1.38316
21
1.29777
0
LINE
8
BLACK
6
CONTINUOUS
10
1.38316
20
1.29777
11
1.38141
21
1.29878
0
LINE
8
BLACK
6
CONTINUOUS
10
1.38141
20
1.29878
11
1.38072
21
1.30067
0
LINE
8
BLACK
6
CONTINUOUS
10
1.38072
20
1.30067
11
1.38072
21
1.32008
0
LINE
8
BLACK
6
CONTINUOUS
10
1.38072
20
1.32008
11
1.08268
21
1.32008
0
LINE
8
BLACK
6
CONTINUOUS
10
1.08268
20
1.32008
11
1.08129
21
1.32066
0
LINE
8
BLACK
6
CONTINUOUS
10
1.08129
20
1.32066
11
1.08071
21
1.32205
0
LINE
8
BLACK
6
CONTINUOUS
10
1.08071
20
1.32205
11
1.08071
21
1.32205
0
LINE
8
BLACK
6
CONTINUOUS
10
1.08071
20
1.32205
11
1.08071
21
1.81024
0
LINE
8
BLACK
6
CONTINUOUS
10
1.08071
20
1.81024
11
1.08129
21
1.81163
0
LINE
8
BLACK
6
CONTINUOUS
10
1.08129
20
1.81163
11
1.08268
21
1.8122
0
LINE
8
BLACK
6
CONTINUOUS
10
1.08268
20
1.8122
11
1.38732
21
1.8122
0
LINE
8
BLACK
6
CONTINUOUS
10
1.38732
20
1.8122
11
1.38291
21
1.81338
0
LINE
8
BLACK
6
CONTINUOUS
10
1.38291
20
1.81338
11
1.38198
21
1.81381
0
LINE
8
BLACK
6
CONTINUOUS
10
1.38198
20
1.81381
11
1.3818
21
1.81407
0
LINE
8
BLACK
6
CONTINUOUS
10
1.3818
20
1.81407
11
1.38152
21
1.81421
0
LINE
8
BLACK
6
CONTINUOUS
10
1.38152
20
1.81421
11
1.38123
21
1.81487
0
LINE
8
BLACK
6
CONTINUOUS
10
1.38123
20
1.81487
11
1.38082
21
1.81547
0
LINE
8
BLACK
6
CONTINUOUS
10
1.38082
20
1.81547
11
1.38084
21
1.81578
0
LINE
8
BLACK
6
CONTINUOUS
10
1.38084
20
1.81578
11
1.38072
21
1.81606
0
LINE
8
BLACK
6
CONTINUOUS
10
1.38072
20
1.81606
11
1.38093
21
1.81676
0
LINE
8
BLACK
6
CONTINUOUS
10
1.38093
20
1.81676
11
1.38099
21
1.81748
0
LINE
8
BLACK
6
CONTINUOUS
10
1.38099
20
1.81748
11
1.38121
21
1.8177
0
LINE
8
BLACK
6
CONTINUOUS
10
1.38121
20
1.8177
11
1.3813
21
1.818
0
LINE
8
BLACK
6
CONTINUOUS
10
1.3813
20
1.818
11
1.3819
21
1.8184
0
LINE
8
BLACK
6
CONTINUOUS
10
1.3819
20
1.8184
11
1.38242
21
1.81891
0
LINE
8
BLACK
6
CONTINUOUS
10
1.38242
20
1.81891
11
1.38273
21
1.81894
0
LINE
8
BLACK
6
CONTINUOUS
10
1.38273
20
1.81894
11
1.38298
21
1.81911
0
LINE
8
BLACK
6
CONTINUOUS
10
1.38298
20
1.81911
11
1.42235
21
1.82848
0
LINE
8
BLACK
6
CONTINUOUS
10
1.42235
20
1.82848
11
1.42338
21
1.82854
0
LINE
8
BLACK
6
CONTINUOUS
10
1.42338
20
1.82854
11
1.42518
21
1.82764
0
LINE
8
BLACK
6
CONTINUOUS
10
1.39281
20
1.32008
11
1.40776
21
1.30513
0
LINE
8
BLACK
6
CONTINUOUS
10
1.40776
20
1.30513
11
1.41227
21
1.30363
0
LINE
8
BLACK
6
CONTINUOUS
10
1.41227
20
1.30363
11
1.41484
21
1.30363
0
LINE
8
BLACK
6
CONTINUOUS
10
1.41484
20
1.30363
11
1.41754
21
1.30498
0
LINE
8
BLACK
6
CONTINUOUS
10
1.41754
20
1.30498
11
1.41874
21
1.30617
0
LINE
8
BLACK
6
CONTINUOUS
10
1.41874
20
1.30617
11
1.42009
21
1.30887
0
LINE
8
BLACK
6
CONTINUOUS
10
1.42009
20
1.30887
11
1.42009
21
1.31685
0
LINE
8
BLACK
6
CONTINUOUS
10
1.42009
20
1.31685
11
1.41874
21
1.31955
0
LINE
8
BLACK
6
CONTINUOUS
10
1.41874
20
1.31955
11
1.41821
21
1.32008
0
LINE
8
BLACK
6
CONTINUOUS
10
1.41821
20
1.32008
11
1.39281
21
1.32008
0
LINE
8
BLACK
6
CONTINUOUS
10
1.41454
20
1.80827
11
1.41453
21
1.80825
0
LINE
8
BLACK
6
CONTINUOUS
10
1.41453
20
1.80825
11
1.41447
21
1.80749
0
LINE
8
BLACK
6
CONTINUOUS
10
1.41447
20
1.80749
11
1.41428
21
1.8073
0
LINE
8
BLACK
6
CONTINUOUS
10
1.41428
20
1.8073
11
1.41421
21
1.80704
0
LINE
8
BLACK
6
CONTINUOUS
10
1.41421
20
1.80704
11
1.41358
21
1.8066
0
LINE
8
BLACK
6
CONTINUOUS
10
1.41358
20
1.8066
11
1.41304
21
1.80606
0
LINE
8
BLACK
6
CONTINUOUS
10
1.41304
20
1.80606
11
1.41277
21
1.80604
0
LINE
8
BLACK
6
CONTINUOUS
10
1.41277
20
1.80604
11
1.41255
21
1.80588
0
LINE
8
BLACK
6
CONTINUOUS
10
1.41255
20
1.80588
11
1.39574
21
1.8014
0
LINE
8
BLACK
6
CONTINUOUS
10
1.39574
20
1.8014
11
1.42372
21
1.79474
0
LINE
8
BLACK
6
CONTINUOUS
10
1.42372
20
1.79474
11
1.42466
21
1.79433
0
LINE
8
BLACK
6
CONTINUOUS
10
1.42466
20
1.79433
11
1.42587
21
1.79271
0
LINE
8
BLACK
6
CONTINUOUS
10
1.42587
20
1.79271
11
1.42575
21
1.79069
0
LINE
8
BLACK
6
CONTINUOUS
10
1.42575
20
1.79069
11
1.42436
21
1.78922
0
LINE
8
BLACK
6
CONTINUOUS
10
1.42436
20
1.78922
11
1.42235
21
1.78899
0
LINE
8
BLACK
6
CONTINUOUS
10
1.42235
20
1.78899
11
1.38298
21
1.79836
0
LINE
8
BLACK
6
CONTINUOUS
10
1.38298
20
1.79836
11
1.38204
21
1.79877
0
LINE
8
BLACK
6
CONTINUOUS
10
1.38204
20
1.79877
11
1.38186
21
1.79902
0
LINE
8
BLACK
6
CONTINUOUS
10
1.38186
20
1.79902
11
1.38158
21
1.79915
0
LINE
8
BLACK
6
CONTINUOUS
10
1.38158
20
1.79915
11
1.38127
21
1.79981
0
LINE
8
BLACK
6
CONTINUOUS
10
1.38127
20
1.79981
11
1.38084
21
1.80039
0
LINE
8
BLACK
6
CONTINUOUS
10
1.38084
20
1.80039
11
1.38086
21
1.8007
0
LINE
8
BLACK
6
CONTINUOUS
10
1.38086
20
1.8007
11
1.38073
21
1.80098
0
LINE
8
BLACK
6
CONTINUOUS
10
1.38073
20
1.80098
11
1.38092
21
1.80168
0
LINE
8
BLACK
6
CONTINUOUS
10
1.38092
20
1.80168
11
1.38096
21
1.80241
0
LINE
8
BLACK
6
CONTINUOUS
10
1.38096
20
1.80241
11
1.38117
21
1.80263
0
LINE
8
BLACK
6
CONTINUOUS
10
1.38117
20
1.80263
11
1.38125
21
1.80293
0
LINE
8
BLACK
6
CONTINUOUS
10
1.38125
20
1.80293
11
1.38185
21
1.80335
0
LINE
8
BLACK
6
CONTINUOUS
10
1.38185
20
1.80335
11
1.38235
21
1.80388
0
LINE
8
BLACK
6
CONTINUOUS
10
1.38235
20
1.80388
11
1.38265
21
1.80391
0
LINE
8
BLACK
6
CONTINUOUS
10
1.38265
20
1.80391
11
1.38291
21
1.80409
0
LINE
8
BLACK
6
CONTINUOUS
10
1.38291
20
1.80409
11
1.39857
21
1.80827
0
LINE
8
BLACK
6
CONTINUOUS
10
1.39857
20
1.80827
11
1.08465
21
1.80827
0
LINE
8
BLACK
6
CONTINUOUS
10
1.08465
20
1.80827
11
1.08465
21
1.32402
0
LINE
8
BLACK
6
CONTINUOUS
10
1.08465
20
1.32402
11
1.38072
21
1.32402
0
LINE
8
BLACK
6
CONTINUOUS
10
1.38072
20
1.32402
11
1.38072
21
1.32505
0
LINE
8
BLACK
6
CONTINUOUS
10
1.38072
20
1.32505
11
1.38083
21
1.32568
0
LINE
8
BLACK
6
CONTINUOUS
10
1.38083
20
1.32568
11
1.38082
21
1.32581
0
LINE
8
BLACK
6
CONTINUOUS
10
1.38082
20
1.32581
11
1.38086
21
1.32588
0
LINE
8
BLACK
6
CONTINUOUS
10
1.38086
20
1.32588
11
1.38089
21
1.32606
0
LINE
8
BLACK
6
CONTINUOUS
10
1.38089
20
1.32606
11
1.38147
21
1.32674
0
LINE
8
BLACK
6
CONTINUOUS
10
1.38147
20
1.32674
11
1.38197
21
1.32747
0
LINE
8
BLACK
6
CONTINUOUS
10
1.38197
20
1.32747
11
1.38211
21
1.3275
0
LINE
8
BLACK
6
CONTINUOUS
10
1.38211
20
1.3275
11
1.38219
21
1.3276
0
LINE
8
BLACK
6
CONTINUOUS
10
1.38219
20
1.3276
11
1.38307
21
1.32776
0
LINE
8
BLACK
6
CONTINUOUS
10
1.38307
20
1.32776
11
1.38393
21
1.32799
0
LINE
8
BLACK
6
CONTINUOUS
10
1.38393
20
1.32799
11
1.38405
21
1.32793
0
LINE
8
BLACK
6
CONTINUOUS
10
1.38405
20
1.32793
11
1.38418
21
1.32795
0
LINE
8
BLACK
6
CONTINUOUS
10
1.38418
20
1.32795
11
1.38495
21
1.32751
0
LINE
8
BLACK
6
CONTINUOUS
10
1.38495
20
1.32751
11
1.38576
21
1.32713
0
LINE
8
BLACK
6
CONTINUOUS
10
1.38576
20
1.32713
11
1.38888
21
1.32402
0
LINE
8
BLACK
6
CONTINUOUS
10
1.38888
20
1.32402
11
1.41649
21
1.32402
0
LINE
8
BLACK
6
CONTINUOUS
10
1.41649
20
1.32402
11
1.4176
21
1.32559
0
LINE
8
BLACK
6
CONTINUOUS
10
1.4176
20
1.32559
11
1.41955
21
1.32611
0
LINE
8
BLACK
6
CONTINUOUS
10
1.41955
20
1.32611
11
1.42138
21
1.32526
0
LINE
8
BLACK
6
CONTINUOUS
10
1.42138
20
1.32526
11
1.42262
21
1.32402
0
LINE
8
BLACK
6
CONTINUOUS
10
1.42262
20
1.32402
11
1.73819
21
1.32402
0
LINE
8
BLACK
6
CONTINUOUS
10
1.73819
20
1.32402
11
1.73819
21
1.61651
0
LINE
8
BLACK
6
CONTINUOUS
10
1.73819
20
1.61651
11
1.69546
21
1.65924
0
LINE
8
BLACK
6
CONTINUOUS
10
1.69546
20
1.65924
11
1.69488
21
1.66063
0
LINE
8
BLACK
6
CONTINUOUS
10
1.69488
20
1.66063
11
1.69546
21
1.66202
0
LINE
8
BLACK
6
CONTINUOUS
10
1.69546
20
1.66202
11
1.69546
21
1.66202
0
LINE
8
BLACK
6
CONTINUOUS
10
1.69546
20
1.66202
11
1.73819
21
1.70475
0
LINE
8
BLACK
6
CONTINUOUS
10
1.73819
20
1.70475
11
1.73819
21
1.80827
0
LINE
8
BLACK
6
CONTINUOUS
10
1.73819
20
1.80827
11
1.41454
21
1.80827
0
LINE
8
BLACK
6
CONTINUOUS
10
1.69963
20
1.66063
11
1.73819
21
1.62208
0
LINE
8
BLACK
6
CONTINUOUS
10
1.73819
20
1.62208
11
1.73819
21
1.69918
0
LINE
8
BLACK
6
CONTINUOUS
10
1.73819
20
1.69918
11
1.69963
21
1.66063
0
LINE
8
BLACK
6
CONTINUOUS
10
0.77889
20
1.43562
11
0.779025
21
1.43551
0
LINE
8
BLACK
6
CONTINUOUS
10
0.779025
20
1.43551
11
0.779201
21
1.43549
0
LINE
8
BLACK
6
CONTINUOUS
10
0.779201
20
1.43549
11
0.78295
21
1.43361
0
LINE
8
BLACK
6
CONTINUOUS
10
0.78295
20
1.43361
11
0.783659
21
1.43309
0
LINE
8
BLACK
6
CONTINUOUS
10
0.783659
20
1.43309
11
0.783717
21
1.43306
0
LINE
8
BLACK
6
CONTINUOUS
10
0.783717
20
1.43306
11
0.785592
21
1.43118
0
LINE
8
BLACK
6
CONTINUOUS
10
0.785592
20
1.43118
11
0.786098
21
1.43046
0
LINE
8
BLACK
6
CONTINUOUS
10
0.786098
20
1.43046
11
0.786145
21
1.43042
0
LINE
8
BLACK
6
CONTINUOUS
10
0.786145
20
1.43042
11
0.78802
21
1.42667
0
LINE
8
BLACK
6
CONTINUOUS
10
0.78802
20
1.42667
11
0.788312
21
1.42568
0
LINE
8
BLACK
6
CONTINUOUS
10
0.788312
20
1.42568
11
0.788271
21
1.42551
0
LINE
8
BLACK
6
CONTINUOUS
10
0.788271
20
1.42551
11
0.788332
21
1.42535
0
LINE
8
BLACK
6
CONTINUOUS
10
0.788332
20
1.42535
11
0.788332
21
1.4133
0
LINE
8
BLACK
6
CONTINUOUS
10
0.788332
20
1.4133
11
0.804127
21
1.4133
0
LINE
8
BLACK
6
CONTINUOUS
10
0.804127
20
1.4133
11
0.805137
21
1.41312
0
LINE
8
BLACK
6
CONTINUOUS
10
0.805137
20
1.41312
11
0.806684
21
1.41183
0
LINE
8
BLACK
6
CONTINUOUS
10
0.806684
20
1.41183
11
0.807035
21
1.40984
0
LINE
8
BLACK
6
CONTINUOUS
10
0.807035
20
1.40984
11
0.806025
21
1.40809
0
LINE
8
BLACK
6
CONTINUOUS
10
0.806025
20
1.40809
11
0.804127
21
1.4074
0
LINE
8
BLACK
6
CONTINUOUS
10
0.804127
20
1.4074
11
0.764757
21
1.4074
0
LINE
8
BLACK
6
CONTINUOUS
10
0.764757
20
1.4074
11
0.764373
21
1.40746
0
LINE
8
BLACK
6
CONTINUOUS
10
0.764373
20
1.40746
11
0.764244
21
1.40744
0
LINE
8
BLACK
6
CONTINUOUS
10
0.764244
20
1.40744
11
0.76413
21
1.40751
0
LINE
8
BLACK
6
CONTINUOUS
10
0.76413
20
1.40751
11
0.763747
21
1.40757
0
LINE
8
BLACK
6
CONTINUOUS
10
0.763747
20
1.40757
11
0.763159
21
1.40807
0
LINE
8
BLACK
6
CONTINUOUS
10
0.763159
20
1.40807
11
0.762495
21
1.40845
0
LINE
8
BLACK
6
CONTINUOUS
10
0.762495
20
1.40845
11
0.762404
21
1.4087
0
LINE
8
BLACK
6
CONTINUOUS
10
0.762404
20
1.4087
11
0.762199
21
1.40887
0
LINE
8
BLACK
6
CONTINUOUS
10
0.762199
20
1.40887
11
0.762066
21
1.40963
0
LINE
8
BLACK
6
CONTINUOUS
10
0.762066
20
1.40963
11
0.761804
21
1.41035
0
LINE
8
BLACK
6
CONTINUOUS
10
0.761804
20
1.41035
11
0.761804
21
1.42535
0
LINE
8
BLACK
6
CONTINUOUS
10
0.761804
20
1.42535
11
0.761982
21
1.42636
0
LINE
8
BLACK
6
CONTINUOUS
10
0.761982
20
1.42636
11
0.762095
21
1.42649
0
LINE
8
BLACK
6
CONTINUOUS
10
0.762095
20
1.42649
11
0.762116
21
1.42667
0
LINE
8
BLACK
6
CONTINUOUS
10
0.762116
20
1.42667
11
0.76399
21
1.43042
0
LINE
8
BLACK
6
CONTINUOUS
10
0.76399
20
1.43042
11
0.764516
21
1.43113
0
LINE
8
BLACK
6
CONTINUOUS
10
0.764516
20
1.43113
11
0.764544
21
1.43118
0
LINE
8
BLACK
6
CONTINUOUS
10
0.764544
20
1.43118
11
0.766418
21
1.43306
0
LINE
8
BLACK
6
CONTINUOUS
10
0.766418
20
1.43306
11
0.767141
21
1.43357
0
LINE
8
BLACK
6
CONTINUOUS
10
0.767141
20
1.43357
11
0.767186
21
1.43361
0
LINE
8
BLACK
6
CONTINUOUS
10
0.767186
20
1.43361
11
0.770935
21
1.43549
0
LINE
8
BLACK
6
CONTINUOUS
10
0.770935
20
1.43549
11
0.771918
21
1.43578
0
LINE
8
BLACK
6
CONTINUOUS
10
0.771918
20
1.43578
11
0.77209
21
1.43574
0
LINE
8
BLACK
6
CONTINUOUS
10
0.77209
20
1.43574
11
0.772256
21
1.4358
0
LINE
8
BLACK
6
CONTINUOUS
10
0.772256
20
1.4358
11
0.77788
21
1.4358
0
LINE
8
BLACK
6
CONTINUOUS
10
0.77788
20
1.4358
11
0.77889
21
1.43562
0
LINE
8
BLACK
6
CONTINUOUS
10
0.770255
20
1.42854
11
0.769058
21
1.42735
0
LINE
8
BLACK
6
CONTINUOUS
10
0.769058
20
1.42735
11
0.767709
21
1.42465
0
LINE
8
BLACK
6
CONTINUOUS
10
0.767709
20
1.42465
11
0.767709
21
1.4133
0
LINE
8
BLACK
6
CONTINUOUS
10
0.767709
20
1.4133
11
0.782426
21
1.4133
0
LINE
8
BLACK
6
CONTINUOUS
10
0.782426
20
1.4133
11
0.782426
21
1.42465
0
LINE
8
BLACK
6
CONTINUOUS
10
0.782426
20
1.42465
11
0.781078
21
1.42735
0
LINE
8
BLACK
6
CONTINUOUS
10
0.781078
20
1.42735
11
0.77988
21
1.42854
0
LINE
8
BLACK
6
CONTINUOUS
10
0.77988
20
1.42854
11
0.777183
21
1.42989
0
LINE
8
BLACK
6
CONTINUOUS
10
0.777183
20
1.42989
11
0.772953
21
1.42989
0
LINE
8
BLACK
6
CONTINUOUS
10
0.772953
20
1.42989
11
0.770255
21
1.42854
0
LINE
8
BLACK
6
CONTINUOUS
10
0.88622
20
1.47638
11
0.887612
21
1.4758
0
LINE
8
BLACK
6
CONTINUOUS
10
0.887612
20
1.4758
11
0.888189
21
1.47441
0
LINE
8
BLACK
6
CONTINUOUS
10
0.888189
20
1.47441
11
0.888189
21
1.42441
0
LINE
8
BLACK
6
CONTINUOUS
10
0.888189
20
1.42441
11
0.887612
21
1.42302
0
LINE
8
BLACK
6
CONTINUOUS
10
0.887612
20
1.42302
11
0.837612
21
1.37302
0
LINE
8
BLACK
6
CONTINUOUS
10
0.837612
20
1.37302
11
0.83622
21
1.37244
0
LINE
8
BLACK
6
CONTINUOUS
10
0.83622
20
1.37244
11
0.68622
21
1.37244
0
LINE
8
BLACK
6
CONTINUOUS
10
0.68622
20
1.37244
11
0.684829
21
1.37302
0
LINE
8
BLACK
6
CONTINUOUS
10
0.684829
20
1.37302
11
0.684252
21
1.37441
0
LINE
8
BLACK
6
CONTINUOUS
10
0.684252
20
1.37441
11
0.684252
21
1.47441
0
LINE
8
BLACK
6
CONTINUOUS
10
0.684252
20
1.47441
11
0.684829
21
1.4758
0
LINE
8
BLACK
6
CONTINUOUS
10
0.684829
20
1.4758
11
0.68622
21
1.47638
0
LINE
8
BLACK
6
CONTINUOUS
10
0.68622
20
1.47638
11
0.88622
21
1.47638
0
LINE
8
BLACK
6
CONTINUOUS
10
0.806039
20
1.47244
11
0.806389
21
1.47224
0
LINE
8
BLACK
6
CONTINUOUS
10
0.806389
20
1.47224
11
0.807079
21
1.47034
0
LINE
8
BLACK
6
CONTINUOUS
10
0.807079
20
1.47034
11
0.807079
21
1.44784
0
LINE
8
BLACK
6
CONTINUOUS
10
0.807079
20
1.44784
11
0.806901
21
1.44683
0
LINE
8
BLACK
6
CONTINUOUS
10
0.806901
20
1.44683
11
0.805603
21
1.44529
0
LINE
8
BLACK
6
CONTINUOUS
10
0.805603
20
1.44529
11
0.803614
21
1.44494
0
LINE
8
BLACK
6
CONTINUOUS
10
0.803614
20
1.44494
11
0.801865
21
1.44595
0
LINE
8
BLACK
6
CONTINUOUS
10
0.801865
20
1.44595
11
0.801174
21
1.44784
0
LINE
8
BLACK
6
CONTINUOUS
10
0.801174
20
1.44784
11
0.801174
21
1.45614
0
LINE
8
BLACK
6
CONTINUOUS
10
0.801174
20
1.45614
11
0.77376
21
1.45614
0
LINE
8
BLACK
6
CONTINUOUS
10
0.77376
20
1.45614
11
0.776218
21
1.45368
0
LINE
8
BLACK
6
CONTINUOUS
10
0.776218
20
1.45368
11
0.776725
21
1.45296
0
LINE
8
BLACK
6
CONTINUOUS
10
0.776725
20
1.45296
11
0.776771
21
1.45291
0
LINE
8
BLACK
6
CONTINUOUS
10
0.776771
20
1.45291
11
0.778646
21
1.44916
0
LINE
8
BLACK
6
CONTINUOUS
10
0.778646
20
1.44916
11
0.778939
21
1.44818
0
LINE
8
BLACK
6
CONTINUOUS
10
0.778939
20
1.44818
11
0.778469
21
1.44622
0
LINE
8
BLACK
6
CONTINUOUS
10
0.778469
20
1.44622
11
0.776847
21
1.44501
0
LINE
8
BLACK
6
CONTINUOUS
10
0.776847
20
1.44501
11
0.774831
21
1.44513
0
LINE
8
BLACK
6
CONTINUOUS
10
0.774831
20
1.44513
11
0.773364
21
1.44652
0
LINE
8
BLACK
6
CONTINUOUS
10
0.773364
20
1.44652
11
0.771704
21
1.44984
0
LINE
8
BLACK
6
CONTINUOUS
10
0.771704
20
1.44984
11
0.7685
21
1.45305
0
LINE
8
BLACK
6
CONTINUOUS
10
0.7685
20
1.45305
11
0.763119
21
1.45664
0
LINE
8
BLACK
6
CONTINUOUS
10
0.763119
20
1.45664
11
0.762377
21
1.45734
0
LINE
8
BLACK
6
CONTINUOUS
10
0.762377
20
1.45734
11
0.76233
21
1.45751
0
LINE
8
BLACK
6
CONTINUOUS
10
0.76233
20
1.45751
11
0.762199
21
1.45762
0
LINE
8
BLACK
6
CONTINUOUS
10
0.762199
20
1.45762
11
0.762051
21
1.45846
0
LINE
8
BLACK
6
CONTINUOUS
10
0.762051
20
1.45846
11
0.76181
21
1.45928
0
LINE
8
BLACK
6
CONTINUOUS
10
0.76181
20
1.45928
11
0.761878
21
1.45944
0
LINE
8
BLACK
6
CONTINUOUS
10
0.761878
20
1.45944
11
0.761849
21
1.45961
0
LINE
8
BLACK
6
CONTINUOUS
10
0.761849
20
1.45961
11
0.762277
21
1.46035
0
LINE
8
BLACK
6
CONTINUOUS
10
0.762277
20
1.46035
11
0.762622
21
1.46113
0
LINE
8
BLACK
6
CONTINUOUS
10
0.762622
20
1.46113
11
0.762774
21
1.46121
0
LINE
8
BLACK
6
CONTINUOUS
10
0.762774
20
1.46121
11
0.762859
21
1.46135
0
LINE
8
BLACK
6
CONTINUOUS
10
0.762859
20
1.46135
11
0.763664
21
1.46165
0
LINE
8
BLACK
6
CONTINUOUS
10
0.763664
20
1.46165
11
0.764432
21
1.46203
0
LINE
8
BLACK
6
CONTINUOUS
10
0.764432
20
1.46203
11
0.764597
21
1.46199
0
LINE
8
BLACK
6
CONTINUOUS
10
0.764597
20
1.46199
11
0.764757
21
1.46205
0
LINE
8
BLACK
6
CONTINUOUS
10
0.764757
20
1.46205
11
0.801174
21
1.46205
0
LINE
8
BLACK
6
CONTINUOUS
10
0.801174
20
1.46205
11
0.801174
21
1.47034
0
LINE
8
BLACK
6
CONTINUOUS
10
0.801174
20
1.47034
11
0.801352
21
1.47135
0
LINE
8
BLACK
6
CONTINUOUS
10
0.801352
20
1.47135
11
0.802266
21
1.47244
0
LINE
8
BLACK
6
CONTINUOUS
10
0.802266
20
1.47244
11
0.688189
21
1.47244
0
LINE
8
BLACK
6
CONTINUOUS
10
0.688189
20
1.47244
11
0.688189
21
1.37638
0
LINE
8
BLACK
6
CONTINUOUS
10
0.688189
20
1.37638
11
0.801256
21
1.37638
0
LINE
8
BLACK
6
CONTINUOUS
10
0.801256
20
1.37638
11
0.801174
21
1.3766
0
LINE
8
BLACK
6
CONTINUOUS
10
0.801174
20
1.3766
11
0.801174
21
1.37987
0
LINE
8
BLACK
6
CONTINUOUS
10
0.801174
20
1.37987
11
0.799671
21
1.38438
0
LINE
8
BLACK
6
CONTINUOUS
10
0.799671
20
1.38438
11
0.796907
21
1.38715
0
LINE
8
BLACK
6
CONTINUOUS
10
0.796907
20
1.38715
11
0.792399
21
1.38865
0
LINE
8
BLACK
6
CONTINUOUS
10
0.792399
20
1.38865
11
0.764757
21
1.38865
0
LINE
8
BLACK
6
CONTINUOUS
10
0.764757
20
1.38865
11
0.763747
21
1.38883
0
LINE
8
BLACK
6
CONTINUOUS
10
0.763747
20
1.38883
11
0.762199
21
1.39012
0
LINE
8
BLACK
6
CONTINUOUS
10
0.762199
20
1.39012
11
0.761849
21
1.39211
0
LINE
8
BLACK
6
CONTINUOUS
10
0.761849
20
1.39211
11
0.762859
21
1.39386
0
LINE
8
BLACK
6
CONTINUOUS
10
0.762859
20
1.39386
11
0.764757
21
1.39455
0
LINE
8
BLACK
6
CONTINUOUS
10
0.764757
20
1.39455
11
0.792878
21
1.39455
0
LINE
8
BLACK
6
CONTINUOUS
10
0.792878
20
1.39455
11
0.793747
21
1.3944
0
LINE
8
BLACK
6
CONTINUOUS
10
0.793747
20
1.3944
11
0.793812
21
1.3944
0
LINE
8
BLACK
6
CONTINUOUS
10
0.793812
20
1.3944
11
0.799436
21
1.39253
0
LINE
8
BLACK
6
CONTINUOUS
10
0.799436
20
1.39253
11
0.800338
21
1.39204
0
LINE
8
BLACK
6
CONTINUOUS
10
0.800338
20
1.39204
11
0.80043
21
1.39189
0
LINE
8
BLACK
6
CONTINUOUS
10
0.80043
20
1.39189
11
0.80059
21
1.39181
0
LINE
8
BLACK
6
CONTINUOUS
10
0.80059
20
1.39181
11
0.80434
21
1.38806
0
LINE
8
BLACK
6
CONTINUOUS
10
0.80434
20
1.38806
11
0.804928
21
1.38722
0
LINE
8
BLACK
6
CONTINUOUS
10
0.804928
20
1.38722
11
0.804943
21
1.38705
0
LINE
8
BLACK
6
CONTINUOUS
10
0.804943
20
1.38705
11
0.805053
21
1.38691
0
LINE
8
BLACK
6
CONTINUOUS
10
0.805053
20
1.38691
11
0.806928
21
1.38129
0
LINE
8
BLACK
6
CONTINUOUS
10
0.806928
20
1.38129
11
0.807057
21
1.38041
0
LINE
8
BLACK
6
CONTINUOUS
10
0.807057
20
1.38041
11
0.807079
21
1.38035
0
LINE
8
BLACK
6
CONTINUOUS
10
0.807079
20
1.38035
11
0.807079
21
1.3766
0
LINE
8
BLACK
6
CONTINUOUS
10
0.807079
20
1.3766
11
0.80704
21
1.37638
0
LINE
8
BLACK
6
CONTINUOUS
10
0.80704
20
1.37638
11
0.835405
21
1.37638
0
LINE
8
BLACK
6
CONTINUOUS
10
0.835405
20
1.37638
11
0.884252
21
1.42522
0
LINE
8
BLACK
6
CONTINUOUS
10
0.884252
20
1.42522
11
0.884252
21
1.47244
0
LINE
8
BLACK
6
CONTINUOUS
10
0.884252
20
1.47244
11
0.806039
21
1.47244
0
LINE
8
BLACK
6
CONTINUOUS
10
0.956792
20
1.52005
11
0.957158
21
1.52002
0
LINE
8
BLACK
6
CONTINUOUS
10
0.957158
20
1.52002
11
0.959033
21
1.51909
0
LINE
8
BLACK
6
CONTINUOUS
10
0.959033
20
1.51909
11
0.959203
21
1.51889
0
LINE
8
BLACK
6
CONTINUOUS
10
0.959203
20
1.51889
11
0.959442
21
1.51879
0
LINE
8
BLACK
6
CONTINUOUS
10
0.959442
20
1.51879
11
0.96038
21
1.51785
0
LINE
8
BLACK
6
CONTINUOUS
10
0.96038
20
1.51785
11
0.960479
21
1.51762
0
LINE
8
BLACK
6
CONTINUOUS
10
0.960479
20
1.51762
11
0.960675
21
1.51745
0
LINE
8
BLACK
6
CONTINUOUS
10
0.960675
20
1.51745
11
0.961612
21
1.51557
0
LINE
8
BLACK
6
CONTINUOUS
10
0.961612
20
1.51557
11
0.961638
21
1.51521
0
LINE
8
BLACK
6
CONTINUOUS
10
0.961638
20
1.51521
11
0.961778
21
1.51487
0
LINE
8
BLACK
6
CONTINUOUS
10
0.961778
20
1.51487
11
0.961778
21
1.51205
0
LINE
8
BLACK
6
CONTINUOUS
10
0.961778
20
1.51205
11
0.961638
21
1.51172
0
LINE
8
BLACK
6
CONTINUOUS
10
0.961638
20
1.51172
11
0.961612
21
1.51135
0
LINE
8
BLACK
6
CONTINUOUS
10
0.961612
20
1.51135
11
0.960675
21
1.50948
0
LINE
8
BLACK
6
CONTINUOUS
10
0.960675
20
1.50948
11
0.960479
21
1.50931
0
LINE
8
BLACK
6
CONTINUOUS
10
0.960479
20
1.50931
11
0.96038
21
1.50907
0
LINE
8
BLACK
6
CONTINUOUS
10
0.96038
20
1.50907
11
0.959442
21
1.50813
0
LINE
8
BLACK
6
CONTINUOUS
10
0.959442
20
1.50813
11
0.959203
21
1.50803
0
LINE
8
BLACK
6
CONTINUOUS
10
0.959203
20
1.50803
11
0.959033
21
1.50783
0
LINE
8
BLACK
6
CONTINUOUS
10
0.959033
20
1.50783
11
0.957158
21
1.5069
0
LINE
8
BLACK
6
CONTINUOUS
10
0.957158
20
1.5069
11
0.956792
21
1.50687
0
LINE
8
BLACK
6
CONTINUOUS
10
0.956792
20
1.50687
11
0.956619
21
1.5068
0
LINE
8
BLACK
6
CONTINUOUS
10
0.956619
20
1.5068
11
0.961494
21
1.49983
0
LINE
8
BLACK
6
CONTINUOUS
10
0.961494
20
1.49983
11
0.961754
21
1.49866
0
LINE
8
BLACK
6
CONTINUOUS
10
0.961754
20
1.49866
11
0.961106
21
1.49764
0
LINE
8
BLACK
6
CONTINUOUS
10
0.961106
20
1.49764
11
0.95993
21
1.49738
0
LINE
8
BLACK
6
CONTINUOUS
10
0.95993
20
1.49738
11
0.958913
21
1.49803
0
LINE
8
BLACK
6
CONTINUOUS
10
0.958913
20
1.49803
11
0.952822
21
1.50673
0
LINE
8
BLACK
6
CONTINUOUS
10
0.952822
20
1.50673
11
0.95053
21
1.50673
0
LINE
8
BLACK
6
CONTINUOUS
10
0.95053
20
1.50673
11
0.95053
21
1.49893
0
LINE
8
BLACK
6
CONTINUOUS
10
0.95053
20
1.49893
11
0.950068
21
1.49782
0
LINE
8
BLACK
6
CONTINUOUS
10
0.950068
20
1.49782
11
0.948955
21
1.49736
0
LINE
8
BLACK
6
CONTINUOUS
10
0.948955
20
1.49736
11
0.947841
21
1.49782
0
LINE
8
BLACK
6
CONTINUOUS
10
0.947841
20
1.49782
11
0.94738
21
1.49893
0
LINE
8
BLACK
6
CONTINUOUS
10
0.94738
20
1.49893
11
0.94738
21
1.51862
0
LINE
8
BLACK
6
CONTINUOUS
10
0.94738
20
1.51862
11
0.947841
21
1.51973
0
LINE
8
BLACK
6
CONTINUOUS
10
0.947841
20
1.51973
11
0.948955
21
1.52019
0
LINE
8
BLACK
6
CONTINUOUS
10
0.948955
20
1.52019
11
0.956454
21
1.52019
0
LINE
8
BLACK
6
CONTINUOUS
10
0.956454
20
1.52019
11
0.956792
21
1.52005
0
LINE
8
BLACK
6
CONTINUOUS
10
0.95053
20
1.50988
11
0.956082
21
1.50988
0
LINE
8
BLACK
6
CONTINUOUS
10
0.956082
20
1.50988
11
0.957396
21
1.51054
0
LINE
8
BLACK
6
CONTINUOUS
10
0.957396
20
1.51054
11
0.957972
21
1.51111
0
LINE
8
BLACK
6
CONTINUOUS
10
0.957972
20
1.51111
11
0.958629
21
1.51243
0
LINE
8
BLACK
6
CONTINUOUS
10
0.958629
20
1.51243
11
0.958629
21
1.51449
0
LINE
8
BLACK
6
CONTINUOUS
10
0.958629
20
1.51449
11
0.957972
21
1.51581
0
LINE
8
BLACK
6
CONTINUOUS
10
0.957972
20
1.51581
11
0.957396
21
1.51638
0
LINE
8
BLACK
6
CONTINUOUS
10
0.957396
20
1.51638
11
0.956082
21
1.51704
0
LINE
8
BLACK
6
CONTINUOUS
10
0.956082
20
1.51704
11
0.95053
21
1.51704
0
LINE
8
BLACK
6
CONTINUOUS
10
0.95053
20
1.51704
11
0.95053
21
1.50988
0
LINE
8
BLACK
6
CONTINUOUS
10
0.97554
20
1.52005
11
0.975906
21
1.52002
0
LINE
8
BLACK
6
CONTINUOUS
10
0.975906
20
1.52002
11
0.977781
21
1.51909
0
LINE
8
BLACK
6
CONTINUOUS
10
0.977781
20
1.51909
11
0.97795
21
1.51889
0
LINE
8
BLACK
6
CONTINUOUS
10
0.97795
20
1.51889
11
0.97819
21
1.51879
0
LINE
8
BLACK
6
CONTINUOUS
10
0.97819
20
1.51879
11
0.979127
21
1.51785
0
LINE
8
BLACK
6
CONTINUOUS
10
0.979127
20
1.51785
11
0.979226
21
1.51762
0
LINE
8
BLACK
6
CONTINUOUS
10
0.979226
20
1.51762
11
0.979422
21
1.51745
0
LINE
8
BLACK
6
CONTINUOUS
10
0.979422
20
1.51745
11
0.98036
21
1.51557
0
LINE
8
BLACK
6
CONTINUOUS
10
0.98036
20
1.51557
11
0.980386
21
1.51521
0
LINE
8
BLACK
6
CONTINUOUS
10
0.980386
20
1.51521
11
0.980526
21
1.51487
0
LINE
8
BLACK
6
CONTINUOUS
10
0.980526
20
1.51487
11
0.980526
21
1.51299
0
LINE
8
BLACK
6
CONTINUOUS
10
0.980526
20
1.51299
11
0.980427
21
1.51275
0
LINE
8
BLACK
6
CONTINUOUS
10
0.980427
20
1.51275
11
0.980445
21
1.51249
0
LINE
8
BLACK
6
CONTINUOUS
10
0.980445
20
1.51249
11
0.979508
21
1.50968
0
LINE
8
BLACK
6
CONTINUOUS
10
0.979508
20
1.50968
11
0.979268
21
1.5094
0
LINE
8
BLACK
6
CONTINUOUS
10
0.979268
20
1.5094
11
0.979127
21
1.50907
0
LINE
8
BLACK
6
CONTINUOUS
10
0.979127
20
1.50907
11
0.970567
21
1.50051
0
LINE
8
BLACK
6
CONTINUOUS
10
0.970567
20
1.50051
11
0.978951
21
1.50051
0
LINE
8
BLACK
6
CONTINUOUS
10
0.978951
20
1.50051
11
0.980065
21
1.50004
0
LINE
8
BLACK
6
CONTINUOUS
10
0.980065
20
1.50004
11
0.980526
21
1.49893
0
LINE
8
BLACK
6
CONTINUOUS
10
0.980526
20
1.49893
11
0.980065
21
1.49782
0
LINE
8
BLACK
6
CONTINUOUS
10
0.980065
20
1.49782
11
0.978951
21
1.49736
0
LINE
8
BLACK
6
CONTINUOUS
10
0.978951
20
1.49736
11
0.966765
21
1.49736
0
LINE
8
BLACK
6
CONTINUOUS
10
0.966765
20
1.49736
11
0.965652
21
1.49782
0
LINE
8
BLACK
6
CONTINUOUS
10
0.965652
20
1.49782
11
0.96519
21
1.49893
0
LINE
8
BLACK
6
CONTINUOUS
10
0.96519
20
1.49893
11
0.965652
21
1.50004
0
LINE
8
BLACK
6
CONTINUOUS
10
0.965652
20
1.50004
11
0.976637
21
1.51103
0
LINE
8
BLACK
6
CONTINUOUS
10
0.976637
20
1.51103
11
0.977376
21
1.51325
0
LINE
8
BLACK
6
CONTINUOUS
10
0.977376
20
1.51325
11
0.977376
21
1.51449
0
LINE
8
BLACK
6
CONTINUOUS
10
0.977376
20
1.51449
11
0.976719
21
1.51581
0
LINE
8
BLACK
6
CONTINUOUS
10
0.976719
20
1.51581
11
0.976143
21
1.51638
0
LINE
8
BLACK
6
CONTINUOUS
10
0.976143
20
1.51638
11
0.97483
21
1.51704
0
LINE
8
BLACK
6
CONTINUOUS
10
0.97483
20
1.51704
11
0.970886
21
1.51704
0
LINE
8
BLACK
6
CONTINUOUS
10
0.970886
20
1.51704
11
0.969573
21
1.51638
0
LINE
8
BLACK
6
CONTINUOUS
10
0.969573
20
1.51638
11
0.968816
21
1.51563
0
LINE
8
BLACK
6
CONTINUOUS
10
0.968816
20
1.51563
11
0.967702
21
1.51517
0
LINE
8
BLACK
6
CONTINUOUS
10
0.967702
20
1.51517
11
0.966589
21
1.51563
0
LINE
8
BLACK
6
CONTINUOUS
10
0.966589
20
1.51563
11
0.966128
21
1.51674
0
LINE
8
BLACK
6
CONTINUOUS
10
0.966128
20
1.51674
11
0.966589
21
1.51785
0
LINE
8
BLACK
6
CONTINUOUS
10
0.966589
20
1.51785
11
0.967526
21
1.51879
0
LINE
8
BLACK
6
CONTINUOUS
10
0.967526
20
1.51879
11
0.967766
21
1.51889
0
LINE
8
BLACK
6
CONTINUOUS
10
0.967766
20
1.51889
11
0.967936
21
1.51909
0
LINE
8
BLACK
6
CONTINUOUS
10
0.967936
20
1.51909
11
0.96981
21
1.52002
0
LINE
8
BLACK
6
CONTINUOUS
10
0.96981
20
1.52002
11
0.970176
21
1.52005
0
LINE
8
BLACK
6
CONTINUOUS
10
0.970176
20
1.52005
11
0.970515
21
1.52019
0
LINE
8
BLACK
6
CONTINUOUS
10
0.970515
20
1.52019
11
0.975202
21
1.52019
0
LINE
8
BLACK
6
CONTINUOUS
10
0.975202
20
1.52019
11
0.97554
21
1.52005
0
LINE
8
BLACK
6
CONTINUOUS
10
0.37485
20
1.6509
11
0.374914
21
1.6509
0
LINE
8
BLACK
6
CONTINUOUS
10
0.374914
20
1.6509
11
0.380539
21
1.64902
0
LINE
8
BLACK
6
CONTINUOUS
10
0.380539
20
1.64902
11
0.38144
21
1.64854
0
LINE
8
BLACK
6
CONTINUOUS
10
0.38144
20
1.64854
11
0.381533
21
1.64838
0
LINE
8
BLACK
6
CONTINUOUS
10
0.381533
20
1.64838
11
0.381693
21
1.64831
0
LINE
8
BLACK
6
CONTINUOUS
10
0.381693
20
1.64831
11
0.385442
21
1.64456
0
LINE
8
BLACK
6
CONTINUOUS
10
0.385442
20
1.64456
11
0.38603
21
1.64372
0
LINE
8
BLACK
6
CONTINUOUS
10
0.38603
20
1.64372
11
0.386046
21
1.64354
0
LINE
8
BLACK
6
CONTINUOUS
10
0.386046
20
1.64354
11
0.386156
21
1.64341
0
LINE
8
BLACK
6
CONTINUOUS
10
0.386156
20
1.64341
11
0.38803
21
1.63778
0
LINE
8
BLACK
6
CONTINUOUS
10
0.38803
20
1.63778
11
0.38816
21
1.63691
0
LINE
8
BLACK
6
CONTINUOUS
10
0.38816
20
1.63691
11
0.388182
21
1.63685
0
LINE
8
BLACK
6
CONTINUOUS
10
0.388182
20
1.63685
11
0.388182
21
1.6331
0
LINE
8
BLACK
6
CONTINUOUS
10
0.388182
20
1.6331
11
0.388004
21
1.63209
0
LINE
8
BLACK
6
CONTINUOUS
10
0.388004
20
1.63209
11
0.386705
21
1.63054
0
LINE
8
BLACK
6
CONTINUOUS
10
0.386705
20
1.63054
11
0.384716
21
1.63019
0
LINE
8
BLACK
6
CONTINUOUS
10
0.384716
20
1.63019
11
0.382967
21
1.6312
0
LINE
8
BLACK
6
CONTINUOUS
10
0.382967
20
1.6312
11
0.382276
21
1.6331
0
LINE
8
BLACK
6
CONTINUOUS
10
0.382276
20
1.6331
11
0.382276
21
1.63637
0
LINE
8
BLACK
6
CONTINUOUS
10
0.382276
20
1.63637
11
0.380774
21
1.64088
0
LINE
8
BLACK
6
CONTINUOUS
10
0.380774
20
1.64088
11
0.37801
21
1.64364
0
LINE
8
BLACK
6
CONTINUOUS
10
0.37801
20
1.64364
11
0.373501
21
1.64514
0
LINE
8
BLACK
6
CONTINUOUS
10
0.373501
20
1.64514
11
0.345859
21
1.64514
0
LINE
8
BLACK
6
CONTINUOUS
10
0.345859
20
1.64514
11
0.344849
21
1.64532
0
LINE
8
BLACK
6
CONTINUOUS
10
0.344849
20
1.64532
11
0.343302
21
1.64662
0
LINE
8
BLACK
6
CONTINUOUS
10
0.343302
20
1.64662
11
0.342951
21
1.64861
0
LINE
8
BLACK
6
CONTINUOUS
10
0.342951
20
1.64861
11
0.343961
21
1.65036
0
LINE
8
BLACK
6
CONTINUOUS
10
0.343961
20
1.65036
11
0.345859
21
1.65105
0
LINE
8
BLACK
6
CONTINUOUS
10
0.345859
20
1.65105
11
0.37398
21
1.65105
0
LINE
8
BLACK
6
CONTINUOUS
10
0.37398
20
1.65105
11
0.37485
21
1.6509
0
LINE
8
BLACK
6
CONTINUOUS
10
0.374368
20
1.69124
11
0.375058
21
1.68934
0
LINE
8
BLACK
6
CONTINUOUS
10
0.375058
20
1.68934
11
0.375058
21
1.68667
0
LINE
8
BLACK
6
CONTINUOUS
10
0.375058
20
1.68667
11
0.385229
21
1.68667
0
LINE
8
BLACK
6
CONTINUOUS
10
0.385229
20
1.68667
11
0.386239
21
1.68649
0
LINE
8
BLACK
6
CONTINUOUS
10
0.386239
20
1.68649
11
0.387786
21
1.68519
0
LINE
8
BLACK
6
CONTINUOUS
10
0.387786
20
1.68519
11
0.388137
21
1.6832
0
LINE
8
BLACK
6
CONTINUOUS
10
0.388137
20
1.6832
11
0.387127
21
1.68146
0
LINE
8
BLACK
6
CONTINUOUS
10
0.387127
20
1.68146
11
0.385229
21
1.68076
0
LINE
8
BLACK
6
CONTINUOUS
10
0.385229
20
1.68076
11
0.375058
21
1.68076
0
LINE
8
BLACK
6
CONTINUOUS
10
0.375058
20
1.68076
11
0.375058
21
1.66497
0
LINE
8
BLACK
6
CONTINUOUS
10
0.375058
20
1.66497
11
0.37488
21
1.66396
0
LINE
8
BLACK
6
CONTINUOUS
10
0.37488
20
1.66396
11
0.374735
21
1.66379
0
LINE
8
BLACK
6
CONTINUOUS
10
0.374735
20
1.66379
11
0.374702
21
1.66356
0
LINE
8
BLACK
6
CONTINUOUS
10
0.374702
20
1.66356
11
0.3741
21
1.66303
0
LINE
8
BLACK
6
CONTINUOUS
10
0.3741
20
1.66303
11
0.373582
21
1.66241
0
LINE
8
BLACK
6
CONTINUOUS
10
0.373582
20
1.66241
11
0.37336
21
1.66237
0
LINE
8
BLACK
6
CONTINUOUS
10
0.37336
20
1.66237
11
0.373191
21
1.66222
0
LINE
8
BLACK
6
CONTINUOUS
10
0.373191
20
1.66222
11
0.372386
21
1.6622
0
LINE
8
BLACK
6
CONTINUOUS
10
0.372386
20
1.6622
11
0.371593
21
1.66206
0
LINE
8
BLACK
6
CONTINUOUS
10
0.371593
20
1.66206
11
0.371397
21
1.66217
0
LINE
8
BLACK
6
CONTINUOUS
10
0.371397
20
1.66217
11
0.371172
21
1.66217
0
LINE
8
BLACK
6
CONTINUOUS
10
0.371172
20
1.66217
11
0.343051
21
1.67154
0
LINE
8
BLACK
6
CONTINUOUS
10
0.343051
20
1.67154
11
0.342149
21
1.67203
0
LINE
8
BLACK
6
CONTINUOUS
10
0.342149
20
1.67203
11
0.341091
21
1.67375
0
LINE
8
BLACK
6
CONTINUOUS
10
0.341091
20
1.67375
11
0.341388
21
1.67575
0
LINE
8
BLACK
6
CONTINUOUS
10
0.341388
20
1.67575
11
0.342899
21
1.67709
0
LINE
8
BLACK
6
CONTINUOUS
10
0.342899
20
1.67709
11
0.344918
21
1.67715
0
LINE
8
BLACK
6
CONTINUOUS
10
0.344918
20
1.67715
11
0.369153
21
1.66907
0
LINE
8
BLACK
6
CONTINUOUS
10
0.369153
20
1.66907
11
0.369153
21
1.68076
0
LINE
8
BLACK
6
CONTINUOUS
10
0.369153
20
1.68076
11
0.358982
21
1.68076
0
LINE
8
BLACK
6
CONTINUOUS
10
0.358982
20
1.68076
11
0.357972
21
1.68094
0
LINE
8
BLACK
6
CONTINUOUS
10
0.357972
20
1.68094
11
0.356425
21
1.68224
0
LINE
8
BLACK
6
CONTINUOUS
10
0.356425
20
1.68224
11
0.356074
21
1.68423
0
LINE
8
BLACK
6
CONTINUOUS
10
0.356074
20
1.68423
11
0.357084
21
1.68598
0
LINE
8
BLACK
6
CONTINUOUS
10
0.357084
20
1.68598
11
0.358982
21
1.68667
0
LINE
8
BLACK
6
CONTINUOUS
10
0.358982
20
1.68667
11
0.369153
21
1.68667
0
LINE
8
BLACK
6
CONTINUOUS
10
0.369153
20
1.68667
11
0.369153
21
1.68934
0
LINE
8
BLACK
6
CONTINUOUS
10
0.369153
20
1.68934
11
0.369331
21
1.69035
0
LINE
8
BLACK
6
CONTINUOUS
10
0.369331
20
1.69035
11
0.370629
21
1.6919
0
LINE
8
BLACK
6
CONTINUOUS
10
0.370629
20
1.6919
11
0.372618
21
1.69225
0
LINE
8
BLACK
6
CONTINUOUS
10
0.372618
20
1.69225
11
0.374368
21
1.69124
0
LINE
8
BLACK
6
CONTINUOUS
10
0.467323
20
1.81319
11
0.468715
21
1.81261
0
LINE
8
BLACK
6
CONTINUOUS
10
0.468715
20
1.81261
11
0.469291
21
1.81122
0
LINE
8
BLACK
6
CONTINUOUS
10
0.469291
20
1.81122
11
0.469291
21
1.56122
0
LINE
8
BLACK
6
CONTINUOUS
10
0.469291
20
1.56122
11
0.468852
21
1.56016
0
LINE
8
BLACK
6
CONTINUOUS
10
0.468852
20
1.56016
11
0.468715
21
1.55983
0
LINE
8
BLACK
6
CONTINUOUS
10
0.468715
20
1.55983
11
0.418715
21
1.50983
0
LINE
8
BLACK
6
CONTINUOUS
10
0.418715
20
1.50983
11
0.417323
21
1.50925
0
LINE
8
BLACK
6
CONTINUOUS
10
0.417323
20
1.50925
11
0.267323
21
1.50925
0
LINE
8
BLACK
6
CONTINUOUS
10
0.267323
20
1.50925
11
0.265931
21
1.50983
0
LINE
8
BLACK
6
CONTINUOUS
10
0.265931
20
1.50983
11
0.265354
21
1.51122
0
LINE
8
BLACK
6
CONTINUOUS
10
0.265354
20
1.51122
11
0.265354
21
1.51122
0
LINE
8
BLACK
6
CONTINUOUS
10
0.265354
20
1.51122
11
0.265354
21
1.81122
0
LINE
8
BLACK
6
CONTINUOUS
10
0.265354
20
1.81122
11
0.265931
21
1.81261
0
LINE
8
BLACK
6
CONTINUOUS
10
0.265931
20
1.81261
11
0.267323
21
1.81319
0
LINE
8
BLACK
6
CONTINUOUS
10
0.267323
20
1.81319
11
0.467323
21
1.81319
0
LINE
8
BLACK
6
CONTINUOUS
10
0.269291
20
1.80925
11
0.269291
21
1.51319
0
LINE
8
BLACK
6
CONTINUOUS
10
0.269291
20
1.51319
11
0.416507
21
1.51319
0
LINE
8
BLACK
6
CONTINUOUS
10
0.416507
20
1.51319
11
0.465354
21
1.56204
0
LINE
8
BLACK
6
CONTINUOUS
10
0.465354
20
1.56204
11
0.465354
21
1.80925
0
LINE
8
BLACK
6
CONTINUOUS
10
0.465354
20
1.80925
11
0.269291
21
1.80925
0
LINE
8
BLACK
6
CONTINUOUS
10
0.692566
20
1.64401
11
0.692631
21
1.64401
0
LINE
8
BLACK
6
CONTINUOUS
10
0.692631
20
1.64401
11
0.698255
21
1.64213
0
LINE
8
BLACK
6
CONTINUOUS
10
0.698255
20
1.64213
11
0.699157
21
1.64165
0
LINE
8
BLACK
6
CONTINUOUS
10
0.699157
20
1.64165
11
0.699249
21
1.6415
0
LINE
8
BLACK
6
CONTINUOUS
10
0.699249
20
1.6415
11
0.699409
21
1.64142
0
LINE
8
BLACK
6
CONTINUOUS
10
0.699409
20
1.64142
11
0.703159
21
1.63767
0
LINE
8
BLACK
6
CONTINUOUS
10
0.703159
20
1.63767
11
0.703747
21
1.63683
0
LINE
8
BLACK
6
CONTINUOUS
10
0.703747
20
1.63683
11
0.703762
21
1.63666
0
LINE
8
BLACK
6
CONTINUOUS
10
0.703762
20
1.63666
11
0.703872
21
1.63652
0
LINE
8
BLACK
6
CONTINUOUS
10
0.703872
20
1.63652
11
0.705747
21
1.63089
0
LINE
8
BLACK
6
CONTINUOUS
10
0.705747
20
1.63089
11
0.705876
21
1.63002
0
LINE
8
BLACK
6
CONTINUOUS
10
0.705876
20
1.63002
11
0.705898
21
1.62996
0
LINE
8
BLACK
6
CONTINUOUS
10
0.705898
20
1.62996
11
0.705898
21
1.62621
0
LINE
8
BLACK
6
CONTINUOUS
10
0.705898
20
1.62621
11
0.70572
21
1.6252
0
LINE
8
BLACK
6
CONTINUOUS
10
0.70572
20
1.6252
11
0.704422
21
1.62365
0
LINE
8
BLACK
6
CONTINUOUS
10
0.704422
20
1.62365
11
0.702433
21
1.6233
0
LINE
8
BLACK
6
CONTINUOUS
10
0.702433
20
1.6233
11
0.700684
21
1.62431
0
LINE
8
BLACK
6
CONTINUOUS
10
0.700684
20
1.62431
11
0.699993
21
1.62621
0
LINE
8
BLACK
6
CONTINUOUS
10
0.699993
20
1.62621
11
0.699993
21
1.62948
0
LINE
8
BLACK
6
CONTINUOUS
10
0.699993
20
1.62948
11
0.69849
21
1.63399
0
LINE
8
BLACK
6
CONTINUOUS
10
0.69849
20
1.63399
11
0.695726
21
1.63675
0
LINE
8
BLACK
6
CONTINUOUS
10
0.695726
20
1.63675
11
0.691218
21
1.63825
0
LINE
8
BLACK
6
CONTINUOUS
10
0.691218
20
1.63825
11
0.663576
21
1.63825
0
LINE
8
BLACK
6
CONTINUOUS
10
0.663576
20
1.63825
11
0.662566
21
1.63843
0
LINE
8
BLACK
6
CONTINUOUS
10
0.662566
20
1.63843
11
0.661018
21
1.63973
0
LINE
8
BLACK
6
CONTINUOUS
10
0.661018
20
1.63973
11
0.660668
21
1.64172
0
LINE
8
BLACK
6
CONTINUOUS
10
0.660668
20
1.64172
11
0.661678
21
1.64347
0
LINE
8
BLACK
6
CONTINUOUS
10
0.661678
20
1.64347
11
0.663576
21
1.64416
0
LINE
8
BLACK
6
CONTINUOUS
10
0.663576
20
1.64416
11
0.691697
21
1.64416
0
LINE
8
BLACK
6
CONTINUOUS
10
0.691697
20
1.64416
11
0.692566
21
1.64401
0
LINE
8
BLACK
6
CONTINUOUS
10
0.677709
20
1.68523
11
0.677844
21
1.68511
0
LINE
8
BLACK
6
CONTINUOUS
10
0.677844
20
1.68511
11
0.678019
21
1.68509
0
LINE
8
BLACK
6
CONTINUOUS
10
0.678019
20
1.68509
11
0.681769
21
1.68322
0
LINE
8
BLACK
6
CONTINUOUS
10
0.681769
20
1.68322
11
0.682478
21
1.68269
0
LINE
8
BLACK
6
CONTINUOUS
10
0.682478
20
1.68269
11
0.682536
21
1.68267
0
LINE
8
BLACK
6
CONTINUOUS
10
0.682536
20
1.68267
11
0.684411
21
1.68079
0
LINE
8
BLACK
6
CONTINUOUS
10
0.684411
20
1.68079
11
0.684917
21
1.68007
0
LINE
8
BLACK
6
CONTINUOUS
10
0.684917
20
1.68007
11
0.684964
21
1.68002
0
LINE
8
BLACK
6
CONTINUOUS
10
0.684964
20
1.68002
11
0.686839
21
1.67627
0
LINE
8
BLACK
6
CONTINUOUS
10
0.686839
20
1.67627
11
0.687131
21
1.67529
0
LINE
8
BLACK
6
CONTINUOUS
10
0.687131
20
1.67529
11
0.68709
21
1.67512
0
LINE
8
BLACK
6
CONTINUOUS
10
0.68709
20
1.67512
11
0.687151
21
1.67495
0
LINE
8
BLACK
6
CONTINUOUS
10
0.687151
20
1.67495
11
0.687151
21
1.66291
0
LINE
8
BLACK
6
CONTINUOUS
10
0.687151
20
1.66291
11
0.702946
21
1.66291
0
LINE
8
BLACK
6
CONTINUOUS
10
0.702946
20
1.66291
11
0.703956
21
1.66273
0
LINE
8
BLACK
6
CONTINUOUS
10
0.703956
20
1.66273
11
0.705503
21
1.66143
0
LINE
8
BLACK
6
CONTINUOUS
10
0.705503
20
1.66143
11
0.705854
21
1.65944
0
LINE
8
BLACK
6
CONTINUOUS
10
0.705854
20
1.65944
11
0.704844
21
1.65769
0
LINE
8
BLACK
6
CONTINUOUS
10
0.704844
20
1.65769
11
0.702946
21
1.657
0
LINE
8
BLACK
6
CONTINUOUS
10
0.702946
20
1.657
11
0.663576
21
1.657
0
LINE
8
BLACK
6
CONTINUOUS
10
0.663576
20
1.657
11
0.663192
21
1.65707
0
LINE
8
BLACK
6
CONTINUOUS
10
0.663192
20
1.65707
11
0.663063
21
1.65705
0
LINE
8
BLACK
6
CONTINUOUS
10
0.663063
20
1.65705
11
0.662949
21
1.65711
0
LINE
8
BLACK
6
CONTINUOUS
10
0.662949
20
1.65711
11
0.662566
21
1.65718
0
LINE
8
BLACK
6
CONTINUOUS
10
0.662566
20
1.65718
11
0.661978
21
1.65767
0
LINE
8
BLACK
6
CONTINUOUS
10
0.661978
20
1.65767
11
0.661314
21
1.65806
0
LINE
8
BLACK
6
CONTINUOUS
10
0.661314
20
1.65806
11
0.661222
21
1.65831
0
LINE
8
BLACK
6
CONTINUOUS
10
0.661222
20
1.65831
11
0.661018
21
1.65848
0
LINE
8
BLACK
6
CONTINUOUS
10
0.661018
20
1.65848
11
0.660885
21
1.65923
0
LINE
8
BLACK
6
CONTINUOUS
10
0.660885
20
1.65923
11
0.660623
21
1.65996
0
LINE
8
BLACK
6
CONTINUOUS
10
0.660623
20
1.65996
11
0.660623
21
1.67495
0
LINE
8
BLACK
6
CONTINUOUS
10
0.660623
20
1.67495
11
0.660801
21
1.67596
0
LINE
8
BLACK
6
CONTINUOUS
10
0.660801
20
1.67596
11
0.660914
21
1.6761
0
LINE
8
BLACK
6
CONTINUOUS
10
0.660914
20
1.6761
11
0.660935
21
1.67627
0
LINE
8
BLACK
6
CONTINUOUS
10
0.660935
20
1.67627
11
0.662809
21
1.68002
0
LINE
8
BLACK
6
CONTINUOUS
10
0.662809
20
1.68002
11
0.663335
21
1.68073
0
LINE
8
BLACK
6
CONTINUOUS
10
0.663335
20
1.68073
11
0.663362
21
1.68079
0
LINE
8
BLACK
6
CONTINUOUS
10
0.663362
20
1.68079
11
0.665237
21
1.68267
0
LINE
8
BLACK
6
CONTINUOUS
10
0.665237
20
1.68267
11
0.66596
21
1.68317
0
LINE
8
BLACK
6
CONTINUOUS
10
0.66596
20
1.68317
11
0.666005
21
1.68322
0
LINE
8
BLACK
6
CONTINUOUS
10
0.666005
20
1.68322
11
0.669754
21
1.68509
0
LINE
8
BLACK
6
CONTINUOUS
10
0.669754
20
1.68509
11
0.670737
21
1.68539
0
LINE
8
BLACK
6
CONTINUOUS
10
0.670737
20
1.68539
11
0.670909
21
1.68534
0
LINE
8
BLACK
6
CONTINUOUS
10
0.670909
20
1.68534
11
0.671075
21
1.6854
0
LINE
8
BLACK
6
CONTINUOUS
10
0.671075
20
1.6854
11
0.676699
21
1.6854
0
LINE
8
BLACK
6
CONTINUOUS
10
0.676699
20
1.6854
11
0.677709
21
1.68523
0
LINE
8
BLACK
6
CONTINUOUS
10
0.669074
20
1.67815
11
0.667877
21
1.67695
0
LINE
8
BLACK
6
CONTINUOUS
10
0.667877
20
1.67695
11
0.666528
21
1.67426
0
LINE
8
BLACK
6
CONTINUOUS
10
0.666528
20
1.67426
11
0.666528
21
1.66291
0
LINE
8
BLACK
6
CONTINUOUS
10
0.666528
20
1.66291
11
0.681245
21
1.66291
0
LINE
8
BLACK
6
CONTINUOUS
10
0.681245
20
1.66291
11
0.681245
21
1.67426
0
LINE
8
BLACK
6
CONTINUOUS
10
0.681245
20
1.67426
11
0.679896
21
1.67695
0
LINE
8
BLACK
6
CONTINUOUS
10
0.679896
20
1.67695
11
0.678699
21
1.67815
0
LINE
8
BLACK
6
CONTINUOUS
10
0.678699
20
1.67815
11
0.676002
21
1.6795
0
LINE
8
BLACK
6
CONTINUOUS
10
0.676002
20
1.6795
11
0.671772
21
1.6795
0
LINE
8
BLACK
6
CONTINUOUS
10
0.671772
20
1.6795
11
0.669074
21
1.67815
0
LINE
8
BLACK
6
CONTINUOUS
10
0.696456
20
1.72272
11
0.696592
21
1.72261
0
LINE
8
BLACK
6
CONTINUOUS
10
0.696592
20
1.72261
11
0.696767
21
1.72259
0
LINE
8
BLACK
6
CONTINUOUS
10
0.696767
20
1.72259
11
0.700517
21
1.72071
0
LINE
8
BLACK
6
CONTINUOUS
10
0.700517
20
1.72071
11
0.701226
21
1.72019
0
LINE
8
BLACK
6
CONTINUOUS
10
0.701226
20
1.72019
11
0.701284
21
1.72016
0
LINE
8
BLACK
6
CONTINUOUS
10
0.701284
20
1.72016
11
0.703159
21
1.71829
0
LINE
8
BLACK
6
CONTINUOUS
10
0.703159
20
1.71829
11
0.703665
21
1.71756
0
LINE
8
BLACK
6
CONTINUOUS
10
0.703665
20
1.71756
11
0.703712
21
1.71752
0
LINE
8
BLACK
6
CONTINUOUS
10
0.703712
20
1.71752
11
0.705587
21
1.71377
0
LINE
8
BLACK
6
CONTINUOUS
10
0.705587
20
1.71377
11
0.705879
21
1.71279
0
LINE
8
BLACK
6
CONTINUOUS
10
0.705879
20
1.71279
11
0.705838
21
1.71261
0
LINE
8
BLACK
6
CONTINUOUS
10
0.705838
20
1.71261
11
0.705898
21
1.71245
0
LINE
8
BLACK
6
CONTINUOUS
10
0.705898
20
1.71245
11
0.705898
21
1.7012
0
LINE
8
BLACK
6
CONTINUOUS
10
0.705898
20
1.7012
11
0.70572
21
1.70019
0
LINE
8
BLACK
6
CONTINUOUS
10
0.70572
20
1.70019
11
0.705607
21
1.70005
0
LINE
8
BLACK
6
CONTINUOUS
10
0.705607
20
1.70005
11
0.705587
21
1.69988
0
LINE
8
BLACK
6
CONTINUOUS
10
0.705587
20
1.69988
11
0.703712
21
1.69613
0
LINE
8
BLACK
6
CONTINUOUS
10
0.703712
20
1.69613
11
0.703186
21
1.69542
0
LINE
8
BLACK
6
CONTINUOUS
10
0.703186
20
1.69542
11
0.703159
21
1.69536
0
LINE
8
BLACK
6
CONTINUOUS
10
0.703159
20
1.69536
11
0.701284
21
1.69349
0
LINE
8
BLACK
6
CONTINUOUS
10
0.701284
20
1.69349
11
0.700444
21
1.6929
0
LINE
8
BLACK
6
CONTINUOUS
10
0.700444
20
1.6929
11
0.698432
21
1.69272
0
LINE
8
BLACK
6
CONTINUOUS
10
0.698432
20
1.69272
11
0.696777
21
1.69388
0
LINE
8
BLACK
6
CONTINUOUS
10
0.696777
20
1.69388
11
0.696255
21
1.69583
0
LINE
8
BLACK
6
CONTINUOUS
10
0.696255
20
1.69583
11
0.697108
21
1.69766
0
LINE
8
BLACK
6
CONTINUOUS
10
0.697108
20
1.69766
11
0.698644
21
1.6992
0
LINE
8
BLACK
6
CONTINUOUS
10
0.698644
20
1.6992
11
0.699993
21
1.7019
0
LINE
8
BLACK
6
CONTINUOUS
10
0.699993
20
1.7019
11
0.699993
21
1.71175
0
LINE
8
BLACK
6
CONTINUOUS
10
0.699993
20
1.71175
11
0.698644
21
1.71445
0
LINE
8
BLACK
6
CONTINUOUS
10
0.698644
20
1.71445
11
0.697447
21
1.71565
0
LINE
8
BLACK
6
CONTINUOUS
10
0.697447
20
1.71565
11
0.694749
21
1.71699
0
LINE
8
BLACK
6
CONTINUOUS
10
0.694749
20
1.71699
11
0.68677
21
1.71699
0
LINE
8
BLACK
6
CONTINUOUS
10
0.68677
20
1.71699
11
0.684072
21
1.71565
0
LINE
8
BLACK
6
CONTINUOUS
10
0.684072
20
1.71565
11
0.682875
21
1.71445
0
LINE
8
BLACK
6
CONTINUOUS
10
0.682875
20
1.71445
11
0.681526
21
1.71175
0
LINE
8
BLACK
6
CONTINUOUS
10
0.681526
20
1.71175
11
0.681526
21
1.70682
0
LINE
8
BLACK
6
CONTINUOUS
10
0.681526
20
1.70682
11
0.681449
21
1.70639
0
LINE
8
BLACK
6
CONTINUOUS
10
0.681449
20
1.70639
11
0.68147
21
1.70625
0
LINE
8
BLACK
6
CONTINUOUS
10
0.68147
20
1.70625
11
0.681407
21
1.70615
0
LINE
8
BLACK
6
CONTINUOUS
10
0.681407
20
1.70615
11
0.681348
21
1.70581
0
LINE
8
BLACK
6
CONTINUOUS
10
0.681348
20
1.70581
11
0.680837
21
1.7052
0
LINE
8
BLACK
6
CONTINUOUS
10
0.680837
20
1.7052
11
0.680424
21
1.70452
0
LINE
8
BLACK
6
CONTINUOUS
10
0.680424
20
1.70452
11
0.680201
21
1.70445
0
LINE
8
BLACK
6
CONTINUOUS
10
0.680201
20
1.70445
11
0.68005
21
1.70427
0
LINE
8
BLACK
6
CONTINUOUS
10
0.68005
20
1.70427
11
0.679266
21
1.70413
0
LINE
8
BLACK
6
CONTINUOUS
10
0.679266
20
1.70413
11
0.678513
21
1.70387
0
LINE
8
BLACK
6
CONTINUOUS
10
0.678513
20
1.70387
11
0.678293
21
1.70396
0
LINE
8
BLACK
6
CONTINUOUS
10
0.678293
20
1.70396
11
0.678061
21
1.70392
0
LINE
8
BLACK
6
CONTINUOUS
10
0.678061
20
1.70392
11
0.677371
21
1.70431
0
LINE
8
BLACK
6
CONTINUOUS
10
0.677371
20
1.70431
11
0.676629
21
1.7046
0
LINE
8
BLACK
6
CONTINUOUS
10
0.676629
20
1.7046
11
0.666528
21
1.71344
0
LINE
8
BLACK
6
CONTINUOUS
10
0.666528
20
1.71344
11
0.666528
21
1.69558
0
LINE
8
BLACK
6
CONTINUOUS
10
0.666528
20
1.69558
11
0.66635
21
1.69457
0
LINE
8
BLACK
6
CONTINUOUS
10
0.66635
20
1.69457
11
0.665052
21
1.69302
0
LINE
8
BLACK
6
CONTINUOUS
10
0.665052
20
1.69302
11
0.663063
21
1.69267
0
LINE
8
BLACK
6
CONTINUOUS
10
0.663063
20
1.69267
11
0.661314
21
1.69368
0
LINE
8
BLACK
6
CONTINUOUS
10
0.661314
20
1.69368
11
0.660623
21
1.69558
0
LINE
8
BLACK
6
CONTINUOUS
10
0.660623
20
1.69558
11
0.660623
21
1.71995
0
LINE
8
BLACK
6
CONTINUOUS
10
0.660623
20
1.71995
11
0.6607
21
1.72038
0
LINE
8
BLACK
6
CONTINUOUS
10
0.6607
20
1.72038
11
0.660679
21
1.72052
0
LINE
8
BLACK
6
CONTINUOUS
10
0.660679
20
1.72052
11
0.660742
21
1.72063
0
LINE
8
BLACK
6
CONTINUOUS
10
0.660742
20
1.72063
11
0.660801
21
1.72096
0
LINE
8
BLACK
6
CONTINUOUS
10
0.660801
20
1.72096
11
0.661313
21
1.72157
0
LINE
8
BLACK
6
CONTINUOUS
10
0.661313
20
1.72157
11
0.661725
21
1.72225
0
LINE
8
BLACK
6
CONTINUOUS
10
0.661725
20
1.72225
11
0.661948
21
1.72232
0
LINE
8
BLACK
6
CONTINUOUS
10
0.661948
20
1.72232
11
0.662099
21
1.7225
0
LINE
8
BLACK
6
CONTINUOUS
10
0.662099
20
1.7225
11
0.662883
21
1.72264
0
LINE
8
BLACK
6
CONTINUOUS
10
0.662883
20
1.72264
11
0.663637
21
1.7229
0
LINE
8
BLACK
6
CONTINUOUS
10
0.663637
20
1.7229
11
0.663856
21
1.72281
0
LINE
8
BLACK
6
CONTINUOUS
10
0.663856
20
1.72281
11
0.664088
21
1.72286
0
LINE
8
BLACK
6
CONTINUOUS
10
0.664088
20
1.72286
11
0.664778
21
1.72246
0
LINE
8
BLACK
6
CONTINUOUS
10
0.664778
20
1.72246
11
0.66552
21
1.72217
0
LINE
8
BLACK
6
CONTINUOUS
10
0.66552
20
1.72217
11
0.675756
21
1.71321
0
LINE
8
BLACK
6
CONTINUOUS
10
0.675756
20
1.71321
11
0.675799
21
1.71346
0
LINE
8
BLACK
6
CONTINUOUS
10
0.675799
20
1.71346
11
0.675912
21
1.71359
0
LINE
8
BLACK
6
CONTINUOUS
10
0.675912
20
1.71359
11
0.675933
21
1.71377
0
LINE
8
BLACK
6
CONTINUOUS
10
0.675933
20
1.71377
11
0.677807
21
1.71752
0
LINE
8
BLACK
6
CONTINUOUS
10
0.677807
20
1.71752
11
0.678333
21
1.71823
0
LINE
8
BLACK
6
CONTINUOUS
10
0.678333
20
1.71823
11
0.678361
21
1.71829
0
LINE
8
BLACK
6
CONTINUOUS
10
0.678361
20
1.71829
11
0.680235
21
1.72016
0
LINE
8
BLACK
6
CONTINUOUS
10
0.680235
20
1.72016
11
0.680958
21
1.72067
0
LINE
8
BLACK
6
CONTINUOUS
10
0.680958
20
1.72067
11
0.681003
21
1.72071
0
LINE
8
BLACK
6
CONTINUOUS
10
0.681003
20
1.72071
11
0.684752
21
1.72259
0
LINE
8
BLACK
6
CONTINUOUS
10
0.684752
20
1.72259
11
0.685735
21
1.72288
0
LINE
8
BLACK
6
CONTINUOUS
10
0.685735
20
1.72288
11
0.685907
21
1.72284
0
LINE
8
BLACK
6
CONTINUOUS
10
0.685907
20
1.72284
11
0.686073
21
1.7229
0
LINE
8
BLACK
6
CONTINUOUS
10
0.686073
20
1.7229
11
0.695447
21
1.7229
0
LINE
8
BLACK
6
CONTINUOUS
10
0.695447
20
1.7229
11
0.696456
21
1.72272
0
LINE
8
BLACK
6
CONTINUOUS
10
0.735039
20
1.82598
11
0.736431
21
1.82541
0
LINE
8
BLACK
6
CONTINUOUS
10
0.736431
20
1.82541
11
0.737008
21
1.82402
0
LINE
8
BLACK
6
CONTINUOUS
10
0.737008
20
1.82402
11
0.737008
21
1.54902
0
LINE
8
BLACK
6
CONTINUOUS
10
0.737008
20
1.54902
11
0.737008
21
1.54902
0
LINE
8
BLACK
6
CONTINUOUS
10
0.737008
20
1.54902
11
0.736431
21
1.54762
0
LINE
8
BLACK
6
CONTINUOUS
10
0.736431
20
1.54762
11
0.711431
21
1.52262
0
LINE
8
BLACK
6
CONTINUOUS
10
0.711431
20
1.52262
11
0.710039
21
1.52205
0
LINE
8
BLACK
6
CONTINUOUS
10
0.710039
20
1.52205
11
0.635039
21
1.52205
0
LINE
8
BLACK
6
CONTINUOUS
10
0.635039
20
1.52205
11
0.633647
21
1.52262
0
LINE
8
BLACK
6
CONTINUOUS
10
0.633647
20
1.52262
11
0.633071
21
1.52402
0
LINE
8
BLACK
6
CONTINUOUS
10
0.633071
20
1.52402
11
0.633071
21
1.82402
0
LINE
8
BLACK
6
CONTINUOUS
10
0.633071
20
1.82402
11
0.633647
21
1.82541
0
LINE
8
BLACK
6
CONTINUOUS
10
0.633647
20
1.82541
11
0.635039
21
1.82598
0
LINE
8
BLACK
6
CONTINUOUS
10
0.635039
20
1.82598
11
0.735039
21
1.82598
0
LINE
8
BLACK
6
CONTINUOUS
10
0.637008
20
1.82205
11
0.637008
21
1.52598
0
LINE
8
BLACK
6
CONTINUOUS
10
0.637008
20
1.52598
11
0.709224
21
1.52598
0
LINE
8
BLACK
6
CONTINUOUS
10
0.709224
20
1.52598
11
0.733071
21
1.54983
0
LINE
8
BLACK
6
CONTINUOUS
10
0.733071
20
1.54983
11
0.733071
21
1.82205
0
LINE
8
BLACK
6
CONTINUOUS
10
0.733071
20
1.82205
11
0.637008
21
1.82205
0
LINE
8
BLACK
6
CONTINUOUS
10
0.414063
20
2.12481
11
0.427949
21
2.12245
0
LINE
8
BLACK
6
CONTINUOUS
10
0.427949
20
2.12245
11
0.441483
21
2.11855
0
LINE
8
BLACK
6
CONTINUOUS
10
0.441483
20
2.11855
11
0.454496
21
2.11316
0
LINE
8
BLACK
6
CONTINUOUS
10
0.454496
20
2.11316
11
0.466823
21
2.10635
0
LINE
8
BLACK
6
CONTINUOUS
10
0.466823
20
2.10635
11
0.47831
21
2.0982
0
LINE
8
BLACK
6
CONTINUOUS
10
0.47831
20
2.0982
11
0.488813
21
2.08881
0
LINE
8
BLACK
6
CONTINUOUS
10
0.488813
20
2.08881
11
0.498198
21
2.07831
0
LINE
8
BLACK
6
CONTINUOUS
10
0.498198
20
2.07831
11
0.506349
21
2.06682
0
LINE
8
BLACK
6
CONTINUOUS
10
0.506349
20
2.06682
11
0.513162
21
2.0545
0
LINE
8
BLACK
6
CONTINUOUS
10
0.513162
20
2.0545
11
0.518552
21
2.04148
0
LINE
8
BLACK
6
CONTINUOUS
10
0.518552
20
2.04148
11
0.522451
21
2.02795
0
LINE
8
BLACK
6
CONTINUOUS
10
0.522451
20
2.02795
11
0.52481
21
2.01406
0
LINE
8
BLACK
6
CONTINUOUS
10
0.52481
20
2.01406
11
0.5256
21
2
0
LINE
8
BLACK
6
CONTINUOUS
10
0.5256
20
2
11
0.52481
21
1.98594
0
LINE
8
BLACK
6
CONTINUOUS
10
0.52481
20
1.98594
11
0.522451
21
1.97205
0
LINE
8
BLACK
6
CONTINUOUS
10
0.522451
20
1.97205
11
0.518552
21
1.95852
0
LINE
8
BLACK
6
CONTINUOUS
10
0.518552
20
1.95852
11
0.513162
21
1.9455
0
LINE
8
BLACK
6
CONTINUOUS
10
0.513162
20
1.9455
11
0.506349
21
1.93318
0
LINE
8
BLACK
6
CONTINUOUS
10
0.506349
20
1.93318
11
0.498198
21
1.92169
0
LINE
8
BLACK
6
CONTINUOUS
10
0.498198
20
1.92169
11
0.488813
21
1.91119
0
LINE
8
BLACK
6
CONTINUOUS
10
0.488813
20
1.91119
11
0.47831
21
1.9018
0
LINE
8
BLACK
6
CONTINUOUS
10
0.47831
20
1.9018
11
0.466823
21
1.89365
0
LINE
8
BLACK
6
CONTINUOUS
10
0.466823
20
1.89365
11
0.454496
21
1.88684
0
LINE
8
BLACK
6
CONTINUOUS
10
0.454496
20
1.88684
11
0.441483
21
1.88145
0
LINE
8
BLACK
6
CONTINUOUS
10
0.441483
20
1.88145
11
0.427949
21
1.87755
0
LINE
8
BLACK
6
CONTINUOUS
10
0.427949
20
1.87755
11
0.414063
21
1.87519
0
LINE
8
BLACK
6
CONTINUOUS
10
0.414063
20
1.87519
11
0.4
21
1.8744
0
LINE
8
BLACK
6
CONTINUOUS
10
0.4
20
1.8744
11
0.385937
21
1.87519
0
LINE
8
BLACK
6
CONTINUOUS
10
0.385937
20
1.87519
11
0.372051
21
1.87755
0
LINE
8
BLACK
6
CONTINUOUS
10
0.372051
20
1.87755
11
0.358517
21
1.88145
0
LINE
8
BLACK
6
CONTINUOUS
10
0.358517
20
1.88145
11
0.345504
21
1.88684
0
LINE
8
BLACK
6
CONTINUOUS
10
0.345504
20
1.88684
11
0.333177
21
1.89365
0
LINE
8
BLACK
6
CONTINUOUS
10
0.333177
20
1.89365
11
0.32169
21
1.9018
0
LINE
8
BLACK
6
CONTINUOUS
10
0.32169
20
1.9018
11
0.311187
21
1.91119
0
LINE
8
BLACK
6
CONTINUOUS
10
0.311187
20
1.91119
11
0.301802
21
1.92169
0
LINE
8
BLACK
6
CONTINUOUS
10
0.301802
20
1.92169
11
0.293651
21
1.93318
0
LINE
8
BLACK
6
CONTINUOUS
10
0.293651
20
1.93318
11
0.286838
21
1.9455
0
LINE
8
BLACK
6
CONTINUOUS
10
0.286838
20
1.9455
11
0.281448
21
1.95852
0
LINE
8
BLACK
6
CONTINUOUS
10
0.281448
20
1.95852
11
0.277549
21
1.97205
0
LINE
8
BLACK
6
CONTINUOUS
10
0.277549
20
1.97205
11
0.27519
21
1.98594
0
LINE
8
BLACK
6
CONTINUOUS
10
0.27519
20
1.98594
11
0.2744
21
2
0
LINE
8
BLACK
6
CONTINUOUS
10
0.2744
20
2
11
0.27519
21
2.01406
0
LINE
8
BLACK
6
CONTINUOUS
10
0.27519
20
2.01406
11
0.277549
21
2.02795
0
LINE
8
BLACK
6
CONTINUOUS
10
0.277549
20
2.02795
11
0.281448
21
2.04148
0
LINE
8
BLACK
6
CONTINUOUS
10
0.281448
20
2.04148
11
0.286838
21
2.0545
0
LINE
8
BLACK
6
CONTINUOUS
10
0.286838
20
2.0545
11
0.293651
21
2.06682
0
LINE
8
BLACK
6
CONTINUOUS
10
0.293651
20
2.06682
11
0.301802
21
2.07831
0
LINE
8
BLACK
6
CONTINUOUS
10
0.301802
20
2.07831
11
0.311187
21
2.08881
0
LINE
8
BLACK
6
CONTINUOUS
10
0.311187
20
2.08881
11
0.32169
21
2.0982
0
LINE
8
BLACK
6
CONTINUOUS
10
0.32169
20
2.0982
11
0.333177
21
2.10635
0
LINE
8
BLACK
6
CONTINUOUS
10
0.333177
20
2.10635
11
0.345504
21
2.11316
0
LINE
8
BLACK
6
CONTINUOUS
10
0.345504
20
2.11316
11
0.358517
21
2.11855
0
LINE
8
BLACK
6
CONTINUOUS
10
0.358517
20
2.11855
11
0.372051
21
2.12245
0
LINE
8
BLACK
6
CONTINUOUS
10
0.372051
20
2.12245
11
0.385937
21
2.12481
0
LINE
8
BLACK
6
CONTINUOUS
10
0.385937
20
2.12481
11
0.4
21
2.1256
0
LINE
8
BLACK
6
CONTINUOUS
10
0.4
20
2.1256
11
0.414063
21
2.12481
0
LINE
8
BLACK
6
CONTINUOUS
10
0.289962
20
1.98714
11
0.292199
21
1.97445
0
LINE
8
BLACK
6
CONTINUOUS
10
0.292199
20
1.97445
11
0.295894
21
1.96211
0
LINE
8
BLACK
6
CONTINUOUS
10
0.295894
20
1.96211
11
0.300997
21
1.95028
0
LINE
8
BLACK
6
CONTINUOUS
10
0.300997
20
1.95028
11
0.307438
21
1.93912
0
LINE
8
BLACK
6
CONTINUOUS
10
0.307438
20
1.93912
11
0.315132
21
1.92879
0
LINE
8
BLACK
6
CONTINUOUS
10
0.315132
20
1.92879
11
0.323973
21
1.91942
0
LINE
8
BLACK
6
CONTINUOUS
10
0.323973
20
1.91942
11
0.333842
21
1.91113
0
LINE
8
BLACK
6
CONTINUOUS
10
0.333842
20
1.91113
11
0.344606
21
1.90406
0
LINE
8
BLACK
6
CONTINUOUS
10
0.344606
20
1.90406
11
0.356119
21
1.89827
0
LINE
8
BLACK
6
CONTINUOUS
10
0.356119
20
1.89827
11
0.368226
21
1.89387
0
LINE
8
BLACK
6
CONTINUOUS
10
0.368226
20
1.89387
11
0.380762
21
1.8909
0
LINE
8
BLACK
6
CONTINUOUS
10
0.380762
20
1.8909
11
0.393558
21
1.8894
0
LINE
8
BLACK
6
CONTINUOUS
10
0.393558
20
1.8894
11
0.406442
21
1.8894
0
LINE
8
BLACK
6
CONTINUOUS
10
0.406442
20
1.8894
11
0.419238
21
1.8909
0
LINE
8
BLACK
6
CONTINUOUS
10
0.419238
20
1.8909
11
0.431774
21
1.89387
0
LINE
8
BLACK
6
CONTINUOUS
10
0.431774
20
1.89387
11
0.443881
21
1.89827
0
LINE
8
BLACK
6
CONTINUOUS
10
0.443881
20
1.89827
11
0.455394
21
1.90406
0
LINE
8
BLACK
6
CONTINUOUS
10
0.455394
20
1.90406
11
0.466158
21
1.91113
0
LINE
8
BLACK
6
CONTINUOUS
10
0.466158
20
1.91113
11
0.476027
21
1.91942
0
LINE
8
BLACK
6
CONTINUOUS
10
0.476027
20
1.91942
11
0.484868
21
1.92879
0
LINE
8
BLACK
6
CONTINUOUS
10
0.484868
20
1.92879
11
0.492562
21
1.93912
0
LINE
8
BLACK
6
CONTINUOUS
10
0.492562
20
1.93912
11
0.499003
21
1.95028
0
LINE
8
BLACK
6
CONTINUOUS
10
0.499003
20
1.95028
11
0.504106
21
1.96211
0
LINE
8
BLACK
6
CONTINUOUS
10
0.504106
20
1.96211
11
0.507801
21
1.97445
0
LINE
8
BLACK
6
CONTINUOUS
10
0.507801
20
1.97445
11
0.510038
21
1.98714
0
LINE
8
BLACK
6
CONTINUOUS
10
0.510038
20
1.98714
11
0.510787
21
2
0
LINE
8
BLACK
6
CONTINUOUS
10
0.510787
20
2
11
0.510038
21
2.01286
0
LINE
8
BLACK
6
CONTINUOUS
10
0.510038
20
2.01286
11
0.507801
21
2.02555
0
LINE
8
BLACK
6
CONTINUOUS
10
0.507801
20
2.02555
11
0.504106
21
2.03789
0
LINE
8
BLACK
6
CONTINUOUS
10
0.504106
20
2.03789
11
0.499003
21
2.04972
0
LINE
8
BLACK
6
CONTINUOUS
10
0.499003
20
2.04972
11
0.492562
21
2.06088
0
LINE
8
BLACK
6
CONTINUOUS
10
0.492562
20
2.06088
11
0.484868
21
2.07121
0
LINE
8
BLACK
6
CONTINUOUS
10
0.484868
20
2.07121
11
0.476027
21
2.08058
0
LINE
8
BLACK
6
CONTINUOUS
10
0.476027
20
2.08058
11
0.466158
21
2.08887
0
LINE
8
BLACK
6
CONTINUOUS
10
0.466158
20
2.08887
11
0.455394
21
2.09594
0
LINE
8
BLACK
6
CONTINUOUS
10
0.455394
20
2.09594
11
0.443881
21
2.10173
0
LINE
8
BLACK
6
CONTINUOUS
10
0.443881
20
2.10173
11
0.431774
21
2.10613
0
LINE
8
BLACK
6
CONTINUOUS
10
0.431774
20
2.10613
11
0.419238
21
2.1091
0
LINE
8
BLACK
6
CONTINUOUS
10
0.419238
20
2.1091
11
0.406442
21
2.1106
0
LINE
8
BLACK
6
CONTINUOUS
10
0.406442
20
2.1106
11
0.393558
21
2.1106
0
LINE
8
BLACK
6
CONTINUOUS
10
0.393558
20
2.1106
11
0.380762
21
2.1091
0
LINE
8
BLACK
6
CONTINUOUS
10
0.380762
20
2.1091
11
0.368226
21
2.10613
0
LINE
8
BLACK
6
CONTINUOUS
10
0.368226
20
2.10613
11
0.356119
21
2.10173
0
LINE
8
BLACK
6
CONTINUOUS
10
0.356119
20
2.10173
11
0.344606
21
2.09594
0
LINE
8
BLACK
6
CONTINUOUS
10
0.344606
20
2.09594
11
0.333842
21
2.08887
0
LINE
8
BLACK
6
CONTINUOUS
10
0.333842
20
2.08887
11
0.323973
21
2.08058
0
LINE
8
BLACK
6
CONTINUOUS
10
0.323973
20
2.08058
11
0.315132
21
2.07121
0
LINE
8
BLACK
6
CONTINUOUS
10
0.315132
20
2.07121
11
0.307438
21
2.06088
0
LINE
8
BLACK
6
CONTINUOUS
10
0.307438
20
2.06088
11
0.300997
21
2.04972
0
LINE
8
BLACK
6
CONTINUOUS
10
0.300997
20
2.04972
11
0.295894
21
2.03789
0
LINE
8
BLACK
6
CONTINUOUS
10
0.295894
20
2.03789
11
0.292199
21
2.02555
0
LINE
8
BLACK
6
CONTINUOUS
10
0.292199
20
2.02555
11
0.289962
21
2.01286
0
LINE
8
BLACK
6
CONTINUOUS
10
0.289962
20
2.01286
11
0.289213
21
2
0
LINE
8
BLACK
6
CONTINUOUS
10
0.289213
20
2
11
0.289962
21
1.98714
0
LINE
8
BLACK
6
CONTINUOUS
10
1.61406
20
2.12481
11
1.62795
21
2.12245
0
LINE
8
BLACK
6
CONTINUOUS
10
1.62795
20
2.12245
11
1.64148
21
2.11855
0
LINE
8
BLACK
6
CONTINUOUS
10
1.64148
20
2.11855
11
1.6545
21
2.11316
0
LINE
8
BLACK
6
CONTINUOUS
10
1.6545
20
2.11316
11
1.66682
21
2.10635
0
LINE
8
BLACK
6
CONTINUOUS
10
1.66682
20
2.10635
11
1.67831
21
2.0982
0
LINE
8
BLACK
6
CONTINUOUS
10
1.67831
20
2.0982
11
1.68881
21
2.08881
0
LINE
8
BLACK
6
CONTINUOUS
10
1.68881
20
2.08881
11
1.6982
21
2.07831
0
LINE
8
BLACK
6
CONTINUOUS
10
1.6982
20
2.07831
11
1.70635
21
2.06682
0
LINE
8
BLACK
6
CONTINUOUS
10
1.70635
20
2.06682
11
1.71316
21
2.0545
0
LINE
8
BLACK
6
CONTINUOUS
10
1.71316
20
2.0545
11
1.71855
21
2.04148
0
LINE
8
BLACK
6
CONTINUOUS
10
1.71855
20
2.04148
11
1.72245
21
2.02795
0
LINE
8
BLACK
6
CONTINUOUS
10
1.72245
20
2.02795
11
1.72481
21
2.01406
0
LINE
8
BLACK
6
CONTINUOUS
10
1.72481
20
2.01406
11
1.7256
21
2
0
LINE
8
BLACK
6
CONTINUOUS
10
1.7256
20
2
11
1.72481
21
1.98594
0
LINE
8
BLACK
6
CONTINUOUS
10
1.72481
20
1.98594
11
1.72245
21
1.97205
0
LINE
8
BLACK
6
CONTINUOUS
10
1.72245
20
1.97205
11
1.71855
21
1.95852
0
LINE
8
BLACK
6
CONTINUOUS
10
1.71855
20
1.95852
11
1.71316
21
1.9455
0
LINE
8
BLACK
6
CONTINUOUS
10
1.71316
20
1.9455
11
1.70635
21
1.93318
0
LINE
8
BLACK
6
CONTINUOUS
10
1.70635
20
1.93318
11
1.6982
21
1.92169
0
LINE
8
BLACK
6
CONTINUOUS
10
1.6982
20
1.92169
11
1.68881
21
1.91119
0
LINE
8
BLACK
6
CONTINUOUS
10
1.68881
20
1.91119
11
1.67831
21
1.9018
0
LINE
8
BLACK
6
CONTINUOUS
10
1.67831
20
1.9018
11
1.66682
21
1.89365
0
LINE
8
BLACK
6
CONTINUOUS
10
1.66682
20
1.89365
11
1.6545
21
1.88684
0
LINE
8
BLACK
6
CONTINUOUS
10
1.6545
20
1.88684
11
1.64148
21
1.88145
0
LINE
8
BLACK
6
CONTINUOUS
10
1.64148
20
1.88145
11
1.62795
21
1.87755
0
LINE
8
BLACK
6
CONTINUOUS
10
1.62795
20
1.87755
11
1.61406
21
1.87519
0
LINE
8
BLACK
6
CONTINUOUS
10
1.61406
20
1.87519
11
1.6
21
1.8744
0
LINE
8
BLACK
6
CONTINUOUS
10
1.6
20
1.8744
11
1.58594
21
1.87519
0
LINE
8
BLACK
6
CONTINUOUS
10
1.58594
20
1.87519
11
1.57205
21
1.87755
0
LINE
8
BLACK
6
CONTINUOUS
10
1.57205
20
1.87755
11
1.55852
21
1.88145
0
LINE
8
BLACK
6
CONTINUOUS
10
1.55852
20
1.88145
11
1.5455
21
1.88684
0
LINE
8
BLACK
6
CONTINUOUS
10
1.5455
20
1.88684
11
1.53318
21
1.89365
0
LINE
8
BLACK
6
CONTINUOUS
10
1.53318
20
1.89365
11
1.52169
21
1.9018
0
LINE
8
BLACK
6
CONTINUOUS
10
1.52169
20
1.9018
11
1.51119
21
1.91119
0
LINE
8
BLACK
6
CONTINUOUS
10
1.51119
20
1.91119
11
1.5018
21
1.92169
0
LINE
8
BLACK
6
CONTINUOUS
10
1.5018
20
1.92169
11
1.49365
21
1.93318
0
LINE
8
BLACK
6
CONTINUOUS
10
1.49365
20
1.93318
11
1.48684
21
1.9455
0
LINE
8
BLACK
6
CONTINUOUS
10
1.48684
20
1.9455
11
1.48145
21
1.95852
0
LINE
8
BLACK
6
CONTINUOUS
10
1.48145
20
1.95852
11
1.47755
21
1.97205
0
LINE
8
BLACK
6
CONTINUOUS
10
1.47755
20
1.97205
11
1.47519
21
1.98594
0
LINE
8
BLACK
6
CONTINUOUS
10
1.47519
20
1.98594
11
1.4744
21
2
0
LINE
8
BLACK
6
CONTINUOUS
10
1.4744
20
2
11
1.47519
21
2.01406
0
LINE
8
BLACK
6
CONTINUOUS
10
1.47519
20
2.01406
11
1.47755
21
2.02795
0
LINE
8
BLACK
6
CONTINUOUS
10
1.47755
20
2.02795
11
1.48145
21
2.04148
0
LINE
8
BLACK
6
CONTINUOUS
10
1.48145
20
2.04148
11
1.48684
21
2.0545
0
LINE
8
BLACK
6
CONTINUOUS
10
1.48684
20
2.0545
11
1.49365
21
2.06682
0
LINE
8
BLACK
6
CONTINUOUS
10
1.49365
20
2.06682
11
1.5018
21
2.07831
0
LINE
8
BLACK
6
CONTINUOUS
10
1.5018
20
2.07831
11
1.51119
21
2.08881
0
LINE
8
BLACK
6
CONTINUOUS
10
1.51119
20
2.08881
11
1.52169
21
2.0982
0
LINE
8
BLACK
6
CONTINUOUS
10
1.52169
20
2.0982
11
1.53318
21
2.10635
0
LINE
8
BLACK
6
CONTINUOUS
10
1.53318
20
2.10635
11
1.5455
21
2.11316
0
LINE
8
BLACK
6
CONTINUOUS
10
1.5455
20
2.11316
11
1.55852
21
2.11855
0
LINE
8
BLACK
6
CONTINUOUS
10
1.55852
20
2.11855
11
1.57205
21
2.12245
0
LINE
8
BLACK
6
CONTINUOUS
10
1.57205
20
2.12245
11
1.58594
21
2.12481
0
LINE
8
BLACK
6
CONTINUOUS
10
1.58594
20
2.12481
11
1.6
21
2.1256
0
LINE
8
BLACK
6
CONTINUOUS
10
1.6
20
2.1256
11
1.61406
21
2.12481
0
LINE
8
BLACK
6
CONTINUOUS
10
1.48996
20
1.98714
11
1.4922
21
1.97445
0
LINE
8
BLACK
6
CONTINUOUS
10
1.4922
20
1.97445
11
1.49589
21
1.96211
0
LINE
8
BLACK
6
CONTINUOUS
10
1.49589
20
1.96211
11
1.501
21
1.95028
0
LINE
8
BLACK
6
CONTINUOUS
10
1.501
20
1.95028
11
1.50744
21
1.93912
0
LINE
8
BLACK
6
CONTINUOUS
10
1.50744
20
1.93912
11
1.51513
21
1.92879
0
LINE
8
BLACK
6
CONTINUOUS
10
1.51513
20
1.92879
11
1.52397
21
1.91942
0
LINE
8
BLACK
6
CONTINUOUS
10
1.52397
20
1.91942
11
1.53384
21
1.91113
0
LINE
8
BLACK
6
CONTINUOUS
10
1.53384
20
1.91113
11
1.54461
21
1.90406
0
LINE
8
BLACK
6
CONTINUOUS
10
1.54461
20
1.90406
11
1.55612
21
1.89827
0
LINE
8
BLACK
6
CONTINUOUS
10
1.55612
20
1.89827
11
1.56823
21
1.89387
0
LINE
8
BLACK
6
CONTINUOUS
10
1.56823
20
1.89387
11
1.58076
21
1.8909
0
LINE
8
BLACK
6
CONTINUOUS
10
1.58076
20
1.8909
11
1.59356
21
1.8894
0
LINE
8
BLACK
6
CONTINUOUS
10
1.59356
20
1.8894
11
1.60644
21
1.8894
0
LINE
8
BLACK
6
CONTINUOUS
10
1.60644
20
1.8894
11
1.61924
21
1.8909
0
LINE
8
BLACK
6
CONTINUOUS
10
1.61924
20
1.8909
11
1.63177
21
1.89387
0
LINE
8
BLACK
6
CONTINUOUS
10
1.63177
20
1.89387
11
1.64388
21
1.89827
0
LINE
8
BLACK
6
CONTINUOUS
10
1.64388
20
1.89827
11
1.65539
21
1.90406
0
LINE
8
BLACK
6
CONTINUOUS
10
1.65539
20
1.90406
11
1.66616
21
1.91113
0
LINE
8
BLACK
6
CONTINUOUS
10
1.66616
20
1.91113
11
1.67603
21
1.91942
0
LINE
8
BLACK
6
CONTINUOUS
10
1.67603
20
1.91942
11
1.68487
21
1.92879
0
LINE
8
BLACK
6
CONTINUOUS
10
1.68487
20
1.92879
11
1.69256
21
1.93912
0
LINE
8
BLACK
6
CONTINUOUS
10
1.69256
20
1.93912
11
1.699
21
1.95028
0
LINE
8
BLACK
6
CONTINUOUS
10
1.699
20
1.95028
11
1.70411
21
1.96211
0
LINE
8
BLACK
6
CONTINUOUS
10
1.70411
20
1.96211
11
1.7078
21
1.97445
0
LINE
8
BLACK
6
CONTINUOUS
10
1.7078
20
1.97445
11
1.71004
21
1.98714
0
LINE
8
BLACK
6
CONTINUOUS
10
1.71004
20
1.98714
11
1.71079
21
2
0
LINE
8
BLACK
6
CONTINUOUS
10
1.71079
20
2
11
1.71004
21
2.01286
0
LINE
8
BLACK
6
CONTINUOUS
10
1.71004
20
2.01286
11
1.7078
21
2.02555
0
LINE
8
BLACK
6
CONTINUOUS
10
1.7078
20
2.02555
11
1.70411
21
2.03789
0
LINE
8
BLACK
6
CONTINUOUS
10
1.70411
20
2.03789
11
1.699
21
2.04972
0
LINE
8
BLACK
6
CONTINUOUS
10
1.699
20
2.04972
11
1.69256
21
2.06088
0
LINE
8
BLACK
6
CONTINUOUS
10
1.69256
20
2.06088
11
1.68487
21
2.07121
0
LINE
8
BLACK
6
CONTINUOUS
10
1.68487
20
2.07121
11
1.67603
21
2.08058
0
LINE
8
BLACK
6
CONTINUOUS
10
1.67603
20
2.08058
11
1.66616
21
2.08887
0
LINE
8
BLACK
6
CONTINUOUS
10
1.66616
20
2.08887
11
1.65539
21
2.09594
0
LINE
8
BLACK
6
CONTINUOUS
10
1.65539
20
2.09594
11
1.64388
21
2.10173
0
LINE
8
BLACK
6
CONTINUOUS
10
1.64388
20
2.10173
11
1.63177
21
2.10613
0
LINE
8
BLACK
6
CONTINUOUS
10
1.63177
20
2.10613
11
1.61924
21
2.1091
0
LINE
8
BLACK
6
CONTINUOUS
10
1.61924
20
2.1091
11
1.60644
21
2.1106
0
LINE
8
BLACK
6
CONTINUOUS
10
1.60644
20
2.1106
11
1.59356
21
2.1106
0
LINE
8
BLACK
6
CONTINUOUS
10
1.59356
20
2.1106
11
1.58076
21
2.1091
0
LINE
8
BLACK
6
CONTINUOUS
10
1.58076
20
2.1091
11
1.56823
21
2.10613
0
LINE
8
BLACK
6
CONTINUOUS
10
1.56823
20
2.10613
11
1.55612
21
2.10173
0
LINE
8
BLACK
6
CONTINUOUS
10
1.55612
20
2.10173
11
1.54461
21
2.09594
0
LINE
8
BLACK
6
CONTINUOUS
10
1.54461
20
2.09594
11
1.53384
21
2.08887
0
LINE
8
BLACK
6
CONTINUOUS
10
1.53384
20
2.08887
11
1.52397
21
2.08058
0
LINE
8
BLACK
6
CONTINUOUS
10
1.52397
20
2.08058
11
1.51513
21
2.07121
0
LINE
8
BLACK
6
CONTINUOUS
10
1.51513
20
2.07121
11
1.50744
21
2.06088
0
LINE
8
BLACK
6
CONTINUOUS
10
1.50744
20
2.06088
11
1.501
21
2.04972
0
LINE
8
BLACK
6
CONTINUOUS
10
1.501
20
2.04972
11
1.49589
21
2.03789
0
LINE
8
BLACK
6
CONTINUOUS
10
1.49589
20
2.03789
11
1.4922
21
2.02555
0
LINE
8
BLACK
6
CONTINUOUS
10
1.4922
20
2.02555
11
1.48996
21
2.01286
0
LINE
8
BLACK
6
CONTINUOUS
10
1.48996
20
2.01286
11
1.48921
21
2
0
LINE
8
BLACK
6
CONTINUOUS
10
1.48921
20
2
11
1.48996
21
1.98714
0
LINE
8
BLACK
6
CONTINUOUS
10
0.988942
20
2.04029
11
0.989633
21
2.03839
0
LINE
8
BLACK
6
CONTINUOUS
10
0.989633
20
2.03839
11
0.989633
21
2.01027
0
LINE
8
BLACK
6
CONTINUOUS
10
0.989633
20
2.01027
11
0.989479
21
2.0094
0
LINE
8
BLACK
6
CONTINUOUS
10
0.989479
20
2.0094
11
0.989481
21
2.00934
0
LINE
8
BLACK
6
CONTINUOUS
10
0.989481
20
2.00934
11
0.987606
21
2.00371
0
LINE
8
BLACK
6
CONTINUOUS
10
0.987606
20
2.00371
11
0.987118
21
2.00281
0
LINE
8
BLACK
6
CONTINUOUS
10
0.987118
20
2.00281
11
0.986968
21
2.00272
0
LINE
8
BLACK
6
CONTINUOUS
10
0.986968
20
2.00272
11
0.986893
21
2.00256
0
LINE
8
BLACK
6
CONTINUOUS
10
0.986893
20
2.00256
11
0.983143
21
1.99881
0
LINE
8
BLACK
6
CONTINUOUS
10
0.983143
20
1.99881
11
0.982303
21
1.99822
0
LINE
8
BLACK
6
CONTINUOUS
10
0.982303
20
1.99822
11
0.982127
21
1.99821
0
LINE
8
BLACK
6
CONTINUOUS
10
0.982127
20
1.99821
11
0.981989
21
1.9981
0
LINE
8
BLACK
6
CONTINUOUS
10
0.981989
20
1.9981
11
0.976365
21
1.99622
0
LINE
8
BLACK
6
CONTINUOUS
10
0.976365
20
1.99622
11
0.975492
21
1.99609
0
LINE
8
BLACK
6
CONTINUOUS
10
0.975492
20
1.99609
11
0.975431
21
1.99607
0
LINE
8
BLACK
6
CONTINUOUS
10
0.975431
20
1.99607
11
0.971682
21
1.99607
0
LINE
8
BLACK
6
CONTINUOUS
10
0.971682
20
1.99607
11
0.970672
21
1.99625
0
LINE
8
BLACK
6
CONTINUOUS
10
0.970672
20
1.99625
11
0.969124
21
1.99755
0
LINE
8
BLACK
6
CONTINUOUS
10
0.969124
20
1.99755
11
0.968774
21
1.99954
0
LINE
8
BLACK
6
CONTINUOUS
10
0.968774
20
1.99954
11
0.969784
21
2.00128
0
LINE
8
BLACK
6
CONTINUOUS
10
0.969784
20
2.00128
11
0.971682
21
2.00198
0
LINE
8
BLACK
6
CONTINUOUS
10
0.971682
20
2.00198
11
0.974952
21
2.00198
0
LINE
8
BLACK
6
CONTINUOUS
10
0.974952
20
2.00198
11
0.97946
21
2.00348
0
LINE
8
BLACK
6
CONTINUOUS
10
0.97946
20
2.00348
11
0.982224
21
2.00624
0
LINE
8
BLACK
6
CONTINUOUS
10
0.982224
20
2.00624
11
0.983727
21
2.01075
0
LINE
8
BLACK
6
CONTINUOUS
10
0.983727
20
2.01075
11
0.983727
21
2.03839
0
LINE
8
BLACK
6
CONTINUOUS
10
0.983727
20
2.03839
11
0.983905
21
2.0394
0
LINE
8
BLACK
6
CONTINUOUS
10
0.983905
20
2.0394
11
0.985203
21
2.04095
0
LINE
8
BLACK
6
CONTINUOUS
10
0.985203
20
2.04095
11
0.987193
21
2.0413
0
LINE
8
BLACK
6
CONTINUOUS
10
0.987193
20
2.0413
11
0.988942
21
2.04029
0
LINE
8
BLACK
6
CONTINUOUS
10
1.01956
20
2.04117
11
1.0197
21
2.04105
0
LINE
8
BLACK
6
CONTINUOUS
10
1.0197
20
2.04105
11
1.01987
21
2.04103
0
LINE
8
BLACK
6
CONTINUOUS
10
1.01987
20
2.04103
11
1.02362
21
2.03916
0
LINE
8
BLACK
6
CONTINUOUS
10
1.02362
20
2.03916
11
1.02433
21
2.03863
0
LINE
8
BLACK
6
CONTINUOUS
10
1.02433
20
2.03863
11
1.02439
21
2.03861
0
LINE
8
BLACK
6
CONTINUOUS
10
1.02439
20
2.03861
11
1.02626
21
2.03673
0
LINE
8
BLACK
6
CONTINUOUS
10
1.02626
20
2.03673
11
1.02677
21
2.03601
0
LINE
8
BLACK
6
CONTINUOUS
10
1.02677
20
2.03601
11
1.02682
21
2.03596
0
LINE
8
BLACK
6
CONTINUOUS
10
1.02682
20
2.03596
11
1.02869
21
2.03221
0
LINE
8
BLACK
6
CONTINUOUS
10
1.02869
20
2.03221
11
1.02898
21
2.03123
0
LINE
8
BLACK
6
CONTINUOUS
10
1.02898
20
2.03123
11
1.02894
21
2.03106
0
LINE
8
BLACK
6
CONTINUOUS
10
1.02894
20
2.03106
11
1.029
21
2.03089
0
LINE
8
BLACK
6
CONTINUOUS
10
1.029
20
2.03089
11
1.029
21
2.02714
0
LINE
8
BLACK
6
CONTINUOUS
10
1.029
20
2.02714
11
1.02885
21
2.02628
0
LINE
8
BLACK
6
CONTINUOUS
10
1.02885
20
2.02628
11
1.02885
21
2.02621
0
LINE
8
BLACK
6
CONTINUOUS
10
1.02885
20
2.02621
11
1.02698
21
2.02059
0
LINE
8
BLACK
6
CONTINUOUS
10
1.02698
20
2.02059
11
1.02649
21
2.01968
0
LINE
8
BLACK
6
CONTINUOUS
10
1.02649
20
2.01968
11
1.02634
21
2.01959
0
LINE
8
BLACK
6
CONTINUOUS
10
1.02634
20
2.01959
11
1.02626
21
2.01943
0
LINE
8
BLACK
6
CONTINUOUS
10
1.02626
20
2.01943
11
1.00881
21
2.00198
0
LINE
8
BLACK
6
CONTINUOUS
10
1.00881
20
2.00198
11
1.02605
21
2.00198
0
LINE
8
BLACK
6
CONTINUOUS
10
1.02605
20
2.00198
11
1.02706
21
2.0018
0
LINE
8
BLACK
6
CONTINUOUS
10
1.02706
20
2.0018
11
1.02861
21
2.0005
0
LINE
8
BLACK
6
CONTINUOUS
10
1.02861
20
2.0005
11
1.02896
21
1.99851
0
LINE
8
BLACK
6
CONTINUOUS
10
1.02896
20
1.99851
11
1.02795
21
1.99676
0
LINE
8
BLACK
6
CONTINUOUS
10
1.02795
20
1.99676
11
1.02605
21
1.99607
0
LINE
8
BLACK
6
CONTINUOUS
10
1.02605
20
1.99607
11
1.00168
21
1.99607
0
LINE
8
BLACK
6
CONTINUOUS
10
1.00168
20
1.99607
11
1.00104
21
1.99618
0
LINE
8
BLACK
6
CONTINUOUS
10
1.00104
20
1.99618
11
1.00091
21
1.99617
0
LINE
8
BLACK
6
CONTINUOUS
10
1.00091
20
1.99617
11
1.00085
21
1.99622
0
LINE
8
BLACK
6
CONTINUOUS
10
1.00085
20
1.99622
11
1.00067
21
1.99625
0
LINE
8
BLACK
6
CONTINUOUS
10
1.00067
20
1.99625
11
0.999987
21
1.99682
0
LINE
8
BLACK
6
CONTINUOUS
10
0.999987
20
1.99682
11
0.999259
21
1.99733
0
LINE
8
BLACK
6
CONTINUOUS
10
0.999259
20
1.99733
11
0.999224
21
1.99746
0
LINE
8
BLACK
6
CONTINUOUS
10
0.999224
20
1.99746
11
0.999121
21
1.99755
0
LINE
8
BLACK
6
CONTINUOUS
10
0.999121
20
1.99755
11
0.998966
21
1.99842
0
LINE
8
BLACK
6
CONTINUOUS
10
0.998966
20
1.99842
11
0.998736
21
1.99928
0
LINE
8
BLACK
6
CONTINUOUS
10
0.998736
20
1.99928
11
0.998793
21
1.9994
0
LINE
8
BLACK
6
CONTINUOUS
10
0.998793
20
1.9994
11
0.99877
21
1.99954
0
LINE
8
BLACK
6
CONTINUOUS
10
0.99877
20
1.99954
11
0.999214
21
2.00031
0
LINE
8
BLACK
6
CONTINUOUS
10
0.999214
20
2.00031
11
0.99959
21
2.00111
0
LINE
8
BLACK
6
CONTINUOUS
10
0.99959
20
2.00111
11
1.02159
21
2.02312
0
LINE
8
BLACK
6
CONTINUOUS
10
1.02159
20
2.02312
11
1.0231
21
2.02762
0
LINE
8
BLACK
6
CONTINUOUS
10
1.0231
20
2.02762
11
1.0231
21
2.0302
0
LINE
8
BLACK
6
CONTINUOUS
10
1.0231
20
2.0302
11
1.02175
21
2.03289
0
LINE
8
BLACK
6
CONTINUOUS
10
1.02175
20
2.03289
11
1.02055
21
2.03409
0
LINE
8
BLACK
6
CONTINUOUS
10
1.02055
20
2.03409
11
1.01785
21
2.03544
0
LINE
8
BLACK
6
CONTINUOUS
10
1.01785
20
2.03544
11
1.00987
21
2.03544
0
LINE
8
BLACK
6
CONTINUOUS
10
1.00987
20
2.03544
11
1.00718
21
2.03409
0
LINE
8
BLACK
6
CONTINUOUS
10
1.00718
20
2.03409
11
1.00564
21
2.03256
0
LINE
8
BLACK
6
CONTINUOUS
10
1.00564
20
2.03256
11
1.0048
21
2.03197
0
LINE
8
BLACK
6
CONTINUOUS
10
1.0048
20
2.03197
11
1.00279
21
2.03179
0
LINE
8
BLACK
6
CONTINUOUS
10
1.00279
20
2.03179
11
1.00113
21
2.03295
0
LINE
8
BLACK
6
CONTINUOUS
10
1.00113
20
2.03295
11
1.00061
21
2.0349
0
LINE
8
BLACK
6
CONTINUOUS
10
1.00061
20
2.0349
11
1.00146
21
2.03673
0
LINE
8
BLACK
6
CONTINUOUS
10
1.00146
20
2.03673
11
1.00334
21
2.03861
0
LINE
8
BLACK
6
CONTINUOUS
10
1.00334
20
2.03861
11
1.00406
21
2.03911
0
LINE
8
BLACK
6
CONTINUOUS
10
1.00406
20
2.03911
11
1.00411
21
2.03916
0
LINE
8
BLACK
6
CONTINUOUS
10
1.00411
20
2.03916
11
1.00786
21
2.04103
0
LINE
8
BLACK
6
CONTINUOUS
10
1.00786
20
2.04103
11
1.00884
21
2.04133
0
LINE
8
BLACK
6
CONTINUOUS
10
1.00884
20
2.04133
11
1.00901
21
2.04129
0
LINE
8
BLACK
6
CONTINUOUS
10
1.00901
20
2.04129
11
1.00918
21
2.04135
0
LINE
8
BLACK
6
CONTINUOUS
10
1.00918
20
2.04135
11
1.01855
21
2.04135
0
LINE
8
BLACK
6
CONTINUOUS
10
1.01855
20
2.04135
11
1.01956
21
2.04117
0
LINE
8
BLACK
6
CONTINUOUS
10
1.1998
20
2.1189
11
1.2012
21
2.11832
0
LINE
8
BLACK
6
CONTINUOUS
10
1.2012
20
2.11832
11
1.2512
21
2.06832
0
LINE
8
BLACK
6
CONTINUOUS
10
1.2512
20
2.06832
11
1.25177
21
2.06693
0
LINE
8
BLACK
6
CONTINUOUS
10
1.25177
20
2.06693
11
1.25177
21
1.91693
0
LINE
8
BLACK
6
CONTINUOUS
10
1.25177
20
1.91693
11
1.2512
21
1.91554
0
LINE
8
BLACK
6
CONTINUOUS
10
1.2512
20
1.91554
11
1.2498
21
1.91496
0
LINE
8
BLACK
6
CONTINUOUS
10
1.2498
20
1.91496
11
0.749803
21
1.91496
0
LINE
8
BLACK
6
CONTINUOUS
10
0.749803
20
1.91496
11
0.748411
21
1.91554
0
LINE
8
BLACK
6
CONTINUOUS
10
0.748411
20
1.91554
11
0.747835
21
1.91693
0
LINE
8
BLACK
6
CONTINUOUS
10
0.747835
20
1.91693
11
0.747835
21
1.91693
0
LINE
8
BLACK
6
CONTINUOUS
10
0.747835
20
1.91693
11
0.747835
21
2.11693
0
LINE
8
BLACK
6
CONTINUOUS
10
0.747835
20
2.11693
11
0.748411
21
2.11832
0
LINE
8
BLACK
6
CONTINUOUS
10
0.748411
20
2.11832
11
0.749803
21
2.1189
0
LINE
8
BLACK
6
CONTINUOUS
10
0.749803
20
2.1189
11
1.1998
21
2.1189
0
LINE
8
BLACK
6
CONTINUOUS
10
0.751772
20
2.11496
11
0.751772
21
1.9189
0
LINE
8
BLACK
6
CONTINUOUS
10
0.751772
20
1.9189
11
1.24783
21
1.9189
0
LINE
8
BLACK
6
CONTINUOUS
10
1.24783
20
1.9189
11
1.24783
21
2.06611
0
LINE
8
BLACK
6
CONTINUOUS
10
1.24783
20
2.06611
11
1.19899
21
2.11496
0
LINE
8
BLACK
6
CONTINUOUS
10
1.19899
20
2.11496
11
0.751772
21
2.11496
  0
ENDSEC
  0
EOF
