  0
SECTION
  2
HEADER
  9
$ANGBASE
  50
0.0
  9
$ANGDIR
  70
1
  9
$MEASUREMENT
  70
0
  0
ENDSEC
  0
SECTION
  2
TABLES
  0
TABLE
  2
LTYPE
  70
4
  0
LTYPE
  5
40F
  2
CONTINUOUS
  70
0
  3
Solid line
  72
65
  73
0
  40
0.0
  0
LTYPE
  5
410
  2
DASHDOT
 70
0
  3
Dash Dot ____ _ ____ _
 72
65
 73
4
 40
2.0
 49
1.25
 49
-0.25
 49
0.25
 49
-0.25
  0
LTYPE
  5
411
  2
DASHED
 70
0
  3
Dashed __ __ __ __ __
 72
65
 73
2
 40
0.75
 49
0.5
 49
-0.25
  0
LTYPE
  5
43B
  2
DOTTED
 70
0
  3
Dotted .  .  .  .
 72
65
 73
2
 40
0.2
 49
0.0
 49
-0.2
  0
ENDTAB
  0
TABLE
  2
STYLE
  70
4
  0
STYLE
  2
KICAD
  70
0
  40
0
  41
1
  42
1
  50
0
  71
0
  3
isocp.shx
  0
STYLE
  2
KICADB
  70
0
  40
0
  41
1
  42
1
  50
0
  71
0
  3
isocp.shx
  0
STYLE
  2
KICADI
  70
0
  40
0
  41
1
  42
1
  50
15
  71
0
  3
isocp.shx
  0
STYLE
  2
KICADBI
  70
0
  40
0
  41
1
  42
1
  50
15
  71
0
  3
isocp.shx
  0
ENDTAB
  0
TABLE
  2
LAYER
  70
1
  0
LAYER
  2
BLACK
  70
0
  62
7
  6
CONTINUOUS
  0
ENDTAB
  0
ENDSEC
  0
SECTION
  2
ENTITIES
0
LINE
8
BLACK
6
CONTINUOUS
10
0.838099
20
0.357867
11
0.842812
21
0.354838
0
LINE
8
BLACK
6
CONTINUOUS
10
0.842812
20
0.354838
11
0.846481
21
0.350603
0
LINE
8
BLACK
6
CONTINUOUS
10
0.846481
20
0.350603
11
0.848809
21
0.345507
0
LINE
8
BLACK
6
CONTINUOUS
10
0.848809
20
0.345507
11
0.849606
21
0.339961
0
LINE
8
BLACK
6
CONTINUOUS
10
0.849606
20
0.339961
11
0.849606
21
0.300591
0
LINE
8
BLACK
6
CONTINUOUS
10
0.849606
20
0.300591
11
0.848809
21
0.295045
0
LINE
8
BLACK
6
CONTINUOUS
10
0.848809
20
0.295045
11
0.846481
21
0.289948
0
LINE
8
BLACK
6
CONTINUOUS
10
0.846481
20
0.289948
11
0.842812
21
0.285714
0
LINE
8
BLACK
6
CONTINUOUS
10
0.842812
20
0.285714
11
0.838099
21
0.282684
0
LINE
8
BLACK
6
CONTINUOUS
10
0.838099
20
0.282684
11
0.832723
21
0.281106
0
LINE
8
BLACK
6
CONTINUOUS
10
0.832723
20
0.281106
11
0.82712
21
0.281106
0
LINE
8
BLACK
6
CONTINUOUS
10
0.82712
20
0.281106
11
0.821744
21
0.282684
0
LINE
8
BLACK
6
CONTINUOUS
10
0.821744
20
0.282684
11
0.81703
21
0.285714
0
LINE
8
BLACK
6
CONTINUOUS
10
0.81703
20
0.285714
11
0.813361
21
0.289948
0
LINE
8
BLACK
6
CONTINUOUS
10
0.813361
20
0.289948
11
0.811034
21
0.295045
0
LINE
8
BLACK
6
CONTINUOUS
10
0.811034
20
0.295045
11
0.810236
21
0.300591
0
LINE
8
BLACK
6
CONTINUOUS
10
0.810236
20
0.300591
11
0.810236
21
0.339961
0
LINE
8
BLACK
6
CONTINUOUS
10
0.810236
20
0.339961
11
0.811034
21
0.345507
0
LINE
8
BLACK
6
CONTINUOUS
10
0.811034
20
0.345507
11
0.813361
21
0.350603
0
LINE
8
BLACK
6
CONTINUOUS
10
0.813361
20
0.350603
11
0.81703
21
0.354838
0
LINE
8
BLACK
6
CONTINUOUS
10
0.81703
20
0.354838
11
0.821744
21
0.357867
0
LINE
8
BLACK
6
CONTINUOUS
10
0.821744
20
0.357867
11
0.82712
21
0.359445
0
LINE
8
BLACK
6
CONTINUOUS
10
0.82712
20
0.359445
11
0.832723
21
0.359445
0
LINE
8
BLACK
6
CONTINUOUS
10
0.832723
20
0.359445
11
0.838099
21
0.357867
0
LINE
8
BLACK
6
CONTINUOUS
10
1.17826
20
0.357867
11
1.18297
21
0.354838
0
LINE
8
BLACK
6
CONTINUOUS
10
1.18297
20
0.354838
11
1.18664
21
0.350603
0
LINE
8
BLACK
6
CONTINUOUS
10
1.18664
20
0.350603
11
1.18897
21
0.345507
0
LINE
8
BLACK
6
CONTINUOUS
10
1.18897
20
0.345507
11
1.18976
21
0.339961
0
LINE
8
BLACK
6
CONTINUOUS
10
1.18976
20
0.339961
11
1.18976
21
0.300591
0
LINE
8
BLACK
6
CONTINUOUS
10
1.18976
20
0.300591
11
1.18897
21
0.295045
0
LINE
8
BLACK
6
CONTINUOUS
10
1.18897
20
0.295045
11
1.18664
21
0.289948
0
LINE
8
BLACK
6
CONTINUOUS
10
1.18664
20
0.289948
11
1.18297
21
0.285714
0
LINE
8
BLACK
6
CONTINUOUS
10
1.18297
20
0.285714
11
1.17826
21
0.282684
0
LINE
8
BLACK
6
CONTINUOUS
10
1.17826
20
0.282684
11
1.17288
21
0.281106
0
LINE
8
BLACK
6
CONTINUOUS
10
1.17288
20
0.281106
11
1.16728
21
0.281106
0
LINE
8
BLACK
6
CONTINUOUS
10
1.16728
20
0.281106
11
1.1619
21
0.282684
0
LINE
8
BLACK
6
CONTINUOUS
10
1.1619
20
0.282684
11
1.15719
21
0.285714
0
LINE
8
BLACK
6
CONTINUOUS
10
1.15719
20
0.285714
11
1.15352
21
0.289948
0
LINE
8
BLACK
6
CONTINUOUS
10
1.15352
20
0.289948
11
1.15119
21
0.295045
0
LINE
8
BLACK
6
CONTINUOUS
10
1.15119
20
0.295045
11
1.15039
21
0.300591
0
LINE
8
BLACK
6
CONTINUOUS
10
1.15039
20
0.300591
11
1.15039
21
0.339961
0
LINE
8
BLACK
6
CONTINUOUS
10
1.15039
20
0.339961
11
1.15119
21
0.345507
0
LINE
8
BLACK
6
CONTINUOUS
10
1.15119
20
0.345507
11
1.15352
21
0.350603
0
LINE
8
BLACK
6
CONTINUOUS
10
1.15352
20
0.350603
11
1.15719
21
0.354838
0
LINE
8
BLACK
6
CONTINUOUS
10
1.15719
20
0.354838
11
1.1619
21
0.357867
0
LINE
8
BLACK
6
CONTINUOUS
10
1.1619
20
0.357867
11
1.16728
21
0.359445
0
LINE
8
BLACK
6
CONTINUOUS
10
1.16728
20
0.359445
11
1.17288
21
0.359445
0
LINE
8
BLACK
6
CONTINUOUS
10
1.17288
20
0.359445
11
1.17826
21
0.357867
0
LINE
8
BLACK
6
CONTINUOUS
10
0.42051
20
0.516316
11
0.433874
21
0.513148
0
LINE
8
BLACK
6
CONTINUOUS
10
0.433874
20
0.513148
11
0.446781
21
0.508451
0
LINE
8
BLACK
6
CONTINUOUS
10
0.446781
20
0.508451
11
0.459055
21
0.502286
0
LINE
8
BLACK
6
CONTINUOUS
10
0.459055
20
0.502286
11
0.470531
21
0.494739
0
LINE
8
BLACK
6
CONTINUOUS
10
0.470531
20
0.494739
11
0.481052
21
0.48591
0
LINE
8
BLACK
6
CONTINUOUS
10
0.481052
20
0.48591
11
0.490478
21
0.47592
0
LINE
8
BLACK
6
CONTINUOUS
10
0.490478
20
0.47592
11
0.49868
21
0.464903
0
LINE
8
BLACK
6
CONTINUOUS
10
0.49868
20
0.464903
11
0.505547
21
0.453008
0
LINE
8
BLACK
6
CONTINUOUS
10
0.505547
20
0.453008
11
0.510987
21
0.440396
0
LINE
8
BLACK
6
CONTINUOUS
10
0.510987
20
0.440396
11
0.514927
21
0.427238
0
LINE
8
BLACK
6
CONTINUOUS
10
0.514927
20
0.427238
11
0.517312
21
0.413712
0
LINE
8
BLACK
6
CONTINUOUS
10
0.517312
20
0.413712
11
0.51811
21
0.4
0
LINE
8
BLACK
6
CONTINUOUS
10
0.51811
20
0.4
11
0.517312
21
0.386288
0
LINE
8
BLACK
6
CONTINUOUS
10
0.517312
20
0.386288
11
0.514927
21
0.372762
0
LINE
8
BLACK
6
CONTINUOUS
10
0.514927
20
0.372762
11
0.510987
21
0.359604
0
LINE
8
BLACK
6
CONTINUOUS
10
0.510987
20
0.359604
11
0.505547
21
0.346992
0
LINE
8
BLACK
6
CONTINUOUS
10
0.505547
20
0.346992
11
0.49868
21
0.335097
0
LINE
8
BLACK
6
CONTINUOUS
10
0.49868
20
0.335097
11
0.490478
21
0.32408
0
LINE
8
BLACK
6
CONTINUOUS
10
0.490478
20
0.32408
11
0.481052
21
0.31409
0
LINE
8
BLACK
6
CONTINUOUS
10
0.481052
20
0.31409
11
0.470531
21
0.305261
0
LINE
8
BLACK
6
CONTINUOUS
10
0.470531
20
0.305261
11
0.459055
21
0.297714
0
LINE
8
BLACK
6
CONTINUOUS
10
0.459055
20
0.297714
11
0.446781
21
0.291549
0
LINE
8
BLACK
6
CONTINUOUS
10
0.446781
20
0.291549
11
0.433874
21
0.286852
0
LINE
8
BLACK
6
CONTINUOUS
10
0.433874
20
0.286852
11
0.42051
21
0.283684
0
LINE
8
BLACK
6
CONTINUOUS
10
0.42051
20
0.283684
11
0.406867
21
0.28209
0
LINE
8
BLACK
6
CONTINUOUS
10
0.406867
20
0.28209
11
0.393133
21
0.28209
0
LINE
8
BLACK
6
CONTINUOUS
10
0.393133
20
0.28209
11
0.37949
21
0.283684
0
LINE
8
BLACK
6
CONTINUOUS
10
0.37949
20
0.283684
11
0.366126
21
0.286852
0
LINE
8
BLACK
6
CONTINUOUS
10
0.366126
20
0.286852
11
0.353219
21
0.291549
0
LINE
8
BLACK
6
CONTINUOUS
10
0.353219
20
0.291549
11
0.340945
21
0.297714
0
LINE
8
BLACK
6
CONTINUOUS
10
0.340945
20
0.297714
11
0.329469
21
0.305261
0
LINE
8
BLACK
6
CONTINUOUS
10
0.329469
20
0.305261
11
0.318948
21
0.31409
0
LINE
8
BLACK
6
CONTINUOUS
10
0.318948
20
0.31409
11
0.309522
21
0.32408
0
LINE
8
BLACK
6
CONTINUOUS
10
0.309522
20
0.32408
11
0.30132
21
0.335097
0
LINE
8
BLACK
6
CONTINUOUS
10
0.30132
20
0.335097
11
0.294453
21
0.346992
0
LINE
8
BLACK
6
CONTINUOUS
10
0.294453
20
0.346992
11
0.289013
21
0.359604
0
LINE
8
BLACK
6
CONTINUOUS
10
0.289013
20
0.359604
11
0.285073
21
0.372762
0
LINE
8
BLACK
6
CONTINUOUS
10
0.285073
20
0.372762
11
0.282688
21
0.386288
0
LINE
8
BLACK
6
CONTINUOUS
10
0.282688
20
0.386288
11
0.28189
21
0.4
0
LINE
8
BLACK
6
CONTINUOUS
10
0.28189
20
0.4
11
0.282688
21
0.413712
0
LINE
8
BLACK
6
CONTINUOUS
10
0.282688
20
0.413712
11
0.285073
21
0.427238
0
LINE
8
BLACK
6
CONTINUOUS
10
0.285073
20
0.427238
11
0.289013
21
0.440396
0
LINE
8
BLACK
6
CONTINUOUS
10
0.289013
20
0.440396
11
0.294453
21
0.453008
0
LINE
8
BLACK
6
CONTINUOUS
10
0.294453
20
0.453008
11
0.30132
21
0.464903
0
LINE
8
BLACK
6
CONTINUOUS
10
0.30132
20
0.464903
11
0.309522
21
0.47592
0
LINE
8
BLACK
6
CONTINUOUS
10
0.309522
20
0.47592
11
0.318948
21
0.48591
0
LINE
8
BLACK
6
CONTINUOUS
10
0.318948
20
0.48591
11
0.329469
21
0.494739
0
LINE
8
BLACK
6
CONTINUOUS
10
0.329469
20
0.494739
11
0.340945
21
0.502286
0
LINE
8
BLACK
6
CONTINUOUS
10
0.340945
20
0.502286
11
0.353219
21
0.508451
0
LINE
8
BLACK
6
CONTINUOUS
10
0.353219
20
0.508451
11
0.366126
21
0.513148
0
LINE
8
BLACK
6
CONTINUOUS
10
0.366126
20
0.513148
11
0.37949
21
0.516316
0
LINE
8
BLACK
6
CONTINUOUS
10
0.37949
20
0.516316
11
0.393133
21
0.51791
0
LINE
8
BLACK
6
CONTINUOUS
10
0.393133
20
0.51791
11
0.406867
21
0.51791
0
LINE
8
BLACK
6
CONTINUOUS
10
0.406867
20
0.51791
11
0.42051
21
0.516316
0
LINE
8
BLACK
6
CONTINUOUS
10
1.62051
20
0.516316
11
1.63387
21
0.513148
0
LINE
8
BLACK
6
CONTINUOUS
10
1.63387
20
0.513148
11
1.64678
21
0.508451
0
LINE
8
BLACK
6
CONTINUOUS
10
1.64678
20
0.508451
11
1.65906
21
0.502286
0
LINE
8
BLACK
6
CONTINUOUS
10
1.65906
20
0.502286
11
1.67053
21
0.494739
0
LINE
8
BLACK
6
CONTINUOUS
10
1.67053
20
0.494739
11
1.68105
21
0.48591
0
LINE
8
BLACK
6
CONTINUOUS
10
1.68105
20
0.48591
11
1.69048
21
0.47592
0
LINE
8
BLACK
6
CONTINUOUS
10
1.69048
20
0.47592
11
1.69868
21
0.464903
0
LINE
8
BLACK
6
CONTINUOUS
10
1.69868
20
0.464903
11
1.70555
21
0.453008
0
LINE
8
BLACK
6
CONTINUOUS
10
1.70555
20
0.453008
11
1.71099
21
0.440396
0
LINE
8
BLACK
6
CONTINUOUS
10
1.71099
20
0.440396
11
1.71493
21
0.427238
0
LINE
8
BLACK
6
CONTINUOUS
10
1.71493
20
0.427238
11
1.71731
21
0.413712
0
LINE
8
BLACK
6
CONTINUOUS
10
1.71731
20
0.413712
11
1.71811
21
0.4
0
LINE
8
BLACK
6
CONTINUOUS
10
1.71811
20
0.4
11
1.71731
21
0.386288
0
LINE
8
BLACK
6
CONTINUOUS
10
1.71731
20
0.386288
11
1.71493
21
0.372762
0
LINE
8
BLACK
6
CONTINUOUS
10
1.71493
20
0.372762
11
1.71099
21
0.359604
0
LINE
8
BLACK
6
CONTINUOUS
10
1.71099
20
0.359604
11
1.70555
21
0.346992
0
LINE
8
BLACK
6
CONTINUOUS
10
1.70555
20
0.346992
11
1.69868
21
0.335097
0
LINE
8
BLACK
6
CONTINUOUS
10
1.69868
20
0.335097
11
1.69048
21
0.32408
0
LINE
8
BLACK
6
CONTINUOUS
10
1.69048
20
0.32408
11
1.68105
21
0.31409
0
LINE
8
BLACK
6
CONTINUOUS
10
1.68105
20
0.31409
11
1.67053
21
0.305261
0
LINE
8
BLACK
6
CONTINUOUS
10
1.67053
20
0.305261
11
1.65906
21
0.297714
0
LINE
8
BLACK
6
CONTINUOUS
10
1.65906
20
0.297714
11
1.64678
21
0.291549
0
LINE
8
BLACK
6
CONTINUOUS
10
1.64678
20
0.291549
11
1.63387
21
0.286852
0
LINE
8
BLACK
6
CONTINUOUS
10
1.63387
20
0.286852
11
1.62051
21
0.283684
0
LINE
8
BLACK
6
CONTINUOUS
10
1.62051
20
0.283684
11
1.60687
21
0.28209
0
LINE
8
BLACK
6
CONTINUOUS
10
1.60687
20
0.28209
11
1.59313
21
0.28209
0
LINE
8
BLACK
6
CONTINUOUS
10
1.59313
20
0.28209
11
1.57949
21
0.283684
0
LINE
8
BLACK
6
CONTINUOUS
10
1.57949
20
0.283684
11
1.56613
21
0.286852
0
LINE
8
BLACK
6
CONTINUOUS
10
1.56613
20
0.286852
11
1.55322
21
0.291549
0
LINE
8
BLACK
6
CONTINUOUS
10
1.55322
20
0.291549
11
1.54094
21
0.297714
0
LINE
8
BLACK
6
CONTINUOUS
10
1.54094
20
0.297714
11
1.52947
21
0.305261
0
LINE
8
BLACK
6
CONTINUOUS
10
1.52947
20
0.305261
11
1.51895
21
0.31409
0
LINE
8
BLACK
6
CONTINUOUS
10
1.51895
20
0.31409
11
1.50952
21
0.32408
0
LINE
8
BLACK
6
CONTINUOUS
10
1.50952
20
0.32408
11
1.50132
21
0.335097
0
LINE
8
BLACK
6
CONTINUOUS
10
1.50132
20
0.335097
11
1.49445
21
0.346992
0
LINE
8
BLACK
6
CONTINUOUS
10
1.49445
20
0.346992
11
1.48901
21
0.359604
0
LINE
8
BLACK
6
CONTINUOUS
10
1.48901
20
0.359604
11
1.48507
21
0.372762
0
LINE
8
BLACK
6
CONTINUOUS
10
1.48507
20
0.372762
11
1.48269
21
0.386288
0
LINE
8
BLACK
6
CONTINUOUS
10
1.48269
20
0.386288
11
1.48189
21
0.4
0
LINE
8
BLACK
6
CONTINUOUS
10
1.48189
20
0.4
11
1.48269
21
0.413712
0
LINE
8
BLACK
6
CONTINUOUS
10
1.48269
20
0.413712
11
1.48507
21
0.427238
0
LINE
8
BLACK
6
CONTINUOUS
10
1.48507
20
0.427238
11
1.48901
21
0.440396
0
LINE
8
BLACK
6
CONTINUOUS
10
1.48901
20
0.440396
11
1.49445
21
0.453008
0
LINE
8
BLACK
6
CONTINUOUS
10
1.49445
20
0.453008
11
1.50132
21
0.464903
0
LINE
8
BLACK
6
CONTINUOUS
10
1.50132
20
0.464903
11
1.50952
21
0.47592
0
LINE
8
BLACK
6
CONTINUOUS
10
1.50952
20
0.47592
11
1.51895
21
0.48591
0
LINE
8
BLACK
6
CONTINUOUS
10
1.51895
20
0.48591
11
1.52947
21
0.494739
0
LINE
8
BLACK
6
CONTINUOUS
10
1.52947
20
0.494739
11
1.54094
21
0.502286
0
LINE
8
BLACK
6
CONTINUOUS
10
1.54094
20
0.502286
11
1.55322
21
0.508451
0
LINE
8
BLACK
6
CONTINUOUS
10
1.55322
20
0.508451
11
1.56613
21
0.513148
0
LINE
8
BLACK
6
CONTINUOUS
10
1.56613
20
0.513148
11
1.57949
21
0.516316
0
LINE
8
BLACK
6
CONTINUOUS
10
1.57949
20
0.516316
11
1.59313
21
0.51791
0
LINE
8
BLACK
6
CONTINUOUS
10
1.59313
20
0.51791
11
1.60687
21
0.51791
0
LINE
8
BLACK
6
CONTINUOUS
10
1.60687
20
0.51791
11
1.62051
21
0.516316
0
LINE
8
BLACK
6
CONTINUOUS
10
0.834127
20
0.525749
11
0.83943
21
0.523864
0
LINE
8
BLACK
6
CONTINUOUS
10
0.83943
20
0.523864
11
0.844029
21
0.520618
0
LINE
8
BLACK
6
CONTINUOUS
10
0.844029
20
0.520618
11
0.847581
21
0.516251
0
LINE
8
BLACK
6
CONTINUOUS
10
0.847581
20
0.516251
11
0.849824
21
0.511088
0
LINE
8
BLACK
6
CONTINUOUS
10
0.849824
20
0.511088
11
0.850591
21
0.505512
0
LINE
8
BLACK
6
CONTINUOUS
10
0.850591
20
0.505512
11
0.850591
21
0.464173
0
LINE
8
BLACK
6
CONTINUOUS
10
0.850591
20
0.464173
11
0.850398
21
0.461359
0
LINE
8
BLACK
6
CONTINUOUS
10
0.850398
20
0.461359
11
0.848879
21
0.455939
0
LINE
8
BLACK
6
CONTINUOUS
10
0.848879
20
0.455939
11
0.845955
21
0.451129
0
LINE
8
BLACK
6
CONTINUOUS
10
0.845955
20
0.451129
11
0.841841
21
0.447287
0
LINE
8
BLACK
6
CONTINUOUS
10
0.841841
20
0.447287
11
0.836843
21
0.444697
0
LINE
8
BLACK
6
CONTINUOUS
10
0.836843
20
0.444697
11
0.831332
21
0.443552
0
LINE
8
BLACK
6
CONTINUOUS
10
0.831332
20
0.443552
11
0.825716
21
0.443936
0
LINE
8
BLACK
6
CONTINUOUS
10
0.825716
20
0.443936
11
0.820412
21
0.445821
0
LINE
8
BLACK
6
CONTINUOUS
10
0.820412
20
0.445821
11
0.815813
21
0.449067
0
LINE
8
BLACK
6
CONTINUOUS
10
0.815813
20
0.449067
11
0.812261
21
0.453434
0
LINE
8
BLACK
6
CONTINUOUS
10
0.812261
20
0.453434
11
0.810018
21
0.458597
0
LINE
8
BLACK
6
CONTINUOUS
10
0.810018
20
0.458597
11
0.809252
21
0.464173
0
LINE
8
BLACK
6
CONTINUOUS
10
0.809252
20
0.464173
11
0.809252
21
0.505512
0
LINE
8
BLACK
6
CONTINUOUS
10
0.809252
20
0.505512
11
0.809444
21
0.508326
0
LINE
8
BLACK
6
CONTINUOUS
10
0.809444
20
0.508326
11
0.810963
21
0.513746
0
LINE
8
BLACK
6
CONTINUOUS
10
0.810963
20
0.513746
11
0.813888
21
0.518556
0
LINE
8
BLACK
6
CONTINUOUS
10
0.813888
20
0.518556
11
0.818002
21
0.522398
0
LINE
8
BLACK
6
CONTINUOUS
10
0.818002
20
0.522398
11
0.823
21
0.524988
0
LINE
8
BLACK
6
CONTINUOUS
10
0.823
20
0.524988
11
0.828511
21
0.526133
0
LINE
8
BLACK
6
CONTINUOUS
10
0.828511
20
0.526133
11
0.834127
21
0.525749
0
LINE
8
BLACK
6
CONTINUOUS
10
1.17428
20
0.525749
11
1.17959
21
0.523864
0
LINE
8
BLACK
6
CONTINUOUS
10
1.17959
20
0.523864
11
1.18419
21
0.520618
0
LINE
8
BLACK
6
CONTINUOUS
10
1.18419
20
0.520618
11
1.18774
21
0.516251
0
LINE
8
BLACK
6
CONTINUOUS
10
1.18774
20
0.516251
11
1.18998
21
0.511088
0
LINE
8
BLACK
6
CONTINUOUS
10
1.18998
20
0.511088
11
1.19075
21
0.505512
0
LINE
8
BLACK
6
CONTINUOUS
10
1.19075
20
0.505512
11
1.19075
21
0.464173
0
LINE
8
BLACK
6
CONTINUOUS
10
1.19075
20
0.464173
11
1.19056
21
0.461359
0
LINE
8
BLACK
6
CONTINUOUS
10
1.19056
20
0.461359
11
1.18904
21
0.455939
0
LINE
8
BLACK
6
CONTINUOUS
10
1.18904
20
0.455939
11
1.18611
21
0.451129
0
LINE
8
BLACK
6
CONTINUOUS
10
1.18611
20
0.451129
11
1.182
21
0.447287
0
LINE
8
BLACK
6
CONTINUOUS
10
1.182
20
0.447287
11
1.177
21
0.444697
0
LINE
8
BLACK
6
CONTINUOUS
10
1.177
20
0.444697
11
1.17149
21
0.443552
0
LINE
8
BLACK
6
CONTINUOUS
10
1.17149
20
0.443552
11
1.16587
21
0.443936
0
LINE
8
BLACK
6
CONTINUOUS
10
1.16587
20
0.443936
11
1.16057
21
0.445821
0
LINE
8
BLACK
6
CONTINUOUS
10
1.16057
20
0.445821
11
1.15597
21
0.449067
0
LINE
8
BLACK
6
CONTINUOUS
10
1.15597
20
0.449067
11
1.15242
21
0.453434
0
LINE
8
BLACK
6
CONTINUOUS
10
1.15242
20
0.453434
11
1.15018
21
0.458597
0
LINE
8
BLACK
6
CONTINUOUS
10
1.15018
20
0.458597
11
1.14941
21
0.464173
0
LINE
8
BLACK
6
CONTINUOUS
10
1.14941
20
0.464173
11
1.14941
21
0.505512
0
LINE
8
BLACK
6
CONTINUOUS
10
1.14941
20
0.505512
11
1.1496
21
0.508326
0
LINE
8
BLACK
6
CONTINUOUS
10
1.1496
20
0.508326
11
1.15112
21
0.513746
0
LINE
8
BLACK
6
CONTINUOUS
10
1.15112
20
0.513746
11
1.15405
21
0.518556
0
LINE
8
BLACK
6
CONTINUOUS
10
1.15405
20
0.518556
11
1.15816
21
0.522398
0
LINE
8
BLACK
6
CONTINUOUS
10
1.15816
20
0.522398
11
1.16316
21
0.524988
0
LINE
8
BLACK
6
CONTINUOUS
10
1.16316
20
0.524988
11
1.16867
21
0.526133
0
LINE
8
BLACK
6
CONTINUOUS
10
1.16867
20
0.526133
11
1.17428
21
0.525749
0
LINE
8
BLACK
6
CONTINUOUS
10
0.892618
20
0.476239
11
0.896022
21
0.473382
0
LINE
8
BLACK
6
CONTINUOUS
10
0.896022
20
0.473382
11
0.898244
21
0.469534
0
LINE
8
BLACK
6
CONTINUOUS
10
0.898244
20
0.469534
11
0.899016
21
0.465157
0
LINE
8
BLACK
6
CONTINUOUS
10
0.899016
20
0.465157
11
0.898244
21
0.460781
0
LINE
8
BLACK
6
CONTINUOUS
10
0.898244
20
0.460781
11
0.896022
21
0.456933
0
LINE
8
BLACK
6
CONTINUOUS
10
0.896022
20
0.456933
11
0.892618
21
0.454076
0
LINE
8
BLACK
6
CONTINUOUS
10
0.892618
20
0.454076
11
0.888442
21
0.452557
0
LINE
8
BLACK
6
CONTINUOUS
10
0.888442
20
0.452557
11
0.883999
21
0.452557
0
LINE
8
BLACK
6
CONTINUOUS
10
0.883999
20
0.452557
11
0.879823
21
0.454076
0
LINE
8
BLACK
6
CONTINUOUS
10
0.879823
20
0.454076
11
0.876419
21
0.456933
0
LINE
8
BLACK
6
CONTINUOUS
10
0.876419
20
0.456933
11
0.874197
21
0.460781
0
LINE
8
BLACK
6
CONTINUOUS
10
0.874197
20
0.460781
11
0.873425
21
0.465157
0
LINE
8
BLACK
6
CONTINUOUS
10
0.873425
20
0.465157
11
0.874197
21
0.469534
0
LINE
8
BLACK
6
CONTINUOUS
10
0.874197
20
0.469534
11
0.876419
21
0.473382
0
LINE
8
BLACK
6
CONTINUOUS
10
0.876419
20
0.473382
11
0.879823
21
0.476239
0
LINE
8
BLACK
6
CONTINUOUS
10
0.879823
20
0.476239
11
0.883999
21
0.477758
0
LINE
8
BLACK
6
CONTINUOUS
10
0.883999
20
0.477758
11
0.888442
21
0.477758
0
LINE
8
BLACK
6
CONTINUOUS
10
0.888442
20
0.477758
11
0.892618
21
0.476239
0
LINE
8
BLACK
6
CONTINUOUS
10
1.12018
20
0.476239
11
1.12358
21
0.473382
0
LINE
8
BLACK
6
CONTINUOUS
10
1.12358
20
0.473382
11
1.1258
21
0.469534
0
LINE
8
BLACK
6
CONTINUOUS
10
1.1258
20
0.469534
11
1.12657
21
0.465157
0
LINE
8
BLACK
6
CONTINUOUS
10
1.12657
20
0.465157
11
1.1258
21
0.460781
0
LINE
8
BLACK
6
CONTINUOUS
10
1.1258
20
0.460781
11
1.12358
21
0.456933
0
LINE
8
BLACK
6
CONTINUOUS
10
1.12358
20
0.456933
11
1.12018
21
0.454076
0
LINE
8
BLACK
6
CONTINUOUS
10
1.12018
20
0.454076
11
1.116
21
0.452557
0
LINE
8
BLACK
6
CONTINUOUS
10
1.116
20
0.452557
11
1.11156
21
0.452557
0
LINE
8
BLACK
6
CONTINUOUS
10
1.11156
20
0.452557
11
1.10738
21
0.454076
0
LINE
8
BLACK
6
CONTINUOUS
10
1.10738
20
0.454076
11
1.10398
21
0.456933
0
LINE
8
BLACK
6
CONTINUOUS
10
1.10398
20
0.456933
11
1.10176
21
0.460781
0
LINE
8
BLACK
6
CONTINUOUS
10
1.10176
20
0.460781
11
1.10098
21
0.465157
0
LINE
8
BLACK
6
CONTINUOUS
10
1.10098
20
0.465157
11
1.10176
21
0.469534
0
LINE
8
BLACK
6
CONTINUOUS
10
1.10176
20
0.469534
11
1.10398
21
0.473382
0
LINE
8
BLACK
6
CONTINUOUS
10
1.10398
20
0.473382
11
1.10738
21
0.476239
0
LINE
8
BLACK
6
CONTINUOUS
10
1.10738
20
0.476239
11
1.11156
21
0.477758
0
LINE
8
BLACK
6
CONTINUOUS
10
1.11156
20
0.477758
11
1.116
21
0.477758
0
LINE
8
BLACK
6
CONTINUOUS
10
1.116
20
0.477758
11
1.12018
21
0.476239
0
LINE
8
BLACK
6
CONTINUOUS
10
1.58514
20
0.680646
11
1.59154
21
0.6778
0
LINE
8
BLACK
6
CONTINUOUS
10
1.59154
20
0.6778
11
1.5972
21
0.673688
0
LINE
8
BLACK
6
CONTINUOUS
10
1.5972
20
0.673688
11
1.60188
21
0.668489
0
LINE
8
BLACK
6
CONTINUOUS
10
1.60188
20
0.668489
11
1.60537
21
0.66243
0
LINE
8
BLACK
6
CONTINUOUS
10
1.60537
20
0.66243
11
1.60754
21
0.655777
0
LINE
8
BLACK
6
CONTINUOUS
10
1.60754
20
0.655777
11
1.60827
21
0.648819
0
LINE
8
BLACK
6
CONTINUOUS
10
1.60827
20
0.648819
11
1.60754
21
0.641861
0
LINE
8
BLACK
6
CONTINUOUS
10
1.60754
20
0.641861
11
1.60537
21
0.635208
0
LINE
8
BLACK
6
CONTINUOUS
10
1.60537
20
0.635208
11
1.60188
21
0.629149
0
LINE
8
BLACK
6
CONTINUOUS
10
1.60188
20
0.629149
11
1.5972
21
0.62395
0
LINE
8
BLACK
6
CONTINUOUS
10
1.5972
20
0.62395
11
1.59154
21
0.619838
0
LINE
8
BLACK
6
CONTINUOUS
10
1.59154
20
0.619838
11
1.58514
21
0.616992
0
LINE
8
BLACK
6
CONTINUOUS
10
1.58514
20
0.616992
11
1.5783
21
0.615538
0
LINE
8
BLACK
6
CONTINUOUS
10
1.5783
20
0.615538
11
1.57131
21
0.615538
0
LINE
8
BLACK
6
CONTINUOUS
10
1.57131
20
0.615538
11
1.56446
21
0.616992
0
LINE
8
BLACK
6
CONTINUOUS
10
1.56446
20
0.616992
11
1.55807
21
0.619838
0
LINE
8
BLACK
6
CONTINUOUS
10
1.55807
20
0.619838
11
1.55241
21
0.62395
0
LINE
8
BLACK
6
CONTINUOUS
10
1.55241
20
0.62395
11
1.54773
21
0.629149
0
LINE
8
BLACK
6
CONTINUOUS
10
1.54773
20
0.629149
11
1.54423
21
0.635208
0
LINE
8
BLACK
6
CONTINUOUS
10
1.54423
20
0.635208
11
1.54207
21
0.641861
0
LINE
8
BLACK
6
CONTINUOUS
10
1.54207
20
0.641861
11
1.54134
21
0.648819
0
LINE
8
BLACK
6
CONTINUOUS
10
1.54134
20
0.648819
11
1.54207
21
0.655777
0
LINE
8
BLACK
6
CONTINUOUS
10
1.54207
20
0.655777
11
1.54423
21
0.66243
0
LINE
8
BLACK
6
CONTINUOUS
10
1.54423
20
0.66243
11
1.54773
21
0.668489
0
LINE
8
BLACK
6
CONTINUOUS
10
1.54773
20
0.668489
11
1.55241
21
0.673688
0
LINE
8
BLACK
6
CONTINUOUS
10
1.55241
20
0.673688
11
1.55807
21
0.6778
0
LINE
8
BLACK
6
CONTINUOUS
10
1.55807
20
0.6778
11
1.56446
21
0.680646
0
LINE
8
BLACK
6
CONTINUOUS
10
1.56446
20
0.680646
11
1.57131
21
0.6821
0
LINE
8
BLACK
6
CONTINUOUS
10
1.57131
20
0.6821
11
1.5783
21
0.6821
0
LINE
8
BLACK
6
CONTINUOUS
10
1.5783
20
0.6821
11
1.58514
21
0.680646
0
LINE
8
BLACK
6
CONTINUOUS
10
1.68514
20
0.680646
11
1.69154
21
0.6778
0
LINE
8
BLACK
6
CONTINUOUS
10
1.69154
20
0.6778
11
1.6972
21
0.673688
0
LINE
8
BLACK
6
CONTINUOUS
10
1.6972
20
0.673688
11
1.70188
21
0.668489
0
LINE
8
BLACK
6
CONTINUOUS
10
1.70188
20
0.668489
11
1.70537
21
0.66243
0
LINE
8
BLACK
6
CONTINUOUS
10
1.70537
20
0.66243
11
1.70754
21
0.655777
0
LINE
8
BLACK
6
CONTINUOUS
10
1.70754
20
0.655777
11
1.70827
21
0.648819
0
LINE
8
BLACK
6
CONTINUOUS
10
1.70827
20
0.648819
11
1.70754
21
0.641861
0
LINE
8
BLACK
6
CONTINUOUS
10
1.70754
20
0.641861
11
1.70537
21
0.635208
0
LINE
8
BLACK
6
CONTINUOUS
10
1.70537
20
0.635208
11
1.70188
21
0.629149
0
LINE
8
BLACK
6
CONTINUOUS
10
1.70188
20
0.629149
11
1.6972
21
0.62395
0
LINE
8
BLACK
6
CONTINUOUS
10
1.6972
20
0.62395
11
1.69154
21
0.619838
0
LINE
8
BLACK
6
CONTINUOUS
10
1.69154
20
0.619838
11
1.68514
21
0.616992
0
LINE
8
BLACK
6
CONTINUOUS
10
1.68514
20
0.616992
11
1.6783
21
0.615538
0
LINE
8
BLACK
6
CONTINUOUS
10
1.6783
20
0.615538
11
1.67131
21
0.615538
0
LINE
8
BLACK
6
CONTINUOUS
10
1.67131
20
0.615538
11
1.66446
21
0.616992
0
LINE
8
BLACK
6
CONTINUOUS
10
1.66446
20
0.616992
11
1.65807
21
0.619838
0
LINE
8
BLACK
6
CONTINUOUS
10
1.65807
20
0.619838
11
1.65241
21
0.62395
0
LINE
8
BLACK
6
CONTINUOUS
10
1.65241
20
0.62395
11
1.64773
21
0.629149
0
LINE
8
BLACK
6
CONTINUOUS
10
1.64773
20
0.629149
11
1.64423
21
0.635208
0
LINE
8
BLACK
6
CONTINUOUS
10
1.64423
20
0.635208
11
1.64207
21
0.641861
0
LINE
8
BLACK
6
CONTINUOUS
10
1.64207
20
0.641861
11
1.64134
21
0.648819
0
LINE
8
BLACK
6
CONTINUOUS
10
1.64134
20
0.648819
11
1.64207
21
0.655777
0
LINE
8
BLACK
6
CONTINUOUS
10
1.64207
20
0.655777
11
1.64423
21
0.66243
0
LINE
8
BLACK
6
CONTINUOUS
10
1.64423
20
0.66243
11
1.64773
21
0.668489
0
LINE
8
BLACK
6
CONTINUOUS
10
1.64773
20
0.668489
11
1.65241
21
0.673688
0
LINE
8
BLACK
6
CONTINUOUS
10
1.65241
20
0.673688
11
1.65807
21
0.6778
0
LINE
8
BLACK
6
CONTINUOUS
10
1.65807
20
0.6778
11
1.66446
21
0.680646
0
LINE
8
BLACK
6
CONTINUOUS
10
1.66446
20
0.680646
11
1.67131
21
0.6821
0
LINE
8
BLACK
6
CONTINUOUS
10
1.67131
20
0.6821
11
1.6783
21
0.6821
0
LINE
8
BLACK
6
CONTINUOUS
10
1.6783
20
0.6821
11
1.68514
21
0.680646
0
LINE
8
BLACK
6
CONTINUOUS
10
0.978346
20
0.618898
11
0.911417
21
0.618898
0
LINE
8
BLACK
6
CONTINUOUS
10
0.911417
20
0.618898
11
0.911417
21
0.685827
0
LINE
8
BLACK
6
CONTINUOUS
10
0.911417
20
0.685827
11
0.978346
21
0.685827
0
LINE
8
BLACK
6
CONTINUOUS
10
0.978346
20
0.685827
11
0.978346
21
0.618898
0
LINE
8
BLACK
6
CONTINUOUS
10
1.05522
20
0.684189
11
1.06161
21
0.681343
0
LINE
8
BLACK
6
CONTINUOUS
10
1.06161
20
0.681343
11
1.06727
21
0.677231
0
LINE
8
BLACK
6
CONTINUOUS
10
1.06727
20
0.677231
11
1.07196
21
0.672032
0
LINE
8
BLACK
6
CONTINUOUS
10
1.07196
20
0.672032
11
1.07545
21
0.665973
0
LINE
8
BLACK
6
CONTINUOUS
10
1.07545
20
0.665973
11
1.07762
21
0.65932
0
LINE
8
BLACK
6
CONTINUOUS
10
1.07762
20
0.65932
11
1.07835
21
0.652362
0
LINE
8
BLACK
6
CONTINUOUS
10
1.07835
20
0.652362
11
1.07762
21
0.645405
0
LINE
8
BLACK
6
CONTINUOUS
10
1.07762
20
0.645405
11
1.07545
21
0.638751
0
LINE
8
BLACK
6
CONTINUOUS
10
1.07545
20
0.638751
11
1.07196
21
0.632692
0
LINE
8
BLACK
6
CONTINUOUS
10
1.07196
20
0.632692
11
1.06727
21
0.627493
0
LINE
8
BLACK
6
CONTINUOUS
10
1.06727
20
0.627493
11
1.06161
21
0.623381
0
LINE
8
BLACK
6
CONTINUOUS
10
1.06161
20
0.623381
11
1.05522
21
0.620536
0
LINE
8
BLACK
6
CONTINUOUS
10
1.05522
20
0.620536
11
1.04838
21
0.619081
0
LINE
8
BLACK
6
CONTINUOUS
10
1.04838
20
0.619081
11
1.04138
21
0.619081
0
LINE
8
BLACK
6
CONTINUOUS
10
1.04138
20
0.619081
11
1.03454
21
0.620536
0
LINE
8
BLACK
6
CONTINUOUS
10
1.03454
20
0.620536
11
1.02815
21
0.623381
0
LINE
8
BLACK
6
CONTINUOUS
10
1.02815
20
0.623381
11
1.02249
21
0.627493
0
LINE
8
BLACK
6
CONTINUOUS
10
1.02249
20
0.627493
11
1.01781
21
0.632692
0
LINE
8
BLACK
6
CONTINUOUS
10
1.01781
20
0.632692
11
1.01431
21
0.638751
0
LINE
8
BLACK
6
CONTINUOUS
10
1.01431
20
0.638751
11
1.01215
21
0.645405
0
LINE
8
BLACK
6
CONTINUOUS
10
1.01215
20
0.645405
11
1.01142
21
0.652362
0
LINE
8
BLACK
6
CONTINUOUS
10
1.01142
20
0.652362
11
1.01215
21
0.65932
0
LINE
8
BLACK
6
CONTINUOUS
10
1.01215
20
0.65932
11
1.01431
21
0.665973
0
LINE
8
BLACK
6
CONTINUOUS
10
1.01431
20
0.665973
11
1.01781
21
0.672032
0
LINE
8
BLACK
6
CONTINUOUS
10
1.01781
20
0.672032
11
1.02249
21
0.677231
0
LINE
8
BLACK
6
CONTINUOUS
10
1.02249
20
0.677231
11
1.02815
21
0.681343
0
LINE
8
BLACK
6
CONTINUOUS
10
1.02815
20
0.681343
11
1.03454
21
0.684189
0
LINE
8
BLACK
6
CONTINUOUS
10
1.03454
20
0.684189
11
1.04138
21
0.685643
0
LINE
8
BLACK
6
CONTINUOUS
10
1.04138
20
0.685643
11
1.04838
21
0.685643
0
LINE
8
BLACK
6
CONTINUOUS
10
1.04838
20
0.685643
11
1.05522
21
0.684189
0
LINE
8
BLACK
6
CONTINUOUS
10
0.571562
20
0.712339
11
0.577953
21
0.709493
0
LINE
8
BLACK
6
CONTINUOUS
10
0.577953
20
0.709493
11
0.583613
21
0.705381
0
LINE
8
BLACK
6
CONTINUOUS
10
0.583613
20
0.705381
11
0.588294
21
0.700182
0
LINE
8
BLACK
6
CONTINUOUS
10
0.588294
20
0.700182
11
0.591792
21
0.694123
0
LINE
8
BLACK
6
CONTINUOUS
10
0.591792
20
0.694123
11
0.593954
21
0.687469
0
LINE
8
BLACK
6
CONTINUOUS
10
0.593954
20
0.687469
11
0.594685
21
0.680512
0
LINE
8
BLACK
6
CONTINUOUS
10
0.594685
20
0.680512
11
0.593954
21
0.673554
0
LINE
8
BLACK
6
CONTINUOUS
10
0.593954
20
0.673554
11
0.591792
21
0.666901
0
LINE
8
BLACK
6
CONTINUOUS
10
0.591792
20
0.666901
11
0.588294
21
0.660842
0
LINE
8
BLACK
6
CONTINUOUS
10
0.588294
20
0.660842
11
0.583613
21
0.655643
0
LINE
8
BLACK
6
CONTINUOUS
10
0.583613
20
0.655643
11
0.577953
21
0.651531
0
LINE
8
BLACK
6
CONTINUOUS
10
0.577953
20
0.651531
11
0.571562
21
0.648685
0
LINE
8
BLACK
6
CONTINUOUS
10
0.571562
20
0.648685
11
0.564718
21
0.647231
0
LINE
8
BLACK
6
CONTINUOUS
10
0.564718
20
0.647231
11
0.557722
21
0.647231
0
LINE
8
BLACK
6
CONTINUOUS
10
0.557722
20
0.647231
11
0.550879
21
0.648685
0
LINE
8
BLACK
6
CONTINUOUS
10
0.550879
20
0.648685
11
0.544488
21
0.651531
0
LINE
8
BLACK
6
CONTINUOUS
10
0.544488
20
0.651531
11
0.538828
21
0.655643
0
LINE
8
BLACK
6
CONTINUOUS
10
0.538828
20
0.655643
11
0.534147
21
0.660842
0
LINE
8
BLACK
6
CONTINUOUS
10
0.534147
20
0.660842
11
0.530649
21
0.666901
0
LINE
8
BLACK
6
CONTINUOUS
10
0.530649
20
0.666901
11
0.528487
21
0.673554
0
LINE
8
BLACK
6
CONTINUOUS
10
0.528487
20
0.673554
11
0.527756
21
0.680512
0
LINE
8
BLACK
6
CONTINUOUS
10
0.527756
20
0.680512
11
0.528487
21
0.687469
0
LINE
8
BLACK
6
CONTINUOUS
10
0.528487
20
0.687469
11
0.530649
21
0.694123
0
LINE
8
BLACK
6
CONTINUOUS
10
0.530649
20
0.694123
11
0.534147
21
0.700182
0
LINE
8
BLACK
6
CONTINUOUS
10
0.534147
20
0.700182
11
0.538828
21
0.705381
0
LINE
8
BLACK
6
CONTINUOUS
10
0.538828
20
0.705381
11
0.544488
21
0.709493
0
LINE
8
BLACK
6
CONTINUOUS
10
0.544488
20
0.709493
11
0.550879
21
0.712339
0
LINE
8
BLACK
6
CONTINUOUS
10
0.550879
20
0.712339
11
0.557722
21
0.713793
0
LINE
8
BLACK
6
CONTINUOUS
10
0.557722
20
0.713793
11
0.564718
21
0.713793
0
LINE
8
BLACK
6
CONTINUOUS
10
0.564718
20
0.713793
11
0.571562
21
0.712339
0
LINE
8
BLACK
6
CONTINUOUS
10
0.671562
20
0.712339
11
0.677953
21
0.709493
0
LINE
8
BLACK
6
CONTINUOUS
10
0.677953
20
0.709493
11
0.683613
21
0.705381
0
LINE
8
BLACK
6
CONTINUOUS
10
0.683613
20
0.705381
11
0.688294
21
0.700182
0
LINE
8
BLACK
6
CONTINUOUS
10
0.688294
20
0.700182
11
0.691792
21
0.694123
0
LINE
8
BLACK
6
CONTINUOUS
10
0.691792
20
0.694123
11
0.693954
21
0.687469
0
LINE
8
BLACK
6
CONTINUOUS
10
0.693954
20
0.687469
11
0.694685
21
0.680512
0
LINE
8
BLACK
6
CONTINUOUS
10
0.694685
20
0.680512
11
0.693954
21
0.673554
0
LINE
8
BLACK
6
CONTINUOUS
10
0.693954
20
0.673554
11
0.691792
21
0.666901
0
LINE
8
BLACK
6
CONTINUOUS
10
0.691792
20
0.666901
11
0.688294
21
0.660842
0
LINE
8
BLACK
6
CONTINUOUS
10
0.688294
20
0.660842
11
0.683613
21
0.655643
0
LINE
8
BLACK
6
CONTINUOUS
10
0.683613
20
0.655643
11
0.677953
21
0.651531
0
LINE
8
BLACK
6
CONTINUOUS
10
0.677953
20
0.651531
11
0.671562
21
0.648685
0
LINE
8
BLACK
6
CONTINUOUS
10
0.671562
20
0.648685
11
0.664718
21
0.647231
0
LINE
8
BLACK
6
CONTINUOUS
10
0.664718
20
0.647231
11
0.657722
21
0.647231
0
LINE
8
BLACK
6
CONTINUOUS
10
0.657722
20
0.647231
11
0.650879
21
0.648685
0
LINE
8
BLACK
6
CONTINUOUS
10
0.650879
20
0.648685
11
0.644488
21
0.651531
0
LINE
8
BLACK
6
CONTINUOUS
10
0.644488
20
0.651531
11
0.638828
21
0.655643
0
LINE
8
BLACK
6
CONTINUOUS
10
0.638828
20
0.655643
11
0.634147
21
0.660842
0
LINE
8
BLACK
6
CONTINUOUS
10
0.634147
20
0.660842
11
0.630649
21
0.666901
0
LINE
8
BLACK
6
CONTINUOUS
10
0.630649
20
0.666901
11
0.628487
21
0.673554
0
LINE
8
BLACK
6
CONTINUOUS
10
0.628487
20
0.673554
11
0.627756
21
0.680512
0
LINE
8
BLACK
6
CONTINUOUS
10
0.627756
20
0.680512
11
0.628487
21
0.687469
0
LINE
8
BLACK
6
CONTINUOUS
10
0.628487
20
0.687469
11
0.630649
21
0.694123
0
LINE
8
BLACK
6
CONTINUOUS
10
0.630649
20
0.694123
11
0.634147
21
0.700182
0
LINE
8
BLACK
6
CONTINUOUS
10
0.634147
20
0.700182
11
0.638828
21
0.705381
0
LINE
8
BLACK
6
CONTINUOUS
10
0.638828
20
0.705381
11
0.644488
21
0.709493
0
LINE
8
BLACK
6
CONTINUOUS
10
0.644488
20
0.709493
11
0.650879
21
0.712339
0
LINE
8
BLACK
6
CONTINUOUS
10
0.650879
20
0.712339
11
0.657722
21
0.713793
0
LINE
8
BLACK
6
CONTINUOUS
10
0.657722
20
0.713793
11
0.664718
21
0.713793
0
LINE
8
BLACK
6
CONTINUOUS
10
0.664718
20
0.713793
11
0.671562
21
0.712339
0
LINE
8
BLACK
6
CONTINUOUS
10
1.58514
20
0.780646
11
1.59154
21
0.7778
0
LINE
8
BLACK
6
CONTINUOUS
10
1.59154
20
0.7778
11
1.5972
21
0.773688
0
LINE
8
BLACK
6
CONTINUOUS
10
1.5972
20
0.773688
11
1.60188
21
0.768489
0
LINE
8
BLACK
6
CONTINUOUS
10
1.60188
20
0.768489
11
1.60537
21
0.76243
0
LINE
8
BLACK
6
CONTINUOUS
10
1.60537
20
0.76243
11
1.60754
21
0.755777
0
LINE
8
BLACK
6
CONTINUOUS
10
1.60754
20
0.755777
11
1.60827
21
0.748819
0
LINE
8
BLACK
6
CONTINUOUS
10
1.60827
20
0.748819
11
1.60754
21
0.741861
0
LINE
8
BLACK
6
CONTINUOUS
10
1.60754
20
0.741861
11
1.60537
21
0.735208
0
LINE
8
BLACK
6
CONTINUOUS
10
1.60537
20
0.735208
11
1.60188
21
0.729149
0
LINE
8
BLACK
6
CONTINUOUS
10
1.60188
20
0.729149
11
1.5972
21
0.72395
0
LINE
8
BLACK
6
CONTINUOUS
10
1.5972
20
0.72395
11
1.59154
21
0.719838
0
LINE
8
BLACK
6
CONTINUOUS
10
1.59154
20
0.719838
11
1.58514
21
0.716992
0
LINE
8
BLACK
6
CONTINUOUS
10
1.58514
20
0.716992
11
1.5783
21
0.715538
0
LINE
8
BLACK
6
CONTINUOUS
10
1.5783
20
0.715538
11
1.57131
21
0.715538
0
LINE
8
BLACK
6
CONTINUOUS
10
1.57131
20
0.715538
11
1.56446
21
0.716992
0
LINE
8
BLACK
6
CONTINUOUS
10
1.56446
20
0.716992
11
1.55807
21
0.719838
0
LINE
8
BLACK
6
CONTINUOUS
10
1.55807
20
0.719838
11
1.55241
21
0.72395
0
LINE
8
BLACK
6
CONTINUOUS
10
1.55241
20
0.72395
11
1.54773
21
0.729149
0
LINE
8
BLACK
6
CONTINUOUS
10
1.54773
20
0.729149
11
1.54423
21
0.735208
0
LINE
8
BLACK
6
CONTINUOUS
10
1.54423
20
0.735208
11
1.54207
21
0.741861
0
LINE
8
BLACK
6
CONTINUOUS
10
1.54207
20
0.741861
11
1.54134
21
0.748819
0
LINE
8
BLACK
6
CONTINUOUS
10
1.54134
20
0.748819
11
1.54207
21
0.755777
0
LINE
8
BLACK
6
CONTINUOUS
10
1.54207
20
0.755777
11
1.54423
21
0.76243
0
LINE
8
BLACK
6
CONTINUOUS
10
1.54423
20
0.76243
11
1.54773
21
0.768489
0
LINE
8
BLACK
6
CONTINUOUS
10
1.54773
20
0.768489
11
1.55241
21
0.773688
0
LINE
8
BLACK
6
CONTINUOUS
10
1.55241
20
0.773688
11
1.55807
21
0.7778
0
LINE
8
BLACK
6
CONTINUOUS
10
1.55807
20
0.7778
11
1.56446
21
0.780646
0
LINE
8
BLACK
6
CONTINUOUS
10
1.56446
20
0.780646
11
1.57131
21
0.7821
0
LINE
8
BLACK
6
CONTINUOUS
10
1.57131
20
0.7821
11
1.5783
21
0.7821
0
LINE
8
BLACK
6
CONTINUOUS
10
1.5783
20
0.7821
11
1.58514
21
0.780646
0
LINE
8
BLACK
6
CONTINUOUS
10
1.68514
20
0.780646
11
1.69154
21
0.7778
0
LINE
8
BLACK
6
CONTINUOUS
10
1.69154
20
0.7778
11
1.6972
21
0.773688
0
LINE
8
BLACK
6
CONTINUOUS
10
1.6972
20
0.773688
11
1.70188
21
0.768489
0
LINE
8
BLACK
6
CONTINUOUS
10
1.70188
20
0.768489
11
1.70537
21
0.76243
0
LINE
8
BLACK
6
CONTINUOUS
10
1.70537
20
0.76243
11
1.70754
21
0.755777
0
LINE
8
BLACK
6
CONTINUOUS
10
1.70754
20
0.755777
11
1.70827
21
0.748819
0
LINE
8
BLACK
6
CONTINUOUS
10
1.70827
20
0.748819
11
1.70754
21
0.741861
0
LINE
8
BLACK
6
CONTINUOUS
10
1.70754
20
0.741861
11
1.70537
21
0.735208
0
LINE
8
BLACK
6
CONTINUOUS
10
1.70537
20
0.735208
11
1.70188
21
0.729149
0
LINE
8
BLACK
6
CONTINUOUS
10
1.70188
20
0.729149
11
1.6972
21
0.72395
0
LINE
8
BLACK
6
CONTINUOUS
10
1.6972
20
0.72395
11
1.69154
21
0.719838
0
LINE
8
BLACK
6
CONTINUOUS
10
1.69154
20
0.719838
11
1.68514
21
0.716992
0
LINE
8
BLACK
6
CONTINUOUS
10
1.68514
20
0.716992
11
1.6783
21
0.715538
0
LINE
8
BLACK
6
CONTINUOUS
10
1.6783
20
0.715538
11
1.67131
21
0.715538
0
LINE
8
BLACK
6
CONTINUOUS
10
1.67131
20
0.715538
11
1.66446
21
0.716992
0
LINE
8
BLACK
6
CONTINUOUS
10
1.66446
20
0.716992
11
1.65807
21
0.719838
0
LINE
8
BLACK
6
CONTINUOUS
10
1.65807
20
0.719838
11
1.65241
21
0.72395
0
LINE
8
BLACK
6
CONTINUOUS
10
1.65241
20
0.72395
11
1.64773
21
0.729149
0
LINE
8
BLACK
6
CONTINUOUS
10
1.64773
20
0.729149
11
1.64423
21
0.735208
0
LINE
8
BLACK
6
CONTINUOUS
10
1.64423
20
0.735208
11
1.64207
21
0.741861
0
LINE
8
BLACK
6
CONTINUOUS
10
1.64207
20
0.741861
11
1.64134
21
0.748819
0
LINE
8
BLACK
6
CONTINUOUS
10
1.64134
20
0.748819
11
1.64207
21
0.755777
0
LINE
8
BLACK
6
CONTINUOUS
10
1.64207
20
0.755777
11
1.64423
21
0.76243
0
LINE
8
BLACK
6
CONTINUOUS
10
1.64423
20
0.76243
11
1.64773
21
0.768489
0
LINE
8
BLACK
6
CONTINUOUS
10
1.64773
20
0.768489
11
1.65241
21
0.773688
0
LINE
8
BLACK
6
CONTINUOUS
10
1.65241
20
0.773688
11
1.65807
21
0.7778
0
LINE
8
BLACK
6
CONTINUOUS
10
1.65807
20
0.7778
11
1.66446
21
0.780646
0
LINE
8
BLACK
6
CONTINUOUS
10
1.66446
20
0.780646
11
1.67131
21
0.7821
0
LINE
8
BLACK
6
CONTINUOUS
10
1.67131
20
0.7821
11
1.6783
21
0.7821
0
LINE
8
BLACK
6
CONTINUOUS
10
1.6783
20
0.7821
11
1.68514
21
0.780646
0
LINE
8
BLACK
6
CONTINUOUS
10
0.571562
20
0.812339
11
0.577953
21
0.809493
0
LINE
8
BLACK
6
CONTINUOUS
10
0.577953
20
0.809493
11
0.583613
21
0.805381
0
LINE
8
BLACK
6
CONTINUOUS
10
0.583613
20
0.805381
11
0.588294
21
0.800182
0
LINE
8
BLACK
6
CONTINUOUS
10
0.588294
20
0.800182
11
0.591792
21
0.794123
0
LINE
8
BLACK
6
CONTINUOUS
10
0.591792
20
0.794123
11
0.593954
21
0.787469
0
LINE
8
BLACK
6
CONTINUOUS
10
0.593954
20
0.787469
11
0.594685
21
0.780512
0
LINE
8
BLACK
6
CONTINUOUS
10
0.594685
20
0.780512
11
0.593954
21
0.773554
0
LINE
8
BLACK
6
CONTINUOUS
10
0.593954
20
0.773554
11
0.591792
21
0.766901
0
LINE
8
BLACK
6
CONTINUOUS
10
0.591792
20
0.766901
11
0.588294
21
0.760842
0
LINE
8
BLACK
6
CONTINUOUS
10
0.588294
20
0.760842
11
0.583613
21
0.755643
0
LINE
8
BLACK
6
CONTINUOUS
10
0.583613
20
0.755643
11
0.577953
21
0.751531
0
LINE
8
BLACK
6
CONTINUOUS
10
0.577953
20
0.751531
11
0.571562
21
0.748685
0
LINE
8
BLACK
6
CONTINUOUS
10
0.571562
20
0.748685
11
0.564718
21
0.747231
0
LINE
8
BLACK
6
CONTINUOUS
10
0.564718
20
0.747231
11
0.557722
21
0.747231
0
LINE
8
BLACK
6
CONTINUOUS
10
0.557722
20
0.747231
11
0.550879
21
0.748685
0
LINE
8
BLACK
6
CONTINUOUS
10
0.550879
20
0.748685
11
0.544488
21
0.751531
0
LINE
8
BLACK
6
CONTINUOUS
10
0.544488
20
0.751531
11
0.538828
21
0.755643
0
LINE
8
BLACK
6
CONTINUOUS
10
0.538828
20
0.755643
11
0.534147
21
0.760842
0
LINE
8
BLACK
6
CONTINUOUS
10
0.534147
20
0.760842
11
0.530649
21
0.766901
0
LINE
8
BLACK
6
CONTINUOUS
10
0.530649
20
0.766901
11
0.528487
21
0.773554
0
LINE
8
BLACK
6
CONTINUOUS
10
0.528487
20
0.773554
11
0.527756
21
0.780512
0
LINE
8
BLACK
6
CONTINUOUS
10
0.527756
20
0.780512
11
0.528487
21
0.787469
0
LINE
8
BLACK
6
CONTINUOUS
10
0.528487
20
0.787469
11
0.530649
21
0.794123
0
LINE
8
BLACK
6
CONTINUOUS
10
0.530649
20
0.794123
11
0.534147
21
0.800182
0
LINE
8
BLACK
6
CONTINUOUS
10
0.534147
20
0.800182
11
0.538828
21
0.805381
0
LINE
8
BLACK
6
CONTINUOUS
10
0.538828
20
0.805381
11
0.544488
21
0.809493
0
LINE
8
BLACK
6
CONTINUOUS
10
0.544488
20
0.809493
11
0.550879
21
0.812339
0
LINE
8
BLACK
6
CONTINUOUS
10
0.550879
20
0.812339
11
0.557722
21
0.813793
0
LINE
8
BLACK
6
CONTINUOUS
10
0.557722
20
0.813793
11
0.564718
21
0.813793
0
LINE
8
BLACK
6
CONTINUOUS
10
0.564718
20
0.813793
11
0.571562
21
0.812339
0
LINE
8
BLACK
6
CONTINUOUS
10
0.671562
20
0.812339
11
0.677953
21
0.809493
0
LINE
8
BLACK
6
CONTINUOUS
10
0.677953
20
0.809493
11
0.683613
21
0.805381
0
LINE
8
BLACK
6
CONTINUOUS
10
0.683613
20
0.805381
11
0.688294
21
0.800182
0
LINE
8
BLACK
6
CONTINUOUS
10
0.688294
20
0.800182
11
0.691792
21
0.794123
0
LINE
8
BLACK
6
CONTINUOUS
10
0.691792
20
0.794123
11
0.693954
21
0.787469
0
LINE
8
BLACK
6
CONTINUOUS
10
0.693954
20
0.787469
11
0.694685
21
0.780512
0
LINE
8
BLACK
6
CONTINUOUS
10
0.694685
20
0.780512
11
0.693954
21
0.773554
0
LINE
8
BLACK
6
CONTINUOUS
10
0.693954
20
0.773554
11
0.691792
21
0.766901
0
LINE
8
BLACK
6
CONTINUOUS
10
0.691792
20
0.766901
11
0.688294
21
0.760842
0
LINE
8
BLACK
6
CONTINUOUS
10
0.688294
20
0.760842
11
0.683613
21
0.755643
0
LINE
8
BLACK
6
CONTINUOUS
10
0.683613
20
0.755643
11
0.677953
21
0.751531
0
LINE
8
BLACK
6
CONTINUOUS
10
0.677953
20
0.751531
11
0.671562
21
0.748685
0
LINE
8
BLACK
6
CONTINUOUS
10
0.671562
20
0.748685
11
0.664718
21
0.747231
0
LINE
8
BLACK
6
CONTINUOUS
10
0.664718
20
0.747231
11
0.657722
21
0.747231
0
LINE
8
BLACK
6
CONTINUOUS
10
0.657722
20
0.747231
11
0.650879
21
0.748685
0
LINE
8
BLACK
6
CONTINUOUS
10
0.650879
20
0.748685
11
0.644488
21
0.751531
0
LINE
8
BLACK
6
CONTINUOUS
10
0.644488
20
0.751531
11
0.638828
21
0.755643
0
LINE
8
BLACK
6
CONTINUOUS
10
0.638828
20
0.755643
11
0.634147
21
0.760842
0
LINE
8
BLACK
6
CONTINUOUS
10
0.634147
20
0.760842
11
0.630649
21
0.766901
0
LINE
8
BLACK
6
CONTINUOUS
10
0.630649
20
0.766901
11
0.628487
21
0.773554
0
LINE
8
BLACK
6
CONTINUOUS
10
0.628487
20
0.773554
11
0.627756
21
0.780512
0
LINE
8
BLACK
6
CONTINUOUS
10
0.627756
20
0.780512
11
0.628487
21
0.787469
0
LINE
8
BLACK
6
CONTINUOUS
10
0.628487
20
0.787469
11
0.630649
21
0.794123
0
LINE
8
BLACK
6
CONTINUOUS
10
0.630649
20
0.794123
11
0.634147
21
0.800182
0
LINE
8
BLACK
6
CONTINUOUS
10
0.634147
20
0.800182
11
0.638828
21
0.805381
0
LINE
8
BLACK
6
CONTINUOUS
10
0.638828
20
0.805381
11
0.644488
21
0.809493
0
LINE
8
BLACK
6
CONTINUOUS
10
0.644488
20
0.809493
11
0.650879
21
0.812339
0
LINE
8
BLACK
6
CONTINUOUS
10
0.650879
20
0.812339
11
0.657722
21
0.813793
0
LINE
8
BLACK
6
CONTINUOUS
10
0.657722
20
0.813793
11
0.664718
21
0.813793
0
LINE
8
BLACK
6
CONTINUOUS
10
0.664718
20
0.813793
11
0.671562
21
0.812339
0
LINE
8
BLACK
6
CONTINUOUS
10
1.58514
20
0.880646
11
1.59154
21
0.8778
0
LINE
8
BLACK
6
CONTINUOUS
10
1.59154
20
0.8778
11
1.5972
21
0.873688
0
LINE
8
BLACK
6
CONTINUOUS
10
1.5972
20
0.873688
11
1.60188
21
0.868489
0
LINE
8
BLACK
6
CONTINUOUS
10
1.60188
20
0.868489
11
1.60537
21
0.86243
0
LINE
8
BLACK
6
CONTINUOUS
10
1.60537
20
0.86243
11
1.60754
21
0.855777
0
LINE
8
BLACK
6
CONTINUOUS
10
1.60754
20
0.855777
11
1.60827
21
0.848819
0
LINE
8
BLACK
6
CONTINUOUS
10
1.60827
20
0.848819
11
1.60754
21
0.841861
0
LINE
8
BLACK
6
CONTINUOUS
10
1.60754
20
0.841861
11
1.60537
21
0.835208
0
LINE
8
BLACK
6
CONTINUOUS
10
1.60537
20
0.835208
11
1.60188
21
0.829149
0
LINE
8
BLACK
6
CONTINUOUS
10
1.60188
20
0.829149
11
1.5972
21
0.82395
0
LINE
8
BLACK
6
CONTINUOUS
10
1.5972
20
0.82395
11
1.59154
21
0.819838
0
LINE
8
BLACK
6
CONTINUOUS
10
1.59154
20
0.819838
11
1.58514
21
0.816992
0
LINE
8
BLACK
6
CONTINUOUS
10
1.58514
20
0.816992
11
1.5783
21
0.815538
0
LINE
8
BLACK
6
CONTINUOUS
10
1.5783
20
0.815538
11
1.57131
21
0.815538
0
LINE
8
BLACK
6
CONTINUOUS
10
1.57131
20
0.815538
11
1.56446
21
0.816992
0
LINE
8
BLACK
6
CONTINUOUS
10
1.56446
20
0.816992
11
1.55807
21
0.819838
0
LINE
8
BLACK
6
CONTINUOUS
10
1.55807
20
0.819838
11
1.55241
21
0.82395
0
LINE
8
BLACK
6
CONTINUOUS
10
1.55241
20
0.82395
11
1.54773
21
0.829149
0
LINE
8
BLACK
6
CONTINUOUS
10
1.54773
20
0.829149
11
1.54423
21
0.835208
0
LINE
8
BLACK
6
CONTINUOUS
10
1.54423
20
0.835208
11
1.54207
21
0.841861
0
LINE
8
BLACK
6
CONTINUOUS
10
1.54207
20
0.841861
11
1.54134
21
0.848819
0
LINE
8
BLACK
6
CONTINUOUS
10
1.54134
20
0.848819
11
1.54207
21
0.855777
0
LINE
8
BLACK
6
CONTINUOUS
10
1.54207
20
0.855777
11
1.54423
21
0.86243
0
LINE
8
BLACK
6
CONTINUOUS
10
1.54423
20
0.86243
11
1.54773
21
0.868489
0
LINE
8
BLACK
6
CONTINUOUS
10
1.54773
20
0.868489
11
1.55241
21
0.873688
0
LINE
8
BLACK
6
CONTINUOUS
10
1.55241
20
0.873688
11
1.55807
21
0.8778
0
LINE
8
BLACK
6
CONTINUOUS
10
1.55807
20
0.8778
11
1.56446
21
0.880646
0
LINE
8
BLACK
6
CONTINUOUS
10
1.56446
20
0.880646
11
1.57131
21
0.8821
0
LINE
8
BLACK
6
CONTINUOUS
10
1.57131
20
0.8821
11
1.5783
21
0.8821
0
LINE
8
BLACK
6
CONTINUOUS
10
1.5783
20
0.8821
11
1.58514
21
0.880646
0
LINE
8
BLACK
6
CONTINUOUS
10
1.68514
20
0.880646
11
1.69154
21
0.8778
0
LINE
8
BLACK
6
CONTINUOUS
10
1.69154
20
0.8778
11
1.6972
21
0.873688
0
LINE
8
BLACK
6
CONTINUOUS
10
1.6972
20
0.873688
11
1.70188
21
0.868489
0
LINE
8
BLACK
6
CONTINUOUS
10
1.70188
20
0.868489
11
1.70537
21
0.86243
0
LINE
8
BLACK
6
CONTINUOUS
10
1.70537
20
0.86243
11
1.70754
21
0.855777
0
LINE
8
BLACK
6
CONTINUOUS
10
1.70754
20
0.855777
11
1.70827
21
0.848819
0
LINE
8
BLACK
6
CONTINUOUS
10
1.70827
20
0.848819
11
1.70754
21
0.841861
0
LINE
8
BLACK
6
CONTINUOUS
10
1.70754
20
0.841861
11
1.70537
21
0.835208
0
LINE
8
BLACK
6
CONTINUOUS
10
1.70537
20
0.835208
11
1.70188
21
0.829149
0
LINE
8
BLACK
6
CONTINUOUS
10
1.70188
20
0.829149
11
1.6972
21
0.82395
0
LINE
8
BLACK
6
CONTINUOUS
10
1.6972
20
0.82395
11
1.69154
21
0.819838
0
LINE
8
BLACK
6
CONTINUOUS
10
1.69154
20
0.819838
11
1.68514
21
0.816992
0
LINE
8
BLACK
6
CONTINUOUS
10
1.68514
20
0.816992
11
1.6783
21
0.815538
0
LINE
8
BLACK
6
CONTINUOUS
10
1.6783
20
0.815538
11
1.67131
21
0.815538
0
LINE
8
BLACK
6
CONTINUOUS
10
1.67131
20
0.815538
11
1.66446
21
0.816992
0
LINE
8
BLACK
6
CONTINUOUS
10
1.66446
20
0.816992
11
1.65807
21
0.819838
0
LINE
8
BLACK
6
CONTINUOUS
10
1.65807
20
0.819838
11
1.65241
21
0.82395
0
LINE
8
BLACK
6
CONTINUOUS
10
1.65241
20
0.82395
11
1.64773
21
0.829149
0
LINE
8
BLACK
6
CONTINUOUS
10
1.64773
20
0.829149
11
1.64423
21
0.835208
0
LINE
8
BLACK
6
CONTINUOUS
10
1.64423
20
0.835208
11
1.64207
21
0.841861
0
LINE
8
BLACK
6
CONTINUOUS
10
1.64207
20
0.841861
11
1.64134
21
0.848819
0
LINE
8
BLACK
6
CONTINUOUS
10
1.64134
20
0.848819
11
1.64207
21
0.855777
0
LINE
8
BLACK
6
CONTINUOUS
10
1.64207
20
0.855777
11
1.64423
21
0.86243
0
LINE
8
BLACK
6
CONTINUOUS
10
1.64423
20
0.86243
11
1.64773
21
0.868489
0
LINE
8
BLACK
6
CONTINUOUS
10
1.64773
20
0.868489
11
1.65241
21
0.873688
0
LINE
8
BLACK
6
CONTINUOUS
10
1.65241
20
0.873688
11
1.65807
21
0.8778
0
LINE
8
BLACK
6
CONTINUOUS
10
1.65807
20
0.8778
11
1.66446
21
0.880646
0
LINE
8
BLACK
6
CONTINUOUS
10
1.66446
20
0.880646
11
1.67131
21
0.8821
0
LINE
8
BLACK
6
CONTINUOUS
10
1.67131
20
0.8821
11
1.6783
21
0.8821
0
LINE
8
BLACK
6
CONTINUOUS
10
1.6783
20
0.8821
11
1.68514
21
0.880646
0
LINE
8
BLACK
6
CONTINUOUS
10
0.571562
20
0.912339
11
0.577953
21
0.909493
0
LINE
8
BLACK
6
CONTINUOUS
10
0.577953
20
0.909493
11
0.583613
21
0.905381
0
LINE
8
BLACK
6
CONTINUOUS
10
0.583613
20
0.905381
11
0.588294
21
0.900182
0
LINE
8
BLACK
6
CONTINUOUS
10
0.588294
20
0.900182
11
0.591792
21
0.894123
0
LINE
8
BLACK
6
CONTINUOUS
10
0.591792
20
0.894123
11
0.593954
21
0.887469
0
LINE
8
BLACK
6
CONTINUOUS
10
0.593954
20
0.887469
11
0.594685
21
0.880512
0
LINE
8
BLACK
6
CONTINUOUS
10
0.594685
20
0.880512
11
0.593954
21
0.873554
0
LINE
8
BLACK
6
CONTINUOUS
10
0.593954
20
0.873554
11
0.591792
21
0.866901
0
LINE
8
BLACK
6
CONTINUOUS
10
0.591792
20
0.866901
11
0.588294
21
0.860842
0
LINE
8
BLACK
6
CONTINUOUS
10
0.588294
20
0.860842
11
0.583613
21
0.855643
0
LINE
8
BLACK
6
CONTINUOUS
10
0.583613
20
0.855643
11
0.577953
21
0.851531
0
LINE
8
BLACK
6
CONTINUOUS
10
0.577953
20
0.851531
11
0.571562
21
0.848685
0
LINE
8
BLACK
6
CONTINUOUS
10
0.571562
20
0.848685
11
0.564718
21
0.847231
0
LINE
8
BLACK
6
CONTINUOUS
10
0.564718
20
0.847231
11
0.557722
21
0.847231
0
LINE
8
BLACK
6
CONTINUOUS
10
0.557722
20
0.847231
11
0.550879
21
0.848685
0
LINE
8
BLACK
6
CONTINUOUS
10
0.550879
20
0.848685
11
0.544488
21
0.851531
0
LINE
8
BLACK
6
CONTINUOUS
10
0.544488
20
0.851531
11
0.538828
21
0.855643
0
LINE
8
BLACK
6
CONTINUOUS
10
0.538828
20
0.855643
11
0.534147
21
0.860842
0
LINE
8
BLACK
6
CONTINUOUS
10
0.534147
20
0.860842
11
0.530649
21
0.866901
0
LINE
8
BLACK
6
CONTINUOUS
10
0.530649
20
0.866901
11
0.528487
21
0.873554
0
LINE
8
BLACK
6
CONTINUOUS
10
0.528487
20
0.873554
11
0.527756
21
0.880512
0
LINE
8
BLACK
6
CONTINUOUS
10
0.527756
20
0.880512
11
0.528487
21
0.887469
0
LINE
8
BLACK
6
CONTINUOUS
10
0.528487
20
0.887469
11
0.530649
21
0.894123
0
LINE
8
BLACK
6
CONTINUOUS
10
0.530649
20
0.894123
11
0.534147
21
0.900182
0
LINE
8
BLACK
6
CONTINUOUS
10
0.534147
20
0.900182
11
0.538828
21
0.905381
0
LINE
8
BLACK
6
CONTINUOUS
10
0.538828
20
0.905381
11
0.544488
21
0.909493
0
LINE
8
BLACK
6
CONTINUOUS
10
0.544488
20
0.909493
11
0.550879
21
0.912339
0
LINE
8
BLACK
6
CONTINUOUS
10
0.550879
20
0.912339
11
0.557722
21
0.913793
0
LINE
8
BLACK
6
CONTINUOUS
10
0.557722
20
0.913793
11
0.564718
21
0.913793
0
LINE
8
BLACK
6
CONTINUOUS
10
0.564718
20
0.913793
11
0.571562
21
0.912339
0
LINE
8
BLACK
6
CONTINUOUS
10
0.671562
20
0.912339
11
0.677953
21
0.909493
0
LINE
8
BLACK
6
CONTINUOUS
10
0.677953
20
0.909493
11
0.683613
21
0.905381
0
LINE
8
BLACK
6
CONTINUOUS
10
0.683613
20
0.905381
11
0.688294
21
0.900182
0
LINE
8
BLACK
6
CONTINUOUS
10
0.688294
20
0.900182
11
0.691792
21
0.894123
0
LINE
8
BLACK
6
CONTINUOUS
10
0.691792
20
0.894123
11
0.693954
21
0.887469
0
LINE
8
BLACK
6
CONTINUOUS
10
0.693954
20
0.887469
11
0.694685
21
0.880512
0
LINE
8
BLACK
6
CONTINUOUS
10
0.694685
20
0.880512
11
0.693954
21
0.873554
0
LINE
8
BLACK
6
CONTINUOUS
10
0.693954
20
0.873554
11
0.691792
21
0.866901
0
LINE
8
BLACK
6
CONTINUOUS
10
0.691792
20
0.866901
11
0.688294
21
0.860842
0
LINE
8
BLACK
6
CONTINUOUS
10
0.688294
20
0.860842
11
0.683613
21
0.855643
0
LINE
8
BLACK
6
CONTINUOUS
10
0.683613
20
0.855643
11
0.677953
21
0.851531
0
LINE
8
BLACK
6
CONTINUOUS
10
0.677953
20
0.851531
11
0.671562
21
0.848685
0
LINE
8
BLACK
6
CONTINUOUS
10
0.671562
20
0.848685
11
0.664718
21
0.847231
0
LINE
8
BLACK
6
CONTINUOUS
10
0.664718
20
0.847231
11
0.657722
21
0.847231
0
LINE
8
BLACK
6
CONTINUOUS
10
0.657722
20
0.847231
11
0.650879
21
0.848685
0
LINE
8
BLACK
6
CONTINUOUS
10
0.650879
20
0.848685
11
0.644488
21
0.851531
0
LINE
8
BLACK
6
CONTINUOUS
10
0.644488
20
0.851531
11
0.638828
21
0.855643
0
LINE
8
BLACK
6
CONTINUOUS
10
0.638828
20
0.855643
11
0.634147
21
0.860842
0
LINE
8
BLACK
6
CONTINUOUS
10
0.634147
20
0.860842
11
0.630649
21
0.866901
0
LINE
8
BLACK
6
CONTINUOUS
10
0.630649
20
0.866901
11
0.628487
21
0.873554
0
LINE
8
BLACK
6
CONTINUOUS
10
0.628487
20
0.873554
11
0.627756
21
0.880512
0
LINE
8
BLACK
6
CONTINUOUS
10
0.627756
20
0.880512
11
0.628487
21
0.887469
0
LINE
8
BLACK
6
CONTINUOUS
10
0.628487
20
0.887469
11
0.630649
21
0.894123
0
LINE
8
BLACK
6
CONTINUOUS
10
0.630649
20
0.894123
11
0.634147
21
0.900182
0
LINE
8
BLACK
6
CONTINUOUS
10
0.634147
20
0.900182
11
0.638828
21
0.905381
0
LINE
8
BLACK
6
CONTINUOUS
10
0.638828
20
0.905381
11
0.644488
21
0.909493
0
LINE
8
BLACK
6
CONTINUOUS
10
0.644488
20
0.909493
11
0.650879
21
0.912339
0
LINE
8
BLACK
6
CONTINUOUS
10
0.650879
20
0.912339
11
0.657722
21
0.913793
0
LINE
8
BLACK
6
CONTINUOUS
10
0.657722
20
0.913793
11
0.664718
21
0.913793
0
LINE
8
BLACK
6
CONTINUOUS
10
0.664718
20
0.913793
11
0.671562
21
0.912339
0
LINE
8
BLACK
6
CONTINUOUS
10
1.60827
20
0.915354
11
1.54134
21
0.915354
0
LINE
8
BLACK
6
CONTINUOUS
10
1.54134
20
0.915354
11
1.54134
21
0.982283
0
LINE
8
BLACK
6
CONTINUOUS
10
1.54134
20
0.982283
11
1.60827
21
0.982283
0
LINE
8
BLACK
6
CONTINUOUS
10
1.60827
20
0.982283
11
1.60827
21
0.915354
0
LINE
8
BLACK
6
CONTINUOUS
10
1.68514
20
0.980646
11
1.69154
21
0.9778
0
LINE
8
BLACK
6
CONTINUOUS
10
1.69154
20
0.9778
11
1.6972
21
0.973688
0
LINE
8
BLACK
6
CONTINUOUS
10
1.6972
20
0.973688
11
1.70188
21
0.968489
0
LINE
8
BLACK
6
CONTINUOUS
10
1.70188
20
0.968489
11
1.70537
21
0.96243
0
LINE
8
BLACK
6
CONTINUOUS
10
1.70537
20
0.96243
11
1.70754
21
0.955777
0
LINE
8
BLACK
6
CONTINUOUS
10
1.70754
20
0.955777
11
1.70827
21
0.948819
0
LINE
8
BLACK
6
CONTINUOUS
10
1.70827
20
0.948819
11
1.70754
21
0.941861
0
LINE
8
BLACK
6
CONTINUOUS
10
1.70754
20
0.941861
11
1.70537
21
0.935208
0
LINE
8
BLACK
6
CONTINUOUS
10
1.70537
20
0.935208
11
1.70188
21
0.929149
0
LINE
8
BLACK
6
CONTINUOUS
10
1.70188
20
0.929149
11
1.6972
21
0.92395
0
LINE
8
BLACK
6
CONTINUOUS
10
1.6972
20
0.92395
11
1.69154
21
0.919838
0
LINE
8
BLACK
6
CONTINUOUS
10
1.69154
20
0.919838
11
1.68514
21
0.916992
0
LINE
8
BLACK
6
CONTINUOUS
10
1.68514
20
0.916992
11
1.6783
21
0.915538
0
LINE
8
BLACK
6
CONTINUOUS
10
1.6783
20
0.915538
11
1.67131
21
0.915538
0
LINE
8
BLACK
6
CONTINUOUS
10
1.67131
20
0.915538
11
1.66446
21
0.916992
0
LINE
8
BLACK
6
CONTINUOUS
10
1.66446
20
0.916992
11
1.65807
21
0.919838
0
LINE
8
BLACK
6
CONTINUOUS
10
1.65807
20
0.919838
11
1.65241
21
0.92395
0
LINE
8
BLACK
6
CONTINUOUS
10
1.65241
20
0.92395
11
1.64773
21
0.929149
0
LINE
8
BLACK
6
CONTINUOUS
10
1.64773
20
0.929149
11
1.64423
21
0.935208
0
LINE
8
BLACK
6
CONTINUOUS
10
1.64423
20
0.935208
11
1.64207
21
0.941861
0
LINE
8
BLACK
6
CONTINUOUS
10
1.64207
20
0.941861
11
1.64134
21
0.948819
0
LINE
8
BLACK
6
CONTINUOUS
10
1.64134
20
0.948819
11
1.64207
21
0.955777
0
LINE
8
BLACK
6
CONTINUOUS
10
1.64207
20
0.955777
11
1.64423
21
0.96243
0
LINE
8
BLACK
6
CONTINUOUS
10
1.64423
20
0.96243
11
1.64773
21
0.968489
0
LINE
8
BLACK
6
CONTINUOUS
10
1.64773
20
0.968489
11
1.65241
21
0.973688
0
LINE
8
BLACK
6
CONTINUOUS
10
1.65241
20
0.973688
11
1.65807
21
0.9778
0
LINE
8
BLACK
6
CONTINUOUS
10
1.65807
20
0.9778
11
1.66446
21
0.980646
0
LINE
8
BLACK
6
CONTINUOUS
10
1.66446
20
0.980646
11
1.67131
21
0.9821
0
LINE
8
BLACK
6
CONTINUOUS
10
1.67131
20
0.9821
11
1.6783
21
0.9821
0
LINE
8
BLACK
6
CONTINUOUS
10
1.6783
20
0.9821
11
1.68514
21
0.980646
0
LINE
8
BLACK
6
CONTINUOUS
10
0.571562
20
1.01234
11
0.577953
21
1.00949
0
LINE
8
BLACK
6
CONTINUOUS
10
0.577953
20
1.00949
11
0.583613
21
1.00538
0
LINE
8
BLACK
6
CONTINUOUS
10
0.583613
20
1.00538
11
0.588294
21
1.00018
0
LINE
8
BLACK
6
CONTINUOUS
10
0.588294
20
1.00018
11
0.591792
21
0.994123
0
LINE
8
BLACK
6
CONTINUOUS
10
0.591792
20
0.994123
11
0.593954
21
0.987469
0
LINE
8
BLACK
6
CONTINUOUS
10
0.593954
20
0.987469
11
0.594685
21
0.980512
0
LINE
8
BLACK
6
CONTINUOUS
10
0.594685
20
0.980512
11
0.593954
21
0.973554
0
LINE
8
BLACK
6
CONTINUOUS
10
0.593954
20
0.973554
11
0.591792
21
0.966901
0
LINE
8
BLACK
6
CONTINUOUS
10
0.591792
20
0.966901
11
0.588294
21
0.960842
0
LINE
8
BLACK
6
CONTINUOUS
10
0.588294
20
0.960842
11
0.583613
21
0.955643
0
LINE
8
BLACK
6
CONTINUOUS
10
0.583613
20
0.955643
11
0.577953
21
0.951531
0
LINE
8
BLACK
6
CONTINUOUS
10
0.577953
20
0.951531
11
0.571562
21
0.948685
0
LINE
8
BLACK
6
CONTINUOUS
10
0.571562
20
0.948685
11
0.564718
21
0.947231
0
LINE
8
BLACK
6
CONTINUOUS
10
0.564718
20
0.947231
11
0.557722
21
0.947231
0
LINE
8
BLACK
6
CONTINUOUS
10
0.557722
20
0.947231
11
0.550879
21
0.948685
0
LINE
8
BLACK
6
CONTINUOUS
10
0.550879
20
0.948685
11
0.544488
21
0.951531
0
LINE
8
BLACK
6
CONTINUOUS
10
0.544488
20
0.951531
11
0.538828
21
0.955643
0
LINE
8
BLACK
6
CONTINUOUS
10
0.538828
20
0.955643
11
0.534147
21
0.960842
0
LINE
8
BLACK
6
CONTINUOUS
10
0.534147
20
0.960842
11
0.530649
21
0.966901
0
LINE
8
BLACK
6
CONTINUOUS
10
0.530649
20
0.966901
11
0.528487
21
0.973554
0
LINE
8
BLACK
6
CONTINUOUS
10
0.528487
20
0.973554
11
0.527756
21
0.980512
0
LINE
8
BLACK
6
CONTINUOUS
10
0.527756
20
0.980512
11
0.528487
21
0.987469
0
LINE
8
BLACK
6
CONTINUOUS
10
0.528487
20
0.987469
11
0.530649
21
0.994123
0
LINE
8
BLACK
6
CONTINUOUS
10
0.530649
20
0.994123
11
0.534147
21
1.00018
0
LINE
8
BLACK
6
CONTINUOUS
10
0.534147
20
1.00018
11
0.538828
21
1.00538
0
LINE
8
BLACK
6
CONTINUOUS
10
0.538828
20
1.00538
11
0.544488
21
1.00949
0
LINE
8
BLACK
6
CONTINUOUS
10
0.544488
20
1.00949
11
0.550879
21
1.01234
0
LINE
8
BLACK
6
CONTINUOUS
10
0.550879
20
1.01234
11
0.557722
21
1.01379
0
LINE
8
BLACK
6
CONTINUOUS
10
0.557722
20
1.01379
11
0.564718
21
1.01379
0
LINE
8
BLACK
6
CONTINUOUS
10
0.564718
20
1.01379
11
0.571562
21
1.01234
0
LINE
8
BLACK
6
CONTINUOUS
10
0.671562
20
1.01234
11
0.677953
21
1.00949
0
LINE
8
BLACK
6
CONTINUOUS
10
0.677953
20
1.00949
11
0.683613
21
1.00538
0
LINE
8
BLACK
6
CONTINUOUS
10
0.683613
20
1.00538
11
0.688294
21
1.00018
0
LINE
8
BLACK
6
CONTINUOUS
10
0.688294
20
1.00018
11
0.691792
21
0.994123
0
LINE
8
BLACK
6
CONTINUOUS
10
0.691792
20
0.994123
11
0.693954
21
0.987469
0
LINE
8
BLACK
6
CONTINUOUS
10
0.693954
20
0.987469
11
0.694685
21
0.980512
0
LINE
8
BLACK
6
CONTINUOUS
10
0.694685
20
0.980512
11
0.693954
21
0.973554
0
LINE
8
BLACK
6
CONTINUOUS
10
0.693954
20
0.973554
11
0.691792
21
0.966901
0
LINE
8
BLACK
6
CONTINUOUS
10
0.691792
20
0.966901
11
0.688294
21
0.960842
0
LINE
8
BLACK
6
CONTINUOUS
10
0.688294
20
0.960842
11
0.683613
21
0.955643
0
LINE
8
BLACK
6
CONTINUOUS
10
0.683613
20
0.955643
11
0.677953
21
0.951531
0
LINE
8
BLACK
6
CONTINUOUS
10
0.677953
20
0.951531
11
0.671562
21
0.948685
0
LINE
8
BLACK
6
CONTINUOUS
10
0.671562
20
0.948685
11
0.664718
21
0.947231
0
LINE
8
BLACK
6
CONTINUOUS
10
0.664718
20
0.947231
11
0.657722
21
0.947231
0
LINE
8
BLACK
6
CONTINUOUS
10
0.657722
20
0.947231
11
0.650879
21
0.948685
0
LINE
8
BLACK
6
CONTINUOUS
10
0.650879
20
0.948685
11
0.644488
21
0.951531
0
LINE
8
BLACK
6
CONTINUOUS
10
0.644488
20
0.951531
11
0.638828
21
0.955643
0
LINE
8
BLACK
6
CONTINUOUS
10
0.638828
20
0.955643
11
0.634147
21
0.960842
0
LINE
8
BLACK
6
CONTINUOUS
10
0.634147
20
0.960842
11
0.630649
21
0.966901
0
LINE
8
BLACK
6
CONTINUOUS
10
0.630649
20
0.966901
11
0.628487
21
0.973554
0
LINE
8
BLACK
6
CONTINUOUS
10
0.628487
20
0.973554
11
0.627756
21
0.980512
0
LINE
8
BLACK
6
CONTINUOUS
10
0.627756
20
0.980512
11
0.628487
21
0.987469
0
LINE
8
BLACK
6
CONTINUOUS
10
0.628487
20
0.987469
11
0.630649
21
0.994123
0
LINE
8
BLACK
6
CONTINUOUS
10
0.630649
20
0.994123
11
0.634147
21
1.00018
0
LINE
8
BLACK
6
CONTINUOUS
10
0.634147
20
1.00018
11
0.638828
21
1.00538
0
LINE
8
BLACK
6
CONTINUOUS
10
0.638828
20
1.00538
11
0.644488
21
1.00949
0
LINE
8
BLACK
6
CONTINUOUS
10
0.644488
20
1.00949
11
0.650879
21
1.01234
0
LINE
8
BLACK
6
CONTINUOUS
10
0.650879
20
1.01234
11
0.657722
21
1.01379
0
LINE
8
BLACK
6
CONTINUOUS
10
0.657722
20
1.01379
11
0.664718
21
1.01379
0
LINE
8
BLACK
6
CONTINUOUS
10
0.664718
20
1.01379
11
0.671562
21
1.01234
0
LINE
8
BLACK
6
CONTINUOUS
10
0.571562
20
1.11234
11
0.577953
21
1.10949
0
LINE
8
BLACK
6
CONTINUOUS
10
0.577953
20
1.10949
11
0.583613
21
1.10538
0
LINE
8
BLACK
6
CONTINUOUS
10
0.583613
20
1.10538
11
0.588294
21
1.10018
0
LINE
8
BLACK
6
CONTINUOUS
10
0.588294
20
1.10018
11
0.591792
21
1.09412
0
LINE
8
BLACK
6
CONTINUOUS
10
0.591792
20
1.09412
11
0.593954
21
1.08747
0
LINE
8
BLACK
6
CONTINUOUS
10
0.593954
20
1.08747
11
0.594685
21
1.08051
0
LINE
8
BLACK
6
CONTINUOUS
10
0.594685
20
1.08051
11
0.593954
21
1.07355
0
LINE
8
BLACK
6
CONTINUOUS
10
0.593954
20
1.07355
11
0.591792
21
1.0669
0
LINE
8
BLACK
6
CONTINUOUS
10
0.591792
20
1.0669
11
0.588294
21
1.06084
0
LINE
8
BLACK
6
CONTINUOUS
10
0.588294
20
1.06084
11
0.583613
21
1.05564
0
LINE
8
BLACK
6
CONTINUOUS
10
0.583613
20
1.05564
11
0.577953
21
1.05153
0
LINE
8
BLACK
6
CONTINUOUS
10
0.577953
20
1.05153
11
0.571562
21
1.04869
0
LINE
8
BLACK
6
CONTINUOUS
10
0.571562
20
1.04869
11
0.564718
21
1.04723
0
LINE
8
BLACK
6
CONTINUOUS
10
0.564718
20
1.04723
11
0.557722
21
1.04723
0
LINE
8
BLACK
6
CONTINUOUS
10
0.557722
20
1.04723
11
0.550879
21
1.04869
0
LINE
8
BLACK
6
CONTINUOUS
10
0.550879
20
1.04869
11
0.544488
21
1.05153
0
LINE
8
BLACK
6
CONTINUOUS
10
0.544488
20
1.05153
11
0.538828
21
1.05564
0
LINE
8
BLACK
6
CONTINUOUS
10
0.538828
20
1.05564
11
0.534147
21
1.06084
0
LINE
8
BLACK
6
CONTINUOUS
10
0.534147
20
1.06084
11
0.530649
21
1.0669
0
LINE
8
BLACK
6
CONTINUOUS
10
0.530649
20
1.0669
11
0.528487
21
1.07355
0
LINE
8
BLACK
6
CONTINUOUS
10
0.528487
20
1.07355
11
0.527756
21
1.08051
0
LINE
8
BLACK
6
CONTINUOUS
10
0.527756
20
1.08051
11
0.528487
21
1.08747
0
LINE
8
BLACK
6
CONTINUOUS
10
0.528487
20
1.08747
11
0.530649
21
1.09412
0
LINE
8
BLACK
6
CONTINUOUS
10
0.530649
20
1.09412
11
0.534147
21
1.10018
0
LINE
8
BLACK
6
CONTINUOUS
10
0.534147
20
1.10018
11
0.538828
21
1.10538
0
LINE
8
BLACK
6
CONTINUOUS
10
0.538828
20
1.10538
11
0.544488
21
1.10949
0
LINE
8
BLACK
6
CONTINUOUS
10
0.544488
20
1.10949
11
0.550879
21
1.11234
0
LINE
8
BLACK
6
CONTINUOUS
10
0.550879
20
1.11234
11
0.557722
21
1.11379
0
LINE
8
BLACK
6
CONTINUOUS
10
0.557722
20
1.11379
11
0.564718
21
1.11379
0
LINE
8
BLACK
6
CONTINUOUS
10
0.564718
20
1.11379
11
0.571562
21
1.11234
0
LINE
8
BLACK
6
CONTINUOUS
10
0.671562
20
1.11234
11
0.677953
21
1.10949
0
LINE
8
BLACK
6
CONTINUOUS
10
0.677953
20
1.10949
11
0.683613
21
1.10538
0
LINE
8
BLACK
6
CONTINUOUS
10
0.683613
20
1.10538
11
0.688294
21
1.10018
0
LINE
8
BLACK
6
CONTINUOUS
10
0.688294
20
1.10018
11
0.691792
21
1.09412
0
LINE
8
BLACK
6
CONTINUOUS
10
0.691792
20
1.09412
11
0.693954
21
1.08747
0
LINE
8
BLACK
6
CONTINUOUS
10
0.693954
20
1.08747
11
0.694685
21
1.08051
0
LINE
8
BLACK
6
CONTINUOUS
10
0.694685
20
1.08051
11
0.693954
21
1.07355
0
LINE
8
BLACK
6
CONTINUOUS
10
0.693954
20
1.07355
11
0.691792
21
1.0669
0
LINE
8
BLACK
6
CONTINUOUS
10
0.691792
20
1.0669
11
0.688294
21
1.06084
0
LINE
8
BLACK
6
CONTINUOUS
10
0.688294
20
1.06084
11
0.683613
21
1.05564
0
LINE
8
BLACK
6
CONTINUOUS
10
0.683613
20
1.05564
11
0.677953
21
1.05153
0
LINE
8
BLACK
6
CONTINUOUS
10
0.677953
20
1.05153
11
0.671562
21
1.04869
0
LINE
8
BLACK
6
CONTINUOUS
10
0.671562
20
1.04869
11
0.664718
21
1.04723
0
LINE
8
BLACK
6
CONTINUOUS
10
0.664718
20
1.04723
11
0.657722
21
1.04723
0
LINE
8
BLACK
6
CONTINUOUS
10
0.657722
20
1.04723
11
0.650879
21
1.04869
0
LINE
8
BLACK
6
CONTINUOUS
10
0.650879
20
1.04869
11
0.644488
21
1.05153
0
LINE
8
BLACK
6
CONTINUOUS
10
0.644488
20
1.05153
11
0.638828
21
1.05564
0
LINE
8
BLACK
6
CONTINUOUS
10
0.638828
20
1.05564
11
0.634147
21
1.06084
0
LINE
8
BLACK
6
CONTINUOUS
10
0.634147
20
1.06084
11
0.630649
21
1.0669
0
LINE
8
BLACK
6
CONTINUOUS
10
0.630649
20
1.0669
11
0.628487
21
1.07355
0
LINE
8
BLACK
6
CONTINUOUS
10
0.628487
20
1.07355
11
0.627756
21
1.08051
0
LINE
8
BLACK
6
CONTINUOUS
10
0.627756
20
1.08051
11
0.628487
21
1.08747
0
LINE
8
BLACK
6
CONTINUOUS
10
0.628487
20
1.08747
11
0.630649
21
1.09412
0
LINE
8
BLACK
6
CONTINUOUS
10
0.630649
20
1.09412
11
0.634147
21
1.10018
0
LINE
8
BLACK
6
CONTINUOUS
10
0.634147
20
1.10018
11
0.638828
21
1.10538
0
LINE
8
BLACK
6
CONTINUOUS
10
0.638828
20
1.10538
11
0.644488
21
1.10949
0
LINE
8
BLACK
6
CONTINUOUS
10
0.644488
20
1.10949
11
0.650879
21
1.11234
0
LINE
8
BLACK
6
CONTINUOUS
10
0.650879
20
1.11234
11
0.657722
21
1.11379
0
LINE
8
BLACK
6
CONTINUOUS
10
0.657722
20
1.11379
11
0.664718
21
1.11379
0
LINE
8
BLACK
6
CONTINUOUS
10
0.664718
20
1.11379
11
0.671562
21
1.11234
0
LINE
8
BLACK
6
CONTINUOUS
10
0.571562
20
1.21234
11
0.577953
21
1.20949
0
LINE
8
BLACK
6
CONTINUOUS
10
0.577953
20
1.20949
11
0.583613
21
1.20538
0
LINE
8
BLACK
6
CONTINUOUS
10
0.583613
20
1.20538
11
0.588294
21
1.20018
0
LINE
8
BLACK
6
CONTINUOUS
10
0.588294
20
1.20018
11
0.591792
21
1.19412
0
LINE
8
BLACK
6
CONTINUOUS
10
0.591792
20
1.19412
11
0.593954
21
1.18747
0
LINE
8
BLACK
6
CONTINUOUS
10
0.593954
20
1.18747
11
0.594685
21
1.18051
0
LINE
8
BLACK
6
CONTINUOUS
10
0.594685
20
1.18051
11
0.593954
21
1.17355
0
LINE
8
BLACK
6
CONTINUOUS
10
0.593954
20
1.17355
11
0.591792
21
1.1669
0
LINE
8
BLACK
6
CONTINUOUS
10
0.591792
20
1.1669
11
0.588294
21
1.16084
0
LINE
8
BLACK
6
CONTINUOUS
10
0.588294
20
1.16084
11
0.583613
21
1.15564
0
LINE
8
BLACK
6
CONTINUOUS
10
0.583613
20
1.15564
11
0.577953
21
1.15153
0
LINE
8
BLACK
6
CONTINUOUS
10
0.577953
20
1.15153
11
0.571562
21
1.14869
0
LINE
8
BLACK
6
CONTINUOUS
10
0.571562
20
1.14869
11
0.564718
21
1.14723
0
LINE
8
BLACK
6
CONTINUOUS
10
0.564718
20
1.14723
11
0.557722
21
1.14723
0
LINE
8
BLACK
6
CONTINUOUS
10
0.557722
20
1.14723
11
0.550879
21
1.14869
0
LINE
8
BLACK
6
CONTINUOUS
10
0.550879
20
1.14869
11
0.544488
21
1.15153
0
LINE
8
BLACK
6
CONTINUOUS
10
0.544488
20
1.15153
11
0.538828
21
1.15564
0
LINE
8
BLACK
6
CONTINUOUS
10
0.538828
20
1.15564
11
0.534147
21
1.16084
0
LINE
8
BLACK
6
CONTINUOUS
10
0.534147
20
1.16084
11
0.530649
21
1.1669
0
LINE
8
BLACK
6
CONTINUOUS
10
0.530649
20
1.1669
11
0.528487
21
1.17355
0
LINE
8
BLACK
6
CONTINUOUS
10
0.528487
20
1.17355
11
0.527756
21
1.18051
0
LINE
8
BLACK
6
CONTINUOUS
10
0.527756
20
1.18051
11
0.528487
21
1.18747
0
LINE
8
BLACK
6
CONTINUOUS
10
0.528487
20
1.18747
11
0.530649
21
1.19412
0
LINE
8
BLACK
6
CONTINUOUS
10
0.530649
20
1.19412
11
0.534147
21
1.20018
0
LINE
8
BLACK
6
CONTINUOUS
10
0.534147
20
1.20018
11
0.538828
21
1.20538
0
LINE
8
BLACK
6
CONTINUOUS
10
0.538828
20
1.20538
11
0.544488
21
1.20949
0
LINE
8
BLACK
6
CONTINUOUS
10
0.544488
20
1.20949
11
0.550879
21
1.21234
0
LINE
8
BLACK
6
CONTINUOUS
10
0.550879
20
1.21234
11
0.557722
21
1.21379
0
LINE
8
BLACK
6
CONTINUOUS
10
0.557722
20
1.21379
11
0.564718
21
1.21379
0
LINE
8
BLACK
6
CONTINUOUS
10
0.564718
20
1.21379
11
0.571562
21
1.21234
0
LINE
8
BLACK
6
CONTINUOUS
10
0.671562
20
1.21234
11
0.677953
21
1.20949
0
LINE
8
BLACK
6
CONTINUOUS
10
0.677953
20
1.20949
11
0.683613
21
1.20538
0
LINE
8
BLACK
6
CONTINUOUS
10
0.683613
20
1.20538
11
0.688294
21
1.20018
0
LINE
8
BLACK
6
CONTINUOUS
10
0.688294
20
1.20018
11
0.691792
21
1.19412
0
LINE
8
BLACK
6
CONTINUOUS
10
0.691792
20
1.19412
11
0.693954
21
1.18747
0
LINE
8
BLACK
6
CONTINUOUS
10
0.693954
20
1.18747
11
0.694685
21
1.18051
0
LINE
8
BLACK
6
CONTINUOUS
10
0.694685
20
1.18051
11
0.693954
21
1.17355
0
LINE
8
BLACK
6
CONTINUOUS
10
0.693954
20
1.17355
11
0.691792
21
1.1669
0
LINE
8
BLACK
6
CONTINUOUS
10
0.691792
20
1.1669
11
0.688294
21
1.16084
0
LINE
8
BLACK
6
CONTINUOUS
10
0.688294
20
1.16084
11
0.683613
21
1.15564
0
LINE
8
BLACK
6
CONTINUOUS
10
0.683613
20
1.15564
11
0.677953
21
1.15153
0
LINE
8
BLACK
6
CONTINUOUS
10
0.677953
20
1.15153
11
0.671562
21
1.14869
0
LINE
8
BLACK
6
CONTINUOUS
10
0.671562
20
1.14869
11
0.664718
21
1.14723
0
LINE
8
BLACK
6
CONTINUOUS
10
0.664718
20
1.14723
11
0.657722
21
1.14723
0
LINE
8
BLACK
6
CONTINUOUS
10
0.657722
20
1.14723
11
0.650879
21
1.14869
0
LINE
8
BLACK
6
CONTINUOUS
10
0.650879
20
1.14869
11
0.644488
21
1.15153
0
LINE
8
BLACK
6
CONTINUOUS
10
0.644488
20
1.15153
11
0.638828
21
1.15564
0
LINE
8
BLACK
6
CONTINUOUS
10
0.638828
20
1.15564
11
0.634147
21
1.16084
0
LINE
8
BLACK
6
CONTINUOUS
10
0.634147
20
1.16084
11
0.630649
21
1.1669
0
LINE
8
BLACK
6
CONTINUOUS
10
0.630649
20
1.1669
11
0.628487
21
1.17355
0
LINE
8
BLACK
6
CONTINUOUS
10
0.628487
20
1.17355
11
0.627756
21
1.18051
0
LINE
8
BLACK
6
CONTINUOUS
10
0.627756
20
1.18051
11
0.628487
21
1.18747
0
LINE
8
BLACK
6
CONTINUOUS
10
0.628487
20
1.18747
11
0.630649
21
1.19412
0
LINE
8
BLACK
6
CONTINUOUS
10
0.630649
20
1.19412
11
0.634147
21
1.20018
0
LINE
8
BLACK
6
CONTINUOUS
10
0.634147
20
1.20018
11
0.638828
21
1.20538
0
LINE
8
BLACK
6
CONTINUOUS
10
0.638828
20
1.20538
11
0.644488
21
1.20949
0
LINE
8
BLACK
6
CONTINUOUS
10
0.644488
20
1.20949
11
0.650879
21
1.21234
0
LINE
8
BLACK
6
CONTINUOUS
10
0.650879
20
1.21234
11
0.657722
21
1.21379
0
LINE
8
BLACK
6
CONTINUOUS
10
0.657722
20
1.21379
11
0.664718
21
1.21379
0
LINE
8
BLACK
6
CONTINUOUS
10
0.664718
20
1.21379
11
0.671562
21
1.21234
0
LINE
8
BLACK
6
CONTINUOUS
10
0.594685
20
1.24705
11
0.527756
21
1.24705
0
LINE
8
BLACK
6
CONTINUOUS
10
0.527756
20
1.24705
11
0.527756
21
1.31398
0
LINE
8
BLACK
6
CONTINUOUS
10
0.527756
20
1.31398
11
0.594685
21
1.31398
0
LINE
8
BLACK
6
CONTINUOUS
10
0.594685
20
1.31398
11
0.594685
21
1.24705
0
LINE
8
BLACK
6
CONTINUOUS
10
0.671562
20
1.31234
11
0.677953
21
1.30949
0
LINE
8
BLACK
6
CONTINUOUS
10
0.677953
20
1.30949
11
0.683613
21
1.30538
0
LINE
8
BLACK
6
CONTINUOUS
10
0.683613
20
1.30538
11
0.688294
21
1.30018
0
LINE
8
BLACK
6
CONTINUOUS
10
0.688294
20
1.30018
11
0.691792
21
1.29412
0
LINE
8
BLACK
6
CONTINUOUS
10
0.691792
20
1.29412
11
0.693954
21
1.28747
0
LINE
8
BLACK
6
CONTINUOUS
10
0.693954
20
1.28747
11
0.694685
21
1.28051
0
LINE
8
BLACK
6
CONTINUOUS
10
0.694685
20
1.28051
11
0.693954
21
1.27355
0
LINE
8
BLACK
6
CONTINUOUS
10
0.693954
20
1.27355
11
0.691792
21
1.2669
0
LINE
8
BLACK
6
CONTINUOUS
10
0.691792
20
1.2669
11
0.688294
21
1.26084
0
LINE
8
BLACK
6
CONTINUOUS
10
0.688294
20
1.26084
11
0.683613
21
1.25564
0
LINE
8
BLACK
6
CONTINUOUS
10
0.683613
20
1.25564
11
0.677953
21
1.25153
0
LINE
8
BLACK
6
CONTINUOUS
10
0.677953
20
1.25153
11
0.671562
21
1.24869
0
LINE
8
BLACK
6
CONTINUOUS
10
0.671562
20
1.24869
11
0.664718
21
1.24723
0
LINE
8
BLACK
6
CONTINUOUS
10
0.664718
20
1.24723
11
0.657722
21
1.24723
0
LINE
8
BLACK
6
CONTINUOUS
10
0.657722
20
1.24723
11
0.650879
21
1.24869
0
LINE
8
BLACK
6
CONTINUOUS
10
0.650879
20
1.24869
11
0.644488
21
1.25153
0
LINE
8
BLACK
6
CONTINUOUS
10
0.644488
20
1.25153
11
0.638828
21
1.25564
0
LINE
8
BLACK
6
CONTINUOUS
10
0.638828
20
1.25564
11
0.634147
21
1.26084
0
LINE
8
BLACK
6
CONTINUOUS
10
0.634147
20
1.26084
11
0.630649
21
1.2669
0
LINE
8
BLACK
6
CONTINUOUS
10
0.630649
20
1.2669
11
0.628487
21
1.27355
0
LINE
8
BLACK
6
CONTINUOUS
10
0.628487
20
1.27355
11
0.627756
21
1.28051
0
LINE
8
BLACK
6
CONTINUOUS
10
0.627756
20
1.28051
11
0.628487
21
1.28747
0
LINE
8
BLACK
6
CONTINUOUS
10
0.628487
20
1.28747
11
0.630649
21
1.29412
0
LINE
8
BLACK
6
CONTINUOUS
10
0.630649
20
1.29412
11
0.634147
21
1.30018
0
LINE
8
BLACK
6
CONTINUOUS
10
0.634147
20
1.30018
11
0.638828
21
1.30538
0
LINE
8
BLACK
6
CONTINUOUS
10
0.638828
20
1.30538
11
0.644488
21
1.30949
0
LINE
8
BLACK
6
CONTINUOUS
10
0.644488
20
1.30949
11
0.650879
21
1.31234
0
LINE
8
BLACK
6
CONTINUOUS
10
0.650879
20
1.31234
11
0.657722
21
1.31379
0
LINE
8
BLACK
6
CONTINUOUS
10
0.657722
20
1.31379
11
0.664718
21
1.31379
0
LINE
8
BLACK
6
CONTINUOUS
10
0.664718
20
1.31379
11
0.671562
21
1.31234
0
LINE
8
BLACK
6
CONTINUOUS
10
0.869685
20
1.39094
11
0.802756
21
1.39094
0
LINE
8
BLACK
6
CONTINUOUS
10
0.802756
20
1.39094
11
0.802756
21
1.45787
0
LINE
8
BLACK
6
CONTINUOUS
10
0.802756
20
1.45787
11
0.869685
21
1.45787
0
LINE
8
BLACK
6
CONTINUOUS
10
0.869685
20
1.45787
11
0.869685
21
1.39094
0
LINE
8
BLACK
6
CONTINUOUS
10
0.746562
20
1.45624
11
0.752953
21
1.45339
0
LINE
8
BLACK
6
CONTINUOUS
10
0.752953
20
1.45339
11
0.758613
21
1.44928
0
LINE
8
BLACK
6
CONTINUOUS
10
0.758613
20
1.44928
11
0.763294
21
1.44408
0
LINE
8
BLACK
6
CONTINUOUS
10
0.763294
20
1.44408
11
0.766792
21
1.43802
0
LINE
8
BLACK
6
CONTINUOUS
10
0.766792
20
1.43802
11
0.768954
21
1.43137
0
LINE
8
BLACK
6
CONTINUOUS
10
0.768954
20
1.43137
11
0.769685
21
1.42441
0
LINE
8
BLACK
6
CONTINUOUS
10
0.769685
20
1.42441
11
0.768954
21
1.41745
0
LINE
8
BLACK
6
CONTINUOUS
10
0.768954
20
1.41745
11
0.766792
21
1.4108
0
LINE
8
BLACK
6
CONTINUOUS
10
0.766792
20
1.4108
11
0.763294
21
1.40474
0
LINE
8
BLACK
6
CONTINUOUS
10
0.763294
20
1.40474
11
0.758613
21
1.39954
0
LINE
8
BLACK
6
CONTINUOUS
10
0.758613
20
1.39954
11
0.752953
21
1.39543
0
LINE
8
BLACK
6
CONTINUOUS
10
0.752953
20
1.39543
11
0.746562
21
1.39258
0
LINE
8
BLACK
6
CONTINUOUS
10
0.746562
20
1.39258
11
0.739718
21
1.39113
0
LINE
8
BLACK
6
CONTINUOUS
10
0.739718
20
1.39113
11
0.732722
21
1.39113
0
LINE
8
BLACK
6
CONTINUOUS
10
0.732722
20
1.39113
11
0.725879
21
1.39258
0
LINE
8
BLACK
6
CONTINUOUS
10
0.725879
20
1.39258
11
0.719488
21
1.39543
0
LINE
8
BLACK
6
CONTINUOUS
10
0.719488
20
1.39543
11
0.713828
21
1.39954
0
LINE
8
BLACK
6
CONTINUOUS
10
0.713828
20
1.39954
11
0.709147
21
1.40474
0
LINE
8
BLACK
6
CONTINUOUS
10
0.709147
20
1.40474
11
0.705649
21
1.4108
0
LINE
8
BLACK
6
CONTINUOUS
10
0.705649
20
1.4108
11
0.703487
21
1.41745
0
LINE
8
BLACK
6
CONTINUOUS
10
0.703487
20
1.41745
11
0.702756
21
1.42441
0
LINE
8
BLACK
6
CONTINUOUS
10
0.702756
20
1.42441
11
0.703487
21
1.43137
0
LINE
8
BLACK
6
CONTINUOUS
10
0.703487
20
1.43137
11
0.705649
21
1.43802
0
LINE
8
BLACK
6
CONTINUOUS
10
0.705649
20
1.43802
11
0.709147
21
1.44408
0
LINE
8
BLACK
6
CONTINUOUS
10
0.709147
20
1.44408
11
0.713828
21
1.44928
0
LINE
8
BLACK
6
CONTINUOUS
10
0.713828
20
1.44928
11
0.719488
21
1.45339
0
LINE
8
BLACK
6
CONTINUOUS
10
0.719488
20
1.45339
11
0.725879
21
1.45624
0
LINE
8
BLACK
6
CONTINUOUS
10
0.725879
20
1.45624
11
0.732722
21
1.45769
0
LINE
8
BLACK
6
CONTINUOUS
10
0.732722
20
1.45769
11
0.739718
21
1.45769
0
LINE
8
BLACK
6
CONTINUOUS
10
0.739718
20
1.45769
11
0.746562
21
1.45624
0
LINE
8
BLACK
6
CONTINUOUS
10
1.28414
20
1.51224
11
1.29242
21
1.51002
0
LINE
8
BLACK
6
CONTINUOUS
10
1.29242
20
1.51002
11
1.3002
21
1.5064
0
LINE
8
BLACK
6
CONTINUOUS
10
1.3002
20
1.5064
11
1.30722
21
1.50148
0
LINE
8
BLACK
6
CONTINUOUS
10
1.30722
20
1.50148
11
1.31329
21
1.49541
0
LINE
8
BLACK
6
CONTINUOUS
10
1.31329
20
1.49541
11
1.31821
21
1.48839
0
LINE
8
BLACK
6
CONTINUOUS
10
1.31821
20
1.48839
11
1.32184
21
1.48061
0
LINE
8
BLACK
6
CONTINUOUS
10
1.32184
20
1.48061
11
1.32406
21
1.47233
0
LINE
8
BLACK
6
CONTINUOUS
10
1.32406
20
1.47233
11
1.3248
21
1.46378
0
LINE
8
BLACK
6
CONTINUOUS
10
1.3248
20
1.46378
11
1.32406
21
1.45523
0
LINE
8
BLACK
6
CONTINUOUS
10
1.32406
20
1.45523
11
1.32184
21
1.44695
0
LINE
8
BLACK
6
CONTINUOUS
10
1.32184
20
1.44695
11
1.31821
21
1.43917
0
LINE
8
BLACK
6
CONTINUOUS
10
1.31821
20
1.43917
11
1.31329
21
1.43215
0
LINE
8
BLACK
6
CONTINUOUS
10
1.31329
20
1.43215
11
1.30722
21
1.42608
0
LINE
8
BLACK
6
CONTINUOUS
10
1.30722
20
1.42608
11
1.3002
21
1.42116
0
LINE
8
BLACK
6
CONTINUOUS
10
1.3002
20
1.42116
11
1.29242
21
1.41753
0
LINE
8
BLACK
6
CONTINUOUS
10
1.29242
20
1.41753
11
1.28414
21
1.41531
0
LINE
8
BLACK
6
CONTINUOUS
10
1.28414
20
1.41531
11
1.27559
21
1.41457
0
LINE
8
BLACK
6
CONTINUOUS
10
1.27559
20
1.41457
11
1.26704
21
1.41531
0
LINE
8
BLACK
6
CONTINUOUS
10
1.26704
20
1.41531
11
1.25876
21
1.41753
0
LINE
8
BLACK
6
CONTINUOUS
10
1.25876
20
1.41753
11
1.25098
21
1.42116
0
LINE
8
BLACK
6
CONTINUOUS
10
1.25098
20
1.42116
11
1.24396
21
1.42608
0
LINE
8
BLACK
6
CONTINUOUS
10
1.24396
20
1.42608
11
1.23789
21
1.43215
0
LINE
8
BLACK
6
CONTINUOUS
10
1.23789
20
1.43215
11
1.23297
21
1.43917
0
LINE
8
BLACK
6
CONTINUOUS
10
1.23297
20
1.43917
11
1.22935
21
1.44695
0
LINE
8
BLACK
6
CONTINUOUS
10
1.22935
20
1.44695
11
1.22713
21
1.45523
0
LINE
8
BLACK
6
CONTINUOUS
10
1.22713
20
1.45523
11
1.22638
21
1.46378
0
LINE
8
BLACK
6
CONTINUOUS
10
1.22638
20
1.46378
11
1.22713
21
1.47233
0
LINE
8
BLACK
6
CONTINUOUS
10
1.22713
20
1.47233
11
1.22935
21
1.48061
0
LINE
8
BLACK
6
CONTINUOUS
10
1.22935
20
1.48061
11
1.23297
21
1.48839
0
LINE
8
BLACK
6
CONTINUOUS
10
1.23297
20
1.48839
11
1.23789
21
1.49541
0
LINE
8
BLACK
6
CONTINUOUS
10
1.23789
20
1.49541
11
1.24396
21
1.50148
0
LINE
8
BLACK
6
CONTINUOUS
10
1.24396
20
1.50148
11
1.25098
21
1.5064
0
LINE
8
BLACK
6
CONTINUOUS
10
1.25098
20
1.5064
11
1.25876
21
1.51002
0
LINE
8
BLACK
6
CONTINUOUS
10
1.25876
20
1.51002
11
1.26704
21
1.51224
0
LINE
8
BLACK
6
CONTINUOUS
10
1.26704
20
1.51224
11
1.27559
21
1.51299
0
LINE
8
BLACK
6
CONTINUOUS
10
1.27559
20
1.51299
11
1.28414
21
1.51224
0
LINE
8
BLACK
6
CONTINUOUS
10
1.60697
20
1.51224
11
1.61526
21
1.51002
0
LINE
8
BLACK
6
CONTINUOUS
10
1.61526
20
1.51002
11
1.62303
21
1.5064
0
LINE
8
BLACK
6
CONTINUOUS
10
1.62303
20
1.5064
11
1.63006
21
1.50148
0
LINE
8
BLACK
6
CONTINUOUS
10
1.63006
20
1.50148
11
1.63612
21
1.49541
0
LINE
8
BLACK
6
CONTINUOUS
10
1.63612
20
1.49541
11
1.64104
21
1.48839
0
LINE
8
BLACK
6
CONTINUOUS
10
1.64104
20
1.48839
11
1.64467
21
1.48061
0
LINE
8
BLACK
6
CONTINUOUS
10
1.64467
20
1.48061
11
1.64689
21
1.47233
0
LINE
8
BLACK
6
CONTINUOUS
10
1.64689
20
1.47233
11
1.64764
21
1.46378
0
LINE
8
BLACK
6
CONTINUOUS
10
1.64764
20
1.46378
11
1.64689
21
1.45523
0
LINE
8
BLACK
6
CONTINUOUS
10
1.64689
20
1.45523
11
1.64467
21
1.44695
0
LINE
8
BLACK
6
CONTINUOUS
10
1.64467
20
1.44695
11
1.64104
21
1.43917
0
LINE
8
BLACK
6
CONTINUOUS
10
1.64104
20
1.43917
11
1.63612
21
1.43215
0
LINE
8
BLACK
6
CONTINUOUS
10
1.63612
20
1.43215
11
1.63006
21
1.42608
0
LINE
8
BLACK
6
CONTINUOUS
10
1.63006
20
1.42608
11
1.62303
21
1.42116
0
LINE
8
BLACK
6
CONTINUOUS
10
1.62303
20
1.42116
11
1.61526
21
1.41753
0
LINE
8
BLACK
6
CONTINUOUS
10
1.61526
20
1.41753
11
1.60697
21
1.41531
0
LINE
8
BLACK
6
CONTINUOUS
10
1.60697
20
1.41531
11
1.59843
21
1.41457
0
LINE
8
BLACK
6
CONTINUOUS
10
1.59843
20
1.41457
11
1.58988
21
1.41531
0
LINE
8
BLACK
6
CONTINUOUS
10
1.58988
20
1.41531
11
1.58159
21
1.41753
0
LINE
8
BLACK
6
CONTINUOUS
10
1.58159
20
1.41753
11
1.57382
21
1.42116
0
LINE
8
BLACK
6
CONTINUOUS
10
1.57382
20
1.42116
11
1.56679
21
1.42608
0
LINE
8
BLACK
6
CONTINUOUS
10
1.56679
20
1.42608
11
1.56073
21
1.43215
0
LINE
8
BLACK
6
CONTINUOUS
10
1.56073
20
1.43215
11
1.55581
21
1.43917
0
LINE
8
BLACK
6
CONTINUOUS
10
1.55581
20
1.43917
11
1.55218
21
1.44695
0
LINE
8
BLACK
6
CONTINUOUS
10
1.55218
20
1.44695
11
1.54996
21
1.45523
0
LINE
8
BLACK
6
CONTINUOUS
10
1.54996
20
1.45523
11
1.54921
21
1.46378
0
LINE
8
BLACK
6
CONTINUOUS
10
1.54921
20
1.46378
11
1.54996
21
1.47233
0
LINE
8
BLACK
6
CONTINUOUS
10
1.54996
20
1.47233
11
1.55218
21
1.48061
0
LINE
8
BLACK
6
CONTINUOUS
10
1.55218
20
1.48061
11
1.55581
21
1.48839
0
LINE
8
BLACK
6
CONTINUOUS
10
1.55581
20
1.48839
11
1.56073
21
1.49541
0
LINE
8
BLACK
6
CONTINUOUS
10
1.56073
20
1.49541
11
1.56679
21
1.50148
0
LINE
8
BLACK
6
CONTINUOUS
10
1.56679
20
1.50148
11
1.57382
21
1.5064
0
LINE
8
BLACK
6
CONTINUOUS
10
1.57382
20
1.5064
11
1.58159
21
1.51002
0
LINE
8
BLACK
6
CONTINUOUS
10
1.58159
20
1.51002
11
1.58988
21
1.51224
0
LINE
8
BLACK
6
CONTINUOUS
10
1.58988
20
1.51224
11
1.59843
21
1.51299
0
LINE
8
BLACK
6
CONTINUOUS
10
1.59843
20
1.51299
11
1.60697
21
1.51224
0
LINE
8
BLACK
6
CONTINUOUS
10
0.450787
20
1.52776
11
0.383858
21
1.52776
0
LINE
8
BLACK
6
CONTINUOUS
10
0.383858
20
1.52776
11
0.383858
21
1.59469
0
LINE
8
BLACK
6
CONTINUOUS
10
0.383858
20
1.59469
11
0.450787
21
1.59469
0
LINE
8
BLACK
6
CONTINUOUS
10
0.450787
20
1.59469
11
0.450787
21
1.52776
0
LINE
8
BLACK
6
CONTINUOUS
10
0.327664
20
1.59305
11
0.334055
21
1.5902
0
LINE
8
BLACK
6
CONTINUOUS
10
0.334055
20
1.5902
11
0.339715
21
1.58609
0
LINE
8
BLACK
6
CONTINUOUS
10
0.339715
20
1.58609
11
0.344396
21
1.58089
0
LINE
8
BLACK
6
CONTINUOUS
10
0.344396
20
1.58089
11
0.347894
21
1.57483
0
LINE
8
BLACK
6
CONTINUOUS
10
0.347894
20
1.57483
11
0.350056
21
1.56818
0
LINE
8
BLACK
6
CONTINUOUS
10
0.350056
20
1.56818
11
0.350787
21
1.56122
0
LINE
8
BLACK
6
CONTINUOUS
10
0.350787
20
1.56122
11
0.350056
21
1.55426
0
LINE
8
BLACK
6
CONTINUOUS
10
0.350056
20
1.55426
11
0.347894
21
1.54761
0
LINE
8
BLACK
6
CONTINUOUS
10
0.347894
20
1.54761
11
0.344396
21
1.54155
0
LINE
8
BLACK
6
CONTINUOUS
10
0.344396
20
1.54155
11
0.339715
21
1.53635
0
LINE
8
BLACK
6
CONTINUOUS
10
0.339715
20
1.53635
11
0.334055
21
1.53224
0
LINE
8
BLACK
6
CONTINUOUS
10
0.334055
20
1.53224
11
0.327664
21
1.52939
0
LINE
8
BLACK
6
CONTINUOUS
10
0.327664
20
1.52939
11
0.320821
21
1.52794
0
LINE
8
BLACK
6
CONTINUOUS
10
0.320821
20
1.52794
11
0.313825
21
1.52794
0
LINE
8
BLACK
6
CONTINUOUS
10
0.313825
20
1.52794
11
0.306982
21
1.52939
0
LINE
8
BLACK
6
CONTINUOUS
10
0.306982
20
1.52939
11
0.300591
21
1.53224
0
LINE
8
BLACK
6
CONTINUOUS
10
0.300591
20
1.53224
11
0.294931
21
1.53635
0
LINE
8
BLACK
6
CONTINUOUS
10
0.294931
20
1.53635
11
0.290249
21
1.54155
0
LINE
8
BLACK
6
CONTINUOUS
10
0.290249
20
1.54155
11
0.286751
21
1.54761
0
LINE
8
BLACK
6
CONTINUOUS
10
0.286751
20
1.54761
11
0.28459
21
1.55426
0
LINE
8
BLACK
6
CONTINUOUS
10
0.28459
20
1.55426
11
0.283858
21
1.56122
0
LINE
8
BLACK
6
CONTINUOUS
10
0.283858
20
1.56122
11
0.28459
21
1.56818
0
LINE
8
BLACK
6
CONTINUOUS
10
0.28459
20
1.56818
11
0.286751
21
1.57483
0
LINE
8
BLACK
6
CONTINUOUS
10
0.286751
20
1.57483
11
0.290249
21
1.58089
0
LINE
8
BLACK
6
CONTINUOUS
10
0.290249
20
1.58089
11
0.294931
21
1.58609
0
LINE
8
BLACK
6
CONTINUOUS
10
0.294931
20
1.58609
11
0.300591
21
1.5902
0
LINE
8
BLACK
6
CONTINUOUS
10
0.300591
20
1.5902
11
0.306982
21
1.59305
0
LINE
8
BLACK
6
CONTINUOUS
10
0.306982
20
1.59305
11
0.313825
21
1.5945
0
LINE
8
BLACK
6
CONTINUOUS
10
0.313825
20
1.5945
11
0.320821
21
1.5945
0
LINE
8
BLACK
6
CONTINUOUS
10
0.320821
20
1.5945
11
0.327664
21
1.59305
0
LINE
8
BLACK
6
CONTINUOUS
10
0.718504
20
1.54055
11
0.651575
21
1.54055
0
LINE
8
BLACK
6
CONTINUOUS
10
0.651575
20
1.54055
11
0.651575
21
1.60748
0
LINE
8
BLACK
6
CONTINUOUS
10
0.651575
20
1.60748
11
0.718504
21
1.60748
0
LINE
8
BLACK
6
CONTINUOUS
10
0.718504
20
1.60748
11
0.718504
21
1.54055
0
LINE
8
BLACK
6
CONTINUOUS
10
1.3248
20
1.61142
11
1.22638
21
1.61142
0
LINE
8
BLACK
6
CONTINUOUS
10
1.22638
20
1.61142
11
1.22638
21
1.70984
0
LINE
8
BLACK
6
CONTINUOUS
10
1.22638
20
1.70984
11
1.3248
21
1.70984
0
LINE
8
BLACK
6
CONTINUOUS
10
1.3248
20
1.70984
11
1.3248
21
1.61142
0
LINE
8
BLACK
6
CONTINUOUS
10
1.64764
20
1.61142
11
1.54921
21
1.61142
0
LINE
8
BLACK
6
CONTINUOUS
10
1.54921
20
1.61142
11
1.54921
21
1.70984
0
LINE
8
BLACK
6
CONTINUOUS
10
1.54921
20
1.70984
11
1.64764
21
1.70984
0
LINE
8
BLACK
6
CONTINUOUS
10
1.64764
20
1.70984
11
1.64764
21
1.61142
0
LINE
8
BLACK
6
CONTINUOUS
10
0.327664
20
1.69305
11
0.334055
21
1.6902
0
LINE
8
BLACK
6
CONTINUOUS
10
0.334055
20
1.6902
11
0.339715
21
1.68609
0
LINE
8
BLACK
6
CONTINUOUS
10
0.339715
20
1.68609
11
0.344396
21
1.68089
0
LINE
8
BLACK
6
CONTINUOUS
10
0.344396
20
1.68089
11
0.347894
21
1.67483
0
LINE
8
BLACK
6
CONTINUOUS
10
0.347894
20
1.67483
11
0.350056
21
1.66818
0
LINE
8
BLACK
6
CONTINUOUS
10
0.350056
20
1.66818
11
0.350787
21
1.66122
0
LINE
8
BLACK
6
CONTINUOUS
10
0.350787
20
1.66122
11
0.350056
21
1.65426
0
LINE
8
BLACK
6
CONTINUOUS
10
0.350056
20
1.65426
11
0.347894
21
1.64761
0
LINE
8
BLACK
6
CONTINUOUS
10
0.347894
20
1.64761
11
0.344396
21
1.64155
0
LINE
8
BLACK
6
CONTINUOUS
10
0.344396
20
1.64155
11
0.339715
21
1.63635
0
LINE
8
BLACK
6
CONTINUOUS
10
0.339715
20
1.63635
11
0.334055
21
1.63224
0
LINE
8
BLACK
6
CONTINUOUS
10
0.334055
20
1.63224
11
0.327664
21
1.62939
0
LINE
8
BLACK
6
CONTINUOUS
10
0.327664
20
1.62939
11
0.320821
21
1.62794
0
LINE
8
BLACK
6
CONTINUOUS
10
0.320821
20
1.62794
11
0.313825
21
1.62794
0
LINE
8
BLACK
6
CONTINUOUS
10
0.313825
20
1.62794
11
0.306982
21
1.62939
0
LINE
8
BLACK
6
CONTINUOUS
10
0.306982
20
1.62939
11
0.300591
21
1.63224
0
LINE
8
BLACK
6
CONTINUOUS
10
0.300591
20
1.63224
11
0.294931
21
1.63635
0
LINE
8
BLACK
6
CONTINUOUS
10
0.294931
20
1.63635
11
0.290249
21
1.64155
0
LINE
8
BLACK
6
CONTINUOUS
10
0.290249
20
1.64155
11
0.286751
21
1.64761
0
LINE
8
BLACK
6
CONTINUOUS
10
0.286751
20
1.64761
11
0.28459
21
1.65426
0
LINE
8
BLACK
6
CONTINUOUS
10
0.28459
20
1.65426
11
0.283858
21
1.66122
0
LINE
8
BLACK
6
CONTINUOUS
10
0.283858
20
1.66122
11
0.28459
21
1.66818
0
LINE
8
BLACK
6
CONTINUOUS
10
0.28459
20
1.66818
11
0.286751
21
1.67483
0
LINE
8
BLACK
6
CONTINUOUS
10
0.286751
20
1.67483
11
0.290249
21
1.68089
0
LINE
8
BLACK
6
CONTINUOUS
10
0.290249
20
1.68089
11
0.294931
21
1.68609
0
LINE
8
BLACK
6
CONTINUOUS
10
0.294931
20
1.68609
11
0.300591
21
1.6902
0
LINE
8
BLACK
6
CONTINUOUS
10
0.300591
20
1.6902
11
0.306982
21
1.69305
0
LINE
8
BLACK
6
CONTINUOUS
10
0.306982
20
1.69305
11
0.313825
21
1.6945
0
LINE
8
BLACK
6
CONTINUOUS
10
0.313825
20
1.6945
11
0.320821
21
1.6945
0
LINE
8
BLACK
6
CONTINUOUS
10
0.320821
20
1.6945
11
0.327664
21
1.69305
0
LINE
8
BLACK
6
CONTINUOUS
10
0.427664
20
1.69305
11
0.434055
21
1.6902
0
LINE
8
BLACK
6
CONTINUOUS
10
0.434055
20
1.6902
11
0.439715
21
1.68609
0
LINE
8
BLACK
6
CONTINUOUS
10
0.439715
20
1.68609
11
0.444396
21
1.68089
0
LINE
8
BLACK
6
CONTINUOUS
10
0.444396
20
1.68089
11
0.447894
21
1.67483
0
LINE
8
BLACK
6
CONTINUOUS
10
0.447894
20
1.67483
11
0.450056
21
1.66818
0
LINE
8
BLACK
6
CONTINUOUS
10
0.450056
20
1.66818
11
0.450787
21
1.66122
0
LINE
8
BLACK
6
CONTINUOUS
10
0.450787
20
1.66122
11
0.450056
21
1.65426
0
LINE
8
BLACK
6
CONTINUOUS
10
0.450056
20
1.65426
11
0.447894
21
1.64761
0
LINE
8
BLACK
6
CONTINUOUS
10
0.447894
20
1.64761
11
0.444396
21
1.64155
0
LINE
8
BLACK
6
CONTINUOUS
10
0.444396
20
1.64155
11
0.439715
21
1.63635
0
LINE
8
BLACK
6
CONTINUOUS
10
0.439715
20
1.63635
11
0.434055
21
1.63224
0
LINE
8
BLACK
6
CONTINUOUS
10
0.434055
20
1.63224
11
0.427664
21
1.62939
0
LINE
8
BLACK
6
CONTINUOUS
10
0.427664
20
1.62939
11
0.420821
21
1.62794
0
LINE
8
BLACK
6
CONTINUOUS
10
0.420821
20
1.62794
11
0.413825
21
1.62794
0
LINE
8
BLACK
6
CONTINUOUS
10
0.413825
20
1.62794
11
0.406982
21
1.62939
0
LINE
8
BLACK
6
CONTINUOUS
10
0.406982
20
1.62939
11
0.400591
21
1.63224
0
LINE
8
BLACK
6
CONTINUOUS
10
0.400591
20
1.63224
11
0.394931
21
1.63635
0
LINE
8
BLACK
6
CONTINUOUS
10
0.394931
20
1.63635
11
0.390249
21
1.64155
0
LINE
8
BLACK
6
CONTINUOUS
10
0.390249
20
1.64155
11
0.386751
21
1.64761
0
LINE
8
BLACK
6
CONTINUOUS
10
0.386751
20
1.64761
11
0.38459
21
1.65426
0
LINE
8
BLACK
6
CONTINUOUS
10
0.38459
20
1.65426
11
0.383858
21
1.66122
0
LINE
8
BLACK
6
CONTINUOUS
10
0.383858
20
1.66122
11
0.38459
21
1.66818
0
LINE
8
BLACK
6
CONTINUOUS
10
0.38459
20
1.66818
11
0.386751
21
1.67483
0
LINE
8
BLACK
6
CONTINUOUS
10
0.386751
20
1.67483
11
0.390249
21
1.68089
0
LINE
8
BLACK
6
CONTINUOUS
10
0.390249
20
1.68089
11
0.394931
21
1.68609
0
LINE
8
BLACK
6
CONTINUOUS
10
0.394931
20
1.68609
11
0.400591
21
1.6902
0
LINE
8
BLACK
6
CONTINUOUS
10
0.400591
20
1.6902
11
0.406982
21
1.69305
0
LINE
8
BLACK
6
CONTINUOUS
10
0.406982
20
1.69305
11
0.413825
21
1.6945
0
LINE
8
BLACK
6
CONTINUOUS
10
0.413825
20
1.6945
11
0.420821
21
1.6945
0
LINE
8
BLACK
6
CONTINUOUS
10
0.420821
20
1.6945
11
0.427664
21
1.69305
0
LINE
8
BLACK
6
CONTINUOUS
10
0.69538
20
1.70584
11
0.701772
21
1.703
0
LINE
8
BLACK
6
CONTINUOUS
10
0.701772
20
1.703
11
0.707432
21
1.69888
0
LINE
8
BLACK
6
CONTINUOUS
10
0.707432
20
1.69888
11
0.712113
21
1.69369
0
LINE
8
BLACK
6
CONTINUOUS
10
0.712113
20
1.69369
11
0.715611
21
1.68763
0
LINE
8
BLACK
6
CONTINUOUS
10
0.715611
20
1.68763
11
0.717773
21
1.68097
0
LINE
8
BLACK
6
CONTINUOUS
10
0.717773
20
1.68097
11
0.718504
21
1.67402
0
LINE
8
BLACK
6
CONTINUOUS
10
0.718504
20
1.67402
11
0.717773
21
1.66706
0
LINE
8
BLACK
6
CONTINUOUS
10
0.717773
20
1.66706
11
0.715611
21
1.6604
0
LINE
8
BLACK
6
CONTINUOUS
10
0.715611
20
1.6604
11
0.712113
21
1.65435
0
LINE
8
BLACK
6
CONTINUOUS
10
0.712113
20
1.65435
11
0.707432
21
1.64915
0
LINE
8
BLACK
6
CONTINUOUS
10
0.707432
20
1.64915
11
0.701772
21
1.64503
0
LINE
8
BLACK
6
CONTINUOUS
10
0.701772
20
1.64503
11
0.69538
21
1.64219
0
LINE
8
BLACK
6
CONTINUOUS
10
0.69538
20
1.64219
11
0.688537
21
1.64073
0
LINE
8
BLACK
6
CONTINUOUS
10
0.688537
20
1.64073
11
0.681541
21
1.64073
0
LINE
8
BLACK
6
CONTINUOUS
10
0.681541
20
1.64073
11
0.674698
21
1.64219
0
LINE
8
BLACK
6
CONTINUOUS
10
0.674698
20
1.64219
11
0.668307
21
1.64503
0
LINE
8
BLACK
6
CONTINUOUS
10
0.668307
20
1.64503
11
0.662647
21
1.64915
0
LINE
8
BLACK
6
CONTINUOUS
10
0.662647
20
1.64915
11
0.657966
21
1.65435
0
LINE
8
BLACK
6
CONTINUOUS
10
0.657966
20
1.65435
11
0.654468
21
1.6604
0
LINE
8
BLACK
6
CONTINUOUS
10
0.654468
20
1.6604
11
0.652306
21
1.66706
0
LINE
8
BLACK
6
CONTINUOUS
10
0.652306
20
1.66706
11
0.651575
21
1.67402
0
LINE
8
BLACK
6
CONTINUOUS
10
0.651575
20
1.67402
11
0.652306
21
1.68097
0
LINE
8
BLACK
6
CONTINUOUS
10
0.652306
20
1.68097
11
0.654468
21
1.68763
0
LINE
8
BLACK
6
CONTINUOUS
10
0.654468
20
1.68763
11
0.657966
21
1.69369
0
LINE
8
BLACK
6
CONTINUOUS
10
0.657966
20
1.69369
11
0.662647
21
1.69888
0
LINE
8
BLACK
6
CONTINUOUS
10
0.662647
20
1.69888
11
0.668307
21
1.703
0
LINE
8
BLACK
6
CONTINUOUS
10
0.668307
20
1.703
11
0.674698
21
1.70584
0
LINE
8
BLACK
6
CONTINUOUS
10
0.674698
20
1.70584
11
0.681541
21
1.7073
0
LINE
8
BLACK
6
CONTINUOUS
10
0.681541
20
1.7073
11
0.688537
21
1.7073
0
LINE
8
BLACK
6
CONTINUOUS
10
0.688537
20
1.7073
11
0.69538
21
1.70584
0
LINE
8
BLACK
6
CONTINUOUS
10
0.327664
20
1.79305
11
0.334055
21
1.7902
0
LINE
8
BLACK
6
CONTINUOUS
10
0.334055
20
1.7902
11
0.339715
21
1.78609
0
LINE
8
BLACK
6
CONTINUOUS
10
0.339715
20
1.78609
11
0.344396
21
1.78089
0
LINE
8
BLACK
6
CONTINUOUS
10
0.344396
20
1.78089
11
0.347894
21
1.77483
0
LINE
8
BLACK
6
CONTINUOUS
10
0.347894
20
1.77483
11
0.350056
21
1.76818
0
LINE
8
BLACK
6
CONTINUOUS
10
0.350056
20
1.76818
11
0.350787
21
1.76122
0
LINE
8
BLACK
6
CONTINUOUS
10
0.350787
20
1.76122
11
0.350056
21
1.75426
0
LINE
8
BLACK
6
CONTINUOUS
10
0.350056
20
1.75426
11
0.347894
21
1.74761
0
LINE
8
BLACK
6
CONTINUOUS
10
0.347894
20
1.74761
11
0.344396
21
1.74155
0
LINE
8
BLACK
6
CONTINUOUS
10
0.344396
20
1.74155
11
0.339715
21
1.73635
0
LINE
8
BLACK
6
CONTINUOUS
10
0.339715
20
1.73635
11
0.334055
21
1.73224
0
LINE
8
BLACK
6
CONTINUOUS
10
0.334055
20
1.73224
11
0.327664
21
1.72939
0
LINE
8
BLACK
6
CONTINUOUS
10
0.327664
20
1.72939
11
0.320821
21
1.72794
0
LINE
8
BLACK
6
CONTINUOUS
10
0.320821
20
1.72794
11
0.313825
21
1.72794
0
LINE
8
BLACK
6
CONTINUOUS
10
0.313825
20
1.72794
11
0.306982
21
1.72939
0
LINE
8
BLACK
6
CONTINUOUS
10
0.306982
20
1.72939
11
0.300591
21
1.73224
0
LINE
8
BLACK
6
CONTINUOUS
10
0.300591
20
1.73224
11
0.294931
21
1.73635
0
LINE
8
BLACK
6
CONTINUOUS
10
0.294931
20
1.73635
11
0.290249
21
1.74155
0
LINE
8
BLACK
6
CONTINUOUS
10
0.290249
20
1.74155
11
0.286751
21
1.74761
0
LINE
8
BLACK
6
CONTINUOUS
10
0.286751
20
1.74761
11
0.28459
21
1.75426
0
LINE
8
BLACK
6
CONTINUOUS
10
0.28459
20
1.75426
11
0.283858
21
1.76122
0
LINE
8
BLACK
6
CONTINUOUS
10
0.283858
20
1.76122
11
0.28459
21
1.76818
0
LINE
8
BLACK
6
CONTINUOUS
10
0.28459
20
1.76818
11
0.286751
21
1.77483
0
LINE
8
BLACK
6
CONTINUOUS
10
0.286751
20
1.77483
11
0.290249
21
1.78089
0
LINE
8
BLACK
6
CONTINUOUS
10
0.290249
20
1.78089
11
0.294931
21
1.78609
0
LINE
8
BLACK
6
CONTINUOUS
10
0.294931
20
1.78609
11
0.300591
21
1.7902
0
LINE
8
BLACK
6
CONTINUOUS
10
0.300591
20
1.7902
11
0.306982
21
1.79305
0
LINE
8
BLACK
6
CONTINUOUS
10
0.306982
20
1.79305
11
0.313825
21
1.7945
0
LINE
8
BLACK
6
CONTINUOUS
10
0.313825
20
1.7945
11
0.320821
21
1.7945
0
LINE
8
BLACK
6
CONTINUOUS
10
0.320821
20
1.7945
11
0.327664
21
1.79305
0
LINE
8
BLACK
6
CONTINUOUS
10
0.427664
20
1.79305
11
0.434055
21
1.7902
0
LINE
8
BLACK
6
CONTINUOUS
10
0.434055
20
1.7902
11
0.439715
21
1.78609
0
LINE
8
BLACK
6
CONTINUOUS
10
0.439715
20
1.78609
11
0.444396
21
1.78089
0
LINE
8
BLACK
6
CONTINUOUS
10
0.444396
20
1.78089
11
0.447894
21
1.77483
0
LINE
8
BLACK
6
CONTINUOUS
10
0.447894
20
1.77483
11
0.450056
21
1.76818
0
LINE
8
BLACK
6
CONTINUOUS
10
0.450056
20
1.76818
11
0.450787
21
1.76122
0
LINE
8
BLACK
6
CONTINUOUS
10
0.450787
20
1.76122
11
0.450056
21
1.75426
0
LINE
8
BLACK
6
CONTINUOUS
10
0.450056
20
1.75426
11
0.447894
21
1.74761
0
LINE
8
BLACK
6
CONTINUOUS
10
0.447894
20
1.74761
11
0.444396
21
1.74155
0
LINE
8
BLACK
6
CONTINUOUS
10
0.444396
20
1.74155
11
0.439715
21
1.73635
0
LINE
8
BLACK
6
CONTINUOUS
10
0.439715
20
1.73635
11
0.434055
21
1.73224
0
LINE
8
BLACK
6
CONTINUOUS
10
0.434055
20
1.73224
11
0.427664
21
1.72939
0
LINE
8
BLACK
6
CONTINUOUS
10
0.427664
20
1.72939
11
0.420821
21
1.72794
0
LINE
8
BLACK
6
CONTINUOUS
10
0.420821
20
1.72794
11
0.413825
21
1.72794
0
LINE
8
BLACK
6
CONTINUOUS
10
0.413825
20
1.72794
11
0.406982
21
1.72939
0
LINE
8
BLACK
6
CONTINUOUS
10
0.406982
20
1.72939
11
0.400591
21
1.73224
0
LINE
8
BLACK
6
CONTINUOUS
10
0.400591
20
1.73224
11
0.394931
21
1.73635
0
LINE
8
BLACK
6
CONTINUOUS
10
0.394931
20
1.73635
11
0.390249
21
1.74155
0
LINE
8
BLACK
6
CONTINUOUS
10
0.390249
20
1.74155
11
0.386751
21
1.74761
0
LINE
8
BLACK
6
CONTINUOUS
10
0.386751
20
1.74761
11
0.38459
21
1.75426
0
LINE
8
BLACK
6
CONTINUOUS
10
0.38459
20
1.75426
11
0.383858
21
1.76122
0
LINE
8
BLACK
6
CONTINUOUS
10
0.383858
20
1.76122
11
0.38459
21
1.76818
0
LINE
8
BLACK
6
CONTINUOUS
10
0.38459
20
1.76818
11
0.386751
21
1.77483
0
LINE
8
BLACK
6
CONTINUOUS
10
0.386751
20
1.77483
11
0.390249
21
1.78089
0
LINE
8
BLACK
6
CONTINUOUS
10
0.390249
20
1.78089
11
0.394931
21
1.78609
0
LINE
8
BLACK
6
CONTINUOUS
10
0.394931
20
1.78609
11
0.400591
21
1.7902
0
LINE
8
BLACK
6
CONTINUOUS
10
0.400591
20
1.7902
11
0.406982
21
1.79305
0
LINE
8
BLACK
6
CONTINUOUS
10
0.406982
20
1.79305
11
0.413825
21
1.7945
0
LINE
8
BLACK
6
CONTINUOUS
10
0.413825
20
1.7945
11
0.420821
21
1.7945
0
LINE
8
BLACK
6
CONTINUOUS
10
0.420821
20
1.7945
11
0.427664
21
1.79305
0
LINE
8
BLACK
6
CONTINUOUS
10
0.69538
20
1.80584
11
0.701772
21
1.803
0
LINE
8
BLACK
6
CONTINUOUS
10
0.701772
20
1.803
11
0.707432
21
1.79888
0
LINE
8
BLACK
6
CONTINUOUS
10
0.707432
20
1.79888
11
0.712113
21
1.79369
0
LINE
8
BLACK
6
CONTINUOUS
10
0.712113
20
1.79369
11
0.715611
21
1.78763
0
LINE
8
BLACK
6
CONTINUOUS
10
0.715611
20
1.78763
11
0.717773
21
1.78097
0
LINE
8
BLACK
6
CONTINUOUS
10
0.717773
20
1.78097
11
0.718504
21
1.77402
0
LINE
8
BLACK
6
CONTINUOUS
10
0.718504
20
1.77402
11
0.717773
21
1.76706
0
LINE
8
BLACK
6
CONTINUOUS
10
0.717773
20
1.76706
11
0.715611
21
1.7604
0
LINE
8
BLACK
6
CONTINUOUS
10
0.715611
20
1.7604
11
0.712113
21
1.75435
0
LINE
8
BLACK
6
CONTINUOUS
10
0.712113
20
1.75435
11
0.707432
21
1.74915
0
LINE
8
BLACK
6
CONTINUOUS
10
0.707432
20
1.74915
11
0.701772
21
1.74503
0
LINE
8
BLACK
6
CONTINUOUS
10
0.701772
20
1.74503
11
0.69538
21
1.74219
0
LINE
8
BLACK
6
CONTINUOUS
10
0.69538
20
1.74219
11
0.688537
21
1.74073
0
LINE
8
BLACK
6
CONTINUOUS
10
0.688537
20
1.74073
11
0.681541
21
1.74073
0
LINE
8
BLACK
6
CONTINUOUS
10
0.681541
20
1.74073
11
0.674698
21
1.74219
0
LINE
8
BLACK
6
CONTINUOUS
10
0.674698
20
1.74219
11
0.668307
21
1.74503
0
LINE
8
BLACK
6
CONTINUOUS
10
0.668307
20
1.74503
11
0.662647
21
1.74915
0
LINE
8
BLACK
6
CONTINUOUS
10
0.662647
20
1.74915
11
0.657966
21
1.75435
0
LINE
8
BLACK
6
CONTINUOUS
10
0.657966
20
1.75435
11
0.654468
21
1.7604
0
LINE
8
BLACK
6
CONTINUOUS
10
0.654468
20
1.7604
11
0.652306
21
1.76706
0
LINE
8
BLACK
6
CONTINUOUS
10
0.652306
20
1.76706
11
0.651575
21
1.77402
0
LINE
8
BLACK
6
CONTINUOUS
10
0.651575
20
1.77402
11
0.652306
21
1.78097
0
LINE
8
BLACK
6
CONTINUOUS
10
0.652306
20
1.78097
11
0.654468
21
1.78763
0
LINE
8
BLACK
6
CONTINUOUS
10
0.654468
20
1.78763
11
0.657966
21
1.79369
0
LINE
8
BLACK
6
CONTINUOUS
10
0.657966
20
1.79369
11
0.662647
21
1.79888
0
LINE
8
BLACK
6
CONTINUOUS
10
0.662647
20
1.79888
11
0.668307
21
1.803
0
LINE
8
BLACK
6
CONTINUOUS
10
0.668307
20
1.803
11
0.674698
21
1.80584
0
LINE
8
BLACK
6
CONTINUOUS
10
0.674698
20
1.80584
11
0.681541
21
1.8073
0
LINE
8
BLACK
6
CONTINUOUS
10
0.681541
20
1.8073
11
0.688537
21
1.8073
0
LINE
8
BLACK
6
CONTINUOUS
10
0.688537
20
1.8073
11
0.69538
21
1.80584
0
LINE
8
BLACK
6
CONTINUOUS
10
0.42051
20
2.11632
11
0.433874
21
2.11315
0
LINE
8
BLACK
6
CONTINUOUS
10
0.433874
20
2.11315
11
0.446781
21
2.10845
0
LINE
8
BLACK
6
CONTINUOUS
10
0.446781
20
2.10845
11
0.459055
21
2.10229
0
LINE
8
BLACK
6
CONTINUOUS
10
0.459055
20
2.10229
11
0.470531
21
2.09474
0
LINE
8
BLACK
6
CONTINUOUS
10
0.470531
20
2.09474
11
0.481052
21
2.08591
0
LINE
8
BLACK
6
CONTINUOUS
10
0.481052
20
2.08591
11
0.490478
21
2.07592
0
LINE
8
BLACK
6
CONTINUOUS
10
0.490478
20
2.07592
11
0.49868
21
2.0649
0
LINE
8
BLACK
6
CONTINUOUS
10
0.49868
20
2.0649
11
0.505547
21
2.05301
0
LINE
8
BLACK
6
CONTINUOUS
10
0.505547
20
2.05301
11
0.510987
21
2.0404
0
LINE
8
BLACK
6
CONTINUOUS
10
0.510987
20
2.0404
11
0.514927
21
2.02724
0
LINE
8
BLACK
6
CONTINUOUS
10
0.514927
20
2.02724
11
0.517312
21
2.01371
0
LINE
8
BLACK
6
CONTINUOUS
10
0.517312
20
2.01371
11
0.51811
21
2
0
LINE
8
BLACK
6
CONTINUOUS
10
0.51811
20
2
11
0.517312
21
1.98629
0
LINE
8
BLACK
6
CONTINUOUS
10
0.517312
20
1.98629
11
0.514927
21
1.97276
0
LINE
8
BLACK
6
CONTINUOUS
10
0.514927
20
1.97276
11
0.510987
21
1.9596
0
LINE
8
BLACK
6
CONTINUOUS
10
0.510987
20
1.9596
11
0.505547
21
1.94699
0
LINE
8
BLACK
6
CONTINUOUS
10
0.505547
20
1.94699
11
0.49868
21
1.9351
0
LINE
8
BLACK
6
CONTINUOUS
10
0.49868
20
1.9351
11
0.490478
21
1.92408
0
LINE
8
BLACK
6
CONTINUOUS
10
0.490478
20
1.92408
11
0.481052
21
1.91409
0
LINE
8
BLACK
6
CONTINUOUS
10
0.481052
20
1.91409
11
0.470531
21
1.90526
0
LINE
8
BLACK
6
CONTINUOUS
10
0.470531
20
1.90526
11
0.459055
21
1.89771
0
LINE
8
BLACK
6
CONTINUOUS
10
0.459055
20
1.89771
11
0.446781
21
1.89155
0
LINE
8
BLACK
6
CONTINUOUS
10
0.446781
20
1.89155
11
0.433874
21
1.88685
0
LINE
8
BLACK
6
CONTINUOUS
10
0.433874
20
1.88685
11
0.42051
21
1.88368
0
LINE
8
BLACK
6
CONTINUOUS
10
0.42051
20
1.88368
11
0.406867
21
1.88209
0
LINE
8
BLACK
6
CONTINUOUS
10
0.406867
20
1.88209
11
0.393133
21
1.88209
0
LINE
8
BLACK
6
CONTINUOUS
10
0.393133
20
1.88209
11
0.37949
21
1.88368
0
LINE
8
BLACK
6
CONTINUOUS
10
0.37949
20
1.88368
11
0.366126
21
1.88685
0
LINE
8
BLACK
6
CONTINUOUS
10
0.366126
20
1.88685
11
0.353219
21
1.89155
0
LINE
8
BLACK
6
CONTINUOUS
10
0.353219
20
1.89155
11
0.340945
21
1.89771
0
LINE
8
BLACK
6
CONTINUOUS
10
0.340945
20
1.89771
11
0.329469
21
1.90526
0
LINE
8
BLACK
6
CONTINUOUS
10
0.329469
20
1.90526
11
0.318948
21
1.91409
0
LINE
8
BLACK
6
CONTINUOUS
10
0.318948
20
1.91409
11
0.309522
21
1.92408
0
LINE
8
BLACK
6
CONTINUOUS
10
0.309522
20
1.92408
11
0.30132
21
1.9351
0
LINE
8
BLACK
6
CONTINUOUS
10
0.30132
20
1.9351
11
0.294453
21
1.94699
0
LINE
8
BLACK
6
CONTINUOUS
10
0.294453
20
1.94699
11
0.289013
21
1.9596
0
LINE
8
BLACK
6
CONTINUOUS
10
0.289013
20
1.9596
11
0.285073
21
1.97276
0
LINE
8
BLACK
6
CONTINUOUS
10
0.285073
20
1.97276
11
0.282688
21
1.98629
0
LINE
8
BLACK
6
CONTINUOUS
10
0.282688
20
1.98629
11
0.28189
21
2
0
LINE
8
BLACK
6
CONTINUOUS
10
0.28189
20
2
11
0.282688
21
2.01371
0
LINE
8
BLACK
6
CONTINUOUS
10
0.282688
20
2.01371
11
0.285073
21
2.02724
0
LINE
8
BLACK
6
CONTINUOUS
10
0.285073
20
2.02724
11
0.289013
21
2.0404
0
LINE
8
BLACK
6
CONTINUOUS
10
0.289013
20
2.0404
11
0.294453
21
2.05301
0
LINE
8
BLACK
6
CONTINUOUS
10
0.294453
20
2.05301
11
0.30132
21
2.0649
0
LINE
8
BLACK
6
CONTINUOUS
10
0.30132
20
2.0649
11
0.309522
21
2.07592
0
LINE
8
BLACK
6
CONTINUOUS
10
0.309522
20
2.07592
11
0.318948
21
2.08591
0
LINE
8
BLACK
6
CONTINUOUS
10
0.318948
20
2.08591
11
0.329469
21
2.09474
0
LINE
8
BLACK
6
CONTINUOUS
10
0.329469
20
2.09474
11
0.340945
21
2.10229
0
LINE
8
BLACK
6
CONTINUOUS
10
0.340945
20
2.10229
11
0.353219
21
2.10845
0
LINE
8
BLACK
6
CONTINUOUS
10
0.353219
20
2.10845
11
0.366126
21
2.11315
0
LINE
8
BLACK
6
CONTINUOUS
10
0.366126
20
2.11315
11
0.37949
21
2.11632
0
LINE
8
BLACK
6
CONTINUOUS
10
0.37949
20
2.11632
11
0.393133
21
2.11791
0
LINE
8
BLACK
6
CONTINUOUS
10
0.393133
20
2.11791
11
0.406867
21
2.11791
0
LINE
8
BLACK
6
CONTINUOUS
10
0.406867
20
2.11791
11
0.42051
21
2.11632
0
LINE
8
BLACK
6
CONTINUOUS
10
1.62051
20
2.11632
11
1.63387
21
2.11315
0
LINE
8
BLACK
6
CONTINUOUS
10
1.63387
20
2.11315
11
1.64678
21
2.10845
0
LINE
8
BLACK
6
CONTINUOUS
10
1.64678
20
2.10845
11
1.65906
21
2.10229
0
LINE
8
BLACK
6
CONTINUOUS
10
1.65906
20
2.10229
11
1.67053
21
2.09474
0
LINE
8
BLACK
6
CONTINUOUS
10
1.67053
20
2.09474
11
1.68105
21
2.08591
0
LINE
8
BLACK
6
CONTINUOUS
10
1.68105
20
2.08591
11
1.69048
21
2.07592
0
LINE
8
BLACK
6
CONTINUOUS
10
1.69048
20
2.07592
11
1.69868
21
2.0649
0
LINE
8
BLACK
6
CONTINUOUS
10
1.69868
20
2.0649
11
1.70555
21
2.05301
0
LINE
8
BLACK
6
CONTINUOUS
10
1.70555
20
2.05301
11
1.71099
21
2.0404
0
LINE
8
BLACK
6
CONTINUOUS
10
1.71099
20
2.0404
11
1.71493
21
2.02724
0
LINE
8
BLACK
6
CONTINUOUS
10
1.71493
20
2.02724
11
1.71731
21
2.01371
0
LINE
8
BLACK
6
CONTINUOUS
10
1.71731
20
2.01371
11
1.71811
21
2
0
LINE
8
BLACK
6
CONTINUOUS
10
1.71811
20
2
11
1.71731
21
1.98629
0
LINE
8
BLACK
6
CONTINUOUS
10
1.71731
20
1.98629
11
1.71493
21
1.97276
0
LINE
8
BLACK
6
CONTINUOUS
10
1.71493
20
1.97276
11
1.71099
21
1.9596
0
LINE
8
BLACK
6
CONTINUOUS
10
1.71099
20
1.9596
11
1.70555
21
1.94699
0
LINE
8
BLACK
6
CONTINUOUS
10
1.70555
20
1.94699
11
1.69868
21
1.9351
0
LINE
8
BLACK
6
CONTINUOUS
10
1.69868
20
1.9351
11
1.69048
21
1.92408
0
LINE
8
BLACK
6
CONTINUOUS
10
1.69048
20
1.92408
11
1.68105
21
1.91409
0
LINE
8
BLACK
6
CONTINUOUS
10
1.68105
20
1.91409
11
1.67053
21
1.90526
0
LINE
8
BLACK
6
CONTINUOUS
10
1.67053
20
1.90526
11
1.65906
21
1.89771
0
LINE
8
BLACK
6
CONTINUOUS
10
1.65906
20
1.89771
11
1.64678
21
1.89155
0
LINE
8
BLACK
6
CONTINUOUS
10
1.64678
20
1.89155
11
1.63387
21
1.88685
0
LINE
8
BLACK
6
CONTINUOUS
10
1.63387
20
1.88685
11
1.62051
21
1.88368
0
LINE
8
BLACK
6
CONTINUOUS
10
1.62051
20
1.88368
11
1.60687
21
1.88209
0
LINE
8
BLACK
6
CONTINUOUS
10
1.60687
20
1.88209
11
1.59313
21
1.88209
0
LINE
8
BLACK
6
CONTINUOUS
10
1.59313
20
1.88209
11
1.57949
21
1.88368
0
LINE
8
BLACK
6
CONTINUOUS
10
1.57949
20
1.88368
11
1.56613
21
1.88685
0
LINE
8
BLACK
6
CONTINUOUS
10
1.56613
20
1.88685
11
1.55322
21
1.89155
0
LINE
8
BLACK
6
CONTINUOUS
10
1.55322
20
1.89155
11
1.54094
21
1.89771
0
LINE
8
BLACK
6
CONTINUOUS
10
1.54094
20
1.89771
11
1.52947
21
1.90526
0
LINE
8
BLACK
6
CONTINUOUS
10
1.52947
20
1.90526
11
1.51895
21
1.91409
0
LINE
8
BLACK
6
CONTINUOUS
10
1.51895
20
1.91409
11
1.50952
21
1.92408
0
LINE
8
BLACK
6
CONTINUOUS
10
1.50952
20
1.92408
11
1.50132
21
1.9351
0
LINE
8
BLACK
6
CONTINUOUS
10
1.50132
20
1.9351
11
1.49445
21
1.94699
0
LINE
8
BLACK
6
CONTINUOUS
10
1.49445
20
1.94699
11
1.48901
21
1.9596
0
LINE
8
BLACK
6
CONTINUOUS
10
1.48901
20
1.9596
11
1.48507
21
1.97276
0
LINE
8
BLACK
6
CONTINUOUS
10
1.48507
20
1.97276
11
1.48269
21
1.98629
0
LINE
8
BLACK
6
CONTINUOUS
10
1.48269
20
1.98629
11
1.48189
21
2
0
LINE
8
BLACK
6
CONTINUOUS
10
1.48189
20
2
11
1.48269
21
2.01371
0
LINE
8
BLACK
6
CONTINUOUS
10
1.48269
20
2.01371
11
1.48507
21
2.02724
0
LINE
8
BLACK
6
CONTINUOUS
10
1.48507
20
2.02724
11
1.48901
21
2.0404
0
LINE
8
BLACK
6
CONTINUOUS
10
1.48901
20
2.0404
11
1.49445
21
2.05301
0
LINE
8
BLACK
6
CONTINUOUS
10
1.49445
20
2.05301
11
1.50132
21
2.0649
0
LINE
8
BLACK
6
CONTINUOUS
10
1.50132
20
2.0649
11
1.50952
21
2.07592
0
LINE
8
BLACK
6
CONTINUOUS
10
1.50952
20
2.07592
11
1.51895
21
2.08591
0
LINE
8
BLACK
6
CONTINUOUS
10
1.51895
20
2.08591
11
1.52947
21
2.09474
0
LINE
8
BLACK
6
CONTINUOUS
10
1.52947
20
2.09474
11
1.54094
21
2.10229
0
LINE
8
BLACK
6
CONTINUOUS
10
1.54094
20
2.10229
11
1.55322
21
2.10845
0
LINE
8
BLACK
6
CONTINUOUS
10
1.55322
20
2.10845
11
1.56613
21
2.11315
0
LINE
8
BLACK
6
CONTINUOUS
10
1.56613
20
2.11315
11
1.57949
21
2.11632
0
LINE
8
BLACK
6
CONTINUOUS
10
1.57949
20
2.11632
11
1.59313
21
2.11791
0
LINE
8
BLACK
6
CONTINUOUS
10
1.59313
20
2.11791
11
1.60687
21
2.11791
0
LINE
8
BLACK
6
CONTINUOUS
10
1.60687
20
2.11791
11
1.62051
21
2.11632
0
LINE
8
BLACK
6
CONTINUOUS
10
0.810144
20
1.99876
11
0.816535
21
1.99591
0
LINE
8
BLACK
6
CONTINUOUS
10
0.816535
20
1.99591
11
0.822195
21
1.9918
0
LINE
8
BLACK
6
CONTINUOUS
10
0.822195
20
1.9918
11
0.826877
21
1.9866
0
LINE
8
BLACK
6
CONTINUOUS
10
0.826877
20
1.9866
11
0.830375
21
1.98054
0
LINE
8
BLACK
6
CONTINUOUS
10
0.830375
20
1.98054
11
0.832536
21
1.97389
0
LINE
8
BLACK
6
CONTINUOUS
10
0.832536
20
1.97389
11
0.833268
21
1.96693
0
LINE
8
BLACK
6
CONTINUOUS
10
0.833268
20
1.96693
11
0.832536
21
1.95997
0
LINE
8
BLACK
6
CONTINUOUS
10
0.832536
20
1.95997
11
0.830375
21
1.95332
0
LINE
8
BLACK
6
CONTINUOUS
10
0.830375
20
1.95332
11
0.826877
21
1.94726
0
LINE
8
BLACK
6
CONTINUOUS
10
0.826877
20
1.94726
11
0.822195
21
1.94206
0
LINE
8
BLACK
6
CONTINUOUS
10
0.822195
20
1.94206
11
0.816535
21
1.93795
0
LINE
8
BLACK
6
CONTINUOUS
10
0.816535
20
1.93795
11
0.810144
21
1.9351
0
LINE
8
BLACK
6
CONTINUOUS
10
0.810144
20
1.9351
11
0.803301
21
1.93365
0
LINE
8
BLACK
6
CONTINUOUS
10
0.803301
20
1.93365
11
0.796305
21
1.93365
0
LINE
8
BLACK
6
CONTINUOUS
10
0.796305
20
1.93365
11
0.789462
21
1.9351
0
LINE
8
BLACK
6
CONTINUOUS
10
0.789462
20
1.9351
11
0.783071
21
1.93795
0
LINE
8
BLACK
6
CONTINUOUS
10
0.783071
20
1.93795
11
0.777411
21
1.94206
0
LINE
8
BLACK
6
CONTINUOUS
10
0.777411
20
1.94206
11
0.77273
21
1.94726
0
LINE
8
BLACK
6
CONTINUOUS
10
0.77273
20
1.94726
11
0.769232
21
1.95332
0
LINE
8
BLACK
6
CONTINUOUS
10
0.769232
20
1.95332
11
0.76707
21
1.95997
0
LINE
8
BLACK
6
CONTINUOUS
10
0.76707
20
1.95997
11
0.766339
21
1.96693
0
LINE
8
BLACK
6
CONTINUOUS
10
0.766339
20
1.96693
11
0.76707
21
1.97389
0
LINE
8
BLACK
6
CONTINUOUS
10
0.76707
20
1.97389
11
0.769232
21
1.98054
0
LINE
8
BLACK
6
CONTINUOUS
10
0.769232
20
1.98054
11
0.77273
21
1.9866
0
LINE
8
BLACK
6
CONTINUOUS
10
0.77273
20
1.9866
11
0.777411
21
1.9918
0
LINE
8
BLACK
6
CONTINUOUS
10
0.777411
20
1.9918
11
0.783071
21
1.99591
0
LINE
8
BLACK
6
CONTINUOUS
10
0.783071
20
1.99591
11
0.789462
21
1.99876
0
LINE
8
BLACK
6
CONTINUOUS
10
0.789462
20
1.99876
11
0.796305
21
2.00021
0
LINE
8
BLACK
6
CONTINUOUS
10
0.796305
20
2.00021
11
0.803301
21
2.00021
0
LINE
8
BLACK
6
CONTINUOUS
10
0.803301
20
2.00021
11
0.810144
21
1.99876
0
LINE
8
BLACK
6
CONTINUOUS
10
0.910144
20
1.99876
11
0.916535
21
1.99591
0
LINE
8
BLACK
6
CONTINUOUS
10
0.916535
20
1.99591
11
0.922195
21
1.9918
0
LINE
8
BLACK
6
CONTINUOUS
10
0.922195
20
1.9918
11
0.926877
21
1.9866
0
LINE
8
BLACK
6
CONTINUOUS
10
0.926877
20
1.9866
11
0.930375
21
1.98054
0
LINE
8
BLACK
6
CONTINUOUS
10
0.930375
20
1.98054
11
0.932536
21
1.97389
0
LINE
8
BLACK
6
CONTINUOUS
10
0.932536
20
1.97389
11
0.933268
21
1.96693
0
LINE
8
BLACK
6
CONTINUOUS
10
0.933268
20
1.96693
11
0.932536
21
1.95997
0
LINE
8
BLACK
6
CONTINUOUS
10
0.932536
20
1.95997
11
0.930375
21
1.95332
0
LINE
8
BLACK
6
CONTINUOUS
10
0.930375
20
1.95332
11
0.926877
21
1.94726
0
LINE
8
BLACK
6
CONTINUOUS
10
0.926877
20
1.94726
11
0.922195
21
1.94206
0
LINE
8
BLACK
6
CONTINUOUS
10
0.922195
20
1.94206
11
0.916535
21
1.93795
0
LINE
8
BLACK
6
CONTINUOUS
10
0.916535
20
1.93795
11
0.910144
21
1.9351
0
LINE
8
BLACK
6
CONTINUOUS
10
0.910144
20
1.9351
11
0.903301
21
1.93365
0
LINE
8
BLACK
6
CONTINUOUS
10
0.903301
20
1.93365
11
0.896305
21
1.93365
0
LINE
8
BLACK
6
CONTINUOUS
10
0.896305
20
1.93365
11
0.889462
21
1.9351
0
LINE
8
BLACK
6
CONTINUOUS
10
0.889462
20
1.9351
11
0.883071
21
1.93795
0
LINE
8
BLACK
6
CONTINUOUS
10
0.883071
20
1.93795
11
0.877411
21
1.94206
0
LINE
8
BLACK
6
CONTINUOUS
10
0.877411
20
1.94206
11
0.87273
21
1.94726
0
LINE
8
BLACK
6
CONTINUOUS
10
0.87273
20
1.94726
11
0.869232
21
1.95332
0
LINE
8
BLACK
6
CONTINUOUS
10
0.869232
20
1.95332
11
0.86707
21
1.95997
0
LINE
8
BLACK
6
CONTINUOUS
10
0.86707
20
1.95997
11
0.866339
21
1.96693
0
LINE
8
BLACK
6
CONTINUOUS
10
0.866339
20
1.96693
11
0.86707
21
1.97389
0
LINE
8
BLACK
6
CONTINUOUS
10
0.86707
20
1.97389
11
0.869232
21
1.98054
0
LINE
8
BLACK
6
CONTINUOUS
10
0.869232
20
1.98054
11
0.87273
21
1.9866
0
LINE
8
BLACK
6
CONTINUOUS
10
0.87273
20
1.9866
11
0.877411
21
1.9918
0
LINE
8
BLACK
6
CONTINUOUS
10
0.877411
20
1.9918
11
0.883071
21
1.99591
0
LINE
8
BLACK
6
CONTINUOUS
10
0.883071
20
1.99591
11
0.889462
21
1.99876
0
LINE
8
BLACK
6
CONTINUOUS
10
0.889462
20
1.99876
11
0.896305
21
2.00021
0
LINE
8
BLACK
6
CONTINUOUS
10
0.896305
20
2.00021
11
0.903301
21
2.00021
0
LINE
8
BLACK
6
CONTINUOUS
10
0.903301
20
2.00021
11
0.910144
21
1.99876
0
LINE
8
BLACK
6
CONTINUOUS
10
1.01014
20
1.99876
11
1.01654
21
1.99591
0
LINE
8
BLACK
6
CONTINUOUS
10
1.01654
20
1.99591
11
1.0222
21
1.9918
0
LINE
8
BLACK
6
CONTINUOUS
10
1.0222
20
1.9918
11
1.02688
21
1.9866
0
LINE
8
BLACK
6
CONTINUOUS
10
1.02688
20
1.9866
11
1.03037
21
1.98054
0
LINE
8
BLACK
6
CONTINUOUS
10
1.03037
20
1.98054
11
1.03254
21
1.97389
0
LINE
8
BLACK
6
CONTINUOUS
10
1.03254
20
1.97389
11
1.03327
21
1.96693
0
LINE
8
BLACK
6
CONTINUOUS
10
1.03327
20
1.96693
11
1.03254
21
1.95997
0
LINE
8
BLACK
6
CONTINUOUS
10
1.03254
20
1.95997
11
1.03037
21
1.95332
0
LINE
8
BLACK
6
CONTINUOUS
10
1.03037
20
1.95332
11
1.02688
21
1.94726
0
LINE
8
BLACK
6
CONTINUOUS
10
1.02688
20
1.94726
11
1.0222
21
1.94206
0
LINE
8
BLACK
6
CONTINUOUS
10
1.0222
20
1.94206
11
1.01654
21
1.93795
0
LINE
8
BLACK
6
CONTINUOUS
10
1.01654
20
1.93795
11
1.01014
21
1.9351
0
LINE
8
BLACK
6
CONTINUOUS
10
1.01014
20
1.9351
11
1.0033
21
1.93365
0
LINE
8
BLACK
6
CONTINUOUS
10
1.0033
20
1.93365
11
0.996305
21
1.93365
0
LINE
8
BLACK
6
CONTINUOUS
10
0.996305
20
1.93365
11
0.989462
21
1.9351
0
LINE
8
BLACK
6
CONTINUOUS
10
0.989462
20
1.9351
11
0.983071
21
1.93795
0
LINE
8
BLACK
6
CONTINUOUS
10
0.983071
20
1.93795
11
0.977411
21
1.94206
0
LINE
8
BLACK
6
CONTINUOUS
10
0.977411
20
1.94206
11
0.97273
21
1.94726
0
LINE
8
BLACK
6
CONTINUOUS
10
0.97273
20
1.94726
11
0.969232
21
1.95332
0
LINE
8
BLACK
6
CONTINUOUS
10
0.969232
20
1.95332
11
0.96707
21
1.95997
0
LINE
8
BLACK
6
CONTINUOUS
10
0.96707
20
1.95997
11
0.966339
21
1.96693
0
LINE
8
BLACK
6
CONTINUOUS
10
0.966339
20
1.96693
11
0.96707
21
1.97389
0
LINE
8
BLACK
6
CONTINUOUS
10
0.96707
20
1.97389
11
0.969232
21
1.98054
0
LINE
8
BLACK
6
CONTINUOUS
10
0.969232
20
1.98054
11
0.97273
21
1.9866
0
LINE
8
BLACK
6
CONTINUOUS
10
0.97273
20
1.9866
11
0.977411
21
1.9918
0
LINE
8
BLACK
6
CONTINUOUS
10
0.977411
20
1.9918
11
0.983071
21
1.99591
0
LINE
8
BLACK
6
CONTINUOUS
10
0.983071
20
1.99591
11
0.989462
21
1.99876
0
LINE
8
BLACK
6
CONTINUOUS
10
0.989462
20
1.99876
11
0.996305
21
2.00021
0
LINE
8
BLACK
6
CONTINUOUS
10
0.996305
20
2.00021
11
1.0033
21
2.00021
0
LINE
8
BLACK
6
CONTINUOUS
10
1.0033
20
2.00021
11
1.01014
21
1.99876
0
LINE
8
BLACK
6
CONTINUOUS
10
1.11014
20
1.99876
11
1.11654
21
1.99591
0
LINE
8
BLACK
6
CONTINUOUS
10
1.11654
20
1.99591
11
1.1222
21
1.9918
0
LINE
8
BLACK
6
CONTINUOUS
10
1.1222
20
1.9918
11
1.12688
21
1.9866
0
LINE
8
BLACK
6
CONTINUOUS
10
1.12688
20
1.9866
11
1.13037
21
1.98054
0
LINE
8
BLACK
6
CONTINUOUS
10
1.13037
20
1.98054
11
1.13254
21
1.97389
0
LINE
8
BLACK
6
CONTINUOUS
10
1.13254
20
1.97389
11
1.13327
21
1.96693
0
LINE
8
BLACK
6
CONTINUOUS
10
1.13327
20
1.96693
11
1.13254
21
1.95997
0
LINE
8
BLACK
6
CONTINUOUS
10
1.13254
20
1.95997
11
1.13037
21
1.95332
0
LINE
8
BLACK
6
CONTINUOUS
10
1.13037
20
1.95332
11
1.12688
21
1.94726
0
LINE
8
BLACK
6
CONTINUOUS
10
1.12688
20
1.94726
11
1.1222
21
1.94206
0
LINE
8
BLACK
6
CONTINUOUS
10
1.1222
20
1.94206
11
1.11654
21
1.93795
0
LINE
8
BLACK
6
CONTINUOUS
10
1.11654
20
1.93795
11
1.11014
21
1.9351
0
LINE
8
BLACK
6
CONTINUOUS
10
1.11014
20
1.9351
11
1.1033
21
1.93365
0
LINE
8
BLACK
6
CONTINUOUS
10
1.1033
20
1.93365
11
1.09631
21
1.93365
0
LINE
8
BLACK
6
CONTINUOUS
10
1.09631
20
1.93365
11
1.08946
21
1.9351
0
LINE
8
BLACK
6
CONTINUOUS
10
1.08946
20
1.9351
11
1.08307
21
1.93795
0
LINE
8
BLACK
6
CONTINUOUS
10
1.08307
20
1.93795
11
1.07741
21
1.94206
0
LINE
8
BLACK
6
CONTINUOUS
10
1.07741
20
1.94206
11
1.07273
21
1.94726
0
LINE
8
BLACK
6
CONTINUOUS
10
1.07273
20
1.94726
11
1.06923
21
1.95332
0
LINE
8
BLACK
6
CONTINUOUS
10
1.06923
20
1.95332
11
1.06707
21
1.95997
0
LINE
8
BLACK
6
CONTINUOUS
10
1.06707
20
1.95997
11
1.06634
21
1.96693
0
LINE
8
BLACK
6
CONTINUOUS
10
1.06634
20
1.96693
11
1.06707
21
1.97389
0
LINE
8
BLACK
6
CONTINUOUS
10
1.06707
20
1.97389
11
1.06923
21
1.98054
0
LINE
8
BLACK
6
CONTINUOUS
10
1.06923
20
1.98054
11
1.07273
21
1.9866
0
LINE
8
BLACK
6
CONTINUOUS
10
1.07273
20
1.9866
11
1.07741
21
1.9918
0
LINE
8
BLACK
6
CONTINUOUS
10
1.07741
20
1.9918
11
1.08307
21
1.99591
0
LINE
8
BLACK
6
CONTINUOUS
10
1.08307
20
1.99591
11
1.08946
21
1.99876
0
LINE
8
BLACK
6
CONTINUOUS
10
1.08946
20
1.99876
11
1.09631
21
2.00021
0
LINE
8
BLACK
6
CONTINUOUS
10
1.09631
20
2.00021
11
1.1033
21
2.00021
0
LINE
8
BLACK
6
CONTINUOUS
10
1.1033
20
2.00021
11
1.11014
21
1.99876
0
LINE
8
BLACK
6
CONTINUOUS
10
1.21014
20
1.99876
11
1.21654
21
1.99591
0
LINE
8
BLACK
6
CONTINUOUS
10
1.21654
20
1.99591
11
1.2222
21
1.9918
0
LINE
8
BLACK
6
CONTINUOUS
10
1.2222
20
1.9918
11
1.22688
21
1.9866
0
LINE
8
BLACK
6
CONTINUOUS
10
1.22688
20
1.9866
11
1.23037
21
1.98054
0
LINE
8
BLACK
6
CONTINUOUS
10
1.23037
20
1.98054
11
1.23254
21
1.97389
0
LINE
8
BLACK
6
CONTINUOUS
10
1.23254
20
1.97389
11
1.23327
21
1.96693
0
LINE
8
BLACK
6
CONTINUOUS
10
1.23327
20
1.96693
11
1.23254
21
1.95997
0
LINE
8
BLACK
6
CONTINUOUS
10
1.23254
20
1.95997
11
1.23037
21
1.95332
0
LINE
8
BLACK
6
CONTINUOUS
10
1.23037
20
1.95332
11
1.22688
21
1.94726
0
LINE
8
BLACK
6
CONTINUOUS
10
1.22688
20
1.94726
11
1.2222
21
1.94206
0
LINE
8
BLACK
6
CONTINUOUS
10
1.2222
20
1.94206
11
1.21654
21
1.93795
0
LINE
8
BLACK
6
CONTINUOUS
10
1.21654
20
1.93795
11
1.21014
21
1.9351
0
LINE
8
BLACK
6
CONTINUOUS
10
1.21014
20
1.9351
11
1.2033
21
1.93365
0
LINE
8
BLACK
6
CONTINUOUS
10
1.2033
20
1.93365
11
1.19631
21
1.93365
0
LINE
8
BLACK
6
CONTINUOUS
10
1.19631
20
1.93365
11
1.18946
21
1.9351
0
LINE
8
BLACK
6
CONTINUOUS
10
1.18946
20
1.9351
11
1.18307
21
1.93795
0
LINE
8
BLACK
6
CONTINUOUS
10
1.18307
20
1.93795
11
1.17741
21
1.94206
0
LINE
8
BLACK
6
CONTINUOUS
10
1.17741
20
1.94206
11
1.17273
21
1.94726
0
LINE
8
BLACK
6
CONTINUOUS
10
1.17273
20
1.94726
11
1.16923
21
1.95332
0
LINE
8
BLACK
6
CONTINUOUS
10
1.16923
20
1.95332
11
1.16707
21
1.95997
0
LINE
8
BLACK
6
CONTINUOUS
10
1.16707
20
1.95997
11
1.16634
21
1.96693
0
LINE
8
BLACK
6
CONTINUOUS
10
1.16634
20
1.96693
11
1.16707
21
1.97389
0
LINE
8
BLACK
6
CONTINUOUS
10
1.16707
20
1.97389
11
1.16923
21
1.98054
0
LINE
8
BLACK
6
CONTINUOUS
10
1.16923
20
1.98054
11
1.17273
21
1.9866
0
LINE
8
BLACK
6
CONTINUOUS
10
1.17273
20
1.9866
11
1.17741
21
1.9918
0
LINE
8
BLACK
6
CONTINUOUS
10
1.17741
20
1.9918
11
1.18307
21
1.99591
0
LINE
8
BLACK
6
CONTINUOUS
10
1.18307
20
1.99591
11
1.18946
21
1.99876
0
LINE
8
BLACK
6
CONTINUOUS
10
1.18946
20
1.99876
11
1.19631
21
2.00021
0
LINE
8
BLACK
6
CONTINUOUS
10
1.19631
20
2.00021
11
1.2033
21
2.00021
0
LINE
8
BLACK
6
CONTINUOUS
10
1.2033
20
2.00021
11
1.21014
21
1.99876
0
LINE
8
BLACK
6
CONTINUOUS
10
1.23327
20
2.03346
11
1.16634
21
2.03346
0
LINE
8
BLACK
6
CONTINUOUS
10
1.16634
20
2.03346
11
1.16634
21
2.10039
0
LINE
8
BLACK
6
CONTINUOUS
10
1.16634
20
2.10039
11
1.23327
21
2.10039
0
LINE
8
BLACK
6
CONTINUOUS
10
1.23327
20
2.10039
11
1.23327
21
2.03346
0
LINE
8
BLACK
6
CONTINUOUS
10
0.810144
20
2.09876
11
0.816535
21
2.09591
0
LINE
8
BLACK
6
CONTINUOUS
10
0.816535
20
2.09591
11
0.822195
21
2.0918
0
LINE
8
BLACK
6
CONTINUOUS
10
0.822195
20
2.0918
11
0.826877
21
2.0866
0
LINE
8
BLACK
6
CONTINUOUS
10
0.826877
20
2.0866
11
0.830375
21
2.08054
0
LINE
8
BLACK
6
CONTINUOUS
10
0.830375
20
2.08054
11
0.832536
21
2.07389
0
LINE
8
BLACK
6
CONTINUOUS
10
0.832536
20
2.07389
11
0.833268
21
2.06693
0
LINE
8
BLACK
6
CONTINUOUS
10
0.833268
20
2.06693
11
0.832536
21
2.05997
0
LINE
8
BLACK
6
CONTINUOUS
10
0.832536
20
2.05997
11
0.830375
21
2.05332
0
LINE
8
BLACK
6
CONTINUOUS
10
0.830375
20
2.05332
11
0.826877
21
2.04726
0
LINE
8
BLACK
6
CONTINUOUS
10
0.826877
20
2.04726
11
0.822195
21
2.04206
0
LINE
8
BLACK
6
CONTINUOUS
10
0.822195
20
2.04206
11
0.816535
21
2.03795
0
LINE
8
BLACK
6
CONTINUOUS
10
0.816535
20
2.03795
11
0.810144
21
2.0351
0
LINE
8
BLACK
6
CONTINUOUS
10
0.810144
20
2.0351
11
0.803301
21
2.03365
0
LINE
8
BLACK
6
CONTINUOUS
10
0.803301
20
2.03365
11
0.796305
21
2.03365
0
LINE
8
BLACK
6
CONTINUOUS
10
0.796305
20
2.03365
11
0.789462
21
2.0351
0
LINE
8
BLACK
6
CONTINUOUS
10
0.789462
20
2.0351
11
0.783071
21
2.03795
0
LINE
8
BLACK
6
CONTINUOUS
10
0.783071
20
2.03795
11
0.777411
21
2.04206
0
LINE
8
BLACK
6
CONTINUOUS
10
0.777411
20
2.04206
11
0.77273
21
2.04726
0
LINE
8
BLACK
6
CONTINUOUS
10
0.77273
20
2.04726
11
0.769232
21
2.05332
0
LINE
8
BLACK
6
CONTINUOUS
10
0.769232
20
2.05332
11
0.76707
21
2.05997
0
LINE
8
BLACK
6
CONTINUOUS
10
0.76707
20
2.05997
11
0.766339
21
2.06693
0
LINE
8
BLACK
6
CONTINUOUS
10
0.766339
20
2.06693
11
0.76707
21
2.07389
0
LINE
8
BLACK
6
CONTINUOUS
10
0.76707
20
2.07389
11
0.769232
21
2.08054
0
LINE
8
BLACK
6
CONTINUOUS
10
0.769232
20
2.08054
11
0.77273
21
2.0866
0
LINE
8
BLACK
6
CONTINUOUS
10
0.77273
20
2.0866
11
0.777411
21
2.0918
0
LINE
8
BLACK
6
CONTINUOUS
10
0.777411
20
2.0918
11
0.783071
21
2.09591
0
LINE
8
BLACK
6
CONTINUOUS
10
0.783071
20
2.09591
11
0.789462
21
2.09876
0
LINE
8
BLACK
6
CONTINUOUS
10
0.789462
20
2.09876
11
0.796305
21
2.10021
0
LINE
8
BLACK
6
CONTINUOUS
10
0.796305
20
2.10021
11
0.803301
21
2.10021
0
LINE
8
BLACK
6
CONTINUOUS
10
0.803301
20
2.10021
11
0.810144
21
2.09876
0
LINE
8
BLACK
6
CONTINUOUS
10
0.910144
20
2.09876
11
0.916535
21
2.09591
0
LINE
8
BLACK
6
CONTINUOUS
10
0.916535
20
2.09591
11
0.922195
21
2.0918
0
LINE
8
BLACK
6
CONTINUOUS
10
0.922195
20
2.0918
11
0.926877
21
2.0866
0
LINE
8
BLACK
6
CONTINUOUS
10
0.926877
20
2.0866
11
0.930375
21
2.08054
0
LINE
8
BLACK
6
CONTINUOUS
10
0.930375
20
2.08054
11
0.932536
21
2.07389
0
LINE
8
BLACK
6
CONTINUOUS
10
0.932536
20
2.07389
11
0.933268
21
2.06693
0
LINE
8
BLACK
6
CONTINUOUS
10
0.933268
20
2.06693
11
0.932536
21
2.05997
0
LINE
8
BLACK
6
CONTINUOUS
10
0.932536
20
2.05997
11
0.930375
21
2.05332
0
LINE
8
BLACK
6
CONTINUOUS
10
0.930375
20
2.05332
11
0.926877
21
2.04726
0
LINE
8
BLACK
6
CONTINUOUS
10
0.926877
20
2.04726
11
0.922195
21
2.04206
0
LINE
8
BLACK
6
CONTINUOUS
10
0.922195
20
2.04206
11
0.916535
21
2.03795
0
LINE
8
BLACK
6
CONTINUOUS
10
0.916535
20
2.03795
11
0.910144
21
2.0351
0
LINE
8
BLACK
6
CONTINUOUS
10
0.910144
20
2.0351
11
0.903301
21
2.03365
0
LINE
8
BLACK
6
CONTINUOUS
10
0.903301
20
2.03365
11
0.896305
21
2.03365
0
LINE
8
BLACK
6
CONTINUOUS
10
0.896305
20
2.03365
11
0.889462
21
2.0351
0
LINE
8
BLACK
6
CONTINUOUS
10
0.889462
20
2.0351
11
0.883071
21
2.03795
0
LINE
8
BLACK
6
CONTINUOUS
10
0.883071
20
2.03795
11
0.877411
21
2.04206
0
LINE
8
BLACK
6
CONTINUOUS
10
0.877411
20
2.04206
11
0.87273
21
2.04726
0
LINE
8
BLACK
6
CONTINUOUS
10
0.87273
20
2.04726
11
0.869232
21
2.05332
0
LINE
8
BLACK
6
CONTINUOUS
10
0.869232
20
2.05332
11
0.86707
21
2.05997
0
LINE
8
BLACK
6
CONTINUOUS
10
0.86707
20
2.05997
11
0.866339
21
2.06693
0
LINE
8
BLACK
6
CONTINUOUS
10
0.866339
20
2.06693
11
0.86707
21
2.07389
0
LINE
8
BLACK
6
CONTINUOUS
10
0.86707
20
2.07389
11
0.869232
21
2.08054
0
LINE
8
BLACK
6
CONTINUOUS
10
0.869232
20
2.08054
11
0.87273
21
2.0866
0
LINE
8
BLACK
6
CONTINUOUS
10
0.87273
20
2.0866
11
0.877411
21
2.0918
0
LINE
8
BLACK
6
CONTINUOUS
10
0.877411
20
2.0918
11
0.883071
21
2.09591
0
LINE
8
BLACK
6
CONTINUOUS
10
0.883071
20
2.09591
11
0.889462
21
2.09876
0
LINE
8
BLACK
6
CONTINUOUS
10
0.889462
20
2.09876
11
0.896305
21
2.10021
0
LINE
8
BLACK
6
CONTINUOUS
10
0.896305
20
2.10021
11
0.903301
21
2.10021
0
LINE
8
BLACK
6
CONTINUOUS
10
0.903301
20
2.10021
11
0.910144
21
2.09876
0
LINE
8
BLACK
6
CONTINUOUS
10
1.01014
20
2.09876
11
1.01654
21
2.09591
0
LINE
8
BLACK
6
CONTINUOUS
10
1.01654
20
2.09591
11
1.0222
21
2.0918
0
LINE
8
BLACK
6
CONTINUOUS
10
1.0222
20
2.0918
11
1.02688
21
2.0866
0
LINE
8
BLACK
6
CONTINUOUS
10
1.02688
20
2.0866
11
1.03037
21
2.08054
0
LINE
8
BLACK
6
CONTINUOUS
10
1.03037
20
2.08054
11
1.03254
21
2.07389
0
LINE
8
BLACK
6
CONTINUOUS
10
1.03254
20
2.07389
11
1.03327
21
2.06693
0
LINE
8
BLACK
6
CONTINUOUS
10
1.03327
20
2.06693
11
1.03254
21
2.05997
0
LINE
8
BLACK
6
CONTINUOUS
10
1.03254
20
2.05997
11
1.03037
21
2.05332
0
LINE
8
BLACK
6
CONTINUOUS
10
1.03037
20
2.05332
11
1.02688
21
2.04726
0
LINE
8
BLACK
6
CONTINUOUS
10
1.02688
20
2.04726
11
1.0222
21
2.04206
0
LINE
8
BLACK
6
CONTINUOUS
10
1.0222
20
2.04206
11
1.01654
21
2.03795
0
LINE
8
BLACK
6
CONTINUOUS
10
1.01654
20
2.03795
11
1.01014
21
2.0351
0
LINE
8
BLACK
6
CONTINUOUS
10
1.01014
20
2.0351
11
1.0033
21
2.03365
0
LINE
8
BLACK
6
CONTINUOUS
10
1.0033
20
2.03365
11
0.996305
21
2.03365
0
LINE
8
BLACK
6
CONTINUOUS
10
0.996305
20
2.03365
11
0.989462
21
2.0351
0
LINE
8
BLACK
6
CONTINUOUS
10
0.989462
20
2.0351
11
0.983071
21
2.03795
0
LINE
8
BLACK
6
CONTINUOUS
10
0.983071
20
2.03795
11
0.977411
21
2.04206
0
LINE
8
BLACK
6
CONTINUOUS
10
0.977411
20
2.04206
11
0.97273
21
2.04726
0
LINE
8
BLACK
6
CONTINUOUS
10
0.97273
20
2.04726
11
0.969232
21
2.05332
0
LINE
8
BLACK
6
CONTINUOUS
10
0.969232
20
2.05332
11
0.96707
21
2.05997
0
LINE
8
BLACK
6
CONTINUOUS
10
0.96707
20
2.05997
11
0.966339
21
2.06693
0
LINE
8
BLACK
6
CONTINUOUS
10
0.966339
20
2.06693
11
0.96707
21
2.07389
0
LINE
8
BLACK
6
CONTINUOUS
10
0.96707
20
2.07389
11
0.969232
21
2.08054
0
LINE
8
BLACK
6
CONTINUOUS
10
0.969232
20
2.08054
11
0.97273
21
2.0866
0
LINE
8
BLACK
6
CONTINUOUS
10
0.97273
20
2.0866
11
0.977411
21
2.0918
0
LINE
8
BLACK
6
CONTINUOUS
10
0.977411
20
2.0918
11
0.983071
21
2.09591
0
LINE
8
BLACK
6
CONTINUOUS
10
0.983071
20
2.09591
11
0.989462
21
2.09876
0
LINE
8
BLACK
6
CONTINUOUS
10
0.989462
20
2.09876
11
0.996305
21
2.10021
0
LINE
8
BLACK
6
CONTINUOUS
10
0.996305
20
2.10021
11
1.0033
21
2.10021
0
LINE
8
BLACK
6
CONTINUOUS
10
1.0033
20
2.10021
11
1.01014
21
2.09876
0
LINE
8
BLACK
6
CONTINUOUS
10
1.11014
20
2.09876
11
1.11654
21
2.09591
0
LINE
8
BLACK
6
CONTINUOUS
10
1.11654
20
2.09591
11
1.1222
21
2.0918
0
LINE
8
BLACK
6
CONTINUOUS
10
1.1222
20
2.0918
11
1.12688
21
2.0866
0
LINE
8
BLACK
6
CONTINUOUS
10
1.12688
20
2.0866
11
1.13037
21
2.08054
0
LINE
8
BLACK
6
CONTINUOUS
10
1.13037
20
2.08054
11
1.13254
21
2.07389
0
LINE
8
BLACK
6
CONTINUOUS
10
1.13254
20
2.07389
11
1.13327
21
2.06693
0
LINE
8
BLACK
6
CONTINUOUS
10
1.13327
20
2.06693
11
1.13254
21
2.05997
0
LINE
8
BLACK
6
CONTINUOUS
10
1.13254
20
2.05997
11
1.13037
21
2.05332
0
LINE
8
BLACK
6
CONTINUOUS
10
1.13037
20
2.05332
11
1.12688
21
2.04726
0
LINE
8
BLACK
6
CONTINUOUS
10
1.12688
20
2.04726
11
1.1222
21
2.04206
0
LINE
8
BLACK
6
CONTINUOUS
10
1.1222
20
2.04206
11
1.11654
21
2.03795
0
LINE
8
BLACK
6
CONTINUOUS
10
1.11654
20
2.03795
11
1.11014
21
2.0351
0
LINE
8
BLACK
6
CONTINUOUS
10
1.11014
20
2.0351
11
1.1033
21
2.03365
0
LINE
8
BLACK
6
CONTINUOUS
10
1.1033
20
2.03365
11
1.09631
21
2.03365
0
LINE
8
BLACK
6
CONTINUOUS
10
1.09631
20
2.03365
11
1.08946
21
2.0351
0
LINE
8
BLACK
6
CONTINUOUS
10
1.08946
20
2.0351
11
1.08307
21
2.03795
0
LINE
8
BLACK
6
CONTINUOUS
10
1.08307
20
2.03795
11
1.07741
21
2.04206
0
LINE
8
BLACK
6
CONTINUOUS
10
1.07741
20
2.04206
11
1.07273
21
2.04726
0
LINE
8
BLACK
6
CONTINUOUS
10
1.07273
20
2.04726
11
1.06923
21
2.05332
0
LINE
8
BLACK
6
CONTINUOUS
10
1.06923
20
2.05332
11
1.06707
21
2.05997
0
LINE
8
BLACK
6
CONTINUOUS
10
1.06707
20
2.05997
11
1.06634
21
2.06693
0
LINE
8
BLACK
6
CONTINUOUS
10
1.06634
20
2.06693
11
1.06707
21
2.07389
0
LINE
8
BLACK
6
CONTINUOUS
10
1.06707
20
2.07389
11
1.06923
21
2.08054
0
LINE
8
BLACK
6
CONTINUOUS
10
1.06923
20
2.08054
11
1.07273
21
2.0866
0
LINE
8
BLACK
6
CONTINUOUS
10
1.07273
20
2.0866
11
1.07741
21
2.0918
0
LINE
8
BLACK
6
CONTINUOUS
10
1.07741
20
2.0918
11
1.08307
21
2.09591
0
LINE
8
BLACK
6
CONTINUOUS
10
1.08307
20
2.09591
11
1.08946
21
2.09876
0
LINE
8
BLACK
6
CONTINUOUS
10
1.08946
20
2.09876
11
1.09631
21
2.10021
0
LINE
8
BLACK
6
CONTINUOUS
10
1.09631
20
2.10021
11
1.1033
21
2.10021
0
LINE
8
BLACK
6
CONTINUOUS
10
1.1033
20
2.10021
11
1.11014
21
2.09876
  0
ENDSEC
  0
EOF
