  0
SECTION
  2
HEADER
  9
$ANGBASE
  50
0.0
  9
$ANGDIR
  70
1
  9
$MEASUREMENT
  70
0
  0
ENDSEC
  0
SECTION
  2
TABLES
  0
TABLE
  2
LTYPE
  70
4
  0
LTYPE
  5
40F
  2
CONTINUOUS
  70
0
  3
Solid line
  72
65
  73
0
  40
0.0
  0
LTYPE
  5
410
  2
DASHDOT
 70
0
  3
Dash Dot ____ _ ____ _
 72
65
 73
4
 40
2.0
 49
1.25
 49
-0.25
 49
0.25
 49
-0.25
  0
LTYPE
  5
411
  2
DASHED
 70
0
  3
Dashed __ __ __ __ __
 72
65
 73
2
 40
0.75
 49
0.5
 49
-0.25
  0
LTYPE
  5
43B
  2
DOTTED
 70
0
  3
Dotted .  .  .  .
 72
65
 73
2
 40
0.2
 49
0.0
 49
-0.2
  0
ENDTAB
  0
TABLE
  2
STYLE
  70
4
  0
STYLE
  2
KICAD
  70
0
  40
0
  41
1
  42
1
  50
0
  71
0
  3
isocp.shx
  0
STYLE
  2
KICADB
  70
0
  40
0
  41
1
  42
1
  50
0
  71
0
  3
isocp.shx
  0
STYLE
  2
KICADI
  70
0
  40
0
  41
1
  42
1
  50
15
  71
0
  3
isocp.shx
  0
STYLE
  2
KICADBI
  70
0
  40
0
  41
1
  42
1
  50
15
  71
0
  3
isocp.shx
  0
ENDTAB
  0
TABLE
  2
LAYER
  70
1
  0
LAYER
  2
BLACK
  70
0
  62
7
  6
CONTINUOUS
  0
ENDTAB
  0
ENDSEC
  0
SECTION
  2
ENTITIES
0
LINE
8
BLACK
6
CONTINUOUS
10
0.414063
20
0.52481
11
0.427949
21
0.522451
0
LINE
8
BLACK
6
CONTINUOUS
10
0.427949
20
0.522451
11
0.441483
21
0.518552
0
LINE
8
BLACK
6
CONTINUOUS
10
0.441483
20
0.518552
11
0.454496
21
0.513162
0
LINE
8
BLACK
6
CONTINUOUS
10
0.454496
20
0.513162
11
0.466823
21
0.506349
0
LINE
8
BLACK
6
CONTINUOUS
10
0.466823
20
0.506349
11
0.47831
21
0.498198
0
LINE
8
BLACK
6
CONTINUOUS
10
0.47831
20
0.498198
11
0.488813
21
0.488813
0
LINE
8
BLACK
6
CONTINUOUS
10
0.488813
20
0.488813
11
0.498198
21
0.47831
0
LINE
8
BLACK
6
CONTINUOUS
10
0.498198
20
0.47831
11
0.506349
21
0.466823
0
LINE
8
BLACK
6
CONTINUOUS
10
0.506349
20
0.466823
11
0.513162
21
0.454496
0
LINE
8
BLACK
6
CONTINUOUS
10
0.513162
20
0.454496
11
0.518552
21
0.441483
0
LINE
8
BLACK
6
CONTINUOUS
10
0.518552
20
0.441483
11
0.522451
21
0.427949
0
LINE
8
BLACK
6
CONTINUOUS
10
0.522451
20
0.427949
11
0.52481
21
0.414063
0
LINE
8
BLACK
6
CONTINUOUS
10
0.52481
20
0.414063
11
0.5256
21
0.4
0
LINE
8
BLACK
6
CONTINUOUS
10
0.5256
20
0.4
11
0.52481
21
0.385937
0
LINE
8
BLACK
6
CONTINUOUS
10
0.52481
20
0.385937
11
0.522451
21
0.372051
0
LINE
8
BLACK
6
CONTINUOUS
10
0.522451
20
0.372051
11
0.518552
21
0.358517
0
LINE
8
BLACK
6
CONTINUOUS
10
0.518552
20
0.358517
11
0.513162
21
0.345504
0
LINE
8
BLACK
6
CONTINUOUS
10
0.513162
20
0.345504
11
0.506349
21
0.333177
0
LINE
8
BLACK
6
CONTINUOUS
10
0.506349
20
0.333177
11
0.498198
21
0.32169
0
LINE
8
BLACK
6
CONTINUOUS
10
0.498198
20
0.32169
11
0.488813
21
0.311187
0
LINE
8
BLACK
6
CONTINUOUS
10
0.488813
20
0.311187
11
0.47831
21
0.301802
0
LINE
8
BLACK
6
CONTINUOUS
10
0.47831
20
0.301802
11
0.466823
21
0.293651
0
LINE
8
BLACK
6
CONTINUOUS
10
0.466823
20
0.293651
11
0.454496
21
0.286838
0
LINE
8
BLACK
6
CONTINUOUS
10
0.454496
20
0.286838
11
0.441483
21
0.281448
0
LINE
8
BLACK
6
CONTINUOUS
10
0.441483
20
0.281448
11
0.427949
21
0.277549
0
LINE
8
BLACK
6
CONTINUOUS
10
0.427949
20
0.277549
11
0.414063
21
0.27519
0
LINE
8
BLACK
6
CONTINUOUS
10
0.414063
20
0.27519
11
0.4
21
0.2744
0
LINE
8
BLACK
6
CONTINUOUS
10
0.4
20
0.2744
11
0.385937
21
0.27519
0
LINE
8
BLACK
6
CONTINUOUS
10
0.385937
20
0.27519
11
0.372051
21
0.277549
0
LINE
8
BLACK
6
CONTINUOUS
10
0.372051
20
0.277549
11
0.358517
21
0.281448
0
LINE
8
BLACK
6
CONTINUOUS
10
0.358517
20
0.281448
11
0.345504
21
0.286838
0
LINE
8
BLACK
6
CONTINUOUS
10
0.345504
20
0.286838
11
0.333177
21
0.293651
0
LINE
8
BLACK
6
CONTINUOUS
10
0.333177
20
0.293651
11
0.32169
21
0.301802
0
LINE
8
BLACK
6
CONTINUOUS
10
0.32169
20
0.301802
11
0.311187
21
0.311187
0
LINE
8
BLACK
6
CONTINUOUS
10
0.311187
20
0.311187
11
0.301802
21
0.32169
0
LINE
8
BLACK
6
CONTINUOUS
10
0.301802
20
0.32169
11
0.293651
21
0.333177
0
LINE
8
BLACK
6
CONTINUOUS
10
0.293651
20
0.333177
11
0.286838
21
0.345504
0
LINE
8
BLACK
6
CONTINUOUS
10
0.286838
20
0.345504
11
0.281448
21
0.358517
0
LINE
8
BLACK
6
CONTINUOUS
10
0.281448
20
0.358517
11
0.277549
21
0.372051
0
LINE
8
BLACK
6
CONTINUOUS
10
0.277549
20
0.372051
11
0.27519
21
0.385937
0
LINE
8
BLACK
6
CONTINUOUS
10
0.27519
20
0.385937
11
0.2744
21
0.4
0
LINE
8
BLACK
6
CONTINUOUS
10
0.2744
20
0.4
11
0.27519
21
0.414063
0
LINE
8
BLACK
6
CONTINUOUS
10
0.27519
20
0.414063
11
0.277549
21
0.427949
0
LINE
8
BLACK
6
CONTINUOUS
10
0.277549
20
0.427949
11
0.281448
21
0.441483
0
LINE
8
BLACK
6
CONTINUOUS
10
0.281448
20
0.441483
11
0.286838
21
0.454496
0
LINE
8
BLACK
6
CONTINUOUS
10
0.286838
20
0.454496
11
0.293651
21
0.466823
0
LINE
8
BLACK
6
CONTINUOUS
10
0.293651
20
0.466823
11
0.301802
21
0.47831
0
LINE
8
BLACK
6
CONTINUOUS
10
0.301802
20
0.47831
11
0.311187
21
0.488813
0
LINE
8
BLACK
6
CONTINUOUS
10
0.311187
20
0.488813
11
0.32169
21
0.498198
0
LINE
8
BLACK
6
CONTINUOUS
10
0.32169
20
0.498198
11
0.333177
21
0.506349
0
LINE
8
BLACK
6
CONTINUOUS
10
0.333177
20
0.506349
11
0.345504
21
0.513162
0
LINE
8
BLACK
6
CONTINUOUS
10
0.345504
20
0.513162
11
0.358517
21
0.518552
0
LINE
8
BLACK
6
CONTINUOUS
10
0.358517
20
0.518552
11
0.372051
21
0.522451
0
LINE
8
BLACK
6
CONTINUOUS
10
0.372051
20
0.522451
11
0.385937
21
0.52481
0
LINE
8
BLACK
6
CONTINUOUS
10
0.385937
20
0.52481
11
0.4
21
0.5256
0
LINE
8
BLACK
6
CONTINUOUS
10
0.4
20
0.5256
11
0.414063
21
0.52481
0
LINE
8
BLACK
6
CONTINUOUS
10
0.289962
20
0.387138
11
0.292199
21
0.374451
0
LINE
8
BLACK
6
CONTINUOUS
10
0.292199
20
0.374451
11
0.295894
21
0.362108
0
LINE
8
BLACK
6
CONTINUOUS
10
0.295894
20
0.362108
11
0.300997
21
0.350279
0
LINE
8
BLACK
6
CONTINUOUS
10
0.300997
20
0.350279
11
0.307438
21
0.339121
0
LINE
8
BLACK
6
CONTINUOUS
10
0.307438
20
0.339121
11
0.315132
21
0.328787
0
LINE
8
BLACK
6
CONTINUOUS
10
0.315132
20
0.328787
11
0.323973
21
0.319416
0
LINE
8
BLACK
6
CONTINUOUS
10
0.323973
20
0.319416
11
0.333842
21
0.311135
0
LINE
8
BLACK
6
CONTINUOUS
10
0.333842
20
0.311135
11
0.344606
21
0.304055
0
LINE
8
BLACK
6
CONTINUOUS
10
0.344606
20
0.304055
11
0.356119
21
0.298273
0
LINE
8
BLACK
6
CONTINUOUS
10
0.356119
20
0.298273
11
0.368226
21
0.293867
0
LINE
8
BLACK
6
CONTINUOUS
10
0.368226
20
0.293867
11
0.380762
21
0.290896
0
LINE
8
BLACK
6
CONTINUOUS
10
0.380762
20
0.290896
11
0.393558
21
0.2894
0
LINE
8
BLACK
6
CONTINUOUS
10
0.393558
20
0.2894
11
0.406442
21
0.2894
0
LINE
8
BLACK
6
CONTINUOUS
10
0.406442
20
0.2894
11
0.419238
21
0.290896
0
LINE
8
BLACK
6
CONTINUOUS
10
0.419238
20
0.290896
11
0.431774
21
0.293867
0
LINE
8
BLACK
6
CONTINUOUS
10
0.431774
20
0.293867
11
0.443881
21
0.298273
0
LINE
8
BLACK
6
CONTINUOUS
10
0.443881
20
0.298273
11
0.455394
21
0.304055
0
LINE
8
BLACK
6
CONTINUOUS
10
0.455394
20
0.304055
11
0.466158
21
0.311135
0
LINE
8
BLACK
6
CONTINUOUS
10
0.466158
20
0.311135
11
0.476027
21
0.319416
0
LINE
8
BLACK
6
CONTINUOUS
10
0.476027
20
0.319416
11
0.484868
21
0.328787
0
LINE
8
BLACK
6
CONTINUOUS
10
0.484868
20
0.328787
11
0.492562
21
0.339121
0
LINE
8
BLACK
6
CONTINUOUS
10
0.492562
20
0.339121
11
0.499003
21
0.350279
0
LINE
8
BLACK
6
CONTINUOUS
10
0.499003
20
0.350279
11
0.504106
21
0.362108
0
LINE
8
BLACK
6
CONTINUOUS
10
0.504106
20
0.362108
11
0.507801
21
0.374451
0
LINE
8
BLACK
6
CONTINUOUS
10
0.507801
20
0.374451
11
0.510038
21
0.387138
0
LINE
8
BLACK
6
CONTINUOUS
10
0.510038
20
0.387138
11
0.510787
21
0.4
0
LINE
8
BLACK
6
CONTINUOUS
10
0.510787
20
0.4
11
0.510038
21
0.412862
0
LINE
8
BLACK
6
CONTINUOUS
10
0.510038
20
0.412862
11
0.507801
21
0.425549
0
LINE
8
BLACK
6
CONTINUOUS
10
0.507801
20
0.425549
11
0.504106
21
0.437892
0
LINE
8
BLACK
6
CONTINUOUS
10
0.504106
20
0.437892
11
0.499003
21
0.449721
0
LINE
8
BLACK
6
CONTINUOUS
10
0.499003
20
0.449721
11
0.492562
21
0.460879
0
LINE
8
BLACK
6
CONTINUOUS
10
0.492562
20
0.460879
11
0.484868
21
0.471213
0
LINE
8
BLACK
6
CONTINUOUS
10
0.484868
20
0.471213
11
0.476027
21
0.480584
0
LINE
8
BLACK
6
CONTINUOUS
10
0.476027
20
0.480584
11
0.466158
21
0.488865
0
LINE
8
BLACK
6
CONTINUOUS
10
0.466158
20
0.488865
11
0.455394
21
0.495945
0
LINE
8
BLACK
6
CONTINUOUS
10
0.455394
20
0.495945
11
0.443881
21
0.501727
0
LINE
8
BLACK
6
CONTINUOUS
10
0.443881
20
0.501727
11
0.431774
21
0.506133
0
LINE
8
BLACK
6
CONTINUOUS
10
0.431774
20
0.506133
11
0.419238
21
0.509104
0
LINE
8
BLACK
6
CONTINUOUS
10
0.419238
20
0.509104
11
0.406442
21
0.5106
0
LINE
8
BLACK
6
CONTINUOUS
10
0.406442
20
0.5106
11
0.393558
21
0.5106
0
LINE
8
BLACK
6
CONTINUOUS
10
0.393558
20
0.5106
11
0.380762
21
0.509104
0
LINE
8
BLACK
6
CONTINUOUS
10
0.380762
20
0.509104
11
0.368226
21
0.506133
0
LINE
8
BLACK
6
CONTINUOUS
10
0.368226
20
0.506133
11
0.356119
21
0.501727
0
LINE
8
BLACK
6
CONTINUOUS
10
0.356119
20
0.501727
11
0.344606
21
0.495945
0
LINE
8
BLACK
6
CONTINUOUS
10
0.344606
20
0.495945
11
0.333842
21
0.488865
0
LINE
8
BLACK
6
CONTINUOUS
10
0.333842
20
0.488865
11
0.323973
21
0.480584
0
LINE
8
BLACK
6
CONTINUOUS
10
0.323973
20
0.480584
11
0.315132
21
0.471213
0
LINE
8
BLACK
6
CONTINUOUS
10
0.315132
20
0.471213
11
0.307438
21
0.460879
0
LINE
8
BLACK
6
CONTINUOUS
10
0.307438
20
0.460879
11
0.300997
21
0.449721
0
LINE
8
BLACK
6
CONTINUOUS
10
0.300997
20
0.449721
11
0.295894
21
0.437892
0
LINE
8
BLACK
6
CONTINUOUS
10
0.295894
20
0.437892
11
0.292199
21
0.425549
0
LINE
8
BLACK
6
CONTINUOUS
10
0.292199
20
0.425549
11
0.289962
21
0.412862
0
LINE
8
BLACK
6
CONTINUOUS
10
0.289962
20
0.412862
11
0.289213
21
0.4
0
LINE
8
BLACK
6
CONTINUOUS
10
0.289213
20
0.4
11
0.289962
21
0.387138
0
LINE
8
BLACK
6
CONTINUOUS
10
1.61406
20
0.52481
11
1.62795
21
0.522451
0
LINE
8
BLACK
6
CONTINUOUS
10
1.62795
20
0.522451
11
1.64148
21
0.518552
0
LINE
8
BLACK
6
CONTINUOUS
10
1.64148
20
0.518552
11
1.6545
21
0.513162
0
LINE
8
BLACK
6
CONTINUOUS
10
1.6545
20
0.513162
11
1.66682
21
0.506349
0
LINE
8
BLACK
6
CONTINUOUS
10
1.66682
20
0.506349
11
1.67831
21
0.498198
0
LINE
8
BLACK
6
CONTINUOUS
10
1.67831
20
0.498198
11
1.68881
21
0.488813
0
LINE
8
BLACK
6
CONTINUOUS
10
1.68881
20
0.488813
11
1.6982
21
0.47831
0
LINE
8
BLACK
6
CONTINUOUS
10
1.6982
20
0.47831
11
1.70635
21
0.466823
0
LINE
8
BLACK
6
CONTINUOUS
10
1.70635
20
0.466823
11
1.71316
21
0.454496
0
LINE
8
BLACK
6
CONTINUOUS
10
1.71316
20
0.454496
11
1.71855
21
0.441483
0
LINE
8
BLACK
6
CONTINUOUS
10
1.71855
20
0.441483
11
1.72245
21
0.427949
0
LINE
8
BLACK
6
CONTINUOUS
10
1.72245
20
0.427949
11
1.72481
21
0.414063
0
LINE
8
BLACK
6
CONTINUOUS
10
1.72481
20
0.414063
11
1.7256
21
0.4
0
LINE
8
BLACK
6
CONTINUOUS
10
1.7256
20
0.4
11
1.72481
21
0.385937
0
LINE
8
BLACK
6
CONTINUOUS
10
1.72481
20
0.385937
11
1.72245
21
0.372051
0
LINE
8
BLACK
6
CONTINUOUS
10
1.72245
20
0.372051
11
1.71855
21
0.358517
0
LINE
8
BLACK
6
CONTINUOUS
10
1.71855
20
0.358517
11
1.71316
21
0.345504
0
LINE
8
BLACK
6
CONTINUOUS
10
1.71316
20
0.345504
11
1.70635
21
0.333177
0
LINE
8
BLACK
6
CONTINUOUS
10
1.70635
20
0.333177
11
1.6982
21
0.32169
0
LINE
8
BLACK
6
CONTINUOUS
10
1.6982
20
0.32169
11
1.68881
21
0.311187
0
LINE
8
BLACK
6
CONTINUOUS
10
1.68881
20
0.311187
11
1.67831
21
0.301802
0
LINE
8
BLACK
6
CONTINUOUS
10
1.67831
20
0.301802
11
1.66682
21
0.293651
0
LINE
8
BLACK
6
CONTINUOUS
10
1.66682
20
0.293651
11
1.6545
21
0.286838
0
LINE
8
BLACK
6
CONTINUOUS
10
1.6545
20
0.286838
11
1.64148
21
0.281448
0
LINE
8
BLACK
6
CONTINUOUS
10
1.64148
20
0.281448
11
1.62795
21
0.277549
0
LINE
8
BLACK
6
CONTINUOUS
10
1.62795
20
0.277549
11
1.61406
21
0.27519
0
LINE
8
BLACK
6
CONTINUOUS
10
1.61406
20
0.27519
11
1.6
21
0.2744
0
LINE
8
BLACK
6
CONTINUOUS
10
1.6
20
0.2744
11
1.58594
21
0.27519
0
LINE
8
BLACK
6
CONTINUOUS
10
1.58594
20
0.27519
11
1.57205
21
0.277549
0
LINE
8
BLACK
6
CONTINUOUS
10
1.57205
20
0.277549
11
1.55852
21
0.281448
0
LINE
8
BLACK
6
CONTINUOUS
10
1.55852
20
0.281448
11
1.5455
21
0.286838
0
LINE
8
BLACK
6
CONTINUOUS
10
1.5455
20
0.286838
11
1.53318
21
0.293651
0
LINE
8
BLACK
6
CONTINUOUS
10
1.53318
20
0.293651
11
1.52169
21
0.301802
0
LINE
8
BLACK
6
CONTINUOUS
10
1.52169
20
0.301802
11
1.51119
21
0.311187
0
LINE
8
BLACK
6
CONTINUOUS
10
1.51119
20
0.311187
11
1.5018
21
0.32169
0
LINE
8
BLACK
6
CONTINUOUS
10
1.5018
20
0.32169
11
1.49365
21
0.333177
0
LINE
8
BLACK
6
CONTINUOUS
10
1.49365
20
0.333177
11
1.48684
21
0.345504
0
LINE
8
BLACK
6
CONTINUOUS
10
1.48684
20
0.345504
11
1.48145
21
0.358517
0
LINE
8
BLACK
6
CONTINUOUS
10
1.48145
20
0.358517
11
1.47755
21
0.372051
0
LINE
8
BLACK
6
CONTINUOUS
10
1.47755
20
0.372051
11
1.47519
21
0.385937
0
LINE
8
BLACK
6
CONTINUOUS
10
1.47519
20
0.385937
11
1.4744
21
0.4
0
LINE
8
BLACK
6
CONTINUOUS
10
1.4744
20
0.4
11
1.47519
21
0.414063
0
LINE
8
BLACK
6
CONTINUOUS
10
1.47519
20
0.414063
11
1.47755
21
0.427949
0
LINE
8
BLACK
6
CONTINUOUS
10
1.47755
20
0.427949
11
1.48145
21
0.441483
0
LINE
8
BLACK
6
CONTINUOUS
10
1.48145
20
0.441483
11
1.48684
21
0.454496
0
LINE
8
BLACK
6
CONTINUOUS
10
1.48684
20
0.454496
11
1.49365
21
0.466823
0
LINE
8
BLACK
6
CONTINUOUS
10
1.49365
20
0.466823
11
1.5018
21
0.47831
0
LINE
8
BLACK
6
CONTINUOUS
10
1.5018
20
0.47831
11
1.51119
21
0.488813
0
LINE
8
BLACK
6
CONTINUOUS
10
1.51119
20
0.488813
11
1.52169
21
0.498198
0
LINE
8
BLACK
6
CONTINUOUS
10
1.52169
20
0.498198
11
1.53318
21
0.506349
0
LINE
8
BLACK
6
CONTINUOUS
10
1.53318
20
0.506349
11
1.5455
21
0.513162
0
LINE
8
BLACK
6
CONTINUOUS
10
1.5455
20
0.513162
11
1.55852
21
0.518552
0
LINE
8
BLACK
6
CONTINUOUS
10
1.55852
20
0.518552
11
1.57205
21
0.522451
0
LINE
8
BLACK
6
CONTINUOUS
10
1.57205
20
0.522451
11
1.58594
21
0.52481
0
LINE
8
BLACK
6
CONTINUOUS
10
1.58594
20
0.52481
11
1.6
21
0.5256
0
LINE
8
BLACK
6
CONTINUOUS
10
1.6
20
0.5256
11
1.61406
21
0.52481
0
LINE
8
BLACK
6
CONTINUOUS
10
1.48996
20
0.387138
11
1.4922
21
0.374451
0
LINE
8
BLACK
6
CONTINUOUS
10
1.4922
20
0.374451
11
1.49589
21
0.362108
0
LINE
8
BLACK
6
CONTINUOUS
10
1.49589
20
0.362108
11
1.501
21
0.350279
0
LINE
8
BLACK
6
CONTINUOUS
10
1.501
20
0.350279
11
1.50744
21
0.339121
0
LINE
8
BLACK
6
CONTINUOUS
10
1.50744
20
0.339121
11
1.51513
21
0.328787
0
LINE
8
BLACK
6
CONTINUOUS
10
1.51513
20
0.328787
11
1.52397
21
0.319416
0
LINE
8
BLACK
6
CONTINUOUS
10
1.52397
20
0.319416
11
1.53384
21
0.311135
0
LINE
8
BLACK
6
CONTINUOUS
10
1.53384
20
0.311135
11
1.54461
21
0.304055
0
LINE
8
BLACK
6
CONTINUOUS
10
1.54461
20
0.304055
11
1.55612
21
0.298273
0
LINE
8
BLACK
6
CONTINUOUS
10
1.55612
20
0.298273
11
1.56823
21
0.293867
0
LINE
8
BLACK
6
CONTINUOUS
10
1.56823
20
0.293867
11
1.58076
21
0.290896
0
LINE
8
BLACK
6
CONTINUOUS
10
1.58076
20
0.290896
11
1.59356
21
0.2894
0
LINE
8
BLACK
6
CONTINUOUS
10
1.59356
20
0.2894
11
1.60644
21
0.2894
0
LINE
8
BLACK
6
CONTINUOUS
10
1.60644
20
0.2894
11
1.61924
21
0.290896
0
LINE
8
BLACK
6
CONTINUOUS
10
1.61924
20
0.290896
11
1.63177
21
0.293867
0
LINE
8
BLACK
6
CONTINUOUS
10
1.63177
20
0.293867
11
1.64388
21
0.298273
0
LINE
8
BLACK
6
CONTINUOUS
10
1.64388
20
0.298273
11
1.65539
21
0.304055
0
LINE
8
BLACK
6
CONTINUOUS
10
1.65539
20
0.304055
11
1.66616
21
0.311135
0
LINE
8
BLACK
6
CONTINUOUS
10
1.66616
20
0.311135
11
1.67603
21
0.319416
0
LINE
8
BLACK
6
CONTINUOUS
10
1.67603
20
0.319416
11
1.68487
21
0.328787
0
LINE
8
BLACK
6
CONTINUOUS
10
1.68487
20
0.328787
11
1.69256
21
0.339121
0
LINE
8
BLACK
6
CONTINUOUS
10
1.69256
20
0.339121
11
1.699
21
0.350279
0
LINE
8
BLACK
6
CONTINUOUS
10
1.699
20
0.350279
11
1.70411
21
0.362108
0
LINE
8
BLACK
6
CONTINUOUS
10
1.70411
20
0.362108
11
1.7078
21
0.374451
0
LINE
8
BLACK
6
CONTINUOUS
10
1.7078
20
0.374451
11
1.71004
21
0.387138
0
LINE
8
BLACK
6
CONTINUOUS
10
1.71004
20
0.387138
11
1.71079
21
0.4
0
LINE
8
BLACK
6
CONTINUOUS
10
1.71079
20
0.4
11
1.71004
21
0.412862
0
LINE
8
BLACK
6
CONTINUOUS
10
1.71004
20
0.412862
11
1.7078
21
0.425549
0
LINE
8
BLACK
6
CONTINUOUS
10
1.7078
20
0.425549
11
1.70411
21
0.437892
0
LINE
8
BLACK
6
CONTINUOUS
10
1.70411
20
0.437892
11
1.699
21
0.449721
0
LINE
8
BLACK
6
CONTINUOUS
10
1.699
20
0.449721
11
1.69256
21
0.460879
0
LINE
8
BLACK
6
CONTINUOUS
10
1.69256
20
0.460879
11
1.68487
21
0.471213
0
LINE
8
BLACK
6
CONTINUOUS
10
1.68487
20
0.471213
11
1.67603
21
0.480584
0
LINE
8
BLACK
6
CONTINUOUS
10
1.67603
20
0.480584
11
1.66616
21
0.488865
0
LINE
8
BLACK
6
CONTINUOUS
10
1.66616
20
0.488865
11
1.65539
21
0.495945
0
LINE
8
BLACK
6
CONTINUOUS
10
1.65539
20
0.495945
11
1.64388
21
0.501727
0
LINE
8
BLACK
6
CONTINUOUS
10
1.64388
20
0.501727
11
1.63177
21
0.506133
0
LINE
8
BLACK
6
CONTINUOUS
10
1.63177
20
0.506133
11
1.61924
21
0.509104
0
LINE
8
BLACK
6
CONTINUOUS
10
1.61924
20
0.509104
11
1.60644
21
0.5106
0
LINE
8
BLACK
6
CONTINUOUS
10
1.60644
20
0.5106
11
1.59356
21
0.5106
0
LINE
8
BLACK
6
CONTINUOUS
10
1.59356
20
0.5106
11
1.58076
21
0.509104
0
LINE
8
BLACK
6
CONTINUOUS
10
1.58076
20
0.509104
11
1.56823
21
0.506133
0
LINE
8
BLACK
6
CONTINUOUS
10
1.56823
20
0.506133
11
1.55612
21
0.501727
0
LINE
8
BLACK
6
CONTINUOUS
10
1.55612
20
0.501727
11
1.54461
21
0.495945
0
LINE
8
BLACK
6
CONTINUOUS
10
1.54461
20
0.495945
11
1.53384
21
0.488865
0
LINE
8
BLACK
6
CONTINUOUS
10
1.53384
20
0.488865
11
1.52397
21
0.480584
0
LINE
8
BLACK
6
CONTINUOUS
10
1.52397
20
0.480584
11
1.51513
21
0.471213
0
LINE
8
BLACK
6
CONTINUOUS
10
1.51513
20
0.471213
11
1.50744
21
0.460879
0
LINE
8
BLACK
6
CONTINUOUS
10
1.50744
20
0.460879
11
1.501
21
0.449721
0
LINE
8
BLACK
6
CONTINUOUS
10
1.501
20
0.449721
11
1.49589
21
0.437892
0
LINE
8
BLACK
6
CONTINUOUS
10
1.49589
20
0.437892
11
1.4922
21
0.425549
0
LINE
8
BLACK
6
CONTINUOUS
10
1.4922
20
0.425549
11
1.48996
21
0.412862
0
LINE
8
BLACK
6
CONTINUOUS
10
1.48996
20
0.412862
11
1.48921
21
0.4
0
LINE
8
BLACK
6
CONTINUOUS
10
1.48921
20
0.4
11
1.48996
21
0.387138
0
LINE
8
BLACK
6
CONTINUOUS
10
1.63233
20
0.788495
11
1.63239
21
0.788497
0
LINE
8
BLACK
6
CONTINUOUS
10
1.63239
20
0.788497
11
1.63802
21
0.786622
0
LINE
8
BLACK
6
CONTINUOUS
10
1.63802
20
0.786622
11
1.63892
21
0.786134
0
LINE
8
BLACK
6
CONTINUOUS
10
1.63892
20
0.786134
11
1.63901
21
0.785983
0
LINE
8
BLACK
6
CONTINUOUS
10
1.63901
20
0.785983
11
1.63917
21
0.785909
0
LINE
8
BLACK
6
CONTINUOUS
10
1.63917
20
0.785909
11
1.64292
21
0.782159
0
LINE
8
BLACK
6
CONTINUOUS
10
1.64292
20
0.782159
11
1.64351
21
0.781319
0
LINE
8
BLACK
6
CONTINUOUS
10
1.64351
20
0.781319
11
1.64353
21
0.781143
0
LINE
8
BLACK
6
CONTINUOUS
10
1.64353
20
0.781143
11
1.64364
21
0.781005
0
LINE
8
BLACK
6
CONTINUOUS
10
1.64364
20
0.781005
11
1.64551
21
0.775381
0
LINE
8
BLACK
6
CONTINUOUS
10
1.64551
20
0.775381
11
1.64564
21
0.774508
0
LINE
8
BLACK
6
CONTINUOUS
10
1.64564
20
0.774508
11
1.64566
21
0.774447
0
LINE
8
BLACK
6
CONTINUOUS
10
1.64566
20
0.774447
11
1.64566
21
0.770697
0
LINE
8
BLACK
6
CONTINUOUS
10
1.64566
20
0.770697
11
1.64548
21
0.769688
0
LINE
8
BLACK
6
CONTINUOUS
10
1.64548
20
0.769688
11
1.64419
21
0.76814
0
LINE
8
BLACK
6
CONTINUOUS
10
1.64419
20
0.76814
11
1.6422
21
0.76779
0
LINE
8
BLACK
6
CONTINUOUS
10
1.6422
20
0.76779
11
1.64045
21
0.768799
0
LINE
8
BLACK
6
CONTINUOUS
10
1.64045
20
0.768799
11
1.63976
21
0.770697
0
LINE
8
BLACK
6
CONTINUOUS
10
1.63976
20
0.770697
11
1.63976
21
0.773968
0
LINE
8
BLACK
6
CONTINUOUS
10
1.63976
20
0.773968
11
1.63825
21
0.778476
0
LINE
8
BLACK
6
CONTINUOUS
10
1.63825
20
0.778476
11
1.63549
21
0.78124
0
LINE
8
BLACK
6
CONTINUOUS
10
1.63549
20
0.78124
11
1.63098
21
0.782743
0
LINE
8
BLACK
6
CONTINUOUS
10
1.63098
20
0.782743
11
1.60334
21
0.782743
0
LINE
8
BLACK
6
CONTINUOUS
10
1.60334
20
0.782743
11
1.60233
21
0.782921
0
LINE
8
BLACK
6
CONTINUOUS
10
1.60233
20
0.782921
11
1.60078
21
0.784219
0
LINE
8
BLACK
6
CONTINUOUS
10
1.60078
20
0.784219
11
1.60043
21
0.786208
0
LINE
8
BLACK
6
CONTINUOUS
10
1.60043
20
0.786208
11
1.60144
21
0.787957
0
LINE
8
BLACK
6
CONTINUOUS
10
1.60144
20
0.787957
11
1.60334
21
0.788648
0
LINE
8
BLACK
6
CONTINUOUS
10
1.60334
20
0.788648
11
1.63146
21
0.788648
0
LINE
8
BLACK
6
CONTINUOUS
10
1.63146
20
0.788648
11
1.63233
21
0.788495
0
LINE
8
BLACK
6
CONTINUOUS
10
1.63622
20
0.82784
11
1.63636
21
0.827727
0
LINE
8
BLACK
6
CONTINUOUS
10
1.63636
20
0.827727
11
1.63653
21
0.827707
0
LINE
8
BLACK
6
CONTINUOUS
10
1.63653
20
0.827707
11
1.64028
21
0.825832
0
LINE
8
BLACK
6
CONTINUOUS
10
1.64028
20
0.825832
11
1.64099
21
0.825306
0
LINE
8
BLACK
6
CONTINUOUS
10
1.64099
20
0.825306
11
1.64105
21
0.825279
0
LINE
8
BLACK
6
CONTINUOUS
10
1.64105
20
0.825279
11
1.64292
21
0.823404
0
LINE
8
BLACK
6
CONTINUOUS
10
1.64292
20
0.823404
11
1.64343
21
0.822681
0
LINE
8
BLACK
6
CONTINUOUS
10
1.64343
20
0.822681
11
1.64348
21
0.822637
0
LINE
8
BLACK
6
CONTINUOUS
10
1.64348
20
0.822637
11
1.64535
21
0.818887
0
LINE
8
BLACK
6
CONTINUOUS
10
1.64535
20
0.818887
11
1.64564
21
0.817904
0
LINE
8
BLACK
6
CONTINUOUS
10
1.64564
20
0.817904
11
1.6456
21
0.817732
0
LINE
8
BLACK
6
CONTINUOUS
10
1.6456
20
0.817732
11
1.64566
21
0.817567
0
LINE
8
BLACK
6
CONTINUOUS
10
1.64566
20
0.817567
11
1.64566
21
0.806318
0
LINE
8
BLACK
6
CONTINUOUS
10
1.64566
20
0.806318
11
1.64548
21
0.805308
0
LINE
8
BLACK
6
CONTINUOUS
10
1.64548
20
0.805308
11
1.64537
21
0.805173
0
LINE
8
BLACK
6
CONTINUOUS
10
1.64537
20
0.805173
11
1.64535
21
0.804997
0
LINE
8
BLACK
6
CONTINUOUS
10
1.64535
20
0.804997
11
1.64348
21
0.801248
0
LINE
8
BLACK
6
CONTINUOUS
10
1.64348
20
0.801248
11
1.64295
21
0.800539
0
LINE
8
BLACK
6
CONTINUOUS
10
1.64295
20
0.800539
11
1.64292
21
0.800481
0
LINE
8
BLACK
6
CONTINUOUS
10
1.64292
20
0.800481
11
1.64105
21
0.798606
0
LINE
8
BLACK
6
CONTINUOUS
10
1.64105
20
0.798606
11
1.64021
21
0.798018
0
LINE
8
BLACK
6
CONTINUOUS
10
1.64021
20
0.798018
11
1.6382
21
0.797842
0
LINE
8
BLACK
6
CONTINUOUS
10
1.6382
20
0.797842
11
1.63654
21
0.799
0
LINE
8
BLACK
6
CONTINUOUS
10
1.63654
20
0.799
11
1.63602
21
0.800951
0
LINE
8
BLACK
6
CONTINUOUS
10
1.63602
20
0.800951
11
1.63687
21
0.802782
0
LINE
8
BLACK
6
CONTINUOUS
10
1.63687
20
0.802782
11
1.63841
21
0.804318
0
LINE
8
BLACK
6
CONTINUOUS
10
1.63841
20
0.804318
11
1.63976
21
0.807015
0
LINE
8
BLACK
6
CONTINUOUS
10
1.63976
20
0.807015
11
1.63976
21
0.81687
0
LINE
8
BLACK
6
CONTINUOUS
10
1.63976
20
0.81687
11
1.63841
21
0.819567
0
LINE
8
BLACK
6
CONTINUOUS
10
1.63841
20
0.819567
11
1.63721
21
0.820764
0
LINE
8
BLACK
6
CONTINUOUS
10
1.63721
20
0.820764
11
1.63451
21
0.822113
0
LINE
8
BLACK
6
CONTINUOUS
10
1.63451
20
0.822113
11
1.62653
21
0.822113
0
LINE
8
BLACK
6
CONTINUOUS
10
1.62653
20
0.822113
11
1.62384
21
0.820764
0
LINE
8
BLACK
6
CONTINUOUS
10
1.62384
20
0.820764
11
1.62264
21
0.819567
0
LINE
8
BLACK
6
CONTINUOUS
10
1.62264
20
0.819567
11
1.62129
21
0.81687
0
LINE
8
BLACK
6
CONTINUOUS
10
1.62129
20
0.81687
11
1.62129
21
0.811942
0
LINE
8
BLACK
6
CONTINUOUS
10
1.62129
20
0.811942
11
1.62121
21
0.811505
0
LINE
8
BLACK
6
CONTINUOUS
10
1.62121
20
0.811505
11
1.62123
21
0.811369
0
LINE
8
BLACK
6
CONTINUOUS
10
1.62123
20
0.811369
11
1.62117
21
0.811265
0
LINE
8
BLACK
6
CONTINUOUS
10
1.62117
20
0.811265
11
1.62111
21
0.810932
0
LINE
8
BLACK
6
CONTINUOUS
10
1.62111
20
0.810932
11
1.6206
21
0.810323
0
LINE
8
BLACK
6
CONTINUOUS
10
1.6206
20
0.810323
11
1.62019
21
0.809642
0
LINE
8
BLACK
6
CONTINUOUS
10
1.62019
20
0.809642
11
1.61997
21
0.809566
0
LINE
8
BLACK
6
CONTINUOUS
10
1.61997
20
0.809566
11
1.61981
21
0.809385
0
LINE
8
BLACK
6
CONTINUOUS
10
1.61981
20
0.809385
11
1.61903
21
0.809247
0
LINE
8
BLACK
6
CONTINUOUS
10
1.61903
20
0.809247
11
1.61828
21
0.80899
0
LINE
8
BLACK
6
CONTINUOUS
10
1.61828
20
0.80899
11
1.61806
21
0.809075
0
LINE
8
BLACK
6
CONTINUOUS
10
1.61806
20
0.809075
11
1.61782
21
0.809034
0
LINE
8
BLACK
6
CONTINUOUS
10
1.61782
20
0.809034
11
1.61714
21
0.809432
0
LINE
8
BLACK
6
CONTINUOUS
10
1.61714
20
0.809432
11
1.61639
21
0.80972
0
LINE
8
BLACK
6
CONTINUOUS
10
1.61639
20
0.80972
11
1.60629
21
0.818558
0
LINE
8
BLACK
6
CONTINUOUS
10
1.60629
20
0.818558
11
1.60629
21
0.800694
0
LINE
8
BLACK
6
CONTINUOUS
10
1.60629
20
0.800694
11
1.60611
21
0.799684
0
LINE
8
BLACK
6
CONTINUOUS
10
1.60611
20
0.799684
11
1.60482
21
0.798137
0
LINE
8
BLACK
6
CONTINUOUS
10
1.60482
20
0.798137
11
1.60283
21
0.797786
0
LINE
8
BLACK
6
CONTINUOUS
10
1.60283
20
0.797786
11
1.60108
21
0.798796
0
LINE
8
BLACK
6
CONTINUOUS
10
1.60108
20
0.798796
11
1.60039
21
0.800694
0
LINE
8
BLACK
6
CONTINUOUS
10
1.60039
20
0.800694
11
1.60039
21
0.825066
0
LINE
8
BLACK
6
CONTINUOUS
10
1.60039
20
0.825066
11
1.60046
21
0.825503
0
LINE
8
BLACK
6
CONTINUOUS
10
1.60046
20
0.825503
11
1.60044
21
0.825638
0
LINE
8
BLACK
6
CONTINUOUS
10
1.60044
20
0.825638
11
1.60051
21
0.825743
0
LINE
8
BLACK
6
CONTINUOUS
10
1.60051
20
0.825743
11
1.60056
21
0.826076
0
LINE
8
BLACK
6
CONTINUOUS
10
1.60056
20
0.826076
11
1.60108
21
0.826685
0
LINE
8
BLACK
6
CONTINUOUS
10
1.60108
20
0.826685
11
1.60149
21
0.827366
0
LINE
8
BLACK
6
CONTINUOUS
10
1.60149
20
0.827366
11
1.60171
21
0.827442
0
LINE
8
BLACK
6
CONTINUOUS
10
1.60171
20
0.827442
11
1.60186
21
0.827623
0
LINE
8
BLACK
6
CONTINUOUS
10
1.60186
20
0.827623
11
1.60265
21
0.827761
0
LINE
8
BLACK
6
CONTINUOUS
10
1.60265
20
0.827761
11
1.6034
21
0.828018
0
LINE
8
BLACK
6
CONTINUOUS
10
1.6034
20
0.828018
11
1.60362
21
0.827933
0
LINE
8
BLACK
6
CONTINUOUS
10
1.60362
20
0.827933
11
1.60385
21
0.827974
0
LINE
8
BLACK
6
CONTINUOUS
10
1.60385
20
0.827974
11
1.60454
21
0.827575
0
LINE
8
BLACK
6
CONTINUOUS
10
1.60454
20
0.827575
11
1.60528
21
0.827288
0
LINE
8
BLACK
6
CONTINUOUS
10
1.60528
20
0.827288
11
1.61552
21
0.818331
0
LINE
8
BLACK
6
CONTINUOUS
10
1.61552
20
0.818331
11
1.61556
21
0.818576
0
LINE
8
BLACK
6
CONTINUOUS
10
1.61556
20
0.818576
11
1.61568
21
0.818712
0
LINE
8
BLACK
6
CONTINUOUS
10
1.61568
20
0.818712
11
1.6157
21
0.818887
0
LINE
8
BLACK
6
CONTINUOUS
10
1.6157
20
0.818887
11
1.61757
21
0.822637
0
LINE
8
BLACK
6
CONTINUOUS
10
1.61757
20
0.822637
11
1.6181
21
0.823346
0
LINE
8
BLACK
6
CONTINUOUS
10
1.6181
20
0.823346
11
1.61812
21
0.823404
0
LINE
8
BLACK
6
CONTINUOUS
10
1.61812
20
0.823404
11
1.62
21
0.825279
0
LINE
8
BLACK
6
CONTINUOUS
10
1.62
20
0.825279
11
1.62072
21
0.825785
0
LINE
8
BLACK
6
CONTINUOUS
10
1.62072
20
0.825785
11
1.62077
21
0.825832
0
LINE
8
BLACK
6
CONTINUOUS
10
1.62077
20
0.825832
11
1.62452
21
0.827707
0
LINE
8
BLACK
6
CONTINUOUS
10
1.62452
20
0.827707
11
1.6255
21
0.827999
0
LINE
8
BLACK
6
CONTINUOUS
10
1.6255
20
0.827999
11
1.62567
21
0.827958
0
LINE
8
BLACK
6
CONTINUOUS
10
1.62567
20
0.827958
11
1.62584
21
0.828018
0
LINE
8
BLACK
6
CONTINUOUS
10
1.62584
20
0.828018
11
1.63521
21
0.828018
0
LINE
8
BLACK
6
CONTINUOUS
10
1.63521
20
0.828018
11
1.63622
21
0.82784
0
LINE
8
BLACK
6
CONTINUOUS
10
1.7248
20
1.00079
11
1.7262
21
1.00021
0
LINE
8
BLACK
6
CONTINUOUS
10
1.7262
20
1.00021
11
1.72677
21
0.998819
0
LINE
8
BLACK
6
CONTINUOUS
10
1.72677
20
0.998819
11
1.72677
21
0.598819
0
LINE
8
BLACK
6
CONTINUOUS
10
1.72677
20
0.598819
11
1.7262
21
0.597427
0
LINE
8
BLACK
6
CONTINUOUS
10
1.7262
20
0.597427
11
1.7248
21
0.59685
0
LINE
8
BLACK
6
CONTINUOUS
10
1.7248
20
0.59685
11
1.5248
21
0.59685
0
LINE
8
BLACK
6
CONTINUOUS
10
1.5248
20
0.59685
11
1.52341
21
0.597427
0
LINE
8
BLACK
6
CONTINUOUS
10
1.52341
20
0.597427
11
1.52283
21
0.598819
0
LINE
8
BLACK
6
CONTINUOUS
10
1.52283
20
0.598819
11
1.52283
21
0.948819
0
LINE
8
BLACK
6
CONTINUOUS
10
1.52283
20
0.948819
11
1.52341
21
0.950211
0
LINE
8
BLACK
6
CONTINUOUS
10
1.52341
20
0.950211
11
1.57341
21
1.00021
0
LINE
8
BLACK
6
CONTINUOUS
10
1.57341
20
1.00021
11
1.57355
21
1.00027
0
LINE
8
BLACK
6
CONTINUOUS
10
1.57355
20
1.00027
11
1.5748
21
1.00079
0
LINE
8
BLACK
6
CONTINUOUS
10
1.5748
20
1.00079
11
1.7248
21
1.00079
0
LINE
8
BLACK
6
CONTINUOUS
10
1.57562
20
0.99685
11
1.52677
21
0.948004
0
LINE
8
BLACK
6
CONTINUOUS
10
1.52677
20
0.948004
11
1.52677
21
0.600787
0
LINE
8
BLACK
6
CONTINUOUS
10
1.52677
20
0.600787
11
1.72283
21
0.600787
0
LINE
8
BLACK
6
CONTINUOUS
10
1.72283
20
0.600787
11
1.72283
21
0.99685
0
LINE
8
BLACK
6
CONTINUOUS
10
1.72283
20
0.99685
11
1.57562
21
0.99685
0
LINE
8
BLACK
6
CONTINUOUS
10
1.09896
20
0.705403
11
1.0991
21
0.703601
0
LINE
8
BLACK
6
CONTINUOUS
10
1.0991
20
0.703601
11
1.09792
21
0.702226
0
LINE
8
BLACK
6
CONTINUOUS
10
1.09792
20
0.702226
11
1.09685
21
0.701679
0
LINE
8
BLACK
6
CONTINUOUS
10
1.09685
20
0.701679
11
1.09685
21
0.603045
0
LINE
8
BLACK
6
CONTINUOUS
10
1.09685
20
0.603045
11
1.09792
21
0.602498
0
LINE
8
BLACK
6
CONTINUOUS
10
1.09792
20
0.602498
11
1.0991
21
0.601123
0
LINE
8
BLACK
6
CONTINUOUS
10
1.0991
20
0.601123
11
1.09896
21
0.599321
0
LINE
8
BLACK
6
CONTINUOUS
10
1.09896
20
0.599321
11
1.09758
21
0.598147
0
LINE
8
BLACK
6
CONTINUOUS
10
1.09758
20
0.598147
11
1.09578
21
0.598289
0
LINE
8
BLACK
6
CONTINUOUS
10
1.09578
20
0.598289
11
1.09165
21
0.600394
0
LINE
8
BLACK
6
CONTINUOUS
10
1.09165
20
0.600394
11
0.898116
21
0.600394
0
LINE
8
BLACK
6
CONTINUOUS
10
0.898116
20
0.600394
11
0.893986
21
0.598289
0
LINE
8
BLACK
6
CONTINUOUS
10
0.893986
20
0.598289
11
0.892184
21
0.598147
0
LINE
8
BLACK
6
CONTINUOUS
10
0.892184
20
0.598147
11
0.890809
21
0.599321
0
LINE
8
BLACK
6
CONTINUOUS
10
0.890809
20
0.599321
11
0.890667
21
0.601123
0
LINE
8
BLACK
6
CONTINUOUS
10
0.890667
20
0.601123
11
0.891841
21
0.602498
0
LINE
8
BLACK
6
CONTINUOUS
10
0.891841
20
0.602498
11
0.892913
21
0.603045
0
LINE
8
BLACK
6
CONTINUOUS
10
0.892913
20
0.603045
11
0.892913
21
0.652362
0
LINE
8
BLACK
6
CONTINUOUS
10
0.892913
20
0.652362
11
0.89349
21
0.653754
0
LINE
8
BLACK
6
CONTINUOUS
10
0.89349
20
0.653754
11
0.89349
21
0.653754
0
LINE
8
BLACK
6
CONTINUOUS
10
0.89349
20
0.653754
11
0.925041
21
0.685305
0
LINE
8
BLACK
6
CONTINUOUS
10
0.925041
20
0.685305
11
0.891841
21
0.702226
0
LINE
8
BLACK
6
CONTINUOUS
10
0.891841
20
0.702226
11
0.890667
21
0.703601
0
LINE
8
BLACK
6
CONTINUOUS
10
0.890667
20
0.703601
11
0.890809
21
0.705403
0
LINE
8
BLACK
6
CONTINUOUS
10
0.890809
20
0.705403
11
0.892184
21
0.706577
0
LINE
8
BLACK
6
CONTINUOUS
10
0.892184
20
0.706577
11
0.893986
21
0.706435
0
LINE
8
BLACK
6
CONTINUOUS
10
0.893986
20
0.706435
11
0.928554
21
0.688818
0
LINE
8
BLACK
6
CONTINUOUS
10
0.928554
20
0.688818
11
0.94349
21
0.703754
0
LINE
8
BLACK
6
CONTINUOUS
10
0.94349
20
0.703754
11
0.94349
21
0.703754
0
LINE
8
BLACK
6
CONTINUOUS
10
0.94349
20
0.703754
11
0.944882
21
0.704331
0
LINE
8
BLACK
6
CONTINUOUS
10
0.944882
20
0.704331
11
1.09165
21
0.704331
0
LINE
8
BLACK
6
CONTINUOUS
10
1.09165
20
0.704331
11
1.09578
21
0.706435
0
LINE
8
BLACK
6
CONTINUOUS
10
1.09578
20
0.706435
11
1.09758
21
0.706577
0
LINE
8
BLACK
6
CONTINUOUS
10
1.09758
20
0.706577
11
1.09896
21
0.705403
0
LINE
8
BLACK
6
CONTINUOUS
10
0.984431
20
0.644385
11
0.982685
21
0.639147
0
LINE
8
BLACK
6
CONTINUOUS
10
0.982685
20
0.639147
11
0.982197
21
0.638245
0
LINE
8
BLACK
6
CONTINUOUS
10
0.982197
20
0.638245
11
0.982046
21
0.638152
0
LINE
8
BLACK
6
CONTINUOUS
10
0.982046
20
0.638152
11
0.981972
21
0.637992
0
LINE
8
BLACK
6
CONTINUOUS
10
0.981972
20
0.637992
11
0.978222
21
0.634243
0
LINE
8
BLACK
6
CONTINUOUS
10
0.978222
20
0.634243
11
0.977382
21
0.633655
0
LINE
8
BLACK
6
CONTINUOUS
10
0.977382
20
0.633655
11
0.977206
21
0.633639
0
LINE
8
BLACK
6
CONTINUOUS
10
0.977206
20
0.633639
11
0.977068
21
0.633529
0
LINE
8
BLACK
6
CONTINUOUS
10
0.977068
20
0.633529
11
0.971444
21
0.631655
0
LINE
8
BLACK
6
CONTINUOUS
10
0.971444
20
0.631655
11
0.97057
21
0.631525
0
LINE
8
BLACK
6
CONTINUOUS
10
0.97057
20
0.631525
11
0.97051
21
0.631503
0
LINE
8
BLACK
6
CONTINUOUS
10
0.97051
20
0.631503
11
0.96676
21
0.631503
0
LINE
8
BLACK
6
CONTINUOUS
10
0.96676
20
0.631503
11
0.96575
21
0.631681
0
LINE
8
BLACK
6
CONTINUOUS
10
0.96575
20
0.631681
11
0.964203
21
0.63298
0
LINE
8
BLACK
6
CONTINUOUS
10
0.964203
20
0.63298
11
0.964026
21
0.633985
0
LINE
8
BLACK
6
CONTINUOUS
10
0.964026
20
0.633985
11
0.90584
21
0.604331
0
LINE
8
BLACK
6
CONTINUOUS
10
0.90584
20
0.604331
11
1.08392
21
0.604331
0
LINE
8
BLACK
6
CONTINUOUS
10
1.08392
20
0.604331
11
1.02139
21
0.636202
0
LINE
8
BLACK
6
CONTINUOUS
10
1.02139
20
0.636202
11
1.02137
21
0.636176
0
LINE
8
BLACK
6
CONTINUOUS
10
1.02137
20
0.636176
11
1.02134
21
0.636118
0
LINE
8
BLACK
6
CONTINUOUS
10
1.02134
20
0.636118
11
1.01947
21
0.634243
0
LINE
8
BLACK
6
CONTINUOUS
10
1.01947
20
0.634243
11
1.01874
21
0.633736
0
LINE
8
BLACK
6
CONTINUOUS
10
1.01874
20
0.633736
11
1.0187
21
0.63369
0
LINE
8
BLACK
6
CONTINUOUS
10
1.0187
20
0.63369
11
1.01495
21
0.631815
0
LINE
8
BLACK
6
CONTINUOUS
10
1.01495
20
0.631815
11
1.01397
21
0.631523
0
LINE
8
BLACK
6
CONTINUOUS
10
1.01397
20
0.631523
11
1.0138
21
0.631564
0
LINE
8
BLACK
6
CONTINUOUS
10
1.0138
20
0.631564
11
1.01363
21
0.631503
0
LINE
8
BLACK
6
CONTINUOUS
10
1.01363
20
0.631503
11
1.00426
21
0.631503
0
LINE
8
BLACK
6
CONTINUOUS
10
1.00426
20
0.631503
11
1.00325
21
0.631681
0
LINE
8
BLACK
6
CONTINUOUS
10
1.00325
20
0.631681
11
1.00311
21
0.631795
0
LINE
8
BLACK
6
CONTINUOUS
10
1.00311
20
0.631795
11
1.00294
21
0.631815
0
LINE
8
BLACK
6
CONTINUOUS
10
1.00294
20
0.631815
11
0.999186
21
0.63369
0
LINE
8
BLACK
6
CONTINUOUS
10
0.999186
20
0.63369
11
0.998477
21
0.634216
0
LINE
8
BLACK
6
CONTINUOUS
10
0.998477
20
0.634216
11
0.998418
21
0.634243
0
LINE
8
BLACK
6
CONTINUOUS
10
0.998418
20
0.634243
11
0.996543
21
0.636118
0
LINE
8
BLACK
6
CONTINUOUS
10
0.996543
20
0.636118
11
0.995955
21
0.636958
0
LINE
8
BLACK
6
CONTINUOUS
10
0.995955
20
0.636958
11
0.995779
21
0.63897
0
LINE
8
BLACK
6
CONTINUOUS
10
0.995779
20
0.63897
11
0.996938
21
0.640624
0
LINE
8
BLACK
6
CONTINUOUS
10
0.996938
20
0.640624
11
0.998889
21
0.641147
0
LINE
8
BLACK
6
CONTINUOUS
10
0.998889
20
0.641147
11
1.00072
21
0.640293
0
LINE
8
BLACK
6
CONTINUOUS
10
1.00072
20
0.640293
11
1.00226
21
0.638757
0
LINE
8
BLACK
6
CONTINUOUS
10
1.00226
20
0.638757
11
1.00495
21
0.637409
0
LINE
8
BLACK
6
CONTINUOUS
10
1.00495
20
0.637409
11
1.01293
21
0.637409
0
LINE
8
BLACK
6
CONTINUOUS
10
1.01293
20
0.637409
11
1.01563
21
0.638757
0
LINE
8
BLACK
6
CONTINUOUS
10
1.01563
20
0.638757
11
1.01588
21
0.639009
0
LINE
8
BLACK
6
CONTINUOUS
10
1.01588
20
0.639009
11
0.994882
21
0.649711
0
LINE
8
BLACK
6
CONTINUOUS
10
0.994882
20
0.649711
11
0.984431
21
0.644385
0
LINE
8
BLACK
6
CONTINUOUS
10
0.89685
20
0.651547
11
0.89685
21
0.605052
0
LINE
8
BLACK
6
CONTINUOUS
10
0.89685
20
0.605052
11
0.978806
21
0.64682
0
LINE
8
BLACK
6
CONTINUOUS
10
0.978806
20
0.64682
11
0.978806
21
0.657904
0
LINE
8
BLACK
6
CONTINUOUS
10
0.978806
20
0.657904
11
0.928729
21
0.683426
0
LINE
8
BLACK
6
CONTINUOUS
10
0.928729
20
0.683426
11
0.89685
21
0.651547
0
LINE
8
BLACK
6
CONTINUOUS
10
1.01647
20
0.660711
11
1.0187
21
0.659594
0
LINE
8
BLACK
6
CONTINUOUS
10
1.0187
20
0.659594
11
1.01941
21
0.659068
0
LINE
8
BLACK
6
CONTINUOUS
10
1.01941
20
0.659068
11
1.01947
21
0.659041
0
LINE
8
BLACK
6
CONTINUOUS
10
1.01947
20
0.659041
11
1.02134
21
0.657166
0
LINE
8
BLACK
6
CONTINUOUS
10
1.02134
20
0.657166
11
1.02185
21
0.656443
0
LINE
8
BLACK
6
CONTINUOUS
10
1.02185
20
0.656443
11
1.02189
21
0.656399
0
LINE
8
BLACK
6
CONTINUOUS
10
1.02189
20
0.656399
11
1.02377
21
0.652649
0
LINE
8
BLACK
6
CONTINUOUS
10
1.02377
20
0.652649
11
1.02406
21
0.651666
0
LINE
8
BLACK
6
CONTINUOUS
10
1.02406
20
0.651666
11
1.02402
21
0.651495
0
LINE
8
BLACK
6
CONTINUOUS
10
1.02402
20
0.651495
11
1.02408
21
0.651329
0
LINE
8
BLACK
6
CONTINUOUS
10
1.02408
20
0.651329
11
1.02408
21
0.641955
0
LINE
8
BLACK
6
CONTINUOUS
10
1.02408
20
0.641955
11
1.0239
21
0.640945
0
LINE
8
BLACK
6
CONTINUOUS
10
1.0239
20
0.640945
11
1.02379
21
0.64081
0
LINE
8
BLACK
6
CONTINUOUS
10
1.02379
20
0.64081
11
1.02377
21
0.640635
0
LINE
8
BLACK
6
CONTINUOUS
10
1.02377
20
0.640635
11
1.02363
21
0.640361
0
LINE
8
BLACK
6
CONTINUOUS
10
1.02363
20
0.640361
11
1.09291
21
0.605052
0
LINE
8
BLACK
6
CONTINUOUS
10
1.09291
20
0.605052
11
1.09291
21
0.699673
0
LINE
8
BLACK
6
CONTINUOUS
10
1.09291
20
0.699673
11
1.01647
21
0.660711
0
LINE
8
BLACK
6
CONTINUOUS
10
0.972091
20
0.638095
11
0.974539
21
0.638912
0
LINE
8
BLACK
6
CONTINUOUS
10
0.974539
20
0.638912
11
0.975419
21
0.639792
0
LINE
8
BLACK
6
CONTINUOUS
10
0.975419
20
0.639792
11
0.972091
21
0.638095
0
LINE
8
BLACK
6
CONTINUOUS
10
1.00008
20
0.652362
11
1.01818
21
0.643142
0
LINE
8
BLACK
6
CONTINUOUS
10
1.01818
20
0.643142
11
1.01818
21
0.650632
0
LINE
8
BLACK
6
CONTINUOUS
10
1.01818
20
0.650632
11
1.01683
21
0.653329
0
LINE
8
BLACK
6
CONTINUOUS
10
1.01683
20
0.653329
11
1.01563
21
0.654526
0
LINE
8
BLACK
6
CONTINUOUS
10
1.01563
20
0.654526
11
1.01293
21
0.655875
0
LINE
8
BLACK
6
CONTINUOUS
10
1.01293
20
0.655875
11
1.00698
21
0.655875
0
LINE
8
BLACK
6
CONTINUOUS
10
1.00698
20
0.655875
11
1.00008
21
0.652362
0
LINE
8
BLACK
6
CONTINUOUS
10
0.984711
20
0.64983
11
0.98968
21
0.652362
0
LINE
8
BLACK
6
CONTINUOUS
10
0.98968
20
0.652362
11
0.984711
21
0.654894
0
LINE
8
BLACK
6
CONTINUOUS
10
0.984711
20
0.654894
11
0.984711
21
0.64983
0
LINE
8
BLACK
6
CONTINUOUS
10
0.945697
20
0.700394
11
0.932242
21
0.686938
0
LINE
8
BLACK
6
CONTINUOUS
10
0.932242
20
0.686938
11
0.978806
21
0.663207
0
LINE
8
BLACK
6
CONTINUOUS
10
0.978806
20
0.663207
11
0.978806
21
0.673826
0
LINE
8
BLACK
6
CONTINUOUS
10
0.978806
20
0.673826
11
0.978984
21
0.674836
0
LINE
8
BLACK
6
CONTINUOUS
10
0.978984
20
0.674836
11
0.980282
21
0.676383
0
LINE
8
BLACK
6
CONTINUOUS
10
0.980282
20
0.676383
11
0.982271
21
0.676734
0
LINE
8
BLACK
6
CONTINUOUS
10
0.982271
20
0.676734
11
0.98402
21
0.675724
0
LINE
8
BLACK
6
CONTINUOUS
10
0.98402
20
0.675724
11
0.984711
21
0.673826
0
LINE
8
BLACK
6
CONTINUOUS
10
0.984711
20
0.673826
11
0.984711
21
0.660197
0
LINE
8
BLACK
6
CONTINUOUS
10
0.984711
20
0.660197
11
0.994882
21
0.655014
0
LINE
8
BLACK
6
CONTINUOUS
10
0.994882
20
0.655014
11
0.995699
21
0.65543
0
LINE
8
BLACK
6
CONTINUOUS
10
0.995699
20
0.65543
11
0.997568
21
0.67412
0
LINE
8
BLACK
6
CONTINUOUS
10
0.997568
20
0.67412
11
0.99761
21
0.67427
0
LINE
8
BLACK
6
CONTINUOUS
10
0.99761
20
0.67427
11
0.997598
21
0.674339
0
LINE
8
BLACK
6
CONTINUOUS
10
0.997598
20
0.674339
11
0.997659
21
0.674445
0
LINE
8
BLACK
6
CONTINUOUS
10
0.997659
20
0.674445
11
0.997846
21
0.675107
0
LINE
8
BLACK
6
CONTINUOUS
10
0.997846
20
0.675107
11
0.998295
21
0.675545
0
LINE
8
BLACK
6
CONTINUOUS
10
0.998295
20
0.675545
11
0.998608
21
0.676088
0
LINE
8
BLACK
6
CONTINUOUS
10
0.998608
20
0.676088
11
0.998996
21
0.676229
0
LINE
8
BLACK
6
CONTINUOUS
10
0.998996
20
0.676229
11
0.999292
21
0.676517
0
LINE
8
BLACK
6
CONTINUOUS
10
0.999292
20
0.676517
11
0.999917
21
0.676564
0
LINE
8
BLACK
6
CONTINUOUS
10
0.999917
20
0.676564
11
1.00051
21
0.676779
0
LINE
8
BLACK
6
CONTINUOUS
10
1.00051
20
0.676779
11
1.01925
21
0.676779
0
LINE
8
BLACK
6
CONTINUOUS
10
1.01925
20
0.676779
11
1.02026
21
0.676601
0
LINE
8
BLACK
6
CONTINUOUS
10
1.02026
20
0.676601
11
1.02181
21
0.675302
0
LINE
8
BLACK
6
CONTINUOUS
10
1.02181
20
0.675302
11
1.02216
21
0.673313
0
LINE
8
BLACK
6
CONTINUOUS
10
1.02216
20
0.673313
11
1.02115
21
0.671564
0
LINE
8
BLACK
6
CONTINUOUS
10
1.02115
20
0.671564
11
1.01925
21
0.670873
0
LINE
8
BLACK
6
CONTINUOUS
10
1.01925
20
0.670873
11
1.00318
21
0.670873
0
LINE
8
BLACK
6
CONTINUOUS
10
1.00318
20
0.670873
11
1.0022
21
0.661102
0
LINE
8
BLACK
6
CONTINUOUS
10
1.0022
20
0.661102
11
1.00294
21
0.661469
0
LINE
8
BLACK
6
CONTINUOUS
10
1.00294
20
0.661469
11
1.00392
21
0.661761
0
LINE
8
BLACK
6
CONTINUOUS
10
1.00392
20
0.661761
11
1.00409
21
0.66172
0
LINE
8
BLACK
6
CONTINUOUS
10
1.00409
20
0.66172
11
1.00426
21
0.661781
0
LINE
8
BLACK
6
CONTINUOUS
10
1.00426
20
0.661781
11
1.00816
21
0.661781
0
LINE
8
BLACK
6
CONTINUOUS
10
1.00816
20
0.661781
11
1.08392
21
0.700394
0
LINE
8
BLACK
6
CONTINUOUS
10
1.08392
20
0.700394
11
0.945697
21
0.700394
0
LINE
8
BLACK
6
CONTINUOUS
10
0.618747
20
0.970188
11
0.618812
21
0.97019
0
LINE
8
BLACK
6
CONTINUOUS
10
0.618812
20
0.97019
11
0.624436
21
0.968315
0
LINE
8
BLACK
6
CONTINUOUS
10
0.624436
20
0.968315
11
0.625338
21
0.967827
0
LINE
8
BLACK
6
CONTINUOUS
10
0.625338
20
0.967827
11
0.62543
21
0.967676
0
LINE
8
BLACK
6
CONTINUOUS
10
0.62543
20
0.967676
11
0.62559
21
0.967602
0
LINE
8
BLACK
6
CONTINUOUS
10
0.62559
20
0.967602
11
0.62934
21
0.963852
0
LINE
8
BLACK
6
CONTINUOUS
10
0.62934
20
0.963852
11
0.629928
21
0.963012
0
LINE
8
BLACK
6
CONTINUOUS
10
0.629928
20
0.963012
11
0.629943
21
0.962836
0
LINE
8
BLACK
6
CONTINUOUS
10
0.629943
20
0.962836
11
0.630053
21
0.962698
0
LINE
8
BLACK
6
CONTINUOUS
10
0.630053
20
0.962698
11
0.631928
21
0.957074
0
LINE
8
BLACK
6
CONTINUOUS
10
0.631928
20
0.957074
11
0.632057
21
0.9562
0
LINE
8
BLACK
6
CONTINUOUS
10
0.632057
20
0.9562
11
0.632079
21
0.95614
0
LINE
8
BLACK
6
CONTINUOUS
10
0.632079
20
0.95614
11
0.632079
21
0.95239
0
LINE
8
BLACK
6
CONTINUOUS
10
0.632079
20
0.95239
11
0.631901
21
0.95138
0
LINE
8
BLACK
6
CONTINUOUS
10
0.631901
20
0.95138
11
0.630603
21
0.949833
0
LINE
8
BLACK
6
CONTINUOUS
10
0.630603
20
0.949833
11
0.628614
21
0.949482
0
LINE
8
BLACK
6
CONTINUOUS
10
0.628614
20
0.949482
11
0.626865
21
0.950492
0
LINE
8
BLACK
6
CONTINUOUS
10
0.626865
20
0.950492
11
0.626174
21
0.95239
0
LINE
8
BLACK
6
CONTINUOUS
10
0.626174
20
0.95239
11
0.626174
21
0.955661
0
LINE
8
BLACK
6
CONTINUOUS
10
0.626174
20
0.955661
11
0.624671
21
0.960169
0
LINE
8
BLACK
6
CONTINUOUS
10
0.624671
20
0.960169
11
0.621907
21
0.962933
0
LINE
8
BLACK
6
CONTINUOUS
10
0.621907
20
0.962933
11
0.617399
21
0.964436
0
LINE
8
BLACK
6
CONTINUOUS
10
0.617399
20
0.964436
11
0.589757
21
0.964436
0
LINE
8
BLACK
6
CONTINUOUS
10
0.589757
20
0.964436
11
0.588747
21
0.964614
0
LINE
8
BLACK
6
CONTINUOUS
10
0.588747
20
0.964614
11
0.587199
21
0.965912
0
LINE
8
BLACK
6
CONTINUOUS
10
0.587199
20
0.965912
11
0.586849
21
0.967901
0
LINE
8
BLACK
6
CONTINUOUS
10
0.586849
20
0.967901
11
0.587859
21
0.96965
0
LINE
8
BLACK
6
CONTINUOUS
10
0.587859
20
0.96965
11
0.589757
21
0.970341
0
LINE
8
BLACK
6
CONTINUOUS
10
0.589757
20
0.970341
11
0.617878
21
0.970341
0
LINE
8
BLACK
6
CONTINUOUS
10
0.617878
20
0.970341
11
0.618747
21
0.970188
0
LINE
8
BLACK
6
CONTINUOUS
10
0.622638
20
1.00953
11
0.622773
21
1.00942
0
LINE
8
BLACK
6
CONTINUOUS
10
0.622773
20
1.00942
11
0.622948
21
1.0094
0
LINE
8
BLACK
6
CONTINUOUS
10
0.622948
20
1.0094
11
0.626698
21
1.00752
0
LINE
8
BLACK
6
CONTINUOUS
10
0.626698
20
1.00752
11
0.627407
21
1.007
0
LINE
8
BLACK
6
CONTINUOUS
10
0.627407
20
1.007
11
0.627465
21
1.00697
0
LINE
8
BLACK
6
CONTINUOUS
10
0.627465
20
1.00697
11
0.62934
21
1.0051
0
LINE
8
BLACK
6
CONTINUOUS
10
0.62934
20
1.0051
11
0.629846
21
1.00437
0
LINE
8
BLACK
6
CONTINUOUS
10
0.629846
20
1.00437
11
0.629893
21
1.00433
0
LINE
8
BLACK
6
CONTINUOUS
10
0.629893
20
1.00433
11
0.631768
21
1.00058
0
LINE
8
BLACK
6
CONTINUOUS
10
0.631768
20
1.00058
11
0.63206
21
0.999597
0
LINE
8
BLACK
6
CONTINUOUS
10
0.63206
20
0.999597
11
0.632019
21
0.999425
0
LINE
8
BLACK
6
CONTINUOUS
10
0.632019
20
0.999425
11
0.632079
21
0.999259
0
LINE
8
BLACK
6
CONTINUOUS
10
0.632079
20
0.999259
11
0.632079
21
0.99176
0
LINE
8
BLACK
6
CONTINUOUS
10
0.632079
20
0.99176
11
0.631901
21
0.990751
0
LINE
8
BLACK
6
CONTINUOUS
10
0.631901
20
0.990751
11
0.631788
21
0.990615
0
LINE
8
BLACK
6
CONTINUOUS
10
0.631788
20
0.990615
11
0.631768
21
0.99044
0
LINE
8
BLACK
6
CONTINUOUS
10
0.631768
20
0.99044
11
0.629893
21
0.98669
0
LINE
8
BLACK
6
CONTINUOUS
10
0.629893
20
0.98669
11
0.629367
21
0.985981
0
LINE
8
BLACK
6
CONTINUOUS
10
0.629367
20
0.985981
11
0.62934
21
0.985923
0
LINE
8
BLACK
6
CONTINUOUS
10
0.62934
20
0.985923
11
0.627465
21
0.984048
0
LINE
8
BLACK
6
CONTINUOUS
10
0.627465
20
0.984048
11
0.626742
21
0.983542
0
LINE
8
BLACK
6
CONTINUOUS
10
0.626742
20
0.983542
11
0.626698
21
0.983495
0
LINE
8
BLACK
6
CONTINUOUS
10
0.626698
20
0.983495
11
0.622948
21
0.98162
0
LINE
8
BLACK
6
CONTINUOUS
10
0.622948
20
0.98162
11
0.621965
21
0.981328
0
LINE
8
BLACK
6
CONTINUOUS
10
0.621965
20
0.981328
11
0.621794
21
0.981369
0
LINE
8
BLACK
6
CONTINUOUS
10
0.621794
20
0.981369
11
0.621628
21
0.981309
0
LINE
8
BLACK
6
CONTINUOUS
10
0.621628
20
0.981309
11
0.60663
21
0.981309
0
LINE
8
BLACK
6
CONTINUOUS
10
0.60663
20
0.981309
11
0.606049
21
0.981411
0
LINE
8
BLACK
6
CONTINUOUS
10
0.606049
20
0.981411
11
0.605913
21
0.981397
0
LINE
8
BLACK
6
CONTINUOUS
10
0.605913
20
0.981397
11
0.598414
21
0.983272
0
LINE
8
BLACK
6
CONTINUOUS
10
0.598414
20
0.983272
11
0.597509
21
0.983675
0
LINE
8
BLACK
6
CONTINUOUS
10
0.597509
20
0.983675
11
0.597493
21
0.983679
0
LINE
8
BLACK
6
CONTINUOUS
10
0.597493
20
0.983679
11
0.591868
21
0.987429
0
LINE
8
BLACK
6
CONTINUOUS
10
0.591868
20
0.987429
11
0.591543
21
0.98774
0
LINE
8
BLACK
6
CONTINUOUS
10
0.591543
20
0.98774
11
0.591418
21
0.987798
0
LINE
8
BLACK
6
CONTINUOUS
10
0.591418
20
0.987798
11
0.589544
21
0.989673
0
LINE
8
BLACK
6
CONTINUOUS
10
0.589544
20
0.989673
11
0.589037
21
0.990396
0
LINE
8
BLACK
6
CONTINUOUS
10
0.589037
20
0.990396
11
0.58899
21
0.99044
0
LINE
8
BLACK
6
CONTINUOUS
10
0.58899
20
0.99044
11
0.587116
21
0.994189
0
LINE
8
BLACK
6
CONTINUOUS
10
0.587116
20
0.994189
11
0.586823
21
0.995172
0
LINE
8
BLACK
6
CONTINUOUS
10
0.586823
20
0.995172
11
0.586864
21
0.995344
0
LINE
8
BLACK
6
CONTINUOUS
10
0.586864
20
0.995344
11
0.586804
21
0.99551
0
LINE
8
BLACK
6
CONTINUOUS
10
0.586804
20
0.99551
11
0.586804
21
1.00301
0
LINE
8
BLACK
6
CONTINUOUS
10
0.586804
20
1.00301
11
0.586982
21
1.00402
0
LINE
8
BLACK
6
CONTINUOUS
10
0.586982
20
1.00402
11
0.58828
21
1.00557
0
LINE
8
BLACK
6
CONTINUOUS
10
0.58828
20
1.00557
11
0.590269
21
1.00592
0
LINE
8
BLACK
6
CONTINUOUS
10
0.590269
20
1.00592
11
0.592019
21
1.00491
0
LINE
8
BLACK
6
CONTINUOUS
10
0.592019
20
1.00491
11
0.592709
21
1.00301
0
LINE
8
BLACK
6
CONTINUOUS
10
0.592709
20
1.00301
11
0.592709
21
0.996207
0
LINE
8
BLACK
6
CONTINUOUS
10
0.592709
20
0.996207
11
0.594058
21
0.99351
0
LINE
8
BLACK
6
CONTINUOUS
10
0.594058
20
0.99351
11
0.595387
21
0.99218
0
LINE
8
BLACK
6
CONTINUOUS
10
0.595387
20
0.99218
11
0.600343
21
0.988877
0
LINE
8
BLACK
6
CONTINUOUS
10
0.600343
20
0.988877
11
0.60326
21
0.988147
0
LINE
8
BLACK
6
CONTINUOUS
10
0.60326
20
0.988147
11
0.602114
21
0.99044
0
LINE
8
BLACK
6
CONTINUOUS
10
0.602114
20
0.99044
11
0.601821
21
0.991423
0
LINE
8
BLACK
6
CONTINUOUS
10
0.601821
20
0.991423
11
0.601862
21
0.991595
0
LINE
8
BLACK
6
CONTINUOUS
10
0.601862
20
0.991595
11
0.601802
21
0.99176
0
LINE
8
BLACK
6
CONTINUOUS
10
0.601802
20
0.99176
11
0.601802
21
0.999259
0
LINE
8
BLACK
6
CONTINUOUS
10
0.601802
20
0.999259
11
0.60198
21
1.00027
0
LINE
8
BLACK
6
CONTINUOUS
10
0.60198
20
1.00027
11
0.602094
21
1.0004
0
LINE
8
BLACK
6
CONTINUOUS
10
0.602094
20
1.0004
11
0.602114
21
1.00058
0
LINE
8
BLACK
6
CONTINUOUS
10
0.602114
20
1.00058
11
0.603989
21
1.00433
0
LINE
8
BLACK
6
CONTINUOUS
10
0.603989
20
1.00433
11
0.604514
21
1.00504
0
LINE
8
BLACK
6
CONTINUOUS
10
0.604514
20
1.00504
11
0.604542
21
1.0051
0
LINE
8
BLACK
6
CONTINUOUS
10
0.604542
20
1.0051
11
0.606416
21
1.00697
0
LINE
8
BLACK
6
CONTINUOUS
10
0.606416
20
1.00697
11
0.607139
21
1.00748
0
LINE
8
BLACK
6
CONTINUOUS
10
0.607139
20
1.00748
11
0.607184
21
1.00752
0
LINE
8
BLACK
6
CONTINUOUS
10
0.607184
20
1.00752
11
0.610933
21
1.0094
0
LINE
8
BLACK
6
CONTINUOUS
10
0.610933
20
1.0094
11
0.611916
21
1.00969
0
LINE
8
BLACK
6
CONTINUOUS
10
0.611916
20
1.00969
11
0.612088
21
1.00965
0
LINE
8
BLACK
6
CONTINUOUS
10
0.612088
20
1.00965
11
0.612254
21
1.00971
0
LINE
8
BLACK
6
CONTINUOUS
10
0.612254
20
1.00971
11
0.621628
21
1.00971
0
LINE
8
BLACK
6
CONTINUOUS
10
0.621628
20
1.00971
11
0.622638
21
1.00953
0
LINE
8
BLACK
6
CONTINUOUS
10
0.610253
20
1.00246
11
0.609056
21
1.00126
0
LINE
8
BLACK
6
CONTINUOUS
10
0.609056
20
1.00126
11
0.607708
21
0.998562
0
LINE
8
BLACK
6
CONTINUOUS
10
0.607708
20
0.998562
11
0.607708
21
0.992457
0
LINE
8
BLACK
6
CONTINUOUS
10
0.607708
20
0.992457
11
0.609056
21
0.98976
0
LINE
8
BLACK
6
CONTINUOUS
10
0.609056
20
0.98976
11
0.610253
21
0.988563
0
LINE
8
BLACK
6
CONTINUOUS
10
0.610253
20
0.988563
11
0.612951
21
0.987214
0
LINE
8
BLACK
6
CONTINUOUS
10
0.612951
20
0.987214
11
0.620931
21
0.987214
0
LINE
8
BLACK
6
CONTINUOUS
10
0.620931
20
0.987214
11
0.623628
21
0.988563
0
LINE
8
BLACK
6
CONTINUOUS
10
0.623628
20
0.988563
11
0.624825
21
0.98976
0
LINE
8
BLACK
6
CONTINUOUS
10
0.624825
20
0.98976
11
0.626174
21
0.992458
0
LINE
8
BLACK
6
CONTINUOUS
10
0.626174
20
0.992458
11
0.626174
21
0.998562
0
LINE
8
BLACK
6
CONTINUOUS
10
0.626174
20
0.998562
11
0.624825
21
1.00126
0
LINE
8
BLACK
6
CONTINUOUS
10
0.624825
20
1.00126
11
0.623628
21
1.00246
0
LINE
8
BLACK
6
CONTINUOUS
10
0.623628
20
1.00246
11
0.620931
21
1.00381
0
LINE
8
BLACK
6
CONTINUOUS
10
0.620931
20
1.00381
11
0.612951
21
1.00381
0
LINE
8
BLACK
6
CONTINUOUS
10
0.612951
20
1.00381
11
0.610253
21
1.00246
0
LINE
8
BLACK
6
CONTINUOUS
10
0.71122
20
1.33248
11
0.712612
21
1.3319
0
LINE
8
BLACK
6
CONTINUOUS
10
0.712612
20
1.3319
11
0.713189
21
1.33051
0
LINE
8
BLACK
6
CONTINUOUS
10
0.713189
20
1.33051
11
0.713189
21
0.630512
0
LINE
8
BLACK
6
CONTINUOUS
10
0.713189
20
0.630512
11
0.712612
21
0.62912
0
LINE
8
BLACK
6
CONTINUOUS
10
0.712612
20
0.62912
11
0.71122
21
0.628543
0
LINE
8
BLACK
6
CONTINUOUS
10
0.71122
20
0.628543
11
0.51122
21
0.628543
0
LINE
8
BLACK
6
CONTINUOUS
10
0.51122
20
0.628543
11
0.509829
21
0.62912
0
LINE
8
BLACK
6
CONTINUOUS
10
0.509829
20
0.62912
11
0.509252
21
0.630512
0
LINE
8
BLACK
6
CONTINUOUS
10
0.509252
20
0.630512
11
0.509252
21
0.630512
0
LINE
8
BLACK
6
CONTINUOUS
10
0.509252
20
0.630512
11
0.509252
21
1.28051
0
LINE
8
BLACK
6
CONTINUOUS
10
0.509252
20
1.28051
11
0.509829
21
1.2819
0
LINE
8
BLACK
6
CONTINUOUS
10
0.509829
20
1.2819
11
0.509829
21
1.2819
0
LINE
8
BLACK
6
CONTINUOUS
10
0.509829
20
1.2819
11
0.559829
21
1.3319
0
LINE
8
BLACK
6
CONTINUOUS
10
0.559829
20
1.3319
11
0.559829
21
1.3319
0
LINE
8
BLACK
6
CONTINUOUS
10
0.559829
20
1.3319
11
0.56122
21
1.33248
0
LINE
8
BLACK
6
CONTINUOUS
10
0.56122
20
1.33248
11
0.71122
21
1.33248
0
LINE
8
BLACK
6
CONTINUOUS
10
0.562036
20
1.32854
11
0.513189
21
1.2797
0
LINE
8
BLACK
6
CONTINUOUS
10
0.513189
20
1.2797
11
0.513189
21
0.63248
0
LINE
8
BLACK
6
CONTINUOUS
10
0.513189
20
0.63248
11
0.709252
21
0.63248
0
LINE
8
BLACK
6
CONTINUOUS
10
0.709252
20
0.63248
11
0.709252
21
1.32854
0
LINE
8
BLACK
6
CONTINUOUS
10
0.709252
20
1.32854
11
0.562036
21
1.32854
0
LINE
8
BLACK
6
CONTINUOUS
10
0.50379
20
0.800665
11
0.504583
21
0.798808
0
LINE
8
BLACK
6
CONTINUOUS
10
0.504583
20
0.798808
11
0.503997
21
0.796875
0
LINE
8
BLACK
6
CONTINUOUS
10
0.503997
20
0.796875
11
0.488661
21
0.776426
0
LINE
8
BLACK
6
CONTINUOUS
10
0.488661
20
0.776426
11
0.503723
21
0.761364
0
LINE
8
BLACK
6
CONTINUOUS
10
0.503723
20
0.761364
11
0.504311
21
0.760524
0
LINE
8
BLACK
6
CONTINUOUS
10
0.504311
20
0.760524
11
0.504487
21
0.758512
0
LINE
8
BLACK
6
CONTINUOUS
10
0.504487
20
0.758512
11
0.503328
21
0.756858
0
LINE
8
BLACK
6
CONTINUOUS
10
0.503328
20
0.756858
11
0.501377
21
0.756335
0
LINE
8
BLACK
6
CONTINUOUS
10
0.501377
20
0.756335
11
0.499547
21
0.757188
0
LINE
8
BLACK
6
CONTINUOUS
10
0.499547
20
0.757188
11
0.48209
21
0.774645
0
LINE
8
BLACK
6
CONTINUOUS
10
0.48209
20
0.774645
11
0.48209
21
0.759276
0
LINE
8
BLACK
6
CONTINUOUS
10
0.48209
20
0.759276
11
0.481912
21
0.758266
0
LINE
8
BLACK
6
CONTINUOUS
10
0.481912
20
0.758266
11
0.480614
21
0.756719
0
LINE
8
BLACK
6
CONTINUOUS
10
0.480614
20
0.756719
11
0.478625
21
0.756368
0
LINE
8
BLACK
6
CONTINUOUS
10
0.478625
20
0.756368
11
0.476876
21
0.757378
0
LINE
8
BLACK
6
CONTINUOUS
10
0.476876
20
0.757378
11
0.476185
21
0.759276
0
LINE
8
BLACK
6
CONTINUOUS
10
0.476185
20
0.759276
11
0.476185
21
0.798646
0
LINE
8
BLACK
6
CONTINUOUS
10
0.476185
20
0.798646
11
0.476363
21
0.799656
0
LINE
8
BLACK
6
CONTINUOUS
10
0.476363
20
0.799656
11
0.477661
21
0.801204
0
LINE
8
BLACK
6
CONTINUOUS
10
0.477661
20
0.801204
11
0.47965
21
0.801554
0
LINE
8
BLACK
6
CONTINUOUS
10
0.47965
20
0.801554
11
0.4814
21
0.800544
0
LINE
8
BLACK
6
CONTINUOUS
10
0.4814
20
0.800544
11
0.48209
21
0.798646
0
LINE
8
BLACK
6
CONTINUOUS
10
0.48209
20
0.798646
11
0.48209
21
0.782997
0
LINE
8
BLACK
6
CONTINUOUS
10
0.48209
20
0.782997
11
0.484442
21
0.780645
0
LINE
8
BLACK
6
CONTINUOUS
10
0.484442
20
0.780645
11
0.499273
21
0.800418
0
LINE
8
BLACK
6
CONTINUOUS
10
0.499273
20
0.800418
11
0.500021
21
0.801119
0
LINE
8
BLACK
6
CONTINUOUS
10
0.500021
20
0.801119
11
0.501988
21
0.801578
0
LINE
8
BLACK
6
CONTINUOUS
10
0.501988
20
0.801578
11
0.50379
21
0.800665
0
LINE
8
BLACK
6
CONTINUOUS
10
0.50438
20
0.901715
11
0.505174
21
0.899858
0
LINE
8
BLACK
6
CONTINUOUS
10
0.505174
20
0.899858
11
0.504588
21
0.897925
0
LINE
8
BLACK
6
CONTINUOUS
10
0.504588
20
0.897925
11
0.489251
21
0.877476
0
LINE
8
BLACK
6
CONTINUOUS
10
0.489251
20
0.877476
11
0.504313
21
0.862414
0
LINE
8
BLACK
6
CONTINUOUS
10
0.504313
20
0.862414
11
0.504901
21
0.861574
0
LINE
8
BLACK
6
CONTINUOUS
10
0.504901
20
0.861574
11
0.505077
21
0.859562
0
LINE
8
BLACK
6
CONTINUOUS
10
0.505077
20
0.859562
11
0.503919
21
0.857908
0
LINE
8
BLACK
6
CONTINUOUS
10
0.503919
20
0.857908
11
0.501968
21
0.857385
0
LINE
8
BLACK
6
CONTINUOUS
10
0.501968
20
0.857385
11
0.500137
21
0.858238
0
LINE
8
BLACK
6
CONTINUOUS
10
0.500137
20
0.858238
11
0.482681
21
0.875695
0
LINE
8
BLACK
6
CONTINUOUS
10
0.482681
20
0.875695
11
0.482681
21
0.860326
0
LINE
8
BLACK
6
CONTINUOUS
10
0.482681
20
0.860326
11
0.482503
21
0.859316
0
LINE
8
BLACK
6
CONTINUOUS
10
0.482503
20
0.859316
11
0.481205
21
0.857769
0
LINE
8
BLACK
6
CONTINUOUS
10
0.481205
20
0.857769
11
0.479215
21
0.857418
0
LINE
8
BLACK
6
CONTINUOUS
10
0.479215
20
0.857418
11
0.477466
21
0.858428
0
LINE
8
BLACK
6
CONTINUOUS
10
0.477466
20
0.858428
11
0.476775
21
0.860326
0
LINE
8
BLACK
6
CONTINUOUS
10
0.476775
20
0.860326
11
0.476775
21
0.899696
0
LINE
8
BLACK
6
CONTINUOUS
10
0.476775
20
0.899696
11
0.476953
21
0.900706
0
LINE
8
BLACK
6
CONTINUOUS
10
0.476953
20
0.900706
11
0.478252
21
0.902254
0
LINE
8
BLACK
6
CONTINUOUS
10
0.478252
20
0.902254
11
0.480241
21
0.902604
0
LINE
8
BLACK
6
CONTINUOUS
10
0.480241
20
0.902604
11
0.48199
21
0.901594
0
LINE
8
BLACK
6
CONTINUOUS
10
0.48199
20
0.901594
11
0.482681
21
0.899696
0
LINE
8
BLACK
6
CONTINUOUS
10
0.482681
20
0.899696
11
0.482681
21
0.884047
0
LINE
8
BLACK
6
CONTINUOUS
10
0.482681
20
0.884047
11
0.485033
21
0.881694
0
LINE
8
BLACK
6
CONTINUOUS
10
0.485033
20
0.881694
11
0.499863
21
0.901468
0
LINE
8
BLACK
6
CONTINUOUS
10
0.499863
20
0.901468
11
0.500612
21
0.902169
0
LINE
8
BLACK
6
CONTINUOUS
10
0.500612
20
0.902169
11
0.502579
21
0.902628
0
LINE
8
BLACK
6
CONTINUOUS
10
0.502579
20
0.902628
11
0.50438
21
0.901715
0
LINE
8
BLACK
6
CONTINUOUS
10
0.504774
20
1.00276
11
0.505567
21
1.00091
0
LINE
8
BLACK
6
CONTINUOUS
10
0.505567
20
1.00091
11
0.504981
21
0.998975
0
LINE
8
BLACK
6
CONTINUOUS
10
0.504981
20
0.998975
11
0.489645
21
0.978526
0
LINE
8
BLACK
6
CONTINUOUS
10
0.489645
20
0.978526
11
0.504707
21
0.963464
0
LINE
8
BLACK
6
CONTINUOUS
10
0.504707
20
0.963464
11
0.505295
21
0.962624
0
LINE
8
BLACK
6
CONTINUOUS
10
0.505295
20
0.962624
11
0.505471
21
0.960612
0
LINE
8
BLACK
6
CONTINUOUS
10
0.505471
20
0.960612
11
0.504313
21
0.958957
0
LINE
8
BLACK
6
CONTINUOUS
10
0.504313
20
0.958957
11
0.502362
21
0.958435
0
LINE
8
BLACK
6
CONTINUOUS
10
0.502362
20
0.958435
11
0.500531
21
0.959288
0
LINE
8
BLACK
6
CONTINUOUS
10
0.500531
20
0.959288
11
0.483075
21
0.976745
0
LINE
8
BLACK
6
CONTINUOUS
10
0.483075
20
0.976745
11
0.483075
21
0.961376
0
LINE
8
BLACK
6
CONTINUOUS
10
0.483075
20
0.961376
11
0.482897
21
0.960366
0
LINE
8
BLACK
6
CONTINUOUS
10
0.482897
20
0.960366
11
0.481598
21
0.958819
0
LINE
8
BLACK
6
CONTINUOUS
10
0.481598
20
0.958819
11
0.479609
21
0.958468
0
LINE
8
BLACK
6
CONTINUOUS
10
0.479609
20
0.958468
11
0.47786
21
0.959478
0
LINE
8
BLACK
6
CONTINUOUS
10
0.47786
20
0.959478
11
0.477169
21
0.961376
0
LINE
8
BLACK
6
CONTINUOUS
10
0.477169
20
0.961376
11
0.477169
21
1.00075
0
LINE
8
BLACK
6
CONTINUOUS
10
0.477169
20
1.00075
11
0.477347
21
1.00176
0
LINE
8
BLACK
6
CONTINUOUS
10
0.477347
20
1.00176
11
0.478645
21
1.0033
0
LINE
8
BLACK
6
CONTINUOUS
10
0.478645
20
1.0033
11
0.480635
21
1.00365
0
LINE
8
BLACK
6
CONTINUOUS
10
0.480635
20
1.00365
11
0.482384
21
1.00264
0
LINE
8
BLACK
6
CONTINUOUS
10
0.482384
20
1.00264
11
0.483075
21
1.00075
0
LINE
8
BLACK
6
CONTINUOUS
10
0.483075
20
1.00075
11
0.483075
21
0.985096
0
LINE
8
BLACK
6
CONTINUOUS
10
0.483075
20
0.985096
11
0.485427
21
0.982744
0
LINE
8
BLACK
6
CONTINUOUS
10
0.485427
20
0.982744
11
0.500257
21
1.00252
0
LINE
8
BLACK
6
CONTINUOUS
10
0.500257
20
1.00252
11
0.501005
21
1.00322
0
LINE
8
BLACK
6
CONTINUOUS
10
0.501005
20
1.00322
11
0.502972
21
1.00368
0
LINE
8
BLACK
6
CONTINUOUS
10
0.502972
20
1.00368
11
0.504774
21
1.00276
0
LINE
8
BLACK
6
CONTINUOUS
10
0.504774
20
1.10381
11
0.505567
21
1.10196
0
LINE
8
BLACK
6
CONTINUOUS
10
0.505567
20
1.10196
11
0.504981
21
1.10002
0
LINE
8
BLACK
6
CONTINUOUS
10
0.504981
20
1.10002
11
0.489645
21
1.07958
0
LINE
8
BLACK
6
CONTINUOUS
10
0.489645
20
1.07958
11
0.504707
21
1.06451
0
LINE
8
BLACK
6
CONTINUOUS
10
0.504707
20
1.06451
11
0.505295
21
1.06367
0
LINE
8
BLACK
6
CONTINUOUS
10
0.505295
20
1.06367
11
0.505471
21
1.06166
0
LINE
8
BLACK
6
CONTINUOUS
10
0.505471
20
1.06166
11
0.504313
21
1.06001
0
LINE
8
BLACK
6
CONTINUOUS
10
0.504313
20
1.06001
11
0.502362
21
1.05948
0
LINE
8
BLACK
6
CONTINUOUS
10
0.502362
20
1.05948
11
0.500531
21
1.06034
0
LINE
8
BLACK
6
CONTINUOUS
10
0.500531
20
1.06034
11
0.483075
21
1.07779
0
LINE
8
BLACK
6
CONTINUOUS
10
0.483075
20
1.07779
11
0.483075
21
1.06243
0
LINE
8
BLACK
6
CONTINUOUS
10
0.483075
20
1.06243
11
0.482897
21
1.06142
0
LINE
8
BLACK
6
CONTINUOUS
10
0.482897
20
1.06142
11
0.481598
21
1.05987
0
LINE
8
BLACK
6
CONTINUOUS
10
0.481598
20
1.05987
11
0.479609
21
1.05952
0
LINE
8
BLACK
6
CONTINUOUS
10
0.479609
20
1.05952
11
0.47786
21
1.06053
0
LINE
8
BLACK
6
CONTINUOUS
10
0.47786
20
1.06053
11
0.477169
21
1.06243
0
LINE
8
BLACK
6
CONTINUOUS
10
0.477169
20
1.06243
11
0.477169
21
1.1018
0
LINE
8
BLACK
6
CONTINUOUS
10
0.477169
20
1.1018
11
0.477347
21
1.10281
0
LINE
8
BLACK
6
CONTINUOUS
10
0.477347
20
1.10281
11
0.478645
21
1.10435
0
LINE
8
BLACK
6
CONTINUOUS
10
0.478645
20
1.10435
11
0.480635
21
1.1047
0
LINE
8
BLACK
6
CONTINUOUS
10
0.480635
20
1.1047
11
0.482384
21
1.10369
0
LINE
8
BLACK
6
CONTINUOUS
10
0.482384
20
1.10369
11
0.483075
21
1.1018
0
LINE
8
BLACK
6
CONTINUOUS
10
0.483075
20
1.1018
11
0.483075
21
1.08615
0
LINE
8
BLACK
6
CONTINUOUS
10
0.483075
20
1.08615
11
0.485427
21
1.08379
0
LINE
8
BLACK
6
CONTINUOUS
10
0.485427
20
1.08379
11
0.500257
21
1.10357
0
LINE
8
BLACK
6
CONTINUOUS
10
0.500257
20
1.10357
11
0.501005
21
1.10427
0
LINE
8
BLACK
6
CONTINUOUS
10
0.501005
20
1.10427
11
0.502972
21
1.10473
0
LINE
8
BLACK
6
CONTINUOUS
10
0.502972
20
1.10473
11
0.504774
21
1.10381
0
LINE
8
BLACK
6
CONTINUOUS
10
0.503396
20
1.30204
11
0.504189
21
1.30019
0
LINE
8
BLACK
6
CONTINUOUS
10
0.504189
20
1.30019
11
0.503603
21
1.29825
0
LINE
8
BLACK
6
CONTINUOUS
10
0.503603
20
1.29825
11
0.488267
21
1.2778
0
LINE
8
BLACK
6
CONTINUOUS
10
0.488267
20
1.2778
11
0.503329
21
1.26274
0
LINE
8
BLACK
6
CONTINUOUS
10
0.503329
20
1.26274
11
0.503917
21
1.2619
0
LINE
8
BLACK
6
CONTINUOUS
10
0.503917
20
1.2619
11
0.504093
21
1.25989
0
LINE
8
BLACK
6
CONTINUOUS
10
0.504093
20
1.25989
11
0.502935
21
1.25824
0
LINE
8
BLACK
6
CONTINUOUS
10
0.502935
20
1.25824
11
0.500984
21
1.25771
0
LINE
8
BLACK
6
CONTINUOUS
10
0.500984
20
1.25771
11
0.499153
21
1.25857
0
LINE
8
BLACK
6
CONTINUOUS
10
0.499153
20
1.25857
11
0.481697
21
1.27602
0
LINE
8
BLACK
6
CONTINUOUS
10
0.481697
20
1.27602
11
0.481697
21
1.26065
0
LINE
8
BLACK
6
CONTINUOUS
10
0.481697
20
1.26065
11
0.481519
21
1.25964
0
LINE
8
BLACK
6
CONTINUOUS
10
0.481519
20
1.25964
11
0.48022
21
1.2581
0
LINE
8
BLACK
6
CONTINUOUS
10
0.48022
20
1.2581
11
0.478231
21
1.25775
0
LINE
8
BLACK
6
CONTINUOUS
10
0.478231
20
1.25775
11
0.476482
21
1.25876
0
LINE
8
BLACK
6
CONTINUOUS
10
0.476482
20
1.25876
11
0.475791
21
1.26065
0
LINE
8
BLACK
6
CONTINUOUS
10
0.475791
20
1.26065
11
0.475791
21
1.30002
0
LINE
8
BLACK
6
CONTINUOUS
10
0.475791
20
1.30002
11
0.475969
21
1.30103
0
LINE
8
BLACK
6
CONTINUOUS
10
0.475969
20
1.30103
11
0.477268
21
1.30258
0
LINE
8
BLACK
6
CONTINUOUS
10
0.477268
20
1.30258
11
0.479257
21
1.30293
0
LINE
8
BLACK
6
CONTINUOUS
10
0.479257
20
1.30293
11
0.481006
21
1.30192
0
LINE
8
BLACK
6
CONTINUOUS
10
0.481006
20
1.30192
11
0.481697
21
1.30002
0
LINE
8
BLACK
6
CONTINUOUS
10
0.481697
20
1.30002
11
0.481697
21
1.28437
0
LINE
8
BLACK
6
CONTINUOUS
10
0.481697
20
1.28437
11
0.484049
21
1.28202
0
LINE
8
BLACK
6
CONTINUOUS
10
0.484049
20
1.28202
11
0.498879
21
1.3018
0
LINE
8
BLACK
6
CONTINUOUS
10
0.498879
20
1.3018
11
0.499627
21
1.3025
0
LINE
8
BLACK
6
CONTINUOUS
10
0.499627
20
1.3025
11
0.501594
21
1.30296
0
LINE
8
BLACK
6
CONTINUOUS
10
0.501594
20
1.30296
11
0.503396
21
1.30204
0
LINE
8
BLACK
6
CONTINUOUS
10
1.48436
20
1.56223
11
1.48505
21
1.56033
0
LINE
8
BLACK
6
CONTINUOUS
10
1.48505
20
1.56033
11
1.48505
21
1.53408
0
LINE
8
BLACK
6
CONTINUOUS
10
1.48505
20
1.53408
11
1.48487
21
1.53307
0
LINE
8
BLACK
6
CONTINUOUS
10
1.48487
20
1.53307
11
1.48464
21
1.53281
0
LINE
8
BLACK
6
CONTINUOUS
10
1.48464
20
1.53281
11
1.48456
21
1.53247
0
LINE
8
BLACK
6
CONTINUOUS
10
1.48456
20
1.53247
11
1.48401
21
1.53205
0
LINE
8
BLACK
6
CONTINUOUS
10
1.48401
20
1.53205
11
1.48357
21
1.53153
0
LINE
8
BLACK
6
CONTINUOUS
10
1.48357
20
1.53153
11
1.48323
21
1.53147
0
LINE
8
BLACK
6
CONTINUOUS
10
1.48323
20
1.53147
11
1.48295
21
1.53126
0
LINE
8
BLACK
6
CONTINUOUS
10
1.48295
20
1.53126
11
1.48226
21
1.5313
0
LINE
8
BLACK
6
CONTINUOUS
10
1.48226
20
1.5313
11
1.48158
21
1.53118
0
LINE
8
BLACK
6
CONTINUOUS
10
1.48158
20
1.53118
11
1.48128
21
1.53135
0
LINE
8
BLACK
6
CONTINUOUS
10
1.48128
20
1.53135
11
1.48093
21
1.53137
0
LINE
8
BLACK
6
CONTINUOUS
10
1.48093
20
1.53137
11
1.44156
21
1.54824
0
LINE
8
BLACK
6
CONTINUOUS
10
1.44156
20
1.54824
11
1.4407
21
1.5488
0
LINE
8
BLACK
6
CONTINUOUS
10
1.4407
20
1.5488
11
1.43979
21
1.55061
0
LINE
8
BLACK
6
CONTINUOUS
10
1.43979
20
1.55061
11
1.44025
21
1.55257
0
LINE
8
BLACK
6
CONTINUOUS
10
1.44025
20
1.55257
11
1.44187
21
1.55378
0
LINE
8
BLACK
6
CONTINUOUS
10
1.44187
20
1.55378
11
1.44389
21
1.55367
0
LINE
8
BLACK
6
CONTINUOUS
10
1.44389
20
1.55367
11
1.47914
21
1.53856
0
LINE
8
BLACK
6
CONTINUOUS
10
1.47914
20
1.53856
11
1.47914
21
1.56033
0
LINE
8
BLACK
6
CONTINUOUS
10
1.47914
20
1.56033
11
1.47932
21
1.56134
0
LINE
8
BLACK
6
CONTINUOUS
10
1.47932
20
1.56134
11
1.48062
21
1.56289
0
LINE
8
BLACK
6
CONTINUOUS
10
1.48062
20
1.56289
11
1.48261
21
1.56324
0
LINE
8
BLACK
6
CONTINUOUS
10
1.48261
20
1.56324
11
1.48436
21
1.56223
0
LINE
8
BLACK
6
CONTINUOUS
10
1.44499
20
1.59222
11
1.44568
21
1.59033
0
LINE
8
BLACK
6
CONTINUOUS
10
1.44568
20
1.59033
11
1.44568
21
1.58706
0
LINE
8
BLACK
6
CONTINUOUS
10
1.44568
20
1.58706
11
1.44718
21
1.58255
0
LINE
8
BLACK
6
CONTINUOUS
10
1.44718
20
1.58255
11
1.44994
21
1.57978
0
LINE
8
BLACK
6
CONTINUOUS
10
1.44994
20
1.57978
11
1.45445
21
1.57828
0
LINE
8
BLACK
6
CONTINUOUS
10
1.45445
20
1.57828
11
1.48209
21
1.57828
0
LINE
8
BLACK
6
CONTINUOUS
10
1.48209
20
1.57828
11
1.4831
21
1.5781
0
LINE
8
BLACK
6
CONTINUOUS
10
1.4831
20
1.5781
11
1.48465
21
1.5768
0
LINE
8
BLACK
6
CONTINUOUS
10
1.48465
20
1.5768
11
1.485
21
1.57482
0
LINE
8
BLACK
6
CONTINUOUS
10
1.485
20
1.57482
11
1.48399
21
1.57307
0
LINE
8
BLACK
6
CONTINUOUS
10
1.48399
20
1.57307
11
1.48209
21
1.57238
0
LINE
8
BLACK
6
CONTINUOUS
10
1.48209
20
1.57238
11
1.45397
21
1.57238
0
LINE
8
BLACK
6
CONTINUOUS
10
1.45397
20
1.57238
11
1.4531
21
1.57253
0
LINE
8
BLACK
6
CONTINUOUS
10
1.4531
20
1.57253
11
1.45304
21
1.57253
0
LINE
8
BLACK
6
CONTINUOUS
10
1.45304
20
1.57253
11
1.44741
21
1.5744
0
LINE
8
BLACK
6
CONTINUOUS
10
1.44741
20
1.5744
11
1.44651
21
1.57489
0
LINE
8
BLACK
6
CONTINUOUS
10
1.44651
20
1.57489
11
1.44642
21
1.57504
0
LINE
8
BLACK
6
CONTINUOUS
10
1.44642
20
1.57504
11
1.44626
21
1.57511
0
LINE
8
BLACK
6
CONTINUOUS
10
1.44626
20
1.57511
11
1.44251
21
1.57886
0
LINE
8
BLACK
6
CONTINUOUS
10
1.44251
20
1.57886
11
1.44192
21
1.5797
0
LINE
8
BLACK
6
CONTINUOUS
10
1.44192
20
1.5797
11
1.44191
21
1.57988
0
LINE
8
BLACK
6
CONTINUOUS
10
1.44191
20
1.57988
11
1.4418
21
1.58002
0
LINE
8
BLACK
6
CONTINUOUS
10
1.4418
20
1.58002
11
1.43992
21
1.58564
0
LINE
8
BLACK
6
CONTINUOUS
10
1.43992
20
1.58564
11
1.43979
21
1.58652
0
LINE
8
BLACK
6
CONTINUOUS
10
1.43979
20
1.58652
11
1.43977
21
1.58658
0
LINE
8
BLACK
6
CONTINUOUS
10
1.43977
20
1.58658
11
1.43977
21
1.59033
0
LINE
8
BLACK
6
CONTINUOUS
10
1.43977
20
1.59033
11
1.43995
21
1.59134
0
LINE
8
BLACK
6
CONTINUOUS
10
1.43995
20
1.59134
11
1.44125
21
1.59288
0
LINE
8
BLACK
6
CONTINUOUS
10
1.44125
20
1.59288
11
1.44324
21
1.59323
0
LINE
8
BLACK
6
CONTINUOUS
10
1.44324
20
1.59323
11
1.44499
21
1.59222
0
LINE
8
BLACK
6
CONTINUOUS
10
1.31503
20
1.7323
11
1.31658
21
1.731
0
LINE
8
BLACK
6
CONTINUOUS
10
1.31658
20
1.731
11
1.31693
21
1.72901
0
LINE
8
BLACK
6
CONTINUOUS
10
1.31693
20
1.72901
11
1.31592
21
1.72726
0
LINE
8
BLACK
6
CONTINUOUS
10
1.31592
20
1.72726
11
1.31402
21
1.72657
0
LINE
8
BLACK
6
CONTINUOUS
10
1.31402
20
1.72657
11
1.28403
21
1.72657
0
LINE
8
BLACK
6
CONTINUOUS
10
1.28403
20
1.72657
11
1.28302
21
1.72675
0
LINE
8
BLACK
6
CONTINUOUS
10
1.28302
20
1.72675
11
1.28147
21
1.72805
0
LINE
8
BLACK
6
CONTINUOUS
10
1.28147
20
1.72805
11
1.28112
21
1.73004
0
LINE
8
BLACK
6
CONTINUOUS
10
1.28112
20
1.73004
11
1.28213
21
1.73179
0
LINE
8
BLACK
6
CONTINUOUS
10
1.28213
20
1.73179
11
1.28403
21
1.73248
0
LINE
8
BLACK
6
CONTINUOUS
10
1.28403
20
1.73248
11
1.31402
21
1.73248
0
LINE
8
BLACK
6
CONTINUOUS
10
1.31402
20
1.73248
11
1.31503
21
1.7323
0
LINE
8
BLACK
6
CONTINUOUS
10
1.23067
20
1.77542
11
1.2308
21
1.77531
0
LINE
8
BLACK
6
CONTINUOUS
10
1.2308
20
1.77531
11
1.23098
21
1.77529
0
LINE
8
BLACK
6
CONTINUOUS
10
1.23098
20
1.77529
11
1.23473
21
1.77341
0
LINE
8
BLACK
6
CONTINUOUS
10
1.23473
20
1.77341
11
1.23555
21
1.7728
0
LINE
8
BLACK
6
CONTINUOUS
10
1.23555
20
1.7728
11
1.23636
21
1.77095
0
LINE
8
BLACK
6
CONTINUOUS
10
1.23636
20
1.77095
11
1.23578
21
1.76901
0
LINE
8
BLACK
6
CONTINUOUS
10
1.23578
20
1.76901
11
1.23409
21
1.7679
0
LINE
8
BLACK
6
CONTINUOUS
10
1.23409
20
1.7679
11
1.23209
21
1.76813
0
LINE
8
BLACK
6
CONTINUOUS
10
1.23209
20
1.76813
11
1.22896
21
1.76969
0
LINE
8
BLACK
6
CONTINUOUS
10
1.22896
20
1.76969
11
1.22451
21
1.76969
0
LINE
8
BLACK
6
CONTINUOUS
10
1.22451
20
1.76969
11
1.22001
21
1.76819
0
LINE
8
BLACK
6
CONTINUOUS
10
1.22001
20
1.76819
11
1.21709
21
1.76527
0
LINE
8
BLACK
6
CONTINUOUS
10
1.21709
20
1.76527
11
1.21557
21
1.76224
0
LINE
8
BLACK
6
CONTINUOUS
10
1.21557
20
1.76224
11
1.21386
21
1.75541
0
LINE
8
BLACK
6
CONTINUOUS
10
1.21386
20
1.75541
11
1.21386
21
1.75051
0
LINE
8
BLACK
6
CONTINUOUS
10
1.21386
20
1.75051
11
1.21557
21
1.74368
0
LINE
8
BLACK
6
CONTINUOUS
10
1.21557
20
1.74368
11
1.21709
21
1.74065
0
LINE
8
BLACK
6
CONTINUOUS
10
1.21709
20
1.74065
11
1.22001
21
1.73773
0
LINE
8
BLACK
6
CONTINUOUS
10
1.22001
20
1.73773
11
1.22451
21
1.73623
0
LINE
8
BLACK
6
CONTINUOUS
10
1.22451
20
1.73623
11
1.2273
21
1.73623
0
LINE
8
BLACK
6
CONTINUOUS
10
1.2273
20
1.73623
11
1.23181
21
1.73773
0
LINE
8
BLACK
6
CONTINUOUS
10
1.23181
20
1.73773
11
1.23233
21
1.73825
0
LINE
8
BLACK
6
CONTINUOUS
10
1.23233
20
1.73825
11
1.23233
21
1.7472
0
LINE
8
BLACK
6
CONTINUOUS
10
1.23233
20
1.7472
11
1.22778
21
1.7472
0
LINE
8
BLACK
6
CONTINUOUS
10
1.22778
20
1.7472
11
1.22677
21
1.74737
0
LINE
8
BLACK
6
CONTINUOUS
10
1.22677
20
1.74737
11
1.22523
21
1.74867
0
LINE
8
BLACK
6
CONTINUOUS
10
1.22523
20
1.74867
11
1.22488
21
1.75066
0
LINE
8
BLACK
6
CONTINUOUS
10
1.22488
20
1.75066
11
1.22589
21
1.75241
0
LINE
8
BLACK
6
CONTINUOUS
10
1.22589
20
1.75241
11
1.22778
21
1.7531
0
LINE
8
BLACK
6
CONTINUOUS
10
1.22778
20
1.7531
11
1.23528
21
1.7531
0
LINE
8
BLACK
6
CONTINUOUS
10
1.23528
20
1.7531
11
1.23567
21
1.75303
0
LINE
8
BLACK
6
CONTINUOUS
10
1.23567
20
1.75303
11
1.2358
21
1.75306
0
LINE
8
BLACK
6
CONTINUOUS
10
1.2358
20
1.75306
11
1.23591
21
1.75299
0
LINE
8
BLACK
6
CONTINUOUS
10
1.23591
20
1.75299
11
1.23629
21
1.75292
0
LINE
8
BLACK
6
CONTINUOUS
10
1.23629
20
1.75292
11
1.23688
21
1.75243
0
LINE
8
BLACK
6
CONTINUOUS
10
1.23688
20
1.75243
11
1.23754
21
1.75205
0
LINE
8
BLACK
6
CONTINUOUS
10
1.23754
20
1.75205
11
1.23764
21
1.7518
0
LINE
8
BLACK
6
CONTINUOUS
10
1.23764
20
1.7518
11
1.23784
21
1.75162
0
LINE
8
BLACK
6
CONTINUOUS
10
1.23784
20
1.75162
11
1.23797
21
1.75087
0
LINE
8
BLACK
6
CONTINUOUS
10
1.23797
20
1.75087
11
1.23824
21
1.75015
0
LINE
8
BLACK
6
CONTINUOUS
10
1.23824
20
1.75015
11
1.23824
21
1.73702
0
LINE
8
BLACK
6
CONTINUOUS
10
1.23824
20
1.73702
11
1.2382
21
1.73684
0
LINE
8
BLACK
6
CONTINUOUS
10
1.2382
20
1.73684
11
1.23822
21
1.73677
0
LINE
8
BLACK
6
CONTINUOUS
10
1.23822
20
1.73677
11
1.23817
21
1.73665
0
LINE
8
BLACK
6
CONTINUOUS
10
1.23817
20
1.73665
11
1.23806
21
1.73601
0
LINE
8
BLACK
6
CONTINUOUS
10
1.23806
20
1.73601
11
1.23764
21
1.73552
0
LINE
8
BLACK
6
CONTINUOUS
10
1.23764
20
1.73552
11
1.23737
21
1.73494
0
LINE
8
BLACK
6
CONTINUOUS
10
1.23737
20
1.73494
11
1.2355
21
1.73306
0
LINE
8
BLACK
6
CONTINUOUS
10
1.2355
20
1.73306
11
1.23466
21
1.73247
0
LINE
8
BLACK
6
CONTINUOUS
10
1.23466
20
1.73247
11
1.23448
21
1.73246
0
LINE
8
BLACK
6
CONTINUOUS
10
1.23448
20
1.73246
11
1.23434
21
1.73235
0
LINE
8
BLACK
6
CONTINUOUS
10
1.23434
20
1.73235
11
1.22872
21
1.73047
0
LINE
8
BLACK
6
CONTINUOUS
10
1.22872
20
1.73047
11
1.22784
21
1.73034
0
LINE
8
BLACK
6
CONTINUOUS
10
1.22784
20
1.73034
11
1.22778
21
1.73032
0
LINE
8
BLACK
6
CONTINUOUS
10
1.22778
20
1.73032
11
1.22403
21
1.73032
0
LINE
8
BLACK
6
CONTINUOUS
10
1.22403
20
1.73032
11
1.22317
21
1.73048
0
LINE
8
BLACK
6
CONTINUOUS
10
1.22317
20
1.73048
11
1.2231
21
1.73047
0
LINE
8
BLACK
6
CONTINUOUS
10
1.2231
20
1.73047
11
1.21748
21
1.73235
0
LINE
8
BLACK
6
CONTINUOUS
10
1.21748
20
1.73235
11
1.21657
21
1.73284
0
LINE
8
BLACK
6
CONTINUOUS
10
1.21657
20
1.73284
11
1.21648
21
1.73299
0
LINE
8
BLACK
6
CONTINUOUS
10
1.21648
20
1.73299
11
1.21632
21
1.73306
0
LINE
8
BLACK
6
CONTINUOUS
10
1.21632
20
1.73306
11
1.21257
21
1.73681
0
LINE
8
BLACK
6
CONTINUOUS
10
1.21257
20
1.73681
11
1.21207
21
1.73753
0
LINE
8
BLACK
6
CONTINUOUS
10
1.21207
20
1.73753
11
1.21202
21
1.73758
0
LINE
8
BLACK
6
CONTINUOUS
10
1.21202
20
1.73758
11
1.21014
21
1.74133
0
LINE
8
BLACK
6
CONTINUOUS
10
1.21014
20
1.74133
11
1.21
21
1.74182
0
LINE
8
BLACK
6
CONTINUOUS
10
1.21
20
1.74182
11
1.20992
21
1.74193
0
LINE
8
BLACK
6
CONTINUOUS
10
1.20992
20
1.74193
11
1.20805
21
1.74943
0
LINE
8
BLACK
6
CONTINUOUS
10
1.20805
20
1.74943
11
1.20801
21
1.75002
0
LINE
8
BLACK
6
CONTINUOUS
10
1.20801
20
1.75002
11
1.20796
21
1.75015
0
LINE
8
BLACK
6
CONTINUOUS
10
1.20796
20
1.75015
11
1.20796
21
1.75577
0
LINE
8
BLACK
6
CONTINUOUS
10
1.20796
20
1.75577
11
1.20806
21
1.75635
0
LINE
8
BLACK
6
CONTINUOUS
10
1.20806
20
1.75635
11
1.20805
21
1.75649
0
LINE
8
BLACK
6
CONTINUOUS
10
1.20805
20
1.75649
11
1.20992
21
1.76399
0
LINE
8
BLACK
6
CONTINUOUS
10
1.20992
20
1.76399
11
1.21013
21
1.76445
0
LINE
8
BLACK
6
CONTINUOUS
10
1.21013
20
1.76445
11
1.21014
21
1.76459
0
LINE
8
BLACK
6
CONTINUOUS
10
1.21014
20
1.76459
11
1.21202
21
1.76834
0
LINE
8
BLACK
6
CONTINUOUS
10
1.21202
20
1.76834
11
1.21255
21
1.76905
0
LINE
8
BLACK
6
CONTINUOUS
10
1.21255
20
1.76905
11
1.21257
21
1.76911
0
LINE
8
BLACK
6
CONTINUOUS
10
1.21257
20
1.76911
11
1.21632
21
1.77286
0
LINE
8
BLACK
6
CONTINUOUS
10
1.21632
20
1.77286
11
1.21716
21
1.77345
0
LINE
8
BLACK
6
CONTINUOUS
10
1.21716
20
1.77345
11
1.21734
21
1.77346
0
LINE
8
BLACK
6
CONTINUOUS
10
1.21734
20
1.77346
11
1.21748
21
1.77357
0
LINE
8
BLACK
6
CONTINUOUS
10
1.21748
20
1.77357
11
1.2231
21
1.77545
0
LINE
8
BLACK
6
CONTINUOUS
10
1.2231
20
1.77545
11
1.22397
21
1.77558
0
LINE
8
BLACK
6
CONTINUOUS
10
1.22397
20
1.77558
11
1.22403
21
1.7756
0
LINE
8
BLACK
6
CONTINUOUS
10
1.22403
20
1.7756
11
1.22966
21
1.7756
0
LINE
8
BLACK
6
CONTINUOUS
10
1.22966
20
1.7756
11
1.23067
21
1.77542
0
LINE
8
BLACK
6
CONTINUOUS
10
1.26816
20
1.77542
11
1.2683
21
1.77531
0
LINE
8
BLACK
6
CONTINUOUS
10
1.2683
20
1.77531
11
1.26847
21
1.77529
0
LINE
8
BLACK
6
CONTINUOUS
10
1.26847
20
1.77529
11
1.27222
21
1.77341
0
LINE
8
BLACK
6
CONTINUOUS
10
1.27222
20
1.77341
11
1.27293
21
1.77289
0
LINE
8
BLACK
6
CONTINUOUS
10
1.27293
20
1.77289
11
1.27299
21
1.77286
0
LINE
8
BLACK
6
CONTINUOUS
10
1.27299
20
1.77286
11
1.27674
21
1.76911
0
LINE
8
BLACK
6
CONTINUOUS
10
1.27674
20
1.76911
11
1.27733
21
1.76827
0
LINE
8
BLACK
6
CONTINUOUS
10
1.27733
20
1.76827
11
1.27735
21
1.76798
0
LINE
8
BLACK
6
CONTINUOUS
10
1.27735
20
1.76798
11
1.27752
21
1.76774
0
LINE
8
BLACK
6
CONTINUOUS
10
1.27752
20
1.76774
11
1.27939
21
1.76024
0
LINE
8
BLACK
6
CONTINUOUS
10
1.27939
20
1.76024
11
1.27943
21
1.75965
0
LINE
8
BLACK
6
CONTINUOUS
10
1.27943
20
1.75965
11
1.27948
21
1.75952
0
LINE
8
BLACK
6
CONTINUOUS
10
1.27948
20
1.75952
11
1.27948
21
1.7464
0
LINE
8
BLACK
6
CONTINUOUS
10
1.27948
20
1.7464
11
1.27938
21
1.74582
0
LINE
8
BLACK
6
CONTINUOUS
10
1.27938
20
1.74582
11
1.27939
21
1.74568
0
LINE
8
BLACK
6
CONTINUOUS
10
1.27939
20
1.74568
11
1.27752
21
1.73818
0
LINE
8
BLACK
6
CONTINUOUS
10
1.27752
20
1.73818
11
1.2771
21
1.73725
0
LINE
8
BLACK
6
CONTINUOUS
10
1.2771
20
1.73725
11
1.27686
21
1.73708
0
LINE
8
BLACK
6
CONTINUOUS
10
1.27686
20
1.73708
11
1.27674
21
1.73681
0
LINE
8
BLACK
6
CONTINUOUS
10
1.27674
20
1.73681
11
1.27299
21
1.73306
0
LINE
8
BLACK
6
CONTINUOUS
10
1.27299
20
1.73306
11
1.27227
21
1.73256
0
LINE
8
BLACK
6
CONTINUOUS
10
1.27227
20
1.73256
11
1.27222
21
1.73251
0
LINE
8
BLACK
6
CONTINUOUS
10
1.27222
20
1.73251
11
1.26847
21
1.73063
0
LINE
8
BLACK
6
CONTINUOUS
10
1.26847
20
1.73063
11
1.26749
21
1.73034
0
LINE
8
BLACK
6
CONTINUOUS
10
1.26749
20
1.73034
11
1.26732
21
1.73038
0
LINE
8
BLACK
6
CONTINUOUS
10
1.26732
20
1.73038
11
1.26715
21
1.73032
0
LINE
8
BLACK
6
CONTINUOUS
10
1.26715
20
1.73032
11
1.25966
21
1.73032
0
LINE
8
BLACK
6
CONTINUOUS
10
1.25966
20
1.73032
11
1.25865
21
1.7305
0
LINE
8
BLACK
6
CONTINUOUS
10
1.25865
20
1.7305
11
1.25851
21
1.73061
0
LINE
8
BLACK
6
CONTINUOUS
10
1.25851
20
1.73061
11
1.25833
21
1.73063
0
LINE
8
BLACK
6
CONTINUOUS
10
1.25833
20
1.73063
11
1.25459
21
1.73251
0
LINE
8
BLACK
6
CONTINUOUS
10
1.25459
20
1.73251
11
1.25388
21
1.73303
0
LINE
8
BLACK
6
CONTINUOUS
10
1.25388
20
1.73303
11
1.25382
21
1.73306
0
LINE
8
BLACK
6
CONTINUOUS
10
1.25382
20
1.73306
11
1.25007
21
1.73681
0
LINE
8
BLACK
6
CONTINUOUS
10
1.25007
20
1.73681
11
1.24948
21
1.73765
0
LINE
8
BLACK
6
CONTINUOUS
10
1.24948
20
1.73765
11
1.24945
21
1.73794
0
LINE
8
BLACK
6
CONTINUOUS
10
1.24945
20
1.73794
11
1.24929
21
1.73818
0
LINE
8
BLACK
6
CONTINUOUS
10
1.24929
20
1.73818
11
1.24742
21
1.74568
0
LINE
8
BLACK
6
CONTINUOUS
10
1.24742
20
1.74568
11
1.24738
21
1.74627
0
LINE
8
BLACK
6
CONTINUOUS
10
1.24738
20
1.74627
11
1.24733
21
1.7464
0
LINE
8
BLACK
6
CONTINUOUS
10
1.24733
20
1.7464
11
1.24733
21
1.75952
0
LINE
8
BLACK
6
CONTINUOUS
10
1.24733
20
1.75952
11
1.24743
21
1.7601
0
LINE
8
BLACK
6
CONTINUOUS
10
1.24743
20
1.7601
11
1.24742
21
1.76024
0
LINE
8
BLACK
6
CONTINUOUS
10
1.24742
20
1.76024
11
1.24929
21
1.76774
0
LINE
8
BLACK
6
CONTINUOUS
10
1.24929
20
1.76774
11
1.24971
21
1.76867
0
LINE
8
BLACK
6
CONTINUOUS
10
1.24971
20
1.76867
11
1.24994
21
1.76884
0
LINE
8
BLACK
6
CONTINUOUS
10
1.24994
20
1.76884
11
1.25007
21
1.76911
0
LINE
8
BLACK
6
CONTINUOUS
10
1.25007
20
1.76911
11
1.25382
21
1.77286
0
LINE
8
BLACK
6
CONTINUOUS
10
1.25382
20
1.77286
11
1.25454
21
1.77336
0
LINE
8
BLACK
6
CONTINUOUS
10
1.25454
20
1.77336
11
1.25459
21
1.77341
0
LINE
8
BLACK
6
CONTINUOUS
10
1.25459
20
1.77341
11
1.25833
21
1.77529
0
LINE
8
BLACK
6
CONTINUOUS
10
1.25833
20
1.77529
11
1.25932
21
1.77558
0
LINE
8
BLACK
6
CONTINUOUS
10
1.25932
20
1.77558
11
1.25949
21
1.77554
0
LINE
8
BLACK
6
CONTINUOUS
10
1.25949
20
1.77554
11
1.25966
21
1.7756
0
LINE
8
BLACK
6
CONTINUOUS
10
1.25966
20
1.7756
11
1.26715
21
1.7756
0
LINE
8
BLACK
6
CONTINUOUS
10
1.26715
20
1.7756
11
1.26816
21
1.77542
0
LINE
8
BLACK
6
CONTINUOUS
10
1.25765
20
1.76834
11
1.25482
21
1.76551
0
LINE
8
BLACK
6
CONTINUOUS
10
1.25482
20
1.76551
11
1.25323
21
1.75916
0
LINE
8
BLACK
6
CONTINUOUS
10
1.25323
20
1.75916
11
1.25323
21
1.74676
0
LINE
8
BLACK
6
CONTINUOUS
10
1.25323
20
1.74676
11
1.25482
21
1.74041
0
LINE
8
BLACK
6
CONTINUOUS
10
1.25482
20
1.74041
11
1.25765
21
1.73758
0
LINE
8
BLACK
6
CONTINUOUS
10
1.25765
20
1.73758
11
1.26035
21
1.73623
0
LINE
8
BLACK
6
CONTINUOUS
10
1.26035
20
1.73623
11
1.26646
21
1.73623
0
LINE
8
BLACK
6
CONTINUOUS
10
1.26646
20
1.73623
11
1.26915
21
1.73758
0
LINE
8
BLACK
6
CONTINUOUS
10
1.26915
20
1.73758
11
1.27199
21
1.74041
0
LINE
8
BLACK
6
CONTINUOUS
10
1.27199
20
1.74041
11
1.27358
21
1.74676
0
LINE
8
BLACK
6
CONTINUOUS
10
1.27358
20
1.74676
11
1.27358
21
1.75916
0
LINE
8
BLACK
6
CONTINUOUS
10
1.27358
20
1.75916
11
1.27199
21
1.76551
0
LINE
8
BLACK
6
CONTINUOUS
10
1.27199
20
1.76551
11
1.26915
21
1.76834
0
LINE
8
BLACK
6
CONTINUOUS
10
1.26915
20
1.76834
11
1.26646
21
1.76969
0
LINE
8
BLACK
6
CONTINUOUS
10
1.26646
20
1.76969
11
1.26035
21
1.76969
0
LINE
8
BLACK
6
CONTINUOUS
10
1.26035
20
1.76969
11
1.25765
21
1.76834
0
LINE
8
BLACK
6
CONTINUOUS
10
1.33753
20
1.77542
11
1.33767
21
1.77531
0
LINE
8
BLACK
6
CONTINUOUS
10
1.33767
20
1.77531
11
1.33784
21
1.77529
0
LINE
8
BLACK
6
CONTINUOUS
10
1.33784
20
1.77529
11
1.34159
21
1.77341
0
LINE
8
BLACK
6
CONTINUOUS
10
1.34159
20
1.77341
11
1.3423
21
1.77289
0
LINE
8
BLACK
6
CONTINUOUS
10
1.3423
20
1.77289
11
1.34236
21
1.77286
0
LINE
8
BLACK
6
CONTINUOUS
10
1.34236
20
1.77286
11
1.34423
21
1.77098
0
LINE
8
BLACK
6
CONTINUOUS
10
1.34423
20
1.77098
11
1.34474
21
1.77026
0
LINE
8
BLACK
6
CONTINUOUS
10
1.34474
20
1.77026
11
1.34479
21
1.77022
0
LINE
8
BLACK
6
CONTINUOUS
10
1.34479
20
1.77022
11
1.34666
21
1.76647
0
LINE
8
BLACK
6
CONTINUOUS
10
1.34666
20
1.76647
11
1.34695
21
1.76548
0
LINE
8
BLACK
6
CONTINUOUS
10
1.34695
20
1.76548
11
1.34691
21
1.76531
0
LINE
8
BLACK
6
CONTINUOUS
10
1.34691
20
1.76531
11
1.34697
21
1.76515
0
LINE
8
BLACK
6
CONTINUOUS
10
1.34697
20
1.76515
11
1.34697
21
1.7614
0
LINE
8
BLACK
6
CONTINUOUS
10
1.34697
20
1.7614
11
1.34682
21
1.76053
0
LINE
8
BLACK
6
CONTINUOUS
10
1.34682
20
1.76053
11
1.34682
21
1.76046
0
LINE
8
BLACK
6
CONTINUOUS
10
1.34682
20
1.76046
11
1.34495
21
1.75484
0
LINE
8
BLACK
6
CONTINUOUS
10
1.34495
20
1.75484
11
1.34446
21
1.75394
0
LINE
8
BLACK
6
CONTINUOUS
10
1.34446
20
1.75394
11
1.34431
21
1.75384
0
LINE
8
BLACK
6
CONTINUOUS
10
1.34431
20
1.75384
11
1.34423
21
1.75368
0
LINE
8
BLACK
6
CONTINUOUS
10
1.34423
20
1.75368
11
1.32678
21
1.73623
0
LINE
8
BLACK
6
CONTINUOUS
10
1.32678
20
1.73623
11
1.34402
21
1.73623
0
LINE
8
BLACK
6
CONTINUOUS
10
1.34402
20
1.73623
11
1.34503
21
1.73605
0
LINE
8
BLACK
6
CONTINUOUS
10
1.34503
20
1.73605
11
1.34658
21
1.73475
0
LINE
8
BLACK
6
CONTINUOUS
10
1.34658
20
1.73475
11
1.34693
21
1.73276
0
LINE
8
BLACK
6
CONTINUOUS
10
1.34693
20
1.73276
11
1.34592
21
1.73101
0
LINE
8
BLACK
6
CONTINUOUS
10
1.34592
20
1.73101
11
1.34402
21
1.73032
0
LINE
8
BLACK
6
CONTINUOUS
10
1.34402
20
1.73032
11
1.31965
21
1.73032
0
LINE
8
BLACK
6
CONTINUOUS
10
1.31965
20
1.73032
11
1.31901
21
1.73043
0
LINE
8
BLACK
6
CONTINUOUS
10
1.31901
20
1.73043
11
1.31888
21
1.73042
0
LINE
8
BLACK
6
CONTINUOUS
10
1.31888
20
1.73042
11
1.31882
21
1.73047
0
LINE
8
BLACK
6
CONTINUOUS
10
1.31882
20
1.73047
11
1.31864
21
1.7305
0
LINE
8
BLACK
6
CONTINUOUS
10
1.31864
20
1.7305
11
1.31796
21
1.73107
0
LINE
8
BLACK
6
CONTINUOUS
10
1.31796
20
1.73107
11
1.31723
21
1.73158
0
LINE
8
BLACK
6
CONTINUOUS
10
1.31723
20
1.73158
11
1.31719
21
1.73171
0
LINE
8
BLACK
6
CONTINUOUS
10
1.31719
20
1.73171
11
1.31709
21
1.7318
0
LINE
8
BLACK
6
CONTINUOUS
10
1.31709
20
1.7318
11
1.31694
21
1.73267
0
LINE
8
BLACK
6
CONTINUOUS
10
1.31694
20
1.73267
11
1.31671
21
1.73353
0
LINE
8
BLACK
6
CONTINUOUS
10
1.31671
20
1.73353
11
1.31676
21
1.73365
0
LINE
8
BLACK
6
CONTINUOUS
10
1.31676
20
1.73365
11
1.31674
21
1.73379
0
LINE
8
BLACK
6
CONTINUOUS
10
1.31674
20
1.73379
11
1.31718
21
1.73456
0
LINE
8
BLACK
6
CONTINUOUS
10
1.31718
20
1.73456
11
1.31756
21
1.73536
0
LINE
8
BLACK
6
CONTINUOUS
10
1.31756
20
1.73536
11
1.33956
21
1.75737
0
LINE
8
BLACK
6
CONTINUOUS
10
1.33956
20
1.75737
11
1.34107
21
1.76188
0
LINE
8
BLACK
6
CONTINUOUS
10
1.34107
20
1.76188
11
1.34107
21
1.76445
0
LINE
8
BLACK
6
CONTINUOUS
10
1.34107
20
1.76445
11
1.33972
21
1.76715
0
LINE
8
BLACK
6
CONTINUOUS
10
1.33972
20
1.76715
11
1.33852
21
1.76834
0
LINE
8
BLACK
6
CONTINUOUS
10
1.33852
20
1.76834
11
1.33582
21
1.76969
0
LINE
8
BLACK
6
CONTINUOUS
10
1.33582
20
1.76969
11
1.32784
21
1.76969
0
LINE
8
BLACK
6
CONTINUOUS
10
1.32784
20
1.76969
11
1.32515
21
1.76834
0
LINE
8
BLACK
6
CONTINUOUS
10
1.32515
20
1.76834
11
1.32361
21
1.76681
0
LINE
8
BLACK
6
CONTINUOUS
10
1.32361
20
1.76681
11
1.32277
21
1.76622
0
LINE
8
BLACK
6
CONTINUOUS
10
1.32277
20
1.76622
11
1.32076
21
1.76604
0
LINE
8
BLACK
6
CONTINUOUS
10
1.32076
20
1.76604
11
1.3191
21
1.7672
0
LINE
8
BLACK
6
CONTINUOUS
10
1.3191
20
1.7672
11
1.31858
21
1.76915
0
LINE
8
BLACK
6
CONTINUOUS
10
1.31858
20
1.76915
11
1.31943
21
1.77098
0
LINE
8
BLACK
6
CONTINUOUS
10
1.31943
20
1.77098
11
1.32131
21
1.77286
0
LINE
8
BLACK
6
CONTINUOUS
10
1.32131
20
1.77286
11
1.32203
21
1.77336
0
LINE
8
BLACK
6
CONTINUOUS
10
1.32203
20
1.77336
11
1.32208
21
1.77341
0
LINE
8
BLACK
6
CONTINUOUS
10
1.32208
20
1.77341
11
1.32583
21
1.77529
0
LINE
8
BLACK
6
CONTINUOUS
10
1.32583
20
1.77529
11
1.32681
21
1.77558
0
LINE
8
BLACK
6
CONTINUOUS
10
1.32681
20
1.77558
11
1.32698
21
1.77554
0
LINE
8
BLACK
6
CONTINUOUS
10
1.32698
20
1.77554
11
1.32715
21
1.7756
0
LINE
8
BLACK
6
CONTINUOUS
10
1.32715
20
1.7756
11
1.33652
21
1.7756
0
LINE
8
BLACK
6
CONTINUOUS
10
1.33652
20
1.7756
11
1.33753
21
1.77542
0
LINE
8
BLACK
6
CONTINUOUS
10
1.37878
20
1.77542
11
1.38032
21
1.77412
0
LINE
8
BLACK
6
CONTINUOUS
10
1.38032
20
1.77412
11
1.38067
21
1.77213
0
LINE
8
BLACK
6
CONTINUOUS
10
1.38067
20
1.77213
11
1.37966
21
1.77038
0
LINE
8
BLACK
6
CONTINUOUS
10
1.37966
20
1.77038
11
1.37777
21
1.76969
0
LINE
8
BLACK
6
CONTINUOUS
10
1.37777
20
1.76969
11
1.37096
21
1.76969
0
LINE
8
BLACK
6
CONTINUOUS
10
1.37096
20
1.76969
11
1.36827
21
1.76834
0
LINE
8
BLACK
6
CONTINUOUS
10
1.36827
20
1.76834
11
1.36694
21
1.76701
0
LINE
8
BLACK
6
CONTINUOUS
10
1.36694
20
1.76701
11
1.36363
21
1.76206
0
LINE
8
BLACK
6
CONTINUOUS
10
1.36363
20
1.76206
11
1.3629
21
1.75914
0
LINE
8
BLACK
6
CONTINUOUS
10
1.3629
20
1.75914
11
1.3652
21
1.76029
0
LINE
8
BLACK
6
CONTINUOUS
10
1.3652
20
1.76029
11
1.36618
21
1.76058
0
LINE
8
BLACK
6
CONTINUOUS
10
1.36618
20
1.76058
11
1.36635
21
1.76054
0
LINE
8
BLACK
6
CONTINUOUS
10
1.36635
20
1.76054
11
1.36652
21
1.7606
0
LINE
8
BLACK
6
CONTINUOUS
10
1.36652
20
1.7606
11
1.37402
21
1.7606
0
LINE
8
BLACK
6
CONTINUOUS
10
1.37402
20
1.7606
11
1.37503
21
1.76042
0
LINE
8
BLACK
6
CONTINUOUS
10
1.37503
20
1.76042
11
1.37516
21
1.76031
0
LINE
8
BLACK
6
CONTINUOUS
10
1.37516
20
1.76031
11
1.37534
21
1.76029
0
LINE
8
BLACK
6
CONTINUOUS
10
1.37534
20
1.76029
11
1.37909
21
1.75841
0
LINE
8
BLACK
6
CONTINUOUS
10
1.37909
20
1.75841
11
1.37979
21
1.75789
0
LINE
8
BLACK
6
CONTINUOUS
10
1.37979
20
1.75789
11
1.37985
21
1.75786
0
LINE
8
BLACK
6
CONTINUOUS
10
1.37985
20
1.75786
11
1.38173
21
1.75599
0
LINE
8
BLACK
6
CONTINUOUS
10
1.38173
20
1.75599
11
1.38223
21
1.75526
0
LINE
8
BLACK
6
CONTINUOUS
10
1.38223
20
1.75526
11
1.38228
21
1.75522
0
LINE
8
BLACK
6
CONTINUOUS
10
1.38228
20
1.75522
11
1.38416
21
1.75147
0
LINE
8
BLACK
6
CONTINUOUS
10
1.38416
20
1.75147
11
1.38445
21
1.75049
0
LINE
8
BLACK
6
CONTINUOUS
10
1.38445
20
1.75049
11
1.38441
21
1.75031
0
LINE
8
BLACK
6
CONTINUOUS
10
1.38441
20
1.75031
11
1.38447
21
1.75015
0
LINE
8
BLACK
6
CONTINUOUS
10
1.38447
20
1.75015
11
1.38447
21
1.74077
0
LINE
8
BLACK
6
CONTINUOUS
10
1.38447
20
1.74077
11
1.38429
21
1.73976
0
LINE
8
BLACK
6
CONTINUOUS
10
1.38429
20
1.73976
11
1.38418
21
1.73963
0
LINE
8
BLACK
6
CONTINUOUS
10
1.38418
20
1.73963
11
1.38416
21
1.73945
0
LINE
8
BLACK
6
CONTINUOUS
10
1.38416
20
1.73945
11
1.38228
21
1.7357
0
LINE
8
BLACK
6
CONTINUOUS
10
1.38228
20
1.7357
11
1.38176
21
1.73499
0
LINE
8
BLACK
6
CONTINUOUS
10
1.38176
20
1.73499
11
1.38173
21
1.73494
0
LINE
8
BLACK
6
CONTINUOUS
10
1.38173
20
1.73494
11
1.37985
21
1.73306
0
LINE
8
BLACK
6
CONTINUOUS
10
1.37985
20
1.73306
11
1.37913
21
1.73256
0
LINE
8
BLACK
6
CONTINUOUS
10
1.37913
20
1.73256
11
1.37909
21
1.73251
0
LINE
8
BLACK
6
CONTINUOUS
10
1.37909
20
1.73251
11
1.37534
21
1.73063
0
LINE
8
BLACK
6
CONTINUOUS
10
1.37534
20
1.73063
11
1.37435
21
1.73034
0
LINE
8
BLACK
6
CONTINUOUS
10
1.37435
20
1.73034
11
1.37418
21
1.73038
0
LINE
8
BLACK
6
CONTINUOUS
10
1.37418
20
1.73038
11
1.37402
21
1.73032
0
LINE
8
BLACK
6
CONTINUOUS
10
1.37402
20
1.73032
11
1.36652
21
1.73032
0
LINE
8
BLACK
6
CONTINUOUS
10
1.36652
20
1.73032
11
1.36551
21
1.7305
0
LINE
8
BLACK
6
CONTINUOUS
10
1.36551
20
1.7305
11
1.36537
21
1.73061
0
LINE
8
BLACK
6
CONTINUOUS
10
1.36537
20
1.73061
11
1.3652
21
1.73063
0
LINE
8
BLACK
6
CONTINUOUS
10
1.3652
20
1.73063
11
1.36145
21
1.73251
0
LINE
8
BLACK
6
CONTINUOUS
10
1.36145
20
1.73251
11
1.36074
21
1.73303
0
LINE
8
BLACK
6
CONTINUOUS
10
1.36074
20
1.73303
11
1.36068
21
1.73306
0
LINE
8
BLACK
6
CONTINUOUS
10
1.36068
20
1.73306
11
1.3588
21
1.73494
0
LINE
8
BLACK
6
CONTINUOUS
10
1.3588
20
1.73494
11
1.3583
21
1.73566
0
LINE
8
BLACK
6
CONTINUOUS
10
1.3583
20
1.73566
11
1.35825
21
1.7357
0
LINE
8
BLACK
6
CONTINUOUS
10
1.35825
20
1.7357
11
1.35638
21
1.73945
0
LINE
8
BLACK
6
CONTINUOUS
10
1.35638
20
1.73945
11
1.35608
21
1.74044
0
LINE
8
BLACK
6
CONTINUOUS
10
1.35608
20
1.74044
11
1.35613
21
1.74061
0
LINE
8
BLACK
6
CONTINUOUS
10
1.35613
20
1.74061
11
1.35606
21
1.74077
0
LINE
8
BLACK
6
CONTINUOUS
10
1.35606
20
1.74077
11
1.35606
21
1.75577
0
LINE
8
BLACK
6
CONTINUOUS
10
1.35606
20
1.75577
11
1.35617
21
1.75635
0
LINE
8
BLACK
6
CONTINUOUS
10
1.35617
20
1.75635
11
1.35615
21
1.75649
0
LINE
8
BLACK
6
CONTINUOUS
10
1.35615
20
1.75649
11
1.35803
21
1.76399
0
LINE
8
BLACK
6
CONTINUOUS
10
1.35803
20
1.76399
11
1.35843
21
1.76489
0
LINE
8
BLACK
6
CONTINUOUS
10
1.35843
20
1.76489
11
1.35844
21
1.76491
0
LINE
8
BLACK
6
CONTINUOUS
10
1.35844
20
1.76491
11
1.36219
21
1.77053
0
LINE
8
BLACK
6
CONTINUOUS
10
1.36219
20
1.77053
11
1.3625
21
1.77086
0
LINE
8
BLACK
6
CONTINUOUS
10
1.3625
20
1.77086
11
1.36255
21
1.77098
0
LINE
8
BLACK
6
CONTINUOUS
10
1.36255
20
1.77098
11
1.36443
21
1.77286
0
LINE
8
BLACK
6
CONTINUOUS
10
1.36443
20
1.77286
11
1.36515
21
1.77336
0
LINE
8
BLACK
6
CONTINUOUS
10
1.36515
20
1.77336
11
1.3652
21
1.77341
0
LINE
8
BLACK
6
CONTINUOUS
10
1.3652
20
1.77341
11
1.36895
21
1.77529
0
LINE
8
BLACK
6
CONTINUOUS
10
1.36895
20
1.77529
11
1.36993
21
1.77558
0
LINE
8
BLACK
6
CONTINUOUS
10
1.36993
20
1.77558
11
1.3701
21
1.77554
0
LINE
8
BLACK
6
CONTINUOUS
10
1.3701
20
1.77554
11
1.37027
21
1.7756
0
LINE
8
BLACK
6
CONTINUOUS
10
1.37027
20
1.7756
11
1.37777
21
1.7756
0
LINE
8
BLACK
6
CONTINUOUS
10
1.37777
20
1.7756
11
1.37878
21
1.77542
0
LINE
8
BLACK
6
CONTINUOUS
10
1.36452
20
1.75335
11
1.36332
21
1.75215
0
LINE
8
BLACK
6
CONTINUOUS
10
1.36332
20
1.75215
11
1.36197
21
1.74945
0
LINE
8
BLACK
6
CONTINUOUS
10
1.36197
20
1.74945
11
1.36197
21
1.74147
0
LINE
8
BLACK
6
CONTINUOUS
10
1.36197
20
1.74147
11
1.36332
21
1.73877
0
LINE
8
BLACK
6
CONTINUOUS
10
1.36332
20
1.73877
11
1.36452
21
1.73758
0
LINE
8
BLACK
6
CONTINUOUS
10
1.36452
20
1.73758
11
1.36721
21
1.73623
0
LINE
8
BLACK
6
CONTINUOUS
10
1.36721
20
1.73623
11
1.37332
21
1.73623
0
LINE
8
BLACK
6
CONTINUOUS
10
1.37332
20
1.73623
11
1.37602
21
1.73758
0
LINE
8
BLACK
6
CONTINUOUS
10
1.37602
20
1.73758
11
1.37721
21
1.73877
0
LINE
8
BLACK
6
CONTINUOUS
10
1.37721
20
1.73877
11
1.37856
21
1.74147
0
LINE
8
BLACK
6
CONTINUOUS
10
1.37856
20
1.74147
11
1.37856
21
1.74945
0
LINE
8
BLACK
6
CONTINUOUS
10
1.37856
20
1.74945
11
1.37721
21
1.75215
0
LINE
8
BLACK
6
CONTINUOUS
10
1.37721
20
1.75215
11
1.37602
21
1.75335
0
LINE
8
BLACK
6
CONTINUOUS
10
1.37602
20
1.75335
11
1.37332
21
1.75469
0
LINE
8
BLACK
6
CONTINUOUS
10
1.37332
20
1.75469
11
1.36721
21
1.75469
0
LINE
8
BLACK
6
CONTINUOUS
10
1.36721
20
1.75469
11
1.36452
21
1.75335
0
LINE
8
BLACK
6
CONTINUOUS
10
1.41065
20
1.77542
11
1.41078
21
1.77531
0
LINE
8
BLACK
6
CONTINUOUS
10
1.41078
20
1.77531
11
1.41096
21
1.77529
0
LINE
8
BLACK
6
CONTINUOUS
10
1.41096
20
1.77529
11
1.41471
21
1.77341
0
LINE
8
BLACK
6
CONTINUOUS
10
1.41471
20
1.77341
11
1.41542
21
1.77289
0
LINE
8
BLACK
6
CONTINUOUS
10
1.41542
20
1.77289
11
1.41547
21
1.77286
0
LINE
8
BLACK
6
CONTINUOUS
10
1.41547
20
1.77286
11
1.41735
21
1.77098
0
LINE
8
BLACK
6
CONTINUOUS
10
1.41735
20
1.77098
11
1.41785
21
1.77026
0
LINE
8
BLACK
6
CONTINUOUS
10
1.41785
20
1.77026
11
1.4179
21
1.77022
0
LINE
8
BLACK
6
CONTINUOUS
10
1.4179
20
1.77022
11
1.41978
21
1.76647
0
LINE
8
BLACK
6
CONTINUOUS
10
1.41978
20
1.76647
11
1.41992
21
1.76598
0
LINE
8
BLACK
6
CONTINUOUS
10
1.41992
20
1.76598
11
1.42
21
1.76586
0
LINE
8
BLACK
6
CONTINUOUS
10
1.42
20
1.76586
11
1.42187
21
1.75836
0
LINE
8
BLACK
6
CONTINUOUS
10
1.42187
20
1.75836
11
1.42192
21
1.75778
0
LINE
8
BLACK
6
CONTINUOUS
10
1.42192
20
1.75778
11
1.42196
21
1.75765
0
LINE
8
BLACK
6
CONTINUOUS
10
1.42196
20
1.75765
11
1.42196
21
1.74827
0
LINE
8
BLACK
6
CONTINUOUS
10
1.42196
20
1.74827
11
1.42186
21
1.74769
0
LINE
8
BLACK
6
CONTINUOUS
10
1.42186
20
1.74769
11
1.42187
21
1.74756
0
LINE
8
BLACK
6
CONTINUOUS
10
1.42187
20
1.74756
11
1.42
21
1.74006
0
LINE
8
BLACK
6
CONTINUOUS
10
1.42
20
1.74006
11
1.41979
21
1.73959
0
LINE
8
BLACK
6
CONTINUOUS
10
1.41979
20
1.73959
11
1.41978
21
1.73945
0
LINE
8
BLACK
6
CONTINUOUS
10
1.41978
20
1.73945
11
1.4179
21
1.7357
0
LINE
8
BLACK
6
CONTINUOUS
10
1.4179
20
1.7357
11
1.41738
21
1.73499
0
LINE
8
BLACK
6
CONTINUOUS
10
1.41738
20
1.73499
11
1.41735
21
1.73494
0
LINE
8
BLACK
6
CONTINUOUS
10
1.41735
20
1.73494
11
1.41547
21
1.73306
0
LINE
8
BLACK
6
CONTINUOUS
10
1.41547
20
1.73306
11
1.41475
21
1.73256
0
LINE
8
BLACK
6
CONTINUOUS
10
1.41475
20
1.73256
11
1.41471
21
1.73251
0
LINE
8
BLACK
6
CONTINUOUS
10
1.41471
20
1.73251
11
1.41096
21
1.73063
0
LINE
8
BLACK
6
CONTINUOUS
10
1.41096
20
1.73063
11
1.40997
21
1.73034
0
LINE
8
BLACK
6
CONTINUOUS
10
1.40997
20
1.73034
11
1.4098
21
1.73038
0
LINE
8
BLACK
6
CONTINUOUS
10
1.4098
20
1.73038
11
1.40964
21
1.73032
0
LINE
8
BLACK
6
CONTINUOUS
10
1.40964
20
1.73032
11
1.40589
21
1.73032
0
LINE
8
BLACK
6
CONTINUOUS
10
1.40589
20
1.73032
11
1.40488
21
1.7305
0
LINE
8
BLACK
6
CONTINUOUS
10
1.40488
20
1.7305
11
1.40474
21
1.73061
0
LINE
8
BLACK
6
CONTINUOUS
10
1.40474
20
1.73061
11
1.40457
21
1.73063
0
LINE
8
BLACK
6
CONTINUOUS
10
1.40457
20
1.73063
11
1.40082
21
1.73251
0
LINE
8
BLACK
6
CONTINUOUS
10
1.40082
20
1.73251
11
1.40011
21
1.73303
0
LINE
8
BLACK
6
CONTINUOUS
10
1.40011
20
1.73303
11
1.40005
21
1.73306
0
LINE
8
BLACK
6
CONTINUOUS
10
1.40005
20
1.73306
11
1.39817
21
1.73494
0
LINE
8
BLACK
6
CONTINUOUS
10
1.39817
20
1.73494
11
1.39767
21
1.73566
0
LINE
8
BLACK
6
CONTINUOUS
10
1.39767
20
1.73566
11
1.39762
21
1.7357
0
LINE
8
BLACK
6
CONTINUOUS
10
1.39762
20
1.7357
11
1.39575
21
1.73945
0
LINE
8
BLACK
6
CONTINUOUS
10
1.39575
20
1.73945
11
1.3956
21
1.73994
0
LINE
8
BLACK
6
CONTINUOUS
10
1.3956
20
1.73994
11
1.39552
21
1.74006
0
LINE
8
BLACK
6
CONTINUOUS
10
1.39552
20
1.74006
11
1.39365
21
1.74756
0
LINE
8
BLACK
6
CONTINUOUS
10
1.39365
20
1.74756
11
1.39361
21
1.74814
0
LINE
8
BLACK
6
CONTINUOUS
10
1.39361
20
1.74814
11
1.39356
21
1.74827
0
LINE
8
BLACK
6
CONTINUOUS
10
1.39356
20
1.74827
11
1.39356
21
1.75765
0
LINE
8
BLACK
6
CONTINUOUS
10
1.39356
20
1.75765
11
1.39366
21
1.75823
0
LINE
8
BLACK
6
CONTINUOUS
10
1.39366
20
1.75823
11
1.39365
21
1.75836
0
LINE
8
BLACK
6
CONTINUOUS
10
1.39365
20
1.75836
11
1.39552
21
1.76586
0
LINE
8
BLACK
6
CONTINUOUS
10
1.39552
20
1.76586
11
1.39573
21
1.76633
0
LINE
8
BLACK
6
CONTINUOUS
10
1.39573
20
1.76633
11
1.39575
21
1.76647
0
LINE
8
BLACK
6
CONTINUOUS
10
1.39575
20
1.76647
11
1.39762
21
1.77022
0
LINE
8
BLACK
6
CONTINUOUS
10
1.39762
20
1.77022
11
1.39815
21
1.77092
0
LINE
8
BLACK
6
CONTINUOUS
10
1.39815
20
1.77092
11
1.39817
21
1.77098
0
LINE
8
BLACK
6
CONTINUOUS
10
1.39817
20
1.77098
11
1.40005
21
1.77286
0
LINE
8
BLACK
6
CONTINUOUS
10
1.40005
20
1.77286
11
1.40077
21
1.77336
0
LINE
8
BLACK
6
CONTINUOUS
10
1.40077
20
1.77336
11
1.40082
21
1.77341
0
LINE
8
BLACK
6
CONTINUOUS
10
1.40082
20
1.77341
11
1.40457
21
1.77529
0
LINE
8
BLACK
6
CONTINUOUS
10
1.40457
20
1.77529
11
1.40555
21
1.77558
0
LINE
8
BLACK
6
CONTINUOUS
10
1.40555
20
1.77558
11
1.40572
21
1.77554
0
LINE
8
BLACK
6
CONTINUOUS
10
1.40572
20
1.77554
11
1.40589
21
1.7756
0
LINE
8
BLACK
6
CONTINUOUS
10
1.40589
20
1.7756
11
1.40964
21
1.7756
0
LINE
8
BLACK
6
CONTINUOUS
10
1.40964
20
1.7756
11
1.41065
21
1.77542
0
LINE
8
BLACK
6
CONTINUOUS
10
1.40389
20
1.76834
11
1.40269
21
1.76715
0
LINE
8
BLACK
6
CONTINUOUS
10
1.40269
20
1.76715
11
1.40117
21
1.76412
0
LINE
8
BLACK
6
CONTINUOUS
10
1.40117
20
1.76412
11
1.39947
21
1.75728
0
LINE
8
BLACK
6
CONTINUOUS
10
1.39947
20
1.75728
11
1.39947
21
1.74864
0
LINE
8
BLACK
6
CONTINUOUS
10
1.39947
20
1.74864
11
1.40117
21
1.7418
0
LINE
8
BLACK
6
CONTINUOUS
10
1.40117
20
1.7418
11
1.40269
21
1.73877
0
LINE
8
BLACK
6
CONTINUOUS
10
1.40269
20
1.73877
11
1.40389
21
1.73758
0
LINE
8
BLACK
6
CONTINUOUS
10
1.40389
20
1.73758
11
1.40658
21
1.73623
0
LINE
8
BLACK
6
CONTINUOUS
10
1.40658
20
1.73623
11
1.40894
21
1.73623
0
LINE
8
BLACK
6
CONTINUOUS
10
1.40894
20
1.73623
11
1.41164
21
1.73758
0
LINE
8
BLACK
6
CONTINUOUS
10
1.41164
20
1.73758
11
1.41283
21
1.73877
0
LINE
8
BLACK
6
CONTINUOUS
10
1.41283
20
1.73877
11
1.41435
21
1.7418
0
LINE
8
BLACK
6
CONTINUOUS
10
1.41435
20
1.7418
11
1.41606
21
1.74864
0
LINE
8
BLACK
6
CONTINUOUS
10
1.41606
20
1.74864
11
1.41606
21
1.75728
0
LINE
8
BLACK
6
CONTINUOUS
10
1.41606
20
1.75728
11
1.41435
21
1.76412
0
LINE
8
BLACK
6
CONTINUOUS
10
1.41435
20
1.76412
11
1.41283
21
1.76715
0
LINE
8
BLACK
6
CONTINUOUS
10
1.41283
20
1.76715
11
1.41164
21
1.76834
0
LINE
8
BLACK
6
CONTINUOUS
10
1.41164
20
1.76834
11
1.40894
21
1.76969
0
LINE
8
BLACK
6
CONTINUOUS
10
1.40894
20
1.76969
11
1.40658
21
1.76969
0
LINE
8
BLACK
6
CONTINUOUS
10
1.40658
20
1.76969
11
1.40389
21
1.76834
0
LINE
8
BLACK
6
CONTINUOUS
10
1.54318
20
1.77552
11
1.54332
21
1.77554
0
LINE
8
BLACK
6
CONTINUOUS
10
1.54332
20
1.77554
11
1.54342
21
1.77548
0
LINE
8
BLACK
6
CONTINUOUS
10
1.54342
20
1.77548
11
1.54375
21
1.77542
0
LINE
8
BLACK
6
CONTINUOUS
10
1.54375
20
1.77542
11
1.54436
21
1.77491
0
LINE
8
BLACK
6
CONTINUOUS
10
1.54436
20
1.77491
11
1.54505
21
1.7745
0
LINE
8
BLACK
6
CONTINUOUS
10
1.54505
20
1.7745
11
1.54512
21
1.77427
0
LINE
8
BLACK
6
CONTINUOUS
10
1.54512
20
1.77427
11
1.5453
21
1.77412
0
LINE
8
BLACK
6
CONTINUOUS
10
1.5453
20
1.77412
11
1.54544
21
1.77334
0
LINE
8
BLACK
6
CONTINUOUS
10
1.54544
20
1.77334
11
1.5457
21
1.77258
0
LINE
8
BLACK
6
CONTINUOUS
10
1.5457
20
1.77258
11
1.54561
21
1.77236
0
LINE
8
BLACK
6
CONTINUOUS
10
1.54561
20
1.77236
11
1.54565
21
1.77213
0
LINE
8
BLACK
6
CONTINUOUS
10
1.54565
20
1.77213
11
1.54525
21
1.77144
0
LINE
8
BLACK
6
CONTINUOUS
10
1.54525
20
1.77144
11
1.54497
21
1.7707
0
LINE
8
BLACK
6
CONTINUOUS
10
1.54497
20
1.7707
11
1.53601
21
1.76046
0
LINE
8
BLACK
6
CONTINUOUS
10
1.53601
20
1.76046
11
1.53626
21
1.76042
0
LINE
8
BLACK
6
CONTINUOUS
10
1.53626
20
1.76042
11
1.53639
21
1.76031
0
LINE
8
BLACK
6
CONTINUOUS
10
1.53639
20
1.76031
11
1.53657
21
1.76029
0
LINE
8
BLACK
6
CONTINUOUS
10
1.53657
20
1.76029
11
1.54032
21
1.75841
0
LINE
8
BLACK
6
CONTINUOUS
10
1.54032
20
1.75841
11
1.54102
21
1.75789
0
LINE
8
BLACK
6
CONTINUOUS
10
1.54102
20
1.75789
11
1.54108
21
1.75786
0
LINE
8
BLACK
6
CONTINUOUS
10
1.54108
20
1.75786
11
1.54296
21
1.75599
0
LINE
8
BLACK
6
CONTINUOUS
10
1.54296
20
1.75599
11
1.54346
21
1.75526
0
LINE
8
BLACK
6
CONTINUOUS
10
1.54346
20
1.75526
11
1.54351
21
1.75522
0
LINE
8
BLACK
6
CONTINUOUS
10
1.54351
20
1.75522
11
1.54539
21
1.75147
0
LINE
8
BLACK
6
CONTINUOUS
10
1.54539
20
1.75147
11
1.54568
21
1.75049
0
LINE
8
BLACK
6
CONTINUOUS
10
1.54568
20
1.75049
11
1.54564
21
1.75031
0
LINE
8
BLACK
6
CONTINUOUS
10
1.54564
20
1.75031
11
1.5457
21
1.75015
0
LINE
8
BLACK
6
CONTINUOUS
10
1.5457
20
1.75015
11
1.5457
21
1.74077
0
LINE
8
BLACK
6
CONTINUOUS
10
1.5457
20
1.74077
11
1.54552
21
1.73976
0
LINE
8
BLACK
6
CONTINUOUS
10
1.54552
20
1.73976
11
1.54541
21
1.73963
0
LINE
8
BLACK
6
CONTINUOUS
10
1.54541
20
1.73963
11
1.54539
21
1.73945
0
LINE
8
BLACK
6
CONTINUOUS
10
1.54539
20
1.73945
11
1.54351
21
1.7357
0
LINE
8
BLACK
6
CONTINUOUS
10
1.54351
20
1.7357
11
1.54298
21
1.73499
0
LINE
8
BLACK
6
CONTINUOUS
10
1.54298
20
1.73499
11
1.54296
21
1.73494
0
LINE
8
BLACK
6
CONTINUOUS
10
1.54296
20
1.73494
11
1.54108
21
1.73306
0
LINE
8
BLACK
6
CONTINUOUS
10
1.54108
20
1.73306
11
1.54036
21
1.73256
0
LINE
8
BLACK
6
CONTINUOUS
10
1.54036
20
1.73256
11
1.54032
21
1.73251
0
LINE
8
BLACK
6
CONTINUOUS
10
1.54032
20
1.73251
11
1.53657
21
1.73063
0
LINE
8
BLACK
6
CONTINUOUS
10
1.53657
20
1.73063
11
1.53558
21
1.73034
0
LINE
8
BLACK
6
CONTINUOUS
10
1.53558
20
1.73034
11
1.53541
21
1.73038
0
LINE
8
BLACK
6
CONTINUOUS
10
1.53541
20
1.73038
11
1.53525
21
1.73032
0
LINE
8
BLACK
6
CONTINUOUS
10
1.53525
20
1.73032
11
1.524
21
1.73032
0
LINE
8
BLACK
6
CONTINUOUS
10
1.524
20
1.73032
11
1.52299
21
1.7305
0
LINE
8
BLACK
6
CONTINUOUS
10
1.52299
20
1.7305
11
1.52285
21
1.73061
0
LINE
8
BLACK
6
CONTINUOUS
10
1.52285
20
1.73061
11
1.52268
21
1.73063
0
LINE
8
BLACK
6
CONTINUOUS
10
1.52268
20
1.73063
11
1.51893
21
1.73251
0
LINE
8
BLACK
6
CONTINUOUS
10
1.51893
20
1.73251
11
1.51822
21
1.73303
0
LINE
8
BLACK
6
CONTINUOUS
10
1.51822
20
1.73303
11
1.51816
21
1.73306
0
LINE
8
BLACK
6
CONTINUOUS
10
1.51816
20
1.73306
11
1.51628
21
1.73494
0
LINE
8
BLACK
6
CONTINUOUS
10
1.51628
20
1.73494
11
1.5157
21
1.73578
0
LINE
8
BLACK
6
CONTINUOUS
10
1.5157
20
1.73578
11
1.51552
21
1.73779
0
LINE
8
BLACK
6
CONTINUOUS
10
1.51552
20
1.73779
11
1.51668
21
1.73944
0
LINE
8
BLACK
6
CONTINUOUS
10
1.51668
20
1.73944
11
1.51863
21
1.73997
0
LINE
8
BLACK
6
CONTINUOUS
10
1.51863
20
1.73997
11
1.52046
21
1.73911
0
LINE
8
BLACK
6
CONTINUOUS
10
1.52046
20
1.73911
11
1.522
21
1.73758
0
LINE
8
BLACK
6
CONTINUOUS
10
1.522
20
1.73758
11
1.52469
21
1.73623
0
LINE
8
BLACK
6
CONTINUOUS
10
1.52469
20
1.73623
11
1.53455
21
1.73623
0
LINE
8
BLACK
6
CONTINUOUS
10
1.53455
20
1.73623
11
1.53725
21
1.73758
0
LINE
8
BLACK
6
CONTINUOUS
10
1.53725
20
1.73758
11
1.53844
21
1.73877
0
LINE
8
BLACK
6
CONTINUOUS
10
1.53844
20
1.73877
11
1.53979
21
1.74147
0
LINE
8
BLACK
6
CONTINUOUS
10
1.53979
20
1.74147
11
1.53979
21
1.74945
0
LINE
8
BLACK
6
CONTINUOUS
10
1.53979
20
1.74945
11
1.53844
21
1.75215
0
LINE
8
BLACK
6
CONTINUOUS
10
1.53844
20
1.75215
11
1.53725
21
1.75335
0
LINE
8
BLACK
6
CONTINUOUS
10
1.53725
20
1.75335
11
1.53455
21
1.75469
0
LINE
8
BLACK
6
CONTINUOUS
10
1.53455
20
1.75469
11
1.52962
21
1.75469
0
LINE
8
BLACK
6
CONTINUOUS
10
1.52962
20
1.75469
11
1.52918
21
1.75477
0
LINE
8
BLACK
6
CONTINUOUS
10
1.52918
20
1.75477
11
1.52905
21
1.75475
0
LINE
8
BLACK
6
CONTINUOUS
10
1.52905
20
1.75475
11
1.52894
21
1.75481
0
LINE
8
BLACK
6
CONTINUOUS
10
1.52894
20
1.75481
11
1.52861
21
1.75487
0
LINE
8
BLACK
6
CONTINUOUS
10
1.52861
20
1.75487
11
1.528
21
1.75538
0
LINE
8
BLACK
6
CONTINUOUS
10
1.528
20
1.75538
11
1.52732
21
1.7558
0
LINE
8
BLACK
6
CONTINUOUS
10
1.52732
20
1.7558
11
1.52724
21
1.75602
0
LINE
8
BLACK
6
CONTINUOUS
10
1.52724
20
1.75602
11
1.52706
21
1.75617
0
LINE
8
BLACK
6
CONTINUOUS
10
1.52706
20
1.75617
11
1.52693
21
1.75695
0
LINE
8
BLACK
6
CONTINUOUS
10
1.52693
20
1.75695
11
1.52667
21
1.75771
0
LINE
8
BLACK
6
CONTINUOUS
10
1.52667
20
1.75771
11
1.52675
21
1.75793
0
LINE
8
BLACK
6
CONTINUOUS
10
1.52675
20
1.75793
11
1.52671
21
1.75816
0
LINE
8
BLACK
6
CONTINUOUS
10
1.52671
20
1.75816
11
1.52711
21
1.75885
0
LINE
8
BLACK
6
CONTINUOUS
10
1.52711
20
1.75885
11
1.5274
21
1.75959
0
LINE
8
BLACK
6
CONTINUOUS
10
1.5274
20
1.75959
11
1.53624
21
1.76969
0
LINE
8
BLACK
6
CONTINUOUS
10
1.53624
20
1.76969
11
1.51837
21
1.76969
0
LINE
8
BLACK
6
CONTINUOUS
10
1.51837
20
1.76969
11
1.51736
21
1.76987
0
LINE
8
BLACK
6
CONTINUOUS
10
1.51736
20
1.76987
11
1.51582
21
1.77117
0
LINE
8
BLACK
6
CONTINUOUS
10
1.51582
20
1.77117
11
1.51546
21
1.77316
0
LINE
8
BLACK
6
CONTINUOUS
10
1.51546
20
1.77316
11
1.51647
21
1.77491
0
LINE
8
BLACK
6
CONTINUOUS
10
1.51647
20
1.77491
11
1.51837
21
1.7756
0
LINE
8
BLACK
6
CONTINUOUS
10
1.51837
20
1.7756
11
1.54274
21
1.7756
0
LINE
8
BLACK
6
CONTINUOUS
10
1.54274
20
1.7756
11
1.54318
21
1.77552
0
LINE
8
BLACK
6
CONTINUOUS
10
1.56934
20
1.77552
11
1.5695
21
1.77555
0
LINE
8
BLACK
6
CONTINUOUS
10
1.5695
20
1.77555
11
1.57025
21
1.77512
0
LINE
8
BLACK
6
CONTINUOUS
10
1.57025
20
1.77512
11
1.57103
21
1.77478
0
LINE
8
BLACK
6
CONTINUOUS
10
1.57103
20
1.77478
11
1.57111
21
1.77463
0
LINE
8
BLACK
6
CONTINUOUS
10
1.57111
20
1.77463
11
1.57125
21
1.77454
0
LINE
8
BLACK
6
CONTINUOUS
10
1.57125
20
1.77454
11
1.57155
21
1.77374
0
LINE
8
BLACK
6
CONTINUOUS
10
1.57155
20
1.77374
11
1.57193
21
1.77297
0
LINE
8
BLACK
6
CONTINUOUS
10
1.57193
20
1.77297
11
1.57189
21
1.7728
0
LINE
8
BLACK
6
CONTINUOUS
10
1.57189
20
1.7728
11
1.57194
21
1.77264
0
LINE
8
BLACK
6
CONTINUOUS
10
1.57194
20
1.77264
11
1.57194
21
1.73623
0
LINE
8
BLACK
6
CONTINUOUS
10
1.57194
20
1.73623
11
1.58024
21
1.73623
0
LINE
8
BLACK
6
CONTINUOUS
10
1.58024
20
1.73623
11
1.58125
21
1.73605
0
LINE
8
BLACK
6
CONTINUOUS
10
1.58125
20
1.73605
11
1.5828
21
1.73475
0
LINE
8
BLACK
6
CONTINUOUS
10
1.5828
20
1.73475
11
1.58315
21
1.73276
0
LINE
8
BLACK
6
CONTINUOUS
10
1.58315
20
1.73276
11
1.58214
21
1.73101
0
LINE
8
BLACK
6
CONTINUOUS
10
1.58214
20
1.73101
11
1.58024
21
1.73032
0
LINE
8
BLACK
6
CONTINUOUS
10
1.58024
20
1.73032
11
1.55774
21
1.73032
0
LINE
8
BLACK
6
CONTINUOUS
10
1.55774
20
1.73032
11
1.55673
21
1.7305
0
LINE
8
BLACK
6
CONTINUOUS
10
1.55673
20
1.7305
11
1.55519
21
1.7318
0
LINE
8
BLACK
6
CONTINUOUS
10
1.55519
20
1.7318
11
1.55483
21
1.73379
0
LINE
8
BLACK
6
CONTINUOUS
10
1.55483
20
1.73379
11
1.55584
21
1.73554
0
LINE
8
BLACK
6
CONTINUOUS
10
1.55584
20
1.73554
11
1.55774
21
1.73623
0
LINE
8
BLACK
6
CONTINUOUS
10
1.55774
20
1.73623
11
1.56604
21
1.73623
0
LINE
8
BLACK
6
CONTINUOUS
10
1.56604
20
1.73623
11
1.56604
21
1.76364
0
LINE
8
BLACK
6
CONTINUOUS
10
1.56604
20
1.76364
11
1.56358
21
1.76118
0
LINE
8
BLACK
6
CONTINUOUS
10
1.56358
20
1.76118
11
1.56286
21
1.76068
0
LINE
8
BLACK
6
CONTINUOUS
10
1.56286
20
1.76068
11
1.56281
21
1.76063
0
LINE
8
BLACK
6
CONTINUOUS
10
1.56281
20
1.76063
11
1.55906
21
1.75876
0
LINE
8
BLACK
6
CONTINUOUS
10
1.55906
20
1.75876
11
1.55808
21
1.75846
0
LINE
8
BLACK
6
CONTINUOUS
10
1.55808
20
1.75846
11
1.55612
21
1.75893
0
LINE
8
BLACK
6
CONTINUOUS
10
1.55612
20
1.75893
11
1.55491
21
1.76055
0
LINE
8
BLACK
6
CONTINUOUS
10
1.55491
20
1.76055
11
1.55503
21
1.76257
0
LINE
8
BLACK
6
CONTINUOUS
10
1.55503
20
1.76257
11
1.55642
21
1.76404
0
LINE
8
BLACK
6
CONTINUOUS
10
1.55642
20
1.76404
11
1.55974
21
1.7657
0
LINE
8
BLACK
6
CONTINUOUS
10
1.55974
20
1.7657
11
1.56295
21
1.7689
0
LINE
8
BLACK
6
CONTINUOUS
10
1.56295
20
1.7689
11
1.56653
21
1.77428
0
LINE
8
BLACK
6
CONTINUOUS
10
1.56653
20
1.77428
11
1.56724
21
1.77502
0
LINE
8
BLACK
6
CONTINUOUS
10
1.56724
20
1.77502
11
1.56741
21
1.77507
0
LINE
8
BLACK
6
CONTINUOUS
10
1.56741
20
1.77507
11
1.56751
21
1.7752
0
LINE
8
BLACK
6
CONTINUOUS
10
1.56751
20
1.7752
11
1.56836
21
1.77535
0
LINE
8
BLACK
6
CONTINUOUS
10
1.56836
20
1.77535
11
1.56918
21
1.77559
0
LINE
8
BLACK
6
CONTINUOUS
10
1.56918
20
1.77559
11
1.56934
21
1.77552
0
LINE
8
BLACK
6
CONTINUOUS
10
1.60937
20
1.77542
11
1.60951
21
1.77531
0
LINE
8
BLACK
6
CONTINUOUS
10
1.60951
20
1.77531
11
1.60968
21
1.77529
0
LINE
8
BLACK
6
CONTINUOUS
10
1.60968
20
1.77529
11
1.61343
21
1.77341
0
LINE
8
BLACK
6
CONTINUOUS
10
1.61343
20
1.77341
11
1.61414
21
1.77289
0
LINE
8
BLACK
6
CONTINUOUS
10
1.61414
20
1.77289
11
1.6142
21
1.77286
0
LINE
8
BLACK
6
CONTINUOUS
10
1.6142
20
1.77286
11
1.61607
21
1.77098
0
LINE
8
BLACK
6
CONTINUOUS
10
1.61607
20
1.77098
11
1.61658
21
1.77026
0
LINE
8
BLACK
6
CONTINUOUS
10
1.61658
20
1.77026
11
1.61663
21
1.77022
0
LINE
8
BLACK
6
CONTINUOUS
10
1.61663
20
1.77022
11
1.6185
21
1.76647
0
LINE
8
BLACK
6
CONTINUOUS
10
1.6185
20
1.76647
11
1.61865
21
1.76598
0
LINE
8
BLACK
6
CONTINUOUS
10
1.61865
20
1.76598
11
1.61873
21
1.76586
0
LINE
8
BLACK
6
CONTINUOUS
10
1.61873
20
1.76586
11
1.6206
21
1.75836
0
LINE
8
BLACK
6
CONTINUOUS
10
1.6206
20
1.75836
11
1.62064
21
1.75778
0
LINE
8
BLACK
6
CONTINUOUS
10
1.62064
20
1.75778
11
1.62069
21
1.75765
0
LINE
8
BLACK
6
CONTINUOUS
10
1.62069
20
1.75765
11
1.62069
21
1.74827
0
LINE
8
BLACK
6
CONTINUOUS
10
1.62069
20
1.74827
11
1.62059
21
1.74769
0
LINE
8
BLACK
6
CONTINUOUS
10
1.62059
20
1.74769
11
1.6206
21
1.74756
0
LINE
8
BLACK
6
CONTINUOUS
10
1.6206
20
1.74756
11
1.61873
21
1.74006
0
LINE
8
BLACK
6
CONTINUOUS
10
1.61873
20
1.74006
11
1.61852
21
1.73959
0
LINE
8
BLACK
6
CONTINUOUS
10
1.61852
20
1.73959
11
1.6185
21
1.73945
0
LINE
8
BLACK
6
CONTINUOUS
10
1.6185
20
1.73945
11
1.61663
21
1.7357
0
LINE
8
BLACK
6
CONTINUOUS
10
1.61663
20
1.7357
11
1.6161
21
1.73499
0
LINE
8
BLACK
6
CONTINUOUS
10
1.6161
20
1.73499
11
1.61607
21
1.73494
0
LINE
8
BLACK
6
CONTINUOUS
10
1.61607
20
1.73494
11
1.6142
21
1.73306
0
LINE
8
BLACK
6
CONTINUOUS
10
1.6142
20
1.73306
11
1.61348
21
1.73256
0
LINE
8
BLACK
6
CONTINUOUS
10
1.61348
20
1.73256
11
1.61343
21
1.73251
0
LINE
8
BLACK
6
CONTINUOUS
10
1.61343
20
1.73251
11
1.60968
21
1.73063
0
LINE
8
BLACK
6
CONTINUOUS
10
1.60968
20
1.73063
11
1.6087
21
1.73034
0
LINE
8
BLACK
6
CONTINUOUS
10
1.6087
20
1.73034
11
1.60853
21
1.73038
0
LINE
8
BLACK
6
CONTINUOUS
10
1.60853
20
1.73038
11
1.60836
21
1.73032
0
LINE
8
BLACK
6
CONTINUOUS
10
1.60836
20
1.73032
11
1.60461
21
1.73032
0
LINE
8
BLACK
6
CONTINUOUS
10
1.60461
20
1.73032
11
1.6036
21
1.7305
0
LINE
8
BLACK
6
CONTINUOUS
10
1.6036
20
1.7305
11
1.60347
21
1.73061
0
LINE
8
BLACK
6
CONTINUOUS
10
1.60347
20
1.73061
11
1.60329
21
1.73063
0
LINE
8
BLACK
6
CONTINUOUS
10
1.60329
20
1.73063
11
1.59954
21
1.73251
0
LINE
8
BLACK
6
CONTINUOUS
10
1.59954
20
1.73251
11
1.59883
21
1.73303
0
LINE
8
BLACK
6
CONTINUOUS
10
1.59883
20
1.73303
11
1.59877
21
1.73306
0
LINE
8
BLACK
6
CONTINUOUS
10
1.59877
20
1.73306
11
1.5969
21
1.73494
0
LINE
8
BLACK
6
CONTINUOUS
10
1.5969
20
1.73494
11
1.59639
21
1.73566
0
LINE
8
BLACK
6
CONTINUOUS
10
1.59639
20
1.73566
11
1.59635
21
1.7357
0
LINE
8
BLACK
6
CONTINUOUS
10
1.59635
20
1.7357
11
1.59447
21
1.73945
0
LINE
8
BLACK
6
CONTINUOUS
10
1.59447
20
1.73945
11
1.59433
21
1.73994
0
LINE
8
BLACK
6
CONTINUOUS
10
1.59433
20
1.73994
11
1.59425
21
1.74006
0
LINE
8
BLACK
6
CONTINUOUS
10
1.59425
20
1.74006
11
1.59237
21
1.74756
0
LINE
8
BLACK
6
CONTINUOUS
10
1.59237
20
1.74756
11
1.59233
21
1.74814
0
LINE
8
BLACK
6
CONTINUOUS
10
1.59233
20
1.74814
11
1.59229
21
1.74827
0
LINE
8
BLACK
6
CONTINUOUS
10
1.59229
20
1.74827
11
1.59229
21
1.75765
0
LINE
8
BLACK
6
CONTINUOUS
10
1.59229
20
1.75765
11
1.59239
21
1.75823
0
LINE
8
BLACK
6
CONTINUOUS
10
1.59239
20
1.75823
11
1.59237
21
1.75836
0
LINE
8
BLACK
6
CONTINUOUS
10
1.59237
20
1.75836
11
1.59425
21
1.76586
0
LINE
8
BLACK
6
CONTINUOUS
10
1.59425
20
1.76586
11
1.59446
21
1.76633
0
LINE
8
BLACK
6
CONTINUOUS
10
1.59446
20
1.76633
11
1.59447
21
1.76647
0
LINE
8
BLACK
6
CONTINUOUS
10
1.59447
20
1.76647
11
1.59635
21
1.77022
0
LINE
8
BLACK
6
CONTINUOUS
10
1.59635
20
1.77022
11
1.59687
21
1.77092
0
LINE
8
BLACK
6
CONTINUOUS
10
1.59687
20
1.77092
11
1.5969
21
1.77098
0
LINE
8
BLACK
6
CONTINUOUS
10
1.5969
20
1.77098
11
1.59877
21
1.77286
0
LINE
8
BLACK
6
CONTINUOUS
10
1.59877
20
1.77286
11
1.5995
21
1.77336
0
LINE
8
BLACK
6
CONTINUOUS
10
1.5995
20
1.77336
11
1.59954
21
1.77341
0
LINE
8
BLACK
6
CONTINUOUS
10
1.59954
20
1.77341
11
1.60329
21
1.77529
0
LINE
8
BLACK
6
CONTINUOUS
10
1.60329
20
1.77529
11
1.60427
21
1.77558
0
LINE
8
BLACK
6
CONTINUOUS
10
1.60427
20
1.77558
11
1.60445
21
1.77554
0
LINE
8
BLACK
6
CONTINUOUS
10
1.60445
20
1.77554
11
1.60461
21
1.7756
0
LINE
8
BLACK
6
CONTINUOUS
10
1.60461
20
1.7756
11
1.60836
21
1.7756
0
LINE
8
BLACK
6
CONTINUOUS
10
1.60836
20
1.7756
11
1.60937
21
1.77542
0
LINE
8
BLACK
6
CONTINUOUS
10
1.60261
20
1.76834
11
1.60141
21
1.76715
0
LINE
8
BLACK
6
CONTINUOUS
10
1.60141
20
1.76715
11
1.5999
21
1.76412
0
LINE
8
BLACK
6
CONTINUOUS
10
1.5999
20
1.76412
11
1.59819
21
1.75728
0
LINE
8
BLACK
6
CONTINUOUS
10
1.59819
20
1.75728
11
1.59819
21
1.74864
0
LINE
8
BLACK
6
CONTINUOUS
10
1.59819
20
1.74864
11
1.5999
21
1.7418
0
LINE
8
BLACK
6
CONTINUOUS
10
1.5999
20
1.7418
11
1.60141
21
1.73877
0
LINE
8
BLACK
6
CONTINUOUS
10
1.60141
20
1.73877
11
1.60261
21
1.73758
0
LINE
8
BLACK
6
CONTINUOUS
10
1.60261
20
1.73758
11
1.60531
21
1.73623
0
LINE
8
BLACK
6
CONTINUOUS
10
1.60531
20
1.73623
11
1.60766
21
1.73623
0
LINE
8
BLACK
6
CONTINUOUS
10
1.60766
20
1.73623
11
1.61036
21
1.73758
0
LINE
8
BLACK
6
CONTINUOUS
10
1.61036
20
1.73758
11
1.61156
21
1.73877
0
LINE
8
BLACK
6
CONTINUOUS
10
1.61156
20
1.73877
11
1.61307
21
1.7418
0
LINE
8
BLACK
6
CONTINUOUS
10
1.61307
20
1.7418
11
1.61478
21
1.74864
0
LINE
8
BLACK
6
CONTINUOUS
10
1.61478
20
1.74864
11
1.61478
21
1.75728
0
LINE
8
BLACK
6
CONTINUOUS
10
1.61478
20
1.75728
11
1.61307
21
1.76412
0
LINE
8
BLACK
6
CONTINUOUS
10
1.61307
20
1.76412
11
1.61156
21
1.76715
0
LINE
8
BLACK
6
CONTINUOUS
10
1.61156
20
1.76715
11
1.61036
21
1.76834
0
LINE
8
BLACK
6
CONTINUOUS
10
1.61036
20
1.76834
11
1.60766
21
1.76969
0
LINE
8
BLACK
6
CONTINUOUS
10
1.60766
20
1.76969
11
1.60531
21
1.76969
0
LINE
8
BLACK
6
CONTINUOUS
10
1.60531
20
1.76969
11
1.60261
21
1.76834
0
LINE
8
BLACK
6
CONTINUOUS
10
1.64874
20
1.77542
11
1.64888
21
1.77531
0
LINE
8
BLACK
6
CONTINUOUS
10
1.64888
20
1.77531
11
1.64905
21
1.77529
0
LINE
8
BLACK
6
CONTINUOUS
10
1.64905
20
1.77529
11
1.6528
21
1.77341
0
LINE
8
BLACK
6
CONTINUOUS
10
1.6528
20
1.77341
11
1.65351
21
1.77289
0
LINE
8
BLACK
6
CONTINUOUS
10
1.65351
20
1.77289
11
1.65357
21
1.77286
0
LINE
8
BLACK
6
CONTINUOUS
10
1.65357
20
1.77286
11
1.65544
21
1.77098
0
LINE
8
BLACK
6
CONTINUOUS
10
1.65544
20
1.77098
11
1.65595
21
1.77026
0
LINE
8
BLACK
6
CONTINUOUS
10
1.65595
20
1.77026
11
1.656
21
1.77022
0
LINE
8
BLACK
6
CONTINUOUS
10
1.656
20
1.77022
11
1.65787
21
1.76647
0
LINE
8
BLACK
6
CONTINUOUS
10
1.65787
20
1.76647
11
1.65816
21
1.76548
0
LINE
8
BLACK
6
CONTINUOUS
10
1.65816
20
1.76548
11
1.65812
21
1.76531
0
LINE
8
BLACK
6
CONTINUOUS
10
1.65812
20
1.76531
11
1.65818
21
1.76515
0
LINE
8
BLACK
6
CONTINUOUS
10
1.65818
20
1.76515
11
1.65818
21
1.7614
0
LINE
8
BLACK
6
CONTINUOUS
10
1.65818
20
1.7614
11
1.65803
21
1.76053
0
LINE
8
BLACK
6
CONTINUOUS
10
1.65803
20
1.76053
11
1.65803
21
1.76046
0
LINE
8
BLACK
6
CONTINUOUS
10
1.65803
20
1.76046
11
1.65616
21
1.75484
0
LINE
8
BLACK
6
CONTINUOUS
10
1.65616
20
1.75484
11
1.65567
21
1.75394
0
LINE
8
BLACK
6
CONTINUOUS
10
1.65567
20
1.75394
11
1.65552
21
1.75384
0
LINE
8
BLACK
6
CONTINUOUS
10
1.65552
20
1.75384
11
1.65544
21
1.75368
0
LINE
8
BLACK
6
CONTINUOUS
10
1.65544
20
1.75368
11
1.63799
21
1.73623
0
LINE
8
BLACK
6
CONTINUOUS
10
1.63799
20
1.73623
11
1.65523
21
1.73623
0
LINE
8
BLACK
6
CONTINUOUS
10
1.65523
20
1.73623
11
1.65624
21
1.73605
0
LINE
8
BLACK
6
CONTINUOUS
10
1.65624
20
1.73605
11
1.65779
21
1.73475
0
LINE
8
BLACK
6
CONTINUOUS
10
1.65779
20
1.73475
11
1.65814
21
1.73276
0
LINE
8
BLACK
6
CONTINUOUS
10
1.65814
20
1.73276
11
1.65713
21
1.73101
0
LINE
8
BLACK
6
CONTINUOUS
10
1.65713
20
1.73101
11
1.65523
21
1.73032
0
LINE
8
BLACK
6
CONTINUOUS
10
1.65523
20
1.73032
11
1.63086
21
1.73032
0
LINE
8
BLACK
6
CONTINUOUS
10
1.63086
20
1.73032
11
1.63022
21
1.73043
0
LINE
8
BLACK
6
CONTINUOUS
10
1.63022
20
1.73043
11
1.63009
21
1.73042
0
LINE
8
BLACK
6
CONTINUOUS
10
1.63009
20
1.73042
11
1.63003
21
1.73047
0
LINE
8
BLACK
6
CONTINUOUS
10
1.63003
20
1.73047
11
1.62985
21
1.7305
0
LINE
8
BLACK
6
CONTINUOUS
10
1.62985
20
1.7305
11
1.62917
21
1.73107
0
LINE
8
BLACK
6
CONTINUOUS
10
1.62917
20
1.73107
11
1.62844
21
1.73158
0
LINE
8
BLACK
6
CONTINUOUS
10
1.62844
20
1.73158
11
1.6284
21
1.73171
0
LINE
8
BLACK
6
CONTINUOUS
10
1.6284
20
1.73171
11
1.6283
21
1.7318
0
LINE
8
BLACK
6
CONTINUOUS
10
1.6283
20
1.7318
11
1.62815
21
1.73267
0
LINE
8
BLACK
6
CONTINUOUS
10
1.62815
20
1.73267
11
1.62792
21
1.73353
0
LINE
8
BLACK
6
CONTINUOUS
10
1.62792
20
1.73353
11
1.62797
21
1.73365
0
LINE
8
BLACK
6
CONTINUOUS
10
1.62797
20
1.73365
11
1.62795
21
1.73379
0
LINE
8
BLACK
6
CONTINUOUS
10
1.62795
20
1.73379
11
1.6284
21
1.73456
0
LINE
8
BLACK
6
CONTINUOUS
10
1.6284
20
1.73456
11
1.62877
21
1.73536
0
LINE
8
BLACK
6
CONTINUOUS
10
1.62877
20
1.73536
11
1.65077
21
1.75737
0
LINE
8
BLACK
6
CONTINUOUS
10
1.65077
20
1.75737
11
1.65228
21
1.76188
0
LINE
8
BLACK
6
CONTINUOUS
10
1.65228
20
1.76188
11
1.65228
21
1.76445
0
LINE
8
BLACK
6
CONTINUOUS
10
1.65228
20
1.76445
11
1.65093
21
1.76715
0
LINE
8
BLACK
6
CONTINUOUS
10
1.65093
20
1.76715
11
1.64973
21
1.76834
0
LINE
8
BLACK
6
CONTINUOUS
10
1.64973
20
1.76834
11
1.64703
21
1.76969
0
LINE
8
BLACK
6
CONTINUOUS
10
1.64703
20
1.76969
11
1.63905
21
1.76969
0
LINE
8
BLACK
6
CONTINUOUS
10
1.63905
20
1.76969
11
1.63636
21
1.76834
0
LINE
8
BLACK
6
CONTINUOUS
10
1.63636
20
1.76834
11
1.63482
21
1.76681
0
LINE
8
BLACK
6
CONTINUOUS
10
1.63482
20
1.76681
11
1.63398
21
1.76622
0
LINE
8
BLACK
6
CONTINUOUS
10
1.63398
20
1.76622
11
1.63197
21
1.76604
0
LINE
8
BLACK
6
CONTINUOUS
10
1.63197
20
1.76604
11
1.63031
21
1.7672
0
LINE
8
BLACK
6
CONTINUOUS
10
1.63031
20
1.7672
11
1.62979
21
1.76915
0
LINE
8
BLACK
6
CONTINUOUS
10
1.62979
20
1.76915
11
1.63065
21
1.77098
0
LINE
8
BLACK
6
CONTINUOUS
10
1.63065
20
1.77098
11
1.63252
21
1.77286
0
LINE
8
BLACK
6
CONTINUOUS
10
1.63252
20
1.77286
11
1.63324
21
1.77336
0
LINE
8
BLACK
6
CONTINUOUS
10
1.63324
20
1.77336
11
1.63329
21
1.77341
0
LINE
8
BLACK
6
CONTINUOUS
10
1.63329
20
1.77341
11
1.63704
21
1.77529
0
LINE
8
BLACK
6
CONTINUOUS
10
1.63704
20
1.77529
11
1.63802
21
1.77558
0
LINE
8
BLACK
6
CONTINUOUS
10
1.63802
20
1.77558
11
1.63819
21
1.77554
0
LINE
8
BLACK
6
CONTINUOUS
10
1.63819
20
1.77554
11
1.63836
21
1.7756
0
LINE
8
BLACK
6
CONTINUOUS
10
1.63836
20
1.7756
11
1.64773
21
1.7756
0
LINE
8
BLACK
6
CONTINUOUS
10
1.64773
20
1.7756
11
1.64874
21
1.77542
0
LINE
8
BLACK
6
CONTINUOUS
10
1.13206
20
1.77502
11
1.13317
21
1.77333
0
LINE
8
BLACK
6
CONTINUOUS
10
1.13317
20
1.77333
11
1.13983
21
1.74534
0
LINE
8
BLACK
6
CONTINUOUS
10
1.13983
20
1.74534
11
1.14432
21
1.76216
0
LINE
8
BLACK
6
CONTINUOUS
10
1.14432
20
1.76216
11
1.14475
21
1.76309
0
LINE
8
BLACK
6
CONTINUOUS
10
1.14475
20
1.76309
11
1.14497
21
1.76324
0
LINE
8
BLACK
6
CONTINUOUS
10
1.14497
20
1.76324
11
1.14508
21
1.76349
0
LINE
8
BLACK
6
CONTINUOUS
10
1.14508
20
1.76349
11
1.14578
21
1.76381
0
LINE
8
BLACK
6
CONTINUOUS
10
1.14578
20
1.76381
11
1.1464
21
1.76425
0
LINE
8
BLACK
6
CONTINUOUS
10
1.1464
20
1.76425
11
1.14667
21
1.76422
0
LINE
8
BLACK
6
CONTINUOUS
10
1.14667
20
1.76422
11
1.14692
21
1.76434
0
LINE
8
BLACK
6
CONTINUOUS
10
1.14692
20
1.76434
11
1.14765
21
1.76414
0
LINE
8
BLACK
6
CONTINUOUS
10
1.14765
20
1.76414
11
1.14841
21
1.76407
0
LINE
8
BLACK
6
CONTINUOUS
10
1.14841
20
1.76407
11
1.1486
21
1.76388
0
LINE
8
BLACK
6
CONTINUOUS
10
1.1486
20
1.76388
11
1.14887
21
1.76381
0
LINE
8
BLACK
6
CONTINUOUS
10
1.14887
20
1.76381
11
1.1493
21
1.76319
0
LINE
8
BLACK
6
CONTINUOUS
10
1.1493
20
1.76319
11
1.14984
21
1.76265
0
LINE
8
BLACK
6
CONTINUOUS
10
1.14984
20
1.76265
11
1.14987
21
1.76238
0
LINE
8
BLACK
6
CONTINUOUS
10
1.14987
20
1.76238
11
1.15002
21
1.76216
0
LINE
8
BLACK
6
CONTINUOUS
10
1.15002
20
1.76216
11
1.15451
21
1.74534
0
LINE
8
BLACK
6
CONTINUOUS
10
1.15451
20
1.74534
11
1.16117
21
1.77333
0
LINE
8
BLACK
6
CONTINUOUS
10
1.16117
20
1.77333
11
1.16158
21
1.77427
0
LINE
8
BLACK
6
CONTINUOUS
10
1.16158
20
1.77427
11
1.1632
21
1.77547
0
LINE
8
BLACK
6
CONTINUOUS
10
1.1632
20
1.77547
11
1.16521
21
1.77536
0
LINE
8
BLACK
6
CONTINUOUS
10
1.16521
20
1.77536
11
1.16668
21
1.77397
0
LINE
8
BLACK
6
CONTINUOUS
10
1.16668
20
1.77397
11
1.16691
21
1.77196
0
LINE
8
BLACK
6
CONTINUOUS
10
1.16691
20
1.77196
11
1.15754
21
1.73259
0
LINE
8
BLACK
6
CONTINUOUS
10
1.15754
20
1.73259
11
1.15713
21
1.73165
0
LINE
8
BLACK
6
CONTINUOUS
10
1.15713
20
1.73165
11
1.15688
21
1.73147
0
LINE
8
BLACK
6
CONTINUOUS
10
1.15688
20
1.73147
11
1.15675
21
1.73118
0
LINE
8
BLACK
6
CONTINUOUS
10
1.15675
20
1.73118
11
1.15609
21
1.73088
0
LINE
8
BLACK
6
CONTINUOUS
10
1.15609
20
1.73088
11
1.15551
21
1.73045
0
LINE
8
BLACK
6
CONTINUOUS
10
1.15551
20
1.73045
11
1.1552
21
1.73046
0
LINE
8
BLACK
6
CONTINUOUS
10
1.1552
20
1.73046
11
1.15492
21
1.73033
0
LINE
8
BLACK
6
CONTINUOUS
10
1.15492
20
1.73033
11
1.15422
21
1.73052
0
LINE
8
BLACK
6
CONTINUOUS
10
1.15422
20
1.73052
11
1.1535
21
1.73056
0
LINE
8
BLACK
6
CONTINUOUS
10
1.1535
20
1.73056
11
1.15327
21
1.73078
0
LINE
8
BLACK
6
CONTINUOUS
10
1.15327
20
1.73078
11
1.15297
21
1.73086
0
LINE
8
BLACK
6
CONTINUOUS
10
1.15297
20
1.73086
11
1.15256
21
1.73145
0
LINE
8
BLACK
6
CONTINUOUS
10
1.15256
20
1.73145
11
1.15203
21
1.73195
0
LINE
8
BLACK
6
CONTINUOUS
10
1.15203
20
1.73195
11
1.15199
21
1.73226
0
LINE
8
BLACK
6
CONTINUOUS
10
1.15199
20
1.73226
11
1.15182
21
1.73251
0
LINE
8
BLACK
6
CONTINUOUS
10
1.15182
20
1.73251
11
1.14717
21
1.74994
0
LINE
8
BLACK
6
CONTINUOUS
10
1.14717
20
1.74994
11
1.14252
21
1.73251
0
LINE
8
BLACK
6
CONTINUOUS
10
1.14252
20
1.73251
11
1.14209
21
1.73158
0
LINE
8
BLACK
6
CONTINUOUS
10
1.14209
20
1.73158
11
1.14184
21
1.73141
0
LINE
8
BLACK
6
CONTINUOUS
10
1.14184
20
1.73141
11
1.1417
21
1.73113
0
LINE
8
BLACK
6
CONTINUOUS
10
1.1417
20
1.73113
11
1.14103
21
1.73084
0
LINE
8
BLACK
6
CONTINUOUS
10
1.14103
20
1.73084
11
1.14044
21
1.73042
0
LINE
8
BLACK
6
CONTINUOUS
10
1.14044
20
1.73042
11
1.14013
21
1.73045
0
LINE
8
BLACK
6
CONTINUOUS
10
1.14013
20
1.73045
11
1.13984
21
1.73033
0
LINE
8
BLACK
6
CONTINUOUS
10
1.13984
20
1.73033
11
1.13915
21
1.73053
0
LINE
8
BLACK
6
CONTINUOUS
10
1.13915
20
1.73053
11
1.13843
21
1.7306
0
LINE
8
BLACK
6
CONTINUOUS
10
1.13843
20
1.7306
11
1.13821
21
1.73082
0
LINE
8
BLACK
6
CONTINUOUS
10
1.13821
20
1.73082
11
1.13791
21
1.7309
0
LINE
8
BLACK
6
CONTINUOUS
10
1.13791
20
1.7309
11
1.13751
21
1.73151
0
LINE
8
BLACK
6
CONTINUOUS
10
1.13751
20
1.73151
11
1.137
21
1.73202
0
LINE
8
BLACK
6
CONTINUOUS
10
1.137
20
1.73202
11
1.13697
21
1.73233
0
LINE
8
BLACK
6
CONTINUOUS
10
1.13697
20
1.73233
11
1.1368
21
1.73259
0
LINE
8
BLACK
6
CONTINUOUS
10
1.1368
20
1.73259
11
1.12742
21
1.77196
0
LINE
8
BLACK
6
CONTINUOUS
10
1.12742
20
1.77196
11
1.12736
21
1.77298
0
LINE
8
BLACK
6
CONTINUOUS
10
1.12736
20
1.77298
11
1.12827
21
1.77479
0
LINE
8
BLACK
6
CONTINUOUS
10
1.12827
20
1.77479
11
1.13012
21
1.77559
0
LINE
8
BLACK
6
CONTINUOUS
10
1.13012
20
1.77559
11
1.13206
21
1.77502
0
LINE
8
BLACK
6
CONTINUOUS
10
1.18702
20
1.77538
11
1.18795
21
1.77524
0
LINE
8
BLACK
6
CONTINUOUS
10
1.18795
20
1.77524
11
1.188
21
1.77518
0
LINE
8
BLACK
6
CONTINUOUS
10
1.188
20
1.77518
11
1.18808
21
1.77516
0
LINE
8
BLACK
6
CONTINUOUS
10
1.18808
20
1.77516
11
1.18867
21
1.77443
0
LINE
8
BLACK
6
CONTINUOUS
10
1.18867
20
1.77443
11
1.18929
21
1.77373
0
LINE
8
BLACK
6
CONTINUOUS
10
1.18929
20
1.77373
11
1.18929
21
1.77365
0
LINE
8
BLACK
6
CONTINUOUS
10
1.18929
20
1.77365
11
1.18934
21
1.77358
0
LINE
8
BLACK
6
CONTINUOUS
10
1.18934
20
1.77358
11
1.20246
21
1.73421
0
LINE
8
BLACK
6
CONTINUOUS
10
1.20246
20
1.73421
11
1.20261
21
1.73319
0
LINE
8
BLACK
6
CONTINUOUS
10
1.20261
20
1.73319
11
1.20187
21
1.73132
0
LINE
8
BLACK
6
CONTINUOUS
10
1.20187
20
1.73132
11
1.2001
21
1.73035
0
LINE
8
BLACK
6
CONTINUOUS
10
1.2001
20
1.73035
11
1.19812
21
1.73076
0
LINE
8
BLACK
6
CONTINUOUS
10
1.19812
20
1.73076
11
1.19686
21
1.73234
0
LINE
8
BLACK
6
CONTINUOUS
10
1.19686
20
1.73234
11
1.19378
21
1.74157
0
LINE
8
BLACK
6
CONTINUOUS
10
1.19378
20
1.74157
11
1.17929
21
1.74157
0
LINE
8
BLACK
6
CONTINUOUS
10
1.17929
20
1.74157
11
1.17622
21
1.73234
0
LINE
8
BLACK
6
CONTINUOUS
10
1.17622
20
1.73234
11
1.17573
21
1.73144
0
LINE
8
BLACK
6
CONTINUOUS
10
1.17573
20
1.73144
11
1.17401
21
1.73038
0
LINE
8
BLACK
6
CONTINUOUS
10
1.17401
20
1.73038
11
1.17201
21
1.73068
0
LINE
8
BLACK
6
CONTINUOUS
10
1.17201
20
1.73068
11
1.17067
21
1.73219
0
LINE
8
BLACK
6
CONTINUOUS
10
1.17067
20
1.73219
11
1.17061
21
1.73421
0
LINE
8
BLACK
6
CONTINUOUS
10
1.17061
20
1.73421
11
1.18374
21
1.77358
0
LINE
8
BLACK
6
CONTINUOUS
10
1.18374
20
1.77358
11
1.18423
21
1.77448
0
LINE
8
BLACK
6
CONTINUOUS
10
1.18423
20
1.77448
11
1.1843
21
1.77452
0
LINE
8
BLACK
6
CONTINUOUS
10
1.1843
20
1.77452
11
1.18433
21
1.7746
0
LINE
8
BLACK
6
CONTINUOUS
10
1.18433
20
1.7746
11
1.18515
21
1.77505
0
LINE
8
BLACK
6
CONTINUOUS
10
1.18515
20
1.77505
11
1.18595
21
1.77554
0
LINE
8
BLACK
6
CONTINUOUS
10
1.18595
20
1.77554
11
1.18603
21
1.77553
0
LINE
8
BLACK
6
CONTINUOUS
10
1.18603
20
1.77553
11
1.18611
21
1.77557
0
LINE
8
BLACK
6
CONTINUOUS
10
1.18611
20
1.77557
11
1.18702
21
1.77538
0
LINE
8
BLACK
6
CONTINUOUS
10
1.18126
20
1.74748
11
1.19182
21
1.74748
0
LINE
8
BLACK
6
CONTINUOUS
10
1.19182
20
1.74748
11
1.18654
21
1.76331
0
LINE
8
BLACK
6
CONTINUOUS
10
1.18654
20
1.76331
11
1.18126
21
1.74748
0
LINE
8
BLACK
6
CONTINUOUS
10
1.44479
20
1.77712
11
1.44613
21
1.7756
0
LINE
8
BLACK
6
CONTINUOUS
10
1.44613
20
1.7756
11
1.44618
21
1.77359
0
LINE
8
BLACK
6
CONTINUOUS
10
1.44618
20
1.77359
11
1.4381
21
1.74935
0
LINE
8
BLACK
6
CONTINUOUS
10
1.4381
20
1.74935
11
1.4498
21
1.74935
0
LINE
8
BLACK
6
CONTINUOUS
10
1.4498
20
1.74935
11
1.4498
21
1.75952
0
LINE
8
BLACK
6
CONTINUOUS
10
1.4498
20
1.75952
11
1.44998
21
1.76053
0
LINE
8
BLACK
6
CONTINUOUS
10
1.44998
20
1.76053
11
1.45128
21
1.76208
0
LINE
8
BLACK
6
CONTINUOUS
10
1.45128
20
1.76208
11
1.45327
21
1.76243
0
LINE
8
BLACK
6
CONTINUOUS
10
1.45327
20
1.76243
11
1.45502
21
1.76142
0
LINE
8
BLACK
6
CONTINUOUS
10
1.45502
20
1.76142
11
1.45571
21
1.75952
0
LINE
8
BLACK
6
CONTINUOUS
10
1.45571
20
1.75952
11
1.45571
21
1.74935
0
LINE
8
BLACK
6
CONTINUOUS
10
1.45571
20
1.74935
11
1.45838
21
1.74935
0
LINE
8
BLACK
6
CONTINUOUS
10
1.45838
20
1.74935
11
1.45939
21
1.74917
0
LINE
8
BLACK
6
CONTINUOUS
10
1.45939
20
1.74917
11
1.46094
21
1.74787
0
LINE
8
BLACK
6
CONTINUOUS
10
1.46094
20
1.74787
11
1.46129
21
1.74589
0
LINE
8
BLACK
6
CONTINUOUS
10
1.46129
20
1.74589
11
1.46028
21
1.74414
0
LINE
8
BLACK
6
CONTINUOUS
10
1.46028
20
1.74414
11
1.45838
21
1.74345
0
LINE
8
BLACK
6
CONTINUOUS
10
1.45838
20
1.74345
11
1.45571
21
1.74345
0
LINE
8
BLACK
6
CONTINUOUS
10
1.45571
20
1.74345
11
1.45571
21
1.73327
0
LINE
8
BLACK
6
CONTINUOUS
10
1.45571
20
1.73327
11
1.45553
21
1.73226
0
LINE
8
BLACK
6
CONTINUOUS
10
1.45553
20
1.73226
11
1.45423
21
1.73072
0
LINE
8
BLACK
6
CONTINUOUS
10
1.45423
20
1.73072
11
1.45224
21
1.73037
0
LINE
8
BLACK
6
CONTINUOUS
10
1.45224
20
1.73037
11
1.45049
21
1.73138
0
LINE
8
BLACK
6
CONTINUOUS
10
1.45049
20
1.73138
11
1.4498
21
1.73327
0
LINE
8
BLACK
6
CONTINUOUS
10
1.4498
20
1.73327
11
1.4498
21
1.74345
0
LINE
8
BLACK
6
CONTINUOUS
10
1.4498
20
1.74345
11
1.43401
21
1.74345
0
LINE
8
BLACK
6
CONTINUOUS
10
1.43401
20
1.74345
11
1.433
21
1.74362
0
LINE
8
BLACK
6
CONTINUOUS
10
1.433
20
1.74362
11
1.43283
21
1.74377
0
LINE
8
BLACK
6
CONTINUOUS
10
1.43283
20
1.74377
11
1.4326
21
1.7438
0
LINE
8
BLACK
6
CONTINUOUS
10
1.4326
20
1.7438
11
1.43207
21
1.7444
0
LINE
8
BLACK
6
CONTINUOUS
10
1.43207
20
1.7444
11
1.43145
21
1.74492
0
LINE
8
BLACK
6
CONTINUOUS
10
1.43145
20
1.74492
11
1.43141
21
1.74514
0
LINE
8
BLACK
6
CONTINUOUS
10
1.43141
20
1.74514
11
1.43126
21
1.74531
0
LINE
8
BLACK
6
CONTINUOUS
10
1.43126
20
1.74531
11
1.43124
21
1.74612
0
LINE
8
BLACK
6
CONTINUOUS
10
1.43124
20
1.74612
11
1.4311
21
1.74691
0
LINE
8
BLACK
6
CONTINUOUS
10
1.4311
20
1.74691
11
1.43121
21
1.74711
0
LINE
8
BLACK
6
CONTINUOUS
10
1.43121
20
1.74711
11
1.43121
21
1.74733
0
LINE
8
BLACK
6
CONTINUOUS
10
1.43121
20
1.74733
11
1.44058
21
1.77545
0
LINE
8
BLACK
6
CONTINUOUS
10
1.44058
20
1.77545
11
1.44107
21
1.77636
0
LINE
8
BLACK
6
CONTINUOUS
10
1.44107
20
1.77636
11
1.44279
21
1.77741
0
LINE
8
BLACK
6
CONTINUOUS
10
1.44279
20
1.77741
11
1.44479
21
1.77712
0
LINE
8
BLACK
6
CONTINUOUS
10
1.50438
20
1.75105
11
1.50593
21
1.74975
0
LINE
8
BLACK
6
CONTINUOUS
10
1.50593
20
1.74975
11
1.50628
21
1.74776
0
LINE
8
BLACK
6
CONTINUOUS
10
1.50628
20
1.74776
11
1.50527
21
1.74601
0
LINE
8
BLACK
6
CONTINUOUS
10
1.50527
20
1.74601
11
1.50337
21
1.74532
0
LINE
8
BLACK
6
CONTINUOUS
10
1.50337
20
1.74532
11
1.47338
21
1.74532
0
LINE
8
BLACK
6
CONTINUOUS
10
1.47338
20
1.74532
11
1.47237
21
1.7455
0
LINE
8
BLACK
6
CONTINUOUS
10
1.47237
20
1.7455
11
1.47082
21
1.7468
0
LINE
8
BLACK
6
CONTINUOUS
10
1.47082
20
1.7468
11
1.47047
21
1.74879
0
LINE
8
BLACK
6
CONTINUOUS
10
1.47047
20
1.74879
11
1.47148
21
1.75053
0
LINE
8
BLACK
6
CONTINUOUS
10
1.47148
20
1.75053
11
1.47338
21
1.75123
0
LINE
8
BLACK
6
CONTINUOUS
10
1.47338
20
1.75123
11
1.50337
21
1.75123
0
LINE
8
BLACK
6
CONTINUOUS
10
1.50337
20
1.75123
11
1.50438
21
1.75105
0
LINE
8
BLACK
6
CONTINUOUS
10
1.74016
20
1.8122
11
1.74155
21
1.81163
0
LINE
8
BLACK
6
CONTINUOUS
10
1.74155
20
1.81163
11
1.74213
21
1.81024
0
LINE
8
BLACK
6
CONTINUOUS
10
1.74213
20
1.81024
11
1.74213
21
1.32205
0
LINE
8
BLACK
6
CONTINUOUS
10
1.74213
20
1.32205
11
1.74155
21
1.32066
0
LINE
8
BLACK
6
CONTINUOUS
10
1.74155
20
1.32066
11
1.74016
21
1.32008
0
LINE
8
BLACK
6
CONTINUOUS
10
1.74016
20
1.32008
11
1.08268
21
1.32008
0
LINE
8
BLACK
6
CONTINUOUS
10
1.08268
20
1.32008
11
1.08129
21
1.32066
0
LINE
8
BLACK
6
CONTINUOUS
10
1.08129
20
1.32066
11
1.08071
21
1.32205
0
LINE
8
BLACK
6
CONTINUOUS
10
1.08071
20
1.32205
11
1.08071
21
1.32205
0
LINE
8
BLACK
6
CONTINUOUS
10
1.08071
20
1.32205
11
1.08071
21
1.81024
0
LINE
8
BLACK
6
CONTINUOUS
10
1.08071
20
1.81024
11
1.08129
21
1.81163
0
LINE
8
BLACK
6
CONTINUOUS
10
1.08129
20
1.81163
11
1.08268
21
1.8122
0
LINE
8
BLACK
6
CONTINUOUS
10
1.08268
20
1.8122
11
1.74016
21
1.8122
0
LINE
8
BLACK
6
CONTINUOUS
10
1.08465
20
1.80827
11
1.08465
21
1.32402
0
LINE
8
BLACK
6
CONTINUOUS
10
1.08465
20
1.32402
11
1.73819
21
1.32402
0
LINE
8
BLACK
6
CONTINUOUS
10
1.73819
20
1.32402
11
1.73819
21
1.61651
0
LINE
8
BLACK
6
CONTINUOUS
10
1.73819
20
1.61651
11
1.69546
21
1.65924
0
LINE
8
BLACK
6
CONTINUOUS
10
1.69546
20
1.65924
11
1.69488
21
1.66063
0
LINE
8
BLACK
6
CONTINUOUS
10
1.69488
20
1.66063
11
1.69546
21
1.66202
0
LINE
8
BLACK
6
CONTINUOUS
10
1.69546
20
1.66202
11
1.69546
21
1.66202
0
LINE
8
BLACK
6
CONTINUOUS
10
1.69546
20
1.66202
11
1.73819
21
1.70475
0
LINE
8
BLACK
6
CONTINUOUS
10
1.73819
20
1.70475
11
1.73819
21
1.80827
0
LINE
8
BLACK
6
CONTINUOUS
10
1.73819
20
1.80827
11
1.08465
21
1.80827
0
LINE
8
BLACK
6
CONTINUOUS
10
1.69963
20
1.66063
11
1.73819
21
1.62208
0
LINE
8
BLACK
6
CONTINUOUS
10
1.73819
20
1.62208
11
1.73819
21
1.69918
0
LINE
8
BLACK
6
CONTINUOUS
10
1.73819
20
1.69918
11
1.69963
21
1.66063
0
LINE
8
BLACK
6
CONTINUOUS
10
0.755674
20
1.44777
11
0.756365
21
1.44587
0
LINE
8
BLACK
6
CONTINUOUS
10
0.756365
20
1.44587
11
0.756365
21
1.41775
0
LINE
8
BLACK
6
CONTINUOUS
10
0.756365
20
1.41775
11
0.756211
21
1.41688
0
LINE
8
BLACK
6
CONTINUOUS
10
0.756211
20
1.41688
11
0.756213
21
1.41682
0
LINE
8
BLACK
6
CONTINUOUS
10
0.756213
20
1.41682
11
0.754339
21
1.41119
0
LINE
8
BLACK
6
CONTINUOUS
10
0.754339
20
1.41119
11
0.75385
21
1.41029
0
LINE
8
BLACK
6
CONTINUOUS
10
0.75385
20
1.41029
11
0.7537
21
1.4102
0
LINE
8
BLACK
6
CONTINUOUS
10
0.7537
20
1.4102
11
0.753625
21
1.41004
0
LINE
8
BLACK
6
CONTINUOUS
10
0.753625
20
1.41004
11
0.749876
21
1.40629
0
LINE
8
BLACK
6
CONTINUOUS
10
0.749876
20
1.40629
11
0.749036
21
1.4057
0
LINE
8
BLACK
6
CONTINUOUS
10
0.749036
20
1.4057
11
0.74886
21
1.40569
0
LINE
8
BLACK
6
CONTINUOUS
10
0.74886
20
1.40569
11
0.748721
21
1.40558
0
LINE
8
BLACK
6
CONTINUOUS
10
0.748721
20
1.40558
11
0.743097
21
1.4037
0
LINE
8
BLACK
6
CONTINUOUS
10
0.743097
20
1.4037
11
0.742224
21
1.40357
0
LINE
8
BLACK
6
CONTINUOUS
10
0.742224
20
1.40357
11
0.742163
21
1.40355
0
LINE
8
BLACK
6
CONTINUOUS
10
0.742163
20
1.40355
11
0.738414
21
1.40355
0
LINE
8
BLACK
6
CONTINUOUS
10
0.738414
20
1.40355
11
0.737404
21
1.40373
0
LINE
8
BLACK
6
CONTINUOUS
10
0.737404
20
1.40373
11
0.735857
21
1.40503
0
LINE
8
BLACK
6
CONTINUOUS
10
0.735857
20
1.40503
11
0.735506
21
1.40702
0
LINE
8
BLACK
6
CONTINUOUS
10
0.735506
20
1.40702
11
0.736516
21
1.40877
0
LINE
8
BLACK
6
CONTINUOUS
10
0.736516
20
1.40877
11
0.738414
21
1.40946
0
LINE
8
BLACK
6
CONTINUOUS
10
0.738414
20
1.40946
11
0.741684
21
1.40946
0
LINE
8
BLACK
6
CONTINUOUS
10
0.741684
20
1.40946
11
0.746193
21
1.41096
0
LINE
8
BLACK
6
CONTINUOUS
10
0.746193
20
1.41096
11
0.748956
21
1.41372
0
LINE
8
BLACK
6
CONTINUOUS
10
0.748956
20
1.41372
11
0.750459
21
1.41823
0
LINE
8
BLACK
6
CONTINUOUS
10
0.750459
20
1.41823
11
0.750459
21
1.44587
0
LINE
8
BLACK
6
CONTINUOUS
10
0.750459
20
1.44587
11
0.750637
21
1.44688
0
LINE
8
BLACK
6
CONTINUOUS
10
0.750637
20
1.44688
11
0.751936
21
1.44843
0
LINE
8
BLACK
6
CONTINUOUS
10
0.751936
20
1.44843
11
0.753925
21
1.44878
0
LINE
8
BLACK
6
CONTINUOUS
10
0.753925
20
1.44878
11
0.755674
21
1.44777
0
LINE
8
BLACK
6
CONTINUOUS
10
0.821249
20
1.44875
11
0.821416
21
1.44878
0
LINE
8
BLACK
6
CONTINUOUS
10
0.821416
20
1.44878
11
0.822158
21
1.44835
0
LINE
8
BLACK
6
CONTINUOUS
10
0.822158
20
1.44835
11
0.822943
21
1.44801
0
LINE
8
BLACK
6
CONTINUOUS
10
0.822943
20
1.44801
11
0.823019
21
1.44786
0
LINE
8
BLACK
6
CONTINUOUS
10
0.823019
20
1.44786
11
0.823166
21
1.44777
0
LINE
8
BLACK
6
CONTINUOUS
10
0.823166
20
1.44777
11
0.823459
21
1.44697
0
LINE
8
BLACK
6
CONTINUOUS
10
0.823459
20
1.44697
11
0.823838
21
1.4462
0
LINE
8
BLACK
6
CONTINUOUS
10
0.823838
20
1.4462
11
0.823798
21
1.44603
0
LINE
8
BLACK
6
CONTINUOUS
10
0.823798
20
1.44603
11
0.823856
21
1.44587
0
LINE
8
BLACK
6
CONTINUOUS
10
0.823856
20
1.44587
11
0.823856
21
1.40946
0
LINE
8
BLACK
6
CONTINUOUS
10
0.823856
20
1.40946
11
0.832152
21
1.40946
0
LINE
8
BLACK
6
CONTINUOUS
10
0.832152
20
1.40946
11
0.833162
21
1.40928
0
LINE
8
BLACK
6
CONTINUOUS
10
0.833162
20
1.40928
11
0.834709
21
1.40798
0
LINE
8
BLACK
6
CONTINUOUS
10
0.834709
20
1.40798
11
0.83506
21
1.40599
0
LINE
8
BLACK
6
CONTINUOUS
10
0.83506
20
1.40599
11
0.83405
21
1.40424
0
LINE
8
BLACK
6
CONTINUOUS
10
0.83405
20
1.40424
11
0.832152
21
1.40355
0
LINE
8
BLACK
6
CONTINUOUS
10
0.832152
20
1.40355
11
0.809655
21
1.40355
0
LINE
8
BLACK
6
CONTINUOUS
10
0.809655
20
1.40355
11
0.808645
21
1.40373
0
LINE
8
BLACK
6
CONTINUOUS
10
0.808645
20
1.40373
11
0.807098
21
1.40503
0
LINE
8
BLACK
6
CONTINUOUS
10
0.807098
20
1.40503
11
0.806747
21
1.40702
0
LINE
8
BLACK
6
CONTINUOUS
10
0.806747
20
1.40702
11
0.807757
21
1.40877
0
LINE
8
BLACK
6
CONTINUOUS
10
0.807757
20
1.40877
11
0.809655
21
1.40946
0
LINE
8
BLACK
6
CONTINUOUS
10
0.809655
20
1.40946
11
0.817951
21
1.40946
0
LINE
8
BLACK
6
CONTINUOUS
10
0.817951
20
1.40946
11
0.817951
21
1.43687
0
LINE
8
BLACK
6
CONTINUOUS
10
0.817951
20
1.43687
11
0.815492
21
1.43441
0
LINE
8
BLACK
6
CONTINUOUS
10
0.815492
20
1.43441
11
0.814769
21
1.43391
0
LINE
8
BLACK
6
CONTINUOUS
10
0.814769
20
1.43391
11
0.814725
21
1.43386
0
LINE
8
BLACK
6
CONTINUOUS
10
0.814725
20
1.43386
11
0.810976
21
1.43198
0
LINE
8
BLACK
6
CONTINUOUS
10
0.810976
20
1.43198
11
0.809993
21
1.43169
0
LINE
8
BLACK
6
CONTINUOUS
10
0.809993
20
1.43169
11
0.808028
21
1.43216
0
LINE
8
BLACK
6
CONTINUOUS
10
0.808028
20
1.43216
11
0.806825
21
1.43378
0
LINE
8
BLACK
6
CONTINUOUS
10
0.806825
20
1.43378
11
0.806946
21
1.4358
0
LINE
8
BLACK
6
CONTINUOUS
10
0.806946
20
1.4358
11
0.808335
21
1.43727
0
LINE
8
BLACK
6
CONTINUOUS
10
0.808335
20
1.43727
11
0.811655
21
1.43893
0
LINE
8
BLACK
6
CONTINUOUS
10
0.811655
20
1.43893
11
0.814859
21
1.44213
0
LINE
8
BLACK
6
CONTINUOUS
10
0.814859
20
1.44213
11
0.818447
21
1.44751
0
LINE
8
BLACK
6
CONTINUOUS
10
0.818447
20
1.44751
11
0.819155
21
1.44825
0
LINE
8
BLACK
6
CONTINUOUS
10
0.819155
20
1.44825
11
0.819318
21
1.4483
0
LINE
8
BLACK
6
CONTINUOUS
10
0.819318
20
1.4483
11
0.819427
21
1.44843
0
LINE
8
BLACK
6
CONTINUOUS
10
0.819427
20
1.44843
11
0.820271
21
1.44858
0
LINE
8
BLACK
6
CONTINUOUS
10
0.820271
20
1.44858
11
0.821094
21
1.44882
0
LINE
8
BLACK
6
CONTINUOUS
10
0.821094
20
1.44882
11
0.821249
21
1.44875
0
LINE
8
BLACK
6
CONTINUOUS
10
0.788168
20
1.44865
11
0.788303
21
1.44853
0
LINE
8
BLACK
6
CONTINUOUS
10
0.788303
20
1.44853
11
0.788478
21
1.44851
0
LINE
8
BLACK
6
CONTINUOUS
10
0.788478
20
1.44851
11
0.792228
21
1.44664
0
LINE
8
BLACK
6
CONTINUOUS
10
0.792228
20
1.44664
11
0.792937
21
1.44611
0
LINE
8
BLACK
6
CONTINUOUS
10
0.792937
20
1.44611
11
0.792995
21
1.44609
0
LINE
8
BLACK
6
CONTINUOUS
10
0.792995
20
1.44609
11
0.79487
21
1.44421
0
LINE
8
BLACK
6
CONTINUOUS
10
0.79487
20
1.44421
11
0.795376
21
1.44349
0
LINE
8
BLACK
6
CONTINUOUS
10
0.795376
20
1.44349
11
0.795423
21
1.44344
0
LINE
8
BLACK
6
CONTINUOUS
10
0.795423
20
1.44344
11
0.797298
21
1.43969
0
LINE
8
BLACK
6
CONTINUOUS
10
0.797298
20
1.43969
11
0.79759
21
1.43871
0
LINE
8
BLACK
6
CONTINUOUS
10
0.79759
20
1.43871
11
0.797549
21
1.43854
0
LINE
8
BLACK
6
CONTINUOUS
10
0.797549
20
1.43854
11
0.79761
21
1.43837
0
LINE
8
BLACK
6
CONTINUOUS
10
0.79761
20
1.43837
11
0.79761
21
1.43275
0
LINE
8
BLACK
6
CONTINUOUS
10
0.79761
20
1.43275
11
0.797432
21
1.43174
0
LINE
8
BLACK
6
CONTINUOUS
10
0.797432
20
1.43174
11
0.797318
21
1.4316
0
LINE
8
BLACK
6
CONTINUOUS
10
0.797318
20
1.4316
11
0.797298
21
1.43143
0
LINE
8
BLACK
6
CONTINUOUS
10
0.797298
20
1.43143
11
0.795423
21
1.42768
0
LINE
8
BLACK
6
CONTINUOUS
10
0.795423
20
1.42768
11
0.794897
21
1.42697
0
LINE
8
BLACK
6
CONTINUOUS
10
0.794897
20
1.42697
11
0.79487
21
1.42691
0
LINE
8
BLACK
6
CONTINUOUS
10
0.79487
20
1.42691
11
0.792995
21
1.42504
0
LINE
8
BLACK
6
CONTINUOUS
10
0.792995
20
1.42504
11
0.792272
21
1.42453
0
LINE
8
BLACK
6
CONTINUOUS
10
0.792272
20
1.42453
11
0.792228
21
1.42448
0
LINE
8
BLACK
6
CONTINUOUS
10
0.792228
20
1.42448
11
0.788478
21
1.42261
0
LINE
8
BLACK
6
CONTINUOUS
10
0.788478
20
1.42261
11
0.787495
21
1.42232
0
LINE
8
BLACK
6
CONTINUOUS
10
0.787495
20
1.42232
11
0.787324
21
1.42236
0
LINE
8
BLACK
6
CONTINUOUS
10
0.787324
20
1.42236
11
0.787158
21
1.4223
0
LINE
8
BLACK
6
CONTINUOUS
10
0.787158
20
1.4223
11
0.775112
21
1.4223
0
LINE
8
BLACK
6
CONTINUOUS
10
0.775112
20
1.4223
11
0.775112
21
1.4065
0
LINE
8
BLACK
6
CONTINUOUS
10
0.775112
20
1.4065
11
0.774934
21
1.40549
0
LINE
8
BLACK
6
CONTINUOUS
10
0.774934
20
1.40549
11
0.773636
21
1.40395
0
LINE
8
BLACK
6
CONTINUOUS
10
0.773636
20
1.40395
11
0.771647
21
1.4036
0
LINE
8
BLACK
6
CONTINUOUS
10
0.771647
20
1.4036
11
0.769898
21
1.40461
0
LINE
8
BLACK
6
CONTINUOUS
10
0.769898
20
1.40461
11
0.769207
21
1.4065
0
LINE
8
BLACK
6
CONTINUOUS
10
0.769207
20
1.4065
11
0.769207
21
1.44587
0
LINE
8
BLACK
6
CONTINUOUS
10
0.769207
20
1.44587
11
0.769275
21
1.44626
0
LINE
8
BLACK
6
CONTINUOUS
10
0.769275
20
1.44626
11
0.769252
21
1.44639
0
LINE
8
BLACK
6
CONTINUOUS
10
0.769252
20
1.44639
11
0.769317
21
1.4465
0
LINE
8
BLACK
6
CONTINUOUS
10
0.769317
20
1.4465
11
0.769385
21
1.44688
0
LINE
8
BLACK
6
CONTINUOUS
10
0.769385
20
1.44688
11
0.769878
21
1.44747
0
LINE
8
BLACK
6
CONTINUOUS
10
0.769878
20
1.44747
11
0.770262
21
1.44814
0
LINE
8
BLACK
6
CONTINUOUS
10
0.770262
20
1.44814
11
0.770512
21
1.44823
0
LINE
8
BLACK
6
CONTINUOUS
10
0.770512
20
1.44823
11
0.770683
21
1.44843
0
LINE
8
BLACK
6
CONTINUOUS
10
0.770683
20
1.44843
11
0.771439
21
1.44856
0
LINE
8
BLACK
6
CONTINUOUS
10
0.771439
20
1.44856
11
0.77216
21
1.44883
0
LINE
8
BLACK
6
CONTINUOUS
10
0.77216
20
1.44883
11
0.787158
21
1.44883
0
LINE
8
BLACK
6
CONTINUOUS
10
0.787158
20
1.44883
11
0.788168
21
1.44865
0
LINE
8
BLACK
6
CONTINUOUS
10
0.775112
20
1.4282
11
0.786461
21
1.4282
0
LINE
8
BLACK
6
CONTINUOUS
10
0.786461
20
1.4282
11
0.789158
21
1.42955
0
LINE
8
BLACK
6
CONTINUOUS
10
0.789158
20
1.42955
11
0.790355
21
1.43075
0
LINE
8
BLACK
6
CONTINUOUS
10
0.790355
20
1.43075
11
0.791704
21
1.43345
0
LINE
8
BLACK
6
CONTINUOUS
10
0.791704
20
1.43345
11
0.791704
21
1.43768
0
LINE
8
BLACK
6
CONTINUOUS
10
0.791704
20
1.43768
11
0.790355
21
1.44037
0
LINE
8
BLACK
6
CONTINUOUS
10
0.790355
20
1.44037
11
0.789158
21
1.44157
0
LINE
8
BLACK
6
CONTINUOUS
10
0.789158
20
1.44157
11
0.786461
21
1.44292
0
LINE
8
BLACK
6
CONTINUOUS
10
0.786461
20
1.44292
11
0.775112
21
1.44292
0
LINE
8
BLACK
6
CONTINUOUS
10
0.775112
20
1.44292
11
0.775112
21
1.4282
0
LINE
8
BLACK
6
CONTINUOUS
10
0.88622
20
1.47638
11
0.887612
21
1.4758
0
LINE
8
BLACK
6
CONTINUOUS
10
0.887612
20
1.4758
11
0.888189
21
1.47441
0
LINE
8
BLACK
6
CONTINUOUS
10
0.888189
20
1.47441
11
0.888189
21
1.42441
0
LINE
8
BLACK
6
CONTINUOUS
10
0.888189
20
1.42441
11
0.887612
21
1.42302
0
LINE
8
BLACK
6
CONTINUOUS
10
0.887612
20
1.42302
11
0.837612
21
1.37302
0
LINE
8
BLACK
6
CONTINUOUS
10
0.837612
20
1.37302
11
0.83622
21
1.37244
0
LINE
8
BLACK
6
CONTINUOUS
10
0.83622
20
1.37244
11
0.68622
21
1.37244
0
LINE
8
BLACK
6
CONTINUOUS
10
0.68622
20
1.37244
11
0.684829
21
1.37302
0
LINE
8
BLACK
6
CONTINUOUS
10
0.684829
20
1.37302
11
0.684252
21
1.37441
0
LINE
8
BLACK
6
CONTINUOUS
10
0.684252
20
1.37441
11
0.684252
21
1.47441
0
LINE
8
BLACK
6
CONTINUOUS
10
0.684252
20
1.47441
11
0.684829
21
1.4758
0
LINE
8
BLACK
6
CONTINUOUS
10
0.684829
20
1.4758
11
0.68622
21
1.47638
0
LINE
8
BLACK
6
CONTINUOUS
10
0.68622
20
1.47638
11
0.88622
21
1.47638
0
LINE
8
BLACK
6
CONTINUOUS
10
0.688189
20
1.47244
11
0.688189
21
1.37638
0
LINE
8
BLACK
6
CONTINUOUS
10
0.688189
20
1.37638
11
0.835405
21
1.37638
0
LINE
8
BLACK
6
CONTINUOUS
10
0.835405
20
1.37638
11
0.884252
21
1.42522
0
LINE
8
BLACK
6
CONTINUOUS
10
0.884252
20
1.42522
11
0.884252
21
1.47244
0
LINE
8
BLACK
6
CONTINUOUS
10
0.884252
20
1.47244
11
0.688189
21
1.47244
0
LINE
8
BLACK
6
CONTINUOUS
10
0.37485
20
1.6509
11
0.374914
21
1.6509
0
LINE
8
BLACK
6
CONTINUOUS
10
0.374914
20
1.6509
11
0.380539
21
1.64902
0
LINE
8
BLACK
6
CONTINUOUS
10
0.380539
20
1.64902
11
0.38144
21
1.64854
0
LINE
8
BLACK
6
CONTINUOUS
10
0.38144
20
1.64854
11
0.381533
21
1.64838
0
LINE
8
BLACK
6
CONTINUOUS
10
0.381533
20
1.64838
11
0.381693
21
1.64831
0
LINE
8
BLACK
6
CONTINUOUS
10
0.381693
20
1.64831
11
0.385442
21
1.64456
0
LINE
8
BLACK
6
CONTINUOUS
10
0.385442
20
1.64456
11
0.38603
21
1.64372
0
LINE
8
BLACK
6
CONTINUOUS
10
0.38603
20
1.64372
11
0.386046
21
1.64354
0
LINE
8
BLACK
6
CONTINUOUS
10
0.386046
20
1.64354
11
0.386156
21
1.64341
0
LINE
8
BLACK
6
CONTINUOUS
10
0.386156
20
1.64341
11
0.38803
21
1.63778
0
LINE
8
BLACK
6
CONTINUOUS
10
0.38803
20
1.63778
11
0.38816
21
1.63691
0
LINE
8
BLACK
6
CONTINUOUS
10
0.38816
20
1.63691
11
0.388182
21
1.63685
0
LINE
8
BLACK
6
CONTINUOUS
10
0.388182
20
1.63685
11
0.388182
21
1.6331
0
LINE
8
BLACK
6
CONTINUOUS
10
0.388182
20
1.6331
11
0.388004
21
1.63209
0
LINE
8
BLACK
6
CONTINUOUS
10
0.388004
20
1.63209
11
0.386705
21
1.63054
0
LINE
8
BLACK
6
CONTINUOUS
10
0.386705
20
1.63054
11
0.384716
21
1.63019
0
LINE
8
BLACK
6
CONTINUOUS
10
0.384716
20
1.63019
11
0.382967
21
1.6312
0
LINE
8
BLACK
6
CONTINUOUS
10
0.382967
20
1.6312
11
0.382276
21
1.6331
0
LINE
8
BLACK
6
CONTINUOUS
10
0.382276
20
1.6331
11
0.382276
21
1.63637
0
LINE
8
BLACK
6
CONTINUOUS
10
0.382276
20
1.63637
11
0.380774
21
1.64088
0
LINE
8
BLACK
6
CONTINUOUS
10
0.380774
20
1.64088
11
0.37801
21
1.64364
0
LINE
8
BLACK
6
CONTINUOUS
10
0.37801
20
1.64364
11
0.373501
21
1.64514
0
LINE
8
BLACK
6
CONTINUOUS
10
0.373501
20
1.64514
11
0.345859
21
1.64514
0
LINE
8
BLACK
6
CONTINUOUS
10
0.345859
20
1.64514
11
0.344849
21
1.64532
0
LINE
8
BLACK
6
CONTINUOUS
10
0.344849
20
1.64532
11
0.343302
21
1.64662
0
LINE
8
BLACK
6
CONTINUOUS
10
0.343302
20
1.64662
11
0.342951
21
1.64861
0
LINE
8
BLACK
6
CONTINUOUS
10
0.342951
20
1.64861
11
0.343961
21
1.65036
0
LINE
8
BLACK
6
CONTINUOUS
10
0.343961
20
1.65036
11
0.345859
21
1.65105
0
LINE
8
BLACK
6
CONTINUOUS
10
0.345859
20
1.65105
11
0.37398
21
1.65105
0
LINE
8
BLACK
6
CONTINUOUS
10
0.37398
20
1.65105
11
0.37485
21
1.6509
0
LINE
8
BLACK
6
CONTINUOUS
10
0.374368
20
1.69124
11
0.375058
21
1.68934
0
LINE
8
BLACK
6
CONTINUOUS
10
0.375058
20
1.68934
11
0.375058
21
1.68667
0
LINE
8
BLACK
6
CONTINUOUS
10
0.375058
20
1.68667
11
0.385229
21
1.68667
0
LINE
8
BLACK
6
CONTINUOUS
10
0.385229
20
1.68667
11
0.386239
21
1.68649
0
LINE
8
BLACK
6
CONTINUOUS
10
0.386239
20
1.68649
11
0.387786
21
1.68519
0
LINE
8
BLACK
6
CONTINUOUS
10
0.387786
20
1.68519
11
0.388137
21
1.6832
0
LINE
8
BLACK
6
CONTINUOUS
10
0.388137
20
1.6832
11
0.387127
21
1.68146
0
LINE
8
BLACK
6
CONTINUOUS
10
0.387127
20
1.68146
11
0.385229
21
1.68076
0
LINE
8
BLACK
6
CONTINUOUS
10
0.385229
20
1.68076
11
0.375058
21
1.68076
0
LINE
8
BLACK
6
CONTINUOUS
10
0.375058
20
1.68076
11
0.375058
21
1.66497
0
LINE
8
BLACK
6
CONTINUOUS
10
0.375058
20
1.66497
11
0.37488
21
1.66396
0
LINE
8
BLACK
6
CONTINUOUS
10
0.37488
20
1.66396
11
0.374735
21
1.66379
0
LINE
8
BLACK
6
CONTINUOUS
10
0.374735
20
1.66379
11
0.374702
21
1.66356
0
LINE
8
BLACK
6
CONTINUOUS
10
0.374702
20
1.66356
11
0.3741
21
1.66303
0
LINE
8
BLACK
6
CONTINUOUS
10
0.3741
20
1.66303
11
0.373582
21
1.66241
0
LINE
8
BLACK
6
CONTINUOUS
10
0.373582
20
1.66241
11
0.37336
21
1.66237
0
LINE
8
BLACK
6
CONTINUOUS
10
0.37336
20
1.66237
11
0.373191
21
1.66222
0
LINE
8
BLACK
6
CONTINUOUS
10
0.373191
20
1.66222
11
0.372386
21
1.6622
0
LINE
8
BLACK
6
CONTINUOUS
10
0.372386
20
1.6622
11
0.371593
21
1.66206
0
LINE
8
BLACK
6
CONTINUOUS
10
0.371593
20
1.66206
11
0.371397
21
1.66217
0
LINE
8
BLACK
6
CONTINUOUS
10
0.371397
20
1.66217
11
0.371172
21
1.66217
0
LINE
8
BLACK
6
CONTINUOUS
10
0.371172
20
1.66217
11
0.343051
21
1.67154
0
LINE
8
BLACK
6
CONTINUOUS
10
0.343051
20
1.67154
11
0.342149
21
1.67203
0
LINE
8
BLACK
6
CONTINUOUS
10
0.342149
20
1.67203
11
0.341091
21
1.67375
0
LINE
8
BLACK
6
CONTINUOUS
10
0.341091
20
1.67375
11
0.341388
21
1.67575
0
LINE
8
BLACK
6
CONTINUOUS
10
0.341388
20
1.67575
11
0.342899
21
1.67709
0
LINE
8
BLACK
6
CONTINUOUS
10
0.342899
20
1.67709
11
0.344918
21
1.67715
0
LINE
8
BLACK
6
CONTINUOUS
10
0.344918
20
1.67715
11
0.369153
21
1.66907
0
LINE
8
BLACK
6
CONTINUOUS
10
0.369153
20
1.66907
11
0.369153
21
1.68076
0
LINE
8
BLACK
6
CONTINUOUS
10
0.369153
20
1.68076
11
0.358982
21
1.68076
0
LINE
8
BLACK
6
CONTINUOUS
10
0.358982
20
1.68076
11
0.357972
21
1.68094
0
LINE
8
BLACK
6
CONTINUOUS
10
0.357972
20
1.68094
11
0.356425
21
1.68224
0
LINE
8
BLACK
6
CONTINUOUS
10
0.356425
20
1.68224
11
0.356074
21
1.68423
0
LINE
8
BLACK
6
CONTINUOUS
10
0.356074
20
1.68423
11
0.357084
21
1.68598
0
LINE
8
BLACK
6
CONTINUOUS
10
0.357084
20
1.68598
11
0.358982
21
1.68667
0
LINE
8
BLACK
6
CONTINUOUS
10
0.358982
20
1.68667
11
0.369153
21
1.68667
0
LINE
8
BLACK
6
CONTINUOUS
10
0.369153
20
1.68667
11
0.369153
21
1.68934
0
LINE
8
BLACK
6
CONTINUOUS
10
0.369153
20
1.68934
11
0.369331
21
1.69035
0
LINE
8
BLACK
6
CONTINUOUS
10
0.369331
20
1.69035
11
0.370629
21
1.6919
0
LINE
8
BLACK
6
CONTINUOUS
10
0.370629
20
1.6919
11
0.372618
21
1.69225
0
LINE
8
BLACK
6
CONTINUOUS
10
0.372618
20
1.69225
11
0.374368
21
1.69124
0
LINE
8
BLACK
6
CONTINUOUS
10
0.467323
20
1.81319
11
0.468715
21
1.81261
0
LINE
8
BLACK
6
CONTINUOUS
10
0.468715
20
1.81261
11
0.469291
21
1.81122
0
LINE
8
BLACK
6
CONTINUOUS
10
0.469291
20
1.81122
11
0.469291
21
1.56122
0
LINE
8
BLACK
6
CONTINUOUS
10
0.469291
20
1.56122
11
0.468715
21
1.55983
0
LINE
8
BLACK
6
CONTINUOUS
10
0.468715
20
1.55983
11
0.418715
21
1.50983
0
LINE
8
BLACK
6
CONTINUOUS
10
0.418715
20
1.50983
11
0.417323
21
1.50925
0
LINE
8
BLACK
6
CONTINUOUS
10
0.417323
20
1.50925
11
0.267323
21
1.50925
0
LINE
8
BLACK
6
CONTINUOUS
10
0.267323
20
1.50925
11
0.265931
21
1.50983
0
LINE
8
BLACK
6
CONTINUOUS
10
0.265931
20
1.50983
11
0.265354
21
1.51122
0
LINE
8
BLACK
6
CONTINUOUS
10
0.265354
20
1.51122
11
0.265354
21
1.51122
0
LINE
8
BLACK
6
CONTINUOUS
10
0.265354
20
1.51122
11
0.265354
21
1.81122
0
LINE
8
BLACK
6
CONTINUOUS
10
0.265354
20
1.81122
11
0.265931
21
1.81261
0
LINE
8
BLACK
6
CONTINUOUS
10
0.265931
20
1.81261
11
0.267323
21
1.81319
0
LINE
8
BLACK
6
CONTINUOUS
10
0.267323
20
1.81319
11
0.467323
21
1.81319
0
LINE
8
BLACK
6
CONTINUOUS
10
0.269291
20
1.80925
11
0.269291
21
1.51319
0
LINE
8
BLACK
6
CONTINUOUS
10
0.269291
20
1.51319
11
0.416507
21
1.51319
0
LINE
8
BLACK
6
CONTINUOUS
10
0.416507
20
1.51319
11
0.465354
21
1.56204
0
LINE
8
BLACK
6
CONTINUOUS
10
0.465354
20
1.56204
11
0.465354
21
1.80925
0
LINE
8
BLACK
6
CONTINUOUS
10
0.465354
20
1.80925
11
0.269291
21
1.80925
0
LINE
8
BLACK
6
CONTINUOUS
10
0.692566
20
1.64401
11
0.692631
21
1.64401
0
LINE
8
BLACK
6
CONTINUOUS
10
0.692631
20
1.64401
11
0.698255
21
1.64213
0
LINE
8
BLACK
6
CONTINUOUS
10
0.698255
20
1.64213
11
0.699157
21
1.64165
0
LINE
8
BLACK
6
CONTINUOUS
10
0.699157
20
1.64165
11
0.699249
21
1.6415
0
LINE
8
BLACK
6
CONTINUOUS
10
0.699249
20
1.6415
11
0.699409
21
1.64142
0
LINE
8
BLACK
6
CONTINUOUS
10
0.699409
20
1.64142
11
0.703159
21
1.63767
0
LINE
8
BLACK
6
CONTINUOUS
10
0.703159
20
1.63767
11
0.703747
21
1.63683
0
LINE
8
BLACK
6
CONTINUOUS
10
0.703747
20
1.63683
11
0.703762
21
1.63666
0
LINE
8
BLACK
6
CONTINUOUS
10
0.703762
20
1.63666
11
0.703872
21
1.63652
0
LINE
8
BLACK
6
CONTINUOUS
10
0.703872
20
1.63652
11
0.705747
21
1.63089
0
LINE
8
BLACK
6
CONTINUOUS
10
0.705747
20
1.63089
11
0.705876
21
1.63002
0
LINE
8
BLACK
6
CONTINUOUS
10
0.705876
20
1.63002
11
0.705898
21
1.62996
0
LINE
8
BLACK
6
CONTINUOUS
10
0.705898
20
1.62996
11
0.705898
21
1.62621
0
LINE
8
BLACK
6
CONTINUOUS
10
0.705898
20
1.62621
11
0.70572
21
1.6252
0
LINE
8
BLACK
6
CONTINUOUS
10
0.70572
20
1.6252
11
0.704422
21
1.62365
0
LINE
8
BLACK
6
CONTINUOUS
10
0.704422
20
1.62365
11
0.702433
21
1.6233
0
LINE
8
BLACK
6
CONTINUOUS
10
0.702433
20
1.6233
11
0.700684
21
1.62431
0
LINE
8
BLACK
6
CONTINUOUS
10
0.700684
20
1.62431
11
0.699993
21
1.62621
0
LINE
8
BLACK
6
CONTINUOUS
10
0.699993
20
1.62621
11
0.699993
21
1.62948
0
LINE
8
BLACK
6
CONTINUOUS
10
0.699993
20
1.62948
11
0.69849
21
1.63399
0
LINE
8
BLACK
6
CONTINUOUS
10
0.69849
20
1.63399
11
0.695726
21
1.63675
0
LINE
8
BLACK
6
CONTINUOUS
10
0.695726
20
1.63675
11
0.691218
21
1.63825
0
LINE
8
BLACK
6
CONTINUOUS
10
0.691218
20
1.63825
11
0.663576
21
1.63825
0
LINE
8
BLACK
6
CONTINUOUS
10
0.663576
20
1.63825
11
0.662566
21
1.63843
0
LINE
8
BLACK
6
CONTINUOUS
10
0.662566
20
1.63843
11
0.661018
21
1.63973
0
LINE
8
BLACK
6
CONTINUOUS
10
0.661018
20
1.63973
11
0.660668
21
1.64172
0
LINE
8
BLACK
6
CONTINUOUS
10
0.660668
20
1.64172
11
0.661678
21
1.64347
0
LINE
8
BLACK
6
CONTINUOUS
10
0.661678
20
1.64347
11
0.663576
21
1.64416
0
LINE
8
BLACK
6
CONTINUOUS
10
0.663576
20
1.64416
11
0.691697
21
1.64416
0
LINE
8
BLACK
6
CONTINUOUS
10
0.691697
20
1.64416
11
0.692566
21
1.64401
0
LINE
8
BLACK
6
CONTINUOUS
10
0.677709
20
1.68523
11
0.677844
21
1.68511
0
LINE
8
BLACK
6
CONTINUOUS
10
0.677844
20
1.68511
11
0.678019
21
1.68509
0
LINE
8
BLACK
6
CONTINUOUS
10
0.678019
20
1.68509
11
0.681769
21
1.68322
0
LINE
8
BLACK
6
CONTINUOUS
10
0.681769
20
1.68322
11
0.682478
21
1.68269
0
LINE
8
BLACK
6
CONTINUOUS
10
0.682478
20
1.68269
11
0.682536
21
1.68267
0
LINE
8
BLACK
6
CONTINUOUS
10
0.682536
20
1.68267
11
0.684411
21
1.68079
0
LINE
8
BLACK
6
CONTINUOUS
10
0.684411
20
1.68079
11
0.684917
21
1.68007
0
LINE
8
BLACK
6
CONTINUOUS
10
0.684917
20
1.68007
11
0.684964
21
1.68002
0
LINE
8
BLACK
6
CONTINUOUS
10
0.684964
20
1.68002
11
0.686839
21
1.67627
0
LINE
8
BLACK
6
CONTINUOUS
10
0.686839
20
1.67627
11
0.687131
21
1.67529
0
LINE
8
BLACK
6
CONTINUOUS
10
0.687131
20
1.67529
11
0.68709
21
1.67512
0
LINE
8
BLACK
6
CONTINUOUS
10
0.68709
20
1.67512
11
0.687151
21
1.67495
0
LINE
8
BLACK
6
CONTINUOUS
10
0.687151
20
1.67495
11
0.687151
21
1.66291
0
LINE
8
BLACK
6
CONTINUOUS
10
0.687151
20
1.66291
11
0.702946
21
1.66291
0
LINE
8
BLACK
6
CONTINUOUS
10
0.702946
20
1.66291
11
0.703956
21
1.66273
0
LINE
8
BLACK
6
CONTINUOUS
10
0.703956
20
1.66273
11
0.705503
21
1.66143
0
LINE
8
BLACK
6
CONTINUOUS
10
0.705503
20
1.66143
11
0.705854
21
1.65944
0
LINE
8
BLACK
6
CONTINUOUS
10
0.705854
20
1.65944
11
0.704844
21
1.65769
0
LINE
8
BLACK
6
CONTINUOUS
10
0.704844
20
1.65769
11
0.702946
21
1.657
0
LINE
8
BLACK
6
CONTINUOUS
10
0.702946
20
1.657
11
0.663576
21
1.657
0
LINE
8
BLACK
6
CONTINUOUS
10
0.663576
20
1.657
11
0.663192
21
1.65707
0
LINE
8
BLACK
6
CONTINUOUS
10
0.663192
20
1.65707
11
0.663063
21
1.65705
0
LINE
8
BLACK
6
CONTINUOUS
10
0.663063
20
1.65705
11
0.662949
21
1.65711
0
LINE
8
BLACK
6
CONTINUOUS
10
0.662949
20
1.65711
11
0.662566
21
1.65718
0
LINE
8
BLACK
6
CONTINUOUS
10
0.662566
20
1.65718
11
0.661978
21
1.65767
0
LINE
8
BLACK
6
CONTINUOUS
10
0.661978
20
1.65767
11
0.661314
21
1.65806
0
LINE
8
BLACK
6
CONTINUOUS
10
0.661314
20
1.65806
11
0.661222
21
1.65831
0
LINE
8
BLACK
6
CONTINUOUS
10
0.661222
20
1.65831
11
0.661018
21
1.65848
0
LINE
8
BLACK
6
CONTINUOUS
10
0.661018
20
1.65848
11
0.660885
21
1.65923
0
LINE
8
BLACK
6
CONTINUOUS
10
0.660885
20
1.65923
11
0.660623
21
1.65996
0
LINE
8
BLACK
6
CONTINUOUS
10
0.660623
20
1.65996
11
0.660623
21
1.67495
0
LINE
8
BLACK
6
CONTINUOUS
10
0.660623
20
1.67495
11
0.660801
21
1.67596
0
LINE
8
BLACK
6
CONTINUOUS
10
0.660801
20
1.67596
11
0.660914
21
1.6761
0
LINE
8
BLACK
6
CONTINUOUS
10
0.660914
20
1.6761
11
0.660935
21
1.67627
0
LINE
8
BLACK
6
CONTINUOUS
10
0.660935
20
1.67627
11
0.662809
21
1.68002
0
LINE
8
BLACK
6
CONTINUOUS
10
0.662809
20
1.68002
11
0.663335
21
1.68073
0
LINE
8
BLACK
6
CONTINUOUS
10
0.663335
20
1.68073
11
0.663362
21
1.68079
0
LINE
8
BLACK
6
CONTINUOUS
10
0.663362
20
1.68079
11
0.665237
21
1.68267
0
LINE
8
BLACK
6
CONTINUOUS
10
0.665237
20
1.68267
11
0.66596
21
1.68317
0
LINE
8
BLACK
6
CONTINUOUS
10
0.66596
20
1.68317
11
0.666005
21
1.68322
0
LINE
8
BLACK
6
CONTINUOUS
10
0.666005
20
1.68322
11
0.669754
21
1.68509
0
LINE
8
BLACK
6
CONTINUOUS
10
0.669754
20
1.68509
11
0.670737
21
1.68539
0
LINE
8
BLACK
6
CONTINUOUS
10
0.670737
20
1.68539
11
0.670909
21
1.68534
0
LINE
8
BLACK
6
CONTINUOUS
10
0.670909
20
1.68534
11
0.671075
21
1.6854
0
LINE
8
BLACK
6
CONTINUOUS
10
0.671075
20
1.6854
11
0.676699
21
1.6854
0
LINE
8
BLACK
6
CONTINUOUS
10
0.676699
20
1.6854
11
0.677709
21
1.68523
0
LINE
8
BLACK
6
CONTINUOUS
10
0.669074
20
1.67815
11
0.667877
21
1.67695
0
LINE
8
BLACK
6
CONTINUOUS
10
0.667877
20
1.67695
11
0.666528
21
1.67426
0
LINE
8
BLACK
6
CONTINUOUS
10
0.666528
20
1.67426
11
0.666528
21
1.66291
0
LINE
8
BLACK
6
CONTINUOUS
10
0.666528
20
1.66291
11
0.681245
21
1.66291
0
LINE
8
BLACK
6
CONTINUOUS
10
0.681245
20
1.66291
11
0.681245
21
1.67426
0
LINE
8
BLACK
6
CONTINUOUS
10
0.681245
20
1.67426
11
0.679896
21
1.67695
0
LINE
8
BLACK
6
CONTINUOUS
10
0.679896
20
1.67695
11
0.678699
21
1.67815
0
LINE
8
BLACK
6
CONTINUOUS
10
0.678699
20
1.67815
11
0.676002
21
1.6795
0
LINE
8
BLACK
6
CONTINUOUS
10
0.676002
20
1.6795
11
0.671772
21
1.6795
0
LINE
8
BLACK
6
CONTINUOUS
10
0.671772
20
1.6795
11
0.669074
21
1.67815
0
LINE
8
BLACK
6
CONTINUOUS
10
0.696456
20
1.72272
11
0.696592
21
1.72261
0
LINE
8
BLACK
6
CONTINUOUS
10
0.696592
20
1.72261
11
0.696767
21
1.72259
0
LINE
8
BLACK
6
CONTINUOUS
10
0.696767
20
1.72259
11
0.700517
21
1.72071
0
LINE
8
BLACK
6
CONTINUOUS
10
0.700517
20
1.72071
11
0.701226
21
1.72019
0
LINE
8
BLACK
6
CONTINUOUS
10
0.701226
20
1.72019
11
0.701284
21
1.72016
0
LINE
8
BLACK
6
CONTINUOUS
10
0.701284
20
1.72016
11
0.703159
21
1.71829
0
LINE
8
BLACK
6
CONTINUOUS
10
0.703159
20
1.71829
11
0.703665
21
1.71756
0
LINE
8
BLACK
6
CONTINUOUS
10
0.703665
20
1.71756
11
0.703712
21
1.71752
0
LINE
8
BLACK
6
CONTINUOUS
10
0.703712
20
1.71752
11
0.705587
21
1.71377
0
LINE
8
BLACK
6
CONTINUOUS
10
0.705587
20
1.71377
11
0.705879
21
1.71279
0
LINE
8
BLACK
6
CONTINUOUS
10
0.705879
20
1.71279
11
0.705838
21
1.71261
0
LINE
8
BLACK
6
CONTINUOUS
10
0.705838
20
1.71261
11
0.705898
21
1.71245
0
LINE
8
BLACK
6
CONTINUOUS
10
0.705898
20
1.71245
11
0.705898
21
1.7012
0
LINE
8
BLACK
6
CONTINUOUS
10
0.705898
20
1.7012
11
0.70572
21
1.70019
0
LINE
8
BLACK
6
CONTINUOUS
10
0.70572
20
1.70019
11
0.705607
21
1.70005
0
LINE
8
BLACK
6
CONTINUOUS
10
0.705607
20
1.70005
11
0.705587
21
1.69988
0
LINE
8
BLACK
6
CONTINUOUS
10
0.705587
20
1.69988
11
0.703712
21
1.69613
0
LINE
8
BLACK
6
CONTINUOUS
10
0.703712
20
1.69613
11
0.703186
21
1.69542
0
LINE
8
BLACK
6
CONTINUOUS
10
0.703186
20
1.69542
11
0.703159
21
1.69536
0
LINE
8
BLACK
6
CONTINUOUS
10
0.703159
20
1.69536
11
0.701284
21
1.69349
0
LINE
8
BLACK
6
CONTINUOUS
10
0.701284
20
1.69349
11
0.700444
21
1.6929
0
LINE
8
BLACK
6
CONTINUOUS
10
0.700444
20
1.6929
11
0.698432
21
1.69272
0
LINE
8
BLACK
6
CONTINUOUS
10
0.698432
20
1.69272
11
0.696777
21
1.69388
0
LINE
8
BLACK
6
CONTINUOUS
10
0.696777
20
1.69388
11
0.696255
21
1.69583
0
LINE
8
BLACK
6
CONTINUOUS
10
0.696255
20
1.69583
11
0.697108
21
1.69766
0
LINE
8
BLACK
6
CONTINUOUS
10
0.697108
20
1.69766
11
0.698644
21
1.6992
0
LINE
8
BLACK
6
CONTINUOUS
10
0.698644
20
1.6992
11
0.699993
21
1.7019
0
LINE
8
BLACK
6
CONTINUOUS
10
0.699993
20
1.7019
11
0.699993
21
1.71175
0
LINE
8
BLACK
6
CONTINUOUS
10
0.699993
20
1.71175
11
0.698644
21
1.71445
0
LINE
8
BLACK
6
CONTINUOUS
10
0.698644
20
1.71445
11
0.697447
21
1.71565
0
LINE
8
BLACK
6
CONTINUOUS
10
0.697447
20
1.71565
11
0.694749
21
1.71699
0
LINE
8
BLACK
6
CONTINUOUS
10
0.694749
20
1.71699
11
0.68677
21
1.71699
0
LINE
8
BLACK
6
CONTINUOUS
10
0.68677
20
1.71699
11
0.684072
21
1.71565
0
LINE
8
BLACK
6
CONTINUOUS
10
0.684072
20
1.71565
11
0.682875
21
1.71445
0
LINE
8
BLACK
6
CONTINUOUS
10
0.682875
20
1.71445
11
0.681526
21
1.71175
0
LINE
8
BLACK
6
CONTINUOUS
10
0.681526
20
1.71175
11
0.681526
21
1.70682
0
LINE
8
BLACK
6
CONTINUOUS
10
0.681526
20
1.70682
11
0.681449
21
1.70639
0
LINE
8
BLACK
6
CONTINUOUS
10
0.681449
20
1.70639
11
0.68147
21
1.70625
0
LINE
8
BLACK
6
CONTINUOUS
10
0.68147
20
1.70625
11
0.681407
21
1.70615
0
LINE
8
BLACK
6
CONTINUOUS
10
0.681407
20
1.70615
11
0.681348
21
1.70581
0
LINE
8
BLACK
6
CONTINUOUS
10
0.681348
20
1.70581
11
0.680837
21
1.7052
0
LINE
8
BLACK
6
CONTINUOUS
10
0.680837
20
1.7052
11
0.680424
21
1.70452
0
LINE
8
BLACK
6
CONTINUOUS
10
0.680424
20
1.70452
11
0.680201
21
1.70445
0
LINE
8
BLACK
6
CONTINUOUS
10
0.680201
20
1.70445
11
0.68005
21
1.70427
0
LINE
8
BLACK
6
CONTINUOUS
10
0.68005
20
1.70427
11
0.679266
21
1.70413
0
LINE
8
BLACK
6
CONTINUOUS
10
0.679266
20
1.70413
11
0.678513
21
1.70387
0
LINE
8
BLACK
6
CONTINUOUS
10
0.678513
20
1.70387
11
0.678293
21
1.70396
0
LINE
8
BLACK
6
CONTINUOUS
10
0.678293
20
1.70396
11
0.678061
21
1.70392
0
LINE
8
BLACK
6
CONTINUOUS
10
0.678061
20
1.70392
11
0.677371
21
1.70431
0
LINE
8
BLACK
6
CONTINUOUS
10
0.677371
20
1.70431
11
0.676629
21
1.7046
0
LINE
8
BLACK
6
CONTINUOUS
10
0.676629
20
1.7046
11
0.666528
21
1.71344
0
LINE
8
BLACK
6
CONTINUOUS
10
0.666528
20
1.71344
11
0.666528
21
1.69558
0
LINE
8
BLACK
6
CONTINUOUS
10
0.666528
20
1.69558
11
0.66635
21
1.69457
0
LINE
8
BLACK
6
CONTINUOUS
10
0.66635
20
1.69457
11
0.665052
21
1.69302
0
LINE
8
BLACK
6
CONTINUOUS
10
0.665052
20
1.69302
11
0.663063
21
1.69267
0
LINE
8
BLACK
6
CONTINUOUS
10
0.663063
20
1.69267
11
0.661314
21
1.69368
0
LINE
8
BLACK
6
CONTINUOUS
10
0.661314
20
1.69368
11
0.660623
21
1.69558
0
LINE
8
BLACK
6
CONTINUOUS
10
0.660623
20
1.69558
11
0.660623
21
1.71995
0
LINE
8
BLACK
6
CONTINUOUS
10
0.660623
20
1.71995
11
0.6607
21
1.72038
0
LINE
8
BLACK
6
CONTINUOUS
10
0.6607
20
1.72038
11
0.660679
21
1.72052
0
LINE
8
BLACK
6
CONTINUOUS
10
0.660679
20
1.72052
11
0.660742
21
1.72063
0
LINE
8
BLACK
6
CONTINUOUS
10
0.660742
20
1.72063
11
0.660801
21
1.72096
0
LINE
8
BLACK
6
CONTINUOUS
10
0.660801
20
1.72096
11
0.661313
21
1.72157
0
LINE
8
BLACK
6
CONTINUOUS
10
0.661313
20
1.72157
11
0.661725
21
1.72225
0
LINE
8
BLACK
6
CONTINUOUS
10
0.661725
20
1.72225
11
0.661948
21
1.72232
0
LINE
8
BLACK
6
CONTINUOUS
10
0.661948
20
1.72232
11
0.662099
21
1.7225
0
LINE
8
BLACK
6
CONTINUOUS
10
0.662099
20
1.7225
11
0.662883
21
1.72264
0
LINE
8
BLACK
6
CONTINUOUS
10
0.662883
20
1.72264
11
0.663637
21
1.7229
0
LINE
8
BLACK
6
CONTINUOUS
10
0.663637
20
1.7229
11
0.663856
21
1.72281
0
LINE
8
BLACK
6
CONTINUOUS
10
0.663856
20
1.72281
11
0.664088
21
1.72286
0
LINE
8
BLACK
6
CONTINUOUS
10
0.664088
20
1.72286
11
0.664778
21
1.72246
0
LINE
8
BLACK
6
CONTINUOUS
10
0.664778
20
1.72246
11
0.66552
21
1.72217
0
LINE
8
BLACK
6
CONTINUOUS
10
0.66552
20
1.72217
11
0.675756
21
1.71321
0
LINE
8
BLACK
6
CONTINUOUS
10
0.675756
20
1.71321
11
0.675799
21
1.71346
0
LINE
8
BLACK
6
CONTINUOUS
10
0.675799
20
1.71346
11
0.675912
21
1.71359
0
LINE
8
BLACK
6
CONTINUOUS
10
0.675912
20
1.71359
11
0.675933
21
1.71377
0
LINE
8
BLACK
6
CONTINUOUS
10
0.675933
20
1.71377
11
0.677807
21
1.71752
0
LINE
8
BLACK
6
CONTINUOUS
10
0.677807
20
1.71752
11
0.678333
21
1.71823
0
LINE
8
BLACK
6
CONTINUOUS
10
0.678333
20
1.71823
11
0.678361
21
1.71829
0
LINE
8
BLACK
6
CONTINUOUS
10
0.678361
20
1.71829
11
0.680235
21
1.72016
0
LINE
8
BLACK
6
CONTINUOUS
10
0.680235
20
1.72016
11
0.680958
21
1.72067
0
LINE
8
BLACK
6
CONTINUOUS
10
0.680958
20
1.72067
11
0.681003
21
1.72071
0
LINE
8
BLACK
6
CONTINUOUS
10
0.681003
20
1.72071
11
0.684752
21
1.72259
0
LINE
8
BLACK
6
CONTINUOUS
10
0.684752
20
1.72259
11
0.685735
21
1.72288
0
LINE
8
BLACK
6
CONTINUOUS
10
0.685735
20
1.72288
11
0.685907
21
1.72284
0
LINE
8
BLACK
6
CONTINUOUS
10
0.685907
20
1.72284
11
0.686073
21
1.7229
0
LINE
8
BLACK
6
CONTINUOUS
10
0.686073
20
1.7229
11
0.695447
21
1.7229
0
LINE
8
BLACK
6
CONTINUOUS
10
0.695447
20
1.7229
11
0.696456
21
1.72272
0
LINE
8
BLACK
6
CONTINUOUS
10
0.735039
20
1.82598
11
0.736431
21
1.82541
0
LINE
8
BLACK
6
CONTINUOUS
10
0.736431
20
1.82541
11
0.737008
21
1.82402
0
LINE
8
BLACK
6
CONTINUOUS
10
0.737008
20
1.82402
11
0.737008
21
1.54902
0
LINE
8
BLACK
6
CONTINUOUS
10
0.737008
20
1.54902
11
0.737008
21
1.54902
0
LINE
8
BLACK
6
CONTINUOUS
10
0.737008
20
1.54902
11
0.736431
21
1.54762
0
LINE
8
BLACK
6
CONTINUOUS
10
0.736431
20
1.54762
11
0.711431
21
1.52262
0
LINE
8
BLACK
6
CONTINUOUS
10
0.711431
20
1.52262
11
0.710039
21
1.52205
0
LINE
8
BLACK
6
CONTINUOUS
10
0.710039
20
1.52205
11
0.635039
21
1.52205
0
LINE
8
BLACK
6
CONTINUOUS
10
0.635039
20
1.52205
11
0.633647
21
1.52262
0
LINE
8
BLACK
6
CONTINUOUS
10
0.633647
20
1.52262
11
0.633071
21
1.52402
0
LINE
8
BLACK
6
CONTINUOUS
10
0.633071
20
1.52402
11
0.633071
21
1.82402
0
LINE
8
BLACK
6
CONTINUOUS
10
0.633071
20
1.82402
11
0.633647
21
1.82541
0
LINE
8
BLACK
6
CONTINUOUS
10
0.633647
20
1.82541
11
0.635039
21
1.82598
0
LINE
8
BLACK
6
CONTINUOUS
10
0.635039
20
1.82598
11
0.735039
21
1.82598
0
LINE
8
BLACK
6
CONTINUOUS
10
0.637008
20
1.82205
11
0.637008
21
1.52598
0
LINE
8
BLACK
6
CONTINUOUS
10
0.637008
20
1.52598
11
0.709224
21
1.52598
0
LINE
8
BLACK
6
CONTINUOUS
10
0.709224
20
1.52598
11
0.733071
21
1.54983
0
LINE
8
BLACK
6
CONTINUOUS
10
0.733071
20
1.54983
11
0.733071
21
1.82205
0
LINE
8
BLACK
6
CONTINUOUS
10
0.733071
20
1.82205
11
0.637008
21
1.82205
0
LINE
8
BLACK
6
CONTINUOUS
10
0.414063
20
2.12481
11
0.427949
21
2.12245
0
LINE
8
BLACK
6
CONTINUOUS
10
0.427949
20
2.12245
11
0.441483
21
2.11855
0
LINE
8
BLACK
6
CONTINUOUS
10
0.441483
20
2.11855
11
0.454496
21
2.11316
0
LINE
8
BLACK
6
CONTINUOUS
10
0.454496
20
2.11316
11
0.466823
21
2.10635
0
LINE
8
BLACK
6
CONTINUOUS
10
0.466823
20
2.10635
11
0.47831
21
2.0982
0
LINE
8
BLACK
6
CONTINUOUS
10
0.47831
20
2.0982
11
0.488813
21
2.08881
0
LINE
8
BLACK
6
CONTINUOUS
10
0.488813
20
2.08881
11
0.498198
21
2.07831
0
LINE
8
BLACK
6
CONTINUOUS
10
0.498198
20
2.07831
11
0.506349
21
2.06682
0
LINE
8
BLACK
6
CONTINUOUS
10
0.506349
20
2.06682
11
0.513162
21
2.0545
0
LINE
8
BLACK
6
CONTINUOUS
10
0.513162
20
2.0545
11
0.518552
21
2.04148
0
LINE
8
BLACK
6
CONTINUOUS
10
0.518552
20
2.04148
11
0.522451
21
2.02795
0
LINE
8
BLACK
6
CONTINUOUS
10
0.522451
20
2.02795
11
0.52481
21
2.01406
0
LINE
8
BLACK
6
CONTINUOUS
10
0.52481
20
2.01406
11
0.5256
21
2
0
LINE
8
BLACK
6
CONTINUOUS
10
0.5256
20
2
11
0.52481
21
1.98594
0
LINE
8
BLACK
6
CONTINUOUS
10
0.52481
20
1.98594
11
0.522451
21
1.97205
0
LINE
8
BLACK
6
CONTINUOUS
10
0.522451
20
1.97205
11
0.518552
21
1.95852
0
LINE
8
BLACK
6
CONTINUOUS
10
0.518552
20
1.95852
11
0.513162
21
1.9455
0
LINE
8
BLACK
6
CONTINUOUS
10
0.513162
20
1.9455
11
0.506349
21
1.93318
0
LINE
8
BLACK
6
CONTINUOUS
10
0.506349
20
1.93318
11
0.498198
21
1.92169
0
LINE
8
BLACK
6
CONTINUOUS
10
0.498198
20
1.92169
11
0.488813
21
1.91119
0
LINE
8
BLACK
6
CONTINUOUS
10
0.488813
20
1.91119
11
0.47831
21
1.9018
0
LINE
8
BLACK
6
CONTINUOUS
10
0.47831
20
1.9018
11
0.466823
21
1.89365
0
LINE
8
BLACK
6
CONTINUOUS
10
0.466823
20
1.89365
11
0.454496
21
1.88684
0
LINE
8
BLACK
6
CONTINUOUS
10
0.454496
20
1.88684
11
0.441483
21
1.88145
0
LINE
8
BLACK
6
CONTINUOUS
10
0.441483
20
1.88145
11
0.427949
21
1.87755
0
LINE
8
BLACK
6
CONTINUOUS
10
0.427949
20
1.87755
11
0.414063
21
1.87519
0
LINE
8
BLACK
6
CONTINUOUS
10
0.414063
20
1.87519
11
0.4
21
1.8744
0
LINE
8
BLACK
6
CONTINUOUS
10
0.4
20
1.8744
11
0.385937
21
1.87519
0
LINE
8
BLACK
6
CONTINUOUS
10
0.385937
20
1.87519
11
0.372051
21
1.87755
0
LINE
8
BLACK
6
CONTINUOUS
10
0.372051
20
1.87755
11
0.358517
21
1.88145
0
LINE
8
BLACK
6
CONTINUOUS
10
0.358517
20
1.88145
11
0.345504
21
1.88684
0
LINE
8
BLACK
6
CONTINUOUS
10
0.345504
20
1.88684
11
0.333177
21
1.89365
0
LINE
8
BLACK
6
CONTINUOUS
10
0.333177
20
1.89365
11
0.32169
21
1.9018
0
LINE
8
BLACK
6
CONTINUOUS
10
0.32169
20
1.9018
11
0.311187
21
1.91119
0
LINE
8
BLACK
6
CONTINUOUS
10
0.311187
20
1.91119
11
0.301802
21
1.92169
0
LINE
8
BLACK
6
CONTINUOUS
10
0.301802
20
1.92169
11
0.293651
21
1.93318
0
LINE
8
BLACK
6
CONTINUOUS
10
0.293651
20
1.93318
11
0.286838
21
1.9455
0
LINE
8
BLACK
6
CONTINUOUS
10
0.286838
20
1.9455
11
0.281448
21
1.95852
0
LINE
8
BLACK
6
CONTINUOUS
10
0.281448
20
1.95852
11
0.277549
21
1.97205
0
LINE
8
BLACK
6
CONTINUOUS
10
0.277549
20
1.97205
11
0.27519
21
1.98594
0
LINE
8
BLACK
6
CONTINUOUS
10
0.27519
20
1.98594
11
0.2744
21
2
0
LINE
8
BLACK
6
CONTINUOUS
10
0.2744
20
2
11
0.27519
21
2.01406
0
LINE
8
BLACK
6
CONTINUOUS
10
0.27519
20
2.01406
11
0.277549
21
2.02795
0
LINE
8
BLACK
6
CONTINUOUS
10
0.277549
20
2.02795
11
0.281448
21
2.04148
0
LINE
8
BLACK
6
CONTINUOUS
10
0.281448
20
2.04148
11
0.286838
21
2.0545
0
LINE
8
BLACK
6
CONTINUOUS
10
0.286838
20
2.0545
11
0.293651
21
2.06682
0
LINE
8
BLACK
6
CONTINUOUS
10
0.293651
20
2.06682
11
0.301802
21
2.07831
0
LINE
8
BLACK
6
CONTINUOUS
10
0.301802
20
2.07831
11
0.311187
21
2.08881
0
LINE
8
BLACK
6
CONTINUOUS
10
0.311187
20
2.08881
11
0.32169
21
2.0982
0
LINE
8
BLACK
6
CONTINUOUS
10
0.32169
20
2.0982
11
0.333177
21
2.10635
0
LINE
8
BLACK
6
CONTINUOUS
10
0.333177
20
2.10635
11
0.345504
21
2.11316
0
LINE
8
BLACK
6
CONTINUOUS
10
0.345504
20
2.11316
11
0.358517
21
2.11855
0
LINE
8
BLACK
6
CONTINUOUS
10
0.358517
20
2.11855
11
0.372051
21
2.12245
0
LINE
8
BLACK
6
CONTINUOUS
10
0.372051
20
2.12245
11
0.385937
21
2.12481
0
LINE
8
BLACK
6
CONTINUOUS
10
0.385937
20
2.12481
11
0.4
21
2.1256
0
LINE
8
BLACK
6
CONTINUOUS
10
0.4
20
2.1256
11
0.414063
21
2.12481
0
LINE
8
BLACK
6
CONTINUOUS
10
0.289962
20
1.98714
11
0.292199
21
1.97445
0
LINE
8
BLACK
6
CONTINUOUS
10
0.292199
20
1.97445
11
0.295894
21
1.96211
0
LINE
8
BLACK
6
CONTINUOUS
10
0.295894
20
1.96211
11
0.300997
21
1.95028
0
LINE
8
BLACK
6
CONTINUOUS
10
0.300997
20
1.95028
11
0.307438
21
1.93912
0
LINE
8
BLACK
6
CONTINUOUS
10
0.307438
20
1.93912
11
0.315132
21
1.92879
0
LINE
8
BLACK
6
CONTINUOUS
10
0.315132
20
1.92879
11
0.323973
21
1.91942
0
LINE
8
BLACK
6
CONTINUOUS
10
0.323973
20
1.91942
11
0.333842
21
1.91113
0
LINE
8
BLACK
6
CONTINUOUS
10
0.333842
20
1.91113
11
0.344606
21
1.90406
0
LINE
8
BLACK
6
CONTINUOUS
10
0.344606
20
1.90406
11
0.356119
21
1.89827
0
LINE
8
BLACK
6
CONTINUOUS
10
0.356119
20
1.89827
11
0.368226
21
1.89387
0
LINE
8
BLACK
6
CONTINUOUS
10
0.368226
20
1.89387
11
0.380762
21
1.8909
0
LINE
8
BLACK
6
CONTINUOUS
10
0.380762
20
1.8909
11
0.393558
21
1.8894
0
LINE
8
BLACK
6
CONTINUOUS
10
0.393558
20
1.8894
11
0.406442
21
1.8894
0
LINE
8
BLACK
6
CONTINUOUS
10
0.406442
20
1.8894
11
0.419238
21
1.8909
0
LINE
8
BLACK
6
CONTINUOUS
10
0.419238
20
1.8909
11
0.431774
21
1.89387
0
LINE
8
BLACK
6
CONTINUOUS
10
0.431774
20
1.89387
11
0.443881
21
1.89827
0
LINE
8
BLACK
6
CONTINUOUS
10
0.443881
20
1.89827
11
0.455394
21
1.90406
0
LINE
8
BLACK
6
CONTINUOUS
10
0.455394
20
1.90406
11
0.466158
21
1.91113
0
LINE
8
BLACK
6
CONTINUOUS
10
0.466158
20
1.91113
11
0.476027
21
1.91942
0
LINE
8
BLACK
6
CONTINUOUS
10
0.476027
20
1.91942
11
0.484868
21
1.92879
0
LINE
8
BLACK
6
CONTINUOUS
10
0.484868
20
1.92879
11
0.492562
21
1.93912
0
LINE
8
BLACK
6
CONTINUOUS
10
0.492562
20
1.93912
11
0.499003
21
1.95028
0
LINE
8
BLACK
6
CONTINUOUS
10
0.499003
20
1.95028
11
0.504106
21
1.96211
0
LINE
8
BLACK
6
CONTINUOUS
10
0.504106
20
1.96211
11
0.507801
21
1.97445
0
LINE
8
BLACK
6
CONTINUOUS
10
0.507801
20
1.97445
11
0.510038
21
1.98714
0
LINE
8
BLACK
6
CONTINUOUS
10
0.510038
20
1.98714
11
0.510787
21
2
0
LINE
8
BLACK
6
CONTINUOUS
10
0.510787
20
2
11
0.510038
21
2.01286
0
LINE
8
BLACK
6
CONTINUOUS
10
0.510038
20
2.01286
11
0.507801
21
2.02555
0
LINE
8
BLACK
6
CONTINUOUS
10
0.507801
20
2.02555
11
0.504106
21
2.03789
0
LINE
8
BLACK
6
CONTINUOUS
10
0.504106
20
2.03789
11
0.499003
21
2.04972
0
LINE
8
BLACK
6
CONTINUOUS
10
0.499003
20
2.04972
11
0.492562
21
2.06088
0
LINE
8
BLACK
6
CONTINUOUS
10
0.492562
20
2.06088
11
0.484868
21
2.07121
0
LINE
8
BLACK
6
CONTINUOUS
10
0.484868
20
2.07121
11
0.476027
21
2.08058
0
LINE
8
BLACK
6
CONTINUOUS
10
0.476027
20
2.08058
11
0.466158
21
2.08887
0
LINE
8
BLACK
6
CONTINUOUS
10
0.466158
20
2.08887
11
0.455394
21
2.09594
0
LINE
8
BLACK
6
CONTINUOUS
10
0.455394
20
2.09594
11
0.443881
21
2.10173
0
LINE
8
BLACK
6
CONTINUOUS
10
0.443881
20
2.10173
11
0.431774
21
2.10613
0
LINE
8
BLACK
6
CONTINUOUS
10
0.431774
20
2.10613
11
0.419238
21
2.1091
0
LINE
8
BLACK
6
CONTINUOUS
10
0.419238
20
2.1091
11
0.406442
21
2.1106
0
LINE
8
BLACK
6
CONTINUOUS
10
0.406442
20
2.1106
11
0.393558
21
2.1106
0
LINE
8
BLACK
6
CONTINUOUS
10
0.393558
20
2.1106
11
0.380762
21
2.1091
0
LINE
8
BLACK
6
CONTINUOUS
10
0.380762
20
2.1091
11
0.368226
21
2.10613
0
LINE
8
BLACK
6
CONTINUOUS
10
0.368226
20
2.10613
11
0.356119
21
2.10173
0
LINE
8
BLACK
6
CONTINUOUS
10
0.356119
20
2.10173
11
0.344606
21
2.09594
0
LINE
8
BLACK
6
CONTINUOUS
10
0.344606
20
2.09594
11
0.333842
21
2.08887
0
LINE
8
BLACK
6
CONTINUOUS
10
0.333842
20
2.08887
11
0.323973
21
2.08058
0
LINE
8
BLACK
6
CONTINUOUS
10
0.323973
20
2.08058
11
0.315132
21
2.07121
0
LINE
8
BLACK
6
CONTINUOUS
10
0.315132
20
2.07121
11
0.307438
21
2.06088
0
LINE
8
BLACK
6
CONTINUOUS
10
0.307438
20
2.06088
11
0.300997
21
2.04972
0
LINE
8
BLACK
6
CONTINUOUS
10
0.300997
20
2.04972
11
0.295894
21
2.03789
0
LINE
8
BLACK
6
CONTINUOUS
10
0.295894
20
2.03789
11
0.292199
21
2.02555
0
LINE
8
BLACK
6
CONTINUOUS
10
0.292199
20
2.02555
11
0.289962
21
2.01286
0
LINE
8
BLACK
6
CONTINUOUS
10
0.289962
20
2.01286
11
0.289213
21
2
0
LINE
8
BLACK
6
CONTINUOUS
10
0.289213
20
2
11
0.289962
21
1.98714
0
LINE
8
BLACK
6
CONTINUOUS
10
1.61406
20
2.12481
11
1.62795
21
2.12245
0
LINE
8
BLACK
6
CONTINUOUS
10
1.62795
20
2.12245
11
1.64148
21
2.11855
0
LINE
8
BLACK
6
CONTINUOUS
10
1.64148
20
2.11855
11
1.6545
21
2.11316
0
LINE
8
BLACK
6
CONTINUOUS
10
1.6545
20
2.11316
11
1.66682
21
2.10635
0
LINE
8
BLACK
6
CONTINUOUS
10
1.66682
20
2.10635
11
1.67831
21
2.0982
0
LINE
8
BLACK
6
CONTINUOUS
10
1.67831
20
2.0982
11
1.68881
21
2.08881
0
LINE
8
BLACK
6
CONTINUOUS
10
1.68881
20
2.08881
11
1.6982
21
2.07831
0
LINE
8
BLACK
6
CONTINUOUS
10
1.6982
20
2.07831
11
1.70635
21
2.06682
0
LINE
8
BLACK
6
CONTINUOUS
10
1.70635
20
2.06682
11
1.71316
21
2.0545
0
LINE
8
BLACK
6
CONTINUOUS
10
1.71316
20
2.0545
11
1.71855
21
2.04148
0
LINE
8
BLACK
6
CONTINUOUS
10
1.71855
20
2.04148
11
1.72245
21
2.02795
0
LINE
8
BLACK
6
CONTINUOUS
10
1.72245
20
2.02795
11
1.72481
21
2.01406
0
LINE
8
BLACK
6
CONTINUOUS
10
1.72481
20
2.01406
11
1.7256
21
2
0
LINE
8
BLACK
6
CONTINUOUS
10
1.7256
20
2
11
1.72481
21
1.98594
0
LINE
8
BLACK
6
CONTINUOUS
10
1.72481
20
1.98594
11
1.72245
21
1.97205
0
LINE
8
BLACK
6
CONTINUOUS
10
1.72245
20
1.97205
11
1.71855
21
1.95852
0
LINE
8
BLACK
6
CONTINUOUS
10
1.71855
20
1.95852
11
1.71316
21
1.9455
0
LINE
8
BLACK
6
CONTINUOUS
10
1.71316
20
1.9455
11
1.70635
21
1.93318
0
LINE
8
BLACK
6
CONTINUOUS
10
1.70635
20
1.93318
11
1.6982
21
1.92169
0
LINE
8
BLACK
6
CONTINUOUS
10
1.6982
20
1.92169
11
1.68881
21
1.91119
0
LINE
8
BLACK
6
CONTINUOUS
10
1.68881
20
1.91119
11
1.67831
21
1.9018
0
LINE
8
BLACK
6
CONTINUOUS
10
1.67831
20
1.9018
11
1.66682
21
1.89365
0
LINE
8
BLACK
6
CONTINUOUS
10
1.66682
20
1.89365
11
1.6545
21
1.88684
0
LINE
8
BLACK
6
CONTINUOUS
10
1.6545
20
1.88684
11
1.64148
21
1.88145
0
LINE
8
BLACK
6
CONTINUOUS
10
1.64148
20
1.88145
11
1.62795
21
1.87755
0
LINE
8
BLACK
6
CONTINUOUS
10
1.62795
20
1.87755
11
1.61406
21
1.87519
0
LINE
8
BLACK
6
CONTINUOUS
10
1.61406
20
1.87519
11
1.6
21
1.8744
0
LINE
8
BLACK
6
CONTINUOUS
10
1.6
20
1.8744
11
1.58594
21
1.87519
0
LINE
8
BLACK
6
CONTINUOUS
10
1.58594
20
1.87519
11
1.57205
21
1.87755
0
LINE
8
BLACK
6
CONTINUOUS
10
1.57205
20
1.87755
11
1.55852
21
1.88145
0
LINE
8
BLACK
6
CONTINUOUS
10
1.55852
20
1.88145
11
1.5455
21
1.88684
0
LINE
8
BLACK
6
CONTINUOUS
10
1.5455
20
1.88684
11
1.53318
21
1.89365
0
LINE
8
BLACK
6
CONTINUOUS
10
1.53318
20
1.89365
11
1.52169
21
1.9018
0
LINE
8
BLACK
6
CONTINUOUS
10
1.52169
20
1.9018
11
1.51119
21
1.91119
0
LINE
8
BLACK
6
CONTINUOUS
10
1.51119
20
1.91119
11
1.5018
21
1.92169
0
LINE
8
BLACK
6
CONTINUOUS
10
1.5018
20
1.92169
11
1.49365
21
1.93318
0
LINE
8
BLACK
6
CONTINUOUS
10
1.49365
20
1.93318
11
1.48684
21
1.9455
0
LINE
8
BLACK
6
CONTINUOUS
10
1.48684
20
1.9455
11
1.48145
21
1.95852
0
LINE
8
BLACK
6
CONTINUOUS
10
1.48145
20
1.95852
11
1.47755
21
1.97205
0
LINE
8
BLACK
6
CONTINUOUS
10
1.47755
20
1.97205
11
1.47519
21
1.98594
0
LINE
8
BLACK
6
CONTINUOUS
10
1.47519
20
1.98594
11
1.4744
21
2
0
LINE
8
BLACK
6
CONTINUOUS
10
1.4744
20
2
11
1.47519
21
2.01406
0
LINE
8
BLACK
6
CONTINUOUS
10
1.47519
20
2.01406
11
1.47755
21
2.02795
0
LINE
8
BLACK
6
CONTINUOUS
10
1.47755
20
2.02795
11
1.48145
21
2.04148
0
LINE
8
BLACK
6
CONTINUOUS
10
1.48145
20
2.04148
11
1.48684
21
2.0545
0
LINE
8
BLACK
6
CONTINUOUS
10
1.48684
20
2.0545
11
1.49365
21
2.06682
0
LINE
8
BLACK
6
CONTINUOUS
10
1.49365
20
2.06682
11
1.5018
21
2.07831
0
LINE
8
BLACK
6
CONTINUOUS
10
1.5018
20
2.07831
11
1.51119
21
2.08881
0
LINE
8
BLACK
6
CONTINUOUS
10
1.51119
20
2.08881
11
1.52169
21
2.0982
0
LINE
8
BLACK
6
CONTINUOUS
10
1.52169
20
2.0982
11
1.53318
21
2.10635
0
LINE
8
BLACK
6
CONTINUOUS
10
1.53318
20
2.10635
11
1.5455
21
2.11316
0
LINE
8
BLACK
6
CONTINUOUS
10
1.5455
20
2.11316
11
1.55852
21
2.11855
0
LINE
8
BLACK
6
CONTINUOUS
10
1.55852
20
2.11855
11
1.57205
21
2.12245
0
LINE
8
BLACK
6
CONTINUOUS
10
1.57205
20
2.12245
11
1.58594
21
2.12481
0
LINE
8
BLACK
6
CONTINUOUS
10
1.58594
20
2.12481
11
1.6
21
2.1256
0
LINE
8
BLACK
6
CONTINUOUS
10
1.6
20
2.1256
11
1.61406
21
2.12481
0
LINE
8
BLACK
6
CONTINUOUS
10
1.48996
20
1.98714
11
1.4922
21
1.97445
0
LINE
8
BLACK
6
CONTINUOUS
10
1.4922
20
1.97445
11
1.49589
21
1.96211
0
LINE
8
BLACK
6
CONTINUOUS
10
1.49589
20
1.96211
11
1.501
21
1.95028
0
LINE
8
BLACK
6
CONTINUOUS
10
1.501
20
1.95028
11
1.50744
21
1.93912
0
LINE
8
BLACK
6
CONTINUOUS
10
1.50744
20
1.93912
11
1.51513
21
1.92879
0
LINE
8
BLACK
6
CONTINUOUS
10
1.51513
20
1.92879
11
1.52397
21
1.91942
0
LINE
8
BLACK
6
CONTINUOUS
10
1.52397
20
1.91942
11
1.53384
21
1.91113
0
LINE
8
BLACK
6
CONTINUOUS
10
1.53384
20
1.91113
11
1.54461
21
1.90406
0
LINE
8
BLACK
6
CONTINUOUS
10
1.54461
20
1.90406
11
1.55612
21
1.89827
0
LINE
8
BLACK
6
CONTINUOUS
10
1.55612
20
1.89827
11
1.56823
21
1.89387
0
LINE
8
BLACK
6
CONTINUOUS
10
1.56823
20
1.89387
11
1.58076
21
1.8909
0
LINE
8
BLACK
6
CONTINUOUS
10
1.58076
20
1.8909
11
1.59356
21
1.8894
0
LINE
8
BLACK
6
CONTINUOUS
10
1.59356
20
1.8894
11
1.60644
21
1.8894
0
LINE
8
BLACK
6
CONTINUOUS
10
1.60644
20
1.8894
11
1.61924
21
1.8909
0
LINE
8
BLACK
6
CONTINUOUS
10
1.61924
20
1.8909
11
1.63177
21
1.89387
0
LINE
8
BLACK
6
CONTINUOUS
10
1.63177
20
1.89387
11
1.64388
21
1.89827
0
LINE
8
BLACK
6
CONTINUOUS
10
1.64388
20
1.89827
11
1.65539
21
1.90406
0
LINE
8
BLACK
6
CONTINUOUS
10
1.65539
20
1.90406
11
1.66616
21
1.91113
0
LINE
8
BLACK
6
CONTINUOUS
10
1.66616
20
1.91113
11
1.67603
21
1.91942
0
LINE
8
BLACK
6
CONTINUOUS
10
1.67603
20
1.91942
11
1.68487
21
1.92879
0
LINE
8
BLACK
6
CONTINUOUS
10
1.68487
20
1.92879
11
1.69256
21
1.93912
0
LINE
8
BLACK
6
CONTINUOUS
10
1.69256
20
1.93912
11
1.699
21
1.95028
0
LINE
8
BLACK
6
CONTINUOUS
10
1.699
20
1.95028
11
1.70411
21
1.96211
0
LINE
8
BLACK
6
CONTINUOUS
10
1.70411
20
1.96211
11
1.7078
21
1.97445
0
LINE
8
BLACK
6
CONTINUOUS
10
1.7078
20
1.97445
11
1.71004
21
1.98714
0
LINE
8
BLACK
6
CONTINUOUS
10
1.71004
20
1.98714
11
1.71079
21
2
0
LINE
8
BLACK
6
CONTINUOUS
10
1.71079
20
2
11
1.71004
21
2.01286
0
LINE
8
BLACK
6
CONTINUOUS
10
1.71004
20
2.01286
11
1.7078
21
2.02555
0
LINE
8
BLACK
6
CONTINUOUS
10
1.7078
20
2.02555
11
1.70411
21
2.03789
0
LINE
8
BLACK
6
CONTINUOUS
10
1.70411
20
2.03789
11
1.699
21
2.04972
0
LINE
8
BLACK
6
CONTINUOUS
10
1.699
20
2.04972
11
1.69256
21
2.06088
0
LINE
8
BLACK
6
CONTINUOUS
10
1.69256
20
2.06088
11
1.68487
21
2.07121
0
LINE
8
BLACK
6
CONTINUOUS
10
1.68487
20
2.07121
11
1.67603
21
2.08058
0
LINE
8
BLACK
6
CONTINUOUS
10
1.67603
20
2.08058
11
1.66616
21
2.08887
0
LINE
8
BLACK
6
CONTINUOUS
10
1.66616
20
2.08887
11
1.65539
21
2.09594
0
LINE
8
BLACK
6
CONTINUOUS
10
1.65539
20
2.09594
11
1.64388
21
2.10173
0
LINE
8
BLACK
6
CONTINUOUS
10
1.64388
20
2.10173
11
1.63177
21
2.10613
0
LINE
8
BLACK
6
CONTINUOUS
10
1.63177
20
2.10613
11
1.61924
21
2.1091
0
LINE
8
BLACK
6
CONTINUOUS
10
1.61924
20
2.1091
11
1.60644
21
2.1106
0
LINE
8
BLACK
6
CONTINUOUS
10
1.60644
20
2.1106
11
1.59356
21
2.1106
0
LINE
8
BLACK
6
CONTINUOUS
10
1.59356
20
2.1106
11
1.58076
21
2.1091
0
LINE
8
BLACK
6
CONTINUOUS
10
1.58076
20
2.1091
11
1.56823
21
2.10613
0
LINE
8
BLACK
6
CONTINUOUS
10
1.56823
20
2.10613
11
1.55612
21
2.10173
0
LINE
8
BLACK
6
CONTINUOUS
10
1.55612
20
2.10173
11
1.54461
21
2.09594
0
LINE
8
BLACK
6
CONTINUOUS
10
1.54461
20
2.09594
11
1.53384
21
2.08887
0
LINE
8
BLACK
6
CONTINUOUS
10
1.53384
20
2.08887
11
1.52397
21
2.08058
0
LINE
8
BLACK
6
CONTINUOUS
10
1.52397
20
2.08058
11
1.51513
21
2.07121
0
LINE
8
BLACK
6
CONTINUOUS
10
1.51513
20
2.07121
11
1.50744
21
2.06088
0
LINE
8
BLACK
6
CONTINUOUS
10
1.50744
20
2.06088
11
1.501
21
2.04972
0
LINE
8
BLACK
6
CONTINUOUS
10
1.501
20
2.04972
11
1.49589
21
2.03789
0
LINE
8
BLACK
6
CONTINUOUS
10
1.49589
20
2.03789
11
1.4922
21
2.02555
0
LINE
8
BLACK
6
CONTINUOUS
10
1.4922
20
2.02555
11
1.48996
21
2.01286
0
LINE
8
BLACK
6
CONTINUOUS
10
1.48996
20
2.01286
11
1.48921
21
2
0
LINE
8
BLACK
6
CONTINUOUS
10
1.48921
20
2
11
1.48996
21
1.98714
0
LINE
8
BLACK
6
CONTINUOUS
10
0.988942
20
2.03557
11
0.989633
21
2.03367
0
LINE
8
BLACK
6
CONTINUOUS
10
0.989633
20
2.03367
11
0.989633
21
2.00555
0
LINE
8
BLACK
6
CONTINUOUS
10
0.989633
20
2.00555
11
0.989479
21
2.00468
0
LINE
8
BLACK
6
CONTINUOUS
10
0.989479
20
2.00468
11
0.989481
21
2.00461
0
LINE
8
BLACK
6
CONTINUOUS
10
0.989481
20
2.00461
11
0.987606
21
1.99899
0
LINE
8
BLACK
6
CONTINUOUS
10
0.987606
20
1.99899
11
0.987118
21
1.99809
0
LINE
8
BLACK
6
CONTINUOUS
10
0.987118
20
1.99809
11
0.986968
21
1.99799
0
LINE
8
BLACK
6
CONTINUOUS
10
0.986968
20
1.99799
11
0.986893
21
1.99783
0
LINE
8
BLACK
6
CONTINUOUS
10
0.986893
20
1.99783
11
0.983143
21
1.99409
0
LINE
8
BLACK
6
CONTINUOUS
10
0.983143
20
1.99409
11
0.982303
21
1.9935
0
LINE
8
BLACK
6
CONTINUOUS
10
0.982303
20
1.9935
11
0.982127
21
1.99348
0
LINE
8
BLACK
6
CONTINUOUS
10
0.982127
20
1.99348
11
0.981989
21
1.99337
0
LINE
8
BLACK
6
CONTINUOUS
10
0.981989
20
1.99337
11
0.976365
21
1.9915
0
LINE
8
BLACK
6
CONTINUOUS
10
0.976365
20
1.9915
11
0.975492
21
1.99137
0
LINE
8
BLACK
6
CONTINUOUS
10
0.975492
20
1.99137
11
0.975431
21
1.99135
0
LINE
8
BLACK
6
CONTINUOUS
10
0.975431
20
1.99135
11
0.971682
21
1.99135
0
LINE
8
BLACK
6
CONTINUOUS
10
0.971682
20
1.99135
11
0.970672
21
1.99152
0
LINE
8
BLACK
6
CONTINUOUS
10
0.970672
20
1.99152
11
0.969124
21
1.99282
0
LINE
8
BLACK
6
CONTINUOUS
10
0.969124
20
1.99282
11
0.968774
21
1.99481
0
LINE
8
BLACK
6
CONTINUOUS
10
0.968774
20
1.99481
11
0.969784
21
1.99656
0
LINE
8
BLACK
6
CONTINUOUS
10
0.969784
20
1.99656
11
0.971682
21
1.99725
0
LINE
8
BLACK
6
CONTINUOUS
10
0.971682
20
1.99725
11
0.974952
21
1.99725
0
LINE
8
BLACK
6
CONTINUOUS
10
0.974952
20
1.99725
11
0.97946
21
1.99875
0
LINE
8
BLACK
6
CONTINUOUS
10
0.97946
20
1.99875
11
0.982224
21
2.00152
0
LINE
8
BLACK
6
CONTINUOUS
10
0.982224
20
2.00152
11
0.983727
21
2.00603
0
LINE
8
BLACK
6
CONTINUOUS
10
0.983727
20
2.00603
11
0.983727
21
2.03367
0
LINE
8
BLACK
6
CONTINUOUS
10
0.983727
20
2.03367
11
0.983905
21
2.03468
0
LINE
8
BLACK
6
CONTINUOUS
10
0.983905
20
2.03468
11
0.985203
21
2.03623
0
LINE
8
BLACK
6
CONTINUOUS
10
0.985203
20
2.03623
11
0.987193
21
2.03658
0
LINE
8
BLACK
6
CONTINUOUS
10
0.987193
20
2.03658
11
0.988942
21
2.03557
0
LINE
8
BLACK
6
CONTINUOUS
10
1.01956
20
2.03644
11
1.0197
21
2.03633
0
LINE
8
BLACK
6
CONTINUOUS
10
1.0197
20
2.03633
11
1.01987
21
2.03631
0
LINE
8
BLACK
6
CONTINUOUS
10
1.01987
20
2.03631
11
1.02362
21
2.03443
0
LINE
8
BLACK
6
CONTINUOUS
10
1.02362
20
2.03443
11
1.02433
21
2.03391
0
LINE
8
BLACK
6
CONTINUOUS
10
1.02433
20
2.03391
11
1.02439
21
2.03388
0
LINE
8
BLACK
6
CONTINUOUS
10
1.02439
20
2.03388
11
1.02626
21
2.03201
0
LINE
8
BLACK
6
CONTINUOUS
10
1.02626
20
2.03201
11
1.02677
21
2.03128
0
LINE
8
BLACK
6
CONTINUOUS
10
1.02677
20
2.03128
11
1.02682
21
2.03124
0
LINE
8
BLACK
6
CONTINUOUS
10
1.02682
20
2.03124
11
1.02869
21
2.02749
0
LINE
8
BLACK
6
CONTINUOUS
10
1.02869
20
2.02749
11
1.02898
21
2.02651
0
LINE
8
BLACK
6
CONTINUOUS
10
1.02898
20
2.02651
11
1.02894
21
2.02634
0
LINE
8
BLACK
6
CONTINUOUS
10
1.02894
20
2.02634
11
1.029
21
2.02617
0
LINE
8
BLACK
6
CONTINUOUS
10
1.029
20
2.02617
11
1.029
21
2.02242
0
LINE
8
BLACK
6
CONTINUOUS
10
1.029
20
2.02242
11
1.02885
21
2.02155
0
LINE
8
BLACK
6
CONTINUOUS
10
1.02885
20
2.02155
11
1.02885
21
2.02149
0
LINE
8
BLACK
6
CONTINUOUS
10
1.02885
20
2.02149
11
1.02698
21
2.01586
0
LINE
8
BLACK
6
CONTINUOUS
10
1.02698
20
2.01586
11
1.02649
21
2.01496
0
LINE
8
BLACK
6
CONTINUOUS
10
1.02649
20
2.01496
11
1.02634
21
2.01487
0
LINE
8
BLACK
6
CONTINUOUS
10
1.02634
20
2.01487
11
1.02626
21
2.01471
0
LINE
8
BLACK
6
CONTINUOUS
10
1.02626
20
2.01471
11
1.00881
21
1.99725
0
LINE
8
BLACK
6
CONTINUOUS
10
1.00881
20
1.99725
11
1.02605
21
1.99725
0
LINE
8
BLACK
6
CONTINUOUS
10
1.02605
20
1.99725
11
1.02706
21
1.99707
0
LINE
8
BLACK
6
CONTINUOUS
10
1.02706
20
1.99707
11
1.02861
21
1.99577
0
LINE
8
BLACK
6
CONTINUOUS
10
1.02861
20
1.99577
11
1.02896
21
1.99379
0
LINE
8
BLACK
6
CONTINUOUS
10
1.02896
20
1.99379
11
1.02795
21
1.99204
0
LINE
8
BLACK
6
CONTINUOUS
10
1.02795
20
1.99204
11
1.02605
21
1.99135
0
LINE
8
BLACK
6
CONTINUOUS
10
1.02605
20
1.99135
11
1.00168
21
1.99135
0
LINE
8
BLACK
6
CONTINUOUS
10
1.00168
20
1.99135
11
1.00104
21
1.99146
0
LINE
8
BLACK
6
CONTINUOUS
10
1.00104
20
1.99146
11
1.00091
21
1.99145
0
LINE
8
BLACK
6
CONTINUOUS
10
1.00091
20
1.99145
11
1.00085
21
1.99149
0
LINE
8
BLACK
6
CONTINUOUS
10
1.00085
20
1.99149
11
1.00067
21
1.99152
0
LINE
8
BLACK
6
CONTINUOUS
10
1.00067
20
1.99152
11
0.999987
21
1.9921
0
LINE
8
BLACK
6
CONTINUOUS
10
0.999987
20
1.9921
11
0.999259
21
1.9926
0
LINE
8
BLACK
6
CONTINUOUS
10
0.999259
20
1.9926
11
0.999224
21
1.99274
0
LINE
8
BLACK
6
CONTINUOUS
10
0.999224
20
1.99274
11
0.999121
21
1.99282
0
LINE
8
BLACK
6
CONTINUOUS
10
0.999121
20
1.99282
11
0.998966
21
1.9937
0
LINE
8
BLACK
6
CONTINUOUS
10
0.998966
20
1.9937
11
0.998736
21
1.99456
0
LINE
8
BLACK
6
CONTINUOUS
10
0.998736
20
1.99456
11
0.998793
21
1.99468
0
LINE
8
BLACK
6
CONTINUOUS
10
0.998793
20
1.99468
11
0.99877
21
1.99481
0
LINE
8
BLACK
6
CONTINUOUS
10
0.99877
20
1.99481
11
0.999214
21
1.99558
0
LINE
8
BLACK
6
CONTINUOUS
10
0.999214
20
1.99558
11
0.99959
21
1.99639
0
LINE
8
BLACK
6
CONTINUOUS
10
0.99959
20
1.99639
11
1.02159
21
2.01839
0
LINE
8
BLACK
6
CONTINUOUS
10
1.02159
20
2.01839
11
1.0231
21
2.0229
0
LINE
8
BLACK
6
CONTINUOUS
10
1.0231
20
2.0229
11
1.0231
21
2.02547
0
LINE
8
BLACK
6
CONTINUOUS
10
1.0231
20
2.02547
11
1.02175
21
2.02817
0
LINE
8
BLACK
6
CONTINUOUS
10
1.02175
20
2.02817
11
1.02055
21
2.02937
0
LINE
8
BLACK
6
CONTINUOUS
10
1.02055
20
2.02937
11
1.01785
21
2.03072
0
LINE
8
BLACK
6
CONTINUOUS
10
1.01785
20
2.03072
11
1.00987
21
2.03072
0
LINE
8
BLACK
6
CONTINUOUS
10
1.00987
20
2.03072
11
1.00718
21
2.02937
0
LINE
8
BLACK
6
CONTINUOUS
10
1.00718
20
2.02937
11
1.00564
21
2.02783
0
LINE
8
BLACK
6
CONTINUOUS
10
1.00564
20
2.02783
11
1.0048
21
2.02724
0
LINE
8
BLACK
6
CONTINUOUS
10
1.0048
20
2.02724
11
1.00279
21
2.02707
0
LINE
8
BLACK
6
CONTINUOUS
10
1.00279
20
2.02707
11
1.00113
21
2.02823
0
LINE
8
BLACK
6
CONTINUOUS
10
1.00113
20
2.02823
11
1.00061
21
2.03018
0
LINE
8
BLACK
6
CONTINUOUS
10
1.00061
20
2.03018
11
1.00146
21
2.03201
0
LINE
8
BLACK
6
CONTINUOUS
10
1.00146
20
2.03201
11
1.00334
21
2.03388
0
LINE
8
BLACK
6
CONTINUOUS
10
1.00334
20
2.03388
11
1.00406
21
2.03439
0
LINE
8
BLACK
6
CONTINUOUS
10
1.00406
20
2.03439
11
1.00411
21
2.03443
0
LINE
8
BLACK
6
CONTINUOUS
10
1.00411
20
2.03443
11
1.00786
21
2.03631
0
LINE
8
BLACK
6
CONTINUOUS
10
1.00786
20
2.03631
11
1.00884
21
2.0366
0
LINE
8
BLACK
6
CONTINUOUS
10
1.00884
20
2.0366
11
1.00901
21
2.03656
0
LINE
8
BLACK
6
CONTINUOUS
10
1.00901
20
2.03656
11
1.00918
21
2.03662
0
LINE
8
BLACK
6
CONTINUOUS
10
1.00918
20
2.03662
11
1.01855
21
2.03662
0
LINE
8
BLACK
6
CONTINUOUS
10
1.01855
20
2.03662
11
1.01956
21
2.03644
0
LINE
8
BLACK
6
CONTINUOUS
10
1.1998
20
2.11417
11
1.2012
21
2.1136
0
LINE
8
BLACK
6
CONTINUOUS
10
1.2012
20
2.1136
11
1.2512
21
2.0636
0
LINE
8
BLACK
6
CONTINUOUS
10
1.2512
20
2.0636
11
1.25177
21
2.0622
0
LINE
8
BLACK
6
CONTINUOUS
10
1.25177
20
2.0622
11
1.25177
21
1.9122
0
LINE
8
BLACK
6
CONTINUOUS
10
1.25177
20
1.9122
11
1.2512
21
1.91081
0
LINE
8
BLACK
6
CONTINUOUS
10
1.2512
20
1.91081
11
1.2498
21
1.91024
0
LINE
8
BLACK
6
CONTINUOUS
10
1.2498
20
1.91024
11
0.749803
21
1.91024
0
LINE
8
BLACK
6
CONTINUOUS
10
0.749803
20
1.91024
11
0.748411
21
1.91081
0
LINE
8
BLACK
6
CONTINUOUS
10
0.748411
20
1.91081
11
0.747835
21
1.9122
0
LINE
8
BLACK
6
CONTINUOUS
10
0.747835
20
1.9122
11
0.747835
21
1.9122
0
LINE
8
BLACK
6
CONTINUOUS
10
0.747835
20
1.9122
11
0.747835
21
2.1122
0
LINE
8
BLACK
6
CONTINUOUS
10
0.747835
20
2.1122
11
0.748411
21
2.1136
0
LINE
8
BLACK
6
CONTINUOUS
10
0.748411
20
2.1136
11
0.749803
21
2.11417
0
LINE
8
BLACK
6
CONTINUOUS
10
0.749803
20
2.11417
11
1.1998
21
2.11417
0
LINE
8
BLACK
6
CONTINUOUS
10
0.751772
20
2.11024
11
0.751772
21
1.91417
0
LINE
8
BLACK
6
CONTINUOUS
10
0.751772
20
1.91417
11
1.24783
21
1.91417
0
LINE
8
BLACK
6
CONTINUOUS
10
1.24783
20
1.91417
11
1.24783
21
2.06139
0
LINE
8
BLACK
6
CONTINUOUS
10
1.24783
20
2.06139
11
1.19899
21
2.11024
0
LINE
8
BLACK
6
CONTINUOUS
10
1.19899
20
2.11024
11
0.751772
21
2.11024
  0
ENDSEC
  0
EOF
