  0
SECTION
  2
HEADER
  9
$ANGBASE
  50
0.0
  9
$ANGDIR
  70
1
  9
$MEASUREMENT
  70
0
  0
ENDSEC
  0
SECTION
  2
TABLES
  0
TABLE
  2
LTYPE
  70
4
  0
LTYPE
  5
40F
  2
CONTINUOUS
  70
0
  3
Solid line
  72
65
  73
0
  40
0.0
  0
LTYPE
  5
410
  2
DASHDOT
 70
0
  3
Dash Dot ____ _ ____ _
 72
65
 73
4
 40
2.0
 49
1.25
 49
-0.25
 49
0.25
 49
-0.25
  0
LTYPE
  5
411
  2
DASHED
 70
0
  3
Dashed __ __ __ __ __
 72
65
 73
2
 40
0.75
 49
0.5
 49
-0.25
  0
LTYPE
  5
43B
  2
DOTTED
 70
0
  3
Dotted .  .  .  .
 72
65
 73
2
 40
0.2
 49
0.0
 49
-0.2
  0
ENDTAB
  0
TABLE
  2
STYLE
  70
4
  0
STYLE
  2
KICAD
  70
0
  40
0
  41
1
  42
1
  50
0
  71
0
  3
isocp.shx
  0
STYLE
  2
KICADB
  70
0
  40
0
  41
1
  42
1
  50
0
  71
0
  3
isocp.shx
  0
STYLE
  2
KICADI
  70
0
  40
0
  41
1
  42
1
  50
15
  71
0
  3
isocp.shx
  0
STYLE
  2
KICADBI
  70
0
  40
0
  41
1
  42
1
  50
15
  71
0
  3
isocp.shx
  0
ENDTAB
  0
TABLE
  2
LAYER
  70
1
  0
LAYER
  2
BLACK
  70
0
  62
7
  6
CONTINUOUS
  0
ENDTAB
  0
ENDSEC
  0
SECTION
  2
ENTITIES
0
LINE
8
BLACK
6
CONTINUOUS
10
0.398425
20
0.8
11
0.403025
21
0.799482
0
LINE
8
BLACK
6
CONTINUOUS
10
0.403025
20
0.799482
11
0.407393
21
0.797953
0
LINE
8
BLACK
6
CONTINUOUS
10
0.407393
20
0.797953
11
0.411312
21
0.795491
0
LINE
8
BLACK
6
CONTINUOUS
10
0.411312
20
0.795491
11
0.414585
21
0.792218
0
LINE
8
BLACK
6
CONTINUOUS
10
0.414585
20
0.792218
11
0.417048
21
0.788299
0
LINE
8
BLACK
6
CONTINUOUS
10
0.417048
20
0.788299
11
0.418576
21
0.78393
0
LINE
8
BLACK
6
CONTINUOUS
10
0.418576
20
0.78393
11
0.419094
21
0.779331
0
LINE
8
BLACK
6
CONTINUOUS
10
0.419094
20
0.779331
11
0.419094
21
0.724213
0
LINE
8
BLACK
6
CONTINUOUS
10
0.419094
20
0.724213
11
0.418576
21
0.719613
0
LINE
8
BLACK
6
CONTINUOUS
10
0.418576
20
0.719613
11
0.417048
21
0.715245
0
LINE
8
BLACK
6
CONTINUOUS
10
0.417048
20
0.715245
11
0.414585
21
0.711326
0
LINE
8
BLACK
6
CONTINUOUS
10
0.414585
20
0.711326
11
0.411312
21
0.708053
0
LINE
8
BLACK
6
CONTINUOUS
10
0.411312
20
0.708053
11
0.407393
21
0.70559
0
LINE
8
BLACK
6
CONTINUOUS
10
0.407393
20
0.70559
11
0.403025
21
0.704062
0
LINE
8
BLACK
6
CONTINUOUS
10
0.403025
20
0.704062
11
0.398425
21
0.703543
0
LINE
8
BLACK
6
CONTINUOUS
10
0.398425
20
0.703543
11
0.351181
21
0.703543
0
LINE
8
BLACK
6
CONTINUOUS
10
0.351181
20
0.703543
11
0.346582
21
0.704062
0
LINE
8
BLACK
6
CONTINUOUS
10
0.346582
20
0.704062
11
0.342213
21
0.70559
0
LINE
8
BLACK
6
CONTINUOUS
10
0.342213
20
0.70559
11
0.338294
21
0.708053
0
LINE
8
BLACK
6
CONTINUOUS
10
0.338294
20
0.708053
11
0.335021
21
0.711326
0
LINE
8
BLACK
6
CONTINUOUS
10
0.335021
20
0.711326
11
0.332559
21
0.715245
0
LINE
8
BLACK
6
CONTINUOUS
10
0.332559
20
0.715245
11
0.33103
21
0.719613
0
LINE
8
BLACK
6
CONTINUOUS
10
0.33103
20
0.719613
11
0.330512
21
0.724213
0
LINE
8
BLACK
6
CONTINUOUS
10
0.330512
20
0.724213
11
0.330512
21
0.779331
0
LINE
8
BLACK
6
CONTINUOUS
10
0.330512
20
0.779331
11
0.33103
21
0.78393
0
LINE
8
BLACK
6
CONTINUOUS
10
0.33103
20
0.78393
11
0.332559
21
0.788299
0
LINE
8
BLACK
6
CONTINUOUS
10
0.332559
20
0.788299
11
0.335021
21
0.792218
0
LINE
8
BLACK
6
CONTINUOUS
10
0.335021
20
0.792218
11
0.338294
21
0.795491
0
LINE
8
BLACK
6
CONTINUOUS
10
0.338294
20
0.795491
11
0.342213
21
0.797953
0
LINE
8
BLACK
6
CONTINUOUS
10
0.342213
20
0.797953
11
0.346582
21
0.799482
0
LINE
8
BLACK
6
CONTINUOUS
10
0.346582
20
0.799482
11
0.351181
21
0.8
0
LINE
8
BLACK
6
CONTINUOUS
10
0.351181
20
0.8
11
0.398425
21
0.8
0
LINE
8
BLACK
6
CONTINUOUS
10
0.351181
20
0.798031
11
0.348719
21
0.798031
0
LINE
8
BLACK
6
CONTINUOUS
10
0.348719
20
0.798031
11
0.343963
21
0.796757
0
LINE
8
BLACK
6
CONTINUOUS
10
0.343963
20
0.796757
11
0.339699
21
0.794295
0
LINE
8
BLACK
6
CONTINUOUS
10
0.339699
20
0.794295
11
0.336217
21
0.790813
0
LINE
8
BLACK
6
CONTINUOUS
10
0.336217
20
0.790813
11
0.333755
21
0.786549
0
LINE
8
BLACK
6
CONTINUOUS
10
0.333755
20
0.786549
11
0.33248
21
0.781793
0
LINE
8
BLACK
6
CONTINUOUS
10
0.33248
20
0.781793
11
0.33248
21
0.779331
0
LINE
8
BLACK
6
CONTINUOUS
10
0.33248
20
0.779331
11
0.33248
21
0.779331
0
LINE
8
BLACK
6
CONTINUOUS
10
0.33248
20
0.779331
11
0.33248
21
0.724213
0
LINE
8
BLACK
6
CONTINUOUS
10
0.33248
20
0.724213
11
0.33248
21
0.721751
0
LINE
8
BLACK
6
CONTINUOUS
10
0.33248
20
0.721751
11
0.333755
21
0.716994
0
LINE
8
BLACK
6
CONTINUOUS
10
0.333755
20
0.716994
11
0.336217
21
0.71273
0
LINE
8
BLACK
6
CONTINUOUS
10
0.336217
20
0.71273
11
0.339699
21
0.709248
0
LINE
8
BLACK
6
CONTINUOUS
10
0.339699
20
0.709248
11
0.343963
21
0.706786
0
LINE
8
BLACK
6
CONTINUOUS
10
0.343963
20
0.706786
11
0.348719
21
0.705512
0
LINE
8
BLACK
6
CONTINUOUS
10
0.348719
20
0.705512
11
0.351181
21
0.705512
0
LINE
8
BLACK
6
CONTINUOUS
10
0.351181
20
0.705512
11
0.398425
21
0.705512
0
LINE
8
BLACK
6
CONTINUOUS
10
0.398425
20
0.705512
11
0.400887
21
0.705512
0
LINE
8
BLACK
6
CONTINUOUS
10
0.400887
20
0.705512
11
0.405643
21
0.706786
0
LINE
8
BLACK
6
CONTINUOUS
10
0.405643
20
0.706786
11
0.409908
21
0.709248
0
LINE
8
BLACK
6
CONTINUOUS
10
0.409908
20
0.709248
11
0.41339
21
0.71273
0
LINE
8
BLACK
6
CONTINUOUS
10
0.41339
20
0.71273
11
0.415852
21
0.716994
0
LINE
8
BLACK
6
CONTINUOUS
10
0.415852
20
0.716994
11
0.417126
21
0.721751
0
LINE
8
BLACK
6
CONTINUOUS
10
0.417126
20
0.721751
11
0.417126
21
0.724213
0
LINE
8
BLACK
6
CONTINUOUS
10
0.417126
20
0.724213
11
0.417126
21
0.779331
0
LINE
8
BLACK
6
CONTINUOUS
10
0.417126
20
0.779331
11
0.417126
21
0.779331
0
LINE
8
BLACK
6
CONTINUOUS
10
0.417126
20
0.779331
11
0.417126
21
0.781793
0
LINE
8
BLACK
6
CONTINUOUS
10
0.417126
20
0.781793
11
0.415852
21
0.786549
0
LINE
8
BLACK
6
CONTINUOUS
10
0.415852
20
0.786549
11
0.41339
21
0.790813
0
LINE
8
BLACK
6
CONTINUOUS
10
0.41339
20
0.790813
11
0.409908
21
0.794295
0
LINE
8
BLACK
6
CONTINUOUS
10
0.409908
20
0.794295
11
0.405643
21
0.796757
0
LINE
8
BLACK
6
CONTINUOUS
10
0.405643
20
0.796757
11
0.400887
21
0.798031
0
LINE
8
BLACK
6
CONTINUOUS
10
0.400887
20
0.798031
11
0.398425
21
0.798031
0
LINE
8
BLACK
6
CONTINUOUS
10
0.398425
20
0.798031
11
0.351181
21
0.798031
0
LINE
8
BLACK
6
CONTINUOUS
10
0.399016
20
0.919291
11
0.403615
21
0.918773
0
LINE
8
BLACK
6
CONTINUOUS
10
0.403615
20
0.918773
11
0.407984
21
0.917244
0
LINE
8
BLACK
6
CONTINUOUS
10
0.407984
20
0.917244
11
0.411903
21
0.914782
0
LINE
8
BLACK
6
CONTINUOUS
10
0.411903
20
0.914782
11
0.415176
21
0.911509
0
LINE
8
BLACK
6
CONTINUOUS
10
0.415176
20
0.911509
11
0.417638
21
0.90759
0
LINE
8
BLACK
6
CONTINUOUS
10
0.417638
20
0.90759
11
0.419167
21
0.903221
0
LINE
8
BLACK
6
CONTINUOUS
10
0.419167
20
0.903221
11
0.419685
21
0.898622
0
LINE
8
BLACK
6
CONTINUOUS
10
0.419685
20
0.898622
11
0.419685
21
0.898622
0
LINE
8
BLACK
6
CONTINUOUS
10
0.419685
20
0.898622
11
0.419685
21
0.843504
0
LINE
8
BLACK
6
CONTINUOUS
10
0.419685
20
0.843504
11
0.419167
21
0.838905
0
LINE
8
BLACK
6
CONTINUOUS
10
0.419167
20
0.838905
11
0.417638
21
0.834536
0
LINE
8
BLACK
6
CONTINUOUS
10
0.417638
20
0.834536
11
0.415176
21
0.830617
0
LINE
8
BLACK
6
CONTINUOUS
10
0.415176
20
0.830617
11
0.411903
21
0.827344
0
LINE
8
BLACK
6
CONTINUOUS
10
0.411903
20
0.827344
11
0.407984
21
0.824882
0
LINE
8
BLACK
6
CONTINUOUS
10
0.407984
20
0.824882
11
0.403615
21
0.823353
0
LINE
8
BLACK
6
CONTINUOUS
10
0.403615
20
0.823353
11
0.399016
21
0.822835
0
LINE
8
BLACK
6
CONTINUOUS
10
0.399016
20
0.822835
11
0.351772
21
0.822835
0
LINE
8
BLACK
6
CONTINUOUS
10
0.351772
20
0.822835
11
0.347172
21
0.823353
0
LINE
8
BLACK
6
CONTINUOUS
10
0.347172
20
0.823353
11
0.342804
21
0.824882
0
LINE
8
BLACK
6
CONTINUOUS
10
0.342804
20
0.824882
11
0.338885
21
0.827344
0
LINE
8
BLACK
6
CONTINUOUS
10
0.338885
20
0.827344
11
0.335612
21
0.830617
0
LINE
8
BLACK
6
CONTINUOUS
10
0.335612
20
0.830617
11
0.333149
21
0.834536
0
LINE
8
BLACK
6
CONTINUOUS
10
0.333149
20
0.834536
11
0.331621
21
0.838905
0
LINE
8
BLACK
6
CONTINUOUS
10
0.331621
20
0.838905
11
0.331102
21
0.843504
0
LINE
8
BLACK
6
CONTINUOUS
10
0.331102
20
0.843504
11
0.331102
21
0.898622
0
LINE
8
BLACK
6
CONTINUOUS
10
0.331102
20
0.898622
11
0.331621
21
0.903221
0
LINE
8
BLACK
6
CONTINUOUS
10
0.331621
20
0.903221
11
0.333149
21
0.90759
0
LINE
8
BLACK
6
CONTINUOUS
10
0.333149
20
0.90759
11
0.335612
21
0.911509
0
LINE
8
BLACK
6
CONTINUOUS
10
0.335612
20
0.911509
11
0.338885
21
0.914782
0
LINE
8
BLACK
6
CONTINUOUS
10
0.338885
20
0.914782
11
0.342804
21
0.917244
0
LINE
8
BLACK
6
CONTINUOUS
10
0.342804
20
0.917244
11
0.347172
21
0.918773
0
LINE
8
BLACK
6
CONTINUOUS
10
0.347172
20
0.918773
11
0.351772
21
0.919291
0
LINE
8
BLACK
6
CONTINUOUS
10
0.351772
20
0.919291
11
0.399016
21
0.919291
0
LINE
8
BLACK
6
CONTINUOUS
10
0.351772
20
0.917323
11
0.34931
21
0.917323
0
LINE
8
BLACK
6
CONTINUOUS
10
0.34931
20
0.917323
11
0.344553
21
0.916048
0
LINE
8
BLACK
6
CONTINUOUS
10
0.344553
20
0.916048
11
0.340289
21
0.913586
0
LINE
8
BLACK
6
CONTINUOUS
10
0.340289
20
0.913586
11
0.336807
21
0.910105
0
LINE
8
BLACK
6
CONTINUOUS
10
0.336807
20
0.910105
11
0.334345
21
0.90584
0
LINE
8
BLACK
6
CONTINUOUS
10
0.334345
20
0.90584
11
0.333071
21
0.901084
0
LINE
8
BLACK
6
CONTINUOUS
10
0.333071
20
0.901084
11
0.333071
21
0.898622
0
LINE
8
BLACK
6
CONTINUOUS
10
0.333071
20
0.898622
11
0.333071
21
0.843504
0
LINE
8
BLACK
6
CONTINUOUS
10
0.333071
20
0.843504
11
0.333071
21
0.841042
0
LINE
8
BLACK
6
CONTINUOUS
10
0.333071
20
0.841042
11
0.334345
21
0.836286
0
LINE
8
BLACK
6
CONTINUOUS
10
0.334345
20
0.836286
11
0.336807
21
0.832021
0
LINE
8
BLACK
6
CONTINUOUS
10
0.336807
20
0.832021
11
0.340289
21
0.82854
0
LINE
8
BLACK
6
CONTINUOUS
10
0.340289
20
0.82854
11
0.344553
21
0.826078
0
LINE
8
BLACK
6
CONTINUOUS
10
0.344553
20
0.826078
11
0.34931
21
0.824803
0
LINE
8
BLACK
6
CONTINUOUS
10
0.34931
20
0.824803
11
0.351772
21
0.824803
0
LINE
8
BLACK
6
CONTINUOUS
10
0.351772
20
0.824803
11
0.399016
21
0.824803
0
LINE
8
BLACK
6
CONTINUOUS
10
0.399016
20
0.824803
11
0.401478
21
0.824803
0
LINE
8
BLACK
6
CONTINUOUS
10
0.401478
20
0.824803
11
0.406234
21
0.826078
0
LINE
8
BLACK
6
CONTINUOUS
10
0.406234
20
0.826078
11
0.410498
21
0.82854
0
LINE
8
BLACK
6
CONTINUOUS
10
0.410498
20
0.82854
11
0.41398
21
0.832021
0
LINE
8
BLACK
6
CONTINUOUS
10
0.41398
20
0.832021
11
0.416442
21
0.836286
0
LINE
8
BLACK
6
CONTINUOUS
10
0.416442
20
0.836286
11
0.417717
21
0.841042
0
LINE
8
BLACK
6
CONTINUOUS
10
0.417717
20
0.841042
11
0.417717
21
0.843504
0
LINE
8
BLACK
6
CONTINUOUS
10
0.417717
20
0.843504
11
0.417717
21
0.898622
0
LINE
8
BLACK
6
CONTINUOUS
10
0.417717
20
0.898622
11
0.417717
21
0.901084
0
LINE
8
BLACK
6
CONTINUOUS
10
0.417717
20
0.901084
11
0.416442
21
0.90584
0
LINE
8
BLACK
6
CONTINUOUS
10
0.416442
20
0.90584
11
0.41398
21
0.910105
0
LINE
8
BLACK
6
CONTINUOUS
10
0.41398
20
0.910105
11
0.410498
21
0.913586
0
LINE
8
BLACK
6
CONTINUOUS
10
0.410498
20
0.913586
11
0.406234
21
0.916048
0
LINE
8
BLACK
6
CONTINUOUS
10
0.406234
20
0.916048
11
0.401478
21
0.917323
0
LINE
8
BLACK
6
CONTINUOUS
10
0.401478
20
0.917323
11
0.399016
21
0.917323
0
LINE
8
BLACK
6
CONTINUOUS
10
0.399016
20
0.917323
11
0.351772
21
0.917323
0
LINE
8
BLACK
6
CONTINUOUS
10
0.399409
20
1.03858
11
0.404009
21
1.03806
0
LINE
8
BLACK
6
CONTINUOUS
10
0.404009
20
1.03806
11
0.408378
21
1.03654
0
LINE
8
BLACK
6
CONTINUOUS
10
0.408378
20
1.03654
11
0.412297
21
1.03407
0
LINE
8
BLACK
6
CONTINUOUS
10
0.412297
20
1.03407
11
0.415569
21
1.0308
0
LINE
8
BLACK
6
CONTINUOUS
10
0.415569
20
1.0308
11
0.418032
21
1.02688
0
LINE
8
BLACK
6
CONTINUOUS
10
0.418032
20
1.02688
11
0.419561
21
1.02251
0
LINE
8
BLACK
6
CONTINUOUS
10
0.419561
20
1.02251
11
0.420079
21
1.01791
0
LINE
8
BLACK
6
CONTINUOUS
10
0.420079
20
1.01791
11
0.420079
21
1.01791
0
LINE
8
BLACK
6
CONTINUOUS
10
0.420079
20
1.01791
11
0.420079
21
0.962795
0
LINE
8
BLACK
6
CONTINUOUS
10
0.420079
20
0.962795
11
0.419561
21
0.958196
0
LINE
8
BLACK
6
CONTINUOUS
10
0.419561
20
0.958196
11
0.418032
21
0.953827
0
LINE
8
BLACK
6
CONTINUOUS
10
0.418032
20
0.953827
11
0.415569
21
0.949908
0
LINE
8
BLACK
6
CONTINUOUS
10
0.415569
20
0.949908
11
0.412297
21
0.946635
0
LINE
8
BLACK
6
CONTINUOUS
10
0.412297
20
0.946635
11
0.408378
21
0.944173
0
LINE
8
BLACK
6
CONTINUOUS
10
0.408378
20
0.944173
11
0.404009
21
0.942644
0
LINE
8
BLACK
6
CONTINUOUS
10
0.404009
20
0.942644
11
0.399409
21
0.942126
0
LINE
8
BLACK
6
CONTINUOUS
10
0.399409
20
0.942126
11
0.352165
21
0.942126
0
LINE
8
BLACK
6
CONTINUOUS
10
0.352165
20
0.942126
11
0.347566
21
0.942644
0
LINE
8
BLACK
6
CONTINUOUS
10
0.347566
20
0.942644
11
0.343197
21
0.944173
0
LINE
8
BLACK
6
CONTINUOUS
10
0.343197
20
0.944173
11
0.339278
21
0.946635
0
LINE
8
BLACK
6
CONTINUOUS
10
0.339278
20
0.946635
11
0.336005
21
0.949908
0
LINE
8
BLACK
6
CONTINUOUS
10
0.336005
20
0.949908
11
0.333543
21
0.953827
0
LINE
8
BLACK
6
CONTINUOUS
10
0.333543
20
0.953827
11
0.332014
21
0.958196
0
LINE
8
BLACK
6
CONTINUOUS
10
0.332014
20
0.958196
11
0.331496
21
0.962795
0
LINE
8
BLACK
6
CONTINUOUS
10
0.331496
20
0.962795
11
0.331496
21
1.01791
0
LINE
8
BLACK
6
CONTINUOUS
10
0.331496
20
1.01791
11
0.332014
21
1.02251
0
LINE
8
BLACK
6
CONTINUOUS
10
0.332014
20
1.02251
11
0.333543
21
1.02688
0
LINE
8
BLACK
6
CONTINUOUS
10
0.333543
20
1.02688
11
0.336005
21
1.0308
0
LINE
8
BLACK
6
CONTINUOUS
10
0.336005
20
1.0308
11
0.339278
21
1.03407
0
LINE
8
BLACK
6
CONTINUOUS
10
0.339278
20
1.03407
11
0.343197
21
1.03654
0
LINE
8
BLACK
6
CONTINUOUS
10
0.343197
20
1.03654
11
0.347566
21
1.03806
0
LINE
8
BLACK
6
CONTINUOUS
10
0.347566
20
1.03806
11
0.352165
21
1.03858
0
LINE
8
BLACK
6
CONTINUOUS
10
0.352165
20
1.03858
11
0.399409
21
1.03858
0
LINE
8
BLACK
6
CONTINUOUS
10
0.352165
20
1.03661
11
0.349703
21
1.03661
0
LINE
8
BLACK
6
CONTINUOUS
10
0.349703
20
1.03661
11
0.344947
21
1.03534
0
LINE
8
BLACK
6
CONTINUOUS
10
0.344947
20
1.03534
11
0.340683
21
1.03288
0
LINE
8
BLACK
6
CONTINUOUS
10
0.340683
20
1.03288
11
0.337201
21
1.0294
0
LINE
8
BLACK
6
CONTINUOUS
10
0.337201
20
1.0294
11
0.334739
21
1.02513
0
LINE
8
BLACK
6
CONTINUOUS
10
0.334739
20
1.02513
11
0.333465
21
1.02038
0
LINE
8
BLACK
6
CONTINUOUS
10
0.333465
20
1.02038
11
0.333465
21
1.01791
0
LINE
8
BLACK
6
CONTINUOUS
10
0.333465
20
1.01791
11
0.333465
21
0.962795
0
LINE
8
BLACK
6
CONTINUOUS
10
0.333465
20
0.962795
11
0.333465
21
0.960333
0
LINE
8
BLACK
6
CONTINUOUS
10
0.333465
20
0.960333
11
0.334739
21
0.955577
0
LINE
8
BLACK
6
CONTINUOUS
10
0.334739
20
0.955577
11
0.337201
21
0.951313
0
LINE
8
BLACK
6
CONTINUOUS
10
0.337201
20
0.951313
11
0.340683
21
0.947831
0
LINE
8
BLACK
6
CONTINUOUS
10
0.340683
20
0.947831
11
0.344947
21
0.945369
0
LINE
8
BLACK
6
CONTINUOUS
10
0.344947
20
0.945369
11
0.349703
21
0.944094
0
LINE
8
BLACK
6
CONTINUOUS
10
0.349703
20
0.944094
11
0.352165
21
0.944094
0
LINE
8
BLACK
6
CONTINUOUS
10
0.352165
20
0.944094
11
0.399409
21
0.944094
0
LINE
8
BLACK
6
CONTINUOUS
10
0.399409
20
0.944094
11
0.401871
21
0.944094
0
LINE
8
BLACK
6
CONTINUOUS
10
0.401871
20
0.944094
11
0.406628
21
0.945369
0
LINE
8
BLACK
6
CONTINUOUS
10
0.406628
20
0.945369
11
0.410892
21
0.947831
0
LINE
8
BLACK
6
CONTINUOUS
10
0.410892
20
0.947831
11
0.414374
21
0.951313
0
LINE
8
BLACK
6
CONTINUOUS
10
0.414374
20
0.951313
11
0.416836
21
0.955577
0
LINE
8
BLACK
6
CONTINUOUS
10
0.416836
20
0.955577
11
0.41811
21
0.960333
0
LINE
8
BLACK
6
CONTINUOUS
10
0.41811
20
0.960333
11
0.41811
21
0.962795
0
LINE
8
BLACK
6
CONTINUOUS
10
0.41811
20
0.962795
11
0.41811
21
1.01791
0
LINE
8
BLACK
6
CONTINUOUS
10
0.41811
20
1.01791
11
0.41811
21
1.02038
0
LINE
8
BLACK
6
CONTINUOUS
10
0.41811
20
1.02038
11
0.416836
21
1.02513
0
LINE
8
BLACK
6
CONTINUOUS
10
0.416836
20
1.02513
11
0.414374
21
1.0294
0
LINE
8
BLACK
6
CONTINUOUS
10
0.414374
20
1.0294
11
0.410892
21
1.03288
0
LINE
8
BLACK
6
CONTINUOUS
10
0.410892
20
1.03288
11
0.406628
21
1.03534
0
LINE
8
BLACK
6
CONTINUOUS
10
0.406628
20
1.03534
11
0.401871
21
1.03661
0
LINE
8
BLACK
6
CONTINUOUS
10
0.401871
20
1.03661
11
0.399409
21
1.03661
0
LINE
8
BLACK
6
CONTINUOUS
10
0.399409
20
1.03661
11
0.352165
21
1.03661
0
LINE
8
BLACK
6
CONTINUOUS
10
0.399409
20
1.15787
11
0.404009
21
1.15736
0
LINE
8
BLACK
6
CONTINUOUS
10
0.404009
20
1.15736
11
0.408378
21
1.15583
0
LINE
8
BLACK
6
CONTINUOUS
10
0.408378
20
1.15583
11
0.412297
21
1.15336
0
LINE
8
BLACK
6
CONTINUOUS
10
0.412297
20
1.15336
11
0.415569
21
1.15009
0
LINE
8
BLACK
6
CONTINUOUS
10
0.415569
20
1.15009
11
0.418032
21
1.14617
0
LINE
8
BLACK
6
CONTINUOUS
10
0.418032
20
1.14617
11
0.419561
21
1.1418
0
LINE
8
BLACK
6
CONTINUOUS
10
0.419561
20
1.1418
11
0.420079
21
1.1372
0
LINE
8
BLACK
6
CONTINUOUS
10
0.420079
20
1.1372
11
0.420079
21
1.08209
0
LINE
8
BLACK
6
CONTINUOUS
10
0.420079
20
1.08209
11
0.419561
21
1.07749
0
LINE
8
BLACK
6
CONTINUOUS
10
0.419561
20
1.07749
11
0.418032
21
1.07312
0
LINE
8
BLACK
6
CONTINUOUS
10
0.418032
20
1.07312
11
0.415569
21
1.0692
0
LINE
8
BLACK
6
CONTINUOUS
10
0.415569
20
1.0692
11
0.412297
21
1.06593
0
LINE
8
BLACK
6
CONTINUOUS
10
0.412297
20
1.06593
11
0.408378
21
1.06346
0
LINE
8
BLACK
6
CONTINUOUS
10
0.408378
20
1.06346
11
0.404009
21
1.06194
0
LINE
8
BLACK
6
CONTINUOUS
10
0.404009
20
1.06194
11
0.399409
21
1.06142
0
LINE
8
BLACK
6
CONTINUOUS
10
0.399409
20
1.06142
11
0.352165
21
1.06142
0
LINE
8
BLACK
6
CONTINUOUS
10
0.352165
20
1.06142
11
0.347566
21
1.06194
0
LINE
8
BLACK
6
CONTINUOUS
10
0.347566
20
1.06194
11
0.343197
21
1.06346
0
LINE
8
BLACK
6
CONTINUOUS
10
0.343197
20
1.06346
11
0.339278
21
1.06593
0
LINE
8
BLACK
6
CONTINUOUS
10
0.339278
20
1.06593
11
0.336005
21
1.0692
0
LINE
8
BLACK
6
CONTINUOUS
10
0.336005
20
1.0692
11
0.333543
21
1.07312
0
LINE
8
BLACK
6
CONTINUOUS
10
0.333543
20
1.07312
11
0.332014
21
1.07749
0
LINE
8
BLACK
6
CONTINUOUS
10
0.332014
20
1.07749
11
0.331496
21
1.08209
0
LINE
8
BLACK
6
CONTINUOUS
10
0.331496
20
1.08209
11
0.331496
21
1.1372
0
LINE
8
BLACK
6
CONTINUOUS
10
0.331496
20
1.1372
11
0.331496
21
1.1372
0
LINE
8
BLACK
6
CONTINUOUS
10
0.331496
20
1.1372
11
0.332014
21
1.1418
0
LINE
8
BLACK
6
CONTINUOUS
10
0.332014
20
1.1418
11
0.333543
21
1.14617
0
LINE
8
BLACK
6
CONTINUOUS
10
0.333543
20
1.14617
11
0.336005
21
1.15009
0
LINE
8
BLACK
6
CONTINUOUS
10
0.336005
20
1.15009
11
0.339278
21
1.15336
0
LINE
8
BLACK
6
CONTINUOUS
10
0.339278
20
1.15336
11
0.343197
21
1.15583
0
LINE
8
BLACK
6
CONTINUOUS
10
0.343197
20
1.15583
11
0.347566
21
1.15736
0
LINE
8
BLACK
6
CONTINUOUS
10
0.347566
20
1.15736
11
0.352165
21
1.15787
0
LINE
8
BLACK
6
CONTINUOUS
10
0.352165
20
1.15787
11
0.399409
21
1.15787
0
LINE
8
BLACK
6
CONTINUOUS
10
0.352165
20
1.15591
11
0.349703
21
1.15591
0
LINE
8
BLACK
6
CONTINUOUS
10
0.349703
20
1.15591
11
0.344947
21
1.15463
0
LINE
8
BLACK
6
CONTINUOUS
10
0.344947
20
1.15463
11
0.340683
21
1.15217
0
LINE
8
BLACK
6
CONTINUOUS
10
0.340683
20
1.15217
11
0.337201
21
1.14869
0
LINE
8
BLACK
6
CONTINUOUS
10
0.337201
20
1.14869
11
0.334739
21
1.14442
0
LINE
8
BLACK
6
CONTINUOUS
10
0.334739
20
1.14442
11
0.333465
21
1.13967
0
LINE
8
BLACK
6
CONTINUOUS
10
0.333465
20
1.13967
11
0.333465
21
1.1372
0
LINE
8
BLACK
6
CONTINUOUS
10
0.333465
20
1.1372
11
0.333465
21
1.08209
0
LINE
8
BLACK
6
CONTINUOUS
10
0.333465
20
1.08209
11
0.333465
21
1.07962
0
LINE
8
BLACK
6
CONTINUOUS
10
0.333465
20
1.07962
11
0.334739
21
1.07487
0
LINE
8
BLACK
6
CONTINUOUS
10
0.334739
20
1.07487
11
0.337201
21
1.0706
0
LINE
8
BLACK
6
CONTINUOUS
10
0.337201
20
1.0706
11
0.340683
21
1.06712
0
LINE
8
BLACK
6
CONTINUOUS
10
0.340683
20
1.06712
11
0.344947
21
1.06466
0
LINE
8
BLACK
6
CONTINUOUS
10
0.344947
20
1.06466
11
0.349703
21
1.06339
0
LINE
8
BLACK
6
CONTINUOUS
10
0.349703
20
1.06339
11
0.352165
21
1.06339
0
LINE
8
BLACK
6
CONTINUOUS
10
0.352165
20
1.06339
11
0.399409
21
1.06339
0
LINE
8
BLACK
6
CONTINUOUS
10
0.399409
20
1.06339
11
0.401871
21
1.06339
0
LINE
8
BLACK
6
CONTINUOUS
10
0.401871
20
1.06339
11
0.406628
21
1.06466
0
LINE
8
BLACK
6
CONTINUOUS
10
0.406628
20
1.06466
11
0.410892
21
1.06712
0
LINE
8
BLACK
6
CONTINUOUS
10
0.410892
20
1.06712
11
0.414374
21
1.0706
0
LINE
8
BLACK
6
CONTINUOUS
10
0.414374
20
1.0706
11
0.416836
21
1.07487
0
LINE
8
BLACK
6
CONTINUOUS
10
0.416836
20
1.07487
11
0.41811
21
1.07962
0
LINE
8
BLACK
6
CONTINUOUS
10
0.41811
20
1.07962
11
0.41811
21
1.08209
0
LINE
8
BLACK
6
CONTINUOUS
10
0.41811
20
1.08209
11
0.41811
21
1.1372
0
LINE
8
BLACK
6
CONTINUOUS
10
0.41811
20
1.1372
11
0.41811
21
1.1372
0
LINE
8
BLACK
6
CONTINUOUS
10
0.41811
20
1.1372
11
0.41811
21
1.13967
0
LINE
8
BLACK
6
CONTINUOUS
10
0.41811
20
1.13967
11
0.416836
21
1.14442
0
LINE
8
BLACK
6
CONTINUOUS
10
0.416836
20
1.14442
11
0.414374
21
1.14869
0
LINE
8
BLACK
6
CONTINUOUS
10
0.414374
20
1.14869
11
0.410892
21
1.15217
0
LINE
8
BLACK
6
CONTINUOUS
10
0.410892
20
1.15217
11
0.406628
21
1.15463
0
LINE
8
BLACK
6
CONTINUOUS
10
0.406628
20
1.15463
11
0.401871
21
1.15591
0
LINE
8
BLACK
6
CONTINUOUS
10
0.401871
20
1.15591
11
0.399409
21
1.15591
0
LINE
8
BLACK
6
CONTINUOUS
10
0.399409
20
1.15591
11
0.352165
21
1.15591
0
LINE
8
BLACK
6
CONTINUOUS
10
0.398031
20
1.32835
11
0.402631
21
1.32783
0
LINE
8
BLACK
6
CONTINUOUS
10
0.402631
20
1.32783
11
0.407
21
1.3263
0
LINE
8
BLACK
6
CONTINUOUS
10
0.407
20
1.3263
11
0.410919
21
1.32384
0
LINE
8
BLACK
6
CONTINUOUS
10
0.410919
20
1.32384
11
0.414191
21
1.32056
0
LINE
8
BLACK
6
CONTINUOUS
10
0.414191
20
1.32056
11
0.416654
21
1.31665
0
LINE
8
BLACK
6
CONTINUOUS
10
0.416654
20
1.31665
11
0.418183
21
1.31228
0
LINE
8
BLACK
6
CONTINUOUS
10
0.418183
20
1.31228
11
0.418701
21
1.30768
0
LINE
8
BLACK
6
CONTINUOUS
10
0.418701
20
1.30768
11
0.418701
21
1.25256
0
LINE
8
BLACK
6
CONTINUOUS
10
0.418701
20
1.25256
11
0.418183
21
1.24796
0
LINE
8
BLACK
6
CONTINUOUS
10
0.418183
20
1.24796
11
0.416654
21
1.24359
0
LINE
8
BLACK
6
CONTINUOUS
10
0.416654
20
1.24359
11
0.414191
21
1.23967
0
LINE
8
BLACK
6
CONTINUOUS
10
0.414191
20
1.23967
11
0.410919
21
1.2364
0
LINE
8
BLACK
6
CONTINUOUS
10
0.410919
20
1.2364
11
0.407
21
1.23394
0
LINE
8
BLACK
6
CONTINUOUS
10
0.407
20
1.23394
11
0.402631
21
1.23241
0
LINE
8
BLACK
6
CONTINUOUS
10
0.402631
20
1.23241
11
0.398031
21
1.23189
0
LINE
8
BLACK
6
CONTINUOUS
10
0.398031
20
1.23189
11
0.350787
21
1.23189
0
LINE
8
BLACK
6
CONTINUOUS
10
0.350787
20
1.23189
11
0.346188
21
1.23241
0
LINE
8
BLACK
6
CONTINUOUS
10
0.346188
20
1.23241
11
0.341819
21
1.23394
0
LINE
8
BLACK
6
CONTINUOUS
10
0.341819
20
1.23394
11
0.3379
21
1.2364
0
LINE
8
BLACK
6
CONTINUOUS
10
0.3379
20
1.2364
11
0.334627
21
1.23967
0
LINE
8
BLACK
6
CONTINUOUS
10
0.334627
20
1.23967
11
0.332165
21
1.24359
0
LINE
8
BLACK
6
CONTINUOUS
10
0.332165
20
1.24359
11
0.330636
21
1.24796
0
LINE
8
BLACK
6
CONTINUOUS
10
0.330636
20
1.24796
11
0.330118
21
1.25256
0
LINE
8
BLACK
6
CONTINUOUS
10
0.330118
20
1.25256
11
0.330118
21
1.30768
0
LINE
8
BLACK
6
CONTINUOUS
10
0.330118
20
1.30768
11
0.330636
21
1.31228
0
LINE
8
BLACK
6
CONTINUOUS
10
0.330636
20
1.31228
11
0.332165
21
1.31665
0
LINE
8
BLACK
6
CONTINUOUS
10
0.332165
20
1.31665
11
0.334627
21
1.32056
0
LINE
8
BLACK
6
CONTINUOUS
10
0.334627
20
1.32056
11
0.3379
21
1.32384
0
LINE
8
BLACK
6
CONTINUOUS
10
0.3379
20
1.32384
11
0.341819
21
1.3263
0
LINE
8
BLACK
6
CONTINUOUS
10
0.341819
20
1.3263
11
0.346188
21
1.32783
0
LINE
8
BLACK
6
CONTINUOUS
10
0.346188
20
1.32783
11
0.350787
21
1.32835
0
LINE
8
BLACK
6
CONTINUOUS
10
0.350787
20
1.32835
11
0.398031
21
1.32835
0
LINE
8
BLACK
6
CONTINUOUS
10
0.350787
20
1.32638
11
0.348325
21
1.32638
0
LINE
8
BLACK
6
CONTINUOUS
10
0.348325
20
1.32638
11
0.343569
21
1.3251
0
LINE
8
BLACK
6
CONTINUOUS
10
0.343569
20
1.3251
11
0.339305
21
1.32264
0
LINE
8
BLACK
6
CONTINUOUS
10
0.339305
20
1.32264
11
0.335823
21
1.31916
0
LINE
8
BLACK
6
CONTINUOUS
10
0.335823
20
1.31916
11
0.333361
21
1.3149
0
LINE
8
BLACK
6
CONTINUOUS
10
0.333361
20
1.3149
11
0.332087
21
1.31014
0
LINE
8
BLACK
6
CONTINUOUS
10
0.332087
20
1.31014
11
0.332087
21
1.30768
0
LINE
8
BLACK
6
CONTINUOUS
10
0.332087
20
1.30768
11
0.332087
21
1.25256
0
LINE
8
BLACK
6
CONTINUOUS
10
0.332087
20
1.25256
11
0.332087
21
1.2501
0
LINE
8
BLACK
6
CONTINUOUS
10
0.332087
20
1.2501
11
0.333361
21
1.24534
0
LINE
8
BLACK
6
CONTINUOUS
10
0.333361
20
1.24534
11
0.335823
21
1.24108
0
LINE
8
BLACK
6
CONTINUOUS
10
0.335823
20
1.24108
11
0.339305
21
1.23759
0
LINE
8
BLACK
6
CONTINUOUS
10
0.339305
20
1.23759
11
0.343569
21
1.23513
0
LINE
8
BLACK
6
CONTINUOUS
10
0.343569
20
1.23513
11
0.348325
21
1.23386
0
LINE
8
BLACK
6
CONTINUOUS
10
0.348325
20
1.23386
11
0.350787
21
1.23386
0
LINE
8
BLACK
6
CONTINUOUS
10
0.350787
20
1.23386
11
0.398031
21
1.23386
0
LINE
8
BLACK
6
CONTINUOUS
10
0.398031
20
1.23386
11
0.400494
21
1.23386
0
LINE
8
BLACK
6
CONTINUOUS
10
0.400494
20
1.23386
11
0.40525
21
1.23513
0
LINE
8
BLACK
6
CONTINUOUS
10
0.40525
20
1.23513
11
0.409514
21
1.23759
0
LINE
8
BLACK
6
CONTINUOUS
10
0.409514
20
1.23759
11
0.412996
21
1.24108
0
LINE
8
BLACK
6
CONTINUOUS
10
0.412996
20
1.24108
11
0.415458
21
1.24534
0
LINE
8
BLACK
6
CONTINUOUS
10
0.415458
20
1.24534
11
0.416732
21
1.2501
0
LINE
8
BLACK
6
CONTINUOUS
10
0.416732
20
1.2501
11
0.416732
21
1.25256
0
LINE
8
BLACK
6
CONTINUOUS
10
0.416732
20
1.25256
11
0.416732
21
1.30768
0
LINE
8
BLACK
6
CONTINUOUS
10
0.416732
20
1.30768
11
0.416732
21
1.31014
0
LINE
8
BLACK
6
CONTINUOUS
10
0.416732
20
1.31014
11
0.415458
21
1.3149
0
LINE
8
BLACK
6
CONTINUOUS
10
0.415458
20
1.3149
11
0.412996
21
1.31916
0
LINE
8
BLACK
6
CONTINUOUS
10
0.412996
20
1.31916
11
0.409514
21
1.32264
0
LINE
8
BLACK
6
CONTINUOUS
10
0.409514
20
1.32264
11
0.40525
21
1.3251
0
LINE
8
BLACK
6
CONTINUOUS
10
0.40525
20
1.3251
11
0.400494
21
1.32638
0
LINE
8
BLACK
6
CONTINUOUS
10
0.400494
20
1.32638
11
0.398031
21
1.32638
0
LINE
8
BLACK
6
CONTINUOUS
10
0.398031
20
1.32638
11
0.350787
21
1.32638
0
LINE
8
BLACK
6
CONTINUOUS
10
1.79038
20
2.19289
11
1.79051
21
2.19291
0
LINE
8
BLACK
6
CONTINUOUS
10
1.79051
20
2.19291
11
1.79063
21
2.19284
0
LINE
8
BLACK
6
CONTINUOUS
10
1.79063
20
2.19284
11
1.79101
21
2.19277
0
LINE
8
BLACK
6
CONTINUOUS
10
1.79101
20
2.19277
11
1.7916
21
2.19228
0
LINE
8
BLACK
6
CONTINUOUS
10
1.7916
20
2.19228
11
1.79226
21
2.1919
0
LINE
8
BLACK
6
CONTINUOUS
10
1.79226
20
2.1919
11
1.79235
21
2.19165
0
LINE
8
BLACK
6
CONTINUOUS
10
1.79235
20
2.19165
11
1.79256
21
2.19148
0
LINE
8
BLACK
6
CONTINUOUS
10
1.79256
20
2.19148
11
1.79269
21
2.19072
0
LINE
8
BLACK
6
CONTINUOUS
10
1.79269
20
2.19072
11
1.79295
21
2.19
0
LINE
8
BLACK
6
CONTINUOUS
10
1.79295
20
2.19
11
1.79295
21
0.21
0
LINE
8
BLACK
6
CONTINUOUS
10
1.79295
20
0.21
11
1.79289
21
0.209617
0
LINE
8
BLACK
6
CONTINUOUS
10
1.79289
20
0.209617
11
1.79291
21
0.209487
0
LINE
8
BLACK
6
CONTINUOUS
10
1.79291
20
0.209487
11
1.79284
21
0.209374
0
LINE
8
BLACK
6
CONTINUOUS
10
1.79284
20
0.209374
11
1.79277
21
0.20899
0
LINE
8
BLACK
6
CONTINUOUS
10
1.79277
20
0.20899
11
1.79228
21
0.208402
0
LINE
8
BLACK
6
CONTINUOUS
10
1.79228
20
0.208402
11
1.7919
21
0.207738
0
LINE
8
BLACK
6
CONTINUOUS
10
1.7919
20
0.207738
11
1.79165
21
0.207647
0
LINE
8
BLACK
6
CONTINUOUS
10
1.79165
20
0.207647
11
1.79148
21
0.207443
0
LINE
8
BLACK
6
CONTINUOUS
10
1.79148
20
0.207443
11
1.79072
21
0.20731
0
LINE
8
BLACK
6
CONTINUOUS
10
1.79072
20
0.20731
11
1.79
21
0.207047
0
LINE
8
BLACK
6
CONTINUOUS
10
1.79
20
0.207047
11
0.21
21
0.207047
0
LINE
8
BLACK
6
CONTINUOUS
10
0.21
20
0.207047
11
0.209616
21
0.207115
0
LINE
8
BLACK
6
CONTINUOUS
10
0.209616
20
0.207115
11
0.209487
21
0.207092
0
LINE
8
BLACK
6
CONTINUOUS
10
0.209487
20
0.207092
11
0.209374
21
0.207158
0
LINE
8
BLACK
6
CONTINUOUS
10
0.209374
20
0.207158
11
0.20899
21
0.207225
0
LINE
8
BLACK
6
CONTINUOUS
10
0.20899
20
0.207225
11
0.208402
21
0.207719
0
LINE
8
BLACK
6
CONTINUOUS
10
0.208402
20
0.207719
11
0.207738
21
0.208102
0
LINE
8
BLACK
6
CONTINUOUS
10
0.207738
20
0.208102
11
0.207647
21
0.208352
0
LINE
8
BLACK
6
CONTINUOUS
10
0.207647
20
0.208352
11
0.207443
21
0.208524
0
LINE
8
BLACK
6
CONTINUOUS
10
0.207443
20
0.208524
11
0.20731
21
0.209279
0
LINE
8
BLACK
6
CONTINUOUS
10
0.20731
20
0.209279
11
0.207047
21
0.21
0
LINE
8
BLACK
6
CONTINUOUS
10
0.207047
20
0.21
11
0.207047
21
2.19
0
LINE
8
BLACK
6
CONTINUOUS
10
0.207047
20
2.19
11
0.207115
21
2.19038
0
LINE
8
BLACK
6
CONTINUOUS
10
0.207115
20
2.19038
11
0.207092
21
2.19051
0
LINE
8
BLACK
6
CONTINUOUS
10
0.207092
20
2.19051
11
0.207158
21
2.19063
0
LINE
8
BLACK
6
CONTINUOUS
10
0.207158
20
2.19063
11
0.207225
21
2.19101
0
LINE
8
BLACK
6
CONTINUOUS
10
0.207225
20
2.19101
11
0.207718
21
2.1916
0
LINE
8
BLACK
6
CONTINUOUS
10
0.207718
20
2.1916
11
0.208102
21
2.19226
0
LINE
8
BLACK
6
CONTINUOUS
10
0.208102
20
2.19226
11
0.208352
21
2.19235
0
LINE
8
BLACK
6
CONTINUOUS
10
0.208352
20
2.19235
11
0.208524
21
2.19256
0
LINE
8
BLACK
6
CONTINUOUS
10
0.208524
20
2.19256
11
0.209279
21
2.19269
0
LINE
8
BLACK
6
CONTINUOUS
10
0.209279
20
2.19269
11
0.21
21
2.19295
0
LINE
8
BLACK
6
CONTINUOUS
10
0.21
20
2.19295
11
1.79
21
2.19295
0
LINE
8
BLACK
6
CONTINUOUS
10
1.79
20
2.19295
11
1.79038
21
2.19289
0
LINE
8
BLACK
6
CONTINUOUS
10
0.212953
20
2.18705
11
0.212953
21
0.212953
0
LINE
8
BLACK
6
CONTINUOUS
10
0.212953
20
0.212953
11
1.78705
21
0.212953
0
LINE
8
BLACK
6
CONTINUOUS
10
1.78705
20
0.212953
11
1.78705
21
2.18705
0
LINE
8
BLACK
6
CONTINUOUS
10
1.78705
20
2.18705
11
0.212953
21
2.18705
  0
ENDSEC
  0
EOF
