  0
SECTION
  2
HEADER
  9
$ANGBASE
  50
0.0
  9
$ANGDIR
  70
1
  9
$MEASUREMENT
  70
0
  0
ENDSEC
  0
SECTION
  2
TABLES
  0
TABLE
  2
LTYPE
  70
4
  0
LTYPE
  5
40F
  2
CONTINUOUS
  70
0
  3
Solid line
  72
65
  73
0
  40
0.0
  0
LTYPE
  5
410
  2
DASHDOT
 70
0
  3
Dash Dot ____ _ ____ _
 72
65
 73
4
 40
2.0
 49
1.25
 49
-0.25
 49
0.25
 49
-0.25
  0
LTYPE
  5
411
  2
DASHED
 70
0
  3
Dashed __ __ __ __ __
 72
65
 73
2
 40
0.75
 49
0.5
 49
-0.25
  0
LTYPE
  5
43B
  2
DOTTED
 70
0
  3
Dotted .  .  .  .
 72
65
 73
2
 40
0.2
 49
0.0
 49
-0.2
  0
ENDTAB
  0
TABLE
  2
STYLE
  70
4
  0
STYLE
  2
KICAD
  70
0
  40
0
  41
1
  42
1
  50
0
  71
0
  3
isocp.shx
  0
STYLE
  2
KICADB
  70
0
  40
0
  41
1
  42
1
  50
0
  71
0
  3
isocp.shx
  0
STYLE
  2
KICADI
  70
0
  40
0
  41
1
  42
1
  50
15
  71
0
  3
isocp.shx
  0
STYLE
  2
KICADBI
  70
0
  40
0
  41
1
  42
1
  50
15
  71
0
  3
isocp.shx
  0
ENDTAB
  0
TABLE
  2
LAYER
  70
1
  0
LAYER
  2
BLACK
  70
0
  62
7
  6
CONTINUOUS
  0
ENDTAB
  0
ENDSEC
  0
SECTION
  2
ENTITIES
0
LINE
8
BLACK
6
CONTINUOUS
10
0.903551
20
0.357867
11
0.908265
21
0.354838
0
LINE
8
BLACK
6
CONTINUOUS
10
0.908265
20
0.354838
11
0.911934
21
0.350603
0
LINE
8
BLACK
6
CONTINUOUS
10
0.911934
20
0.350603
11
0.914262
21
0.345507
0
LINE
8
BLACK
6
CONTINUOUS
10
0.914262
20
0.345507
11
0.915059
21
0.339961
0
LINE
8
BLACK
6
CONTINUOUS
10
0.915059
20
0.339961
11
0.915059
21
0.300591
0
LINE
8
BLACK
6
CONTINUOUS
10
0.915059
20
0.300591
11
0.914262
21
0.295045
0
LINE
8
BLACK
6
CONTINUOUS
10
0.914262
20
0.295045
11
0.911934
21
0.289948
0
LINE
8
BLACK
6
CONTINUOUS
10
0.911934
20
0.289948
11
0.908265
21
0.285714
0
LINE
8
BLACK
6
CONTINUOUS
10
0.908265
20
0.285714
11
0.903551
21
0.282684
0
LINE
8
BLACK
6
CONTINUOUS
10
0.903551
20
0.282684
11
0.898175
21
0.281106
0
LINE
8
BLACK
6
CONTINUOUS
10
0.898175
20
0.281106
11
0.892573
21
0.281106
0
LINE
8
BLACK
6
CONTINUOUS
10
0.892573
20
0.281106
11
0.887197
21
0.282684
0
LINE
8
BLACK
6
CONTINUOUS
10
0.887197
20
0.282684
11
0.882483
21
0.285714
0
LINE
8
BLACK
6
CONTINUOUS
10
0.882483
20
0.285714
11
0.878814
21
0.289948
0
LINE
8
BLACK
6
CONTINUOUS
10
0.878814
20
0.289948
11
0.876486
21
0.295045
0
LINE
8
BLACK
6
CONTINUOUS
10
0.876486
20
0.295045
11
0.875689
21
0.300591
0
LINE
8
BLACK
6
CONTINUOUS
10
0.875689
20
0.300591
11
0.875689
21
0.339961
0
LINE
8
BLACK
6
CONTINUOUS
10
0.875689
20
0.339961
11
0.876486
21
0.345507
0
LINE
8
BLACK
6
CONTINUOUS
10
0.876486
20
0.345507
11
0.878814
21
0.350603
0
LINE
8
BLACK
6
CONTINUOUS
10
0.878814
20
0.350603
11
0.882483
21
0.354838
0
LINE
8
BLACK
6
CONTINUOUS
10
0.882483
20
0.354838
11
0.887197
21
0.357867
0
LINE
8
BLACK
6
CONTINUOUS
10
0.887197
20
0.357867
11
0.892573
21
0.359445
0
LINE
8
BLACK
6
CONTINUOUS
10
0.892573
20
0.359445
11
0.898175
21
0.359445
0
LINE
8
BLACK
6
CONTINUOUS
10
0.898175
20
0.359445
11
0.903551
21
0.357867
0
LINE
8
BLACK
6
CONTINUOUS
10
1.24371
20
0.357867
11
1.24842
21
0.354838
0
LINE
8
BLACK
6
CONTINUOUS
10
1.24842
20
0.354838
11
1.25209
21
0.350603
0
LINE
8
BLACK
6
CONTINUOUS
10
1.25209
20
0.350603
11
1.25442
21
0.345507
0
LINE
8
BLACK
6
CONTINUOUS
10
1.25442
20
0.345507
11
1.25522
21
0.339961
0
LINE
8
BLACK
6
CONTINUOUS
10
1.25522
20
0.339961
11
1.25522
21
0.300591
0
LINE
8
BLACK
6
CONTINUOUS
10
1.25522
20
0.300591
11
1.25442
21
0.295045
0
LINE
8
BLACK
6
CONTINUOUS
10
1.25442
20
0.295045
11
1.25209
21
0.289948
0
LINE
8
BLACK
6
CONTINUOUS
10
1.25209
20
0.289948
11
1.24842
21
0.285714
0
LINE
8
BLACK
6
CONTINUOUS
10
1.24842
20
0.285714
11
1.24371
21
0.282684
0
LINE
8
BLACK
6
CONTINUOUS
10
1.24371
20
0.282684
11
1.23833
21
0.281106
0
LINE
8
BLACK
6
CONTINUOUS
10
1.23833
20
0.281106
11
1.23273
21
0.281106
0
LINE
8
BLACK
6
CONTINUOUS
10
1.23273
20
0.281106
11
1.22735
21
0.282684
0
LINE
8
BLACK
6
CONTINUOUS
10
1.22735
20
0.282684
11
1.22264
21
0.285714
0
LINE
8
BLACK
6
CONTINUOUS
10
1.22264
20
0.285714
11
1.21897
21
0.289948
0
LINE
8
BLACK
6
CONTINUOUS
10
1.21897
20
0.289948
11
1.21664
21
0.295045
0
LINE
8
BLACK
6
CONTINUOUS
10
1.21664
20
0.295045
11
1.21585
21
0.300591
0
LINE
8
BLACK
6
CONTINUOUS
10
1.21585
20
0.300591
11
1.21585
21
0.339961
0
LINE
8
BLACK
6
CONTINUOUS
10
1.21585
20
0.339961
11
1.21664
21
0.345507
0
LINE
8
BLACK
6
CONTINUOUS
10
1.21664
20
0.345507
11
1.21897
21
0.350603
0
LINE
8
BLACK
6
CONTINUOUS
10
1.21897
20
0.350603
11
1.22264
21
0.354838
0
LINE
8
BLACK
6
CONTINUOUS
10
1.22264
20
0.354838
11
1.22735
21
0.357867
0
LINE
8
BLACK
6
CONTINUOUS
10
1.22735
20
0.357867
11
1.23273
21
0.359445
0
LINE
8
BLACK
6
CONTINUOUS
10
1.23273
20
0.359445
11
1.23833
21
0.359445
0
LINE
8
BLACK
6
CONTINUOUS
10
1.23833
20
0.359445
11
1.24371
21
0.357867
0
LINE
8
BLACK
6
CONTINUOUS
10
0.42051
20
0.516316
11
0.433874
21
0.513148
0
LINE
8
BLACK
6
CONTINUOUS
10
0.433874
20
0.513148
11
0.446781
21
0.508451
0
LINE
8
BLACK
6
CONTINUOUS
10
0.446781
20
0.508451
11
0.459055
21
0.502286
0
LINE
8
BLACK
6
CONTINUOUS
10
0.459055
20
0.502286
11
0.470531
21
0.494739
0
LINE
8
BLACK
6
CONTINUOUS
10
0.470531
20
0.494739
11
0.481052
21
0.48591
0
LINE
8
BLACK
6
CONTINUOUS
10
0.481052
20
0.48591
11
0.490478
21
0.47592
0
LINE
8
BLACK
6
CONTINUOUS
10
0.490478
20
0.47592
11
0.49868
21
0.464903
0
LINE
8
BLACK
6
CONTINUOUS
10
0.49868
20
0.464903
11
0.505547
21
0.453008
0
LINE
8
BLACK
6
CONTINUOUS
10
0.505547
20
0.453008
11
0.510987
21
0.440396
0
LINE
8
BLACK
6
CONTINUOUS
10
0.510987
20
0.440396
11
0.514927
21
0.427238
0
LINE
8
BLACK
6
CONTINUOUS
10
0.514927
20
0.427238
11
0.517312
21
0.413712
0
LINE
8
BLACK
6
CONTINUOUS
10
0.517312
20
0.413712
11
0.51811
21
0.4
0
LINE
8
BLACK
6
CONTINUOUS
10
0.51811
20
0.4
11
0.517312
21
0.386288
0
LINE
8
BLACK
6
CONTINUOUS
10
0.517312
20
0.386288
11
0.514927
21
0.372762
0
LINE
8
BLACK
6
CONTINUOUS
10
0.514927
20
0.372762
11
0.510987
21
0.359604
0
LINE
8
BLACK
6
CONTINUOUS
10
0.510987
20
0.359604
11
0.505547
21
0.346992
0
LINE
8
BLACK
6
CONTINUOUS
10
0.505547
20
0.346992
11
0.49868
21
0.335097
0
LINE
8
BLACK
6
CONTINUOUS
10
0.49868
20
0.335097
11
0.490478
21
0.32408
0
LINE
8
BLACK
6
CONTINUOUS
10
0.490478
20
0.32408
11
0.481052
21
0.31409
0
LINE
8
BLACK
6
CONTINUOUS
10
0.481052
20
0.31409
11
0.470531
21
0.305261
0
LINE
8
BLACK
6
CONTINUOUS
10
0.470531
20
0.305261
11
0.459055
21
0.297714
0
LINE
8
BLACK
6
CONTINUOUS
10
0.459055
20
0.297714
11
0.446781
21
0.291549
0
LINE
8
BLACK
6
CONTINUOUS
10
0.446781
20
0.291549
11
0.433874
21
0.286852
0
LINE
8
BLACK
6
CONTINUOUS
10
0.433874
20
0.286852
11
0.42051
21
0.283684
0
LINE
8
BLACK
6
CONTINUOUS
10
0.42051
20
0.283684
11
0.406867
21
0.28209
0
LINE
8
BLACK
6
CONTINUOUS
10
0.406867
20
0.28209
11
0.393133
21
0.28209
0
LINE
8
BLACK
6
CONTINUOUS
10
0.393133
20
0.28209
11
0.37949
21
0.283684
0
LINE
8
BLACK
6
CONTINUOUS
10
0.37949
20
0.283684
11
0.366126
21
0.286852
0
LINE
8
BLACK
6
CONTINUOUS
10
0.366126
20
0.286852
11
0.353219
21
0.291549
0
LINE
8
BLACK
6
CONTINUOUS
10
0.353219
20
0.291549
11
0.340945
21
0.297714
0
LINE
8
BLACK
6
CONTINUOUS
10
0.340945
20
0.297714
11
0.329469
21
0.305261
0
LINE
8
BLACK
6
CONTINUOUS
10
0.329469
20
0.305261
11
0.318948
21
0.31409
0
LINE
8
BLACK
6
CONTINUOUS
10
0.318948
20
0.31409
11
0.309522
21
0.32408
0
LINE
8
BLACK
6
CONTINUOUS
10
0.309522
20
0.32408
11
0.30132
21
0.335097
0
LINE
8
BLACK
6
CONTINUOUS
10
0.30132
20
0.335097
11
0.294453
21
0.346992
0
LINE
8
BLACK
6
CONTINUOUS
10
0.294453
20
0.346992
11
0.289013
21
0.359604
0
LINE
8
BLACK
6
CONTINUOUS
10
0.289013
20
0.359604
11
0.285073
21
0.372762
0
LINE
8
BLACK
6
CONTINUOUS
10
0.285073
20
0.372762
11
0.282688
21
0.386288
0
LINE
8
BLACK
6
CONTINUOUS
10
0.282688
20
0.386288
11
0.28189
21
0.4
0
LINE
8
BLACK
6
CONTINUOUS
10
0.28189
20
0.4
11
0.282688
21
0.413712
0
LINE
8
BLACK
6
CONTINUOUS
10
0.282688
20
0.413712
11
0.285073
21
0.427238
0
LINE
8
BLACK
6
CONTINUOUS
10
0.285073
20
0.427238
11
0.289013
21
0.440396
0
LINE
8
BLACK
6
CONTINUOUS
10
0.289013
20
0.440396
11
0.294453
21
0.453008
0
LINE
8
BLACK
6
CONTINUOUS
10
0.294453
20
0.453008
11
0.30132
21
0.464903
0
LINE
8
BLACK
6
CONTINUOUS
10
0.30132
20
0.464903
11
0.309522
21
0.47592
0
LINE
8
BLACK
6
CONTINUOUS
10
0.309522
20
0.47592
11
0.318948
21
0.48591
0
LINE
8
BLACK
6
CONTINUOUS
10
0.318948
20
0.48591
11
0.329469
21
0.494739
0
LINE
8
BLACK
6
CONTINUOUS
10
0.329469
20
0.494739
11
0.340945
21
0.502286
0
LINE
8
BLACK
6
CONTINUOUS
10
0.340945
20
0.502286
11
0.353219
21
0.508451
0
LINE
8
BLACK
6
CONTINUOUS
10
0.353219
20
0.508451
11
0.366126
21
0.513148
0
LINE
8
BLACK
6
CONTINUOUS
10
0.366126
20
0.513148
11
0.37949
21
0.516316
0
LINE
8
BLACK
6
CONTINUOUS
10
0.37949
20
0.516316
11
0.393133
21
0.51791
0
LINE
8
BLACK
6
CONTINUOUS
10
0.393133
20
0.51791
11
0.406867
21
0.51791
0
LINE
8
BLACK
6
CONTINUOUS
10
0.406867
20
0.51791
11
0.42051
21
0.516316
0
LINE
8
BLACK
6
CONTINUOUS
10
1.62051
20
0.516316
11
1.63387
21
0.513148
0
LINE
8
BLACK
6
CONTINUOUS
10
1.63387
20
0.513148
11
1.64678
21
0.508451
0
LINE
8
BLACK
6
CONTINUOUS
10
1.64678
20
0.508451
11
1.65906
21
0.502286
0
LINE
8
BLACK
6
CONTINUOUS
10
1.65906
20
0.502286
11
1.67053
21
0.494739
0
LINE
8
BLACK
6
CONTINUOUS
10
1.67053
20
0.494739
11
1.68105
21
0.48591
0
LINE
8
BLACK
6
CONTINUOUS
10
1.68105
20
0.48591
11
1.69048
21
0.47592
0
LINE
8
BLACK
6
CONTINUOUS
10
1.69048
20
0.47592
11
1.69868
21
0.464903
0
LINE
8
BLACK
6
CONTINUOUS
10
1.69868
20
0.464903
11
1.70555
21
0.453008
0
LINE
8
BLACK
6
CONTINUOUS
10
1.70555
20
0.453008
11
1.71099
21
0.440396
0
LINE
8
BLACK
6
CONTINUOUS
10
1.71099
20
0.440396
11
1.71493
21
0.427238
0
LINE
8
BLACK
6
CONTINUOUS
10
1.71493
20
0.427238
11
1.71731
21
0.413712
0
LINE
8
BLACK
6
CONTINUOUS
10
1.71731
20
0.413712
11
1.71811
21
0.4
0
LINE
8
BLACK
6
CONTINUOUS
10
1.71811
20
0.4
11
1.71731
21
0.386288
0
LINE
8
BLACK
6
CONTINUOUS
10
1.71731
20
0.386288
11
1.71493
21
0.372762
0
LINE
8
BLACK
6
CONTINUOUS
10
1.71493
20
0.372762
11
1.71099
21
0.359604
0
LINE
8
BLACK
6
CONTINUOUS
10
1.71099
20
0.359604
11
1.70555
21
0.346992
0
LINE
8
BLACK
6
CONTINUOUS
10
1.70555
20
0.346992
11
1.69868
21
0.335097
0
LINE
8
BLACK
6
CONTINUOUS
10
1.69868
20
0.335097
11
1.69048
21
0.32408
0
LINE
8
BLACK
6
CONTINUOUS
10
1.69048
20
0.32408
11
1.68105
21
0.31409
0
LINE
8
BLACK
6
CONTINUOUS
10
1.68105
20
0.31409
11
1.67053
21
0.305261
0
LINE
8
BLACK
6
CONTINUOUS
10
1.67053
20
0.305261
11
1.65906
21
0.297714
0
LINE
8
BLACK
6
CONTINUOUS
10
1.65906
20
0.297714
11
1.64678
21
0.291549
0
LINE
8
BLACK
6
CONTINUOUS
10
1.64678
20
0.291549
11
1.63387
21
0.286852
0
LINE
8
BLACK
6
CONTINUOUS
10
1.63387
20
0.286852
11
1.62051
21
0.283684
0
LINE
8
BLACK
6
CONTINUOUS
10
1.62051
20
0.283684
11
1.60687
21
0.28209
0
LINE
8
BLACK
6
CONTINUOUS
10
1.60687
20
0.28209
11
1.59313
21
0.28209
0
LINE
8
BLACK
6
CONTINUOUS
10
1.59313
20
0.28209
11
1.57949
21
0.283684
0
LINE
8
BLACK
6
CONTINUOUS
10
1.57949
20
0.283684
11
1.56613
21
0.286852
0
LINE
8
BLACK
6
CONTINUOUS
10
1.56613
20
0.286852
11
1.55322
21
0.291549
0
LINE
8
BLACK
6
CONTINUOUS
10
1.55322
20
0.291549
11
1.54094
21
0.297714
0
LINE
8
BLACK
6
CONTINUOUS
10
1.54094
20
0.297714
11
1.52947
21
0.305261
0
LINE
8
BLACK
6
CONTINUOUS
10
1.52947
20
0.305261
11
1.51895
21
0.31409
0
LINE
8
BLACK
6
CONTINUOUS
10
1.51895
20
0.31409
11
1.50952
21
0.32408
0
LINE
8
BLACK
6
CONTINUOUS
10
1.50952
20
0.32408
11
1.50132
21
0.335097
0
LINE
8
BLACK
6
CONTINUOUS
10
1.50132
20
0.335097
11
1.49445
21
0.346992
0
LINE
8
BLACK
6
CONTINUOUS
10
1.49445
20
0.346992
11
1.48901
21
0.359604
0
LINE
8
BLACK
6
CONTINUOUS
10
1.48901
20
0.359604
11
1.48507
21
0.372762
0
LINE
8
BLACK
6
CONTINUOUS
10
1.48507
20
0.372762
11
1.48269
21
0.386288
0
LINE
8
BLACK
6
CONTINUOUS
10
1.48269
20
0.386288
11
1.48189
21
0.4
0
LINE
8
BLACK
6
CONTINUOUS
10
1.48189
20
0.4
11
1.48269
21
0.413712
0
LINE
8
BLACK
6
CONTINUOUS
10
1.48269
20
0.413712
11
1.48507
21
0.427238
0
LINE
8
BLACK
6
CONTINUOUS
10
1.48507
20
0.427238
11
1.48901
21
0.440396
0
LINE
8
BLACK
6
CONTINUOUS
10
1.48901
20
0.440396
11
1.49445
21
0.453008
0
LINE
8
BLACK
6
CONTINUOUS
10
1.49445
20
0.453008
11
1.50132
21
0.464903
0
LINE
8
BLACK
6
CONTINUOUS
10
1.50132
20
0.464903
11
1.50952
21
0.47592
0
LINE
8
BLACK
6
CONTINUOUS
10
1.50952
20
0.47592
11
1.51895
21
0.48591
0
LINE
8
BLACK
6
CONTINUOUS
10
1.51895
20
0.48591
11
1.52947
21
0.494739
0
LINE
8
BLACK
6
CONTINUOUS
10
1.52947
20
0.494739
11
1.54094
21
0.502286
0
LINE
8
BLACK
6
CONTINUOUS
10
1.54094
20
0.502286
11
1.55322
21
0.508451
0
LINE
8
BLACK
6
CONTINUOUS
10
1.55322
20
0.508451
11
1.56613
21
0.513148
0
LINE
8
BLACK
6
CONTINUOUS
10
1.56613
20
0.513148
11
1.57949
21
0.516316
0
LINE
8
BLACK
6
CONTINUOUS
10
1.57949
20
0.516316
11
1.59313
21
0.51791
0
LINE
8
BLACK
6
CONTINUOUS
10
1.59313
20
0.51791
11
1.60687
21
0.51791
0
LINE
8
BLACK
6
CONTINUOUS
10
1.60687
20
0.51791
11
1.62051
21
0.516316
0
LINE
8
BLACK
6
CONTINUOUS
10
0.899579
20
0.525749
11
0.904883
21
0.523864
0
LINE
8
BLACK
6
CONTINUOUS
10
0.904883
20
0.523864
11
0.909482
21
0.520618
0
LINE
8
BLACK
6
CONTINUOUS
10
0.909482
20
0.520618
11
0.913034
21
0.516251
0
LINE
8
BLACK
6
CONTINUOUS
10
0.913034
20
0.516251
11
0.915277
21
0.511088
0
LINE
8
BLACK
6
CONTINUOUS
10
0.915277
20
0.511088
11
0.916043
21
0.505512
0
LINE
8
BLACK
6
CONTINUOUS
10
0.916043
20
0.505512
11
0.916043
21
0.464173
0
LINE
8
BLACK
6
CONTINUOUS
10
0.916043
20
0.464173
11
0.915851
21
0.461359
0
LINE
8
BLACK
6
CONTINUOUS
10
0.915851
20
0.461359
11
0.914332
21
0.455939
0
LINE
8
BLACK
6
CONTINUOUS
10
0.914332
20
0.455939
11
0.911407
21
0.451129
0
LINE
8
BLACK
6
CONTINUOUS
10
0.911407
20
0.451129
11
0.907294
21
0.447287
0
LINE
8
BLACK
6
CONTINUOUS
10
0.907294
20
0.447287
11
0.902296
21
0.444697
0
LINE
8
BLACK
6
CONTINUOUS
10
0.902296
20
0.444697
11
0.896785
21
0.443552
0
LINE
8
BLACK
6
CONTINUOUS
10
0.896785
20
0.443552
11
0.891169
21
0.443936
0
LINE
8
BLACK
6
CONTINUOUS
10
0.891169
20
0.443936
11
0.885865
21
0.445821
0
LINE
8
BLACK
6
CONTINUOUS
10
0.885865
20
0.445821
11
0.881266
21
0.449067
0
LINE
8
BLACK
6
CONTINUOUS
10
0.881266
20
0.449067
11
0.877714
21
0.453434
0
LINE
8
BLACK
6
CONTINUOUS
10
0.877714
20
0.453434
11
0.875471
21
0.458597
0
LINE
8
BLACK
6
CONTINUOUS
10
0.875471
20
0.458597
11
0.874705
21
0.464173
0
LINE
8
BLACK
6
CONTINUOUS
10
0.874705
20
0.464173
11
0.874705
21
0.505512
0
LINE
8
BLACK
6
CONTINUOUS
10
0.874705
20
0.505512
11
0.874897
21
0.508326
0
LINE
8
BLACK
6
CONTINUOUS
10
0.874897
20
0.508326
11
0.876416
21
0.513746
0
LINE
8
BLACK
6
CONTINUOUS
10
0.876416
20
0.513746
11
0.879341
21
0.518556
0
LINE
8
BLACK
6
CONTINUOUS
10
0.879341
20
0.518556
11
0.883454
21
0.522398
0
LINE
8
BLACK
6
CONTINUOUS
10
0.883454
20
0.522398
11
0.888452
21
0.524988
0
LINE
8
BLACK
6
CONTINUOUS
10
0.888452
20
0.524988
11
0.893964
21
0.526133
0
LINE
8
BLACK
6
CONTINUOUS
10
0.893964
20
0.526133
11
0.899579
21
0.525749
0
LINE
8
BLACK
6
CONTINUOUS
10
1.23974
20
0.525749
11
1.24504
21
0.523864
0
LINE
8
BLACK
6
CONTINUOUS
10
1.24504
20
0.523864
11
1.24964
21
0.520618
0
LINE
8
BLACK
6
CONTINUOUS
10
1.24964
20
0.520618
11
1.25319
21
0.516251
0
LINE
8
BLACK
6
CONTINUOUS
10
1.25319
20
0.516251
11
1.25543
21
0.511088
0
LINE
8
BLACK
6
CONTINUOUS
10
1.25543
20
0.511088
11
1.2562
21
0.505512
0
LINE
8
BLACK
6
CONTINUOUS
10
1.2562
20
0.505512
11
1.2562
21
0.464173
0
LINE
8
BLACK
6
CONTINUOUS
10
1.2562
20
0.464173
11
1.25601
21
0.461359
0
LINE
8
BLACK
6
CONTINUOUS
10
1.25601
20
0.461359
11
1.25449
21
0.455939
0
LINE
8
BLACK
6
CONTINUOUS
10
1.25449
20
0.455939
11
1.25156
21
0.451129
0
LINE
8
BLACK
6
CONTINUOUS
10
1.25156
20
0.451129
11
1.24745
21
0.447287
0
LINE
8
BLACK
6
CONTINUOUS
10
1.24745
20
0.447287
11
1.24245
21
0.444697
0
LINE
8
BLACK
6
CONTINUOUS
10
1.24245
20
0.444697
11
1.23694
21
0.443552
0
LINE
8
BLACK
6
CONTINUOUS
10
1.23694
20
0.443552
11
1.23133
21
0.443936
0
LINE
8
BLACK
6
CONTINUOUS
10
1.23133
20
0.443936
11
1.22602
21
0.445821
0
LINE
8
BLACK
6
CONTINUOUS
10
1.22602
20
0.445821
11
1.22142
21
0.449067
0
LINE
8
BLACK
6
CONTINUOUS
10
1.22142
20
0.449067
11
1.21787
21
0.453434
0
LINE
8
BLACK
6
CONTINUOUS
10
1.21787
20
0.453434
11
1.21563
21
0.458597
0
LINE
8
BLACK
6
CONTINUOUS
10
1.21563
20
0.458597
11
1.21486
21
0.464173
0
LINE
8
BLACK
6
CONTINUOUS
10
1.21486
20
0.464173
11
1.21486
21
0.505512
0
LINE
8
BLACK
6
CONTINUOUS
10
1.21486
20
0.505512
11
1.21505
21
0.508326
0
LINE
8
BLACK
6
CONTINUOUS
10
1.21505
20
0.508326
11
1.21657
21
0.513746
0
LINE
8
BLACK
6
CONTINUOUS
10
1.21657
20
0.513746
11
1.2195
21
0.518556
0
LINE
8
BLACK
6
CONTINUOUS
10
1.2195
20
0.518556
11
1.22361
21
0.522398
0
LINE
8
BLACK
6
CONTINUOUS
10
1.22361
20
0.522398
11
1.22861
21
0.524988
0
LINE
8
BLACK
6
CONTINUOUS
10
1.22861
20
0.524988
11
1.23412
21
0.526133
0
LINE
8
BLACK
6
CONTINUOUS
10
1.23412
20
0.526133
11
1.23974
21
0.525749
0
LINE
8
BLACK
6
CONTINUOUS
10
0.958071
20
0.476239
11
0.961475
21
0.473382
0
LINE
8
BLACK
6
CONTINUOUS
10
0.961475
20
0.473382
11
0.963697
21
0.469534
0
LINE
8
BLACK
6
CONTINUOUS
10
0.963697
20
0.469534
11
0.964469
21
0.465157
0
LINE
8
BLACK
6
CONTINUOUS
10
0.964469
20
0.465157
11
0.963697
21
0.460781
0
LINE
8
BLACK
6
CONTINUOUS
10
0.963697
20
0.460781
11
0.961475
21
0.456933
0
LINE
8
BLACK
6
CONTINUOUS
10
0.961475
20
0.456933
11
0.958071
21
0.454076
0
LINE
8
BLACK
6
CONTINUOUS
10
0.958071
20
0.454076
11
0.953895
21
0.452557
0
LINE
8
BLACK
6
CONTINUOUS
10
0.953895
20
0.452557
11
0.949451
21
0.452557
0
LINE
8
BLACK
6
CONTINUOUS
10
0.949451
20
0.452557
11
0.945276
21
0.454076
0
LINE
8
BLACK
6
CONTINUOUS
10
0.945276
20
0.454076
11
0.941871
21
0.456933
0
LINE
8
BLACK
6
CONTINUOUS
10
0.941871
20
0.456933
11
0.93965
21
0.460781
0
LINE
8
BLACK
6
CONTINUOUS
10
0.93965
20
0.460781
11
0.938878
21
0.465157
0
LINE
8
BLACK
6
CONTINUOUS
10
0.938878
20
0.465157
11
0.93965
21
0.469534
0
LINE
8
BLACK
6
CONTINUOUS
10
0.93965
20
0.469534
11
0.941871
21
0.473382
0
LINE
8
BLACK
6
CONTINUOUS
10
0.941871
20
0.473382
11
0.945276
21
0.476239
0
LINE
8
BLACK
6
CONTINUOUS
10
0.945276
20
0.476239
11
0.949451
21
0.477758
0
LINE
8
BLACK
6
CONTINUOUS
10
0.949451
20
0.477758
11
0.953895
21
0.477758
0
LINE
8
BLACK
6
CONTINUOUS
10
0.953895
20
0.477758
11
0.958071
21
0.476239
0
LINE
8
BLACK
6
CONTINUOUS
10
1.18563
20
0.476239
11
1.18903
21
0.473382
0
LINE
8
BLACK
6
CONTINUOUS
10
1.18903
20
0.473382
11
1.19126
21
0.469534
0
LINE
8
BLACK
6
CONTINUOUS
10
1.19126
20
0.469534
11
1.19203
21
0.465157
0
LINE
8
BLACK
6
CONTINUOUS
10
1.19203
20
0.465157
11
1.19126
21
0.460781
0
LINE
8
BLACK
6
CONTINUOUS
10
1.19126
20
0.460781
11
1.18903
21
0.456933
0
LINE
8
BLACK
6
CONTINUOUS
10
1.18903
20
0.456933
11
1.18563
21
0.454076
0
LINE
8
BLACK
6
CONTINUOUS
10
1.18563
20
0.454076
11
1.18145
21
0.452557
0
LINE
8
BLACK
6
CONTINUOUS
10
1.18145
20
0.452557
11
1.17701
21
0.452557
0
LINE
8
BLACK
6
CONTINUOUS
10
1.17701
20
0.452557
11
1.17283
21
0.454076
0
LINE
8
BLACK
6
CONTINUOUS
10
1.17283
20
0.454076
11
1.16943
21
0.456933
0
LINE
8
BLACK
6
CONTINUOUS
10
1.16943
20
0.456933
11
1.16721
21
0.460781
0
LINE
8
BLACK
6
CONTINUOUS
10
1.16721
20
0.460781
11
1.16644
21
0.465157
0
LINE
8
BLACK
6
CONTINUOUS
10
1.16644
20
0.465157
11
1.16721
21
0.469534
0
LINE
8
BLACK
6
CONTINUOUS
10
1.16721
20
0.469534
11
1.16943
21
0.473382
0
LINE
8
BLACK
6
CONTINUOUS
10
1.16943
20
0.473382
11
1.17283
21
0.476239
0
LINE
8
BLACK
6
CONTINUOUS
10
1.17283
20
0.476239
11
1.17701
21
0.477758
0
LINE
8
BLACK
6
CONTINUOUS
10
1.17701
20
0.477758
11
1.18145
21
0.477758
0
LINE
8
BLACK
6
CONTINUOUS
10
1.18145
20
0.477758
11
1.18563
21
0.476239
0
LINE
8
BLACK
6
CONTINUOUS
10
1.58514
20
0.680646
11
1.59154
21
0.6778
0
LINE
8
BLACK
6
CONTINUOUS
10
1.59154
20
0.6778
11
1.5972
21
0.673688
0
LINE
8
BLACK
6
CONTINUOUS
10
1.5972
20
0.673688
11
1.60188
21
0.668489
0
LINE
8
BLACK
6
CONTINUOUS
10
1.60188
20
0.668489
11
1.60537
21
0.66243
0
LINE
8
BLACK
6
CONTINUOUS
10
1.60537
20
0.66243
11
1.60754
21
0.655777
0
LINE
8
BLACK
6
CONTINUOUS
10
1.60754
20
0.655777
11
1.60827
21
0.648819
0
LINE
8
BLACK
6
CONTINUOUS
10
1.60827
20
0.648819
11
1.60754
21
0.641861
0
LINE
8
BLACK
6
CONTINUOUS
10
1.60754
20
0.641861
11
1.60537
21
0.635208
0
LINE
8
BLACK
6
CONTINUOUS
10
1.60537
20
0.635208
11
1.60188
21
0.629149
0
LINE
8
BLACK
6
CONTINUOUS
10
1.60188
20
0.629149
11
1.5972
21
0.62395
0
LINE
8
BLACK
6
CONTINUOUS
10
1.5972
20
0.62395
11
1.59154
21
0.619838
0
LINE
8
BLACK
6
CONTINUOUS
10
1.59154
20
0.619838
11
1.58514
21
0.616992
0
LINE
8
BLACK
6
CONTINUOUS
10
1.58514
20
0.616992
11
1.5783
21
0.615538
0
LINE
8
BLACK
6
CONTINUOUS
10
1.5783
20
0.615538
11
1.57131
21
0.615538
0
LINE
8
BLACK
6
CONTINUOUS
10
1.57131
20
0.615538
11
1.56446
21
0.616992
0
LINE
8
BLACK
6
CONTINUOUS
10
1.56446
20
0.616992
11
1.55807
21
0.619838
0
LINE
8
BLACK
6
CONTINUOUS
10
1.55807
20
0.619838
11
1.55241
21
0.62395
0
LINE
8
BLACK
6
CONTINUOUS
10
1.55241
20
0.62395
11
1.54773
21
0.629149
0
LINE
8
BLACK
6
CONTINUOUS
10
1.54773
20
0.629149
11
1.54423
21
0.635208
0
LINE
8
BLACK
6
CONTINUOUS
10
1.54423
20
0.635208
11
1.54207
21
0.641861
0
LINE
8
BLACK
6
CONTINUOUS
10
1.54207
20
0.641861
11
1.54134
21
0.648819
0
LINE
8
BLACK
6
CONTINUOUS
10
1.54134
20
0.648819
11
1.54207
21
0.655777
0
LINE
8
BLACK
6
CONTINUOUS
10
1.54207
20
0.655777
11
1.54423
21
0.66243
0
LINE
8
BLACK
6
CONTINUOUS
10
1.54423
20
0.66243
11
1.54773
21
0.668489
0
LINE
8
BLACK
6
CONTINUOUS
10
1.54773
20
0.668489
11
1.55241
21
0.673688
0
LINE
8
BLACK
6
CONTINUOUS
10
1.55241
20
0.673688
11
1.55807
21
0.6778
0
LINE
8
BLACK
6
CONTINUOUS
10
1.55807
20
0.6778
11
1.56446
21
0.680646
0
LINE
8
BLACK
6
CONTINUOUS
10
1.56446
20
0.680646
11
1.57131
21
0.6821
0
LINE
8
BLACK
6
CONTINUOUS
10
1.57131
20
0.6821
11
1.5783
21
0.6821
0
LINE
8
BLACK
6
CONTINUOUS
10
1.5783
20
0.6821
11
1.58514
21
0.680646
0
LINE
8
BLACK
6
CONTINUOUS
10
1.68514
20
0.680646
11
1.69154
21
0.6778
0
LINE
8
BLACK
6
CONTINUOUS
10
1.69154
20
0.6778
11
1.6972
21
0.673688
0
LINE
8
BLACK
6
CONTINUOUS
10
1.6972
20
0.673688
11
1.70188
21
0.668489
0
LINE
8
BLACK
6
CONTINUOUS
10
1.70188
20
0.668489
11
1.70537
21
0.66243
0
LINE
8
BLACK
6
CONTINUOUS
10
1.70537
20
0.66243
11
1.70754
21
0.655777
0
LINE
8
BLACK
6
CONTINUOUS
10
1.70754
20
0.655777
11
1.70827
21
0.648819
0
LINE
8
BLACK
6
CONTINUOUS
10
1.70827
20
0.648819
11
1.70754
21
0.641861
0
LINE
8
BLACK
6
CONTINUOUS
10
1.70754
20
0.641861
11
1.70537
21
0.635208
0
LINE
8
BLACK
6
CONTINUOUS
10
1.70537
20
0.635208
11
1.70188
21
0.629149
0
LINE
8
BLACK
6
CONTINUOUS
10
1.70188
20
0.629149
11
1.6972
21
0.62395
0
LINE
8
BLACK
6
CONTINUOUS
10
1.6972
20
0.62395
11
1.69154
21
0.619838
0
LINE
8
BLACK
6
CONTINUOUS
10
1.69154
20
0.619838
11
1.68514
21
0.616992
0
LINE
8
BLACK
6
CONTINUOUS
10
1.68514
20
0.616992
11
1.6783
21
0.615538
0
LINE
8
BLACK
6
CONTINUOUS
10
1.6783
20
0.615538
11
1.67131
21
0.615538
0
LINE
8
BLACK
6
CONTINUOUS
10
1.67131
20
0.615538
11
1.66446
21
0.616992
0
LINE
8
BLACK
6
CONTINUOUS
10
1.66446
20
0.616992
11
1.65807
21
0.619838
0
LINE
8
BLACK
6
CONTINUOUS
10
1.65807
20
0.619838
11
1.65241
21
0.62395
0
LINE
8
BLACK
6
CONTINUOUS
10
1.65241
20
0.62395
11
1.64773
21
0.629149
0
LINE
8
BLACK
6
CONTINUOUS
10
1.64773
20
0.629149
11
1.64423
21
0.635208
0
LINE
8
BLACK
6
CONTINUOUS
10
1.64423
20
0.635208
11
1.64207
21
0.641861
0
LINE
8
BLACK
6
CONTINUOUS
10
1.64207
20
0.641861
11
1.64134
21
0.648819
0
LINE
8
BLACK
6
CONTINUOUS
10
1.64134
20
0.648819
11
1.64207
21
0.655777
0
LINE
8
BLACK
6
CONTINUOUS
10
1.64207
20
0.655777
11
1.64423
21
0.66243
0
LINE
8
BLACK
6
CONTINUOUS
10
1.64423
20
0.66243
11
1.64773
21
0.668489
0
LINE
8
BLACK
6
CONTINUOUS
10
1.64773
20
0.668489
11
1.65241
21
0.673688
0
LINE
8
BLACK
6
CONTINUOUS
10
1.65241
20
0.673688
11
1.65807
21
0.6778
0
LINE
8
BLACK
6
CONTINUOUS
10
1.65807
20
0.6778
11
1.66446
21
0.680646
0
LINE
8
BLACK
6
CONTINUOUS
10
1.66446
20
0.680646
11
1.67131
21
0.6821
0
LINE
8
BLACK
6
CONTINUOUS
10
1.67131
20
0.6821
11
1.6783
21
0.6821
0
LINE
8
BLACK
6
CONTINUOUS
10
1.6783
20
0.6821
11
1.68514
21
0.680646
0
LINE
8
BLACK
6
CONTINUOUS
10
1.04862
20
0.618898
11
0.981693
21
0.618898
0
LINE
8
BLACK
6
CONTINUOUS
10
0.981693
20
0.618898
11
0.981693
21
0.685827
0
LINE
8
BLACK
6
CONTINUOUS
10
0.981693
20
0.685827
11
1.04862
21
0.685827
0
LINE
8
BLACK
6
CONTINUOUS
10
1.04862
20
0.685827
11
1.04862
21
0.618898
0
LINE
8
BLACK
6
CONTINUOUS
10
1.1255
20
0.684189
11
1.13189
21
0.681343
0
LINE
8
BLACK
6
CONTINUOUS
10
1.13189
20
0.681343
11
1.13755
21
0.677231
0
LINE
8
BLACK
6
CONTINUOUS
10
1.13755
20
0.677231
11
1.14223
21
0.672032
0
LINE
8
BLACK
6
CONTINUOUS
10
1.14223
20
0.672032
11
1.14573
21
0.665973
0
LINE
8
BLACK
6
CONTINUOUS
10
1.14573
20
0.665973
11
1.14789
21
0.65932
0
LINE
8
BLACK
6
CONTINUOUS
10
1.14789
20
0.65932
11
1.14862
21
0.652362
0
LINE
8
BLACK
6
CONTINUOUS
10
1.14862
20
0.652362
11
1.14789
21
0.645405
0
LINE
8
BLACK
6
CONTINUOUS
10
1.14789
20
0.645405
11
1.14573
21
0.638751
0
LINE
8
BLACK
6
CONTINUOUS
10
1.14573
20
0.638751
11
1.14223
21
0.632692
0
LINE
8
BLACK
6
CONTINUOUS
10
1.14223
20
0.632692
11
1.13755
21
0.627493
0
LINE
8
BLACK
6
CONTINUOUS
10
1.13755
20
0.627493
11
1.13189
21
0.623381
0
LINE
8
BLACK
6
CONTINUOUS
10
1.13189
20
0.623381
11
1.1255
21
0.620536
0
LINE
8
BLACK
6
CONTINUOUS
10
1.1255
20
0.620536
11
1.11866
21
0.619081
0
LINE
8
BLACK
6
CONTINUOUS
10
1.11866
20
0.619081
11
1.11166
21
0.619081
0
LINE
8
BLACK
6
CONTINUOUS
10
1.11166
20
0.619081
11
1.10482
21
0.620536
0
LINE
8
BLACK
6
CONTINUOUS
10
1.10482
20
0.620536
11
1.09843
21
0.623381
0
LINE
8
BLACK
6
CONTINUOUS
10
1.09843
20
0.623381
11
1.09277
21
0.627493
0
LINE
8
BLACK
6
CONTINUOUS
10
1.09277
20
0.627493
11
1.08808
21
0.632692
0
LINE
8
BLACK
6
CONTINUOUS
10
1.08808
20
0.632692
11
1.08459
21
0.638751
0
LINE
8
BLACK
6
CONTINUOUS
10
1.08459
20
0.638751
11
1.08242
21
0.645405
0
LINE
8
BLACK
6
CONTINUOUS
10
1.08242
20
0.645405
11
1.08169
21
0.652362
0
LINE
8
BLACK
6
CONTINUOUS
10
1.08169
20
0.652362
11
1.08242
21
0.65932
0
LINE
8
BLACK
6
CONTINUOUS
10
1.08242
20
0.65932
11
1.08459
21
0.665973
0
LINE
8
BLACK
6
CONTINUOUS
10
1.08459
20
0.665973
11
1.08808
21
0.672032
0
LINE
8
BLACK
6
CONTINUOUS
10
1.08808
20
0.672032
11
1.09277
21
0.677231
0
LINE
8
BLACK
6
CONTINUOUS
10
1.09277
20
0.677231
11
1.09843
21
0.681343
0
LINE
8
BLACK
6
CONTINUOUS
10
1.09843
20
0.681343
11
1.10482
21
0.684189
0
LINE
8
BLACK
6
CONTINUOUS
10
1.10482
20
0.684189
11
1.11166
21
0.685643
0
LINE
8
BLACK
6
CONTINUOUS
10
1.11166
20
0.685643
11
1.11866
21
0.685643
0
LINE
8
BLACK
6
CONTINUOUS
10
1.11866
20
0.685643
11
1.1255
21
0.684189
0
LINE
8
BLACK
6
CONTINUOUS
10
0.571562
20
0.712339
11
0.577953
21
0.709493
0
LINE
8
BLACK
6
CONTINUOUS
10
0.577953
20
0.709493
11
0.583613
21
0.705381
0
LINE
8
BLACK
6
CONTINUOUS
10
0.583613
20
0.705381
11
0.588294
21
0.700182
0
LINE
8
BLACK
6
CONTINUOUS
10
0.588294
20
0.700182
11
0.591792
21
0.694123
0
LINE
8
BLACK
6
CONTINUOUS
10
0.591792
20
0.694123
11
0.593954
21
0.687469
0
LINE
8
BLACK
6
CONTINUOUS
10
0.593954
20
0.687469
11
0.594685
21
0.680512
0
LINE
8
BLACK
6
CONTINUOUS
10
0.594685
20
0.680512
11
0.593954
21
0.673554
0
LINE
8
BLACK
6
CONTINUOUS
10
0.593954
20
0.673554
11
0.591792
21
0.666901
0
LINE
8
BLACK
6
CONTINUOUS
10
0.591792
20
0.666901
11
0.588294
21
0.660842
0
LINE
8
BLACK
6
CONTINUOUS
10
0.588294
20
0.660842
11
0.583613
21
0.655643
0
LINE
8
BLACK
6
CONTINUOUS
10
0.583613
20
0.655643
11
0.577953
21
0.651531
0
LINE
8
BLACK
6
CONTINUOUS
10
0.577953
20
0.651531
11
0.571562
21
0.648685
0
LINE
8
BLACK
6
CONTINUOUS
10
0.571562
20
0.648685
11
0.564718
21
0.647231
0
LINE
8
BLACK
6
CONTINUOUS
10
0.564718
20
0.647231
11
0.557722
21
0.647231
0
LINE
8
BLACK
6
CONTINUOUS
10
0.557722
20
0.647231
11
0.550879
21
0.648685
0
LINE
8
BLACK
6
CONTINUOUS
10
0.550879
20
0.648685
11
0.544488
21
0.651531
0
LINE
8
BLACK
6
CONTINUOUS
10
0.544488
20
0.651531
11
0.538828
21
0.655643
0
LINE
8
BLACK
6
CONTINUOUS
10
0.538828
20
0.655643
11
0.534147
21
0.660842
0
LINE
8
BLACK
6
CONTINUOUS
10
0.534147
20
0.660842
11
0.530649
21
0.666901
0
LINE
8
BLACK
6
CONTINUOUS
10
0.530649
20
0.666901
11
0.528487
21
0.673554
0
LINE
8
BLACK
6
CONTINUOUS
10
0.528487
20
0.673554
11
0.527756
21
0.680512
0
LINE
8
BLACK
6
CONTINUOUS
10
0.527756
20
0.680512
11
0.528487
21
0.687469
0
LINE
8
BLACK
6
CONTINUOUS
10
0.528487
20
0.687469
11
0.530649
21
0.694123
0
LINE
8
BLACK
6
CONTINUOUS
10
0.530649
20
0.694123
11
0.534147
21
0.700182
0
LINE
8
BLACK
6
CONTINUOUS
10
0.534147
20
0.700182
11
0.538828
21
0.705381
0
LINE
8
BLACK
6
CONTINUOUS
10
0.538828
20
0.705381
11
0.544488
21
0.709493
0
LINE
8
BLACK
6
CONTINUOUS
10
0.544488
20
0.709493
11
0.550879
21
0.712339
0
LINE
8
BLACK
6
CONTINUOUS
10
0.550879
20
0.712339
11
0.557722
21
0.713793
0
LINE
8
BLACK
6
CONTINUOUS
10
0.557722
20
0.713793
11
0.564718
21
0.713793
0
LINE
8
BLACK
6
CONTINUOUS
10
0.564718
20
0.713793
11
0.571562
21
0.712339
0
LINE
8
BLACK
6
CONTINUOUS
10
0.671562
20
0.712339
11
0.677953
21
0.709493
0
LINE
8
BLACK
6
CONTINUOUS
10
0.677953
20
0.709493
11
0.683613
21
0.705381
0
LINE
8
BLACK
6
CONTINUOUS
10
0.683613
20
0.705381
11
0.688294
21
0.700182
0
LINE
8
BLACK
6
CONTINUOUS
10
0.688294
20
0.700182
11
0.691792
21
0.694123
0
LINE
8
BLACK
6
CONTINUOUS
10
0.691792
20
0.694123
11
0.693954
21
0.687469
0
LINE
8
BLACK
6
CONTINUOUS
10
0.693954
20
0.687469
11
0.694685
21
0.680512
0
LINE
8
BLACK
6
CONTINUOUS
10
0.694685
20
0.680512
11
0.693954
21
0.673554
0
LINE
8
BLACK
6
CONTINUOUS
10
0.693954
20
0.673554
11
0.691792
21
0.666901
0
LINE
8
BLACK
6
CONTINUOUS
10
0.691792
20
0.666901
11
0.688294
21
0.660842
0
LINE
8
BLACK
6
CONTINUOUS
10
0.688294
20
0.660842
11
0.683613
21
0.655643
0
LINE
8
BLACK
6
CONTINUOUS
10
0.683613
20
0.655643
11
0.677953
21
0.651531
0
LINE
8
BLACK
6
CONTINUOUS
10
0.677953
20
0.651531
11
0.671562
21
0.648685
0
LINE
8
BLACK
6
CONTINUOUS
10
0.671562
20
0.648685
11
0.664718
21
0.647231
0
LINE
8
BLACK
6
CONTINUOUS
10
0.664718
20
0.647231
11
0.657722
21
0.647231
0
LINE
8
BLACK
6
CONTINUOUS
10
0.657722
20
0.647231
11
0.650879
21
0.648685
0
LINE
8
BLACK
6
CONTINUOUS
10
0.650879
20
0.648685
11
0.644488
21
0.651531
0
LINE
8
BLACK
6
CONTINUOUS
10
0.644488
20
0.651531
11
0.638828
21
0.655643
0
LINE
8
BLACK
6
CONTINUOUS
10
0.638828
20
0.655643
11
0.634147
21
0.660842
0
LINE
8
BLACK
6
CONTINUOUS
10
0.634147
20
0.660842
11
0.630649
21
0.666901
0
LINE
8
BLACK
6
CONTINUOUS
10
0.630649
20
0.666901
11
0.628487
21
0.673554
0
LINE
8
BLACK
6
CONTINUOUS
10
0.628487
20
0.673554
11
0.627756
21
0.680512
0
LINE
8
BLACK
6
CONTINUOUS
10
0.627756
20
0.680512
11
0.628487
21
0.687469
0
LINE
8
BLACK
6
CONTINUOUS
10
0.628487
20
0.687469
11
0.630649
21
0.694123
0
LINE
8
BLACK
6
CONTINUOUS
10
0.630649
20
0.694123
11
0.634147
21
0.700182
0
LINE
8
BLACK
6
CONTINUOUS
10
0.634147
20
0.700182
11
0.638828
21
0.705381
0
LINE
8
BLACK
6
CONTINUOUS
10
0.638828
20
0.705381
11
0.644488
21
0.709493
0
LINE
8
BLACK
6
CONTINUOUS
10
0.644488
20
0.709493
11
0.650879
21
0.712339
0
LINE
8
BLACK
6
CONTINUOUS
10
0.650879
20
0.712339
11
0.657722
21
0.713793
0
LINE
8
BLACK
6
CONTINUOUS
10
0.657722
20
0.713793
11
0.664718
21
0.713793
0
LINE
8
BLACK
6
CONTINUOUS
10
0.664718
20
0.713793
11
0.671562
21
0.712339
0
LINE
8
BLACK
6
CONTINUOUS
10
1.58514
20
0.780646
11
1.59154
21
0.7778
0
LINE
8
BLACK
6
CONTINUOUS
10
1.59154
20
0.7778
11
1.5972
21
0.773688
0
LINE
8
BLACK
6
CONTINUOUS
10
1.5972
20
0.773688
11
1.60188
21
0.768489
0
LINE
8
BLACK
6
CONTINUOUS
10
1.60188
20
0.768489
11
1.60537
21
0.76243
0
LINE
8
BLACK
6
CONTINUOUS
10
1.60537
20
0.76243
11
1.60754
21
0.755777
0
LINE
8
BLACK
6
CONTINUOUS
10
1.60754
20
0.755777
11
1.60827
21
0.748819
0
LINE
8
BLACK
6
CONTINUOUS
10
1.60827
20
0.748819
11
1.60754
21
0.741861
0
LINE
8
BLACK
6
CONTINUOUS
10
1.60754
20
0.741861
11
1.60537
21
0.735208
0
LINE
8
BLACK
6
CONTINUOUS
10
1.60537
20
0.735208
11
1.60188
21
0.729149
0
LINE
8
BLACK
6
CONTINUOUS
10
1.60188
20
0.729149
11
1.5972
21
0.72395
0
LINE
8
BLACK
6
CONTINUOUS
10
1.5972
20
0.72395
11
1.59154
21
0.719838
0
LINE
8
BLACK
6
CONTINUOUS
10
1.59154
20
0.719838
11
1.58514
21
0.716992
0
LINE
8
BLACK
6
CONTINUOUS
10
1.58514
20
0.716992
11
1.5783
21
0.715538
0
LINE
8
BLACK
6
CONTINUOUS
10
1.5783
20
0.715538
11
1.57131
21
0.715538
0
LINE
8
BLACK
6
CONTINUOUS
10
1.57131
20
0.715538
11
1.56446
21
0.716992
0
LINE
8
BLACK
6
CONTINUOUS
10
1.56446
20
0.716992
11
1.55807
21
0.719838
0
LINE
8
BLACK
6
CONTINUOUS
10
1.55807
20
0.719838
11
1.55241
21
0.72395
0
LINE
8
BLACK
6
CONTINUOUS
10
1.55241
20
0.72395
11
1.54773
21
0.729149
0
LINE
8
BLACK
6
CONTINUOUS
10
1.54773
20
0.729149
11
1.54423
21
0.735208
0
LINE
8
BLACK
6
CONTINUOUS
10
1.54423
20
0.735208
11
1.54207
21
0.741861
0
LINE
8
BLACK
6
CONTINUOUS
10
1.54207
20
0.741861
11
1.54134
21
0.748819
0
LINE
8
BLACK
6
CONTINUOUS
10
1.54134
20
0.748819
11
1.54207
21
0.755777
0
LINE
8
BLACK
6
CONTINUOUS
10
1.54207
20
0.755777
11
1.54423
21
0.76243
0
LINE
8
BLACK
6
CONTINUOUS
10
1.54423
20
0.76243
11
1.54773
21
0.768489
0
LINE
8
BLACK
6
CONTINUOUS
10
1.54773
20
0.768489
11
1.55241
21
0.773688
0
LINE
8
BLACK
6
CONTINUOUS
10
1.55241
20
0.773688
11
1.55807
21
0.7778
0
LINE
8
BLACK
6
CONTINUOUS
10
1.55807
20
0.7778
11
1.56446
21
0.780646
0
LINE
8
BLACK
6
CONTINUOUS
10
1.56446
20
0.780646
11
1.57131
21
0.7821
0
LINE
8
BLACK
6
CONTINUOUS
10
1.57131
20
0.7821
11
1.5783
21
0.7821
0
LINE
8
BLACK
6
CONTINUOUS
10
1.5783
20
0.7821
11
1.58514
21
0.780646
0
LINE
8
BLACK
6
CONTINUOUS
10
1.68514
20
0.780646
11
1.69154
21
0.7778
0
LINE
8
BLACK
6
CONTINUOUS
10
1.69154
20
0.7778
11
1.6972
21
0.773688
0
LINE
8
BLACK
6
CONTINUOUS
10
1.6972
20
0.773688
11
1.70188
21
0.768489
0
LINE
8
BLACK
6
CONTINUOUS
10
1.70188
20
0.768489
11
1.70537
21
0.76243
0
LINE
8
BLACK
6
CONTINUOUS
10
1.70537
20
0.76243
11
1.70754
21
0.755777
0
LINE
8
BLACK
6
CONTINUOUS
10
1.70754
20
0.755777
11
1.70827
21
0.748819
0
LINE
8
BLACK
6
CONTINUOUS
10
1.70827
20
0.748819
11
1.70754
21
0.741861
0
LINE
8
BLACK
6
CONTINUOUS
10
1.70754
20
0.741861
11
1.70537
21
0.735208
0
LINE
8
BLACK
6
CONTINUOUS
10
1.70537
20
0.735208
11
1.70188
21
0.729149
0
LINE
8
BLACK
6
CONTINUOUS
10
1.70188
20
0.729149
11
1.6972
21
0.72395
0
LINE
8
BLACK
6
CONTINUOUS
10
1.6972
20
0.72395
11
1.69154
21
0.719838
0
LINE
8
BLACK
6
CONTINUOUS
10
1.69154
20
0.719838
11
1.68514
21
0.716992
0
LINE
8
BLACK
6
CONTINUOUS
10
1.68514
20
0.716992
11
1.6783
21
0.715538
0
LINE
8
BLACK
6
CONTINUOUS
10
1.6783
20
0.715538
11
1.67131
21
0.715538
0
LINE
8
BLACK
6
CONTINUOUS
10
1.67131
20
0.715538
11
1.66446
21
0.716992
0
LINE
8
BLACK
6
CONTINUOUS
10
1.66446
20
0.716992
11
1.65807
21
0.719838
0
LINE
8
BLACK
6
CONTINUOUS
10
1.65807
20
0.719838
11
1.65241
21
0.72395
0
LINE
8
BLACK
6
CONTINUOUS
10
1.65241
20
0.72395
11
1.64773
21
0.729149
0
LINE
8
BLACK
6
CONTINUOUS
10
1.64773
20
0.729149
11
1.64423
21
0.735208
0
LINE
8
BLACK
6
CONTINUOUS
10
1.64423
20
0.735208
11
1.64207
21
0.741861
0
LINE
8
BLACK
6
CONTINUOUS
10
1.64207
20
0.741861
11
1.64134
21
0.748819
0
LINE
8
BLACK
6
CONTINUOUS
10
1.64134
20
0.748819
11
1.64207
21
0.755777
0
LINE
8
BLACK
6
CONTINUOUS
10
1.64207
20
0.755777
11
1.64423
21
0.76243
0
LINE
8
BLACK
6
CONTINUOUS
10
1.64423
20
0.76243
11
1.64773
21
0.768489
0
LINE
8
BLACK
6
CONTINUOUS
10
1.64773
20
0.768489
11
1.65241
21
0.773688
0
LINE
8
BLACK
6
CONTINUOUS
10
1.65241
20
0.773688
11
1.65807
21
0.7778
0
LINE
8
BLACK
6
CONTINUOUS
10
1.65807
20
0.7778
11
1.66446
21
0.780646
0
LINE
8
BLACK
6
CONTINUOUS
10
1.66446
20
0.780646
11
1.67131
21
0.7821
0
LINE
8
BLACK
6
CONTINUOUS
10
1.67131
20
0.7821
11
1.6783
21
0.7821
0
LINE
8
BLACK
6
CONTINUOUS
10
1.6783
20
0.7821
11
1.68514
21
0.780646
0
LINE
8
BLACK
6
CONTINUOUS
10
0.571562
20
0.812339
11
0.577953
21
0.809493
0
LINE
8
BLACK
6
CONTINUOUS
10
0.577953
20
0.809493
11
0.583613
21
0.805381
0
LINE
8
BLACK
6
CONTINUOUS
10
0.583613
20
0.805381
11
0.588294
21
0.800182
0
LINE
8
BLACK
6
CONTINUOUS
10
0.588294
20
0.800182
11
0.591792
21
0.794123
0
LINE
8
BLACK
6
CONTINUOUS
10
0.591792
20
0.794123
11
0.593954
21
0.787469
0
LINE
8
BLACK
6
CONTINUOUS
10
0.593954
20
0.787469
11
0.594685
21
0.780512
0
LINE
8
BLACK
6
CONTINUOUS
10
0.594685
20
0.780512
11
0.593954
21
0.773554
0
LINE
8
BLACK
6
CONTINUOUS
10
0.593954
20
0.773554
11
0.591792
21
0.766901
0
LINE
8
BLACK
6
CONTINUOUS
10
0.591792
20
0.766901
11
0.588294
21
0.760842
0
LINE
8
BLACK
6
CONTINUOUS
10
0.588294
20
0.760842
11
0.583613
21
0.755643
0
LINE
8
BLACK
6
CONTINUOUS
10
0.583613
20
0.755643
11
0.577953
21
0.751531
0
LINE
8
BLACK
6
CONTINUOUS
10
0.577953
20
0.751531
11
0.571562
21
0.748685
0
LINE
8
BLACK
6
CONTINUOUS
10
0.571562
20
0.748685
11
0.564718
21
0.747231
0
LINE
8
BLACK
6
CONTINUOUS
10
0.564718
20
0.747231
11
0.557722
21
0.747231
0
LINE
8
BLACK
6
CONTINUOUS
10
0.557722
20
0.747231
11
0.550879
21
0.748685
0
LINE
8
BLACK
6
CONTINUOUS
10
0.550879
20
0.748685
11
0.544488
21
0.751531
0
LINE
8
BLACK
6
CONTINUOUS
10
0.544488
20
0.751531
11
0.538828
21
0.755643
0
LINE
8
BLACK
6
CONTINUOUS
10
0.538828
20
0.755643
11
0.534147
21
0.760842
0
LINE
8
BLACK
6
CONTINUOUS
10
0.534147
20
0.760842
11
0.530649
21
0.766901
0
LINE
8
BLACK
6
CONTINUOUS
10
0.530649
20
0.766901
11
0.528487
21
0.773554
0
LINE
8
BLACK
6
CONTINUOUS
10
0.528487
20
0.773554
11
0.527756
21
0.780512
0
LINE
8
BLACK
6
CONTINUOUS
10
0.527756
20
0.780512
11
0.528487
21
0.787469
0
LINE
8
BLACK
6
CONTINUOUS
10
0.528487
20
0.787469
11
0.530649
21
0.794123
0
LINE
8
BLACK
6
CONTINUOUS
10
0.530649
20
0.794123
11
0.534147
21
0.800182
0
LINE
8
BLACK
6
CONTINUOUS
10
0.534147
20
0.800182
11
0.538828
21
0.805381
0
LINE
8
BLACK
6
CONTINUOUS
10
0.538828
20
0.805381
11
0.544488
21
0.809493
0
LINE
8
BLACK
6
CONTINUOUS
10
0.544488
20
0.809493
11
0.550879
21
0.812339
0
LINE
8
BLACK
6
CONTINUOUS
10
0.550879
20
0.812339
11
0.557722
21
0.813793
0
LINE
8
BLACK
6
CONTINUOUS
10
0.557722
20
0.813793
11
0.564718
21
0.813793
0
LINE
8
BLACK
6
CONTINUOUS
10
0.564718
20
0.813793
11
0.571562
21
0.812339
0
LINE
8
BLACK
6
CONTINUOUS
10
0.671562
20
0.812339
11
0.677953
21
0.809493
0
LINE
8
BLACK
6
CONTINUOUS
10
0.677953
20
0.809493
11
0.683613
21
0.805381
0
LINE
8
BLACK
6
CONTINUOUS
10
0.683613
20
0.805381
11
0.688294
21
0.800182
0
LINE
8
BLACK
6
CONTINUOUS
10
0.688294
20
0.800182
11
0.691792
21
0.794123
0
LINE
8
BLACK
6
CONTINUOUS
10
0.691792
20
0.794123
11
0.693954
21
0.787469
0
LINE
8
BLACK
6
CONTINUOUS
10
0.693954
20
0.787469
11
0.694685
21
0.780512
0
LINE
8
BLACK
6
CONTINUOUS
10
0.694685
20
0.780512
11
0.693954
21
0.773554
0
LINE
8
BLACK
6
CONTINUOUS
10
0.693954
20
0.773554
11
0.691792
21
0.766901
0
LINE
8
BLACK
6
CONTINUOUS
10
0.691792
20
0.766901
11
0.688294
21
0.760842
0
LINE
8
BLACK
6
CONTINUOUS
10
0.688294
20
0.760842
11
0.683613
21
0.755643
0
LINE
8
BLACK
6
CONTINUOUS
10
0.683613
20
0.755643
11
0.677953
21
0.751531
0
LINE
8
BLACK
6
CONTINUOUS
10
0.677953
20
0.751531
11
0.671562
21
0.748685
0
LINE
8
BLACK
6
CONTINUOUS
10
0.671562
20
0.748685
11
0.664718
21
0.747231
0
LINE
8
BLACK
6
CONTINUOUS
10
0.664718
20
0.747231
11
0.657722
21
0.747231
0
LINE
8
BLACK
6
CONTINUOUS
10
0.657722
20
0.747231
11
0.650879
21
0.748685
0
LINE
8
BLACK
6
CONTINUOUS
10
0.650879
20
0.748685
11
0.644488
21
0.751531
0
LINE
8
BLACK
6
CONTINUOUS
10
0.644488
20
0.751531
11
0.638828
21
0.755643
0
LINE
8
BLACK
6
CONTINUOUS
10
0.638828
20
0.755643
11
0.634147
21
0.760842
0
LINE
8
BLACK
6
CONTINUOUS
10
0.634147
20
0.760842
11
0.630649
21
0.766901
0
LINE
8
BLACK
6
CONTINUOUS
10
0.630649
20
0.766901
11
0.628487
21
0.773554
0
LINE
8
BLACK
6
CONTINUOUS
10
0.628487
20
0.773554
11
0.627756
21
0.780512
0
LINE
8
BLACK
6
CONTINUOUS
10
0.627756
20
0.780512
11
0.628487
21
0.787469
0
LINE
8
BLACK
6
CONTINUOUS
10
0.628487
20
0.787469
11
0.630649
21
0.794123
0
LINE
8
BLACK
6
CONTINUOUS
10
0.630649
20
0.794123
11
0.634147
21
0.800182
0
LINE
8
BLACK
6
CONTINUOUS
10
0.634147
20
0.800182
11
0.638828
21
0.805381
0
LINE
8
BLACK
6
CONTINUOUS
10
0.638828
20
0.805381
11
0.644488
21
0.809493
0
LINE
8
BLACK
6
CONTINUOUS
10
0.644488
20
0.809493
11
0.650879
21
0.812339
0
LINE
8
BLACK
6
CONTINUOUS
10
0.650879
20
0.812339
11
0.657722
21
0.813793
0
LINE
8
BLACK
6
CONTINUOUS
10
0.657722
20
0.813793
11
0.664718
21
0.813793
0
LINE
8
BLACK
6
CONTINUOUS
10
0.664718
20
0.813793
11
0.671562
21
0.812339
0
LINE
8
BLACK
6
CONTINUOUS
10
1.58514
20
0.880646
11
1.59154
21
0.8778
0
LINE
8
BLACK
6
CONTINUOUS
10
1.59154
20
0.8778
11
1.5972
21
0.873688
0
LINE
8
BLACK
6
CONTINUOUS
10
1.5972
20
0.873688
11
1.60188
21
0.868489
0
LINE
8
BLACK
6
CONTINUOUS
10
1.60188
20
0.868489
11
1.60537
21
0.86243
0
LINE
8
BLACK
6
CONTINUOUS
10
1.60537
20
0.86243
11
1.60754
21
0.855777
0
LINE
8
BLACK
6
CONTINUOUS
10
1.60754
20
0.855777
11
1.60827
21
0.848819
0
LINE
8
BLACK
6
CONTINUOUS
10
1.60827
20
0.848819
11
1.60754
21
0.841861
0
LINE
8
BLACK
6
CONTINUOUS
10
1.60754
20
0.841861
11
1.60537
21
0.835208
0
LINE
8
BLACK
6
CONTINUOUS
10
1.60537
20
0.835208
11
1.60188
21
0.829149
0
LINE
8
BLACK
6
CONTINUOUS
10
1.60188
20
0.829149
11
1.5972
21
0.82395
0
LINE
8
BLACK
6
CONTINUOUS
10
1.5972
20
0.82395
11
1.59154
21
0.819838
0
LINE
8
BLACK
6
CONTINUOUS
10
1.59154
20
0.819838
11
1.58514
21
0.816992
0
LINE
8
BLACK
6
CONTINUOUS
10
1.58514
20
0.816992
11
1.5783
21
0.815538
0
LINE
8
BLACK
6
CONTINUOUS
10
1.5783
20
0.815538
11
1.57131
21
0.815538
0
LINE
8
BLACK
6
CONTINUOUS
10
1.57131
20
0.815538
11
1.56446
21
0.816992
0
LINE
8
BLACK
6
CONTINUOUS
10
1.56446
20
0.816992
11
1.55807
21
0.819838
0
LINE
8
BLACK
6
CONTINUOUS
10
1.55807
20
0.819838
11
1.55241
21
0.82395
0
LINE
8
BLACK
6
CONTINUOUS
10
1.55241
20
0.82395
11
1.54773
21
0.829149
0
LINE
8
BLACK
6
CONTINUOUS
10
1.54773
20
0.829149
11
1.54423
21
0.835208
0
LINE
8
BLACK
6
CONTINUOUS
10
1.54423
20
0.835208
11
1.54207
21
0.841861
0
LINE
8
BLACK
6
CONTINUOUS
10
1.54207
20
0.841861
11
1.54134
21
0.848819
0
LINE
8
BLACK
6
CONTINUOUS
10
1.54134
20
0.848819
11
1.54207
21
0.855777
0
LINE
8
BLACK
6
CONTINUOUS
10
1.54207
20
0.855777
11
1.54423
21
0.86243
0
LINE
8
BLACK
6
CONTINUOUS
10
1.54423
20
0.86243
11
1.54773
21
0.868489
0
LINE
8
BLACK
6
CONTINUOUS
10
1.54773
20
0.868489
11
1.55241
21
0.873688
0
LINE
8
BLACK
6
CONTINUOUS
10
1.55241
20
0.873688
11
1.55807
21
0.8778
0
LINE
8
BLACK
6
CONTINUOUS
10
1.55807
20
0.8778
11
1.56446
21
0.880646
0
LINE
8
BLACK
6
CONTINUOUS
10
1.56446
20
0.880646
11
1.57131
21
0.8821
0
LINE
8
BLACK
6
CONTINUOUS
10
1.57131
20
0.8821
11
1.5783
21
0.8821
0
LINE
8
BLACK
6
CONTINUOUS
10
1.5783
20
0.8821
11
1.58514
21
0.880646
0
LINE
8
BLACK
6
CONTINUOUS
10
1.68514
20
0.880646
11
1.69154
21
0.8778
0
LINE
8
BLACK
6
CONTINUOUS
10
1.69154
20
0.8778
11
1.6972
21
0.873688
0
LINE
8
BLACK
6
CONTINUOUS
10
1.6972
20
0.873688
11
1.70188
21
0.868489
0
LINE
8
BLACK
6
CONTINUOUS
10
1.70188
20
0.868489
11
1.70537
21
0.86243
0
LINE
8
BLACK
6
CONTINUOUS
10
1.70537
20
0.86243
11
1.70754
21
0.855777
0
LINE
8
BLACK
6
CONTINUOUS
10
1.70754
20
0.855777
11
1.70827
21
0.848819
0
LINE
8
BLACK
6
CONTINUOUS
10
1.70827
20
0.848819
11
1.70754
21
0.841861
0
LINE
8
BLACK
6
CONTINUOUS
10
1.70754
20
0.841861
11
1.70537
21
0.835208
0
LINE
8
BLACK
6
CONTINUOUS
10
1.70537
20
0.835208
11
1.70188
21
0.829149
0
LINE
8
BLACK
6
CONTINUOUS
10
1.70188
20
0.829149
11
1.6972
21
0.82395
0
LINE
8
BLACK
6
CONTINUOUS
10
1.6972
20
0.82395
11
1.69154
21
0.819838
0
LINE
8
BLACK
6
CONTINUOUS
10
1.69154
20
0.819838
11
1.68514
21
0.816992
0
LINE
8
BLACK
6
CONTINUOUS
10
1.68514
20
0.816992
11
1.6783
21
0.815538
0
LINE
8
BLACK
6
CONTINUOUS
10
1.6783
20
0.815538
11
1.67131
21
0.815538
0
LINE
8
BLACK
6
CONTINUOUS
10
1.67131
20
0.815538
11
1.66446
21
0.816992
0
LINE
8
BLACK
6
CONTINUOUS
10
1.66446
20
0.816992
11
1.65807
21
0.819838
0
LINE
8
BLACK
6
CONTINUOUS
10
1.65807
20
0.819838
11
1.65241
21
0.82395
0
LINE
8
BLACK
6
CONTINUOUS
10
1.65241
20
0.82395
11
1.64773
21
0.829149
0
LINE
8
BLACK
6
CONTINUOUS
10
1.64773
20
0.829149
11
1.64423
21
0.835208
0
LINE
8
BLACK
6
CONTINUOUS
10
1.64423
20
0.835208
11
1.64207
21
0.841861
0
LINE
8
BLACK
6
CONTINUOUS
10
1.64207
20
0.841861
11
1.64134
21
0.848819
0
LINE
8
BLACK
6
CONTINUOUS
10
1.64134
20
0.848819
11
1.64207
21
0.855777
0
LINE
8
BLACK
6
CONTINUOUS
10
1.64207
20
0.855777
11
1.64423
21
0.86243
0
LINE
8
BLACK
6
CONTINUOUS
10
1.64423
20
0.86243
11
1.64773
21
0.868489
0
LINE
8
BLACK
6
CONTINUOUS
10
1.64773
20
0.868489
11
1.65241
21
0.873688
0
LINE
8
BLACK
6
CONTINUOUS
10
1.65241
20
0.873688
11
1.65807
21
0.8778
0
LINE
8
BLACK
6
CONTINUOUS
10
1.65807
20
0.8778
11
1.66446
21
0.880646
0
LINE
8
BLACK
6
CONTINUOUS
10
1.66446
20
0.880646
11
1.67131
21
0.8821
0
LINE
8
BLACK
6
CONTINUOUS
10
1.67131
20
0.8821
11
1.6783
21
0.8821
0
LINE
8
BLACK
6
CONTINUOUS
10
1.6783
20
0.8821
11
1.68514
21
0.880646
0
LINE
8
BLACK
6
CONTINUOUS
10
0.571562
20
0.912339
11
0.577953
21
0.909493
0
LINE
8
BLACK
6
CONTINUOUS
10
0.577953
20
0.909493
11
0.583613
21
0.905381
0
LINE
8
BLACK
6
CONTINUOUS
10
0.583613
20
0.905381
11
0.588294
21
0.900182
0
LINE
8
BLACK
6
CONTINUOUS
10
0.588294
20
0.900182
11
0.591792
21
0.894123
0
LINE
8
BLACK
6
CONTINUOUS
10
0.591792
20
0.894123
11
0.593954
21
0.887469
0
LINE
8
BLACK
6
CONTINUOUS
10
0.593954
20
0.887469
11
0.594685
21
0.880512
0
LINE
8
BLACK
6
CONTINUOUS
10
0.594685
20
0.880512
11
0.593954
21
0.873554
0
LINE
8
BLACK
6
CONTINUOUS
10
0.593954
20
0.873554
11
0.591792
21
0.866901
0
LINE
8
BLACK
6
CONTINUOUS
10
0.591792
20
0.866901
11
0.588294
21
0.860842
0
LINE
8
BLACK
6
CONTINUOUS
10
0.588294
20
0.860842
11
0.583613
21
0.855643
0
LINE
8
BLACK
6
CONTINUOUS
10
0.583613
20
0.855643
11
0.577953
21
0.851531
0
LINE
8
BLACK
6
CONTINUOUS
10
0.577953
20
0.851531
11
0.571562
21
0.848685
0
LINE
8
BLACK
6
CONTINUOUS
10
0.571562
20
0.848685
11
0.564718
21
0.847231
0
LINE
8
BLACK
6
CONTINUOUS
10
0.564718
20
0.847231
11
0.557722
21
0.847231
0
LINE
8
BLACK
6
CONTINUOUS
10
0.557722
20
0.847231
11
0.550879
21
0.848685
0
LINE
8
BLACK
6
CONTINUOUS
10
0.550879
20
0.848685
11
0.544488
21
0.851531
0
LINE
8
BLACK
6
CONTINUOUS
10
0.544488
20
0.851531
11
0.538828
21
0.855643
0
LINE
8
BLACK
6
CONTINUOUS
10
0.538828
20
0.855643
11
0.534147
21
0.860842
0
LINE
8
BLACK
6
CONTINUOUS
10
0.534147
20
0.860842
11
0.530649
21
0.866901
0
LINE
8
BLACK
6
CONTINUOUS
10
0.530649
20
0.866901
11
0.528487
21
0.873554
0
LINE
8
BLACK
6
CONTINUOUS
10
0.528487
20
0.873554
11
0.527756
21
0.880512
0
LINE
8
BLACK
6
CONTINUOUS
10
0.527756
20
0.880512
11
0.528487
21
0.887469
0
LINE
8
BLACK
6
CONTINUOUS
10
0.528487
20
0.887469
11
0.530649
21
0.894123
0
LINE
8
BLACK
6
CONTINUOUS
10
0.530649
20
0.894123
11
0.534147
21
0.900182
0
LINE
8
BLACK
6
CONTINUOUS
10
0.534147
20
0.900182
11
0.538828
21
0.905381
0
LINE
8
BLACK
6
CONTINUOUS
10
0.538828
20
0.905381
11
0.544488
21
0.909493
0
LINE
8
BLACK
6
CONTINUOUS
10
0.544488
20
0.909493
11
0.550879
21
0.912339
0
LINE
8
BLACK
6
CONTINUOUS
10
0.550879
20
0.912339
11
0.557722
21
0.913793
0
LINE
8
BLACK
6
CONTINUOUS
10
0.557722
20
0.913793
11
0.564718
21
0.913793
0
LINE
8
BLACK
6
CONTINUOUS
10
0.564718
20
0.913793
11
0.571562
21
0.912339
0
LINE
8
BLACK
6
CONTINUOUS
10
0.671562
20
0.912339
11
0.677953
21
0.909493
0
LINE
8
BLACK
6
CONTINUOUS
10
0.677953
20
0.909493
11
0.683613
21
0.905381
0
LINE
8
BLACK
6
CONTINUOUS
10
0.683613
20
0.905381
11
0.688294
21
0.900182
0
LINE
8
BLACK
6
CONTINUOUS
10
0.688294
20
0.900182
11
0.691792
21
0.894123
0
LINE
8
BLACK
6
CONTINUOUS
10
0.691792
20
0.894123
11
0.693954
21
0.887469
0
LINE
8
BLACK
6
CONTINUOUS
10
0.693954
20
0.887469
11
0.694685
21
0.880512
0
LINE
8
BLACK
6
CONTINUOUS
10
0.694685
20
0.880512
11
0.693954
21
0.873554
0
LINE
8
BLACK
6
CONTINUOUS
10
0.693954
20
0.873554
11
0.691792
21
0.866901
0
LINE
8
BLACK
6
CONTINUOUS
10
0.691792
20
0.866901
11
0.688294
21
0.860842
0
LINE
8
BLACK
6
CONTINUOUS
10
0.688294
20
0.860842
11
0.683613
21
0.855643
0
LINE
8
BLACK
6
CONTINUOUS
10
0.683613
20
0.855643
11
0.677953
21
0.851531
0
LINE
8
BLACK
6
CONTINUOUS
10
0.677953
20
0.851531
11
0.671562
21
0.848685
0
LINE
8
BLACK
6
CONTINUOUS
10
0.671562
20
0.848685
11
0.664718
21
0.847231
0
LINE
8
BLACK
6
CONTINUOUS
10
0.664718
20
0.847231
11
0.657722
21
0.847231
0
LINE
8
BLACK
6
CONTINUOUS
10
0.657722
20
0.847231
11
0.650879
21
0.848685
0
LINE
8
BLACK
6
CONTINUOUS
10
0.650879
20
0.848685
11
0.644488
21
0.851531
0
LINE
8
BLACK
6
CONTINUOUS
10
0.644488
20
0.851531
11
0.638828
21
0.855643
0
LINE
8
BLACK
6
CONTINUOUS
10
0.638828
20
0.855643
11
0.634147
21
0.860842
0
LINE
8
BLACK
6
CONTINUOUS
10
0.634147
20
0.860842
11
0.630649
21
0.866901
0
LINE
8
BLACK
6
CONTINUOUS
10
0.630649
20
0.866901
11
0.628487
21
0.873554
0
LINE
8
BLACK
6
CONTINUOUS
10
0.628487
20
0.873554
11
0.627756
21
0.880512
0
LINE
8
BLACK
6
CONTINUOUS
10
0.627756
20
0.880512
11
0.628487
21
0.887469
0
LINE
8
BLACK
6
CONTINUOUS
10
0.628487
20
0.887469
11
0.630649
21
0.894123
0
LINE
8
BLACK
6
CONTINUOUS
10
0.630649
20
0.894123
11
0.634147
21
0.900182
0
LINE
8
BLACK
6
CONTINUOUS
10
0.634147
20
0.900182
11
0.638828
21
0.905381
0
LINE
8
BLACK
6
CONTINUOUS
10
0.638828
20
0.905381
11
0.644488
21
0.909493
0
LINE
8
BLACK
6
CONTINUOUS
10
0.644488
20
0.909493
11
0.650879
21
0.912339
0
LINE
8
BLACK
6
CONTINUOUS
10
0.650879
20
0.912339
11
0.657722
21
0.913793
0
LINE
8
BLACK
6
CONTINUOUS
10
0.657722
20
0.913793
11
0.664718
21
0.913793
0
LINE
8
BLACK
6
CONTINUOUS
10
0.664718
20
0.913793
11
0.671562
21
0.912339
0
LINE
8
BLACK
6
CONTINUOUS
10
1.60827
20
0.915354
11
1.54134
21
0.915354
0
LINE
8
BLACK
6
CONTINUOUS
10
1.54134
20
0.915354
11
1.54134
21
0.982283
0
LINE
8
BLACK
6
CONTINUOUS
10
1.54134
20
0.982283
11
1.60827
21
0.982283
0
LINE
8
BLACK
6
CONTINUOUS
10
1.60827
20
0.982283
11
1.60827
21
0.915354
0
LINE
8
BLACK
6
CONTINUOUS
10
1.68514
20
0.980646
11
1.69154
21
0.9778
0
LINE
8
BLACK
6
CONTINUOUS
10
1.69154
20
0.9778
11
1.6972
21
0.973688
0
LINE
8
BLACK
6
CONTINUOUS
10
1.6972
20
0.973688
11
1.70188
21
0.968489
0
LINE
8
BLACK
6
CONTINUOUS
10
1.70188
20
0.968489
11
1.70537
21
0.96243
0
LINE
8
BLACK
6
CONTINUOUS
10
1.70537
20
0.96243
11
1.70754
21
0.955777
0
LINE
8
BLACK
6
CONTINUOUS
10
1.70754
20
0.955777
11
1.70827
21
0.948819
0
LINE
8
BLACK
6
CONTINUOUS
10
1.70827
20
0.948819
11
1.70754
21
0.941861
0
LINE
8
BLACK
6
CONTINUOUS
10
1.70754
20
0.941861
11
1.70537
21
0.935208
0
LINE
8
BLACK
6
CONTINUOUS
10
1.70537
20
0.935208
11
1.70188
21
0.929149
0
LINE
8
BLACK
6
CONTINUOUS
10
1.70188
20
0.929149
11
1.6972
21
0.92395
0
LINE
8
BLACK
6
CONTINUOUS
10
1.6972
20
0.92395
11
1.69154
21
0.919838
0
LINE
8
BLACK
6
CONTINUOUS
10
1.69154
20
0.919838
11
1.68514
21
0.916992
0
LINE
8
BLACK
6
CONTINUOUS
10
1.68514
20
0.916992
11
1.6783
21
0.915538
0
LINE
8
BLACK
6
CONTINUOUS
10
1.6783
20
0.915538
11
1.67131
21
0.915538
0
LINE
8
BLACK
6
CONTINUOUS
10
1.67131
20
0.915538
11
1.66446
21
0.916992
0
LINE
8
BLACK
6
CONTINUOUS
10
1.66446
20
0.916992
11
1.65807
21
0.919838
0
LINE
8
BLACK
6
CONTINUOUS
10
1.65807
20
0.919838
11
1.65241
21
0.92395
0
LINE
8
BLACK
6
CONTINUOUS
10
1.65241
20
0.92395
11
1.64773
21
0.929149
0
LINE
8
BLACK
6
CONTINUOUS
10
1.64773
20
0.929149
11
1.64423
21
0.935208
0
LINE
8
BLACK
6
CONTINUOUS
10
1.64423
20
0.935208
11
1.64207
21
0.941861
0
LINE
8
BLACK
6
CONTINUOUS
10
1.64207
20
0.941861
11
1.64134
21
0.948819
0
LINE
8
BLACK
6
CONTINUOUS
10
1.64134
20
0.948819
11
1.64207
21
0.955777
0
LINE
8
BLACK
6
CONTINUOUS
10
1.64207
20
0.955777
11
1.64423
21
0.96243
0
LINE
8
BLACK
6
CONTINUOUS
10
1.64423
20
0.96243
11
1.64773
21
0.968489
0
LINE
8
BLACK
6
CONTINUOUS
10
1.64773
20
0.968489
11
1.65241
21
0.973688
0
LINE
8
BLACK
6
CONTINUOUS
10
1.65241
20
0.973688
11
1.65807
21
0.9778
0
LINE
8
BLACK
6
CONTINUOUS
10
1.65807
20
0.9778
11
1.66446
21
0.980646
0
LINE
8
BLACK
6
CONTINUOUS
10
1.66446
20
0.980646
11
1.67131
21
0.9821
0
LINE
8
BLACK
6
CONTINUOUS
10
1.67131
20
0.9821
11
1.6783
21
0.9821
0
LINE
8
BLACK
6
CONTINUOUS
10
1.6783
20
0.9821
11
1.68514
21
0.980646
0
LINE
8
BLACK
6
CONTINUOUS
10
0.571562
20
1.01234
11
0.577953
21
1.00949
0
LINE
8
BLACK
6
CONTINUOUS
10
0.577953
20
1.00949
11
0.583613
21
1.00538
0
LINE
8
BLACK
6
CONTINUOUS
10
0.583613
20
1.00538
11
0.588294
21
1.00018
0
LINE
8
BLACK
6
CONTINUOUS
10
0.588294
20
1.00018
11
0.591792
21
0.994123
0
LINE
8
BLACK
6
CONTINUOUS
10
0.591792
20
0.994123
11
0.593954
21
0.987469
0
LINE
8
BLACK
6
CONTINUOUS
10
0.593954
20
0.987469
11
0.594685
21
0.980512
0
LINE
8
BLACK
6
CONTINUOUS
10
0.594685
20
0.980512
11
0.593954
21
0.973554
0
LINE
8
BLACK
6
CONTINUOUS
10
0.593954
20
0.973554
11
0.591792
21
0.966901
0
LINE
8
BLACK
6
CONTINUOUS
10
0.591792
20
0.966901
11
0.588294
21
0.960842
0
LINE
8
BLACK
6
CONTINUOUS
10
0.588294
20
0.960842
11
0.583613
21
0.955643
0
LINE
8
BLACK
6
CONTINUOUS
10
0.583613
20
0.955643
11
0.577953
21
0.951531
0
LINE
8
BLACK
6
CONTINUOUS
10
0.577953
20
0.951531
11
0.571562
21
0.948685
0
LINE
8
BLACK
6
CONTINUOUS
10
0.571562
20
0.948685
11
0.564718
21
0.947231
0
LINE
8
BLACK
6
CONTINUOUS
10
0.564718
20
0.947231
11
0.557722
21
0.947231
0
LINE
8
BLACK
6
CONTINUOUS
10
0.557722
20
0.947231
11
0.550879
21
0.948685
0
LINE
8
BLACK
6
CONTINUOUS
10
0.550879
20
0.948685
11
0.544488
21
0.951531
0
LINE
8
BLACK
6
CONTINUOUS
10
0.544488
20
0.951531
11
0.538828
21
0.955643
0
LINE
8
BLACK
6
CONTINUOUS
10
0.538828
20
0.955643
11
0.534147
21
0.960842
0
LINE
8
BLACK
6
CONTINUOUS
10
0.534147
20
0.960842
11
0.530649
21
0.966901
0
LINE
8
BLACK
6
CONTINUOUS
10
0.530649
20
0.966901
11
0.528487
21
0.973554
0
LINE
8
BLACK
6
CONTINUOUS
10
0.528487
20
0.973554
11
0.527756
21
0.980512
0
LINE
8
BLACK
6
CONTINUOUS
10
0.527756
20
0.980512
11
0.528487
21
0.987469
0
LINE
8
BLACK
6
CONTINUOUS
10
0.528487
20
0.987469
11
0.530649
21
0.994123
0
LINE
8
BLACK
6
CONTINUOUS
10
0.530649
20
0.994123
11
0.534147
21
1.00018
0
LINE
8
BLACK
6
CONTINUOUS
10
0.534147
20
1.00018
11
0.538828
21
1.00538
0
LINE
8
BLACK
6
CONTINUOUS
10
0.538828
20
1.00538
11
0.544488
21
1.00949
0
LINE
8
BLACK
6
CONTINUOUS
10
0.544488
20
1.00949
11
0.550879
21
1.01234
0
LINE
8
BLACK
6
CONTINUOUS
10
0.550879
20
1.01234
11
0.557722
21
1.01379
0
LINE
8
BLACK
6
CONTINUOUS
10
0.557722
20
1.01379
11
0.564718
21
1.01379
0
LINE
8
BLACK
6
CONTINUOUS
10
0.564718
20
1.01379
11
0.571562
21
1.01234
0
LINE
8
BLACK
6
CONTINUOUS
10
0.671562
20
1.01234
11
0.677953
21
1.00949
0
LINE
8
BLACK
6
CONTINUOUS
10
0.677953
20
1.00949
11
0.683613
21
1.00538
0
LINE
8
BLACK
6
CONTINUOUS
10
0.683613
20
1.00538
11
0.688294
21
1.00018
0
LINE
8
BLACK
6
CONTINUOUS
10
0.688294
20
1.00018
11
0.691792
21
0.994123
0
LINE
8
BLACK
6
CONTINUOUS
10
0.691792
20
0.994123
11
0.693954
21
0.987469
0
LINE
8
BLACK
6
CONTINUOUS
10
0.693954
20
0.987469
11
0.694685
21
0.980512
0
LINE
8
BLACK
6
CONTINUOUS
10
0.694685
20
0.980512
11
0.693954
21
0.973554
0
LINE
8
BLACK
6
CONTINUOUS
10
0.693954
20
0.973554
11
0.691792
21
0.966901
0
LINE
8
BLACK
6
CONTINUOUS
10
0.691792
20
0.966901
11
0.688294
21
0.960842
0
LINE
8
BLACK
6
CONTINUOUS
10
0.688294
20
0.960842
11
0.683613
21
0.955643
0
LINE
8
BLACK
6
CONTINUOUS
10
0.683613
20
0.955643
11
0.677953
21
0.951531
0
LINE
8
BLACK
6
CONTINUOUS
10
0.677953
20
0.951531
11
0.671562
21
0.948685
0
LINE
8
BLACK
6
CONTINUOUS
10
0.671562
20
0.948685
11
0.664718
21
0.947231
0
LINE
8
BLACK
6
CONTINUOUS
10
0.664718
20
0.947231
11
0.657722
21
0.947231
0
LINE
8
BLACK
6
CONTINUOUS
10
0.657722
20
0.947231
11
0.650879
21
0.948685
0
LINE
8
BLACK
6
CONTINUOUS
10
0.650879
20
0.948685
11
0.644488
21
0.951531
0
LINE
8
BLACK
6
CONTINUOUS
10
0.644488
20
0.951531
11
0.638828
21
0.955643
0
LINE
8
BLACK
6
CONTINUOUS
10
0.638828
20
0.955643
11
0.634147
21
0.960842
0
LINE
8
BLACK
6
CONTINUOUS
10
0.634147
20
0.960842
11
0.630649
21
0.966901
0
LINE
8
BLACK
6
CONTINUOUS
10
0.630649
20
0.966901
11
0.628487
21
0.973554
0
LINE
8
BLACK
6
CONTINUOUS
10
0.628487
20
0.973554
11
0.627756
21
0.980512
0
LINE
8
BLACK
6
CONTINUOUS
10
0.627756
20
0.980512
11
0.628487
21
0.987469
0
LINE
8
BLACK
6
CONTINUOUS
10
0.628487
20
0.987469
11
0.630649
21
0.994123
0
LINE
8
BLACK
6
CONTINUOUS
10
0.630649
20
0.994123
11
0.634147
21
1.00018
0
LINE
8
BLACK
6
CONTINUOUS
10
0.634147
20
1.00018
11
0.638828
21
1.00538
0
LINE
8
BLACK
6
CONTINUOUS
10
0.638828
20
1.00538
11
0.644488
21
1.00949
0
LINE
8
BLACK
6
CONTINUOUS
10
0.644488
20
1.00949
11
0.650879
21
1.01234
0
LINE
8
BLACK
6
CONTINUOUS
10
0.650879
20
1.01234
11
0.657722
21
1.01379
0
LINE
8
BLACK
6
CONTINUOUS
10
0.657722
20
1.01379
11
0.664718
21
1.01379
0
LINE
8
BLACK
6
CONTINUOUS
10
0.664718
20
1.01379
11
0.671562
21
1.01234
0
LINE
8
BLACK
6
CONTINUOUS
10
0.571562
20
1.11234
11
0.577953
21
1.10949
0
LINE
8
BLACK
6
CONTINUOUS
10
0.577953
20
1.10949
11
0.583613
21
1.10538
0
LINE
8
BLACK
6
CONTINUOUS
10
0.583613
20
1.10538
11
0.588294
21
1.10018
0
LINE
8
BLACK
6
CONTINUOUS
10
0.588294
20
1.10018
11
0.591792
21
1.09412
0
LINE
8
BLACK
6
CONTINUOUS
10
0.591792
20
1.09412
11
0.593954
21
1.08747
0
LINE
8
BLACK
6
CONTINUOUS
10
0.593954
20
1.08747
11
0.594685
21
1.08051
0
LINE
8
BLACK
6
CONTINUOUS
10
0.594685
20
1.08051
11
0.593954
21
1.07355
0
LINE
8
BLACK
6
CONTINUOUS
10
0.593954
20
1.07355
11
0.591792
21
1.0669
0
LINE
8
BLACK
6
CONTINUOUS
10
0.591792
20
1.0669
11
0.588294
21
1.06084
0
LINE
8
BLACK
6
CONTINUOUS
10
0.588294
20
1.06084
11
0.583613
21
1.05564
0
LINE
8
BLACK
6
CONTINUOUS
10
0.583613
20
1.05564
11
0.577953
21
1.05153
0
LINE
8
BLACK
6
CONTINUOUS
10
0.577953
20
1.05153
11
0.571562
21
1.04869
0
LINE
8
BLACK
6
CONTINUOUS
10
0.571562
20
1.04869
11
0.564718
21
1.04723
0
LINE
8
BLACK
6
CONTINUOUS
10
0.564718
20
1.04723
11
0.557722
21
1.04723
0
LINE
8
BLACK
6
CONTINUOUS
10
0.557722
20
1.04723
11
0.550879
21
1.04869
0
LINE
8
BLACK
6
CONTINUOUS
10
0.550879
20
1.04869
11
0.544488
21
1.05153
0
LINE
8
BLACK
6
CONTINUOUS
10
0.544488
20
1.05153
11
0.538828
21
1.05564
0
LINE
8
BLACK
6
CONTINUOUS
10
0.538828
20
1.05564
11
0.534147
21
1.06084
0
LINE
8
BLACK
6
CONTINUOUS
10
0.534147
20
1.06084
11
0.530649
21
1.0669
0
LINE
8
BLACK
6
CONTINUOUS
10
0.530649
20
1.0669
11
0.528487
21
1.07355
0
LINE
8
BLACK
6
CONTINUOUS
10
0.528487
20
1.07355
11
0.527756
21
1.08051
0
LINE
8
BLACK
6
CONTINUOUS
10
0.527756
20
1.08051
11
0.528487
21
1.08747
0
LINE
8
BLACK
6
CONTINUOUS
10
0.528487
20
1.08747
11
0.530649
21
1.09412
0
LINE
8
BLACK
6
CONTINUOUS
10
0.530649
20
1.09412
11
0.534147
21
1.10018
0
LINE
8
BLACK
6
CONTINUOUS
10
0.534147
20
1.10018
11
0.538828
21
1.10538
0
LINE
8
BLACK
6
CONTINUOUS
10
0.538828
20
1.10538
11
0.544488
21
1.10949
0
LINE
8
BLACK
6
CONTINUOUS
10
0.544488
20
1.10949
11
0.550879
21
1.11234
0
LINE
8
BLACK
6
CONTINUOUS
10
0.550879
20
1.11234
11
0.557722
21
1.11379
0
LINE
8
BLACK
6
CONTINUOUS
10
0.557722
20
1.11379
11
0.564718
21
1.11379
0
LINE
8
BLACK
6
CONTINUOUS
10
0.564718
20
1.11379
11
0.571562
21
1.11234
0
LINE
8
BLACK
6
CONTINUOUS
10
0.671562
20
1.11234
11
0.677953
21
1.10949
0
LINE
8
BLACK
6
CONTINUOUS
10
0.677953
20
1.10949
11
0.683613
21
1.10538
0
LINE
8
BLACK
6
CONTINUOUS
10
0.683613
20
1.10538
11
0.688294
21
1.10018
0
LINE
8
BLACK
6
CONTINUOUS
10
0.688294
20
1.10018
11
0.691792
21
1.09412
0
LINE
8
BLACK
6
CONTINUOUS
10
0.691792
20
1.09412
11
0.693954
21
1.08747
0
LINE
8
BLACK
6
CONTINUOUS
10
0.693954
20
1.08747
11
0.694685
21
1.08051
0
LINE
8
BLACK
6
CONTINUOUS
10
0.694685
20
1.08051
11
0.693954
21
1.07355
0
LINE
8
BLACK
6
CONTINUOUS
10
0.693954
20
1.07355
11
0.691792
21
1.0669
0
LINE
8
BLACK
6
CONTINUOUS
10
0.691792
20
1.0669
11
0.688294
21
1.06084
0
LINE
8
BLACK
6
CONTINUOUS
10
0.688294
20
1.06084
11
0.683613
21
1.05564
0
LINE
8
BLACK
6
CONTINUOUS
10
0.683613
20
1.05564
11
0.677953
21
1.05153
0
LINE
8
BLACK
6
CONTINUOUS
10
0.677953
20
1.05153
11
0.671562
21
1.04869
0
LINE
8
BLACK
6
CONTINUOUS
10
0.671562
20
1.04869
11
0.664718
21
1.04723
0
LINE
8
BLACK
6
CONTINUOUS
10
0.664718
20
1.04723
11
0.657722
21
1.04723
0
LINE
8
BLACK
6
CONTINUOUS
10
0.657722
20
1.04723
11
0.650879
21
1.04869
0
LINE
8
BLACK
6
CONTINUOUS
10
0.650879
20
1.04869
11
0.644488
21
1.05153
0
LINE
8
BLACK
6
CONTINUOUS
10
0.644488
20
1.05153
11
0.638828
21
1.05564
0
LINE
8
BLACK
6
CONTINUOUS
10
0.638828
20
1.05564
11
0.634147
21
1.06084
0
LINE
8
BLACK
6
CONTINUOUS
10
0.634147
20
1.06084
11
0.630649
21
1.0669
0
LINE
8
BLACK
6
CONTINUOUS
10
0.630649
20
1.0669
11
0.628487
21
1.07355
0
LINE
8
BLACK
6
CONTINUOUS
10
0.628487
20
1.07355
11
0.627756
21
1.08051
0
LINE
8
BLACK
6
CONTINUOUS
10
0.627756
20
1.08051
11
0.628487
21
1.08747
0
LINE
8
BLACK
6
CONTINUOUS
10
0.628487
20
1.08747
11
0.630649
21
1.09412
0
LINE
8
BLACK
6
CONTINUOUS
10
0.630649
20
1.09412
11
0.634147
21
1.10018
0
LINE
8
BLACK
6
CONTINUOUS
10
0.634147
20
1.10018
11
0.638828
21
1.10538
0
LINE
8
BLACK
6
CONTINUOUS
10
0.638828
20
1.10538
11
0.644488
21
1.10949
0
LINE
8
BLACK
6
CONTINUOUS
10
0.644488
20
1.10949
11
0.650879
21
1.11234
0
LINE
8
BLACK
6
CONTINUOUS
10
0.650879
20
1.11234
11
0.657722
21
1.11379
0
LINE
8
BLACK
6
CONTINUOUS
10
0.657722
20
1.11379
11
0.664718
21
1.11379
0
LINE
8
BLACK
6
CONTINUOUS
10
0.664718
20
1.11379
11
0.671562
21
1.11234
0
LINE
8
BLACK
6
CONTINUOUS
10
1.52795
20
1.13976
11
1.46102
21
1.13976
0
LINE
8
BLACK
6
CONTINUOUS
10
1.46102
20
1.13976
11
1.46102
21
1.20669
0
LINE
8
BLACK
6
CONTINUOUS
10
1.46102
20
1.20669
11
1.52795
21
1.20669
0
LINE
8
BLACK
6
CONTINUOUS
10
1.52795
20
1.20669
11
1.52795
21
1.13976
0
LINE
8
BLACK
6
CONTINUOUS
10
1.60483
20
1.20506
11
1.61122
21
1.20221
0
LINE
8
BLACK
6
CONTINUOUS
10
1.61122
20
1.20221
11
1.61688
21
1.1981
0
LINE
8
BLACK
6
CONTINUOUS
10
1.61688
20
1.1981
11
1.62156
21
1.1929
0
LINE
8
BLACK
6
CONTINUOUS
10
1.62156
20
1.1929
11
1.62506
21
1.18684
0
LINE
8
BLACK
6
CONTINUOUS
10
1.62506
20
1.18684
11
1.62722
21
1.18019
0
LINE
8
BLACK
6
CONTINUOUS
10
1.62722
20
1.18019
11
1.62795
21
1.17323
0
LINE
8
BLACK
6
CONTINUOUS
10
1.62795
20
1.17323
11
1.62722
21
1.16627
0
LINE
8
BLACK
6
CONTINUOUS
10
1.62722
20
1.16627
11
1.62506
21
1.15962
0
LINE
8
BLACK
6
CONTINUOUS
10
1.62506
20
1.15962
11
1.62156
21
1.15356
0
LINE
8
BLACK
6
CONTINUOUS
10
1.62156
20
1.15356
11
1.61688
21
1.14836
0
LINE
8
BLACK
6
CONTINUOUS
10
1.61688
20
1.14836
11
1.61122
21
1.14425
0
LINE
8
BLACK
6
CONTINUOUS
10
1.61122
20
1.14425
11
1.60483
21
1.1414
0
LINE
8
BLACK
6
CONTINUOUS
10
1.60483
20
1.1414
11
1.59799
21
1.13995
0
LINE
8
BLACK
6
CONTINUOUS
10
1.59799
20
1.13995
11
1.59099
21
1.13995
0
LINE
8
BLACK
6
CONTINUOUS
10
1.59099
20
1.13995
11
1.58415
21
1.1414
0
LINE
8
BLACK
6
CONTINUOUS
10
1.58415
20
1.1414
11
1.57776
21
1.14425
0
LINE
8
BLACK
6
CONTINUOUS
10
1.57776
20
1.14425
11
1.5721
21
1.14836
0
LINE
8
BLACK
6
CONTINUOUS
10
1.5721
20
1.14836
11
1.56741
21
1.15356
0
LINE
8
BLACK
6
CONTINUOUS
10
1.56741
20
1.15356
11
1.56392
21
1.15962
0
LINE
8
BLACK
6
CONTINUOUS
10
1.56392
20
1.15962
11
1.56175
21
1.16627
0
LINE
8
BLACK
6
CONTINUOUS
10
1.56175
20
1.16627
11
1.56102
21
1.17323
0
LINE
8
BLACK
6
CONTINUOUS
10
1.56102
20
1.17323
11
1.56175
21
1.18019
0
LINE
8
BLACK
6
CONTINUOUS
10
1.56175
20
1.18019
11
1.56392
21
1.18684
0
LINE
8
BLACK
6
CONTINUOUS
10
1.56392
20
1.18684
11
1.56741
21
1.1929
0
LINE
8
BLACK
6
CONTINUOUS
10
1.56741
20
1.1929
11
1.5721
21
1.1981
0
LINE
8
BLACK
6
CONTINUOUS
10
1.5721
20
1.1981
11
1.57776
21
1.20221
0
LINE
8
BLACK
6
CONTINUOUS
10
1.57776
20
1.20221
11
1.58415
21
1.20506
0
LINE
8
BLACK
6
CONTINUOUS
10
1.58415
20
1.20506
11
1.59099
21
1.20651
0
LINE
8
BLACK
6
CONTINUOUS
10
1.59099
20
1.20651
11
1.59799
21
1.20651
0
LINE
8
BLACK
6
CONTINUOUS
10
1.59799
20
1.20651
11
1.60483
21
1.20506
0
LINE
8
BLACK
6
CONTINUOUS
10
0.571562
20
1.21234
11
0.577953
21
1.20949
0
LINE
8
BLACK
6
CONTINUOUS
10
0.577953
20
1.20949
11
0.583613
21
1.20538
0
LINE
8
BLACK
6
CONTINUOUS
10
0.583613
20
1.20538
11
0.588294
21
1.20018
0
LINE
8
BLACK
6
CONTINUOUS
10
0.588294
20
1.20018
11
0.591792
21
1.19412
0
LINE
8
BLACK
6
CONTINUOUS
10
0.591792
20
1.19412
11
0.593954
21
1.18747
0
LINE
8
BLACK
6
CONTINUOUS
10
0.593954
20
1.18747
11
0.594685
21
1.18051
0
LINE
8
BLACK
6
CONTINUOUS
10
0.594685
20
1.18051
11
0.593954
21
1.17355
0
LINE
8
BLACK
6
CONTINUOUS
10
0.593954
20
1.17355
11
0.591792
21
1.1669
0
LINE
8
BLACK
6
CONTINUOUS
10
0.591792
20
1.1669
11
0.588294
21
1.16084
0
LINE
8
BLACK
6
CONTINUOUS
10
0.588294
20
1.16084
11
0.583613
21
1.15564
0
LINE
8
BLACK
6
CONTINUOUS
10
0.583613
20
1.15564
11
0.577953
21
1.15153
0
LINE
8
BLACK
6
CONTINUOUS
10
0.577953
20
1.15153
11
0.571562
21
1.14869
0
LINE
8
BLACK
6
CONTINUOUS
10
0.571562
20
1.14869
11
0.564718
21
1.14723
0
LINE
8
BLACK
6
CONTINUOUS
10
0.564718
20
1.14723
11
0.557722
21
1.14723
0
LINE
8
BLACK
6
CONTINUOUS
10
0.557722
20
1.14723
11
0.550879
21
1.14869
0
LINE
8
BLACK
6
CONTINUOUS
10
0.550879
20
1.14869
11
0.544488
21
1.15153
0
LINE
8
BLACK
6
CONTINUOUS
10
0.544488
20
1.15153
11
0.538828
21
1.15564
0
LINE
8
BLACK
6
CONTINUOUS
10
0.538828
20
1.15564
11
0.534147
21
1.16084
0
LINE
8
BLACK
6
CONTINUOUS
10
0.534147
20
1.16084
11
0.530649
21
1.1669
0
LINE
8
BLACK
6
CONTINUOUS
10
0.530649
20
1.1669
11
0.528487
21
1.17355
0
LINE
8
BLACK
6
CONTINUOUS
10
0.528487
20
1.17355
11
0.527756
21
1.18051
0
LINE
8
BLACK
6
CONTINUOUS
10
0.527756
20
1.18051
11
0.528487
21
1.18747
0
LINE
8
BLACK
6
CONTINUOUS
10
0.528487
20
1.18747
11
0.530649
21
1.19412
0
LINE
8
BLACK
6
CONTINUOUS
10
0.530649
20
1.19412
11
0.534147
21
1.20018
0
LINE
8
BLACK
6
CONTINUOUS
10
0.534147
20
1.20018
11
0.538828
21
1.20538
0
LINE
8
BLACK
6
CONTINUOUS
10
0.538828
20
1.20538
11
0.544488
21
1.20949
0
LINE
8
BLACK
6
CONTINUOUS
10
0.544488
20
1.20949
11
0.550879
21
1.21234
0
LINE
8
BLACK
6
CONTINUOUS
10
0.550879
20
1.21234
11
0.557722
21
1.21379
0
LINE
8
BLACK
6
CONTINUOUS
10
0.557722
20
1.21379
11
0.564718
21
1.21379
0
LINE
8
BLACK
6
CONTINUOUS
10
0.564718
20
1.21379
11
0.571562
21
1.21234
0
LINE
8
BLACK
6
CONTINUOUS
10
0.671562
20
1.21234
11
0.677953
21
1.20949
0
LINE
8
BLACK
6
CONTINUOUS
10
0.677953
20
1.20949
11
0.683613
21
1.20538
0
LINE
8
BLACK
6
CONTINUOUS
10
0.683613
20
1.20538
11
0.688294
21
1.20018
0
LINE
8
BLACK
6
CONTINUOUS
10
0.688294
20
1.20018
11
0.691792
21
1.19412
0
LINE
8
BLACK
6
CONTINUOUS
10
0.691792
20
1.19412
11
0.693954
21
1.18747
0
LINE
8
BLACK
6
CONTINUOUS
10
0.693954
20
1.18747
11
0.694685
21
1.18051
0
LINE
8
BLACK
6
CONTINUOUS
10
0.694685
20
1.18051
11
0.693954
21
1.17355
0
LINE
8
BLACK
6
CONTINUOUS
10
0.693954
20
1.17355
11
0.691792
21
1.1669
0
LINE
8
BLACK
6
CONTINUOUS
10
0.691792
20
1.1669
11
0.688294
21
1.16084
0
LINE
8
BLACK
6
CONTINUOUS
10
0.688294
20
1.16084
11
0.683613
21
1.15564
0
LINE
8
BLACK
6
CONTINUOUS
10
0.683613
20
1.15564
11
0.677953
21
1.15153
0
LINE
8
BLACK
6
CONTINUOUS
10
0.677953
20
1.15153
11
0.671562
21
1.14869
0
LINE
8
BLACK
6
CONTINUOUS
10
0.671562
20
1.14869
11
0.664718
21
1.14723
0
LINE
8
BLACK
6
CONTINUOUS
10
0.664718
20
1.14723
11
0.657722
21
1.14723
0
LINE
8
BLACK
6
CONTINUOUS
10
0.657722
20
1.14723
11
0.650879
21
1.14869
0
LINE
8
BLACK
6
CONTINUOUS
10
0.650879
20
1.14869
11
0.644488
21
1.15153
0
LINE
8
BLACK
6
CONTINUOUS
10
0.644488
20
1.15153
11
0.638828
21
1.15564
0
LINE
8
BLACK
6
CONTINUOUS
10
0.638828
20
1.15564
11
0.634147
21
1.16084
0
LINE
8
BLACK
6
CONTINUOUS
10
0.634147
20
1.16084
11
0.630649
21
1.1669
0
LINE
8
BLACK
6
CONTINUOUS
10
0.630649
20
1.1669
11
0.628487
21
1.17355
0
LINE
8
BLACK
6
CONTINUOUS
10
0.628487
20
1.17355
11
0.627756
21
1.18051
0
LINE
8
BLACK
6
CONTINUOUS
10
0.627756
20
1.18051
11
0.628487
21
1.18747
0
LINE
8
BLACK
6
CONTINUOUS
10
0.628487
20
1.18747
11
0.630649
21
1.19412
0
LINE
8
BLACK
6
CONTINUOUS
10
0.630649
20
1.19412
11
0.634147
21
1.20018
0
LINE
8
BLACK
6
CONTINUOUS
10
0.634147
20
1.20018
11
0.638828
21
1.20538
0
LINE
8
BLACK
6
CONTINUOUS
10
0.638828
20
1.20538
11
0.644488
21
1.20949
0
LINE
8
BLACK
6
CONTINUOUS
10
0.644488
20
1.20949
11
0.650879
21
1.21234
0
LINE
8
BLACK
6
CONTINUOUS
10
0.650879
20
1.21234
11
0.657722
21
1.21379
0
LINE
8
BLACK
6
CONTINUOUS
10
0.657722
20
1.21379
11
0.664718
21
1.21379
0
LINE
8
BLACK
6
CONTINUOUS
10
0.664718
20
1.21379
11
0.671562
21
1.21234
0
LINE
8
BLACK
6
CONTINUOUS
10
0.594685
20
1.24705
11
0.527756
21
1.24705
0
LINE
8
BLACK
6
CONTINUOUS
10
0.527756
20
1.24705
11
0.527756
21
1.31398
0
LINE
8
BLACK
6
CONTINUOUS
10
0.527756
20
1.31398
11
0.594685
21
1.31398
0
LINE
8
BLACK
6
CONTINUOUS
10
0.594685
20
1.31398
11
0.594685
21
1.24705
0
LINE
8
BLACK
6
CONTINUOUS
10
0.671562
20
1.31234
11
0.677953
21
1.30949
0
LINE
8
BLACK
6
CONTINUOUS
10
0.677953
20
1.30949
11
0.683613
21
1.30538
0
LINE
8
BLACK
6
CONTINUOUS
10
0.683613
20
1.30538
11
0.688294
21
1.30018
0
LINE
8
BLACK
6
CONTINUOUS
10
0.688294
20
1.30018
11
0.691792
21
1.29412
0
LINE
8
BLACK
6
CONTINUOUS
10
0.691792
20
1.29412
11
0.693954
21
1.28747
0
LINE
8
BLACK
6
CONTINUOUS
10
0.693954
20
1.28747
11
0.694685
21
1.28051
0
LINE
8
BLACK
6
CONTINUOUS
10
0.694685
20
1.28051
11
0.693954
21
1.27355
0
LINE
8
BLACK
6
CONTINUOUS
10
0.693954
20
1.27355
11
0.691792
21
1.2669
0
LINE
8
BLACK
6
CONTINUOUS
10
0.691792
20
1.2669
11
0.688294
21
1.26084
0
LINE
8
BLACK
6
CONTINUOUS
10
0.688294
20
1.26084
11
0.683613
21
1.25564
0
LINE
8
BLACK
6
CONTINUOUS
10
0.683613
20
1.25564
11
0.677953
21
1.25153
0
LINE
8
BLACK
6
CONTINUOUS
10
0.677953
20
1.25153
11
0.671562
21
1.24869
0
LINE
8
BLACK
6
CONTINUOUS
10
0.671562
20
1.24869
11
0.664718
21
1.24723
0
LINE
8
BLACK
6
CONTINUOUS
10
0.664718
20
1.24723
11
0.657722
21
1.24723
0
LINE
8
BLACK
6
CONTINUOUS
10
0.657722
20
1.24723
11
0.650879
21
1.24869
0
LINE
8
BLACK
6
CONTINUOUS
10
0.650879
20
1.24869
11
0.644488
21
1.25153
0
LINE
8
BLACK
6
CONTINUOUS
10
0.644488
20
1.25153
11
0.638828
21
1.25564
0
LINE
8
BLACK
6
CONTINUOUS
10
0.638828
20
1.25564
11
0.634147
21
1.26084
0
LINE
8
BLACK
6
CONTINUOUS
10
0.634147
20
1.26084
11
0.630649
21
1.2669
0
LINE
8
BLACK
6
CONTINUOUS
10
0.630649
20
1.2669
11
0.628487
21
1.27355
0
LINE
8
BLACK
6
CONTINUOUS
10
0.628487
20
1.27355
11
0.627756
21
1.28051
0
LINE
8
BLACK
6
CONTINUOUS
10
0.627756
20
1.28051
11
0.628487
21
1.28747
0
LINE
8
BLACK
6
CONTINUOUS
10
0.628487
20
1.28747
11
0.630649
21
1.29412
0
LINE
8
BLACK
6
CONTINUOUS
10
0.630649
20
1.29412
11
0.634147
21
1.30018
0
LINE
8
BLACK
6
CONTINUOUS
10
0.634147
20
1.30018
11
0.638828
21
1.30538
0
LINE
8
BLACK
6
CONTINUOUS
10
0.638828
20
1.30538
11
0.644488
21
1.30949
0
LINE
8
BLACK
6
CONTINUOUS
10
0.644488
20
1.30949
11
0.650879
21
1.31234
0
LINE
8
BLACK
6
CONTINUOUS
10
0.650879
20
1.31234
11
0.657722
21
1.31379
0
LINE
8
BLACK
6
CONTINUOUS
10
0.657722
20
1.31379
11
0.664718
21
1.31379
0
LINE
8
BLACK
6
CONTINUOUS
10
0.664718
20
1.31379
11
0.671562
21
1.31234
0
LINE
8
BLACK
6
CONTINUOUS
10
1.00197
20
1.36348
11
0.935039
21
1.36348
0
LINE
8
BLACK
6
CONTINUOUS
10
0.935039
20
1.36348
11
0.935039
21
1.43041
0
LINE
8
BLACK
6
CONTINUOUS
10
0.935039
20
1.43041
11
1.00197
21
1.43041
0
LINE
8
BLACK
6
CONTINUOUS
10
1.00197
20
1.43041
11
1.00197
21
1.36348
0
LINE
8
BLACK
6
CONTINUOUS
10
1.07885
20
1.42878
11
1.08524
21
1.42593
0
LINE
8
BLACK
6
CONTINUOUS
10
1.08524
20
1.42593
11
1.0909
21
1.42182
0
LINE
8
BLACK
6
CONTINUOUS
10
1.0909
20
1.42182
11
1.09558
21
1.41662
0
LINE
8
BLACK
6
CONTINUOUS
10
1.09558
20
1.41662
11
1.09908
21
1.41056
0
LINE
8
BLACK
6
CONTINUOUS
10
1.09908
20
1.41056
11
1.10124
21
1.40391
0
LINE
8
BLACK
6
CONTINUOUS
10
1.10124
20
1.40391
11
1.10197
21
1.39695
0
LINE
8
BLACK
6
CONTINUOUS
10
1.10197
20
1.39695
11
1.10124
21
1.38999
0
LINE
8
BLACK
6
CONTINUOUS
10
1.10124
20
1.38999
11
1.09908
21
1.38334
0
LINE
8
BLACK
6
CONTINUOUS
10
1.09908
20
1.38334
11
1.09558
21
1.37728
0
LINE
8
BLACK
6
CONTINUOUS
10
1.09558
20
1.37728
11
1.0909
21
1.37208
0
LINE
8
BLACK
6
CONTINUOUS
10
1.0909
20
1.37208
11
1.08524
21
1.36797
0
LINE
8
BLACK
6
CONTINUOUS
10
1.08524
20
1.36797
11
1.07885
21
1.36512
0
LINE
8
BLACK
6
CONTINUOUS
10
1.07885
20
1.36512
11
1.072
21
1.36367
0
LINE
8
BLACK
6
CONTINUOUS
10
1.072
20
1.36367
11
1.06501
21
1.36367
0
LINE
8
BLACK
6
CONTINUOUS
10
1.06501
20
1.36367
11
1.05816
21
1.36512
0
LINE
8
BLACK
6
CONTINUOUS
10
1.05816
20
1.36512
11
1.05177
21
1.36797
0
LINE
8
BLACK
6
CONTINUOUS
10
1.05177
20
1.36797
11
1.04611
21
1.37208
0
LINE
8
BLACK
6
CONTINUOUS
10
1.04611
20
1.37208
11
1.04143
21
1.37728
0
LINE
8
BLACK
6
CONTINUOUS
10
1.04143
20
1.37728
11
1.03793
21
1.38334
0
LINE
8
BLACK
6
CONTINUOUS
10
1.03793
20
1.38334
11
1.03577
21
1.38999
0
LINE
8
BLACK
6
CONTINUOUS
10
1.03577
20
1.38999
11
1.03504
21
1.39695
0
LINE
8
BLACK
6
CONTINUOUS
10
1.03504
20
1.39695
11
1.03577
21
1.40391
0
LINE
8
BLACK
6
CONTINUOUS
10
1.03577
20
1.40391
11
1.03793
21
1.41056
0
LINE
8
BLACK
6
CONTINUOUS
10
1.03793
20
1.41056
11
1.04143
21
1.41662
0
LINE
8
BLACK
6
CONTINUOUS
10
1.04143
20
1.41662
11
1.04611
21
1.42182
0
LINE
8
BLACK
6
CONTINUOUS
10
1.04611
20
1.42182
11
1.05177
21
1.42593
0
LINE
8
BLACK
6
CONTINUOUS
10
1.05177
20
1.42593
11
1.05816
21
1.42878
0
LINE
8
BLACK
6
CONTINUOUS
10
1.05816
20
1.42878
11
1.06501
21
1.43023
0
LINE
8
BLACK
6
CONTINUOUS
10
1.06501
20
1.43023
11
1.072
21
1.43023
0
LINE
8
BLACK
6
CONTINUOUS
10
1.072
20
1.43023
11
1.07885
21
1.42878
0
LINE
8
BLACK
6
CONTINUOUS
10
0.477362
20
1.50098
11
0.410433
21
1.50098
0
LINE
8
BLACK
6
CONTINUOUS
10
0.410433
20
1.50098
11
0.410433
21
1.56791
0
LINE
8
BLACK
6
CONTINUOUS
10
0.410433
20
1.56791
11
0.477362
21
1.56791
0
LINE
8
BLACK
6
CONTINUOUS
10
0.477362
20
1.56791
11
0.477362
21
1.50098
0
LINE
8
BLACK
6
CONTINUOUS
10
0.354239
20
1.56628
11
0.36063
21
1.56343
0
LINE
8
BLACK
6
CONTINUOUS
10
0.36063
20
1.56343
11
0.36629
21
1.55932
0
LINE
8
BLACK
6
CONTINUOUS
10
0.36629
20
1.55932
11
0.370971
21
1.55412
0
LINE
8
BLACK
6
CONTINUOUS
10
0.370971
20
1.55412
11
0.374469
21
1.54806
0
LINE
8
BLACK
6
CONTINUOUS
10
0.374469
20
1.54806
11
0.376631
21
1.54141
0
LINE
8
BLACK
6
CONTINUOUS
10
0.376631
20
1.54141
11
0.377362
21
1.53445
0
LINE
8
BLACK
6
CONTINUOUS
10
0.377362
20
1.53445
11
0.376631
21
1.52749
0
LINE
8
BLACK
6
CONTINUOUS
10
0.376631
20
1.52749
11
0.374469
21
1.52084
0
LINE
8
BLACK
6
CONTINUOUS
10
0.374469
20
1.52084
11
0.370971
21
1.51478
0
LINE
8
BLACK
6
CONTINUOUS
10
0.370971
20
1.51478
11
0.36629
21
1.50958
0
LINE
8
BLACK
6
CONTINUOUS
10
0.36629
20
1.50958
11
0.36063
21
1.50547
0
LINE
8
BLACK
6
CONTINUOUS
10
0.36063
20
1.50547
11
0.354239
21
1.50262
0
LINE
8
BLACK
6
CONTINUOUS
10
0.354239
20
1.50262
11
0.347396
21
1.50117
0
LINE
8
BLACK
6
CONTINUOUS
10
0.347396
20
1.50117
11
0.3404
21
1.50117
0
LINE
8
BLACK
6
CONTINUOUS
10
0.3404
20
1.50117
11
0.333557
21
1.50262
0
LINE
8
BLACK
6
CONTINUOUS
10
0.333557
20
1.50262
11
0.327165
21
1.50547
0
LINE
8
BLACK
6
CONTINUOUS
10
0.327165
20
1.50547
11
0.321505
21
1.50958
0
LINE
8
BLACK
6
CONTINUOUS
10
0.321505
20
1.50958
11
0.316824
21
1.51478
0
LINE
8
BLACK
6
CONTINUOUS
10
0.316824
20
1.51478
11
0.313326
21
1.52084
0
LINE
8
BLACK
6
CONTINUOUS
10
0.313326
20
1.52084
11
0.311164
21
1.52749
0
LINE
8
BLACK
6
CONTINUOUS
10
0.311164
20
1.52749
11
0.310433
21
1.53445
0
LINE
8
BLACK
6
CONTINUOUS
10
0.310433
20
1.53445
11
0.311164
21
1.54141
0
LINE
8
BLACK
6
CONTINUOUS
10
0.311164
20
1.54141
11
0.313326
21
1.54806
0
LINE
8
BLACK
6
CONTINUOUS
10
0.313326
20
1.54806
11
0.316824
21
1.55412
0
LINE
8
BLACK
6
CONTINUOUS
10
0.316824
20
1.55412
11
0.321505
21
1.55932
0
LINE
8
BLACK
6
CONTINUOUS
10
0.321505
20
1.55932
11
0.327165
21
1.56343
0
LINE
8
BLACK
6
CONTINUOUS
10
0.327165
20
1.56343
11
0.333557
21
1.56628
0
LINE
8
BLACK
6
CONTINUOUS
10
0.333557
20
1.56628
11
0.3404
21
1.56773
0
LINE
8
BLACK
6
CONTINUOUS
10
0.3404
20
1.56773
11
0.347396
21
1.56773
0
LINE
8
BLACK
6
CONTINUOUS
10
0.347396
20
1.56773
11
0.354239
21
1.56628
0
LINE
8
BLACK
6
CONTINUOUS
10
0.643307
20
1.53661
11
0.576378
21
1.53661
0
LINE
8
BLACK
6
CONTINUOUS
10
0.576378
20
1.53661
11
0.576378
21
1.60354
0
LINE
8
BLACK
6
CONTINUOUS
10
0.576378
20
1.60354
11
0.643307
21
1.60354
0
LINE
8
BLACK
6
CONTINUOUS
10
0.643307
20
1.60354
11
0.643307
21
1.53661
0
LINE
8
BLACK
6
CONTINUOUS
10
0.354239
20
1.66628
11
0.36063
21
1.66343
0
LINE
8
BLACK
6
CONTINUOUS
10
0.36063
20
1.66343
11
0.36629
21
1.65932
0
LINE
8
BLACK
6
CONTINUOUS
10
0.36629
20
1.65932
11
0.370971
21
1.65412
0
LINE
8
BLACK
6
CONTINUOUS
10
0.370971
20
1.65412
11
0.374469
21
1.64806
0
LINE
8
BLACK
6
CONTINUOUS
10
0.374469
20
1.64806
11
0.376631
21
1.64141
0
LINE
8
BLACK
6
CONTINUOUS
10
0.376631
20
1.64141
11
0.377362
21
1.63445
0
LINE
8
BLACK
6
CONTINUOUS
10
0.377362
20
1.63445
11
0.376631
21
1.62749
0
LINE
8
BLACK
6
CONTINUOUS
10
0.376631
20
1.62749
11
0.374469
21
1.62084
0
LINE
8
BLACK
6
CONTINUOUS
10
0.374469
20
1.62084
11
0.370971
21
1.61478
0
LINE
8
BLACK
6
CONTINUOUS
10
0.370971
20
1.61478
11
0.36629
21
1.60958
0
LINE
8
BLACK
6
CONTINUOUS
10
0.36629
20
1.60958
11
0.36063
21
1.60547
0
LINE
8
BLACK
6
CONTINUOUS
10
0.36063
20
1.60547
11
0.354239
21
1.60262
0
LINE
8
BLACK
6
CONTINUOUS
10
0.354239
20
1.60262
11
0.347396
21
1.60117
0
LINE
8
BLACK
6
CONTINUOUS
10
0.347396
20
1.60117
11
0.3404
21
1.60117
0
LINE
8
BLACK
6
CONTINUOUS
10
0.3404
20
1.60117
11
0.333557
21
1.60262
0
LINE
8
BLACK
6
CONTINUOUS
10
0.333557
20
1.60262
11
0.327165
21
1.60547
0
LINE
8
BLACK
6
CONTINUOUS
10
0.327165
20
1.60547
11
0.321505
21
1.60958
0
LINE
8
BLACK
6
CONTINUOUS
10
0.321505
20
1.60958
11
0.316824
21
1.61478
0
LINE
8
BLACK
6
CONTINUOUS
10
0.316824
20
1.61478
11
0.313326
21
1.62084
0
LINE
8
BLACK
6
CONTINUOUS
10
0.313326
20
1.62084
11
0.311164
21
1.62749
0
LINE
8
BLACK
6
CONTINUOUS
10
0.311164
20
1.62749
11
0.310433
21
1.63445
0
LINE
8
BLACK
6
CONTINUOUS
10
0.310433
20
1.63445
11
0.311164
21
1.64141
0
LINE
8
BLACK
6
CONTINUOUS
10
0.311164
20
1.64141
11
0.313326
21
1.64806
0
LINE
8
BLACK
6
CONTINUOUS
10
0.313326
20
1.64806
11
0.316824
21
1.65412
0
LINE
8
BLACK
6
CONTINUOUS
10
0.316824
20
1.65412
11
0.321505
21
1.65932
0
LINE
8
BLACK
6
CONTINUOUS
10
0.321505
20
1.65932
11
0.327165
21
1.66343
0
LINE
8
BLACK
6
CONTINUOUS
10
0.327165
20
1.66343
11
0.333557
21
1.66628
0
LINE
8
BLACK
6
CONTINUOUS
10
0.333557
20
1.66628
11
0.3404
21
1.66773
0
LINE
8
BLACK
6
CONTINUOUS
10
0.3404
20
1.66773
11
0.347396
21
1.66773
0
LINE
8
BLACK
6
CONTINUOUS
10
0.347396
20
1.66773
11
0.354239
21
1.66628
0
LINE
8
BLACK
6
CONTINUOUS
10
0.454239
20
1.66628
11
0.46063
21
1.66343
0
LINE
8
BLACK
6
CONTINUOUS
10
0.46063
20
1.66343
11
0.46629
21
1.65932
0
LINE
8
BLACK
6
CONTINUOUS
10
0.46629
20
1.65932
11
0.470971
21
1.65412
0
LINE
8
BLACK
6
CONTINUOUS
10
0.470971
20
1.65412
11
0.474469
21
1.64806
0
LINE
8
BLACK
6
CONTINUOUS
10
0.474469
20
1.64806
11
0.476631
21
1.64141
0
LINE
8
BLACK
6
CONTINUOUS
10
0.476631
20
1.64141
11
0.477362
21
1.63445
0
LINE
8
BLACK
6
CONTINUOUS
10
0.477362
20
1.63445
11
0.476631
21
1.62749
0
LINE
8
BLACK
6
CONTINUOUS
10
0.476631
20
1.62749
11
0.474469
21
1.62084
0
LINE
8
BLACK
6
CONTINUOUS
10
0.474469
20
1.62084
11
0.470971
21
1.61478
0
LINE
8
BLACK
6
CONTINUOUS
10
0.470971
20
1.61478
11
0.46629
21
1.60958
0
LINE
8
BLACK
6
CONTINUOUS
10
0.46629
20
1.60958
11
0.46063
21
1.60547
0
LINE
8
BLACK
6
CONTINUOUS
10
0.46063
20
1.60547
11
0.454239
21
1.60262
0
LINE
8
BLACK
6
CONTINUOUS
10
0.454239
20
1.60262
11
0.447396
21
1.60117
0
LINE
8
BLACK
6
CONTINUOUS
10
0.447396
20
1.60117
11
0.4404
21
1.60117
0
LINE
8
BLACK
6
CONTINUOUS
10
0.4404
20
1.60117
11
0.433557
21
1.60262
0
LINE
8
BLACK
6
CONTINUOUS
10
0.433557
20
1.60262
11
0.427165
21
1.60547
0
LINE
8
BLACK
6
CONTINUOUS
10
0.427165
20
1.60547
11
0.421505
21
1.60958
0
LINE
8
BLACK
6
CONTINUOUS
10
0.421505
20
1.60958
11
0.416824
21
1.61478
0
LINE
8
BLACK
6
CONTINUOUS
10
0.416824
20
1.61478
11
0.413326
21
1.62084
0
LINE
8
BLACK
6
CONTINUOUS
10
0.413326
20
1.62084
11
0.411164
21
1.62749
0
LINE
8
BLACK
6
CONTINUOUS
10
0.411164
20
1.62749
11
0.410433
21
1.63445
0
LINE
8
BLACK
6
CONTINUOUS
10
0.410433
20
1.63445
11
0.411164
21
1.64141
0
LINE
8
BLACK
6
CONTINUOUS
10
0.411164
20
1.64141
11
0.413326
21
1.64806
0
LINE
8
BLACK
6
CONTINUOUS
10
0.413326
20
1.64806
11
0.416824
21
1.65412
0
LINE
8
BLACK
6
CONTINUOUS
10
0.416824
20
1.65412
11
0.421505
21
1.65932
0
LINE
8
BLACK
6
CONTINUOUS
10
0.421505
20
1.65932
11
0.427165
21
1.66343
0
LINE
8
BLACK
6
CONTINUOUS
10
0.427165
20
1.66343
11
0.433557
21
1.66628
0
LINE
8
BLACK
6
CONTINUOUS
10
0.433557
20
1.66628
11
0.4404
21
1.66773
0
LINE
8
BLACK
6
CONTINUOUS
10
0.4404
20
1.66773
11
0.447396
21
1.66773
0
LINE
8
BLACK
6
CONTINUOUS
10
0.447396
20
1.66773
11
0.454239
21
1.66628
0
LINE
8
BLACK
6
CONTINUOUS
10
0.620184
20
1.70191
11
0.626575
21
1.69906
0
LINE
8
BLACK
6
CONTINUOUS
10
0.626575
20
1.69906
11
0.632235
21
1.69495
0
LINE
8
BLACK
6
CONTINUOUS
10
0.632235
20
1.69495
11
0.636916
21
1.68975
0
LINE
8
BLACK
6
CONTINUOUS
10
0.636916
20
1.68975
11
0.640414
21
1.68369
0
LINE
8
BLACK
6
CONTINUOUS
10
0.640414
20
1.68369
11
0.642576
21
1.67704
0
LINE
8
BLACK
6
CONTINUOUS
10
0.642576
20
1.67704
11
0.643307
21
1.67008
0
LINE
8
BLACK
6
CONTINUOUS
10
0.643307
20
1.67008
11
0.642576
21
1.66312
0
LINE
8
BLACK
6
CONTINUOUS
10
0.642576
20
1.66312
11
0.640414
21
1.65647
0
LINE
8
BLACK
6
CONTINUOUS
10
0.640414
20
1.65647
11
0.636916
21
1.65041
0
LINE
8
BLACK
6
CONTINUOUS
10
0.636916
20
1.65041
11
0.632235
21
1.64521
0
LINE
8
BLACK
6
CONTINUOUS
10
0.632235
20
1.64521
11
0.626575
21
1.6411
0
LINE
8
BLACK
6
CONTINUOUS
10
0.626575
20
1.6411
11
0.620184
21
1.63825
0
LINE
8
BLACK
6
CONTINUOUS
10
0.620184
20
1.63825
11
0.613341
21
1.6368
0
LINE
8
BLACK
6
CONTINUOUS
10
0.613341
20
1.6368
11
0.606345
21
1.6368
0
LINE
8
BLACK
6
CONTINUOUS
10
0.606345
20
1.6368
11
0.599501
21
1.63825
0
LINE
8
BLACK
6
CONTINUOUS
10
0.599501
20
1.63825
11
0.59311
21
1.6411
0
LINE
8
BLACK
6
CONTINUOUS
10
0.59311
20
1.6411
11
0.58745
21
1.64521
0
LINE
8
BLACK
6
CONTINUOUS
10
0.58745
20
1.64521
11
0.582769
21
1.65041
0
LINE
8
BLACK
6
CONTINUOUS
10
0.582769
20
1.65041
11
0.579271
21
1.65647
0
LINE
8
BLACK
6
CONTINUOUS
10
0.579271
20
1.65647
11
0.577109
21
1.66312
0
LINE
8
BLACK
6
CONTINUOUS
10
0.577109
20
1.66312
11
0.576378
21
1.67008
0
LINE
8
BLACK
6
CONTINUOUS
10
0.576378
20
1.67008
11
0.577109
21
1.67704
0
LINE
8
BLACK
6
CONTINUOUS
10
0.577109
20
1.67704
11
0.579271
21
1.68369
0
LINE
8
BLACK
6
CONTINUOUS
10
0.579271
20
1.68369
11
0.582769
21
1.68975
0
LINE
8
BLACK
6
CONTINUOUS
10
0.582769
20
1.68975
11
0.58745
21
1.69495
0
LINE
8
BLACK
6
CONTINUOUS
10
0.58745
20
1.69495
11
0.59311
21
1.69906
0
LINE
8
BLACK
6
CONTINUOUS
10
0.59311
20
1.69906
11
0.599501
21
1.70191
0
LINE
8
BLACK
6
CONTINUOUS
10
0.599501
20
1.70191
11
0.606345
21
1.70336
0
LINE
8
BLACK
6
CONTINUOUS
10
0.606345
20
1.70336
11
0.613341
21
1.70336
0
LINE
8
BLACK
6
CONTINUOUS
10
0.613341
20
1.70336
11
0.620184
21
1.70191
0
LINE
8
BLACK
6
CONTINUOUS
10
0.354239
20
1.76628
11
0.36063
21
1.76343
0
LINE
8
BLACK
6
CONTINUOUS
10
0.36063
20
1.76343
11
0.36629
21
1.75932
0
LINE
8
BLACK
6
CONTINUOUS
10
0.36629
20
1.75932
11
0.370971
21
1.75412
0
LINE
8
BLACK
6
CONTINUOUS
10
0.370971
20
1.75412
11
0.374469
21
1.74806
0
LINE
8
BLACK
6
CONTINUOUS
10
0.374469
20
1.74806
11
0.376631
21
1.74141
0
LINE
8
BLACK
6
CONTINUOUS
10
0.376631
20
1.74141
11
0.377362
21
1.73445
0
LINE
8
BLACK
6
CONTINUOUS
10
0.377362
20
1.73445
11
0.376631
21
1.72749
0
LINE
8
BLACK
6
CONTINUOUS
10
0.376631
20
1.72749
11
0.374469
21
1.72084
0
LINE
8
BLACK
6
CONTINUOUS
10
0.374469
20
1.72084
11
0.370971
21
1.71478
0
LINE
8
BLACK
6
CONTINUOUS
10
0.370971
20
1.71478
11
0.36629
21
1.70958
0
LINE
8
BLACK
6
CONTINUOUS
10
0.36629
20
1.70958
11
0.36063
21
1.70547
0
LINE
8
BLACK
6
CONTINUOUS
10
0.36063
20
1.70547
11
0.354239
21
1.70262
0
LINE
8
BLACK
6
CONTINUOUS
10
0.354239
20
1.70262
11
0.347396
21
1.70117
0
LINE
8
BLACK
6
CONTINUOUS
10
0.347396
20
1.70117
11
0.3404
21
1.70117
0
LINE
8
BLACK
6
CONTINUOUS
10
0.3404
20
1.70117
11
0.333557
21
1.70262
0
LINE
8
BLACK
6
CONTINUOUS
10
0.333557
20
1.70262
11
0.327165
21
1.70547
0
LINE
8
BLACK
6
CONTINUOUS
10
0.327165
20
1.70547
11
0.321505
21
1.70958
0
LINE
8
BLACK
6
CONTINUOUS
10
0.321505
20
1.70958
11
0.316824
21
1.71478
0
LINE
8
BLACK
6
CONTINUOUS
10
0.316824
20
1.71478
11
0.313326
21
1.72084
0
LINE
8
BLACK
6
CONTINUOUS
10
0.313326
20
1.72084
11
0.311164
21
1.72749
0
LINE
8
BLACK
6
CONTINUOUS
10
0.311164
20
1.72749
11
0.310433
21
1.73445
0
LINE
8
BLACK
6
CONTINUOUS
10
0.310433
20
1.73445
11
0.311164
21
1.74141
0
LINE
8
BLACK
6
CONTINUOUS
10
0.311164
20
1.74141
11
0.313326
21
1.74806
0
LINE
8
BLACK
6
CONTINUOUS
10
0.313326
20
1.74806
11
0.316824
21
1.75412
0
LINE
8
BLACK
6
CONTINUOUS
10
0.316824
20
1.75412
11
0.321505
21
1.75932
0
LINE
8
BLACK
6
CONTINUOUS
10
0.321505
20
1.75932
11
0.327165
21
1.76343
0
LINE
8
BLACK
6
CONTINUOUS
10
0.327165
20
1.76343
11
0.333557
21
1.76628
0
LINE
8
BLACK
6
CONTINUOUS
10
0.333557
20
1.76628
11
0.3404
21
1.76773
0
LINE
8
BLACK
6
CONTINUOUS
10
0.3404
20
1.76773
11
0.347396
21
1.76773
0
LINE
8
BLACK
6
CONTINUOUS
10
0.347396
20
1.76773
11
0.354239
21
1.76628
0
LINE
8
BLACK
6
CONTINUOUS
10
0.454239
20
1.76628
11
0.46063
21
1.76343
0
LINE
8
BLACK
6
CONTINUOUS
10
0.46063
20
1.76343
11
0.46629
21
1.75932
0
LINE
8
BLACK
6
CONTINUOUS
10
0.46629
20
1.75932
11
0.470971
21
1.75412
0
LINE
8
BLACK
6
CONTINUOUS
10
0.470971
20
1.75412
11
0.474469
21
1.74806
0
LINE
8
BLACK
6
CONTINUOUS
10
0.474469
20
1.74806
11
0.476631
21
1.74141
0
LINE
8
BLACK
6
CONTINUOUS
10
0.476631
20
1.74141
11
0.477362
21
1.73445
0
LINE
8
BLACK
6
CONTINUOUS
10
0.477362
20
1.73445
11
0.476631
21
1.72749
0
LINE
8
BLACK
6
CONTINUOUS
10
0.476631
20
1.72749
11
0.474469
21
1.72084
0
LINE
8
BLACK
6
CONTINUOUS
10
0.474469
20
1.72084
11
0.470971
21
1.71478
0
LINE
8
BLACK
6
CONTINUOUS
10
0.470971
20
1.71478
11
0.46629
21
1.70958
0
LINE
8
BLACK
6
CONTINUOUS
10
0.46629
20
1.70958
11
0.46063
21
1.70547
0
LINE
8
BLACK
6
CONTINUOUS
10
0.46063
20
1.70547
11
0.454239
21
1.70262
0
LINE
8
BLACK
6
CONTINUOUS
10
0.454239
20
1.70262
11
0.447396
21
1.70117
0
LINE
8
BLACK
6
CONTINUOUS
10
0.447396
20
1.70117
11
0.4404
21
1.70117
0
LINE
8
BLACK
6
CONTINUOUS
10
0.4404
20
1.70117
11
0.433557
21
1.70262
0
LINE
8
BLACK
6
CONTINUOUS
10
0.433557
20
1.70262
11
0.427165
21
1.70547
0
LINE
8
BLACK
6
CONTINUOUS
10
0.427165
20
1.70547
11
0.421505
21
1.70958
0
LINE
8
BLACK
6
CONTINUOUS
10
0.421505
20
1.70958
11
0.416824
21
1.71478
0
LINE
8
BLACK
6
CONTINUOUS
10
0.416824
20
1.71478
11
0.413326
21
1.72084
0
LINE
8
BLACK
6
CONTINUOUS
10
0.413326
20
1.72084
11
0.411164
21
1.72749
0
LINE
8
BLACK
6
CONTINUOUS
10
0.411164
20
1.72749
11
0.410433
21
1.73445
0
LINE
8
BLACK
6
CONTINUOUS
10
0.410433
20
1.73445
11
0.411164
21
1.74141
0
LINE
8
BLACK
6
CONTINUOUS
10
0.411164
20
1.74141
11
0.413326
21
1.74806
0
LINE
8
BLACK
6
CONTINUOUS
10
0.413326
20
1.74806
11
0.416824
21
1.75412
0
LINE
8
BLACK
6
CONTINUOUS
10
0.416824
20
1.75412
11
0.421505
21
1.75932
0
LINE
8
BLACK
6
CONTINUOUS
10
0.421505
20
1.75932
11
0.427165
21
1.76343
0
LINE
8
BLACK
6
CONTINUOUS
10
0.427165
20
1.76343
11
0.433557
21
1.76628
0
LINE
8
BLACK
6
CONTINUOUS
10
0.433557
20
1.76628
11
0.4404
21
1.76773
0
LINE
8
BLACK
6
CONTINUOUS
10
0.4404
20
1.76773
11
0.447396
21
1.76773
0
LINE
8
BLACK
6
CONTINUOUS
10
0.447396
20
1.76773
11
0.454239
21
1.76628
0
LINE
8
BLACK
6
CONTINUOUS
10
0.620184
20
1.80191
11
0.626575
21
1.79906
0
LINE
8
BLACK
6
CONTINUOUS
10
0.626575
20
1.79906
11
0.632235
21
1.79495
0
LINE
8
BLACK
6
CONTINUOUS
10
0.632235
20
1.79495
11
0.636916
21
1.78975
0
LINE
8
BLACK
6
CONTINUOUS
10
0.636916
20
1.78975
11
0.640414
21
1.78369
0
LINE
8
BLACK
6
CONTINUOUS
10
0.640414
20
1.78369
11
0.642576
21
1.77704
0
LINE
8
BLACK
6
CONTINUOUS
10
0.642576
20
1.77704
11
0.643307
21
1.77008
0
LINE
8
BLACK
6
CONTINUOUS
10
0.643307
20
1.77008
11
0.642576
21
1.76312
0
LINE
8
BLACK
6
CONTINUOUS
10
0.642576
20
1.76312
11
0.640414
21
1.75647
0
LINE
8
BLACK
6
CONTINUOUS
10
0.640414
20
1.75647
11
0.636916
21
1.75041
0
LINE
8
BLACK
6
CONTINUOUS
10
0.636916
20
1.75041
11
0.632235
21
1.74521
0
LINE
8
BLACK
6
CONTINUOUS
10
0.632235
20
1.74521
11
0.626575
21
1.7411
0
LINE
8
BLACK
6
CONTINUOUS
10
0.626575
20
1.7411
11
0.620184
21
1.73825
0
LINE
8
BLACK
6
CONTINUOUS
10
0.620184
20
1.73825
11
0.613341
21
1.7368
0
LINE
8
BLACK
6
CONTINUOUS
10
0.613341
20
1.7368
11
0.606345
21
1.7368
0
LINE
8
BLACK
6
CONTINUOUS
10
0.606345
20
1.7368
11
0.599501
21
1.73825
0
LINE
8
BLACK
6
CONTINUOUS
10
0.599501
20
1.73825
11
0.59311
21
1.7411
0
LINE
8
BLACK
6
CONTINUOUS
10
0.59311
20
1.7411
11
0.58745
21
1.74521
0
LINE
8
BLACK
6
CONTINUOUS
10
0.58745
20
1.74521
11
0.582769
21
1.75041
0
LINE
8
BLACK
6
CONTINUOUS
10
0.582769
20
1.75041
11
0.579271
21
1.75647
0
LINE
8
BLACK
6
CONTINUOUS
10
0.579271
20
1.75647
11
0.577109
21
1.76312
0
LINE
8
BLACK
6
CONTINUOUS
10
0.577109
20
1.76312
11
0.576378
21
1.77008
0
LINE
8
BLACK
6
CONTINUOUS
10
0.576378
20
1.77008
11
0.577109
21
1.77704
0
LINE
8
BLACK
6
CONTINUOUS
10
0.577109
20
1.77704
11
0.579271
21
1.78369
0
LINE
8
BLACK
6
CONTINUOUS
10
0.579271
20
1.78369
11
0.582769
21
1.78975
0
LINE
8
BLACK
6
CONTINUOUS
10
0.582769
20
1.78975
11
0.58745
21
1.79495
0
LINE
8
BLACK
6
CONTINUOUS
10
0.58745
20
1.79495
11
0.59311
21
1.79906
0
LINE
8
BLACK
6
CONTINUOUS
10
0.59311
20
1.79906
11
0.599501
21
1.80191
0
LINE
8
BLACK
6
CONTINUOUS
10
0.599501
20
1.80191
11
0.606345
21
1.80336
0
LINE
8
BLACK
6
CONTINUOUS
10
0.606345
20
1.80336
11
0.613341
21
1.80336
0
LINE
8
BLACK
6
CONTINUOUS
10
0.613341
20
1.80336
11
0.620184
21
1.80191
0
LINE
8
BLACK
6
CONTINUOUS
10
0.42051
20
2.11632
11
0.433874
21
2.11315
0
LINE
8
BLACK
6
CONTINUOUS
10
0.433874
20
2.11315
11
0.446781
21
2.10845
0
LINE
8
BLACK
6
CONTINUOUS
10
0.446781
20
2.10845
11
0.459055
21
2.10229
0
LINE
8
BLACK
6
CONTINUOUS
10
0.459055
20
2.10229
11
0.470531
21
2.09474
0
LINE
8
BLACK
6
CONTINUOUS
10
0.470531
20
2.09474
11
0.481052
21
2.08591
0
LINE
8
BLACK
6
CONTINUOUS
10
0.481052
20
2.08591
11
0.490478
21
2.07592
0
LINE
8
BLACK
6
CONTINUOUS
10
0.490478
20
2.07592
11
0.49868
21
2.0649
0
LINE
8
BLACK
6
CONTINUOUS
10
0.49868
20
2.0649
11
0.505547
21
2.05301
0
LINE
8
BLACK
6
CONTINUOUS
10
0.505547
20
2.05301
11
0.510987
21
2.0404
0
LINE
8
BLACK
6
CONTINUOUS
10
0.510987
20
2.0404
11
0.514927
21
2.02724
0
LINE
8
BLACK
6
CONTINUOUS
10
0.514927
20
2.02724
11
0.517312
21
2.01371
0
LINE
8
BLACK
6
CONTINUOUS
10
0.517312
20
2.01371
11
0.51811
21
2
0
LINE
8
BLACK
6
CONTINUOUS
10
0.51811
20
2
11
0.517312
21
1.98629
0
LINE
8
BLACK
6
CONTINUOUS
10
0.517312
20
1.98629
11
0.514927
21
1.97276
0
LINE
8
BLACK
6
CONTINUOUS
10
0.514927
20
1.97276
11
0.510987
21
1.9596
0
LINE
8
BLACK
6
CONTINUOUS
10
0.510987
20
1.9596
11
0.505547
21
1.94699
0
LINE
8
BLACK
6
CONTINUOUS
10
0.505547
20
1.94699
11
0.49868
21
1.9351
0
LINE
8
BLACK
6
CONTINUOUS
10
0.49868
20
1.9351
11
0.490478
21
1.92408
0
LINE
8
BLACK
6
CONTINUOUS
10
0.490478
20
1.92408
11
0.481052
21
1.91409
0
LINE
8
BLACK
6
CONTINUOUS
10
0.481052
20
1.91409
11
0.470531
21
1.90526
0
LINE
8
BLACK
6
CONTINUOUS
10
0.470531
20
1.90526
11
0.459055
21
1.89771
0
LINE
8
BLACK
6
CONTINUOUS
10
0.459055
20
1.89771
11
0.446781
21
1.89155
0
LINE
8
BLACK
6
CONTINUOUS
10
0.446781
20
1.89155
11
0.433874
21
1.88685
0
LINE
8
BLACK
6
CONTINUOUS
10
0.433874
20
1.88685
11
0.42051
21
1.88368
0
LINE
8
BLACK
6
CONTINUOUS
10
0.42051
20
1.88368
11
0.406867
21
1.88209
0
LINE
8
BLACK
6
CONTINUOUS
10
0.406867
20
1.88209
11
0.393133
21
1.88209
0
LINE
8
BLACK
6
CONTINUOUS
10
0.393133
20
1.88209
11
0.37949
21
1.88368
0
LINE
8
BLACK
6
CONTINUOUS
10
0.37949
20
1.88368
11
0.366126
21
1.88685
0
LINE
8
BLACK
6
CONTINUOUS
10
0.366126
20
1.88685
11
0.353219
21
1.89155
0
LINE
8
BLACK
6
CONTINUOUS
10
0.353219
20
1.89155
11
0.340945
21
1.89771
0
LINE
8
BLACK
6
CONTINUOUS
10
0.340945
20
1.89771
11
0.329469
21
1.90526
0
LINE
8
BLACK
6
CONTINUOUS
10
0.329469
20
1.90526
11
0.318948
21
1.91409
0
LINE
8
BLACK
6
CONTINUOUS
10
0.318948
20
1.91409
11
0.309522
21
1.92408
0
LINE
8
BLACK
6
CONTINUOUS
10
0.309522
20
1.92408
11
0.30132
21
1.9351
0
LINE
8
BLACK
6
CONTINUOUS
10
0.30132
20
1.9351
11
0.294453
21
1.94699
0
LINE
8
BLACK
6
CONTINUOUS
10
0.294453
20
1.94699
11
0.289013
21
1.9596
0
LINE
8
BLACK
6
CONTINUOUS
10
0.289013
20
1.9596
11
0.285073
21
1.97276
0
LINE
8
BLACK
6
CONTINUOUS
10
0.285073
20
1.97276
11
0.282688
21
1.98629
0
LINE
8
BLACK
6
CONTINUOUS
10
0.282688
20
1.98629
11
0.28189
21
2
0
LINE
8
BLACK
6
CONTINUOUS
10
0.28189
20
2
11
0.282688
21
2.01371
0
LINE
8
BLACK
6
CONTINUOUS
10
0.282688
20
2.01371
11
0.285073
21
2.02724
0
LINE
8
BLACK
6
CONTINUOUS
10
0.285073
20
2.02724
11
0.289013
21
2.0404
0
LINE
8
BLACK
6
CONTINUOUS
10
0.289013
20
2.0404
11
0.294453
21
2.05301
0
LINE
8
BLACK
6
CONTINUOUS
10
0.294453
20
2.05301
11
0.30132
21
2.0649
0
LINE
8
BLACK
6
CONTINUOUS
10
0.30132
20
2.0649
11
0.309522
21
2.07592
0
LINE
8
BLACK
6
CONTINUOUS
10
0.309522
20
2.07592
11
0.318948
21
2.08591
0
LINE
8
BLACK
6
CONTINUOUS
10
0.318948
20
2.08591
11
0.329469
21
2.09474
0
LINE
8
BLACK
6
CONTINUOUS
10
0.329469
20
2.09474
11
0.340945
21
2.10229
0
LINE
8
BLACK
6
CONTINUOUS
10
0.340945
20
2.10229
11
0.353219
21
2.10845
0
LINE
8
BLACK
6
CONTINUOUS
10
0.353219
20
2.10845
11
0.366126
21
2.11315
0
LINE
8
BLACK
6
CONTINUOUS
10
0.366126
20
2.11315
11
0.37949
21
2.11632
0
LINE
8
BLACK
6
CONTINUOUS
10
0.37949
20
2.11632
11
0.393133
21
2.11791
0
LINE
8
BLACK
6
CONTINUOUS
10
0.393133
20
2.11791
11
0.406867
21
2.11791
0
LINE
8
BLACK
6
CONTINUOUS
10
0.406867
20
2.11791
11
0.42051
21
2.11632
0
LINE
8
BLACK
6
CONTINUOUS
10
1.62051
20
2.11632
11
1.63387
21
2.11315
0
LINE
8
BLACK
6
CONTINUOUS
10
1.63387
20
2.11315
11
1.64678
21
2.10845
0
LINE
8
BLACK
6
CONTINUOUS
10
1.64678
20
2.10845
11
1.65906
21
2.10229
0
LINE
8
BLACK
6
CONTINUOUS
10
1.65906
20
2.10229
11
1.67053
21
2.09474
0
LINE
8
BLACK
6
CONTINUOUS
10
1.67053
20
2.09474
11
1.68105
21
2.08591
0
LINE
8
BLACK
6
CONTINUOUS
10
1.68105
20
2.08591
11
1.69048
21
2.07592
0
LINE
8
BLACK
6
CONTINUOUS
10
1.69048
20
2.07592
11
1.69868
21
2.0649
0
LINE
8
BLACK
6
CONTINUOUS
10
1.69868
20
2.0649
11
1.70555
21
2.05301
0
LINE
8
BLACK
6
CONTINUOUS
10
1.70555
20
2.05301
11
1.71099
21
2.0404
0
LINE
8
BLACK
6
CONTINUOUS
10
1.71099
20
2.0404
11
1.71493
21
2.02724
0
LINE
8
BLACK
6
CONTINUOUS
10
1.71493
20
2.02724
11
1.71731
21
2.01371
0
LINE
8
BLACK
6
CONTINUOUS
10
1.71731
20
2.01371
11
1.71811
21
2
0
LINE
8
BLACK
6
CONTINUOUS
10
1.71811
20
2
11
1.71731
21
1.98629
0
LINE
8
BLACK
6
CONTINUOUS
10
1.71731
20
1.98629
11
1.71493
21
1.97276
0
LINE
8
BLACK
6
CONTINUOUS
10
1.71493
20
1.97276
11
1.71099
21
1.9596
0
LINE
8
BLACK
6
CONTINUOUS
10
1.71099
20
1.9596
11
1.70555
21
1.94699
0
LINE
8
BLACK
6
CONTINUOUS
10
1.70555
20
1.94699
11
1.69868
21
1.9351
0
LINE
8
BLACK
6
CONTINUOUS
10
1.69868
20
1.9351
11
1.69048
21
1.92408
0
LINE
8
BLACK
6
CONTINUOUS
10
1.69048
20
1.92408
11
1.68105
21
1.91409
0
LINE
8
BLACK
6
CONTINUOUS
10
1.68105
20
1.91409
11
1.67053
21
1.90526
0
LINE
8
BLACK
6
CONTINUOUS
10
1.67053
20
1.90526
11
1.65906
21
1.89771
0
LINE
8
BLACK
6
CONTINUOUS
10
1.65906
20
1.89771
11
1.64678
21
1.89155
0
LINE
8
BLACK
6
CONTINUOUS
10
1.64678
20
1.89155
11
1.63387
21
1.88685
0
LINE
8
BLACK
6
CONTINUOUS
10
1.63387
20
1.88685
11
1.62051
21
1.88368
0
LINE
8
BLACK
6
CONTINUOUS
10
1.62051
20
1.88368
11
1.60687
21
1.88209
0
LINE
8
BLACK
6
CONTINUOUS
10
1.60687
20
1.88209
11
1.59313
21
1.88209
0
LINE
8
BLACK
6
CONTINUOUS
10
1.59313
20
1.88209
11
1.57949
21
1.88368
0
LINE
8
BLACK
6
CONTINUOUS
10
1.57949
20
1.88368
11
1.56613
21
1.88685
0
LINE
8
BLACK
6
CONTINUOUS
10
1.56613
20
1.88685
11
1.55322
21
1.89155
0
LINE
8
BLACK
6
CONTINUOUS
10
1.55322
20
1.89155
11
1.54094
21
1.89771
0
LINE
8
BLACK
6
CONTINUOUS
10
1.54094
20
1.89771
11
1.52947
21
1.90526
0
LINE
8
BLACK
6
CONTINUOUS
10
1.52947
20
1.90526
11
1.51895
21
1.91409
0
LINE
8
BLACK
6
CONTINUOUS
10
1.51895
20
1.91409
11
1.50952
21
1.92408
0
LINE
8
BLACK
6
CONTINUOUS
10
1.50952
20
1.92408
11
1.50132
21
1.9351
0
LINE
8
BLACK
6
CONTINUOUS
10
1.50132
20
1.9351
11
1.49445
21
1.94699
0
LINE
8
BLACK
6
CONTINUOUS
10
1.49445
20
1.94699
11
1.48901
21
1.9596
0
LINE
8
BLACK
6
CONTINUOUS
10
1.48901
20
1.9596
11
1.48507
21
1.97276
0
LINE
8
BLACK
6
CONTINUOUS
10
1.48507
20
1.97276
11
1.48269
21
1.98629
0
LINE
8
BLACK
6
CONTINUOUS
10
1.48269
20
1.98629
11
1.48189
21
2
0
LINE
8
BLACK
6
CONTINUOUS
10
1.48189
20
2
11
1.48269
21
2.01371
0
LINE
8
BLACK
6
CONTINUOUS
10
1.48269
20
2.01371
11
1.48507
21
2.02724
0
LINE
8
BLACK
6
CONTINUOUS
10
1.48507
20
2.02724
11
1.48901
21
2.0404
0
LINE
8
BLACK
6
CONTINUOUS
10
1.48901
20
2.0404
11
1.49445
21
2.05301
0
LINE
8
BLACK
6
CONTINUOUS
10
1.49445
20
2.05301
11
1.50132
21
2.0649
0
LINE
8
BLACK
6
CONTINUOUS
10
1.50132
20
2.0649
11
1.50952
21
2.07592
0
LINE
8
BLACK
6
CONTINUOUS
10
1.50952
20
2.07592
11
1.51895
21
2.08591
0
LINE
8
BLACK
6
CONTINUOUS
10
1.51895
20
2.08591
11
1.52947
21
2.09474
0
LINE
8
BLACK
6
CONTINUOUS
10
1.52947
20
2.09474
11
1.54094
21
2.10229
0
LINE
8
BLACK
6
CONTINUOUS
10
1.54094
20
2.10229
11
1.55322
21
2.10845
0
LINE
8
BLACK
6
CONTINUOUS
10
1.55322
20
2.10845
11
1.56613
21
2.11315
0
LINE
8
BLACK
6
CONTINUOUS
10
1.56613
20
2.11315
11
1.57949
21
2.11632
0
LINE
8
BLACK
6
CONTINUOUS
10
1.57949
20
2.11632
11
1.59313
21
2.11791
0
LINE
8
BLACK
6
CONTINUOUS
10
1.59313
20
2.11791
11
1.60687
21
2.11791
0
LINE
8
BLACK
6
CONTINUOUS
10
1.60687
20
2.11791
11
1.62051
21
2.11632
0
LINE
8
BLACK
6
CONTINUOUS
10
0.976772
20
1.92717
11
0.909843
21
1.92717
0
LINE
8
BLACK
6
CONTINUOUS
10
0.909843
20
1.92717
11
0.909843
21
1.99409
0
LINE
8
BLACK
6
CONTINUOUS
10
0.909843
20
1.99409
11
0.976772
21
1.99409
0
LINE
8
BLACK
6
CONTINUOUS
10
0.976772
20
1.99409
11
0.976772
21
1.92717
0
LINE
8
BLACK
6
CONTINUOUS
10
1.05365
20
1.99246
11
1.06004
21
1.98961
0
LINE
8
BLACK
6
CONTINUOUS
10
1.06004
20
1.98961
11
1.0657
21
1.9855
0
LINE
8
BLACK
6
CONTINUOUS
10
1.0657
20
1.9855
11
1.07038
21
1.9803
0
LINE
8
BLACK
6
CONTINUOUS
10
1.07038
20
1.9803
11
1.07388
21
1.97424
0
LINE
8
BLACK
6
CONTINUOUS
10
1.07388
20
1.97424
11
1.07604
21
1.96759
0
LINE
8
BLACK
6
CONTINUOUS
10
1.07604
20
1.96759
11
1.07677
21
1.96063
0
LINE
8
BLACK
6
CONTINUOUS
10
1.07677
20
1.96063
11
1.07604
21
1.95367
0
LINE
8
BLACK
6
CONTINUOUS
10
1.07604
20
1.95367
11
1.07388
21
1.94702
0
LINE
8
BLACK
6
CONTINUOUS
10
1.07388
20
1.94702
11
1.07038
21
1.94096
0
LINE
8
BLACK
6
CONTINUOUS
10
1.07038
20
1.94096
11
1.0657
21
1.93576
0
LINE
8
BLACK
6
CONTINUOUS
10
1.0657
20
1.93576
11
1.06004
21
1.93165
0
LINE
8
BLACK
6
CONTINUOUS
10
1.06004
20
1.93165
11
1.05365
21
1.9288
0
LINE
8
BLACK
6
CONTINUOUS
10
1.05365
20
1.9288
11
1.04681
21
1.92735
0
LINE
8
BLACK
6
CONTINUOUS
10
1.04681
20
1.92735
11
1.03981
21
1.92735
0
LINE
8
BLACK
6
CONTINUOUS
10
1.03981
20
1.92735
11
1.03297
21
1.9288
0
LINE
8
BLACK
6
CONTINUOUS
10
1.03297
20
1.9288
11
1.02657
21
1.93165
0
LINE
8
BLACK
6
CONTINUOUS
10
1.02657
20
1.93165
11
1.02091
21
1.93576
0
LINE
8
BLACK
6
CONTINUOUS
10
1.02091
20
1.93576
11
1.01623
21
1.94096
0
LINE
8
BLACK
6
CONTINUOUS
10
1.01623
20
1.94096
11
1.01274
21
1.94702
0
LINE
8
BLACK
6
CONTINUOUS
10
1.01274
20
1.94702
11
1.01057
21
1.95367
0
LINE
8
BLACK
6
CONTINUOUS
10
1.01057
20
1.95367
11
1.00984
21
1.96063
0
LINE
8
BLACK
6
CONTINUOUS
10
1.00984
20
1.96063
11
1.01057
21
1.96759
0
LINE
8
BLACK
6
CONTINUOUS
10
1.01057
20
1.96759
11
1.01274
21
1.97424
0
LINE
8
BLACK
6
CONTINUOUS
10
1.01274
20
1.97424
11
1.01623
21
1.9803
0
LINE
8
BLACK
6
CONTINUOUS
10
1.01623
20
1.9803
11
1.02091
21
1.9855
0
LINE
8
BLACK
6
CONTINUOUS
10
1.02091
20
1.9855
11
1.02657
21
1.98961
0
LINE
8
BLACK
6
CONTINUOUS
10
1.02657
20
1.98961
11
1.03297
21
1.99246
0
LINE
8
BLACK
6
CONTINUOUS
10
1.03297
20
1.99246
11
1.03981
21
1.99391
0
LINE
8
BLACK
6
CONTINUOUS
10
1.03981
20
1.99391
11
1.04681
21
1.99391
0
LINE
8
BLACK
6
CONTINUOUS
10
1.04681
20
1.99391
11
1.05365
21
1.99246
0
LINE
8
BLACK
6
CONTINUOUS
10
1.15365
20
1.99246
11
1.16004
21
1.98961
0
LINE
8
BLACK
6
CONTINUOUS
10
1.16004
20
1.98961
11
1.1657
21
1.9855
0
LINE
8
BLACK
6
CONTINUOUS
10
1.1657
20
1.9855
11
1.17038
21
1.9803
0
LINE
8
BLACK
6
CONTINUOUS
10
1.17038
20
1.9803
11
1.17388
21
1.97424
0
LINE
8
BLACK
6
CONTINUOUS
10
1.17388
20
1.97424
11
1.17604
21
1.96759
0
LINE
8
BLACK
6
CONTINUOUS
10
1.17604
20
1.96759
11
1.17677
21
1.96063
0
LINE
8
BLACK
6
CONTINUOUS
10
1.17677
20
1.96063
11
1.17604
21
1.95367
0
LINE
8
BLACK
6
CONTINUOUS
10
1.17604
20
1.95367
11
1.17388
21
1.94702
0
LINE
8
BLACK
6
CONTINUOUS
10
1.17388
20
1.94702
11
1.17038
21
1.94096
0
LINE
8
BLACK
6
CONTINUOUS
10
1.17038
20
1.94096
11
1.1657
21
1.93576
0
LINE
8
BLACK
6
CONTINUOUS
10
1.1657
20
1.93576
11
1.16004
21
1.93165
0
LINE
8
BLACK
6
CONTINUOUS
10
1.16004
20
1.93165
11
1.15365
21
1.9288
0
LINE
8
BLACK
6
CONTINUOUS
10
1.15365
20
1.9288
11
1.14681
21
1.92735
0
LINE
8
BLACK
6
CONTINUOUS
10
1.14681
20
1.92735
11
1.13981
21
1.92735
0
LINE
8
BLACK
6
CONTINUOUS
10
1.13981
20
1.92735
11
1.13297
21
1.9288
0
LINE
8
BLACK
6
CONTINUOUS
10
1.13297
20
1.9288
11
1.12657
21
1.93165
0
LINE
8
BLACK
6
CONTINUOUS
10
1.12657
20
1.93165
11
1.12091
21
1.93576
0
LINE
8
BLACK
6
CONTINUOUS
10
1.12091
20
1.93576
11
1.11623
21
1.94096
0
LINE
8
BLACK
6
CONTINUOUS
10
1.11623
20
1.94096
11
1.11274
21
1.94702
0
LINE
8
BLACK
6
CONTINUOUS
10
1.11274
20
1.94702
11
1.11057
21
1.95367
0
LINE
8
BLACK
6
CONTINUOUS
10
1.11057
20
1.95367
11
1.10984
21
1.96063
0
LINE
8
BLACK
6
CONTINUOUS
10
1.10984
20
1.96063
11
1.11057
21
1.96759
0
LINE
8
BLACK
6
CONTINUOUS
10
1.11057
20
1.96759
11
1.11274
21
1.97424
0
LINE
8
BLACK
6
CONTINUOUS
10
1.11274
20
1.97424
11
1.11623
21
1.9803
0
LINE
8
BLACK
6
CONTINUOUS
10
1.11623
20
1.9803
11
1.12091
21
1.9855
0
LINE
8
BLACK
6
CONTINUOUS
10
1.12091
20
1.9855
11
1.12657
21
1.98961
0
LINE
8
BLACK
6
CONTINUOUS
10
1.12657
20
1.98961
11
1.13297
21
1.99246
0
LINE
8
BLACK
6
CONTINUOUS
10
1.13297
20
1.99246
11
1.13981
21
1.99391
0
LINE
8
BLACK
6
CONTINUOUS
10
1.13981
20
1.99391
11
1.14681
21
1.99391
0
LINE
8
BLACK
6
CONTINUOUS
10
1.14681
20
1.99391
11
1.15365
21
1.99246
0
LINE
8
BLACK
6
CONTINUOUS
10
1.25365
20
1.99246
11
1.26004
21
1.98961
0
LINE
8
BLACK
6
CONTINUOUS
10
1.26004
20
1.98961
11
1.2657
21
1.9855
0
LINE
8
BLACK
6
CONTINUOUS
10
1.2657
20
1.9855
11
1.27038
21
1.9803
0
LINE
8
BLACK
6
CONTINUOUS
10
1.27038
20
1.9803
11
1.27388
21
1.97424
0
LINE
8
BLACK
6
CONTINUOUS
10
1.27388
20
1.97424
11
1.27604
21
1.96759
0
LINE
8
BLACK
6
CONTINUOUS
10
1.27604
20
1.96759
11
1.27677
21
1.96063
0
LINE
8
BLACK
6
CONTINUOUS
10
1.27677
20
1.96063
11
1.27604
21
1.95367
0
LINE
8
BLACK
6
CONTINUOUS
10
1.27604
20
1.95367
11
1.27388
21
1.94702
0
LINE
8
BLACK
6
CONTINUOUS
10
1.27388
20
1.94702
11
1.27038
21
1.94096
0
LINE
8
BLACK
6
CONTINUOUS
10
1.27038
20
1.94096
11
1.2657
21
1.93576
0
LINE
8
BLACK
6
CONTINUOUS
10
1.2657
20
1.93576
11
1.26004
21
1.93165
0
LINE
8
BLACK
6
CONTINUOUS
10
1.26004
20
1.93165
11
1.25365
21
1.9288
0
LINE
8
BLACK
6
CONTINUOUS
10
1.25365
20
1.9288
11
1.24681
21
1.92735
0
LINE
8
BLACK
6
CONTINUOUS
10
1.24681
20
1.92735
11
1.23981
21
1.92735
0
LINE
8
BLACK
6
CONTINUOUS
10
1.23981
20
1.92735
11
1.23297
21
1.9288
0
LINE
8
BLACK
6
CONTINUOUS
10
1.23297
20
1.9288
11
1.22657
21
1.93165
0
LINE
8
BLACK
6
CONTINUOUS
10
1.22657
20
1.93165
11
1.22091
21
1.93576
0
LINE
8
BLACK
6
CONTINUOUS
10
1.22091
20
1.93576
11
1.21623
21
1.94096
0
LINE
8
BLACK
6
CONTINUOUS
10
1.21623
20
1.94096
11
1.21274
21
1.94702
0
LINE
8
BLACK
6
CONTINUOUS
10
1.21274
20
1.94702
11
1.21057
21
1.95367
0
LINE
8
BLACK
6
CONTINUOUS
10
1.21057
20
1.95367
11
1.20984
21
1.96063
0
LINE
8
BLACK
6
CONTINUOUS
10
1.20984
20
1.96063
11
1.21057
21
1.96759
0
LINE
8
BLACK
6
CONTINUOUS
10
1.21057
20
1.96759
11
1.21274
21
1.97424
0
LINE
8
BLACK
6
CONTINUOUS
10
1.21274
20
1.97424
11
1.21623
21
1.9803
0
LINE
8
BLACK
6
CONTINUOUS
10
1.21623
20
1.9803
11
1.22091
21
1.9855
0
LINE
8
BLACK
6
CONTINUOUS
10
1.22091
20
1.9855
11
1.22657
21
1.98961
0
LINE
8
BLACK
6
CONTINUOUS
10
1.22657
20
1.98961
11
1.23297
21
1.99246
0
LINE
8
BLACK
6
CONTINUOUS
10
1.23297
20
1.99246
11
1.23981
21
1.99391
0
LINE
8
BLACK
6
CONTINUOUS
10
1.23981
20
1.99391
11
1.24681
21
1.99391
0
LINE
8
BLACK
6
CONTINUOUS
10
1.24681
20
1.99391
11
1.25365
21
1.99246
0
LINE
8
BLACK
6
CONTINUOUS
10
1.35365
20
1.99246
11
1.36004
21
1.98961
0
LINE
8
BLACK
6
CONTINUOUS
10
1.36004
20
1.98961
11
1.3657
21
1.9855
0
LINE
8
BLACK
6
CONTINUOUS
10
1.3657
20
1.9855
11
1.37038
21
1.9803
0
LINE
8
BLACK
6
CONTINUOUS
10
1.37038
20
1.9803
11
1.37388
21
1.97424
0
LINE
8
BLACK
6
CONTINUOUS
10
1.37388
20
1.97424
11
1.37604
21
1.96759
0
LINE
8
BLACK
6
CONTINUOUS
10
1.37604
20
1.96759
11
1.37677
21
1.96063
0
LINE
8
BLACK
6
CONTINUOUS
10
1.37677
20
1.96063
11
1.37604
21
1.95367
0
LINE
8
BLACK
6
CONTINUOUS
10
1.37604
20
1.95367
11
1.37388
21
1.94702
0
LINE
8
BLACK
6
CONTINUOUS
10
1.37388
20
1.94702
11
1.37038
21
1.94096
0
LINE
8
BLACK
6
CONTINUOUS
10
1.37038
20
1.94096
11
1.3657
21
1.93576
0
LINE
8
BLACK
6
CONTINUOUS
10
1.3657
20
1.93576
11
1.36004
21
1.93165
0
LINE
8
BLACK
6
CONTINUOUS
10
1.36004
20
1.93165
11
1.35365
21
1.9288
0
LINE
8
BLACK
6
CONTINUOUS
10
1.35365
20
1.9288
11
1.34681
21
1.92735
0
LINE
8
BLACK
6
CONTINUOUS
10
1.34681
20
1.92735
11
1.33981
21
1.92735
0
LINE
8
BLACK
6
CONTINUOUS
10
1.33981
20
1.92735
11
1.33297
21
1.9288
0
LINE
8
BLACK
6
CONTINUOUS
10
1.33297
20
1.9288
11
1.32657
21
1.93165
0
LINE
8
BLACK
6
CONTINUOUS
10
1.32657
20
1.93165
11
1.32091
21
1.93576
0
LINE
8
BLACK
6
CONTINUOUS
10
1.32091
20
1.93576
11
1.31623
21
1.94096
0
LINE
8
BLACK
6
CONTINUOUS
10
1.31623
20
1.94096
11
1.31274
21
1.94702
0
LINE
8
BLACK
6
CONTINUOUS
10
1.31274
20
1.94702
11
1.31057
21
1.95367
0
LINE
8
BLACK
6
CONTINUOUS
10
1.31057
20
1.95367
11
1.30984
21
1.96063
0
LINE
8
BLACK
6
CONTINUOUS
10
1.30984
20
1.96063
11
1.31057
21
1.96759
0
LINE
8
BLACK
6
CONTINUOUS
10
1.31057
20
1.96759
11
1.31274
21
1.97424
0
LINE
8
BLACK
6
CONTINUOUS
10
1.31274
20
1.97424
11
1.31623
21
1.9803
0
LINE
8
BLACK
6
CONTINUOUS
10
1.31623
20
1.9803
11
1.32091
21
1.9855
0
LINE
8
BLACK
6
CONTINUOUS
10
1.32091
20
1.9855
11
1.32657
21
1.98961
0
LINE
8
BLACK
6
CONTINUOUS
10
1.32657
20
1.98961
11
1.33297
21
1.99246
0
LINE
8
BLACK
6
CONTINUOUS
10
1.33297
20
1.99246
11
1.33981
21
1.99391
0
LINE
8
BLACK
6
CONTINUOUS
10
1.33981
20
1.99391
11
1.34681
21
1.99391
0
LINE
8
BLACK
6
CONTINUOUS
10
1.34681
20
1.99391
11
1.35365
21
1.99246
0
LINE
8
BLACK
6
CONTINUOUS
10
0.953648
20
2.09246
11
0.960039
21
2.08961
0
LINE
8
BLACK
6
CONTINUOUS
10
0.960039
20
2.08961
11
0.965699
21
2.0855
0
LINE
8
BLACK
6
CONTINUOUS
10
0.965699
20
2.0855
11
0.97038
21
2.0803
0
LINE
8
BLACK
6
CONTINUOUS
10
0.97038
20
2.0803
11
0.973879
21
2.07424
0
LINE
8
BLACK
6
CONTINUOUS
10
0.973879
20
2.07424
11
0.97604
21
2.06759
0
LINE
8
BLACK
6
CONTINUOUS
10
0.97604
20
2.06759
11
0.976772
21
2.06063
0
LINE
8
BLACK
6
CONTINUOUS
10
0.976772
20
2.06063
11
0.97604
21
2.05367
0
LINE
8
BLACK
6
CONTINUOUS
10
0.97604
20
2.05367
11
0.973879
21
2.04702
0
LINE
8
BLACK
6
CONTINUOUS
10
0.973879
20
2.04702
11
0.97038
21
2.04096
0
LINE
8
BLACK
6
CONTINUOUS
10
0.97038
20
2.04096
11
0.965699
21
2.03576
0
LINE
8
BLACK
6
CONTINUOUS
10
0.965699
20
2.03576
11
0.960039
21
2.03165
0
LINE
8
BLACK
6
CONTINUOUS
10
0.960039
20
2.03165
11
0.953648
21
2.0288
0
LINE
8
BLACK
6
CONTINUOUS
10
0.953648
20
2.0288
11
0.946805
21
2.02735
0
LINE
8
BLACK
6
CONTINUOUS
10
0.946805
20
2.02735
11
0.939809
21
2.02735
0
LINE
8
BLACK
6
CONTINUOUS
10
0.939809
20
2.02735
11
0.932966
21
2.0288
0
LINE
8
BLACK
6
CONTINUOUS
10
0.932966
20
2.0288
11
0.926575
21
2.03165
0
LINE
8
BLACK
6
CONTINUOUS
10
0.926575
20
2.03165
11
0.920915
21
2.03576
0
LINE
8
BLACK
6
CONTINUOUS
10
0.920915
20
2.03576
11
0.916234
21
2.04096
0
LINE
8
BLACK
6
CONTINUOUS
10
0.916234
20
2.04096
11
0.912736
21
2.04702
0
LINE
8
BLACK
6
CONTINUOUS
10
0.912736
20
2.04702
11
0.910574
21
2.05367
0
LINE
8
BLACK
6
CONTINUOUS
10
0.910574
20
2.05367
11
0.909843
21
2.06063
0
LINE
8
BLACK
6
CONTINUOUS
10
0.909843
20
2.06063
11
0.910574
21
2.06759
0
LINE
8
BLACK
6
CONTINUOUS
10
0.910574
20
2.06759
11
0.912736
21
2.07424
0
LINE
8
BLACK
6
CONTINUOUS
10
0.912736
20
2.07424
11
0.916234
21
2.0803
0
LINE
8
BLACK
6
CONTINUOUS
10
0.916234
20
2.0803
11
0.920915
21
2.0855
0
LINE
8
BLACK
6
CONTINUOUS
10
0.920915
20
2.0855
11
0.926575
21
2.08961
0
LINE
8
BLACK
6
CONTINUOUS
10
0.926575
20
2.08961
11
0.932966
21
2.09246
0
LINE
8
BLACK
6
CONTINUOUS
10
0.932966
20
2.09246
11
0.939809
21
2.09391
0
LINE
8
BLACK
6
CONTINUOUS
10
0.939809
20
2.09391
11
0.946805
21
2.09391
0
LINE
8
BLACK
6
CONTINUOUS
10
0.946805
20
2.09391
11
0.953648
21
2.09246
0
LINE
8
BLACK
6
CONTINUOUS
10
1.05365
20
2.09246
11
1.06004
21
2.08961
0
LINE
8
BLACK
6
CONTINUOUS
10
1.06004
20
2.08961
11
1.0657
21
2.0855
0
LINE
8
BLACK
6
CONTINUOUS
10
1.0657
20
2.0855
11
1.07038
21
2.0803
0
LINE
8
BLACK
6
CONTINUOUS
10
1.07038
20
2.0803
11
1.07388
21
2.07424
0
LINE
8
BLACK
6
CONTINUOUS
10
1.07388
20
2.07424
11
1.07604
21
2.06759
0
LINE
8
BLACK
6
CONTINUOUS
10
1.07604
20
2.06759
11
1.07677
21
2.06063
0
LINE
8
BLACK
6
CONTINUOUS
10
1.07677
20
2.06063
11
1.07604
21
2.05367
0
LINE
8
BLACK
6
CONTINUOUS
10
1.07604
20
2.05367
11
1.07388
21
2.04702
0
LINE
8
BLACK
6
CONTINUOUS
10
1.07388
20
2.04702
11
1.07038
21
2.04096
0
LINE
8
BLACK
6
CONTINUOUS
10
1.07038
20
2.04096
11
1.0657
21
2.03576
0
LINE
8
BLACK
6
CONTINUOUS
10
1.0657
20
2.03576
11
1.06004
21
2.03165
0
LINE
8
BLACK
6
CONTINUOUS
10
1.06004
20
2.03165
11
1.05365
21
2.0288
0
LINE
8
BLACK
6
CONTINUOUS
10
1.05365
20
2.0288
11
1.04681
21
2.02735
0
LINE
8
BLACK
6
CONTINUOUS
10
1.04681
20
2.02735
11
1.03981
21
2.02735
0
LINE
8
BLACK
6
CONTINUOUS
10
1.03981
20
2.02735
11
1.03297
21
2.0288
0
LINE
8
BLACK
6
CONTINUOUS
10
1.03297
20
2.0288
11
1.02657
21
2.03165
0
LINE
8
BLACK
6
CONTINUOUS
10
1.02657
20
2.03165
11
1.02091
21
2.03576
0
LINE
8
BLACK
6
CONTINUOUS
10
1.02091
20
2.03576
11
1.01623
21
2.04096
0
LINE
8
BLACK
6
CONTINUOUS
10
1.01623
20
2.04096
11
1.01274
21
2.04702
0
LINE
8
BLACK
6
CONTINUOUS
10
1.01274
20
2.04702
11
1.01057
21
2.05367
0
LINE
8
BLACK
6
CONTINUOUS
10
1.01057
20
2.05367
11
1.00984
21
2.06063
0
LINE
8
BLACK
6
CONTINUOUS
10
1.00984
20
2.06063
11
1.01057
21
2.06759
0
LINE
8
BLACK
6
CONTINUOUS
10
1.01057
20
2.06759
11
1.01274
21
2.07424
0
LINE
8
BLACK
6
CONTINUOUS
10
1.01274
20
2.07424
11
1.01623
21
2.0803
0
LINE
8
BLACK
6
CONTINUOUS
10
1.01623
20
2.0803
11
1.02091
21
2.0855
0
LINE
8
BLACK
6
CONTINUOUS
10
1.02091
20
2.0855
11
1.02657
21
2.08961
0
LINE
8
BLACK
6
CONTINUOUS
10
1.02657
20
2.08961
11
1.03297
21
2.09246
0
LINE
8
BLACK
6
CONTINUOUS
10
1.03297
20
2.09246
11
1.03981
21
2.09391
0
LINE
8
BLACK
6
CONTINUOUS
10
1.03981
20
2.09391
11
1.04681
21
2.09391
0
LINE
8
BLACK
6
CONTINUOUS
10
1.04681
20
2.09391
11
1.05365
21
2.09246
0
LINE
8
BLACK
6
CONTINUOUS
10
1.15365
20
2.09246
11
1.16004
21
2.08961
0
LINE
8
BLACK
6
CONTINUOUS
10
1.16004
20
2.08961
11
1.1657
21
2.0855
0
LINE
8
BLACK
6
CONTINUOUS
10
1.1657
20
2.0855
11
1.17038
21
2.0803
0
LINE
8
BLACK
6
CONTINUOUS
10
1.17038
20
2.0803
11
1.17388
21
2.07424
0
LINE
8
BLACK
6
CONTINUOUS
10
1.17388
20
2.07424
11
1.17604
21
2.06759
0
LINE
8
BLACK
6
CONTINUOUS
10
1.17604
20
2.06759
11
1.17677
21
2.06063
0
LINE
8
BLACK
6
CONTINUOUS
10
1.17677
20
2.06063
11
1.17604
21
2.05367
0
LINE
8
BLACK
6
CONTINUOUS
10
1.17604
20
2.05367
11
1.17388
21
2.04702
0
LINE
8
BLACK
6
CONTINUOUS
10
1.17388
20
2.04702
11
1.17038
21
2.04096
0
LINE
8
BLACK
6
CONTINUOUS
10
1.17038
20
2.04096
11
1.1657
21
2.03576
0
LINE
8
BLACK
6
CONTINUOUS
10
1.1657
20
2.03576
11
1.16004
21
2.03165
0
LINE
8
BLACK
6
CONTINUOUS
10
1.16004
20
2.03165
11
1.15365
21
2.0288
0
LINE
8
BLACK
6
CONTINUOUS
10
1.15365
20
2.0288
11
1.14681
21
2.02735
0
LINE
8
BLACK
6
CONTINUOUS
10
1.14681
20
2.02735
11
1.13981
21
2.02735
0
LINE
8
BLACK
6
CONTINUOUS
10
1.13981
20
2.02735
11
1.13297
21
2.0288
0
LINE
8
BLACK
6
CONTINUOUS
10
1.13297
20
2.0288
11
1.12657
21
2.03165
0
LINE
8
BLACK
6
CONTINUOUS
10
1.12657
20
2.03165
11
1.12091
21
2.03576
0
LINE
8
BLACK
6
CONTINUOUS
10
1.12091
20
2.03576
11
1.11623
21
2.04096
0
LINE
8
BLACK
6
CONTINUOUS
10
1.11623
20
2.04096
11
1.11274
21
2.04702
0
LINE
8
BLACK
6
CONTINUOUS
10
1.11274
20
2.04702
11
1.11057
21
2.05367
0
LINE
8
BLACK
6
CONTINUOUS
10
1.11057
20
2.05367
11
1.10984
21
2.06063
0
LINE
8
BLACK
6
CONTINUOUS
10
1.10984
20
2.06063
11
1.11057
21
2.06759
0
LINE
8
BLACK
6
CONTINUOUS
10
1.11057
20
2.06759
11
1.11274
21
2.07424
0
LINE
8
BLACK
6
CONTINUOUS
10
1.11274
20
2.07424
11
1.11623
21
2.0803
0
LINE
8
BLACK
6
CONTINUOUS
10
1.11623
20
2.0803
11
1.12091
21
2.0855
0
LINE
8
BLACK
6
CONTINUOUS
10
1.12091
20
2.0855
11
1.12657
21
2.08961
0
LINE
8
BLACK
6
CONTINUOUS
10
1.12657
20
2.08961
11
1.13297
21
2.09246
0
LINE
8
BLACK
6
CONTINUOUS
10
1.13297
20
2.09246
11
1.13981
21
2.09391
0
LINE
8
BLACK
6
CONTINUOUS
10
1.13981
20
2.09391
11
1.14681
21
2.09391
0
LINE
8
BLACK
6
CONTINUOUS
10
1.14681
20
2.09391
11
1.15365
21
2.09246
0
LINE
8
BLACK
6
CONTINUOUS
10
1.25365
20
2.09246
11
1.26004
21
2.08961
0
LINE
8
BLACK
6
CONTINUOUS
10
1.26004
20
2.08961
11
1.2657
21
2.0855
0
LINE
8
BLACK
6
CONTINUOUS
10
1.2657
20
2.0855
11
1.27038
21
2.0803
0
LINE
8
BLACK
6
CONTINUOUS
10
1.27038
20
2.0803
11
1.27388
21
2.07424
0
LINE
8
BLACK
6
CONTINUOUS
10
1.27388
20
2.07424
11
1.27604
21
2.06759
0
LINE
8
BLACK
6
CONTINUOUS
10
1.27604
20
2.06759
11
1.27677
21
2.06063
0
LINE
8
BLACK
6
CONTINUOUS
10
1.27677
20
2.06063
11
1.27604
21
2.05367
0
LINE
8
BLACK
6
CONTINUOUS
10
1.27604
20
2.05367
11
1.27388
21
2.04702
0
LINE
8
BLACK
6
CONTINUOUS
10
1.27388
20
2.04702
11
1.27038
21
2.04096
0
LINE
8
BLACK
6
CONTINUOUS
10
1.27038
20
2.04096
11
1.2657
21
2.03576
0
LINE
8
BLACK
6
CONTINUOUS
10
1.2657
20
2.03576
11
1.26004
21
2.03165
0
LINE
8
BLACK
6
CONTINUOUS
10
1.26004
20
2.03165
11
1.25365
21
2.0288
0
LINE
8
BLACK
6
CONTINUOUS
10
1.25365
20
2.0288
11
1.24681
21
2.02735
0
LINE
8
BLACK
6
CONTINUOUS
10
1.24681
20
2.02735
11
1.23981
21
2.02735
0
LINE
8
BLACK
6
CONTINUOUS
10
1.23981
20
2.02735
11
1.23297
21
2.0288
0
LINE
8
BLACK
6
CONTINUOUS
10
1.23297
20
2.0288
11
1.22657
21
2.03165
0
LINE
8
BLACK
6
CONTINUOUS
10
1.22657
20
2.03165
11
1.22091
21
2.03576
0
LINE
8
BLACK
6
CONTINUOUS
10
1.22091
20
2.03576
11
1.21623
21
2.04096
0
LINE
8
BLACK
6
CONTINUOUS
10
1.21623
20
2.04096
11
1.21274
21
2.04702
0
LINE
8
BLACK
6
CONTINUOUS
10
1.21274
20
2.04702
11
1.21057
21
2.05367
0
LINE
8
BLACK
6
CONTINUOUS
10
1.21057
20
2.05367
11
1.20984
21
2.06063
0
LINE
8
BLACK
6
CONTINUOUS
10
1.20984
20
2.06063
11
1.21057
21
2.06759
0
LINE
8
BLACK
6
CONTINUOUS
10
1.21057
20
2.06759
11
1.21274
21
2.07424
0
LINE
8
BLACK
6
CONTINUOUS
10
1.21274
20
2.07424
11
1.21623
21
2.0803
0
LINE
8
BLACK
6
CONTINUOUS
10
1.21623
20
2.0803
11
1.22091
21
2.0855
0
LINE
8
BLACK
6
CONTINUOUS
10
1.22091
20
2.0855
11
1.22657
21
2.08961
0
LINE
8
BLACK
6
CONTINUOUS
10
1.22657
20
2.08961
11
1.23297
21
2.09246
0
LINE
8
BLACK
6
CONTINUOUS
10
1.23297
20
2.09246
11
1.23981
21
2.09391
0
LINE
8
BLACK
6
CONTINUOUS
10
1.23981
20
2.09391
11
1.24681
21
2.09391
0
LINE
8
BLACK
6
CONTINUOUS
10
1.24681
20
2.09391
11
1.25365
21
2.09246
0
LINE
8
BLACK
6
CONTINUOUS
10
1.35365
20
2.09246
11
1.36004
21
2.08961
0
LINE
8
BLACK
6
CONTINUOUS
10
1.36004
20
2.08961
11
1.3657
21
2.0855
0
LINE
8
BLACK
6
CONTINUOUS
10
1.3657
20
2.0855
11
1.37038
21
2.0803
0
LINE
8
BLACK
6
CONTINUOUS
10
1.37038
20
2.0803
11
1.37388
21
2.07424
0
LINE
8
BLACK
6
CONTINUOUS
10
1.37388
20
2.07424
11
1.37604
21
2.06759
0
LINE
8
BLACK
6
CONTINUOUS
10
1.37604
20
2.06759
11
1.37677
21
2.06063
0
LINE
8
BLACK
6
CONTINUOUS
10
1.37677
20
2.06063
11
1.37604
21
2.05367
0
LINE
8
BLACK
6
CONTINUOUS
10
1.37604
20
2.05367
11
1.37388
21
2.04702
0
LINE
8
BLACK
6
CONTINUOUS
10
1.37388
20
2.04702
11
1.37038
21
2.04096
0
LINE
8
BLACK
6
CONTINUOUS
10
1.37038
20
2.04096
11
1.3657
21
2.03576
0
LINE
8
BLACK
6
CONTINUOUS
10
1.3657
20
2.03576
11
1.36004
21
2.03165
0
LINE
8
BLACK
6
CONTINUOUS
10
1.36004
20
2.03165
11
1.35365
21
2.0288
0
LINE
8
BLACK
6
CONTINUOUS
10
1.35365
20
2.0288
11
1.34681
21
2.02735
0
LINE
8
BLACK
6
CONTINUOUS
10
1.34681
20
2.02735
11
1.33981
21
2.02735
0
LINE
8
BLACK
6
CONTINUOUS
10
1.33981
20
2.02735
11
1.33297
21
2.0288
0
LINE
8
BLACK
6
CONTINUOUS
10
1.33297
20
2.0288
11
1.32657
21
2.03165
0
LINE
8
BLACK
6
CONTINUOUS
10
1.32657
20
2.03165
11
1.32091
21
2.03576
0
LINE
8
BLACK
6
CONTINUOUS
10
1.32091
20
2.03576
11
1.31623
21
2.04096
0
LINE
8
BLACK
6
CONTINUOUS
10
1.31623
20
2.04096
11
1.31274
21
2.04702
0
LINE
8
BLACK
6
CONTINUOUS
10
1.31274
20
2.04702
11
1.31057
21
2.05367
0
LINE
8
BLACK
6
CONTINUOUS
10
1.31057
20
2.05367
11
1.30984
21
2.06063
0
LINE
8
BLACK
6
CONTINUOUS
10
1.30984
20
2.06063
11
1.31057
21
2.06759
0
LINE
8
BLACK
6
CONTINUOUS
10
1.31057
20
2.06759
11
1.31274
21
2.07424
0
LINE
8
BLACK
6
CONTINUOUS
10
1.31274
20
2.07424
11
1.31623
21
2.0803
0
LINE
8
BLACK
6
CONTINUOUS
10
1.31623
20
2.0803
11
1.32091
21
2.0855
0
LINE
8
BLACK
6
CONTINUOUS
10
1.32091
20
2.0855
11
1.32657
21
2.08961
0
LINE
8
BLACK
6
CONTINUOUS
10
1.32657
20
2.08961
11
1.33297
21
2.09246
0
LINE
8
BLACK
6
CONTINUOUS
10
1.33297
20
2.09246
11
1.33981
21
2.09391
0
LINE
8
BLACK
6
CONTINUOUS
10
1.33981
20
2.09391
11
1.34681
21
2.09391
0
LINE
8
BLACK
6
CONTINUOUS
10
1.34681
20
2.09391
11
1.35365
21
2.09246
  0
ENDSEC
  0
EOF
