  0
SECTION
  2
HEADER
  9
$ANGBASE
  50
0.0
  9
$ANGDIR
  70
1
  9
$MEASUREMENT
  70
0
  0
ENDSEC
  0
SECTION
  2
TABLES
  0
TABLE
  2
LTYPE
  70
4
  0
LTYPE
  5
40F
  2
CONTINUOUS
  70
0
  3
Solid line
  72
65
  73
0
  40
0.0
  0
LTYPE
  5
410
  2
DASHDOT
 70
0
  3
Dash Dot ____ _ ____ _
 72
65
 73
4
 40
2.0
 49
1.25
 49
-0.25
 49
0.25
 49
-0.25
  0
LTYPE
  5
411
  2
DASHED
 70
0
  3
Dashed __ __ __ __ __
 72
65
 73
2
 40
0.75
 49
0.5
 49
-0.25
  0
LTYPE
  5
43B
  2
DOTTED
 70
0
  3
Dotted .  .  .  .
 72
65
 73
2
 40
0.2
 49
0.0
 49
-0.2
  0
ENDTAB
  0
TABLE
  2
STYLE
  70
4
  0
STYLE
  2
KICAD
  70
0
  40
0
  41
1
  42
1
  50
0
  71
0
  3
isocp.shx
  0
STYLE
  2
KICADB
  70
0
  40
0
  41
1
  42
1
  50
0
  71
0
  3
isocp.shx
  0
STYLE
  2
KICADI
  70
0
  40
0
  41
1
  42
1
  50
15
  71
0
  3
isocp.shx
  0
STYLE
  2
KICADBI
  70
0
  40
0
  41
1
  42
1
  50
15
  71
0
  3
isocp.shx
  0
ENDTAB
  0
TABLE
  2
LAYER
  70
1
  0
LAYER
  2
BLACK
  70
0
  62
7
  6
CONTINUOUS
  0
ENDTAB
  0
ENDSEC
  0
SECTION
  2
ENTITIES
0
LINE
8
BLACK
6
CONTINUOUS
10
0.414063
20
0.52481
11
0.427949
21
0.522451
0
LINE
8
BLACK
6
CONTINUOUS
10
0.427949
20
0.522451
11
0.441483
21
0.518552
0
LINE
8
BLACK
6
CONTINUOUS
10
0.441483
20
0.518552
11
0.454496
21
0.513162
0
LINE
8
BLACK
6
CONTINUOUS
10
0.454496
20
0.513162
11
0.466823
21
0.506349
0
LINE
8
BLACK
6
CONTINUOUS
10
0.466823
20
0.506349
11
0.47831
21
0.498198
0
LINE
8
BLACK
6
CONTINUOUS
10
0.47831
20
0.498198
11
0.488813
21
0.488813
0
LINE
8
BLACK
6
CONTINUOUS
10
0.488813
20
0.488813
11
0.498198
21
0.47831
0
LINE
8
BLACK
6
CONTINUOUS
10
0.498198
20
0.47831
11
0.506349
21
0.466823
0
LINE
8
BLACK
6
CONTINUOUS
10
0.506349
20
0.466823
11
0.513162
21
0.454496
0
LINE
8
BLACK
6
CONTINUOUS
10
0.513162
20
0.454496
11
0.518552
21
0.441483
0
LINE
8
BLACK
6
CONTINUOUS
10
0.518552
20
0.441483
11
0.522451
21
0.427949
0
LINE
8
BLACK
6
CONTINUOUS
10
0.522451
20
0.427949
11
0.52481
21
0.414063
0
LINE
8
BLACK
6
CONTINUOUS
10
0.52481
20
0.414063
11
0.5256
21
0.4
0
LINE
8
BLACK
6
CONTINUOUS
10
0.5256
20
0.4
11
0.52481
21
0.385937
0
LINE
8
BLACK
6
CONTINUOUS
10
0.52481
20
0.385937
11
0.522451
21
0.372051
0
LINE
8
BLACK
6
CONTINUOUS
10
0.522451
20
0.372051
11
0.518552
21
0.358517
0
LINE
8
BLACK
6
CONTINUOUS
10
0.518552
20
0.358517
11
0.513162
21
0.345504
0
LINE
8
BLACK
6
CONTINUOUS
10
0.513162
20
0.345504
11
0.506349
21
0.333177
0
LINE
8
BLACK
6
CONTINUOUS
10
0.506349
20
0.333177
11
0.498198
21
0.32169
0
LINE
8
BLACK
6
CONTINUOUS
10
0.498198
20
0.32169
11
0.488813
21
0.311187
0
LINE
8
BLACK
6
CONTINUOUS
10
0.488813
20
0.311187
11
0.47831
21
0.301802
0
LINE
8
BLACK
6
CONTINUOUS
10
0.47831
20
0.301802
11
0.466823
21
0.293651
0
LINE
8
BLACK
6
CONTINUOUS
10
0.466823
20
0.293651
11
0.454496
21
0.286838
0
LINE
8
BLACK
6
CONTINUOUS
10
0.454496
20
0.286838
11
0.441483
21
0.281448
0
LINE
8
BLACK
6
CONTINUOUS
10
0.441483
20
0.281448
11
0.427949
21
0.277549
0
LINE
8
BLACK
6
CONTINUOUS
10
0.427949
20
0.277549
11
0.414063
21
0.27519
0
LINE
8
BLACK
6
CONTINUOUS
10
0.414063
20
0.27519
11
0.4
21
0.2744
0
LINE
8
BLACK
6
CONTINUOUS
10
0.4
20
0.2744
11
0.385937
21
0.27519
0
LINE
8
BLACK
6
CONTINUOUS
10
0.385937
20
0.27519
11
0.372051
21
0.277549
0
LINE
8
BLACK
6
CONTINUOUS
10
0.372051
20
0.277549
11
0.358517
21
0.281448
0
LINE
8
BLACK
6
CONTINUOUS
10
0.358517
20
0.281448
11
0.345504
21
0.286838
0
LINE
8
BLACK
6
CONTINUOUS
10
0.345504
20
0.286838
11
0.333177
21
0.293651
0
LINE
8
BLACK
6
CONTINUOUS
10
0.333177
20
0.293651
11
0.32169
21
0.301802
0
LINE
8
BLACK
6
CONTINUOUS
10
0.32169
20
0.301802
11
0.311187
21
0.311187
0
LINE
8
BLACK
6
CONTINUOUS
10
0.311187
20
0.311187
11
0.301802
21
0.32169
0
LINE
8
BLACK
6
CONTINUOUS
10
0.301802
20
0.32169
11
0.293651
21
0.333177
0
LINE
8
BLACK
6
CONTINUOUS
10
0.293651
20
0.333177
11
0.286838
21
0.345504
0
LINE
8
BLACK
6
CONTINUOUS
10
0.286838
20
0.345504
11
0.281448
21
0.358517
0
LINE
8
BLACK
6
CONTINUOUS
10
0.281448
20
0.358517
11
0.277549
21
0.372051
0
LINE
8
BLACK
6
CONTINUOUS
10
0.277549
20
0.372051
11
0.27519
21
0.385937
0
LINE
8
BLACK
6
CONTINUOUS
10
0.27519
20
0.385937
11
0.2744
21
0.4
0
LINE
8
BLACK
6
CONTINUOUS
10
0.2744
20
0.4
11
0.27519
21
0.414063
0
LINE
8
BLACK
6
CONTINUOUS
10
0.27519
20
0.414063
11
0.277549
21
0.427949
0
LINE
8
BLACK
6
CONTINUOUS
10
0.277549
20
0.427949
11
0.281448
21
0.441483
0
LINE
8
BLACK
6
CONTINUOUS
10
0.281448
20
0.441483
11
0.286838
21
0.454496
0
LINE
8
BLACK
6
CONTINUOUS
10
0.286838
20
0.454496
11
0.293651
21
0.466823
0
LINE
8
BLACK
6
CONTINUOUS
10
0.293651
20
0.466823
11
0.301802
21
0.47831
0
LINE
8
BLACK
6
CONTINUOUS
10
0.301802
20
0.47831
11
0.311187
21
0.488813
0
LINE
8
BLACK
6
CONTINUOUS
10
0.311187
20
0.488813
11
0.32169
21
0.498198
0
LINE
8
BLACK
6
CONTINUOUS
10
0.32169
20
0.498198
11
0.333177
21
0.506349
0
LINE
8
BLACK
6
CONTINUOUS
10
0.333177
20
0.506349
11
0.345504
21
0.513162
0
LINE
8
BLACK
6
CONTINUOUS
10
0.345504
20
0.513162
11
0.358517
21
0.518552
0
LINE
8
BLACK
6
CONTINUOUS
10
0.358517
20
0.518552
11
0.372051
21
0.522451
0
LINE
8
BLACK
6
CONTINUOUS
10
0.372051
20
0.522451
11
0.385937
21
0.52481
0
LINE
8
BLACK
6
CONTINUOUS
10
0.385937
20
0.52481
11
0.4
21
0.5256
0
LINE
8
BLACK
6
CONTINUOUS
10
0.4
20
0.5256
11
0.414063
21
0.52481
0
LINE
8
BLACK
6
CONTINUOUS
10
0.289962
20
0.387138
11
0.292199
21
0.374451
0
LINE
8
BLACK
6
CONTINUOUS
10
0.292199
20
0.374451
11
0.295894
21
0.362108
0
LINE
8
BLACK
6
CONTINUOUS
10
0.295894
20
0.362108
11
0.300997
21
0.350279
0
LINE
8
BLACK
6
CONTINUOUS
10
0.300997
20
0.350279
11
0.307438
21
0.339121
0
LINE
8
BLACK
6
CONTINUOUS
10
0.307438
20
0.339121
11
0.315132
21
0.328787
0
LINE
8
BLACK
6
CONTINUOUS
10
0.315132
20
0.328787
11
0.323973
21
0.319416
0
LINE
8
BLACK
6
CONTINUOUS
10
0.323973
20
0.319416
11
0.333842
21
0.311135
0
LINE
8
BLACK
6
CONTINUOUS
10
0.333842
20
0.311135
11
0.344606
21
0.304055
0
LINE
8
BLACK
6
CONTINUOUS
10
0.344606
20
0.304055
11
0.356119
21
0.298273
0
LINE
8
BLACK
6
CONTINUOUS
10
0.356119
20
0.298273
11
0.368226
21
0.293867
0
LINE
8
BLACK
6
CONTINUOUS
10
0.368226
20
0.293867
11
0.380762
21
0.290896
0
LINE
8
BLACK
6
CONTINUOUS
10
0.380762
20
0.290896
11
0.393558
21
0.2894
0
LINE
8
BLACK
6
CONTINUOUS
10
0.393558
20
0.2894
11
0.406442
21
0.2894
0
LINE
8
BLACK
6
CONTINUOUS
10
0.406442
20
0.2894
11
0.419238
21
0.290896
0
LINE
8
BLACK
6
CONTINUOUS
10
0.419238
20
0.290896
11
0.431774
21
0.293867
0
LINE
8
BLACK
6
CONTINUOUS
10
0.431774
20
0.293867
11
0.443881
21
0.298273
0
LINE
8
BLACK
6
CONTINUOUS
10
0.443881
20
0.298273
11
0.455394
21
0.304055
0
LINE
8
BLACK
6
CONTINUOUS
10
0.455394
20
0.304055
11
0.466158
21
0.311135
0
LINE
8
BLACK
6
CONTINUOUS
10
0.466158
20
0.311135
11
0.476027
21
0.319416
0
LINE
8
BLACK
6
CONTINUOUS
10
0.476027
20
0.319416
11
0.484868
21
0.328787
0
LINE
8
BLACK
6
CONTINUOUS
10
0.484868
20
0.328787
11
0.492562
21
0.339121
0
LINE
8
BLACK
6
CONTINUOUS
10
0.492562
20
0.339121
11
0.499003
21
0.350279
0
LINE
8
BLACK
6
CONTINUOUS
10
0.499003
20
0.350279
11
0.504106
21
0.362108
0
LINE
8
BLACK
6
CONTINUOUS
10
0.504106
20
0.362108
11
0.507801
21
0.374451
0
LINE
8
BLACK
6
CONTINUOUS
10
0.507801
20
0.374451
11
0.510038
21
0.387138
0
LINE
8
BLACK
6
CONTINUOUS
10
0.510038
20
0.387138
11
0.510787
21
0.4
0
LINE
8
BLACK
6
CONTINUOUS
10
0.510787
20
0.4
11
0.510038
21
0.412862
0
LINE
8
BLACK
6
CONTINUOUS
10
0.510038
20
0.412862
11
0.507801
21
0.425549
0
LINE
8
BLACK
6
CONTINUOUS
10
0.507801
20
0.425549
11
0.504106
21
0.437892
0
LINE
8
BLACK
6
CONTINUOUS
10
0.504106
20
0.437892
11
0.499003
21
0.449721
0
LINE
8
BLACK
6
CONTINUOUS
10
0.499003
20
0.449721
11
0.492562
21
0.460879
0
LINE
8
BLACK
6
CONTINUOUS
10
0.492562
20
0.460879
11
0.484868
21
0.471213
0
LINE
8
BLACK
6
CONTINUOUS
10
0.484868
20
0.471213
11
0.476027
21
0.480584
0
LINE
8
BLACK
6
CONTINUOUS
10
0.476027
20
0.480584
11
0.466158
21
0.488865
0
LINE
8
BLACK
6
CONTINUOUS
10
0.466158
20
0.488865
11
0.455394
21
0.495945
0
LINE
8
BLACK
6
CONTINUOUS
10
0.455394
20
0.495945
11
0.443881
21
0.501727
0
LINE
8
BLACK
6
CONTINUOUS
10
0.443881
20
0.501727
11
0.431774
21
0.506133
0
LINE
8
BLACK
6
CONTINUOUS
10
0.431774
20
0.506133
11
0.419238
21
0.509104
0
LINE
8
BLACK
6
CONTINUOUS
10
0.419238
20
0.509104
11
0.406442
21
0.5106
0
LINE
8
BLACK
6
CONTINUOUS
10
0.406442
20
0.5106
11
0.393558
21
0.5106
0
LINE
8
BLACK
6
CONTINUOUS
10
0.393558
20
0.5106
11
0.380762
21
0.509104
0
LINE
8
BLACK
6
CONTINUOUS
10
0.380762
20
0.509104
11
0.368226
21
0.506133
0
LINE
8
BLACK
6
CONTINUOUS
10
0.368226
20
0.506133
11
0.356119
21
0.501727
0
LINE
8
BLACK
6
CONTINUOUS
10
0.356119
20
0.501727
11
0.344606
21
0.495945
0
LINE
8
BLACK
6
CONTINUOUS
10
0.344606
20
0.495945
11
0.333842
21
0.488865
0
LINE
8
BLACK
6
CONTINUOUS
10
0.333842
20
0.488865
11
0.323973
21
0.480584
0
LINE
8
BLACK
6
CONTINUOUS
10
0.323973
20
0.480584
11
0.315132
21
0.471213
0
LINE
8
BLACK
6
CONTINUOUS
10
0.315132
20
0.471213
11
0.307438
21
0.460879
0
LINE
8
BLACK
6
CONTINUOUS
10
0.307438
20
0.460879
11
0.300997
21
0.449721
0
LINE
8
BLACK
6
CONTINUOUS
10
0.300997
20
0.449721
11
0.295894
21
0.437892
0
LINE
8
BLACK
6
CONTINUOUS
10
0.295894
20
0.437892
11
0.292199
21
0.425549
0
LINE
8
BLACK
6
CONTINUOUS
10
0.292199
20
0.425549
11
0.289962
21
0.412862
0
LINE
8
BLACK
6
CONTINUOUS
10
0.289962
20
0.412862
11
0.289213
21
0.4
0
LINE
8
BLACK
6
CONTINUOUS
10
0.289213
20
0.4
11
0.289962
21
0.387138
0
LINE
8
BLACK
6
CONTINUOUS
10
1.61406
20
0.52481
11
1.62795
21
0.522451
0
LINE
8
BLACK
6
CONTINUOUS
10
1.62795
20
0.522451
11
1.64148
21
0.518552
0
LINE
8
BLACK
6
CONTINUOUS
10
1.64148
20
0.518552
11
1.6545
21
0.513162
0
LINE
8
BLACK
6
CONTINUOUS
10
1.6545
20
0.513162
11
1.66682
21
0.506349
0
LINE
8
BLACK
6
CONTINUOUS
10
1.66682
20
0.506349
11
1.67831
21
0.498198
0
LINE
8
BLACK
6
CONTINUOUS
10
1.67831
20
0.498198
11
1.68881
21
0.488813
0
LINE
8
BLACK
6
CONTINUOUS
10
1.68881
20
0.488813
11
1.6982
21
0.47831
0
LINE
8
BLACK
6
CONTINUOUS
10
1.6982
20
0.47831
11
1.70635
21
0.466823
0
LINE
8
BLACK
6
CONTINUOUS
10
1.70635
20
0.466823
11
1.71316
21
0.454496
0
LINE
8
BLACK
6
CONTINUOUS
10
1.71316
20
0.454496
11
1.71855
21
0.441483
0
LINE
8
BLACK
6
CONTINUOUS
10
1.71855
20
0.441483
11
1.72245
21
0.427949
0
LINE
8
BLACK
6
CONTINUOUS
10
1.72245
20
0.427949
11
1.72481
21
0.414063
0
LINE
8
BLACK
6
CONTINUOUS
10
1.72481
20
0.414063
11
1.7256
21
0.4
0
LINE
8
BLACK
6
CONTINUOUS
10
1.7256
20
0.4
11
1.72481
21
0.385937
0
LINE
8
BLACK
6
CONTINUOUS
10
1.72481
20
0.385937
11
1.72245
21
0.372051
0
LINE
8
BLACK
6
CONTINUOUS
10
1.72245
20
0.372051
11
1.71855
21
0.358517
0
LINE
8
BLACK
6
CONTINUOUS
10
1.71855
20
0.358517
11
1.71316
21
0.345504
0
LINE
8
BLACK
6
CONTINUOUS
10
1.71316
20
0.345504
11
1.70635
21
0.333177
0
LINE
8
BLACK
6
CONTINUOUS
10
1.70635
20
0.333177
11
1.6982
21
0.32169
0
LINE
8
BLACK
6
CONTINUOUS
10
1.6982
20
0.32169
11
1.68881
21
0.311187
0
LINE
8
BLACK
6
CONTINUOUS
10
1.68881
20
0.311187
11
1.67831
21
0.301802
0
LINE
8
BLACK
6
CONTINUOUS
10
1.67831
20
0.301802
11
1.66682
21
0.293651
0
LINE
8
BLACK
6
CONTINUOUS
10
1.66682
20
0.293651
11
1.6545
21
0.286838
0
LINE
8
BLACK
6
CONTINUOUS
10
1.6545
20
0.286838
11
1.64148
21
0.281448
0
LINE
8
BLACK
6
CONTINUOUS
10
1.64148
20
0.281448
11
1.62795
21
0.277549
0
LINE
8
BLACK
6
CONTINUOUS
10
1.62795
20
0.277549
11
1.61406
21
0.27519
0
LINE
8
BLACK
6
CONTINUOUS
10
1.61406
20
0.27519
11
1.6
21
0.2744
0
LINE
8
BLACK
6
CONTINUOUS
10
1.6
20
0.2744
11
1.58594
21
0.27519
0
LINE
8
BLACK
6
CONTINUOUS
10
1.58594
20
0.27519
11
1.57205
21
0.277549
0
LINE
8
BLACK
6
CONTINUOUS
10
1.57205
20
0.277549
11
1.55852
21
0.281448
0
LINE
8
BLACK
6
CONTINUOUS
10
1.55852
20
0.281448
11
1.5455
21
0.286838
0
LINE
8
BLACK
6
CONTINUOUS
10
1.5455
20
0.286838
11
1.53318
21
0.293651
0
LINE
8
BLACK
6
CONTINUOUS
10
1.53318
20
0.293651
11
1.52169
21
0.301802
0
LINE
8
BLACK
6
CONTINUOUS
10
1.52169
20
0.301802
11
1.51119
21
0.311187
0
LINE
8
BLACK
6
CONTINUOUS
10
1.51119
20
0.311187
11
1.5018
21
0.32169
0
LINE
8
BLACK
6
CONTINUOUS
10
1.5018
20
0.32169
11
1.49365
21
0.333177
0
LINE
8
BLACK
6
CONTINUOUS
10
1.49365
20
0.333177
11
1.48684
21
0.345504
0
LINE
8
BLACK
6
CONTINUOUS
10
1.48684
20
0.345504
11
1.48145
21
0.358517
0
LINE
8
BLACK
6
CONTINUOUS
10
1.48145
20
0.358517
11
1.47755
21
0.372051
0
LINE
8
BLACK
6
CONTINUOUS
10
1.47755
20
0.372051
11
1.47519
21
0.385937
0
LINE
8
BLACK
6
CONTINUOUS
10
1.47519
20
0.385937
11
1.4744
21
0.4
0
LINE
8
BLACK
6
CONTINUOUS
10
1.4744
20
0.4
11
1.47519
21
0.414063
0
LINE
8
BLACK
6
CONTINUOUS
10
1.47519
20
0.414063
11
1.47755
21
0.427949
0
LINE
8
BLACK
6
CONTINUOUS
10
1.47755
20
0.427949
11
1.48145
21
0.441483
0
LINE
8
BLACK
6
CONTINUOUS
10
1.48145
20
0.441483
11
1.48684
21
0.454496
0
LINE
8
BLACK
6
CONTINUOUS
10
1.48684
20
0.454496
11
1.49365
21
0.466823
0
LINE
8
BLACK
6
CONTINUOUS
10
1.49365
20
0.466823
11
1.5018
21
0.47831
0
LINE
8
BLACK
6
CONTINUOUS
10
1.5018
20
0.47831
11
1.51119
21
0.488813
0
LINE
8
BLACK
6
CONTINUOUS
10
1.51119
20
0.488813
11
1.52169
21
0.498198
0
LINE
8
BLACK
6
CONTINUOUS
10
1.52169
20
0.498198
11
1.53318
21
0.506349
0
LINE
8
BLACK
6
CONTINUOUS
10
1.53318
20
0.506349
11
1.5455
21
0.513162
0
LINE
8
BLACK
6
CONTINUOUS
10
1.5455
20
0.513162
11
1.55852
21
0.518552
0
LINE
8
BLACK
6
CONTINUOUS
10
1.55852
20
0.518552
11
1.57205
21
0.522451
0
LINE
8
BLACK
6
CONTINUOUS
10
1.57205
20
0.522451
11
1.58594
21
0.52481
0
LINE
8
BLACK
6
CONTINUOUS
10
1.58594
20
0.52481
11
1.6
21
0.5256
0
LINE
8
BLACK
6
CONTINUOUS
10
1.6
20
0.5256
11
1.61406
21
0.52481
0
LINE
8
BLACK
6
CONTINUOUS
10
1.48996
20
0.387138
11
1.4922
21
0.374451
0
LINE
8
BLACK
6
CONTINUOUS
10
1.4922
20
0.374451
11
1.49589
21
0.362108
0
LINE
8
BLACK
6
CONTINUOUS
10
1.49589
20
0.362108
11
1.501
21
0.350279
0
LINE
8
BLACK
6
CONTINUOUS
10
1.501
20
0.350279
11
1.50744
21
0.339121
0
LINE
8
BLACK
6
CONTINUOUS
10
1.50744
20
0.339121
11
1.51513
21
0.328787
0
LINE
8
BLACK
6
CONTINUOUS
10
1.51513
20
0.328787
11
1.52397
21
0.319416
0
LINE
8
BLACK
6
CONTINUOUS
10
1.52397
20
0.319416
11
1.53384
21
0.311135
0
LINE
8
BLACK
6
CONTINUOUS
10
1.53384
20
0.311135
11
1.54461
21
0.304055
0
LINE
8
BLACK
6
CONTINUOUS
10
1.54461
20
0.304055
11
1.55612
21
0.298273
0
LINE
8
BLACK
6
CONTINUOUS
10
1.55612
20
0.298273
11
1.56823
21
0.293867
0
LINE
8
BLACK
6
CONTINUOUS
10
1.56823
20
0.293867
11
1.58076
21
0.290896
0
LINE
8
BLACK
6
CONTINUOUS
10
1.58076
20
0.290896
11
1.59356
21
0.2894
0
LINE
8
BLACK
6
CONTINUOUS
10
1.59356
20
0.2894
11
1.60644
21
0.2894
0
LINE
8
BLACK
6
CONTINUOUS
10
1.60644
20
0.2894
11
1.61924
21
0.290896
0
LINE
8
BLACK
6
CONTINUOUS
10
1.61924
20
0.290896
11
1.63177
21
0.293867
0
LINE
8
BLACK
6
CONTINUOUS
10
1.63177
20
0.293867
11
1.64388
21
0.298273
0
LINE
8
BLACK
6
CONTINUOUS
10
1.64388
20
0.298273
11
1.65539
21
0.304055
0
LINE
8
BLACK
6
CONTINUOUS
10
1.65539
20
0.304055
11
1.66616
21
0.311135
0
LINE
8
BLACK
6
CONTINUOUS
10
1.66616
20
0.311135
11
1.67603
21
0.319416
0
LINE
8
BLACK
6
CONTINUOUS
10
1.67603
20
0.319416
11
1.68487
21
0.328787
0
LINE
8
BLACK
6
CONTINUOUS
10
1.68487
20
0.328787
11
1.69256
21
0.339121
0
LINE
8
BLACK
6
CONTINUOUS
10
1.69256
20
0.339121
11
1.699
21
0.350279
0
LINE
8
BLACK
6
CONTINUOUS
10
1.699
20
0.350279
11
1.70411
21
0.362108
0
LINE
8
BLACK
6
CONTINUOUS
10
1.70411
20
0.362108
11
1.7078
21
0.374451
0
LINE
8
BLACK
6
CONTINUOUS
10
1.7078
20
0.374451
11
1.71004
21
0.387138
0
LINE
8
BLACK
6
CONTINUOUS
10
1.71004
20
0.387138
11
1.71079
21
0.4
0
LINE
8
BLACK
6
CONTINUOUS
10
1.71079
20
0.4
11
1.71004
21
0.412862
0
LINE
8
BLACK
6
CONTINUOUS
10
1.71004
20
0.412862
11
1.7078
21
0.425549
0
LINE
8
BLACK
6
CONTINUOUS
10
1.7078
20
0.425549
11
1.70411
21
0.437892
0
LINE
8
BLACK
6
CONTINUOUS
10
1.70411
20
0.437892
11
1.699
21
0.449721
0
LINE
8
BLACK
6
CONTINUOUS
10
1.699
20
0.449721
11
1.69256
21
0.460879
0
LINE
8
BLACK
6
CONTINUOUS
10
1.69256
20
0.460879
11
1.68487
21
0.471213
0
LINE
8
BLACK
6
CONTINUOUS
10
1.68487
20
0.471213
11
1.67603
21
0.480584
0
LINE
8
BLACK
6
CONTINUOUS
10
1.67603
20
0.480584
11
1.66616
21
0.488865
0
LINE
8
BLACK
6
CONTINUOUS
10
1.66616
20
0.488865
11
1.65539
21
0.495945
0
LINE
8
BLACK
6
CONTINUOUS
10
1.65539
20
0.495945
11
1.64388
21
0.501727
0
LINE
8
BLACK
6
CONTINUOUS
10
1.64388
20
0.501727
11
1.63177
21
0.506133
0
LINE
8
BLACK
6
CONTINUOUS
10
1.63177
20
0.506133
11
1.61924
21
0.509104
0
LINE
8
BLACK
6
CONTINUOUS
10
1.61924
20
0.509104
11
1.60644
21
0.5106
0
LINE
8
BLACK
6
CONTINUOUS
10
1.60644
20
0.5106
11
1.59356
21
0.5106
0
LINE
8
BLACK
6
CONTINUOUS
10
1.59356
20
0.5106
11
1.58076
21
0.509104
0
LINE
8
BLACK
6
CONTINUOUS
10
1.58076
20
0.509104
11
1.56823
21
0.506133
0
LINE
8
BLACK
6
CONTINUOUS
10
1.56823
20
0.506133
11
1.55612
21
0.501727
0
LINE
8
BLACK
6
CONTINUOUS
10
1.55612
20
0.501727
11
1.54461
21
0.495945
0
LINE
8
BLACK
6
CONTINUOUS
10
1.54461
20
0.495945
11
1.53384
21
0.488865
0
LINE
8
BLACK
6
CONTINUOUS
10
1.53384
20
0.488865
11
1.52397
21
0.480584
0
LINE
8
BLACK
6
CONTINUOUS
10
1.52397
20
0.480584
11
1.51513
21
0.471213
0
LINE
8
BLACK
6
CONTINUOUS
10
1.51513
20
0.471213
11
1.50744
21
0.460879
0
LINE
8
BLACK
6
CONTINUOUS
10
1.50744
20
0.460879
11
1.501
21
0.449721
0
LINE
8
BLACK
6
CONTINUOUS
10
1.501
20
0.449721
11
1.49589
21
0.437892
0
LINE
8
BLACK
6
CONTINUOUS
10
1.49589
20
0.437892
11
1.4922
21
0.425549
0
LINE
8
BLACK
6
CONTINUOUS
10
1.4922
20
0.425549
11
1.48996
21
0.412862
0
LINE
8
BLACK
6
CONTINUOUS
10
1.48996
20
0.412862
11
1.48921
21
0.4
0
LINE
8
BLACK
6
CONTINUOUS
10
1.48921
20
0.4
11
1.48996
21
0.387138
0
LINE
8
BLACK
6
CONTINUOUS
10
1.63233
20
0.788495
11
1.63239
21
0.788497
0
LINE
8
BLACK
6
CONTINUOUS
10
1.63239
20
0.788497
11
1.63802
21
0.786622
0
LINE
8
BLACK
6
CONTINUOUS
10
1.63802
20
0.786622
11
1.63892
21
0.786134
0
LINE
8
BLACK
6
CONTINUOUS
10
1.63892
20
0.786134
11
1.63901
21
0.785983
0
LINE
8
BLACK
6
CONTINUOUS
10
1.63901
20
0.785983
11
1.63917
21
0.785909
0
LINE
8
BLACK
6
CONTINUOUS
10
1.63917
20
0.785909
11
1.64292
21
0.782159
0
LINE
8
BLACK
6
CONTINUOUS
10
1.64292
20
0.782159
11
1.64351
21
0.781319
0
LINE
8
BLACK
6
CONTINUOUS
10
1.64351
20
0.781319
11
1.64353
21
0.781143
0
LINE
8
BLACK
6
CONTINUOUS
10
1.64353
20
0.781143
11
1.64364
21
0.781005
0
LINE
8
BLACK
6
CONTINUOUS
10
1.64364
20
0.781005
11
1.64551
21
0.775381
0
LINE
8
BLACK
6
CONTINUOUS
10
1.64551
20
0.775381
11
1.64564
21
0.774508
0
LINE
8
BLACK
6
CONTINUOUS
10
1.64564
20
0.774508
11
1.64566
21
0.774447
0
LINE
8
BLACK
6
CONTINUOUS
10
1.64566
20
0.774447
11
1.64566
21
0.770697
0
LINE
8
BLACK
6
CONTINUOUS
10
1.64566
20
0.770697
11
1.64548
21
0.769688
0
LINE
8
BLACK
6
CONTINUOUS
10
1.64548
20
0.769688
11
1.64419
21
0.76814
0
LINE
8
BLACK
6
CONTINUOUS
10
1.64419
20
0.76814
11
1.6422
21
0.76779
0
LINE
8
BLACK
6
CONTINUOUS
10
1.6422
20
0.76779
11
1.64045
21
0.768799
0
LINE
8
BLACK
6
CONTINUOUS
10
1.64045
20
0.768799
11
1.63976
21
0.770697
0
LINE
8
BLACK
6
CONTINUOUS
10
1.63976
20
0.770697
11
1.63976
21
0.773968
0
LINE
8
BLACK
6
CONTINUOUS
10
1.63976
20
0.773968
11
1.63825
21
0.778476
0
LINE
8
BLACK
6
CONTINUOUS
10
1.63825
20
0.778476
11
1.63549
21
0.78124
0
LINE
8
BLACK
6
CONTINUOUS
10
1.63549
20
0.78124
11
1.63098
21
0.782743
0
LINE
8
BLACK
6
CONTINUOUS
10
1.63098
20
0.782743
11
1.60334
21
0.782743
0
LINE
8
BLACK
6
CONTINUOUS
10
1.60334
20
0.782743
11
1.60233
21
0.782921
0
LINE
8
BLACK
6
CONTINUOUS
10
1.60233
20
0.782921
11
1.60078
21
0.784219
0
LINE
8
BLACK
6
CONTINUOUS
10
1.60078
20
0.784219
11
1.60043
21
0.786208
0
LINE
8
BLACK
6
CONTINUOUS
10
1.60043
20
0.786208
11
1.60144
21
0.787957
0
LINE
8
BLACK
6
CONTINUOUS
10
1.60144
20
0.787957
11
1.60334
21
0.788648
0
LINE
8
BLACK
6
CONTINUOUS
10
1.60334
20
0.788648
11
1.63146
21
0.788648
0
LINE
8
BLACK
6
CONTINUOUS
10
1.63146
20
0.788648
11
1.63233
21
0.788495
0
LINE
8
BLACK
6
CONTINUOUS
10
1.63622
20
0.82784
11
1.63636
21
0.827727
0
LINE
8
BLACK
6
CONTINUOUS
10
1.63636
20
0.827727
11
1.63653
21
0.827707
0
LINE
8
BLACK
6
CONTINUOUS
10
1.63653
20
0.827707
11
1.64028
21
0.825832
0
LINE
8
BLACK
6
CONTINUOUS
10
1.64028
20
0.825832
11
1.64099
21
0.825306
0
LINE
8
BLACK
6
CONTINUOUS
10
1.64099
20
0.825306
11
1.64105
21
0.825279
0
LINE
8
BLACK
6
CONTINUOUS
10
1.64105
20
0.825279
11
1.64292
21
0.823404
0
LINE
8
BLACK
6
CONTINUOUS
10
1.64292
20
0.823404
11
1.64343
21
0.822681
0
LINE
8
BLACK
6
CONTINUOUS
10
1.64343
20
0.822681
11
1.64348
21
0.822637
0
LINE
8
BLACK
6
CONTINUOUS
10
1.64348
20
0.822637
11
1.64535
21
0.818887
0
LINE
8
BLACK
6
CONTINUOUS
10
1.64535
20
0.818887
11
1.64564
21
0.817904
0
LINE
8
BLACK
6
CONTINUOUS
10
1.64564
20
0.817904
11
1.6456
21
0.817732
0
LINE
8
BLACK
6
CONTINUOUS
10
1.6456
20
0.817732
11
1.64566
21
0.817567
0
LINE
8
BLACK
6
CONTINUOUS
10
1.64566
20
0.817567
11
1.64566
21
0.806318
0
LINE
8
BLACK
6
CONTINUOUS
10
1.64566
20
0.806318
11
1.64548
21
0.805308
0
LINE
8
BLACK
6
CONTINUOUS
10
1.64548
20
0.805308
11
1.64537
21
0.805173
0
LINE
8
BLACK
6
CONTINUOUS
10
1.64537
20
0.805173
11
1.64535
21
0.804997
0
LINE
8
BLACK
6
CONTINUOUS
10
1.64535
20
0.804997
11
1.64348
21
0.801248
0
LINE
8
BLACK
6
CONTINUOUS
10
1.64348
20
0.801248
11
1.64295
21
0.800539
0
LINE
8
BLACK
6
CONTINUOUS
10
1.64295
20
0.800539
11
1.64292
21
0.800481
0
LINE
8
BLACK
6
CONTINUOUS
10
1.64292
20
0.800481
11
1.64105
21
0.798606
0
LINE
8
BLACK
6
CONTINUOUS
10
1.64105
20
0.798606
11
1.64021
21
0.798018
0
LINE
8
BLACK
6
CONTINUOUS
10
1.64021
20
0.798018
11
1.6382
21
0.797842
0
LINE
8
BLACK
6
CONTINUOUS
10
1.6382
20
0.797842
11
1.63654
21
0.799
0
LINE
8
BLACK
6
CONTINUOUS
10
1.63654
20
0.799
11
1.63602
21
0.800951
0
LINE
8
BLACK
6
CONTINUOUS
10
1.63602
20
0.800951
11
1.63687
21
0.802782
0
LINE
8
BLACK
6
CONTINUOUS
10
1.63687
20
0.802782
11
1.63841
21
0.804318
0
LINE
8
BLACK
6
CONTINUOUS
10
1.63841
20
0.804318
11
1.63976
21
0.807015
0
LINE
8
BLACK
6
CONTINUOUS
10
1.63976
20
0.807015
11
1.63976
21
0.81687
0
LINE
8
BLACK
6
CONTINUOUS
10
1.63976
20
0.81687
11
1.63841
21
0.819567
0
LINE
8
BLACK
6
CONTINUOUS
10
1.63841
20
0.819567
11
1.63721
21
0.820764
0
LINE
8
BLACK
6
CONTINUOUS
10
1.63721
20
0.820764
11
1.63451
21
0.822113
0
LINE
8
BLACK
6
CONTINUOUS
10
1.63451
20
0.822113
11
1.62653
21
0.822113
0
LINE
8
BLACK
6
CONTINUOUS
10
1.62653
20
0.822113
11
1.62384
21
0.820764
0
LINE
8
BLACK
6
CONTINUOUS
10
1.62384
20
0.820764
11
1.62264
21
0.819567
0
LINE
8
BLACK
6
CONTINUOUS
10
1.62264
20
0.819567
11
1.62129
21
0.81687
0
LINE
8
BLACK
6
CONTINUOUS
10
1.62129
20
0.81687
11
1.62129
21
0.811942
0
LINE
8
BLACK
6
CONTINUOUS
10
1.62129
20
0.811942
11
1.62121
21
0.811505
0
LINE
8
BLACK
6
CONTINUOUS
10
1.62121
20
0.811505
11
1.62123
21
0.811369
0
LINE
8
BLACK
6
CONTINUOUS
10
1.62123
20
0.811369
11
1.62117
21
0.811265
0
LINE
8
BLACK
6
CONTINUOUS
10
1.62117
20
0.811265
11
1.62111
21
0.810932
0
LINE
8
BLACK
6
CONTINUOUS
10
1.62111
20
0.810932
11
1.6206
21
0.810323
0
LINE
8
BLACK
6
CONTINUOUS
10
1.6206
20
0.810323
11
1.62019
21
0.809642
0
LINE
8
BLACK
6
CONTINUOUS
10
1.62019
20
0.809642
11
1.61997
21
0.809566
0
LINE
8
BLACK
6
CONTINUOUS
10
1.61997
20
0.809566
11
1.61981
21
0.809385
0
LINE
8
BLACK
6
CONTINUOUS
10
1.61981
20
0.809385
11
1.61903
21
0.809247
0
LINE
8
BLACK
6
CONTINUOUS
10
1.61903
20
0.809247
11
1.61828
21
0.80899
0
LINE
8
BLACK
6
CONTINUOUS
10
1.61828
20
0.80899
11
1.61806
21
0.809075
0
LINE
8
BLACK
6
CONTINUOUS
10
1.61806
20
0.809075
11
1.61782
21
0.809034
0
LINE
8
BLACK
6
CONTINUOUS
10
1.61782
20
0.809034
11
1.61714
21
0.809432
0
LINE
8
BLACK
6
CONTINUOUS
10
1.61714
20
0.809432
11
1.61639
21
0.80972
0
LINE
8
BLACK
6
CONTINUOUS
10
1.61639
20
0.80972
11
1.60629
21
0.818558
0
LINE
8
BLACK
6
CONTINUOUS
10
1.60629
20
0.818558
11
1.60629
21
0.800694
0
LINE
8
BLACK
6
CONTINUOUS
10
1.60629
20
0.800694
11
1.60611
21
0.799684
0
LINE
8
BLACK
6
CONTINUOUS
10
1.60611
20
0.799684
11
1.60482
21
0.798137
0
LINE
8
BLACK
6
CONTINUOUS
10
1.60482
20
0.798137
11
1.60283
21
0.797786
0
LINE
8
BLACK
6
CONTINUOUS
10
1.60283
20
0.797786
11
1.60108
21
0.798796
0
LINE
8
BLACK
6
CONTINUOUS
10
1.60108
20
0.798796
11
1.60039
21
0.800694
0
LINE
8
BLACK
6
CONTINUOUS
10
1.60039
20
0.800694
11
1.60039
21
0.825066
0
LINE
8
BLACK
6
CONTINUOUS
10
1.60039
20
0.825066
11
1.60046
21
0.825503
0
LINE
8
BLACK
6
CONTINUOUS
10
1.60046
20
0.825503
11
1.60044
21
0.825638
0
LINE
8
BLACK
6
CONTINUOUS
10
1.60044
20
0.825638
11
1.60051
21
0.825743
0
LINE
8
BLACK
6
CONTINUOUS
10
1.60051
20
0.825743
11
1.60056
21
0.826076
0
LINE
8
BLACK
6
CONTINUOUS
10
1.60056
20
0.826076
11
1.60108
21
0.826685
0
LINE
8
BLACK
6
CONTINUOUS
10
1.60108
20
0.826685
11
1.60149
21
0.827366
0
LINE
8
BLACK
6
CONTINUOUS
10
1.60149
20
0.827366
11
1.60171
21
0.827442
0
LINE
8
BLACK
6
CONTINUOUS
10
1.60171
20
0.827442
11
1.60186
21
0.827623
0
LINE
8
BLACK
6
CONTINUOUS
10
1.60186
20
0.827623
11
1.60265
21
0.827761
0
LINE
8
BLACK
6
CONTINUOUS
10
1.60265
20
0.827761
11
1.6034
21
0.828018
0
LINE
8
BLACK
6
CONTINUOUS
10
1.6034
20
0.828018
11
1.60362
21
0.827933
0
LINE
8
BLACK
6
CONTINUOUS
10
1.60362
20
0.827933
11
1.60385
21
0.827974
0
LINE
8
BLACK
6
CONTINUOUS
10
1.60385
20
0.827974
11
1.60454
21
0.827575
0
LINE
8
BLACK
6
CONTINUOUS
10
1.60454
20
0.827575
11
1.60528
21
0.827288
0
LINE
8
BLACK
6
CONTINUOUS
10
1.60528
20
0.827288
11
1.61552
21
0.818331
0
LINE
8
BLACK
6
CONTINUOUS
10
1.61552
20
0.818331
11
1.61556
21
0.818576
0
LINE
8
BLACK
6
CONTINUOUS
10
1.61556
20
0.818576
11
1.61568
21
0.818712
0
LINE
8
BLACK
6
CONTINUOUS
10
1.61568
20
0.818712
11
1.6157
21
0.818887
0
LINE
8
BLACK
6
CONTINUOUS
10
1.6157
20
0.818887
11
1.61757
21
0.822637
0
LINE
8
BLACK
6
CONTINUOUS
10
1.61757
20
0.822637
11
1.6181
21
0.823346
0
LINE
8
BLACK
6
CONTINUOUS
10
1.6181
20
0.823346
11
1.61812
21
0.823404
0
LINE
8
BLACK
6
CONTINUOUS
10
1.61812
20
0.823404
11
1.62
21
0.825279
0
LINE
8
BLACK
6
CONTINUOUS
10
1.62
20
0.825279
11
1.62072
21
0.825785
0
LINE
8
BLACK
6
CONTINUOUS
10
1.62072
20
0.825785
11
1.62077
21
0.825832
0
LINE
8
BLACK
6
CONTINUOUS
10
1.62077
20
0.825832
11
1.62452
21
0.827707
0
LINE
8
BLACK
6
CONTINUOUS
10
1.62452
20
0.827707
11
1.6255
21
0.827999
0
LINE
8
BLACK
6
CONTINUOUS
10
1.6255
20
0.827999
11
1.62567
21
0.827958
0
LINE
8
BLACK
6
CONTINUOUS
10
1.62567
20
0.827958
11
1.62584
21
0.828018
0
LINE
8
BLACK
6
CONTINUOUS
10
1.62584
20
0.828018
11
1.63521
21
0.828018
0
LINE
8
BLACK
6
CONTINUOUS
10
1.63521
20
0.828018
11
1.63622
21
0.82784
0
LINE
8
BLACK
6
CONTINUOUS
10
1.7248
20
1.00079
11
1.7262
21
1.00021
0
LINE
8
BLACK
6
CONTINUOUS
10
1.7262
20
1.00021
11
1.72677
21
0.998819
0
LINE
8
BLACK
6
CONTINUOUS
10
1.72677
20
0.998819
11
1.72677
21
0.598819
0
LINE
8
BLACK
6
CONTINUOUS
10
1.72677
20
0.598819
11
1.7262
21
0.597427
0
LINE
8
BLACK
6
CONTINUOUS
10
1.7262
20
0.597427
11
1.7248
21
0.59685
0
LINE
8
BLACK
6
CONTINUOUS
10
1.7248
20
0.59685
11
1.5248
21
0.59685
0
LINE
8
BLACK
6
CONTINUOUS
10
1.5248
20
0.59685
11
1.52341
21
0.597427
0
LINE
8
BLACK
6
CONTINUOUS
10
1.52341
20
0.597427
11
1.52283
21
0.598819
0
LINE
8
BLACK
6
CONTINUOUS
10
1.52283
20
0.598819
11
1.52283
21
0.948819
0
LINE
8
BLACK
6
CONTINUOUS
10
1.52283
20
0.948819
11
1.52341
21
0.950211
0
LINE
8
BLACK
6
CONTINUOUS
10
1.52341
20
0.950211
11
1.57341
21
1.00021
0
LINE
8
BLACK
6
CONTINUOUS
10
1.57341
20
1.00021
11
1.57355
21
1.00027
0
LINE
8
BLACK
6
CONTINUOUS
10
1.57355
20
1.00027
11
1.5748
21
1.00079
0
LINE
8
BLACK
6
CONTINUOUS
10
1.5748
20
1.00079
11
1.7248
21
1.00079
0
LINE
8
BLACK
6
CONTINUOUS
10
1.57562
20
0.99685
11
1.52677
21
0.948004
0
LINE
8
BLACK
6
CONTINUOUS
10
1.52677
20
0.948004
11
1.52677
21
0.600787
0
LINE
8
BLACK
6
CONTINUOUS
10
1.52677
20
0.600787
11
1.72283
21
0.600787
0
LINE
8
BLACK
6
CONTINUOUS
10
1.72283
20
0.600787
11
1.72283
21
0.99685
0
LINE
8
BLACK
6
CONTINUOUS
10
1.72283
20
0.99685
11
1.57562
21
0.99685
0
LINE
8
BLACK
6
CONTINUOUS
10
1.16923
20
0.705403
11
1.16937
21
0.703601
0
LINE
8
BLACK
6
CONTINUOUS
10
1.16937
20
0.703601
11
1.1682
21
0.702226
0
LINE
8
BLACK
6
CONTINUOUS
10
1.1682
20
0.702226
11
1.16713
21
0.701679
0
LINE
8
BLACK
6
CONTINUOUS
10
1.16713
20
0.701679
11
1.16713
21
0.603045
0
LINE
8
BLACK
6
CONTINUOUS
10
1.16713
20
0.603045
11
1.1682
21
0.602498
0
LINE
8
BLACK
6
CONTINUOUS
10
1.1682
20
0.602498
11
1.16937
21
0.601123
0
LINE
8
BLACK
6
CONTINUOUS
10
1.16937
20
0.601123
11
1.16923
21
0.599321
0
LINE
8
BLACK
6
CONTINUOUS
10
1.16923
20
0.599321
11
1.16786
21
0.598147
0
LINE
8
BLACK
6
CONTINUOUS
10
1.16786
20
0.598147
11
1.16605
21
0.598289
0
LINE
8
BLACK
6
CONTINUOUS
10
1.16605
20
0.598289
11
1.16192
21
0.600394
0
LINE
8
BLACK
6
CONTINUOUS
10
1.16192
20
0.600394
11
0.968391
21
0.600394
0
LINE
8
BLACK
6
CONTINUOUS
10
0.968391
20
0.600394
11
0.964262
21
0.598289
0
LINE
8
BLACK
6
CONTINUOUS
10
0.964262
20
0.598289
11
0.962459
21
0.598147
0
LINE
8
BLACK
6
CONTINUOUS
10
0.962459
20
0.598147
11
0.961084
21
0.599321
0
LINE
8
BLACK
6
CONTINUOUS
10
0.961084
20
0.599321
11
0.960942
21
0.601123
0
LINE
8
BLACK
6
CONTINUOUS
10
0.960942
20
0.601123
11
0.962116
21
0.602498
0
LINE
8
BLACK
6
CONTINUOUS
10
0.962116
20
0.602498
11
0.963189
21
0.603045
0
LINE
8
BLACK
6
CONTINUOUS
10
0.963189
20
0.603045
11
0.963189
21
0.652362
0
LINE
8
BLACK
6
CONTINUOUS
10
0.963189
20
0.652362
11
0.963766
21
0.653754
0
LINE
8
BLACK
6
CONTINUOUS
10
0.963766
20
0.653754
11
0.995317
21
0.685305
0
LINE
8
BLACK
6
CONTINUOUS
10
0.995317
20
0.685305
11
0.962116
21
0.702226
0
LINE
8
BLACK
6
CONTINUOUS
10
0.962116
20
0.702226
11
0.960942
21
0.703601
0
LINE
8
BLACK
6
CONTINUOUS
10
0.960942
20
0.703601
11
0.961084
21
0.705403
0
LINE
8
BLACK
6
CONTINUOUS
10
0.961084
20
0.705403
11
0.962459
21
0.706577
0
LINE
8
BLACK
6
CONTINUOUS
10
0.962459
20
0.706577
11
0.964262
21
0.706435
0
LINE
8
BLACK
6
CONTINUOUS
10
0.964262
20
0.706435
11
0.998829
21
0.688818
0
LINE
8
BLACK
6
CONTINUOUS
10
0.998829
20
0.688818
11
1.01377
21
0.703754
0
LINE
8
BLACK
6
CONTINUOUS
10
1.01377
20
0.703754
11
1.01377
21
0.703754
0
LINE
8
BLACK
6
CONTINUOUS
10
1.01377
20
0.703754
11
1.01516
21
0.704331
0
LINE
8
BLACK
6
CONTINUOUS
10
1.01516
20
0.704331
11
1.16192
21
0.704331
0
LINE
8
BLACK
6
CONTINUOUS
10
1.16192
20
0.704331
11
1.16605
21
0.706435
0
LINE
8
BLACK
6
CONTINUOUS
10
1.16605
20
0.706435
11
1.16786
21
0.706577
0
LINE
8
BLACK
6
CONTINUOUS
10
1.16786
20
0.706577
11
1.16923
21
0.705403
0
LINE
8
BLACK
6
CONTINUOUS
10
1.0504
20
0.642192
11
1.07182
21
0.642192
0
LINE
8
BLACK
6
CONTINUOUS
10
1.07182
20
0.642192
11
1.07268
21
0.642038
0
LINE
8
BLACK
6
CONTINUOUS
10
1.07268
20
0.642038
11
1.07275
21
0.64204
0
LINE
8
BLACK
6
CONTINUOUS
10
1.07275
20
0.64204
11
1.07837
21
0.640165
0
LINE
8
BLACK
6
CONTINUOUS
10
1.07837
20
0.640165
11
1.07927
21
0.639677
0
LINE
8
BLACK
6
CONTINUOUS
10
1.07927
20
0.639677
11
1.07937
21
0.639527
0
LINE
8
BLACK
6
CONTINUOUS
10
1.07937
20
0.639527
11
1.07953
21
0.639452
0
LINE
8
BLACK
6
CONTINUOUS
10
1.07953
20
0.639452
11
1.08328
21
0.635702
0
LINE
8
BLACK
6
CONTINUOUS
10
1.08328
20
0.635702
11
1.08387
21
0.634862
0
LINE
8
BLACK
6
CONTINUOUS
10
1.08387
20
0.634862
11
1.08388
21
0.634687
0
LINE
8
BLACK
6
CONTINUOUS
10
1.08388
20
0.634687
11
1.08399
21
0.634548
0
LINE
8
BLACK
6
CONTINUOUS
10
1.08399
20
0.634548
11
1.08586
21
0.628924
0
LINE
8
BLACK
6
CONTINUOUS
10
1.08586
20
0.628924
11
1.08599
21
0.628051
0
LINE
8
BLACK
6
CONTINUOUS
10
1.08599
20
0.628051
11
1.08602
21
0.62799
0
LINE
8
BLACK
6
CONTINUOUS
10
1.08602
20
0.62799
11
1.08602
21
0.624241
0
LINE
8
BLACK
6
CONTINUOUS
10
1.08602
20
0.624241
11
1.08584
21
0.623231
0
LINE
8
BLACK
6
CONTINUOUS
10
1.08584
20
0.623231
11
1.08454
21
0.621684
0
LINE
8
BLACK
6
CONTINUOUS
10
1.08454
20
0.621684
11
1.08255
21
0.621333
0
LINE
8
BLACK
6
CONTINUOUS
10
1.08255
20
0.621333
11
1.0808
21
0.622343
0
LINE
8
BLACK
6
CONTINUOUS
10
1.0808
20
0.622343
11
1.08011
21
0.624241
0
LINE
8
BLACK
6
CONTINUOUS
10
1.08011
20
0.624241
11
1.08011
21
0.627511
0
LINE
8
BLACK
6
CONTINUOUS
10
1.08011
20
0.627511
11
1.07861
21
0.63202
0
LINE
8
BLACK
6
CONTINUOUS
10
1.07861
20
0.63202
11
1.07584
21
0.634783
0
LINE
8
BLACK
6
CONTINUOUS
10
1.07584
20
0.634783
11
1.07134
21
0.636286
0
LINE
8
BLACK
6
CONTINUOUS
10
1.07134
20
0.636286
11
1.04369
21
0.636286
0
LINE
8
BLACK
6
CONTINUOUS
10
1.04369
20
0.636286
11
1.04268
21
0.636464
0
LINE
8
BLACK
6
CONTINUOUS
10
1.04268
20
0.636464
11
1.04135
21
0.63758
0
LINE
8
BLACK
6
CONTINUOUS
10
1.04135
20
0.63758
11
0.976116
21
0.604331
0
LINE
8
BLACK
6
CONTINUOUS
10
0.976116
20
0.604331
11
1.1542
21
0.604331
0
LINE
8
BLACK
6
CONTINUOUS
10
1.1542
20
0.604331
11
1.06516
21
0.649711
0
LINE
8
BLACK
6
CONTINUOUS
10
1.06516
20
0.649711
11
1.0504
21
0.642192
0
LINE
8
BLACK
6
CONTINUOUS
10
0.967126
20
0.651547
11
0.967126
21
0.605052
0
LINE
8
BLACK
6
CONTINUOUS
10
0.967126
20
0.605052
11
1.05996
21
0.652362
0
LINE
8
BLACK
6
CONTINUOUS
10
1.05996
20
0.652362
11
1.05744
21
0.653644
0
LINE
8
BLACK
6
CONTINUOUS
10
1.05744
20
0.653644
11
1.0434
21
0.655048
0
LINE
8
BLACK
6
CONTINUOUS
10
1.0434
20
0.655048
11
1.04325
21
0.655091
0
LINE
8
BLACK
6
CONTINUOUS
10
1.04325
20
0.655091
11
1.04318
21
0.655079
0
LINE
8
BLACK
6
CONTINUOUS
10
1.04318
20
0.655079
11
1.04307
21
0.65514
0
LINE
8
BLACK
6
CONTINUOUS
10
1.04307
20
0.65514
11
1.04241
21
0.655326
0
LINE
8
BLACK
6
CONTINUOUS
10
1.04241
20
0.655326
11
1.04197
21
0.655775
0
LINE
8
BLACK
6
CONTINUOUS
10
1.04197
20
0.655775
11
1.04143
21
0.656089
0
LINE
8
BLACK
6
CONTINUOUS
10
1.04143
20
0.656089
11
1.04129
21
0.656476
0
LINE
8
BLACK
6
CONTINUOUS
10
1.04129
20
0.656476
11
1.041
21
0.656772
0
LINE
8
BLACK
6
CONTINUOUS
10
1.041
20
0.656772
11
1.04096
21
0.657397
0
LINE
8
BLACK
6
CONTINUOUS
10
1.04096
20
0.657397
11
1.04074
21
0.657987
0
LINE
8
BLACK
6
CONTINUOUS
10
1.04074
20
0.657987
11
1.04074
21
0.662155
0
LINE
8
BLACK
6
CONTINUOUS
10
1.04074
20
0.662155
11
0.999005
21
0.683426
0
LINE
8
BLACK
6
CONTINUOUS
10
0.999005
20
0.683426
11
0.967126
21
0.651547
0
LINE
8
BLACK
6
CONTINUOUS
10
1.08555
20
0.660103
11
1.08383
21
0.656666
0
LINE
8
BLACK
6
CONTINUOUS
10
1.08383
20
0.656666
11
1.0833
21
0.655957
0
LINE
8
BLACK
6
CONTINUOUS
10
1.0833
20
0.655957
11
1.08328
21
0.655899
0
LINE
8
BLACK
6
CONTINUOUS
10
1.08328
20
0.655899
11
1.0814
21
0.654024
0
LINE
8
BLACK
6
CONTINUOUS
10
1.0814
20
0.654024
11
1.08056
21
0.653436
0
LINE
8
BLACK
6
CONTINUOUS
10
1.08056
20
0.653436
11
1.07855
21
0.65326
0
LINE
8
BLACK
6
CONTINUOUS
10
1.07855
20
0.65326
11
1.0769
21
0.654418
0
LINE
8
BLACK
6
CONTINUOUS
10
1.0769
20
0.654418
11
1.07659
21
0.65554
0
LINE
8
BLACK
6
CONTINUOUS
10
1.07659
20
0.65554
11
1.07036
21
0.652362
0
LINE
8
BLACK
6
CONTINUOUS
10
1.07036
20
0.652362
11
1.16319
21
0.605052
0
LINE
8
BLACK
6
CONTINUOUS
10
1.16319
20
0.605052
11
1.16319
21
0.699673
0
LINE
8
BLACK
6
CONTINUOUS
10
1.16319
20
0.699673
11
1.08555
21
0.660103
0
LINE
8
BLACK
6
CONTINUOUS
10
1.06419
20
0.674307
11
1.06299
21
0.67311
0
LINE
8
BLACK
6
CONTINUOUS
10
1.06299
20
0.67311
11
1.06164
21
0.670413
0
LINE
8
BLACK
6
CONTINUOUS
10
1.06164
20
0.670413
11
1.06164
21
0.662433
0
LINE
8
BLACK
6
CONTINUOUS
10
1.06164
20
0.662433
11
1.06299
21
0.659736
0
LINE
8
BLACK
6
CONTINUOUS
10
1.06299
20
0.659736
11
1.06453
21
0.6582
0
LINE
8
BLACK
6
CONTINUOUS
10
1.06453
20
0.6582
11
1.06512
21
0.65736
0
LINE
8
BLACK
6
CONTINUOUS
10
1.06512
20
0.65736
11
1.06512
21
0.65734
0
LINE
8
BLACK
6
CONTINUOUS
10
1.06512
20
0.65734
11
1.06513
21
0.657326
0
LINE
8
BLACK
6
CONTINUOUS
10
1.06513
20
0.657326
11
1.06521
21
0.656336
0
LINE
8
BLACK
6
CONTINUOUS
10
1.06521
20
0.656336
11
1.06529
21
0.655348
0
LINE
8
BLACK
6
CONTINUOUS
10
1.06529
20
0.655348
11
1.06528
21
0.655332
0
LINE
8
BLACK
6
CONTINUOUS
10
1.06528
20
0.655332
11
1.06528
21
0.655312
0
LINE
8
BLACK
6
CONTINUOUS
10
1.06528
20
0.655312
11
1.06509
21
0.655047
0
LINE
8
BLACK
6
CONTINUOUS
10
1.06509
20
0.655047
11
1.06516
21
0.655014
0
LINE
8
BLACK
6
CONTINUOUS
10
1.06516
20
0.655014
11
1.08011
21
0.662635
0
LINE
8
BLACK
6
CONTINUOUS
10
1.08011
20
0.662635
11
1.08011
21
0.670413
0
LINE
8
BLACK
6
CONTINUOUS
10
1.08011
20
0.670413
11
1.07876
21
0.67311
0
LINE
8
BLACK
6
CONTINUOUS
10
1.07876
20
0.67311
11
1.07757
21
0.674307
0
LINE
8
BLACK
6
CONTINUOUS
10
1.07757
20
0.674307
11
1.07487
21
0.675656
0
LINE
8
BLACK
6
CONTINUOUS
10
1.07487
20
0.675656
11
1.06689
21
0.675656
0
LINE
8
BLACK
6
CONTINUOUS
10
1.06689
20
0.675656
11
1.06419
21
0.674307
0
LINE
8
BLACK
6
CONTINUOUS
10
1.01597
20
0.700394
11
1.00252
21
0.686938
0
LINE
8
BLACK
6
CONTINUOUS
10
1.00252
20
0.686938
11
1.04074
21
0.667458
0
LINE
8
BLACK
6
CONTINUOUS
10
1.04074
20
0.667458
11
1.04074
21
0.676734
0
LINE
8
BLACK
6
CONTINUOUS
10
1.04074
20
0.676734
11
1.04092
21
0.677744
0
LINE
8
BLACK
6
CONTINUOUS
10
1.04092
20
0.677744
11
1.04222
21
0.679291
0
LINE
8
BLACK
6
CONTINUOUS
10
1.04222
20
0.679291
11
1.04421
21
0.679642
0
LINE
8
BLACK
6
CONTINUOUS
10
1.04421
20
0.679642
11
1.04596
21
0.678632
0
LINE
8
BLACK
6
CONTINUOUS
10
1.04596
20
0.678632
11
1.04665
21
0.676734
0
LINE
8
BLACK
6
CONTINUOUS
10
1.04665
20
0.676734
11
1.04665
21
0.664448
0
LINE
8
BLACK
6
CONTINUOUS
10
1.04665
20
0.664448
11
1.0559
21
0.659734
0
LINE
8
BLACK
6
CONTINUOUS
10
1.0559
20
0.659734
11
1.05642
21
0.659682
0
LINE
8
BLACK
6
CONTINUOUS
10
1.05642
20
0.659682
11
1.05605
21
0.660416
0
LINE
8
BLACK
6
CONTINUOUS
10
1.05605
20
0.660416
11
1.05576
21
0.661399
0
LINE
8
BLACK
6
CONTINUOUS
10
1.05576
20
0.661399
11
1.0558
21
0.66157
0
LINE
8
BLACK
6
CONTINUOUS
10
1.0558
20
0.66157
11
1.05574
21
0.661736
0
LINE
8
BLACK
6
CONTINUOUS
10
1.05574
20
0.661736
11
1.05574
21
0.67111
0
LINE
8
BLACK
6
CONTINUOUS
10
1.05574
20
0.67111
11
1.05592
21
0.67212
0
LINE
8
BLACK
6
CONTINUOUS
10
1.05592
20
0.67212
11
1.05603
21
0.672255
0
LINE
8
BLACK
6
CONTINUOUS
10
1.05603
20
0.672255
11
1.05605
21
0.67243
0
LINE
8
BLACK
6
CONTINUOUS
10
1.05605
20
0.67243
11
1.05793
21
0.67618
0
LINE
8
BLACK
6
CONTINUOUS
10
1.05793
20
0.67618
11
1.05845
21
0.676889
0
LINE
8
BLACK
6
CONTINUOUS
10
1.05845
20
0.676889
11
1.05848
21
0.676947
0
LINE
8
BLACK
6
CONTINUOUS
10
1.05848
20
0.676947
11
1.06035
21
0.678822
0
LINE
8
BLACK
6
CONTINUOUS
10
1.06035
20
0.678822
11
1.06108
21
0.679328
0
LINE
8
BLACK
6
CONTINUOUS
10
1.06108
20
0.679328
11
1.06112
21
0.679375
0
LINE
8
BLACK
6
CONTINUOUS
10
1.06112
20
0.679375
11
1.06487
21
0.68125
0
LINE
8
BLACK
6
CONTINUOUS
10
1.06487
20
0.68125
11
1.06585
21
0.681542
0
LINE
8
BLACK
6
CONTINUOUS
10
1.06585
20
0.681542
11
1.06602
21
0.681501
0
LINE
8
BLACK
6
CONTINUOUS
10
1.06602
20
0.681501
11
1.06619
21
0.681562
0
LINE
8
BLACK
6
CONTINUOUS
10
1.06619
20
0.681562
11
1.07556
21
0.681562
0
LINE
8
BLACK
6
CONTINUOUS
10
1.07556
20
0.681562
11
1.07657
21
0.681384
0
LINE
8
BLACK
6
CONTINUOUS
10
1.07657
20
0.681384
11
1.07671
21
0.68127
0
LINE
8
BLACK
6
CONTINUOUS
10
1.07671
20
0.68127
11
1.07689
21
0.68125
0
LINE
8
BLACK
6
CONTINUOUS
10
1.07689
20
0.68125
11
1.08063
21
0.679375
0
LINE
8
BLACK
6
CONTINUOUS
10
1.08063
20
0.679375
11
1.08134
21
0.678849
0
LINE
8
BLACK
6
CONTINUOUS
10
1.08134
20
0.678849
11
1.0814
21
0.678822
0
LINE
8
BLACK
6
CONTINUOUS
10
1.0814
20
0.678822
11
1.08328
21
0.676947
0
LINE
8
BLACK
6
CONTINUOUS
10
1.08328
20
0.676947
11
1.08378
21
0.676224
0
LINE
8
BLACK
6
CONTINUOUS
10
1.08378
20
0.676224
11
1.08383
21
0.67618
0
LINE
8
BLACK
6
CONTINUOUS
10
1.08383
20
0.67618
11
1.0857
21
0.67243
0
LINE
8
BLACK
6
CONTINUOUS
10
1.0857
20
0.67243
11
1.086
21
0.671447
0
LINE
8
BLACK
6
CONTINUOUS
10
1.086
20
0.671447
11
1.08596
21
0.671276
0
LINE
8
BLACK
6
CONTINUOUS
10
1.08596
20
0.671276
11
1.08602
21
0.67111
0
LINE
8
BLACK
6
CONTINUOUS
10
1.08602
20
0.67111
11
1.08602
21
0.665644
0
LINE
8
BLACK
6
CONTINUOUS
10
1.08602
20
0.665644
11
1.1542
21
0.700394
0
LINE
8
BLACK
6
CONTINUOUS
10
1.1542
20
0.700394
11
1.01597
21
0.700394
0
LINE
8
BLACK
6
CONTINUOUS
10
0.618747
20
0.970188
11
0.618812
21
0.97019
0
LINE
8
BLACK
6
CONTINUOUS
10
0.618812
20
0.97019
11
0.624436
21
0.968315
0
LINE
8
BLACK
6
CONTINUOUS
10
0.624436
20
0.968315
11
0.625338
21
0.967827
0
LINE
8
BLACK
6
CONTINUOUS
10
0.625338
20
0.967827
11
0.62543
21
0.967676
0
LINE
8
BLACK
6
CONTINUOUS
10
0.62543
20
0.967676
11
0.62559
21
0.967602
0
LINE
8
BLACK
6
CONTINUOUS
10
0.62559
20
0.967602
11
0.62934
21
0.963852
0
LINE
8
BLACK
6
CONTINUOUS
10
0.62934
20
0.963852
11
0.629928
21
0.963012
0
LINE
8
BLACK
6
CONTINUOUS
10
0.629928
20
0.963012
11
0.629943
21
0.962836
0
LINE
8
BLACK
6
CONTINUOUS
10
0.629943
20
0.962836
11
0.630053
21
0.962698
0
LINE
8
BLACK
6
CONTINUOUS
10
0.630053
20
0.962698
11
0.631928
21
0.957074
0
LINE
8
BLACK
6
CONTINUOUS
10
0.631928
20
0.957074
11
0.632057
21
0.9562
0
LINE
8
BLACK
6
CONTINUOUS
10
0.632057
20
0.9562
11
0.632079
21
0.95614
0
LINE
8
BLACK
6
CONTINUOUS
10
0.632079
20
0.95614
11
0.632079
21
0.95239
0
LINE
8
BLACK
6
CONTINUOUS
10
0.632079
20
0.95239
11
0.631901
21
0.95138
0
LINE
8
BLACK
6
CONTINUOUS
10
0.631901
20
0.95138
11
0.630603
21
0.949833
0
LINE
8
BLACK
6
CONTINUOUS
10
0.630603
20
0.949833
11
0.628614
21
0.949482
0
LINE
8
BLACK
6
CONTINUOUS
10
0.628614
20
0.949482
11
0.626865
21
0.950492
0
LINE
8
BLACK
6
CONTINUOUS
10
0.626865
20
0.950492
11
0.626174
21
0.95239
0
LINE
8
BLACK
6
CONTINUOUS
10
0.626174
20
0.95239
11
0.626174
21
0.955661
0
LINE
8
BLACK
6
CONTINUOUS
10
0.626174
20
0.955661
11
0.624671
21
0.960169
0
LINE
8
BLACK
6
CONTINUOUS
10
0.624671
20
0.960169
11
0.621907
21
0.962933
0
LINE
8
BLACK
6
CONTINUOUS
10
0.621907
20
0.962933
11
0.617399
21
0.964436
0
LINE
8
BLACK
6
CONTINUOUS
10
0.617399
20
0.964436
11
0.589757
21
0.964436
0
LINE
8
BLACK
6
CONTINUOUS
10
0.589757
20
0.964436
11
0.588747
21
0.964614
0
LINE
8
BLACK
6
CONTINUOUS
10
0.588747
20
0.964614
11
0.587199
21
0.965912
0
LINE
8
BLACK
6
CONTINUOUS
10
0.587199
20
0.965912
11
0.586849
21
0.967901
0
LINE
8
BLACK
6
CONTINUOUS
10
0.586849
20
0.967901
11
0.587859
21
0.96965
0
LINE
8
BLACK
6
CONTINUOUS
10
0.587859
20
0.96965
11
0.589757
21
0.970341
0
LINE
8
BLACK
6
CONTINUOUS
10
0.589757
20
0.970341
11
0.617878
21
0.970341
0
LINE
8
BLACK
6
CONTINUOUS
10
0.617878
20
0.970341
11
0.618747
21
0.970188
0
LINE
8
BLACK
6
CONTINUOUS
10
0.622638
20
1.00953
11
0.622773
21
1.00942
0
LINE
8
BLACK
6
CONTINUOUS
10
0.622773
20
1.00942
11
0.622948
21
1.0094
0
LINE
8
BLACK
6
CONTINUOUS
10
0.622948
20
1.0094
11
0.626698
21
1.00752
0
LINE
8
BLACK
6
CONTINUOUS
10
0.626698
20
1.00752
11
0.627407
21
1.007
0
LINE
8
BLACK
6
CONTINUOUS
10
0.627407
20
1.007
11
0.627465
21
1.00697
0
LINE
8
BLACK
6
CONTINUOUS
10
0.627465
20
1.00697
11
0.62934
21
1.0051
0
LINE
8
BLACK
6
CONTINUOUS
10
0.62934
20
1.0051
11
0.629846
21
1.00437
0
LINE
8
BLACK
6
CONTINUOUS
10
0.629846
20
1.00437
11
0.629893
21
1.00433
0
LINE
8
BLACK
6
CONTINUOUS
10
0.629893
20
1.00433
11
0.631768
21
1.00058
0
LINE
8
BLACK
6
CONTINUOUS
10
0.631768
20
1.00058
11
0.63206
21
0.999597
0
LINE
8
BLACK
6
CONTINUOUS
10
0.63206
20
0.999597
11
0.632019
21
0.999425
0
LINE
8
BLACK
6
CONTINUOUS
10
0.632019
20
0.999425
11
0.632079
21
0.999259
0
LINE
8
BLACK
6
CONTINUOUS
10
0.632079
20
0.999259
11
0.632079
21
0.99176
0
LINE
8
BLACK
6
CONTINUOUS
10
0.632079
20
0.99176
11
0.631901
21
0.990751
0
LINE
8
BLACK
6
CONTINUOUS
10
0.631901
20
0.990751
11
0.631788
21
0.990615
0
LINE
8
BLACK
6
CONTINUOUS
10
0.631788
20
0.990615
11
0.631768
21
0.99044
0
LINE
8
BLACK
6
CONTINUOUS
10
0.631768
20
0.99044
11
0.629893
21
0.98669
0
LINE
8
BLACK
6
CONTINUOUS
10
0.629893
20
0.98669
11
0.629367
21
0.985981
0
LINE
8
BLACK
6
CONTINUOUS
10
0.629367
20
0.985981
11
0.62934
21
0.985923
0
LINE
8
BLACK
6
CONTINUOUS
10
0.62934
20
0.985923
11
0.627465
21
0.984048
0
LINE
8
BLACK
6
CONTINUOUS
10
0.627465
20
0.984048
11
0.626742
21
0.983542
0
LINE
8
BLACK
6
CONTINUOUS
10
0.626742
20
0.983542
11
0.626698
21
0.983495
0
LINE
8
BLACK
6
CONTINUOUS
10
0.626698
20
0.983495
11
0.622948
21
0.98162
0
LINE
8
BLACK
6
CONTINUOUS
10
0.622948
20
0.98162
11
0.621965
21
0.981328
0
LINE
8
BLACK
6
CONTINUOUS
10
0.621965
20
0.981328
11
0.621794
21
0.981369
0
LINE
8
BLACK
6
CONTINUOUS
10
0.621794
20
0.981369
11
0.621628
21
0.981309
0
LINE
8
BLACK
6
CONTINUOUS
10
0.621628
20
0.981309
11
0.60663
21
0.981309
0
LINE
8
BLACK
6
CONTINUOUS
10
0.60663
20
0.981309
11
0.606049
21
0.981411
0
LINE
8
BLACK
6
CONTINUOUS
10
0.606049
20
0.981411
11
0.605913
21
0.981397
0
LINE
8
BLACK
6
CONTINUOUS
10
0.605913
20
0.981397
11
0.598414
21
0.983272
0
LINE
8
BLACK
6
CONTINUOUS
10
0.598414
20
0.983272
11
0.597509
21
0.983675
0
LINE
8
BLACK
6
CONTINUOUS
10
0.597509
20
0.983675
11
0.597493
21
0.983679
0
LINE
8
BLACK
6
CONTINUOUS
10
0.597493
20
0.983679
11
0.591868
21
0.987429
0
LINE
8
BLACK
6
CONTINUOUS
10
0.591868
20
0.987429
11
0.591543
21
0.98774
0
LINE
8
BLACK
6
CONTINUOUS
10
0.591543
20
0.98774
11
0.591418
21
0.987798
0
LINE
8
BLACK
6
CONTINUOUS
10
0.591418
20
0.987798
11
0.589544
21
0.989673
0
LINE
8
BLACK
6
CONTINUOUS
10
0.589544
20
0.989673
11
0.589037
21
0.990396
0
LINE
8
BLACK
6
CONTINUOUS
10
0.589037
20
0.990396
11
0.58899
21
0.99044
0
LINE
8
BLACK
6
CONTINUOUS
10
0.58899
20
0.99044
11
0.587116
21
0.994189
0
LINE
8
BLACK
6
CONTINUOUS
10
0.587116
20
0.994189
11
0.586823
21
0.995172
0
LINE
8
BLACK
6
CONTINUOUS
10
0.586823
20
0.995172
11
0.586864
21
0.995344
0
LINE
8
BLACK
6
CONTINUOUS
10
0.586864
20
0.995344
11
0.586804
21
0.99551
0
LINE
8
BLACK
6
CONTINUOUS
10
0.586804
20
0.99551
11
0.586804
21
1.00301
0
LINE
8
BLACK
6
CONTINUOUS
10
0.586804
20
1.00301
11
0.586982
21
1.00402
0
LINE
8
BLACK
6
CONTINUOUS
10
0.586982
20
1.00402
11
0.58828
21
1.00557
0
LINE
8
BLACK
6
CONTINUOUS
10
0.58828
20
1.00557
11
0.590269
21
1.00592
0
LINE
8
BLACK
6
CONTINUOUS
10
0.590269
20
1.00592
11
0.592019
21
1.00491
0
LINE
8
BLACK
6
CONTINUOUS
10
0.592019
20
1.00491
11
0.592709
21
1.00301
0
LINE
8
BLACK
6
CONTINUOUS
10
0.592709
20
1.00301
11
0.592709
21
0.996207
0
LINE
8
BLACK
6
CONTINUOUS
10
0.592709
20
0.996207
11
0.594058
21
0.99351
0
LINE
8
BLACK
6
CONTINUOUS
10
0.594058
20
0.99351
11
0.595387
21
0.99218
0
LINE
8
BLACK
6
CONTINUOUS
10
0.595387
20
0.99218
11
0.600343
21
0.988877
0
LINE
8
BLACK
6
CONTINUOUS
10
0.600343
20
0.988877
11
0.60326
21
0.988147
0
LINE
8
BLACK
6
CONTINUOUS
10
0.60326
20
0.988147
11
0.602114
21
0.99044
0
LINE
8
BLACK
6
CONTINUOUS
10
0.602114
20
0.99044
11
0.601821
21
0.991423
0
LINE
8
BLACK
6
CONTINUOUS
10
0.601821
20
0.991423
11
0.601862
21
0.991595
0
LINE
8
BLACK
6
CONTINUOUS
10
0.601862
20
0.991595
11
0.601802
21
0.99176
0
LINE
8
BLACK
6
CONTINUOUS
10
0.601802
20
0.99176
11
0.601802
21
0.999259
0
LINE
8
BLACK
6
CONTINUOUS
10
0.601802
20
0.999259
11
0.60198
21
1.00027
0
LINE
8
BLACK
6
CONTINUOUS
10
0.60198
20
1.00027
11
0.602094
21
1.0004
0
LINE
8
BLACK
6
CONTINUOUS
10
0.602094
20
1.0004
11
0.602114
21
1.00058
0
LINE
8
BLACK
6
CONTINUOUS
10
0.602114
20
1.00058
11
0.603989
21
1.00433
0
LINE
8
BLACK
6
CONTINUOUS
10
0.603989
20
1.00433
11
0.604514
21
1.00504
0
LINE
8
BLACK
6
CONTINUOUS
10
0.604514
20
1.00504
11
0.604542
21
1.0051
0
LINE
8
BLACK
6
CONTINUOUS
10
0.604542
20
1.0051
11
0.606416
21
1.00697
0
LINE
8
BLACK
6
CONTINUOUS
10
0.606416
20
1.00697
11
0.607139
21
1.00748
0
LINE
8
BLACK
6
CONTINUOUS
10
0.607139
20
1.00748
11
0.607184
21
1.00752
0
LINE
8
BLACK
6
CONTINUOUS
10
0.607184
20
1.00752
11
0.610933
21
1.0094
0
LINE
8
BLACK
6
CONTINUOUS
10
0.610933
20
1.0094
11
0.611916
21
1.00969
0
LINE
8
BLACK
6
CONTINUOUS
10
0.611916
20
1.00969
11
0.612088
21
1.00965
0
LINE
8
BLACK
6
CONTINUOUS
10
0.612088
20
1.00965
11
0.612254
21
1.00971
0
LINE
8
BLACK
6
CONTINUOUS
10
0.612254
20
1.00971
11
0.621628
21
1.00971
0
LINE
8
BLACK
6
CONTINUOUS
10
0.621628
20
1.00971
11
0.622638
21
1.00953
0
LINE
8
BLACK
6
CONTINUOUS
10
0.610253
20
1.00246
11
0.609056
21
1.00126
0
LINE
8
BLACK
6
CONTINUOUS
10
0.609056
20
1.00126
11
0.607708
21
0.998562
0
LINE
8
BLACK
6
CONTINUOUS
10
0.607708
20
0.998562
11
0.607708
21
0.992457
0
LINE
8
BLACK
6
CONTINUOUS
10
0.607708
20
0.992457
11
0.609056
21
0.98976
0
LINE
8
BLACK
6
CONTINUOUS
10
0.609056
20
0.98976
11
0.610253
21
0.988563
0
LINE
8
BLACK
6
CONTINUOUS
10
0.610253
20
0.988563
11
0.612951
21
0.987214
0
LINE
8
BLACK
6
CONTINUOUS
10
0.612951
20
0.987214
11
0.620931
21
0.987214
0
LINE
8
BLACK
6
CONTINUOUS
10
0.620931
20
0.987214
11
0.623628
21
0.988563
0
LINE
8
BLACK
6
CONTINUOUS
10
0.623628
20
0.988563
11
0.624825
21
0.98976
0
LINE
8
BLACK
6
CONTINUOUS
10
0.624825
20
0.98976
11
0.626174
21
0.992458
0
LINE
8
BLACK
6
CONTINUOUS
10
0.626174
20
0.992458
11
0.626174
21
0.998562
0
LINE
8
BLACK
6
CONTINUOUS
10
0.626174
20
0.998562
11
0.624825
21
1.00126
0
LINE
8
BLACK
6
CONTINUOUS
10
0.624825
20
1.00126
11
0.623628
21
1.00246
0
LINE
8
BLACK
6
CONTINUOUS
10
0.623628
20
1.00246
11
0.620931
21
1.00381
0
LINE
8
BLACK
6
CONTINUOUS
10
0.620931
20
1.00381
11
0.612951
21
1.00381
0
LINE
8
BLACK
6
CONTINUOUS
10
0.612951
20
1.00381
11
0.610253
21
1.00246
0
LINE
8
BLACK
6
CONTINUOUS
10
0.71122
20
1.33248
11
0.712612
21
1.3319
0
LINE
8
BLACK
6
CONTINUOUS
10
0.712612
20
1.3319
11
0.713189
21
1.33051
0
LINE
8
BLACK
6
CONTINUOUS
10
0.713189
20
1.33051
11
0.713189
21
0.630512
0
LINE
8
BLACK
6
CONTINUOUS
10
0.713189
20
0.630512
11
0.712612
21
0.62912
0
LINE
8
BLACK
6
CONTINUOUS
10
0.712612
20
0.62912
11
0.71122
21
0.628543
0
LINE
8
BLACK
6
CONTINUOUS
10
0.71122
20
0.628543
11
0.51122
21
0.628543
0
LINE
8
BLACK
6
CONTINUOUS
10
0.51122
20
0.628543
11
0.509829
21
0.62912
0
LINE
8
BLACK
6
CONTINUOUS
10
0.509829
20
0.62912
11
0.509252
21
0.630512
0
LINE
8
BLACK
6
CONTINUOUS
10
0.509252
20
0.630512
11
0.509252
21
0.630512
0
LINE
8
BLACK
6
CONTINUOUS
10
0.509252
20
0.630512
11
0.509252
21
1.28051
0
LINE
8
BLACK
6
CONTINUOUS
10
0.509252
20
1.28051
11
0.509829
21
1.2819
0
LINE
8
BLACK
6
CONTINUOUS
10
0.509829
20
1.2819
11
0.509829
21
1.2819
0
LINE
8
BLACK
6
CONTINUOUS
10
0.509829
20
1.2819
11
0.559829
21
1.3319
0
LINE
8
BLACK
6
CONTINUOUS
10
0.559829
20
1.3319
11
0.559829
21
1.3319
0
LINE
8
BLACK
6
CONTINUOUS
10
0.559829
20
1.3319
11
0.56122
21
1.33248
0
LINE
8
BLACK
6
CONTINUOUS
10
0.56122
20
1.33248
11
0.71122
21
1.33248
0
LINE
8
BLACK
6
CONTINUOUS
10
0.562036
20
1.32854
11
0.513189
21
1.2797
0
LINE
8
BLACK
6
CONTINUOUS
10
0.513189
20
1.2797
11
0.513189
21
0.63248
0
LINE
8
BLACK
6
CONTINUOUS
10
0.513189
20
0.63248
11
0.709252
21
0.63248
0
LINE
8
BLACK
6
CONTINUOUS
10
0.709252
20
0.63248
11
0.709252
21
1.32854
0
LINE
8
BLACK
6
CONTINUOUS
10
0.709252
20
1.32854
11
0.562036
21
1.32854
0
LINE
8
BLACK
6
CONTINUOUS
10
0.469144
20
0.773697
11
0.469937
21
0.771839
0
LINE
8
BLACK
6
CONTINUOUS
10
0.469937
20
0.771839
11
0.469351
21
0.769906
0
LINE
8
BLACK
6
CONTINUOUS
10
0.469351
20
0.769906
11
0.454015
21
0.749458
0
LINE
8
BLACK
6
CONTINUOUS
10
0.454015
20
0.749458
11
0.469077
21
0.734396
0
LINE
8
BLACK
6
CONTINUOUS
10
0.469077
20
0.734396
11
0.469665
21
0.733556
0
LINE
8
BLACK
6
CONTINUOUS
10
0.469665
20
0.733556
11
0.469841
21
0.731544
0
LINE
8
BLACK
6
CONTINUOUS
10
0.469841
20
0.731544
11
0.468683
21
0.729889
0
LINE
8
BLACK
6
CONTINUOUS
10
0.468683
20
0.729889
11
0.466732
21
0.729366
0
LINE
8
BLACK
6
CONTINUOUS
10
0.466732
20
0.729366
11
0.464901
21
0.73022
0
LINE
8
BLACK
6
CONTINUOUS
10
0.464901
20
0.73022
11
0.447445
21
0.747676
0
LINE
8
BLACK
6
CONTINUOUS
10
0.447445
20
0.747676
11
0.447445
21
0.732308
0
LINE
8
BLACK
6
CONTINUOUS
10
0.447445
20
0.732308
11
0.447267
21
0.731298
0
LINE
8
BLACK
6
CONTINUOUS
10
0.447267
20
0.731298
11
0.445968
21
0.729751
0
LINE
8
BLACK
6
CONTINUOUS
10
0.445968
20
0.729751
11
0.443979
21
0.7294
0
LINE
8
BLACK
6
CONTINUOUS
10
0.443979
20
0.7294
11
0.44223
21
0.73041
0
LINE
8
BLACK
6
CONTINUOUS
10
0.44223
20
0.73041
11
0.441539
21
0.732308
0
LINE
8
BLACK
6
CONTINUOUS
10
0.441539
20
0.732308
11
0.441539
21
0.771678
0
LINE
8
BLACK
6
CONTINUOUS
10
0.441539
20
0.771678
11
0.441717
21
0.772688
0
LINE
8
BLACK
6
CONTINUOUS
10
0.441717
20
0.772688
11
0.443016
21
0.774235
0
LINE
8
BLACK
6
CONTINUOUS
10
0.443016
20
0.774235
11
0.445005
21
0.774586
0
LINE
8
BLACK
6
CONTINUOUS
10
0.445005
20
0.774586
11
0.446754
21
0.773576
0
LINE
8
BLACK
6
CONTINUOUS
10
0.446754
20
0.773576
11
0.447445
21
0.771678
0
LINE
8
BLACK
6
CONTINUOUS
10
0.447445
20
0.771678
11
0.447445
21
0.756028
0
LINE
8
BLACK
6
CONTINUOUS
10
0.447445
20
0.756028
11
0.449797
21
0.753676
0
LINE
8
BLACK
6
CONTINUOUS
10
0.449797
20
0.753676
11
0.464627
21
0.77345
0
LINE
8
BLACK
6
CONTINUOUS
10
0.464627
20
0.77345
11
0.465375
21
0.774151
0
LINE
8
BLACK
6
CONTINUOUS
10
0.465375
20
0.774151
11
0.467342
21
0.77461
0
LINE
8
BLACK
6
CONTINUOUS
10
0.467342
20
0.77461
11
0.469144
21
0.773697
0
LINE
8
BLACK
6
CONTINUOUS
10
0.469735
20
0.892988
11
0.470528
21
0.891131
0
LINE
8
BLACK
6
CONTINUOUS
10
0.470528
20
0.891131
11
0.469942
21
0.889198
0
LINE
8
BLACK
6
CONTINUOUS
10
0.469942
20
0.889198
11
0.454606
21
0.868749
0
LINE
8
BLACK
6
CONTINUOUS
10
0.454606
20
0.868749
11
0.469668
21
0.853687
0
LINE
8
BLACK
6
CONTINUOUS
10
0.469668
20
0.853687
11
0.470256
21
0.852847
0
LINE
8
BLACK
6
CONTINUOUS
10
0.470256
20
0.852847
11
0.470432
21
0.850835
0
LINE
8
BLACK
6
CONTINUOUS
10
0.470432
20
0.850835
11
0.469273
21
0.84918
0
LINE
8
BLACK
6
CONTINUOUS
10
0.469273
20
0.84918
11
0.467322
21
0.848658
0
LINE
8
BLACK
6
CONTINUOUS
10
0.467322
20
0.848658
11
0.465492
21
0.849511
0
LINE
8
BLACK
6
CONTINUOUS
10
0.465492
20
0.849511
11
0.448035
21
0.866968
0
LINE
8
BLACK
6
CONTINUOUS
10
0.448035
20
0.866968
11
0.448035
21
0.851599
0
LINE
8
BLACK
6
CONTINUOUS
10
0.448035
20
0.851599
11
0.447857
21
0.850589
0
LINE
8
BLACK
6
CONTINUOUS
10
0.447857
20
0.850589
11
0.446559
21
0.849042
0
LINE
8
BLACK
6
CONTINUOUS
10
0.446559
20
0.849042
11
0.44457
21
0.848691
0
LINE
8
BLACK
6
CONTINUOUS
10
0.44457
20
0.848691
11
0.442821
21
0.849701
0
LINE
8
BLACK
6
CONTINUOUS
10
0.442821
20
0.849701
11
0.44213
21
0.851599
0
LINE
8
BLACK
6
CONTINUOUS
10
0.44213
20
0.851599
11
0.44213
21
0.890969
0
LINE
8
BLACK
6
CONTINUOUS
10
0.44213
20
0.890969
11
0.442308
21
0.891979
0
LINE
8
BLACK
6
CONTINUOUS
10
0.442308
20
0.891979
11
0.443606
21
0.893526
0
LINE
8
BLACK
6
CONTINUOUS
10
0.443606
20
0.893526
11
0.445595
21
0.893877
0
LINE
8
BLACK
6
CONTINUOUS
10
0.445595
20
0.893877
11
0.447344
21
0.892867
0
LINE
8
BLACK
6
CONTINUOUS
10
0.447344
20
0.892867
11
0.448035
21
0.890969
0
LINE
8
BLACK
6
CONTINUOUS
10
0.448035
20
0.890969
11
0.448035
21
0.875319
0
LINE
8
BLACK
6
CONTINUOUS
10
0.448035
20
0.875319
11
0.450387
21
0.872967
0
LINE
8
BLACK
6
CONTINUOUS
10
0.450387
20
0.872967
11
0.465217
21
0.892741
0
LINE
8
BLACK
6
CONTINUOUS
10
0.465217
20
0.892741
11
0.465966
21
0.893442
0
LINE
8
BLACK
6
CONTINUOUS
10
0.465966
20
0.893442
11
0.467933
21
0.893901
0
LINE
8
BLACK
6
CONTINUOUS
10
0.467933
20
0.893901
11
0.469735
21
0.892988
0
LINE
8
BLACK
6
CONTINUOUS
10
0.470128
20
1.01228
11
0.470922
21
1.01042
0
LINE
8
BLACK
6
CONTINUOUS
10
0.470922
20
1.01042
11
0.470336
21
1.00849
0
LINE
8
BLACK
6
CONTINUOUS
10
0.470336
20
1.00849
11
0.454999
21
0.988041
0
LINE
8
BLACK
6
CONTINUOUS
10
0.454999
20
0.988041
11
0.470061
21
0.972978
0
LINE
8
BLACK
6
CONTINUOUS
10
0.470061
20
0.972978
11
0.470649
21
0.972138
0
LINE
8
BLACK
6
CONTINUOUS
10
0.470649
20
0.972138
11
0.470825
21
0.970126
0
LINE
8
BLACK
6
CONTINUOUS
10
0.470825
20
0.970126
11
0.469667
21
0.968472
0
LINE
8
BLACK
6
CONTINUOUS
10
0.469667
20
0.968472
11
0.467716
21
0.967949
0
LINE
8
BLACK
6
CONTINUOUS
10
0.467716
20
0.967949
11
0.465885
21
0.968803
0
LINE
8
BLACK
6
CONTINUOUS
10
0.465885
20
0.968803
11
0.448429
21
0.986259
0
LINE
8
BLACK
6
CONTINUOUS
10
0.448429
20
0.986259
11
0.448429
21
0.970891
0
LINE
8
BLACK
6
CONTINUOUS
10
0.448429
20
0.970891
11
0.448251
21
0.969881
0
LINE
8
BLACK
6
CONTINUOUS
10
0.448251
20
0.969881
11
0.446953
21
0.968333
0
LINE
8
BLACK
6
CONTINUOUS
10
0.446953
20
0.968333
11
0.444963
21
0.967983
0
LINE
8
BLACK
6
CONTINUOUS
10
0.444963
20
0.967983
11
0.443214
21
0.968993
0
LINE
8
BLACK
6
CONTINUOUS
10
0.443214
20
0.968993
11
0.442523
21
0.970891
0
LINE
8
BLACK
6
CONTINUOUS
10
0.442523
20
0.970891
11
0.442523
21
1.01026
0
LINE
8
BLACK
6
CONTINUOUS
10
0.442523
20
1.01026
11
0.442701
21
1.01127
0
LINE
8
BLACK
6
CONTINUOUS
10
0.442701
20
1.01127
11
0.444
21
1.01282
0
LINE
8
BLACK
6
CONTINUOUS
10
0.444
20
1.01282
11
0.445989
21
1.01317
0
LINE
8
BLACK
6
CONTINUOUS
10
0.445989
20
1.01317
11
0.447738
21
1.01216
0
LINE
8
BLACK
6
CONTINUOUS
10
0.447738
20
1.01216
11
0.448429
21
1.01026
0
LINE
8
BLACK
6
CONTINUOUS
10
0.448429
20
1.01026
11
0.448429
21
0.994611
0
LINE
8
BLACK
6
CONTINUOUS
10
0.448429
20
0.994611
11
0.450781
21
0.992259
0
LINE
8
BLACK
6
CONTINUOUS
10
0.450781
20
0.992259
11
0.465611
21
1.01203
0
LINE
8
BLACK
6
CONTINUOUS
10
0.465611
20
1.01203
11
0.46636
21
1.01273
0
LINE
8
BLACK
6
CONTINUOUS
10
0.46636
20
1.01273
11
0.468327
21
1.01319
0
LINE
8
BLACK
6
CONTINUOUS
10
0.468327
20
1.01319
11
0.470128
21
1.01228
0
LINE
8
BLACK
6
CONTINUOUS
10
0.470128
20
1.13157
11
0.470922
21
1.12971
0
LINE
8
BLACK
6
CONTINUOUS
10
0.470922
20
1.12971
11
0.470336
21
1.12778
0
LINE
8
BLACK
6
CONTINUOUS
10
0.470336
20
1.12778
11
0.454999
21
1.10733
0
LINE
8
BLACK
6
CONTINUOUS
10
0.454999
20
1.10733
11
0.470061
21
1.09227
0
LINE
8
BLACK
6
CONTINUOUS
10
0.470061
20
1.09227
11
0.470649
21
1.09143
0
LINE
8
BLACK
6
CONTINUOUS
10
0.470649
20
1.09143
11
0.470825
21
1.08942
0
LINE
8
BLACK
6
CONTINUOUS
10
0.470825
20
1.08942
11
0.469667
21
1.08776
0
LINE
8
BLACK
6
CONTINUOUS
10
0.469667
20
1.08776
11
0.467716
21
1.08724
0
LINE
8
BLACK
6
CONTINUOUS
10
0.467716
20
1.08724
11
0.465885
21
1.08809
0
LINE
8
BLACK
6
CONTINUOUS
10
0.465885
20
1.08809
11
0.448429
21
1.10555
0
LINE
8
BLACK
6
CONTINUOUS
10
0.448429
20
1.10555
11
0.448429
21
1.09018
0
LINE
8
BLACK
6
CONTINUOUS
10
0.448429
20
1.09018
11
0.448251
21
1.08917
0
LINE
8
BLACK
6
CONTINUOUS
10
0.448251
20
1.08917
11
0.446953
21
1.08762
0
LINE
8
BLACK
6
CONTINUOUS
10
0.446953
20
1.08762
11
0.444963
21
1.08727
0
LINE
8
BLACK
6
CONTINUOUS
10
0.444963
20
1.08727
11
0.443214
21
1.08828
0
LINE
8
BLACK
6
CONTINUOUS
10
0.443214
20
1.08828
11
0.442523
21
1.09018
0
LINE
8
BLACK
6
CONTINUOUS
10
0.442523
20
1.09018
11
0.442523
21
1.12955
0
LINE
8
BLACK
6
CONTINUOUS
10
0.442523
20
1.12955
11
0.442701
21
1.13056
0
LINE
8
BLACK
6
CONTINUOUS
10
0.442701
20
1.13056
11
0.444
21
1.13211
0
LINE
8
BLACK
6
CONTINUOUS
10
0.444
20
1.13211
11
0.445989
21
1.13246
0
LINE
8
BLACK
6
CONTINUOUS
10
0.445989
20
1.13246
11
0.447738
21
1.13145
0
LINE
8
BLACK
6
CONTINUOUS
10
0.447738
20
1.13145
11
0.448429
21
1.12955
0
LINE
8
BLACK
6
CONTINUOUS
10
0.448429
20
1.12955
11
0.448429
21
1.1139
0
LINE
8
BLACK
6
CONTINUOUS
10
0.448429
20
1.1139
11
0.450781
21
1.11155
0
LINE
8
BLACK
6
CONTINUOUS
10
0.450781
20
1.11155
11
0.465611
21
1.13132
0
LINE
8
BLACK
6
CONTINUOUS
10
0.465611
20
1.13132
11
0.46636
21
1.13202
0
LINE
8
BLACK
6
CONTINUOUS
10
0.46636
20
1.13202
11
0.468327
21
1.13248
0
LINE
8
BLACK
6
CONTINUOUS
10
0.468327
20
1.13248
11
0.470128
21
1.13157
0
LINE
8
BLACK
6
CONTINUOUS
10
1.53716
20
1.18444
11
1.53729
21
1.18433
0
LINE
8
BLACK
6
CONTINUOUS
10
1.53729
20
1.18433
11
1.53747
21
1.18431
0
LINE
8
BLACK
6
CONTINUOUS
10
1.53747
20
1.18431
11
1.54122
21
1.18243
0
LINE
8
BLACK
6
CONTINUOUS
10
1.54122
20
1.18243
11
1.54193
21
1.18191
0
LINE
8
BLACK
6
CONTINUOUS
10
1.54193
20
1.18191
11
1.54199
21
1.18188
0
LINE
8
BLACK
6
CONTINUOUS
10
1.54199
20
1.18188
11
1.54386
21
1.18
0
LINE
8
BLACK
6
CONTINUOUS
10
1.54386
20
1.18
11
1.54437
21
1.17928
0
LINE
8
BLACK
6
CONTINUOUS
10
1.54437
20
1.17928
11
1.54441
21
1.17924
0
LINE
8
BLACK
6
CONTINUOUS
10
1.54441
20
1.17924
11
1.54629
21
1.17549
0
LINE
8
BLACK
6
CONTINUOUS
10
1.54629
20
1.17549
11
1.54658
21
1.1745
0
LINE
8
BLACK
6
CONTINUOUS
10
1.54658
20
1.1745
11
1.54654
21
1.17433
0
LINE
8
BLACK
6
CONTINUOUS
10
1.54654
20
1.17433
11
1.5466
21
1.17417
0
LINE
8
BLACK
6
CONTINUOUS
10
1.5466
20
1.17417
11
1.5466
21
1.16212
0
LINE
8
BLACK
6
CONTINUOUS
10
1.5466
20
1.16212
11
1.56239
21
1.16212
0
LINE
8
BLACK
6
CONTINUOUS
10
1.56239
20
1.16212
11
1.5634
21
1.16194
0
LINE
8
BLACK
6
CONTINUOUS
10
1.5634
20
1.16194
11
1.56495
21
1.16064
0
LINE
8
BLACK
6
CONTINUOUS
10
1.56495
20
1.16064
11
1.5653
21
1.15865
0
LINE
8
BLACK
6
CONTINUOUS
10
1.5653
20
1.15865
11
1.56429
21
1.15691
0
LINE
8
BLACK
6
CONTINUOUS
10
1.56429
20
1.15691
11
1.56239
21
1.15621
0
LINE
8
BLACK
6
CONTINUOUS
10
1.56239
20
1.15621
11
1.52302
21
1.15621
0
LINE
8
BLACK
6
CONTINUOUS
10
1.52302
20
1.15621
11
1.52264
21
1.15628
0
LINE
8
BLACK
6
CONTINUOUS
10
1.52264
20
1.15628
11
1.52251
21
1.15626
0
LINE
8
BLACK
6
CONTINUOUS
10
1.52251
20
1.15626
11
1.5224
21
1.15633
0
LINE
8
BLACK
6
CONTINUOUS
10
1.5224
20
1.15633
11
1.52201
21
1.15639
0
LINE
8
BLACK
6
CONTINUOUS
10
1.52201
20
1.15639
11
1.52143
21
1.15689
0
LINE
8
BLACK
6
CONTINUOUS
10
1.52143
20
1.15689
11
1.52076
21
1.15727
0
LINE
8
BLACK
6
CONTINUOUS
10
1.52076
20
1.15727
11
1.52067
21
1.15752
0
LINE
8
BLACK
6
CONTINUOUS
10
1.52067
20
1.15752
11
1.52047
21
1.15769
0
LINE
8
BLACK
6
CONTINUOUS
10
1.52047
20
1.15769
11
1.52033
21
1.15845
0
LINE
8
BLACK
6
CONTINUOUS
10
1.52033
20
1.15845
11
1.52007
21
1.15917
0
LINE
8
BLACK
6
CONTINUOUS
10
1.52007
20
1.15917
11
1.52007
21
1.17417
0
LINE
8
BLACK
6
CONTINUOUS
10
1.52007
20
1.17417
11
1.52025
21
1.17518
0
LINE
8
BLACK
6
CONTINUOUS
10
1.52025
20
1.17518
11
1.52036
21
1.17531
0
LINE
8
BLACK
6
CONTINUOUS
10
1.52036
20
1.17531
11
1.52038
21
1.17549
0
LINE
8
BLACK
6
CONTINUOUS
10
1.52038
20
1.17549
11
1.52226
21
1.17924
0
LINE
8
BLACK
6
CONTINUOUS
10
1.52226
20
1.17924
11
1.52278
21
1.17994
0
LINE
8
BLACK
6
CONTINUOUS
10
1.52278
20
1.17994
11
1.52281
21
1.18
0
LINE
8
BLACK
6
CONTINUOUS
10
1.52281
20
1.18
11
1.52469
21
1.18188
0
LINE
8
BLACK
6
CONTINUOUS
10
1.52469
20
1.18188
11
1.52541
21
1.18238
0
LINE
8
BLACK
6
CONTINUOUS
10
1.52541
20
1.18238
11
1.52545
21
1.18243
0
LINE
8
BLACK
6
CONTINUOUS
10
1.52545
20
1.18243
11
1.5292
21
1.18431
0
LINE
8
BLACK
6
CONTINUOUS
10
1.5292
20
1.18431
11
1.53019
21
1.1846
0
LINE
8
BLACK
6
CONTINUOUS
10
1.53019
20
1.1846
11
1.53036
21
1.18456
0
LINE
8
BLACK
6
CONTINUOUS
10
1.53036
20
1.18456
11
1.53052
21
1.18462
0
LINE
8
BLACK
6
CONTINUOUS
10
1.53052
20
1.18462
11
1.53615
21
1.18462
0
LINE
8
BLACK
6
CONTINUOUS
10
1.53615
20
1.18462
11
1.53716
21
1.18444
0
LINE
8
BLACK
6
CONTINUOUS
10
1.52852
20
1.17736
11
1.52733
21
1.17617
0
LINE
8
BLACK
6
CONTINUOUS
10
1.52733
20
1.17617
11
1.52598
21
1.17347
0
LINE
8
BLACK
6
CONTINUOUS
10
1.52598
20
1.17347
11
1.52598
21
1.16212
0
LINE
8
BLACK
6
CONTINUOUS
10
1.52598
20
1.16212
11
1.54069
21
1.16212
0
LINE
8
BLACK
6
CONTINUOUS
10
1.54069
20
1.16212
11
1.54069
21
1.17347
0
LINE
8
BLACK
6
CONTINUOUS
10
1.54069
20
1.17347
11
1.53935
21
1.17617
0
LINE
8
BLACK
6
CONTINUOUS
10
1.53935
20
1.17617
11
1.53815
21
1.17736
0
LINE
8
BLACK
6
CONTINUOUS
10
1.53815
20
1.17736
11
1.53545
21
1.17871
0
LINE
8
BLACK
6
CONTINUOUS
10
1.53545
20
1.17871
11
1.53122
21
1.17871
0
LINE
8
BLACK
6
CONTINUOUS
10
1.53122
20
1.17871
11
1.52852
21
1.17736
0
LINE
8
BLACK
6
CONTINUOUS
10
1.64449
20
1.2252
11
1.64588
21
1.22462
0
LINE
8
BLACK
6
CONTINUOUS
10
1.64588
20
1.22462
11
1.64646
21
1.22323
0
LINE
8
BLACK
6
CONTINUOUS
10
1.64646
20
1.22323
11
1.64646
21
1.12323
0
LINE
8
BLACK
6
CONTINUOUS
10
1.64646
20
1.12323
11
1.64588
21
1.12184
0
LINE
8
BLACK
6
CONTINUOUS
10
1.64588
20
1.12184
11
1.64449
21
1.12126
0
LINE
8
BLACK
6
CONTINUOUS
10
1.64449
20
1.12126
11
1.44449
21
1.12126
0
LINE
8
BLACK
6
CONTINUOUS
10
1.44449
20
1.12126
11
1.4431
21
1.12184
0
LINE
8
BLACK
6
CONTINUOUS
10
1.4431
20
1.12184
11
1.44252
21
1.12323
0
LINE
8
BLACK
6
CONTINUOUS
10
1.44252
20
1.12323
11
1.44252
21
1.12323
0
LINE
8
BLACK
6
CONTINUOUS
10
1.44252
20
1.12323
11
1.44252
21
1.17323
0
LINE
8
BLACK
6
CONTINUOUS
10
1.44252
20
1.17323
11
1.4431
21
1.17462
0
LINE
8
BLACK
6
CONTINUOUS
10
1.4431
20
1.17462
11
1.4931
21
1.22462
0
LINE
8
BLACK
6
CONTINUOUS
10
1.4931
20
1.22462
11
1.4931
21
1.22462
0
LINE
8
BLACK
6
CONTINUOUS
10
1.4931
20
1.22462
11
1.49449
21
1.2252
0
LINE
8
BLACK
6
CONTINUOUS
10
1.49449
20
1.2252
11
1.64449
21
1.2252
0
LINE
8
BLACK
6
CONTINUOUS
10
1.55214
20
1.22126
11
1.55222
21
1.22103
0
LINE
8
BLACK
6
CONTINUOUS
10
1.55222
20
1.22103
11
1.55222
21
1.21836
0
LINE
8
BLACK
6
CONTINUOUS
10
1.55222
20
1.21836
11
1.56239
21
1.21836
0
LINE
8
BLACK
6
CONTINUOUS
10
1.56239
20
1.21836
11
1.5634
21
1.21819
0
LINE
8
BLACK
6
CONTINUOUS
10
1.5634
20
1.21819
11
1.56495
21
1.21689
0
LINE
8
BLACK
6
CONTINUOUS
10
1.56495
20
1.21689
11
1.5653
21
1.2149
0
LINE
8
BLACK
6
CONTINUOUS
10
1.5653
20
1.2149
11
1.56429
21
1.21315
0
LINE
8
BLACK
6
CONTINUOUS
10
1.56429
20
1.21315
11
1.56239
21
1.21246
0
LINE
8
BLACK
6
CONTINUOUS
10
1.56239
20
1.21246
11
1.55222
21
1.21246
0
LINE
8
BLACK
6
CONTINUOUS
10
1.55222
20
1.21246
11
1.55222
21
1.19666
0
LINE
8
BLACK
6
CONTINUOUS
10
1.55222
20
1.19666
11
1.55205
21
1.19565
0
LINE
8
BLACK
6
CONTINUOUS
10
1.55205
20
1.19565
11
1.5519
21
1.19548
0
LINE
8
BLACK
6
CONTINUOUS
10
1.5519
20
1.19548
11
1.55187
21
1.19526
0
LINE
8
BLACK
6
CONTINUOUS
10
1.55187
20
1.19526
11
1.55127
21
1.19472
0
LINE
8
BLACK
6
CONTINUOUS
10
1.55127
20
1.19472
11
1.55075
21
1.19411
0
LINE
8
BLACK
6
CONTINUOUS
10
1.55075
20
1.19411
11
1.55053
21
1.19407
0
LINE
8
BLACK
6
CONTINUOUS
10
1.55053
20
1.19407
11
1.55036
21
1.19392
0
LINE
8
BLACK
6
CONTINUOUS
10
1.55036
20
1.19392
11
1.54955
21
1.19389
0
LINE
8
BLACK
6
CONTINUOUS
10
1.54955
20
1.19389
11
1.54876
21
1.19376
0
LINE
8
BLACK
6
CONTINUOUS
10
1.54876
20
1.19376
11
1.54856
21
1.19387
0
LINE
8
BLACK
6
CONTINUOUS
10
1.54856
20
1.19387
11
1.54834
21
1.19386
0
LINE
8
BLACK
6
CONTINUOUS
10
1.54834
20
1.19386
11
1.52022
21
1.20324
0
LINE
8
BLACK
6
CONTINUOUS
10
1.52022
20
1.20324
11
1.51931
21
1.20372
0
LINE
8
BLACK
6
CONTINUOUS
10
1.51931
20
1.20372
11
1.51826
21
1.20544
0
LINE
8
BLACK
6
CONTINUOUS
10
1.51826
20
1.20544
11
1.51855
21
1.20744
0
LINE
8
BLACK
6
CONTINUOUS
10
1.51855
20
1.20744
11
1.52006
21
1.20878
0
LINE
8
BLACK
6
CONTINUOUS
10
1.52006
20
1.20878
11
1.52208
21
1.20884
0
LINE
8
BLACK
6
CONTINUOUS
10
1.52208
20
1.20884
11
1.54632
21
1.20076
0
LINE
8
BLACK
6
CONTINUOUS
10
1.54632
20
1.20076
11
1.54632
21
1.21246
0
LINE
8
BLACK
6
CONTINUOUS
10
1.54632
20
1.21246
11
1.53615
21
1.21246
0
LINE
8
BLACK
6
CONTINUOUS
10
1.53615
20
1.21246
11
1.53514
21
1.21264
0
LINE
8
BLACK
6
CONTINUOUS
10
1.53514
20
1.21264
11
1.53359
21
1.21393
0
LINE
8
BLACK
6
CONTINUOUS
10
1.53359
20
1.21393
11
1.53324
21
1.21592
0
LINE
8
BLACK
6
CONTINUOUS
10
1.53324
20
1.21592
11
1.53425
21
1.21767
0
LINE
8
BLACK
6
CONTINUOUS
10
1.53425
20
1.21767
11
1.53615
21
1.21836
0
LINE
8
BLACK
6
CONTINUOUS
10
1.53615
20
1.21836
11
1.54632
21
1.21836
0
LINE
8
BLACK
6
CONTINUOUS
10
1.54632
20
1.21836
11
1.54632
21
1.22103
0
LINE
8
BLACK
6
CONTINUOUS
10
1.54632
20
1.22103
11
1.54636
21
1.22126
0
LINE
8
BLACK
6
CONTINUOUS
10
1.54636
20
1.22126
11
1.4953
21
1.22126
0
LINE
8
BLACK
6
CONTINUOUS
10
1.4953
20
1.22126
11
1.44646
21
1.17241
0
LINE
8
BLACK
6
CONTINUOUS
10
1.44646
20
1.17241
11
1.44646
21
1.1252
0
LINE
8
BLACK
6
CONTINUOUS
10
1.44646
20
1.1252
11
1.55952
21
1.1252
0
LINE
8
BLACK
6
CONTINUOUS
10
1.55952
20
1.1252
11
1.55944
21
1.12542
0
LINE
8
BLACK
6
CONTINUOUS
10
1.55944
20
1.12542
11
1.55944
21
1.12869
0
LINE
8
BLACK
6
CONTINUOUS
10
1.55944
20
1.12869
11
1.55794
21
1.1332
0
LINE
8
BLACK
6
CONTINUOUS
10
1.55794
20
1.1332
11
1.55518
21
1.13596
0
LINE
8
BLACK
6
CONTINUOUS
10
1.55518
20
1.13596
11
1.55067
21
1.13747
0
LINE
8
BLACK
6
CONTINUOUS
10
1.55067
20
1.13747
11
1.52302
21
1.13747
0
LINE
8
BLACK
6
CONTINUOUS
10
1.52302
20
1.13747
11
1.52201
21
1.13765
0
LINE
8
BLACK
6
CONTINUOUS
10
1.52201
20
1.13765
11
1.52047
21
1.13894
0
LINE
8
BLACK
6
CONTINUOUS
10
1.52047
20
1.13894
11
1.52012
21
1.14093
0
LINE
8
BLACK
6
CONTINUOUS
10
1.52012
20
1.14093
11
1.52113
21
1.14268
0
LINE
8
BLACK
6
CONTINUOUS
10
1.52113
20
1.14268
11
1.52302
21
1.14337
0
LINE
8
BLACK
6
CONTINUOUS
10
1.52302
20
1.14337
11
1.55115
21
1.14337
0
LINE
8
BLACK
6
CONTINUOUS
10
1.55115
20
1.14337
11
1.55202
21
1.14322
0
LINE
8
BLACK
6
CONTINUOUS
10
1.55202
20
1.14322
11
1.55208
21
1.14322
0
LINE
8
BLACK
6
CONTINUOUS
10
1.55208
20
1.14322
11
1.5577
21
1.14135
0
LINE
8
BLACK
6
CONTINUOUS
10
1.5577
20
1.14135
11
1.55861
21
1.14086
0
LINE
8
BLACK
6
CONTINUOUS
10
1.55861
20
1.14086
11
1.5587
21
1.14071
0
LINE
8
BLACK
6
CONTINUOUS
10
1.5587
20
1.14071
11
1.55886
21
1.14063
0
LINE
8
BLACK
6
CONTINUOUS
10
1.55886
20
1.14063
11
1.56261
21
1.13688
0
LINE
8
BLACK
6
CONTINUOUS
10
1.56261
20
1.13688
11
1.5632
21
1.13604
0
LINE
8
BLACK
6
CONTINUOUS
10
1.5632
20
1.13604
11
1.56321
21
1.13587
0
LINE
8
BLACK
6
CONTINUOUS
10
1.56321
20
1.13587
11
1.56332
21
1.13573
0
LINE
8
BLACK
6
CONTINUOUS
10
1.56332
20
1.13573
11
1.5652
21
1.13011
0
LINE
8
BLACK
6
CONTINUOUS
10
1.5652
20
1.13011
11
1.56533
21
1.12923
0
LINE
8
BLACK
6
CONTINUOUS
10
1.56533
20
1.12923
11
1.56535
21
1.12917
0
LINE
8
BLACK
6
CONTINUOUS
10
1.56535
20
1.12917
11
1.56535
21
1.12542
0
LINE
8
BLACK
6
CONTINUOUS
10
1.56535
20
1.12542
11
1.56531
21
1.1252
0
LINE
8
BLACK
6
CONTINUOUS
10
1.56531
20
1.1252
11
1.64252
21
1.1252
0
LINE
8
BLACK
6
CONTINUOUS
10
1.64252
20
1.1252
11
1.64252
21
1.22126
0
LINE
8
BLACK
6
CONTINUOUS
10
1.64252
20
1.22126
11
1.55214
21
1.22126
0
LINE
8
BLACK
6
CONTINUOUS
10
0.46875
20
1.30204
11
0.469544
21
1.30019
0
LINE
8
BLACK
6
CONTINUOUS
10
0.469544
20
1.30019
11
0.468958
21
1.29825
0
LINE
8
BLACK
6
CONTINUOUS
10
0.468958
20
1.29825
11
0.453621
21
1.2778
0
LINE
8
BLACK
6
CONTINUOUS
10
0.453621
20
1.2778
11
0.468683
21
1.26274
0
LINE
8
BLACK
6
CONTINUOUS
10
0.468683
20
1.26274
11
0.469271
21
1.2619
0
LINE
8
BLACK
6
CONTINUOUS
10
0.469271
20
1.2619
11
0.469448
21
1.25989
0
LINE
8
BLACK
6
CONTINUOUS
10
0.469448
20
1.25989
11
0.468289
21
1.25824
0
LINE
8
BLACK
6
CONTINUOUS
10
0.468289
20
1.25824
11
0.466338
21
1.25771
0
LINE
8
BLACK
6
CONTINUOUS
10
0.466338
20
1.25771
11
0.464507
21
1.25857
0
LINE
8
BLACK
6
CONTINUOUS
10
0.464507
20
1.25857
11
0.447051
21
1.27602
0
LINE
8
BLACK
6
CONTINUOUS
10
0.447051
20
1.27602
11
0.447051
21
1.26065
0
LINE
8
BLACK
6
CONTINUOUS
10
0.447051
20
1.26065
11
0.446873
21
1.25964
0
LINE
8
BLACK
6
CONTINUOUS
10
0.446873
20
1.25964
11
0.445575
21
1.2581
0
LINE
8
BLACK
6
CONTINUOUS
10
0.445575
20
1.2581
11
0.443585
21
1.25775
0
LINE
8
BLACK
6
CONTINUOUS
10
0.443585
20
1.25775
11
0.441836
21
1.25876
0
LINE
8
BLACK
6
CONTINUOUS
10
0.441836
20
1.25876
11
0.441145
21
1.26065
0
LINE
8
BLACK
6
CONTINUOUS
10
0.441145
20
1.26065
11
0.441145
21
1.30002
0
LINE
8
BLACK
6
CONTINUOUS
10
0.441145
20
1.30002
11
0.441324
21
1.30103
0
LINE
8
BLACK
6
CONTINUOUS
10
0.441324
20
1.30103
11
0.442622
21
1.30258
0
LINE
8
BLACK
6
CONTINUOUS
10
0.442622
20
1.30258
11
0.444611
21
1.30293
0
LINE
8
BLACK
6
CONTINUOUS
10
0.444611
20
1.30293
11
0.44636
21
1.30192
0
LINE
8
BLACK
6
CONTINUOUS
10
0.44636
20
1.30192
11
0.447051
21
1.30002
0
LINE
8
BLACK
6
CONTINUOUS
10
0.447051
20
1.30002
11
0.447051
21
1.28437
0
LINE
8
BLACK
6
CONTINUOUS
10
0.447051
20
1.28437
11
0.449403
21
1.28202
0
LINE
8
BLACK
6
CONTINUOUS
10
0.449403
20
1.28202
11
0.464233
21
1.3018
0
LINE
8
BLACK
6
CONTINUOUS
10
0.464233
20
1.3018
11
0.464982
21
1.3025
0
LINE
8
BLACK
6
CONTINUOUS
10
0.464982
20
1.3025
11
0.466949
21
1.30296
0
LINE
8
BLACK
6
CONTINUOUS
10
0.466949
20
1.30296
11
0.46875
21
1.30204
0
LINE
8
BLACK
6
CONTINUOUS
10
1.01117
20
1.40816
11
1.01131
21
1.40805
0
LINE
8
BLACK
6
CONTINUOUS
10
1.01131
20
1.40805
11
1.01148
21
1.40803
0
LINE
8
BLACK
6
CONTINUOUS
10
1.01148
20
1.40803
11
1.01523
21
1.40615
0
LINE
8
BLACK
6
CONTINUOUS
10
1.01523
20
1.40615
11
1.01594
21
1.40563
0
LINE
8
BLACK
6
CONTINUOUS
10
1.01594
20
1.40563
11
1.016
21
1.4056
0
LINE
8
BLACK
6
CONTINUOUS
10
1.016
20
1.4056
11
1.01788
21
1.40372
0
LINE
8
BLACK
6
CONTINUOUS
10
1.01788
20
1.40372
11
1.01838
21
1.403
0
LINE
8
BLACK
6
CONTINUOUS
10
1.01838
20
1.403
11
1.01843
21
1.40296
0
LINE
8
BLACK
6
CONTINUOUS
10
1.01843
20
1.40296
11
1.0203
21
1.39921
0
LINE
8
BLACK
6
CONTINUOUS
10
1.0203
20
1.39921
11
1.0206
21
1.39822
0
LINE
8
BLACK
6
CONTINUOUS
10
1.0206
20
1.39822
11
1.02055
21
1.39805
0
LINE
8
BLACK
6
CONTINUOUS
10
1.02055
20
1.39805
11
1.02062
21
1.39789
0
LINE
8
BLACK
6
CONTINUOUS
10
1.02062
20
1.39789
11
1.02062
21
1.38584
0
LINE
8
BLACK
6
CONTINUOUS
10
1.02062
20
1.38584
11
1.03641
21
1.38584
0
LINE
8
BLACK
6
CONTINUOUS
10
1.03641
20
1.38584
11
1.03742
21
1.38566
0
LINE
8
BLACK
6
CONTINUOUS
10
1.03742
20
1.38566
11
1.03897
21
1.38436
0
LINE
8
BLACK
6
CONTINUOUS
10
1.03897
20
1.38436
11
1.03932
21
1.38238
0
LINE
8
BLACK
6
CONTINUOUS
10
1.03932
20
1.38238
11
1.03831
21
1.38063
0
LINE
8
BLACK
6
CONTINUOUS
10
1.03831
20
1.38063
11
1.03641
21
1.37994
0
LINE
8
BLACK
6
CONTINUOUS
10
1.03641
20
1.37994
11
0.99704
21
1.37994
0
LINE
8
BLACK
6
CONTINUOUS
10
0.99704
20
1.37994
11
0.996657
21
1.38
0
LINE
8
BLACK
6
CONTINUOUS
10
0.996657
20
1.38
11
0.996527
21
1.37998
0
LINE
8
BLACK
6
CONTINUOUS
10
0.996527
20
1.37998
11
0.996414
21
1.38005
0
LINE
8
BLACK
6
CONTINUOUS
10
0.996414
20
1.38005
11
0.99603
21
1.38011
0
LINE
8
BLACK
6
CONTINUOUS
10
0.99603
20
1.38011
11
0.995442
21
1.38061
0
LINE
8
BLACK
6
CONTINUOUS
10
0.995442
20
1.38061
11
0.994778
21
1.38099
0
LINE
8
BLACK
6
CONTINUOUS
10
0.994778
20
1.38099
11
0.994687
21
1.38124
0
LINE
8
BLACK
6
CONTINUOUS
10
0.994687
20
1.38124
11
0.994483
21
1.38141
0
LINE
8
BLACK
6
CONTINUOUS
10
0.994483
20
1.38141
11
0.99435
21
1.38217
0
LINE
8
BLACK
6
CONTINUOUS
10
0.99435
20
1.38217
11
0.994087
21
1.38289
0
LINE
8
BLACK
6
CONTINUOUS
10
0.994087
20
1.38289
11
0.994087
21
1.39789
0
LINE
8
BLACK
6
CONTINUOUS
10
0.994087
20
1.39789
11
0.994265
21
1.3989
0
LINE
8
BLACK
6
CONTINUOUS
10
0.994265
20
1.3989
11
0.994379
21
1.39903
0
LINE
8
BLACK
6
CONTINUOUS
10
0.994379
20
1.39903
11
0.994399
21
1.39921
0
LINE
8
BLACK
6
CONTINUOUS
10
0.994399
20
1.39921
11
0.996274
21
1.40296
0
LINE
8
BLACK
6
CONTINUOUS
10
0.996274
20
1.40296
11
0.9968
21
1.40367
0
LINE
8
BLACK
6
CONTINUOUS
10
0.9968
20
1.40367
11
0.996827
21
1.40372
0
LINE
8
BLACK
6
CONTINUOUS
10
0.996827
20
1.40372
11
0.998702
21
1.4056
0
LINE
8
BLACK
6
CONTINUOUS
10
0.998702
20
1.4056
11
0.999425
21
1.4061
0
LINE
8
BLACK
6
CONTINUOUS
10
0.999425
20
1.4061
11
0.999469
21
1.40615
0
LINE
8
BLACK
6
CONTINUOUS
10
0.999469
20
1.40615
11
1.00322
21
1.40803
0
LINE
8
BLACK
6
CONTINUOUS
10
1.00322
20
1.40803
11
1.0042
21
1.40832
0
LINE
8
BLACK
6
CONTINUOUS
10
1.0042
20
1.40832
11
1.00437
21
1.40828
0
LINE
8
BLACK
6
CONTINUOUS
10
1.00437
20
1.40828
11
1.00454
21
1.40834
0
LINE
8
BLACK
6
CONTINUOUS
10
1.00454
20
1.40834
11
1.01016
21
1.40834
0
LINE
8
BLACK
6
CONTINUOUS
10
1.01016
20
1.40834
11
1.01117
21
1.40816
0
LINE
8
BLACK
6
CONTINUOUS
10
1.00254
20
1.40108
11
1.00134
21
1.39989
0
LINE
8
BLACK
6
CONTINUOUS
10
1.00134
20
1.39989
11
0.999993
21
1.39719
0
LINE
8
BLACK
6
CONTINUOUS
10
0.999993
20
1.39719
11
0.999993
21
1.38584
0
LINE
8
BLACK
6
CONTINUOUS
10
0.999993
20
1.38584
11
1.01471
21
1.38584
0
LINE
8
BLACK
6
CONTINUOUS
10
1.01471
20
1.38584
11
1.01471
21
1.39719
0
LINE
8
BLACK
6
CONTINUOUS
10
1.01471
20
1.39719
11
1.01336
21
1.39989
0
LINE
8
BLACK
6
CONTINUOUS
10
1.01336
20
1.39989
11
1.01216
21
1.40108
0
LINE
8
BLACK
6
CONTINUOUS
10
1.01216
20
1.40108
11
1.00947
21
1.40243
0
LINE
8
BLACK
6
CONTINUOUS
10
1.00947
20
1.40243
11
1.00524
21
1.40243
0
LINE
8
BLACK
6
CONTINUOUS
10
1.00524
20
1.40243
11
1.00254
21
1.40108
0
LINE
8
BLACK
6
CONTINUOUS
10
1.1185
20
1.44892
11
1.1199
21
1.44834
0
LINE
8
BLACK
6
CONTINUOUS
10
1.1199
20
1.44834
11
1.12047
21
1.44695
0
LINE
8
BLACK
6
CONTINUOUS
10
1.12047
20
1.44695
11
1.12047
21
1.34695
0
LINE
8
BLACK
6
CONTINUOUS
10
1.12047
20
1.34695
11
1.1199
21
1.34556
0
LINE
8
BLACK
6
CONTINUOUS
10
1.1199
20
1.34556
11
1.1185
21
1.34498
0
LINE
8
BLACK
6
CONTINUOUS
10
1.1185
20
1.34498
11
0.918504
21
1.34498
0
LINE
8
BLACK
6
CONTINUOUS
10
0.918504
20
1.34498
11
0.917112
21
1.34556
0
LINE
8
BLACK
6
CONTINUOUS
10
0.917112
20
1.34556
11
0.916535
21
1.34695
0
LINE
8
BLACK
6
CONTINUOUS
10
0.916535
20
1.34695
11
0.916535
21
1.34695
0
LINE
8
BLACK
6
CONTINUOUS
10
0.916535
20
1.34695
11
0.916535
21
1.39695
0
LINE
8
BLACK
6
CONTINUOUS
10
0.916535
20
1.39695
11
0.917112
21
1.39834
0
LINE
8
BLACK
6
CONTINUOUS
10
0.917112
20
1.39834
11
0.967112
21
1.44834
0
LINE
8
BLACK
6
CONTINUOUS
10
0.967112
20
1.44834
11
0.967112
21
1.44834
0
LINE
8
BLACK
6
CONTINUOUS
10
0.967112
20
1.44834
11
0.968504
21
1.44892
0
LINE
8
BLACK
6
CONTINUOUS
10
0.968504
20
1.44892
11
1.1185
21
1.44892
0
LINE
8
BLACK
6
CONTINUOUS
10
1.03832
20
1.44498
11
1.03867
21
1.44478
0
LINE
8
BLACK
6
CONTINUOUS
10
1.03867
20
1.44478
11
1.03936
21
1.44288
0
LINE
8
BLACK
6
CONTINUOUS
10
1.03936
20
1.44288
11
1.03936
21
1.42038
0
LINE
8
BLACK
6
CONTINUOUS
10
1.03936
20
1.42038
11
1.03918
21
1.41937
0
LINE
8
BLACK
6
CONTINUOUS
10
1.03918
20
1.41937
11
1.03789
21
1.41783
0
LINE
8
BLACK
6
CONTINUOUS
10
1.03789
20
1.41783
11
1.0359
21
1.41748
0
LINE
8
BLACK
6
CONTINUOUS
10
1.0359
20
1.41748
11
1.03415
21
1.41849
0
LINE
8
BLACK
6
CONTINUOUS
10
1.03415
20
1.41849
11
1.03346
21
1.42038
0
LINE
8
BLACK
6
CONTINUOUS
10
1.03346
20
1.42038
11
1.03346
21
1.42868
0
LINE
8
BLACK
6
CONTINUOUS
10
1.03346
20
1.42868
11
1.00604
21
1.42868
0
LINE
8
BLACK
6
CONTINUOUS
10
1.00604
20
1.42868
11
1.0085
21
1.42622
0
LINE
8
BLACK
6
CONTINUOUS
10
1.0085
20
1.42622
11
1.00901
21
1.4255
0
LINE
8
BLACK
6
CONTINUOUS
10
1.00901
20
1.4255
11
1.00905
21
1.42545
0
LINE
8
BLACK
6
CONTINUOUS
10
1.00905
20
1.42545
11
1.01093
21
1.4217
0
LINE
8
BLACK
6
CONTINUOUS
10
1.01093
20
1.4217
11
1.01122
21
1.42072
0
LINE
8
BLACK
6
CONTINUOUS
10
1.01122
20
1.42072
11
1.01075
21
1.41876
0
LINE
8
BLACK
6
CONTINUOUS
10
1.01075
20
1.41876
11
1.00913
21
1.41755
0
LINE
8
BLACK
6
CONTINUOUS
10
1.00913
20
1.41755
11
1.00711
21
1.41767
0
LINE
8
BLACK
6
CONTINUOUS
10
1.00711
20
1.41767
11
1.00565
21
1.41906
0
LINE
8
BLACK
6
CONTINUOUS
10
1.00565
20
1.41906
11
1.00399
21
1.42238
0
LINE
8
BLACK
6
CONTINUOUS
10
1.00399
20
1.42238
11
1.00078
21
1.42559
0
LINE
8
BLACK
6
CONTINUOUS
10
1.00078
20
1.42559
11
0.995402
21
1.42918
0
LINE
8
BLACK
6
CONTINUOUS
10
0.995402
20
1.42918
11
0.994661
21
1.42988
0
LINE
8
BLACK
6
CONTINUOUS
10
0.994661
20
1.42988
11
0.994613
21
1.43005
0
LINE
8
BLACK
6
CONTINUOUS
10
0.994613
20
1.43005
11
0.994483
21
1.43016
0
LINE
8
BLACK
6
CONTINUOUS
10
0.994483
20
1.43016
11
0.994334
21
1.431
0
LINE
8
BLACK
6
CONTINUOUS
10
0.994334
20
1.431
11
0.994093
21
1.43182
0
LINE
8
BLACK
6
CONTINUOUS
10
0.994093
20
1.43182
11
0.994162
21
1.43198
0
LINE
8
BLACK
6
CONTINUOUS
10
0.994162
20
1.43198
11
0.994132
21
1.43214
0
LINE
8
BLACK
6
CONTINUOUS
10
0.994132
20
1.43214
11
0.994561
21
1.43289
0
LINE
8
BLACK
6
CONTINUOUS
10
0.994561
20
1.43289
11
0.994905
21
1.43367
0
LINE
8
BLACK
6
CONTINUOUS
10
0.994905
20
1.43367
11
0.995057
21
1.43375
0
LINE
8
BLACK
6
CONTINUOUS
10
0.995057
20
1.43375
11
0.995142
21
1.43389
0
LINE
8
BLACK
6
CONTINUOUS
10
0.995142
20
1.43389
11
0.995947
21
1.43419
0
LINE
8
BLACK
6
CONTINUOUS
10
0.995947
20
1.43419
11
0.996716
21
1.43457
0
LINE
8
BLACK
6
CONTINUOUS
10
0.996716
20
1.43457
11
0.996881
21
1.43453
0
LINE
8
BLACK
6
CONTINUOUS
10
0.996881
20
1.43453
11
0.99704
21
1.43458
0
LINE
8
BLACK
6
CONTINUOUS
10
0.99704
20
1.43458
11
1.03346
21
1.43458
0
LINE
8
BLACK
6
CONTINUOUS
10
1.03346
20
1.43458
11
1.03346
21
1.44288
0
LINE
8
BLACK
6
CONTINUOUS
10
1.03346
20
1.44288
11
1.03364
21
1.44389
0
LINE
8
BLACK
6
CONTINUOUS
10
1.03364
20
1.44389
11
1.03455
21
1.44498
0
LINE
8
BLACK
6
CONTINUOUS
10
1.03455
20
1.44498
11
0.969319
21
1.44498
0
LINE
8
BLACK
6
CONTINUOUS
10
0.969319
20
1.44498
11
0.920472
21
1.39613
0
LINE
8
BLACK
6
CONTINUOUS
10
0.920472
20
1.39613
11
0.920472
21
1.34892
0
LINE
8
BLACK
6
CONTINUOUS
10
0.920472
20
1.34892
11
1.03354
21
1.34892
0
LINE
8
BLACK
6
CONTINUOUS
10
1.03354
20
1.34892
11
1.03346
21
1.34914
0
LINE
8
BLACK
6
CONTINUOUS
10
1.03346
20
1.34914
11
1.03346
21
1.35241
0
LINE
8
BLACK
6
CONTINUOUS
10
1.03346
20
1.35241
11
1.03195
21
1.35692
0
LINE
8
BLACK
6
CONTINUOUS
10
1.03195
20
1.35692
11
1.02919
21
1.35968
0
LINE
8
BLACK
6
CONTINUOUS
10
1.02919
20
1.35968
11
1.02468
21
1.36119
0
LINE
8
BLACK
6
CONTINUOUS
10
1.02468
20
1.36119
11
0.99704
21
1.36119
0
LINE
8
BLACK
6
CONTINUOUS
10
0.99704
20
1.36119
11
0.99603
21
1.36137
0
LINE
8
BLACK
6
CONTINUOUS
10
0.99603
20
1.36137
11
0.994483
21
1.36266
0
LINE
8
BLACK
6
CONTINUOUS
10
0.994483
20
1.36266
11
0.994132
21
1.36465
0
LINE
8
BLACK
6
CONTINUOUS
10
0.994132
20
1.36465
11
0.995142
21
1.3664
0
LINE
8
BLACK
6
CONTINUOUS
10
0.995142
20
1.3664
11
0.99704
21
1.36709
0
LINE
8
BLACK
6
CONTINUOUS
10
0.99704
20
1.36709
11
1.02516
21
1.36709
0
LINE
8
BLACK
6
CONTINUOUS
10
1.02516
20
1.36709
11
1.02603
21
1.36694
0
LINE
8
BLACK
6
CONTINUOUS
10
1.02603
20
1.36694
11
1.0261
21
1.36694
0
LINE
8
BLACK
6
CONTINUOUS
10
1.0261
20
1.36694
11
1.03172
21
1.36507
0
LINE
8
BLACK
6
CONTINUOUS
10
1.03172
20
1.36507
11
1.03262
21
1.36458
0
LINE
8
BLACK
6
CONTINUOUS
10
1.03262
20
1.36458
11
1.03271
21
1.36443
0
LINE
8
BLACK
6
CONTINUOUS
10
1.03271
20
1.36443
11
1.03287
21
1.36435
0
LINE
8
BLACK
6
CONTINUOUS
10
1.03287
20
1.36435
11
1.03662
21
1.3606
0
LINE
8
BLACK
6
CONTINUOUS
10
1.03662
20
1.3606
11
1.03721
21
1.35976
0
LINE
8
BLACK
6
CONTINUOUS
10
1.03721
20
1.35976
11
1.03723
21
1.35959
0
LINE
8
BLACK
6
CONTINUOUS
10
1.03723
20
1.35959
11
1.03734
21
1.35945
0
LINE
8
BLACK
6
CONTINUOUS
10
1.03734
20
1.35945
11
1.03921
21
1.35383
0
LINE
8
BLACK
6
CONTINUOUS
10
1.03921
20
1.35383
11
1.03934
21
1.35295
0
LINE
8
BLACK
6
CONTINUOUS
10
1.03934
20
1.35295
11
1.03936
21
1.35289
0
LINE
8
BLACK
6
CONTINUOUS
10
1.03936
20
1.35289
11
1.03936
21
1.34914
0
LINE
8
BLACK
6
CONTINUOUS
10
1.03936
20
1.34914
11
1.03932
21
1.34892
0
LINE
8
BLACK
6
CONTINUOUS
10
1.03932
20
1.34892
11
1.11654
21
1.34892
0
LINE
8
BLACK
6
CONTINUOUS
10
1.11654
20
1.34892
11
1.11654
21
1.44498
0
LINE
8
BLACK
6
CONTINUOUS
10
1.11654
20
1.44498
11
1.03832
21
1.44498
0
LINE
8
BLACK
6
CONTINUOUS
10
0.401425
20
1.62412
11
0.401489
21
1.62413
0
LINE
8
BLACK
6
CONTINUOUS
10
0.401489
20
1.62413
11
0.407113
21
1.62225
0
LINE
8
BLACK
6
CONTINUOUS
10
0.407113
20
1.62225
11
0.408015
21
1.62176
0
LINE
8
BLACK
6
CONTINUOUS
10
0.408015
20
1.62176
11
0.408107
21
1.62161
0
LINE
8
BLACK
6
CONTINUOUS
10
0.408107
20
1.62161
11
0.408267
21
1.62154
0
LINE
8
BLACK
6
CONTINUOUS
10
0.408267
20
1.62154
11
0.412017
21
1.61779
0
LINE
8
BLACK
6
CONTINUOUS
10
0.412017
20
1.61779
11
0.412605
21
1.61695
0
LINE
8
BLACK
6
CONTINUOUS
10
0.412605
20
1.61695
11
0.412621
21
1.61677
0
LINE
8
BLACK
6
CONTINUOUS
10
0.412621
20
1.61677
11
0.41273
21
1.61663
0
LINE
8
BLACK
6
CONTINUOUS
10
0.41273
20
1.61663
11
0.414605
21
1.61101
0
LINE
8
BLACK
6
CONTINUOUS
10
0.414605
20
1.61101
11
0.414735
21
1.61014
0
LINE
8
BLACK
6
CONTINUOUS
10
0.414735
20
1.61014
11
0.414757
21
1.61008
0
LINE
8
BLACK
6
CONTINUOUS
10
0.414757
20
1.61008
11
0.414757
21
1.60633
0
LINE
8
BLACK
6
CONTINUOUS
10
0.414757
20
1.60633
11
0.414579
21
1.60532
0
LINE
8
BLACK
6
CONTINUOUS
10
0.414579
20
1.60532
11
0.41328
21
1.60377
0
LINE
8
BLACK
6
CONTINUOUS
10
0.41328
20
1.60377
11
0.411291
21
1.60342
0
LINE
8
BLACK
6
CONTINUOUS
10
0.411291
20
1.60342
11
0.409542
21
1.60443
0
LINE
8
BLACK
6
CONTINUOUS
10
0.409542
20
1.60443
11
0.408851
21
1.60633
0
LINE
8
BLACK
6
CONTINUOUS
10
0.408851
20
1.60633
11
0.408851
21
1.6096
0
LINE
8
BLACK
6
CONTINUOUS
10
0.408851
20
1.6096
11
0.407348
21
1.61411
0
LINE
8
BLACK
6
CONTINUOUS
10
0.407348
20
1.61411
11
0.404585
21
1.61687
0
LINE
8
BLACK
6
CONTINUOUS
10
0.404585
20
1.61687
11
0.400076
21
1.61837
0
LINE
8
BLACK
6
CONTINUOUS
10
0.400076
20
1.61837
11
0.372434
21
1.61837
0
LINE
8
BLACK
6
CONTINUOUS
10
0.372434
20
1.61837
11
0.371424
21
1.61855
0
LINE
8
BLACK
6
CONTINUOUS
10
0.371424
20
1.61855
11
0.369877
21
1.61985
0
LINE
8
BLACK
6
CONTINUOUS
10
0.369877
20
1.61985
11
0.369526
21
1.62184
0
LINE
8
BLACK
6
CONTINUOUS
10
0.369526
20
1.62184
11
0.370536
21
1.62359
0
LINE
8
BLACK
6
CONTINUOUS
10
0.370536
20
1.62359
11
0.372434
21
1.62428
0
LINE
8
BLACK
6
CONTINUOUS
10
0.372434
20
1.62428
11
0.400555
21
1.62428
0
LINE
8
BLACK
6
CONTINUOUS
10
0.400555
20
1.62428
11
0.401425
21
1.62412
0
LINE
8
BLACK
6
CONTINUOUS
10
0.400942
20
1.66447
11
0.401633
21
1.66257
0
LINE
8
BLACK
6
CONTINUOUS
10
0.401633
20
1.66257
11
0.401633
21
1.6599
0
LINE
8
BLACK
6
CONTINUOUS
10
0.401633
20
1.6599
11
0.411804
21
1.6599
0
LINE
8
BLACK
6
CONTINUOUS
10
0.411804
20
1.6599
11
0.412814
21
1.65972
0
LINE
8
BLACK
6
CONTINUOUS
10
0.412814
20
1.65972
11
0.414361
21
1.65842
0
LINE
8
BLACK
6
CONTINUOUS
10
0.414361
20
1.65842
11
0.414712
21
1.65643
0
LINE
8
BLACK
6
CONTINUOUS
10
0.414712
20
1.65643
11
0.413702
21
1.65468
0
LINE
8
BLACK
6
CONTINUOUS
10
0.413702
20
1.65468
11
0.411804
21
1.65399
0
LINE
8
BLACK
6
CONTINUOUS
10
0.411804
20
1.65399
11
0.401633
21
1.65399
0
LINE
8
BLACK
6
CONTINUOUS
10
0.401633
20
1.65399
11
0.401633
21
1.6382
0
LINE
8
BLACK
6
CONTINUOUS
10
0.401633
20
1.6382
11
0.401455
21
1.63719
0
LINE
8
BLACK
6
CONTINUOUS
10
0.401455
20
1.63719
11
0.40131
21
1.63702
0
LINE
8
BLACK
6
CONTINUOUS
10
0.40131
20
1.63702
11
0.401277
21
1.63679
0
LINE
8
BLACK
6
CONTINUOUS
10
0.401277
20
1.63679
11
0.400675
21
1.63626
0
LINE
8
BLACK
6
CONTINUOUS
10
0.400675
20
1.63626
11
0.400157
21
1.63564
0
LINE
8
BLACK
6
CONTINUOUS
10
0.400157
20
1.63564
11
0.399935
21
1.6356
0
LINE
8
BLACK
6
CONTINUOUS
10
0.399935
20
1.6356
11
0.399766
21
1.63545
0
LINE
8
BLACK
6
CONTINUOUS
10
0.399766
20
1.63545
11
0.398961
21
1.63543
0
LINE
8
BLACK
6
CONTINUOUS
10
0.398961
20
1.63543
11
0.398168
21
1.63529
0
LINE
8
BLACK
6
CONTINUOUS
10
0.398168
20
1.63529
11
0.397972
21
1.6354
0
LINE
8
BLACK
6
CONTINUOUS
10
0.397972
20
1.6354
11
0.397747
21
1.6354
0
LINE
8
BLACK
6
CONTINUOUS
10
0.397747
20
1.6354
11
0.369625
21
1.64477
0
LINE
8
BLACK
6
CONTINUOUS
10
0.369625
20
1.64477
11
0.368724
21
1.64526
0
LINE
8
BLACK
6
CONTINUOUS
10
0.368724
20
1.64526
11
0.367666
21
1.64698
0
LINE
8
BLACK
6
CONTINUOUS
10
0.367666
20
1.64698
11
0.367963
21
1.64898
0
LINE
8
BLACK
6
CONTINUOUS
10
0.367963
20
1.64898
11
0.369474
21
1.65032
0
LINE
8
BLACK
6
CONTINUOUS
10
0.369474
20
1.65032
11
0.371493
21
1.65037
0
LINE
8
BLACK
6
CONTINUOUS
10
0.371493
20
1.65037
11
0.395728
21
1.6423
0
LINE
8
BLACK
6
CONTINUOUS
10
0.395728
20
1.6423
11
0.395728
21
1.65399
0
LINE
8
BLACK
6
CONTINUOUS
10
0.395728
20
1.65399
11
0.385557
21
1.65399
0
LINE
8
BLACK
6
CONTINUOUS
10
0.385557
20
1.65399
11
0.384547
21
1.65417
0
LINE
8
BLACK
6
CONTINUOUS
10
0.384547
20
1.65417
11
0.383
21
1.65547
0
LINE
8
BLACK
6
CONTINUOUS
10
0.383
20
1.65547
11
0.382649
21
1.65746
0
LINE
8
BLACK
6
CONTINUOUS
10
0.382649
20
1.65746
11
0.383659
21
1.65921
0
LINE
8
BLACK
6
CONTINUOUS
10
0.383659
20
1.65921
11
0.385557
21
1.6599
0
LINE
8
BLACK
6
CONTINUOUS
10
0.385557
20
1.6599
11
0.395728
21
1.6599
0
LINE
8
BLACK
6
CONTINUOUS
10
0.395728
20
1.6599
11
0.395728
21
1.66257
0
LINE
8
BLACK
6
CONTINUOUS
10
0.395728
20
1.66257
11
0.395906
21
1.66358
0
LINE
8
BLACK
6
CONTINUOUS
10
0.395906
20
1.66358
11
0.397204
21
1.66513
0
LINE
8
BLACK
6
CONTINUOUS
10
0.397204
20
1.66513
11
0.399193
21
1.66548
0
LINE
8
BLACK
6
CONTINUOUS
10
0.399193
20
1.66548
11
0.400942
21
1.66447
0
LINE
8
BLACK
6
CONTINUOUS
10
0.493898
20
1.78642
11
0.49529
21
1.78584
0
LINE
8
BLACK
6
CONTINUOUS
10
0.49529
20
1.78584
11
0.495866
21
1.78445
0
LINE
8
BLACK
6
CONTINUOUS
10
0.495866
20
1.78445
11
0.495866
21
1.53445
0
LINE
8
BLACK
6
CONTINUOUS
10
0.495866
20
1.53445
11
0.49529
21
1.53306
0
LINE
8
BLACK
6
CONTINUOUS
10
0.49529
20
1.53306
11
0.49529
21
1.53306
0
LINE
8
BLACK
6
CONTINUOUS
10
0.49529
20
1.53306
11
0.44529
21
1.48306
0
LINE
8
BLACK
6
CONTINUOUS
10
0.44529
20
1.48306
11
0.443898
21
1.48248
0
LINE
8
BLACK
6
CONTINUOUS
10
0.443898
20
1.48248
11
0.293898
21
1.48248
0
LINE
8
BLACK
6
CONTINUOUS
10
0.293898
20
1.48248
11
0.292506
21
1.48306
0
LINE
8
BLACK
6
CONTINUOUS
10
0.292506
20
1.48306
11
0.291929
21
1.48445
0
LINE
8
BLACK
6
CONTINUOUS
10
0.291929
20
1.48445
11
0.291929
21
1.78445
0
LINE
8
BLACK
6
CONTINUOUS
10
0.291929
20
1.78445
11
0.292506
21
1.78584
0
LINE
8
BLACK
6
CONTINUOUS
10
0.292506
20
1.78584
11
0.293898
21
1.78642
0
LINE
8
BLACK
6
CONTINUOUS
10
0.293898
20
1.78642
11
0.493898
21
1.78642
0
LINE
8
BLACK
6
CONTINUOUS
10
0.295866
20
1.78248
11
0.295866
21
1.48642
0
LINE
8
BLACK
6
CONTINUOUS
10
0.295866
20
1.48642
11
0.443082
21
1.48642
0
LINE
8
BLACK
6
CONTINUOUS
10
0.443082
20
1.48642
11
0.491929
21
1.53526
0
LINE
8
BLACK
6
CONTINUOUS
10
0.491929
20
1.53526
11
0.491929
21
1.78248
0
LINE
8
BLACK
6
CONTINUOUS
10
0.491929
20
1.78248
11
0.295866
21
1.78248
0
LINE
8
BLACK
6
CONTINUOUS
10
0.956792
20
1.52005
11
0.957158
21
1.52002
0
LINE
8
BLACK
6
CONTINUOUS
10
0.957158
20
1.52002
11
0.959033
21
1.51909
0
LINE
8
BLACK
6
CONTINUOUS
10
0.959033
20
1.51909
11
0.959203
21
1.51889
0
LINE
8
BLACK
6
CONTINUOUS
10
0.959203
20
1.51889
11
0.959442
21
1.51879
0
LINE
8
BLACK
6
CONTINUOUS
10
0.959442
20
1.51879
11
0.96038
21
1.51785
0
LINE
8
BLACK
6
CONTINUOUS
10
0.96038
20
1.51785
11
0.960479
21
1.51762
0
LINE
8
BLACK
6
CONTINUOUS
10
0.960479
20
1.51762
11
0.960675
21
1.51745
0
LINE
8
BLACK
6
CONTINUOUS
10
0.960675
20
1.51745
11
0.961612
21
1.51557
0
LINE
8
BLACK
6
CONTINUOUS
10
0.961612
20
1.51557
11
0.961638
21
1.51521
0
LINE
8
BLACK
6
CONTINUOUS
10
0.961638
20
1.51521
11
0.961778
21
1.51487
0
LINE
8
BLACK
6
CONTINUOUS
10
0.961778
20
1.51487
11
0.961778
21
1.51205
0
LINE
8
BLACK
6
CONTINUOUS
10
0.961778
20
1.51205
11
0.961638
21
1.51172
0
LINE
8
BLACK
6
CONTINUOUS
10
0.961638
20
1.51172
11
0.961612
21
1.51135
0
LINE
8
BLACK
6
CONTINUOUS
10
0.961612
20
1.51135
11
0.960675
21
1.50948
0
LINE
8
BLACK
6
CONTINUOUS
10
0.960675
20
1.50948
11
0.960479
21
1.50931
0
LINE
8
BLACK
6
CONTINUOUS
10
0.960479
20
1.50931
11
0.96038
21
1.50907
0
LINE
8
BLACK
6
CONTINUOUS
10
0.96038
20
1.50907
11
0.959442
21
1.50813
0
LINE
8
BLACK
6
CONTINUOUS
10
0.959442
20
1.50813
11
0.959203
21
1.50803
0
LINE
8
BLACK
6
CONTINUOUS
10
0.959203
20
1.50803
11
0.959033
21
1.50783
0
LINE
8
BLACK
6
CONTINUOUS
10
0.959033
20
1.50783
11
0.957158
21
1.5069
0
LINE
8
BLACK
6
CONTINUOUS
10
0.957158
20
1.5069
11
0.956792
21
1.50687
0
LINE
8
BLACK
6
CONTINUOUS
10
0.956792
20
1.50687
11
0.956619
21
1.5068
0
LINE
8
BLACK
6
CONTINUOUS
10
0.956619
20
1.5068
11
0.961494
21
1.49983
0
LINE
8
BLACK
6
CONTINUOUS
10
0.961494
20
1.49983
11
0.961754
21
1.49866
0
LINE
8
BLACK
6
CONTINUOUS
10
0.961754
20
1.49866
11
0.961106
21
1.49764
0
LINE
8
BLACK
6
CONTINUOUS
10
0.961106
20
1.49764
11
0.95993
21
1.49738
0
LINE
8
BLACK
6
CONTINUOUS
10
0.95993
20
1.49738
11
0.958913
21
1.49803
0
LINE
8
BLACK
6
CONTINUOUS
10
0.958913
20
1.49803
11
0.952822
21
1.50673
0
LINE
8
BLACK
6
CONTINUOUS
10
0.952822
20
1.50673
11
0.95053
21
1.50673
0
LINE
8
BLACK
6
CONTINUOUS
10
0.95053
20
1.50673
11
0.95053
21
1.49893
0
LINE
8
BLACK
6
CONTINUOUS
10
0.95053
20
1.49893
11
0.950068
21
1.49782
0
LINE
8
BLACK
6
CONTINUOUS
10
0.950068
20
1.49782
11
0.948955
21
1.49736
0
LINE
8
BLACK
6
CONTINUOUS
10
0.948955
20
1.49736
11
0.947841
21
1.49782
0
LINE
8
BLACK
6
CONTINUOUS
10
0.947841
20
1.49782
11
0.94738
21
1.49893
0
LINE
8
BLACK
6
CONTINUOUS
10
0.94738
20
1.49893
11
0.94738
21
1.51862
0
LINE
8
BLACK
6
CONTINUOUS
10
0.94738
20
1.51862
11
0.947841
21
1.51973
0
LINE
8
BLACK
6
CONTINUOUS
10
0.947841
20
1.51973
11
0.948955
21
1.52019
0
LINE
8
BLACK
6
CONTINUOUS
10
0.948955
20
1.52019
11
0.956454
21
1.52019
0
LINE
8
BLACK
6
CONTINUOUS
10
0.956454
20
1.52019
11
0.956792
21
1.52005
0
LINE
8
BLACK
6
CONTINUOUS
10
0.95053
20
1.50988
11
0.956082
21
1.50988
0
LINE
8
BLACK
6
CONTINUOUS
10
0.956082
20
1.50988
11
0.957396
21
1.51054
0
LINE
8
BLACK
6
CONTINUOUS
10
0.957396
20
1.51054
11
0.957972
21
1.51111
0
LINE
8
BLACK
6
CONTINUOUS
10
0.957972
20
1.51111
11
0.958629
21
1.51243
0
LINE
8
BLACK
6
CONTINUOUS
10
0.958629
20
1.51243
11
0.958629
21
1.51449
0
LINE
8
BLACK
6
CONTINUOUS
10
0.958629
20
1.51449
11
0.957972
21
1.51581
0
LINE
8
BLACK
6
CONTINUOUS
10
0.957972
20
1.51581
11
0.957396
21
1.51638
0
LINE
8
BLACK
6
CONTINUOUS
10
0.957396
20
1.51638
11
0.956082
21
1.51704
0
LINE
8
BLACK
6
CONTINUOUS
10
0.956082
20
1.51704
11
0.95053
21
1.51704
0
LINE
8
BLACK
6
CONTINUOUS
10
0.95053
20
1.51704
11
0.95053
21
1.50988
0
LINE
8
BLACK
6
CONTINUOUS
10
0.97554
20
1.52005
11
0.975906
21
1.52002
0
LINE
8
BLACK
6
CONTINUOUS
10
0.975906
20
1.52002
11
0.977781
21
1.51909
0
LINE
8
BLACK
6
CONTINUOUS
10
0.977781
20
1.51909
11
0.97795
21
1.51889
0
LINE
8
BLACK
6
CONTINUOUS
10
0.97795
20
1.51889
11
0.97819
21
1.51879
0
LINE
8
BLACK
6
CONTINUOUS
10
0.97819
20
1.51879
11
0.979127
21
1.51785
0
LINE
8
BLACK
6
CONTINUOUS
10
0.979127
20
1.51785
11
0.979226
21
1.51762
0
LINE
8
BLACK
6
CONTINUOUS
10
0.979226
20
1.51762
11
0.979422
21
1.51745
0
LINE
8
BLACK
6
CONTINUOUS
10
0.979422
20
1.51745
11
0.98036
21
1.51557
0
LINE
8
BLACK
6
CONTINUOUS
10
0.98036
20
1.51557
11
0.980386
21
1.51521
0
LINE
8
BLACK
6
CONTINUOUS
10
0.980386
20
1.51521
11
0.980526
21
1.51487
0
LINE
8
BLACK
6
CONTINUOUS
10
0.980526
20
1.51487
11
0.980526
21
1.51299
0
LINE
8
BLACK
6
CONTINUOUS
10
0.980526
20
1.51299
11
0.980427
21
1.51275
0
LINE
8
BLACK
6
CONTINUOUS
10
0.980427
20
1.51275
11
0.980445
21
1.51249
0
LINE
8
BLACK
6
CONTINUOUS
10
0.980445
20
1.51249
11
0.979508
21
1.50968
0
LINE
8
BLACK
6
CONTINUOUS
10
0.979508
20
1.50968
11
0.979268
21
1.5094
0
LINE
8
BLACK
6
CONTINUOUS
10
0.979268
20
1.5094
11
0.979127
21
1.50907
0
LINE
8
BLACK
6
CONTINUOUS
10
0.979127
20
1.50907
11
0.970567
21
1.50051
0
LINE
8
BLACK
6
CONTINUOUS
10
0.970567
20
1.50051
11
0.978951
21
1.50051
0
LINE
8
BLACK
6
CONTINUOUS
10
0.978951
20
1.50051
11
0.980065
21
1.50004
0
LINE
8
BLACK
6
CONTINUOUS
10
0.980065
20
1.50004
11
0.980526
21
1.49893
0
LINE
8
BLACK
6
CONTINUOUS
10
0.980526
20
1.49893
11
0.980065
21
1.49782
0
LINE
8
BLACK
6
CONTINUOUS
10
0.980065
20
1.49782
11
0.978951
21
1.49736
0
LINE
8
BLACK
6
CONTINUOUS
10
0.978951
20
1.49736
11
0.966765
21
1.49736
0
LINE
8
BLACK
6
CONTINUOUS
10
0.966765
20
1.49736
11
0.965652
21
1.49782
0
LINE
8
BLACK
6
CONTINUOUS
10
0.965652
20
1.49782
11
0.96519
21
1.49893
0
LINE
8
BLACK
6
CONTINUOUS
10
0.96519
20
1.49893
11
0.965652
21
1.50004
0
LINE
8
BLACK
6
CONTINUOUS
10
0.965652
20
1.50004
11
0.976637
21
1.51103
0
LINE
8
BLACK
6
CONTINUOUS
10
0.976637
20
1.51103
11
0.977376
21
1.51325
0
LINE
8
BLACK
6
CONTINUOUS
10
0.977376
20
1.51325
11
0.977376
21
1.51449
0
LINE
8
BLACK
6
CONTINUOUS
10
0.977376
20
1.51449
11
0.976719
21
1.51581
0
LINE
8
BLACK
6
CONTINUOUS
10
0.976719
20
1.51581
11
0.976143
21
1.51638
0
LINE
8
BLACK
6
CONTINUOUS
10
0.976143
20
1.51638
11
0.97483
21
1.51704
0
LINE
8
BLACK
6
CONTINUOUS
10
0.97483
20
1.51704
11
0.970886
21
1.51704
0
LINE
8
BLACK
6
CONTINUOUS
10
0.970886
20
1.51704
11
0.969573
21
1.51638
0
LINE
8
BLACK
6
CONTINUOUS
10
0.969573
20
1.51638
11
0.968816
21
1.51563
0
LINE
8
BLACK
6
CONTINUOUS
10
0.968816
20
1.51563
11
0.967702
21
1.51517
0
LINE
8
BLACK
6
CONTINUOUS
10
0.967702
20
1.51517
11
0.966589
21
1.51563
0
LINE
8
BLACK
6
CONTINUOUS
10
0.966589
20
1.51563
11
0.966128
21
1.51674
0
LINE
8
BLACK
6
CONTINUOUS
10
0.966128
20
1.51674
11
0.966589
21
1.51785
0
LINE
8
BLACK
6
CONTINUOUS
10
0.966589
20
1.51785
11
0.967526
21
1.51879
0
LINE
8
BLACK
6
CONTINUOUS
10
0.967526
20
1.51879
11
0.967766
21
1.51889
0
LINE
8
BLACK
6
CONTINUOUS
10
0.967766
20
1.51889
11
0.967936
21
1.51909
0
LINE
8
BLACK
6
CONTINUOUS
10
0.967936
20
1.51909
11
0.96981
21
1.52002
0
LINE
8
BLACK
6
CONTINUOUS
10
0.96981
20
1.52002
11
0.970176
21
1.52005
0
LINE
8
BLACK
6
CONTINUOUS
10
0.970176
20
1.52005
11
0.970515
21
1.52019
0
LINE
8
BLACK
6
CONTINUOUS
10
0.970515
20
1.52019
11
0.975202
21
1.52019
0
LINE
8
BLACK
6
CONTINUOUS
10
0.975202
20
1.52019
11
0.97554
21
1.52005
0
LINE
8
BLACK
6
CONTINUOUS
10
0.61737
20
1.64007
11
0.617434
21
1.64007
0
LINE
8
BLACK
6
CONTINUOUS
10
0.617434
20
1.64007
11
0.623058
21
1.6382
0
LINE
8
BLACK
6
CONTINUOUS
10
0.623058
20
1.6382
11
0.62396
21
1.63771
0
LINE
8
BLACK
6
CONTINUOUS
10
0.62396
20
1.63771
11
0.624052
21
1.63756
0
LINE
8
BLACK
6
CONTINUOUS
10
0.624052
20
1.63756
11
0.624212
21
1.63748
0
LINE
8
BLACK
6
CONTINUOUS
10
0.624212
20
1.63748
11
0.627962
21
1.63373
0
LINE
8
BLACK
6
CONTINUOUS
10
0.627962
20
1.63373
11
0.62855
21
1.63289
0
LINE
8
BLACK
6
CONTINUOUS
10
0.62855
20
1.63289
11
0.628566
21
1.63272
0
LINE
8
BLACK
6
CONTINUOUS
10
0.628566
20
1.63272
11
0.628675
21
1.63258
0
LINE
8
BLACK
6
CONTINUOUS
10
0.628675
20
1.63258
11
0.63055
21
1.62696
0
LINE
8
BLACK
6
CONTINUOUS
10
0.63055
20
1.62696
11
0.630679
21
1.62608
0
LINE
8
BLACK
6
CONTINUOUS
10
0.630679
20
1.62608
11
0.630702
21
1.62602
0
LINE
8
BLACK
6
CONTINUOUS
10
0.630702
20
1.62602
11
0.630702
21
1.62227
0
LINE
8
BLACK
6
CONTINUOUS
10
0.630702
20
1.62227
11
0.630523
21
1.62126
0
LINE
8
BLACK
6
CONTINUOUS
10
0.630523
20
1.62126
11
0.629225
21
1.61972
0
LINE
8
BLACK
6
CONTINUOUS
10
0.629225
20
1.61972
11
0.627236
21
1.61936
0
LINE
8
BLACK
6
CONTINUOUS
10
0.627236
20
1.61936
11
0.625487
21
1.62037
0
LINE
8
BLACK
6
CONTINUOUS
10
0.625487
20
1.62037
11
0.624796
21
1.62227
0
LINE
8
BLACK
6
CONTINUOUS
10
0.624796
20
1.62227
11
0.624796
21
1.62554
0
LINE
8
BLACK
6
CONTINUOUS
10
0.624796
20
1.62554
11
0.623293
21
1.63005
0
LINE
8
BLACK
6
CONTINUOUS
10
0.623293
20
1.63005
11
0.620529
21
1.63281
0
LINE
8
BLACK
6
CONTINUOUS
10
0.620529
20
1.63281
11
0.616021
21
1.63432
0
LINE
8
BLACK
6
CONTINUOUS
10
0.616021
20
1.63432
11
0.588379
21
1.63432
0
LINE
8
BLACK
6
CONTINUOUS
10
0.588379
20
1.63432
11
0.587369
21
1.6345
0
LINE
8
BLACK
6
CONTINUOUS
10
0.587369
20
1.6345
11
0.585822
21
1.63579
0
LINE
8
BLACK
6
CONTINUOUS
10
0.585822
20
1.63579
11
0.585471
21
1.63778
0
LINE
8
BLACK
6
CONTINUOUS
10
0.585471
20
1.63778
11
0.586481
21
1.63953
0
LINE
8
BLACK
6
CONTINUOUS
10
0.586481
20
1.63953
11
0.588379
21
1.64022
0
LINE
8
BLACK
6
CONTINUOUS
10
0.588379
20
1.64022
11
0.6165
21
1.64022
0
LINE
8
BLACK
6
CONTINUOUS
10
0.6165
20
1.64022
11
0.61737
21
1.64007
0
LINE
8
BLACK
6
CONTINUOUS
10
0.602512
20
1.68129
11
0.602647
21
1.68118
0
LINE
8
BLACK
6
CONTINUOUS
10
0.602647
20
1.68118
11
0.602823
21
1.68116
0
LINE
8
BLACK
6
CONTINUOUS
10
0.602823
20
1.68116
11
0.606572
21
1.67928
0
LINE
8
BLACK
6
CONTINUOUS
10
0.606572
20
1.67928
11
0.607281
21
1.67876
0
LINE
8
BLACK
6
CONTINUOUS
10
0.607281
20
1.67876
11
0.607339
21
1.67873
0
LINE
8
BLACK
6
CONTINUOUS
10
0.607339
20
1.67873
11
0.609214
21
1.67685
0
LINE
8
BLACK
6
CONTINUOUS
10
0.609214
20
1.67685
11
0.609721
21
1.67613
0
LINE
8
BLACK
6
CONTINUOUS
10
0.609721
20
1.67613
11
0.609767
21
1.67609
0
LINE
8
BLACK
6
CONTINUOUS
10
0.609767
20
1.67609
11
0.611642
21
1.67234
0
LINE
8
BLACK
6
CONTINUOUS
10
0.611642
20
1.67234
11
0.611934
21
1.67135
0
LINE
8
BLACK
6
CONTINUOUS
10
0.611934
20
1.67135
11
0.611893
21
1.67118
0
LINE
8
BLACK
6
CONTINUOUS
10
0.611893
20
1.67118
11
0.611954
21
1.67102
0
LINE
8
BLACK
6
CONTINUOUS
10
0.611954
20
1.67102
11
0.611954
21
1.65897
0
LINE
8
BLACK
6
CONTINUOUS
10
0.611954
20
1.65897
11
0.627749
21
1.65897
0
LINE
8
BLACK
6
CONTINUOUS
10
0.627749
20
1.65897
11
0.628759
21
1.65879
0
LINE
8
BLACK
6
CONTINUOUS
10
0.628759
20
1.65879
11
0.630306
21
1.65749
0
LINE
8
BLACK
6
CONTINUOUS
10
0.630306
20
1.65749
11
0.630657
21
1.65551
0
LINE
8
BLACK
6
CONTINUOUS
10
0.630657
20
1.65551
11
0.629647
21
1.65376
0
LINE
8
BLACK
6
CONTINUOUS
10
0.629647
20
1.65376
11
0.627749
21
1.65307
0
LINE
8
BLACK
6
CONTINUOUS
10
0.627749
20
1.65307
11
0.588379
21
1.65307
0
LINE
8
BLACK
6
CONTINUOUS
10
0.588379
20
1.65307
11
0.587995
21
1.65313
0
LINE
8
BLACK
6
CONTINUOUS
10
0.587995
20
1.65313
11
0.587866
21
1.65311
0
LINE
8
BLACK
6
CONTINUOUS
10
0.587866
20
1.65311
11
0.587752
21
1.65318
0
LINE
8
BLACK
6
CONTINUOUS
10
0.587752
20
1.65318
11
0.587369
21
1.65324
0
LINE
8
BLACK
6
CONTINUOUS
10
0.587369
20
1.65324
11
0.586781
21
1.65374
0
LINE
8
BLACK
6
CONTINUOUS
10
0.586781
20
1.65374
11
0.586117
21
1.65412
0
LINE
8
BLACK
6
CONTINUOUS
10
0.586117
20
1.65412
11
0.586026
21
1.65437
0
LINE
8
BLACK
6
CONTINUOUS
10
0.586026
20
1.65437
11
0.585822
21
1.65454
0
LINE
8
BLACK
6
CONTINUOUS
10
0.585822
20
1.65454
11
0.585688
21
1.6553
0
LINE
8
BLACK
6
CONTINUOUS
10
0.585688
20
1.6553
11
0.585426
21
1.65602
0
LINE
8
BLACK
6
CONTINUOUS
10
0.585426
20
1.65602
11
0.585426
21
1.67102
0
LINE
8
BLACK
6
CONTINUOUS
10
0.585426
20
1.67102
11
0.585604
21
1.67203
0
LINE
8
BLACK
6
CONTINUOUS
10
0.585604
20
1.67203
11
0.585717
21
1.67216
0
LINE
8
BLACK
6
CONTINUOUS
10
0.585717
20
1.67216
11
0.585738
21
1.67234
0
LINE
8
BLACK
6
CONTINUOUS
10
0.585738
20
1.67234
11
0.587612
21
1.67609
0
LINE
8
BLACK
6
CONTINUOUS
10
0.587612
20
1.67609
11
0.588138
21
1.6768
0
LINE
8
BLACK
6
CONTINUOUS
10
0.588138
20
1.6768
11
0.588166
21
1.67685
0
LINE
8
BLACK
6
CONTINUOUS
10
0.588166
20
1.67685
11
0.59004
21
1.67873
0
LINE
8
BLACK
6
CONTINUOUS
10
0.59004
20
1.67873
11
0.590763
21
1.67923
0
LINE
8
BLACK
6
CONTINUOUS
10
0.590763
20
1.67923
11
0.590808
21
1.67928
0
LINE
8
BLACK
6
CONTINUOUS
10
0.590808
20
1.67928
11
0.594557
21
1.68116
0
LINE
8
BLACK
6
CONTINUOUS
10
0.594557
20
1.68116
11
0.59554
21
1.68145
0
LINE
8
BLACK
6
CONTINUOUS
10
0.59554
20
1.68145
11
0.595712
21
1.68141
0
LINE
8
BLACK
6
CONTINUOUS
10
0.595712
20
1.68141
11
0.595878
21
1.68147
0
LINE
8
BLACK
6
CONTINUOUS
10
0.595878
20
1.68147
11
0.601502
21
1.68147
0
LINE
8
BLACK
6
CONTINUOUS
10
0.601502
20
1.68147
11
0.602512
21
1.68129
0
LINE
8
BLACK
6
CONTINUOUS
10
0.593877
20
1.67421
11
0.59268
21
1.67302
0
LINE
8
BLACK
6
CONTINUOUS
10
0.59268
20
1.67302
11
0.591331
21
1.67032
0
LINE
8
BLACK
6
CONTINUOUS
10
0.591331
20
1.67032
11
0.591331
21
1.65897
0
LINE
8
BLACK
6
CONTINUOUS
10
0.591331
20
1.65897
11
0.606048
21
1.65897
0
LINE
8
BLACK
6
CONTINUOUS
10
0.606048
20
1.65897
11
0.606048
21
1.67032
0
LINE
8
BLACK
6
CONTINUOUS
10
0.606048
20
1.67032
11
0.6047
21
1.67302
0
LINE
8
BLACK
6
CONTINUOUS
10
0.6047
20
1.67302
11
0.603502
21
1.67421
0
LINE
8
BLACK
6
CONTINUOUS
10
0.603502
20
1.67421
11
0.600805
21
1.67556
0
LINE
8
BLACK
6
CONTINUOUS
10
0.600805
20
1.67556
11
0.596575
21
1.67556
0
LINE
8
BLACK
6
CONTINUOUS
10
0.596575
20
1.67556
11
0.593877
21
1.67421
0
LINE
8
BLACK
6
CONTINUOUS
10
0.62126
20
1.71879
11
0.621395
21
1.71867
0
LINE
8
BLACK
6
CONTINUOUS
10
0.621395
20
1.71867
11
0.62157
21
1.71865
0
LINE
8
BLACK
6
CONTINUOUS
10
0.62157
20
1.71865
11
0.62532
21
1.71678
0
LINE
8
BLACK
6
CONTINUOUS
10
0.62532
20
1.71678
11
0.626029
21
1.71625
0
LINE
8
BLACK
6
CONTINUOUS
10
0.626029
20
1.71625
11
0.626087
21
1.71622
0
LINE
8
BLACK
6
CONTINUOUS
10
0.626087
20
1.71622
11
0.627962
21
1.71435
0
LINE
8
BLACK
6
CONTINUOUS
10
0.627962
20
1.71435
11
0.628468
21
1.71363
0
LINE
8
BLACK
6
CONTINUOUS
10
0.628468
20
1.71363
11
0.628515
21
1.71358
0
LINE
8
BLACK
6
CONTINUOUS
10
0.628515
20
1.71358
11
0.63039
21
1.70983
0
LINE
8
BLACK
6
CONTINUOUS
10
0.63039
20
1.70983
11
0.630682
21
1.70885
0
LINE
8
BLACK
6
CONTINUOUS
10
0.630682
20
1.70885
11
0.630641
21
1.70868
0
LINE
8
BLACK
6
CONTINUOUS
10
0.630641
20
1.70868
11
0.630702
21
1.70851
0
LINE
8
BLACK
6
CONTINUOUS
10
0.630702
20
1.70851
11
0.630702
21
1.69726
0
LINE
8
BLACK
6
CONTINUOUS
10
0.630702
20
1.69726
11
0.630523
21
1.69625
0
LINE
8
BLACK
6
CONTINUOUS
10
0.630523
20
1.69625
11
0.63041
21
1.69612
0
LINE
8
BLACK
6
CONTINUOUS
10
0.63041
20
1.69612
11
0.63039
21
1.69594
0
LINE
8
BLACK
6
CONTINUOUS
10
0.63039
20
1.69594
11
0.628515
21
1.69219
0
LINE
8
BLACK
6
CONTINUOUS
10
0.628515
20
1.69219
11
0.627989
21
1.69148
0
LINE
8
BLACK
6
CONTINUOUS
10
0.627989
20
1.69148
11
0.627962
21
1.69143
0
LINE
8
BLACK
6
CONTINUOUS
10
0.627962
20
1.69143
11
0.626087
21
1.68955
0
LINE
8
BLACK
6
CONTINUOUS
10
0.626087
20
1.68955
11
0.625247
21
1.68896
0
LINE
8
BLACK
6
CONTINUOUS
10
0.625247
20
1.68896
11
0.623235
21
1.68879
0
LINE
8
BLACK
6
CONTINUOUS
10
0.623235
20
1.68879
11
0.62158
21
1.68994
0
LINE
8
BLACK
6
CONTINUOUS
10
0.62158
20
1.68994
11
0.621058
21
1.6919
0
LINE
8
BLACK
6
CONTINUOUS
10
0.621058
20
1.6919
11
0.621911
21
1.69373
0
LINE
8
BLACK
6
CONTINUOUS
10
0.621911
20
1.69373
11
0.623447
21
1.69526
0
LINE
8
BLACK
6
CONTINUOUS
10
0.623447
20
1.69526
11
0.624796
21
1.69796
0
LINE
8
BLACK
6
CONTINUOUS
10
0.624796
20
1.69796
11
0.624796
21
1.70781
0
LINE
8
BLACK
6
CONTINUOUS
10
0.624796
20
1.70781
11
0.623447
21
1.71051
0
LINE
8
BLACK
6
CONTINUOUS
10
0.623447
20
1.71051
11
0.62225
21
1.71171
0
LINE
8
BLACK
6
CONTINUOUS
10
0.62225
20
1.71171
11
0.619553
21
1.71306
0
LINE
8
BLACK
6
CONTINUOUS
10
0.619553
20
1.71306
11
0.611573
21
1.71306
0
LINE
8
BLACK
6
CONTINUOUS
10
0.611573
20
1.71306
11
0.608875
21
1.71171
0
LINE
8
BLACK
6
CONTINUOUS
10
0.608875
20
1.71171
11
0.607678
21
1.71051
0
LINE
8
BLACK
6
CONTINUOUS
10
0.607678
20
1.71051
11
0.60633
21
1.70781
0
LINE
8
BLACK
6
CONTINUOUS
10
0.60633
20
1.70781
11
0.60633
21
1.70289
0
LINE
8
BLACK
6
CONTINUOUS
10
0.60633
20
1.70289
11
0.606252
21
1.70245
0
LINE
8
BLACK
6
CONTINUOUS
10
0.606252
20
1.70245
11
0.606273
21
1.70231
0
LINE
8
BLACK
6
CONTINUOUS
10
0.606273
20
1.70231
11
0.60621
21
1.70221
0
LINE
8
BLACK
6
CONTINUOUS
10
0.60621
20
1.70221
11
0.606151
21
1.70188
0
LINE
8
BLACK
6
CONTINUOUS
10
0.606151
20
1.70188
11
0.60564
21
1.70127
0
LINE
8
BLACK
6
CONTINUOUS
10
0.60564
20
1.70127
11
0.605228
21
1.70059
0
LINE
8
BLACK
6
CONTINUOUS
10
0.605228
20
1.70059
11
0.605005
21
1.70051
0
LINE
8
BLACK
6
CONTINUOUS
10
0.605005
20
1.70051
11
0.604853
21
1.70033
0
LINE
8
BLACK
6
CONTINUOUS
10
0.604853
20
1.70033
11
0.604069
21
1.70019
0
LINE
8
BLACK
6
CONTINUOUS
10
0.604069
20
1.70019
11
0.603316
21
1.69994
0
LINE
8
BLACK
6
CONTINUOUS
10
0.603316
20
1.69994
11
0.603096
21
1.70002
0
LINE
8
BLACK
6
CONTINUOUS
10
0.603096
20
1.70002
11
0.602864
21
1.69998
0
LINE
8
BLACK
6
CONTINUOUS
10
0.602864
20
1.69998
11
0.602175
21
1.70038
0
LINE
8
BLACK
6
CONTINUOUS
10
0.602175
20
1.70038
11
0.601432
21
1.70066
0
LINE
8
BLACK
6
CONTINUOUS
10
0.601432
20
1.70066
11
0.591331
21
1.7095
0
LINE
8
BLACK
6
CONTINUOUS
10
0.591331
20
1.7095
11
0.591331
21
1.69164
0
LINE
8
BLACK
6
CONTINUOUS
10
0.591331
20
1.69164
11
0.591153
21
1.69063
0
LINE
8
BLACK
6
CONTINUOUS
10
0.591153
20
1.69063
11
0.589855
21
1.68908
0
LINE
8
BLACK
6
CONTINUOUS
10
0.589855
20
1.68908
11
0.587866
21
1.68873
0
LINE
8
BLACK
6
CONTINUOUS
10
0.587866
20
1.68873
11
0.586117
21
1.68974
0
LINE
8
BLACK
6
CONTINUOUS
10
0.586117
20
1.68974
11
0.585426
21
1.69164
0
LINE
8
BLACK
6
CONTINUOUS
10
0.585426
20
1.69164
11
0.585426
21
1.71601
0
LINE
8
BLACK
6
CONTINUOUS
10
0.585426
20
1.71601
11
0.585503
21
1.71645
0
LINE
8
BLACK
6
CONTINUOUS
10
0.585503
20
1.71645
11
0.585482
21
1.71658
0
LINE
8
BLACK
6
CONTINUOUS
10
0.585482
20
1.71658
11
0.585545
21
1.71669
0
LINE
8
BLACK
6
CONTINUOUS
10
0.585545
20
1.71669
11
0.585604
21
1.71702
0
LINE
8
BLACK
6
CONTINUOUS
10
0.585604
20
1.71702
11
0.586116
21
1.71763
0
LINE
8
BLACK
6
CONTINUOUS
10
0.586116
20
1.71763
11
0.586528
21
1.71831
0
LINE
8
BLACK
6
CONTINUOUS
10
0.586528
20
1.71831
11
0.586751
21
1.71839
0
LINE
8
BLACK
6
CONTINUOUS
10
0.586751
20
1.71839
11
0.586902
21
1.71857
0
LINE
8
BLACK
6
CONTINUOUS
10
0.586902
20
1.71857
11
0.587686
21
1.71871
0
LINE
8
BLACK
6
CONTINUOUS
10
0.587686
20
1.71871
11
0.58844
21
1.71896
0
LINE
8
BLACK
6
CONTINUOUS
10
0.58844
20
1.71896
11
0.588659
21
1.71888
0
LINE
8
BLACK
6
CONTINUOUS
10
0.588659
20
1.71888
11
0.588891
21
1.71892
0
LINE
8
BLACK
6
CONTINUOUS
10
0.588891
20
1.71892
11
0.589581
21
1.71852
0
LINE
8
BLACK
6
CONTINUOUS
10
0.589581
20
1.71852
11
0.590323
21
1.71823
0
LINE
8
BLACK
6
CONTINUOUS
10
0.590323
20
1.71823
11
0.600559
21
1.70928
0
LINE
8
BLACK
6
CONTINUOUS
10
0.600559
20
1.70928
11
0.600602
21
1.70952
0
LINE
8
BLACK
6
CONTINUOUS
10
0.600602
20
1.70952
11
0.600716
21
1.70966
0
LINE
8
BLACK
6
CONTINUOUS
10
0.600716
20
1.70966
11
0.600736
21
1.70983
0
LINE
8
BLACK
6
CONTINUOUS
10
0.600736
20
1.70983
11
0.602611
21
1.71358
0
LINE
8
BLACK
6
CONTINUOUS
10
0.602611
20
1.71358
11
0.603136
21
1.71429
0
LINE
8
BLACK
6
CONTINUOUS
10
0.603136
20
1.71429
11
0.603164
21
1.71435
0
LINE
8
BLACK
6
CONTINUOUS
10
0.603164
20
1.71435
11
0.605038
21
1.71622
0
LINE
8
BLACK
6
CONTINUOUS
10
0.605038
20
1.71622
11
0.605761
21
1.71673
0
LINE
8
BLACK
6
CONTINUOUS
10
0.605761
20
1.71673
11
0.605806
21
1.71678
0
LINE
8
BLACK
6
CONTINUOUS
10
0.605806
20
1.71678
11
0.609555
21
1.71865
0
LINE
8
BLACK
6
CONTINUOUS
10
0.609555
20
1.71865
11
0.610538
21
1.71894
0
LINE
8
BLACK
6
CONTINUOUS
10
0.610538
20
1.71894
11
0.61071
21
1.7189
0
LINE
8
BLACK
6
CONTINUOUS
10
0.61071
20
1.7189
11
0.610876
21
1.71896
0
LINE
8
BLACK
6
CONTINUOUS
10
0.610876
20
1.71896
11
0.62025
21
1.71896
0
LINE
8
BLACK
6
CONTINUOUS
10
0.62025
20
1.71896
11
0.62126
21
1.71879
0
LINE
8
BLACK
6
CONTINUOUS
10
0.659843
20
1.82205
11
0.661234
21
1.82147
0
LINE
8
BLACK
6
CONTINUOUS
10
0.661234
20
1.82147
11
0.661811
21
1.82008
0
LINE
8
BLACK
6
CONTINUOUS
10
0.661811
20
1.82008
11
0.661811
21
1.54508
0
LINE
8
BLACK
6
CONTINUOUS
10
0.661811
20
1.54508
11
0.661234
21
1.54369
0
LINE
8
BLACK
6
CONTINUOUS
10
0.661234
20
1.54369
11
0.636234
21
1.51869
0
LINE
8
BLACK
6
CONTINUOUS
10
0.636234
20
1.51869
11
0.634843
21
1.51811
0
LINE
8
BLACK
6
CONTINUOUS
10
0.634843
20
1.51811
11
0.559843
21
1.51811
0
LINE
8
BLACK
6
CONTINUOUS
10
0.559843
20
1.51811
11
0.558451
21
1.51869
0
LINE
8
BLACK
6
CONTINUOUS
10
0.558451
20
1.51869
11
0.557874
21
1.52008
0
LINE
8
BLACK
6
CONTINUOUS
10
0.557874
20
1.52008
11
0.557874
21
1.52008
0
LINE
8
BLACK
6
CONTINUOUS
10
0.557874
20
1.52008
11
0.557874
21
1.82008
0
LINE
8
BLACK
6
CONTINUOUS
10
0.557874
20
1.82008
11
0.558451
21
1.82147
0
LINE
8
BLACK
6
CONTINUOUS
10
0.558451
20
1.82147
11
0.559843
21
1.82205
0
LINE
8
BLACK
6
CONTINUOUS
10
0.559843
20
1.82205
11
0.659843
21
1.82205
0
LINE
8
BLACK
6
CONTINUOUS
10
0.561811
20
1.81811
11
0.561811
21
1.52205
0
LINE
8
BLACK
6
CONTINUOUS
10
0.561811
20
1.52205
11
0.634027
21
1.52205
0
LINE
8
BLACK
6
CONTINUOUS
10
0.634027
20
1.52205
11
0.657874
21
1.54589
0
LINE
8
BLACK
6
CONTINUOUS
10
0.657874
20
1.54589
11
0.657874
21
1.81811
0
LINE
8
BLACK
6
CONTINUOUS
10
0.657874
20
1.81811
11
0.561811
21
1.81811
0
LINE
8
BLACK
6
CONTINUOUS
10
0.414063
20
2.12481
11
0.427949
21
2.12245
0
LINE
8
BLACK
6
CONTINUOUS
10
0.427949
20
2.12245
11
0.441483
21
2.11855
0
LINE
8
BLACK
6
CONTINUOUS
10
0.441483
20
2.11855
11
0.454496
21
2.11316
0
LINE
8
BLACK
6
CONTINUOUS
10
0.454496
20
2.11316
11
0.466823
21
2.10635
0
LINE
8
BLACK
6
CONTINUOUS
10
0.466823
20
2.10635
11
0.47831
21
2.0982
0
LINE
8
BLACK
6
CONTINUOUS
10
0.47831
20
2.0982
11
0.488813
21
2.08881
0
LINE
8
BLACK
6
CONTINUOUS
10
0.488813
20
2.08881
11
0.498198
21
2.07831
0
LINE
8
BLACK
6
CONTINUOUS
10
0.498198
20
2.07831
11
0.506349
21
2.06682
0
LINE
8
BLACK
6
CONTINUOUS
10
0.506349
20
2.06682
11
0.513162
21
2.0545
0
LINE
8
BLACK
6
CONTINUOUS
10
0.513162
20
2.0545
11
0.518552
21
2.04148
0
LINE
8
BLACK
6
CONTINUOUS
10
0.518552
20
2.04148
11
0.522451
21
2.02795
0
LINE
8
BLACK
6
CONTINUOUS
10
0.522451
20
2.02795
11
0.52481
21
2.01406
0
LINE
8
BLACK
6
CONTINUOUS
10
0.52481
20
2.01406
11
0.5256
21
2
0
LINE
8
BLACK
6
CONTINUOUS
10
0.5256
20
2
11
0.52481
21
1.98594
0
LINE
8
BLACK
6
CONTINUOUS
10
0.52481
20
1.98594
11
0.522451
21
1.97205
0
LINE
8
BLACK
6
CONTINUOUS
10
0.522451
20
1.97205
11
0.518552
21
1.95852
0
LINE
8
BLACK
6
CONTINUOUS
10
0.518552
20
1.95852
11
0.513162
21
1.9455
0
LINE
8
BLACK
6
CONTINUOUS
10
0.513162
20
1.9455
11
0.506349
21
1.93318
0
LINE
8
BLACK
6
CONTINUOUS
10
0.506349
20
1.93318
11
0.498198
21
1.92169
0
LINE
8
BLACK
6
CONTINUOUS
10
0.498198
20
1.92169
11
0.488813
21
1.91119
0
LINE
8
BLACK
6
CONTINUOUS
10
0.488813
20
1.91119
11
0.47831
21
1.9018
0
LINE
8
BLACK
6
CONTINUOUS
10
0.47831
20
1.9018
11
0.466823
21
1.89365
0
LINE
8
BLACK
6
CONTINUOUS
10
0.466823
20
1.89365
11
0.454496
21
1.88684
0
LINE
8
BLACK
6
CONTINUOUS
10
0.454496
20
1.88684
11
0.441483
21
1.88145
0
LINE
8
BLACK
6
CONTINUOUS
10
0.441483
20
1.88145
11
0.427949
21
1.87755
0
LINE
8
BLACK
6
CONTINUOUS
10
0.427949
20
1.87755
11
0.414063
21
1.87519
0
LINE
8
BLACK
6
CONTINUOUS
10
0.414063
20
1.87519
11
0.4
21
1.8744
0
LINE
8
BLACK
6
CONTINUOUS
10
0.4
20
1.8744
11
0.385937
21
1.87519
0
LINE
8
BLACK
6
CONTINUOUS
10
0.385937
20
1.87519
11
0.372051
21
1.87755
0
LINE
8
BLACK
6
CONTINUOUS
10
0.372051
20
1.87755
11
0.358517
21
1.88145
0
LINE
8
BLACK
6
CONTINUOUS
10
0.358517
20
1.88145
11
0.345504
21
1.88684
0
LINE
8
BLACK
6
CONTINUOUS
10
0.345504
20
1.88684
11
0.333177
21
1.89365
0
LINE
8
BLACK
6
CONTINUOUS
10
0.333177
20
1.89365
11
0.32169
21
1.9018
0
LINE
8
BLACK
6
CONTINUOUS
10
0.32169
20
1.9018
11
0.311187
21
1.91119
0
LINE
8
BLACK
6
CONTINUOUS
10
0.311187
20
1.91119
11
0.301802
21
1.92169
0
LINE
8
BLACK
6
CONTINUOUS
10
0.301802
20
1.92169
11
0.293651
21
1.93318
0
LINE
8
BLACK
6
CONTINUOUS
10
0.293651
20
1.93318
11
0.286838
21
1.9455
0
LINE
8
BLACK
6
CONTINUOUS
10
0.286838
20
1.9455
11
0.281448
21
1.95852
0
LINE
8
BLACK
6
CONTINUOUS
10
0.281448
20
1.95852
11
0.277549
21
1.97205
0
LINE
8
BLACK
6
CONTINUOUS
10
0.277549
20
1.97205
11
0.27519
21
1.98594
0
LINE
8
BLACK
6
CONTINUOUS
10
0.27519
20
1.98594
11
0.2744
21
2
0
LINE
8
BLACK
6
CONTINUOUS
10
0.2744
20
2
11
0.27519
21
2.01406
0
LINE
8
BLACK
6
CONTINUOUS
10
0.27519
20
2.01406
11
0.277549
21
2.02795
0
LINE
8
BLACK
6
CONTINUOUS
10
0.277549
20
2.02795
11
0.281448
21
2.04148
0
LINE
8
BLACK
6
CONTINUOUS
10
0.281448
20
2.04148
11
0.286838
21
2.0545
0
LINE
8
BLACK
6
CONTINUOUS
10
0.286838
20
2.0545
11
0.293651
21
2.06682
0
LINE
8
BLACK
6
CONTINUOUS
10
0.293651
20
2.06682
11
0.301802
21
2.07831
0
LINE
8
BLACK
6
CONTINUOUS
10
0.301802
20
2.07831
11
0.311187
21
2.08881
0
LINE
8
BLACK
6
CONTINUOUS
10
0.311187
20
2.08881
11
0.32169
21
2.0982
0
LINE
8
BLACK
6
CONTINUOUS
10
0.32169
20
2.0982
11
0.333177
21
2.10635
0
LINE
8
BLACK
6
CONTINUOUS
10
0.333177
20
2.10635
11
0.345504
21
2.11316
0
LINE
8
BLACK
6
CONTINUOUS
10
0.345504
20
2.11316
11
0.358517
21
2.11855
0
LINE
8
BLACK
6
CONTINUOUS
10
0.358517
20
2.11855
11
0.372051
21
2.12245
0
LINE
8
BLACK
6
CONTINUOUS
10
0.372051
20
2.12245
11
0.385937
21
2.12481
0
LINE
8
BLACK
6
CONTINUOUS
10
0.385937
20
2.12481
11
0.4
21
2.1256
0
LINE
8
BLACK
6
CONTINUOUS
10
0.4
20
2.1256
11
0.414063
21
2.12481
0
LINE
8
BLACK
6
CONTINUOUS
10
0.289962
20
1.98714
11
0.292199
21
1.97445
0
LINE
8
BLACK
6
CONTINUOUS
10
0.292199
20
1.97445
11
0.295894
21
1.96211
0
LINE
8
BLACK
6
CONTINUOUS
10
0.295894
20
1.96211
11
0.300997
21
1.95028
0
LINE
8
BLACK
6
CONTINUOUS
10
0.300997
20
1.95028
11
0.307438
21
1.93912
0
LINE
8
BLACK
6
CONTINUOUS
10
0.307438
20
1.93912
11
0.315132
21
1.92879
0
LINE
8
BLACK
6
CONTINUOUS
10
0.315132
20
1.92879
11
0.323973
21
1.91942
0
LINE
8
BLACK
6
CONTINUOUS
10
0.323973
20
1.91942
11
0.333842
21
1.91113
0
LINE
8
BLACK
6
CONTINUOUS
10
0.333842
20
1.91113
11
0.344606
21
1.90406
0
LINE
8
BLACK
6
CONTINUOUS
10
0.344606
20
1.90406
11
0.356119
21
1.89827
0
LINE
8
BLACK
6
CONTINUOUS
10
0.356119
20
1.89827
11
0.368226
21
1.89387
0
LINE
8
BLACK
6
CONTINUOUS
10
0.368226
20
1.89387
11
0.380762
21
1.8909
0
LINE
8
BLACK
6
CONTINUOUS
10
0.380762
20
1.8909
11
0.393558
21
1.8894
0
LINE
8
BLACK
6
CONTINUOUS
10
0.393558
20
1.8894
11
0.406442
21
1.8894
0
LINE
8
BLACK
6
CONTINUOUS
10
0.406442
20
1.8894
11
0.419238
21
1.8909
0
LINE
8
BLACK
6
CONTINUOUS
10
0.419238
20
1.8909
11
0.431774
21
1.89387
0
LINE
8
BLACK
6
CONTINUOUS
10
0.431774
20
1.89387
11
0.443881
21
1.89827
0
LINE
8
BLACK
6
CONTINUOUS
10
0.443881
20
1.89827
11
0.455394
21
1.90406
0
LINE
8
BLACK
6
CONTINUOUS
10
0.455394
20
1.90406
11
0.466158
21
1.91113
0
LINE
8
BLACK
6
CONTINUOUS
10
0.466158
20
1.91113
11
0.476027
21
1.91942
0
LINE
8
BLACK
6
CONTINUOUS
10
0.476027
20
1.91942
11
0.484868
21
1.92879
0
LINE
8
BLACK
6
CONTINUOUS
10
0.484868
20
1.92879
11
0.492562
21
1.93912
0
LINE
8
BLACK
6
CONTINUOUS
10
0.492562
20
1.93912
11
0.499003
21
1.95028
0
LINE
8
BLACK
6
CONTINUOUS
10
0.499003
20
1.95028
11
0.504106
21
1.96211
0
LINE
8
BLACK
6
CONTINUOUS
10
0.504106
20
1.96211
11
0.507801
21
1.97445
0
LINE
8
BLACK
6
CONTINUOUS
10
0.507801
20
1.97445
11
0.510038
21
1.98714
0
LINE
8
BLACK
6
CONTINUOUS
10
0.510038
20
1.98714
11
0.510787
21
2
0
LINE
8
BLACK
6
CONTINUOUS
10
0.510787
20
2
11
0.510038
21
2.01286
0
LINE
8
BLACK
6
CONTINUOUS
10
0.510038
20
2.01286
11
0.507801
21
2.02555
0
LINE
8
BLACK
6
CONTINUOUS
10
0.507801
20
2.02555
11
0.504106
21
2.03789
0
LINE
8
BLACK
6
CONTINUOUS
10
0.504106
20
2.03789
11
0.499003
21
2.04972
0
LINE
8
BLACK
6
CONTINUOUS
10
0.499003
20
2.04972
11
0.492562
21
2.06088
0
LINE
8
BLACK
6
CONTINUOUS
10
0.492562
20
2.06088
11
0.484868
21
2.07121
0
LINE
8
BLACK
6
CONTINUOUS
10
0.484868
20
2.07121
11
0.476027
21
2.08058
0
LINE
8
BLACK
6
CONTINUOUS
10
0.476027
20
2.08058
11
0.466158
21
2.08887
0
LINE
8
BLACK
6
CONTINUOUS
10
0.466158
20
2.08887
11
0.455394
21
2.09594
0
LINE
8
BLACK
6
CONTINUOUS
10
0.455394
20
2.09594
11
0.443881
21
2.10173
0
LINE
8
BLACK
6
CONTINUOUS
10
0.443881
20
2.10173
11
0.431774
21
2.10613
0
LINE
8
BLACK
6
CONTINUOUS
10
0.431774
20
2.10613
11
0.419238
21
2.1091
0
LINE
8
BLACK
6
CONTINUOUS
10
0.419238
20
2.1091
11
0.406442
21
2.1106
0
LINE
8
BLACK
6
CONTINUOUS
10
0.406442
20
2.1106
11
0.393558
21
2.1106
0
LINE
8
BLACK
6
CONTINUOUS
10
0.393558
20
2.1106
11
0.380762
21
2.1091
0
LINE
8
BLACK
6
CONTINUOUS
10
0.380762
20
2.1091
11
0.368226
21
2.10613
0
LINE
8
BLACK
6
CONTINUOUS
10
0.368226
20
2.10613
11
0.356119
21
2.10173
0
LINE
8
BLACK
6
CONTINUOUS
10
0.356119
20
2.10173
11
0.344606
21
2.09594
0
LINE
8
BLACK
6
CONTINUOUS
10
0.344606
20
2.09594
11
0.333842
21
2.08887
0
LINE
8
BLACK
6
CONTINUOUS
10
0.333842
20
2.08887
11
0.323973
21
2.08058
0
LINE
8
BLACK
6
CONTINUOUS
10
0.323973
20
2.08058
11
0.315132
21
2.07121
0
LINE
8
BLACK
6
CONTINUOUS
10
0.315132
20
2.07121
11
0.307438
21
2.06088
0
LINE
8
BLACK
6
CONTINUOUS
10
0.307438
20
2.06088
11
0.300997
21
2.04972
0
LINE
8
BLACK
6
CONTINUOUS
10
0.300997
20
2.04972
11
0.295894
21
2.03789
0
LINE
8
BLACK
6
CONTINUOUS
10
0.295894
20
2.03789
11
0.292199
21
2.02555
0
LINE
8
BLACK
6
CONTINUOUS
10
0.292199
20
2.02555
11
0.289962
21
2.01286
0
LINE
8
BLACK
6
CONTINUOUS
10
0.289962
20
2.01286
11
0.289213
21
2
0
LINE
8
BLACK
6
CONTINUOUS
10
0.289213
20
2
11
0.289962
21
1.98714
0
LINE
8
BLACK
6
CONTINUOUS
10
1.61406
20
2.12481
11
1.62795
21
2.12245
0
LINE
8
BLACK
6
CONTINUOUS
10
1.62795
20
2.12245
11
1.64148
21
2.11855
0
LINE
8
BLACK
6
CONTINUOUS
10
1.64148
20
2.11855
11
1.6545
21
2.11316
0
LINE
8
BLACK
6
CONTINUOUS
10
1.6545
20
2.11316
11
1.66682
21
2.10635
0
LINE
8
BLACK
6
CONTINUOUS
10
1.66682
20
2.10635
11
1.67831
21
2.0982
0
LINE
8
BLACK
6
CONTINUOUS
10
1.67831
20
2.0982
11
1.68881
21
2.08881
0
LINE
8
BLACK
6
CONTINUOUS
10
1.68881
20
2.08881
11
1.6982
21
2.07831
0
LINE
8
BLACK
6
CONTINUOUS
10
1.6982
20
2.07831
11
1.70635
21
2.06682
0
LINE
8
BLACK
6
CONTINUOUS
10
1.70635
20
2.06682
11
1.71316
21
2.0545
0
LINE
8
BLACK
6
CONTINUOUS
10
1.71316
20
2.0545
11
1.71855
21
2.04148
0
LINE
8
BLACK
6
CONTINUOUS
10
1.71855
20
2.04148
11
1.72245
21
2.02795
0
LINE
8
BLACK
6
CONTINUOUS
10
1.72245
20
2.02795
11
1.72481
21
2.01406
0
LINE
8
BLACK
6
CONTINUOUS
10
1.72481
20
2.01406
11
1.7256
21
2
0
LINE
8
BLACK
6
CONTINUOUS
10
1.7256
20
2
11
1.72481
21
1.98594
0
LINE
8
BLACK
6
CONTINUOUS
10
1.72481
20
1.98594
11
1.72245
21
1.97205
0
LINE
8
BLACK
6
CONTINUOUS
10
1.72245
20
1.97205
11
1.71855
21
1.95852
0
LINE
8
BLACK
6
CONTINUOUS
10
1.71855
20
1.95852
11
1.71316
21
1.9455
0
LINE
8
BLACK
6
CONTINUOUS
10
1.71316
20
1.9455
11
1.70635
21
1.93318
0
LINE
8
BLACK
6
CONTINUOUS
10
1.70635
20
1.93318
11
1.6982
21
1.92169
0
LINE
8
BLACK
6
CONTINUOUS
10
1.6982
20
1.92169
11
1.68881
21
1.91119
0
LINE
8
BLACK
6
CONTINUOUS
10
1.68881
20
1.91119
11
1.67831
21
1.9018
0
LINE
8
BLACK
6
CONTINUOUS
10
1.67831
20
1.9018
11
1.66682
21
1.89365
0
LINE
8
BLACK
6
CONTINUOUS
10
1.66682
20
1.89365
11
1.6545
21
1.88684
0
LINE
8
BLACK
6
CONTINUOUS
10
1.6545
20
1.88684
11
1.64148
21
1.88145
0
LINE
8
BLACK
6
CONTINUOUS
10
1.64148
20
1.88145
11
1.62795
21
1.87755
0
LINE
8
BLACK
6
CONTINUOUS
10
1.62795
20
1.87755
11
1.61406
21
1.87519
0
LINE
8
BLACK
6
CONTINUOUS
10
1.61406
20
1.87519
11
1.6
21
1.8744
0
LINE
8
BLACK
6
CONTINUOUS
10
1.6
20
1.8744
11
1.58594
21
1.87519
0
LINE
8
BLACK
6
CONTINUOUS
10
1.58594
20
1.87519
11
1.57205
21
1.87755
0
LINE
8
BLACK
6
CONTINUOUS
10
1.57205
20
1.87755
11
1.55852
21
1.88145
0
LINE
8
BLACK
6
CONTINUOUS
10
1.55852
20
1.88145
11
1.5455
21
1.88684
0
LINE
8
BLACK
6
CONTINUOUS
10
1.5455
20
1.88684
11
1.53318
21
1.89365
0
LINE
8
BLACK
6
CONTINUOUS
10
1.53318
20
1.89365
11
1.52169
21
1.9018
0
LINE
8
BLACK
6
CONTINUOUS
10
1.52169
20
1.9018
11
1.51119
21
1.91119
0
LINE
8
BLACK
6
CONTINUOUS
10
1.51119
20
1.91119
11
1.5018
21
1.92169
0
LINE
8
BLACK
6
CONTINUOUS
10
1.5018
20
1.92169
11
1.49365
21
1.93318
0
LINE
8
BLACK
6
CONTINUOUS
10
1.49365
20
1.93318
11
1.48684
21
1.9455
0
LINE
8
BLACK
6
CONTINUOUS
10
1.48684
20
1.9455
11
1.48145
21
1.95852
0
LINE
8
BLACK
6
CONTINUOUS
10
1.48145
20
1.95852
11
1.47755
21
1.97205
0
LINE
8
BLACK
6
CONTINUOUS
10
1.47755
20
1.97205
11
1.47519
21
1.98594
0
LINE
8
BLACK
6
CONTINUOUS
10
1.47519
20
1.98594
11
1.4744
21
2
0
LINE
8
BLACK
6
CONTINUOUS
10
1.4744
20
2
11
1.47519
21
2.01406
0
LINE
8
BLACK
6
CONTINUOUS
10
1.47519
20
2.01406
11
1.47755
21
2.02795
0
LINE
8
BLACK
6
CONTINUOUS
10
1.47755
20
2.02795
11
1.48145
21
2.04148
0
LINE
8
BLACK
6
CONTINUOUS
10
1.48145
20
2.04148
11
1.48684
21
2.0545
0
LINE
8
BLACK
6
CONTINUOUS
10
1.48684
20
2.0545
11
1.49365
21
2.06682
0
LINE
8
BLACK
6
CONTINUOUS
10
1.49365
20
2.06682
11
1.5018
21
2.07831
0
LINE
8
BLACK
6
CONTINUOUS
10
1.5018
20
2.07831
11
1.51119
21
2.08881
0
LINE
8
BLACK
6
CONTINUOUS
10
1.51119
20
2.08881
11
1.52169
21
2.0982
0
LINE
8
BLACK
6
CONTINUOUS
10
1.52169
20
2.0982
11
1.53318
21
2.10635
0
LINE
8
BLACK
6
CONTINUOUS
10
1.53318
20
2.10635
11
1.5455
21
2.11316
0
LINE
8
BLACK
6
CONTINUOUS
10
1.5455
20
2.11316
11
1.55852
21
2.11855
0
LINE
8
BLACK
6
CONTINUOUS
10
1.55852
20
2.11855
11
1.57205
21
2.12245
0
LINE
8
BLACK
6
CONTINUOUS
10
1.57205
20
2.12245
11
1.58594
21
2.12481
0
LINE
8
BLACK
6
CONTINUOUS
10
1.58594
20
2.12481
11
1.6
21
2.1256
0
LINE
8
BLACK
6
CONTINUOUS
10
1.6
20
2.1256
11
1.61406
21
2.12481
0
LINE
8
BLACK
6
CONTINUOUS
10
1.48996
20
1.98714
11
1.4922
21
1.97445
0
LINE
8
BLACK
6
CONTINUOUS
10
1.4922
20
1.97445
11
1.49589
21
1.96211
0
LINE
8
BLACK
6
CONTINUOUS
10
1.49589
20
1.96211
11
1.501
21
1.95028
0
LINE
8
BLACK
6
CONTINUOUS
10
1.501
20
1.95028
11
1.50744
21
1.93912
0
LINE
8
BLACK
6
CONTINUOUS
10
1.50744
20
1.93912
11
1.51513
21
1.92879
0
LINE
8
BLACK
6
CONTINUOUS
10
1.51513
20
1.92879
11
1.52397
21
1.91942
0
LINE
8
BLACK
6
CONTINUOUS
10
1.52397
20
1.91942
11
1.53384
21
1.91113
0
LINE
8
BLACK
6
CONTINUOUS
10
1.53384
20
1.91113
11
1.54461
21
1.90406
0
LINE
8
BLACK
6
CONTINUOUS
10
1.54461
20
1.90406
11
1.55612
21
1.89827
0
LINE
8
BLACK
6
CONTINUOUS
10
1.55612
20
1.89827
11
1.56823
21
1.89387
0
LINE
8
BLACK
6
CONTINUOUS
10
1.56823
20
1.89387
11
1.58076
21
1.8909
0
LINE
8
BLACK
6
CONTINUOUS
10
1.58076
20
1.8909
11
1.59356
21
1.8894
0
LINE
8
BLACK
6
CONTINUOUS
10
1.59356
20
1.8894
11
1.60644
21
1.8894
0
LINE
8
BLACK
6
CONTINUOUS
10
1.60644
20
1.8894
11
1.61924
21
1.8909
0
LINE
8
BLACK
6
CONTINUOUS
10
1.61924
20
1.8909
11
1.63177
21
1.89387
0
LINE
8
BLACK
6
CONTINUOUS
10
1.63177
20
1.89387
11
1.64388
21
1.89827
0
LINE
8
BLACK
6
CONTINUOUS
10
1.64388
20
1.89827
11
1.65539
21
1.90406
0
LINE
8
BLACK
6
CONTINUOUS
10
1.65539
20
1.90406
11
1.66616
21
1.91113
0
LINE
8
BLACK
6
CONTINUOUS
10
1.66616
20
1.91113
11
1.67603
21
1.91942
0
LINE
8
BLACK
6
CONTINUOUS
10
1.67603
20
1.91942
11
1.68487
21
1.92879
0
LINE
8
BLACK
6
CONTINUOUS
10
1.68487
20
1.92879
11
1.69256
21
1.93912
0
LINE
8
BLACK
6
CONTINUOUS
10
1.69256
20
1.93912
11
1.699
21
1.95028
0
LINE
8
BLACK
6
CONTINUOUS
10
1.699
20
1.95028
11
1.70411
21
1.96211
0
LINE
8
BLACK
6
CONTINUOUS
10
1.70411
20
1.96211
11
1.7078
21
1.97445
0
LINE
8
BLACK
6
CONTINUOUS
10
1.7078
20
1.97445
11
1.71004
21
1.98714
0
LINE
8
BLACK
6
CONTINUOUS
10
1.71004
20
1.98714
11
1.71079
21
2
0
LINE
8
BLACK
6
CONTINUOUS
10
1.71079
20
2
11
1.71004
21
2.01286
0
LINE
8
BLACK
6
CONTINUOUS
10
1.71004
20
2.01286
11
1.7078
21
2.02555
0
LINE
8
BLACK
6
CONTINUOUS
10
1.7078
20
2.02555
11
1.70411
21
2.03789
0
LINE
8
BLACK
6
CONTINUOUS
10
1.70411
20
2.03789
11
1.699
21
2.04972
0
LINE
8
BLACK
6
CONTINUOUS
10
1.699
20
2.04972
11
1.69256
21
2.06088
0
LINE
8
BLACK
6
CONTINUOUS
10
1.69256
20
2.06088
11
1.68487
21
2.07121
0
LINE
8
BLACK
6
CONTINUOUS
10
1.68487
20
2.07121
11
1.67603
21
2.08058
0
LINE
8
BLACK
6
CONTINUOUS
10
1.67603
20
2.08058
11
1.66616
21
2.08887
0
LINE
8
BLACK
6
CONTINUOUS
10
1.66616
20
2.08887
11
1.65539
21
2.09594
0
LINE
8
BLACK
6
CONTINUOUS
10
1.65539
20
2.09594
11
1.64388
21
2.10173
0
LINE
8
BLACK
6
CONTINUOUS
10
1.64388
20
2.10173
11
1.63177
21
2.10613
0
LINE
8
BLACK
6
CONTINUOUS
10
1.63177
20
2.10613
11
1.61924
21
2.1091
0
LINE
8
BLACK
6
CONTINUOUS
10
1.61924
20
2.1091
11
1.60644
21
2.1106
0
LINE
8
BLACK
6
CONTINUOUS
10
1.60644
20
2.1106
11
1.59356
21
2.1106
0
LINE
8
BLACK
6
CONTINUOUS
10
1.59356
20
2.1106
11
1.58076
21
2.1091
0
LINE
8
BLACK
6
CONTINUOUS
10
1.58076
20
2.1091
11
1.56823
21
2.10613
0
LINE
8
BLACK
6
CONTINUOUS
10
1.56823
20
2.10613
11
1.55612
21
2.10173
0
LINE
8
BLACK
6
CONTINUOUS
10
1.55612
20
2.10173
11
1.54461
21
2.09594
0
LINE
8
BLACK
6
CONTINUOUS
10
1.54461
20
2.09594
11
1.53384
21
2.08887
0
LINE
8
BLACK
6
CONTINUOUS
10
1.53384
20
2.08887
11
1.52397
21
2.08058
0
LINE
8
BLACK
6
CONTINUOUS
10
1.52397
20
2.08058
11
1.51513
21
2.07121
0
LINE
8
BLACK
6
CONTINUOUS
10
1.51513
20
2.07121
11
1.50744
21
2.06088
0
LINE
8
BLACK
6
CONTINUOUS
10
1.50744
20
2.06088
11
1.501
21
2.04972
0
LINE
8
BLACK
6
CONTINUOUS
10
1.501
20
2.04972
11
1.49589
21
2.03789
0
LINE
8
BLACK
6
CONTINUOUS
10
1.49589
20
2.03789
11
1.4922
21
2.02555
0
LINE
8
BLACK
6
CONTINUOUS
10
1.4922
20
2.02555
11
1.48996
21
2.01286
0
LINE
8
BLACK
6
CONTINUOUS
10
1.48996
20
2.01286
11
1.48921
21
2
0
LINE
8
BLACK
6
CONTINUOUS
10
1.48921
20
2
11
1.48996
21
1.98714
0
LINE
8
BLACK
6
CONTINUOUS
10
1.13245
20
2.03399
11
1.13314
21
2.03209
0
LINE
8
BLACK
6
CONTINUOUS
10
1.13314
20
2.03209
11
1.13314
21
2.00397
0
LINE
8
BLACK
6
CONTINUOUS
10
1.13314
20
2.00397
11
1.13298
21
2.0031
0
LINE
8
BLACK
6
CONTINUOUS
10
1.13298
20
2.0031
11
1.13298
21
2.00304
0
LINE
8
BLACK
6
CONTINUOUS
10
1.13298
20
2.00304
11
1.13111
21
1.99741
0
LINE
8
BLACK
6
CONTINUOUS
10
1.13111
20
1.99741
11
1.13062
21
1.99651
0
LINE
8
BLACK
6
CONTINUOUS
10
1.13062
20
1.99651
11
1.13047
21
1.99642
0
LINE
8
BLACK
6
CONTINUOUS
10
1.13047
20
1.99642
11
1.1304
21
1.99626
0
LINE
8
BLACK
6
CONTINUOUS
10
1.1304
20
1.99626
11
1.12665
21
1.99251
0
LINE
8
BLACK
6
CONTINUOUS
10
1.12665
20
1.99251
11
1.12581
21
1.99192
0
LINE
8
BLACK
6
CONTINUOUS
10
1.12581
20
1.99192
11
1.12563
21
1.99191
0
LINE
8
BLACK
6
CONTINUOUS
10
1.12563
20
1.99191
11
1.12549
21
1.9918
0
LINE
8
BLACK
6
CONTINUOUS
10
1.12549
20
1.9918
11
1.11987
21
1.98992
0
LINE
8
BLACK
6
CONTINUOUS
10
1.11987
20
1.98992
11
1.119
21
1.98979
0
LINE
8
BLACK
6
CONTINUOUS
10
1.119
20
1.98979
11
1.11894
21
1.98977
0
LINE
8
BLACK
6
CONTINUOUS
10
1.11894
20
1.98977
11
1.11519
21
1.98977
0
LINE
8
BLACK
6
CONTINUOUS
10
1.11519
20
1.98977
11
1.11418
21
1.98995
0
LINE
8
BLACK
6
CONTINUOUS
10
1.11418
20
1.98995
11
1.11263
21
1.99125
0
LINE
8
BLACK
6
CONTINUOUS
10
1.11263
20
1.99125
11
1.11228
21
1.99324
0
LINE
8
BLACK
6
CONTINUOUS
10
1.11228
20
1.99324
11
1.11329
21
1.99499
0
LINE
8
BLACK
6
CONTINUOUS
10
1.11329
20
1.99499
11
1.11519
21
1.99568
0
LINE
8
BLACK
6
CONTINUOUS
10
1.11519
20
1.99568
11
1.11846
21
1.99568
0
LINE
8
BLACK
6
CONTINUOUS
10
1.11846
20
1.99568
11
1.12296
21
1.99718
0
LINE
8
BLACK
6
CONTINUOUS
10
1.12296
20
1.99718
11
1.12573
21
1.99994
0
LINE
8
BLACK
6
CONTINUOUS
10
1.12573
20
1.99994
11
1.12723
21
2.00445
0
LINE
8
BLACK
6
CONTINUOUS
10
1.12723
20
2.00445
11
1.12723
21
2.03209
0
LINE
8
BLACK
6
CONTINUOUS
10
1.12723
20
2.03209
11
1.12741
21
2.0331
0
LINE
8
BLACK
6
CONTINUOUS
10
1.12741
20
2.0331
11
1.12871
21
2.03465
0
LINE
8
BLACK
6
CONTINUOUS
10
1.12871
20
2.03465
11
1.1307
21
2.035
0
LINE
8
BLACK
6
CONTINUOUS
10
1.1307
20
2.035
11
1.13245
21
2.03399
0
LINE
8
BLACK
6
CONTINUOUS
10
1.16306
20
2.03487
11
1.1632
21
2.03475
0
LINE
8
BLACK
6
CONTINUOUS
10
1.1632
20
2.03475
11
1.16338
21
2.03473
0
LINE
8
BLACK
6
CONTINUOUS
10
1.16338
20
2.03473
11
1.16712
21
2.03286
0
LINE
8
BLACK
6
CONTINUOUS
10
1.16712
20
2.03286
11
1.16783
21
2.03233
0
LINE
8
BLACK
6
CONTINUOUS
10
1.16783
20
2.03233
11
1.16789
21
2.03231
0
LINE
8
BLACK
6
CONTINUOUS
10
1.16789
20
2.03231
11
1.16977
21
2.03043
0
LINE
8
BLACK
6
CONTINUOUS
10
1.16977
20
2.03043
11
1.17027
21
2.02971
0
LINE
8
BLACK
6
CONTINUOUS
10
1.17027
20
2.02971
11
1.17032
21
2.02966
0
LINE
8
BLACK
6
CONTINUOUS
10
1.17032
20
2.02966
11
1.17219
21
2.02592
0
LINE
8
BLACK
6
CONTINUOUS
10
1.17219
20
2.02592
11
1.17249
21
2.02493
0
LINE
8
BLACK
6
CONTINUOUS
10
1.17249
20
2.02493
11
1.17245
21
2.02476
0
LINE
8
BLACK
6
CONTINUOUS
10
1.17245
20
2.02476
11
1.17251
21
2.02459
0
LINE
8
BLACK
6
CONTINUOUS
10
1.17251
20
2.02459
11
1.17251
21
2.02085
0
LINE
8
BLACK
6
CONTINUOUS
10
1.17251
20
2.02085
11
1.17235
21
2.01998
0
LINE
8
BLACK
6
CONTINUOUS
10
1.17235
20
2.01998
11
1.17236
21
2.01991
0
LINE
8
BLACK
6
CONTINUOUS
10
1.17236
20
2.01991
11
1.17048
21
2.01429
0
LINE
8
BLACK
6
CONTINUOUS
10
1.17048
20
2.01429
11
1.16999
21
2.01339
0
LINE
8
BLACK
6
CONTINUOUS
10
1.16999
20
2.01339
11
1.16984
21
2.01329
0
LINE
8
BLACK
6
CONTINUOUS
10
1.16984
20
2.01329
11
1.16977
21
2.01313
0
LINE
8
BLACK
6
CONTINUOUS
10
1.16977
20
2.01313
11
1.15231
21
1.99568
0
LINE
8
BLACK
6
CONTINUOUS
10
1.15231
20
1.99568
11
1.16955
21
1.99568
0
LINE
8
BLACK
6
CONTINUOUS
10
1.16955
20
1.99568
11
1.17056
21
1.9955
0
LINE
8
BLACK
6
CONTINUOUS
10
1.17056
20
1.9955
11
1.17211
21
1.9942
0
LINE
8
BLACK
6
CONTINUOUS
10
1.17211
20
1.9942
11
1.17246
21
1.99221
0
LINE
8
BLACK
6
CONTINUOUS
10
1.17246
20
1.99221
11
1.17145
21
1.99046
0
LINE
8
BLACK
6
CONTINUOUS
10
1.17145
20
1.99046
11
1.16955
21
1.98977
0
LINE
8
BLACK
6
CONTINUOUS
10
1.16955
20
1.98977
11
1.14518
21
1.98977
0
LINE
8
BLACK
6
CONTINUOUS
10
1.14518
20
1.98977
11
1.14455
21
1.98988
0
LINE
8
BLACK
6
CONTINUOUS
10
1.14455
20
1.98988
11
1.14442
21
1.98987
0
LINE
8
BLACK
6
CONTINUOUS
10
1.14442
20
1.98987
11
1.14435
21
1.98992
0
LINE
8
BLACK
6
CONTINUOUS
10
1.14435
20
1.98992
11
1.14417
21
1.98995
0
LINE
8
BLACK
6
CONTINUOUS
10
1.14417
20
1.98995
11
1.14349
21
1.99052
0
LINE
8
BLACK
6
CONTINUOUS
10
1.14349
20
1.99052
11
1.14276
21
1.99103
0
LINE
8
BLACK
6
CONTINUOUS
10
1.14276
20
1.99103
11
1.14273
21
1.99116
0
LINE
8
BLACK
6
CONTINUOUS
10
1.14273
20
1.99116
11
1.14262
21
1.99125
0
LINE
8
BLACK
6
CONTINUOUS
10
1.14262
20
1.99125
11
1.14247
21
1.99212
0
LINE
8
BLACK
6
CONTINUOUS
10
1.14247
20
1.99212
11
1.14224
21
1.99298
0
LINE
8
BLACK
6
CONTINUOUS
10
1.14224
20
1.99298
11
1.1423
21
1.9931
0
LINE
8
BLACK
6
CONTINUOUS
10
1.1423
20
1.9931
11
1.14227
21
1.99324
0
LINE
8
BLACK
6
CONTINUOUS
10
1.14227
20
1.99324
11
1.14272
21
1.99401
0
LINE
8
BLACK
6
CONTINUOUS
10
1.14272
20
1.99401
11
1.14309
21
1.99481
0
LINE
8
BLACK
6
CONTINUOUS
10
1.14309
20
1.99481
11
1.1651
21
2.01682
0
LINE
8
BLACK
6
CONTINUOUS
10
1.1651
20
2.01682
11
1.1666
21
2.02132
0
LINE
8
BLACK
6
CONTINUOUS
10
1.1666
20
2.02132
11
1.1666
21
2.0239
0
LINE
8
BLACK
6
CONTINUOUS
10
1.1666
20
2.0239
11
1.16525
21
2.0266
0
LINE
8
BLACK
6
CONTINUOUS
10
1.16525
20
2.0266
11
1.16406
21
2.02779
0
LINE
8
BLACK
6
CONTINUOUS
10
1.16406
20
2.02779
11
1.16136
21
2.02914
0
LINE
8
BLACK
6
CONTINUOUS
10
1.16136
20
2.02914
11
1.15338
21
2.02914
0
LINE
8
BLACK
6
CONTINUOUS
10
1.15338
20
2.02914
11
1.15068
21
2.02779
0
LINE
8
BLACK
6
CONTINUOUS
10
1.15068
20
2.02779
11
1.14914
21
2.02626
0
LINE
8
BLACK
6
CONTINUOUS
10
1.14914
20
2.02626
11
1.1483
21
2.02567
0
LINE
8
BLACK
6
CONTINUOUS
10
1.1483
20
2.02567
11
1.14629
21
2.02549
0
LINE
8
BLACK
6
CONTINUOUS
10
1.14629
20
2.02549
11
1.14464
21
2.02665
0
LINE
8
BLACK
6
CONTINUOUS
10
1.14464
20
2.02665
11
1.14412
21
2.0286
0
LINE
8
BLACK
6
CONTINUOUS
10
1.14412
20
2.0286
11
1.14497
21
2.03043
0
LINE
8
BLACK
6
CONTINUOUS
10
1.14497
20
2.03043
11
1.14684
21
2.03231
0
LINE
8
BLACK
6
CONTINUOUS
10
1.14684
20
2.03231
11
1.14757
21
2.03281
0
LINE
8
BLACK
6
CONTINUOUS
10
1.14757
20
2.03281
11
1.14761
21
2.03286
0
LINE
8
BLACK
6
CONTINUOUS
10
1.14761
20
2.03286
11
1.15136
21
2.03473
0
LINE
8
BLACK
6
CONTINUOUS
10
1.15136
20
2.03473
11
1.15234
21
2.03503
0
LINE
8
BLACK
6
CONTINUOUS
10
1.15234
20
2.03503
11
1.15251
21
2.03499
0
LINE
8
BLACK
6
CONTINUOUS
10
1.15251
20
2.03499
11
1.15268
21
2.03505
0
LINE
8
BLACK
6
CONTINUOUS
10
1.15268
20
2.03505
11
1.16205
21
2.03505
0
LINE
8
BLACK
6
CONTINUOUS
10
1.16205
20
2.03505
11
1.16306
21
2.03487
0
LINE
8
BLACK
6
CONTINUOUS
10
1.39331
20
2.1126
11
1.3947
21
2.11202
0
LINE
8
BLACK
6
CONTINUOUS
10
1.3947
20
2.11202
11
1.39528
21
2.11063
0
LINE
8
BLACK
6
CONTINUOUS
10
1.39528
20
2.11063
11
1.39528
21
1.91063
0
LINE
8
BLACK
6
CONTINUOUS
10
1.39528
20
1.91063
11
1.3947
21
1.90924
0
LINE
8
BLACK
6
CONTINUOUS
10
1.3947
20
1.90924
11
1.39331
21
1.90866
0
LINE
8
BLACK
6
CONTINUOUS
10
1.39331
20
1.90866
11
0.943307
21
1.90866
0
LINE
8
BLACK
6
CONTINUOUS
10
0.943307
20
1.90866
11
0.941915
21
1.90924
0
LINE
8
BLACK
6
CONTINUOUS
10
0.941915
20
1.90924
11
0.891915
21
1.95924
0
LINE
8
BLACK
6
CONTINUOUS
10
0.891915
20
1.95924
11
0.891339
21
1.96063
0
LINE
8
BLACK
6
CONTINUOUS
10
0.891339
20
1.96063
11
0.891339
21
2.11063
0
LINE
8
BLACK
6
CONTINUOUS
10
0.891339
20
2.11063
11
0.891915
21
2.11202
0
LINE
8
BLACK
6
CONTINUOUS
10
0.891915
20
2.11202
11
0.893307
21
2.1126
0
LINE
8
BLACK
6
CONTINUOUS
10
0.893307
20
2.1126
11
1.39331
21
2.1126
0
LINE
8
BLACK
6
CONTINUOUS
10
0.895276
20
2.10866
11
0.895276
21
1.96145
0
LINE
8
BLACK
6
CONTINUOUS
10
0.895276
20
1.96145
11
0.944122
21
1.9126
0
LINE
8
BLACK
6
CONTINUOUS
10
0.944122
20
1.9126
11
1.39134
21
1.9126
0
LINE
8
BLACK
6
CONTINUOUS
10
1.39134
20
1.9126
11
1.39134
21
2.10866
0
LINE
8
BLACK
6
CONTINUOUS
10
1.39134
20
2.10866
11
0.895276
21
2.10866
  0
ENDSEC
  0
EOF
