  0
SECTION
  2
HEADER
  9
$ANGBASE
  50
0.0
  9
$ANGDIR
  70
1
  9
$MEASUREMENT
  70
0
  0
ENDSEC
  0
SECTION
  2
TABLES
  0
TABLE
  2
LTYPE
  70
4
  0
LTYPE
  5
40F
  2
CONTINUOUS
  70
0
  3
Solid line
  72
65
  73
0
  40
0.0
  0
LTYPE
  5
410
  2
DASHDOT
 70
0
  3
Dash Dot ____ _ ____ _
 72
65
 73
4
 40
2.0
 49
1.25
 49
-0.25
 49
0.25
 49
-0.25
  0
LTYPE
  5
411
  2
DASHED
 70
0
  3
Dashed __ __ __ __ __
 72
65
 73
2
 40
0.75
 49
0.5
 49
-0.25
  0
LTYPE
  5
43B
  2
DOTTED
 70
0
  3
Dotted .  .  .  .
 72
65
 73
2
 40
0.2
 49
0.0
 49
-0.2
  0
ENDTAB
  0
TABLE
  2
STYLE
  70
4
  0
STYLE
  2
KICAD
  70
0
  40
0
  41
1
  42
1
  50
0
  71
0
  3
isocp.shx
  0
STYLE
  2
KICADB
  70
0
  40
0
  41
1
  42
1
  50
0
  71
0
  3
isocp.shx
  0
STYLE
  2
KICADI
  70
0
  40
0
  41
1
  42
1
  50
15
  71
0
  3
isocp.shx
  0
STYLE
  2
KICADBI
  70
0
  40
0
  41
1
  42
1
  50
15
  71
0
  3
isocp.shx
  0
ENDTAB
  0
TABLE
  2
LAYER
  70
1
  0
LAYER
  2
BLACK
  70
0
  62
7
  6
CONTINUOUS
  0
ENDTAB
  0
ENDSEC
  0
SECTION
  2
ENTITIES
0
LINE
8
BLACK
6
CONTINUOUS
10
1.74606
20
1.02067
11
1.74676
21
1.02038
0
LINE
8
BLACK
6
CONTINUOUS
10
1.74676
20
1.02038
11
1.74705
21
1.01969
0
LINE
8
BLACK
6
CONTINUOUS
10
1.74705
20
1.01969
11
1.74705
21
0.57874
0
LINE
8
BLACK
6
CONTINUOUS
10
1.74705
20
0.57874
11
1.74676
21
0.578044
0
LINE
8
BLACK
6
CONTINUOUS
10
1.74676
20
0.578044
11
1.74606
21
0.577756
0
LINE
8
BLACK
6
CONTINUOUS
10
1.74606
20
0.577756
11
1.50394
21
0.577756
0
LINE
8
BLACK
6
CONTINUOUS
10
1.50394
20
0.577756
11
1.50324
21
0.578044
0
LINE
8
BLACK
6
CONTINUOUS
10
1.50324
20
0.578044
11
1.50295
21
0.57874
0
LINE
8
BLACK
6
CONTINUOUS
10
1.50295
20
0.57874
11
1.50295
21
1.01969
0
LINE
8
BLACK
6
CONTINUOUS
10
1.50295
20
1.01969
11
1.50324
21
1.02038
0
LINE
8
BLACK
6
CONTINUOUS
10
1.50324
20
1.02038
11
1.50394
21
1.02067
0
LINE
8
BLACK
6
CONTINUOUS
10
1.50394
20
1.02067
11
1.74606
21
1.02067
0
LINE
8
BLACK
6
CONTINUOUS
10
1.50492
20
1.0187
11
1.50492
21
0.579724
0
LINE
8
BLACK
6
CONTINUOUS
10
1.50492
20
0.579724
11
1.74508
21
0.579724
0
LINE
8
BLACK
6
CONTINUOUS
10
1.74508
20
0.579724
11
1.74508
21
1.0187
0
LINE
8
BLACK
6
CONTINUOUS
10
1.74508
20
1.0187
11
1.50492
21
1.0187
0
LINE
8
BLACK
6
CONTINUOUS
10
1.11614
20
0.724213
11
1.11684
21
0.723924
0
LINE
8
BLACK
6
CONTINUOUS
10
1.11684
20
0.723924
11
1.11713
21
0.723228
0
LINE
8
BLACK
6
CONTINUOUS
10
1.11713
20
0.723228
11
1.11713
21
0.581496
0
LINE
8
BLACK
6
CONTINUOUS
10
1.11713
20
0.581496
11
1.11684
21
0.5808
0
LINE
8
BLACK
6
CONTINUOUS
10
1.11684
20
0.5808
11
1.11614
21
0.580512
0
LINE
8
BLACK
6
CONTINUOUS
10
1.11614
20
0.580512
11
0.874016
21
0.580512
0
LINE
8
BLACK
6
CONTINUOUS
10
0.874016
20
0.580512
11
0.87332
21
0.5808
0
LINE
8
BLACK
6
CONTINUOUS
10
0.87332
20
0.5808
11
0.873031
21
0.581496
0
LINE
8
BLACK
6
CONTINUOUS
10
0.873031
20
0.581496
11
0.873031
21
0.723228
0
LINE
8
BLACK
6
CONTINUOUS
10
0.873031
20
0.723228
11
0.87332
21
0.723924
0
LINE
8
BLACK
6
CONTINUOUS
10
0.87332
20
0.723924
11
0.874016
21
0.724213
0
LINE
8
BLACK
6
CONTINUOUS
10
0.874016
20
0.724213
11
1.11614
21
0.724213
0
LINE
8
BLACK
6
CONTINUOUS
10
0.875
20
0.722244
11
0.875
21
0.58248
0
LINE
8
BLACK
6
CONTINUOUS
10
0.875
20
0.58248
11
1.11516
21
0.58248
0
LINE
8
BLACK
6
CONTINUOUS
10
1.11516
20
0.58248
11
1.11516
21
0.722244
0
LINE
8
BLACK
6
CONTINUOUS
10
1.11516
20
0.722244
11
0.875
21
0.722244
0
LINE
8
BLACK
6
CONTINUOUS
10
0.73248
20
1.35236
11
0.733176
21
1.35207
0
LINE
8
BLACK
6
CONTINUOUS
10
0.733176
20
1.35207
11
0.733465
21
1.35138
0
LINE
8
BLACK
6
CONTINUOUS
10
0.733465
20
1.35138
11
0.733465
21
0.609252
0
LINE
8
BLACK
6
CONTINUOUS
10
0.733465
20
0.609252
11
0.733176
21
0.608556
0
LINE
8
BLACK
6
CONTINUOUS
10
0.733176
20
0.608556
11
0.73248
21
0.608268
0
LINE
8
BLACK
6
CONTINUOUS
10
0.73248
20
0.608268
11
0.490354
21
0.608268
0
LINE
8
BLACK
6
CONTINUOUS
10
0.490354
20
0.608268
11
0.489658
21
0.608556
0
LINE
8
BLACK
6
CONTINUOUS
10
0.489658
20
0.608556
11
0.48937
21
0.609252
0
LINE
8
BLACK
6
CONTINUOUS
10
0.48937
20
0.609252
11
0.48937
21
0.609252
0
LINE
8
BLACK
6
CONTINUOUS
10
0.48937
20
0.609252
11
0.48937
21
1.35138
0
LINE
8
BLACK
6
CONTINUOUS
10
0.48937
20
1.35138
11
0.489658
21
1.35207
0
LINE
8
BLACK
6
CONTINUOUS
10
0.489658
20
1.35207
11
0.490354
21
1.35236
0
LINE
8
BLACK
6
CONTINUOUS
10
0.490354
20
1.35236
11
0.73248
21
1.35236
0
LINE
8
BLACK
6
CONTINUOUS
10
0.491339
20
1.35039
11
0.491339
21
0.610236
0
LINE
8
BLACK
6
CONTINUOUS
10
0.491339
20
0.610236
11
0.731496
21
0.610236
0
LINE
8
BLACK
6
CONTINUOUS
10
0.731496
20
0.610236
11
0.731496
21
1.35039
0
LINE
8
BLACK
6
CONTINUOUS
10
0.731496
20
1.35039
11
0.491339
21
1.35039
0
LINE
8
BLACK
6
CONTINUOUS
10
1.75984
20
1.80807
11
1.76054
21
1.80778
0
LINE
8
BLACK
6
CONTINUOUS
10
1.76054
20
1.80778
11
1.76083
21
1.80709
0
LINE
8
BLACK
6
CONTINUOUS
10
1.76083
20
1.80709
11
1.76083
21
1.28346
0
LINE
8
BLACK
6
CONTINUOUS
10
1.76083
20
1.28346
11
1.76054
21
1.28277
0
LINE
8
BLACK
6
CONTINUOUS
10
1.76054
20
1.28277
11
1.75984
21
1.28248
0
LINE
8
BLACK
6
CONTINUOUS
10
1.75984
20
1.28248
11
1.16929
21
1.28248
0
LINE
8
BLACK
6
CONTINUOUS
10
1.16929
20
1.28248
11
1.1686
21
1.28277
0
LINE
8
BLACK
6
CONTINUOUS
10
1.1686
20
1.28277
11
1.16831
21
1.28346
0
LINE
8
BLACK
6
CONTINUOUS
10
1.16831
20
1.28346
11
1.16831
21
1.28346
0
LINE
8
BLACK
6
CONTINUOUS
10
1.16831
20
1.28346
11
1.16831
21
1.80709
0
LINE
8
BLACK
6
CONTINUOUS
10
1.16831
20
1.80709
11
1.1686
21
1.80778
0
LINE
8
BLACK
6
CONTINUOUS
10
1.1686
20
1.80778
11
1.16929
21
1.80807
0
LINE
8
BLACK
6
CONTINUOUS
10
1.16929
20
1.80807
11
1.75984
21
1.80807
0
LINE
8
BLACK
6
CONTINUOUS
10
1.17028
20
1.8061
11
1.17028
21
1.28445
0
LINE
8
BLACK
6
CONTINUOUS
10
1.17028
20
1.28445
11
1.75886
21
1.28445
0
LINE
8
BLACK
6
CONTINUOUS
10
1.75886
20
1.28445
11
1.75886
21
1.8061
0
LINE
8
BLACK
6
CONTINUOUS
10
1.75886
20
1.8061
11
1.17028
21
1.8061
0
LINE
8
BLACK
6
CONTINUOUS
10
0.982283
20
1.47539
11
0.982979
21
1.47511
0
LINE
8
BLACK
6
CONTINUOUS
10
0.982979
20
1.47511
11
0.983268
21
1.47441
0
LINE
8
BLACK
6
CONTINUOUS
10
0.983268
20
1.47441
11
0.983268
21
1.33268
0
LINE
8
BLACK
6
CONTINUOUS
10
0.983268
20
1.33268
11
0.982979
21
1.33198
0
LINE
8
BLACK
6
CONTINUOUS
10
0.982979
20
1.33198
11
0.982283
21
1.33169
0
LINE
8
BLACK
6
CONTINUOUS
10
0.982283
20
1.33169
11
0.740157
21
1.33169
0
LINE
8
BLACK
6
CONTINUOUS
10
0.740157
20
1.33169
11
0.739461
21
1.33198
0
LINE
8
BLACK
6
CONTINUOUS
10
0.739461
20
1.33198
11
0.739173
21
1.33268
0
LINE
8
BLACK
6
CONTINUOUS
10
0.739173
20
1.33268
11
0.739173
21
1.47441
0
LINE
8
BLACK
6
CONTINUOUS
10
0.739173
20
1.47441
11
0.739461
21
1.47511
0
LINE
8
BLACK
6
CONTINUOUS
10
0.739461
20
1.47511
11
0.740157
21
1.47539
0
LINE
8
BLACK
6
CONTINUOUS
10
0.740157
20
1.47539
11
0.982283
21
1.47539
0
LINE
8
BLACK
6
CONTINUOUS
10
0.741142
20
1.47343
11
0.741142
21
1.33366
0
LINE
8
BLACK
6
CONTINUOUS
10
0.741142
20
1.33366
11
0.981299
21
1.33366
0
LINE
8
BLACK
6
CONTINUOUS
10
0.981299
20
1.33366
11
0.981299
21
1.47343
0
LINE
8
BLACK
6
CONTINUOUS
10
0.981299
20
1.47343
11
0.741142
21
1.47343
0
LINE
8
BLACK
6
CONTINUOUS
10
0.488189
20
1.83189
11
0.488885
21
1.8316
0
LINE
8
BLACK
6
CONTINUOUS
10
0.488885
20
1.8316
11
0.489173
21
1.83091
0
LINE
8
BLACK
6
CONTINUOUS
10
0.489173
20
1.83091
11
0.489173
21
1.49035
0
LINE
8
BLACK
6
CONTINUOUS
10
0.489173
20
1.49035
11
0.488885
21
1.48966
0
LINE
8
BLACK
6
CONTINUOUS
10
0.488885
20
1.48966
11
0.488189
21
1.48937
0
LINE
8
BLACK
6
CONTINUOUS
10
0.488189
20
1.48937
11
0.246063
21
1.48937
0
LINE
8
BLACK
6
CONTINUOUS
10
0.246063
20
1.48937
11
0.245367
21
1.48966
0
LINE
8
BLACK
6
CONTINUOUS
10
0.245367
20
1.48966
11
0.245079
21
1.49035
0
LINE
8
BLACK
6
CONTINUOUS
10
0.245079
20
1.49035
11
0.245079
21
1.83091
0
LINE
8
BLACK
6
CONTINUOUS
10
0.245079
20
1.83091
11
0.245367
21
1.8316
0
LINE
8
BLACK
6
CONTINUOUS
10
0.245367
20
1.8316
11
0.246063
21
1.83189
0
LINE
8
BLACK
6
CONTINUOUS
10
0.246063
20
1.83189
11
0.488189
21
1.83189
0
LINE
8
BLACK
6
CONTINUOUS
10
0.247047
20
1.82992
11
0.247047
21
1.49134
0
LINE
8
BLACK
6
CONTINUOUS
10
0.247047
20
1.49134
11
0.487205
21
1.49134
0
LINE
8
BLACK
6
CONTINUOUS
10
0.487205
20
1.49134
11
0.487205
21
1.82992
0
LINE
8
BLACK
6
CONTINUOUS
10
0.487205
20
1.82992
11
0.247047
21
1.82992
0
LINE
8
BLACK
6
CONTINUOUS
10
0.755906
20
1.83268
11
0.756601
21
1.83239
0
LINE
8
BLACK
6
CONTINUOUS
10
0.756601
20
1.83239
11
0.75689
21
1.83169
0
LINE
8
BLACK
6
CONTINUOUS
10
0.75689
20
1.83169
11
0.75689
21
1.49114
0
LINE
8
BLACK
6
CONTINUOUS
10
0.75689
20
1.49114
11
0.756601
21
1.49045
0
LINE
8
BLACK
6
CONTINUOUS
10
0.756601
20
1.49045
11
0.755906
21
1.49016
0
LINE
8
BLACK
6
CONTINUOUS
10
0.755906
20
1.49016
11
0.614173
21
1.49016
0
LINE
8
BLACK
6
CONTINUOUS
10
0.614173
20
1.49016
11
0.613477
21
1.49045
0
LINE
8
BLACK
6
CONTINUOUS
10
0.613477
20
1.49045
11
0.613189
21
1.49114
0
LINE
8
BLACK
6
CONTINUOUS
10
0.613189
20
1.49114
11
0.613189
21
1.83169
0
LINE
8
BLACK
6
CONTINUOUS
10
0.613189
20
1.83169
11
0.613477
21
1.83239
0
LINE
8
BLACK
6
CONTINUOUS
10
0.613477
20
1.83239
11
0.614173
21
1.83268
0
LINE
8
BLACK
6
CONTINUOUS
10
0.614173
20
1.83268
11
0.755906
21
1.83268
0
LINE
8
BLACK
6
CONTINUOUS
10
0.615157
20
1.83071
11
0.615157
21
1.49213
0
LINE
8
BLACK
6
CONTINUOUS
10
0.615157
20
1.49213
11
0.754921
21
1.49213
0
LINE
8
BLACK
6
CONTINUOUS
10
0.754921
20
1.49213
11
0.754921
21
1.83071
0
LINE
8
BLACK
6
CONTINUOUS
10
0.754921
20
1.83071
11
0.615157
21
1.83071
0
LINE
8
BLACK
6
CONTINUOUS
10
1.27067
20
2.13878
11
1.27137
21
2.13849
0
LINE
8
BLACK
6
CONTINUOUS
10
1.27137
20
2.13849
11
1.27165
21
2.1378
0
LINE
8
BLACK
6
CONTINUOUS
10
1.27165
20
2.1378
11
1.27165
21
1.89567
0
LINE
8
BLACK
6
CONTINUOUS
10
1.27165
20
1.89567
11
1.27137
21
1.89497
0
LINE
8
BLACK
6
CONTINUOUS
10
1.27137
20
1.89497
11
1.27067
21
1.89469
0
LINE
8
BLACK
6
CONTINUOUS
10
1.27067
20
1.89469
11
0.729331
21
1.89469
0
LINE
8
BLACK
6
CONTINUOUS
10
0.729331
20
1.89469
11
0.728635
21
1.89497
0
LINE
8
BLACK
6
CONTINUOUS
10
0.728635
20
1.89497
11
0.728346
21
1.89567
0
LINE
8
BLACK
6
CONTINUOUS
10
0.728346
20
1.89567
11
0.728346
21
2.1378
0
LINE
8
BLACK
6
CONTINUOUS
10
0.728346
20
2.1378
11
0.728635
21
2.13849
0
LINE
8
BLACK
6
CONTINUOUS
10
0.728635
20
2.13849
11
0.729331
21
2.13878
0
LINE
8
BLACK
6
CONTINUOUS
10
0.729331
20
2.13878
11
1.27067
21
2.13878
0
LINE
8
BLACK
6
CONTINUOUS
10
0.730315
20
2.13681
11
0.730315
21
1.89665
0
LINE
8
BLACK
6
CONTINUOUS
10
0.730315
20
1.89665
11
1.26969
21
1.89665
0
LINE
8
BLACK
6
CONTINUOUS
10
1.26969
20
1.89665
11
1.26969
21
2.13681
0
LINE
8
BLACK
6
CONTINUOUS
10
1.26969
20
2.13681
11
0.730315
21
2.13681
  0
ENDSEC
  0
EOF
