  0
SECTION
  2
HEADER
  9
$ANGBASE
  50
0.0
  9
$ANGDIR
  70
1
  9
$MEASUREMENT
  70
0
  0
ENDSEC
  0
SECTION
  2
TABLES
  0
TABLE
  2
LTYPE
  70
4
  0
LTYPE
  5
40F
  2
CONTINUOUS
  70
0
  3
Solid line
  72
65
  73
0
  40
0.0
  0
LTYPE
  5
410
  2
DASHDOT
 70
0
  3
Dash Dot ____ _ ____ _
 72
65
 73
4
 40
2.0
 49
1.25
 49
-0.25
 49
0.25
 49
-0.25
  0
LTYPE
  5
411
  2
DASHED
 70
0
  3
Dashed __ __ __ __ __
 72
65
 73
2
 40
0.75
 49
0.5
 49
-0.25
  0
LTYPE
  5
43B
  2
DOTTED
 70
0
  3
Dotted .  .  .  .
 72
65
 73
2
 40
0.2
 49
0.0
 49
-0.2
  0
ENDTAB
  0
TABLE
  2
STYLE
  70
4
  0
STYLE
  2
KICAD
  70
0
  40
0
  41
1
  42
1
  50
0
  71
0
  3
isocp.shx
  0
STYLE
  2
KICADB
  70
0
  40
0
  41
1
  42
1
  50
0
  71
0
  3
isocp.shx
  0
STYLE
  2
KICADI
  70
0
  40
0
  41
1
  42
1
  50
15
  71
0
  3
isocp.shx
  0
STYLE
  2
KICADBI
  70
0
  40
0
  41
1
  42
1
  50
15
  71
0
  3
isocp.shx
  0
ENDTAB
  0
TABLE
  2
LAYER
  70
1
  0
LAYER
  2
BLACK
  70
0
  62
7
  6
CONTINUOUS
  0
ENDTAB
  0
ENDSEC
  0
SECTION
  2
ENTITIES
0
LINE
8
BLACK
6
CONTINUOUS
10
1.20079
20
0.540945
11
1.20148
21
0.540657
0
LINE
8
BLACK
6
CONTINUOUS
10
1.20148
20
0.540657
11
1.20177
21
0.539961
0
LINE
8
BLACK
6
CONTINUOUS
10
1.20177
20
0.539961
11
1.20177
21
0.208071
0
LINE
8
BLACK
6
CONTINUOUS
10
1.20177
20
0.208071
11
1.20148
21
0.207375
0
LINE
8
BLACK
6
CONTINUOUS
10
1.20148
20
0.207375
11
1.20079
21
0.207087
0
LINE
8
BLACK
6
CONTINUOUS
10
1.20079
20
0.207087
11
0.799213
21
0.207087
0
LINE
8
BLACK
6
CONTINUOUS
10
0.799213
20
0.207087
11
0.798517
21
0.207375
0
LINE
8
BLACK
6
CONTINUOUS
10
0.798517
20
0.207375
11
0.798228
21
0.208071
0
LINE
8
BLACK
6
CONTINUOUS
10
0.798228
20
0.208071
11
0.798228
21
0.539961
0
LINE
8
BLACK
6
CONTINUOUS
10
0.798228
20
0.539961
11
0.798517
21
0.540657
0
LINE
8
BLACK
6
CONTINUOUS
10
0.798517
20
0.540657
11
0.799213
21
0.540945
0
LINE
8
BLACK
6
CONTINUOUS
10
0.799213
20
0.540945
11
1.20079
21
0.540945
0
LINE
8
BLACK
6
CONTINUOUS
10
0.800197
20
0.538976
11
0.800197
21
0.209055
0
LINE
8
BLACK
6
CONTINUOUS
10
0.800197
20
0.209055
11
1.1998
21
0.209055
0
LINE
8
BLACK
6
CONTINUOUS
10
1.1998
20
0.209055
11
1.1998
21
0.538976
0
LINE
8
BLACK
6
CONTINUOUS
10
1.1998
20
0.538976
11
0.800197
21
0.538976
0
LINE
8
BLACK
6
CONTINUOUS
10
0.718898
20
0.486319
11
0.719594
21
0.486031
0
LINE
8
BLACK
6
CONTINUOUS
10
0.719594
20
0.486031
11
0.719882
21
0.485335
0
LINE
8
BLACK
6
CONTINUOUS
10
0.719882
20
0.485335
11
0.719882
21
0.353051
0
LINE
8
BLACK
6
CONTINUOUS
10
0.719882
20
0.353051
11
0.719594
21
0.352355
0
LINE
8
BLACK
6
CONTINUOUS
10
0.719594
20
0.352355
11
0.718898
21
0.352067
0
LINE
8
BLACK
6
CONTINUOUS
10
0.718898
20
0.352067
11
0.644094
21
0.352067
0
LINE
8
BLACK
6
CONTINUOUS
10
0.644094
20
0.352067
11
0.643399
21
0.352355
0
LINE
8
BLACK
6
CONTINUOUS
10
0.643399
20
0.352355
11
0.64311
21
0.353051
0
LINE
8
BLACK
6
CONTINUOUS
10
0.64311
20
0.353051
11
0.64311
21
0.485335
0
LINE
8
BLACK
6
CONTINUOUS
10
0.64311
20
0.485335
11
0.643399
21
0.486031
0
LINE
8
BLACK
6
CONTINUOUS
10
0.643399
20
0.486031
11
0.644094
21
0.486319
0
LINE
8
BLACK
6
CONTINUOUS
10
0.644094
20
0.486319
11
0.718898
21
0.486319
0
LINE
8
BLACK
6
CONTINUOUS
10
0.645079
20
0.48435
11
0.645079
21
0.354035
0
LINE
8
BLACK
6
CONTINUOUS
10
0.645079
20
0.354035
11
0.717913
21
0.354035
0
LINE
8
BLACK
6
CONTINUOUS
10
0.717913
20
0.354035
11
0.717913
21
0.48435
0
LINE
8
BLACK
6
CONTINUOUS
10
0.717913
20
0.48435
11
0.645079
21
0.48435
0
LINE
8
BLACK
6
CONTINUOUS
10
0.638583
20
0.486713
11
0.639279
21
0.486424
0
LINE
8
BLACK
6
CONTINUOUS
10
0.639279
20
0.486424
11
0.639567
21
0.485728
0
LINE
8
BLACK
6
CONTINUOUS
10
0.639567
20
0.485728
11
0.639567
21
0.353445
0
LINE
8
BLACK
6
CONTINUOUS
10
0.639567
20
0.353445
11
0.639279
21
0.352749
0
LINE
8
BLACK
6
CONTINUOUS
10
0.639279
20
0.352749
11
0.638583
21
0.352461
0
LINE
8
BLACK
6
CONTINUOUS
10
0.638583
20
0.352461
11
0.56378
21
0.352461
0
LINE
8
BLACK
6
CONTINUOUS
10
0.56378
20
0.352461
11
0.563084
21
0.352749
0
LINE
8
BLACK
6
CONTINUOUS
10
0.563084
20
0.352749
11
0.562795
21
0.353445
0
LINE
8
BLACK
6
CONTINUOUS
10
0.562795
20
0.353445
11
0.562795
21
0.485728
0
LINE
8
BLACK
6
CONTINUOUS
10
0.562795
20
0.485728
11
0.563084
21
0.486424
0
LINE
8
BLACK
6
CONTINUOUS
10
0.563084
20
0.486424
11
0.56378
21
0.486713
0
LINE
8
BLACK
6
CONTINUOUS
10
0.56378
20
0.486713
11
0.638583
21
0.486713
0
LINE
8
BLACK
6
CONTINUOUS
10
0.564764
20
0.484744
11
0.564764
21
0.354429
0
LINE
8
BLACK
6
CONTINUOUS
10
0.564764
20
0.354429
11
0.637598
21
0.354429
0
LINE
8
BLACK
6
CONTINUOUS
10
0.637598
20
0.354429
11
0.637598
21
0.484744
0
LINE
8
BLACK
6
CONTINUOUS
10
0.637598
20
0.484744
11
0.564764
21
0.484744
0
LINE
8
BLACK
6
CONTINUOUS
10
1.27643
20
0.560458
11
1.28488
21
0.558193
0
LINE
8
BLACK
6
CONTINUOUS
10
1.28488
20
0.558193
11
1.29281
21
0.554495
0
LINE
8
BLACK
6
CONTINUOUS
10
1.29281
20
0.554495
11
1.29998
21
0.549477
0
LINE
8
BLACK
6
CONTINUOUS
10
1.29998
20
0.549477
11
1.30617
21
0.54329
0
LINE
8
BLACK
6
CONTINUOUS
10
1.30617
20
0.54329
11
1.31119
21
0.536122
0
LINE
8
BLACK
6
CONTINUOUS
10
1.31119
20
0.536122
11
1.31489
21
0.528192
0
LINE
8
BLACK
6
CONTINUOUS
10
1.31489
20
0.528192
11
1.31715
21
0.51974
0
LINE
8
BLACK
6
CONTINUOUS
10
1.31715
20
0.51974
11
1.31791
21
0.511024
0
LINE
8
BLACK
6
CONTINUOUS
10
1.31791
20
0.511024
11
1.31715
21
0.502307
0
LINE
8
BLACK
6
CONTINUOUS
10
1.31715
20
0.502307
11
1.31489
21
0.493855
0
LINE
8
BLACK
6
CONTINUOUS
10
1.31489
20
0.493855
11
1.31119
21
0.485925
0
LINE
8
BLACK
6
CONTINUOUS
10
1.31119
20
0.485925
11
1.30617
21
0.478758
0
LINE
8
BLACK
6
CONTINUOUS
10
1.30617
20
0.478758
11
1.29998
21
0.472571
0
LINE
8
BLACK
6
CONTINUOUS
10
1.29998
20
0.472571
11
1.29281
21
0.467552
0
LINE
8
BLACK
6
CONTINUOUS
10
1.29281
20
0.467552
11
1.28488
21
0.463854
0
LINE
8
BLACK
6
CONTINUOUS
10
1.28488
20
0.463854
11
1.27643
21
0.461589
0
LINE
8
BLACK
6
CONTINUOUS
10
1.27643
20
0.461589
11
1.26772
21
0.460827
0
LINE
8
BLACK
6
CONTINUOUS
10
1.26772
20
0.460827
11
1.259
21
0.461589
0
LINE
8
BLACK
6
CONTINUOUS
10
1.259
20
0.461589
11
1.25055
21
0.463854
0
LINE
8
BLACK
6
CONTINUOUS
10
1.25055
20
0.463854
11
1.24262
21
0.467552
0
LINE
8
BLACK
6
CONTINUOUS
10
1.24262
20
0.467552
11
1.23545
21
0.472571
0
LINE
8
BLACK
6
CONTINUOUS
10
1.23545
20
0.472571
11
1.22926
21
0.478758
0
LINE
8
BLACK
6
CONTINUOUS
10
1.22926
20
0.478758
11
1.22424
21
0.485925
0
LINE
8
BLACK
6
CONTINUOUS
10
1.22424
20
0.485925
11
1.22055
21
0.493855
0
LINE
8
BLACK
6
CONTINUOUS
10
1.22055
20
0.493855
11
1.21828
21
0.502307
0
LINE
8
BLACK
6
CONTINUOUS
10
1.21828
20
0.502307
11
1.21752
21
0.511024
0
LINE
8
BLACK
6
CONTINUOUS
10
1.21752
20
0.511024
11
1.21828
21
0.51974
0
LINE
8
BLACK
6
CONTINUOUS
10
1.21828
20
0.51974
11
1.22055
21
0.528192
0
LINE
8
BLACK
6
CONTINUOUS
10
1.22055
20
0.528192
11
1.22424
21
0.536122
0
LINE
8
BLACK
6
CONTINUOUS
10
1.22424
20
0.536122
11
1.22926
21
0.54329
0
LINE
8
BLACK
6
CONTINUOUS
10
1.22926
20
0.54329
11
1.23545
21
0.549477
0
LINE
8
BLACK
6
CONTINUOUS
10
1.23545
20
0.549477
11
1.24262
21
0.554495
0
LINE
8
BLACK
6
CONTINUOUS
10
1.24262
20
0.554495
11
1.25055
21
0.558193
0
LINE
8
BLACK
6
CONTINUOUS
10
1.25055
20
0.558193
11
1.259
21
0.560458
0
LINE
8
BLACK
6
CONTINUOUS
10
1.259
20
0.560458
11
1.26772
21
0.56122
0
LINE
8
BLACK
6
CONTINUOUS
10
1.26772
20
0.56122
11
1.27643
21
0.560458
0
LINE
8
BLACK
6
CONTINUOUS
10
1.22004
20
0.502617
11
1.22222
21
0.494466
0
LINE
8
BLACK
6
CONTINUOUS
10
1.22222
20
0.494466
11
1.22579
21
0.486817
0
LINE
8
BLACK
6
CONTINUOUS
10
1.22579
20
0.486817
11
1.23063
21
0.479905
0
LINE
8
BLACK
6
CONTINUOUS
10
1.23063
20
0.479905
11
1.2366
21
0.473937
0
LINE
8
BLACK
6
CONTINUOUS
10
1.2366
20
0.473937
11
1.24351
21
0.469097
0
LINE
8
BLACK
6
CONTINUOUS
10
1.24351
20
0.469097
11
1.25116
21
0.465531
0
LINE
8
BLACK
6
CONTINUOUS
10
1.25116
20
0.465531
11
1.25931
21
0.463347
0
LINE
8
BLACK
6
CONTINUOUS
10
1.25931
20
0.463347
11
1.26772
21
0.462611
0
LINE
8
BLACK
6
CONTINUOUS
10
1.26772
20
0.462611
11
1.27612
21
0.463347
0
LINE
8
BLACK
6
CONTINUOUS
10
1.27612
20
0.463347
11
1.28427
21
0.465531
0
LINE
8
BLACK
6
CONTINUOUS
10
1.28427
20
0.465531
11
1.29192
21
0.469097
0
LINE
8
BLACK
6
CONTINUOUS
10
1.29192
20
0.469097
11
1.29884
21
0.473937
0
LINE
8
BLACK
6
CONTINUOUS
10
1.29884
20
0.473937
11
1.3048
21
0.479905
0
LINE
8
BLACK
6
CONTINUOUS
10
1.3048
20
0.479905
11
1.30964
21
0.486817
0
LINE
8
BLACK
6
CONTINUOUS
10
1.30964
20
0.486817
11
1.31321
21
0.494466
0
LINE
8
BLACK
6
CONTINUOUS
10
1.31321
20
0.494466
11
1.31539
21
0.502617
0
LINE
8
BLACK
6
CONTINUOUS
10
1.31539
20
0.502617
11
1.31613
21
0.511024
0
LINE
8
BLACK
6
CONTINUOUS
10
1.31613
20
0.511024
11
1.31539
21
0.51943
0
LINE
8
BLACK
6
CONTINUOUS
10
1.31539
20
0.51943
11
1.31321
21
0.527582
0
LINE
8
BLACK
6
CONTINUOUS
10
1.31321
20
0.527582
11
1.30964
21
0.53523
0
LINE
8
BLACK
6
CONTINUOUS
10
1.30964
20
0.53523
11
1.3048
21
0.542143
0
LINE
8
BLACK
6
CONTINUOUS
10
1.3048
20
0.542143
11
1.29884
21
0.54811
0
LINE
8
BLACK
6
CONTINUOUS
10
1.29884
20
0.54811
11
1.29192
21
0.55295
0
LINE
8
BLACK
6
CONTINUOUS
10
1.29192
20
0.55295
11
1.28427
21
0.556517
0
LINE
8
BLACK
6
CONTINUOUS
10
1.28427
20
0.556517
11
1.27612
21
0.558701
0
LINE
8
BLACK
6
CONTINUOUS
10
1.27612
20
0.558701
11
1.26772
21
0.559436
0
LINE
8
BLACK
6
CONTINUOUS
10
1.26772
20
0.559436
11
1.25931
21
0.558701
0
LINE
8
BLACK
6
CONTINUOUS
10
1.25931
20
0.558701
11
1.25116
21
0.556517
0
LINE
8
BLACK
6
CONTINUOUS
10
1.25116
20
0.556517
11
1.24351
21
0.55295
0
LINE
8
BLACK
6
CONTINUOUS
10
1.24351
20
0.55295
11
1.2366
21
0.54811
0
LINE
8
BLACK
6
CONTINUOUS
10
1.2366
20
0.54811
11
1.23063
21
0.542143
0
LINE
8
BLACK
6
CONTINUOUS
10
1.23063
20
0.542143
11
1.22579
21
0.53523
0
LINE
8
BLACK
6
CONTINUOUS
10
1.22579
20
0.53523
11
1.22222
21
0.527582
0
LINE
8
BLACK
6
CONTINUOUS
10
1.22222
20
0.527582
11
1.22004
21
0.51943
0
LINE
8
BLACK
6
CONTINUOUS
10
1.22004
20
0.51943
11
1.2193
21
0.511024
0
LINE
8
BLACK
6
CONTINUOUS
10
1.2193
20
0.511024
11
1.22004
21
0.502617
0
LINE
8
BLACK
6
CONTINUOUS
10
0.768504
20
0.62372
11
0.7692
21
0.623432
0
LINE
8
BLACK
6
CONTINUOUS
10
0.7692
20
0.623432
11
0.769488
21
0.622736
0
LINE
8
BLACK
6
CONTINUOUS
10
0.769488
20
0.622736
11
0.769488
21
0.490453
0
LINE
8
BLACK
6
CONTINUOUS
10
0.769488
20
0.490453
11
0.7692
21
0.489757
0
LINE
8
BLACK
6
CONTINUOUS
10
0.7692
20
0.489757
11
0.768504
21
0.489469
0
LINE
8
BLACK
6
CONTINUOUS
10
0.768504
20
0.489469
11
0.693701
21
0.489469
0
LINE
8
BLACK
6
CONTINUOUS
10
0.693701
20
0.489469
11
0.693005
21
0.489757
0
LINE
8
BLACK
6
CONTINUOUS
10
0.693005
20
0.489757
11
0.692717
21
0.490453
0
LINE
8
BLACK
6
CONTINUOUS
10
0.692717
20
0.490453
11
0.692717
21
0.622736
0
LINE
8
BLACK
6
CONTINUOUS
10
0.692717
20
0.622736
11
0.693005
21
0.623432
0
LINE
8
BLACK
6
CONTINUOUS
10
0.693005
20
0.623432
11
0.693701
21
0.62372
0
LINE
8
BLACK
6
CONTINUOUS
10
0.693701
20
0.62372
11
0.768504
21
0.62372
0
LINE
8
BLACK
6
CONTINUOUS
10
0.694685
20
0.621752
11
0.694685
21
0.491437
0
LINE
8
BLACK
6
CONTINUOUS
10
0.694685
20
0.491437
11
0.76752
21
0.491437
0
LINE
8
BLACK
6
CONTINUOUS
10
0.76752
20
0.491437
11
0.76752
21
0.621752
0
LINE
8
BLACK
6
CONTINUOUS
10
0.76752
20
0.621752
11
0.694685
21
0.621752
0
LINE
8
BLACK
6
CONTINUOUS
10
0.604724
20
0.623917
11
0.60542
21
0.623629
0
LINE
8
BLACK
6
CONTINUOUS
10
0.60542
20
0.623629
11
0.605709
21
0.622933
0
LINE
8
BLACK
6
CONTINUOUS
10
0.605709
20
0.622933
11
0.605709
21
0.49065
0
LINE
8
BLACK
6
CONTINUOUS
10
0.605709
20
0.49065
11
0.60542
21
0.489954
0
LINE
8
BLACK
6
CONTINUOUS
10
0.60542
20
0.489954
11
0.604724
21
0.489665
0
LINE
8
BLACK
6
CONTINUOUS
10
0.604724
20
0.489665
11
0.529921
21
0.489665
0
LINE
8
BLACK
6
CONTINUOUS
10
0.529921
20
0.489665
11
0.529225
21
0.489954
0
LINE
8
BLACK
6
CONTINUOUS
10
0.529225
20
0.489954
11
0.528937
21
0.49065
0
LINE
8
BLACK
6
CONTINUOUS
10
0.528937
20
0.49065
11
0.528937
21
0.622933
0
LINE
8
BLACK
6
CONTINUOUS
10
0.528937
20
0.622933
11
0.529225
21
0.623629
0
LINE
8
BLACK
6
CONTINUOUS
10
0.529225
20
0.623629
11
0.529921
21
0.623917
0
LINE
8
BLACK
6
CONTINUOUS
10
0.529921
20
0.623917
11
0.604724
21
0.623917
0
LINE
8
BLACK
6
CONTINUOUS
10
0.530906
20
0.621949
11
0.530906
21
0.491634
0
LINE
8
BLACK
6
CONTINUOUS
10
0.530906
20
0.491634
11
0.60374
21
0.491634
0
LINE
8
BLACK
6
CONTINUOUS
10
0.60374
20
0.491634
11
0.60374
21
0.621949
0
LINE
8
BLACK
6
CONTINUOUS
10
0.60374
20
0.621949
11
0.530906
21
0.621949
0
LINE
8
BLACK
6
CONTINUOUS
10
0.68622
20
0.623917
11
0.686916
21
0.623629
0
LINE
8
BLACK
6
CONTINUOUS
10
0.686916
20
0.623629
11
0.687205
21
0.622933
0
LINE
8
BLACK
6
CONTINUOUS
10
0.687205
20
0.622933
11
0.687205
21
0.49065
0
LINE
8
BLACK
6
CONTINUOUS
10
0.687205
20
0.49065
11
0.686916
21
0.489954
0
LINE
8
BLACK
6
CONTINUOUS
10
0.686916
20
0.489954
11
0.68622
21
0.489665
0
LINE
8
BLACK
6
CONTINUOUS
10
0.68622
20
0.489665
11
0.611417
21
0.489665
0
LINE
8
BLACK
6
CONTINUOUS
10
0.611417
20
0.489665
11
0.610721
21
0.489954
0
LINE
8
BLACK
6
CONTINUOUS
10
0.610721
20
0.489954
11
0.610433
21
0.49065
0
LINE
8
BLACK
6
CONTINUOUS
10
0.610433
20
0.49065
11
0.610433
21
0.622933
0
LINE
8
BLACK
6
CONTINUOUS
10
0.610433
20
0.622933
11
0.610721
21
0.623629
0
LINE
8
BLACK
6
CONTINUOUS
10
0.610721
20
0.623629
11
0.611417
21
0.623917
0
LINE
8
BLACK
6
CONTINUOUS
10
0.611417
20
0.623917
11
0.68622
21
0.623917
0
LINE
8
BLACK
6
CONTINUOUS
10
0.612402
20
0.621949
11
0.612402
21
0.491634
0
LINE
8
BLACK
6
CONTINUOUS
10
0.612402
20
0.491634
11
0.685236
21
0.491634
0
LINE
8
BLACK
6
CONTINUOUS
10
0.685236
20
0.491634
11
0.685236
21
0.621949
0
LINE
8
BLACK
6
CONTINUOUS
10
0.685236
20
0.621949
11
0.612402
21
0.621949
0
LINE
8
BLACK
6
CONTINUOUS
10
1.46821
20
0.573819
11
1.4689
21
0.573531
0
LINE
8
BLACK
6
CONTINUOUS
10
1.4689
20
0.573531
11
1.46919
21
0.572835
0
LINE
8
BLACK
6
CONTINUOUS
10
1.46919
20
0.572835
11
1.46919
21
0.498031
0
LINE
8
BLACK
6
CONTINUOUS
10
1.46919
20
0.498031
11
1.4689
21
0.497336
0
LINE
8
BLACK
6
CONTINUOUS
10
1.4689
20
0.497336
11
1.46821
21
0.497047
0
LINE
8
BLACK
6
CONTINUOUS
10
1.46821
20
0.497047
11
1.33593
21
0.497047
0
LINE
8
BLACK
6
CONTINUOUS
10
1.33593
20
0.497047
11
1.33523
21
0.497336
0
LINE
8
BLACK
6
CONTINUOUS
10
1.33523
20
0.497336
11
1.33494
21
0.498031
0
LINE
8
BLACK
6
CONTINUOUS
10
1.33494
20
0.498031
11
1.33494
21
0.572835
0
LINE
8
BLACK
6
CONTINUOUS
10
1.33494
20
0.572835
11
1.33523
21
0.573531
0
LINE
8
BLACK
6
CONTINUOUS
10
1.33523
20
0.573531
11
1.33593
21
0.573819
0
LINE
8
BLACK
6
CONTINUOUS
10
1.33593
20
0.573819
11
1.46821
21
0.573819
0
LINE
8
BLACK
6
CONTINUOUS
10
1.33691
20
0.57185
11
1.33691
21
0.499016
0
LINE
8
BLACK
6
CONTINUOUS
10
1.33691
20
0.499016
11
1.46722
21
0.499016
0
LINE
8
BLACK
6
CONTINUOUS
10
1.46722
20
0.499016
11
1.46722
21
0.57185
0
LINE
8
BLACK
6
CONTINUOUS
10
1.46722
20
0.57185
11
1.33691
21
0.57185
0
LINE
8
BLACK
6
CONTINUOUS
10
0.482283
20
0.688484
11
0.482979
21
0.688196
0
LINE
8
BLACK
6
CONTINUOUS
10
0.482979
20
0.688196
11
0.483268
21
0.6875
0
LINE
8
BLACK
6
CONTINUOUS
10
0.483268
20
0.6875
11
0.483268
21
0.555217
0
LINE
8
BLACK
6
CONTINUOUS
10
0.483268
20
0.555217
11
0.482979
21
0.554521
0
LINE
8
BLACK
6
CONTINUOUS
10
0.482979
20
0.554521
11
0.482283
21
0.554232
0
LINE
8
BLACK
6
CONTINUOUS
10
0.482283
20
0.554232
11
0.40748
21
0.554232
0
LINE
8
BLACK
6
CONTINUOUS
10
0.40748
20
0.554232
11
0.406784
21
0.554521
0
LINE
8
BLACK
6
CONTINUOUS
10
0.406784
20
0.554521
11
0.406496
21
0.555217
0
LINE
8
BLACK
6
CONTINUOUS
10
0.406496
20
0.555217
11
0.406496
21
0.6875
0
LINE
8
BLACK
6
CONTINUOUS
10
0.406496
20
0.6875
11
0.406784
21
0.688196
0
LINE
8
BLACK
6
CONTINUOUS
10
0.406784
20
0.688196
11
0.40748
21
0.688484
0
LINE
8
BLACK
6
CONTINUOUS
10
0.40748
20
0.688484
11
0.482283
21
0.688484
0
LINE
8
BLACK
6
CONTINUOUS
10
0.408465
20
0.686516
11
0.408465
21
0.556201
0
LINE
8
BLACK
6
CONTINUOUS
10
0.408465
20
0.556201
11
0.481299
21
0.556201
0
LINE
8
BLACK
6
CONTINUOUS
10
0.481299
20
0.556201
11
0.481299
21
0.686516
0
LINE
8
BLACK
6
CONTINUOUS
10
0.481299
20
0.686516
11
0.408465
21
0.686516
0
LINE
8
BLACK
6
CONTINUOUS
10
0.375984
20
0.689665
11
0.37668
21
0.689377
0
LINE
8
BLACK
6
CONTINUOUS
10
0.37668
20
0.689377
11
0.376969
21
0.688681
0
LINE
8
BLACK
6
CONTINUOUS
10
0.376969
20
0.688681
11
0.376969
21
0.556398
0
LINE
8
BLACK
6
CONTINUOUS
10
0.376969
20
0.556398
11
0.37668
21
0.555702
0
LINE
8
BLACK
6
CONTINUOUS
10
0.37668
20
0.555702
11
0.375984
21
0.555413
0
LINE
8
BLACK
6
CONTINUOUS
10
0.375984
20
0.555413
11
0.301181
21
0.555413
0
LINE
8
BLACK
6
CONTINUOUS
10
0.301181
20
0.555413
11
0.300485
21
0.555702
0
LINE
8
BLACK
6
CONTINUOUS
10
0.300485
20
0.555702
11
0.300197
21
0.556398
0
LINE
8
BLACK
6
CONTINUOUS
10
0.300197
20
0.556398
11
0.300197
21
0.688681
0
LINE
8
BLACK
6
CONTINUOUS
10
0.300197
20
0.688681
11
0.300485
21
0.689377
0
LINE
8
BLACK
6
CONTINUOUS
10
0.300485
20
0.689377
11
0.301181
21
0.689665
0
LINE
8
BLACK
6
CONTINUOUS
10
0.301181
20
0.689665
11
0.375984
21
0.689665
0
LINE
8
BLACK
6
CONTINUOUS
10
0.302165
20
0.687697
11
0.302165
21
0.557382
0
LINE
8
BLACK
6
CONTINUOUS
10
0.302165
20
0.557382
11
0.375
21
0.557382
0
LINE
8
BLACK
6
CONTINUOUS
10
0.375
20
0.557382
11
0.375
21
0.687697
0
LINE
8
BLACK
6
CONTINUOUS
10
0.375
20
0.687697
11
0.302165
21
0.687697
0
LINE
8
BLACK
6
CONTINUOUS
10
1.49587
20
0.790945
11
1.49656
21
0.790657
0
LINE
8
BLACK
6
CONTINUOUS
10
1.49656
20
0.790657
11
1.49685
21
0.789961
0
LINE
8
BLACK
6
CONTINUOUS
10
1.49685
20
0.789961
11
1.49685
21
0.577362
0
LINE
8
BLACK
6
CONTINUOUS
10
1.49685
20
0.577362
11
1.49656
21
0.576666
0
LINE
8
BLACK
6
CONTINUOUS
10
1.49656
20
0.576666
11
1.49587
21
0.576378
0
LINE
8
BLACK
6
CONTINUOUS
10
1.49587
20
0.576378
11
1.20453
21
0.576378
0
LINE
8
BLACK
6
CONTINUOUS
10
1.20453
20
0.576378
11
1.20383
21
0.576666
0
LINE
8
BLACK
6
CONTINUOUS
10
1.20383
20
0.576666
11
1.20354
21
0.577362
0
LINE
8
BLACK
6
CONTINUOUS
10
1.20354
20
0.577362
11
1.20354
21
0.789961
0
LINE
8
BLACK
6
CONTINUOUS
10
1.20354
20
0.789961
11
1.20383
21
0.790657
0
LINE
8
BLACK
6
CONTINUOUS
10
1.20383
20
0.790657
11
1.20453
21
0.790945
0
LINE
8
BLACK
6
CONTINUOUS
10
1.20453
20
0.790945
11
1.49587
21
0.790945
0
LINE
8
BLACK
6
CONTINUOUS
10
1.20551
20
0.788976
11
1.20551
21
0.578346
0
LINE
8
BLACK
6
CONTINUOUS
10
1.20551
20
0.578346
11
1.49488
21
0.578346
0
LINE
8
BLACK
6
CONTINUOUS
10
1.49488
20
0.578346
11
1.49488
21
0.788976
0
LINE
8
BLACK
6
CONTINUOUS
10
1.49488
20
0.788976
11
1.20551
21
0.788976
0
LINE
8
BLACK
6
CONTINUOUS
10
1.1122
20
0.867815
11
1.1129
21
0.867527
0
LINE
8
BLACK
6
CONTINUOUS
10
1.1129
20
0.867527
11
1.11319
21
0.866831
0
LINE
8
BLACK
6
CONTINUOUS
10
1.11319
20
0.866831
11
1.11319
21
0.734547
0
LINE
8
BLACK
6
CONTINUOUS
10
1.11319
20
0.734547
11
1.1129
21
0.733851
0
LINE
8
BLACK
6
CONTINUOUS
10
1.1129
20
0.733851
11
1.1122
21
0.733563
0
LINE
8
BLACK
6
CONTINUOUS
10
1.1122
20
0.733563
11
1.0374
21
0.733563
0
LINE
8
BLACK
6
CONTINUOUS
10
1.0374
20
0.733563
11
1.03671
21
0.733851
0
LINE
8
BLACK
6
CONTINUOUS
10
1.03671
20
0.733851
11
1.03642
21
0.734547
0
LINE
8
BLACK
6
CONTINUOUS
10
1.03642
20
0.734547
11
1.03642
21
0.866831
0
LINE
8
BLACK
6
CONTINUOUS
10
1.03642
20
0.866831
11
1.03671
21
0.867527
0
LINE
8
BLACK
6
CONTINUOUS
10
1.03671
20
0.867527
11
1.0374
21
0.867815
0
LINE
8
BLACK
6
CONTINUOUS
10
1.0374
20
0.867815
11
1.1122
21
0.867815
0
LINE
8
BLACK
6
CONTINUOUS
10
1.03839
20
0.865846
11
1.03839
21
0.735531
0
LINE
8
BLACK
6
CONTINUOUS
10
1.03839
20
0.735531
11
1.11122
21
0.735531
0
LINE
8
BLACK
6
CONTINUOUS
10
1.11122
20
0.735531
11
1.11122
21
0.865846
0
LINE
8
BLACK
6
CONTINUOUS
10
1.11122
20
0.865846
11
1.03839
21
0.865846
0
LINE
8
BLACK
6
CONTINUOUS
10
1.41535
20
0.925886
11
1.41605
21
0.925598
0
LINE
8
BLACK
6
CONTINUOUS
10
1.41605
20
0.925598
11
1.41634
21
0.924902
0
LINE
8
BLACK
6
CONTINUOUS
10
1.41634
20
0.924902
11
1.41634
21
0.792618
0
LINE
8
BLACK
6
CONTINUOUS
10
1.41634
20
0.792618
11
1.41605
21
0.791922
0
LINE
8
BLACK
6
CONTINUOUS
10
1.41605
20
0.791922
11
1.41535
21
0.791634
0
LINE
8
BLACK
6
CONTINUOUS
10
1.41535
20
0.791634
11
1.34055
21
0.791634
0
LINE
8
BLACK
6
CONTINUOUS
10
1.34055
20
0.791634
11
1.33986
21
0.791922
0
LINE
8
BLACK
6
CONTINUOUS
10
1.33986
20
0.791922
11
1.33957
21
0.792618
0
LINE
8
BLACK
6
CONTINUOUS
10
1.33957
20
0.792618
11
1.33957
21
0.924902
0
LINE
8
BLACK
6
CONTINUOUS
10
1.33957
20
0.924902
11
1.33986
21
0.925598
0
LINE
8
BLACK
6
CONTINUOUS
10
1.33986
20
0.925598
11
1.34055
21
0.925886
0
LINE
8
BLACK
6
CONTINUOUS
10
1.34055
20
0.925886
11
1.41535
21
0.925886
0
LINE
8
BLACK
6
CONTINUOUS
10
1.34154
20
0.923917
11
1.34154
21
0.793602
0
LINE
8
BLACK
6
CONTINUOUS
10
1.34154
20
0.793602
11
1.41437
21
0.793602
0
LINE
8
BLACK
6
CONTINUOUS
10
1.41437
20
0.793602
11
1.41437
21
0.923917
0
LINE
8
BLACK
6
CONTINUOUS
10
1.41437
20
0.923917
11
1.34154
21
0.923917
0
LINE
8
BLACK
6
CONTINUOUS
10
1.25512
20
0.869094
11
1.25581
21
0.868806
0
LINE
8
BLACK
6
CONTINUOUS
10
1.25581
20
0.868806
11
1.2561
21
0.86811
0
LINE
8
BLACK
6
CONTINUOUS
10
1.2561
20
0.86811
11
1.2561
21
0.793307
0
LINE
8
BLACK
6
CONTINUOUS
10
1.2561
20
0.793307
11
1.25581
21
0.792611
0
LINE
8
BLACK
6
CONTINUOUS
10
1.25581
20
0.792611
11
1.25512
21
0.792323
0
LINE
8
BLACK
6
CONTINUOUS
10
1.25512
20
0.792323
11
1.12283
21
0.792323
0
LINE
8
BLACK
6
CONTINUOUS
10
1.12283
20
0.792323
11
1.12214
21
0.792611
0
LINE
8
BLACK
6
CONTINUOUS
10
1.12214
20
0.792611
11
1.12185
21
0.793307
0
LINE
8
BLACK
6
CONTINUOUS
10
1.12185
20
0.793307
11
1.12185
21
0.793307
0
LINE
8
BLACK
6
CONTINUOUS
10
1.12185
20
0.793307
11
1.12185
21
0.86811
0
LINE
8
BLACK
6
CONTINUOUS
10
1.12185
20
0.86811
11
1.12214
21
0.868806
0
LINE
8
BLACK
6
CONTINUOUS
10
1.12214
20
0.868806
11
1.12283
21
0.869094
0
LINE
8
BLACK
6
CONTINUOUS
10
1.12283
20
0.869094
11
1.25512
21
0.869094
0
LINE
8
BLACK
6
CONTINUOUS
10
1.12382
20
0.867126
11
1.12382
21
0.794291
0
LINE
8
BLACK
6
CONTINUOUS
10
1.12382
20
0.794291
11
1.25413
21
0.794291
0
LINE
8
BLACK
6
CONTINUOUS
10
1.25413
20
0.794291
11
1.25413
21
0.867126
0
LINE
8
BLACK
6
CONTINUOUS
10
1.25413
20
0.867126
11
1.12382
21
0.867126
0
LINE
8
BLACK
6
CONTINUOUS
10
1.49528
20
0.92815
11
1.49597
21
0.927861
0
LINE
8
BLACK
6
CONTINUOUS
10
1.49597
20
0.927861
11
1.49626
21
0.927165
0
LINE
8
BLACK
6
CONTINUOUS
10
1.49626
20
0.927165
11
1.49626
21
0.793307
0
LINE
8
BLACK
6
CONTINUOUS
10
1.49626
20
0.793307
11
1.49597
21
0.792611
0
LINE
8
BLACK
6
CONTINUOUS
10
1.49597
20
0.792611
11
1.49528
21
0.792323
0
LINE
8
BLACK
6
CONTINUOUS
10
1.49528
20
0.792323
11
1.41811
21
0.792323
0
LINE
8
BLACK
6
CONTINUOUS
10
1.41811
20
0.792323
11
1.41741
21
0.792611
0
LINE
8
BLACK
6
CONTINUOUS
10
1.41741
20
0.792611
11
1.41713
21
0.793307
0
LINE
8
BLACK
6
CONTINUOUS
10
1.41713
20
0.793307
11
1.41713
21
0.927165
0
LINE
8
BLACK
6
CONTINUOUS
10
1.41713
20
0.927165
11
1.41741
21
0.927861
0
LINE
8
BLACK
6
CONTINUOUS
10
1.41741
20
0.927861
11
1.41811
21
0.92815
0
LINE
8
BLACK
6
CONTINUOUS
10
1.41811
20
0.92815
11
1.49528
21
0.92815
0
LINE
8
BLACK
6
CONTINUOUS
10
1.41909
20
0.926181
11
1.41909
21
0.794291
0
LINE
8
BLACK
6
CONTINUOUS
10
1.41909
20
0.794291
11
1.49429
21
0.794291
0
LINE
8
BLACK
6
CONTINUOUS
10
1.49429
20
0.794291
11
1.49429
21
0.926181
0
LINE
8
BLACK
6
CONTINUOUS
10
1.49429
20
0.926181
11
1.41909
21
0.926181
0
LINE
8
BLACK
6
CONTINUOUS
10
1.33661
20
0.929331
11
1.33731
21
0.929042
0
LINE
8
BLACK
6
CONTINUOUS
10
1.33731
20
0.929042
11
1.3376
21
0.928346
0
LINE
8
BLACK
6
CONTINUOUS
10
1.3376
20
0.928346
11
1.3376
21
0.796063
0
LINE
8
BLACK
6
CONTINUOUS
10
1.3376
20
0.796063
11
1.33731
21
0.795367
0
LINE
8
BLACK
6
CONTINUOUS
10
1.33731
20
0.795367
11
1.33661
21
0.795079
0
LINE
8
BLACK
6
CONTINUOUS
10
1.33661
20
0.795079
11
1.26181
21
0.795079
0
LINE
8
BLACK
6
CONTINUOUS
10
1.26181
20
0.795079
11
1.26112
21
0.795367
0
LINE
8
BLACK
6
CONTINUOUS
10
1.26112
20
0.795367
11
1.26083
21
0.796063
0
LINE
8
BLACK
6
CONTINUOUS
10
1.26083
20
0.796063
11
1.26083
21
0.928346
0
LINE
8
BLACK
6
CONTINUOUS
10
1.26083
20
0.928346
11
1.26112
21
0.929042
0
LINE
8
BLACK
6
CONTINUOUS
10
1.26112
20
0.929042
11
1.26181
21
0.929331
0
LINE
8
BLACK
6
CONTINUOUS
10
1.26181
20
0.929331
11
1.33661
21
0.929331
0
LINE
8
BLACK
6
CONTINUOUS
10
1.2628
20
0.927362
11
1.2628
21
0.797047
0
LINE
8
BLACK
6
CONTINUOUS
10
1.2628
20
0.797047
11
1.33563
21
0.797047
0
LINE
8
BLACK
6
CONTINUOUS
10
1.33563
20
0.797047
11
1.33563
21
0.927362
0
LINE
8
BLACK
6
CONTINUOUS
10
1.33563
20
0.927362
11
1.2628
21
0.927362
0
LINE
8
BLACK
6
CONTINUOUS
10
1.06102
20
0.978543
11
1.06172
21
0.978255
0
LINE
8
BLACK
6
CONTINUOUS
10
1.06172
20
0.978255
11
1.06201
21
0.977559
0
LINE
8
BLACK
6
CONTINUOUS
10
1.06201
20
0.977559
11
1.06201
21
0.900394
0
LINE
8
BLACK
6
CONTINUOUS
10
1.06201
20
0.900394
11
1.06172
21
0.899698
0
LINE
8
BLACK
6
CONTINUOUS
10
1.06172
20
0.899698
11
1.06102
21
0.899409
0
LINE
8
BLACK
6
CONTINUOUS
10
1.06102
20
0.899409
11
0.927165
21
0.899409
0
LINE
8
BLACK
6
CONTINUOUS
10
0.927165
20
0.899409
11
0.926469
21
0.899698
0
LINE
8
BLACK
6
CONTINUOUS
10
0.926469
20
0.899698
11
0.926181
21
0.900394
0
LINE
8
BLACK
6
CONTINUOUS
10
0.926181
20
0.900394
11
0.926181
21
0.977559
0
LINE
8
BLACK
6
CONTINUOUS
10
0.926181
20
0.977559
11
0.926469
21
0.978255
0
LINE
8
BLACK
6
CONTINUOUS
10
0.926469
20
0.978255
11
0.927165
21
0.978543
0
LINE
8
BLACK
6
CONTINUOUS
10
0.927165
20
0.978543
11
1.06102
21
0.978543
0
LINE
8
BLACK
6
CONTINUOUS
10
0.92815
20
0.976575
11
0.92815
21
0.901378
0
LINE
8
BLACK
6
CONTINUOUS
10
0.92815
20
0.901378
11
1.06004
21
0.901378
0
LINE
8
BLACK
6
CONTINUOUS
10
1.06004
20
0.901378
11
1.06004
21
0.976575
0
LINE
8
BLACK
6
CONTINUOUS
10
1.06004
20
0.976575
11
0.92815
21
0.976575
0
LINE
8
BLACK
6
CONTINUOUS
10
1.27756
20
1.06634
11
1.27826
21
1.06605
0
LINE
8
BLACK
6
CONTINUOUS
10
1.27826
20
1.06605
11
1.27854
21
1.06535
0
LINE
8
BLACK
6
CONTINUOUS
10
1.27854
20
1.06535
11
1.27854
21
0.988189
0
LINE
8
BLACK
6
CONTINUOUS
10
1.27854
20
0.988189
11
1.27826
21
0.987493
0
LINE
8
BLACK
6
CONTINUOUS
10
1.27826
20
0.987493
11
1.27756
21
0.987205
0
LINE
8
BLACK
6
CONTINUOUS
10
1.27756
20
0.987205
11
1.1437
21
0.987205
0
LINE
8
BLACK
6
CONTINUOUS
10
1.1437
20
0.987205
11
1.143
21
0.987493
0
LINE
8
BLACK
6
CONTINUOUS
10
1.143
20
0.987493
11
1.14272
21
0.988189
0
LINE
8
BLACK
6
CONTINUOUS
10
1.14272
20
0.988189
11
1.14272
21
1.06535
0
LINE
8
BLACK
6
CONTINUOUS
10
1.14272
20
1.06535
11
1.143
21
1.06605
0
LINE
8
BLACK
6
CONTINUOUS
10
1.143
20
1.06605
11
1.1437
21
1.06634
0
LINE
8
BLACK
6
CONTINUOUS
10
1.1437
20
1.06634
11
1.27756
21
1.06634
0
LINE
8
BLACK
6
CONTINUOUS
10
1.14469
20
1.06437
11
1.14469
21
0.989173
0
LINE
8
BLACK
6
CONTINUOUS
10
1.14469
20
0.989173
11
1.27657
21
0.989173
0
LINE
8
BLACK
6
CONTINUOUS
10
1.27657
20
0.989173
11
1.27657
21
1.06437
0
LINE
8
BLACK
6
CONTINUOUS
10
1.27657
20
1.06437
11
1.14469
21
1.06437
0
LINE
8
BLACK
6
CONTINUOUS
10
1.45591
20
1.12815
11
1.4566
21
1.12786
0
LINE
8
BLACK
6
CONTINUOUS
10
1.4566
20
1.12786
11
1.45689
21
1.12717
0
LINE
8
BLACK
6
CONTINUOUS
10
1.45689
20
1.12717
11
1.45689
21
0.993307
0
LINE
8
BLACK
6
CONTINUOUS
10
1.45689
20
0.993307
11
1.4566
21
0.992611
0
LINE
8
BLACK
6
CONTINUOUS
10
1.4566
20
0.992611
11
1.45591
21
0.992323
0
LINE
8
BLACK
6
CONTINUOUS
10
1.45591
20
0.992323
11
1.37874
21
0.992323
0
LINE
8
BLACK
6
CONTINUOUS
10
1.37874
20
0.992323
11
1.37804
21
0.992611
0
LINE
8
BLACK
6
CONTINUOUS
10
1.37804
20
0.992611
11
1.37776
21
0.993307
0
LINE
8
BLACK
6
CONTINUOUS
10
1.37776
20
0.993307
11
1.37776
21
1.12717
0
LINE
8
BLACK
6
CONTINUOUS
10
1.37776
20
1.12717
11
1.37804
21
1.12786
0
LINE
8
BLACK
6
CONTINUOUS
10
1.37804
20
1.12786
11
1.37874
21
1.12815
0
LINE
8
BLACK
6
CONTINUOUS
10
1.37874
20
1.12815
11
1.45591
21
1.12815
0
LINE
8
BLACK
6
CONTINUOUS
10
1.37972
20
1.12618
11
1.37972
21
0.994291
0
LINE
8
BLACK
6
CONTINUOUS
10
1.37972
20
0.994291
11
1.45492
21
0.994291
0
LINE
8
BLACK
6
CONTINUOUS
10
1.45492
20
0.994291
11
1.45492
21
1.12618
0
LINE
8
BLACK
6
CONTINUOUS
10
1.45492
20
1.12618
11
1.37972
21
1.12618
0
LINE
8
BLACK
6
CONTINUOUS
10
1.74409
20
1.38602
11
1.74479
21
1.38574
0
LINE
8
BLACK
6
CONTINUOUS
10
1.74479
20
1.38574
11
1.74508
21
1.38504
0
LINE
8
BLACK
6
CONTINUOUS
10
1.74508
20
1.38504
11
1.74508
21
1.03858
0
LINE
8
BLACK
6
CONTINUOUS
10
1.74508
20
1.03858
11
1.74479
21
1.03789
0
LINE
8
BLACK
6
CONTINUOUS
10
1.74479
20
1.03789
11
1.74409
21
1.0376
0
LINE
8
BLACK
6
CONTINUOUS
10
1.74409
20
1.0376
11
1.46063
21
1.0376
0
LINE
8
BLACK
6
CONTINUOUS
10
1.46063
20
1.0376
11
1.45993
21
1.03789
0
LINE
8
BLACK
6
CONTINUOUS
10
1.45993
20
1.03789
11
1.45965
21
1.03858
0
LINE
8
BLACK
6
CONTINUOUS
10
1.45965
20
1.03858
11
1.45965
21
1.38504
0
LINE
8
BLACK
6
CONTINUOUS
10
1.45965
20
1.38504
11
1.45993
21
1.38574
0
LINE
8
BLACK
6
CONTINUOUS
10
1.45993
20
1.38574
11
1.46063
21
1.38602
0
LINE
8
BLACK
6
CONTINUOUS
10
1.46063
20
1.38602
11
1.74409
21
1.38602
0
LINE
8
BLACK
6
CONTINUOUS
10
1.46161
20
1.38406
11
1.46161
21
1.03957
0
LINE
8
BLACK
6
CONTINUOUS
10
1.46161
20
1.03957
11
1.74311
21
1.03957
0
LINE
8
BLACK
6
CONTINUOUS
10
1.74311
20
1.03957
11
1.74311
21
1.38406
0
LINE
8
BLACK
6
CONTINUOUS
10
1.74311
20
1.38406
11
1.46161
21
1.38406
0
LINE
8
BLACK
6
CONTINUOUS
10
1.12776
20
1.24685
11
1.12845
21
1.24656
0
LINE
8
BLACK
6
CONTINUOUS
10
1.12845
20
1.24656
11
1.12874
21
1.24587
0
LINE
8
BLACK
6
CONTINUOUS
10
1.12874
20
1.24587
11
1.12874
21
1.03957
0
LINE
8
BLACK
6
CONTINUOUS
10
1.12874
20
1.03957
11
1.12845
21
1.03887
0
LINE
8
BLACK
6
CONTINUOUS
10
1.12845
20
1.03887
11
1.12776
21
1.03858
0
LINE
8
BLACK
6
CONTINUOUS
10
1.12776
20
1.03858
11
0.921457
21
1.03858
0
LINE
8
BLACK
6
CONTINUOUS
10
0.921457
20
1.03858
11
0.920761
21
1.03887
0
LINE
8
BLACK
6
CONTINUOUS
10
0.920761
20
1.03887
11
0.920472
21
1.03957
0
LINE
8
BLACK
6
CONTINUOUS
10
0.920472
20
1.03957
11
0.920472
21
1.03957
0
LINE
8
BLACK
6
CONTINUOUS
10
0.920472
20
1.03957
11
0.920472
21
1.24587
0
LINE
8
BLACK
6
CONTINUOUS
10
0.920472
20
1.24587
11
0.920761
21
1.24656
0
LINE
8
BLACK
6
CONTINUOUS
10
0.920761
20
1.24656
11
0.921457
21
1.24685
0
LINE
8
BLACK
6
CONTINUOUS
10
0.921457
20
1.24685
11
1.12776
21
1.24685
0
LINE
8
BLACK
6
CONTINUOUS
10
0.922441
20
1.24488
11
0.922441
21
1.04055
0
LINE
8
BLACK
6
CONTINUOUS
10
0.922441
20
1.04055
11
1.12677
21
1.04055
0
LINE
8
BLACK
6
CONTINUOUS
10
1.12677
20
1.04055
11
1.12677
21
1.24488
0
LINE
8
BLACK
6
CONTINUOUS
10
1.12677
20
1.24488
11
0.922441
21
1.24488
0
LINE
8
BLACK
6
CONTINUOUS
10
1.27756
20
1.14941
11
1.27826
21
1.14912
0
LINE
8
BLACK
6
CONTINUOUS
10
1.27826
20
1.14912
11
1.27854
21
1.14843
0
LINE
8
BLACK
6
CONTINUOUS
10
1.27854
20
1.14843
11
1.27854
21
1.07126
0
LINE
8
BLACK
6
CONTINUOUS
10
1.27854
20
1.07126
11
1.27826
21
1.07056
0
LINE
8
BLACK
6
CONTINUOUS
10
1.27826
20
1.07056
11
1.27756
21
1.07028
0
LINE
8
BLACK
6
CONTINUOUS
10
1.27756
20
1.07028
11
1.1437
21
1.07028
0
LINE
8
BLACK
6
CONTINUOUS
10
1.1437
20
1.07028
11
1.143
21
1.07056
0
LINE
8
BLACK
6
CONTINUOUS
10
1.143
20
1.07056
11
1.14272
21
1.07126
0
LINE
8
BLACK
6
CONTINUOUS
10
1.14272
20
1.07126
11
1.14272
21
1.14843
0
LINE
8
BLACK
6
CONTINUOUS
10
1.14272
20
1.14843
11
1.143
21
1.14912
0
LINE
8
BLACK
6
CONTINUOUS
10
1.143
20
1.14912
11
1.1437
21
1.14941
0
LINE
8
BLACK
6
CONTINUOUS
10
1.1437
20
1.14941
11
1.27756
21
1.14941
0
LINE
8
BLACK
6
CONTINUOUS
10
1.14469
20
1.14744
11
1.14469
21
1.07224
0
LINE
8
BLACK
6
CONTINUOUS
10
1.14469
20
1.07224
11
1.27657
21
1.07224
0
LINE
8
BLACK
6
CONTINUOUS
10
1.27657
20
1.07224
11
1.27657
21
1.14744
0
LINE
8
BLACK
6
CONTINUOUS
10
1.27657
20
1.14744
11
1.14469
21
1.14744
0
LINE
8
BLACK
6
CONTINUOUS
10
0.461472
20
1.22581
11
0.469924
21
1.22355
0
LINE
8
BLACK
6
CONTINUOUS
10
0.469924
20
1.22355
11
0.477854
21
1.21985
0
LINE
8
BLACK
6
CONTINUOUS
10
0.477854
20
1.21985
11
0.485022
21
1.21483
0
LINE
8
BLACK
6
CONTINUOUS
10
0.485022
20
1.21483
11
0.491209
21
1.20864
0
LINE
8
BLACK
6
CONTINUOUS
10
0.491209
20
1.20864
11
0.496228
21
1.20148
0
LINE
8
BLACK
6
CONTINUOUS
10
0.496228
20
1.20148
11
0.499926
21
1.19355
0
LINE
8
BLACK
6
CONTINUOUS
10
0.499926
20
1.19355
11
0.50219
21
1.18509
0
LINE
8
BLACK
6
CONTINUOUS
10
0.50219
20
1.18509
11
0.502953
21
1.17638
0
LINE
8
BLACK
6
CONTINUOUS
10
0.502953
20
1.17638
11
0.50219
21
1.16766
0
LINE
8
BLACK
6
CONTINUOUS
10
0.50219
20
1.16766
11
0.499926
21
1.15921
0
LINE
8
BLACK
6
CONTINUOUS
10
0.499926
20
1.15921
11
0.496228
21
1.15128
0
LINE
8
BLACK
6
CONTINUOUS
10
0.496228
20
1.15128
11
0.491209
21
1.14411
0
LINE
8
BLACK
6
CONTINUOUS
10
0.491209
20
1.14411
11
0.485022
21
1.13792
0
LINE
8
BLACK
6
CONTINUOUS
10
0.485022
20
1.13792
11
0.477854
21
1.13291
0
LINE
8
BLACK
6
CONTINUOUS
10
0.477854
20
1.13291
11
0.469924
21
1.12921
0
LINE
8
BLACK
6
CONTINUOUS
10
0.469924
20
1.12921
11
0.461472
21
1.12694
0
LINE
8
BLACK
6
CONTINUOUS
10
0.461472
20
1.12694
11
0.452756
21
1.12618
0
LINE
8
BLACK
6
CONTINUOUS
10
0.452756
20
1.12618
11
0.444039
21
1.12694
0
LINE
8
BLACK
6
CONTINUOUS
10
0.444039
20
1.12694
11
0.435588
21
1.12921
0
LINE
8
BLACK
6
CONTINUOUS
10
0.435588
20
1.12921
11
0.427657
21
1.13291
0
LINE
8
BLACK
6
CONTINUOUS
10
0.427657
20
1.13291
11
0.42049
21
1.13792
0
LINE
8
BLACK
6
CONTINUOUS
10
0.42049
20
1.13792
11
0.414303
21
1.14411
0
LINE
8
BLACK
6
CONTINUOUS
10
0.414303
20
1.14411
11
0.409284
21
1.15128
0
LINE
8
BLACK
6
CONTINUOUS
10
0.409284
20
1.15128
11
0.405586
21
1.15921
0
LINE
8
BLACK
6
CONTINUOUS
10
0.405586
20
1.15921
11
0.403322
21
1.16766
0
LINE
8
BLACK
6
CONTINUOUS
10
0.403322
20
1.16766
11
0.402559
21
1.17638
0
LINE
8
BLACK
6
CONTINUOUS
10
0.402559
20
1.17638
11
0.403322
21
1.18509
0
LINE
8
BLACK
6
CONTINUOUS
10
0.403322
20
1.18509
11
0.405586
21
1.19355
0
LINE
8
BLACK
6
CONTINUOUS
10
0.405586
20
1.19355
11
0.409284
21
1.20148
0
LINE
8
BLACK
6
CONTINUOUS
10
0.409284
20
1.20148
11
0.414303
21
1.20864
0
LINE
8
BLACK
6
CONTINUOUS
10
0.414303
20
1.20864
11
0.42049
21
1.21483
0
LINE
8
BLACK
6
CONTINUOUS
10
0.42049
20
1.21483
11
0.427657
21
1.21985
0
LINE
8
BLACK
6
CONTINUOUS
10
0.427657
20
1.21985
11
0.435588
21
1.22355
0
LINE
8
BLACK
6
CONTINUOUS
10
0.435588
20
1.22355
11
0.444039
21
1.22581
0
LINE
8
BLACK
6
CONTINUOUS
10
0.444039
20
1.22581
11
0.452756
21
1.22657
0
LINE
8
BLACK
6
CONTINUOUS
10
0.452756
20
1.22657
11
0.461472
21
1.22581
0
LINE
8
BLACK
6
CONTINUOUS
10
0.405079
20
1.16797
11
0.407263
21
1.15982
0
LINE
8
BLACK
6
CONTINUOUS
10
0.407263
20
1.15982
11
0.410829
21
1.15217
0
LINE
8
BLACK
6
CONTINUOUS
10
0.410829
20
1.15217
11
0.41567
21
1.14526
0
LINE
8
BLACK
6
CONTINUOUS
10
0.41567
20
1.14526
11
0.421637
21
1.13929
0
LINE
8
BLACK
6
CONTINUOUS
10
0.421637
20
1.13929
11
0.42855
21
1.13445
0
LINE
8
BLACK
6
CONTINUOUS
10
0.42855
20
1.13445
11
0.436198
21
1.13089
0
LINE
8
BLACK
6
CONTINUOUS
10
0.436198
20
1.13089
11
0.444349
21
1.1287
0
LINE
8
BLACK
6
CONTINUOUS
10
0.444349
20
1.1287
11
0.452756
21
1.12797
0
LINE
8
BLACK
6
CONTINUOUS
10
0.452756
20
1.12797
11
0.461163
21
1.1287
0
LINE
8
BLACK
6
CONTINUOUS
10
0.461163
20
1.1287
11
0.469314
21
1.13089
0
LINE
8
BLACK
6
CONTINUOUS
10
0.469314
20
1.13089
11
0.476962
21
1.13445
0
LINE
8
BLACK
6
CONTINUOUS
10
0.476962
20
1.13445
11
0.483875
21
1.13929
0
LINE
8
BLACK
6
CONTINUOUS
10
0.483875
20
1.13929
11
0.489842
21
1.14526
0
LINE
8
BLACK
6
CONTINUOUS
10
0.489842
20
1.14526
11
0.494682
21
1.15217
0
LINE
8
BLACK
6
CONTINUOUS
10
0.494682
20
1.15217
11
0.498249
21
1.15982
0
LINE
8
BLACK
6
CONTINUOUS
10
0.498249
20
1.15982
11
0.500433
21
1.16797
0
LINE
8
BLACK
6
CONTINUOUS
10
0.500433
20
1.16797
11
0.501168
21
1.17638
0
LINE
8
BLACK
6
CONTINUOUS
10
0.501168
20
1.17638
11
0.500433
21
1.18478
0
LINE
8
BLACK
6
CONTINUOUS
10
0.500433
20
1.18478
11
0.498249
21
1.19294
0
LINE
8
BLACK
6
CONTINUOUS
10
0.498249
20
1.19294
11
0.494682
21
1.20058
0
LINE
8
BLACK
6
CONTINUOUS
10
0.494682
20
1.20058
11
0.489842
21
1.2075
0
LINE
8
BLACK
6
CONTINUOUS
10
0.489842
20
1.2075
11
0.483875
21
1.21346
0
LINE
8
BLACK
6
CONTINUOUS
10
0.483875
20
1.21346
11
0.476962
21
1.2183
0
LINE
8
BLACK
6
CONTINUOUS
10
0.476962
20
1.2183
11
0.469314
21
1.22187
0
LINE
8
BLACK
6
CONTINUOUS
10
0.469314
20
1.22187
11
0.461163
21
1.22405
0
LINE
8
BLACK
6
CONTINUOUS
10
0.461163
20
1.22405
11
0.452756
21
1.22479
0
LINE
8
BLACK
6
CONTINUOUS
10
0.452756
20
1.22479
11
0.444349
21
1.22405
0
LINE
8
BLACK
6
CONTINUOUS
10
0.444349
20
1.22405
11
0.436198
21
1.22187
0
LINE
8
BLACK
6
CONTINUOUS
10
0.436198
20
1.22187
11
0.42855
21
1.2183
0
LINE
8
BLACK
6
CONTINUOUS
10
0.42855
20
1.2183
11
0.421637
21
1.21346
0
LINE
8
BLACK
6
CONTINUOUS
10
0.421637
20
1.21346
11
0.41567
21
1.2075
0
LINE
8
BLACK
6
CONTINUOUS
10
0.41567
20
1.2075
11
0.410829
21
1.20058
0
LINE
8
BLACK
6
CONTINUOUS
10
0.410829
20
1.20058
11
0.407263
21
1.19294
0
LINE
8
BLACK
6
CONTINUOUS
10
0.407263
20
1.19294
11
0.405079
21
1.18478
0
LINE
8
BLACK
6
CONTINUOUS
10
0.405079
20
1.18478
11
0.404343
21
1.17638
0
LINE
8
BLACK
6
CONTINUOUS
10
0.404343
20
1.17638
11
0.405079
21
1.16797
0
LINE
8
BLACK
6
CONTINUOUS
10
1.27756
20
1.23957
11
1.27826
21
1.23928
0
LINE
8
BLACK
6
CONTINUOUS
10
1.27826
20
1.23928
11
1.27854
21
1.23858
0
LINE
8
BLACK
6
CONTINUOUS
10
1.27854
20
1.23858
11
1.27854
21
1.16142
0
LINE
8
BLACK
6
CONTINUOUS
10
1.27854
20
1.16142
11
1.27826
21
1.16072
0
LINE
8
BLACK
6
CONTINUOUS
10
1.27826
20
1.16072
11
1.27756
21
1.16043
0
LINE
8
BLACK
6
CONTINUOUS
10
1.27756
20
1.16043
11
1.1437
21
1.16043
0
LINE
8
BLACK
6
CONTINUOUS
10
1.1437
20
1.16043
11
1.143
21
1.16072
0
LINE
8
BLACK
6
CONTINUOUS
10
1.143
20
1.16072
11
1.14272
21
1.16142
0
LINE
8
BLACK
6
CONTINUOUS
10
1.14272
20
1.16142
11
1.14272
21
1.23858
0
LINE
8
BLACK
6
CONTINUOUS
10
1.14272
20
1.23858
11
1.143
21
1.23928
0
LINE
8
BLACK
6
CONTINUOUS
10
1.143
20
1.23928
11
1.1437
21
1.23957
0
LINE
8
BLACK
6
CONTINUOUS
10
1.1437
20
1.23957
11
1.27756
21
1.23957
0
LINE
8
BLACK
6
CONTINUOUS
10
1.14469
20
1.2376
11
1.14469
21
1.1624
0
LINE
8
BLACK
6
CONTINUOUS
10
1.14469
20
1.1624
11
1.27657
21
1.1624
0
LINE
8
BLACK
6
CONTINUOUS
10
1.27657
20
1.1624
11
1.27657
21
1.2376
0
LINE
8
BLACK
6
CONTINUOUS
10
1.27657
20
1.2376
11
1.14469
21
1.2376
0
LINE
8
BLACK
6
CONTINUOUS
10
1.39061
20
1.32424
11
1.39906
21
1.32197
0
LINE
8
BLACK
6
CONTINUOUS
10
1.39906
20
1.32197
11
1.40699
21
1.31827
0
LINE
8
BLACK
6
CONTINUOUS
10
1.40699
20
1.31827
11
1.41416
21
1.31326
0
LINE
8
BLACK
6
CONTINUOUS
10
1.41416
20
1.31326
11
1.42034
21
1.30707
0
LINE
8
BLACK
6
CONTINUOUS
10
1.42034
20
1.30707
11
1.42536
21
1.2999
0
LINE
8
BLACK
6
CONTINUOUS
10
1.42536
20
1.2999
11
1.42906
21
1.29197
0
LINE
8
BLACK
6
CONTINUOUS
10
1.42906
20
1.29197
11
1.43132
21
1.28352
0
LINE
8
BLACK
6
CONTINUOUS
10
1.43132
20
1.28352
11
1.43209
21
1.2748
0
LINE
8
BLACK
6
CONTINUOUS
10
1.43209
20
1.2748
11
1.43132
21
1.26609
0
LINE
8
BLACK
6
CONTINUOUS
10
1.43132
20
1.26609
11
1.42906
21
1.25763
0
LINE
8
BLACK
6
CONTINUOUS
10
1.42906
20
1.25763
11
1.42536
21
1.2497
0
LINE
8
BLACK
6
CONTINUOUS
10
1.42536
20
1.2497
11
1.42034
21
1.24254
0
LINE
8
BLACK
6
CONTINUOUS
10
1.42034
20
1.24254
11
1.41416
21
1.23635
0
LINE
8
BLACK
6
CONTINUOUS
10
1.41416
20
1.23635
11
1.40699
21
1.23133
0
LINE
8
BLACK
6
CONTINUOUS
10
1.40699
20
1.23133
11
1.39906
21
1.22763
0
LINE
8
BLACK
6
CONTINUOUS
10
1.39906
20
1.22763
11
1.39061
21
1.22537
0
LINE
8
BLACK
6
CONTINUOUS
10
1.39061
20
1.22537
11
1.38189
21
1.22461
0
LINE
8
BLACK
6
CONTINUOUS
10
1.38189
20
1.22461
11
1.37317
21
1.22537
0
LINE
8
BLACK
6
CONTINUOUS
10
1.37317
20
1.22537
11
1.36472
21
1.22763
0
LINE
8
BLACK
6
CONTINUOUS
10
1.36472
20
1.22763
11
1.35679
21
1.23133
0
LINE
8
BLACK
6
CONTINUOUS
10
1.35679
20
1.23133
11
1.34962
21
1.23635
0
LINE
8
BLACK
6
CONTINUOUS
10
1.34962
20
1.23635
11
1.34344
21
1.24254
0
LINE
8
BLACK
6
CONTINUOUS
10
1.34344
20
1.24254
11
1.33842
21
1.2497
0
LINE
8
BLACK
6
CONTINUOUS
10
1.33842
20
1.2497
11
1.33472
21
1.25763
0
LINE
8
BLACK
6
CONTINUOUS
10
1.33472
20
1.25763
11
1.33246
21
1.26609
0
LINE
8
BLACK
6
CONTINUOUS
10
1.33246
20
1.26609
11
1.33169
21
1.2748
0
LINE
8
BLACK
6
CONTINUOUS
10
1.33169
20
1.2748
11
1.33246
21
1.28352
0
LINE
8
BLACK
6
CONTINUOUS
10
1.33246
20
1.28352
11
1.33472
21
1.29197
0
LINE
8
BLACK
6
CONTINUOUS
10
1.33472
20
1.29197
11
1.33842
21
1.2999
0
LINE
8
BLACK
6
CONTINUOUS
10
1.33842
20
1.2999
11
1.34344
21
1.30707
0
LINE
8
BLACK
6
CONTINUOUS
10
1.34344
20
1.30707
11
1.34962
21
1.31326
0
LINE
8
BLACK
6
CONTINUOUS
10
1.34962
20
1.31326
11
1.35679
21
1.31827
0
LINE
8
BLACK
6
CONTINUOUS
10
1.35679
20
1.31827
11
1.36472
21
1.32197
0
LINE
8
BLACK
6
CONTINUOUS
10
1.36472
20
1.32197
11
1.37317
21
1.32424
0
LINE
8
BLACK
6
CONTINUOUS
10
1.37317
20
1.32424
11
1.38189
21
1.325
0
LINE
8
BLACK
6
CONTINUOUS
10
1.38189
20
1.325
11
1.39061
21
1.32424
0
LINE
8
BLACK
6
CONTINUOUS
10
1.33421
20
1.2664
11
1.3364
21
1.25825
0
LINE
8
BLACK
6
CONTINUOUS
10
1.3364
20
1.25825
11
1.33996
21
1.2506
0
LINE
8
BLACK
6
CONTINUOUS
10
1.33996
20
1.2506
11
1.3448
21
1.24368
0
LINE
8
BLACK
6
CONTINUOUS
10
1.3448
20
1.24368
11
1.35077
21
1.23772
0
LINE
8
BLACK
6
CONTINUOUS
10
1.35077
20
1.23772
11
1.35768
21
1.23288
0
LINE
8
BLACK
6
CONTINUOUS
10
1.35768
20
1.23288
11
1.36533
21
1.22931
0
LINE
8
BLACK
6
CONTINUOUS
10
1.36533
20
1.22931
11
1.37348
21
1.22713
0
LINE
8
BLACK
6
CONTINUOUS
10
1.37348
20
1.22713
11
1.38189
21
1.22639
0
LINE
8
BLACK
6
CONTINUOUS
10
1.38189
20
1.22639
11
1.3903
21
1.22713
0
LINE
8
BLACK
6
CONTINUOUS
10
1.3903
20
1.22713
11
1.39845
21
1.22931
0
LINE
8
BLACK
6
CONTINUOUS
10
1.39845
20
1.22931
11
1.4061
21
1.23288
0
LINE
8
BLACK
6
CONTINUOUS
10
1.4061
20
1.23288
11
1.41301
21
1.23772
0
LINE
8
BLACK
6
CONTINUOUS
10
1.41301
20
1.23772
11
1.41898
21
1.24368
0
LINE
8
BLACK
6
CONTINUOUS
10
1.41898
20
1.24368
11
1.42382
21
1.2506
0
LINE
8
BLACK
6
CONTINUOUS
10
1.42382
20
1.2506
11
1.42738
21
1.25825
0
LINE
8
BLACK
6
CONTINUOUS
10
1.42738
20
1.25825
11
1.42957
21
1.2664
0
LINE
8
BLACK
6
CONTINUOUS
10
1.42957
20
1.2664
11
1.4303
21
1.2748
0
LINE
8
BLACK
6
CONTINUOUS
10
1.4303
20
1.2748
11
1.42957
21
1.28321
0
LINE
8
BLACK
6
CONTINUOUS
10
1.42957
20
1.28321
11
1.42738
21
1.29136
0
LINE
8
BLACK
6
CONTINUOUS
10
1.42738
20
1.29136
11
1.42382
21
1.29901
0
LINE
8
BLACK
6
CONTINUOUS
10
1.42382
20
1.29901
11
1.41898
21
1.30592
0
LINE
8
BLACK
6
CONTINUOUS
10
1.41898
20
1.30592
11
1.41301
21
1.31189
0
LINE
8
BLACK
6
CONTINUOUS
10
1.41301
20
1.31189
11
1.4061
21
1.31673
0
LINE
8
BLACK
6
CONTINUOUS
10
1.4061
20
1.31673
11
1.39845
21
1.3203
0
LINE
8
BLACK
6
CONTINUOUS
10
1.39845
20
1.3203
11
1.3903
21
1.32248
0
LINE
8
BLACK
6
CONTINUOUS
10
1.3903
20
1.32248
11
1.38189
21
1.32322
0
LINE
8
BLACK
6
CONTINUOUS
10
1.38189
20
1.32322
11
1.37348
21
1.32248
0
LINE
8
BLACK
6
CONTINUOUS
10
1.37348
20
1.32248
11
1.36533
21
1.3203
0
LINE
8
BLACK
6
CONTINUOUS
10
1.36533
20
1.3203
11
1.35768
21
1.31673
0
LINE
8
BLACK
6
CONTINUOUS
10
1.35768
20
1.31673
11
1.35077
21
1.31189
0
LINE
8
BLACK
6
CONTINUOUS
10
1.35077
20
1.31189
11
1.3448
21
1.30592
0
LINE
8
BLACK
6
CONTINUOUS
10
1.3448
20
1.30592
11
1.33996
21
1.29901
0
LINE
8
BLACK
6
CONTINUOUS
10
1.33996
20
1.29901
11
1.3364
21
1.29136
0
LINE
8
BLACK
6
CONTINUOUS
10
1.3364
20
1.29136
11
1.33421
21
1.28321
0
LINE
8
BLACK
6
CONTINUOUS
10
1.33421
20
1.28321
11
1.33348
21
1.2748
0
LINE
8
BLACK
6
CONTINUOUS
10
1.33348
20
1.2748
11
1.33421
21
1.2664
0
LINE
8
BLACK
6
CONTINUOUS
10
1.25561
20
1.39587
11
1.25631
21
1.39558
0
LINE
8
BLACK
6
CONTINUOUS
10
1.25631
20
1.39558
11
1.25659
21
1.39488
0
LINE
8
BLACK
6
CONTINUOUS
10
1.25659
20
1.39488
11
1.25659
21
1.32008
0
LINE
8
BLACK
6
CONTINUOUS
10
1.25659
20
1.32008
11
1.25631
21
1.31938
0
LINE
8
BLACK
6
CONTINUOUS
10
1.25631
20
1.31938
11
1.25561
21
1.31909
0
LINE
8
BLACK
6
CONTINUOUS
10
1.25561
20
1.31909
11
1.12333
21
1.31909
0
LINE
8
BLACK
6
CONTINUOUS
10
1.12333
20
1.31909
11
1.12263
21
1.31938
0
LINE
8
BLACK
6
CONTINUOUS
10
1.12263
20
1.31938
11
1.12234
21
1.32008
0
LINE
8
BLACK
6
CONTINUOUS
10
1.12234
20
1.32008
11
1.12234
21
1.39488
0
LINE
8
BLACK
6
CONTINUOUS
10
1.12234
20
1.39488
11
1.12263
21
1.39558
0
LINE
8
BLACK
6
CONTINUOUS
10
1.12263
20
1.39558
11
1.12333
21
1.39587
0
LINE
8
BLACK
6
CONTINUOUS
10
1.12333
20
1.39587
11
1.25561
21
1.39587
0
LINE
8
BLACK
6
CONTINUOUS
10
1.12431
20
1.3939
11
1.12431
21
1.32106
0
LINE
8
BLACK
6
CONTINUOUS
10
1.12431
20
1.32106
11
1.25463
21
1.32106
0
LINE
8
BLACK
6
CONTINUOUS
10
1.25463
20
1.32106
11
1.25463
21
1.3939
0
LINE
8
BLACK
6
CONTINUOUS
10
1.25463
20
1.3939
11
1.12431
21
1.3939
0
LINE
8
BLACK
6
CONTINUOUS
10
0.327559
20
1.47618
11
0.328255
21
1.47589
0
LINE
8
BLACK
6
CONTINUOUS
10
0.328255
20
1.47589
11
0.328543
21
1.4752
0
LINE
8
BLACK
6
CONTINUOUS
10
0.328543
20
1.4752
11
0.328543
21
1.34291
0
LINE
8
BLACK
6
CONTINUOUS
10
0.328543
20
1.34291
11
0.328255
21
1.34222
0
LINE
8
BLACK
6
CONTINUOUS
10
0.328255
20
1.34222
11
0.327559
21
1.34193
0
LINE
8
BLACK
6
CONTINUOUS
10
0.327559
20
1.34193
11
0.252756
21
1.34193
0
LINE
8
BLACK
6
CONTINUOUS
10
0.252756
20
1.34193
11
0.25206
21
1.34222
0
LINE
8
BLACK
6
CONTINUOUS
10
0.25206
20
1.34222
11
0.251772
21
1.34291
0
LINE
8
BLACK
6
CONTINUOUS
10
0.251772
20
1.34291
11
0.251772
21
1.4752
0
LINE
8
BLACK
6
CONTINUOUS
10
0.251772
20
1.4752
11
0.25206
21
1.47589
0
LINE
8
BLACK
6
CONTINUOUS
10
0.25206
20
1.47589
11
0.252756
21
1.47618
0
LINE
8
BLACK
6
CONTINUOUS
10
0.252756
20
1.47618
11
0.327559
21
1.47618
0
LINE
8
BLACK
6
CONTINUOUS
10
0.25374
20
1.47421
11
0.25374
21
1.3439
0
LINE
8
BLACK
6
CONTINUOUS
10
0.25374
20
1.3439
11
0.326575
21
1.3439
0
LINE
8
BLACK
6
CONTINUOUS
10
0.326575
20
1.3439
11
0.326575
21
1.47421
0
LINE
8
BLACK
6
CONTINUOUS
10
0.326575
20
1.47421
11
0.25374
21
1.47421
0
LINE
8
BLACK
6
CONTINUOUS
10
0.408268
20
1.47618
11
0.408964
21
1.47589
0
LINE
8
BLACK
6
CONTINUOUS
10
0.408964
20
1.47589
11
0.409252
21
1.4752
0
LINE
8
BLACK
6
CONTINUOUS
10
0.409252
20
1.4752
11
0.409252
21
1.34291
0
LINE
8
BLACK
6
CONTINUOUS
10
0.409252
20
1.34291
11
0.408964
21
1.34222
0
LINE
8
BLACK
6
CONTINUOUS
10
0.408964
20
1.34222
11
0.408268
21
1.34193
0
LINE
8
BLACK
6
CONTINUOUS
10
0.408268
20
1.34193
11
0.333465
21
1.34193
0
LINE
8
BLACK
6
CONTINUOUS
10
0.333465
20
1.34193
11
0.332769
21
1.34222
0
LINE
8
BLACK
6
CONTINUOUS
10
0.332769
20
1.34222
11
0.33248
21
1.34291
0
LINE
8
BLACK
6
CONTINUOUS
10
0.33248
20
1.34291
11
0.33248
21
1.4752
0
LINE
8
BLACK
6
CONTINUOUS
10
0.33248
20
1.4752
11
0.332769
21
1.47589
0
LINE
8
BLACK
6
CONTINUOUS
10
0.332769
20
1.47589
11
0.333465
21
1.47618
0
LINE
8
BLACK
6
CONTINUOUS
10
0.333465
20
1.47618
11
0.408268
21
1.47618
0
LINE
8
BLACK
6
CONTINUOUS
10
0.334449
20
1.47421
11
0.334449
21
1.3439
0
LINE
8
BLACK
6
CONTINUOUS
10
0.334449
20
1.3439
11
0.407283
21
1.3439
0
LINE
8
BLACK
6
CONTINUOUS
10
0.407283
20
1.3439
11
0.407283
21
1.47421
0
LINE
8
BLACK
6
CONTINUOUS
10
0.407283
20
1.47421
11
0.334449
21
1.47421
0
LINE
8
BLACK
6
CONTINUOUS
10
0.488976
20
1.47667
11
0.489672
21
1.47638
0
LINE
8
BLACK
6
CONTINUOUS
10
0.489672
20
1.47638
11
0.489961
21
1.47569
0
LINE
8
BLACK
6
CONTINUOUS
10
0.489961
20
1.47569
11
0.489961
21
1.34341
0
LINE
8
BLACK
6
CONTINUOUS
10
0.489961
20
1.34341
11
0.489672
21
1.34271
0
LINE
8
BLACK
6
CONTINUOUS
10
0.489672
20
1.34271
11
0.488976
21
1.34242
0
LINE
8
BLACK
6
CONTINUOUS
10
0.488976
20
1.34242
11
0.414173
21
1.34242
0
LINE
8
BLACK
6
CONTINUOUS
10
0.414173
20
1.34242
11
0.413477
21
1.34271
0
LINE
8
BLACK
6
CONTINUOUS
10
0.413477
20
1.34271
11
0.413189
21
1.34341
0
LINE
8
BLACK
6
CONTINUOUS
10
0.413189
20
1.34341
11
0.413189
21
1.47569
0
LINE
8
BLACK
6
CONTINUOUS
10
0.413189
20
1.47569
11
0.413477
21
1.47638
0
LINE
8
BLACK
6
CONTINUOUS
10
0.413477
20
1.47638
11
0.414173
21
1.47667
0
LINE
8
BLACK
6
CONTINUOUS
10
0.414173
20
1.47667
11
0.488976
21
1.47667
0
LINE
8
BLACK
6
CONTINUOUS
10
0.415157
20
1.4747
11
0.415157
21
1.34439
0
LINE
8
BLACK
6
CONTINUOUS
10
0.415157
20
1.34439
11
0.487992
21
1.34439
0
LINE
8
BLACK
6
CONTINUOUS
10
0.487992
20
1.34439
11
0.487992
21
1.4747
0
LINE
8
BLACK
6
CONTINUOUS
10
0.487992
20
1.4747
11
0.415157
21
1.4747
0
LINE
8
BLACK
6
CONTINUOUS
10
0.682283
20
1.48681
11
0.682979
21
1.48652
0
LINE
8
BLACK
6
CONTINUOUS
10
0.682979
20
1.48652
11
0.683268
21
1.48583
0
LINE
8
BLACK
6
CONTINUOUS
10
0.683268
20
1.48583
11
0.683268
21
1.35354
0
LINE
8
BLACK
6
CONTINUOUS
10
0.683268
20
1.35354
11
0.682979
21
1.35285
0
LINE
8
BLACK
6
CONTINUOUS
10
0.682979
20
1.35285
11
0.682283
21
1.35256
0
LINE
8
BLACK
6
CONTINUOUS
10
0.682283
20
1.35256
11
0.60748
21
1.35256
0
LINE
8
BLACK
6
CONTINUOUS
10
0.60748
20
1.35256
11
0.606784
21
1.35285
0
LINE
8
BLACK
6
CONTINUOUS
10
0.606784
20
1.35285
11
0.606496
21
1.35354
0
LINE
8
BLACK
6
CONTINUOUS
10
0.606496
20
1.35354
11
0.606496
21
1.48583
0
LINE
8
BLACK
6
CONTINUOUS
10
0.606496
20
1.48583
11
0.606784
21
1.48652
0
LINE
8
BLACK
6
CONTINUOUS
10
0.606784
20
1.48652
11
0.60748
21
1.48681
0
LINE
8
BLACK
6
CONTINUOUS
10
0.60748
20
1.48681
11
0.682283
21
1.48681
0
LINE
8
BLACK
6
CONTINUOUS
10
0.608465
20
1.48484
11
0.608465
21
1.35453
0
LINE
8
BLACK
6
CONTINUOUS
10
0.608465
20
1.35453
11
0.681299
21
1.35453
0
LINE
8
BLACK
6
CONTINUOUS
10
0.681299
20
1.35453
11
0.681299
21
1.48484
0
LINE
8
BLACK
6
CONTINUOUS
10
0.681299
20
1.48484
11
0.608465
21
1.48484
0
LINE
8
BLACK
6
CONTINUOUS
10
0.596063
20
1.48691
11
0.596759
21
1.48662
0
LINE
8
BLACK
6
CONTINUOUS
10
0.596759
20
1.48662
11
0.597047
21
1.48593
0
LINE
8
BLACK
6
CONTINUOUS
10
0.597047
20
1.48593
11
0.597047
21
1.35364
0
LINE
8
BLACK
6
CONTINUOUS
10
0.597047
20
1.35364
11
0.596759
21
1.35295
0
LINE
8
BLACK
6
CONTINUOUS
10
0.596759
20
1.35295
11
0.596063
21
1.35266
0
LINE
8
BLACK
6
CONTINUOUS
10
0.596063
20
1.35266
11
0.52126
21
1.35266
0
LINE
8
BLACK
6
CONTINUOUS
10
0.52126
20
1.35266
11
0.520564
21
1.35295
0
LINE
8
BLACK
6
CONTINUOUS
10
0.520564
20
1.35295
11
0.520276
21
1.35364
0
LINE
8
BLACK
6
CONTINUOUS
10
0.520276
20
1.35364
11
0.520276
21
1.48593
0
LINE
8
BLACK
6
CONTINUOUS
10
0.520276
20
1.48593
11
0.520564
21
1.48662
0
LINE
8
BLACK
6
CONTINUOUS
10
0.520564
20
1.48662
11
0.52126
21
1.48691
0
LINE
8
BLACK
6
CONTINUOUS
10
0.52126
20
1.48691
11
0.596063
21
1.48691
0
LINE
8
BLACK
6
CONTINUOUS
10
0.522244
20
1.48494
11
0.522244
21
1.35463
0
LINE
8
BLACK
6
CONTINUOUS
10
0.522244
20
1.35463
11
0.595079
21
1.35463
0
LINE
8
BLACK
6
CONTINUOUS
10
0.595079
20
1.35463
11
0.595079
21
1.48494
0
LINE
8
BLACK
6
CONTINUOUS
10
0.595079
20
1.48494
11
0.522244
21
1.48494
0
LINE
8
BLACK
6
CONTINUOUS
10
1.11585
20
1.44311
11
1.11654
21
1.44282
0
LINE
8
BLACK
6
CONTINUOUS
10
1.11654
20
1.44282
11
1.11683
21
1.44213
0
LINE
8
BLACK
6
CONTINUOUS
10
1.11683
20
1.44213
11
1.11683
21
1.36732
0
LINE
8
BLACK
6
CONTINUOUS
10
1.11683
20
1.36732
11
1.11654
21
1.36663
0
LINE
8
BLACK
6
CONTINUOUS
10
1.11654
20
1.36663
11
1.11585
21
1.36634
0
LINE
8
BLACK
6
CONTINUOUS
10
1.11585
20
1.36634
11
0.983563
21
1.36634
0
LINE
8
BLACK
6
CONTINUOUS
10
0.983563
20
1.36634
11
0.982867
21
1.36663
0
LINE
8
BLACK
6
CONTINUOUS
10
0.982867
20
1.36663
11
0.982579
21
1.36732
0
LINE
8
BLACK
6
CONTINUOUS
10
0.982579
20
1.36732
11
0.982579
21
1.44213
0
LINE
8
BLACK
6
CONTINUOUS
10
0.982579
20
1.44213
11
0.982867
21
1.44282
0
LINE
8
BLACK
6
CONTINUOUS
10
0.982867
20
1.44282
11
0.983563
21
1.44311
0
LINE
8
BLACK
6
CONTINUOUS
10
0.983563
20
1.44311
11
1.11585
21
1.44311
0
LINE
8
BLACK
6
CONTINUOUS
10
0.984547
20
1.44114
11
0.984547
21
1.36831
0
LINE
8
BLACK
6
CONTINUOUS
10
0.984547
20
1.36831
11
1.11486
21
1.36831
0
LINE
8
BLACK
6
CONTINUOUS
10
1.11486
20
1.36831
11
1.11486
21
1.44114
0
LINE
8
BLACK
6
CONTINUOUS
10
1.11486
20
1.44114
11
0.984547
21
1.44114
0
LINE
8
BLACK
6
CONTINUOUS
10
1.51772
20
1.46594
11
1.51841
21
1.46566
0
LINE
8
BLACK
6
CONTINUOUS
10
1.51841
20
1.46566
11
1.5187
21
1.46496
0
LINE
8
BLACK
6
CONTINUOUS
10
1.5187
20
1.46496
11
1.5187
21
1.3878
0
LINE
8
BLACK
6
CONTINUOUS
10
1.5187
20
1.3878
11
1.51841
21
1.3871
0
LINE
8
BLACK
6
CONTINUOUS
10
1.51841
20
1.3871
11
1.51772
21
1.38681
0
LINE
8
BLACK
6
CONTINUOUS
10
1.51772
20
1.38681
11
1.38386
21
1.38681
0
LINE
8
BLACK
6
CONTINUOUS
10
1.38386
20
1.38681
11
1.38316
21
1.3871
0
LINE
8
BLACK
6
CONTINUOUS
10
1.38316
20
1.3871
11
1.38287
21
1.3878
0
LINE
8
BLACK
6
CONTINUOUS
10
1.38287
20
1.3878
11
1.38287
21
1.46496
0
LINE
8
BLACK
6
CONTINUOUS
10
1.38287
20
1.46496
11
1.38316
21
1.46566
0
LINE
8
BLACK
6
CONTINUOUS
10
1.38316
20
1.46566
11
1.38386
21
1.46594
0
LINE
8
BLACK
6
CONTINUOUS
10
1.38386
20
1.46594
11
1.51772
21
1.46594
0
LINE
8
BLACK
6
CONTINUOUS
10
1.38484
20
1.46398
11
1.38484
21
1.38878
0
LINE
8
BLACK
6
CONTINUOUS
10
1.38484
20
1.38878
11
1.51673
21
1.38878
0
LINE
8
BLACK
6
CONTINUOUS
10
1.51673
20
1.38878
11
1.51673
21
1.46398
0
LINE
8
BLACK
6
CONTINUOUS
10
1.51673
20
1.46398
11
1.38484
21
1.46398
0
LINE
8
BLACK
6
CONTINUOUS
10
1.15748
20
1.56683
11
1.15818
21
1.56654
0
LINE
8
BLACK
6
CONTINUOUS
10
1.15818
20
1.56654
11
1.15846
21
1.56585
0
LINE
8
BLACK
6
CONTINUOUS
10
1.15846
20
1.56585
11
1.15846
21
1.46742
0
LINE
8
BLACK
6
CONTINUOUS
10
1.15846
20
1.46742
11
1.15818
21
1.46673
0
LINE
8
BLACK
6
CONTINUOUS
10
1.15818
20
1.46673
11
1.15748
21
1.46644
0
LINE
8
BLACK
6
CONTINUOUS
10
1.15748
20
1.46644
11
0.976378
21
1.46644
0
LINE
8
BLACK
6
CONTINUOUS
10
0.976378
20
1.46644
11
0.975682
21
1.46673
0
LINE
8
BLACK
6
CONTINUOUS
10
0.975682
20
1.46673
11
0.975394
21
1.46742
0
LINE
8
BLACK
6
CONTINUOUS
10
0.975394
20
1.46742
11
0.975394
21
1.56585
0
LINE
8
BLACK
6
CONTINUOUS
10
0.975394
20
1.56585
11
0.975682
21
1.56654
0
LINE
8
BLACK
6
CONTINUOUS
10
0.975682
20
1.56654
11
0.976378
21
1.56683
0
LINE
8
BLACK
6
CONTINUOUS
10
0.976378
20
1.56683
11
1.15748
21
1.56683
0
LINE
8
BLACK
6
CONTINUOUS
10
0.977362
20
1.56486
11
0.977362
21
1.46841
0
LINE
8
BLACK
6
CONTINUOUS
10
0.977362
20
1.46841
11
1.1565
21
1.46841
0
LINE
8
BLACK
6
CONTINUOUS
10
1.1565
20
1.46841
11
1.1565
21
1.56486
0
LINE
8
BLACK
6
CONTINUOUS
10
1.1565
20
1.56486
11
0.977362
21
1.56486
0
LINE
8
BLACK
6
CONTINUOUS
10
1.04301
20
1.79035
11
1.04371
21
1.79007
0
LINE
8
BLACK
6
CONTINUOUS
10
1.04371
20
1.79007
11
1.044
21
1.78937
0
LINE
8
BLACK
6
CONTINUOUS
10
1.044
20
1.78937
11
1.044
21
1.71457
0
LINE
8
BLACK
6
CONTINUOUS
10
1.044
20
1.71457
11
1.04371
21
1.71387
0
LINE
8
BLACK
6
CONTINUOUS
10
1.04371
20
1.71387
11
1.04301
21
1.71358
0
LINE
8
BLACK
6
CONTINUOUS
10
1.04301
20
1.71358
11
0.910728
21
1.71358
0
LINE
8
BLACK
6
CONTINUOUS
10
0.910728
20
1.71358
11
0.910032
21
1.71387
0
LINE
8
BLACK
6
CONTINUOUS
10
0.910032
20
1.71387
11
0.909744
21
1.71457
0
LINE
8
BLACK
6
CONTINUOUS
10
0.909744
20
1.71457
11
0.909744
21
1.78937
0
LINE
8
BLACK
6
CONTINUOUS
10
0.909744
20
1.78937
11
0.910032
21
1.79007
0
LINE
8
BLACK
6
CONTINUOUS
10
0.910032
20
1.79007
11
0.910728
21
1.79035
0
LINE
8
BLACK
6
CONTINUOUS
10
0.910728
20
1.79035
11
1.04301
21
1.79035
0
LINE
8
BLACK
6
CONTINUOUS
10
0.911713
20
1.78839
11
0.911713
21
1.71555
0
LINE
8
BLACK
6
CONTINUOUS
10
0.911713
20
1.71555
11
1.04203
21
1.71555
0
LINE
8
BLACK
6
CONTINUOUS
10
1.04203
20
1.71555
11
1.04203
21
1.78839
0
LINE
8
BLACK
6
CONTINUOUS
10
1.04203
20
1.78839
11
0.911713
21
1.78839
0
LINE
8
BLACK
6
CONTINUOUS
10
0.991339
20
1.89272
11
0.992035
21
1.89243
0
LINE
8
BLACK
6
CONTINUOUS
10
0.992035
20
1.89243
11
0.992323
21
1.89173
0
LINE
8
BLACK
6
CONTINUOUS
10
0.992323
20
1.89173
11
0.992323
21
1.81693
0
LINE
8
BLACK
6
CONTINUOUS
10
0.992323
20
1.81693
11
0.992035
21
1.81623
0
LINE
8
BLACK
6
CONTINUOUS
10
0.992035
20
1.81623
11
0.991339
21
1.81594
0
LINE
8
BLACK
6
CONTINUOUS
10
0.991339
20
1.81594
11
0.859055
21
1.81594
0
LINE
8
BLACK
6
CONTINUOUS
10
0.859055
20
1.81594
11
0.858359
21
1.81623
0
LINE
8
BLACK
6
CONTINUOUS
10
0.858359
20
1.81623
11
0.858071
21
1.81693
0
LINE
8
BLACK
6
CONTINUOUS
10
0.858071
20
1.81693
11
0.858071
21
1.81693
0
LINE
8
BLACK
6
CONTINUOUS
10
0.858071
20
1.81693
11
0.858071
21
1.89173
0
LINE
8
BLACK
6
CONTINUOUS
10
0.858071
20
1.89173
11
0.858359
21
1.89243
0
LINE
8
BLACK
6
CONTINUOUS
10
0.858359
20
1.89243
11
0.859055
21
1.89272
0
LINE
8
BLACK
6
CONTINUOUS
10
0.859055
20
1.89272
11
0.991339
21
1.89272
0
LINE
8
BLACK
6
CONTINUOUS
10
0.860039
20
1.89075
11
0.860039
21
1.81791
0
LINE
8
BLACK
6
CONTINUOUS
10
0.860039
20
1.81791
11
0.990354
21
1.81791
0
LINE
8
BLACK
6
CONTINUOUS
10
0.990354
20
1.81791
11
0.990354
21
1.89075
0
LINE
8
BLACK
6
CONTINUOUS
10
0.990354
20
1.89075
11
0.860039
21
1.89075
  0
ENDSEC
  0
EOF
