  0
SECTION
  2
HEADER
  9
$ANGBASE
  50
0.0
  9
$ANGDIR
  70
1
  9
$MEASUREMENT
  70
0
  0
ENDSEC
  0
SECTION
  2
TABLES
  0
TABLE
  2
LTYPE
  70
4
  0
LTYPE
  5
40F
  2
CONTINUOUS
  70
0
  3
Solid line
  72
65
  73
0
  40
0.0
  0
LTYPE
  5
410
  2
DASHDOT
 70
0
  3
Dash Dot ____ _ ____ _
 72
65
 73
4
 40
2.0
 49
1.25
 49
-0.25
 49
0.25
 49
-0.25
  0
LTYPE
  5
411
  2
DASHED
 70
0
  3
Dashed __ __ __ __ __
 72
65
 73
2
 40
0.75
 49
0.5
 49
-0.25
  0
LTYPE
  5
43B
  2
DOTTED
 70
0
  3
Dotted .  .  .  .
 72
65
 73
2
 40
0.2
 49
0.0
 49
-0.2
  0
ENDTAB
  0
TABLE
  2
STYLE
  70
4
  0
STYLE
  2
KICAD
  70
0
  40
0
  41
1
  42
1
  50
0
  71
0
  3
isocp.shx
  0
STYLE
  2
KICADB
  70
0
  40
0
  41
1
  42
1
  50
0
  71
0
  3
isocp.shx
  0
STYLE
  2
KICADI
  70
0
  40
0
  41
1
  42
1
  50
15
  71
0
  3
isocp.shx
  0
STYLE
  2
KICADBI
  70
0
  40
0
  41
1
  42
1
  50
15
  71
0
  3
isocp.shx
  0
ENDTAB
  0
TABLE
  2
LAYER
  70
1
  0
LAYER
  2
BLACK
  70
0
  62
7
  6
CONTINUOUS
  0
ENDTAB
  0
ENDSEC
  0
SECTION
  2
ENTITIES
0
LINE
8
BLACK
6
CONTINUOUS
10
0.702979
20
0.402696
11
0.706172
21
0.400562
0
LINE
8
BLACK
6
CONTINUOUS
10
0.706172
20
0.400562
11
0.708306
21
0.397369
0
LINE
8
BLACK
6
CONTINUOUS
10
0.708306
20
0.397369
11
0.709055
21
0.393602
0
LINE
8
BLACK
6
CONTINUOUS
10
0.709055
20
0.393602
11
0.709055
21
0.372933
0
LINE
8
BLACK
6
CONTINUOUS
10
0.709055
20
0.372933
11
0.708306
21
0.369166
0
LINE
8
BLACK
6
CONTINUOUS
10
0.708306
20
0.369166
11
0.706172
21
0.365973
0
LINE
8
BLACK
6
CONTINUOUS
10
0.706172
20
0.365973
11
0.702979
21
0.36384
0
LINE
8
BLACK
6
CONTINUOUS
10
0.702979
20
0.36384
11
0.699213
21
0.363091
0
LINE
8
BLACK
6
CONTINUOUS
10
0.699213
20
0.363091
11
0.66378
21
0.363091
0
LINE
8
BLACK
6
CONTINUOUS
10
0.66378
20
0.363091
11
0.660013
21
0.36384
0
LINE
8
BLACK
6
CONTINUOUS
10
0.660013
20
0.36384
11
0.65682
21
0.365973
0
LINE
8
BLACK
6
CONTINUOUS
10
0.65682
20
0.365973
11
0.654686
21
0.369166
0
LINE
8
BLACK
6
CONTINUOUS
10
0.654686
20
0.369166
11
0.653937
21
0.372933
0
LINE
8
BLACK
6
CONTINUOUS
10
0.653937
20
0.372933
11
0.653937
21
0.393602
0
LINE
8
BLACK
6
CONTINUOUS
10
0.653937
20
0.393602
11
0.654686
21
0.397369
0
LINE
8
BLACK
6
CONTINUOUS
10
0.654686
20
0.397369
11
0.65682
21
0.400562
0
LINE
8
BLACK
6
CONTINUOUS
10
0.65682
20
0.400562
11
0.660013
21
0.402696
0
LINE
8
BLACK
6
CONTINUOUS
10
0.660013
20
0.402696
11
0.66378
21
0.403445
0
LINE
8
BLACK
6
CONTINUOUS
10
0.66378
20
0.403445
11
0.699213
21
0.403445
0
LINE
8
BLACK
6
CONTINUOUS
10
0.699213
20
0.403445
11
0.702979
21
0.402696
0
LINE
8
BLACK
6
CONTINUOUS
10
0.622664
20
0.403089
11
0.625857
21
0.400956
0
LINE
8
BLACK
6
CONTINUOUS
10
0.625857
20
0.400956
11
0.627991
21
0.397763
0
LINE
8
BLACK
6
CONTINUOUS
10
0.627991
20
0.397763
11
0.62874
21
0.393996
0
LINE
8
BLACK
6
CONTINUOUS
10
0.62874
20
0.393996
11
0.62874
21
0.373327
0
LINE
8
BLACK
6
CONTINUOUS
10
0.62874
20
0.373327
11
0.627991
21
0.36956
0
LINE
8
BLACK
6
CONTINUOUS
10
0.627991
20
0.36956
11
0.625857
21
0.366367
0
LINE
8
BLACK
6
CONTINUOUS
10
0.625857
20
0.366367
11
0.622664
21
0.364233
0
LINE
8
BLACK
6
CONTINUOUS
10
0.622664
20
0.364233
11
0.618898
21
0.363484
0
LINE
8
BLACK
6
CONTINUOUS
10
0.618898
20
0.363484
11
0.583465
21
0.363484
0
LINE
8
BLACK
6
CONTINUOUS
10
0.583465
20
0.363484
11
0.579698
21
0.364233
0
LINE
8
BLACK
6
CONTINUOUS
10
0.579698
20
0.364233
11
0.576505
21
0.366367
0
LINE
8
BLACK
6
CONTINUOUS
10
0.576505
20
0.366367
11
0.574371
21
0.36956
0
LINE
8
BLACK
6
CONTINUOUS
10
0.574371
20
0.36956
11
0.573622
21
0.373327
0
LINE
8
BLACK
6
CONTINUOUS
10
0.573622
20
0.373327
11
0.573622
21
0.393996
0
LINE
8
BLACK
6
CONTINUOUS
10
0.573622
20
0.393996
11
0.574371
21
0.397763
0
LINE
8
BLACK
6
CONTINUOUS
10
0.574371
20
0.397763
11
0.576505
21
0.400956
0
LINE
8
BLACK
6
CONTINUOUS
10
0.576505
20
0.400956
11
0.579698
21
0.403089
0
LINE
8
BLACK
6
CONTINUOUS
10
0.579698
20
0.403089
11
0.583465
21
0.403839
0
LINE
8
BLACK
6
CONTINUOUS
10
0.583465
20
0.403839
11
0.618898
21
0.403839
0
LINE
8
BLACK
6
CONTINUOUS
10
0.618898
20
0.403839
11
0.622664
21
0.403089
0
LINE
8
BLACK
6
CONTINUOUS
10
0.702979
20
0.474546
11
0.706172
21
0.472412
0
LINE
8
BLACK
6
CONTINUOUS
10
0.706172
20
0.472412
11
0.708306
21
0.469219
0
LINE
8
BLACK
6
CONTINUOUS
10
0.708306
20
0.469219
11
0.709055
21
0.465453
0
LINE
8
BLACK
6
CONTINUOUS
10
0.709055
20
0.465453
11
0.709055
21
0.444783
0
LINE
8
BLACK
6
CONTINUOUS
10
0.709055
20
0.444783
11
0.708306
21
0.441017
0
LINE
8
BLACK
6
CONTINUOUS
10
0.708306
20
0.441017
11
0.706172
21
0.437824
0
LINE
8
BLACK
6
CONTINUOUS
10
0.706172
20
0.437824
11
0.702979
21
0.43569
0
LINE
8
BLACK
6
CONTINUOUS
10
0.702979
20
0.43569
11
0.699213
21
0.434941
0
LINE
8
BLACK
6
CONTINUOUS
10
0.699213
20
0.434941
11
0.66378
21
0.434941
0
LINE
8
BLACK
6
CONTINUOUS
10
0.66378
20
0.434941
11
0.660013
21
0.43569
0
LINE
8
BLACK
6
CONTINUOUS
10
0.660013
20
0.43569
11
0.65682
21
0.437824
0
LINE
8
BLACK
6
CONTINUOUS
10
0.65682
20
0.437824
11
0.654686
21
0.441017
0
LINE
8
BLACK
6
CONTINUOUS
10
0.654686
20
0.441017
11
0.653937
21
0.444783
0
LINE
8
BLACK
6
CONTINUOUS
10
0.653937
20
0.444783
11
0.653937
21
0.465453
0
LINE
8
BLACK
6
CONTINUOUS
10
0.653937
20
0.465453
11
0.654686
21
0.469219
0
LINE
8
BLACK
6
CONTINUOUS
10
0.654686
20
0.469219
11
0.65682
21
0.472412
0
LINE
8
BLACK
6
CONTINUOUS
10
0.65682
20
0.472412
11
0.660013
21
0.474546
0
LINE
8
BLACK
6
CONTINUOUS
10
0.660013
20
0.474546
11
0.66378
21
0.475295
0
LINE
8
BLACK
6
CONTINUOUS
10
0.66378
20
0.475295
11
0.699213
21
0.475295
0
LINE
8
BLACK
6
CONTINUOUS
10
0.699213
20
0.475295
11
0.702979
21
0.474546
0
LINE
8
BLACK
6
CONTINUOUS
10
0.622664
20
0.47494
11
0.625857
21
0.472806
0
LINE
8
BLACK
6
CONTINUOUS
10
0.625857
20
0.472806
11
0.627991
21
0.469613
0
LINE
8
BLACK
6
CONTINUOUS
10
0.627991
20
0.469613
11
0.62874
21
0.465846
0
LINE
8
BLACK
6
CONTINUOUS
10
0.62874
20
0.465846
11
0.62874
21
0.445177
0
LINE
8
BLACK
6
CONTINUOUS
10
0.62874
20
0.445177
11
0.627991
21
0.441411
0
LINE
8
BLACK
6
CONTINUOUS
10
0.627991
20
0.441411
11
0.625857
21
0.438217
0
LINE
8
BLACK
6
CONTINUOUS
10
0.625857
20
0.438217
11
0.622664
21
0.436084
0
LINE
8
BLACK
6
CONTINUOUS
10
0.622664
20
0.436084
11
0.618898
21
0.435335
0
LINE
8
BLACK
6
CONTINUOUS
10
0.618898
20
0.435335
11
0.583465
21
0.435335
0
LINE
8
BLACK
6
CONTINUOUS
10
0.583465
20
0.435335
11
0.579698
21
0.436084
0
LINE
8
BLACK
6
CONTINUOUS
10
0.579698
20
0.436084
11
0.576505
21
0.438217
0
LINE
8
BLACK
6
CONTINUOUS
10
0.576505
20
0.438217
11
0.574371
21
0.441411
0
LINE
8
BLACK
6
CONTINUOUS
10
0.574371
20
0.441411
11
0.573622
21
0.445177
0
LINE
8
BLACK
6
CONTINUOUS
10
0.573622
20
0.445177
11
0.573622
21
0.465846
0
LINE
8
BLACK
6
CONTINUOUS
10
0.573622
20
0.465846
11
0.574371
21
0.469613
0
LINE
8
BLACK
6
CONTINUOUS
10
0.574371
20
0.469613
11
0.576505
21
0.472806
0
LINE
8
BLACK
6
CONTINUOUS
10
0.576505
20
0.472806
11
0.579698
21
0.47494
0
LINE
8
BLACK
6
CONTINUOUS
10
0.579698
20
0.47494
11
0.583465
21
0.475689
0
LINE
8
BLACK
6
CONTINUOUS
10
0.583465
20
0.475689
11
0.618898
21
0.475689
0
LINE
8
BLACK
6
CONTINUOUS
10
0.618898
20
0.475689
11
0.622664
21
0.47494
0
LINE
8
BLACK
6
CONTINUOUS
10
0.885827
20
0.484843
11
0.862205
21
0.484843
0
LINE
8
BLACK
6
CONTINUOUS
10
0.862205
20
0.484843
11
0.862205
21
0.530118
0
LINE
8
BLACK
6
CONTINUOUS
10
0.862205
20
0.530118
11
0.885827
21
0.530118
0
LINE
8
BLACK
6
CONTINUOUS
10
0.885827
20
0.530118
11
0.885827
21
0.484843
0
LINE
8
BLACK
6
CONTINUOUS
10
0.917323
20
0.484843
11
0.893701
21
0.484843
0
LINE
8
BLACK
6
CONTINUOUS
10
0.893701
20
0.484843
11
0.893701
21
0.530118
0
LINE
8
BLACK
6
CONTINUOUS
10
0.893701
20
0.530118
11
0.917323
21
0.530118
0
LINE
8
BLACK
6
CONTINUOUS
10
0.917323
20
0.530118
11
0.917323
21
0.484843
0
LINE
8
BLACK
6
CONTINUOUS
10
0.937008
20
0.484843
11
0.925197
21
0.484843
0
LINE
8
BLACK
6
CONTINUOUS
10
0.925197
20
0.484843
11
0.925197
21
0.530118
0
LINE
8
BLACK
6
CONTINUOUS
10
0.925197
20
0.530118
11
0.937008
21
0.530118
0
LINE
8
BLACK
6
CONTINUOUS
10
0.937008
20
0.530118
11
0.937008
21
0.484843
0
LINE
8
BLACK
6
CONTINUOUS
10
0.956693
20
0.484843
11
0.944882
21
0.484843
0
LINE
8
BLACK
6
CONTINUOUS
10
0.944882
20
0.484843
11
0.944882
21
0.530118
0
LINE
8
BLACK
6
CONTINUOUS
10
0.944882
20
0.530118
11
0.956693
21
0.530118
0
LINE
8
BLACK
6
CONTINUOUS
10
0.956693
20
0.530118
11
0.956693
21
0.484843
0
LINE
8
BLACK
6
CONTINUOUS
10
0.976378
20
0.484843
11
0.964567
21
0.484843
0
LINE
8
BLACK
6
CONTINUOUS
10
0.964567
20
0.484843
11
0.964567
21
0.530118
0
LINE
8
BLACK
6
CONTINUOUS
10
0.964567
20
0.530118
11
0.976378
21
0.530118
0
LINE
8
BLACK
6
CONTINUOUS
10
0.976378
20
0.530118
11
0.976378
21
0.484843
0
LINE
8
BLACK
6
CONTINUOUS
10
0.996063
20
0.484843
11
0.984252
21
0.484843
0
LINE
8
BLACK
6
CONTINUOUS
10
0.984252
20
0.484843
11
0.984252
21
0.530118
0
LINE
8
BLACK
6
CONTINUOUS
10
0.984252
20
0.530118
11
0.996063
21
0.530118
0
LINE
8
BLACK
6
CONTINUOUS
10
0.996063
20
0.530118
11
0.996063
21
0.484843
0
LINE
8
BLACK
6
CONTINUOUS
10
1.01575
20
0.484843
11
1.00394
21
0.484843
0
LINE
8
BLACK
6
CONTINUOUS
10
1.00394
20
0.484843
11
1.00394
21
0.530118
0
LINE
8
BLACK
6
CONTINUOUS
10
1.00394
20
0.530118
11
1.01575
21
0.530118
0
LINE
8
BLACK
6
CONTINUOUS
10
1.01575
20
0.530118
11
1.01575
21
0.484843
0
LINE
8
BLACK
6
CONTINUOUS
10
1.03543
20
0.484843
11
1.02362
21
0.484843
0
LINE
8
BLACK
6
CONTINUOUS
10
1.02362
20
0.484843
11
1.02362
21
0.530118
0
LINE
8
BLACK
6
CONTINUOUS
10
1.02362
20
0.530118
11
1.03543
21
0.530118
0
LINE
8
BLACK
6
CONTINUOUS
10
1.03543
20
0.530118
11
1.03543
21
0.484843
0
LINE
8
BLACK
6
CONTINUOUS
10
1.05512
20
0.484843
11
1.04331
21
0.484843
0
LINE
8
BLACK
6
CONTINUOUS
10
1.04331
20
0.484843
11
1.04331
21
0.530118
0
LINE
8
BLACK
6
CONTINUOUS
10
1.04331
20
0.530118
11
1.05512
21
0.530118
0
LINE
8
BLACK
6
CONTINUOUS
10
1.05512
20
0.530118
11
1.05512
21
0.484843
0
LINE
8
BLACK
6
CONTINUOUS
10
1.0748
20
0.484843
11
1.06299
21
0.484843
0
LINE
8
BLACK
6
CONTINUOUS
10
1.06299
20
0.484843
11
1.06299
21
0.530118
0
LINE
8
BLACK
6
CONTINUOUS
10
1.06299
20
0.530118
11
1.0748
21
0.530118
0
LINE
8
BLACK
6
CONTINUOUS
10
1.0748
20
0.530118
11
1.0748
21
0.484843
0
LINE
8
BLACK
6
CONTINUOUS
10
1.1063
20
0.484843
11
1.08268
21
0.484843
0
LINE
8
BLACK
6
CONTINUOUS
10
1.08268
20
0.484843
11
1.08268
21
0.530118
0
LINE
8
BLACK
6
CONTINUOUS
10
1.08268
20
0.530118
11
1.1063
21
0.530118
0
LINE
8
BLACK
6
CONTINUOUS
10
1.1063
20
0.530118
11
1.1063
21
0.484843
0
LINE
8
BLACK
6
CONTINUOUS
10
1.1378
20
0.484843
11
1.11417
21
0.484843
0
LINE
8
BLACK
6
CONTINUOUS
10
1.11417
20
0.484843
11
1.11417
21
0.530118
0
LINE
8
BLACK
6
CONTINUOUS
10
1.11417
20
0.530118
11
1.1378
21
0.530118
0
LINE
8
BLACK
6
CONTINUOUS
10
1.1378
20
0.530118
11
1.1378
21
0.484843
0
LINE
8
BLACK
6
CONTINUOUS
10
0.752585
20
0.540097
11
0.755779
21
0.537964
0
LINE
8
BLACK
6
CONTINUOUS
10
0.755779
20
0.537964
11
0.757912
21
0.534771
0
LINE
8
BLACK
6
CONTINUOUS
10
0.757912
20
0.534771
11
0.758661
21
0.531004
0
LINE
8
BLACK
6
CONTINUOUS
10
0.758661
20
0.531004
11
0.758661
21
0.510335
0
LINE
8
BLACK
6
CONTINUOUS
10
0.758661
20
0.510335
11
0.757912
21
0.506568
0
LINE
8
BLACK
6
CONTINUOUS
10
0.757912
20
0.506568
11
0.755779
21
0.503375
0
LINE
8
BLACK
6
CONTINUOUS
10
0.755779
20
0.503375
11
0.752585
21
0.501241
0
LINE
8
BLACK
6
CONTINUOUS
10
0.752585
20
0.501241
11
0.748819
21
0.500492
0
LINE
8
BLACK
6
CONTINUOUS
10
0.748819
20
0.500492
11
0.713386
21
0.500492
0
LINE
8
BLACK
6
CONTINUOUS
10
0.713386
20
0.500492
11
0.709619
21
0.501241
0
LINE
8
BLACK
6
CONTINUOUS
10
0.709619
20
0.501241
11
0.706426
21
0.503375
0
LINE
8
BLACK
6
CONTINUOUS
10
0.706426
20
0.503375
11
0.704293
21
0.506568
0
LINE
8
BLACK
6
CONTINUOUS
10
0.704293
20
0.506568
11
0.703543
21
0.510335
0
LINE
8
BLACK
6
CONTINUOUS
10
0.703543
20
0.510335
11
0.703543
21
0.531004
0
LINE
8
BLACK
6
CONTINUOUS
10
0.703543
20
0.531004
11
0.704293
21
0.534771
0
LINE
8
BLACK
6
CONTINUOUS
10
0.704293
20
0.534771
11
0.706426
21
0.537964
0
LINE
8
BLACK
6
CONTINUOUS
10
0.706426
20
0.537964
11
0.709619
21
0.540097
0
LINE
8
BLACK
6
CONTINUOUS
10
0.709619
20
0.540097
11
0.713386
21
0.540846
0
LINE
8
BLACK
6
CONTINUOUS
10
0.713386
20
0.540846
11
0.748819
21
0.540846
0
LINE
8
BLACK
6
CONTINUOUS
10
0.748819
20
0.540846
11
0.752585
21
0.540097
0
LINE
8
BLACK
6
CONTINUOUS
10
0.588806
20
0.540294
11
0.591999
21
0.538161
0
LINE
8
BLACK
6
CONTINUOUS
10
0.591999
20
0.538161
11
0.594133
21
0.534967
0
LINE
8
BLACK
6
CONTINUOUS
10
0.594133
20
0.534967
11
0.594882
21
0.531201
0
LINE
8
BLACK
6
CONTINUOUS
10
0.594882
20
0.531201
11
0.594882
21
0.510531
0
LINE
8
BLACK
6
CONTINUOUS
10
0.594882
20
0.510531
11
0.594133
21
0.506765
0
LINE
8
BLACK
6
CONTINUOUS
10
0.594133
20
0.506765
11
0.591999
21
0.503572
0
LINE
8
BLACK
6
CONTINUOUS
10
0.591999
20
0.503572
11
0.588806
21
0.501438
0
LINE
8
BLACK
6
CONTINUOUS
10
0.588806
20
0.501438
11
0.585039
21
0.500689
0
LINE
8
BLACK
6
CONTINUOUS
10
0.585039
20
0.500689
11
0.549606
21
0.500689
0
LINE
8
BLACK
6
CONTINUOUS
10
0.549606
20
0.500689
11
0.54584
21
0.501438
0
LINE
8
BLACK
6
CONTINUOUS
10
0.54584
20
0.501438
11
0.542647
21
0.503572
0
LINE
8
BLACK
6
CONTINUOUS
10
0.542647
20
0.503572
11
0.540513
21
0.506765
0
LINE
8
BLACK
6
CONTINUOUS
10
0.540513
20
0.506765
11
0.539764
21
0.510531
0
LINE
8
BLACK
6
CONTINUOUS
10
0.539764
20
0.510531
11
0.539764
21
0.531201
0
LINE
8
BLACK
6
CONTINUOUS
10
0.539764
20
0.531201
11
0.540513
21
0.534967
0
LINE
8
BLACK
6
CONTINUOUS
10
0.540513
20
0.534967
11
0.542647
21
0.538161
0
LINE
8
BLACK
6
CONTINUOUS
10
0.542647
20
0.538161
11
0.54584
21
0.540294
0
LINE
8
BLACK
6
CONTINUOUS
10
0.54584
20
0.540294
11
0.549606
21
0.541043
0
LINE
8
BLACK
6
CONTINUOUS
10
0.549606
20
0.541043
11
0.585039
21
0.541043
0
LINE
8
BLACK
6
CONTINUOUS
10
0.585039
20
0.541043
11
0.588806
21
0.540294
0
LINE
8
BLACK
6
CONTINUOUS
10
0.670302
20
0.540294
11
0.673495
21
0.538161
0
LINE
8
BLACK
6
CONTINUOUS
10
0.673495
20
0.538161
11
0.675629
21
0.534967
0
LINE
8
BLACK
6
CONTINUOUS
10
0.675629
20
0.534967
11
0.676378
21
0.531201
0
LINE
8
BLACK
6
CONTINUOUS
10
0.676378
20
0.531201
11
0.676378
21
0.510531
0
LINE
8
BLACK
6
CONTINUOUS
10
0.676378
20
0.510531
11
0.675629
21
0.506765
0
LINE
8
BLACK
6
CONTINUOUS
10
0.675629
20
0.506765
11
0.673495
21
0.503572
0
LINE
8
BLACK
6
CONTINUOUS
10
0.673495
20
0.503572
11
0.670302
21
0.501438
0
LINE
8
BLACK
6
CONTINUOUS
10
0.670302
20
0.501438
11
0.666535
21
0.500689
0
LINE
8
BLACK
6
CONTINUOUS
10
0.666535
20
0.500689
11
0.631102
21
0.500689
0
LINE
8
BLACK
6
CONTINUOUS
10
0.631102
20
0.500689
11
0.627336
21
0.501438
0
LINE
8
BLACK
6
CONTINUOUS
10
0.627336
20
0.501438
11
0.624143
21
0.503572
0
LINE
8
BLACK
6
CONTINUOUS
10
0.624143
20
0.503572
11
0.622009
21
0.506765
0
LINE
8
BLACK
6
CONTINUOUS
10
0.622009
20
0.506765
11
0.62126
21
0.510531
0
LINE
8
BLACK
6
CONTINUOUS
10
0.62126
20
0.510531
11
0.62126
21
0.531201
0
LINE
8
BLACK
6
CONTINUOUS
10
0.62126
20
0.531201
11
0.622009
21
0.534967
0
LINE
8
BLACK
6
CONTINUOUS
10
0.622009
20
0.534967
11
0.624143
21
0.538161
0
LINE
8
BLACK
6
CONTINUOUS
10
0.624143
20
0.538161
11
0.627336
21
0.540294
0
LINE
8
BLACK
6
CONTINUOUS
10
0.627336
20
0.540294
11
0.631102
21
0.541043
0
LINE
8
BLACK
6
CONTINUOUS
10
0.631102
20
0.541043
11
0.666535
21
0.541043
0
LINE
8
BLACK
6
CONTINUOUS
10
0.666535
20
0.541043
11
0.670302
21
0.540294
0
LINE
8
BLACK
6
CONTINUOUS
10
1.38024
20
0.562243
11
1.38344
21
0.560109
0
LINE
8
BLACK
6
CONTINUOUS
10
1.38344
20
0.560109
11
1.38557
21
0.556916
0
LINE
8
BLACK
6
CONTINUOUS
10
1.38557
20
0.556916
11
1.38632
21
0.55315
0
LINE
8
BLACK
6
CONTINUOUS
10
1.38632
20
0.55315
11
1.38632
21
0.517717
0
LINE
8
BLACK
6
CONTINUOUS
10
1.38632
20
0.517717
11
1.38557
21
0.51395
0
LINE
8
BLACK
6
CONTINUOUS
10
1.38557
20
0.51395
11
1.38344
21
0.510757
0
LINE
8
BLACK
6
CONTINUOUS
10
1.38344
20
0.510757
11
1.38024
21
0.508623
0
LINE
8
BLACK
6
CONTINUOUS
10
1.38024
20
0.508623
11
1.37648
21
0.507874
0
LINE
8
BLACK
6
CONTINUOUS
10
1.37648
20
0.507874
11
1.35581
21
0.507874
0
LINE
8
BLACK
6
CONTINUOUS
10
1.35581
20
0.507874
11
1.35204
21
0.508623
0
LINE
8
BLACK
6
CONTINUOUS
10
1.35204
20
0.508623
11
1.34885
21
0.510757
0
LINE
8
BLACK
6
CONTINUOUS
10
1.34885
20
0.510757
11
1.34671
21
0.51395
0
LINE
8
BLACK
6
CONTINUOUS
10
1.34671
20
0.51395
11
1.34596
21
0.517717
0
LINE
8
BLACK
6
CONTINUOUS
10
1.34596
20
0.517717
11
1.34596
21
0.55315
0
LINE
8
BLACK
6
CONTINUOUS
10
1.34596
20
0.55315
11
1.34671
21
0.556916
0
LINE
8
BLACK
6
CONTINUOUS
10
1.34671
20
0.556916
11
1.34885
21
0.560109
0
LINE
8
BLACK
6
CONTINUOUS
10
1.34885
20
0.560109
11
1.35204
21
0.562243
0
LINE
8
BLACK
6
CONTINUOUS
10
1.35204
20
0.562243
11
1.35581
21
0.562992
0
LINE
8
BLACK
6
CONTINUOUS
10
1.35581
20
0.562992
11
1.37648
21
0.562992
0
LINE
8
BLACK
6
CONTINUOUS
10
1.37648
20
0.562992
11
1.38024
21
0.562243
0
LINE
8
BLACK
6
CONTINUOUS
10
1.45209
20
0.562243
11
1.45529
21
0.560109
0
LINE
8
BLACK
6
CONTINUOUS
10
1.45529
20
0.560109
11
1.45742
21
0.556916
0
LINE
8
BLACK
6
CONTINUOUS
10
1.45742
20
0.556916
11
1.45817
21
0.55315
0
LINE
8
BLACK
6
CONTINUOUS
10
1.45817
20
0.55315
11
1.45817
21
0.517717
0
LINE
8
BLACK
6
CONTINUOUS
10
1.45817
20
0.517717
11
1.45742
21
0.51395
0
LINE
8
BLACK
6
CONTINUOUS
10
1.45742
20
0.51395
11
1.45529
21
0.510757
0
LINE
8
BLACK
6
CONTINUOUS
10
1.45529
20
0.510757
11
1.45209
21
0.508623
0
LINE
8
BLACK
6
CONTINUOUS
10
1.45209
20
0.508623
11
1.44833
21
0.507874
0
LINE
8
BLACK
6
CONTINUOUS
10
1.44833
20
0.507874
11
1.42766
21
0.507874
0
LINE
8
BLACK
6
CONTINUOUS
10
1.42766
20
0.507874
11
1.42389
21
0.508623
0
LINE
8
BLACK
6
CONTINUOUS
10
1.42389
20
0.508623
11
1.4207
21
0.510757
0
LINE
8
BLACK
6
CONTINUOUS
10
1.4207
20
0.510757
11
1.41856
21
0.51395
0
LINE
8
BLACK
6
CONTINUOUS
10
1.41856
20
0.51395
11
1.41781
21
0.517717
0
LINE
8
BLACK
6
CONTINUOUS
10
1.41781
20
0.517717
11
1.41781
21
0.55315
0
LINE
8
BLACK
6
CONTINUOUS
10
1.41781
20
0.55315
11
1.41856
21
0.556916
0
LINE
8
BLACK
6
CONTINUOUS
10
1.41856
20
0.556916
11
1.4207
21
0.560109
0
LINE
8
BLACK
6
CONTINUOUS
10
1.4207
20
0.560109
11
1.42389
21
0.562243
0
LINE
8
BLACK
6
CONTINUOUS
10
1.42389
20
0.562243
11
1.42766
21
0.562992
0
LINE
8
BLACK
6
CONTINUOUS
10
1.42766
20
0.562992
11
1.44833
21
0.562992
0
LINE
8
BLACK
6
CONTINUOUS
10
1.44833
20
0.562992
11
1.45209
21
0.562243
0
LINE
8
BLACK
6
CONTINUOUS
10
0.469908
20
0.604861
11
0.473101
21
0.602727
0
LINE
8
BLACK
6
CONTINUOUS
10
0.473101
20
0.602727
11
0.475235
21
0.599534
0
LINE
8
BLACK
6
CONTINUOUS
10
0.475235
20
0.599534
11
0.475984
21
0.595768
0
LINE
8
BLACK
6
CONTINUOUS
10
0.475984
20
0.595768
11
0.475984
21
0.575098
0
LINE
8
BLACK
6
CONTINUOUS
10
0.475984
20
0.575098
11
0.475235
21
0.571332
0
LINE
8
BLACK
6
CONTINUOUS
10
0.475235
20
0.571332
11
0.473101
21
0.568139
0
LINE
8
BLACK
6
CONTINUOUS
10
0.473101
20
0.568139
11
0.469908
21
0.566005
0
LINE
8
BLACK
6
CONTINUOUS
10
0.469908
20
0.566005
11
0.466142
21
0.565256
0
LINE
8
BLACK
6
CONTINUOUS
10
0.466142
20
0.565256
11
0.430709
21
0.565256
0
LINE
8
BLACK
6
CONTINUOUS
10
0.430709
20
0.565256
11
0.426942
21
0.566005
0
LINE
8
BLACK
6
CONTINUOUS
10
0.426942
20
0.566005
11
0.423749
21
0.568139
0
LINE
8
BLACK
6
CONTINUOUS
10
0.423749
20
0.568139
11
0.421615
21
0.571332
0
LINE
8
BLACK
6
CONTINUOUS
10
0.421615
20
0.571332
11
0.420866
21
0.575098
0
LINE
8
BLACK
6
CONTINUOUS
10
0.420866
20
0.575098
11
0.420866
21
0.595768
0
LINE
8
BLACK
6
CONTINUOUS
10
0.420866
20
0.595768
11
0.421615
21
0.599534
0
LINE
8
BLACK
6
CONTINUOUS
10
0.421615
20
0.599534
11
0.423749
21
0.602727
0
LINE
8
BLACK
6
CONTINUOUS
10
0.423749
20
0.602727
11
0.426942
21
0.604861
0
LINE
8
BLACK
6
CONTINUOUS
10
0.426942
20
0.604861
11
0.430709
21
0.60561
0
LINE
8
BLACK
6
CONTINUOUS
10
0.430709
20
0.60561
11
0.466142
21
0.60561
0
LINE
8
BLACK
6
CONTINUOUS
10
0.466142
20
0.60561
11
0.469908
21
0.604861
0
LINE
8
BLACK
6
CONTINUOUS
10
0.315578
20
0.606042
11
0.318771
21
0.603909
0
LINE
8
BLACK
6
CONTINUOUS
10
0.318771
20
0.603909
11
0.320904
21
0.600715
0
LINE
8
BLACK
6
CONTINUOUS
10
0.320904
20
0.600715
11
0.321654
21
0.596949
0
LINE
8
BLACK
6
CONTINUOUS
10
0.321654
20
0.596949
11
0.321654
21
0.57628
0
LINE
8
BLACK
6
CONTINUOUS
10
0.321654
20
0.57628
11
0.320904
21
0.572513
0
LINE
8
BLACK
6
CONTINUOUS
10
0.320904
20
0.572513
11
0.318771
21
0.56932
0
LINE
8
BLACK
6
CONTINUOUS
10
0.318771
20
0.56932
11
0.315578
21
0.567186
0
LINE
8
BLACK
6
CONTINUOUS
10
0.315578
20
0.567186
11
0.311811
21
0.566437
0
LINE
8
BLACK
6
CONTINUOUS
10
0.311811
20
0.566437
11
0.276378
21
0.566437
0
LINE
8
BLACK
6
CONTINUOUS
10
0.276378
20
0.566437
11
0.272611
21
0.567186
0
LINE
8
BLACK
6
CONTINUOUS
10
0.272611
20
0.567186
11
0.269418
21
0.56932
0
LINE
8
BLACK
6
CONTINUOUS
10
0.269418
20
0.56932
11
0.267285
21
0.572513
0
LINE
8
BLACK
6
CONTINUOUS
10
0.267285
20
0.572513
11
0.266535
21
0.57628
0
LINE
8
BLACK
6
CONTINUOUS
10
0.266535
20
0.57628
11
0.266535
21
0.596949
0
LINE
8
BLACK
6
CONTINUOUS
10
0.266535
20
0.596949
11
0.267285
21
0.600715
0
LINE
8
BLACK
6
CONTINUOUS
10
0.267285
20
0.600715
11
0.269418
21
0.603909
0
LINE
8
BLACK
6
CONTINUOUS
10
0.269418
20
0.603909
11
0.272611
21
0.606042
0
LINE
8
BLACK
6
CONTINUOUS
10
0.272611
20
0.606042
11
0.276378
21
0.606791
0
LINE
8
BLACK
6
CONTINUOUS
10
0.276378
20
0.606791
11
0.311811
21
0.606791
0
LINE
8
BLACK
6
CONTINUOUS
10
0.311811
20
0.606791
11
0.315578
21
0.606042
0
LINE
8
BLACK
6
CONTINUOUS
10
0.752585
20
0.611948
11
0.755779
21
0.609814
0
LINE
8
BLACK
6
CONTINUOUS
10
0.755779
20
0.609814
11
0.757912
21
0.606621
0
LINE
8
BLACK
6
CONTINUOUS
10
0.757912
20
0.606621
11
0.758661
21
0.602854
0
LINE
8
BLACK
6
CONTINUOUS
10
0.758661
20
0.602854
11
0.758661
21
0.582185
0
LINE
8
BLACK
6
CONTINUOUS
10
0.758661
20
0.582185
11
0.757912
21
0.578418
0
LINE
8
BLACK
6
CONTINUOUS
10
0.757912
20
0.578418
11
0.755779
21
0.575225
0
LINE
8
BLACK
6
CONTINUOUS
10
0.755779
20
0.575225
11
0.752585
21
0.573092
0
LINE
8
BLACK
6
CONTINUOUS
10
0.752585
20
0.573092
11
0.748819
21
0.572343
0
LINE
8
BLACK
6
CONTINUOUS
10
0.748819
20
0.572343
11
0.713386
21
0.572343
0
LINE
8
BLACK
6
CONTINUOUS
10
0.713386
20
0.572343
11
0.709619
21
0.573092
0
LINE
8
BLACK
6
CONTINUOUS
10
0.709619
20
0.573092
11
0.706426
21
0.575225
0
LINE
8
BLACK
6
CONTINUOUS
10
0.706426
20
0.575225
11
0.704293
21
0.578418
0
LINE
8
BLACK
6
CONTINUOUS
10
0.704293
20
0.578418
11
0.703543
21
0.582185
0
LINE
8
BLACK
6
CONTINUOUS
10
0.703543
20
0.582185
11
0.703543
21
0.602854
0
LINE
8
BLACK
6
CONTINUOUS
10
0.703543
20
0.602854
11
0.704293
21
0.606621
0
LINE
8
BLACK
6
CONTINUOUS
10
0.704293
20
0.606621
11
0.706426
21
0.609814
0
LINE
8
BLACK
6
CONTINUOUS
10
0.706426
20
0.609814
11
0.709619
21
0.611948
0
LINE
8
BLACK
6
CONTINUOUS
10
0.709619
20
0.611948
11
0.713386
21
0.612697
0
LINE
8
BLACK
6
CONTINUOUS
10
0.713386
20
0.612697
11
0.748819
21
0.612697
0
LINE
8
BLACK
6
CONTINUOUS
10
0.748819
20
0.612697
11
0.752585
21
0.611948
0
LINE
8
BLACK
6
CONTINUOUS
10
0.588806
20
0.612144
11
0.591999
21
0.610011
0
LINE
8
BLACK
6
CONTINUOUS
10
0.591999
20
0.610011
11
0.594133
21
0.606818
0
LINE
8
BLACK
6
CONTINUOUS
10
0.594133
20
0.606818
11
0.594882
21
0.603051
0
LINE
8
BLACK
6
CONTINUOUS
10
0.594882
20
0.603051
11
0.594882
21
0.582382
0
LINE
8
BLACK
6
CONTINUOUS
10
0.594882
20
0.582382
11
0.594133
21
0.578615
0
LINE
8
BLACK
6
CONTINUOUS
10
0.594133
20
0.578615
11
0.591999
21
0.575422
0
LINE
8
BLACK
6
CONTINUOUS
10
0.591999
20
0.575422
11
0.588806
21
0.573289
0
LINE
8
BLACK
6
CONTINUOUS
10
0.588806
20
0.573289
11
0.585039
21
0.572539
0
LINE
8
BLACK
6
CONTINUOUS
10
0.585039
20
0.572539
11
0.549606
21
0.572539
0
LINE
8
BLACK
6
CONTINUOUS
10
0.549606
20
0.572539
11
0.54584
21
0.573289
0
LINE
8
BLACK
6
CONTINUOUS
10
0.54584
20
0.573289
11
0.542647
21
0.575422
0
LINE
8
BLACK
6
CONTINUOUS
10
0.542647
20
0.575422
11
0.540513
21
0.578615
0
LINE
8
BLACK
6
CONTINUOUS
10
0.540513
20
0.578615
11
0.539764
21
0.582382
0
LINE
8
BLACK
6
CONTINUOUS
10
0.539764
20
0.582382
11
0.539764
21
0.603051
0
LINE
8
BLACK
6
CONTINUOUS
10
0.539764
20
0.603051
11
0.540513
21
0.606818
0
LINE
8
BLACK
6
CONTINUOUS
10
0.540513
20
0.606818
11
0.542647
21
0.610011
0
LINE
8
BLACK
6
CONTINUOUS
10
0.542647
20
0.610011
11
0.54584
21
0.612144
0
LINE
8
BLACK
6
CONTINUOUS
10
0.54584
20
0.612144
11
0.549606
21
0.612894
0
LINE
8
BLACK
6
CONTINUOUS
10
0.549606
20
0.612894
11
0.585039
21
0.612894
0
LINE
8
BLACK
6
CONTINUOUS
10
0.585039
20
0.612894
11
0.588806
21
0.612144
0
LINE
8
BLACK
6
CONTINUOUS
10
0.670302
20
0.612144
11
0.673495
21
0.610011
0
LINE
8
BLACK
6
CONTINUOUS
10
0.673495
20
0.610011
11
0.675629
21
0.606818
0
LINE
8
BLACK
6
CONTINUOUS
10
0.675629
20
0.606818
11
0.676378
21
0.603051
0
LINE
8
BLACK
6
CONTINUOUS
10
0.676378
20
0.603051
11
0.676378
21
0.582382
0
LINE
8
BLACK
6
CONTINUOUS
10
0.676378
20
0.582382
11
0.675629
21
0.578615
0
LINE
8
BLACK
6
CONTINUOUS
10
0.675629
20
0.578615
11
0.673495
21
0.575422
0
LINE
8
BLACK
6
CONTINUOUS
10
0.673495
20
0.575422
11
0.670302
21
0.573289
0
LINE
8
BLACK
6
CONTINUOUS
10
0.670302
20
0.573289
11
0.666535
21
0.572539
0
LINE
8
BLACK
6
CONTINUOUS
10
0.666535
20
0.572539
11
0.631102
21
0.572539
0
LINE
8
BLACK
6
CONTINUOUS
10
0.631102
20
0.572539
11
0.627336
21
0.573289
0
LINE
8
BLACK
6
CONTINUOUS
10
0.627336
20
0.573289
11
0.624143
21
0.575422
0
LINE
8
BLACK
6
CONTINUOUS
10
0.624143
20
0.575422
11
0.622009
21
0.578615
0
LINE
8
BLACK
6
CONTINUOUS
10
0.622009
20
0.578615
11
0.62126
21
0.582382
0
LINE
8
BLACK
6
CONTINUOUS
10
0.62126
20
0.582382
11
0.62126
21
0.603051
0
LINE
8
BLACK
6
CONTINUOUS
10
0.62126
20
0.603051
11
0.622009
21
0.606818
0
LINE
8
BLACK
6
CONTINUOUS
10
0.622009
20
0.606818
11
0.624143
21
0.610011
0
LINE
8
BLACK
6
CONTINUOUS
10
0.624143
20
0.610011
11
0.627336
21
0.612144
0
LINE
8
BLACK
6
CONTINUOUS
10
0.627336
20
0.612144
11
0.631102
21
0.612894
0
LINE
8
BLACK
6
CONTINUOUS
10
0.631102
20
0.612894
11
0.666535
21
0.612894
0
LINE
8
BLACK
6
CONTINUOUS
10
0.666535
20
0.612894
11
0.670302
21
0.612144
0
LINE
8
BLACK
6
CONTINUOUS
10
1.2875
20
0.620023
11
1.28941
21
0.618743
0
LINE
8
BLACK
6
CONTINUOUS
10
1.28941
20
0.618743
11
1.29069
21
0.616827
0
LINE
8
BLACK
6
CONTINUOUS
10
1.29069
20
0.616827
11
1.29114
21
0.614567
0
LINE
8
BLACK
6
CONTINUOUS
10
1.29114
20
0.614567
11
1.29114
21
0.602756
0
LINE
8
BLACK
6
CONTINUOUS
10
1.29114
20
0.602756
11
1.29069
21
0.600496
0
LINE
8
BLACK
6
CONTINUOUS
10
1.29069
20
0.600496
11
1.28941
21
0.59858
0
LINE
8
BLACK
6
CONTINUOUS
10
1.28941
20
0.59858
11
1.2875
21
0.5973
0
LINE
8
BLACK
6
CONTINUOUS
10
1.2875
20
0.5973
11
1.28524
21
0.59685
0
LINE
8
BLACK
6
CONTINUOUS
10
1.28524
20
0.59685
11
1.22028
21
0.59685
0
LINE
8
BLACK
6
CONTINUOUS
10
1.22028
20
0.59685
11
1.21802
21
0.5973
0
LINE
8
BLACK
6
CONTINUOUS
10
1.21802
20
0.5973
11
1.2161
21
0.59858
0
LINE
8
BLACK
6
CONTINUOUS
10
1.2161
20
0.59858
11
1.21482
21
0.600496
0
LINE
8
BLACK
6
CONTINUOUS
10
1.21482
20
0.600496
11
1.21437
21
0.602756
0
LINE
8
BLACK
6
CONTINUOUS
10
1.21437
20
0.602756
11
1.21437
21
0.614567
0
LINE
8
BLACK
6
CONTINUOUS
10
1.21437
20
0.614567
11
1.21482
21
0.616827
0
LINE
8
BLACK
6
CONTINUOUS
10
1.21482
20
0.616827
11
1.2161
21
0.618743
0
LINE
8
BLACK
6
CONTINUOUS
10
1.2161
20
0.618743
11
1.21802
21
0.620023
0
LINE
8
BLACK
6
CONTINUOUS
10
1.21802
20
0.620023
11
1.22028
21
0.620472
0
LINE
8
BLACK
6
CONTINUOUS
10
1.22028
20
0.620472
11
1.28524
21
0.620472
0
LINE
8
BLACK
6
CONTINUOUS
10
1.28524
20
0.620472
11
1.2875
21
0.620023
0
LINE
8
BLACK
6
CONTINUOUS
10
1.48238
20
0.620023
11
1.48429
21
0.618743
0
LINE
8
BLACK
6
CONTINUOUS
10
1.48429
20
0.618743
11
1.48557
21
0.616827
0
LINE
8
BLACK
6
CONTINUOUS
10
1.48557
20
0.616827
11
1.48602
21
0.614567
0
LINE
8
BLACK
6
CONTINUOUS
10
1.48602
20
0.614567
11
1.48602
21
0.602756
0
LINE
8
BLACK
6
CONTINUOUS
10
1.48602
20
0.602756
11
1.48557
21
0.600496
0
LINE
8
BLACK
6
CONTINUOUS
10
1.48557
20
0.600496
11
1.48429
21
0.59858
0
LINE
8
BLACK
6
CONTINUOUS
10
1.48429
20
0.59858
11
1.48238
21
0.5973
0
LINE
8
BLACK
6
CONTINUOUS
10
1.48238
20
0.5973
11
1.48012
21
0.59685
0
LINE
8
BLACK
6
CONTINUOUS
10
1.48012
20
0.59685
11
1.41516
21
0.59685
0
LINE
8
BLACK
6
CONTINUOUS
10
1.41516
20
0.59685
11
1.4129
21
0.5973
0
LINE
8
BLACK
6
CONTINUOUS
10
1.4129
20
0.5973
11
1.41098
21
0.59858
0
LINE
8
BLACK
6
CONTINUOUS
10
1.41098
20
0.59858
11
1.4097
21
0.600496
0
LINE
8
BLACK
6
CONTINUOUS
10
1.4097
20
0.600496
11
1.40925
21
0.602756
0
LINE
8
BLACK
6
CONTINUOUS
10
1.40925
20
0.602756
11
1.40925
21
0.614567
0
LINE
8
BLACK
6
CONTINUOUS
10
1.40925
20
0.614567
11
1.4097
21
0.616827
0
LINE
8
BLACK
6
CONTINUOUS
10
1.4097
20
0.616827
11
1.41098
21
0.618743
0
LINE
8
BLACK
6
CONTINUOUS
10
1.41098
20
0.618743
11
1.4129
21
0.620023
0
LINE
8
BLACK
6
CONTINUOUS
10
1.4129
20
0.620023
11
1.41516
21
0.620472
0
LINE
8
BLACK
6
CONTINUOUS
10
1.41516
20
0.620472
11
1.48012
21
0.620472
0
LINE
8
BLACK
6
CONTINUOUS
10
1.48012
20
0.620472
11
1.48238
21
0.620023
0
LINE
8
BLACK
6
CONTINUOUS
10
0.469908
20
0.676711
11
0.473101
21
0.674578
0
LINE
8
BLACK
6
CONTINUOUS
10
0.473101
20
0.674578
11
0.475235
21
0.671385
0
LINE
8
BLACK
6
CONTINUOUS
10
0.475235
20
0.671385
11
0.475984
21
0.667618
0
LINE
8
BLACK
6
CONTINUOUS
10
0.475984
20
0.667618
11
0.475984
21
0.646949
0
LINE
8
BLACK
6
CONTINUOUS
10
0.475984
20
0.646949
11
0.475235
21
0.643182
0
LINE
8
BLACK
6
CONTINUOUS
10
0.475235
20
0.643182
11
0.473101
21
0.639989
0
LINE
8
BLACK
6
CONTINUOUS
10
0.473101
20
0.639989
11
0.469908
21
0.637856
0
LINE
8
BLACK
6
CONTINUOUS
10
0.469908
20
0.637856
11
0.466142
21
0.637106
0
LINE
8
BLACK
6
CONTINUOUS
10
0.466142
20
0.637106
11
0.430709
21
0.637106
0
LINE
8
BLACK
6
CONTINUOUS
10
0.430709
20
0.637106
11
0.426942
21
0.637856
0
LINE
8
BLACK
6
CONTINUOUS
10
0.426942
20
0.637856
11
0.423749
21
0.639989
0
LINE
8
BLACK
6
CONTINUOUS
10
0.423749
20
0.639989
11
0.421615
21
0.643182
0
LINE
8
BLACK
6
CONTINUOUS
10
0.421615
20
0.643182
11
0.420866
21
0.646949
0
LINE
8
BLACK
6
CONTINUOUS
10
0.420866
20
0.646949
11
0.420866
21
0.667618
0
LINE
8
BLACK
6
CONTINUOUS
10
0.420866
20
0.667618
11
0.421615
21
0.671385
0
LINE
8
BLACK
6
CONTINUOUS
10
0.421615
20
0.671385
11
0.423749
21
0.674578
0
LINE
8
BLACK
6
CONTINUOUS
10
0.423749
20
0.674578
11
0.426942
21
0.676711
0
LINE
8
BLACK
6
CONTINUOUS
10
0.426942
20
0.676711
11
0.430709
21
0.677461
0
LINE
8
BLACK
6
CONTINUOUS
10
0.430709
20
0.677461
11
0.466142
21
0.677461
0
LINE
8
BLACK
6
CONTINUOUS
10
0.466142
20
0.677461
11
0.469908
21
0.676711
0
LINE
8
BLACK
6
CONTINUOUS
10
0.315578
20
0.677893
11
0.318771
21
0.675759
0
LINE
8
BLACK
6
CONTINUOUS
10
0.318771
20
0.675759
11
0.320904
21
0.672566
0
LINE
8
BLACK
6
CONTINUOUS
10
0.320904
20
0.672566
11
0.321654
21
0.668799
0
LINE
8
BLACK
6
CONTINUOUS
10
0.321654
20
0.668799
11
0.321654
21
0.64813
0
LINE
8
BLACK
6
CONTINUOUS
10
0.321654
20
0.64813
11
0.320904
21
0.644363
0
LINE
8
BLACK
6
CONTINUOUS
10
0.320904
20
0.644363
11
0.318771
21
0.64117
0
LINE
8
BLACK
6
CONTINUOUS
10
0.318771
20
0.64117
11
0.315578
21
0.639037
0
LINE
8
BLACK
6
CONTINUOUS
10
0.315578
20
0.639037
11
0.311811
21
0.638287
0
LINE
8
BLACK
6
CONTINUOUS
10
0.311811
20
0.638287
11
0.276378
21
0.638287
0
LINE
8
BLACK
6
CONTINUOUS
10
0.276378
20
0.638287
11
0.272611
21
0.639037
0
LINE
8
BLACK
6
CONTINUOUS
10
0.272611
20
0.639037
11
0.269418
21
0.64117
0
LINE
8
BLACK
6
CONTINUOUS
10
0.269418
20
0.64117
11
0.267285
21
0.644363
0
LINE
8
BLACK
6
CONTINUOUS
10
0.267285
20
0.644363
11
0.266535
21
0.64813
0
LINE
8
BLACK
6
CONTINUOUS
10
0.266535
20
0.64813
11
0.266535
21
0.668799
0
LINE
8
BLACK
6
CONTINUOUS
10
0.266535
20
0.668799
11
0.267285
21
0.672566
0
LINE
8
BLACK
6
CONTINUOUS
10
0.267285
20
0.672566
11
0.269418
21
0.675759
0
LINE
8
BLACK
6
CONTINUOUS
10
0.269418
20
0.675759
11
0.272611
21
0.677893
0
LINE
8
BLACK
6
CONTINUOUS
10
0.272611
20
0.677893
11
0.276378
21
0.678642
0
LINE
8
BLACK
6
CONTINUOUS
10
0.276378
20
0.678642
11
0.311811
21
0.678642
0
LINE
8
BLACK
6
CONTINUOUS
10
0.311811
20
0.678642
11
0.315578
21
0.677893
0
LINE
8
BLACK
6
CONTINUOUS
10
1.2875
20
0.670023
11
1.28941
21
0.668743
0
LINE
8
BLACK
6
CONTINUOUS
10
1.28941
20
0.668743
11
1.29069
21
0.666827
0
LINE
8
BLACK
6
CONTINUOUS
10
1.29069
20
0.666827
11
1.29114
21
0.664567
0
LINE
8
BLACK
6
CONTINUOUS
10
1.29114
20
0.664567
11
1.29114
21
0.652756
0
LINE
8
BLACK
6
CONTINUOUS
10
1.29114
20
0.652756
11
1.29069
21
0.650496
0
LINE
8
BLACK
6
CONTINUOUS
10
1.29069
20
0.650496
11
1.28941
21
0.64858
0
LINE
8
BLACK
6
CONTINUOUS
10
1.28941
20
0.64858
11
1.2875
21
0.6473
0
LINE
8
BLACK
6
CONTINUOUS
10
1.2875
20
0.6473
11
1.28524
21
0.64685
0
LINE
8
BLACK
6
CONTINUOUS
10
1.28524
20
0.64685
11
1.22028
21
0.64685
0
LINE
8
BLACK
6
CONTINUOUS
10
1.22028
20
0.64685
11
1.21802
21
0.6473
0
LINE
8
BLACK
6
CONTINUOUS
10
1.21802
20
0.6473
11
1.2161
21
0.64858
0
LINE
8
BLACK
6
CONTINUOUS
10
1.2161
20
0.64858
11
1.21482
21
0.650496
0
LINE
8
BLACK
6
CONTINUOUS
10
1.21482
20
0.650496
11
1.21437
21
0.652756
0
LINE
8
BLACK
6
CONTINUOUS
10
1.21437
20
0.652756
11
1.21437
21
0.664567
0
LINE
8
BLACK
6
CONTINUOUS
10
1.21437
20
0.664567
11
1.21482
21
0.666827
0
LINE
8
BLACK
6
CONTINUOUS
10
1.21482
20
0.666827
11
1.2161
21
0.668743
0
LINE
8
BLACK
6
CONTINUOUS
10
1.2161
20
0.668743
11
1.21802
21
0.670023
0
LINE
8
BLACK
6
CONTINUOUS
10
1.21802
20
0.670023
11
1.22028
21
0.670472
0
LINE
8
BLACK
6
CONTINUOUS
10
1.22028
20
0.670472
11
1.28524
21
0.670472
0
LINE
8
BLACK
6
CONTINUOUS
10
1.28524
20
0.670472
11
1.2875
21
0.670023
0
LINE
8
BLACK
6
CONTINUOUS
10
1.48238
20
0.670023
11
1.48429
21
0.668743
0
LINE
8
BLACK
6
CONTINUOUS
10
1.48429
20
0.668743
11
1.48557
21
0.666827
0
LINE
8
BLACK
6
CONTINUOUS
10
1.48557
20
0.666827
11
1.48602
21
0.664567
0
LINE
8
BLACK
6
CONTINUOUS
10
1.48602
20
0.664567
11
1.48602
21
0.652756
0
LINE
8
BLACK
6
CONTINUOUS
10
1.48602
20
0.652756
11
1.48557
21
0.650496
0
LINE
8
BLACK
6
CONTINUOUS
10
1.48557
20
0.650496
11
1.48429
21
0.64858
0
LINE
8
BLACK
6
CONTINUOUS
10
1.48429
20
0.64858
11
1.48238
21
0.6473
0
LINE
8
BLACK
6
CONTINUOUS
10
1.48238
20
0.6473
11
1.48012
21
0.64685
0
LINE
8
BLACK
6
CONTINUOUS
10
1.48012
20
0.64685
11
1.41516
21
0.64685
0
LINE
8
BLACK
6
CONTINUOUS
10
1.41516
20
0.64685
11
1.4129
21
0.6473
0
LINE
8
BLACK
6
CONTINUOUS
10
1.4129
20
0.6473
11
1.41098
21
0.64858
0
LINE
8
BLACK
6
CONTINUOUS
10
1.41098
20
0.64858
11
1.4097
21
0.650496
0
LINE
8
BLACK
6
CONTINUOUS
10
1.4097
20
0.650496
11
1.40925
21
0.652756
0
LINE
8
BLACK
6
CONTINUOUS
10
1.40925
20
0.652756
11
1.40925
21
0.664567
0
LINE
8
BLACK
6
CONTINUOUS
10
1.40925
20
0.664567
11
1.4097
21
0.666827
0
LINE
8
BLACK
6
CONTINUOUS
10
1.4097
20
0.666827
11
1.41098
21
0.668743
0
LINE
8
BLACK
6
CONTINUOUS
10
1.41098
20
0.668743
11
1.4129
21
0.670023
0
LINE
8
BLACK
6
CONTINUOUS
10
1.4129
20
0.670023
11
1.41516
21
0.670472
0
LINE
8
BLACK
6
CONTINUOUS
10
1.41516
20
0.670472
11
1.48012
21
0.670472
0
LINE
8
BLACK
6
CONTINUOUS
10
1.48012
20
0.670472
11
1.48238
21
0.670023
0
LINE
8
BLACK
6
CONTINUOUS
10
1.2875
20
0.720023
11
1.28941
21
0.718743
0
LINE
8
BLACK
6
CONTINUOUS
10
1.28941
20
0.718743
11
1.29069
21
0.716827
0
LINE
8
BLACK
6
CONTINUOUS
10
1.29069
20
0.716827
11
1.29114
21
0.714567
0
LINE
8
BLACK
6
CONTINUOUS
10
1.29114
20
0.714567
11
1.29114
21
0.702756
0
LINE
8
BLACK
6
CONTINUOUS
10
1.29114
20
0.702756
11
1.29069
21
0.700496
0
LINE
8
BLACK
6
CONTINUOUS
10
1.29069
20
0.700496
11
1.28941
21
0.69858
0
LINE
8
BLACK
6
CONTINUOUS
10
1.28941
20
0.69858
11
1.2875
21
0.6973
0
LINE
8
BLACK
6
CONTINUOUS
10
1.2875
20
0.6973
11
1.28524
21
0.69685
0
LINE
8
BLACK
6
CONTINUOUS
10
1.28524
20
0.69685
11
1.22028
21
0.69685
0
LINE
8
BLACK
6
CONTINUOUS
10
1.22028
20
0.69685
11
1.21802
21
0.6973
0
LINE
8
BLACK
6
CONTINUOUS
10
1.21802
20
0.6973
11
1.2161
21
0.69858
0
LINE
8
BLACK
6
CONTINUOUS
10
1.2161
20
0.69858
11
1.21482
21
0.700496
0
LINE
8
BLACK
6
CONTINUOUS
10
1.21482
20
0.700496
11
1.21437
21
0.702756
0
LINE
8
BLACK
6
CONTINUOUS
10
1.21437
20
0.702756
11
1.21437
21
0.714567
0
LINE
8
BLACK
6
CONTINUOUS
10
1.21437
20
0.714567
11
1.21482
21
0.716827
0
LINE
8
BLACK
6
CONTINUOUS
10
1.21482
20
0.716827
11
1.2161
21
0.718743
0
LINE
8
BLACK
6
CONTINUOUS
10
1.2161
20
0.718743
11
1.21802
21
0.720023
0
LINE
8
BLACK
6
CONTINUOUS
10
1.21802
20
0.720023
11
1.22028
21
0.720472
0
LINE
8
BLACK
6
CONTINUOUS
10
1.22028
20
0.720472
11
1.28524
21
0.720472
0
LINE
8
BLACK
6
CONTINUOUS
10
1.28524
20
0.720472
11
1.2875
21
0.720023
0
LINE
8
BLACK
6
CONTINUOUS
10
1.48238
20
0.720023
11
1.48429
21
0.718743
0
LINE
8
BLACK
6
CONTINUOUS
10
1.48429
20
0.718743
11
1.48557
21
0.716827
0
LINE
8
BLACK
6
CONTINUOUS
10
1.48557
20
0.716827
11
1.48602
21
0.714567
0
LINE
8
BLACK
6
CONTINUOUS
10
1.48602
20
0.714567
11
1.48602
21
0.702756
0
LINE
8
BLACK
6
CONTINUOUS
10
1.48602
20
0.702756
11
1.48557
21
0.700496
0
LINE
8
BLACK
6
CONTINUOUS
10
1.48557
20
0.700496
11
1.48429
21
0.69858
0
LINE
8
BLACK
6
CONTINUOUS
10
1.48429
20
0.69858
11
1.48238
21
0.6973
0
LINE
8
BLACK
6
CONTINUOUS
10
1.48238
20
0.6973
11
1.48012
21
0.69685
0
LINE
8
BLACK
6
CONTINUOUS
10
1.48012
20
0.69685
11
1.41516
21
0.69685
0
LINE
8
BLACK
6
CONTINUOUS
10
1.41516
20
0.69685
11
1.4129
21
0.6973
0
LINE
8
BLACK
6
CONTINUOUS
10
1.4129
20
0.6973
11
1.41098
21
0.69858
0
LINE
8
BLACK
6
CONTINUOUS
10
1.41098
20
0.69858
11
1.4097
21
0.700496
0
LINE
8
BLACK
6
CONTINUOUS
10
1.4097
20
0.700496
11
1.40925
21
0.702756
0
LINE
8
BLACK
6
CONTINUOUS
10
1.40925
20
0.702756
11
1.40925
21
0.714567
0
LINE
8
BLACK
6
CONTINUOUS
10
1.40925
20
0.714567
11
1.4097
21
0.716827
0
LINE
8
BLACK
6
CONTINUOUS
10
1.4097
20
0.716827
11
1.41098
21
0.718743
0
LINE
8
BLACK
6
CONTINUOUS
10
1.41098
20
0.718743
11
1.4129
21
0.720023
0
LINE
8
BLACK
6
CONTINUOUS
10
1.4129
20
0.720023
11
1.41516
21
0.720472
0
LINE
8
BLACK
6
CONTINUOUS
10
1.41516
20
0.720472
11
1.48012
21
0.720472
0
LINE
8
BLACK
6
CONTINUOUS
10
1.48012
20
0.720472
11
1.48238
21
0.720023
0
LINE
8
BLACK
6
CONTINUOUS
10
0.322925
20
0.780728
11
0.32536
21
0.779101
0
LINE
8
BLACK
6
CONTINUOUS
10
0.32536
20
0.779101
11
0.326988
21
0.776665
0
LINE
8
BLACK
6
CONTINUOUS
10
0.326988
20
0.776665
11
0.327559
21
0.773793
0
LINE
8
BLACK
6
CONTINUOUS
10
0.327559
20
0.773793
11
0.327559
21
0.729751
0
LINE
8
BLACK
6
CONTINUOUS
10
0.327559
20
0.729751
11
0.326988
21
0.726878
0
LINE
8
BLACK
6
CONTINUOUS
10
0.326988
20
0.726878
11
0.32536
21
0.724443
0
LINE
8
BLACK
6
CONTINUOUS
10
0.32536
20
0.724443
11
0.322925
21
0.722816
0
LINE
8
BLACK
6
CONTINUOUS
10
0.322925
20
0.722816
11
0.320052
21
0.722244
0
LINE
8
BLACK
6
CONTINUOUS
10
0.320052
20
0.722244
11
0.278766
21
0.722244
0
LINE
8
BLACK
6
CONTINUOUS
10
0.278766
20
0.722244
11
0.275894
21
0.722816
0
LINE
8
BLACK
6
CONTINUOUS
10
0.275894
20
0.722816
11
0.273458
21
0.724443
0
LINE
8
BLACK
6
CONTINUOUS
10
0.273458
20
0.724443
11
0.271831
21
0.726878
0
LINE
8
BLACK
6
CONTINUOUS
10
0.271831
20
0.726878
11
0.27126
21
0.729751
0
LINE
8
BLACK
6
CONTINUOUS
10
0.27126
20
0.729751
11
0.27126
21
0.773793
0
LINE
8
BLACK
6
CONTINUOUS
10
0.27126
20
0.773793
11
0.271831
21
0.776665
0
LINE
8
BLACK
6
CONTINUOUS
10
0.271831
20
0.776665
11
0.273458
21
0.779101
0
LINE
8
BLACK
6
CONTINUOUS
10
0.273458
20
0.779101
11
0.275894
21
0.780728
0
LINE
8
BLACK
6
CONTINUOUS
10
0.275894
20
0.780728
11
0.278766
21
0.781299
0
LINE
8
BLACK
6
CONTINUOUS
10
0.278766
20
0.781299
11
0.320052
21
0.781299
0
LINE
8
BLACK
6
CONTINUOUS
10
0.320052
20
0.781299
11
0.322925
21
0.780728
0
LINE
8
BLACK
6
CONTINUOUS
10
0.473713
20
0.780728
11
0.476148
21
0.779101
0
LINE
8
BLACK
6
CONTINUOUS
10
0.476148
20
0.779101
11
0.477775
21
0.776665
0
LINE
8
BLACK
6
CONTINUOUS
10
0.477775
20
0.776665
11
0.478346
21
0.773793
0
LINE
8
BLACK
6
CONTINUOUS
10
0.478346
20
0.773793
11
0.478346
21
0.729751
0
LINE
8
BLACK
6
CONTINUOUS
10
0.478346
20
0.729751
11
0.477775
21
0.726878
0
LINE
8
BLACK
6
CONTINUOUS
10
0.477775
20
0.726878
11
0.476148
21
0.724443
0
LINE
8
BLACK
6
CONTINUOUS
10
0.476148
20
0.724443
11
0.473713
21
0.722816
0
LINE
8
BLACK
6
CONTINUOUS
10
0.473713
20
0.722816
11
0.47084
21
0.722244
0
LINE
8
BLACK
6
CONTINUOUS
10
0.47084
20
0.722244
11
0.429554
21
0.722244
0
LINE
8
BLACK
6
CONTINUOUS
10
0.429554
20
0.722244
11
0.426681
21
0.722816
0
LINE
8
BLACK
6
CONTINUOUS
10
0.426681
20
0.722816
11
0.424246
21
0.724443
0
LINE
8
BLACK
6
CONTINUOUS
10
0.424246
20
0.724443
11
0.422619
21
0.726878
0
LINE
8
BLACK
6
CONTINUOUS
10
0.422619
20
0.726878
11
0.422047
21
0.729751
0
LINE
8
BLACK
6
CONTINUOUS
10
0.422047
20
0.729751
11
0.422047
21
0.773793
0
LINE
8
BLACK
6
CONTINUOUS
10
0.422047
20
0.773793
11
0.422619
21
0.776665
0
LINE
8
BLACK
6
CONTINUOUS
10
0.422619
20
0.776665
11
0.424246
21
0.779101
0
LINE
8
BLACK
6
CONTINUOUS
10
0.424246
20
0.779101
11
0.426681
21
0.780728
0
LINE
8
BLACK
6
CONTINUOUS
10
0.426681
20
0.780728
11
0.429554
21
0.781299
0
LINE
8
BLACK
6
CONTINUOUS
10
0.429554
20
0.781299
11
0.47084
21
0.781299
0
LINE
8
BLACK
6
CONTINUOUS
10
0.47084
20
0.781299
11
0.473713
21
0.780728
0
LINE
8
BLACK
6
CONTINUOUS
10
1.08448
20
0.774349
11
1.08767
21
0.772216
0
LINE
8
BLACK
6
CONTINUOUS
10
1.08767
20
0.772216
11
1.0898
21
0.769022
0
LINE
8
BLACK
6
CONTINUOUS
10
1.0898
20
0.769022
11
1.09055
21
0.765256
0
LINE
8
BLACK
6
CONTINUOUS
10
1.09055
20
0.765256
11
1.09055
21
0.744587
0
LINE
8
BLACK
6
CONTINUOUS
10
1.09055
20
0.744587
11
1.0898
21
0.74082
0
LINE
8
BLACK
6
CONTINUOUS
10
1.0898
20
0.74082
11
1.08767
21
0.737627
0
LINE
8
BLACK
6
CONTINUOUS
10
1.08767
20
0.737627
11
1.08448
21
0.735493
0
LINE
8
BLACK
6
CONTINUOUS
10
1.08448
20
0.735493
11
1.08071
21
0.734744
0
LINE
8
BLACK
6
CONTINUOUS
10
1.08071
20
0.734744
11
1.04528
21
0.734744
0
LINE
8
BLACK
6
CONTINUOUS
10
1.04528
20
0.734744
11
1.04151
21
0.735493
0
LINE
8
BLACK
6
CONTINUOUS
10
1.04151
20
0.735493
11
1.03832
21
0.737627
0
LINE
8
BLACK
6
CONTINUOUS
10
1.03832
20
0.737627
11
1.03618
21
0.74082
0
LINE
8
BLACK
6
CONTINUOUS
10
1.03618
20
0.74082
11
1.03543
21
0.744587
0
LINE
8
BLACK
6
CONTINUOUS
10
1.03543
20
0.744587
11
1.03543
21
0.765256
0
LINE
8
BLACK
6
CONTINUOUS
10
1.03543
20
0.765256
11
1.03618
21
0.769022
0
LINE
8
BLACK
6
CONTINUOUS
10
1.03618
20
0.769022
11
1.03832
21
0.772216
0
LINE
8
BLACK
6
CONTINUOUS
10
1.03832
20
0.772216
11
1.04151
21
0.774349
0
LINE
8
BLACK
6
CONTINUOUS
10
1.04151
20
0.774349
11
1.04528
21
0.775098
0
LINE
8
BLACK
6
CONTINUOUS
10
1.04528
20
0.775098
11
1.08071
21
0.775098
0
LINE
8
BLACK
6
CONTINUOUS
10
1.08071
20
0.775098
11
1.08448
21
0.774349
0
LINE
8
BLACK
6
CONTINUOUS
10
1.2875
20
0.770023
11
1.28941
21
0.768743
0
LINE
8
BLACK
6
CONTINUOUS
10
1.28941
20
0.768743
11
1.29069
21
0.766827
0
LINE
8
BLACK
6
CONTINUOUS
10
1.29069
20
0.766827
11
1.29114
21
0.764567
0
LINE
8
BLACK
6
CONTINUOUS
10
1.29114
20
0.764567
11
1.29114
21
0.752756
0
LINE
8
BLACK
6
CONTINUOUS
10
1.29114
20
0.752756
11
1.29069
21
0.750496
0
LINE
8
BLACK
6
CONTINUOUS
10
1.29069
20
0.750496
11
1.28941
21
0.74858
0
LINE
8
BLACK
6
CONTINUOUS
10
1.28941
20
0.74858
11
1.2875
21
0.7473
0
LINE
8
BLACK
6
CONTINUOUS
10
1.2875
20
0.7473
11
1.28524
21
0.74685
0
LINE
8
BLACK
6
CONTINUOUS
10
1.28524
20
0.74685
11
1.22028
21
0.74685
0
LINE
8
BLACK
6
CONTINUOUS
10
1.22028
20
0.74685
11
1.21802
21
0.7473
0
LINE
8
BLACK
6
CONTINUOUS
10
1.21802
20
0.7473
11
1.2161
21
0.74858
0
LINE
8
BLACK
6
CONTINUOUS
10
1.2161
20
0.74858
11
1.21482
21
0.750496
0
LINE
8
BLACK
6
CONTINUOUS
10
1.21482
20
0.750496
11
1.21437
21
0.752756
0
LINE
8
BLACK
6
CONTINUOUS
10
1.21437
20
0.752756
11
1.21437
21
0.764567
0
LINE
8
BLACK
6
CONTINUOUS
10
1.21437
20
0.764567
11
1.21482
21
0.766827
0
LINE
8
BLACK
6
CONTINUOUS
10
1.21482
20
0.766827
11
1.2161
21
0.768743
0
LINE
8
BLACK
6
CONTINUOUS
10
1.2161
20
0.768743
11
1.21802
21
0.770023
0
LINE
8
BLACK
6
CONTINUOUS
10
1.21802
20
0.770023
11
1.22028
21
0.770472
0
LINE
8
BLACK
6
CONTINUOUS
10
1.22028
20
0.770472
11
1.28524
21
0.770472
0
LINE
8
BLACK
6
CONTINUOUS
10
1.28524
20
0.770472
11
1.2875
21
0.770023
0
LINE
8
BLACK
6
CONTINUOUS
10
1.48238
20
0.770023
11
1.48429
21
0.768743
0
LINE
8
BLACK
6
CONTINUOUS
10
1.48429
20
0.768743
11
1.48557
21
0.766827
0
LINE
8
BLACK
6
CONTINUOUS
10
1.48557
20
0.766827
11
1.48602
21
0.764567
0
LINE
8
BLACK
6
CONTINUOUS
10
1.48602
20
0.764567
11
1.48602
21
0.752756
0
LINE
8
BLACK
6
CONTINUOUS
10
1.48602
20
0.752756
11
1.48557
21
0.750496
0
LINE
8
BLACK
6
CONTINUOUS
10
1.48557
20
0.750496
11
1.48429
21
0.74858
0
LINE
8
BLACK
6
CONTINUOUS
10
1.48429
20
0.74858
11
1.48238
21
0.7473
0
LINE
8
BLACK
6
CONTINUOUS
10
1.48238
20
0.7473
11
1.48012
21
0.74685
0
LINE
8
BLACK
6
CONTINUOUS
10
1.48012
20
0.74685
11
1.41516
21
0.74685
0
LINE
8
BLACK
6
CONTINUOUS
10
1.41516
20
0.74685
11
1.4129
21
0.7473
0
LINE
8
BLACK
6
CONTINUOUS
10
1.4129
20
0.7473
11
1.41098
21
0.74858
0
LINE
8
BLACK
6
CONTINUOUS
10
1.41098
20
0.74858
11
1.4097
21
0.750496
0
LINE
8
BLACK
6
CONTINUOUS
10
1.4097
20
0.750496
11
1.40925
21
0.752756
0
LINE
8
BLACK
6
CONTINUOUS
10
1.40925
20
0.752756
11
1.40925
21
0.764567
0
LINE
8
BLACK
6
CONTINUOUS
10
1.40925
20
0.764567
11
1.4097
21
0.766827
0
LINE
8
BLACK
6
CONTINUOUS
10
1.4097
20
0.766827
11
1.41098
21
0.768743
0
LINE
8
BLACK
6
CONTINUOUS
10
1.41098
20
0.768743
11
1.4129
21
0.770023
0
LINE
8
BLACK
6
CONTINUOUS
10
1.4129
20
0.770023
11
1.41516
21
0.770472
0
LINE
8
BLACK
6
CONTINUOUS
10
1.41516
20
0.770472
11
1.48012
21
0.770472
0
LINE
8
BLACK
6
CONTINUOUS
10
1.48012
20
0.770472
11
1.48238
21
0.770023
0
LINE
8
BLACK
6
CONTINUOUS
10
1.39944
20
0.842263
11
1.40263
21
0.840129
0
LINE
8
BLACK
6
CONTINUOUS
10
1.40263
20
0.840129
11
1.40476
21
0.836936
0
LINE
8
BLACK
6
CONTINUOUS
10
1.40476
20
0.836936
11
1.40551
21
0.833169
0
LINE
8
BLACK
6
CONTINUOUS
10
1.40551
20
0.833169
11
1.40551
21
0.8125
0
LINE
8
BLACK
6
CONTINUOUS
10
1.40551
20
0.8125
11
1.40476
21
0.808733
0
LINE
8
BLACK
6
CONTINUOUS
10
1.40476
20
0.808733
11
1.40263
21
0.80554
0
LINE
8
BLACK
6
CONTINUOUS
10
1.40263
20
0.80554
11
1.39944
21
0.803407
0
LINE
8
BLACK
6
CONTINUOUS
10
1.39944
20
0.803407
11
1.39567
21
0.802657
0
LINE
8
BLACK
6
CONTINUOUS
10
1.39567
20
0.802657
11
1.36024
21
0.802657
0
LINE
8
BLACK
6
CONTINUOUS
10
1.36024
20
0.802657
11
1.35647
21
0.803407
0
LINE
8
BLACK
6
CONTINUOUS
10
1.35647
20
0.803407
11
1.35328
21
0.80554
0
LINE
8
BLACK
6
CONTINUOUS
10
1.35328
20
0.80554
11
1.35114
21
0.808733
0
LINE
8
BLACK
6
CONTINUOUS
10
1.35114
20
0.808733
11
1.35039
21
0.8125
0
LINE
8
BLACK
6
CONTINUOUS
10
1.35039
20
0.8125
11
1.35039
21
0.833169
0
LINE
8
BLACK
6
CONTINUOUS
10
1.35039
20
0.833169
11
1.35114
21
0.836936
0
LINE
8
BLACK
6
CONTINUOUS
10
1.35114
20
0.836936
11
1.35328
21
0.840129
0
LINE
8
BLACK
6
CONTINUOUS
10
1.35328
20
0.840129
11
1.35647
21
0.842263
0
LINE
8
BLACK
6
CONTINUOUS
10
1.35647
20
0.842263
11
1.36024
21
0.843012
0
LINE
8
BLACK
6
CONTINUOUS
10
1.36024
20
0.843012
11
1.39567
21
0.843012
0
LINE
8
BLACK
6
CONTINUOUS
10
1.39567
20
0.843012
11
1.39944
21
0.842263
0
LINE
8
BLACK
6
CONTINUOUS
10
1.16715
20
0.857519
11
1.17035
21
0.855385
0
LINE
8
BLACK
6
CONTINUOUS
10
1.17035
20
0.855385
11
1.17248
21
0.852192
0
LINE
8
BLACK
6
CONTINUOUS
10
1.17248
20
0.852192
11
1.17323
21
0.848425
0
LINE
8
BLACK
6
CONTINUOUS
10
1.17323
20
0.848425
11
1.17323
21
0.812992
0
LINE
8
BLACK
6
CONTINUOUS
10
1.17323
20
0.812992
11
1.17248
21
0.809226
0
LINE
8
BLACK
6
CONTINUOUS
10
1.17248
20
0.809226
11
1.17035
21
0.806032
0
LINE
8
BLACK
6
CONTINUOUS
10
1.17035
20
0.806032
11
1.16715
21
0.803899
0
LINE
8
BLACK
6
CONTINUOUS
10
1.16715
20
0.803899
11
1.16339
21
0.80315
0
LINE
8
BLACK
6
CONTINUOUS
10
1.16339
20
0.80315
11
1.14272
21
0.80315
0
LINE
8
BLACK
6
CONTINUOUS
10
1.14272
20
0.80315
11
1.13895
21
0.803899
0
LINE
8
BLACK
6
CONTINUOUS
10
1.13895
20
0.803899
11
1.13576
21
0.806032
0
LINE
8
BLACK
6
CONTINUOUS
10
1.13576
20
0.806032
11
1.13362
21
0.809226
0
LINE
8
BLACK
6
CONTINUOUS
10
1.13362
20
0.809226
11
1.13287
21
0.812992
0
LINE
8
BLACK
6
CONTINUOUS
10
1.13287
20
0.812992
11
1.13287
21
0.848425
0
LINE
8
BLACK
6
CONTINUOUS
10
1.13287
20
0.848425
11
1.13362
21
0.852192
0
LINE
8
BLACK
6
CONTINUOUS
10
1.13362
20
0.852192
11
1.13576
21
0.855385
0
LINE
8
BLACK
6
CONTINUOUS
10
1.13576
20
0.855385
11
1.13895
21
0.857519
0
LINE
8
BLACK
6
CONTINUOUS
10
1.13895
20
0.857519
11
1.14272
21
0.858268
0
LINE
8
BLACK
6
CONTINUOUS
10
1.14272
20
0.858268
11
1.16339
21
0.858268
0
LINE
8
BLACK
6
CONTINUOUS
10
1.16339
20
0.858268
11
1.16715
21
0.857519
0
LINE
8
BLACK
6
CONTINUOUS
10
1.239
20
0.857519
11
1.2422
21
0.855385
0
LINE
8
BLACK
6
CONTINUOUS
10
1.2422
20
0.855385
11
1.24433
21
0.852192
0
LINE
8
BLACK
6
CONTINUOUS
10
1.24433
20
0.852192
11
1.24508
21
0.848425
0
LINE
8
BLACK
6
CONTINUOUS
10
1.24508
20
0.848425
11
1.24508
21
0.812992
0
LINE
8
BLACK
6
CONTINUOUS
10
1.24508
20
0.812992
11
1.24433
21
0.809226
0
LINE
8
BLACK
6
CONTINUOUS
10
1.24433
20
0.809226
11
1.2422
21
0.806032
0
LINE
8
BLACK
6
CONTINUOUS
10
1.2422
20
0.806032
11
1.239
21
0.803899
0
LINE
8
BLACK
6
CONTINUOUS
10
1.239
20
0.803899
11
1.23524
21
0.80315
0
LINE
8
BLACK
6
CONTINUOUS
10
1.23524
20
0.80315
11
1.21457
21
0.80315
0
LINE
8
BLACK
6
CONTINUOUS
10
1.21457
20
0.80315
11
1.2108
21
0.803899
0
LINE
8
BLACK
6
CONTINUOUS
10
1.2108
20
0.803899
11
1.20761
21
0.806032
0
LINE
8
BLACK
6
CONTINUOUS
10
1.20761
20
0.806032
11
1.20547
21
0.809226
0
LINE
8
BLACK
6
CONTINUOUS
10
1.20547
20
0.809226
11
1.20472
21
0.812992
0
LINE
8
BLACK
6
CONTINUOUS
10
1.20472
20
0.812992
11
1.20472
21
0.848425
0
LINE
8
BLACK
6
CONTINUOUS
10
1.20472
20
0.848425
11
1.20547
21
0.852192
0
LINE
8
BLACK
6
CONTINUOUS
10
1.20547
20
0.852192
11
1.20761
21
0.855385
0
LINE
8
BLACK
6
CONTINUOUS
10
1.20761
20
0.855385
11
1.2108
21
0.857519
0
LINE
8
BLACK
6
CONTINUOUS
10
1.2108
20
0.857519
11
1.21457
21
0.858268
0
LINE
8
BLACK
6
CONTINUOUS
10
1.21457
20
0.858268
11
1.23524
21
0.858268
0
LINE
8
BLACK
6
CONTINUOUS
10
1.23524
20
0.858268
11
1.239
21
0.857519
0
LINE
8
BLACK
6
CONTINUOUS
10
1.47916
20
0.84177
11
1.48235
21
0.839637
0
LINE
8
BLACK
6
CONTINUOUS
10
1.48235
20
0.839637
11
1.48449
21
0.836444
0
LINE
8
BLACK
6
CONTINUOUS
10
1.48449
20
0.836444
11
1.48524
21
0.832677
0
LINE
8
BLACK
6
CONTINUOUS
10
1.48524
20
0.832677
11
1.48524
21
0.812992
0
LINE
8
BLACK
6
CONTINUOUS
10
1.48524
20
0.812992
11
1.48449
21
0.809226
0
LINE
8
BLACK
6
CONTINUOUS
10
1.48449
20
0.809226
11
1.48235
21
0.806032
0
LINE
8
BLACK
6
CONTINUOUS
10
1.48235
20
0.806032
11
1.47916
21
0.803899
0
LINE
8
BLACK
6
CONTINUOUS
10
1.47916
20
0.803899
11
1.47539
21
0.80315
0
LINE
8
BLACK
6
CONTINUOUS
10
1.47539
20
0.80315
11
1.43799
21
0.80315
0
LINE
8
BLACK
6
CONTINUOUS
10
1.43799
20
0.80315
11
1.43423
21
0.803899
0
LINE
8
BLACK
6
CONTINUOUS
10
1.43423
20
0.803899
11
1.43103
21
0.806032
0
LINE
8
BLACK
6
CONTINUOUS
10
1.43103
20
0.806032
11
1.4289
21
0.809226
0
LINE
8
BLACK
6
CONTINUOUS
10
1.4289
20
0.809226
11
1.42815
21
0.812992
0
LINE
8
BLACK
6
CONTINUOUS
10
1.42815
20
0.812992
11
1.42815
21
0.832677
0
LINE
8
BLACK
6
CONTINUOUS
10
1.42815
20
0.832677
11
1.4289
21
0.836444
0
LINE
8
BLACK
6
CONTINUOUS
10
1.4289
20
0.836444
11
1.43103
21
0.839637
0
LINE
8
BLACK
6
CONTINUOUS
10
1.43103
20
0.839637
11
1.43423
21
0.84177
0
LINE
8
BLACK
6
CONTINUOUS
10
1.43423
20
0.84177
11
1.43799
21
0.84252
0
LINE
8
BLACK
6
CONTINUOUS
10
1.43799
20
0.84252
11
1.47539
21
0.84252
0
LINE
8
BLACK
6
CONTINUOUS
10
1.47539
20
0.84252
11
1.47916
21
0.84177
0
LINE
8
BLACK
6
CONTINUOUS
10
1.3207
20
0.845707
11
1.32389
21
0.843574
0
LINE
8
BLACK
6
CONTINUOUS
10
1.32389
20
0.843574
11
1.32602
21
0.840381
0
LINE
8
BLACK
6
CONTINUOUS
10
1.32602
20
0.840381
11
1.32677
21
0.836614
0
LINE
8
BLACK
6
CONTINUOUS
10
1.32677
20
0.836614
11
1.32677
21
0.815945
0
LINE
8
BLACK
6
CONTINUOUS
10
1.32677
20
0.815945
11
1.32602
21
0.812178
0
LINE
8
BLACK
6
CONTINUOUS
10
1.32602
20
0.812178
11
1.32389
21
0.808985
0
LINE
8
BLACK
6
CONTINUOUS
10
1.32389
20
0.808985
11
1.3207
21
0.806852
0
LINE
8
BLACK
6
CONTINUOUS
10
1.3207
20
0.806852
11
1.31693
21
0.806102
0
LINE
8
BLACK
6
CONTINUOUS
10
1.31693
20
0.806102
11
1.2815
21
0.806102
0
LINE
8
BLACK
6
CONTINUOUS
10
1.2815
20
0.806102
11
1.27773
21
0.806852
0
LINE
8
BLACK
6
CONTINUOUS
10
1.27773
20
0.806852
11
1.27454
21
0.808985
0
LINE
8
BLACK
6
CONTINUOUS
10
1.27454
20
0.808985
11
1.2724
21
0.812178
0
LINE
8
BLACK
6
CONTINUOUS
10
1.2724
20
0.812178
11
1.27165
21
0.815945
0
LINE
8
BLACK
6
CONTINUOUS
10
1.27165
20
0.815945
11
1.27165
21
0.836614
0
LINE
8
BLACK
6
CONTINUOUS
10
1.27165
20
0.836614
11
1.2724
21
0.840381
0
LINE
8
BLACK
6
CONTINUOUS
10
1.2724
20
0.840381
11
1.27454
21
0.843574
0
LINE
8
BLACK
6
CONTINUOUS
10
1.27454
20
0.843574
11
1.27773
21
0.845707
0
LINE
8
BLACK
6
CONTINUOUS
10
1.27773
20
0.845707
11
1.2815
21
0.846457
0
LINE
8
BLACK
6
CONTINUOUS
10
1.2815
20
0.846457
11
1.31693
21
0.846457
0
LINE
8
BLACK
6
CONTINUOUS
10
1.31693
20
0.846457
11
1.3207
21
0.845707
0
LINE
8
BLACK
6
CONTINUOUS
10
1.08448
20
0.8462
11
1.08767
21
0.844066
0
LINE
8
BLACK
6
CONTINUOUS
10
1.08767
20
0.844066
11
1.0898
21
0.840873
0
LINE
8
BLACK
6
CONTINUOUS
10
1.0898
20
0.840873
11
1.09055
21
0.837106
0
LINE
8
BLACK
6
CONTINUOUS
10
1.09055
20
0.837106
11
1.09055
21
0.816437
0
LINE
8
BLACK
6
CONTINUOUS
10
1.09055
20
0.816437
11
1.0898
21
0.81267
0
LINE
8
BLACK
6
CONTINUOUS
10
1.0898
20
0.81267
11
1.08767
21
0.809477
0
LINE
8
BLACK
6
CONTINUOUS
10
1.08767
20
0.809477
11
1.08448
21
0.807344
0
LINE
8
BLACK
6
CONTINUOUS
10
1.08448
20
0.807344
11
1.08071
21
0.806594
0
LINE
8
BLACK
6
CONTINUOUS
10
1.08071
20
0.806594
11
1.04528
21
0.806594
0
LINE
8
BLACK
6
CONTINUOUS
10
1.04528
20
0.806594
11
1.04151
21
0.807344
0
LINE
8
BLACK
6
CONTINUOUS
10
1.04151
20
0.807344
11
1.03832
21
0.809477
0
LINE
8
BLACK
6
CONTINUOUS
10
1.03832
20
0.809477
11
1.03618
21
0.81267
0
LINE
8
BLACK
6
CONTINUOUS
10
1.03618
20
0.81267
11
1.03543
21
0.816437
0
LINE
8
BLACK
6
CONTINUOUS
10
1.03543
20
0.816437
11
1.03543
21
0.837106
0
LINE
8
BLACK
6
CONTINUOUS
10
1.03543
20
0.837106
11
1.03618
21
0.840873
0
LINE
8
BLACK
6
CONTINUOUS
10
1.03618
20
0.840873
11
1.03832
21
0.844066
0
LINE
8
BLACK
6
CONTINUOUS
10
1.03832
20
0.844066
11
1.04151
21
0.8462
0
LINE
8
BLACK
6
CONTINUOUS
10
1.04151
20
0.8462
11
1.04528
21
0.846949
0
LINE
8
BLACK
6
CONTINUOUS
10
1.04528
20
0.846949
11
1.08071
21
0.846949
0
LINE
8
BLACK
6
CONTINUOUS
10
1.08071
20
0.846949
11
1.08448
21
0.8462
0
LINE
8
BLACK
6
CONTINUOUS
10
0.323516
20
0.900019
11
0.325951
21
0.898392
0
LINE
8
BLACK
6
CONTINUOUS
10
0.325951
20
0.898392
11
0.327578
21
0.895957
0
LINE
8
BLACK
6
CONTINUOUS
10
0.327578
20
0.895957
11
0.32815
21
0.893084
0
LINE
8
BLACK
6
CONTINUOUS
10
0.32815
20
0.893084
11
0.32815
21
0.849042
0
LINE
8
BLACK
6
CONTINUOUS
10
0.32815
20
0.849042
11
0.327578
21
0.846169
0
LINE
8
BLACK
6
CONTINUOUS
10
0.327578
20
0.846169
11
0.325951
21
0.843734
0
LINE
8
BLACK
6
CONTINUOUS
10
0.325951
20
0.843734
11
0.323516
21
0.842107
0
LINE
8
BLACK
6
CONTINUOUS
10
0.323516
20
0.842107
11
0.320643
21
0.841535
0
LINE
8
BLACK
6
CONTINUOUS
10
0.320643
20
0.841535
11
0.279357
21
0.841535
0
LINE
8
BLACK
6
CONTINUOUS
10
0.279357
20
0.841535
11
0.276484
21
0.842107
0
LINE
8
BLACK
6
CONTINUOUS
10
0.276484
20
0.842107
11
0.274049
21
0.843734
0
LINE
8
BLACK
6
CONTINUOUS
10
0.274049
20
0.843734
11
0.272422
21
0.846169
0
LINE
8
BLACK
6
CONTINUOUS
10
0.272422
20
0.846169
11
0.27185
21
0.849042
0
LINE
8
BLACK
6
CONTINUOUS
10
0.27185
20
0.849042
11
0.27185
21
0.893084
0
LINE
8
BLACK
6
CONTINUOUS
10
0.27185
20
0.893084
11
0.272422
21
0.895957
0
LINE
8
BLACK
6
CONTINUOUS
10
0.272422
20
0.895957
11
0.274049
21
0.898392
0
LINE
8
BLACK
6
CONTINUOUS
10
0.274049
20
0.898392
11
0.276484
21
0.900019
0
LINE
8
BLACK
6
CONTINUOUS
10
0.276484
20
0.900019
11
0.279357
21
0.900591
0
LINE
8
BLACK
6
CONTINUOUS
10
0.279357
20
0.900591
11
0.320643
21
0.900591
0
LINE
8
BLACK
6
CONTINUOUS
10
0.320643
20
0.900591
11
0.323516
21
0.900019
0
LINE
8
BLACK
6
CONTINUOUS
10
0.474303
20
0.900019
11
0.476738
21
0.898392
0
LINE
8
BLACK
6
CONTINUOUS
10
0.476738
20
0.898392
11
0.478366
21
0.895957
0
LINE
8
BLACK
6
CONTINUOUS
10
0.478366
20
0.895957
11
0.478937
21
0.893084
0
LINE
8
BLACK
6
CONTINUOUS
10
0.478937
20
0.893084
11
0.478937
21
0.849042
0
LINE
8
BLACK
6
CONTINUOUS
10
0.478937
20
0.849042
11
0.478366
21
0.846169
0
LINE
8
BLACK
6
CONTINUOUS
10
0.478366
20
0.846169
11
0.476738
21
0.843734
0
LINE
8
BLACK
6
CONTINUOUS
10
0.476738
20
0.843734
11
0.474303
21
0.842107
0
LINE
8
BLACK
6
CONTINUOUS
10
0.474303
20
0.842107
11
0.47143
21
0.841535
0
LINE
8
BLACK
6
CONTINUOUS
10
0.47143
20
0.841535
11
0.430144
21
0.841535
0
LINE
8
BLACK
6
CONTINUOUS
10
0.430144
20
0.841535
11
0.427272
21
0.842107
0
LINE
8
BLACK
6
CONTINUOUS
10
0.427272
20
0.842107
11
0.424836
21
0.843734
0
LINE
8
BLACK
6
CONTINUOUS
10
0.424836
20
0.843734
11
0.423209
21
0.846169
0
LINE
8
BLACK
6
CONTINUOUS
10
0.423209
20
0.846169
11
0.422638
21
0.849042
0
LINE
8
BLACK
6
CONTINUOUS
10
0.422638
20
0.849042
11
0.422638
21
0.893084
0
LINE
8
BLACK
6
CONTINUOUS
10
0.422638
20
0.893084
11
0.423209
21
0.895957
0
LINE
8
BLACK
6
CONTINUOUS
10
0.423209
20
0.895957
11
0.424836
21
0.898392
0
LINE
8
BLACK
6
CONTINUOUS
10
0.424836
20
0.898392
11
0.427272
21
0.900019
0
LINE
8
BLACK
6
CONTINUOUS
10
0.427272
20
0.900019
11
0.430144
21
0.900591
0
LINE
8
BLACK
6
CONTINUOUS
10
0.430144
20
0.900591
11
0.47143
21
0.900591
0
LINE
8
BLACK
6
CONTINUOUS
10
0.47143
20
0.900591
11
0.474303
21
0.900019
0
LINE
8
BLACK
6
CONTINUOUS
10
1.39944
20
0.914113
11
1.40263
21
0.911979
0
LINE
8
BLACK
6
CONTINUOUS
10
1.40263
20
0.911979
11
1.40476
21
0.908786
0
LINE
8
BLACK
6
CONTINUOUS
10
1.40476
20
0.908786
11
1.40551
21
0.90502
0
LINE
8
BLACK
6
CONTINUOUS
10
1.40551
20
0.90502
11
1.40551
21
0.88435
0
LINE
8
BLACK
6
CONTINUOUS
10
1.40551
20
0.88435
11
1.40476
21
0.880584
0
LINE
8
BLACK
6
CONTINUOUS
10
1.40476
20
0.880584
11
1.40263
21
0.877391
0
LINE
8
BLACK
6
CONTINUOUS
10
1.40263
20
0.877391
11
1.39944
21
0.875257
0
LINE
8
BLACK
6
CONTINUOUS
10
1.39944
20
0.875257
11
1.39567
21
0.874508
0
LINE
8
BLACK
6
CONTINUOUS
10
1.39567
20
0.874508
11
1.36024
21
0.874508
0
LINE
8
BLACK
6
CONTINUOUS
10
1.36024
20
0.874508
11
1.35647
21
0.875257
0
LINE
8
BLACK
6
CONTINUOUS
10
1.35647
20
0.875257
11
1.35328
21
0.877391
0
LINE
8
BLACK
6
CONTINUOUS
10
1.35328
20
0.877391
11
1.35114
21
0.880584
0
LINE
8
BLACK
6
CONTINUOUS
10
1.35114
20
0.880584
11
1.35039
21
0.88435
0
LINE
8
BLACK
6
CONTINUOUS
10
1.35039
20
0.88435
11
1.35039
21
0.90502
0
LINE
8
BLACK
6
CONTINUOUS
10
1.35039
20
0.90502
11
1.35114
21
0.908786
0
LINE
8
BLACK
6
CONTINUOUS
10
1.35114
20
0.908786
11
1.35328
21
0.911979
0
LINE
8
BLACK
6
CONTINUOUS
10
1.35328
20
0.911979
11
1.35647
21
0.914113
0
LINE
8
BLACK
6
CONTINUOUS
10
1.35647
20
0.914113
11
1.36024
21
0.914862
0
LINE
8
BLACK
6
CONTINUOUS
10
1.36024
20
0.914862
11
1.39567
21
0.914862
0
LINE
8
BLACK
6
CONTINUOUS
10
1.39567
20
0.914862
11
1.39944
21
0.914113
0
LINE
8
BLACK
6
CONTINUOUS
10
1.3207
20
0.917558
11
1.32389
21
0.915424
0
LINE
8
BLACK
6
CONTINUOUS
10
1.32389
20
0.915424
11
1.32602
21
0.912231
0
LINE
8
BLACK
6
CONTINUOUS
10
1.32602
20
0.912231
11
1.32677
21
0.908465
0
LINE
8
BLACK
6
CONTINUOUS
10
1.32677
20
0.908465
11
1.32677
21
0.887795
0
LINE
8
BLACK
6
CONTINUOUS
10
1.32677
20
0.887795
11
1.32602
21
0.884029
0
LINE
8
BLACK
6
CONTINUOUS
10
1.32602
20
0.884029
11
1.32389
21
0.880836
0
LINE
8
BLACK
6
CONTINUOUS
10
1.32389
20
0.880836
11
1.3207
21
0.878702
0
LINE
8
BLACK
6
CONTINUOUS
10
1.3207
20
0.878702
11
1.31693
21
0.877953
0
LINE
8
BLACK
6
CONTINUOUS
10
1.31693
20
0.877953
11
1.2815
21
0.877953
0
LINE
8
BLACK
6
CONTINUOUS
10
1.2815
20
0.877953
11
1.27773
21
0.878702
0
LINE
8
BLACK
6
CONTINUOUS
10
1.27773
20
0.878702
11
1.27454
21
0.880836
0
LINE
8
BLACK
6
CONTINUOUS
10
1.27454
20
0.880836
11
1.2724
21
0.884029
0
LINE
8
BLACK
6
CONTINUOUS
10
1.2724
20
0.884029
11
1.27165
21
0.887795
0
LINE
8
BLACK
6
CONTINUOUS
10
1.27165
20
0.887795
11
1.27165
21
0.908465
0
LINE
8
BLACK
6
CONTINUOUS
10
1.27165
20
0.908465
11
1.2724
21
0.912231
0
LINE
8
BLACK
6
CONTINUOUS
10
1.2724
20
0.912231
11
1.27454
21
0.915424
0
LINE
8
BLACK
6
CONTINUOUS
10
1.27454
20
0.915424
11
1.27773
21
0.917558
0
LINE
8
BLACK
6
CONTINUOUS
10
1.27773
20
0.917558
11
1.2815
21
0.918307
0
LINE
8
BLACK
6
CONTINUOUS
10
1.2815
20
0.918307
11
1.31693
21
0.918307
0
LINE
8
BLACK
6
CONTINUOUS
10
1.31693
20
0.918307
11
1.3207
21
0.917558
0
LINE
8
BLACK
6
CONTINUOUS
10
1.47916
20
0.916574
11
1.48235
21
0.91444
0
LINE
8
BLACK
6
CONTINUOUS
10
1.48235
20
0.91444
11
1.48449
21
0.911247
0
LINE
8
BLACK
6
CONTINUOUS
10
1.48449
20
0.911247
11
1.48524
21
0.90748
0
LINE
8
BLACK
6
CONTINUOUS
10
1.48524
20
0.90748
11
1.48524
21
0.887795
0
LINE
8
BLACK
6
CONTINUOUS
10
1.48524
20
0.887795
11
1.48449
21
0.884029
0
LINE
8
BLACK
6
CONTINUOUS
10
1.48449
20
0.884029
11
1.48235
21
0.880836
0
LINE
8
BLACK
6
CONTINUOUS
10
1.48235
20
0.880836
11
1.47916
21
0.878702
0
LINE
8
BLACK
6
CONTINUOUS
10
1.47916
20
0.878702
11
1.47539
21
0.877953
0
LINE
8
BLACK
6
CONTINUOUS
10
1.47539
20
0.877953
11
1.43799
21
0.877953
0
LINE
8
BLACK
6
CONTINUOUS
10
1.43799
20
0.877953
11
1.43423
21
0.878702
0
LINE
8
BLACK
6
CONTINUOUS
10
1.43423
20
0.878702
11
1.43103
21
0.880836
0
LINE
8
BLACK
6
CONTINUOUS
10
1.43103
20
0.880836
11
1.4289
21
0.884029
0
LINE
8
BLACK
6
CONTINUOUS
10
1.4289
20
0.884029
11
1.42815
21
0.887795
0
LINE
8
BLACK
6
CONTINUOUS
10
1.42815
20
0.887795
11
1.42815
21
0.90748
0
LINE
8
BLACK
6
CONTINUOUS
10
1.42815
20
0.90748
11
1.4289
21
0.911247
0
LINE
8
BLACK
6
CONTINUOUS
10
1.4289
20
0.911247
11
1.43103
21
0.91444
0
LINE
8
BLACK
6
CONTINUOUS
10
1.43103
20
0.91444
11
1.43423
21
0.916574
0
LINE
8
BLACK
6
CONTINUOUS
10
1.43423
20
0.916574
11
1.43799
21
0.917323
0
LINE
8
BLACK
6
CONTINUOUS
10
1.43799
20
0.917323
11
1.47539
21
0.917323
0
LINE
8
BLACK
6
CONTINUOUS
10
1.47539
20
0.917323
11
1.47916
21
0.916574
0
LINE
8
BLACK
6
CONTINUOUS
10
1.01636
20
0.967558
11
1.01956
21
0.965424
0
LINE
8
BLACK
6
CONTINUOUS
10
1.01956
20
0.965424
11
1.02169
21
0.962231
0
LINE
8
BLACK
6
CONTINUOUS
10
1.02169
20
0.962231
11
1.02244
21
0.958465
0
LINE
8
BLACK
6
CONTINUOUS
10
1.02244
20
0.958465
11
1.02244
21
0.921063
0
LINE
8
BLACK
6
CONTINUOUS
10
1.02244
20
0.921063
11
1.02169
21
0.917296
0
LINE
8
BLACK
6
CONTINUOUS
10
1.02169
20
0.917296
11
1.01956
21
0.914103
0
LINE
8
BLACK
6
CONTINUOUS
10
1.01956
20
0.914103
11
1.01636
21
0.91197
0
LINE
8
BLACK
6
CONTINUOUS
10
1.01636
20
0.91197
11
1.0126
21
0.91122
0
LINE
8
BLACK
6
CONTINUOUS
10
1.0126
20
0.91122
11
0.992913
21
0.91122
0
LINE
8
BLACK
6
CONTINUOUS
10
0.992913
20
0.91122
11
0.989147
21
0.91197
0
LINE
8
BLACK
6
CONTINUOUS
10
0.989147
20
0.91197
11
0.985954
21
0.914103
0
LINE
8
BLACK
6
CONTINUOUS
10
0.985954
20
0.914103
11
0.98382
21
0.917296
0
LINE
8
BLACK
6
CONTINUOUS
10
0.98382
20
0.917296
11
0.983071
21
0.921063
0
LINE
8
BLACK
6
CONTINUOUS
10
0.983071
20
0.921063
11
0.983071
21
0.958465
0
LINE
8
BLACK
6
CONTINUOUS
10
0.983071
20
0.958465
11
0.98382
21
0.962231
0
LINE
8
BLACK
6
CONTINUOUS
10
0.98382
20
0.962231
11
0.985954
21
0.965424
0
LINE
8
BLACK
6
CONTINUOUS
10
0.985954
20
0.965424
11
0.989147
21
0.967558
0
LINE
8
BLACK
6
CONTINUOUS
10
0.989147
20
0.967558
11
0.992913
21
0.968307
0
LINE
8
BLACK
6
CONTINUOUS
10
0.992913
20
0.968307
11
1.0126
21
0.968307
0
LINE
8
BLACK
6
CONTINUOUS
10
1.0126
20
0.968307
11
1.01636
21
0.967558
0
LINE
8
BLACK
6
CONTINUOUS
10
1.09117
20
0.967558
11
1.09436
21
0.965424
0
LINE
8
BLACK
6
CONTINUOUS
10
1.09436
20
0.965424
11
1.09649
21
0.962231
0
LINE
8
BLACK
6
CONTINUOUS
10
1.09649
20
0.962231
11
1.09724
21
0.958465
0
LINE
8
BLACK
6
CONTINUOUS
10
1.09724
20
0.958465
11
1.09724
21
0.921063
0
LINE
8
BLACK
6
CONTINUOUS
10
1.09724
20
0.921063
11
1.09649
21
0.917296
0
LINE
8
BLACK
6
CONTINUOUS
10
1.09649
20
0.917296
11
1.09436
21
0.914103
0
LINE
8
BLACK
6
CONTINUOUS
10
1.09436
20
0.914103
11
1.09117
21
0.91197
0
LINE
8
BLACK
6
CONTINUOUS
10
1.09117
20
0.91197
11
1.0874
21
0.91122
0
LINE
8
BLACK
6
CONTINUOUS
10
1.0874
20
0.91122
11
1.06772
21
0.91122
0
LINE
8
BLACK
6
CONTINUOUS
10
1.06772
20
0.91122
11
1.06395
21
0.91197
0
LINE
8
BLACK
6
CONTINUOUS
10
1.06395
20
0.91197
11
1.06076
21
0.914103
0
LINE
8
BLACK
6
CONTINUOUS
10
1.06076
20
0.914103
11
1.05862
21
0.917296
0
LINE
8
BLACK
6
CONTINUOUS
10
1.05862
20
0.917296
11
1.05787
21
0.921063
0
LINE
8
BLACK
6
CONTINUOUS
10
1.05787
20
0.921063
11
1.05787
21
0.958465
0
LINE
8
BLACK
6
CONTINUOUS
10
1.05787
20
0.958465
11
1.05862
21
0.962231
0
LINE
8
BLACK
6
CONTINUOUS
10
1.05862
20
0.962231
11
1.06076
21
0.965424
0
LINE
8
BLACK
6
CONTINUOUS
10
1.06076
20
0.965424
11
1.06395
21
0.967558
0
LINE
8
BLACK
6
CONTINUOUS
10
1.06395
20
0.967558
11
1.06772
21
0.968307
0
LINE
8
BLACK
6
CONTINUOUS
10
1.06772
20
0.968307
11
1.0874
21
0.968307
0
LINE
8
BLACK
6
CONTINUOUS
10
1.0874
20
0.968307
11
1.09117
21
0.967558
0
LINE
8
BLACK
6
CONTINUOUS
10
0.323909
20
1.01931
11
0.326345
21
1.01768
0
LINE
8
BLACK
6
CONTINUOUS
10
0.326345
20
1.01768
11
0.327972
21
1.01525
0
LINE
8
BLACK
6
CONTINUOUS
10
0.327972
20
1.01525
11
0.328543
21
1.01238
0
LINE
8
BLACK
6
CONTINUOUS
10
0.328543
20
1.01238
11
0.328543
21
0.968333
0
LINE
8
BLACK
6
CONTINUOUS
10
0.328543
20
0.968333
11
0.327972
21
0.965461
0
LINE
8
BLACK
6
CONTINUOUS
10
0.327972
20
0.965461
11
0.326345
21
0.963025
0
LINE
8
BLACK
6
CONTINUOUS
10
0.326345
20
0.963025
11
0.323909
21
0.961398
0
LINE
8
BLACK
6
CONTINUOUS
10
0.323909
20
0.961398
11
0.321037
21
0.960827
0
LINE
8
BLACK
6
CONTINUOUS
10
0.321037
20
0.960827
11
0.279751
21
0.960827
0
LINE
8
BLACK
6
CONTINUOUS
10
0.279751
20
0.960827
11
0.276878
21
0.961398
0
LINE
8
BLACK
6
CONTINUOUS
10
0.276878
20
0.961398
11
0.274443
21
0.963025
0
LINE
8
BLACK
6
CONTINUOUS
10
0.274443
20
0.963025
11
0.272816
21
0.965461
0
LINE
8
BLACK
6
CONTINUOUS
10
0.272816
20
0.965461
11
0.272244
21
0.968333
0
LINE
8
BLACK
6
CONTINUOUS
10
0.272244
20
0.968333
11
0.272244
21
1.01238
0
LINE
8
BLACK
6
CONTINUOUS
10
0.272244
20
1.01238
11
0.272816
21
1.01525
0
LINE
8
BLACK
6
CONTINUOUS
10
0.272816
20
1.01525
11
0.274443
21
1.01768
0
LINE
8
BLACK
6
CONTINUOUS
10
0.274443
20
1.01768
11
0.276878
21
1.01931
0
LINE
8
BLACK
6
CONTINUOUS
10
0.276878
20
1.01931
11
0.279751
21
1.01988
0
LINE
8
BLACK
6
CONTINUOUS
10
0.279751
20
1.01988
11
0.321037
21
1.01988
0
LINE
8
BLACK
6
CONTINUOUS
10
0.321037
20
1.01988
11
0.323909
21
1.01931
0
LINE
8
BLACK
6
CONTINUOUS
10
0.474697
20
1.01931
11
0.477132
21
1.01768
0
LINE
8
BLACK
6
CONTINUOUS
10
0.477132
20
1.01768
11
0.478759
21
1.01525
0
LINE
8
BLACK
6
CONTINUOUS
10
0.478759
20
1.01525
11
0.479331
21
1.01238
0
LINE
8
BLACK
6
CONTINUOUS
10
0.479331
20
1.01238
11
0.479331
21
0.968333
0
LINE
8
BLACK
6
CONTINUOUS
10
0.479331
20
0.968333
11
0.478759
21
0.965461
0
LINE
8
BLACK
6
CONTINUOUS
10
0.478759
20
0.965461
11
0.477132
21
0.963025
0
LINE
8
BLACK
6
CONTINUOUS
10
0.477132
20
0.963025
11
0.474697
21
0.961398
0
LINE
8
BLACK
6
CONTINUOUS
10
0.474697
20
0.961398
11
0.471824
21
0.960827
0
LINE
8
BLACK
6
CONTINUOUS
10
0.471824
20
0.960827
11
0.430538
21
0.960827
0
LINE
8
BLACK
6
CONTINUOUS
10
0.430538
20
0.960827
11
0.427665
21
0.961398
0
LINE
8
BLACK
6
CONTINUOUS
10
0.427665
20
0.961398
11
0.42523
21
0.963025
0
LINE
8
BLACK
6
CONTINUOUS
10
0.42523
20
0.963025
11
0.423603
21
0.965461
0
LINE
8
BLACK
6
CONTINUOUS
10
0.423603
20
0.965461
11
0.423032
21
0.968333
0
LINE
8
BLACK
6
CONTINUOUS
10
0.423032
20
0.968333
11
0.423031
21
1.01238
0
LINE
8
BLACK
6
CONTINUOUS
10
0.423031
20
1.01238
11
0.423603
21
1.01525
0
LINE
8
BLACK
6
CONTINUOUS
10
0.423603
20
1.01525
11
0.42523
21
1.01768
0
LINE
8
BLACK
6
CONTINUOUS
10
0.42523
20
1.01768
11
0.427665
21
1.01931
0
LINE
8
BLACK
6
CONTINUOUS
10
0.427665
20
1.01931
11
0.430538
21
1.01988
0
LINE
8
BLACK
6
CONTINUOUS
10
0.430538
20
1.01988
11
0.471824
21
1.01988
0
LINE
8
BLACK
6
CONTINUOUS
10
0.471824
20
1.01988
11
0.474697
21
1.01931
0
LINE
8
BLACK
6
CONTINUOUS
10
1.18684
20
1.05929
11
1.19003
21
1.05716
0
LINE
8
BLACK
6
CONTINUOUS
10
1.19003
20
1.05716
11
1.19216
21
1.05396
0
LINE
8
BLACK
6
CONTINUOUS
10
1.19216
20
1.05396
11
1.19291
21
1.0502
0
LINE
8
BLACK
6
CONTINUOUS
10
1.19291
20
1.0502
11
1.19291
21
1.0128
0
LINE
8
BLACK
6
CONTINUOUS
10
1.19291
20
1.0128
11
1.19216
21
1.00903
0
LINE
8
BLACK
6
CONTINUOUS
10
1.19216
20
1.00903
11
1.19003
21
1.00584
0
LINE
8
BLACK
6
CONTINUOUS
10
1.19003
20
1.00584
11
1.18684
21
1.0037
0
LINE
8
BLACK
6
CONTINUOUS
10
1.18684
20
1.0037
11
1.18307
21
1.00295
0
LINE
8
BLACK
6
CONTINUOUS
10
1.18307
20
1.00295
11
1.16339
21
1.00295
0
LINE
8
BLACK
6
CONTINUOUS
10
1.16339
20
1.00295
11
1.15962
21
1.0037
0
LINE
8
BLACK
6
CONTINUOUS
10
1.15962
20
1.0037
11
1.15643
21
1.00584
0
LINE
8
BLACK
6
CONTINUOUS
10
1.15643
20
1.00584
11
1.15429
21
1.00903
0
LINE
8
BLACK
6
CONTINUOUS
10
1.15429
20
1.00903
11
1.15354
21
1.0128
0
LINE
8
BLACK
6
CONTINUOUS
10
1.15354
20
1.0128
11
1.15354
21
1.0502
0
LINE
8
BLACK
6
CONTINUOUS
10
1.15354
20
1.0502
11
1.15429
21
1.05396
0
LINE
8
BLACK
6
CONTINUOUS
10
1.15429
20
1.05396
11
1.15643
21
1.05716
0
LINE
8
BLACK
6
CONTINUOUS
10
1.15643
20
1.05716
11
1.15962
21
1.05929
0
LINE
8
BLACK
6
CONTINUOUS
10
1.15962
20
1.05929
11
1.16339
21
1.06004
0
LINE
8
BLACK
6
CONTINUOUS
10
1.16339
20
1.06004
11
1.18307
21
1.06004
0
LINE
8
BLACK
6
CONTINUOUS
10
1.18307
20
1.06004
11
1.18684
21
1.05929
0
LINE
8
BLACK
6
CONTINUOUS
10
1.26164
20
1.05929
11
1.26483
21
1.05716
0
LINE
8
BLACK
6
CONTINUOUS
10
1.26483
20
1.05716
11
1.26697
21
1.05396
0
LINE
8
BLACK
6
CONTINUOUS
10
1.26697
20
1.05396
11
1.26772
21
1.0502
0
LINE
8
BLACK
6
CONTINUOUS
10
1.26772
20
1.0502
11
1.26772
21
1.0128
0
LINE
8
BLACK
6
CONTINUOUS
10
1.26772
20
1.0128
11
1.26697
21
1.00903
0
LINE
8
BLACK
6
CONTINUOUS
10
1.26697
20
1.00903
11
1.26483
21
1.00584
0
LINE
8
BLACK
6
CONTINUOUS
10
1.26483
20
1.00584
11
1.26164
21
1.0037
0
LINE
8
BLACK
6
CONTINUOUS
10
1.26164
20
1.0037
11
1.25787
21
1.00295
0
LINE
8
BLACK
6
CONTINUOUS
10
1.25787
20
1.00295
11
1.23819
21
1.00295
0
LINE
8
BLACK
6
CONTINUOUS
10
1.23819
20
1.00295
11
1.23442
21
1.0037
0
LINE
8
BLACK
6
CONTINUOUS
10
1.23442
20
1.0037
11
1.23123
21
1.00584
0
LINE
8
BLACK
6
CONTINUOUS
10
1.23123
20
1.00584
11
1.2291
21
1.00903
0
LINE
8
BLACK
6
CONTINUOUS
10
1.2291
20
1.00903
11
1.22835
21
1.0128
0
LINE
8
BLACK
6
CONTINUOUS
10
1.22835
20
1.0128
11
1.22835
21
1.0502
0
LINE
8
BLACK
6
CONTINUOUS
10
1.22835
20
1.0502
11
1.2291
21
1.05396
0
LINE
8
BLACK
6
CONTINUOUS
10
1.2291
20
1.05396
11
1.23123
21
1.05716
0
LINE
8
BLACK
6
CONTINUOUS
10
1.23123
20
1.05716
11
1.23442
21
1.05929
0
LINE
8
BLACK
6
CONTINUOUS
10
1.23442
20
1.05929
11
1.23819
21
1.06004
0
LINE
8
BLACK
6
CONTINUOUS
10
1.23819
20
1.06004
11
1.25787
21
1.06004
0
LINE
8
BLACK
6
CONTINUOUS
10
1.25787
20
1.06004
11
1.26164
21
1.05929
0
LINE
8
BLACK
6
CONTINUOUS
10
0.978796
20
1.08151
11
0.979594
21
1.08097
0
LINE
8
BLACK
6
CONTINUOUS
10
0.979594
20
1.08097
11
0.980128
21
1.08017
0
LINE
8
BLACK
6
CONTINUOUS
10
0.980128
20
1.08017
11
0.980315
21
1.07923
0
LINE
8
BLACK
6
CONTINUOUS
10
0.980315
20
1.07923
11
0.980315
21
1.05167
0
LINE
8
BLACK
6
CONTINUOUS
10
0.980315
20
1.05167
11
0.980128
21
1.05073
0
LINE
8
BLACK
6
CONTINUOUS
10
0.980128
20
1.05073
11
0.979594
21
1.04993
0
LINE
8
BLACK
6
CONTINUOUS
10
0.979594
20
1.04993
11
0.978796
21
1.0494
0
LINE
8
BLACK
6
CONTINUOUS
10
0.978796
20
1.0494
11
0.977854
21
1.04921
0
LINE
8
BLACK
6
CONTINUOUS
10
0.977854
20
1.04921
11
0.972933
21
1.04921
0
LINE
8
BLACK
6
CONTINUOUS
10
0.972933
20
1.04921
11
0.971991
21
1.0494
0
LINE
8
BLACK
6
CONTINUOUS
10
0.971991
20
1.0494
11
0.971193
21
1.04993
0
LINE
8
BLACK
6
CONTINUOUS
10
0.971193
20
1.04993
11
0.97066
21
1.05073
0
LINE
8
BLACK
6
CONTINUOUS
10
0.97066
20
1.05073
11
0.970472
21
1.05167
0
LINE
8
BLACK
6
CONTINUOUS
10
0.970472
20
1.05167
11
0.970472
21
1.07923
0
LINE
8
BLACK
6
CONTINUOUS
10
0.970472
20
1.07923
11
0.97066
21
1.08017
0
LINE
8
BLACK
6
CONTINUOUS
10
0.97066
20
1.08017
11
0.971193
21
1.08097
0
LINE
8
BLACK
6
CONTINUOUS
10
0.971193
20
1.08097
11
0.971991
21
1.08151
0
LINE
8
BLACK
6
CONTINUOUS
10
0.971991
20
1.08151
11
0.972933
21
1.08169
0
LINE
8
BLACK
6
CONTINUOUS
10
0.972933
20
1.08169
11
0.977854
21
1.08169
0
LINE
8
BLACK
6
CONTINUOUS
10
0.977854
20
1.08169
11
0.978796
21
1.08151
0
LINE
8
BLACK
6
CONTINUOUS
10
0.998481
20
1.08151
11
0.999279
21
1.08097
0
LINE
8
BLACK
6
CONTINUOUS
10
0.999279
20
1.08097
11
0.999813
21
1.08017
0
LINE
8
BLACK
6
CONTINUOUS
10
0.999813
20
1.08017
11
1
21
1.07923
0
LINE
8
BLACK
6
CONTINUOUS
10
1
20
1.07923
11
1
21
1.05167
0
LINE
8
BLACK
6
CONTINUOUS
10
1
20
1.05167
11
0.999813
21
1.05073
0
LINE
8
BLACK
6
CONTINUOUS
10
0.999813
20
1.05073
11
0.999279
21
1.04993
0
LINE
8
BLACK
6
CONTINUOUS
10
0.999279
20
1.04993
11
0.998481
21
1.0494
0
LINE
8
BLACK
6
CONTINUOUS
10
0.998481
20
1.0494
11
0.997539
21
1.04921
0
LINE
8
BLACK
6
CONTINUOUS
10
0.997539
20
1.04921
11
0.992618
21
1.04921
0
LINE
8
BLACK
6
CONTINUOUS
10
0.992618
20
1.04921
11
0.991676
21
1.0494
0
LINE
8
BLACK
6
CONTINUOUS
10
0.991676
20
1.0494
11
0.990878
21
1.04993
0
LINE
8
BLACK
6
CONTINUOUS
10
0.990878
20
1.04993
11
0.990345
21
1.05073
0
LINE
8
BLACK
6
CONTINUOUS
10
0.990345
20
1.05073
11
0.990157
21
1.05167
0
LINE
8
BLACK
6
CONTINUOUS
10
0.990157
20
1.05167
11
0.990157
21
1.07923
0
LINE
8
BLACK
6
CONTINUOUS
10
0.990157
20
1.07923
11
0.990345
21
1.08017
0
LINE
8
BLACK
6
CONTINUOUS
10
0.990345
20
1.08017
11
0.990878
21
1.08097
0
LINE
8
BLACK
6
CONTINUOUS
10
0.990878
20
1.08097
11
0.991676
21
1.08151
0
LINE
8
BLACK
6
CONTINUOUS
10
0.991676
20
1.08151
11
0.992618
21
1.08169
0
LINE
8
BLACK
6
CONTINUOUS
10
0.992618
20
1.08169
11
0.997539
21
1.08169
0
LINE
8
BLACK
6
CONTINUOUS
10
0.997539
20
1.08169
11
0.998481
21
1.08151
0
LINE
8
BLACK
6
CONTINUOUS
10
1.01817
20
1.08151
11
1.01896
21
1.08097
0
LINE
8
BLACK
6
CONTINUOUS
10
1.01896
20
1.08097
11
1.0195
21
1.08017
0
LINE
8
BLACK
6
CONTINUOUS
10
1.0195
20
1.08017
11
1.01969
21
1.07923
0
LINE
8
BLACK
6
CONTINUOUS
10
1.01969
20
1.07923
11
1.01969
21
1.05167
0
LINE
8
BLACK
6
CONTINUOUS
10
1.01969
20
1.05167
11
1.0195
21
1.05073
0
LINE
8
BLACK
6
CONTINUOUS
10
1.0195
20
1.05073
11
1.01896
21
1.04993
0
LINE
8
BLACK
6
CONTINUOUS
10
1.01896
20
1.04993
11
1.01817
21
1.0494
0
LINE
8
BLACK
6
CONTINUOUS
10
1.01817
20
1.0494
11
1.01722
21
1.04921
0
LINE
8
BLACK
6
CONTINUOUS
10
1.01722
20
1.04921
11
1.0123
21
1.04921
0
LINE
8
BLACK
6
CONTINUOUS
10
1.0123
20
1.04921
11
1.01136
21
1.0494
0
LINE
8
BLACK
6
CONTINUOUS
10
1.01136
20
1.0494
11
1.01056
21
1.04993
0
LINE
8
BLACK
6
CONTINUOUS
10
1.01056
20
1.04993
11
1.01003
21
1.05073
0
LINE
8
BLACK
6
CONTINUOUS
10
1.01003
20
1.05073
11
1.00984
21
1.05167
0
LINE
8
BLACK
6
CONTINUOUS
10
1.00984
20
1.05167
11
1.00984
21
1.07923
0
LINE
8
BLACK
6
CONTINUOUS
10
1.00984
20
1.07923
11
1.01003
21
1.08017
0
LINE
8
BLACK
6
CONTINUOUS
10
1.01003
20
1.08017
11
1.01056
21
1.08097
0
LINE
8
BLACK
6
CONTINUOUS
10
1.01056
20
1.08097
11
1.01136
21
1.08151
0
LINE
8
BLACK
6
CONTINUOUS
10
1.01136
20
1.08151
11
1.0123
21
1.08169
0
LINE
8
BLACK
6
CONTINUOUS
10
1.0123
20
1.08169
11
1.01722
21
1.08169
0
LINE
8
BLACK
6
CONTINUOUS
10
1.01722
20
1.08169
11
1.01817
21
1.08151
0
LINE
8
BLACK
6
CONTINUOUS
10
1.03785
20
1.08151
11
1.03865
21
1.08097
0
LINE
8
BLACK
6
CONTINUOUS
10
1.03865
20
1.08097
11
1.03918
21
1.08017
0
LINE
8
BLACK
6
CONTINUOUS
10
1.03918
20
1.08017
11
1.03937
21
1.07923
0
LINE
8
BLACK
6
CONTINUOUS
10
1.03937
20
1.07923
11
1.03937
21
1.05167
0
LINE
8
BLACK
6
CONTINUOUS
10
1.03937
20
1.05167
11
1.03918
21
1.05073
0
LINE
8
BLACK
6
CONTINUOUS
10
1.03918
20
1.05073
11
1.03865
21
1.04993
0
LINE
8
BLACK
6
CONTINUOUS
10
1.03865
20
1.04993
11
1.03785
21
1.0494
0
LINE
8
BLACK
6
CONTINUOUS
10
1.03785
20
1.0494
11
1.03691
21
1.04921
0
LINE
8
BLACK
6
CONTINUOUS
10
1.03691
20
1.04921
11
1.03199
21
1.04921
0
LINE
8
BLACK
6
CONTINUOUS
10
1.03199
20
1.04921
11
1.03105
21
1.0494
0
LINE
8
BLACK
6
CONTINUOUS
10
1.03105
20
1.0494
11
1.03025
21
1.04993
0
LINE
8
BLACK
6
CONTINUOUS
10
1.03025
20
1.04993
11
1.02971
21
1.05073
0
LINE
8
BLACK
6
CONTINUOUS
10
1.02971
20
1.05073
11
1.02953
21
1.05167
0
LINE
8
BLACK
6
CONTINUOUS
10
1.02953
20
1.05167
11
1.02953
21
1.07923
0
LINE
8
BLACK
6
CONTINUOUS
10
1.02953
20
1.07923
11
1.02971
21
1.08017
0
LINE
8
BLACK
6
CONTINUOUS
10
1.02971
20
1.08017
11
1.03025
21
1.08097
0
LINE
8
BLACK
6
CONTINUOUS
10
1.03025
20
1.08097
11
1.03105
21
1.08151
0
LINE
8
BLACK
6
CONTINUOUS
10
1.03105
20
1.08151
11
1.03199
21
1.08169
0
LINE
8
BLACK
6
CONTINUOUS
10
1.03199
20
1.08169
11
1.03691
21
1.08169
0
LINE
8
BLACK
6
CONTINUOUS
10
1.03691
20
1.08169
11
1.03785
21
1.08151
0
LINE
8
BLACK
6
CONTINUOUS
10
1.05754
20
1.08151
11
1.05833
21
1.08097
0
LINE
8
BLACK
6
CONTINUOUS
10
1.05833
20
1.08097
11
1.05887
21
1.08017
0
LINE
8
BLACK
6
CONTINUOUS
10
1.05887
20
1.08017
11
1.05906
21
1.07923
0
LINE
8
BLACK
6
CONTINUOUS
10
1.05906
20
1.07923
11
1.05906
21
1.05167
0
LINE
8
BLACK
6
CONTINUOUS
10
1.05906
20
1.05167
11
1.05887
21
1.05073
0
LINE
8
BLACK
6
CONTINUOUS
10
1.05887
20
1.05073
11
1.05833
21
1.04993
0
LINE
8
BLACK
6
CONTINUOUS
10
1.05833
20
1.04993
11
1.05754
21
1.0494
0
LINE
8
BLACK
6
CONTINUOUS
10
1.05754
20
1.0494
11
1.05659
21
1.04921
0
LINE
8
BLACK
6
CONTINUOUS
10
1.05659
20
1.04921
11
1.05167
21
1.04921
0
LINE
8
BLACK
6
CONTINUOUS
10
1.05167
20
1.04921
11
1.05073
21
1.0494
0
LINE
8
BLACK
6
CONTINUOUS
10
1.05073
20
1.0494
11
1.04993
21
1.04993
0
LINE
8
BLACK
6
CONTINUOUS
10
1.04993
20
1.04993
11
1.0494
21
1.05073
0
LINE
8
BLACK
6
CONTINUOUS
10
1.0494
20
1.05073
11
1.04921
21
1.05167
0
LINE
8
BLACK
6
CONTINUOUS
10
1.04921
20
1.05167
11
1.04921
21
1.07923
0
LINE
8
BLACK
6
CONTINUOUS
10
1.04921
20
1.07923
11
1.0494
21
1.08017
0
LINE
8
BLACK
6
CONTINUOUS
10
1.0494
20
1.08017
11
1.04993
21
1.08097
0
LINE
8
BLACK
6
CONTINUOUS
10
1.04993
20
1.08097
11
1.05073
21
1.08151
0
LINE
8
BLACK
6
CONTINUOUS
10
1.05073
20
1.08151
11
1.05167
21
1.08169
0
LINE
8
BLACK
6
CONTINUOUS
10
1.05167
20
1.08169
11
1.05659
21
1.08169
0
LINE
8
BLACK
6
CONTINUOUS
10
1.05659
20
1.08169
11
1.05754
21
1.08151
0
LINE
8
BLACK
6
CONTINUOUS
10
1.07722
20
1.08151
11
1.07802
21
1.08097
0
LINE
8
BLACK
6
CONTINUOUS
10
1.07802
20
1.08097
11
1.07855
21
1.08017
0
LINE
8
BLACK
6
CONTINUOUS
10
1.07855
20
1.08017
11
1.07874
21
1.07923
0
LINE
8
BLACK
6
CONTINUOUS
10
1.07874
20
1.07923
11
1.07874
21
1.05167
0
LINE
8
BLACK
6
CONTINUOUS
10
1.07874
20
1.05167
11
1.07855
21
1.05073
0
LINE
8
BLACK
6
CONTINUOUS
10
1.07855
20
1.05073
11
1.07802
21
1.04993
0
LINE
8
BLACK
6
CONTINUOUS
10
1.07802
20
1.04993
11
1.07722
21
1.0494
0
LINE
8
BLACK
6
CONTINUOUS
10
1.07722
20
1.0494
11
1.07628
21
1.04921
0
LINE
8
BLACK
6
CONTINUOUS
10
1.07628
20
1.04921
11
1.07136
21
1.04921
0
LINE
8
BLACK
6
CONTINUOUS
10
1.07136
20
1.04921
11
1.07042
21
1.0494
0
LINE
8
BLACK
6
CONTINUOUS
10
1.07042
20
1.0494
11
1.06962
21
1.04993
0
LINE
8
BLACK
6
CONTINUOUS
10
1.06962
20
1.04993
11
1.06908
21
1.05073
0
LINE
8
BLACK
6
CONTINUOUS
10
1.06908
20
1.05073
11
1.0689
21
1.05167
0
LINE
8
BLACK
6
CONTINUOUS
10
1.0689
20
1.05167
11
1.0689
21
1.07923
0
LINE
8
BLACK
6
CONTINUOUS
10
1.0689
20
1.07923
11
1.06908
21
1.08017
0
LINE
8
BLACK
6
CONTINUOUS
10
1.06908
20
1.08017
11
1.06962
21
1.08097
0
LINE
8
BLACK
6
CONTINUOUS
10
1.06962
20
1.08097
11
1.07042
21
1.08151
0
LINE
8
BLACK
6
CONTINUOUS
10
1.07042
20
1.08151
11
1.07136
21
1.08169
0
LINE
8
BLACK
6
CONTINUOUS
10
1.07136
20
1.08169
11
1.07628
21
1.08169
0
LINE
8
BLACK
6
CONTINUOUS
10
1.07628
20
1.08169
11
1.07722
21
1.08151
0
LINE
8
BLACK
6
CONTINUOUS
10
1.45337
20
1.11008
11
1.45657
21
1.10794
0
LINE
8
BLACK
6
CONTINUOUS
10
1.45657
20
1.10794
11
1.4587
21
1.10475
0
LINE
8
BLACK
6
CONTINUOUS
10
1.4587
20
1.10475
11
1.45945
21
1.10098
0
LINE
8
BLACK
6
CONTINUOUS
10
1.45945
20
1.10098
11
1.45945
21
1.06358
0
LINE
8
BLACK
6
CONTINUOUS
10
1.45945
20
1.06358
11
1.4587
21
1.05982
0
LINE
8
BLACK
6
CONTINUOUS
10
1.4587
20
1.05982
11
1.45657
21
1.05662
0
LINE
8
BLACK
6
CONTINUOUS
10
1.45657
20
1.05662
11
1.45337
21
1.05449
0
LINE
8
BLACK
6
CONTINUOUS
10
1.45337
20
1.05449
11
1.44961
21
1.05374
0
LINE
8
BLACK
6
CONTINUOUS
10
1.44961
20
1.05374
11
1.42992
21
1.05374
0
LINE
8
BLACK
6
CONTINUOUS
10
1.42992
20
1.05374
11
1.42615
21
1.05449
0
LINE
8
BLACK
6
CONTINUOUS
10
1.42615
20
1.05449
11
1.42296
21
1.05662
0
LINE
8
BLACK
6
CONTINUOUS
10
1.42296
20
1.05662
11
1.42083
21
1.05982
0
LINE
8
BLACK
6
CONTINUOUS
10
1.42083
20
1.05982
11
1.42008
21
1.06358
0
LINE
8
BLACK
6
CONTINUOUS
10
1.42008
20
1.06358
11
1.42008
21
1.10098
0
LINE
8
BLACK
6
CONTINUOUS
10
1.42008
20
1.10098
11
1.42083
21
1.10475
0
LINE
8
BLACK
6
CONTINUOUS
10
1.42083
20
1.10475
11
1.42296
21
1.10794
0
LINE
8
BLACK
6
CONTINUOUS
10
1.42296
20
1.10794
11
1.42615
21
1.11008
0
LINE
8
BLACK
6
CONTINUOUS
10
1.42615
20
1.11008
11
1.42992
21
1.11083
0
LINE
8
BLACK
6
CONTINUOUS
10
1.42992
20
1.11083
11
1.44961
21
1.11083
0
LINE
8
BLACK
6
CONTINUOUS
10
1.44961
20
1.11083
11
1.45337
21
1.11008
0
LINE
8
BLACK
6
CONTINUOUS
10
1.52818
20
1.11008
11
1.53137
21
1.10794
0
LINE
8
BLACK
6
CONTINUOUS
10
1.53137
20
1.10794
11
1.5335
21
1.10475
0
LINE
8
BLACK
6
CONTINUOUS
10
1.5335
20
1.10475
11
1.53425
21
1.10098
0
LINE
8
BLACK
6
CONTINUOUS
10
1.53425
20
1.10098
11
1.53425
21
1.06358
0
LINE
8
BLACK
6
CONTINUOUS
10
1.53425
20
1.06358
11
1.5335
21
1.05982
0
LINE
8
BLACK
6
CONTINUOUS
10
1.5335
20
1.05982
11
1.53137
21
1.05662
0
LINE
8
BLACK
6
CONTINUOUS
10
1.53137
20
1.05662
11
1.52818
21
1.05449
0
LINE
8
BLACK
6
CONTINUOUS
10
1.52818
20
1.05449
11
1.52441
21
1.05374
0
LINE
8
BLACK
6
CONTINUOUS
10
1.52441
20
1.05374
11
1.50472
21
1.05374
0
LINE
8
BLACK
6
CONTINUOUS
10
1.50472
20
1.05374
11
1.50096
21
1.05449
0
LINE
8
BLACK
6
CONTINUOUS
10
1.50096
20
1.05449
11
1.49776
21
1.05662
0
LINE
8
BLACK
6
CONTINUOUS
10
1.49776
20
1.05662
11
1.49563
21
1.05982
0
LINE
8
BLACK
6
CONTINUOUS
10
1.49563
20
1.05982
11
1.49488
21
1.06358
0
LINE
8
BLACK
6
CONTINUOUS
10
1.49488
20
1.06358
11
1.49488
21
1.10098
0
LINE
8
BLACK
6
CONTINUOUS
10
1.49488
20
1.10098
11
1.49563
21
1.10475
0
LINE
8
BLACK
6
CONTINUOUS
10
1.49563
20
1.10475
11
1.49776
21
1.10794
0
LINE
8
BLACK
6
CONTINUOUS
10
1.49776
20
1.10794
11
1.50096
21
1.11008
0
LINE
8
BLACK
6
CONTINUOUS
10
1.50096
20
1.11008
11
1.50472
21
1.11083
0
LINE
8
BLACK
6
CONTINUOUS
10
1.50472
20
1.11083
11
1.52441
21
1.11083
0
LINE
8
BLACK
6
CONTINUOUS
10
1.52441
20
1.11083
11
1.52818
21
1.11008
0
LINE
8
BLACK
6
CONTINUOUS
10
0.323909
20
1.1386
11
0.326345
21
1.13697
0
LINE
8
BLACK
6
CONTINUOUS
10
0.326345
20
1.13697
11
0.327972
21
1.13454
0
LINE
8
BLACK
6
CONTINUOUS
10
0.327972
20
1.13454
11
0.328543
21
1.13167
0
LINE
8
BLACK
6
CONTINUOUS
10
0.328543
20
1.13167
11
0.328543
21
1.08762
0
LINE
8
BLACK
6
CONTINUOUS
10
0.328543
20
1.08762
11
0.327972
21
1.08475
0
LINE
8
BLACK
6
CONTINUOUS
10
0.327972
20
1.08475
11
0.326345
21
1.08232
0
LINE
8
BLACK
6
CONTINUOUS
10
0.326345
20
1.08232
11
0.323909
21
1.08069
0
LINE
8
BLACK
6
CONTINUOUS
10
0.323909
20
1.08069
11
0.321037
21
1.08012
0
LINE
8
BLACK
6
CONTINUOUS
10
0.321037
20
1.08012
11
0.279751
21
1.08012
0
LINE
8
BLACK
6
CONTINUOUS
10
0.279751
20
1.08012
11
0.276878
21
1.08069
0
LINE
8
BLACK
6
CONTINUOUS
10
0.276878
20
1.08069
11
0.274443
21
1.08232
0
LINE
8
BLACK
6
CONTINUOUS
10
0.274443
20
1.08232
11
0.272816
21
1.08475
0
LINE
8
BLACK
6
CONTINUOUS
10
0.272816
20
1.08475
11
0.272244
21
1.08762
0
LINE
8
BLACK
6
CONTINUOUS
10
0.272244
20
1.08762
11
0.272244
21
1.13167
0
LINE
8
BLACK
6
CONTINUOUS
10
0.272244
20
1.13167
11
0.272816
21
1.13454
0
LINE
8
BLACK
6
CONTINUOUS
10
0.272816
20
1.13454
11
0.274443
21
1.13697
0
LINE
8
BLACK
6
CONTINUOUS
10
0.274443
20
1.13697
11
0.276878
21
1.1386
0
LINE
8
BLACK
6
CONTINUOUS
10
0.276878
20
1.1386
11
0.279751
21
1.13917
0
LINE
8
BLACK
6
CONTINUOUS
10
0.279751
20
1.13917
11
0.321037
21
1.13917
0
LINE
8
BLACK
6
CONTINUOUS
10
0.321037
20
1.13917
11
0.323909
21
1.1386
0
LINE
8
BLACK
6
CONTINUOUS
10
0.474697
20
1.1386
11
0.477132
21
1.13697
0
LINE
8
BLACK
6
CONTINUOUS
10
0.477132
20
1.13697
11
0.478759
21
1.13454
0
LINE
8
BLACK
6
CONTINUOUS
10
0.478759
20
1.13454
11
0.479331
21
1.13167
0
LINE
8
BLACK
6
CONTINUOUS
10
0.479331
20
1.13167
11
0.479331
21
1.08762
0
LINE
8
BLACK
6
CONTINUOUS
10
0.479331
20
1.08762
11
0.478759
21
1.08475
0
LINE
8
BLACK
6
CONTINUOUS
10
0.478759
20
1.08475
11
0.477132
21
1.08232
0
LINE
8
BLACK
6
CONTINUOUS
10
0.477132
20
1.08232
11
0.474697
21
1.08069
0
LINE
8
BLACK
6
CONTINUOUS
10
0.474697
20
1.08069
11
0.471824
21
1.08012
0
LINE
8
BLACK
6
CONTINUOUS
10
0.471824
20
1.08012
11
0.430538
21
1.08012
0
LINE
8
BLACK
6
CONTINUOUS
10
0.430538
20
1.08012
11
0.427665
21
1.08069
0
LINE
8
BLACK
6
CONTINUOUS
10
0.427665
20
1.08069
11
0.42523
21
1.08232
0
LINE
8
BLACK
6
CONTINUOUS
10
0.42523
20
1.08232
11
0.423603
21
1.08475
0
LINE
8
BLACK
6
CONTINUOUS
10
0.423603
20
1.08475
11
0.423032
21
1.08762
0
LINE
8
BLACK
6
CONTINUOUS
10
0.423032
20
1.08762
11
0.423031
21
1.13167
0
LINE
8
BLACK
6
CONTINUOUS
10
0.423031
20
1.13167
11
0.423603
21
1.13454
0
LINE
8
BLACK
6
CONTINUOUS
10
0.423603
20
1.13454
11
0.42523
21
1.13697
0
LINE
8
BLACK
6
CONTINUOUS
10
0.42523
20
1.13697
11
0.427665
21
1.1386
0
LINE
8
BLACK
6
CONTINUOUS
10
0.427665
20
1.1386
11
0.430538
21
1.13917
0
LINE
8
BLACK
6
CONTINUOUS
10
0.430538
20
1.13917
11
0.471824
21
1.13917
0
LINE
8
BLACK
6
CONTINUOUS
10
0.471824
20
1.13917
11
0.474697
21
1.1386
0
LINE
8
BLACK
6
CONTINUOUS
10
1.18684
20
1.13764
11
1.19003
21
1.1355
0
LINE
8
BLACK
6
CONTINUOUS
10
1.19003
20
1.1355
11
1.19216
21
1.13231
0
LINE
8
BLACK
6
CONTINUOUS
10
1.19216
20
1.13231
11
1.19291
21
1.12854
0
LINE
8
BLACK
6
CONTINUOUS
10
1.19291
20
1.12854
11
1.19291
21
1.09114
0
LINE
8
BLACK
6
CONTINUOUS
10
1.19291
20
1.09114
11
1.19216
21
1.08738
0
LINE
8
BLACK
6
CONTINUOUS
10
1.19216
20
1.08738
11
1.19003
21
1.08418
0
LINE
8
BLACK
6
CONTINUOUS
10
1.19003
20
1.08418
11
1.18684
21
1.08205
0
LINE
8
BLACK
6
CONTINUOUS
10
1.18684
20
1.08205
11
1.18307
21
1.0813
0
LINE
8
BLACK
6
CONTINUOUS
10
1.18307
20
1.0813
11
1.16339
21
1.0813
0
LINE
8
BLACK
6
CONTINUOUS
10
1.16339
20
1.0813
11
1.15962
21
1.08205
0
LINE
8
BLACK
6
CONTINUOUS
10
1.15962
20
1.08205
11
1.15643
21
1.08418
0
LINE
8
BLACK
6
CONTINUOUS
10
1.15643
20
1.08418
11
1.15429
21
1.08738
0
LINE
8
BLACK
6
CONTINUOUS
10
1.15429
20
1.08738
11
1.15354
21
1.09114
0
LINE
8
BLACK
6
CONTINUOUS
10
1.15354
20
1.09114
11
1.15354
21
1.12854
0
LINE
8
BLACK
6
CONTINUOUS
10
1.15354
20
1.12854
11
1.15429
21
1.13231
0
LINE
8
BLACK
6
CONTINUOUS
10
1.15429
20
1.13231
11
1.15643
21
1.1355
0
LINE
8
BLACK
6
CONTINUOUS
10
1.15643
20
1.1355
11
1.15962
21
1.13764
0
LINE
8
BLACK
6
CONTINUOUS
10
1.15962
20
1.13764
11
1.16339
21
1.13839
0
LINE
8
BLACK
6
CONTINUOUS
10
1.16339
20
1.13839
11
1.18307
21
1.13839
0
LINE
8
BLACK
6
CONTINUOUS
10
1.18307
20
1.13839
11
1.18684
21
1.13764
0
LINE
8
BLACK
6
CONTINUOUS
10
1.26164
20
1.13764
11
1.26483
21
1.1355
0
LINE
8
BLACK
6
CONTINUOUS
10
1.26483
20
1.1355
11
1.26697
21
1.13231
0
LINE
8
BLACK
6
CONTINUOUS
10
1.26697
20
1.13231
11
1.26772
21
1.12854
0
LINE
8
BLACK
6
CONTINUOUS
10
1.26772
20
1.12854
11
1.26772
21
1.09114
0
LINE
8
BLACK
6
CONTINUOUS
10
1.26772
20
1.09114
11
1.26697
21
1.08738
0
LINE
8
BLACK
6
CONTINUOUS
10
1.26697
20
1.08738
11
1.26483
21
1.08418
0
LINE
8
BLACK
6
CONTINUOUS
10
1.26483
20
1.08418
11
1.26164
21
1.08205
0
LINE
8
BLACK
6
CONTINUOUS
10
1.26164
20
1.08205
11
1.25787
21
1.0813
0
LINE
8
BLACK
6
CONTINUOUS
10
1.25787
20
1.0813
11
1.23819
21
1.0813
0
LINE
8
BLACK
6
CONTINUOUS
10
1.23819
20
1.0813
11
1.23442
21
1.08205
0
LINE
8
BLACK
6
CONTINUOUS
10
1.23442
20
1.08205
11
1.23123
21
1.08418
0
LINE
8
BLACK
6
CONTINUOUS
10
1.23123
20
1.08418
11
1.2291
21
1.08738
0
LINE
8
BLACK
6
CONTINUOUS
10
1.2291
20
1.08738
11
1.22835
21
1.09114
0
LINE
8
BLACK
6
CONTINUOUS
10
1.22835
20
1.09114
11
1.22835
21
1.12854
0
LINE
8
BLACK
6
CONTINUOUS
10
1.22835
20
1.12854
11
1.2291
21
1.13231
0
LINE
8
BLACK
6
CONTINUOUS
10
1.2291
20
1.13231
11
1.23123
21
1.1355
0
LINE
8
BLACK
6
CONTINUOUS
10
1.23123
20
1.1355
11
1.23442
21
1.13764
0
LINE
8
BLACK
6
CONTINUOUS
10
1.23442
20
1.13764
11
1.23819
21
1.13839
0
LINE
8
BLACK
6
CONTINUOUS
10
1.23819
20
1.13839
11
1.25787
21
1.13839
0
LINE
8
BLACK
6
CONTINUOUS
10
1.25787
20
1.13839
11
1.26164
21
1.13764
0
LINE
8
BLACK
6
CONTINUOUS
10
0.962064
20
1.09824
11
0.962862
21
1.0977
0
LINE
8
BLACK
6
CONTINUOUS
10
0.962862
20
1.0977
11
0.963395
21
1.09691
0
LINE
8
BLACK
6
CONTINUOUS
10
0.963395
20
1.09691
11
0.963583
21
1.09596
0
LINE
8
BLACK
6
CONTINUOUS
10
0.963583
20
1.09596
11
0.963583
21
1.09104
0
LINE
8
BLACK
6
CONTINUOUS
10
0.963583
20
1.09104
11
0.963395
21
1.0901
0
LINE
8
BLACK
6
CONTINUOUS
10
0.963395
20
1.0901
11
0.962862
21
1.0893
0
LINE
8
BLACK
6
CONTINUOUS
10
0.962862
20
1.0893
11
0.962064
21
1.08877
0
LINE
8
BLACK
6
CONTINUOUS
10
0.962064
20
1.08877
11
0.961122
21
1.08858
0
LINE
8
BLACK
6
CONTINUOUS
10
0.961122
20
1.08858
11
0.933563
21
1.08858
0
LINE
8
BLACK
6
CONTINUOUS
10
0.933563
20
1.08858
11
0.932621
21
1.08877
0
LINE
8
BLACK
6
CONTINUOUS
10
0.932621
20
1.08877
11
0.931823
21
1.0893
0
LINE
8
BLACK
6
CONTINUOUS
10
0.931823
20
1.0893
11
0.93129
21
1.0901
0
LINE
8
BLACK
6
CONTINUOUS
10
0.93129
20
1.0901
11
0.931102
21
1.09104
0
LINE
8
BLACK
6
CONTINUOUS
10
0.931102
20
1.09104
11
0.931102
21
1.09596
0
LINE
8
BLACK
6
CONTINUOUS
10
0.931102
20
1.09596
11
0.93129
21
1.09691
0
LINE
8
BLACK
6
CONTINUOUS
10
0.93129
20
1.09691
11
0.931823
21
1.0977
0
LINE
8
BLACK
6
CONTINUOUS
10
0.931823
20
1.0977
11
0.932621
21
1.09824
0
LINE
8
BLACK
6
CONTINUOUS
10
0.932621
20
1.09824
11
0.933563
21
1.09843
0
LINE
8
BLACK
6
CONTINUOUS
10
0.933563
20
1.09843
11
0.961122
21
1.09843
0
LINE
8
BLACK
6
CONTINUOUS
10
0.961122
20
1.09843
11
0.962064
21
1.09824
0
LINE
8
BLACK
6
CONTINUOUS
10
1.11659
20
1.09824
11
1.11739
21
1.0977
0
LINE
8
BLACK
6
CONTINUOUS
10
1.11739
20
1.0977
11
1.11792
21
1.09691
0
LINE
8
BLACK
6
CONTINUOUS
10
1.11792
20
1.09691
11
1.11811
21
1.09596
0
LINE
8
BLACK
6
CONTINUOUS
10
1.11811
20
1.09596
11
1.11811
21
1.09104
0
LINE
8
BLACK
6
CONTINUOUS
10
1.11811
20
1.09104
11
1.11792
21
1.0901
0
LINE
8
BLACK
6
CONTINUOUS
10
1.11792
20
1.0901
11
1.11739
21
1.0893
0
LINE
8
BLACK
6
CONTINUOUS
10
1.11739
20
1.0893
11
1.11659
21
1.08877
0
LINE
8
BLACK
6
CONTINUOUS
10
1.11659
20
1.08877
11
1.11565
21
1.08858
0
LINE
8
BLACK
6
CONTINUOUS
10
1.11565
20
1.08858
11
1.08809
21
1.08858
0
LINE
8
BLACK
6
CONTINUOUS
10
1.08809
20
1.08858
11
1.08715
21
1.08877
0
LINE
8
BLACK
6
CONTINUOUS
10
1.08715
20
1.08877
11
1.08635
21
1.0893
0
LINE
8
BLACK
6
CONTINUOUS
10
1.08635
20
1.0893
11
1.08582
21
1.0901
0
LINE
8
BLACK
6
CONTINUOUS
10
1.08582
20
1.0901
11
1.08563
21
1.09104
0
LINE
8
BLACK
6
CONTINUOUS
10
1.08563
20
1.09104
11
1.08563
21
1.09596
0
LINE
8
BLACK
6
CONTINUOUS
10
1.08563
20
1.09596
11
1.08582
21
1.09691
0
LINE
8
BLACK
6
CONTINUOUS
10
1.08582
20
1.09691
11
1.08635
21
1.0977
0
LINE
8
BLACK
6
CONTINUOUS
10
1.08635
20
1.0977
11
1.08715
21
1.09824
0
LINE
8
BLACK
6
CONTINUOUS
10
1.08715
20
1.09824
11
1.08809
21
1.09843
0
LINE
8
BLACK
6
CONTINUOUS
10
1.08809
20
1.09843
11
1.11565
21
1.09843
0
LINE
8
BLACK
6
CONTINUOUS
10
1.11565
20
1.09843
11
1.11659
21
1.09824
0
LINE
8
BLACK
6
CONTINUOUS
10
1.01341
20
1.13685
11
1.01661
21
1.13472
0
LINE
8
BLACK
6
CONTINUOUS
10
1.01661
20
1.13472
11
1.01874
21
1.13152
0
LINE
8
BLACK
6
CONTINUOUS
10
1.01874
20
1.13152
11
1.01949
21
1.12776
0
LINE
8
BLACK
6
CONTINUOUS
10
1.01949
20
1.12776
11
1.01949
21
1.10453
0
LINE
8
BLACK
6
CONTINUOUS
10
1.01949
20
1.10453
11
1.01874
21
1.10076
0
LINE
8
BLACK
6
CONTINUOUS
10
1.01874
20
1.10076
11
1.01661
21
1.09757
0
LINE
8
BLACK
6
CONTINUOUS
10
1.01661
20
1.09757
11
1.01341
21
1.09543
0
LINE
8
BLACK
6
CONTINUOUS
10
1.01341
20
1.09543
11
1.00965
21
1.09469
0
LINE
8
BLACK
6
CONTINUOUS
10
1.00965
20
1.09469
11
0.986417
21
1.09469
0
LINE
8
BLACK
6
CONTINUOUS
10
0.986417
20
1.09469
11
0.982651
21
1.09543
0
LINE
8
BLACK
6
CONTINUOUS
10
0.982651
20
1.09543
11
0.979458
21
1.09757
0
LINE
8
BLACK
6
CONTINUOUS
10
0.979458
20
1.09757
11
0.977324
21
1.10076
0
LINE
8
BLACK
6
CONTINUOUS
10
0.977324
20
1.10076
11
0.976575
21
1.10453
0
LINE
8
BLACK
6
CONTINUOUS
10
0.976575
20
1.10453
11
0.976575
21
1.12776
0
LINE
8
BLACK
6
CONTINUOUS
10
0.976575
20
1.12776
11
0.977324
21
1.13152
0
LINE
8
BLACK
6
CONTINUOUS
10
0.977324
20
1.13152
11
0.979458
21
1.13472
0
LINE
8
BLACK
6
CONTINUOUS
10
0.979458
20
1.13472
11
0.982651
21
1.13685
0
LINE
8
BLACK
6
CONTINUOUS
10
0.982651
20
1.13685
11
0.986417
21
1.1376
0
LINE
8
BLACK
6
CONTINUOUS
10
0.986417
20
1.1376
11
1.00965
21
1.1376
0
LINE
8
BLACK
6
CONTINUOUS
10
1.00965
20
1.1376
11
1.01341
21
1.13685
0
LINE
8
BLACK
6
CONTINUOUS
10
1.06656
20
1.13685
11
1.06976
21
1.13472
0
LINE
8
BLACK
6
CONTINUOUS
10
1.06976
20
1.13472
11
1.07189
21
1.13152
0
LINE
8
BLACK
6
CONTINUOUS
10
1.07189
20
1.13152
11
1.07264
21
1.12776
0
LINE
8
BLACK
6
CONTINUOUS
10
1.07264
20
1.12776
11
1.07264
21
1.10453
0
LINE
8
BLACK
6
CONTINUOUS
10
1.07264
20
1.10453
11
1.07189
21
1.10076
0
LINE
8
BLACK
6
CONTINUOUS
10
1.07189
20
1.10076
11
1.06976
21
1.09757
0
LINE
8
BLACK
6
CONTINUOUS
10
1.06976
20
1.09757
11
1.06656
21
1.09543
0
LINE
8
BLACK
6
CONTINUOUS
10
1.06656
20
1.09543
11
1.0628
21
1.09469
0
LINE
8
BLACK
6
CONTINUOUS
10
1.0628
20
1.09469
11
1.03957
21
1.09469
0
LINE
8
BLACK
6
CONTINUOUS
10
1.03957
20
1.09469
11
1.0358
21
1.09543
0
LINE
8
BLACK
6
CONTINUOUS
10
1.0358
20
1.09543
11
1.03261
21
1.09757
0
LINE
8
BLACK
6
CONTINUOUS
10
1.03261
20
1.09757
11
1.03047
21
1.10076
0
LINE
8
BLACK
6
CONTINUOUS
10
1.03047
20
1.10076
11
1.02972
21
1.10453
0
LINE
8
BLACK
6
CONTINUOUS
10
1.02972
20
1.10453
11
1.02972
21
1.12776
0
LINE
8
BLACK
6
CONTINUOUS
10
1.02972
20
1.12776
11
1.03047
21
1.13152
0
LINE
8
BLACK
6
CONTINUOUS
10
1.03047
20
1.13152
11
1.03261
21
1.13472
0
LINE
8
BLACK
6
CONTINUOUS
10
1.03261
20
1.13472
11
1.0358
21
1.13685
0
LINE
8
BLACK
6
CONTINUOUS
10
1.0358
20
1.13685
11
1.03957
21
1.1376
0
LINE
8
BLACK
6
CONTINUOUS
10
1.03957
20
1.1376
11
1.0628
21
1.1376
0
LINE
8
BLACK
6
CONTINUOUS
10
1.0628
20
1.1376
11
1.06656
21
1.13685
0
LINE
8
BLACK
6
CONTINUOUS
10
0.962064
20
1.11792
11
0.962862
21
1.11739
0
LINE
8
BLACK
6
CONTINUOUS
10
0.962862
20
1.11739
11
0.963395
21
1.11659
0
LINE
8
BLACK
6
CONTINUOUS
10
0.963395
20
1.11659
11
0.963583
21
1.11565
0
LINE
8
BLACK
6
CONTINUOUS
10
0.963583
20
1.11565
11
0.963583
21
1.11073
0
LINE
8
BLACK
6
CONTINUOUS
10
0.963583
20
1.11073
11
0.963395
21
1.10979
0
LINE
8
BLACK
6
CONTINUOUS
10
0.963395
20
1.10979
11
0.962862
21
1.10899
0
LINE
8
BLACK
6
CONTINUOUS
10
0.962862
20
1.10899
11
0.962064
21
1.10846
0
LINE
8
BLACK
6
CONTINUOUS
10
0.962064
20
1.10846
11
0.961122
21
1.10827
0
LINE
8
BLACK
6
CONTINUOUS
10
0.961122
20
1.10827
11
0.933563
21
1.10827
0
LINE
8
BLACK
6
CONTINUOUS
10
0.933563
20
1.10827
11
0.932621
21
1.10846
0
LINE
8
BLACK
6
CONTINUOUS
10
0.932621
20
1.10846
11
0.931823
21
1.10899
0
LINE
8
BLACK
6
CONTINUOUS
10
0.931823
20
1.10899
11
0.93129
21
1.10979
0
LINE
8
BLACK
6
CONTINUOUS
10
0.93129
20
1.10979
11
0.931102
21
1.11073
0
LINE
8
BLACK
6
CONTINUOUS
10
0.931102
20
1.11073
11
0.931102
21
1.11565
0
LINE
8
BLACK
6
CONTINUOUS
10
0.931102
20
1.11565
11
0.93129
21
1.11659
0
LINE
8
BLACK
6
CONTINUOUS
10
0.93129
20
1.11659
11
0.931823
21
1.11739
0
LINE
8
BLACK
6
CONTINUOUS
10
0.931823
20
1.11739
11
0.932621
21
1.11792
0
LINE
8
BLACK
6
CONTINUOUS
10
0.932621
20
1.11792
11
0.933563
21
1.11811
0
LINE
8
BLACK
6
CONTINUOUS
10
0.933563
20
1.11811
11
0.961122
21
1.11811
0
LINE
8
BLACK
6
CONTINUOUS
10
0.961122
20
1.11811
11
0.962064
21
1.11792
0
LINE
8
BLACK
6
CONTINUOUS
10
1.11659
20
1.11792
11
1.11739
21
1.11739
0
LINE
8
BLACK
6
CONTINUOUS
10
1.11739
20
1.11739
11
1.11792
21
1.11659
0
LINE
8
BLACK
6
CONTINUOUS
10
1.11792
20
1.11659
11
1.11811
21
1.11565
0
LINE
8
BLACK
6
CONTINUOUS
10
1.11811
20
1.11565
11
1.11811
21
1.11073
0
LINE
8
BLACK
6
CONTINUOUS
10
1.11811
20
1.11073
11
1.11792
21
1.10979
0
LINE
8
BLACK
6
CONTINUOUS
10
1.11792
20
1.10979
11
1.11739
21
1.10899
0
LINE
8
BLACK
6
CONTINUOUS
10
1.11739
20
1.10899
11
1.11659
21
1.10846
0
LINE
8
BLACK
6
CONTINUOUS
10
1.11659
20
1.10846
11
1.11565
21
1.10827
0
LINE
8
BLACK
6
CONTINUOUS
10
1.11565
20
1.10827
11
1.08809
21
1.10827
0
LINE
8
BLACK
6
CONTINUOUS
10
1.08809
20
1.10827
11
1.08715
21
1.10846
0
LINE
8
BLACK
6
CONTINUOUS
10
1.08715
20
1.10846
11
1.08635
21
1.10899
0
LINE
8
BLACK
6
CONTINUOUS
10
1.08635
20
1.10899
11
1.08582
21
1.10979
0
LINE
8
BLACK
6
CONTINUOUS
10
1.08582
20
1.10979
11
1.08563
21
1.11073
0
LINE
8
BLACK
6
CONTINUOUS
10
1.08563
20
1.11073
11
1.08563
21
1.11565
0
LINE
8
BLACK
6
CONTINUOUS
10
1.08563
20
1.11565
11
1.08582
21
1.11659
0
LINE
8
BLACK
6
CONTINUOUS
10
1.08582
20
1.11659
11
1.08635
21
1.11739
0
LINE
8
BLACK
6
CONTINUOUS
10
1.08635
20
1.11739
11
1.08715
21
1.11792
0
LINE
8
BLACK
6
CONTINUOUS
10
1.08715
20
1.11792
11
1.08809
21
1.11811
0
LINE
8
BLACK
6
CONTINUOUS
10
1.08809
20
1.11811
11
1.11565
21
1.11811
0
LINE
8
BLACK
6
CONTINUOUS
10
1.11565
20
1.11811
11
1.11659
21
1.11792
0
LINE
8
BLACK
6
CONTINUOUS
10
0.962064
20
1.13761
11
0.962862
21
1.13707
0
LINE
8
BLACK
6
CONTINUOUS
10
0.962862
20
1.13707
11
0.963395
21
1.13628
0
LINE
8
BLACK
6
CONTINUOUS
10
0.963395
20
1.13628
11
0.963583
21
1.13533
0
LINE
8
BLACK
6
CONTINUOUS
10
0.963583
20
1.13533
11
0.963583
21
1.13041
0
LINE
8
BLACK
6
CONTINUOUS
10
0.963583
20
1.13041
11
0.963395
21
1.12947
0
LINE
8
BLACK
6
CONTINUOUS
10
0.963395
20
1.12947
11
0.962862
21
1.12867
0
LINE
8
BLACK
6
CONTINUOUS
10
0.962862
20
1.12867
11
0.962064
21
1.12814
0
LINE
8
BLACK
6
CONTINUOUS
10
0.962064
20
1.12814
11
0.961122
21
1.12795
0
LINE
8
BLACK
6
CONTINUOUS
10
0.961122
20
1.12795
11
0.933563
21
1.12795
0
LINE
8
BLACK
6
CONTINUOUS
10
0.933563
20
1.12795
11
0.932621
21
1.12814
0
LINE
8
BLACK
6
CONTINUOUS
10
0.932621
20
1.12814
11
0.931823
21
1.12867
0
LINE
8
BLACK
6
CONTINUOUS
10
0.931823
20
1.12867
11
0.93129
21
1.12947
0
LINE
8
BLACK
6
CONTINUOUS
10
0.93129
20
1.12947
11
0.931102
21
1.13041
0
LINE
8
BLACK
6
CONTINUOUS
10
0.931102
20
1.13041
11
0.931102
21
1.13533
0
LINE
8
BLACK
6
CONTINUOUS
10
0.931102
20
1.13533
11
0.93129
21
1.13628
0
LINE
8
BLACK
6
CONTINUOUS
10
0.93129
20
1.13628
11
0.931823
21
1.13707
0
LINE
8
BLACK
6
CONTINUOUS
10
0.931823
20
1.13707
11
0.932621
21
1.13761
0
LINE
8
BLACK
6
CONTINUOUS
10
0.932621
20
1.13761
11
0.933563
21
1.1378
0
LINE
8
BLACK
6
CONTINUOUS
10
0.933563
20
1.1378
11
0.961122
21
1.1378
0
LINE
8
BLACK
6
CONTINUOUS
10
0.961122
20
1.1378
11
0.962064
21
1.13761
0
LINE
8
BLACK
6
CONTINUOUS
10
1.11659
20
1.13761
11
1.11739
21
1.13707
0
LINE
8
BLACK
6
CONTINUOUS
10
1.11739
20
1.13707
11
1.11792
21
1.13628
0
LINE
8
BLACK
6
CONTINUOUS
10
1.11792
20
1.13628
11
1.11811
21
1.13533
0
LINE
8
BLACK
6
CONTINUOUS
10
1.11811
20
1.13533
11
1.11811
21
1.13041
0
LINE
8
BLACK
6
CONTINUOUS
10
1.11811
20
1.13041
11
1.11792
21
1.12947
0
LINE
8
BLACK
6
CONTINUOUS
10
1.11792
20
1.12947
11
1.11739
21
1.12867
0
LINE
8
BLACK
6
CONTINUOUS
10
1.11739
20
1.12867
11
1.11659
21
1.12814
0
LINE
8
BLACK
6
CONTINUOUS
10
1.11659
20
1.12814
11
1.11565
21
1.12795
0
LINE
8
BLACK
6
CONTINUOUS
10
1.11565
20
1.12795
11
1.08809
21
1.12795
0
LINE
8
BLACK
6
CONTINUOUS
10
1.08809
20
1.12795
11
1.08715
21
1.12814
0
LINE
8
BLACK
6
CONTINUOUS
10
1.08715
20
1.12814
11
1.08635
21
1.12867
0
LINE
8
BLACK
6
CONTINUOUS
10
1.08635
20
1.12867
11
1.08582
21
1.12947
0
LINE
8
BLACK
6
CONTINUOUS
10
1.08582
20
1.12947
11
1.08563
21
1.13041
0
LINE
8
BLACK
6
CONTINUOUS
10
1.08563
20
1.13041
11
1.08563
21
1.13533
0
LINE
8
BLACK
6
CONTINUOUS
10
1.08563
20
1.13533
11
1.08582
21
1.13628
0
LINE
8
BLACK
6
CONTINUOUS
10
1.08582
20
1.13628
11
1.08635
21
1.13707
0
LINE
8
BLACK
6
CONTINUOUS
10
1.08635
20
1.13707
11
1.08715
21
1.13761
0
LINE
8
BLACK
6
CONTINUOUS
10
1.08715
20
1.13761
11
1.08809
21
1.1378
0
LINE
8
BLACK
6
CONTINUOUS
10
1.08809
20
1.1378
11
1.11565
21
1.1378
0
LINE
8
BLACK
6
CONTINUOUS
10
1.11565
20
1.1378
11
1.11659
21
1.13761
0
LINE
8
BLACK
6
CONTINUOUS
10
1.49213
20
1.13583
11
1.43307
21
1.13583
0
LINE
8
BLACK
6
CONTINUOUS
10
1.43307
20
1.13583
11
1.43307
21
1.21457
0
LINE
8
BLACK
6
CONTINUOUS
10
1.43307
20
1.21457
11
1.49213
21
1.21457
0
LINE
8
BLACK
6
CONTINUOUS
10
1.49213
20
1.21457
11
1.49213
21
1.13583
0
LINE
8
BLACK
6
CONTINUOUS
10
1.58268
20
1.13583
11
1.52362
21
1.13583
0
LINE
8
BLACK
6
CONTINUOUS
10
1.52362
20
1.13583
11
1.52362
21
1.21457
0
LINE
8
BLACK
6
CONTINUOUS
10
1.52362
20
1.21457
11
1.58268
21
1.21457
0
LINE
8
BLACK
6
CONTINUOUS
10
1.58268
20
1.21457
11
1.58268
21
1.13583
0
LINE
8
BLACK
6
CONTINUOUS
10
1.67323
20
1.13583
11
1.61417
21
1.13583
0
LINE
8
BLACK
6
CONTINUOUS
10
1.61417
20
1.13583
11
1.61417
21
1.21457
0
LINE
8
BLACK
6
CONTINUOUS
10
1.61417
20
1.21457
11
1.67323
21
1.21457
0
LINE
8
BLACK
6
CONTINUOUS
10
1.67323
20
1.21457
11
1.67323
21
1.13583
0
LINE
8
BLACK
6
CONTINUOUS
10
0.962064
20
1.15729
11
0.962862
21
1.15676
0
LINE
8
BLACK
6
CONTINUOUS
10
0.962862
20
1.15676
11
0.963395
21
1.15596
0
LINE
8
BLACK
6
CONTINUOUS
10
0.963395
20
1.15596
11
0.963583
21
1.15502
0
LINE
8
BLACK
6
CONTINUOUS
10
0.963583
20
1.15502
11
0.963583
21
1.1501
0
LINE
8
BLACK
6
CONTINUOUS
10
0.963583
20
1.1501
11
0.963395
21
1.14916
0
LINE
8
BLACK
6
CONTINUOUS
10
0.963395
20
1.14916
11
0.962862
21
1.14836
0
LINE
8
BLACK
6
CONTINUOUS
10
0.962862
20
1.14836
11
0.962064
21
1.14783
0
LINE
8
BLACK
6
CONTINUOUS
10
0.962064
20
1.14783
11
0.961122
21
1.14764
0
LINE
8
BLACK
6
CONTINUOUS
10
0.961122
20
1.14764
11
0.933563
21
1.14764
0
LINE
8
BLACK
6
CONTINUOUS
10
0.933563
20
1.14764
11
0.932621
21
1.14783
0
LINE
8
BLACK
6
CONTINUOUS
10
0.932621
20
1.14783
11
0.931823
21
1.14836
0
LINE
8
BLACK
6
CONTINUOUS
10
0.931823
20
1.14836
11
0.93129
21
1.14916
0
LINE
8
BLACK
6
CONTINUOUS
10
0.93129
20
1.14916
11
0.931102
21
1.1501
0
LINE
8
BLACK
6
CONTINUOUS
10
0.931102
20
1.1501
11
0.931102
21
1.15502
0
LINE
8
BLACK
6
CONTINUOUS
10
0.931102
20
1.15502
11
0.93129
21
1.15596
0
LINE
8
BLACK
6
CONTINUOUS
10
0.93129
20
1.15596
11
0.931823
21
1.15676
0
LINE
8
BLACK
6
CONTINUOUS
10
0.931823
20
1.15676
11
0.932621
21
1.15729
0
LINE
8
BLACK
6
CONTINUOUS
10
0.932621
20
1.15729
11
0.933563
21
1.15748
0
LINE
8
BLACK
6
CONTINUOUS
10
0.933563
20
1.15748
11
0.961122
21
1.15748
0
LINE
8
BLACK
6
CONTINUOUS
10
0.961122
20
1.15748
11
0.962064
21
1.15729
0
LINE
8
BLACK
6
CONTINUOUS
10
1.11659
20
1.15729
11
1.11739
21
1.15676
0
LINE
8
BLACK
6
CONTINUOUS
10
1.11739
20
1.15676
11
1.11792
21
1.15596
0
LINE
8
BLACK
6
CONTINUOUS
10
1.11792
20
1.15596
11
1.11811
21
1.15502
0
LINE
8
BLACK
6
CONTINUOUS
10
1.11811
20
1.15502
11
1.11811
21
1.1501
0
LINE
8
BLACK
6
CONTINUOUS
10
1.11811
20
1.1501
11
1.11792
21
1.14916
0
LINE
8
BLACK
6
CONTINUOUS
10
1.11792
20
1.14916
11
1.11739
21
1.14836
0
LINE
8
BLACK
6
CONTINUOUS
10
1.11739
20
1.14836
11
1.11659
21
1.14783
0
LINE
8
BLACK
6
CONTINUOUS
10
1.11659
20
1.14783
11
1.11565
21
1.14764
0
LINE
8
BLACK
6
CONTINUOUS
10
1.11565
20
1.14764
11
1.08809
21
1.14764
0
LINE
8
BLACK
6
CONTINUOUS
10
1.08809
20
1.14764
11
1.08715
21
1.14783
0
LINE
8
BLACK
6
CONTINUOUS
10
1.08715
20
1.14783
11
1.08635
21
1.14836
0
LINE
8
BLACK
6
CONTINUOUS
10
1.08635
20
1.14836
11
1.08582
21
1.14916
0
LINE
8
BLACK
6
CONTINUOUS
10
1.08582
20
1.14916
11
1.08563
21
1.1501
0
LINE
8
BLACK
6
CONTINUOUS
10
1.08563
20
1.1501
11
1.08563
21
1.15502
0
LINE
8
BLACK
6
CONTINUOUS
10
1.08563
20
1.15502
11
1.08582
21
1.15596
0
LINE
8
BLACK
6
CONTINUOUS
10
1.08582
20
1.15596
11
1.08635
21
1.15676
0
LINE
8
BLACK
6
CONTINUOUS
10
1.08635
20
1.15676
11
1.08715
21
1.15729
0
LINE
8
BLACK
6
CONTINUOUS
10
1.08715
20
1.15729
11
1.08809
21
1.15748
0
LINE
8
BLACK
6
CONTINUOUS
10
1.08809
20
1.15748
11
1.11565
21
1.15748
0
LINE
8
BLACK
6
CONTINUOUS
10
1.11565
20
1.15748
11
1.11659
21
1.15729
0
LINE
8
BLACK
6
CONTINUOUS
10
1.01341
20
1.19
11
1.01661
21
1.18787
0
LINE
8
BLACK
6
CONTINUOUS
10
1.01661
20
1.18787
11
1.01874
21
1.18467
0
LINE
8
BLACK
6
CONTINUOUS
10
1.01874
20
1.18467
11
1.01949
21
1.18091
0
LINE
8
BLACK
6
CONTINUOUS
10
1.01949
20
1.18091
11
1.01949
21
1.15768
0
LINE
8
BLACK
6
CONTINUOUS
10
1.01949
20
1.15768
11
1.01874
21
1.15391
0
LINE
8
BLACK
6
CONTINUOUS
10
1.01874
20
1.15391
11
1.01661
21
1.15072
0
LINE
8
BLACK
6
CONTINUOUS
10
1.01661
20
1.15072
11
1.01341
21
1.14858
0
LINE
8
BLACK
6
CONTINUOUS
10
1.01341
20
1.14858
11
1.00965
21
1.14783
0
LINE
8
BLACK
6
CONTINUOUS
10
1.00965
20
1.14783
11
0.986417
21
1.14783
0
LINE
8
BLACK
6
CONTINUOUS
10
0.986417
20
1.14783
11
0.982651
21
1.14858
0
LINE
8
BLACK
6
CONTINUOUS
10
0.982651
20
1.14858
11
0.979458
21
1.15072
0
LINE
8
BLACK
6
CONTINUOUS
10
0.979458
20
1.15072
11
0.977324
21
1.15391
0
LINE
8
BLACK
6
CONTINUOUS
10
0.977324
20
1.15391
11
0.976575
21
1.15768
0
LINE
8
BLACK
6
CONTINUOUS
10
0.976575
20
1.15768
11
0.976575
21
1.18091
0
LINE
8
BLACK
6
CONTINUOUS
10
0.976575
20
1.18091
11
0.977324
21
1.18467
0
LINE
8
BLACK
6
CONTINUOUS
10
0.977324
20
1.18467
11
0.979458
21
1.18787
0
LINE
8
BLACK
6
CONTINUOUS
10
0.979458
20
1.18787
11
0.982651
21
1.19
0
LINE
8
BLACK
6
CONTINUOUS
10
0.982651
20
1.19
11
0.986417
21
1.19075
0
LINE
8
BLACK
6
CONTINUOUS
10
0.986417
20
1.19075
11
1.00965
21
1.19075
0
LINE
8
BLACK
6
CONTINUOUS
10
1.00965
20
1.19075
11
1.01341
21
1.19
0
LINE
8
BLACK
6
CONTINUOUS
10
1.06656
20
1.19
11
1.06976
21
1.18787
0
LINE
8
BLACK
6
CONTINUOUS
10
1.06976
20
1.18787
11
1.07189
21
1.18467
0
LINE
8
BLACK
6
CONTINUOUS
10
1.07189
20
1.18467
11
1.07264
21
1.18091
0
LINE
8
BLACK
6
CONTINUOUS
10
1.07264
20
1.18091
11
1.07264
21
1.15768
0
LINE
8
BLACK
6
CONTINUOUS
10
1.07264
20
1.15768
11
1.07189
21
1.15391
0
LINE
8
BLACK
6
CONTINUOUS
10
1.07189
20
1.15391
11
1.06976
21
1.15072
0
LINE
8
BLACK
6
CONTINUOUS
10
1.06976
20
1.15072
11
1.06656
21
1.14858
0
LINE
8
BLACK
6
CONTINUOUS
10
1.06656
20
1.14858
11
1.0628
21
1.14783
0
LINE
8
BLACK
6
CONTINUOUS
10
1.0628
20
1.14783
11
1.03957
21
1.14783
0
LINE
8
BLACK
6
CONTINUOUS
10
1.03957
20
1.14783
11
1.0358
21
1.14858
0
LINE
8
BLACK
6
CONTINUOUS
10
1.0358
20
1.14858
11
1.03261
21
1.15072
0
LINE
8
BLACK
6
CONTINUOUS
10
1.03261
20
1.15072
11
1.03047
21
1.15391
0
LINE
8
BLACK
6
CONTINUOUS
10
1.03047
20
1.15391
11
1.02972
21
1.15768
0
LINE
8
BLACK
6
CONTINUOUS
10
1.02972
20
1.15768
11
1.02972
21
1.18091
0
LINE
8
BLACK
6
CONTINUOUS
10
1.02972
20
1.18091
11
1.03047
21
1.18467
0
LINE
8
BLACK
6
CONTINUOUS
10
1.03047
20
1.18467
11
1.03261
21
1.18787
0
LINE
8
BLACK
6
CONTINUOUS
10
1.03261
20
1.18787
11
1.0358
21
1.19
0
LINE
8
BLACK
6
CONTINUOUS
10
1.0358
20
1.19
11
1.03957
21
1.19075
0
LINE
8
BLACK
6
CONTINUOUS
10
1.03957
20
1.19075
11
1.0628
21
1.19075
0
LINE
8
BLACK
6
CONTINUOUS
10
1.0628
20
1.19075
11
1.06656
21
1.19
0
LINE
8
BLACK
6
CONTINUOUS
10
1.18684
20
1.21677
11
1.19003
21
1.21464
0
LINE
8
BLACK
6
CONTINUOUS
10
1.19003
20
1.21464
11
1.19216
21
1.21144
0
LINE
8
BLACK
6
CONTINUOUS
10
1.19216
20
1.21144
11
1.19291
21
1.20768
0
LINE
8
BLACK
6
CONTINUOUS
10
1.19291
20
1.20768
11
1.19291
21
1.17028
0
LINE
8
BLACK
6
CONTINUOUS
10
1.19291
20
1.17028
11
1.19216
21
1.16651
0
LINE
8
BLACK
6
CONTINUOUS
10
1.19216
20
1.16651
11
1.19003
21
1.16332
0
LINE
8
BLACK
6
CONTINUOUS
10
1.19003
20
1.16332
11
1.18684
21
1.16118
0
LINE
8
BLACK
6
CONTINUOUS
10
1.18684
20
1.16118
11
1.18307
21
1.16043
0
LINE
8
BLACK
6
CONTINUOUS
10
1.18307
20
1.16043
11
1.16339
21
1.16043
0
LINE
8
BLACK
6
CONTINUOUS
10
1.16339
20
1.16043
11
1.15962
21
1.16118
0
LINE
8
BLACK
6
CONTINUOUS
10
1.15962
20
1.16118
11
1.15643
21
1.16332
0
LINE
8
BLACK
6
CONTINUOUS
10
1.15643
20
1.16332
11
1.15429
21
1.16651
0
LINE
8
BLACK
6
CONTINUOUS
10
1.15429
20
1.16651
11
1.15354
21
1.17028
0
LINE
8
BLACK
6
CONTINUOUS
10
1.15354
20
1.17028
11
1.15354
21
1.20768
0
LINE
8
BLACK
6
CONTINUOUS
10
1.15354
20
1.20768
11
1.15429
21
1.21144
0
LINE
8
BLACK
6
CONTINUOUS
10
1.15429
20
1.21144
11
1.15643
21
1.21464
0
LINE
8
BLACK
6
CONTINUOUS
10
1.15643
20
1.21464
11
1.15962
21
1.21677
0
LINE
8
BLACK
6
CONTINUOUS
10
1.15962
20
1.21677
11
1.16339
21
1.21752
0
LINE
8
BLACK
6
CONTINUOUS
10
1.16339
20
1.21752
11
1.18307
21
1.21752
0
LINE
8
BLACK
6
CONTINUOUS
10
1.18307
20
1.21752
11
1.18684
21
1.21677
0
LINE
8
BLACK
6
CONTINUOUS
10
1.26164
20
1.21677
11
1.26483
21
1.21464
0
LINE
8
BLACK
6
CONTINUOUS
10
1.26483
20
1.21464
11
1.26697
21
1.21144
0
LINE
8
BLACK
6
CONTINUOUS
10
1.26697
20
1.21144
11
1.26772
21
1.20768
0
LINE
8
BLACK
6
CONTINUOUS
10
1.26772
20
1.20768
11
1.26772
21
1.17028
0
LINE
8
BLACK
6
CONTINUOUS
10
1.26772
20
1.17028
11
1.26697
21
1.16651
0
LINE
8
BLACK
6
CONTINUOUS
10
1.26697
20
1.16651
11
1.26483
21
1.16332
0
LINE
8
BLACK
6
CONTINUOUS
10
1.26483
20
1.16332
11
1.26164
21
1.16118
0
LINE
8
BLACK
6
CONTINUOUS
10
1.26164
20
1.16118
11
1.25787
21
1.16043
0
LINE
8
BLACK
6
CONTINUOUS
10
1.25787
20
1.16043
11
1.23819
21
1.16043
0
LINE
8
BLACK
6
CONTINUOUS
10
1.23819
20
1.16043
11
1.23442
21
1.16118
0
LINE
8
BLACK
6
CONTINUOUS
10
1.23442
20
1.16118
11
1.23123
21
1.16332
0
LINE
8
BLACK
6
CONTINUOUS
10
1.23123
20
1.16332
11
1.2291
21
1.16651
0
LINE
8
BLACK
6
CONTINUOUS
10
1.2291
20
1.16651
11
1.22835
21
1.17028
0
LINE
8
BLACK
6
CONTINUOUS
10
1.22835
20
1.17028
11
1.22835
21
1.20768
0
LINE
8
BLACK
6
CONTINUOUS
10
1.22835
20
1.20768
11
1.2291
21
1.21144
0
LINE
8
BLACK
6
CONTINUOUS
10
1.2291
20
1.21144
11
1.23123
21
1.21464
0
LINE
8
BLACK
6
CONTINUOUS
10
1.23123
20
1.21464
11
1.23442
21
1.21677
0
LINE
8
BLACK
6
CONTINUOUS
10
1.23442
20
1.21677
11
1.23819
21
1.21752
0
LINE
8
BLACK
6
CONTINUOUS
10
1.23819
20
1.21752
11
1.25787
21
1.21752
0
LINE
8
BLACK
6
CONTINUOUS
10
1.25787
20
1.21752
11
1.26164
21
1.21677
0
LINE
8
BLACK
6
CONTINUOUS
10
0.962064
20
1.17698
11
0.962862
21
1.17644
0
LINE
8
BLACK
6
CONTINUOUS
10
0.962862
20
1.17644
11
0.963395
21
1.17565
0
LINE
8
BLACK
6
CONTINUOUS
10
0.963395
20
1.17565
11
0.963583
21
1.1747
0
LINE
8
BLACK
6
CONTINUOUS
10
0.963583
20
1.1747
11
0.963583
21
1.16978
0
LINE
8
BLACK
6
CONTINUOUS
10
0.963583
20
1.16978
11
0.963395
21
1.16884
0
LINE
8
BLACK
6
CONTINUOUS
10
0.963395
20
1.16884
11
0.962862
21
1.16804
0
LINE
8
BLACK
6
CONTINUOUS
10
0.962862
20
1.16804
11
0.962064
21
1.16751
0
LINE
8
BLACK
6
CONTINUOUS
10
0.962064
20
1.16751
11
0.961122
21
1.16732
0
LINE
8
BLACK
6
CONTINUOUS
10
0.961122
20
1.16732
11
0.933563
21
1.16732
0
LINE
8
BLACK
6
CONTINUOUS
10
0.933563
20
1.16732
11
0.932621
21
1.16751
0
LINE
8
BLACK
6
CONTINUOUS
10
0.932621
20
1.16751
11
0.931823
21
1.16804
0
LINE
8
BLACK
6
CONTINUOUS
10
0.931823
20
1.16804
11
0.93129
21
1.16884
0
LINE
8
BLACK
6
CONTINUOUS
10
0.93129
20
1.16884
11
0.931102
21
1.16978
0
LINE
8
BLACK
6
CONTINUOUS
10
0.931102
20
1.16978
11
0.931102
21
1.1747
0
LINE
8
BLACK
6
CONTINUOUS
10
0.931102
20
1.1747
11
0.93129
21
1.17565
0
LINE
8
BLACK
6
CONTINUOUS
10
0.93129
20
1.17565
11
0.931823
21
1.17644
0
LINE
8
BLACK
6
CONTINUOUS
10
0.931823
20
1.17644
11
0.932621
21
1.17698
0
LINE
8
BLACK
6
CONTINUOUS
10
0.932621
20
1.17698
11
0.933563
21
1.17717
0
LINE
8
BLACK
6
CONTINUOUS
10
0.933563
20
1.17717
11
0.961122
21
1.17717
0
LINE
8
BLACK
6
CONTINUOUS
10
0.961122
20
1.17717
11
0.962064
21
1.17698
0
LINE
8
BLACK
6
CONTINUOUS
10
1.11659
20
1.17698
11
1.11739
21
1.17644
0
LINE
8
BLACK
6
CONTINUOUS
10
1.11739
20
1.17644
11
1.11792
21
1.17565
0
LINE
8
BLACK
6
CONTINUOUS
10
1.11792
20
1.17565
11
1.11811
21
1.1747
0
LINE
8
BLACK
6
CONTINUOUS
10
1.11811
20
1.1747
11
1.11811
21
1.16978
0
LINE
8
BLACK
6
CONTINUOUS
10
1.11811
20
1.16978
11
1.11792
21
1.16884
0
LINE
8
BLACK
6
CONTINUOUS
10
1.11792
20
1.16884
11
1.11739
21
1.16804
0
LINE
8
BLACK
6
CONTINUOUS
10
1.11739
20
1.16804
11
1.11659
21
1.16751
0
LINE
8
BLACK
6
CONTINUOUS
10
1.11659
20
1.16751
11
1.11565
21
1.16732
0
LINE
8
BLACK
6
CONTINUOUS
10
1.11565
20
1.16732
11
1.08809
21
1.16732
0
LINE
8
BLACK
6
CONTINUOUS
10
1.08809
20
1.16732
11
1.08715
21
1.16751
0
LINE
8
BLACK
6
CONTINUOUS
10
1.08715
20
1.16751
11
1.08635
21
1.16804
0
LINE
8
BLACK
6
CONTINUOUS
10
1.08635
20
1.16804
11
1.08582
21
1.16884
0
LINE
8
BLACK
6
CONTINUOUS
10
1.08582
20
1.16884
11
1.08563
21
1.16978
0
LINE
8
BLACK
6
CONTINUOUS
10
1.08563
20
1.16978
11
1.08563
21
1.1747
0
LINE
8
BLACK
6
CONTINUOUS
10
1.08563
20
1.1747
11
1.08582
21
1.17565
0
LINE
8
BLACK
6
CONTINUOUS
10
1.08582
20
1.17565
11
1.08635
21
1.17644
0
LINE
8
BLACK
6
CONTINUOUS
10
1.08635
20
1.17644
11
1.08715
21
1.17698
0
LINE
8
BLACK
6
CONTINUOUS
10
1.08715
20
1.17698
11
1.08809
21
1.17717
0
LINE
8
BLACK
6
CONTINUOUS
10
1.08809
20
1.17717
11
1.11565
21
1.17717
0
LINE
8
BLACK
6
CONTINUOUS
10
1.11565
20
1.17717
11
1.11659
21
1.17698
0
LINE
8
BLACK
6
CONTINUOUS
10
0.962064
20
1.19666
11
0.962862
21
1.19613
0
LINE
8
BLACK
6
CONTINUOUS
10
0.962862
20
1.19613
11
0.963395
21
1.19533
0
LINE
8
BLACK
6
CONTINUOUS
10
0.963395
20
1.19533
11
0.963583
21
1.19439
0
LINE
8
BLACK
6
CONTINUOUS
10
0.963583
20
1.19439
11
0.963583
21
1.18947
0
LINE
8
BLACK
6
CONTINUOUS
10
0.963583
20
1.18947
11
0.963395
21
1.18853
0
LINE
8
BLACK
6
CONTINUOUS
10
0.963395
20
1.18853
11
0.962862
21
1.18773
0
LINE
8
BLACK
6
CONTINUOUS
10
0.962862
20
1.18773
11
0.962064
21
1.1872
0
LINE
8
BLACK
6
CONTINUOUS
10
0.962064
20
1.1872
11
0.961122
21
1.18701
0
LINE
8
BLACK
6
CONTINUOUS
10
0.961122
20
1.18701
11
0.933563
21
1.18701
0
LINE
8
BLACK
6
CONTINUOUS
10
0.933563
20
1.18701
11
0.932621
21
1.1872
0
LINE
8
BLACK
6
CONTINUOUS
10
0.932621
20
1.1872
11
0.931823
21
1.18773
0
LINE
8
BLACK
6
CONTINUOUS
10
0.931823
20
1.18773
11
0.93129
21
1.18853
0
LINE
8
BLACK
6
CONTINUOUS
10
0.93129
20
1.18853
11
0.931102
21
1.18947
0
LINE
8
BLACK
6
CONTINUOUS
10
0.931102
20
1.18947
11
0.931102
21
1.19439
0
LINE
8
BLACK
6
CONTINUOUS
10
0.931102
20
1.19439
11
0.93129
21
1.19533
0
LINE
8
BLACK
6
CONTINUOUS
10
0.93129
20
1.19533
11
0.931823
21
1.19613
0
LINE
8
BLACK
6
CONTINUOUS
10
0.931823
20
1.19613
11
0.932621
21
1.19666
0
LINE
8
BLACK
6
CONTINUOUS
10
0.932621
20
1.19666
11
0.933563
21
1.19685
0
LINE
8
BLACK
6
CONTINUOUS
10
0.933563
20
1.19685
11
0.961122
21
1.19685
0
LINE
8
BLACK
6
CONTINUOUS
10
0.961122
20
1.19685
11
0.962064
21
1.19666
0
LINE
8
BLACK
6
CONTINUOUS
10
1.11659
20
1.19666
11
1.11739
21
1.19613
0
LINE
8
BLACK
6
CONTINUOUS
10
1.11739
20
1.19613
11
1.11792
21
1.19533
0
LINE
8
BLACK
6
CONTINUOUS
10
1.11792
20
1.19533
11
1.11811
21
1.19439
0
LINE
8
BLACK
6
CONTINUOUS
10
1.11811
20
1.19439
11
1.11811
21
1.18947
0
LINE
8
BLACK
6
CONTINUOUS
10
1.11811
20
1.18947
11
1.11792
21
1.18853
0
LINE
8
BLACK
6
CONTINUOUS
10
1.11792
20
1.18853
11
1.11739
21
1.18773
0
LINE
8
BLACK
6
CONTINUOUS
10
1.11739
20
1.18773
11
1.11659
21
1.1872
0
LINE
8
BLACK
6
CONTINUOUS
10
1.11659
20
1.1872
11
1.11565
21
1.18701
0
LINE
8
BLACK
6
CONTINUOUS
10
1.11565
20
1.18701
11
1.08809
21
1.18701
0
LINE
8
BLACK
6
CONTINUOUS
10
1.08809
20
1.18701
11
1.08715
21
1.1872
0
LINE
8
BLACK
6
CONTINUOUS
10
1.08715
20
1.1872
11
1.08635
21
1.18773
0
LINE
8
BLACK
6
CONTINUOUS
10
1.08635
20
1.18773
11
1.08582
21
1.18853
0
LINE
8
BLACK
6
CONTINUOUS
10
1.08582
20
1.18853
11
1.08563
21
1.18947
0
LINE
8
BLACK
6
CONTINUOUS
10
1.08563
20
1.18947
11
1.08563
21
1.19439
0
LINE
8
BLACK
6
CONTINUOUS
10
1.08563
20
1.19439
11
1.08582
21
1.19533
0
LINE
8
BLACK
6
CONTINUOUS
10
1.08582
20
1.19533
11
1.08635
21
1.19613
0
LINE
8
BLACK
6
CONTINUOUS
10
1.08635
20
1.19613
11
1.08715
21
1.19666
0
LINE
8
BLACK
6
CONTINUOUS
10
1.08715
20
1.19666
11
1.08809
21
1.19685
0
LINE
8
BLACK
6
CONTINUOUS
10
1.08809
20
1.19685
11
1.11565
21
1.19685
0
LINE
8
BLACK
6
CONTINUOUS
10
1.11565
20
1.19685
11
1.11659
21
1.19666
0
LINE
8
BLACK
6
CONTINUOUS
10
0.978796
20
1.23603
11
0.979594
21
1.2355
0
LINE
8
BLACK
6
CONTINUOUS
10
0.979594
20
1.2355
11
0.980128
21
1.2347
0
LINE
8
BLACK
6
CONTINUOUS
10
0.980128
20
1.2347
11
0.980315
21
1.23376
0
LINE
8
BLACK
6
CONTINUOUS
10
0.980315
20
1.23376
11
0.980315
21
1.2062
0
LINE
8
BLACK
6
CONTINUOUS
10
0.980315
20
1.2062
11
0.980128
21
1.20526
0
LINE
8
BLACK
6
CONTINUOUS
10
0.980128
20
1.20526
11
0.979594
21
1.20446
0
LINE
8
BLACK
6
CONTINUOUS
10
0.979594
20
1.20446
11
0.978796
21
1.20393
0
LINE
8
BLACK
6
CONTINUOUS
10
0.978796
20
1.20393
11
0.977854
21
1.20374
0
LINE
8
BLACK
6
CONTINUOUS
10
0.977854
20
1.20374
11
0.972933
21
1.20374
0
LINE
8
BLACK
6
CONTINUOUS
10
0.972933
20
1.20374
11
0.971991
21
1.20393
0
LINE
8
BLACK
6
CONTINUOUS
10
0.971991
20
1.20393
11
0.971193
21
1.20446
0
LINE
8
BLACK
6
CONTINUOUS
10
0.971193
20
1.20446
11
0.97066
21
1.20526
0
LINE
8
BLACK
6
CONTINUOUS
10
0.97066
20
1.20526
11
0.970472
21
1.2062
0
LINE
8
BLACK
6
CONTINUOUS
10
0.970472
20
1.2062
11
0.970472
21
1.23376
0
LINE
8
BLACK
6
CONTINUOUS
10
0.970472
20
1.23376
11
0.97066
21
1.2347
0
LINE
8
BLACK
6
CONTINUOUS
10
0.97066
20
1.2347
11
0.971193
21
1.2355
0
LINE
8
BLACK
6
CONTINUOUS
10
0.971193
20
1.2355
11
0.971991
21
1.23603
0
LINE
8
BLACK
6
CONTINUOUS
10
0.971991
20
1.23603
11
0.972933
21
1.23622
0
LINE
8
BLACK
6
CONTINUOUS
10
0.972933
20
1.23622
11
0.977854
21
1.23622
0
LINE
8
BLACK
6
CONTINUOUS
10
0.977854
20
1.23622
11
0.978796
21
1.23603
0
LINE
8
BLACK
6
CONTINUOUS
10
0.998481
20
1.23603
11
0.999279
21
1.2355
0
LINE
8
BLACK
6
CONTINUOUS
10
0.999279
20
1.2355
11
0.999813
21
1.2347
0
LINE
8
BLACK
6
CONTINUOUS
10
0.999813
20
1.2347
11
1
21
1.23376
0
LINE
8
BLACK
6
CONTINUOUS
10
1
20
1.23376
11
1
21
1.2062
0
LINE
8
BLACK
6
CONTINUOUS
10
1
20
1.2062
11
0.999813
21
1.20526
0
LINE
8
BLACK
6
CONTINUOUS
10
0.999813
20
1.20526
11
0.999279
21
1.20446
0
LINE
8
BLACK
6
CONTINUOUS
10
0.999279
20
1.20446
11
0.998481
21
1.20393
0
LINE
8
BLACK
6
CONTINUOUS
10
0.998481
20
1.20393
11
0.997539
21
1.20374
0
LINE
8
BLACK
6
CONTINUOUS
10
0.997539
20
1.20374
11
0.992618
21
1.20374
0
LINE
8
BLACK
6
CONTINUOUS
10
0.992618
20
1.20374
11
0.991676
21
1.20393
0
LINE
8
BLACK
6
CONTINUOUS
10
0.991676
20
1.20393
11
0.990878
21
1.20446
0
LINE
8
BLACK
6
CONTINUOUS
10
0.990878
20
1.20446
11
0.990345
21
1.20526
0
LINE
8
BLACK
6
CONTINUOUS
10
0.990345
20
1.20526
11
0.990157
21
1.2062
0
LINE
8
BLACK
6
CONTINUOUS
10
0.990157
20
1.2062
11
0.990157
21
1.23376
0
LINE
8
BLACK
6
CONTINUOUS
10
0.990157
20
1.23376
11
0.990345
21
1.2347
0
LINE
8
BLACK
6
CONTINUOUS
10
0.990345
20
1.2347
11
0.990878
21
1.2355
0
LINE
8
BLACK
6
CONTINUOUS
10
0.990878
20
1.2355
11
0.991676
21
1.23603
0
LINE
8
BLACK
6
CONTINUOUS
10
0.991676
20
1.23603
11
0.992618
21
1.23622
0
LINE
8
BLACK
6
CONTINUOUS
10
0.992618
20
1.23622
11
0.997539
21
1.23622
0
LINE
8
BLACK
6
CONTINUOUS
10
0.997539
20
1.23622
11
0.998481
21
1.23603
0
LINE
8
BLACK
6
CONTINUOUS
10
1.01817
20
1.23603
11
1.01896
21
1.2355
0
LINE
8
BLACK
6
CONTINUOUS
10
1.01896
20
1.2355
11
1.0195
21
1.2347
0
LINE
8
BLACK
6
CONTINUOUS
10
1.0195
20
1.2347
11
1.01969
21
1.23376
0
LINE
8
BLACK
6
CONTINUOUS
10
1.01969
20
1.23376
11
1.01969
21
1.2062
0
LINE
8
BLACK
6
CONTINUOUS
10
1.01969
20
1.2062
11
1.0195
21
1.20526
0
LINE
8
BLACK
6
CONTINUOUS
10
1.0195
20
1.20526
11
1.01896
21
1.20446
0
LINE
8
BLACK
6
CONTINUOUS
10
1.01896
20
1.20446
11
1.01817
21
1.20393
0
LINE
8
BLACK
6
CONTINUOUS
10
1.01817
20
1.20393
11
1.01722
21
1.20374
0
LINE
8
BLACK
6
CONTINUOUS
10
1.01722
20
1.20374
11
1.0123
21
1.20374
0
LINE
8
BLACK
6
CONTINUOUS
10
1.0123
20
1.20374
11
1.01136
21
1.20393
0
LINE
8
BLACK
6
CONTINUOUS
10
1.01136
20
1.20393
11
1.01056
21
1.20446
0
LINE
8
BLACK
6
CONTINUOUS
10
1.01056
20
1.20446
11
1.01003
21
1.20526
0
LINE
8
BLACK
6
CONTINUOUS
10
1.01003
20
1.20526
11
1.00984
21
1.2062
0
LINE
8
BLACK
6
CONTINUOUS
10
1.00984
20
1.2062
11
1.00984
21
1.23376
0
LINE
8
BLACK
6
CONTINUOUS
10
1.00984
20
1.23376
11
1.01003
21
1.2347
0
LINE
8
BLACK
6
CONTINUOUS
10
1.01003
20
1.2347
11
1.01056
21
1.2355
0
LINE
8
BLACK
6
CONTINUOUS
10
1.01056
20
1.2355
11
1.01136
21
1.23603
0
LINE
8
BLACK
6
CONTINUOUS
10
1.01136
20
1.23603
11
1.0123
21
1.23622
0
LINE
8
BLACK
6
CONTINUOUS
10
1.0123
20
1.23622
11
1.01722
21
1.23622
0
LINE
8
BLACK
6
CONTINUOUS
10
1.01722
20
1.23622
11
1.01817
21
1.23603
0
LINE
8
BLACK
6
CONTINUOUS
10
1.03785
20
1.23603
11
1.03865
21
1.2355
0
LINE
8
BLACK
6
CONTINUOUS
10
1.03865
20
1.2355
11
1.03918
21
1.2347
0
LINE
8
BLACK
6
CONTINUOUS
10
1.03918
20
1.2347
11
1.03937
21
1.23376
0
LINE
8
BLACK
6
CONTINUOUS
10
1.03937
20
1.23376
11
1.03937
21
1.2062
0
LINE
8
BLACK
6
CONTINUOUS
10
1.03937
20
1.2062
11
1.03918
21
1.20526
0
LINE
8
BLACK
6
CONTINUOUS
10
1.03918
20
1.20526
11
1.03865
21
1.20446
0
LINE
8
BLACK
6
CONTINUOUS
10
1.03865
20
1.20446
11
1.03785
21
1.20393
0
LINE
8
BLACK
6
CONTINUOUS
10
1.03785
20
1.20393
11
1.03691
21
1.20374
0
LINE
8
BLACK
6
CONTINUOUS
10
1.03691
20
1.20374
11
1.03199
21
1.20374
0
LINE
8
BLACK
6
CONTINUOUS
10
1.03199
20
1.20374
11
1.03105
21
1.20393
0
LINE
8
BLACK
6
CONTINUOUS
10
1.03105
20
1.20393
11
1.03025
21
1.20446
0
LINE
8
BLACK
6
CONTINUOUS
10
1.03025
20
1.20446
11
1.02971
21
1.20526
0
LINE
8
BLACK
6
CONTINUOUS
10
1.02971
20
1.20526
11
1.02953
21
1.2062
0
LINE
8
BLACK
6
CONTINUOUS
10
1.02953
20
1.2062
11
1.02953
21
1.23376
0
LINE
8
BLACK
6
CONTINUOUS
10
1.02953
20
1.23376
11
1.02971
21
1.2347
0
LINE
8
BLACK
6
CONTINUOUS
10
1.02971
20
1.2347
11
1.03025
21
1.2355
0
LINE
8
BLACK
6
CONTINUOUS
10
1.03025
20
1.2355
11
1.03105
21
1.23603
0
LINE
8
BLACK
6
CONTINUOUS
10
1.03105
20
1.23603
11
1.03199
21
1.23622
0
LINE
8
BLACK
6
CONTINUOUS
10
1.03199
20
1.23622
11
1.03691
21
1.23622
0
LINE
8
BLACK
6
CONTINUOUS
10
1.03691
20
1.23622
11
1.03785
21
1.23603
0
LINE
8
BLACK
6
CONTINUOUS
10
1.05754
20
1.23603
11
1.05833
21
1.2355
0
LINE
8
BLACK
6
CONTINUOUS
10
1.05833
20
1.2355
11
1.05887
21
1.2347
0
LINE
8
BLACK
6
CONTINUOUS
10
1.05887
20
1.2347
11
1.05906
21
1.23376
0
LINE
8
BLACK
6
CONTINUOUS
10
1.05906
20
1.23376
11
1.05906
21
1.2062
0
LINE
8
BLACK
6
CONTINUOUS
10
1.05906
20
1.2062
11
1.05887
21
1.20526
0
LINE
8
BLACK
6
CONTINUOUS
10
1.05887
20
1.20526
11
1.05833
21
1.20446
0
LINE
8
BLACK
6
CONTINUOUS
10
1.05833
20
1.20446
11
1.05754
21
1.20393
0
LINE
8
BLACK
6
CONTINUOUS
10
1.05754
20
1.20393
11
1.05659
21
1.20374
0
LINE
8
BLACK
6
CONTINUOUS
10
1.05659
20
1.20374
11
1.05167
21
1.20374
0
LINE
8
BLACK
6
CONTINUOUS
10
1.05167
20
1.20374
11
1.05073
21
1.20393
0
LINE
8
BLACK
6
CONTINUOUS
10
1.05073
20
1.20393
11
1.04993
21
1.20446
0
LINE
8
BLACK
6
CONTINUOUS
10
1.04993
20
1.20446
11
1.0494
21
1.20526
0
LINE
8
BLACK
6
CONTINUOUS
10
1.0494
20
1.20526
11
1.04921
21
1.2062
0
LINE
8
BLACK
6
CONTINUOUS
10
1.04921
20
1.2062
11
1.04921
21
1.23376
0
LINE
8
BLACK
6
CONTINUOUS
10
1.04921
20
1.23376
11
1.0494
21
1.2347
0
LINE
8
BLACK
6
CONTINUOUS
10
1.0494
20
1.2347
11
1.04993
21
1.2355
0
LINE
8
BLACK
6
CONTINUOUS
10
1.04993
20
1.2355
11
1.05073
21
1.23603
0
LINE
8
BLACK
6
CONTINUOUS
10
1.05073
20
1.23603
11
1.05167
21
1.23622
0
LINE
8
BLACK
6
CONTINUOUS
10
1.05167
20
1.23622
11
1.05659
21
1.23622
0
LINE
8
BLACK
6
CONTINUOUS
10
1.05659
20
1.23622
11
1.05754
21
1.23603
0
LINE
8
BLACK
6
CONTINUOUS
10
1.07722
20
1.23603
11
1.07802
21
1.2355
0
LINE
8
BLACK
6
CONTINUOUS
10
1.07802
20
1.2355
11
1.07855
21
1.2347
0
LINE
8
BLACK
6
CONTINUOUS
10
1.07855
20
1.2347
11
1.07874
21
1.23376
0
LINE
8
BLACK
6
CONTINUOUS
10
1.07874
20
1.23376
11
1.07874
21
1.2062
0
LINE
8
BLACK
6
CONTINUOUS
10
1.07874
20
1.2062
11
1.07855
21
1.20526
0
LINE
8
BLACK
6
CONTINUOUS
10
1.07855
20
1.20526
11
1.07802
21
1.20446
0
LINE
8
BLACK
6
CONTINUOUS
10
1.07802
20
1.20446
11
1.07722
21
1.20393
0
LINE
8
BLACK
6
CONTINUOUS
10
1.07722
20
1.20393
11
1.07628
21
1.20374
0
LINE
8
BLACK
6
CONTINUOUS
10
1.07628
20
1.20374
11
1.07136
21
1.20374
0
LINE
8
BLACK
6
CONTINUOUS
10
1.07136
20
1.20374
11
1.07042
21
1.20393
0
LINE
8
BLACK
6
CONTINUOUS
10
1.07042
20
1.20393
11
1.06962
21
1.20446
0
LINE
8
BLACK
6
CONTINUOUS
10
1.06962
20
1.20446
11
1.06908
21
1.20526
0
LINE
8
BLACK
6
CONTINUOUS
10
1.06908
20
1.20526
11
1.0689
21
1.2062
0
LINE
8
BLACK
6
CONTINUOUS
10
1.0689
20
1.2062
11
1.0689
21
1.23376
0
LINE
8
BLACK
6
CONTINUOUS
10
1.0689
20
1.23376
11
1.06908
21
1.2347
0
LINE
8
BLACK
6
CONTINUOUS
10
1.06908
20
1.2347
11
1.06962
21
1.2355
0
LINE
8
BLACK
6
CONTINUOUS
10
1.06962
20
1.2355
11
1.07042
21
1.23603
0
LINE
8
BLACK
6
CONTINUOUS
10
1.07042
20
1.23603
11
1.07136
21
1.23622
0
LINE
8
BLACK
6
CONTINUOUS
10
1.07136
20
1.23622
11
1.07628
21
1.23622
0
LINE
8
BLACK
6
CONTINUOUS
10
1.07628
20
1.23622
11
1.07722
21
1.23603
0
LINE
8
BLACK
6
CONTINUOUS
10
0.322531
20
1.30907
11
0.324967
21
1.30745
0
LINE
8
BLACK
6
CONTINUOUS
10
0.324967
20
1.30745
11
0.326594
21
1.30501
0
LINE
8
BLACK
6
CONTINUOUS
10
0.326594
20
1.30501
11
0.327165
21
1.30214
0
LINE
8
BLACK
6
CONTINUOUS
10
0.327165
20
1.30214
11
0.327165
21
1.2581
0
LINE
8
BLACK
6
CONTINUOUS
10
0.327165
20
1.2581
11
0.326594
21
1.25522
0
LINE
8
BLACK
6
CONTINUOUS
10
0.326594
20
1.25522
11
0.324967
21
1.25279
0
LINE
8
BLACK
6
CONTINUOUS
10
0.324967
20
1.25279
11
0.322531
21
1.25116
0
LINE
8
BLACK
6
CONTINUOUS
10
0.322531
20
1.25116
11
0.319659
21
1.25059
0
LINE
8
BLACK
6
CONTINUOUS
10
0.319659
20
1.25059
11
0.278373
21
1.25059
0
LINE
8
BLACK
6
CONTINUOUS
10
0.278373
20
1.25059
11
0.2755
21
1.25116
0
LINE
8
BLACK
6
CONTINUOUS
10
0.2755
20
1.25116
11
0.273065
21
1.25279
0
LINE
8
BLACK
6
CONTINUOUS
10
0.273065
20
1.25279
11
0.271438
21
1.25522
0
LINE
8
BLACK
6
CONTINUOUS
10
0.271438
20
1.25522
11
0.270866
21
1.2581
0
LINE
8
BLACK
6
CONTINUOUS
10
0.270866
20
1.2581
11
0.270866
21
1.30214
0
LINE
8
BLACK
6
CONTINUOUS
10
0.270866
20
1.30214
11
0.271438
21
1.30501
0
LINE
8
BLACK
6
CONTINUOUS
10
0.271438
20
1.30501
11
0.273065
21
1.30745
0
LINE
8
BLACK
6
CONTINUOUS
10
0.273065
20
1.30745
11
0.2755
21
1.30907
0
LINE
8
BLACK
6
CONTINUOUS
10
0.2755
20
1.30907
11
0.278373
21
1.30965
0
LINE
8
BLACK
6
CONTINUOUS
10
0.278373
20
1.30965
11
0.319659
21
1.30965
0
LINE
8
BLACK
6
CONTINUOUS
10
0.319659
20
1.30965
11
0.322531
21
1.30907
0
LINE
8
BLACK
6
CONTINUOUS
10
0.473319
20
1.30907
11
0.475754
21
1.30745
0
LINE
8
BLACK
6
CONTINUOUS
10
0.475754
20
1.30745
11
0.477381
21
1.30501
0
LINE
8
BLACK
6
CONTINUOUS
10
0.477381
20
1.30501
11
0.477953
21
1.30214
0
LINE
8
BLACK
6
CONTINUOUS
10
0.477953
20
1.30214
11
0.477953
21
1.2581
0
LINE
8
BLACK
6
CONTINUOUS
10
0.477953
20
1.2581
11
0.477381
21
1.25522
0
LINE
8
BLACK
6
CONTINUOUS
10
0.477381
20
1.25522
11
0.475754
21
1.25279
0
LINE
8
BLACK
6
CONTINUOUS
10
0.475754
20
1.25279
11
0.473319
21
1.25116
0
LINE
8
BLACK
6
CONTINUOUS
10
0.473319
20
1.25116
11
0.470446
21
1.25059
0
LINE
8
BLACK
6
CONTINUOUS
10
0.470446
20
1.25059
11
0.42916
21
1.25059
0
LINE
8
BLACK
6
CONTINUOUS
10
0.42916
20
1.25059
11
0.426287
21
1.25116
0
LINE
8
BLACK
6
CONTINUOUS
10
0.426287
20
1.25116
11
0.423852
21
1.25279
0
LINE
8
BLACK
6
CONTINUOUS
10
0.423852
20
1.25279
11
0.422225
21
1.25522
0
LINE
8
BLACK
6
CONTINUOUS
10
0.422225
20
1.25522
11
0.421654
21
1.2581
0
LINE
8
BLACK
6
CONTINUOUS
10
0.421654
20
1.2581
11
0.421654
21
1.30214
0
LINE
8
BLACK
6
CONTINUOUS
10
0.421654
20
1.30214
11
0.422225
21
1.30501
0
LINE
8
BLACK
6
CONTINUOUS
10
0.422225
20
1.30501
11
0.423852
21
1.30745
0
LINE
8
BLACK
6
CONTINUOUS
10
0.423852
20
1.30745
11
0.426287
21
1.30907
0
LINE
8
BLACK
6
CONTINUOUS
10
0.426287
20
1.30907
11
0.42916
21
1.30965
0
LINE
8
BLACK
6
CONTINUOUS
10
0.42916
20
1.30965
11
0.470446
21
1.30965
0
LINE
8
BLACK
6
CONTINUOUS
10
0.470446
20
1.30965
11
0.473319
21
1.30907
0
LINE
8
BLACK
6
CONTINUOUS
10
0.311641
20
1.39256
11
0.314834
21
1.39042
0
LINE
8
BLACK
6
CONTINUOUS
10
0.314834
20
1.39042
11
0.316967
21
1.38723
0
LINE
8
BLACK
6
CONTINUOUS
10
0.316967
20
1.38723
11
0.317717
21
1.38346
0
LINE
8
BLACK
6
CONTINUOUS
10
0.317717
20
1.38346
11
0.317717
21
1.3628
0
LINE
8
BLACK
6
CONTINUOUS
10
0.317717
20
1.3628
11
0.316967
21
1.35903
0
LINE
8
BLACK
6
CONTINUOUS
10
0.316967
20
1.35903
11
0.314834
21
1.35584
0
LINE
8
BLACK
6
CONTINUOUS
10
0.314834
20
1.35584
11
0.311641
21
1.3537
0
LINE
8
BLACK
6
CONTINUOUS
10
0.311641
20
1.3537
11
0.307874
21
1.35295
0
LINE
8
BLACK
6
CONTINUOUS
10
0.307874
20
1.35295
11
0.272441
21
1.35295
0
LINE
8
BLACK
6
CONTINUOUS
10
0.272441
20
1.35295
11
0.268674
21
1.3537
0
LINE
8
BLACK
6
CONTINUOUS
10
0.268674
20
1.3537
11
0.265481
21
1.35584
0
LINE
8
BLACK
6
CONTINUOUS
10
0.265481
20
1.35584
11
0.263348
21
1.35903
0
LINE
8
BLACK
6
CONTINUOUS
10
0.263348
20
1.35903
11
0.262598
21
1.3628
0
LINE
8
BLACK
6
CONTINUOUS
10
0.262598
20
1.3628
11
0.262598
21
1.38346
0
LINE
8
BLACK
6
CONTINUOUS
10
0.262598
20
1.38346
11
0.263348
21
1.38723
0
LINE
8
BLACK
6
CONTINUOUS
10
0.263348
20
1.38723
11
0.265481
21
1.39042
0
LINE
8
BLACK
6
CONTINUOUS
10
0.265481
20
1.39042
11
0.268674
21
1.39256
0
LINE
8
BLACK
6
CONTINUOUS
10
0.268674
20
1.39256
11
0.272441
21
1.39331
0
LINE
8
BLACK
6
CONTINUOUS
10
0.272441
20
1.39331
11
0.307874
21
1.39331
0
LINE
8
BLACK
6
CONTINUOUS
10
0.307874
20
1.39331
11
0.311641
21
1.39256
0
LINE
8
BLACK
6
CONTINUOUS
10
0.392349
20
1.39256
11
0.395542
21
1.39042
0
LINE
8
BLACK
6
CONTINUOUS
10
0.395542
20
1.39042
11
0.397676
21
1.38723
0
LINE
8
BLACK
6
CONTINUOUS
10
0.397676
20
1.38723
11
0.398425
21
1.38346
0
LINE
8
BLACK
6
CONTINUOUS
10
0.398425
20
1.38346
11
0.398425
21
1.3628
0
LINE
8
BLACK
6
CONTINUOUS
10
0.398425
20
1.3628
11
0.397676
21
1.35903
0
LINE
8
BLACK
6
CONTINUOUS
10
0.397676
20
1.35903
11
0.395542
21
1.35584
0
LINE
8
BLACK
6
CONTINUOUS
10
0.395542
20
1.35584
11
0.392349
21
1.3537
0
LINE
8
BLACK
6
CONTINUOUS
10
0.392349
20
1.3537
11
0.388583
21
1.35295
0
LINE
8
BLACK
6
CONTINUOUS
10
0.388583
20
1.35295
11
0.35315
21
1.35295
0
LINE
8
BLACK
6
CONTINUOUS
10
0.35315
20
1.35295
11
0.349383
21
1.3537
0
LINE
8
BLACK
6
CONTINUOUS
10
0.349383
20
1.3537
11
0.34619
21
1.35584
0
LINE
8
BLACK
6
CONTINUOUS
10
0.34619
20
1.35584
11
0.344056
21
1.35903
0
LINE
8
BLACK
6
CONTINUOUS
10
0.344056
20
1.35903
11
0.343307
21
1.3628
0
LINE
8
BLACK
6
CONTINUOUS
10
0.343307
20
1.3628
11
0.343307
21
1.38346
0
LINE
8
BLACK
6
CONTINUOUS
10
0.343307
20
1.38346
11
0.344056
21
1.38723
0
LINE
8
BLACK
6
CONTINUOUS
10
0.344056
20
1.38723
11
0.34619
21
1.39042
0
LINE
8
BLACK
6
CONTINUOUS
10
0.34619
20
1.39042
11
0.349383
21
1.39256
0
LINE
8
BLACK
6
CONTINUOUS
10
0.349383
20
1.39256
11
0.35315
21
1.39331
0
LINE
8
BLACK
6
CONTINUOUS
10
0.35315
20
1.39331
11
0.388583
21
1.39331
0
LINE
8
BLACK
6
CONTINUOUS
10
0.388583
20
1.39331
11
0.392349
21
1.39256
0
LINE
8
BLACK
6
CONTINUOUS
10
0.473058
20
1.39305
11
0.476251
21
1.39092
0
LINE
8
BLACK
6
CONTINUOUS
10
0.476251
20
1.39092
11
0.478385
21
1.38772
0
LINE
8
BLACK
6
CONTINUOUS
10
0.478385
20
1.38772
11
0.479134
21
1.38396
0
LINE
8
BLACK
6
CONTINUOUS
10
0.479134
20
1.38396
11
0.479134
21
1.36329
0
LINE
8
BLACK
6
CONTINUOUS
10
0.479134
20
1.36329
11
0.478385
21
1.35952
0
LINE
8
BLACK
6
CONTINUOUS
10
0.478385
20
1.35952
11
0.476251
21
1.35633
0
LINE
8
BLACK
6
CONTINUOUS
10
0.476251
20
1.35633
11
0.473058
21
1.35419
0
LINE
8
BLACK
6
CONTINUOUS
10
0.473058
20
1.35419
11
0.469291
21
1.35344
0
LINE
8
BLACK
6
CONTINUOUS
10
0.469291
20
1.35344
11
0.433858
21
1.35344
0
LINE
8
BLACK
6
CONTINUOUS
10
0.433858
20
1.35344
11
0.430092
21
1.35419
0
LINE
8
BLACK
6
CONTINUOUS
10
0.430092
20
1.35419
11
0.426899
21
1.35633
0
LINE
8
BLACK
6
CONTINUOUS
10
0.426899
20
1.35633
11
0.424765
21
1.35952
0
LINE
8
BLACK
6
CONTINUOUS
10
0.424765
20
1.35952
11
0.424016
21
1.36329
0
LINE
8
BLACK
6
CONTINUOUS
10
0.424016
20
1.36329
11
0.424016
21
1.38396
0
LINE
8
BLACK
6
CONTINUOUS
10
0.424016
20
1.38396
11
0.424765
21
1.38772
0
LINE
8
BLACK
6
CONTINUOUS
10
0.424765
20
1.38772
11
0.426899
21
1.39092
0
LINE
8
BLACK
6
CONTINUOUS
10
0.426899
20
1.39092
11
0.430092
21
1.39305
0
LINE
8
BLACK
6
CONTINUOUS
10
0.430092
20
1.39305
11
0.433858
21
1.3938
0
LINE
8
BLACK
6
CONTINUOUS
10
0.433858
20
1.3938
11
0.469291
21
1.3938
0
LINE
8
BLACK
6
CONTINUOUS
10
0.469291
20
1.3938
11
0.473058
21
1.39305
0
LINE
8
BLACK
6
CONTINUOUS
10
0.666365
20
1.40319
11
0.669558
21
1.40105
0
LINE
8
BLACK
6
CONTINUOUS
10
0.669558
20
1.40105
11
0.671692
21
1.39786
0
LINE
8
BLACK
6
CONTINUOUS
10
0.671692
20
1.39786
11
0.672441
21
1.39409
0
LINE
8
BLACK
6
CONTINUOUS
10
0.672441
20
1.39409
11
0.672441
21
1.37343
0
LINE
8
BLACK
6
CONTINUOUS
10
0.672441
20
1.37343
11
0.671692
21
1.36966
0
LINE
8
BLACK
6
CONTINUOUS
10
0.671692
20
1.36966
11
0.669558
21
1.36647
0
LINE
8
BLACK
6
CONTINUOUS
10
0.669558
20
1.36647
11
0.666365
21
1.36433
0
LINE
8
BLACK
6
CONTINUOUS
10
0.666365
20
1.36433
11
0.662598
21
1.36358
0
LINE
8
BLACK
6
CONTINUOUS
10
0.662598
20
1.36358
11
0.627165
21
1.36358
0
LINE
8
BLACK
6
CONTINUOUS
10
0.627165
20
1.36358
11
0.623399
21
1.36433
0
LINE
8
BLACK
6
CONTINUOUS
10
0.623399
20
1.36433
11
0.620206
21
1.36647
0
LINE
8
BLACK
6
CONTINUOUS
10
0.620206
20
1.36647
11
0.618072
21
1.36966
0
LINE
8
BLACK
6
CONTINUOUS
10
0.618072
20
1.36966
11
0.617323
21
1.37343
0
LINE
8
BLACK
6
CONTINUOUS
10
0.617323
20
1.37343
11
0.617323
21
1.39409
0
LINE
8
BLACK
6
CONTINUOUS
10
0.617323
20
1.39409
11
0.618072
21
1.39786
0
LINE
8
BLACK
6
CONTINUOUS
10
0.618072
20
1.39786
11
0.620206
21
1.40105
0
LINE
8
BLACK
6
CONTINUOUS
10
0.620206
20
1.40105
11
0.623399
21
1.40319
0
LINE
8
BLACK
6
CONTINUOUS
10
0.623399
20
1.40319
11
0.627165
21
1.40394
0
LINE
8
BLACK
6
CONTINUOUS
10
0.627165
20
1.40394
11
0.662598
21
1.40394
0
LINE
8
BLACK
6
CONTINUOUS
10
0.662598
20
1.40394
11
0.666365
21
1.40319
0
LINE
8
BLACK
6
CONTINUOUS
10
0.580145
20
1.40329
11
0.583338
21
1.40115
0
LINE
8
BLACK
6
CONTINUOUS
10
0.583338
20
1.40115
11
0.585471
21
1.39796
0
LINE
8
BLACK
6
CONTINUOUS
10
0.585471
20
1.39796
11
0.58622
21
1.39419
0
LINE
8
BLACK
6
CONTINUOUS
10
0.58622
20
1.39419
11
0.58622
21
1.37352
0
LINE
8
BLACK
6
CONTINUOUS
10
0.58622
20
1.37352
11
0.585471
21
1.36976
0
LINE
8
BLACK
6
CONTINUOUS
10
0.585471
20
1.36976
11
0.583338
21
1.36656
0
LINE
8
BLACK
6
CONTINUOUS
10
0.583338
20
1.36656
11
0.580145
21
1.36443
0
LINE
8
BLACK
6
CONTINUOUS
10
0.580145
20
1.36443
11
0.576378
21
1.36368
0
LINE
8
BLACK
6
CONTINUOUS
10
0.576378
20
1.36368
11
0.540945
21
1.36368
0
LINE
8
BLACK
6
CONTINUOUS
10
0.540945
20
1.36368
11
0.537178
21
1.36443
0
LINE
8
BLACK
6
CONTINUOUS
10
0.537178
20
1.36443
11
0.533985
21
1.36656
0
LINE
8
BLACK
6
CONTINUOUS
10
0.533985
20
1.36656
11
0.531852
21
1.36976
0
LINE
8
BLACK
6
CONTINUOUS
10
0.531852
20
1.36976
11
0.531102
21
1.37352
0
LINE
8
BLACK
6
CONTINUOUS
10
0.531102
20
1.37352
11
0.531102
21
1.39419
0
LINE
8
BLACK
6
CONTINUOUS
10
0.531102
20
1.39419
11
0.531852
21
1.39796
0
LINE
8
BLACK
6
CONTINUOUS
10
0.531852
20
1.39796
11
0.533985
21
1.40115
0
LINE
8
BLACK
6
CONTINUOUS
10
0.533985
20
1.40115
11
0.537178
21
1.40329
0
LINE
8
BLACK
6
CONTINUOUS
10
0.537178
20
1.40329
11
0.540945
21
1.40404
0
LINE
8
BLACK
6
CONTINUOUS
10
0.540945
20
1.40404
11
0.576378
21
1.40404
0
LINE
8
BLACK
6
CONTINUOUS
10
0.576378
20
1.40404
11
0.580145
21
1.40329
0
LINE
8
BLACK
6
CONTINUOUS
10
1.02788
20
1.43626
11
1.03107
21
1.43413
0
LINE
8
BLACK
6
CONTINUOUS
10
1.03107
20
1.43413
11
1.03321
21
1.43093
0
LINE
8
BLACK
6
CONTINUOUS
10
1.03321
20
1.43093
11
1.03396
21
1.42717
0
LINE
8
BLACK
6
CONTINUOUS
10
1.03396
20
1.42717
11
1.03396
21
1.39173
0
LINE
8
BLACK
6
CONTINUOUS
10
1.03396
20
1.39173
11
1.03321
21
1.38797
0
LINE
8
BLACK
6
CONTINUOUS
10
1.03321
20
1.38797
11
1.03107
21
1.38477
0
LINE
8
BLACK
6
CONTINUOUS
10
1.03107
20
1.38477
11
1.02788
21
1.38264
0
LINE
8
BLACK
6
CONTINUOUS
10
1.02788
20
1.38264
11
1.02411
21
1.38189
0
LINE
8
BLACK
6
CONTINUOUS
10
1.02411
20
1.38189
11
1.00344
21
1.38189
0
LINE
8
BLACK
6
CONTINUOUS
10
1.00344
20
1.38189
11
0.999678
21
1.38264
0
LINE
8
BLACK
6
CONTINUOUS
10
0.999678
20
1.38264
11
0.996485
21
1.38477
0
LINE
8
BLACK
6
CONTINUOUS
10
0.996485
20
1.38477
11
0.994352
21
1.38797
0
LINE
8
BLACK
6
CONTINUOUS
10
0.994352
20
1.38797
11
0.993602
21
1.39173
0
LINE
8
BLACK
6
CONTINUOUS
10
0.993602
20
1.39173
11
0.993602
21
1.42717
0
LINE
8
BLACK
6
CONTINUOUS
10
0.993602
20
1.42717
11
0.994352
21
1.43093
0
LINE
8
BLACK
6
CONTINUOUS
10
0.994352
20
1.43093
11
0.996485
21
1.43413
0
LINE
8
BLACK
6
CONTINUOUS
10
0.996485
20
1.43413
11
0.999678
21
1.43626
0
LINE
8
BLACK
6
CONTINUOUS
10
0.999678
20
1.43626
11
1.00344
21
1.43701
0
LINE
8
BLACK
6
CONTINUOUS
10
1.00344
20
1.43701
11
1.02411
21
1.43701
0
LINE
8
BLACK
6
CONTINUOUS
10
1.02411
20
1.43701
11
1.02788
21
1.43626
0
LINE
8
BLACK
6
CONTINUOUS
10
1.09973
20
1.43626
11
1.10292
21
1.43413
0
LINE
8
BLACK
6
CONTINUOUS
10
1.10292
20
1.43413
11
1.10506
21
1.43093
0
LINE
8
BLACK
6
CONTINUOUS
10
1.10506
20
1.43093
11
1.10581
21
1.42717
0
LINE
8
BLACK
6
CONTINUOUS
10
1.10581
20
1.42717
11
1.10581
21
1.39173
0
LINE
8
BLACK
6
CONTINUOUS
10
1.10581
20
1.39173
11
1.10506
21
1.38797
0
LINE
8
BLACK
6
CONTINUOUS
10
1.10506
20
1.38797
11
1.10292
21
1.38477
0
LINE
8
BLACK
6
CONTINUOUS
10
1.10292
20
1.38477
11
1.09973
21
1.38264
0
LINE
8
BLACK
6
CONTINUOUS
10
1.09973
20
1.38264
11
1.09596
21
1.38189
0
LINE
8
BLACK
6
CONTINUOUS
10
1.09596
20
1.38189
11
1.0753
21
1.38189
0
LINE
8
BLACK
6
CONTINUOUS
10
1.0753
20
1.38189
11
1.07153
21
1.38264
0
LINE
8
BLACK
6
CONTINUOUS
10
1.07153
20
1.38264
11
1.06834
21
1.38477
0
LINE
8
BLACK
6
CONTINUOUS
10
1.06834
20
1.38477
11
1.0662
21
1.38797
0
LINE
8
BLACK
6
CONTINUOUS
10
1.0662
20
1.38797
11
1.06545
21
1.39173
0
LINE
8
BLACK
6
CONTINUOUS
10
1.06545
20
1.39173
11
1.06545
21
1.42717
0
LINE
8
BLACK
6
CONTINUOUS
10
1.06545
20
1.42717
11
1.0662
21
1.43093
0
LINE
8
BLACK
6
CONTINUOUS
10
1.0662
20
1.43093
11
1.06834
21
1.43413
0
LINE
8
BLACK
6
CONTINUOUS
10
1.06834
20
1.43413
11
1.07153
21
1.43626
0
LINE
8
BLACK
6
CONTINUOUS
10
1.07153
20
1.43626
11
1.0753
21
1.43701
0
LINE
8
BLACK
6
CONTINUOUS
10
1.0753
20
1.43701
11
1.09596
21
1.43701
0
LINE
8
BLACK
6
CONTINUOUS
10
1.09596
20
1.43701
11
1.09973
21
1.43626
0
LINE
8
BLACK
6
CONTINUOUS
10
1.62795
20
1.38386
11
1.47835
21
1.38386
0
LINE
8
BLACK
6
CONTINUOUS
10
1.47835
20
1.38386
11
1.47835
21
1.4626
0
LINE
8
BLACK
6
CONTINUOUS
10
1.47835
20
1.4626
11
1.62795
21
1.4626
0
LINE
8
BLACK
6
CONTINUOUS
10
1.62795
20
1.4626
11
1.62795
21
1.38386
0
LINE
8
BLACK
6
CONTINUOUS
10
1.22818
20
1.46234
11
1.23137
21
1.46021
0
LINE
8
BLACK
6
CONTINUOUS
10
1.23137
20
1.46021
11
1.2335
21
1.45701
0
LINE
8
BLACK
6
CONTINUOUS
10
1.2335
20
1.45701
11
1.23425
21
1.45325
0
LINE
8
BLACK
6
CONTINUOUS
10
1.23425
20
1.45325
11
1.23425
21
1.43258
0
LINE
8
BLACK
6
CONTINUOUS
10
1.23425
20
1.43258
11
1.2335
21
1.42881
0
LINE
8
BLACK
6
CONTINUOUS
10
1.2335
20
1.42881
11
1.23137
21
1.42562
0
LINE
8
BLACK
6
CONTINUOUS
10
1.23137
20
1.42562
11
1.22818
21
1.42349
0
LINE
8
BLACK
6
CONTINUOUS
10
1.22818
20
1.42349
11
1.22441
21
1.42274
0
LINE
8
BLACK
6
CONTINUOUS
10
1.22441
20
1.42274
11
1.18898
21
1.42274
0
LINE
8
BLACK
6
CONTINUOUS
10
1.18898
20
1.42274
11
1.18521
21
1.42349
0
LINE
8
BLACK
6
CONTINUOUS
10
1.18521
20
1.42349
11
1.18202
21
1.42562
0
LINE
8
BLACK
6
CONTINUOUS
10
1.18202
20
1.42562
11
1.17988
21
1.42881
0
LINE
8
BLACK
6
CONTINUOUS
10
1.17988
20
1.42881
11
1.17913
21
1.43258
0
LINE
8
BLACK
6
CONTINUOUS
10
1.17913
20
1.43258
11
1.17913
21
1.45325
0
LINE
8
BLACK
6
CONTINUOUS
10
1.17913
20
1.45325
11
1.17988
21
1.45701
0
LINE
8
BLACK
6
CONTINUOUS
10
1.17988
20
1.45701
11
1.18202
21
1.46021
0
LINE
8
BLACK
6
CONTINUOUS
10
1.18202
20
1.46021
11
1.18521
21
1.46234
0
LINE
8
BLACK
6
CONTINUOUS
10
1.18521
20
1.46234
11
1.18898
21
1.46309
0
LINE
8
BLACK
6
CONTINUOUS
10
1.18898
20
1.46309
11
1.22441
21
1.46309
0
LINE
8
BLACK
6
CONTINUOUS
10
1.22441
20
1.46309
11
1.22818
21
1.46234
0
LINE
8
BLACK
6
CONTINUOUS
10
0.311641
20
1.46441
11
0.314834
21
1.46227
0
LINE
8
BLACK
6
CONTINUOUS
10
0.314834
20
1.46227
11
0.316967
21
1.45908
0
LINE
8
BLACK
6
CONTINUOUS
10
0.316967
20
1.45908
11
0.317717
21
1.45531
0
LINE
8
BLACK
6
CONTINUOUS
10
0.317717
20
1.45531
11
0.317717
21
1.43465
0
LINE
8
BLACK
6
CONTINUOUS
10
0.317717
20
1.43465
11
0.316967
21
1.43088
0
LINE
8
BLACK
6
CONTINUOUS
10
0.316967
20
1.43088
11
0.314834
21
1.42769
0
LINE
8
BLACK
6
CONTINUOUS
10
0.314834
20
1.42769
11
0.311641
21
1.42555
0
LINE
8
BLACK
6
CONTINUOUS
10
0.311641
20
1.42555
11
0.307874
21
1.4248
0
LINE
8
BLACK
6
CONTINUOUS
10
0.307874
20
1.4248
11
0.272441
21
1.4248
0
LINE
8
BLACK
6
CONTINUOUS
10
0.272441
20
1.4248
11
0.268674
21
1.42555
0
LINE
8
BLACK
6
CONTINUOUS
10
0.268674
20
1.42555
11
0.265481
21
1.42769
0
LINE
8
BLACK
6
CONTINUOUS
10
0.265481
20
1.42769
11
0.263348
21
1.43088
0
LINE
8
BLACK
6
CONTINUOUS
10
0.263348
20
1.43088
11
0.262598
21
1.43465
0
LINE
8
BLACK
6
CONTINUOUS
10
0.262598
20
1.43465
11
0.262598
21
1.45531
0
LINE
8
BLACK
6
CONTINUOUS
10
0.262598
20
1.45531
11
0.263348
21
1.45908
0
LINE
8
BLACK
6
CONTINUOUS
10
0.263348
20
1.45908
11
0.265481
21
1.46227
0
LINE
8
BLACK
6
CONTINUOUS
10
0.265481
20
1.46227
11
0.268674
21
1.46441
0
LINE
8
BLACK
6
CONTINUOUS
10
0.268674
20
1.46441
11
0.272441
21
1.46516
0
LINE
8
BLACK
6
CONTINUOUS
10
0.272441
20
1.46516
11
0.307874
21
1.46516
0
LINE
8
BLACK
6
CONTINUOUS
10
0.307874
20
1.46516
11
0.311641
21
1.46441
0
LINE
8
BLACK
6
CONTINUOUS
10
0.392349
20
1.46441
11
0.395542
21
1.46227
0
LINE
8
BLACK
6
CONTINUOUS
10
0.395542
20
1.46227
11
0.397676
21
1.45908
0
LINE
8
BLACK
6
CONTINUOUS
10
0.397676
20
1.45908
11
0.398425
21
1.45531
0
LINE
8
BLACK
6
CONTINUOUS
10
0.398425
20
1.45531
11
0.398425
21
1.43465
0
LINE
8
BLACK
6
CONTINUOUS
10
0.398425
20
1.43465
11
0.397676
21
1.43088
0
LINE
8
BLACK
6
CONTINUOUS
10
0.397676
20
1.43088
11
0.395542
21
1.42769
0
LINE
8
BLACK
6
CONTINUOUS
10
0.395542
20
1.42769
11
0.392349
21
1.42555
0
LINE
8
BLACK
6
CONTINUOUS
10
0.392349
20
1.42555
11
0.388583
21
1.4248
0
LINE
8
BLACK
6
CONTINUOUS
10
0.388583
20
1.4248
11
0.35315
21
1.4248
0
LINE
8
BLACK
6
CONTINUOUS
10
0.35315
20
1.4248
11
0.349383
21
1.42555
0
LINE
8
BLACK
6
CONTINUOUS
10
0.349383
20
1.42555
11
0.34619
21
1.42769
0
LINE
8
BLACK
6
CONTINUOUS
10
0.34619
20
1.42769
11
0.344056
21
1.43088
0
LINE
8
BLACK
6
CONTINUOUS
10
0.344056
20
1.43088
11
0.343307
21
1.43465
0
LINE
8
BLACK
6
CONTINUOUS
10
0.343307
20
1.43465
11
0.343307
21
1.45531
0
LINE
8
BLACK
6
CONTINUOUS
10
0.343307
20
1.45531
11
0.344056
21
1.45908
0
LINE
8
BLACK
6
CONTINUOUS
10
0.344056
20
1.45908
11
0.34619
21
1.46227
0
LINE
8
BLACK
6
CONTINUOUS
10
0.34619
20
1.46227
11
0.349383
21
1.46441
0
LINE
8
BLACK
6
CONTINUOUS
10
0.349383
20
1.46441
11
0.35315
21
1.46516
0
LINE
8
BLACK
6
CONTINUOUS
10
0.35315
20
1.46516
11
0.388583
21
1.46516
0
LINE
8
BLACK
6
CONTINUOUS
10
0.388583
20
1.46516
11
0.392349
21
1.46441
0
LINE
8
BLACK
6
CONTINUOUS
10
0.473058
20
1.4649
11
0.476251
21
1.46277
0
LINE
8
BLACK
6
CONTINUOUS
10
0.476251
20
1.46277
11
0.478385
21
1.45957
0
LINE
8
BLACK
6
CONTINUOUS
10
0.478385
20
1.45957
11
0.479134
21
1.45581
0
LINE
8
BLACK
6
CONTINUOUS
10
0.479134
20
1.45581
11
0.479134
21
1.43514
0
LINE
8
BLACK
6
CONTINUOUS
10
0.479134
20
1.43514
11
0.478385
21
1.43137
0
LINE
8
BLACK
6
CONTINUOUS
10
0.478385
20
1.43137
11
0.476251
21
1.42818
0
LINE
8
BLACK
6
CONTINUOUS
10
0.476251
20
1.42818
11
0.473058
21
1.42604
0
LINE
8
BLACK
6
CONTINUOUS
10
0.473058
20
1.42604
11
0.469291
21
1.4253
0
LINE
8
BLACK
6
CONTINUOUS
10
0.469291
20
1.4253
11
0.433858
21
1.4253
0
LINE
8
BLACK
6
CONTINUOUS
10
0.433858
20
1.4253
11
0.430092
21
1.42604
0
LINE
8
BLACK
6
CONTINUOUS
10
0.430092
20
1.42604
11
0.426899
21
1.42818
0
LINE
8
BLACK
6
CONTINUOUS
10
0.426899
20
1.42818
11
0.424765
21
1.43137
0
LINE
8
BLACK
6
CONTINUOUS
10
0.424765
20
1.43137
11
0.424016
21
1.43514
0
LINE
8
BLACK
6
CONTINUOUS
10
0.424016
20
1.43514
11
0.424016
21
1.45581
0
LINE
8
BLACK
6
CONTINUOUS
10
0.424016
20
1.45581
11
0.424765
21
1.45957
0
LINE
8
BLACK
6
CONTINUOUS
10
0.424765
20
1.45957
11
0.426899
21
1.46277
0
LINE
8
BLACK
6
CONTINUOUS
10
0.426899
20
1.46277
11
0.430092
21
1.4649
0
LINE
8
BLACK
6
CONTINUOUS
10
0.430092
20
1.4649
11
0.433858
21
1.46565
0
LINE
8
BLACK
6
CONTINUOUS
10
0.433858
20
1.46565
11
0.469291
21
1.46565
0
LINE
8
BLACK
6
CONTINUOUS
10
0.469291
20
1.46565
11
0.473058
21
1.4649
0
LINE
8
BLACK
6
CONTINUOUS
10
0.666365
20
1.47504
11
0.669558
21
1.4729
0
LINE
8
BLACK
6
CONTINUOUS
10
0.669558
20
1.4729
11
0.671692
21
1.46971
0
LINE
8
BLACK
6
CONTINUOUS
10
0.671692
20
1.46971
11
0.672441
21
1.46594
0
LINE
8
BLACK
6
CONTINUOUS
10
0.672441
20
1.46594
11
0.672441
21
1.44528
0
LINE
8
BLACK
6
CONTINUOUS
10
0.672441
20
1.44528
11
0.671692
21
1.44151
0
LINE
8
BLACK
6
CONTINUOUS
10
0.671692
20
1.44151
11
0.669558
21
1.43832
0
LINE
8
BLACK
6
CONTINUOUS
10
0.669558
20
1.43832
11
0.666365
21
1.43618
0
LINE
8
BLACK
6
CONTINUOUS
10
0.666365
20
1.43618
11
0.662598
21
1.43543
0
LINE
8
BLACK
6
CONTINUOUS
10
0.662598
20
1.43543
11
0.627165
21
1.43543
0
LINE
8
BLACK
6
CONTINUOUS
10
0.627165
20
1.43543
11
0.623399
21
1.43618
0
LINE
8
BLACK
6
CONTINUOUS
10
0.623399
20
1.43618
11
0.620206
21
1.43832
0
LINE
8
BLACK
6
CONTINUOUS
10
0.620206
20
1.43832
11
0.618072
21
1.44151
0
LINE
8
BLACK
6
CONTINUOUS
10
0.618072
20
1.44151
11
0.617323
21
1.44528
0
LINE
8
BLACK
6
CONTINUOUS
10
0.617323
20
1.44528
11
0.617323
21
1.46594
0
LINE
8
BLACK
6
CONTINUOUS
10
0.617323
20
1.46594
11
0.618072
21
1.46971
0
LINE
8
BLACK
6
CONTINUOUS
10
0.618072
20
1.46971
11
0.620206
21
1.4729
0
LINE
8
BLACK
6
CONTINUOUS
10
0.620206
20
1.4729
11
0.623399
21
1.47504
0
LINE
8
BLACK
6
CONTINUOUS
10
0.623399
20
1.47504
11
0.627165
21
1.47579
0
LINE
8
BLACK
6
CONTINUOUS
10
0.627165
20
1.47579
11
0.662598
21
1.47579
0
LINE
8
BLACK
6
CONTINUOUS
10
0.662598
20
1.47579
11
0.666365
21
1.47504
0
LINE
8
BLACK
6
CONTINUOUS
10
0.580145
20
1.47514
11
0.583338
21
1.473
0
LINE
8
BLACK
6
CONTINUOUS
10
0.583338
20
1.473
11
0.585471
21
1.46981
0
LINE
8
BLACK
6
CONTINUOUS
10
0.585471
20
1.46981
11
0.58622
21
1.46604
0
LINE
8
BLACK
6
CONTINUOUS
10
0.58622
20
1.46604
11
0.58622
21
1.44537
0
LINE
8
BLACK
6
CONTINUOUS
10
0.58622
20
1.44537
11
0.585471
21
1.44161
0
LINE
8
BLACK
6
CONTINUOUS
10
0.585471
20
1.44161
11
0.583338
21
1.43841
0
LINE
8
BLACK
6
CONTINUOUS
10
0.583338
20
1.43841
11
0.580145
21
1.43628
0
LINE
8
BLACK
6
CONTINUOUS
10
0.580145
20
1.43628
11
0.576378
21
1.43553
0
LINE
8
BLACK
6
CONTINUOUS
10
0.576378
20
1.43553
11
0.540945
21
1.43553
0
LINE
8
BLACK
6
CONTINUOUS
10
0.540945
20
1.43553
11
0.537178
21
1.43628
0
LINE
8
BLACK
6
CONTINUOUS
10
0.537178
20
1.43628
11
0.533985
21
1.43841
0
LINE
8
BLACK
6
CONTINUOUS
10
0.533985
20
1.43841
11
0.531852
21
1.44161
0
LINE
8
BLACK
6
CONTINUOUS
10
0.531852
20
1.44161
11
0.531102
21
1.44537
0
LINE
8
BLACK
6
CONTINUOUS
10
0.531102
20
1.44537
11
0.531102
21
1.46604
0
LINE
8
BLACK
6
CONTINUOUS
10
0.531102
20
1.46604
11
0.531852
21
1.46981
0
LINE
8
BLACK
6
CONTINUOUS
10
0.531852
20
1.46981
11
0.533985
21
1.473
0
LINE
8
BLACK
6
CONTINUOUS
10
0.533985
20
1.473
11
0.537178
21
1.47514
0
LINE
8
BLACK
6
CONTINUOUS
10
0.537178
20
1.47514
11
0.540945
21
1.47589
0
LINE
8
BLACK
6
CONTINUOUS
10
0.540945
20
1.47589
11
0.576378
21
1.47589
0
LINE
8
BLACK
6
CONTINUOUS
10
0.576378
20
1.47589
11
0.580145
21
1.47514
0
LINE
8
BLACK
6
CONTINUOUS
10
0.942349
20
1.53468
11
0.945542
21
1.53255
0
LINE
8
BLACK
6
CONTINUOUS
10
0.945542
20
1.53255
11
0.947676
21
1.52936
0
LINE
8
BLACK
6
CONTINUOUS
10
0.947676
20
1.52936
11
0.948425
21
1.52559
0
LINE
8
BLACK
6
CONTINUOUS
10
0.948425
20
1.52559
11
0.948425
21
1.49016
0
LINE
8
BLACK
6
CONTINUOUS
10
0.948425
20
1.49016
11
0.947676
21
1.48639
0
LINE
8
BLACK
6
CONTINUOUS
10
0.947676
20
1.48639
11
0.945542
21
1.4832
0
LINE
8
BLACK
6
CONTINUOUS
10
0.945542
20
1.4832
11
0.942349
21
1.48106
0
LINE
8
BLACK
6
CONTINUOUS
10
0.942349
20
1.48106
11
0.938583
21
1.48031
0
LINE
8
BLACK
6
CONTINUOUS
10
0.938583
20
1.48031
11
0.917913
21
1.48031
0
LINE
8
BLACK
6
CONTINUOUS
10
0.917913
20
1.48031
11
0.914147
21
1.48106
0
LINE
8
BLACK
6
CONTINUOUS
10
0.914147
20
1.48106
11
0.910954
21
1.4832
0
LINE
8
BLACK
6
CONTINUOUS
10
0.910954
20
1.4832
11
0.90882
21
1.48639
0
LINE
8
BLACK
6
CONTINUOUS
10
0.90882
20
1.48639
11
0.908071
21
1.49016
0
LINE
8
BLACK
6
CONTINUOUS
10
0.908071
20
1.49016
11
0.908071
21
1.52559
0
LINE
8
BLACK
6
CONTINUOUS
10
0.908071
20
1.52559
11
0.90882
21
1.52936
0
LINE
8
BLACK
6
CONTINUOUS
10
0.90882
20
1.52936
11
0.910954
21
1.53255
0
LINE
8
BLACK
6
CONTINUOUS
10
0.910954
20
1.53255
11
0.914147
21
1.53468
0
LINE
8
BLACK
6
CONTINUOUS
10
0.914147
20
1.53468
11
0.917913
21
1.53543
0
LINE
8
BLACK
6
CONTINUOUS
10
0.917913
20
1.53543
11
0.938583
21
1.53543
0
LINE
8
BLACK
6
CONTINUOUS
10
0.938583
20
1.53543
11
0.942349
21
1.53468
0
LINE
8
BLACK
6
CONTINUOUS
10
1.0142
20
1.53468
11
1.01739
21
1.53255
0
LINE
8
BLACK
6
CONTINUOUS
10
1.01739
20
1.53255
11
1.01953
21
1.52936
0
LINE
8
BLACK
6
CONTINUOUS
10
1.01953
20
1.52936
11
1.02028
21
1.52559
0
LINE
8
BLACK
6
CONTINUOUS
10
1.02028
20
1.52559
11
1.02028
21
1.49016
0
LINE
8
BLACK
6
CONTINUOUS
10
1.02028
20
1.49016
11
1.01953
21
1.48639
0
LINE
8
BLACK
6
CONTINUOUS
10
1.01953
20
1.48639
11
1.01739
21
1.4832
0
LINE
8
BLACK
6
CONTINUOUS
10
1.01739
20
1.4832
11
1.0142
21
1.48106
0
LINE
8
BLACK
6
CONTINUOUS
10
1.0142
20
1.48106
11
1.01043
21
1.48031
0
LINE
8
BLACK
6
CONTINUOUS
10
1.01043
20
1.48031
11
0.989764
21
1.48031
0
LINE
8
BLACK
6
CONTINUOUS
10
0.989764
20
1.48031
11
0.985997
21
1.48106
0
LINE
8
BLACK
6
CONTINUOUS
10
0.985997
20
1.48106
11
0.982804
21
1.4832
0
LINE
8
BLACK
6
CONTINUOUS
10
0.982804
20
1.4832
11
0.98067
21
1.48639
0
LINE
8
BLACK
6
CONTINUOUS
10
0.98067
20
1.48639
11
0.979921
21
1.49016
0
LINE
8
BLACK
6
CONTINUOUS
10
0.979921
20
1.49016
11
0.979921
21
1.52559
0
LINE
8
BLACK
6
CONTINUOUS
10
0.979921
20
1.52559
11
0.98067
21
1.52936
0
LINE
8
BLACK
6
CONTINUOUS
10
0.98067
20
1.52936
11
0.982804
21
1.53255
0
LINE
8
BLACK
6
CONTINUOUS
10
0.982804
20
1.53255
11
0.985997
21
1.53468
0
LINE
8
BLACK
6
CONTINUOUS
10
0.985997
20
1.53468
11
0.989764
21
1.53543
0
LINE
8
BLACK
6
CONTINUOUS
10
0.989764
20
1.53543
11
1.01043
21
1.53543
0
LINE
8
BLACK
6
CONTINUOUS
10
1.01043
20
1.53543
11
1.0142
21
1.53468
0
LINE
8
BLACK
6
CONTINUOUS
10
1.55495
20
1.54157
11
1.55814
21
1.53944
0
LINE
8
BLACK
6
CONTINUOUS
10
1.55814
20
1.53944
11
1.56027
21
1.53625
0
LINE
8
BLACK
6
CONTINUOUS
10
1.56027
20
1.53625
11
1.56102
21
1.53248
0
LINE
8
BLACK
6
CONTINUOUS
10
1.56102
20
1.53248
11
1.56102
21
1.49508
0
LINE
8
BLACK
6
CONTINUOUS
10
1.56102
20
1.49508
11
1.56027
21
1.49131
0
LINE
8
BLACK
6
CONTINUOUS
10
1.56027
20
1.49131
11
1.55814
21
1.48812
0
LINE
8
BLACK
6
CONTINUOUS
10
1.55814
20
1.48812
11
1.55495
21
1.48599
0
LINE
8
BLACK
6
CONTINUOUS
10
1.55495
20
1.48599
11
1.55118
21
1.48524
0
LINE
8
BLACK
6
CONTINUOUS
10
1.55118
20
1.48524
11
1.5315
21
1.48524
0
LINE
8
BLACK
6
CONTINUOUS
10
1.5315
20
1.48524
11
1.52773
21
1.48599
0
LINE
8
BLACK
6
CONTINUOUS
10
1.52773
20
1.48599
11
1.52454
21
1.48812
0
LINE
8
BLACK
6
CONTINUOUS
10
1.52454
20
1.48812
11
1.5224
21
1.49131
0
LINE
8
BLACK
6
CONTINUOUS
10
1.5224
20
1.49131
11
1.52165
21
1.49508
0
LINE
8
BLACK
6
CONTINUOUS
10
1.52165
20
1.49508
11
1.52165
21
1.53248
0
LINE
8
BLACK
6
CONTINUOUS
10
1.52165
20
1.53248
11
1.5224
21
1.53625
0
LINE
8
BLACK
6
CONTINUOUS
10
1.5224
20
1.53625
11
1.52454
21
1.53944
0
LINE
8
BLACK
6
CONTINUOUS
10
1.52454
20
1.53944
11
1.52773
21
1.54157
0
LINE
8
BLACK
6
CONTINUOUS
10
1.52773
20
1.54157
11
1.5315
21
1.54232
0
LINE
8
BLACK
6
CONTINUOUS
10
1.5315
20
1.54232
11
1.55118
21
1.54232
0
LINE
8
BLACK
6
CONTINUOUS
10
1.55118
20
1.54232
11
1.55495
21
1.54157
0
LINE
8
BLACK
6
CONTINUOUS
10
1.62975
20
1.54157
11
1.63294
21
1.53944
0
LINE
8
BLACK
6
CONTINUOUS
10
1.63294
20
1.53944
11
1.63508
21
1.53625
0
LINE
8
BLACK
6
CONTINUOUS
10
1.63508
20
1.53625
11
1.63583
21
1.53248
0
LINE
8
BLACK
6
CONTINUOUS
10
1.63583
20
1.53248
11
1.63583
21
1.49508
0
LINE
8
BLACK
6
CONTINUOUS
10
1.63583
20
1.49508
11
1.63508
21
1.49131
0
LINE
8
BLACK
6
CONTINUOUS
10
1.63508
20
1.49131
11
1.63294
21
1.48812
0
LINE
8
BLACK
6
CONTINUOUS
10
1.63294
20
1.48812
11
1.62975
21
1.48599
0
LINE
8
BLACK
6
CONTINUOUS
10
1.62975
20
1.48599
11
1.62598
21
1.48524
0
LINE
8
BLACK
6
CONTINUOUS
10
1.62598
20
1.48524
11
1.6063
21
1.48524
0
LINE
8
BLACK
6
CONTINUOUS
10
1.6063
20
1.48524
11
1.60253
21
1.48599
0
LINE
8
BLACK
6
CONTINUOUS
10
1.60253
20
1.48599
11
1.59934
21
1.48812
0
LINE
8
BLACK
6
CONTINUOUS
10
1.59934
20
1.48812
11
1.59721
21
1.49131
0
LINE
8
BLACK
6
CONTINUOUS
10
1.59721
20
1.49131
11
1.59646
21
1.49508
0
LINE
8
BLACK
6
CONTINUOUS
10
1.59646
20
1.49508
11
1.59646
21
1.53248
0
LINE
8
BLACK
6
CONTINUOUS
10
1.59646
20
1.53248
11
1.59721
21
1.53625
0
LINE
8
BLACK
6
CONTINUOUS
10
1.59721
20
1.53625
11
1.59934
21
1.53944
0
LINE
8
BLACK
6
CONTINUOUS
10
1.59934
20
1.53944
11
1.60253
21
1.54157
0
LINE
8
BLACK
6
CONTINUOUS
10
1.60253
20
1.54157
11
1.6063
21
1.54232
0
LINE
8
BLACK
6
CONTINUOUS
10
1.6063
20
1.54232
11
1.62598
21
1.54232
0
LINE
8
BLACK
6
CONTINUOUS
10
1.62598
20
1.54232
11
1.62975
21
1.54157
0
LINE
8
BLACK
6
CONTINUOUS
10
1.22818
20
1.53419
11
1.23137
21
1.53206
0
LINE
8
BLACK
6
CONTINUOUS
10
1.23137
20
1.53206
11
1.2335
21
1.52886
0
LINE
8
BLACK
6
CONTINUOUS
10
1.2335
20
1.52886
11
1.23425
21
1.5251
0
LINE
8
BLACK
6
CONTINUOUS
10
1.23425
20
1.5251
11
1.23425
21
1.50443
0
LINE
8
BLACK
6
CONTINUOUS
10
1.23425
20
1.50443
11
1.2335
21
1.50066
0
LINE
8
BLACK
6
CONTINUOUS
10
1.2335
20
1.50066
11
1.23137
21
1.49747
0
LINE
8
BLACK
6
CONTINUOUS
10
1.23137
20
1.49747
11
1.22818
21
1.49534
0
LINE
8
BLACK
6
CONTINUOUS
10
1.22818
20
1.49534
11
1.22441
21
1.49459
0
LINE
8
BLACK
6
CONTINUOUS
10
1.22441
20
1.49459
11
1.18898
21
1.49459
0
LINE
8
BLACK
6
CONTINUOUS
10
1.18898
20
1.49459
11
1.18521
21
1.49534
0
LINE
8
BLACK
6
CONTINUOUS
10
1.18521
20
1.49534
11
1.18202
21
1.49747
0
LINE
8
BLACK
6
CONTINUOUS
10
1.18202
20
1.49747
11
1.17988
21
1.50066
0
LINE
8
BLACK
6
CONTINUOUS
10
1.17988
20
1.50066
11
1.17913
21
1.50443
0
LINE
8
BLACK
6
CONTINUOUS
10
1.17913
20
1.50443
11
1.17913
21
1.5251
0
LINE
8
BLACK
6
CONTINUOUS
10
1.17913
20
1.5251
11
1.17988
21
1.52886
0
LINE
8
BLACK
6
CONTINUOUS
10
1.17988
20
1.52886
11
1.18202
21
1.53206
0
LINE
8
BLACK
6
CONTINUOUS
10
1.18202
20
1.53206
11
1.18521
21
1.53419
0
LINE
8
BLACK
6
CONTINUOUS
10
1.18521
20
1.53419
11
1.18898
21
1.53494
0
LINE
8
BLACK
6
CONTINUOUS
10
1.18898
20
1.53494
11
1.22441
21
1.53494
0
LINE
8
BLACK
6
CONTINUOUS
10
1.22441
20
1.53494
11
1.22818
21
1.53419
0
LINE
8
BLACK
6
CONTINUOUS
10
0.941267
20
1.77878
11
0.94446
21
1.77664
0
LINE
8
BLACK
6
CONTINUOUS
10
0.94446
20
1.77664
11
0.946593
21
1.77345
0
LINE
8
BLACK
6
CONTINUOUS
10
0.946593
20
1.77345
11
0.947343
21
1.76969
0
LINE
8
BLACK
6
CONTINUOUS
10
0.947343
20
1.76969
11
0.947343
21
1.73425
0
LINE
8
BLACK
6
CONTINUOUS
10
0.947343
20
1.73425
11
0.946593
21
1.73049
0
LINE
8
BLACK
6
CONTINUOUS
10
0.946593
20
1.73049
11
0.94446
21
1.72729
0
LINE
8
BLACK
6
CONTINUOUS
10
0.94446
20
1.72729
11
0.941267
21
1.72516
0
LINE
8
BLACK
6
CONTINUOUS
10
0.941267
20
1.72516
11
0.9375
21
1.72441
0
LINE
8
BLACK
6
CONTINUOUS
10
0.9375
20
1.72441
11
0.916831
21
1.72441
0
LINE
8
BLACK
6
CONTINUOUS
10
0.916831
20
1.72441
11
0.913064
21
1.72516
0
LINE
8
BLACK
6
CONTINUOUS
10
0.913064
20
1.72516
11
0.909871
21
1.72729
0
LINE
8
BLACK
6
CONTINUOUS
10
0.909871
20
1.72729
11
0.907737
21
1.73049
0
LINE
8
BLACK
6
CONTINUOUS
10
0.907737
20
1.73049
11
0.906988
21
1.73425
0
LINE
8
BLACK
6
CONTINUOUS
10
0.906988
20
1.73425
11
0.906988
21
1.76969
0
LINE
8
BLACK
6
CONTINUOUS
10
0.906988
20
1.76969
11
0.907737
21
1.77345
0
LINE
8
BLACK
6
CONTINUOUS
10
0.907737
20
1.77345
11
0.909871
21
1.77664
0
LINE
8
BLACK
6
CONTINUOUS
10
0.909871
20
1.77664
11
0.913064
21
1.77878
0
LINE
8
BLACK
6
CONTINUOUS
10
0.913064
20
1.77878
11
0.916831
21
1.77953
0
LINE
8
BLACK
6
CONTINUOUS
10
0.916831
20
1.77953
11
0.9375
21
1.77953
0
LINE
8
BLACK
6
CONTINUOUS
10
0.9375
20
1.77953
11
0.941267
21
1.77878
0
LINE
8
BLACK
6
CONTINUOUS
10
1.01312
20
1.77878
11
1.01631
21
1.77664
0
LINE
8
BLACK
6
CONTINUOUS
10
1.01631
20
1.77664
11
1.01844
21
1.77345
0
LINE
8
BLACK
6
CONTINUOUS
10
1.01844
20
1.77345
11
1.01919
21
1.76969
0
LINE
8
BLACK
6
CONTINUOUS
10
1.01919
20
1.76969
11
1.01919
21
1.73425
0
LINE
8
BLACK
6
CONTINUOUS
10
1.01919
20
1.73425
11
1.01844
21
1.73049
0
LINE
8
BLACK
6
CONTINUOUS
10
1.01844
20
1.73049
11
1.01631
21
1.72729
0
LINE
8
BLACK
6
CONTINUOUS
10
1.01631
20
1.72729
11
1.01312
21
1.72516
0
LINE
8
BLACK
6
CONTINUOUS
10
1.01312
20
1.72516
11
1.00935
21
1.72441
0
LINE
8
BLACK
6
CONTINUOUS
10
1.00935
20
1.72441
11
0.988681
21
1.72441
0
LINE
8
BLACK
6
CONTINUOUS
10
0.988681
20
1.72441
11
0.984915
21
1.72516
0
LINE
8
BLACK
6
CONTINUOUS
10
0.984915
20
1.72516
11
0.981721
21
1.72729
0
LINE
8
BLACK
6
CONTINUOUS
10
0.981721
20
1.72729
11
0.979588
21
1.73049
0
LINE
8
BLACK
6
CONTINUOUS
10
0.979588
20
1.73049
11
0.978839
21
1.73425
0
LINE
8
BLACK
6
CONTINUOUS
10
0.978839
20
1.73425
11
0.978839
21
1.76969
0
LINE
8
BLACK
6
CONTINUOUS
10
0.978839
20
1.76969
11
0.979588
21
1.77345
0
LINE
8
BLACK
6
CONTINUOUS
10
0.979588
20
1.77345
11
0.981721
21
1.77664
0
LINE
8
BLACK
6
CONTINUOUS
10
0.981721
20
1.77664
11
0.984915
21
1.77878
0
LINE
8
BLACK
6
CONTINUOUS
10
0.984915
20
1.77878
11
0.988681
21
1.77953
0
LINE
8
BLACK
6
CONTINUOUS
10
0.988681
20
1.77953
11
1.00935
21
1.77953
0
LINE
8
BLACK
6
CONTINUOUS
10
1.00935
20
1.77953
11
1.01312
21
1.77878
0
LINE
8
BLACK
6
CONTINUOUS
10
0.903373
20
1.88114
11
0.906566
21
1.87901
0
LINE
8
BLACK
6
CONTINUOUS
10
0.906566
20
1.87901
11
0.9087
21
1.87581
0
LINE
8
BLACK
6
CONTINUOUS
10
0.9087
20
1.87581
11
0.909449
21
1.87205
0
LINE
8
BLACK
6
CONTINUOUS
10
0.909449
20
1.87205
11
0.909449
21
1.83661
0
LINE
8
BLACK
6
CONTINUOUS
10
0.909449
20
1.83661
11
0.9087
21
1.83285
0
LINE
8
BLACK
6
CONTINUOUS
10
0.9087
20
1.83285
11
0.906566
21
1.82965
0
LINE
8
BLACK
6
CONTINUOUS
10
0.906566
20
1.82965
11
0.903373
21
1.82752
0
LINE
8
BLACK
6
CONTINUOUS
10
0.903373
20
1.82752
11
0.899606
21
1.82677
0
LINE
8
BLACK
6
CONTINUOUS
10
0.899606
20
1.82677
11
0.878937
21
1.82677
0
LINE
8
BLACK
6
CONTINUOUS
10
0.878937
20
1.82677
11
0.87517
21
1.82752
0
LINE
8
BLACK
6
CONTINUOUS
10
0.87517
20
1.82752
11
0.871977
21
1.82965
0
LINE
8
BLACK
6
CONTINUOUS
10
0.871977
20
1.82965
11
0.869844
21
1.83285
0
LINE
8
BLACK
6
CONTINUOUS
10
0.869844
20
1.83285
11
0.869094
21
1.83661
0
LINE
8
BLACK
6
CONTINUOUS
10
0.869094
20
1.83661
11
0.869094
21
1.87205
0
LINE
8
BLACK
6
CONTINUOUS
10
0.869094
20
1.87205
11
0.869844
21
1.87581
0
LINE
8
BLACK
6
CONTINUOUS
10
0.869844
20
1.87581
11
0.871977
21
1.87901
0
LINE
8
BLACK
6
CONTINUOUS
10
0.871977
20
1.87901
11
0.87517
21
1.88114
0
LINE
8
BLACK
6
CONTINUOUS
10
0.87517
20
1.88114
11
0.878937
21
1.88189
0
LINE
8
BLACK
6
CONTINUOUS
10
0.878937
20
1.88189
11
0.899606
21
1.88189
0
LINE
8
BLACK
6
CONTINUOUS
10
0.899606
20
1.88189
11
0.903373
21
1.88114
0
LINE
8
BLACK
6
CONTINUOUS
10
0.975223
20
1.88114
11
0.978416
21
1.87901
0
LINE
8
BLACK
6
CONTINUOUS
10
0.978416
20
1.87901
11
0.98055
21
1.87581
0
LINE
8
BLACK
6
CONTINUOUS
10
0.98055
20
1.87581
11
0.981299
21
1.87205
0
LINE
8
BLACK
6
CONTINUOUS
10
0.981299
20
1.87205
11
0.981299
21
1.83661
0
LINE
8
BLACK
6
CONTINUOUS
10
0.981299
20
1.83661
11
0.98055
21
1.83285
0
LINE
8
BLACK
6
CONTINUOUS
10
0.98055
20
1.83285
11
0.978416
21
1.82965
0
LINE
8
BLACK
6
CONTINUOUS
10
0.978416
20
1.82965
11
0.975223
21
1.82752
0
LINE
8
BLACK
6
CONTINUOUS
10
0.975223
20
1.82752
11
0.971457
21
1.82677
0
LINE
8
BLACK
6
CONTINUOUS
10
0.971457
20
1.82677
11
0.950787
21
1.82677
0
LINE
8
BLACK
6
CONTINUOUS
10
0.950787
20
1.82677
11
0.947021
21
1.82752
0
LINE
8
BLACK
6
CONTINUOUS
10
0.947021
20
1.82752
11
0.943828
21
1.82965
0
LINE
8
BLACK
6
CONTINUOUS
10
0.943828
20
1.82965
11
0.941694
21
1.83285
0
LINE
8
BLACK
6
CONTINUOUS
10
0.941694
20
1.83285
11
0.940945
21
1.83661
0
LINE
8
BLACK
6
CONTINUOUS
10
0.940945
20
1.83661
11
0.940945
21
1.87205
0
LINE
8
BLACK
6
CONTINUOUS
10
0.940945
20
1.87205
11
0.941694
21
1.87581
0
LINE
8
BLACK
6
CONTINUOUS
10
0.941694
20
1.87581
11
0.943828
21
1.87901
0
LINE
8
BLACK
6
CONTINUOUS
10
0.943828
20
1.87901
11
0.947021
21
1.88114
0
LINE
8
BLACK
6
CONTINUOUS
10
0.947021
20
1.88114
11
0.950787
21
1.88189
0
LINE
8
BLACK
6
CONTINUOUS
10
0.950787
20
1.88189
11
0.971457
21
1.88189
0
LINE
8
BLACK
6
CONTINUOUS
10
0.971457
20
1.88189
11
0.975223
21
1.88114
  0
ENDSEC
  0
EOF
