  0
SECTION
  2
HEADER
  9
$ANGBASE
  50
0.0
  9
$ANGDIR
  70
1
  9
$MEASUREMENT
  70
0
  0
ENDSEC
  0
SECTION
  2
TABLES
  0
TABLE
  2
LTYPE
  70
4
  0
LTYPE
  5
40F
  2
CONTINUOUS
  70
0
  3
Solid line
  72
65
  73
0
  40
0.0
  0
LTYPE
  5
410
  2
DASHDOT
 70
0
  3
Dash Dot ____ _ ____ _
 72
65
 73
4
 40
2.0
 49
1.25
 49
-0.25
 49
0.25
 49
-0.25
  0
LTYPE
  5
411
  2
DASHED
 70
0
  3
Dashed __ __ __ __ __
 72
65
 73
2
 40
0.75
 49
0.5
 49
-0.25
  0
LTYPE
  5
43B
  2
DOTTED
 70
0
  3
Dotted .  .  .  .
 72
65
 73
2
 40
0.2
 49
0.0
 49
-0.2
  0
ENDTAB
  0
TABLE
  2
STYLE
  70
4
  0
STYLE
  2
KICAD
  70
0
  40
0
  41
1
  42
1
  50
0
  71
0
  3
isocp.shx
  0
STYLE
  2
KICADB
  70
0
  40
0
  41
1
  42
1
  50
0
  71
0
  3
isocp.shx
  0
STYLE
  2
KICADI
  70
0
  40
0
  41
1
  42
1
  50
15
  71
0
  3
isocp.shx
  0
STYLE
  2
KICADBI
  70
0
  40
0
  41
1
  42
1
  50
15
  71
0
  3
isocp.shx
  0
ENDTAB
  0
TABLE
  2
LAYER
  70
1
  0
LAYER
  2
BLACK
  70
0
  62
7
  6
CONTINUOUS
  0
ENDTAB
  0
ENDSEC
  0
SECTION
  2
ENTITIES
0
LINE
8
BLACK
6
CONTINUOUS
10
1.74606
20
1.02067
11
1.74676
21
1.02038
0
LINE
8
BLACK
6
CONTINUOUS
10
1.74676
20
1.02038
11
1.74705
21
1.01969
0
LINE
8
BLACK
6
CONTINUOUS
10
1.74705
20
1.01969
11
1.74705
21
0.57874
0
LINE
8
BLACK
6
CONTINUOUS
10
1.74705
20
0.57874
11
1.74676
21
0.578044
0
LINE
8
BLACK
6
CONTINUOUS
10
1.74676
20
0.578044
11
1.74606
21
0.577756
0
LINE
8
BLACK
6
CONTINUOUS
10
1.74606
20
0.577756
11
1.50394
21
0.577756
0
LINE
8
BLACK
6
CONTINUOUS
10
1.50394
20
0.577756
11
1.50324
21
0.578044
0
LINE
8
BLACK
6
CONTINUOUS
10
1.50324
20
0.578044
11
1.50295
21
0.57874
0
LINE
8
BLACK
6
CONTINUOUS
10
1.50295
20
0.57874
11
1.50295
21
1.01969
0
LINE
8
BLACK
6
CONTINUOUS
10
1.50295
20
1.01969
11
1.50324
21
1.02038
0
LINE
8
BLACK
6
CONTINUOUS
10
1.50324
20
1.02038
11
1.50394
21
1.02067
0
LINE
8
BLACK
6
CONTINUOUS
10
1.50394
20
1.02067
11
1.74606
21
1.02067
0
LINE
8
BLACK
6
CONTINUOUS
10
1.50492
20
1.0187
11
1.50492
21
0.579724
0
LINE
8
BLACK
6
CONTINUOUS
10
1.50492
20
0.579724
11
1.74508
21
0.579724
0
LINE
8
BLACK
6
CONTINUOUS
10
1.74508
20
0.579724
11
1.74508
21
1.0187
0
LINE
8
BLACK
6
CONTINUOUS
10
1.74508
20
1.0187
11
1.50492
21
1.0187
0
LINE
8
BLACK
6
CONTINUOUS
10
1.18642
20
0.724213
11
1.18711
21
0.723924
0
LINE
8
BLACK
6
CONTINUOUS
10
1.18711
20
0.723924
11
1.1874
21
0.723228
0
LINE
8
BLACK
6
CONTINUOUS
10
1.1874
20
0.723228
11
1.1874
21
0.581496
0
LINE
8
BLACK
6
CONTINUOUS
10
1.1874
20
0.581496
11
1.18711
21
0.5808
0
LINE
8
BLACK
6
CONTINUOUS
10
1.18711
20
0.5808
11
1.18642
21
0.580512
0
LINE
8
BLACK
6
CONTINUOUS
10
1.18642
20
0.580512
11
0.944291
21
0.580512
0
LINE
8
BLACK
6
CONTINUOUS
10
0.944291
20
0.580512
11
0.943595
21
0.5808
0
LINE
8
BLACK
6
CONTINUOUS
10
0.943595
20
0.5808
11
0.943307
21
0.581496
0
LINE
8
BLACK
6
CONTINUOUS
10
0.943307
20
0.581496
11
0.943307
21
0.723228
0
LINE
8
BLACK
6
CONTINUOUS
10
0.943307
20
0.723228
11
0.943595
21
0.723924
0
LINE
8
BLACK
6
CONTINUOUS
10
0.943595
20
0.723924
11
0.944291
21
0.724213
0
LINE
8
BLACK
6
CONTINUOUS
10
0.944291
20
0.724213
11
1.18642
21
0.724213
0
LINE
8
BLACK
6
CONTINUOUS
10
0.945276
20
0.722244
11
0.945276
21
0.58248
0
LINE
8
BLACK
6
CONTINUOUS
10
0.945276
20
0.58248
11
1.18543
21
0.58248
0
LINE
8
BLACK
6
CONTINUOUS
10
1.18543
20
0.58248
11
1.18543
21
0.722244
0
LINE
8
BLACK
6
CONTINUOUS
10
1.18543
20
0.722244
11
0.945276
21
0.722244
0
LINE
8
BLACK
6
CONTINUOUS
10
0.73248
20
1.35236
11
0.733176
21
1.35207
0
LINE
8
BLACK
6
CONTINUOUS
10
0.733176
20
1.35207
11
0.733465
21
1.35138
0
LINE
8
BLACK
6
CONTINUOUS
10
0.733465
20
1.35138
11
0.733465
21
0.609252
0
LINE
8
BLACK
6
CONTINUOUS
10
0.733465
20
0.609252
11
0.733176
21
0.608556
0
LINE
8
BLACK
6
CONTINUOUS
10
0.733176
20
0.608556
11
0.73248
21
0.608268
0
LINE
8
BLACK
6
CONTINUOUS
10
0.73248
20
0.608268
11
0.490354
21
0.608268
0
LINE
8
BLACK
6
CONTINUOUS
10
0.490354
20
0.608268
11
0.489658
21
0.608556
0
LINE
8
BLACK
6
CONTINUOUS
10
0.489658
20
0.608556
11
0.48937
21
0.609252
0
LINE
8
BLACK
6
CONTINUOUS
10
0.48937
20
0.609252
11
0.48937
21
0.609252
0
LINE
8
BLACK
6
CONTINUOUS
10
0.48937
20
0.609252
11
0.48937
21
1.35138
0
LINE
8
BLACK
6
CONTINUOUS
10
0.48937
20
1.35138
11
0.489658
21
1.35207
0
LINE
8
BLACK
6
CONTINUOUS
10
0.489658
20
1.35207
11
0.490354
21
1.35236
0
LINE
8
BLACK
6
CONTINUOUS
10
0.490354
20
1.35236
11
0.73248
21
1.35236
0
LINE
8
BLACK
6
CONTINUOUS
10
0.491339
20
1.35039
11
0.491339
21
0.610236
0
LINE
8
BLACK
6
CONTINUOUS
10
0.491339
20
0.610236
11
0.731496
21
0.610236
0
LINE
8
BLACK
6
CONTINUOUS
10
0.731496
20
0.610236
11
0.731496
21
1.35039
0
LINE
8
BLACK
6
CONTINUOUS
10
0.731496
20
1.35039
11
0.491339
21
1.35039
0
LINE
8
BLACK
6
CONTINUOUS
10
1.66575
20
1.24508
11
1.66644
21
1.24479
0
LINE
8
BLACK
6
CONTINUOUS
10
1.66644
20
1.24479
11
1.66673
21
1.24409
0
LINE
8
BLACK
6
CONTINUOUS
10
1.66673
20
1.24409
11
1.66673
21
1.10236
0
LINE
8
BLACK
6
CONTINUOUS
10
1.66673
20
1.10236
11
1.66644
21
1.10167
0
LINE
8
BLACK
6
CONTINUOUS
10
1.66644
20
1.10167
11
1.66575
21
1.10138
0
LINE
8
BLACK
6
CONTINUOUS
10
1.66575
20
1.10138
11
1.42362
21
1.10138
0
LINE
8
BLACK
6
CONTINUOUS
10
1.42362
20
1.10138
11
1.42293
21
1.10167
0
LINE
8
BLACK
6
CONTINUOUS
10
1.42293
20
1.10167
11
1.42264
21
1.10236
0
LINE
8
BLACK
6
CONTINUOUS
10
1.42264
20
1.10236
11
1.42264
21
1.24409
0
LINE
8
BLACK
6
CONTINUOUS
10
1.42264
20
1.24409
11
1.42293
21
1.24479
0
LINE
8
BLACK
6
CONTINUOUS
10
1.42293
20
1.24479
11
1.42362
21
1.24508
0
LINE
8
BLACK
6
CONTINUOUS
10
1.42362
20
1.24508
11
1.66575
21
1.24508
0
LINE
8
BLACK
6
CONTINUOUS
10
1.42461
20
1.24311
11
1.42461
21
1.10335
0
LINE
8
BLACK
6
CONTINUOUS
10
1.42461
20
1.10335
11
1.66476
21
1.10335
0
LINE
8
BLACK
6
CONTINUOUS
10
1.66476
20
1.10335
11
1.66476
21
1.24311
0
LINE
8
BLACK
6
CONTINUOUS
10
1.66476
20
1.24311
11
1.42461
21
1.24311
0
LINE
8
BLACK
6
CONTINUOUS
10
1.13976
20
1.4688
11
1.14046
21
1.46851
0
LINE
8
BLACK
6
CONTINUOUS
10
1.14046
20
1.46851
11
1.14075
21
1.46781
0
LINE
8
BLACK
6
CONTINUOUS
10
1.14075
20
1.46781
11
1.14075
21
1.32608
0
LINE
8
BLACK
6
CONTINUOUS
10
1.14075
20
1.32608
11
1.14046
21
1.32539
0
LINE
8
BLACK
6
CONTINUOUS
10
1.14046
20
1.32539
11
1.13976
21
1.3251
0
LINE
8
BLACK
6
CONTINUOUS
10
1.13976
20
1.3251
11
0.897638
21
1.3251
0
LINE
8
BLACK
6
CONTINUOUS
10
0.897638
20
1.3251
11
0.896942
21
1.32539
0
LINE
8
BLACK
6
CONTINUOUS
10
0.896942
20
1.32539
11
0.896654
21
1.32608
0
LINE
8
BLACK
6
CONTINUOUS
10
0.896654
20
1.32608
11
0.896654
21
1.32608
0
LINE
8
BLACK
6
CONTINUOUS
10
0.896654
20
1.32608
11
0.896654
21
1.46781
0
LINE
8
BLACK
6
CONTINUOUS
10
0.896654
20
1.46781
11
0.896942
21
1.46851
0
LINE
8
BLACK
6
CONTINUOUS
10
0.896942
20
1.46851
11
0.897638
21
1.4688
0
LINE
8
BLACK
6
CONTINUOUS
10
0.897638
20
1.4688
11
1.13976
21
1.4688
0
LINE
8
BLACK
6
CONTINUOUS
10
0.898622
20
1.46683
11
0.898622
21
1.32707
0
LINE
8
BLACK
6
CONTINUOUS
10
0.898622
20
1.32707
11
1.13878
21
1.32707
0
LINE
8
BLACK
6
CONTINUOUS
10
1.13878
20
1.32707
11
1.13878
21
1.46683
0
LINE
8
BLACK
6
CONTINUOUS
10
1.13878
20
1.46683
11
0.898622
21
1.46683
0
LINE
8
BLACK
6
CONTINUOUS
10
0.514764
20
1.80512
11
0.51546
21
1.80483
0
LINE
8
BLACK
6
CONTINUOUS
10
0.51546
20
1.80483
11
0.515748
21
1.80413
0
LINE
8
BLACK
6
CONTINUOUS
10
0.515748
20
1.80413
11
0.515748
21
1.46358
0
LINE
8
BLACK
6
CONTINUOUS
10
0.515748
20
1.46358
11
0.51546
21
1.46289
0
LINE
8
BLACK
6
CONTINUOUS
10
0.51546
20
1.46289
11
0.514764
21
1.4626
0
LINE
8
BLACK
6
CONTINUOUS
10
0.514764
20
1.4626
11
0.272638
21
1.4626
0
LINE
8
BLACK
6
CONTINUOUS
10
0.272638
20
1.4626
11
0.271942
21
1.46289
0
LINE
8
BLACK
6
CONTINUOUS
10
0.271942
20
1.46289
11
0.271654
21
1.46358
0
LINE
8
BLACK
6
CONTINUOUS
10
0.271654
20
1.46358
11
0.271654
21
1.80413
0
LINE
8
BLACK
6
CONTINUOUS
10
0.271654
20
1.80413
11
0.271942
21
1.80483
0
LINE
8
BLACK
6
CONTINUOUS
10
0.271942
20
1.80483
11
0.272638
21
1.80512
0
LINE
8
BLACK
6
CONTINUOUS
10
0.272638
20
1.80512
11
0.514764
21
1.80512
0
LINE
8
BLACK
6
CONTINUOUS
10
0.273622
20
1.80315
11
0.273622
21
1.46457
0
LINE
8
BLACK
6
CONTINUOUS
10
0.273622
20
1.46457
11
0.51378
21
1.46457
0
LINE
8
BLACK
6
CONTINUOUS
10
0.51378
20
1.46457
11
0.51378
21
1.80315
0
LINE
8
BLACK
6
CONTINUOUS
10
0.51378
20
1.80315
11
0.273622
21
1.80315
0
LINE
8
BLACK
6
CONTINUOUS
10
0.680709
20
1.84075
11
0.681405
21
1.84046
0
LINE
8
BLACK
6
CONTINUOUS
10
0.681405
20
1.84046
11
0.681693
21
1.83976
0
LINE
8
BLACK
6
CONTINUOUS
10
0.681693
20
1.83976
11
0.681693
21
1.49921
0
LINE
8
BLACK
6
CONTINUOUS
10
0.681693
20
1.49921
11
0.681405
21
1.49852
0
LINE
8
BLACK
6
CONTINUOUS
10
0.681405
20
1.49852
11
0.680709
21
1.49823
0
LINE
8
BLACK
6
CONTINUOUS
10
0.680709
20
1.49823
11
0.538976
21
1.49823
0
LINE
8
BLACK
6
CONTINUOUS
10
0.538976
20
1.49823
11
0.53828
21
1.49852
0
LINE
8
BLACK
6
CONTINUOUS
10
0.53828
20
1.49852
11
0.537992
21
1.49921
0
LINE
8
BLACK
6
CONTINUOUS
10
0.537992
20
1.49921
11
0.537992
21
1.49921
0
LINE
8
BLACK
6
CONTINUOUS
10
0.537992
20
1.49921
11
0.537992
21
1.83976
0
LINE
8
BLACK
6
CONTINUOUS
10
0.537992
20
1.83976
11
0.53828
21
1.84046
0
LINE
8
BLACK
6
CONTINUOUS
10
0.53828
20
1.84046
11
0.538976
21
1.84075
0
LINE
8
BLACK
6
CONTINUOUS
10
0.538976
20
1.84075
11
0.680709
21
1.84075
0
LINE
8
BLACK
6
CONTINUOUS
10
0.539961
20
1.83878
11
0.539961
21
1.5002
0
LINE
8
BLACK
6
CONTINUOUS
10
0.539961
20
1.5002
11
0.679724
21
1.5002
0
LINE
8
BLACK
6
CONTINUOUS
10
0.679724
20
1.5002
11
0.679724
21
1.83878
0
LINE
8
BLACK
6
CONTINUOUS
10
0.679724
20
1.83878
11
0.539961
21
1.83878
0
LINE
8
BLACK
6
CONTINUOUS
10
1.41378
20
2.13287
11
1.41448
21
2.13259
0
LINE
8
BLACK
6
CONTINUOUS
10
1.41448
20
2.13259
11
1.41476
21
2.13189
0
LINE
8
BLACK
6
CONTINUOUS
10
1.41476
20
2.13189
11
1.41476
21
1.88976
0
LINE
8
BLACK
6
CONTINUOUS
10
1.41476
20
1.88976
11
1.41448
21
1.88907
0
LINE
8
BLACK
6
CONTINUOUS
10
1.41448
20
1.88907
11
1.41378
21
1.88878
0
LINE
8
BLACK
6
CONTINUOUS
10
1.41378
20
1.88878
11
0.872441
21
1.88878
0
LINE
8
BLACK
6
CONTINUOUS
10
0.872441
20
1.88878
11
0.871745
21
1.88907
0
LINE
8
BLACK
6
CONTINUOUS
10
0.871745
20
1.88907
11
0.871457
21
1.88976
0
LINE
8
BLACK
6
CONTINUOUS
10
0.871457
20
1.88976
11
0.871457
21
2.13189
0
LINE
8
BLACK
6
CONTINUOUS
10
0.871457
20
2.13189
11
0.871745
21
2.13259
0
LINE
8
BLACK
6
CONTINUOUS
10
0.871745
20
2.13259
11
0.872441
21
2.13287
0
LINE
8
BLACK
6
CONTINUOUS
10
0.872441
20
2.13287
11
1.41378
21
2.13287
0
LINE
8
BLACK
6
CONTINUOUS
10
0.873425
20
2.13091
11
0.873425
21
1.89075
0
LINE
8
BLACK
6
CONTINUOUS
10
0.873425
20
1.89075
11
1.4128
21
1.89075
0
LINE
8
BLACK
6
CONTINUOUS
10
1.4128
20
1.89075
11
1.4128
21
2.13091
0
LINE
8
BLACK
6
CONTINUOUS
10
1.4128
20
2.13091
11
0.873425
21
2.13091
  0
ENDSEC
  0
EOF
