  0
SECTION
  2
HEADER
  9
$ANGBASE
  50
0.0
  9
$ANGDIR
  70
1
  9
$MEASUREMENT
  70
0
  0
ENDSEC
  0
SECTION
  2
TABLES
  0
TABLE
  2
LTYPE
  70
4
  0
LTYPE
  5
40F
  2
CONTINUOUS
  70
0
  3
Solid line
  72
65
  73
0
  40
0.0
  0
LTYPE
  5
410
  2
DASHDOT
 70
0
  3
Dash Dot ____ _ ____ _
 72
65
 73
4
 40
2.0
 49
1.25
 49
-0.25
 49
0.25
 49
-0.25
  0
LTYPE
  5
411
  2
DASHED
 70
0
  3
Dashed __ __ __ __ __
 72
65
 73
2
 40
0.75
 49
0.5
 49
-0.25
  0
LTYPE
  5
43B
  2
DOTTED
 70
0
  3
Dotted .  .  .  .
 72
65
 73
2
 40
0.2
 49
0.0
 49
-0.2
  0
ENDTAB
  0
TABLE
  2
STYLE
  70
4
  0
STYLE
  2
KICAD
  70
0
  40
0
  41
1
  42
1
  50
0
  71
0
  3
isocp.shx
  0
STYLE
  2
KICADB
  70
0
  40
0
  41
1
  42
1
  50
0
  71
0
  3
isocp.shx
  0
STYLE
  2
KICADI
  70
0
  40
0
  41
1
  42
1
  50
15
  71
0
  3
isocp.shx
  0
STYLE
  2
KICADBI
  70
0
  40
0
  41
1
  42
1
  50
15
  71
0
  3
isocp.shx
  0
ENDTAB
  0
TABLE
  2
LAYER
  70
1
  0
LAYER
  2
BLACK
  70
0
  62
7
  6
CONTINUOUS
  0
ENDTAB
  0
ENDSEC
  0
SECTION
  2
ENTITIES
0
LINE
8
BLACK
6
CONTINUOUS
10
0.440945
20
0.819094
11
0.444899
21
0.818468
0
LINE
8
BLACK
6
CONTINUOUS
10
0.444899
20
0.818468
11
0.448466
21
0.816651
0
LINE
8
BLACK
6
CONTINUOUS
10
0.448466
20
0.816651
11
0.451296
21
0.81382
0
LINE
8
BLACK
6
CONTINUOUS
10
0.451296
20
0.81382
11
0.453114
21
0.810253
0
LINE
8
BLACK
6
CONTINUOUS
10
0.453114
20
0.810253
11
0.45374
21
0.806299
0
LINE
8
BLACK
6
CONTINUOUS
10
0.45374
20
0.806299
11
0.45374
21
0.751659
0
LINE
8
BLACK
6
CONTINUOUS
10
0.45374
20
0.751659
11
0.45374
21
0.751658
0
LINE
8
BLACK
6
CONTINUOUS
10
0.45374
20
0.751658
11
0.453114
21
0.747705
0
LINE
8
BLACK
6
CONTINUOUS
10
0.453114
20
0.747705
11
0.451297
21
0.744137
0
LINE
8
BLACK
6
CONTINUOUS
10
0.451297
20
0.744137
11
0.448466
21
0.741306
0
LINE
8
BLACK
6
CONTINUOUS
10
0.448466
20
0.741306
11
0.444899
21
0.739489
0
LINE
8
BLACK
6
CONTINUOUS
10
0.444899
20
0.739489
11
0.440945
21
0.738862
0
LINE
8
BLACK
6
CONTINUOUS
10
0.440945
20
0.738862
11
0.440945
21
0.738863
0
LINE
8
BLACK
6
CONTINUOUS
10
0.440945
20
0.738863
11
0.377953
21
0.738864
0
LINE
8
BLACK
6
CONTINUOUS
10
0.377953
20
0.738864
11
0.373999
21
0.73949
0
LINE
8
BLACK
6
CONTINUOUS
10
0.373999
20
0.73949
11
0.370432
21
0.741307
0
LINE
8
BLACK
6
CONTINUOUS
10
0.370432
20
0.741307
11
0.367602
21
0.744138
0
LINE
8
BLACK
6
CONTINUOUS
10
0.367602
20
0.744138
11
0.365785
21
0.747705
0
LINE
8
BLACK
6
CONTINUOUS
10
0.365785
20
0.747705
11
0.36516
21
0.751654
0
LINE
8
BLACK
6
CONTINUOUS
10
0.36516
20
0.751654
11
0.365157
21
0.751659
0
LINE
8
BLACK
6
CONTINUOUS
10
0.365157
20
0.751659
11
0.365157
21
0.806299
0
LINE
8
BLACK
6
CONTINUOUS
10
0.365157
20
0.806299
11
0.365784
21
0.810253
0
LINE
8
BLACK
6
CONTINUOUS
10
0.365784
20
0.810253
11
0.367601
21
0.81382
0
LINE
8
BLACK
6
CONTINUOUS
10
0.367601
20
0.81382
11
0.370432
21
0.816651
0
LINE
8
BLACK
6
CONTINUOUS
10
0.370432
20
0.816651
11
0.373999
21
0.818468
0
LINE
8
BLACK
6
CONTINUOUS
10
0.373999
20
0.818468
11
0.377953
21
0.819094
0
LINE
8
BLACK
6
CONTINUOUS
10
0.377953
20
0.819094
11
0.440945
21
0.819094
0
LINE
8
BLACK
6
CONTINUOUS
10
0.377953
20
0.817126
11
0.376238
21
0.817126
0
LINE
8
BLACK
6
CONTINUOUS
10
0.376238
20
0.817126
11
0.372976
21
0.816066
0
LINE
8
BLACK
6
CONTINUOUS
10
0.372976
20
0.816066
11
0.370202
21
0.81405
0
LINE
8
BLACK
6
CONTINUOUS
10
0.370202
20
0.81405
11
0.368186
21
0.811276
0
LINE
8
BLACK
6
CONTINUOUS
10
0.368186
20
0.811276
11
0.367126
21
0.808014
0
LINE
8
BLACK
6
CONTINUOUS
10
0.367126
20
0.808014
11
0.367126
21
0.806299
0
LINE
8
BLACK
6
CONTINUOUS
10
0.367126
20
0.806299
11
0.367126
21
0.751659
0
LINE
8
BLACK
6
CONTINUOUS
10
0.367126
20
0.751659
11
0.367126
21
0.751659
0
LINE
8
BLACK
6
CONTINUOUS
10
0.367126
20
0.751659
11
0.367127
21
0.751659
0
LINE
8
BLACK
6
CONTINUOUS
10
0.367127
20
0.751659
11
0.367127
21
0.749944
0
LINE
8
BLACK
6
CONTINUOUS
10
0.367127
20
0.749944
11
0.368187
21
0.746682
0
LINE
8
BLACK
6
CONTINUOUS
10
0.368187
20
0.746682
11
0.370202
21
0.743908
0
LINE
8
BLACK
6
CONTINUOUS
10
0.370202
20
0.743908
11
0.372977
21
0.741892
0
LINE
8
BLACK
6
CONTINUOUS
10
0.372977
20
0.741892
11
0.376238
21
0.740832
0
LINE
8
BLACK
6
CONTINUOUS
10
0.376238
20
0.740832
11
0.377953
21
0.740832
0
LINE
8
BLACK
6
CONTINUOUS
10
0.377953
20
0.740832
11
0.440945
21
0.740832
0
LINE
8
BLACK
6
CONTINUOUS
10
0.440945
20
0.740832
11
0.440948
21
0.740831
0
LINE
8
BLACK
6
CONTINUOUS
10
0.440948
20
0.740831
11
0.44266
21
0.740831
0
LINE
8
BLACK
6
CONTINUOUS
10
0.44266
20
0.740831
11
0.445922
21
0.741891
0
LINE
8
BLACK
6
CONTINUOUS
10
0.445922
20
0.741891
11
0.448696
21
0.743907
0
LINE
8
BLACK
6
CONTINUOUS
10
0.448696
20
0.743907
11
0.450712
21
0.746682
0
LINE
8
BLACK
6
CONTINUOUS
10
0.450712
20
0.746682
11
0.451772
21
0.749944
0
LINE
8
BLACK
6
CONTINUOUS
10
0.451772
20
0.749944
11
0.451772
21
0.751659
0
LINE
8
BLACK
6
CONTINUOUS
10
0.451772
20
0.751659
11
0.451772
21
0.751659
0
LINE
8
BLACK
6
CONTINUOUS
10
0.451772
20
0.751659
11
0.451772
21
0.806299
0
LINE
8
BLACK
6
CONTINUOUS
10
0.451772
20
0.806299
11
0.451772
21
0.808014
0
LINE
8
BLACK
6
CONTINUOUS
10
0.451772
20
0.808014
11
0.450712
21
0.811276
0
LINE
8
BLACK
6
CONTINUOUS
10
0.450712
20
0.811276
11
0.448696
21
0.81405
0
LINE
8
BLACK
6
CONTINUOUS
10
0.448696
20
0.81405
11
0.445921
21
0.816066
0
LINE
8
BLACK
6
CONTINUOUS
10
0.445921
20
0.816066
11
0.44266
21
0.817126
0
LINE
8
BLACK
6
CONTINUOUS
10
0.44266
20
0.817126
11
0.440945
21
0.817126
0
LINE
8
BLACK
6
CONTINUOUS
10
0.440945
20
0.817126
11
0.377953
21
0.817126
0
LINE
8
BLACK
6
CONTINUOUS
10
0.378543
20
0.920144
11
0.441535
21
0.920144
0
LINE
8
BLACK
6
CONTINUOUS
10
0.441535
20
0.920144
11
0.445489
21
0.919518
0
LINE
8
BLACK
6
CONTINUOUS
10
0.445489
20
0.919518
11
0.449056
21
0.917701
0
LINE
8
BLACK
6
CONTINUOUS
10
0.449056
20
0.917701
11
0.451886
21
0.91487
0
LINE
8
BLACK
6
CONTINUOUS
10
0.451886
20
0.91487
11
0.453704
21
0.911303
0
LINE
8
BLACK
6
CONTINUOUS
10
0.453704
20
0.911303
11
0.454329
21
0.907354
0
LINE
8
BLACK
6
CONTINUOUS
10
0.454329
20
0.907354
11
0.454331
21
0.907349
0
LINE
8
BLACK
6
CONTINUOUS
10
0.454331
20
0.907349
11
0.454331
21
0.852709
0
LINE
8
BLACK
6
CONTINUOUS
10
0.454331
20
0.852709
11
0.454331
21
0.852708
0
LINE
8
BLACK
6
CONTINUOUS
10
0.454331
20
0.852708
11
0.453704
21
0.848755
0
LINE
8
BLACK
6
CONTINUOUS
10
0.453704
20
0.848755
11
0.451887
21
0.845188
0
LINE
8
BLACK
6
CONTINUOUS
10
0.451887
20
0.845188
11
0.449056
21
0.842357
0
LINE
8
BLACK
6
CONTINUOUS
10
0.449056
20
0.842357
11
0.445489
21
0.84054
0
LINE
8
BLACK
6
CONTINUOUS
10
0.445489
20
0.84054
11
0.441536
21
0.839914
0
LINE
8
BLACK
6
CONTINUOUS
10
0.441536
20
0.839914
11
0.441535
21
0.839913
0
LINE
8
BLACK
6
CONTINUOUS
10
0.441535
20
0.839913
11
0.378543
21
0.839913
0
LINE
8
BLACK
6
CONTINUOUS
10
0.378543
20
0.839913
11
0.374589
21
0.84054
0
LINE
8
BLACK
6
CONTINUOUS
10
0.374589
20
0.84054
11
0.371022
21
0.842357
0
LINE
8
BLACK
6
CONTINUOUS
10
0.371022
20
0.842357
11
0.368192
21
0.845188
0
LINE
8
BLACK
6
CONTINUOUS
10
0.368192
20
0.845188
11
0.366374
21
0.848755
0
LINE
8
BLACK
6
CONTINUOUS
10
0.366374
20
0.848755
11
0.365748
21
0.852709
0
LINE
8
BLACK
6
CONTINUOUS
10
0.365748
20
0.852709
11
0.365748
21
0.852709
0
LINE
8
BLACK
6
CONTINUOUS
10
0.365748
20
0.852709
11
0.365748
21
0.907349
0
LINE
8
BLACK
6
CONTINUOUS
10
0.365748
20
0.907349
11
0.365748
21
0.907349
0
LINE
8
BLACK
6
CONTINUOUS
10
0.365748
20
0.907349
11
0.366374
21
0.911303
0
LINE
8
BLACK
6
CONTINUOUS
10
0.366374
20
0.911303
11
0.368191
21
0.914871
0
LINE
8
BLACK
6
CONTINUOUS
10
0.368191
20
0.914871
11
0.371022
21
0.917702
0
LINE
8
BLACK
6
CONTINUOUS
10
0.371022
20
0.917702
11
0.374589
21
0.919519
0
LINE
8
BLACK
6
CONTINUOUS
10
0.374589
20
0.919519
11
0.378543
21
0.920146
0
LINE
8
BLACK
6
CONTINUOUS
10
0.378543
20
0.920146
11
0.378543
21
0.920144
0
LINE
8
BLACK
6
CONTINUOUS
10
0.373566
20
0.917117
11
0.370792
21
0.915101
0
LINE
8
BLACK
6
CONTINUOUS
10
0.370792
20
0.915101
11
0.368776
21
0.912326
0
LINE
8
BLACK
6
CONTINUOUS
10
0.368776
20
0.912326
11
0.367716
21
0.909064
0
LINE
8
BLACK
6
CONTINUOUS
10
0.367716
20
0.909064
11
0.367717
21
0.907349
0
LINE
8
BLACK
6
CONTINUOUS
10
0.367717
20
0.907349
11
0.367716
21
0.907349
0
LINE
8
BLACK
6
CONTINUOUS
10
0.367716
20
0.907349
11
0.367717
21
0.907349
0
LINE
8
BLACK
6
CONTINUOUS
10
0.367717
20
0.907349
11
0.367717
21
0.852709
0
LINE
8
BLACK
6
CONTINUOUS
10
0.367717
20
0.852709
11
0.367717
21
0.852709
0
LINE
8
BLACK
6
CONTINUOUS
10
0.367717
20
0.852709
11
0.367717
21
0.850994
0
LINE
8
BLACK
6
CONTINUOUS
10
0.367717
20
0.850994
11
0.368776
21
0.847732
0
LINE
8
BLACK
6
CONTINUOUS
10
0.368776
20
0.847732
11
0.370792
21
0.844958
0
LINE
8
BLACK
6
CONTINUOUS
10
0.370792
20
0.844958
11
0.373567
21
0.842942
0
LINE
8
BLACK
6
CONTINUOUS
10
0.373567
20
0.842942
11
0.376829
21
0.841882
0
LINE
8
BLACK
6
CONTINUOUS
10
0.376829
20
0.841882
11
0.378543
21
0.841882
0
LINE
8
BLACK
6
CONTINUOUS
10
0.378543
20
0.841882
11
0.441535
21
0.841882
0
LINE
8
BLACK
6
CONTINUOUS
10
0.441535
20
0.841882
11
0.441535
21
0.841882
0
LINE
8
BLACK
6
CONTINUOUS
10
0.441535
20
0.841882
11
0.44325
21
0.841882
0
LINE
8
BLACK
6
CONTINUOUS
10
0.44325
20
0.841882
11
0.446512
21
0.842942
0
LINE
8
BLACK
6
CONTINUOUS
10
0.446512
20
0.842942
11
0.449286
21
0.844958
0
LINE
8
BLACK
6
CONTINUOUS
10
0.449286
20
0.844958
11
0.451302
21
0.847732
0
LINE
8
BLACK
6
CONTINUOUS
10
0.451302
20
0.847732
11
0.452362
21
0.850994
0
LINE
8
BLACK
6
CONTINUOUS
10
0.452362
20
0.850994
11
0.452362
21
0.852709
0
LINE
8
BLACK
6
CONTINUOUS
10
0.452362
20
0.852709
11
0.452362
21
0.852709
0
LINE
8
BLACK
6
CONTINUOUS
10
0.452362
20
0.852709
11
0.452362
21
0.907349
0
LINE
8
BLACK
6
CONTINUOUS
10
0.452362
20
0.907349
11
0.452362
21
0.907349
0
LINE
8
BLACK
6
CONTINUOUS
10
0.452362
20
0.907349
11
0.452362
21
0.907349
0
LINE
8
BLACK
6
CONTINUOUS
10
0.452362
20
0.907349
11
0.452361
21
0.907349
0
LINE
8
BLACK
6
CONTINUOUS
10
0.452361
20
0.907349
11
0.452361
21
0.909064
0
LINE
8
BLACK
6
CONTINUOUS
10
0.452361
20
0.909064
11
0.451302
21
0.912326
0
LINE
8
BLACK
6
CONTINUOUS
10
0.451302
20
0.912326
11
0.449286
21
0.9151
0
LINE
8
BLACK
6
CONTINUOUS
10
0.449286
20
0.9151
11
0.446512
21
0.917116
0
LINE
8
BLACK
6
CONTINUOUS
10
0.446512
20
0.917116
11
0.44325
21
0.918176
0
LINE
8
BLACK
6
CONTINUOUS
10
0.44325
20
0.918176
11
0.441535
21
0.918176
0
LINE
8
BLACK
6
CONTINUOUS
10
0.441535
20
0.918176
11
0.378543
21
0.918176
0
LINE
8
BLACK
6
CONTINUOUS
10
0.378543
20
0.918176
11
0.37854
21
0.918177
0
LINE
8
BLACK
6
CONTINUOUS
10
0.37854
20
0.918177
11
0.376828
21
0.918177
0
LINE
8
BLACK
6
CONTINUOUS
10
0.376828
20
0.918177
11
0.373566
21
0.917117
0
LINE
8
BLACK
6
CONTINUOUS
10
0.441929
20
1.02119
11
0.445883
21
1.02057
0
LINE
8
BLACK
6
CONTINUOUS
10
0.445883
20
1.02057
11
0.44945
21
1.01875
0
LINE
8
BLACK
6
CONTINUOUS
10
0.44945
20
1.01875
11
0.452281
21
1.01592
0
LINE
8
BLACK
6
CONTINUOUS
10
0.452281
20
1.01592
11
0.454099
21
1.01235
0
LINE
8
BLACK
6
CONTINUOUS
10
0.454099
20
1.01235
11
0.454726
21
1.0084
0
LINE
8
BLACK
6
CONTINUOUS
10
0.454726
20
1.0084
11
0.454724
21
1.0084
0
LINE
8
BLACK
6
CONTINUOUS
10
0.454724
20
1.0084
11
0.454724
21
1.0084
0
LINE
8
BLACK
6
CONTINUOUS
10
0.454724
20
1.0084
11
0.454724
21
1.0084
0
LINE
8
BLACK
6
CONTINUOUS
10
0.454724
20
1.0084
11
0.454724
21
0.953759
0
LINE
8
BLACK
6
CONTINUOUS
10
0.454724
20
0.953759
11
0.454724
21
0.953758
0
LINE
8
BLACK
6
CONTINUOUS
10
0.454724
20
0.953758
11
0.454098
21
0.949805
0
LINE
8
BLACK
6
CONTINUOUS
10
0.454098
20
0.949805
11
0.45228
21
0.946238
0
LINE
8
BLACK
6
CONTINUOUS
10
0.45228
20
0.946238
11
0.449449
21
0.943408
0
LINE
8
BLACK
6
CONTINUOUS
10
0.449449
20
0.943408
11
0.445883
21
0.941591
0
LINE
8
BLACK
6
CONTINUOUS
10
0.445883
20
0.941591
11
0.441935
21
0.940966
0
LINE
8
BLACK
6
CONTINUOUS
10
0.441935
20
0.940966
11
0.441929
21
0.940963
0
LINE
8
BLACK
6
CONTINUOUS
10
0.441929
20
0.940963
11
0.378937
21
0.940963
0
LINE
8
BLACK
6
CONTINUOUS
10
0.378937
20
0.940963
11
0.374983
21
0.941589
0
LINE
8
BLACK
6
CONTINUOUS
10
0.374983
20
0.941589
11
0.371416
21
0.943407
0
LINE
8
BLACK
6
CONTINUOUS
10
0.371416
20
0.943407
11
0.368585
21
0.946238
0
LINE
8
BLACK
6
CONTINUOUS
10
0.368585
20
0.946238
11
0.366767
21
0.949804
0
LINE
8
BLACK
6
CONTINUOUS
10
0.366767
20
0.949804
11
0.36614
21
0.953758
0
LINE
8
BLACK
6
CONTINUOUS
10
0.36614
20
0.953758
11
0.366142
21
0.953758
0
LINE
8
BLACK
6
CONTINUOUS
10
0.366142
20
0.953758
11
0.366142
21
0.953759
0
LINE
8
BLACK
6
CONTINUOUS
10
0.366142
20
0.953759
11
0.366142
21
1.0084
0
LINE
8
BLACK
6
CONTINUOUS
10
0.366142
20
1.0084
11
0.366142
21
1.0084
0
LINE
8
BLACK
6
CONTINUOUS
10
0.366142
20
1.0084
11
0.366142
21
1.0084
0
LINE
8
BLACK
6
CONTINUOUS
10
0.366142
20
1.0084
11
0.366768
21
1.01235
0
LINE
8
BLACK
6
CONTINUOUS
10
0.366768
20
1.01235
11
0.368586
21
1.01592
0
LINE
8
BLACK
6
CONTINUOUS
10
0.368586
20
1.01592
11
0.371417
21
1.01875
0
LINE
8
BLACK
6
CONTINUOUS
10
0.371417
20
1.01875
11
0.374983
21
1.02057
0
LINE
8
BLACK
6
CONTINUOUS
10
0.374983
20
1.02057
11
0.378932
21
1.02119
0
LINE
8
BLACK
6
CONTINUOUS
10
0.378932
20
1.02119
11
0.378937
21
1.02119
0
LINE
8
BLACK
6
CONTINUOUS
10
0.378937
20
1.02119
11
0.441929
21
1.02119
0
LINE
8
BLACK
6
CONTINUOUS
10
0.378937
20
1.01923
11
0.378937
21
1.01922
0
LINE
8
BLACK
6
CONTINUOUS
10
0.378937
20
1.01922
11
0.377222
21
1.01922
0
LINE
8
BLACK
6
CONTINUOUS
10
0.377222
20
1.01922
11
0.373961
21
1.01816
0
LINE
8
BLACK
6
CONTINUOUS
10
0.373961
20
1.01816
11
0.371186
21
1.01615
0
LINE
8
BLACK
6
CONTINUOUS
10
0.371186
20
1.01615
11
0.36917
21
1.01337
0
LINE
8
BLACK
6
CONTINUOUS
10
0.36917
20
1.01337
11
0.36811
21
1.01011
0
LINE
8
BLACK
6
CONTINUOUS
10
0.36811
20
1.01011
11
0.36811
21
1.0084
0
LINE
8
BLACK
6
CONTINUOUS
10
0.36811
20
1.0084
11
0.36811
21
0.953759
0
LINE
8
BLACK
6
CONTINUOUS
10
0.36811
20
0.953759
11
0.36811
21
0.953759
0
LINE
8
BLACK
6
CONTINUOUS
10
0.36811
20
0.953759
11
0.36811
21
0.953759
0
LINE
8
BLACK
6
CONTINUOUS
10
0.36811
20
0.953759
11
0.36811
21
0.953759
0
LINE
8
BLACK
6
CONTINUOUS
10
0.36811
20
0.953759
11
0.368109
21
0.953755
0
LINE
8
BLACK
6
CONTINUOUS
10
0.368109
20
0.953755
11
0.368109
21
0.952044
0
LINE
8
BLACK
6
CONTINUOUS
10
0.368109
20
0.952044
11
0.369169
21
0.948782
0
LINE
8
BLACK
6
CONTINUOUS
10
0.369169
20
0.948782
11
0.371185
21
0.946007
0
LINE
8
BLACK
6
CONTINUOUS
10
0.371185
20
0.946007
11
0.37396
21
0.943992
0
LINE
8
BLACK
6
CONTINUOUS
10
0.37396
20
0.943992
11
0.377222
21
0.942932
0
LINE
8
BLACK
6
CONTINUOUS
10
0.377222
20
0.942932
11
0.378937
21
0.942932
0
LINE
8
BLACK
6
CONTINUOUS
10
0.378937
20
0.942932
11
0.441929
21
0.942932
0
LINE
8
BLACK
6
CONTINUOUS
10
0.441929
20
0.942932
11
0.441929
21
0.942933
0
LINE
8
BLACK
6
CONTINUOUS
10
0.441929
20
0.942933
11
0.443644
21
0.942933
0
LINE
8
BLACK
6
CONTINUOUS
10
0.443644
20
0.942933
11
0.446905
21
0.943993
0
LINE
8
BLACK
6
CONTINUOUS
10
0.446905
20
0.943993
11
0.44968
21
0.946008
0
LINE
8
BLACK
6
CONTINUOUS
10
0.44968
20
0.946008
11
0.451696
21
0.948783
0
LINE
8
BLACK
6
CONTINUOUS
10
0.451696
20
0.948783
11
0.452756
21
0.952044
0
LINE
8
BLACK
6
CONTINUOUS
10
0.452756
20
0.952044
11
0.452756
21
0.953759
0
LINE
8
BLACK
6
CONTINUOUS
10
0.452756
20
0.953759
11
0.452756
21
0.953759
0
LINE
8
BLACK
6
CONTINUOUS
10
0.452756
20
0.953759
11
0.452756
21
1.0084
0
LINE
8
BLACK
6
CONTINUOUS
10
0.452756
20
1.0084
11
0.452757
21
1.0084
0
LINE
8
BLACK
6
CONTINUOUS
10
0.452757
20
1.0084
11
0.452757
21
1.01011
0
LINE
8
BLACK
6
CONTINUOUS
10
0.452757
20
1.01011
11
0.451697
21
1.01338
0
LINE
8
BLACK
6
CONTINUOUS
10
0.451697
20
1.01338
11
0.449681
21
1.01615
0
LINE
8
BLACK
6
CONTINUOUS
10
0.449681
20
1.01615
11
0.446906
21
1.01817
0
LINE
8
BLACK
6
CONTINUOUS
10
0.446906
20
1.01817
11
0.443644
21
1.01923
0
LINE
8
BLACK
6
CONTINUOUS
10
0.443644
20
1.01923
11
0.441929
21
1.01923
0
LINE
8
BLACK
6
CONTINUOUS
10
0.441929
20
1.01923
11
0.378937
21
1.01923
0
LINE
8
BLACK
6
CONTINUOUS
10
0.441929
20
1.12224
11
0.445883
21
1.12162
0
LINE
8
BLACK
6
CONTINUOUS
10
0.445883
20
1.12162
11
0.44945
21
1.1198
0
LINE
8
BLACK
6
CONTINUOUS
10
0.44945
20
1.1198
11
0.452281
21
1.11697
0
LINE
8
BLACK
6
CONTINUOUS
10
0.452281
20
1.11697
11
0.454098
21
1.1134
0
LINE
8
BLACK
6
CONTINUOUS
10
0.454098
20
1.1134
11
0.454724
21
1.10945
0
LINE
8
BLACK
6
CONTINUOUS
10
0.454724
20
1.10945
11
0.454724
21
1.05481
0
LINE
8
BLACK
6
CONTINUOUS
10
0.454724
20
1.05481
11
0.454724
21
1.05481
0
LINE
8
BLACK
6
CONTINUOUS
10
0.454724
20
1.05481
11
0.454098
21
1.05085
0
LINE
8
BLACK
6
CONTINUOUS
10
0.454098
20
1.05085
11
0.452281
21
1.04729
0
LINE
8
BLACK
6
CONTINUOUS
10
0.452281
20
1.04729
11
0.44945
21
1.04446
0
LINE
8
BLACK
6
CONTINUOUS
10
0.44945
20
1.04446
11
0.445883
21
1.04264
0
LINE
8
BLACK
6
CONTINUOUS
10
0.445883
20
1.04264
11
0.441929
21
1.04201
0
LINE
8
BLACK
6
CONTINUOUS
10
0.441929
20
1.04201
11
0.441929
21
1.04201
0
LINE
8
BLACK
6
CONTINUOUS
10
0.441929
20
1.04201
11
0.378937
21
1.04201
0
LINE
8
BLACK
6
CONTINUOUS
10
0.378937
20
1.04201
11
0.374983
21
1.04264
0
LINE
8
BLACK
6
CONTINUOUS
10
0.374983
20
1.04264
11
0.371416
21
1.04446
0
LINE
8
BLACK
6
CONTINUOUS
10
0.371416
20
1.04446
11
0.368586
21
1.04729
0
LINE
8
BLACK
6
CONTINUOUS
10
0.368586
20
1.04729
11
0.366769
21
1.05085
0
LINE
8
BLACK
6
CONTINUOUS
10
0.366769
20
1.05085
11
0.366144
21
1.0548
0
LINE
8
BLACK
6
CONTINUOUS
10
0.366144
20
1.0548
11
0.366142
21
1.05481
0
LINE
8
BLACK
6
CONTINUOUS
10
0.366142
20
1.05481
11
0.366142
21
1.10945
0
LINE
8
BLACK
6
CONTINUOUS
10
0.366142
20
1.10945
11
0.366768
21
1.1134
0
LINE
8
BLACK
6
CONTINUOUS
10
0.366768
20
1.1134
11
0.368585
21
1.11697
0
LINE
8
BLACK
6
CONTINUOUS
10
0.368585
20
1.11697
11
0.371416
21
1.1198
0
LINE
8
BLACK
6
CONTINUOUS
10
0.371416
20
1.1198
11
0.374983
21
1.12162
0
LINE
8
BLACK
6
CONTINUOUS
10
0.374983
20
1.12162
11
0.378937
21
1.12224
0
LINE
8
BLACK
6
CONTINUOUS
10
0.378937
20
1.12224
11
0.441929
21
1.12224
0
LINE
8
BLACK
6
CONTINUOUS
10
0.378937
20
1.12028
11
0.377222
21
1.12028
0
LINE
8
BLACK
6
CONTINUOUS
10
0.377222
20
1.12028
11
0.37396
21
1.11922
0
LINE
8
BLACK
6
CONTINUOUS
10
0.37396
20
1.11922
11
0.371186
21
1.1172
0
LINE
8
BLACK
6
CONTINUOUS
10
0.371186
20
1.1172
11
0.36917
21
1.11443
0
LINE
8
BLACK
6
CONTINUOUS
10
0.36917
20
1.11443
11
0.36811
21
1.11116
0
LINE
8
BLACK
6
CONTINUOUS
10
0.36811
20
1.11116
11
0.36811
21
1.10945
0
LINE
8
BLACK
6
CONTINUOUS
10
0.36811
20
1.10945
11
0.36811
21
1.05481
0
LINE
8
BLACK
6
CONTINUOUS
10
0.36811
20
1.05481
11
0.36811
21
1.05481
0
LINE
8
BLACK
6
CONTINUOUS
10
0.36811
20
1.05481
11
0.368112
21
1.05481
0
LINE
8
BLACK
6
CONTINUOUS
10
0.368112
20
1.05481
11
0.368111
21
1.05309
0
LINE
8
BLACK
6
CONTINUOUS
10
0.368111
20
1.05309
11
0.369171
21
1.04983
0
LINE
8
BLACK
6
CONTINUOUS
10
0.369171
20
1.04983
11
0.371186
21
1.04706
0
LINE
8
BLACK
6
CONTINUOUS
10
0.371186
20
1.04706
11
0.373961
21
1.04504
0
LINE
8
BLACK
6
CONTINUOUS
10
0.373961
20
1.04504
11
0.377222
21
1.04398
0
LINE
8
BLACK
6
CONTINUOUS
10
0.377222
20
1.04398
11
0.378937
21
1.04398
0
LINE
8
BLACK
6
CONTINUOUS
10
0.378937
20
1.04398
11
0.441929
21
1.04398
0
LINE
8
BLACK
6
CONTINUOUS
10
0.441929
20
1.04398
11
0.441932
21
1.04398
0
LINE
8
BLACK
6
CONTINUOUS
10
0.441932
20
1.04398
11
0.443644
21
1.04398
0
LINE
8
BLACK
6
CONTINUOUS
10
0.443644
20
1.04398
11
0.446906
21
1.04504
0
LINE
8
BLACK
6
CONTINUOUS
10
0.446906
20
1.04504
11
0.449681
21
1.04706
0
LINE
8
BLACK
6
CONTINUOUS
10
0.449681
20
1.04706
11
0.451696
21
1.04983
0
LINE
8
BLACK
6
CONTINUOUS
10
0.451696
20
1.04983
11
0.452756
21
1.05309
0
LINE
8
BLACK
6
CONTINUOUS
10
0.452756
20
1.05309
11
0.452756
21
1.05481
0
LINE
8
BLACK
6
CONTINUOUS
10
0.452756
20
1.05481
11
0.452756
21
1.05481
0
LINE
8
BLACK
6
CONTINUOUS
10
0.452756
20
1.05481
11
0.452756
21
1.10945
0
LINE
8
BLACK
6
CONTINUOUS
10
0.452756
20
1.10945
11
0.452756
21
1.11116
0
LINE
8
BLACK
6
CONTINUOUS
10
0.452756
20
1.11116
11
0.451696
21
1.11443
0
LINE
8
BLACK
6
CONTINUOUS
10
0.451696
20
1.11443
11
0.44968
21
1.1172
0
LINE
8
BLACK
6
CONTINUOUS
10
0.44968
20
1.1172
11
0.446906
21
1.11922
0
LINE
8
BLACK
6
CONTINUOUS
10
0.446906
20
1.11922
11
0.443644
21
1.12028
0
LINE
8
BLACK
6
CONTINUOUS
10
0.443644
20
1.12028
11
0.441929
21
1.12028
0
LINE
8
BLACK
6
CONTINUOUS
10
0.441929
20
1.12028
11
0.378937
21
1.12028
0
LINE
8
BLACK
6
CONTINUOUS
10
0.440551
20
1.32047
11
0.444505
21
1.31985
0
LINE
8
BLACK
6
CONTINUOUS
10
0.444505
20
1.31985
11
0.448072
21
1.31803
0
LINE
8
BLACK
6
CONTINUOUS
10
0.448072
20
1.31803
11
0.450903
21
1.3152
0
LINE
8
BLACK
6
CONTINUOUS
10
0.450903
20
1.3152
11
0.45272
21
1.31163
0
LINE
8
BLACK
6
CONTINUOUS
10
0.45272
20
1.31163
11
0.453346
21
1.30768
0
LINE
8
BLACK
6
CONTINUOUS
10
0.453346
20
1.30768
11
0.453346
21
1.25304
0
LINE
8
BLACK
6
CONTINUOUS
10
0.453346
20
1.25304
11
0.453346
21
1.25304
0
LINE
8
BLACK
6
CONTINUOUS
10
0.453346
20
1.25304
11
0.45272
21
1.24908
0
LINE
8
BLACK
6
CONTINUOUS
10
0.45272
20
1.24908
11
0.450903
21
1.24552
0
LINE
8
BLACK
6
CONTINUOUS
10
0.450903
20
1.24552
11
0.448072
21
1.24268
0
LINE
8
BLACK
6
CONTINUOUS
10
0.448072
20
1.24268
11
0.444505
21
1.24087
0
LINE
8
BLACK
6
CONTINUOUS
10
0.444505
20
1.24087
11
0.440551
21
1.24024
0
LINE
8
BLACK
6
CONTINUOUS
10
0.440551
20
1.24024
11
0.440551
21
1.24024
0
LINE
8
BLACK
6
CONTINUOUS
10
0.440551
20
1.24024
11
0.377559
21
1.24024
0
LINE
8
BLACK
6
CONTINUOUS
10
0.377559
20
1.24024
11
0.373605
21
1.24087
0
LINE
8
BLACK
6
CONTINUOUS
10
0.373605
20
1.24087
11
0.370039
21
1.24269
0
LINE
8
BLACK
6
CONTINUOUS
10
0.370039
20
1.24269
11
0.367208
21
1.24552
0
LINE
8
BLACK
6
CONTINUOUS
10
0.367208
20
1.24552
11
0.365391
21
1.24908
0
LINE
8
BLACK
6
CONTINUOUS
10
0.365391
20
1.24908
11
0.364766
21
1.25303
0
LINE
8
BLACK
6
CONTINUOUS
10
0.364766
20
1.25303
11
0.364764
21
1.25304
0
LINE
8
BLACK
6
CONTINUOUS
10
0.364764
20
1.25304
11
0.364764
21
1.30768
0
LINE
8
BLACK
6
CONTINUOUS
10
0.364764
20
1.30768
11
0.36539
21
1.31163
0
LINE
8
BLACK
6
CONTINUOUS
10
0.36539
20
1.31163
11
0.367207
21
1.3152
0
LINE
8
BLACK
6
CONTINUOUS
10
0.367207
20
1.3152
11
0.370038
21
1.31803
0
LINE
8
BLACK
6
CONTINUOUS
10
0.370038
20
1.31803
11
0.373605
21
1.31985
0
LINE
8
BLACK
6
CONTINUOUS
10
0.373605
20
1.31985
11
0.377559
21
1.32047
0
LINE
8
BLACK
6
CONTINUOUS
10
0.377559
20
1.32047
11
0.440551
21
1.32047
0
LINE
8
BLACK
6
CONTINUOUS
10
0.377559
20
1.3185
11
0.375844
21
1.3185
0
LINE
8
BLACK
6
CONTINUOUS
10
0.375844
20
1.3185
11
0.372583
21
1.31744
0
LINE
8
BLACK
6
CONTINUOUS
10
0.372583
20
1.31744
11
0.369808
21
1.31543
0
LINE
8
BLACK
6
CONTINUOUS
10
0.369808
20
1.31543
11
0.367792
21
1.31265
0
LINE
8
BLACK
6
CONTINUOUS
10
0.367792
20
1.31265
11
0.366732
21
1.30939
0
LINE
8
BLACK
6
CONTINUOUS
10
0.366732
20
1.30939
11
0.366732
21
1.30768
0
LINE
8
BLACK
6
CONTINUOUS
10
0.366732
20
1.30768
11
0.366732
21
1.25304
0
LINE
8
BLACK
6
CONTINUOUS
10
0.366732
20
1.25304
11
0.366732
21
1.25304
0
LINE
8
BLACK
6
CONTINUOUS
10
0.366732
20
1.25304
11
0.366734
21
1.25304
0
LINE
8
BLACK
6
CONTINUOUS
10
0.366734
20
1.25304
11
0.366733
21
1.25132
0
LINE
8
BLACK
6
CONTINUOUS
10
0.366733
20
1.25132
11
0.367793
21
1.24806
0
LINE
8
BLACK
6
CONTINUOUS
10
0.367793
20
1.24806
11
0.369808
21
1.24529
0
LINE
8
BLACK
6
CONTINUOUS
10
0.369808
20
1.24529
11
0.372583
21
1.24327
0
LINE
8
BLACK
6
CONTINUOUS
10
0.372583
20
1.24327
11
0.375844
21
1.24221
0
LINE
8
BLACK
6
CONTINUOUS
10
0.375844
20
1.24221
11
0.377559
21
1.24221
0
LINE
8
BLACK
6
CONTINUOUS
10
0.377559
20
1.24221
11
0.440551
21
1.24221
0
LINE
8
BLACK
6
CONTINUOUS
10
0.440551
20
1.24221
11
0.440554
21
1.24221
0
LINE
8
BLACK
6
CONTINUOUS
10
0.440554
20
1.24221
11
0.442266
21
1.24221
0
LINE
8
BLACK
6
CONTINUOUS
10
0.442266
20
1.24221
11
0.445528
21
1.24327
0
LINE
8
BLACK
6
CONTINUOUS
10
0.445528
20
1.24327
11
0.448303
21
1.24528
0
LINE
8
BLACK
6
CONTINUOUS
10
0.448303
20
1.24528
11
0.450318
21
1.24806
0
LINE
8
BLACK
6
CONTINUOUS
10
0.450318
20
1.24806
11
0.451378
21
1.25132
0
LINE
8
BLACK
6
CONTINUOUS
10
0.451378
20
1.25132
11
0.451378
21
1.25304
0
LINE
8
BLACK
6
CONTINUOUS
10
0.451378
20
1.25304
11
0.451378
21
1.25304
0
LINE
8
BLACK
6
CONTINUOUS
10
0.451378
20
1.25304
11
0.451378
21
1.30768
0
LINE
8
BLACK
6
CONTINUOUS
10
0.451378
20
1.30768
11
0.451378
21
1.30939
0
LINE
8
BLACK
6
CONTINUOUS
10
0.451378
20
1.30939
11
0.450318
21
1.31265
0
LINE
8
BLACK
6
CONTINUOUS
10
0.450318
20
1.31265
11
0.448302
21
1.31543
0
LINE
8
BLACK
6
CONTINUOUS
10
0.448302
20
1.31543
11
0.445528
21
1.31744
0
LINE
8
BLACK
6
CONTINUOUS
10
0.445528
20
1.31744
11
0.442266
21
1.3185
0
LINE
8
BLACK
6
CONTINUOUS
10
0.442266
20
1.3185
11
0.440551
21
1.3185
0
LINE
8
BLACK
6
CONTINUOUS
10
0.440551
20
1.3185
11
0.377559
21
1.3185
0
LINE
8
BLACK
6
CONTINUOUS
10
1.79038
20
2.19289
11
1.79051
21
2.19291
0
LINE
8
BLACK
6
CONTINUOUS
10
1.79051
20
2.19291
11
1.79063
21
2.19284
0
LINE
8
BLACK
6
CONTINUOUS
10
1.79063
20
2.19284
11
1.79101
21
2.19277
0
LINE
8
BLACK
6
CONTINUOUS
10
1.79101
20
2.19277
11
1.7916
21
2.19228
0
LINE
8
BLACK
6
CONTINUOUS
10
1.7916
20
2.19228
11
1.79226
21
2.1919
0
LINE
8
BLACK
6
CONTINUOUS
10
1.79226
20
2.1919
11
1.79235
21
2.19165
0
LINE
8
BLACK
6
CONTINUOUS
10
1.79235
20
2.19165
11
1.79256
21
2.19148
0
LINE
8
BLACK
6
CONTINUOUS
10
1.79256
20
2.19148
11
1.79269
21
2.19072
0
LINE
8
BLACK
6
CONTINUOUS
10
1.79269
20
2.19072
11
1.79295
21
2.19
0
LINE
8
BLACK
6
CONTINUOUS
10
1.79295
20
2.19
11
1.79295
21
0.21
0
LINE
8
BLACK
6
CONTINUOUS
10
1.79295
20
0.21
11
1.79289
21
0.209617
0
LINE
8
BLACK
6
CONTINUOUS
10
1.79289
20
0.209617
11
1.79291
21
0.209487
0
LINE
8
BLACK
6
CONTINUOUS
10
1.79291
20
0.209487
11
1.79284
21
0.209374
0
LINE
8
BLACK
6
CONTINUOUS
10
1.79284
20
0.209374
11
1.79277
21
0.20899
0
LINE
8
BLACK
6
CONTINUOUS
10
1.79277
20
0.20899
11
1.79228
21
0.208402
0
LINE
8
BLACK
6
CONTINUOUS
10
1.79228
20
0.208402
11
1.7919
21
0.207738
0
LINE
8
BLACK
6
CONTINUOUS
10
1.7919
20
0.207738
11
1.79165
21
0.207647
0
LINE
8
BLACK
6
CONTINUOUS
10
1.79165
20
0.207647
11
1.79148
21
0.207443
0
LINE
8
BLACK
6
CONTINUOUS
10
1.79148
20
0.207443
11
1.79072
21
0.20731
0
LINE
8
BLACK
6
CONTINUOUS
10
1.79072
20
0.20731
11
1.79
21
0.207047
0
LINE
8
BLACK
6
CONTINUOUS
10
1.79
20
0.207047
11
0.21
21
0.207047
0
LINE
8
BLACK
6
CONTINUOUS
10
0.21
20
0.207047
11
0.209616
21
0.207115
0
LINE
8
BLACK
6
CONTINUOUS
10
0.209616
20
0.207115
11
0.209487
21
0.207092
0
LINE
8
BLACK
6
CONTINUOUS
10
0.209487
20
0.207092
11
0.209374
21
0.207158
0
LINE
8
BLACK
6
CONTINUOUS
10
0.209374
20
0.207158
11
0.20899
21
0.207225
0
LINE
8
BLACK
6
CONTINUOUS
10
0.20899
20
0.207225
11
0.208402
21
0.207719
0
LINE
8
BLACK
6
CONTINUOUS
10
0.208402
20
0.207719
11
0.207738
21
0.208102
0
LINE
8
BLACK
6
CONTINUOUS
10
0.207738
20
0.208102
11
0.207647
21
0.208352
0
LINE
8
BLACK
6
CONTINUOUS
10
0.207647
20
0.208352
11
0.207443
21
0.208524
0
LINE
8
BLACK
6
CONTINUOUS
10
0.207443
20
0.208524
11
0.20731
21
0.209279
0
LINE
8
BLACK
6
CONTINUOUS
10
0.20731
20
0.209279
11
0.207047
21
0.21
0
LINE
8
BLACK
6
CONTINUOUS
10
0.207047
20
0.21
11
0.207047
21
2.19
0
LINE
8
BLACK
6
CONTINUOUS
10
0.207047
20
2.19
11
0.207115
21
2.19038
0
LINE
8
BLACK
6
CONTINUOUS
10
0.207115
20
2.19038
11
0.207092
21
2.19051
0
LINE
8
BLACK
6
CONTINUOUS
10
0.207092
20
2.19051
11
0.207158
21
2.19063
0
LINE
8
BLACK
6
CONTINUOUS
10
0.207158
20
2.19063
11
0.207225
21
2.19101
0
LINE
8
BLACK
6
CONTINUOUS
10
0.207225
20
2.19101
11
0.207718
21
2.1916
0
LINE
8
BLACK
6
CONTINUOUS
10
0.207718
20
2.1916
11
0.208102
21
2.19226
0
LINE
8
BLACK
6
CONTINUOUS
10
0.208102
20
2.19226
11
0.208352
21
2.19235
0
LINE
8
BLACK
6
CONTINUOUS
10
0.208352
20
2.19235
11
0.208524
21
2.19256
0
LINE
8
BLACK
6
CONTINUOUS
10
0.208524
20
2.19256
11
0.209279
21
2.19269
0
LINE
8
BLACK
6
CONTINUOUS
10
0.209279
20
2.19269
11
0.21
21
2.19295
0
LINE
8
BLACK
6
CONTINUOUS
10
0.21
20
2.19295
11
1.79
21
2.19295
0
LINE
8
BLACK
6
CONTINUOUS
10
1.79
20
2.19295
11
1.79038
21
2.19289
0
LINE
8
BLACK
6
CONTINUOUS
10
0.212953
20
2.18705
11
0.212953
21
0.212953
0
LINE
8
BLACK
6
CONTINUOUS
10
0.212953
20
0.212953
11
1.78705
21
0.212953
0
LINE
8
BLACK
6
CONTINUOUS
10
1.78705
20
0.212953
11
1.78705
21
2.18705
0
LINE
8
BLACK
6
CONTINUOUS
10
1.78705
20
2.18705
11
0.212953
21
2.18705
  0
ENDSEC
  0
EOF
