<?xml version='1.0' encoding='ASCII' standalone='yes'?>
<svg xmlns:svg="http://www.w3.org/2000/svg" xmlns="http://www.w3.org/2000/svg" xmlns:xlink="http://www.w3.org/1999/xlink" version="1.1" width="297.0022mm" height="210.0072mm" viewBox="0.0000 0.0000 297.0022 210.0072">
<title>SVG Image created as USBPDSINK01-F_Fab.svg date 2023/09/24 08:35:32 </title>
  <desc>Image generated by PCBNEW </desc>
<g style="fill:#848484; fill-opacity:1.0000;stroke:#848484; stroke-opacity:1.0000; stroke-linecap:round; stroke-linejoin:round;" transform="translate(0 0) scale(1 1)">
</g>
<g style="fill:#848484; fill-opacity:0.0;  stroke:#848484; stroke-width:0.0000; stroke-opacity:1;  stroke-linecap:round; stroke-linejoin:round;">
</g>
<g style="fill:#848484; fill-opacity:0.01;  stroke:#848484; stroke-width:0.5383; stroke-opacity:1;  stroke-linecap:round; stroke-linejoin:round;">
<text x="137.6906" y="4.8419" textLength="35.4157" font-size="4.7847" lengthAdjust="spacingAndGlyphs" text-anchor="middle" opacity="0.01" style="font-family:monospace">30.4800 mm</text>
<g class="stroked-text"><desc>30.4800 mm</desc>
<path d="M120.9440 1.0912 L123.1654 1.0912 "/>
<path d="M123.1654 1.0912 L121.9693 2.4583 "/>
<path d="M121.9693 2.4583 L122.4819 2.4583 "/>
<path d="M122.4819 2.4583 L122.8237 2.6291 "/>
<path d="M122.8237 2.6291 L122.9946 2.8000 "/>
<path d="M122.9946 2.8000 L123.1654 3.1418 "/>
<path d="M123.1654 3.1418 L123.1654 3.9962 "/>
<path d="M123.1654 3.9962 L122.9946 4.3380 "/>
<path d="M122.9946 4.3380 L122.8237 4.5089 "/>
<path d="M122.8237 4.5089 L122.4819 4.6797 "/>
<path d="M122.4819 4.6797 L121.4566 4.6797 "/>
<path d="M121.4566 4.6797 L121.1148 4.5089 "/>
<path d="M121.1148 4.5089 L120.9440 4.3380 "/>
<path d="M125.3869 1.0912 L125.7287 1.0912 "/>
<path d="M125.7287 1.0912 L126.0705 1.2621 "/>
<path d="M126.0705 1.2621 L126.2414 1.4330 "/>
<path d="M126.2414 1.4330 L126.4122 1.7747 "/>
<path d="M126.4122 1.7747 L126.5831 2.4583 "/>
<path d="M126.5831 2.4583 L126.5831 3.3127 "/>
<path d="M126.5831 3.3127 L126.4122 3.9962 "/>
<path d="M126.4122 3.9962 L126.2414 4.3380 "/>
<path d="M126.2414 4.3380 L126.0705 4.5089 "/>
<path d="M126.0705 4.5089 L125.7287 4.6797 "/>
<path d="M125.7287 4.6797 L125.3869 4.6797 "/>
<path d="M125.3869 4.6797 L125.0452 4.5089 "/>
<path d="M125.0452 4.5089 L124.8743 4.3380 "/>
<path d="M124.8743 4.3380 L124.7034 3.9962 "/>
<path d="M124.7034 3.9962 L124.5325 3.3127 "/>
<path d="M124.5325 3.3127 L124.5325 2.4583 "/>
<path d="M124.5325 2.4583 L124.7034 1.7747 "/>
<path d="M124.7034 1.7747 L124.8743 1.4330 "/>
<path d="M124.8743 1.4330 L125.0452 1.2621 "/>
<path d="M125.0452 1.2621 L125.3869 1.0912 "/>
<path d="M128.1211 4.3380 L128.2920 4.5089 "/>
<path d="M128.2920 4.5089 L128.1211 4.6797 "/>
<path d="M128.1211 4.6797 L127.9502 4.5089 "/>
<path d="M127.9502 4.5089 L128.1211 4.3380 "/>
<path d="M128.1211 4.3380 L128.1211 4.6797 "/>
<path d="M131.3679 2.2874 L131.3679 4.6797 "/>
<path d="M130.5135 0.9203 L129.6590 3.4836 "/>
<path d="M129.6590 3.4836 L131.8805 3.4836 "/>
<path d="M133.7603 2.6291 L133.4185 2.4583 "/>
<path d="M133.4185 2.4583 L133.2476 2.2874 "/>
<path d="M133.2476 2.2874 L133.0767 1.9456 "/>
<path d="M133.0767 1.9456 L133.0767 1.7747 "/>
<path d="M133.0767 1.7747 L133.2476 1.4330 "/>
<path d="M133.2476 1.4330 L133.4185 1.2621 "/>
<path d="M133.4185 1.2621 L133.7603 1.0912 "/>
<path d="M133.7603 1.0912 L134.4438 1.0912 "/>
<path d="M134.4438 1.0912 L134.7856 1.2621 "/>
<path d="M134.7856 1.2621 L134.9564 1.4330 "/>
<path d="M134.9564 1.4330 L135.1273 1.7747 "/>
<path d="M135.1273 1.7747 L135.1273 1.9456 "/>
<path d="M135.1273 1.9456 L134.9564 2.2874 "/>
<path d="M134.9564 2.2874 L134.7856 2.4583 "/>
<path d="M134.7856 2.4583 L134.4438 2.6291 "/>
<path d="M134.4438 2.6291 L133.7603 2.6291 "/>
<path d="M133.7603 2.6291 L133.4185 2.8000 "/>
<path d="M133.4185 2.8000 L133.2476 2.9709 "/>
<path d="M133.2476 2.9709 L133.0767 3.3127 "/>
<path d="M133.0767 3.3127 L133.0767 3.9962 "/>
<path d="M133.0767 3.9962 L133.2476 4.3380 "/>
<path d="M133.2476 4.3380 L133.4185 4.5089 "/>
<path d="M133.4185 4.5089 L133.7603 4.6797 "/>
<path d="M133.7603 4.6797 L134.4438 4.6797 "/>
<path d="M134.4438 4.6797 L134.7856 4.5089 "/>
<path d="M134.7856 4.5089 L134.9564 4.3380 "/>
<path d="M134.9564 4.3380 L135.1273 3.9962 "/>
<path d="M135.1273 3.9962 L135.1273 3.3127 "/>
<path d="M135.1273 3.3127 L134.9564 2.9709 "/>
<path d="M134.9564 2.9709 L134.7856 2.8000 "/>
<path d="M134.7856 2.8000 L134.4438 2.6291 "/>
<path d="M137.3488 1.0912 L137.6906 1.0912 "/>
<path d="M137.6906 1.0912 L138.0323 1.2621 "/>
<path d="M138.0323 1.2621 L138.2032 1.4330 "/>
<path d="M138.2032 1.4330 L138.3741 1.7747 "/>
<path d="M138.3741 1.7747 L138.5450 2.4583 "/>
<path d="M138.5450 2.4583 L138.5450 3.3127 "/>
<path d="M138.5450 3.3127 L138.3741 3.9962 "/>
<path d="M138.3741 3.9962 L138.2032 4.3380 "/>
<path d="M138.2032 4.3380 L138.0323 4.5089 "/>
<path d="M138.0323 4.5089 L137.6906 4.6797 "/>
<path d="M137.6906 4.6797 L137.3488 4.6797 "/>
<path d="M137.3488 4.6797 L137.0070 4.5089 "/>
<path d="M137.0070 4.5089 L136.8362 4.3380 "/>
<path d="M136.8362 4.3380 L136.6653 3.9962 "/>
<path d="M136.6653 3.9962 L136.4944 3.3127 "/>
<path d="M136.4944 3.3127 L136.4944 2.4583 "/>
<path d="M136.4944 2.4583 L136.6653 1.7747 "/>
<path d="M136.6653 1.7747 L136.8362 1.4330 "/>
<path d="M136.8362 1.4330 L137.0070 1.2621 "/>
<path d="M137.0070 1.2621 L137.3488 1.0912 "/>
<path d="M140.7665 1.0912 L141.1083 1.0912 "/>
<path d="M141.1083 1.0912 L141.4500 1.2621 "/>
<path d="M141.4500 1.2621 L141.6209 1.4330 "/>
<path d="M141.6209 1.4330 L141.7918 1.7747 "/>
<path d="M141.7918 1.7747 L141.9627 2.4583 "/>
<path d="M141.9627 2.4583 L141.9627 3.3127 "/>
<path d="M141.9627 3.3127 L141.7918 3.9962 "/>
<path d="M141.7918 3.9962 L141.6209 4.3380 "/>
<path d="M141.6209 4.3380 L141.4500 4.5089 "/>
<path d="M141.4500 4.5089 L141.1083 4.6797 "/>
<path d="M141.1083 4.6797 L140.7665 4.6797 "/>
<path d="M140.7665 4.6797 L140.4247 4.5089 "/>
<path d="M140.4247 4.5089 L140.2538 4.3380 "/>
<path d="M140.2538 4.3380 L140.0830 3.9962 "/>
<path d="M140.0830 3.9962 L139.9121 3.3127 "/>
<path d="M139.9121 3.3127 L139.9121 2.4583 "/>
<path d="M139.9121 2.4583 L140.0830 1.7747 "/>
<path d="M140.0830 1.7747 L140.2538 1.4330 "/>
<path d="M140.2538 1.4330 L140.4247 1.2621 "/>
<path d="M140.4247 1.2621 L140.7665 1.0912 "/>
<path d="M146.2348 4.6797 L146.2348 2.2874 "/>
<path d="M146.2348 2.6291 L146.4057 2.4583 "/>
<path d="M146.4057 2.4583 L146.7474 2.2874 "/>
<path d="M146.7474 2.2874 L147.2601 2.2874 "/>
<path d="M147.2601 2.2874 L147.6019 2.4583 "/>
<path d="M147.6019 2.4583 L147.7727 2.8000 "/>
<path d="M147.7727 2.8000 L147.7727 4.6797 "/>
<path d="M147.7727 2.8000 L147.9436 2.4583 "/>
<path d="M147.9436 2.4583 L148.2854 2.2874 "/>
<path d="M148.2854 2.2874 L148.7980 2.2874 "/>
<path d="M148.7980 2.2874 L149.1398 2.4583 "/>
<path d="M149.1398 2.4583 L149.3107 2.8000 "/>
<path d="M149.3107 2.8000 L149.3107 4.6797 "/>
<path d="M151.0195 4.6797 L151.0195 2.2874 "/>
<path d="M151.0195 2.6291 L151.1904 2.4583 "/>
<path d="M151.1904 2.4583 L151.5322 2.2874 "/>
<path d="M151.5322 2.2874 L152.0448 2.2874 "/>
<path d="M152.0448 2.2874 L152.3866 2.4583 "/>
<path d="M152.3866 2.4583 L152.5575 2.8000 "/>
<path d="M152.5575 2.8000 L152.5575 4.6797 "/>
<path d="M152.5575 2.8000 L152.7284 2.4583 "/>
<path d="M152.7284 2.4583 L153.0701 2.2874 "/>
<path d="M153.0701 2.2874 L153.5828 2.2874 "/>
<path d="M153.5828 2.2874 L153.9246 2.4583 "/>
<path d="M153.9246 2.4583 L154.0954 2.8000 "/>
<path d="M154.0954 2.8000 L154.0954 4.6797 "/>
</g></g>
<g style="fill:#848484; fill-opacity:0.0;  stroke:#848484; stroke-width:0.3589; stroke-opacity:1;  stroke-linecap:round; stroke-linejoin:round;">
<path d="M83.0009 44.7826 L83.0009 5.0700 "/>
<path d="M192.3803 44.7826 L192.3803 5.0700 "/>
<path d="M83.0009 7.1744 L192.3803 7.1744 "/>
<path d="M83.0009 7.1744 L192.3803 7.1744 "/>
<path d="M83.0009 7.1744 L87.0434 5.0700 "/>
<path d="M83.0009 7.1744 L87.0434 9.2789 "/>
<path d="M192.3803 7.1744 L188.3377 9.2789 "/>
<path d="M192.3803 7.1744 L188.3377 5.0700 "/>
</g>
<g style="fill:#848484; fill-opacity:0.0;  stroke:#848484; stroke-width:0.5383; stroke-opacity:1;  stroke-linecap:round; stroke-linejoin:round;">
<g transform="rotate(-90.000000 223.2778 119.4965)">
<text x="223.2778" y="121.2907" textLength="35.4157" font-size="4.7847" lengthAdjust="spacingAndGlyphs" text-anchor="middle" opacity="0.01" style="font-family:monospace">40.6400 mm</text>
</g>
<g class="stroked-text"><desc>40.6400 mm</desc>
<path d="M222.5176 134.3634 L224.9100 134.3634 "/>
<path d="M221.1505 135.2178 L223.7138 136.0722 "/>
<path d="M223.7138 136.0722 L223.7138 133.8507 "/>
<path d="M221.3214 131.8001 L221.3214 131.4583 "/>
<path d="M221.3214 131.4583 L221.4923 131.1166 "/>
<path d="M221.4923 131.1166 L221.6632 130.9457 "/>
<path d="M221.6632 130.9457 L222.0049 130.7748 "/>
<path d="M222.0049 130.7748 L222.6885 130.6039 "/>
<path d="M222.6885 130.6039 L223.5429 130.6039 "/>
<path d="M223.5429 130.6039 L224.2264 130.7748 "/>
<path d="M224.2264 130.7748 L224.5682 130.9457 "/>
<path d="M224.5682 130.9457 L224.7391 131.1166 "/>
<path d="M224.7391 131.1166 L224.9100 131.4583 "/>
<path d="M224.9100 131.4583 L224.9100 131.8001 "/>
<path d="M224.9100 131.8001 L224.7391 132.1419 "/>
<path d="M224.7391 132.1419 L224.5682 132.3128 "/>
<path d="M224.5682 132.3128 L224.2264 132.4836 "/>
<path d="M224.2264 132.4836 L223.5429 132.6545 "/>
<path d="M223.5429 132.6545 L222.6885 132.6545 "/>
<path d="M222.6885 132.6545 L222.0049 132.4836 "/>
<path d="M222.0049 132.4836 L221.6632 132.3128 "/>
<path d="M221.6632 132.3128 L221.4923 132.1419 "/>
<path d="M221.4923 132.1419 L221.3214 131.8001 "/>
<path d="M224.5682 129.0660 L224.7391 128.8951 "/>
<path d="M224.7391 128.8951 L224.9100 129.0660 "/>
<path d="M224.9100 129.0660 L224.7391 129.2368 "/>
<path d="M224.7391 129.2368 L224.5682 129.0660 "/>
<path d="M224.5682 129.0660 L224.9100 129.0660 "/>
<path d="M221.3214 125.8192 L221.3214 126.5027 "/>
<path d="M221.3214 126.5027 L221.4923 126.8445 "/>
<path d="M221.4923 126.8445 L221.6632 127.0154 "/>
<path d="M221.6632 127.0154 L222.1758 127.3571 "/>
<path d="M222.1758 127.3571 L222.8593 127.5280 "/>
<path d="M222.8593 127.5280 L224.2264 127.5280 "/>
<path d="M224.2264 127.5280 L224.5682 127.3571 "/>
<path d="M224.5682 127.3571 L224.7391 127.1862 "/>
<path d="M224.7391 127.1862 L224.9100 126.8445 "/>
<path d="M224.9100 126.8445 L224.9100 126.1609 "/>
<path d="M224.9100 126.1609 L224.7391 125.8192 "/>
<path d="M224.7391 125.8192 L224.5682 125.6483 "/>
<path d="M224.5682 125.6483 L224.2264 125.4774 "/>
<path d="M224.2264 125.4774 L223.3720 125.4774 "/>
<path d="M223.3720 125.4774 L223.0302 125.6483 "/>
<path d="M223.0302 125.6483 L222.8593 125.8192 "/>
<path d="M222.8593 125.8192 L222.6885 126.1609 "/>
<path d="M222.6885 126.1609 L222.6885 126.8445 "/>
<path d="M222.6885 126.8445 L222.8593 127.1862 "/>
<path d="M222.8593 127.1862 L223.0302 127.3571 "/>
<path d="M223.0302 127.3571 L223.3720 127.5280 "/>
<path d="M222.5176 122.4015 L224.9100 122.4015 "/>
<path d="M221.1505 123.2559 L223.7138 124.1103 "/>
<path d="M223.7138 124.1103 L223.7138 121.8888 "/>
<path d="M221.3214 119.8382 L221.3214 119.4965 "/>
<path d="M221.3214 119.4965 L221.4923 119.1547 "/>
<path d="M221.4923 119.1547 L221.6632 118.9838 "/>
<path d="M221.6632 118.9838 L222.0049 118.8129 "/>
<path d="M222.0049 118.8129 L222.6885 118.6420 "/>
<path d="M222.6885 118.6420 L223.5429 118.6420 "/>
<path d="M223.5429 118.6420 L224.2264 118.8129 "/>
<path d="M224.2264 118.8129 L224.5682 118.9838 "/>
<path d="M224.5682 118.9838 L224.7391 119.1547 "/>
<path d="M224.7391 119.1547 L224.9100 119.4965 "/>
<path d="M224.9100 119.4965 L224.9100 119.8382 "/>
<path d="M224.9100 119.8382 L224.7391 120.1800 "/>
<path d="M224.7391 120.1800 L224.5682 120.3509 "/>
<path d="M224.5682 120.3509 L224.2264 120.5218 "/>
<path d="M224.2264 120.5218 L223.5429 120.6926 "/>
<path d="M223.5429 120.6926 L222.6885 120.6926 "/>
<path d="M222.6885 120.6926 L222.0049 120.5218 "/>
<path d="M222.0049 120.5218 L221.6632 120.3509 "/>
<path d="M221.6632 120.3509 L221.4923 120.1800 "/>
<path d="M221.4923 120.1800 L221.3214 119.8382 "/>
<path d="M221.3214 116.4205 L221.3214 116.0788 "/>
<path d="M221.3214 116.0788 L221.4923 115.7370 "/>
<path d="M221.4923 115.7370 L221.6632 115.5661 "/>
<path d="M221.6632 115.5661 L222.0049 115.3952 "/>
<path d="M222.0049 115.3952 L222.6885 115.2244 "/>
<path d="M222.6885 115.2244 L223.5429 115.2244 "/>
<path d="M223.5429 115.2244 L224.2264 115.3952 "/>
<path d="M224.2264 115.3952 L224.5682 115.5661 "/>
<path d="M224.5682 115.5661 L224.7391 115.7370 "/>
<path d="M224.7391 115.7370 L224.9100 116.0788 "/>
<path d="M224.9100 116.0788 L224.9100 116.4205 "/>
<path d="M224.9100 116.4205 L224.7391 116.7623 "/>
<path d="M224.7391 116.7623 L224.5682 116.9332 "/>
<path d="M224.5682 116.9332 L224.2264 117.1041 "/>
<path d="M224.2264 117.1041 L223.5429 117.2750 "/>
<path d="M223.5429 117.2750 L222.6885 117.2750 "/>
<path d="M222.6885 117.2750 L222.0049 117.1041 "/>
<path d="M222.0049 117.1041 L221.6632 116.9332 "/>
<path d="M221.6632 116.9332 L221.4923 116.7623 "/>
<path d="M221.4923 116.7623 L221.3214 116.4205 "/>
<path d="M224.9100 110.9523 L222.5176 110.9523 "/>
<path d="M222.8593 110.9523 L222.6885 110.7814 "/>
<path d="M222.6885 110.7814 L222.5176 110.4396 "/>
<path d="M222.5176 110.4396 L222.5176 109.9270 "/>
<path d="M222.5176 109.9270 L222.6885 109.5852 "/>
<path d="M222.6885 109.5852 L223.0302 109.4143 "/>
<path d="M223.0302 109.4143 L224.9100 109.4143 "/>
<path d="M223.0302 109.4143 L222.6885 109.2434 "/>
<path d="M222.6885 109.2434 L222.5176 108.9017 "/>
<path d="M222.5176 108.9017 L222.5176 108.3890 "/>
<path d="M222.5176 108.3890 L222.6885 108.0472 "/>
<path d="M222.6885 108.0472 L223.0302 107.8763 "/>
<path d="M223.0302 107.8763 L224.9100 107.8763 "/>
<path d="M224.9100 106.1675 L222.5176 106.1675 "/>
<path d="M222.8593 106.1675 L222.6885 105.9966 "/>
<path d="M222.6885 105.9966 L222.5176 105.6549 "/>
<path d="M222.5176 105.6549 L222.5176 105.1422 "/>
<path d="M222.5176 105.1422 L222.6885 104.8004 "/>
<path d="M222.6885 104.8004 L223.0302 104.6296 "/>
<path d="M223.0302 104.6296 L224.9100 104.6296 "/>
<path d="M223.0302 104.6296 L222.6885 104.4587 "/>
<path d="M222.6885 104.4587 L222.5176 104.1169 "/>
<path d="M222.5176 104.1169 L222.5176 103.6043 "/>
<path d="M222.5176 103.6043 L222.6885 103.2625 "/>
<path d="M222.6885 103.2625 L223.0302 103.0916 "/>
<path d="M223.0302 103.0916 L224.9100 103.0916 "/>
</g></g>
<g style="fill:#848484; fill-opacity:0.0;  stroke:#848484; stroke-width:0.3589; stroke-opacity:1;  stroke-linecap:round; stroke-linejoin:round;">
<path d="M194.1746 46.5769 L229.5091 46.5769 "/>
<path d="M194.1746 192.4161 L229.5091 192.4161 "/>
<path d="M227.4047 46.5769 L227.4047 192.4161 "/>
<path d="M227.4047 46.5769 L227.4047 192.4161 "/>
<path d="M227.4047 46.5769 L229.5091 50.6194 "/>
<path d="M227.4047 46.5769 L225.3002 50.6194 "/>
<path d="M227.4047 192.4161 L225.3002 188.3735 "/>
<path d="M227.4047 192.4161 L229.5091 188.3735 "/>
</g>
<g style="fill:#848484; fill-opacity:0.01;  stroke:#848484; stroke-width:0.5383; stroke-opacity:1;  stroke-linecap:round; stroke-linejoin:round;">
<text x="173.5762" y="71.0509" textLength="49.9408" font-size="4.7847" lengthAdjust="spacingAndGlyphs" text-anchor="middle" opacity="0.01" style="font-family:monospace">WAGO_2604-3102</text>
<g class="stroked-text"><desc>WAGO_2604-3102</desc>
<path d="M149.5670 67.3002 L150.4214 70.8887 "/>
<path d="M150.4214 70.8887 L151.1050 68.3255 "/>
<path d="M151.1050 68.3255 L151.7885 70.8887 "/>
<path d="M151.7885 70.8887 L152.6429 67.3002 "/>
<path d="M153.8391 69.8634 L155.5480 69.8634 "/>
<path d="M153.4973 70.8887 L154.6935 67.3002 "/>
<path d="M154.6935 67.3002 L155.8897 70.8887 "/>
<path d="M158.9656 67.4711 L158.6239 67.3002 "/>
<path d="M158.6239 67.3002 L158.1112 67.3002 "/>
<path d="M158.1112 67.3002 L157.5986 67.4711 "/>
<path d="M157.5986 67.4711 L157.2568 67.8128 "/>
<path d="M157.2568 67.8128 L157.0859 68.1546 "/>
<path d="M157.0859 68.1546 L156.9150 68.8381 "/>
<path d="M156.9150 68.8381 L156.9150 69.3508 "/>
<path d="M156.9150 69.3508 L157.0859 70.0343 "/>
<path d="M157.0859 70.0343 L157.2568 70.3761 "/>
<path d="M157.2568 70.3761 L157.5986 70.7178 "/>
<path d="M157.5986 70.7178 L158.1112 70.8887 "/>
<path d="M158.1112 70.8887 L158.4530 70.8887 "/>
<path d="M158.4530 70.8887 L158.9656 70.7178 "/>
<path d="M158.9656 70.7178 L159.1365 70.5470 "/>
<path d="M159.1365 70.5470 L159.1365 69.3508 "/>
<path d="M159.1365 69.3508 L158.4530 69.3508 "/>
<path d="M161.3580 67.3002 L162.0415 67.3002 "/>
<path d="M162.0415 67.3002 L162.3833 67.4711 "/>
<path d="M162.3833 67.4711 L162.7251 67.8128 "/>
<path d="M162.7251 67.8128 L162.8960 68.4964 "/>
<path d="M162.8960 68.4964 L162.8960 69.6925 "/>
<path d="M162.8960 69.6925 L162.7251 70.3761 "/>
<path d="M162.7251 70.3761 L162.3833 70.7178 "/>
<path d="M162.3833 70.7178 L162.0415 70.8887 "/>
<path d="M162.0415 70.8887 L161.3580 70.8887 "/>
<path d="M161.3580 70.8887 L161.0162 70.7178 "/>
<path d="M161.0162 70.7178 L160.6745 70.3761 "/>
<path d="M160.6745 70.3761 L160.5036 69.6925 "/>
<path d="M160.5036 69.6925 L160.5036 68.4964 "/>
<path d="M160.5036 68.4964 L160.6745 67.8128 "/>
<path d="M160.6745 67.8128 L161.0162 67.4711 "/>
<path d="M161.0162 67.4711 L161.3580 67.3002 "/>
<path d="M163.5795 71.2305 L166.3136 71.2305 "/>
<path d="M166.9972 67.6419 L167.1681 67.4711 "/>
<path d="M167.1681 67.4711 L167.5098 67.3002 "/>
<path d="M167.5098 67.3002 L168.3642 67.3002 "/>
<path d="M168.3642 67.3002 L168.7060 67.4711 "/>
<path d="M168.7060 67.4711 L168.8769 67.6419 "/>
<path d="M168.8769 67.6419 L169.0478 67.9837 "/>
<path d="M169.0478 67.9837 L169.0478 68.3255 "/>
<path d="M169.0478 68.3255 L168.8769 68.8381 "/>
<path d="M168.8769 68.8381 L166.8263 70.8887 "/>
<path d="M166.8263 70.8887 L169.0478 70.8887 "/>
<path d="M172.1237 67.3002 L171.4402 67.3002 "/>
<path d="M171.4402 67.3002 L171.0984 67.4711 "/>
<path d="M171.0984 67.4711 L170.9275 67.6419 "/>
<path d="M170.9275 67.6419 L170.5857 68.1546 "/>
<path d="M170.5857 68.1546 L170.4149 68.8381 "/>
<path d="M170.4149 68.8381 L170.4149 70.2052 "/>
<path d="M170.4149 70.2052 L170.5857 70.5470 "/>
<path d="M170.5857 70.5470 L170.7566 70.7178 "/>
<path d="M170.7566 70.7178 L171.0984 70.8887 "/>
<path d="M171.0984 70.8887 L171.7819 70.8887 "/>
<path d="M171.7819 70.8887 L172.1237 70.7178 "/>
<path d="M172.1237 70.7178 L172.2946 70.5470 "/>
<path d="M172.2946 70.5470 L172.4655 70.2052 "/>
<path d="M172.4655 70.2052 L172.4655 69.3508 "/>
<path d="M172.4655 69.3508 L172.2946 69.0090 "/>
<path d="M172.2946 69.0090 L172.1237 68.8381 "/>
<path d="M172.1237 68.8381 L171.7819 68.6672 "/>
<path d="M171.7819 68.6672 L171.0984 68.6672 "/>
<path d="M171.0984 68.6672 L170.7566 68.8381 "/>
<path d="M170.7566 68.8381 L170.5857 69.0090 "/>
<path d="M170.5857 69.0090 L170.4149 69.3508 "/>
<path d="M174.6870 67.3002 L175.0287 67.3002 "/>
<path d="M175.0287 67.3002 L175.3705 67.4711 "/>
<path d="M175.3705 67.4711 L175.5414 67.6419 "/>
<path d="M175.5414 67.6419 L175.7123 67.9837 "/>
<path d="M175.7123 67.9837 L175.8831 68.6672 "/>
<path d="M175.8831 68.6672 L175.8831 69.5217 "/>
<path d="M175.8831 69.5217 L175.7123 70.2052 "/>
<path d="M175.7123 70.2052 L175.5414 70.5470 "/>
<path d="M175.5414 70.5470 L175.3705 70.7178 "/>
<path d="M175.3705 70.7178 L175.0287 70.8887 "/>
<path d="M175.0287 70.8887 L174.6870 70.8887 "/>
<path d="M174.6870 70.8887 L174.3452 70.7178 "/>
<path d="M174.3452 70.7178 L174.1743 70.5470 "/>
<path d="M174.1743 70.5470 L174.0034 70.2052 "/>
<path d="M174.0034 70.2052 L173.8325 69.5217 "/>
<path d="M173.8325 69.5217 L173.8325 68.6672 "/>
<path d="M173.8325 68.6672 L174.0034 67.9837 "/>
<path d="M174.0034 67.9837 L174.1743 67.6419 "/>
<path d="M174.1743 67.6419 L174.3452 67.4711 "/>
<path d="M174.3452 67.4711 L174.6870 67.3002 "/>
<path d="M178.9591 68.4964 L178.9591 70.8887 "/>
<path d="M178.1046 67.1293 L177.2502 69.6925 "/>
<path d="M177.2502 69.6925 L179.4717 69.6925 "/>
<path d="M180.8388 69.5217 L183.5729 69.5217 "/>
<path d="M184.9400 67.3002 L187.1615 67.3002 "/>
<path d="M187.1615 67.3002 L185.9653 68.6672 "/>
<path d="M185.9653 68.6672 L186.4779 68.6672 "/>
<path d="M186.4779 68.6672 L186.8197 68.8381 "/>
<path d="M186.8197 68.8381 L186.9906 69.0090 "/>
<path d="M186.9906 69.0090 L187.1615 69.3508 "/>
<path d="M187.1615 69.3508 L187.1615 70.2052 "/>
<path d="M187.1615 70.2052 L186.9906 70.5470 "/>
<path d="M186.9906 70.5470 L186.8197 70.7178 "/>
<path d="M186.8197 70.7178 L186.4779 70.8887 "/>
<path d="M186.4779 70.8887 L185.4526 70.8887 "/>
<path d="M185.4526 70.8887 L185.1109 70.7178 "/>
<path d="M185.1109 70.7178 L184.9400 70.5470 "/>
<path d="M190.5792 70.8887 L188.5286 70.8887 "/>
<path d="M189.5539 70.8887 L189.5539 67.3002 "/>
<path d="M189.5539 67.3002 L189.2121 67.8128 "/>
<path d="M189.2121 67.8128 L188.8703 68.1546 "/>
<path d="M188.8703 68.1546 L188.5286 68.3255 "/>
<path d="M192.8007 67.3002 L193.1424 67.3002 "/>
<path d="M193.1424 67.3002 L193.4842 67.4711 "/>
<path d="M193.4842 67.4711 L193.6551 67.6419 "/>
<path d="M193.6551 67.6419 L193.8260 67.9837 "/>
<path d="M193.8260 67.9837 L193.9968 68.6672 "/>
<path d="M193.9968 68.6672 L193.9968 69.5217 "/>
<path d="M193.9968 69.5217 L193.8260 70.2052 "/>
<path d="M193.8260 70.2052 L193.6551 70.5470 "/>
<path d="M193.6551 70.5470 L193.4842 70.7178 "/>
<path d="M193.4842 70.7178 L193.1424 70.8887 "/>
<path d="M193.1424 70.8887 L192.8007 70.8887 "/>
<path d="M192.8007 70.8887 L192.4589 70.7178 "/>
<path d="M192.4589 70.7178 L192.2880 70.5470 "/>
<path d="M192.2880 70.5470 L192.1171 70.2052 "/>
<path d="M192.1171 70.2052 L191.9462 69.5217 "/>
<path d="M191.9462 69.5217 L191.9462 68.6672 "/>
<path d="M191.9462 68.6672 L192.1171 67.9837 "/>
<path d="M192.1171 67.9837 L192.2880 67.6419 "/>
<path d="M192.2880 67.6419 L192.4589 67.4711 "/>
<path d="M192.4589 67.4711 L192.8007 67.3002 "/>
<path d="M195.3639 67.6419 L195.5348 67.4711 "/>
<path d="M195.5348 67.4711 L195.8766 67.3002 "/>
<path d="M195.8766 67.3002 L196.7310 67.3002 "/>
<path d="M196.7310 67.3002 L197.0728 67.4711 "/>
<path d="M197.0728 67.4711 L197.2436 67.6419 "/>
<path d="M197.2436 67.6419 L197.4145 67.9837 "/>
<path d="M197.4145 67.9837 L197.4145 68.3255 "/>
<path d="M197.4145 68.3255 L197.2436 68.8381 "/>
<path d="M197.2436 68.8381 L195.1930 70.8887 "/>
<path d="M195.1930 70.8887 L197.4145 70.8887 "/>
</g><g transform="rotate(-270.000000 179.6768 86.4817)">
<text x="179.6768" y="88.2760" textLength="7.0490" font-size="4.7847" lengthAdjust="spacingAndGlyphs" text-anchor="middle" opacity="0.01" style="font-family:monospace">J7</text>
</g>
<g class="stroked-text"><desc>J7</desc>
<path d="M181.6332 85.2855 L179.0699 85.2855 "/>
<path d="M179.0699 85.2855 L178.5573 85.1146 "/>
<path d="M178.5573 85.1146 L178.2155 84.7728 "/>
<path d="M178.2155 84.7728 L178.0446 84.2602 "/>
<path d="M178.0446 84.2602 L178.0446 83.9184 "/>
<path d="M181.6332 86.6526 L181.6332 89.0449 "/>
<path d="M181.6332 89.0449 L178.0446 87.5070 "/>
</g><text x="137.6726" y="47.2587" textLength="7.0490" font-size="4.7847" lengthAdjust="spacingAndGlyphs" text-anchor="middle" opacity="0.01" style="font-family:monospace">J2</text>
<g class="stroked-text"><desc>J2</desc>
<path d="M136.4764 43.5080 L136.4764 46.0713 "/>
<path d="M136.4764 46.0713 L136.3056 46.5839 "/>
<path d="M136.3056 46.5839 L135.9638 46.9257 "/>
<path d="M135.9638 46.9257 L135.4511 47.0966 "/>
<path d="M135.4511 47.0966 L135.1094 47.0966 "/>
<path d="M138.0144 43.8498 L138.1853 43.6789 "/>
<path d="M138.1853 43.6789 L138.5271 43.5080 "/>
<path d="M138.5271 43.5080 L139.3815 43.5080 "/>
<path d="M139.3815 43.5080 L139.7232 43.6789 "/>
<path d="M139.7232 43.6789 L139.8941 43.8498 "/>
<path d="M139.8941 43.8498 L140.0650 44.1915 "/>
<path d="M140.0650 44.1915 L140.0650 44.5333 "/>
<path d="M140.0650 44.5333 L139.8941 45.0460 "/>
<path d="M139.8941 45.0460 L137.8435 47.0966 "/>
<path d="M137.8435 47.0966 L140.0650 47.0966 "/>
</g><g transform="rotate(-90.000000 108.9821 76.2902)">
<text x="108.9821" y="78.0844" textLength="10.6375" font-size="4.7847" lengthAdjust="spacingAndGlyphs" text-anchor="middle" opacity="0.01" style="font-family:monospace">JP3</text>
</g>
<g class="stroked-text"><desc>JP3</desc>
<path d="M107.0257 79.2806 L109.5889 79.2806 "/>
<path d="M109.5889 79.2806 L110.1016 79.4515 "/>
<path d="M110.1016 79.4515 L110.4433 79.7933 "/>
<path d="M110.4433 79.7933 L110.6142 80.3059 "/>
<path d="M110.6142 80.3059 L110.6142 80.6477 "/>
<path d="M110.6142 77.5718 L107.0257 77.5718 "/>
<path d="M107.0257 77.5718 L107.0257 76.2047 "/>
<path d="M107.0257 76.2047 L107.1965 75.8630 "/>
<path d="M107.1965 75.8630 L107.3674 75.6921 "/>
<path d="M107.3674 75.6921 L107.7092 75.5212 "/>
<path d="M107.7092 75.5212 L108.2218 75.5212 "/>
<path d="M108.2218 75.5212 L108.5636 75.6921 "/>
<path d="M108.5636 75.6921 L108.7345 75.8630 "/>
<path d="M108.7345 75.8630 L108.9054 76.2047 "/>
<path d="M108.9054 76.2047 L108.9054 77.5718 "/>
<path d="M107.0257 74.3250 L107.0257 72.1035 "/>
<path d="M107.0257 72.1035 L108.3927 73.2997 "/>
<path d="M108.3927 73.2997 L108.3927 72.7870 "/>
<path d="M108.3927 72.7870 L108.5636 72.4453 "/>
<path d="M108.5636 72.4453 L108.7345 72.2744 "/>
<path d="M108.7345 72.2744 L109.0763 72.1035 "/>
<path d="M109.0763 72.1035 L109.9307 72.1035 "/>
<path d="M109.9307 72.1035 L110.2725 72.2744 "/>
<path d="M110.2725 72.2744 L110.4433 72.4453 "/>
<path d="M110.4433 72.4453 L110.6142 72.7870 "/>
<path d="M110.6142 72.7870 L110.6142 73.8123 "/>
<path d="M110.6142 73.8123 L110.4433 74.1541 "/>
<path d="M110.4433 74.1541 L110.2725 74.3250 "/>
</g><g transform="rotate(-90.000000 80.0224 77.4565)">
<text x="80.0224" y="79.2507" textLength="7.0490" font-size="4.7847" lengthAdjust="spacingAndGlyphs" text-anchor="middle" opacity="0.01" style="font-family:monospace">J4</text>
</g>
<g class="stroked-text"><desc>J4</desc>
<path d="M78.0660 78.6526 L80.6292 78.6526 "/>
<path d="M80.6292 78.6526 L81.1419 78.8235 "/>
<path d="M81.1419 78.8235 L81.4836 79.1653 "/>
<path d="M81.4836 79.1653 L81.6545 79.6779 "/>
<path d="M81.6545 79.6779 L81.6545 80.0197 "/>
<path d="M79.2621 75.4058 L81.6545 75.4058 "/>
<path d="M77.8951 76.2603 L80.4583 77.1147 "/>
<path d="M80.4583 77.1147 L80.4583 74.8932 "/>
</g><text x="137.2241" y="171.2077" textLength="7.0490" font-size="4.7847" lengthAdjust="spacingAndGlyphs" text-anchor="middle" opacity="0.01" style="font-family:monospace">J5</text>
<g class="stroked-text"><desc>J5</desc>
<path d="M136.0279 167.4570 L136.0279 170.0202 "/>
<path d="M136.0279 170.0202 L135.8570 170.5329 "/>
<path d="M135.8570 170.5329 L135.5152 170.8746 "/>
<path d="M135.5152 170.8746 L135.0026 171.0455 "/>
<path d="M135.0026 171.0455 L134.6608 171.0455 "/>
<path d="M139.4456 167.4570 L137.7367 167.4570 "/>
<path d="M137.7367 167.4570 L137.5658 169.1658 "/>
<path d="M137.5658 169.1658 L137.7367 168.9949 "/>
<path d="M137.7367 168.9949 L138.0785 168.8240 "/>
<path d="M138.0785 168.8240 L138.9329 168.8240 "/>
<path d="M138.9329 168.8240 L139.2747 168.9949 "/>
<path d="M139.2747 168.9949 L139.4456 169.1658 "/>
<path d="M139.4456 169.1658 L139.6164 169.5076 "/>
<path d="M139.6164 169.5076 L139.6164 170.3620 "/>
<path d="M139.6164 170.3620 L139.4456 170.7037 "/>
<path d="M139.4456 170.7037 L139.2747 170.8746 "/>
<path d="M139.2747 170.8746 L138.9329 171.0455 "/>
<path d="M138.9329 171.0455 L138.0785 171.0455 "/>
<path d="M138.0785 171.0455 L137.7367 170.8746 "/>
<path d="M137.7367 170.8746 L137.5658 170.7037 "/>
</g><g transform="rotate(-90.000000 194.6411 156.0639)">
<text x="194.6411" y="157.8582" textLength="7.0490" font-size="4.7847" lengthAdjust="spacingAndGlyphs" text-anchor="middle" opacity="0.01" style="font-family:monospace">J3</text>
</g>
<g class="stroked-text"><desc>J3</desc>
<path d="M192.6847 157.2601 L195.2479 157.2601 "/>
<path d="M195.2479 157.2601 L195.7606 157.4310 "/>
<path d="M195.7606 157.4310 L196.1023 157.7728 "/>
<path d="M196.1023 157.7728 L196.2732 158.2854 "/>
<path d="M196.2732 158.2854 L196.2732 158.6272 "/>
<path d="M192.6847 155.8930 L192.6847 153.6715 "/>
<path d="M192.6847 153.6715 L194.0517 154.8677 "/>
<path d="M194.0517 154.8677 L194.0517 154.3551 "/>
<path d="M194.0517 154.3551 L194.2226 154.0133 "/>
<path d="M194.2226 154.0133 L194.3935 153.8424 "/>
<path d="M194.3935 153.8424 L194.7353 153.6715 "/>
<path d="M194.7353 153.6715 L195.5897 153.6715 "/>
<path d="M195.5897 153.6715 L195.9314 153.8424 "/>
<path d="M195.9314 153.8424 L196.1023 154.0133 "/>
<path d="M196.1023 154.0133 L196.2732 154.3551 "/>
<path d="M196.2732 154.3551 L196.2732 155.3804 "/>
<path d="M196.2732 155.3804 L196.1023 155.7221 "/>
<path d="M196.1023 155.7221 L195.9314 155.8930 "/>
</g><g transform="rotate(-90.000000 102.2535 139.5027)">
<text x="102.2535" y="141.2970" textLength="7.0490" font-size="4.7847" lengthAdjust="spacingAndGlyphs" text-anchor="middle" opacity="0.01" style="font-family:monospace">J6</text>
</g>
<g class="stroked-text"><desc>J6</desc>
<path d="M100.2971 140.6989 L102.8604 140.6989 "/>
<path d="M102.8604 140.6989 L103.3730 140.8698 "/>
<path d="M103.3730 140.8698 L103.7148 141.2115 "/>
<path d="M103.7148 141.2115 L103.8857 141.7242 "/>
<path d="M103.8857 141.7242 L103.8857 142.0660 "/>
<path d="M100.2971 137.4521 L100.2971 138.1356 "/>
<path d="M100.2971 138.1356 L100.4680 138.4774 "/>
<path d="M100.4680 138.4774 L100.6389 138.6483 "/>
<path d="M100.6389 138.6483 L101.1515 138.9900 "/>
<path d="M101.1515 138.9900 L101.8351 139.1609 "/>
<path d="M101.8351 139.1609 L103.2021 139.1609 "/>
<path d="M103.2021 139.1609 L103.5439 138.9900 "/>
<path d="M103.5439 138.9900 L103.7148 138.8192 "/>
<path d="M103.7148 138.8192 L103.8857 138.4774 "/>
<path d="M103.8857 138.4774 L103.8857 137.7939 "/>
<path d="M103.8857 137.7939 L103.7148 137.4521 "/>
<path d="M103.7148 137.4521 L103.5439 137.2812 "/>
<path d="M103.5439 137.2812 L103.2021 137.1103 "/>
<path d="M103.2021 137.1103 L102.3477 137.1103 "/>
<path d="M102.3477 137.1103 L102.0059 137.2812 "/>
<path d="M102.0059 137.2812 L101.8351 137.4521 "/>
<path d="M101.8351 137.4521 L101.6642 137.7939 "/>
<path d="M101.6642 137.7939 L101.6642 138.4774 "/>
<path d="M101.6642 138.4774 L101.8351 138.8192 "/>
<path d="M101.8351 138.8192 L102.0059 138.9900 "/>
<path d="M102.0059 138.9900 L102.3477 139.1609 "/>
</g><text x="118.2047" y="100.8359" textLength="10.6375" font-size="4.7847" lengthAdjust="spacingAndGlyphs" text-anchor="middle" opacity="0.01" style="font-family:monospace">JP1</text>
<g class="stroked-text"><desc>JP1</desc>
<path d="M115.2142 97.0852 L115.2142 99.6485 "/>
<path d="M115.2142 99.6485 L115.0433 100.1611 "/>
<path d="M115.0433 100.1611 L114.7016 100.5029 "/>
<path d="M114.7016 100.5029 L114.1889 100.6738 "/>
<path d="M114.1889 100.6738 L113.8471 100.6738 "/>
<path d="M116.9231 100.6738 L116.9231 97.0852 "/>
<path d="M116.9231 97.0852 L118.2901 97.0852 "/>
<path d="M118.2901 97.0852 L118.6319 97.2561 "/>
<path d="M118.6319 97.2561 L118.8028 97.4270 "/>
<path d="M118.8028 97.4270 L118.9737 97.7688 "/>
<path d="M118.9737 97.7688 L118.9737 98.2814 "/>
<path d="M118.9737 98.2814 L118.8028 98.6232 "/>
<path d="M118.8028 98.6232 L118.6319 98.7941 "/>
<path d="M118.6319 98.7941 L118.2901 98.9650 "/>
<path d="M118.2901 98.9650 L116.9231 98.9650 "/>
<path d="M122.3913 100.6738 L120.3407 100.6738 "/>
<path d="M121.3660 100.6738 L121.3660 97.0852 "/>
<path d="M121.3660 97.0852 L121.0243 97.5979 "/>
<path d="M121.0243 97.5979 L120.6825 97.9397 "/>
<path d="M120.6825 97.9397 L120.3407 98.1105 "/>
</g><g transform="rotate(-180.000000 91.2438 130.0799)">
<text x="91.2438" y="131.8741" transform="scale(-1 1) translate(-182.487627 0)" textLength="4.4857" font-size="4.7847" lengthAdjust="spacingAndGlyphs" text-anchor="middle" opacity="0.01" style="font-family:monospace">K</text>
</g>
<g class="stroked-text"><desc>K</desc>
<path d="M90.3040 128.4477 L90.3040 132.0363 "/>
<path d="M92.3546 128.4477 L90.8166 130.4983 "/>
<path d="M92.3546 132.0363 L90.3040 129.9857 "/>
</g><g transform="rotate(-180.000000 91.2079 148.5011)">
<text x="91.2079" y="150.2954" transform="scale(-1 1) translate(-182.415855 0)" textLength="4.4857" font-size="4.7847" lengthAdjust="spacingAndGlyphs" text-anchor="middle" opacity="0.01" style="font-family:monospace">K</text>
</g>
<g class="stroked-text"><desc>K</desc>
<path d="M90.2681 146.8690 L90.2681 150.4576 "/>
<path d="M92.3187 146.8690 L90.7807 148.9196 "/>
<path d="M92.3187 150.4576 L90.2681 148.4069 "/>
</g><g transform="rotate(-180.000000 91.2438 139.2905)">
<text x="91.2438" y="141.0848" transform="scale(-1 1) translate(-182.487627 0)" textLength="4.4857" font-size="4.7847" lengthAdjust="spacingAndGlyphs" text-anchor="middle" opacity="0.01" style="font-family:monospace">K</text>
</g>
<g class="stroked-text"><desc>K</desc>
<path d="M90.3040 137.6583 L90.3040 141.2469 "/>
<path d="M92.3546 137.6583 L90.8166 139.7090 "/>
<path d="M92.3546 141.2469 L90.3040 139.1963 "/>
</g><g transform="rotate(-180.000000 91.1182 112.0114)">
<text x="91.1182" y="113.8057" transform="scale(-1 1) translate(-182.236427 0)" textLength="4.4857" font-size="4.7847" lengthAdjust="spacingAndGlyphs" text-anchor="middle" opacity="0.01" style="font-family:monospace">K</text>
</g>
<g class="stroked-text"><desc>K</desc>
<path d="M90.1784 110.3793 L90.1784 113.9679 "/>
<path d="M92.2290 110.3793 L90.6910 112.4299 "/>
<path d="M92.2290 113.9679 L90.1784 111.9172 "/>
</g><g transform="rotate(-180.000000 91.1541 157.7118)">
<text x="91.1541" y="159.5061" transform="scale(-1 1) translate(-182.308198 0)" textLength="4.4857" font-size="4.7847" lengthAdjust="spacingAndGlyphs" text-anchor="middle" opacity="0.01" style="font-family:monospace">K</text>
</g>
<g class="stroked-text"><desc>K</desc>
<path d="M90.2142 156.0796 L90.2142 159.6682 "/>
<path d="M92.2648 156.0796 L90.7269 158.1302 "/>
<path d="M92.2648 159.6682 L90.2142 157.6176 "/>
</g></g>
<g style="fill:#848484; fill-opacity:0.0;  stroke:#848484; stroke-width:0.3589; stroke-opacity:1;  stroke-linecap:round; stroke-linejoin:round;">
<path d="M205.1556 63.8737 L205.1556 108.3719 "/>
<path d="M145.2266 63.8737 L205.1556 63.8737 "/>
<path d="M205.1556 73.5629 L201.2081 77.5103 "/>
<path d="M201.2081 77.5103 L205.1556 81.4577 "/>
<path d="M205.1556 108.3719 L145.2266 108.3719 "/>
<path d="M145.2266 108.3719 L145.2266 63.8737 "/>
</g>
<g style="fill:#848484; fill-opacity:0.0;  stroke:#848484; stroke-width:1.3672; stroke-opacity:1;  stroke-linecap:round; stroke-linejoin:round;">
<circle cx="83.0009" cy="192.4161" r="10.7648"/> 
</g>
<g style="fill:#848484; fill-opacity:0.0;  stroke:#848484; stroke-width:0.3589; stroke-opacity:1;  stroke-linecap:round; stroke-linejoin:round;">
<path d="M155.9025 36.3495 L160.4600 40.9069 "/>
<path d="M114.8853 36.3495 L155.9025 36.3495 "/>
<path d="M160.4600 40.9069 L160.4600 54.5794 "/>
<path d="M160.4600 54.5794 L114.8853 54.5794 "/>
<path d="M114.8853 54.5794 L114.8853 36.3495 "/>
<path d="M113.5396 87.6839 L111.2608 89.9626 "/>
<path d="M113.5396 62.6177 L113.5396 87.6839 "/>
<path d="M111.2608 89.9626 L104.4246 89.9626 "/>
<path d="M104.4246 89.9626 L104.4246 62.6177 "/>
<path d="M104.4246 62.6177 L113.5396 62.6177 "/>
<path d="M89.1373 86.5714 L84.5799 91.1289 "/>
<path d="M89.1373 63.7840 L89.1373 86.5714 "/>
<path d="M84.5799 91.1289 L70.9074 91.1289 "/>
<path d="M70.9074 91.1289 L70.9074 63.7840 "/>
<path d="M70.9074 63.7840 L89.1373 63.7840 "/>
<path d="M128.1091 169.4134 L132.6666 164.8559 "/>
<path d="M128.1091 173.9708 L128.1091 169.4134 "/>
<path d="M132.6666 164.8559 L146.3390 164.8559 "/>
<path d="M146.3390 164.8559 L146.3390 173.9708 "/>
<path d="M146.3390 173.9708 L128.1091 173.9708 "/>
</g>
<g style="fill:#848484; fill-opacity:0.0;  stroke:#848484; stroke-width:1.3672; stroke-opacity:1;  stroke-linecap:round; stroke-linejoin:round;">
<circle cx="192.3803" cy="46.5769" r="10.7648"/> 
<circle cx="83.0009" cy="46.5769" r="10.7648"/> 
</g>
<g style="fill:#848484; fill-opacity:0.0;  stroke:#848484; stroke-width:0.3589; stroke-opacity:1;  stroke-linecap:round; stroke-linejoin:round;">
<path d="M185.5261 142.3915 L190.0836 137.8340 "/>
<path d="M185.5261 174.2938 L185.5261 142.3915 "/>
<path d="M190.0836 137.8340 L203.7560 137.8340 "/>
<path d="M203.7560 137.8340 L203.7560 174.2938 "/>
<path d="M203.7560 174.2938 L185.5261 174.2938 "/>
<path d="M93.1386 112.1579 L97.6960 107.6004 "/>
<path d="M93.1386 171.4050 L93.1386 112.1579 "/>
<path d="M97.6960 107.6004 L111.3685 107.6004 "/>
<path d="M111.3685 107.6004 L111.3685 171.4050 "/>
<path d="M111.3685 171.4050 L93.1386 171.4050 "/>
</g>
<g style="fill:#848484; fill-opacity:0.0;  stroke:#848484; stroke-width:1.3672; stroke-opacity:1;  stroke-linecap:round; stroke-linejoin:round;">
<circle cx="192.3803" cy="192.4161" r="10.7648"/> 
</g>
<g style="fill:#848484; fill-opacity:0.0;  stroke:#848484; stroke-width:0.3589; stroke-opacity:1;  stroke-linecap:round; stroke-linejoin:round;">
<path d="M127.3196 99.0417 L122.7622 103.5991 "/>
<path d="M127.3196 94.4842 L127.3196 99.0417 "/>
<path d="M122.7622 103.5991 L109.0897 103.5991 "/>
<path d="M109.0897 103.5991 L109.0897 94.4842 "/>
<path d="M109.0897 94.4842 L127.3196 94.4842 "/>
<g>
</g>
<g>
</g>
<g>
</g>
<g>
</g>
<g>
</g>
<g>
</g>
<g>
</g>
<g>
</g>
<g>
</g>
<g>
</g>
<g>
</g>
<g>
</g>
<g>
</g>
<g>
</g>
<g>
</g>
<g>
</g>
<g>
</g>
<g>
</g>
<g>
</g>
<g>
</g>
<g>
</g>
<g>
</g>
<g>
</g>
<g>
</g>
<g>
</g>
<g>
</g>
<g>
</g>
<g>
</g>
<g>
</g>
<g>
</g>
<g>
</g>
<g>
</g>
<g>
</g>
<g>
</g>
<g>
</g>
<g>
</g>
<g>
</g>
<g>
</g>
<g>
</g>
<g>
</g>
<g>
</g>
<g>
</g>
<g>
</g>
<g>
</g>
<g>
</g>
<g>
</g>
<g>
</g>
<g>
</g>
<g>
</g>
<g>
</g>
<g>
</g>
<g>
</g>
<g>
</g>
<g>
</g>
<g>
</g>
<g>
</g>
</g> 
<svg:g><svg:g><svg:title>SVG Image created as USBPDSINK01-Edge_Cuts.svg date 2023/09/24 08:35:32 </svg:title>
  <svg:desc>Image generated by PCBNEW </svg:desc>
<svg:g style="fill:#C2C200; fill-opacity:1.0000;stroke:#C2C200; stroke-opacity:1.0000; stroke-linecap:round; stroke-linejoin:round;" transform="translate(0 0) scale(1 1)">
</svg:g>
<svg:g style="fill:#C2C200; fill-opacity:0.0;  stroke:#C2C200; stroke-width:0.0000; stroke-opacity:1;  stroke-linecap:round; stroke-linejoin:round;">
</svg:g>
<svg:g style="fill:#C2C200; fill-opacity:0.0;  stroke:#C2C200; stroke-width:0.2005; stroke-opacity:1;  stroke-linecap:round; stroke-linejoin:round;">
<svg:path d="M65.6631 74.6394 L56.1391 74.6394 "/>
<svg:path d="M137.6906 29.2585 L137.6906 19.7344 "/>
</svg:g>
<svg:g style="fill:#C2C200; fill-opacity:0.0;  stroke:#C2C200; stroke-width:0.5383; stroke-opacity:1;  stroke-linecap:round; stroke-linejoin:round;">
<svg:path style="fill:#C2C200; fill-opacity:0.0;  stroke:#C2C200; stroke-width:0.5383; stroke-opacity:1;  stroke-linecap:round; stroke-linejoin:round;fill:none" d="M 65.6825,29.2585 209.6987,29.2585 209.6987,209.7345 65.6825,209.7345 Z"/> 
</svg:g>
<svg:g style="fill:#C2C200; fill-opacity:0.0;  stroke:#C2C200; stroke-width:0.2005; stroke-opacity:1;  stroke-linecap:round; stroke-linejoin:round;">
<svg:path d="M209.8171 173.3249 L219.3412 173.3249 "/>
<svg:path d="M56.1168 173.3249 L65.6409 173.3249 "/>
<svg:path d="M219.3634 74.6394 L209.8394 74.6394 "/>
</svg:g>
<svg:g style="fill:#C2C200; fill-opacity:0.0;  stroke:#C2C200; stroke-width:0.1794; stroke-opacity:1;  stroke-linecap:round; stroke-linejoin:round;">
<svg:path d="M80.0044 132.7741 L80.0044 127.7502 "/>
<svg:path d="M81.0810 126.6736 L86.8227 126.6736 "/>
<svg:path d="M86.8227 133.8507 L81.0810 133.8507 "/>
<svg:path d="M87.8993 127.7502 L87.8993 132.7741 "/>
<svg:path d="M81.0810 126.6736 A1.0766 1.0766 0.0 0 0 80.0044 127.7502"/>
<svg:path d="M80.0044 132.7741 A1.0766 1.0766 0.0 0 0 81.0810 133.8507"/>
<svg:path d="M87.8993 127.7502 A1.0766 1.0766 0.0 0 0 86.8227 126.6736"/>
<svg:path d="M86.8227 133.8507 A1.0766 1.0766 0.0 0 0 87.8993 132.7741"/>
<svg:path d="M79.9685 151.1954 L79.9685 146.1714 "/>
<svg:path d="M81.0451 145.0949 L86.7868 145.0949 "/>
<svg:path d="M86.7868 152.2720 L81.0451 152.2720 "/>
<svg:path d="M87.8634 146.1714 L87.8634 151.1954 "/>
<svg:path d="M81.0451 145.0949 A1.0766 1.0766 0.0 0 0 79.9685 146.1714"/>
<svg:path d="M79.9685 151.1954 A1.0766 1.0766 0.0 0 0 81.0451 152.2720"/>
<svg:path d="M87.8634 146.1714 A1.0766 1.0766 0.0 0 0 86.7868 145.0949"/>
<svg:path d="M86.7868 152.2720 A1.0766 1.0766 0.0 0 0 87.8634 151.1954"/>
<svg:path d="M80.0044 141.9848 L80.0044 136.9608 "/>
<svg:path d="M81.0810 135.8842 L86.8227 135.8842 "/>
<svg:path d="M86.8227 143.0614 L81.0810 143.0614 "/>
<svg:path d="M87.8993 136.9608 L87.8993 141.9848 "/>
<svg:path d="M81.0810 135.8842 A1.0766 1.0766 0.0 0 0 80.0044 136.9608"/>
<svg:path d="M80.0044 141.9848 A1.0766 1.0766 0.0 0 0 81.0810 143.0614"/>
<svg:path d="M87.8993 136.9608 A1.0766 1.0766 0.0 0 0 86.8227 135.8842"/>
<svg:path d="M86.8227 143.0614 A1.0766 1.0766 0.0 0 0 87.8993 141.9848"/>
<svg:path d="M79.8788 114.7057 L79.8788 109.6817 "/>
<svg:path d="M80.9554 108.6052 L86.6971 108.6052 "/>
<svg:path d="M86.6971 115.7823 L80.9554 115.7823 "/>
<svg:path d="M87.7737 109.6817 L87.7737 114.7057 "/>
<svg:path d="M80.9554 108.6052 A1.0766 1.0766 0.0 0 0 79.8788 109.6817"/>
<svg:path d="M79.8788 114.7057 A1.0766 1.0766 0.0 0 0 80.9554 115.7823"/>
<svg:path d="M87.7737 109.6817 A1.0766 1.0766 0.0 0 0 86.6971 108.6052"/>
<svg:path d="M86.6971 115.7823 A1.0766 1.0766 0.0 0 0 87.7737 114.7057"/>
<svg:path d="M79.9147 160.4061 L79.9147 155.3821 "/>
<svg:path d="M80.9913 154.3055 L86.7330 154.3055 "/>
<svg:path d="M86.7330 161.4826 L80.9913 161.4826 "/>
<svg:path d="M87.8096 155.3821 L87.8096 160.4061 "/>
<svg:path d="M80.9913 154.3055 A1.0766 1.0766 0.0 0 0 79.9147 155.3821"/>
<svg:path d="M79.9147 160.4061 A1.0766 1.0766 0.0 0 0 80.9913 161.4826"/>
<svg:path d="M87.8096 155.3821 A1.0766 1.0766 0.0 0 0 86.7330 154.3055"/>
<svg:path d="M86.7330 161.4826 A1.0766 1.0766 0.0 0 0 87.8096 160.4061"/>
<svg:g>
</svg:g>
<svg:g>
</svg:g>
<svg:g>
</svg:g>
<svg:g>
</svg:g>
<svg:g>
</svg:g>
<svg:g>
</svg:g>
<svg:g>
</svg:g>
<svg:g>
</svg:g>
<svg:g>
</svg:g>
<svg:g>
</svg:g>
<svg:g>
</svg:g>
<svg:g>
</svg:g>
<svg:g>
</svg:g>
<svg:g>
</svg:g>
<svg:g>
</svg:g>
<svg:g>
</svg:g>
<svg:g>
</svg:g>
<svg:g>
</svg:g>
<svg:g>
</svg:g>
<svg:g>
</svg:g>
<svg:g>
</svg:g>
<svg:g>
</svg:g>
<svg:g>
</svg:g>
<svg:g>
</svg:g>
<svg:g>
</svg:g>
<svg:g>
</svg:g>
<svg:g>
</svg:g>
<svg:g>
</svg:g>
<svg:g>
</svg:g>
<svg:g>
</svg:g>
<svg:g>
</svg:g>
<svg:g>
</svg:g>
<svg:g>
</svg:g>
<svg:g>
</svg:g>
<svg:g>
</svg:g>
<svg:g>
</svg:g>
<svg:g>
</svg:g>
<svg:g>
</svg:g>
<svg:g>
</svg:g>
<svg:g>
</svg:g>
<svg:g>
</svg:g>
<svg:g>
</svg:g>
<svg:g>
</svg:g>
<svg:g>
</svg:g>
<svg:g>
</svg:g>
<svg:g>
</svg:g>
<svg:g>
</svg:g>
<svg:g>
</svg:g>
<svg:g>
</svg:g>
<svg:g>
</svg:g>
<svg:g>
</svg:g>
<svg:g>
</svg:g>
<svg:g>
</svg:g>
<svg:g>
</svg:g>
<svg:g>
</svg:g>
<svg:g>
</svg:g>
</svg:g> 
</svg:g></svg:g></svg>
