<?xml version='1.0' encoding='ASCII' standalone='yes'?>
<svg xmlns:svg="http://www.w3.org/2000/svg" xmlns="http://www.w3.org/2000/svg" xmlns:xlink="http://www.w3.org/1999/xlink" version="1.1" width="297.0022mm" height="210.0072mm" viewBox="0.0000 0.0000 297.0022 210.0072">
<title>SVG Image created as USBPDSINK01-B_Fab.svg date 2023/10/04 13:44:24 </title>
  <desc>Image generated by PCBNEW </desc>
<g style="fill:#000084; fill-opacity:1.0000;stroke:#000084; stroke-opacity:1.0000; stroke-linecap:round; stroke-linejoin:round;" transform="translate(0 0) scale(1 1)">
</g>
<g style="fill:#000084; fill-opacity:0.0;  stroke:#000084; stroke-width:0.0000; stroke-opacity:1;  stroke-linecap:round; stroke-linejoin:round;">
</g>
<g style="fill:#000084; fill-opacity:0.01;  stroke:#000084; stroke-width:0.5938; stroke-opacity:1;  stroke-linecap:round; stroke-linejoin:round;">
<text x="200.4958" y="124.3520" transform="scale(-1 1) translate(-400.991689 0)" textLength="5.8033" font-size="6.7032" lengthAdjust="spacingAndGlyphs" text-anchor="middle" opacity="0.01" style="font-family:monospace">K</text>
<g class="stroked-text"><desc>K</desc>
<path d="M199.1791 124.1332 L199.1791 119.1057 "/>
<path d="M202.0520 124.1332 L199.8973 121.2603 "/>
<path d="M202.0520 119.1057 L199.1791 121.9786 "/>
</g><text x="212.0479" y="124.8579" transform="scale(-1 1) translate(-424.095714 0)" textLength="10.5914" font-size="6.7032" lengthAdjust="spacingAndGlyphs" text-anchor="middle" opacity="0.01" style="font-family:monospace">D5</text>
<g class="stroked-text"><desc>D5</desc>
<path d="M208.3371 124.6391 L208.3371 119.6116 "/>
<path d="M208.3371 119.6116 L209.5341 119.6116 "/>
<path d="M209.5341 119.6116 L210.2523 119.8510 "/>
<path d="M210.2523 119.8510 L210.7311 120.3298 "/>
<path d="M210.7311 120.3298 L210.9706 120.8087 "/>
<path d="M210.9706 120.8087 L211.2100 121.7663 "/>
<path d="M211.2100 121.7663 L211.2100 122.4845 "/>
<path d="M211.2100 122.4845 L210.9706 123.4421 "/>
<path d="M210.9706 123.4421 L210.7311 123.9209 "/>
<path d="M210.7311 123.9209 L210.2523 124.3997 "/>
<path d="M210.2523 124.3997 L209.5341 124.6391 "/>
<path d="M209.5341 124.6391 L208.3371 124.6391 "/>
<path d="M215.7586 119.6116 L213.3646 119.6116 "/>
<path d="M213.3646 119.6116 L213.1252 122.0057 "/>
<path d="M213.1252 122.0057 L213.3646 121.7663 "/>
<path d="M213.3646 121.7663 L213.8434 121.5269 "/>
<path d="M213.8434 121.5269 L215.0404 121.5269 "/>
<path d="M215.0404 121.5269 L215.5192 121.7663 "/>
<path d="M215.5192 121.7663 L215.7586 122.0057 "/>
<path d="M215.7586 122.0057 L215.9980 122.4845 "/>
<path d="M215.9980 122.4845 L215.9980 123.6815 "/>
<path d="M215.9980 123.6815 L215.7586 124.1603 "/>
<path d="M215.7586 124.1603 L215.5192 124.3997 "/>
<path d="M215.5192 124.3997 L215.0404 124.6391 "/>
<path d="M215.0404 124.6391 L213.8434 124.6391 "/>
<path d="M213.8434 124.6391 L213.3646 124.3997 "/>
<path d="M213.3646 124.3997 L213.1252 124.1603 "/>
</g></g>
<g style="fill:#000084; fill-opacity:0.01;  stroke:#000084; stroke-width:0.3167; stroke-opacity:1;  stroke-linecap:round; stroke-linejoin:round;">
<text x="129.5544" y="148.2849" transform="scale(-1 1) translate(-259.108814 0)" textLength="6.3036" font-size="2.6391" lengthAdjust="spacingAndGlyphs" text-anchor="middle" opacity="0.01" style="font-family:monospace">R10</text>
<g class="stroked-text"><desc>R10</desc>
<path d="M128.2820 148.1945 L127.6222 147.2520 "/>
<path d="M127.1510 148.1945 L127.1510 146.2152 "/>
<path d="M127.1510 146.2152 L127.9050 146.2152 "/>
<path d="M127.9050 146.2152 L128.0935 146.3094 "/>
<path d="M128.0935 146.3094 L128.1877 146.4037 "/>
<path d="M128.1877 146.4037 L128.2820 146.5922 "/>
<path d="M128.2820 146.5922 L128.2820 146.8749 "/>
<path d="M128.2820 146.8749 L128.1877 147.0634 "/>
<path d="M128.1877 147.0634 L128.0935 147.1577 "/>
<path d="M128.0935 147.1577 L127.9050 147.2520 "/>
<path d="M127.9050 147.2520 L127.1510 147.2520 "/>
<path d="M130.1671 148.1945 L129.0360 148.1945 "/>
<path d="M129.6015 148.1945 L129.6015 146.2152 "/>
<path d="M129.6015 146.2152 L129.4130 146.4979 "/>
<path d="M129.4130 146.4979 L129.2245 146.6864 "/>
<path d="M129.2245 146.6864 L129.0360 146.7807 "/>
<path d="M131.3923 146.2152 L131.5808 146.2152 "/>
<path d="M131.5808 146.2152 L131.7693 146.3094 "/>
<path d="M131.7693 146.3094 L131.8636 146.4037 "/>
<path d="M131.8636 146.4037 L131.9578 146.5922 "/>
<path d="M131.9578 146.5922 L132.0521 146.9692 "/>
<path d="M132.0521 146.9692 L132.0521 147.4405 "/>
<path d="M132.0521 147.4405 L131.9578 147.8175 "/>
<path d="M131.9578 147.8175 L131.8636 148.0060 "/>
<path d="M131.8636 148.0060 L131.7693 148.1002 "/>
<path d="M131.7693 148.1002 L131.5808 148.1945 "/>
<path d="M131.5808 148.1945 L131.3923 148.1945 "/>
<path d="M131.3923 148.1945 L131.2038 148.1002 "/>
<path d="M131.2038 148.1002 L131.1096 148.0060 "/>
<path d="M131.1096 148.0060 L131.0153 147.8175 "/>
<path d="M131.0153 147.8175 L130.9211 147.4405 "/>
<path d="M130.9211 147.4405 L130.9211 146.9692 "/>
<path d="M130.9211 146.9692 L131.0153 146.5922 "/>
<path d="M131.0153 146.5922 L131.1096 146.4037 "/>
<path d="M131.1096 146.4037 L131.2038 146.3094 "/>
<path d="M131.2038 146.3094 L131.3923 146.2152 "/>
</g><g transform="rotate(-90.000000 118.4703 144.1284)">
<text x="118.4703" y="145.1180" transform="scale(-1 1) translate(-236.940604 0)" textLength="6.3036" font-size="2.6391" lengthAdjust="spacingAndGlyphs" text-anchor="middle" opacity="0.01" style="font-family:monospace">R12</text>
</g>
<g class="stroked-text"><desc>R12</desc>
<path d="M117.5711 142.8560 L118.5136 142.1962 "/>
<path d="M117.5711 141.7250 L119.5504 141.7250 "/>
<path d="M119.5504 141.7250 L119.5504 142.4790 "/>
<path d="M119.5504 142.4790 L119.4562 142.6675 "/>
<path d="M119.4562 142.6675 L119.3619 142.7617 "/>
<path d="M119.3619 142.7617 L119.1734 142.8560 "/>
<path d="M119.1734 142.8560 L118.8906 142.8560 "/>
<path d="M118.8906 142.8560 L118.7021 142.7617 "/>
<path d="M118.7021 142.7617 L118.6079 142.6675 "/>
<path d="M118.6079 142.6675 L118.5136 142.4790 "/>
<path d="M118.5136 142.4790 L118.5136 141.7250 "/>
<path d="M117.5711 144.7410 L117.5711 143.6100 "/>
<path d="M117.5711 144.1755 L119.5504 144.1755 "/>
<path d="M119.5504 144.1755 L119.2677 143.9870 "/>
<path d="M119.2677 143.9870 L119.0791 143.7985 "/>
<path d="M119.0791 143.7985 L118.9849 143.6100 "/>
<path d="M119.3619 145.4951 L119.4562 145.5893 "/>
<path d="M119.4562 145.5893 L119.5504 145.7778 "/>
<path d="M119.5504 145.7778 L119.5504 146.2491 "/>
<path d="M119.5504 146.2491 L119.4562 146.4376 "/>
<path d="M119.4562 146.4376 L119.3619 146.5318 "/>
<path d="M119.3619 146.5318 L119.1734 146.6261 "/>
<path d="M119.1734 146.6261 L118.9849 146.6261 "/>
<path d="M118.9849 146.6261 L118.7021 146.5318 "/>
<path d="M118.7021 146.5318 L117.5711 145.4008 "/>
<path d="M117.5711 145.4008 L117.5711 146.6261 "/>
</g><text x="103.2297" y="88.3912" transform="scale(-1 1) translate(-206.459316 0)" textLength="4.4186" font-size="2.6391" lengthAdjust="spacingAndGlyphs" text-anchor="middle" opacity="0.01" style="font-family:monospace">C5</text>
<g class="stroked-text"><desc>C5</desc>
<path d="M102.8998 88.1122 L102.8055 88.2065 "/>
<path d="M102.8055 88.2065 L102.5228 88.3007 "/>
<path d="M102.5228 88.3007 L102.3343 88.3007 "/>
<path d="M102.3343 88.3007 L102.0515 88.2065 "/>
<path d="M102.0515 88.2065 L101.8630 88.0180 "/>
<path d="M101.8630 88.0180 L101.7687 87.8295 "/>
<path d="M101.7687 87.8295 L101.6745 87.4525 "/>
<path d="M101.6745 87.4525 L101.6745 87.1697 "/>
<path d="M101.6745 87.1697 L101.7687 86.7927 "/>
<path d="M101.7687 86.7927 L101.8630 86.6042 "/>
<path d="M101.8630 86.6042 L102.0515 86.4157 "/>
<path d="M102.0515 86.4157 L102.3343 86.3214 "/>
<path d="M102.3343 86.3214 L102.5228 86.3214 "/>
<path d="M102.5228 86.3214 L102.8055 86.4157 "/>
<path d="M102.8055 86.4157 L102.8998 86.5099 "/>
<path d="M104.6906 86.3214 L103.7480 86.3214 "/>
<path d="M103.7480 86.3214 L103.6538 87.2639 "/>
<path d="M103.6538 87.2639 L103.7480 87.1697 "/>
<path d="M103.7480 87.1697 L103.9366 87.0754 "/>
<path d="M103.9366 87.0754 L104.4078 87.0754 "/>
<path d="M104.4078 87.0754 L104.5963 87.1697 "/>
<path d="M104.5963 87.1697 L104.6906 87.2639 "/>
<path d="M104.6906 87.2639 L104.7848 87.4525 "/>
<path d="M104.7848 87.4525 L104.7848 87.9237 "/>
<path d="M104.7848 87.9237 L104.6906 88.1122 "/>
<path d="M104.6906 88.1122 L104.5963 88.2065 "/>
<path d="M104.5963 88.2065 L104.4078 88.3007 "/>
<path d="M104.4078 88.3007 L103.9366 88.3007 "/>
<path d="M103.9366 88.3007 L103.7480 88.2065 "/>
<path d="M103.7480 88.2065 L103.6538 88.1122 "/>
</g><text x="108.1284" y="177.9745" transform="scale(-1 1) translate(-216.256873 0)" textLength="4.4186" font-size="2.6391" lengthAdjust="spacingAndGlyphs" text-anchor="middle" opacity="0.01" style="font-family:monospace">R8</text>
<g class="stroked-text"><desc>R8</desc>
<path d="M107.7986 177.8840 L107.1388 176.9415 "/>
<path d="M106.6675 177.8840 L106.6675 175.9047 "/>
<path d="M106.6675 175.9047 L107.4215 175.9047 "/>
<path d="M107.4215 175.9047 L107.6100 175.9990 "/>
<path d="M107.6100 175.9990 L107.7043 176.0932 "/>
<path d="M107.7043 176.0932 L107.7986 176.2817 "/>
<path d="M107.7986 176.2817 L107.7986 176.5645 "/>
<path d="M107.7986 176.5645 L107.7043 176.7530 "/>
<path d="M107.7043 176.7530 L107.6100 176.8473 "/>
<path d="M107.6100 176.8473 L107.4215 176.9415 "/>
<path d="M107.4215 176.9415 L106.6675 176.9415 "/>
<path d="M108.9296 176.7530 L108.7411 176.6588 "/>
<path d="M108.7411 176.6588 L108.6468 176.5645 "/>
<path d="M108.6468 176.5645 L108.5526 176.3760 "/>
<path d="M108.5526 176.3760 L108.5526 176.2817 "/>
<path d="M108.5526 176.2817 L108.6468 176.0932 "/>
<path d="M108.6468 176.0932 L108.7411 175.9990 "/>
<path d="M108.7411 175.9990 L108.9296 175.9047 "/>
<path d="M108.9296 175.9047 L109.3066 175.9047 "/>
<path d="M109.3066 175.9047 L109.4951 175.9990 "/>
<path d="M109.4951 175.9990 L109.5894 176.0932 "/>
<path d="M109.5894 176.0932 L109.6836 176.2817 "/>
<path d="M109.6836 176.2817 L109.6836 176.3760 "/>
<path d="M109.6836 176.3760 L109.5894 176.5645 "/>
<path d="M109.5894 176.5645 L109.4951 176.6588 "/>
<path d="M109.4951 176.6588 L109.3066 176.7530 "/>
<path d="M109.3066 176.7530 L108.9296 176.7530 "/>
<path d="M108.9296 176.7530 L108.7411 176.8473 "/>
<path d="M108.7411 176.8473 L108.6468 176.9415 "/>
<path d="M108.6468 176.9415 L108.5526 177.1300 "/>
<path d="M108.5526 177.1300 L108.5526 177.5070 "/>
<path d="M108.5526 177.5070 L108.6468 177.6955 "/>
<path d="M108.6468 177.6955 L108.7411 177.7898 "/>
<path d="M108.7411 177.7898 L108.9296 177.8840 "/>
<path d="M108.9296 177.8840 L109.3066 177.8840 "/>
<path d="M109.3066 177.8840 L109.4951 177.7898 "/>
<path d="M109.4951 177.7898 L109.5894 177.6955 "/>
<path d="M109.5894 177.6955 L109.6836 177.5070 "/>
<path d="M109.6836 177.5070 L109.6836 177.1300 "/>
<path d="M109.6836 177.1300 L109.5894 176.9415 "/>
<path d="M109.5894 176.9415 L109.4951 176.8473 "/>
<path d="M109.4951 176.8473 L109.3066 176.7530 "/>
</g><text x="129.5049" y="95.3187" transform="scale(-1 1) translate(-259.009849 0)" textLength="6.3036" font-size="2.6391" lengthAdjust="spacingAndGlyphs" text-anchor="middle" opacity="0.01" style="font-family:monospace">R22</text>
<g class="stroked-text"><desc>R22</desc>
<path d="M128.2325 95.2283 L127.5728 94.2858 "/>
<path d="M127.1015 95.2283 L127.1015 93.2490 "/>
<path d="M127.1015 93.2490 L127.8555 93.2490 "/>
<path d="M127.8555 93.2490 L128.0440 93.3432 "/>
<path d="M128.0440 93.3432 L128.1383 93.4375 "/>
<path d="M128.1383 93.4375 L128.2325 93.6260 "/>
<path d="M128.2325 93.6260 L128.2325 93.9088 "/>
<path d="M128.2325 93.9088 L128.1383 94.0973 "/>
<path d="M128.1383 94.0973 L128.0440 94.1915 "/>
<path d="M128.0440 94.1915 L127.8555 94.2858 "/>
<path d="M127.8555 94.2858 L127.1015 94.2858 "/>
<path d="M128.9865 93.4375 L129.0808 93.3432 "/>
<path d="M129.0808 93.3432 L129.2693 93.2490 "/>
<path d="M129.2693 93.2490 L129.7406 93.2490 "/>
<path d="M129.7406 93.2490 L129.9291 93.3432 "/>
<path d="M129.9291 93.3432 L130.0233 93.4375 "/>
<path d="M130.0233 93.4375 L130.1176 93.6260 "/>
<path d="M130.1176 93.6260 L130.1176 93.8145 "/>
<path d="M130.1176 93.8145 L130.0233 94.0973 "/>
<path d="M130.0233 94.0973 L128.8923 95.2283 "/>
<path d="M128.8923 95.2283 L130.1176 95.2283 "/>
<path d="M130.8716 93.4375 L130.9658 93.3432 "/>
<path d="M130.9658 93.3432 L131.1543 93.2490 "/>
<path d="M131.1543 93.2490 L131.6256 93.2490 "/>
<path d="M131.6256 93.2490 L131.8141 93.3432 "/>
<path d="M131.8141 93.3432 L131.9084 93.4375 "/>
<path d="M131.9084 93.4375 L132.0026 93.6260 "/>
<path d="M132.0026 93.6260 L132.0026 93.8145 "/>
<path d="M132.0026 93.8145 L131.9084 94.0973 "/>
<path d="M131.9084 94.0973 L130.7773 95.2283 "/>
<path d="M130.7773 95.2283 L132.0026 95.2283 "/>
</g></g>
<g style="fill:#000084; fill-opacity:0.01;  stroke:#000084; stroke-width:0.2375; stroke-opacity:1;  stroke-linecap:round; stroke-linejoin:round;">
<text x="110.1572" y="103.4339" transform="scale(-1 1) translate(-220.314447 0)" textLength="5.5986" font-size="2.1113" lengthAdjust="spacingAndGlyphs" text-anchor="middle" opacity="0.01" style="font-family:monospace">FID3</text>
<g class="stroked-text"><desc>FID3</desc>
<path d="M108.4607 102.5329 L107.9329 102.5329 "/>
<path d="M107.9329 103.3624 L107.9329 101.7789 "/>
<path d="M107.9329 101.7789 L108.6869 101.7789 "/>
<path d="M109.2901 103.3624 L109.2901 101.7789 "/>
<path d="M110.0441 103.3624 L110.0441 101.7789 "/>
<path d="M110.0441 101.7789 L110.4211 101.7789 "/>
<path d="M110.4211 101.7789 L110.6473 101.8543 "/>
<path d="M110.6473 101.8543 L110.7981 102.0051 "/>
<path d="M110.7981 102.0051 L110.8735 102.1559 "/>
<path d="M110.8735 102.1559 L110.9489 102.4575 "/>
<path d="M110.9489 102.4575 L110.9489 102.6837 "/>
<path d="M110.9489 102.6837 L110.8735 102.9853 "/>
<path d="M110.8735 102.9853 L110.7981 103.1361 "/>
<path d="M110.7981 103.1361 L110.6473 103.2870 "/>
<path d="M110.6473 103.2870 L110.4211 103.3624 "/>
<path d="M110.4211 103.3624 L110.0441 103.3624 "/>
<path d="M111.4768 101.7789 L112.4570 101.7789 "/>
<path d="M112.4570 101.7789 L111.9292 102.3821 "/>
<path d="M111.9292 102.3821 L112.1554 102.3821 "/>
<path d="M112.1554 102.3821 L112.3062 102.4575 "/>
<path d="M112.3062 102.4575 L112.3816 102.5329 "/>
<path d="M112.3816 102.5329 L112.4570 102.6837 "/>
<path d="M112.4570 102.6837 L112.4570 103.0607 "/>
<path d="M112.4570 103.0607 L112.3816 103.2115 "/>
<path d="M112.3816 103.2115 L112.3062 103.2870 "/>
<path d="M112.3062 103.2870 L112.1554 103.3624 "/>
<path d="M112.1554 103.3624 L111.7030 103.3624 "/>
<path d="M111.7030 103.3624 L111.5522 103.2870 "/>
<path d="M111.5522 103.2870 L111.4768 103.2115 "/>
</g></g>
<g style="fill:#000084; fill-opacity:0.0;  stroke:#000084; stroke-width:0.3167; stroke-opacity:1;  stroke-linecap:round; stroke-linejoin:round;">
<g transform="rotate(-90.000000 106.5945 124.2166)">
<text x="106.5945" y="125.2062" transform="scale(-1 1) translate(-213.188951 0)" textLength="4.4186" font-size="2.6391" lengthAdjust="spacingAndGlyphs" text-anchor="middle" opacity="0.01" style="font-family:monospace">C6</text>
</g>
<g class="stroked-text"><desc>C6</desc>
<path d="M105.8838 123.8867 L105.7895 123.7925 "/>
<path d="M105.7895 123.7925 L105.6953 123.5097 "/>
<path d="M105.6953 123.5097 L105.6953 123.3212 "/>
<path d="M105.6953 123.3212 L105.7895 123.0384 "/>
<path d="M105.7895 123.0384 L105.9780 122.8499 "/>
<path d="M105.9780 122.8499 L106.1665 122.7557 "/>
<path d="M106.1665 122.7557 L106.5436 122.6614 "/>
<path d="M106.5436 122.6614 L106.8263 122.6614 "/>
<path d="M106.8263 122.6614 L107.2033 122.7557 "/>
<path d="M107.2033 122.7557 L107.3918 122.8499 "/>
<path d="M107.3918 122.8499 L107.5803 123.0384 "/>
<path d="M107.5803 123.0384 L107.6746 123.3212 "/>
<path d="M107.6746 123.3212 L107.6746 123.5097 "/>
<path d="M107.6746 123.5097 L107.5803 123.7925 "/>
<path d="M107.5803 123.7925 L107.4861 123.8867 "/>
<path d="M107.6746 125.5833 L107.6746 125.2062 "/>
<path d="M107.6746 125.2062 L107.5803 125.0177 "/>
<path d="M107.5803 125.0177 L107.4861 124.9235 "/>
<path d="M107.4861 124.9235 L107.2033 124.7350 "/>
<path d="M107.2033 124.7350 L106.8263 124.6407 "/>
<path d="M106.8263 124.6407 L106.0723 124.6407 "/>
<path d="M106.0723 124.6407 L105.8838 124.7350 "/>
<path d="M105.8838 124.7350 L105.7895 124.8292 "/>
<path d="M105.7895 124.8292 L105.6953 125.0177 "/>
<path d="M105.6953 125.0177 L105.6953 125.3948 "/>
<path d="M105.6953 125.3948 L105.7895 125.5833 "/>
<path d="M105.7895 125.5833 L105.8838 125.6775 "/>
<path d="M105.8838 125.6775 L106.0723 125.7718 "/>
<path d="M106.0723 125.7718 L106.5436 125.7718 "/>
<path d="M106.5436 125.7718 L106.7321 125.6775 "/>
<path d="M106.7321 125.6775 L106.8263 125.5833 "/>
<path d="M106.8263 125.5833 L106.9206 125.3948 "/>
<path d="M106.9206 125.3948 L106.9206 125.0177 "/>
<path d="M106.9206 125.0177 L106.8263 124.8292 "/>
<path d="M106.8263 124.8292 L106.7321 124.7350 "/>
<path d="M106.7321 124.7350 L106.5436 124.6407 "/>
</g></g>
<g style="fill:#000084; fill-opacity:0.01;  stroke:#000084; stroke-width:0.5938; stroke-opacity:1;  stroke-linecap:round; stroke-linejoin:round;">
<text x="113.3439" y="164.0204" transform="scale(-1 1) translate(-226.687807 0)" textLength="8.7644" font-size="5.1726" lengthAdjust="spacingAndGlyphs" text-anchor="middle" opacity="0.01" style="font-family:monospace">Q2</text>
<g class="stroked-text"><desc>Q2</desc>
<path d="M112.9744 164.2140 L112.6050 164.0292 "/>
<path d="M112.6050 164.0292 L112.2355 163.6598 "/>
<path d="M112.2355 163.6598 L111.6813 163.1056 "/>
<path d="M111.6813 163.1056 L111.3118 162.9208 "/>
<path d="M111.3118 162.9208 L110.9424 162.9208 "/>
<path d="M111.1271 163.8445 L110.7576 163.6598 "/>
<path d="M110.7576 163.6598 L110.3881 163.2903 "/>
<path d="M110.3881 163.2903 L110.2034 162.5514 "/>
<path d="M110.2034 162.5514 L110.2034 161.2582 "/>
<path d="M110.2034 161.2582 L110.3881 160.5193 "/>
<path d="M110.3881 160.5193 L110.7576 160.1498 "/>
<path d="M110.7576 160.1498 L111.1271 159.9651 "/>
<path d="M111.1271 159.9651 L111.8660 159.9651 "/>
<path d="M111.8660 159.9651 L112.2355 160.1498 "/>
<path d="M112.2355 160.1498 L112.6050 160.5193 "/>
<path d="M112.6050 160.5193 L112.7897 161.2582 "/>
<path d="M112.7897 161.2582 L112.7897 162.5514 "/>
<path d="M112.7897 162.5514 L112.6050 163.2903 "/>
<path d="M112.6050 163.2903 L112.2355 163.6598 "/>
<path d="M112.2355 163.6598 L111.8660 163.8445 "/>
<path d="M111.8660 163.8445 L111.1271 163.8445 "/>
<path d="M114.2676 160.3345 L114.4523 160.1498 "/>
<path d="M114.4523 160.1498 L114.8218 159.9651 "/>
<path d="M114.8218 159.9651 L115.7455 159.9651 "/>
<path d="M115.7455 159.9651 L116.1149 160.1498 "/>
<path d="M116.1149 160.1498 L116.2997 160.3345 "/>
<path d="M116.2997 160.3345 L116.4844 160.7040 "/>
<path d="M116.4844 160.7040 L116.4844 161.0735 "/>
<path d="M116.4844 161.0735 L116.2997 161.6277 "/>
<path d="M116.2997 161.6277 L114.0828 163.8445 "/>
<path d="M114.0828 163.8445 L116.4844 163.8445 "/>
</g></g>
<g style="fill:#000084; fill-opacity:0.01;  stroke:#000084; stroke-width:0.3167; stroke-opacity:1;  stroke-linecap:round; stroke-linejoin:round;">
<text x="127.3772" y="111.1532" transform="scale(-1 1) translate(-254.754344 0)" textLength="4.4186" font-size="2.6391" lengthAdjust="spacingAndGlyphs" text-anchor="middle" opacity="0.01" style="font-family:monospace">C2</text>
<g class="stroked-text"><desc>C2</desc>
<path d="M127.0473 110.8742 L126.9530 110.9685 "/>
<path d="M126.9530 110.9685 L126.6703 111.0627 "/>
<path d="M126.6703 111.0627 L126.4818 111.0627 "/>
<path d="M126.4818 111.0627 L126.1990 110.9685 "/>
<path d="M126.1990 110.9685 L126.0105 110.7800 "/>
<path d="M126.0105 110.7800 L125.9163 110.5915 "/>
<path d="M125.9163 110.5915 L125.8220 110.2145 "/>
<path d="M125.8220 110.2145 L125.8220 109.9317 "/>
<path d="M125.8220 109.9317 L125.9163 109.5547 "/>
<path d="M125.9163 109.5547 L126.0105 109.3662 "/>
<path d="M126.0105 109.3662 L126.1990 109.1777 "/>
<path d="M126.1990 109.1777 L126.4818 109.0834 "/>
<path d="M126.4818 109.0834 L126.6703 109.0834 "/>
<path d="M126.6703 109.0834 L126.9530 109.1777 "/>
<path d="M126.9530 109.1777 L127.0473 109.2719 "/>
<path d="M127.8013 109.2719 L127.8956 109.1777 "/>
<path d="M127.8956 109.1777 L128.0841 109.0834 "/>
<path d="M128.0841 109.0834 L128.5553 109.0834 "/>
<path d="M128.5553 109.0834 L128.7438 109.1777 "/>
<path d="M128.7438 109.1777 L128.8381 109.2719 "/>
<path d="M128.8381 109.2719 L128.9323 109.4604 "/>
<path d="M128.9323 109.4604 L128.9323 109.6489 "/>
<path d="M128.9323 109.6489 L128.8381 109.9317 "/>
<path d="M128.8381 109.9317 L127.7071 111.0627 "/>
<path d="M127.7071 111.0627 L128.9323 111.0627 "/>
</g></g>
<g style="fill:#000084; fill-opacity:0.01;  stroke:#000084; stroke-width:0.4750; stroke-opacity:1;  stroke-linecap:round; stroke-linejoin:round;">
<text x="87.9890" y="110.5594" transform="scale(-1 1) translate(-175.978028 0)" textLength="7.1255" font-size="4.2225" lengthAdjust="spacingAndGlyphs" text-anchor="middle" opacity="0.01" style="font-family:monospace">U2</text>
<g class="stroked-text"><desc>U2</desc>
<path d="M85.5762 107.2494 L85.5762 109.8131 "/>
<path d="M85.5762 109.8131 L85.7270 110.1147 "/>
<path d="M85.7270 110.1147 L85.8778 110.2655 "/>
<path d="M85.8778 110.2655 L86.1794 110.4163 "/>
<path d="M86.1794 110.4163 L86.7826 110.4163 "/>
<path d="M86.7826 110.4163 L87.0842 110.2655 "/>
<path d="M87.0842 110.2655 L87.2350 110.1147 "/>
<path d="M87.2350 110.1147 L87.3858 109.8131 "/>
<path d="M87.3858 109.8131 L87.3858 107.2494 "/>
<path d="M88.7430 107.5510 L88.8938 107.4002 "/>
<path d="M88.8938 107.4002 L89.1954 107.2494 "/>
<path d="M89.1954 107.2494 L89.9495 107.2494 "/>
<path d="M89.9495 107.2494 L90.2511 107.4002 "/>
<path d="M90.2511 107.4002 L90.4019 107.5510 "/>
<path d="M90.4019 107.5510 L90.5527 107.8526 "/>
<path d="M90.5527 107.8526 L90.5527 108.1542 "/>
<path d="M90.5527 108.1542 L90.4019 108.6067 "/>
<path d="M90.4019 108.6067 L88.5922 110.4163 "/>
<path d="M88.5922 110.4163 L90.5527 110.4163 "/>
</g></g>
<g style="fill:#000084; fill-opacity:0.01;  stroke:#000084; stroke-width:0.3167; stroke-opacity:1;  stroke-linecap:round; stroke-linejoin:round;">
<text x="149.1495" y="137.3988" transform="scale(-1 1) translate(-298.299042 0)" textLength="4.4186" font-size="2.6391" lengthAdjust="spacingAndGlyphs" text-anchor="middle" opacity="0.01" style="font-family:monospace">C8</text>
<g class="stroked-text"><desc>C8</desc>
<path d="M148.8196 137.1198 L148.7254 137.2141 "/>
<path d="M148.7254 137.2141 L148.4426 137.3083 "/>
<path d="M148.4426 137.3083 L148.2541 137.3083 "/>
<path d="M148.2541 137.3083 L147.9714 137.2141 "/>
<path d="M147.9714 137.2141 L147.7829 137.0255 "/>
<path d="M147.7829 137.0255 L147.6886 136.8370 "/>
<path d="M147.6886 136.8370 L147.5944 136.4600 "/>
<path d="M147.5944 136.4600 L147.5944 136.1773 "/>
<path d="M147.5944 136.1773 L147.6886 135.8003 "/>
<path d="M147.6886 135.8003 L147.7829 135.6118 "/>
<path d="M147.7829 135.6118 L147.9714 135.4233 "/>
<path d="M147.9714 135.4233 L148.2541 135.3290 "/>
<path d="M148.2541 135.3290 L148.4426 135.3290 "/>
<path d="M148.4426 135.3290 L148.7254 135.4233 "/>
<path d="M148.7254 135.4233 L148.8196 135.5175 "/>
<path d="M149.9507 136.1773 L149.7622 136.0830 "/>
<path d="M149.7622 136.0830 L149.6679 135.9888 "/>
<path d="M149.6679 135.9888 L149.5737 135.8003 "/>
<path d="M149.5737 135.8003 L149.5737 135.7060 "/>
<path d="M149.5737 135.7060 L149.6679 135.5175 "/>
<path d="M149.6679 135.5175 L149.7622 135.4233 "/>
<path d="M149.7622 135.4233 L149.9507 135.3290 "/>
<path d="M149.9507 135.3290 L150.3277 135.3290 "/>
<path d="M150.3277 135.3290 L150.5162 135.4233 "/>
<path d="M150.5162 135.4233 L150.6104 135.5175 "/>
<path d="M150.6104 135.5175 L150.7047 135.7060 "/>
<path d="M150.7047 135.7060 L150.7047 135.8003 "/>
<path d="M150.7047 135.8003 L150.6104 135.9888 "/>
<path d="M150.6104 135.9888 L150.5162 136.0830 "/>
<path d="M150.5162 136.0830 L150.3277 136.1773 "/>
<path d="M150.3277 136.1773 L149.9507 136.1773 "/>
<path d="M149.9507 136.1773 L149.7622 136.2715 "/>
<path d="M149.7622 136.2715 L149.6679 136.3658 "/>
<path d="M149.6679 136.3658 L149.5737 136.5543 "/>
<path d="M149.5737 136.5543 L149.5737 136.9313 "/>
<path d="M149.5737 136.9313 L149.6679 137.1198 "/>
<path d="M149.6679 137.1198 L149.7622 137.2141 "/>
<path d="M149.7622 137.2141 L149.9507 137.3083 "/>
<path d="M149.9507 137.3083 L150.3277 137.3083 "/>
<path d="M150.3277 137.3083 L150.5162 137.2141 "/>
<path d="M150.5162 137.2141 L150.6104 137.1198 "/>
<path d="M150.6104 137.1198 L150.7047 136.9313 "/>
<path d="M150.7047 136.9313 L150.7047 136.5543 "/>
<path d="M150.7047 136.5543 L150.6104 136.3658 "/>
<path d="M150.6104 136.3658 L150.5162 136.2715 "/>
<path d="M150.5162 136.2715 L150.3277 136.1773 "/>
</g><g transform="rotate(-90.000000 192.9317 88.0646)">
<text x="192.9317" y="89.0543" transform="scale(-1 1) translate(-385.863470 0)" textLength="6.3036" font-size="2.6391" lengthAdjust="spacingAndGlyphs" text-anchor="middle" opacity="0.01" style="font-family:monospace">R16</text>
</g>
<g class="stroked-text"><desc>R16</desc>
<path d="M192.0325 86.7922 L192.9751 86.1324 "/>
<path d="M192.0325 85.6612 L194.0118 85.6612 "/>
<path d="M194.0118 85.6612 L194.0118 86.4152 "/>
<path d="M194.0118 86.4152 L193.9176 86.6037 "/>
<path d="M193.9176 86.6037 L193.8233 86.6979 "/>
<path d="M193.8233 86.6979 L193.6348 86.7922 "/>
<path d="M193.6348 86.7922 L193.3521 86.7922 "/>
<path d="M193.3521 86.7922 L193.1636 86.6979 "/>
<path d="M193.1636 86.6979 L193.0693 86.6037 "/>
<path d="M193.0693 86.6037 L192.9751 86.4152 "/>
<path d="M192.9751 86.4152 L192.9751 85.6612 "/>
<path d="M192.0325 88.6772 L192.0325 87.5462 "/>
<path d="M192.0325 88.1117 L194.0118 88.1117 "/>
<path d="M194.0118 88.1117 L193.7291 87.9232 "/>
<path d="M193.7291 87.9232 L193.5406 87.7347 "/>
<path d="M193.5406 87.7347 L193.4463 87.5462 "/>
<path d="M194.0118 90.3738 L194.0118 89.9968 "/>
<path d="M194.0118 89.9968 L193.9176 89.8083 "/>
<path d="M193.9176 89.8083 L193.8233 89.7140 "/>
<path d="M193.8233 89.7140 L193.5406 89.5255 "/>
<path d="M193.5406 89.5255 L193.1636 89.4313 "/>
<path d="M193.1636 89.4313 L192.4096 89.4313 "/>
<path d="M192.4096 89.4313 L192.2210 89.5255 "/>
<path d="M192.2210 89.5255 L192.1268 89.6198 "/>
<path d="M192.1268 89.6198 L192.0325 89.8083 "/>
<path d="M192.0325 89.8083 L192.0325 90.1853 "/>
<path d="M192.0325 90.1853 L192.1268 90.3738 "/>
<path d="M192.1268 90.3738 L192.2210 90.4680 "/>
<path d="M192.2210 90.4680 L192.4096 90.5623 "/>
<path d="M192.4096 90.5623 L192.8808 90.5623 "/>
<path d="M192.8808 90.5623 L193.0693 90.4680 "/>
<path d="M193.0693 90.4680 L193.1636 90.3738 "/>
<path d="M193.1636 90.3738 L193.2578 90.1853 "/>
<path d="M193.2578 90.1853 L193.2578 89.8083 "/>
<path d="M193.2578 89.8083 L193.1636 89.6198 "/>
<path d="M193.1636 89.6198 L193.0693 89.5255 "/>
<path d="M193.0693 89.5255 L192.8808 89.4313 "/>
</g><g transform="rotate(-90.000000 141.0344 150.3137)">
<text x="141.0344" y="151.3034" transform="scale(-1 1) translate(-282.068745 0)" textLength="4.4186" font-size="2.6391" lengthAdjust="spacingAndGlyphs" text-anchor="middle" opacity="0.01" style="font-family:monospace">R9</text>
</g>
<g class="stroked-text"><desc>R9</desc>
<path d="M140.1352 149.9838 L141.0777 149.3241 "/>
<path d="M140.1352 148.8528 L142.1145 148.8528 "/>
<path d="M142.1145 148.8528 L142.1145 149.6068 "/>
<path d="M142.1145 149.6068 L142.0202 149.7953 "/>
<path d="M142.0202 149.7953 L141.9260 149.8896 "/>
<path d="M141.9260 149.8896 L141.7375 149.9838 "/>
<path d="M141.7375 149.9838 L141.4547 149.9838 "/>
<path d="M141.4547 149.9838 L141.2662 149.8896 "/>
<path d="M141.2662 149.8896 L141.1720 149.7953 "/>
<path d="M141.1720 149.7953 L141.0777 149.6068 "/>
<path d="M141.0777 149.6068 L141.0777 148.8528 "/>
<path d="M140.1352 150.9264 L140.1352 151.3034 "/>
<path d="M140.1352 151.3034 L140.2294 151.4919 "/>
<path d="M140.2294 151.4919 L140.3237 151.5861 "/>
<path d="M140.3237 151.5861 L140.6064 151.7746 "/>
<path d="M140.6064 151.7746 L140.9835 151.8689 "/>
<path d="M140.9835 151.8689 L141.7375 151.8689 "/>
<path d="M141.7375 151.8689 L141.9260 151.7746 "/>
<path d="M141.9260 151.7746 L142.0202 151.6804 "/>
<path d="M142.0202 151.6804 L142.1145 151.4919 "/>
<path d="M142.1145 151.4919 L142.1145 151.1149 "/>
<path d="M142.1145 151.1149 L142.0202 150.9264 "/>
<path d="M142.0202 150.9264 L141.9260 150.8321 "/>
<path d="M141.9260 150.8321 L141.7375 150.7379 "/>
<path d="M141.7375 150.7379 L141.2662 150.7379 "/>
<path d="M141.2662 150.7379 L141.0777 150.8321 "/>
<path d="M141.0777 150.8321 L140.9835 150.9264 "/>
<path d="M140.9835 150.9264 L140.8892 151.1149 "/>
<path d="M140.8892 151.1149 L140.8892 151.4919 "/>
<path d="M140.8892 151.4919 L140.9835 151.6804 "/>
<path d="M140.9835 151.6804 L141.0777 151.7746 "/>
<path d="M141.0777 151.7746 L141.2662 151.8689 "/>
</g><g transform="rotate(-90.000000 203.6992 89.0938)">
<text x="203.6992" y="90.0835" transform="scale(-1 1) translate(-407.398302 0)" textLength="4.4186" font-size="2.6391" lengthAdjust="spacingAndGlyphs" text-anchor="middle" opacity="0.01" style="font-family:monospace">R6</text>
</g>
<g class="stroked-text"><desc>R6</desc>
<path d="M202.8000 88.7639 L203.7425 88.1042 "/>
<path d="M202.8000 87.6329 L204.7793 87.6329 "/>
<path d="M204.7793 87.6329 L204.7793 88.3869 "/>
<path d="M204.7793 88.3869 L204.6850 88.5754 "/>
<path d="M204.6850 88.5754 L204.5908 88.6697 "/>
<path d="M204.5908 88.6697 L204.4023 88.7639 "/>
<path d="M204.4023 88.7639 L204.1195 88.7639 "/>
<path d="M204.1195 88.7639 L203.9310 88.6697 "/>
<path d="M203.9310 88.6697 L203.8367 88.5754 "/>
<path d="M203.8367 88.5754 L203.7425 88.3869 "/>
<path d="M203.7425 88.3869 L203.7425 87.6329 "/>
<path d="M204.7793 90.4605 L204.7793 90.0835 "/>
<path d="M204.7793 90.0835 L204.6850 89.8950 "/>
<path d="M204.6850 89.8950 L204.5908 89.8007 "/>
<path d="M204.5908 89.8007 L204.3080 89.6122 "/>
<path d="M204.3080 89.6122 L203.9310 89.5180 "/>
<path d="M203.9310 89.5180 L203.1770 89.5180 "/>
<path d="M203.1770 89.5180 L202.9885 89.6122 "/>
<path d="M202.9885 89.6122 L202.8942 89.7065 "/>
<path d="M202.8942 89.7065 L202.8000 89.8950 "/>
<path d="M202.8000 89.8950 L202.8000 90.2720 "/>
<path d="M202.8000 90.2720 L202.8942 90.4605 "/>
<path d="M202.8942 90.4605 L202.9885 90.5547 "/>
<path d="M202.9885 90.5547 L203.1770 90.6490 "/>
<path d="M203.1770 90.6490 L203.6482 90.6490 "/>
<path d="M203.6482 90.6490 L203.8367 90.5547 "/>
<path d="M203.8367 90.5547 L203.9310 90.4605 "/>
<path d="M203.9310 90.4605 L204.0252 90.2720 "/>
<path d="M204.0252 90.2720 L204.0252 89.8950 "/>
<path d="M204.0252 89.8950 L203.9310 89.7065 "/>
<path d="M203.9310 89.7065 L203.8367 89.6122 "/>
<path d="M203.8367 89.6122 L203.6482 89.5180 "/>
</g><text x="127.3772" y="128.5711" transform="scale(-1 1) translate(-254.754344 0)" textLength="4.4186" font-size="2.6391" lengthAdjust="spacingAndGlyphs" text-anchor="middle" opacity="0.01" style="font-family:monospace">C1</text>
<g class="stroked-text"><desc>C1</desc>
<path d="M127.0473 128.2921 L126.9530 128.3864 "/>
<path d="M126.9530 128.3864 L126.6703 128.4806 "/>
<path d="M126.6703 128.4806 L126.4818 128.4806 "/>
<path d="M126.4818 128.4806 L126.1990 128.3864 "/>
<path d="M126.1990 128.3864 L126.0105 128.1978 "/>
<path d="M126.0105 128.1978 L125.9163 128.0093 "/>
<path d="M125.9163 128.0093 L125.8220 127.6323 "/>
<path d="M125.8220 127.6323 L125.8220 127.3496 "/>
<path d="M125.8220 127.3496 L125.9163 126.9726 "/>
<path d="M125.9163 126.9726 L126.0105 126.7841 "/>
<path d="M126.0105 126.7841 L126.1990 126.5956 "/>
<path d="M126.1990 126.5956 L126.4818 126.5013 "/>
<path d="M126.4818 126.5013 L126.6703 126.5013 "/>
<path d="M126.6703 126.5013 L126.9530 126.5956 "/>
<path d="M126.9530 126.5956 L127.0473 126.6898 "/>
<path d="M128.9323 128.4806 L127.8013 128.4806 "/>
<path d="M128.3668 128.4806 L128.3668 126.5013 "/>
<path d="M128.3668 126.5013 L128.1783 126.7841 "/>
<path d="M128.1783 126.7841 L127.9898 126.9726 "/>
<path d="M127.9898 126.9726 L127.8013 127.0668 "/>
</g><g transform="rotate(-90.000000 183.8665 174.8373)">
<text x="183.8665" y="175.8270" transform="scale(-1 1) translate(-367.733041 0)" textLength="6.3036" font-size="2.6391" lengthAdjust="spacingAndGlyphs" text-anchor="middle" opacity="0.01" style="font-family:monospace">R20</text>
</g>
<g class="stroked-text"><desc>R20</desc>
<path d="M182.9673 173.5649 L183.9099 172.9051 "/>
<path d="M182.9673 172.4339 L184.9466 172.4339 "/>
<path d="M184.9466 172.4339 L184.9466 173.1879 "/>
<path d="M184.9466 173.1879 L184.8524 173.3764 "/>
<path d="M184.8524 173.3764 L184.7581 173.4706 "/>
<path d="M184.7581 173.4706 L184.5696 173.5649 "/>
<path d="M184.5696 173.5649 L184.2869 173.5649 "/>
<path d="M184.2869 173.5649 L184.0984 173.4706 "/>
<path d="M184.0984 173.4706 L184.0041 173.3764 "/>
<path d="M184.0041 173.3764 L183.9099 173.1879 "/>
<path d="M183.9099 173.1879 L183.9099 172.4339 "/>
<path d="M184.7581 174.3189 L184.8524 174.4132 "/>
<path d="M184.8524 174.4132 L184.9466 174.6017 "/>
<path d="M184.9466 174.6017 L184.9466 175.0729 "/>
<path d="M184.9466 175.0729 L184.8524 175.2614 "/>
<path d="M184.8524 175.2614 L184.7581 175.3557 "/>
<path d="M184.7581 175.3557 L184.5696 175.4499 "/>
<path d="M184.5696 175.4499 L184.3811 175.4499 "/>
<path d="M184.3811 175.4499 L184.0984 175.3557 "/>
<path d="M184.0984 175.3557 L182.9673 174.2247 "/>
<path d="M182.9673 174.2247 L182.9673 175.4499 "/>
<path d="M184.9466 176.6752 L184.9466 176.8637 "/>
<path d="M184.9466 176.8637 L184.8524 177.0522 "/>
<path d="M184.8524 177.0522 L184.7581 177.1465 "/>
<path d="M184.7581 177.1465 L184.5696 177.2407 "/>
<path d="M184.5696 177.2407 L184.1926 177.3350 "/>
<path d="M184.1926 177.3350 L183.7213 177.3350 "/>
<path d="M183.7213 177.3350 L183.3443 177.2407 "/>
<path d="M183.3443 177.2407 L183.1558 177.1465 "/>
<path d="M183.1558 177.1465 L183.0616 177.0522 "/>
<path d="M183.0616 177.0522 L182.9673 176.8637 "/>
<path d="M182.9673 176.8637 L182.9673 176.6752 "/>
<path d="M182.9673 176.6752 L183.0616 176.4867 "/>
<path d="M183.0616 176.4867 L183.1558 176.3925 "/>
<path d="M183.1558 176.3925 L183.3443 176.2982 "/>
<path d="M183.3443 176.2982 L183.7213 176.2040 "/>
<path d="M183.7213 176.2040 L184.1926 176.2040 "/>
<path d="M184.1926 176.2040 L184.5696 176.2982 "/>
<path d="M184.5696 176.2982 L184.7581 176.3925 "/>
<path d="M184.7581 176.3925 L184.8524 176.4867 "/>
<path d="M184.8524 176.4867 L184.9466 176.6752 "/>
</g><g transform="rotate(-90.000000 180.5809 188.6726)">
<text x="180.5809" y="189.6623" transform="scale(-1 1) translate(-361.161750 0)" textLength="6.3036" font-size="2.6391" lengthAdjust="spacingAndGlyphs" text-anchor="middle" opacity="0.01" style="font-family:monospace">R18</text>
</g>
<g class="stroked-text"><desc>R18</desc>
<path d="M179.6817 187.4002 L180.6242 186.7405 "/>
<path d="M179.6817 186.2692 L181.6610 186.2692 "/>
<path d="M181.6610 186.2692 L181.6610 187.0232 "/>
<path d="M181.6610 187.0232 L181.5667 187.2117 "/>
<path d="M181.5667 187.2117 L181.4725 187.3060 "/>
<path d="M181.4725 187.3060 L181.2840 187.4002 "/>
<path d="M181.2840 187.4002 L181.0012 187.4002 "/>
<path d="M181.0012 187.4002 L180.8127 187.3060 "/>
<path d="M180.8127 187.3060 L180.7185 187.2117 "/>
<path d="M180.7185 187.2117 L180.6242 187.0232 "/>
<path d="M180.6242 187.0232 L180.6242 186.2692 "/>
<path d="M179.6817 189.2853 L179.6817 188.1543 "/>
<path d="M179.6817 188.7198 L181.6610 188.7198 "/>
<path d="M181.6610 188.7198 L181.3782 188.5313 "/>
<path d="M181.3782 188.5313 L181.1897 188.3428 "/>
<path d="M181.1897 188.3428 L181.0955 188.1543 "/>
<path d="M180.8127 190.4163 L180.9070 190.2278 "/>
<path d="M180.9070 190.2278 L181.0012 190.1336 "/>
<path d="M181.0012 190.1336 L181.1897 190.0393 "/>
<path d="M181.1897 190.0393 L181.2840 190.0393 "/>
<path d="M181.2840 190.0393 L181.4725 190.1336 "/>
<path d="M181.4725 190.1336 L181.5667 190.2278 "/>
<path d="M181.5667 190.2278 L181.6610 190.4163 "/>
<path d="M181.6610 190.4163 L181.6610 190.7933 "/>
<path d="M181.6610 190.7933 L181.5667 190.9818 "/>
<path d="M181.5667 190.9818 L181.4725 191.0761 "/>
<path d="M181.4725 191.0761 L181.2840 191.1703 "/>
<path d="M181.2840 191.1703 L181.1897 191.1703 "/>
<path d="M181.1897 191.1703 L181.0012 191.0761 "/>
<path d="M181.0012 191.0761 L180.9070 190.9818 "/>
<path d="M180.9070 190.9818 L180.8127 190.7933 "/>
<path d="M180.8127 190.7933 L180.8127 190.4163 "/>
<path d="M180.8127 190.4163 L180.7185 190.2278 "/>
<path d="M180.7185 190.2278 L180.6242 190.1336 "/>
<path d="M180.6242 190.1336 L180.4357 190.0393 "/>
<path d="M180.4357 190.0393 L180.0587 190.0393 "/>
<path d="M180.0587 190.0393 L179.8702 190.1336 "/>
<path d="M179.8702 190.1336 L179.7759 190.2278 "/>
<path d="M179.7759 190.2278 L179.6817 190.4163 "/>
<path d="M179.6817 190.4163 L179.6817 190.7933 "/>
<path d="M179.6817 190.7933 L179.7759 190.9818 "/>
<path d="M179.7759 190.9818 L179.8702 191.0761 "/>
<path d="M179.8702 191.0761 L180.0587 191.1703 "/>
<path d="M180.0587 191.1703 L180.4357 191.1703 "/>
<path d="M180.4357 191.1703 L180.6242 191.0761 "/>
<path d="M180.6242 191.0761 L180.7185 190.9818 "/>
<path d="M180.7185 190.9818 L180.8127 190.7933 "/>
</g></g>
<g style="fill:#000084; fill-opacity:0.01;  stroke:#000084; stroke-width:0.5938; stroke-opacity:1;  stroke-linecap:round; stroke-linejoin:round;">
<text x="212.0479" y="144.9676" transform="scale(-1 1) translate(-424.095714 0)" textLength="10.5914" font-size="6.7032" lengthAdjust="spacingAndGlyphs" text-anchor="middle" opacity="0.01" style="font-family:monospace">D3</text>
<g class="stroked-text"><desc>D3</desc>
<path d="M208.3371 144.7488 L208.3371 139.7214 "/>
<path d="M208.3371 139.7214 L209.5341 139.7214 "/>
<path d="M209.5341 139.7214 L210.2523 139.9608 "/>
<path d="M210.2523 139.9608 L210.7311 140.4396 "/>
<path d="M210.7311 140.4396 L210.9706 140.9184 "/>
<path d="M210.9706 140.9184 L211.2100 141.8760 "/>
<path d="M211.2100 141.8760 L211.2100 142.5942 "/>
<path d="M211.2100 142.5942 L210.9706 143.5518 "/>
<path d="M210.9706 143.5518 L210.7311 144.0306 "/>
<path d="M210.7311 144.0306 L210.2523 144.5094 "/>
<path d="M210.2523 144.5094 L209.5341 144.7488 "/>
<path d="M209.5341 144.7488 L208.3371 144.7488 "/>
<path d="M212.8858 139.7214 L215.9980 139.7214 "/>
<path d="M215.9980 139.7214 L214.3222 141.6366 "/>
<path d="M214.3222 141.6366 L215.0404 141.6366 "/>
<path d="M215.0404 141.6366 L215.5192 141.8760 "/>
<path d="M215.5192 141.8760 L215.7586 142.1154 "/>
<path d="M215.7586 142.1154 L215.9980 142.5942 "/>
<path d="M215.9980 142.5942 L215.9980 143.7912 "/>
<path d="M215.9980 143.7912 L215.7586 144.2700 "/>
<path d="M215.7586 144.2700 L215.5192 144.5094 "/>
<path d="M215.5192 144.5094 L215.0404 144.7488 "/>
<path d="M215.0404 144.7488 L213.6040 144.7488 "/>
<path d="M213.6040 144.7488 L213.1252 144.5094 "/>
<path d="M213.1252 144.5094 L212.8858 144.2700 "/>
</g><text x="200.5354" y="144.6728" transform="scale(-1 1) translate(-401.070861 0)" textLength="5.8033" font-size="6.7032" lengthAdjust="spacingAndGlyphs" text-anchor="middle" opacity="0.01" style="font-family:monospace">K</text>
<g class="stroked-text"><desc>K</desc>
<path d="M199.2187 144.4540 L199.2187 139.4266 "/>
<path d="M202.0915 144.4540 L199.9369 141.5812 "/>
<path d="M202.0915 139.4266 L199.2187 142.2994 "/>
</g></g>
<g style="fill:#000084; fill-opacity:0.01;  stroke:#000084; stroke-width:0.3167; stroke-opacity:1;  stroke-linecap:round; stroke-linejoin:round;">
<text x="150.8814" y="55.6535" transform="scale(-1 1) translate(-301.762824 0)" textLength="6.3036" font-size="2.6391" lengthAdjust="spacingAndGlyphs" text-anchor="middle" opacity="0.01" style="font-family:monospace">R13</text>
<g class="stroked-text"><desc>R13</desc>
<path d="M149.6090 55.5630 L148.9492 54.6205 "/>
<path d="M148.4780 55.5630 L148.4780 53.5837 "/>
<path d="M148.4780 53.5837 L149.2320 53.5837 "/>
<path d="M149.2320 53.5837 L149.4205 53.6780 "/>
<path d="M149.4205 53.6780 L149.5148 53.7722 "/>
<path d="M149.5148 53.7722 L149.6090 53.9607 "/>
<path d="M149.6090 53.9607 L149.6090 54.2435 "/>
<path d="M149.6090 54.2435 L149.5148 54.4320 "/>
<path d="M149.5148 54.4320 L149.4205 54.5263 "/>
<path d="M149.4205 54.5263 L149.2320 54.6205 "/>
<path d="M149.2320 54.6205 L148.4780 54.6205 "/>
<path d="M151.4941 55.5630 L150.3630 55.5630 "/>
<path d="M150.9285 55.5630 L150.9285 53.5837 "/>
<path d="M150.9285 53.5837 L150.7400 53.8665 "/>
<path d="M150.7400 53.8665 L150.5515 54.0550 "/>
<path d="M150.5515 54.0550 L150.3630 54.1492 "/>
<path d="M152.1538 53.5837 L153.3791 53.5837 "/>
<path d="M153.3791 53.5837 L152.7193 54.3377 "/>
<path d="M152.7193 54.3377 L153.0021 54.3377 "/>
<path d="M153.0021 54.3377 L153.1906 54.4320 "/>
<path d="M153.1906 54.4320 L153.2849 54.5263 "/>
<path d="M153.2849 54.5263 L153.3791 54.7148 "/>
<path d="M153.3791 54.7148 L153.3791 55.1860 "/>
<path d="M153.3791 55.1860 L153.2849 55.3745 "/>
<path d="M153.2849 55.3745 L153.1906 55.4688 "/>
<path d="M153.1906 55.4688 L153.0021 55.5630 "/>
<path d="M153.0021 55.5630 L152.4366 55.5630 "/>
<path d="M152.4366 55.5630 L152.2481 55.4688 "/>
<path d="M152.2481 55.4688 L152.1538 55.3745 "/>
</g></g>
<g style="fill:#000084; fill-opacity:0.01;  stroke:#000084; stroke-width:0.5938; stroke-opacity:1;  stroke-linecap:round; stroke-linejoin:round;">
<text x="200.4958" y="134.5124" transform="scale(-1 1) translate(-400.991689 0)" textLength="5.8033" font-size="6.7032" lengthAdjust="spacingAndGlyphs" text-anchor="middle" opacity="0.01" style="font-family:monospace">K</text>
<g class="stroked-text"><desc>K</desc>
<path d="M199.1791 134.2936 L199.1791 129.2662 "/>
<path d="M202.0520 134.2936 L199.8973 131.4208 "/>
<path d="M202.0520 129.2662 L199.1791 132.1390 "/>
</g><text x="212.0479" y="134.4100" transform="scale(-1 1) translate(-424.095714 0)" textLength="10.5914" font-size="6.7032" lengthAdjust="spacingAndGlyphs" text-anchor="middle" opacity="0.01" style="font-family:monospace">D2</text>
<g class="stroked-text"><desc>D2</desc>
<path d="M208.3371 134.1912 L208.3371 129.1638 "/>
<path d="M208.3371 129.1638 L209.5341 129.1638 "/>
<path d="M209.5341 129.1638 L210.2523 129.4032 "/>
<path d="M210.2523 129.4032 L210.7311 129.8820 "/>
<path d="M210.7311 129.8820 L210.9706 130.3608 "/>
<path d="M210.9706 130.3608 L211.2100 131.3184 "/>
<path d="M211.2100 131.3184 L211.2100 132.0366 "/>
<path d="M211.2100 132.0366 L210.9706 132.9942 "/>
<path d="M210.9706 132.9942 L210.7311 133.4730 "/>
<path d="M210.7311 133.4730 L210.2523 133.9518 "/>
<path d="M210.2523 133.9518 L209.5341 134.1912 "/>
<path d="M209.5341 134.1912 L208.3371 134.1912 "/>
<path d="M213.1252 129.6426 L213.3646 129.4032 "/>
<path d="M213.3646 129.4032 L213.8434 129.1638 "/>
<path d="M213.8434 129.1638 L215.0404 129.1638 "/>
<path d="M215.0404 129.1638 L215.5192 129.4032 "/>
<path d="M215.5192 129.4032 L215.7586 129.6426 "/>
<path d="M215.7586 129.6426 L215.9980 130.1214 "/>
<path d="M215.9980 130.1214 L215.9980 130.6002 "/>
<path d="M215.9980 130.6002 L215.7586 131.3184 "/>
<path d="M215.7586 131.3184 L212.8858 134.1912 "/>
<path d="M212.8858 134.1912 L215.9980 134.1912 "/>
</g></g>
<g style="fill:#000084; fill-opacity:0.01;  stroke:#000084; stroke-width:0.2375; stroke-opacity:1;  stroke-linecap:round; stroke-linejoin:round;">
<text x="203.5804" y="113.3304" transform="scale(-1 1) translate(-407.160785 0)" textLength="5.5986" font-size="2.1113" lengthAdjust="spacingAndGlyphs" text-anchor="middle" opacity="0.01" style="font-family:monospace">FID1</text>
<g class="stroked-text"><desc>FID1</desc>
<path d="M201.8839 112.4295 L201.3560 112.4295 "/>
<path d="M201.3560 113.2589 L201.3560 111.6754 "/>
<path d="M201.3560 111.6754 L202.1101 111.6754 "/>
<path d="M202.7133 113.2589 L202.7133 111.6754 "/>
<path d="M203.4673 113.2589 L203.4673 111.6754 "/>
<path d="M203.4673 111.6754 L203.8443 111.6754 "/>
<path d="M203.8443 111.6754 L204.0705 111.7508 "/>
<path d="M204.0705 111.7508 L204.2213 111.9016 "/>
<path d="M204.2213 111.9016 L204.2967 112.0524 "/>
<path d="M204.2967 112.0524 L204.3721 112.3541 "/>
<path d="M204.3721 112.3541 L204.3721 112.5803 "/>
<path d="M204.3721 112.5803 L204.2967 112.8819 "/>
<path d="M204.2967 112.8819 L204.2213 113.0327 "/>
<path d="M204.2213 113.0327 L204.0705 113.1835 "/>
<path d="M204.0705 113.1835 L203.8443 113.2589 "/>
<path d="M203.8443 113.2589 L203.4673 113.2589 "/>
<path d="M205.8802 113.2589 L204.9753 113.2589 "/>
<path d="M205.4277 113.2589 L205.4277 111.6754 "/>
<path d="M205.4277 111.6754 L205.2769 111.9016 "/>
<path d="M205.2769 111.9016 L205.1261 112.0524 "/>
<path d="M205.1261 112.0524 L204.9753 112.1278 "/>
</g></g>
<g style="fill:#000084; fill-opacity:0.0;  stroke:#000084; stroke-width:0.3167; stroke-opacity:1;  stroke-linecap:round; stroke-linejoin:round;">
<g transform="rotate(-90.000000 204.3721 168.3452)">
<text x="204.3721" y="169.3348" transform="scale(-1 1) translate(-408.744229 0)" textLength="4.4186" font-size="2.6391" lengthAdjust="spacingAndGlyphs" text-anchor="middle" opacity="0.01" style="font-family:monospace">R3</text>
</g>
<g class="stroked-text"><desc>R3</desc>
<path d="M203.4729 168.0153 L204.4154 167.3555 "/>
<path d="M203.4729 166.8843 L205.4522 166.8843 "/>
<path d="M205.4522 166.8843 L205.4522 167.6383 "/>
<path d="M205.4522 167.6383 L205.3580 167.8268 "/>
<path d="M205.3580 167.8268 L205.2637 167.9210 "/>
<path d="M205.2637 167.9210 L205.0752 168.0153 "/>
<path d="M205.0752 168.0153 L204.7925 168.0153 "/>
<path d="M204.7925 168.0153 L204.6040 167.9210 "/>
<path d="M204.6040 167.9210 L204.5097 167.8268 "/>
<path d="M204.5097 167.8268 L204.4154 167.6383 "/>
<path d="M204.4154 167.6383 L204.4154 166.8843 "/>
<path d="M205.4522 168.6751 L205.4522 169.9004 "/>
<path d="M205.4522 169.9004 L204.6982 169.2406 "/>
<path d="M204.6982 169.2406 L204.6982 169.5233 "/>
<path d="M204.6982 169.5233 L204.6040 169.7118 "/>
<path d="M204.6040 169.7118 L204.5097 169.8061 "/>
<path d="M204.5097 169.8061 L204.3212 169.9004 "/>
<path d="M204.3212 169.9004 L203.8499 169.9004 "/>
<path d="M203.8499 169.9004 L203.6614 169.8061 "/>
<path d="M203.6614 169.8061 L203.5672 169.7118 "/>
<path d="M203.5672 169.7118 L203.4729 169.5233 "/>
<path d="M203.4729 169.5233 L203.4729 168.9578 "/>
<path d="M203.4729 168.9578 L203.5672 168.7693 "/>
<path d="M203.5672 168.7693 L203.6614 168.6751 "/>
</g></g>
<g style="fill:#000084; fill-opacity:0.0;  stroke:#000084; stroke-width:0.5938; stroke-opacity:1;  stroke-linecap:round; stroke-linejoin:round;">
<g transform="rotate(-90.000000 146.0816 115.9233)">
<text x="146.0816" y="117.9026" transform="scale(-1 1) translate(-292.163198 0)" textLength="8.9069" font-size="5.2781" lengthAdjust="spacingAndGlyphs" text-anchor="middle" opacity="0.01" style="font-family:monospace">U1</text>
</g>
<g class="stroked-text"><desc>U1</desc>
<path d="M148.2398 112.9072 L145.0352 112.9072 "/>
<path d="M145.0352 112.9072 L144.6582 113.0957 "/>
<path d="M144.6582 113.0957 L144.4697 113.2842 "/>
<path d="M144.4697 113.2842 L144.2811 113.6612 "/>
<path d="M144.2811 113.6612 L144.2811 114.4153 "/>
<path d="M144.2811 114.4153 L144.4697 114.7923 "/>
<path d="M144.4697 114.7923 L144.6582 114.9808 "/>
<path d="M144.6582 114.9808 L145.0352 115.1693 "/>
<path d="M145.0352 115.1693 L148.2398 115.1693 "/>
<path d="M144.2811 119.1279 L144.2811 116.8658 "/>
<path d="M144.2811 117.9969 L148.2398 117.9969 "/>
<path d="M148.2398 117.9969 L147.6742 117.6199 "/>
<path d="M147.6742 117.6199 L147.2972 117.2428 "/>
<path d="M147.2972 117.2428 L147.1087 116.8658 "/>
</g></g>
<g style="fill:#000084; fill-opacity:0.0;  stroke:#000084; stroke-width:0.3167; stroke-opacity:1;  stroke-linecap:round; stroke-linejoin:round;">
<g transform="rotate(-90.000000 188.6564 188.6331)">
<text x="188.6564" y="189.6227" transform="scale(-1 1) translate(-377.312874 0)" textLength="6.3036" font-size="2.6391" lengthAdjust="spacingAndGlyphs" text-anchor="middle" opacity="0.01" style="font-family:monospace">R17</text>
</g>
<g class="stroked-text"><desc>R17</desc>
<path d="M187.7572 187.3606 L188.6998 186.7009 "/>
<path d="M187.7572 186.2296 L189.7365 186.2296 "/>
<path d="M189.7365 186.2296 L189.7365 186.9836 "/>
<path d="M189.7365 186.9836 L189.6423 187.1721 "/>
<path d="M189.6423 187.1721 L189.5480 187.2664 "/>
<path d="M189.5480 187.2664 L189.3595 187.3606 "/>
<path d="M189.3595 187.3606 L189.0768 187.3606 "/>
<path d="M189.0768 187.3606 L188.8883 187.2664 "/>
<path d="M188.8883 187.2664 L188.7940 187.1721 "/>
<path d="M188.7940 187.1721 L188.6998 186.9836 "/>
<path d="M188.6998 186.9836 L188.6998 186.2296 "/>
<path d="M187.7572 189.2457 L187.7572 188.1147 "/>
<path d="M187.7572 188.6802 L189.7365 188.6802 "/>
<path d="M189.7365 188.6802 L189.4538 188.4917 "/>
<path d="M189.4538 188.4917 L189.2653 188.3032 "/>
<path d="M189.2653 188.3032 L189.1710 188.1147 "/>
<path d="M189.7365 189.9055 L189.7365 191.2250 "/>
<path d="M189.7365 191.2250 L187.7572 190.3767 "/>
</g></g>
<g style="fill:#000084; fill-opacity:0.01;  stroke:#000084; stroke-width:0.5938; stroke-opacity:1;  stroke-linecap:round; stroke-linejoin:round;">
<text x="200.6344" y="104.4204" transform="scale(-1 1) translate(-401.268792 0)" textLength="5.8033" font-size="6.7032" lengthAdjust="spacingAndGlyphs" text-anchor="middle" opacity="0.01" style="font-family:monospace">K</text>
<g class="stroked-text"><desc>K</desc>
<path d="M199.3177 104.2016 L199.3177 99.1741 "/>
<path d="M202.1905 104.2016 L200.0359 101.3288 "/>
<path d="M202.1905 99.1741 L199.3177 102.0470 "/>
</g><text x="212.5506" y="104.7482" transform="scale(-1 1) translate(-425.101201 0)" textLength="10.5914" font-size="6.7032" lengthAdjust="spacingAndGlyphs" text-anchor="middle" opacity="0.01" style="font-family:monospace">D1</text>
<g class="stroked-text"><desc>D1</desc>
<path d="M208.8399 104.5293 L208.8399 99.5019 "/>
<path d="M208.8399 99.5019 L210.0369 99.5019 "/>
<path d="M210.0369 99.5019 L210.7551 99.7413 "/>
<path d="M210.7551 99.7413 L211.2339 100.2201 "/>
<path d="M211.2339 100.2201 L211.4733 100.6989 "/>
<path d="M211.4733 100.6989 L211.7127 101.6565 "/>
<path d="M211.7127 101.6565 L211.7127 102.3747 "/>
<path d="M211.7127 102.3747 L211.4733 103.3323 "/>
<path d="M211.4733 103.3323 L211.2339 103.8111 "/>
<path d="M211.2339 103.8111 L210.7551 104.2899 "/>
<path d="M210.7551 104.2899 L210.0369 104.5293 "/>
<path d="M210.0369 104.5293 L208.8399 104.5293 "/>
<path d="M216.5007 104.5293 L213.6279 104.5293 "/>
<path d="M215.0643 104.5293 L215.0643 99.5019 "/>
<path d="M215.0643 99.5019 L214.5855 100.2201 "/>
<path d="M214.5855 100.2201 L214.1067 100.6989 "/>
<path d="M214.1067 100.6989 L213.6279 100.9383 "/>
</g></g>
<g style="fill:#000084; fill-opacity:0.0;  stroke:#000084; stroke-width:0.3167; stroke-opacity:1;  stroke-linecap:round; stroke-linejoin:round;">
<g transform="rotate(-90.000000 184.2624 88.0745)">
<text x="184.2624" y="89.0641" transform="scale(-1 1) translate(-368.524763 0)" textLength="6.3036" font-size="2.6391" lengthAdjust="spacingAndGlyphs" text-anchor="middle" opacity="0.01" style="font-family:monospace">R15</text>
</g>
<g class="stroked-text"><desc>R15</desc>
<path d="M183.3632 86.8021 L184.3057 86.1423 "/>
<path d="M183.3632 85.6711 L185.3425 85.6711 "/>
<path d="M185.3425 85.6711 L185.3425 86.4251 "/>
<path d="M185.3425 86.4251 L185.2482 86.6136 "/>
<path d="M185.2482 86.6136 L185.1540 86.7078 "/>
<path d="M185.1540 86.7078 L184.9655 86.8021 "/>
<path d="M184.9655 86.8021 L184.6827 86.8021 "/>
<path d="M184.6827 86.8021 L184.4942 86.7078 "/>
<path d="M184.4942 86.7078 L184.4000 86.6136 "/>
<path d="M184.4000 86.6136 L184.3057 86.4251 "/>
<path d="M184.3057 86.4251 L184.3057 85.6711 "/>
<path d="M183.3632 88.6871 L183.3632 87.5561 "/>
<path d="M183.3632 88.1216 L185.3425 88.1216 "/>
<path d="M185.3425 88.1216 L185.0597 87.9331 "/>
<path d="M185.0597 87.9331 L184.8712 87.7446 "/>
<path d="M184.8712 87.7446 L184.7770 87.5561 "/>
<path d="M185.3425 90.4779 L185.3425 89.5354 "/>
<path d="M185.3425 89.5354 L184.4000 89.4412 "/>
<path d="M184.4000 89.4412 L184.4942 89.5354 "/>
<path d="M184.4942 89.5354 L184.5885 89.7239 "/>
<path d="M184.5885 89.7239 L184.5885 90.1952 "/>
<path d="M184.5885 90.1952 L184.4942 90.3837 "/>
<path d="M184.4942 90.3837 L184.4000 90.4779 "/>
<path d="M184.4000 90.4779 L184.2115 90.5722 "/>
<path d="M184.2115 90.5722 L183.7402 90.5722 "/>
<path d="M183.7402 90.5722 L183.5517 90.4779 "/>
<path d="M183.5517 90.4779 L183.4574 90.3837 "/>
<path d="M183.4574 90.3837 L183.3632 90.1952 "/>
<path d="M183.3632 90.1952 L183.3632 89.7239 "/>
<path d="M183.3632 89.7239 L183.4574 89.5354 "/>
<path d="M183.4574 89.5354 L183.5517 89.4412 "/>
</g></g>
<g style="fill:#000084; fill-opacity:0.01;  stroke:#000084; stroke-width:0.5938; stroke-opacity:1;  stroke-linecap:round; stroke-linejoin:round;">
<text x="200.5948" y="154.8333" transform="scale(-1 1) translate(-401.189620 0)" textLength="5.8033" font-size="6.7032" lengthAdjust="spacingAndGlyphs" text-anchor="middle" opacity="0.01" style="font-family:monospace">K</text>
<g class="stroked-text"><desc>K</desc>
<path d="M199.2781 154.6145 L199.2781 149.5870 "/>
<path d="M202.1509 154.6145 L199.9963 151.7416 "/>
<path d="M202.1509 149.5870 L199.2781 152.4598 "/>
</g><text x="212.0479" y="155.0225" transform="scale(-1 1) translate(-424.095714 0)" textLength="10.5914" font-size="6.7032" lengthAdjust="spacingAndGlyphs" text-anchor="middle" opacity="0.01" style="font-family:monospace">D4</text>
<g class="stroked-text"><desc>D4</desc>
<path d="M208.3371 154.8037 L208.3371 149.7762 "/>
<path d="M208.3371 149.7762 L209.5341 149.7762 "/>
<path d="M209.5341 149.7762 L210.2523 150.0156 "/>
<path d="M210.2523 150.0156 L210.7311 150.4944 "/>
<path d="M210.7311 150.4944 L210.9706 150.9733 "/>
<path d="M210.9706 150.9733 L211.2100 151.9309 "/>
<path d="M211.2100 151.9309 L211.2100 152.6491 "/>
<path d="M211.2100 152.6491 L210.9706 153.6067 "/>
<path d="M210.9706 153.6067 L210.7311 154.0855 "/>
<path d="M210.7311 154.0855 L210.2523 154.5643 "/>
<path d="M210.2523 154.5643 L209.5341 154.8037 "/>
<path d="M209.5341 154.8037 L208.3371 154.8037 "/>
<path d="M215.5192 151.4521 L215.5192 154.8037 "/>
<path d="M214.3222 149.5368 L213.1252 153.1279 "/>
<path d="M213.1252 153.1279 L216.2374 153.1279 "/>
</g></g>
<g style="fill:#000084; fill-opacity:0.01;  stroke:#000084; stroke-width:0.3167; stroke-opacity:1;  stroke-linecap:round; stroke-linejoin:round;">
<g transform="rotate(-90.000000 219.9294 89.1433)">
<text x="219.9294" y="90.1330" transform="scale(-1 1) translate(-439.858894 0)" textLength="4.4186" font-size="2.6391" lengthAdjust="spacingAndGlyphs" text-anchor="middle" opacity="0.01" style="font-family:monospace">R7</text>
</g>
<g class="stroked-text"><desc>R7</desc>
<path d="M219.0303 88.8134 L219.9728 88.1537 "/>
<path d="M219.0303 87.6824 L221.0096 87.6824 "/>
<path d="M221.0096 87.6824 L221.0096 88.4364 "/>
<path d="M221.0096 88.4364 L220.9153 88.6249 "/>
<path d="M220.9153 88.6249 L220.8211 88.7192 "/>
<path d="M220.8211 88.7192 L220.6325 88.8134 "/>
<path d="M220.6325 88.8134 L220.3498 88.8134 "/>
<path d="M220.3498 88.8134 L220.1613 88.7192 "/>
<path d="M220.1613 88.7192 L220.0670 88.6249 "/>
<path d="M220.0670 88.6249 L219.9728 88.4364 "/>
<path d="M219.9728 88.4364 L219.9728 87.6824 "/>
<path d="M221.0096 89.4732 L221.0096 90.7927 "/>
<path d="M221.0096 90.7927 L219.0303 89.9445 "/>
</g><g transform="rotate(-90.000000 211.8143 89.1433)">
<text x="211.8143" y="90.1330" transform="scale(-1 1) translate(-423.628598 0)" textLength="4.4186" font-size="2.6391" lengthAdjust="spacingAndGlyphs" text-anchor="middle" opacity="0.01" style="font-family:monospace">R5</text>
</g>
<g class="stroked-text"><desc>R5</desc>
<path d="M210.9151 88.8134 L211.8576 88.1537 "/>
<path d="M210.9151 87.6824 L212.8944 87.6824 "/>
<path d="M212.8944 87.6824 L212.8944 88.4364 "/>
<path d="M212.8944 88.4364 L212.8002 88.6249 "/>
<path d="M212.8002 88.6249 L212.7059 88.7192 "/>
<path d="M212.7059 88.7192 L212.5174 88.8134 "/>
<path d="M212.5174 88.8134 L212.2346 88.8134 "/>
<path d="M212.2346 88.8134 L212.0461 88.7192 "/>
<path d="M212.0461 88.7192 L211.9519 88.6249 "/>
<path d="M211.9519 88.6249 L211.8576 88.4364 "/>
<path d="M211.8576 88.4364 L211.8576 87.6824 "/>
<path d="M212.8944 90.6042 L212.8944 89.6617 "/>
<path d="M212.8944 89.6617 L211.9519 89.5675 "/>
<path d="M211.9519 89.5675 L212.0461 89.6617 "/>
<path d="M212.0461 89.6617 L212.1404 89.8502 "/>
<path d="M212.1404 89.8502 L212.1404 90.3215 "/>
<path d="M212.1404 90.3215 L212.0461 90.5100 "/>
<path d="M212.0461 90.5100 L211.9519 90.6042 "/>
<path d="M211.9519 90.6042 L211.7634 90.6985 "/>
<path d="M211.7634 90.6985 L211.2921 90.6985 "/>
<path d="M211.2921 90.6985 L211.1036 90.6042 "/>
<path d="M211.1036 90.6042 L211.0094 90.5100 "/>
<path d="M211.0094 90.5100 L210.9151 90.3215 "/>
<path d="M210.9151 90.3215 L210.9151 89.8502 "/>
<path d="M210.9151 89.8502 L211.0094 89.6617 "/>
<path d="M211.0094 89.6617 L211.1036 89.5675 "/>
</g><text x="127.3772" y="120.2184" transform="scale(-1 1) translate(-254.754344 0)" textLength="4.4186" font-size="2.6391" lengthAdjust="spacingAndGlyphs" text-anchor="middle" opacity="0.01" style="font-family:monospace">C7</text>
<g class="stroked-text"><desc>C7</desc>
<path d="M127.0473 119.9394 L126.9530 120.0337 "/>
<path d="M126.9530 120.0337 L126.6703 120.1279 "/>
<path d="M126.6703 120.1279 L126.4818 120.1279 "/>
<path d="M126.4818 120.1279 L126.1990 120.0337 "/>
<path d="M126.1990 120.0337 L126.0105 119.8452 "/>
<path d="M126.0105 119.8452 L125.9163 119.6567 "/>
<path d="M125.9163 119.6567 L125.8220 119.2797 "/>
<path d="M125.8220 119.2797 L125.8220 118.9969 "/>
<path d="M125.8220 118.9969 L125.9163 118.6199 "/>
<path d="M125.9163 118.6199 L126.0105 118.4314 "/>
<path d="M126.0105 118.4314 L126.1990 118.2429 "/>
<path d="M126.1990 118.2429 L126.4818 118.1486 "/>
<path d="M126.4818 118.1486 L126.6703 118.1486 "/>
<path d="M126.6703 118.1486 L126.9530 118.2429 "/>
<path d="M126.9530 118.2429 L127.0473 118.3371 "/>
<path d="M127.7071 118.1486 L129.0266 118.1486 "/>
<path d="M129.0266 118.1486 L128.1783 120.1279 "/>
</g><g transform="rotate(-90.000000 192.0608 174.8373)">
<text x="192.0608" y="175.8270" transform="scale(-1 1) translate(-384.121682 0)" textLength="6.3036" font-size="2.6391" lengthAdjust="spacingAndGlyphs" text-anchor="middle" opacity="0.01" style="font-family:monospace">R21</text>
</g>
<g class="stroked-text"><desc>R21</desc>
<path d="M191.1616 173.5649 L192.1042 172.9051 "/>
<path d="M191.1616 172.4339 L193.1410 172.4339 "/>
<path d="M193.1410 172.4339 L193.1410 173.1879 "/>
<path d="M193.1410 173.1879 L193.0467 173.3764 "/>
<path d="M193.0467 173.3764 L192.9524 173.4706 "/>
<path d="M192.9524 173.4706 L192.7639 173.5649 "/>
<path d="M192.7639 173.5649 L192.4812 173.5649 "/>
<path d="M192.4812 173.5649 L192.2927 173.4706 "/>
<path d="M192.2927 173.4706 L192.1984 173.3764 "/>
<path d="M192.1984 173.3764 L192.1042 173.1879 "/>
<path d="M192.1042 173.1879 L192.1042 172.4339 "/>
<path d="M192.9524 174.3189 L193.0467 174.4132 "/>
<path d="M193.0467 174.4132 L193.1410 174.6017 "/>
<path d="M193.1410 174.6017 L193.1410 175.0729 "/>
<path d="M193.1410 175.0729 L193.0467 175.2614 "/>
<path d="M193.0467 175.2614 L192.9524 175.3557 "/>
<path d="M192.9524 175.3557 L192.7639 175.4499 "/>
<path d="M192.7639 175.4499 L192.5754 175.4499 "/>
<path d="M192.5754 175.4499 L192.2927 175.3557 "/>
<path d="M192.2927 175.3557 L191.1616 174.2247 "/>
<path d="M191.1616 174.2247 L191.1616 175.4499 "/>
<path d="M191.1616 177.3350 L191.1616 176.2040 "/>
<path d="M191.1616 176.7695 L193.1410 176.7695 "/>
<path d="M193.1410 176.7695 L192.8582 176.5810 "/>
<path d="M192.8582 176.5810 L192.6697 176.3925 "/>
<path d="M192.6697 176.3925 L192.5754 176.2040 "/>
</g><g transform="rotate(-90.000000 102.6359 144.3263)">
<text x="102.6359" y="145.3160" transform="scale(-1 1) translate(-205.271733 0)" textLength="4.4186" font-size="2.6391" lengthAdjust="spacingAndGlyphs" text-anchor="middle" opacity="0.01" style="font-family:monospace">C4</text>
</g>
<g class="stroked-text"><desc>C4</desc>
<path d="M101.9252 143.9964 L101.8309 143.9022 "/>
<path d="M101.8309 143.9022 L101.7367 143.6194 "/>
<path d="M101.7367 143.6194 L101.7367 143.4309 "/>
<path d="M101.7367 143.4309 L101.8309 143.1482 "/>
<path d="M101.8309 143.1482 L102.0194 142.9597 "/>
<path d="M102.0194 142.9597 L102.2079 142.8654 "/>
<path d="M102.2079 142.8654 L102.5849 142.7712 "/>
<path d="M102.5849 142.7712 L102.8677 142.7712 "/>
<path d="M102.8677 142.7712 L103.2447 142.8654 "/>
<path d="M103.2447 142.8654 L103.4332 142.9597 "/>
<path d="M103.4332 142.9597 L103.6217 143.1482 "/>
<path d="M103.6217 143.1482 L103.7160 143.4309 "/>
<path d="M103.7160 143.4309 L103.7160 143.6194 "/>
<path d="M103.7160 143.6194 L103.6217 143.9022 "/>
<path d="M103.6217 143.9022 L103.5275 143.9964 "/>
<path d="M103.0562 145.6930 L101.7367 145.6930 "/>
<path d="M103.8102 145.2217 L102.3964 144.7505 "/>
<path d="M102.3964 144.7505 L102.3964 145.9757 "/>
</g><text x="156.0771" y="45.3611" transform="scale(-1 1) translate(-312.154173 0)" textLength="6.3036" font-size="2.6391" lengthAdjust="spacingAndGlyphs" text-anchor="middle" opacity="0.01" style="font-family:monospace">R14</text>
<g class="stroked-text"><desc>R14</desc>
<path d="M154.8047 45.2706 L154.1449 44.3281 "/>
<path d="M153.6736 45.2706 L153.6736 43.2913 "/>
<path d="M153.6736 43.2913 L154.4277 43.2913 "/>
<path d="M154.4277 43.2913 L154.6162 43.3856 "/>
<path d="M154.6162 43.3856 L154.7104 43.4798 "/>
<path d="M154.7104 43.4798 L154.8047 43.6684 "/>
<path d="M154.8047 43.6684 L154.8047 43.9511 "/>
<path d="M154.8047 43.9511 L154.7104 44.1396 "/>
<path d="M154.7104 44.1396 L154.6162 44.2339 "/>
<path d="M154.6162 44.2339 L154.4277 44.3281 "/>
<path d="M154.4277 44.3281 L153.6736 44.3281 "/>
<path d="M156.6897 45.2706 L155.5587 45.2706 "/>
<path d="M156.1242 45.2706 L156.1242 43.2913 "/>
<path d="M156.1242 43.2913 L155.9357 43.5741 "/>
<path d="M155.9357 43.5741 L155.7472 43.7626 "/>
<path d="M155.7472 43.7626 L155.5587 43.8569 "/>
<path d="M158.3863 43.9511 L158.3863 45.2706 "/>
<path d="M157.9150 43.1971 L157.4438 44.6109 "/>
<path d="M157.4438 44.6109 L158.6690 44.6109 "/>
</g><text x="143.5580" y="90.5684" transform="scale(-1 1) translate(-287.115972 0)" textLength="4.4186" font-size="2.6391" lengthAdjust="spacingAndGlyphs" text-anchor="middle" opacity="0.01" style="font-family:monospace">R1</text>
<g class="stroked-text"><desc>R1</desc>
<path d="M143.2281 90.4780 L142.5683 89.5354 "/>
<path d="M142.0971 90.4780 L142.0971 88.4987 "/>
<path d="M142.0971 88.4987 L142.8511 88.4987 "/>
<path d="M142.8511 88.4987 L143.0396 88.5929 "/>
<path d="M143.0396 88.5929 L143.1339 88.6872 "/>
<path d="M143.1339 88.6872 L143.2281 88.8757 "/>
<path d="M143.2281 88.8757 L143.2281 89.1584 "/>
<path d="M143.2281 89.1584 L143.1339 89.3469 "/>
<path d="M143.1339 89.3469 L143.0396 89.4412 "/>
<path d="M143.0396 89.4412 L142.8511 89.5354 "/>
<path d="M142.8511 89.5354 L142.0971 89.5354 "/>
<path d="M145.1132 90.4780 L143.9821 90.4780 "/>
<path d="M144.5476 90.4780 L144.5476 88.4987 "/>
<path d="M144.5476 88.4987 L144.3591 88.7814 "/>
<path d="M144.3591 88.7814 L144.1706 88.9699 "/>
<path d="M144.1706 88.9699 L143.9821 89.0642 "/>
</g><g transform="rotate(-90.000000 215.0604 168.2264)">
<text x="215.0604" y="169.2161" transform="scale(-1 1) translate(-430.120717 0)" textLength="4.4186" font-size="2.6391" lengthAdjust="spacingAndGlyphs" text-anchor="middle" opacity="0.01" style="font-family:monospace">R4</text>
</g>
<g class="stroked-text"><desc>R4</desc>
<path d="M214.1612 167.8965 L215.1037 167.2368 "/>
<path d="M214.1612 166.7655 L216.1405 166.7655 "/>
<path d="M216.1405 166.7655 L216.1405 167.5195 "/>
<path d="M216.1405 167.5195 L216.0462 167.7080 "/>
<path d="M216.0462 167.7080 L215.9520 167.8023 "/>
<path d="M215.9520 167.8023 L215.7635 167.8965 "/>
<path d="M215.7635 167.8965 L215.4807 167.8965 "/>
<path d="M215.4807 167.8965 L215.2922 167.8023 "/>
<path d="M215.2922 167.8023 L215.1979 167.7080 "/>
<path d="M215.1979 167.7080 L215.1037 167.5195 "/>
<path d="M215.1037 167.5195 L215.1037 166.7655 "/>
<path d="M215.4807 169.5931 L214.1612 169.5931 "/>
<path d="M216.2347 169.1218 L214.8209 168.6506 "/>
<path d="M214.8209 168.6506 L214.8209 169.8758 "/>
</g><g transform="rotate(-90.000000 110.5531 144.4748)">
<text x="110.5531" y="145.4644" transform="scale(-1 1) translate(-221.106169 0)" textLength="6.3036" font-size="2.6391" lengthAdjust="spacingAndGlyphs" text-anchor="middle" opacity="0.01" style="font-family:monospace">R11</text>
</g>
<g class="stroked-text"><desc>R11</desc>
<path d="M109.6539 143.2024 L110.5964 142.5426 "/>
<path d="M109.6539 142.0713 L111.6332 142.0713 "/>
<path d="M111.6332 142.0713 L111.6332 142.8254 "/>
<path d="M111.6332 142.8254 L111.5389 143.0139 "/>
<path d="M111.5389 143.0139 L111.4447 143.1081 "/>
<path d="M111.4447 143.1081 L111.2562 143.2024 "/>
<path d="M111.2562 143.2024 L110.9734 143.2024 "/>
<path d="M110.9734 143.2024 L110.7849 143.1081 "/>
<path d="M110.7849 143.1081 L110.6907 143.0139 "/>
<path d="M110.6907 143.0139 L110.5964 142.8254 "/>
<path d="M110.5964 142.8254 L110.5964 142.0713 "/>
<path d="M109.6539 145.0874 L109.6539 143.9564 "/>
<path d="M109.6539 144.5219 L111.6332 144.5219 "/>
<path d="M111.6332 144.5219 L111.3504 144.3334 "/>
<path d="M111.3504 144.3334 L111.1619 144.1449 "/>
<path d="M111.1619 144.1449 L111.0677 143.9564 "/>
<path d="M109.6539 146.9725 L109.6539 145.8414 "/>
<path d="M109.6539 146.4070 L111.6332 146.4070 "/>
<path d="M111.6332 146.4070 L111.3504 146.2184 "/>
<path d="M111.3504 146.2184 L111.1619 146.0299 "/>
<path d="M111.1619 146.0299 L111.0677 145.8414 "/>
</g><g transform="rotate(-90.000000 175.5930 174.8571)">
<text x="175.5930" y="175.8467" transform="scale(-1 1) translate(-351.186056 0)" textLength="6.3036" font-size="2.6391" lengthAdjust="spacingAndGlyphs" text-anchor="middle" opacity="0.01" style="font-family:monospace">R19</text>
</g>
<g class="stroked-text"><desc>R19</desc>
<path d="M174.6938 173.5847 L175.6364 172.9249 "/>
<path d="M174.6938 172.4537 L176.6731 172.4537 "/>
<path d="M176.6731 172.4537 L176.6731 173.2077 "/>
<path d="M176.6731 173.2077 L176.5789 173.3962 "/>
<path d="M176.5789 173.3962 L176.4846 173.4904 "/>
<path d="M176.4846 173.4904 L176.2961 173.5847 "/>
<path d="M176.2961 173.5847 L176.0134 173.5847 "/>
<path d="M176.0134 173.5847 L175.8249 173.4904 "/>
<path d="M175.8249 173.4904 L175.7306 173.3962 "/>
<path d="M175.7306 173.3962 L175.6364 173.2077 "/>
<path d="M175.6364 173.2077 L175.6364 172.4537 "/>
<path d="M174.6938 175.4697 L174.6938 174.3387 "/>
<path d="M174.6938 174.9042 L176.6731 174.9042 "/>
<path d="M176.6731 174.9042 L176.3904 174.7157 "/>
<path d="M176.3904 174.7157 L176.2019 174.5272 "/>
<path d="M176.2019 174.5272 L176.1076 174.3387 "/>
<path d="M174.6938 176.4123 L174.6938 176.7893 "/>
<path d="M174.6938 176.7893 L174.7881 176.9778 "/>
<path d="M174.7881 176.9778 L174.8823 177.0720 "/>
<path d="M174.8823 177.0720 L175.1651 177.2605 "/>
<path d="M175.1651 177.2605 L175.5421 177.3548 "/>
<path d="M175.5421 177.3548 L176.2961 177.3548 "/>
<path d="M176.2961 177.3548 L176.4846 177.2605 "/>
<path d="M176.4846 177.2605 L176.5789 177.1663 "/>
<path d="M176.5789 177.1663 L176.6731 176.9778 "/>
<path d="M176.6731 176.9778 L176.6731 176.6008 "/>
<path d="M176.6731 176.6008 L176.5789 176.4123 "/>
<path d="M176.5789 176.4123 L176.4846 176.3180 "/>
<path d="M176.4846 176.3180 L176.2961 176.2238 "/>
<path d="M176.2961 176.2238 L175.8249 176.2238 "/>
<path d="M175.8249 176.2238 L175.6364 176.3180 "/>
<path d="M175.6364 176.3180 L175.5421 176.4123 "/>
<path d="M175.5421 176.4123 L175.4479 176.6008 "/>
<path d="M175.4479 176.6008 L175.4479 176.9778 "/>
<path d="M175.4479 176.9778 L175.5421 177.1663 "/>
<path d="M175.5421 177.1663 L175.6364 177.2605 "/>
<path d="M175.6364 177.2605 L175.8249 177.3548 "/>
</g></g>
<g style="fill:#000084; fill-opacity:0.0;  stroke:#000084; stroke-width:0.5938; stroke-opacity:1;  stroke-linecap:round; stroke-linejoin:round;">
<path d="M217.7324 117.2890 L217.7324 126.7897 "/>
<path d="M217.7324 126.7897 L197.9394 126.7897 "/>
<path d="M197.9394 117.2890 L217.7324 117.2890 "/>
<path d="M197.9394 126.7897 L197.9394 117.2890 "/>
</g>
<g style="fill:#000084; fill-opacity:0.0;  stroke:#000084; stroke-width:0.3959; stroke-opacity:1;  stroke-linecap:round; stroke-linejoin:round;">
<path d="M133.5130 144.8212 L133.5130 149.7694 "/>
<path d="M133.5130 149.7694 L125.5958 149.7694 "/>
<path d="M125.5958 144.8212 L133.5130 144.8212 "/>
<path d="M125.5958 149.7694 L125.5958 144.8212 "/>
<path d="M120.9444 148.0870 L115.9962 148.0870 "/>
<path d="M115.9962 148.0870 L115.9962 140.1698 "/>
<path d="M120.9444 140.1698 L120.9444 148.0870 "/>
<path d="M115.9962 140.1698 L120.9444 140.1698 "/>
<path d="M129.5940 208.9110 L129.5940 179.1027 "/>
<path d="M129.5940 179.1027 L167.5175 179.1027 "/>
<path d="M167.5175 208.9110 L129.5940 208.9110 "/>
<path d="M167.5175 179.1027 L167.5175 208.9110 "/>
<path d="M99.2710 89.8757 L99.2710 84.9274 "/>
<path d="M99.2710 84.9274 L107.1883 84.9274 "/>
<path d="M107.1883 89.8757 L99.2710 89.8757 "/>
<path d="M107.1883 84.9274 L107.1883 89.8757 "/>
<path d="M104.1698 179.4590 L104.1698 174.5107 "/>
<path d="M104.1698 174.5107 L112.0870 174.5107 "/>
<path d="M112.0870 179.4590 L104.1698 179.4590 "/>
<path d="M112.0870 174.5107 L112.0870 179.4590 "/>
<path d="M125.5463 96.8032 L125.5463 91.8550 "/>
<path d="M125.5463 91.8550 L133.4635 91.8550 "/>
<path d="M133.4635 96.8032 L125.5463 96.8032 "/>
<path d="M133.4635 91.8550 L133.4635 96.8032 "/>
<circle cx="110.1572" cy="102.6422" r="3.9586"/> 
<path d="M109.0686 128.1752 L104.1203 128.1752 "/>
<path d="M104.1203 128.1752 L104.1203 120.2580 "/>
<path d="M109.0686 120.2580 L109.0686 128.1752 "/>
<path d="M104.1203 120.2580 L109.0686 120.2580 "/>
<path d="M121.0632 152.3821 L121.0632 167.9196 "/>
<path d="M121.0632 167.9196 L117.2035 171.7793 "/>
<path d="M117.2035 171.7793 L105.6246 171.7793 "/>
<path d="M105.6246 152.3821 L121.0632 152.3821 "/>
<path d="M105.6246 171.7793 L105.6246 152.3821 "/>
<path d="M131.3358 107.6894 L131.3358 112.6377 "/>
<path d="M131.3358 112.6377 L123.4186 112.6377 "/>
<path d="M123.4186 107.6894 L131.3358 107.6894 "/>
<path d="M123.4186 112.6377 L123.4186 107.6894 "/>
<path d="M101.2504 116.2994 L101.2504 101.6525 "/>
<path d="M78.6863 116.2994 L101.2504 116.2994 "/>
<path d="M78.6863 116.2994 L74.7277 112.3408 "/>
<path d="M74.7277 112.3408 L74.7277 101.6525 "/>
<path d="M74.7277 101.6525 L101.2504 101.6525 "/>
<path d="M145.1909 138.8832 L145.1909 133.9350 "/>
<path d="M145.1909 133.9350 L153.1081 133.9350 "/>
<path d="M153.1081 138.8832 L145.1909 138.8832 "/>
<path d="M153.1081 133.9350 L153.1081 138.8832 "/>
<path d="M190.4576 84.1060 L195.4059 84.1060 "/>
<path d="M195.4059 84.1060 L195.4059 92.0232 "/>
<path d="M190.4576 92.0232 L190.4576 84.1060 "/>
<path d="M195.4059 92.0232 L190.4576 92.0232 "/>
<path d="M143.5085 154.2723 L138.5602 154.2723 "/>
<path d="M138.5602 154.2723 L138.5602 146.3551 "/>
<path d="M143.5085 146.3551 L143.5085 154.2723 "/>
<path d="M138.5602 146.3551 L143.5085 146.3551 "/>
<path d="M201.2250 85.1352 L206.1733 85.1352 "/>
<path d="M206.1733 85.1352 L206.1733 93.0524 "/>
<path d="M201.2250 93.0524 L201.2250 85.1352 "/>
<path d="M206.1733 93.0524 L201.2250 93.0524 "/>
<path d="M131.3358 125.1073 L131.3358 130.0555 "/>
<path d="M131.3358 130.0555 L123.4186 130.0555 "/>
<path d="M123.4186 125.1073 L131.3358 125.1073 "/>
<path d="M123.4186 130.0555 L123.4186 125.1073 "/>
<path d="M186.3407 178.7959 L181.3924 178.7959 "/>
<path d="M181.3924 178.7959 L181.3924 170.8787 "/>
<path d="M186.3407 170.8787 L186.3407 178.7959 "/>
<path d="M181.3924 170.8787 L186.3407 170.8787 "/>
<path d="M178.1067 184.7140 L183.0550 184.7140 "/>
<path d="M183.0550 184.7140 L183.0550 192.6313 "/>
<path d="M178.1067 192.6313 L178.1067 184.7140 "/>
<path d="M183.0550 192.6313 L178.1067 192.6313 "/>
</g>
<g style="fill:#000084; fill-opacity:0.0;  stroke:#000084; stroke-width:0.5938; stroke-opacity:1;  stroke-linecap:round; stroke-linejoin:round;">
<path d="M217.7720 137.6099 L217.7720 147.1105 "/>
<path d="M217.7720 147.1105 L197.9790 147.1105 "/>
<path d="M197.9790 137.6099 L217.7720 137.6099 "/>
<path d="M197.9790 147.1105 L197.9790 137.6099 "/>
</g>
<g style="fill:#000084; fill-opacity:0.0;  stroke:#000084; stroke-width:0.3959; stroke-opacity:1;  stroke-linecap:round; stroke-linejoin:round;">
<circle cx="121.6372" cy="179.4392" r="3.9586"/> 
<path d="M154.8400 52.1897 L154.8400 57.1380 "/>
<path d="M154.8400 57.1380 L146.9228 57.1380 "/>
<path d="M146.9228 52.1897 L154.8400 52.1897 "/>
<path d="M146.9228 57.1380 L146.9228 52.1897 "/>
</g>
<g style="fill:#000084; fill-opacity:0.0;  stroke:#000084; stroke-width:0.5938; stroke-opacity:1;  stroke-linecap:round; stroke-linejoin:round;">
<path d="M217.7324 127.4495 L217.7324 136.9501 "/>
<path d="M217.7324 136.9501 L197.9394 136.9501 "/>
<path d="M197.9394 127.4495 L217.7324 127.4495 "/>
<path d="M197.9394 136.9501 L197.9394 127.4495 "/>
</g>
<g style="fill:#000084; fill-opacity:0.0;  stroke:#000084; stroke-width:0.3959; stroke-opacity:1;  stroke-linecap:round; stroke-linejoin:round;">
<circle cx="203.5804" cy="112.5387" r="3.9586"/> 
<path d="M206.8462 172.3038 L201.8980 172.3038 "/>
<path d="M201.8980 172.3038 L201.8980 164.3866 "/>
<path d="M206.8462 164.3866 L206.8462 172.3038 "/>
<path d="M201.8980 164.3866 L206.8462 164.3866 "/>
<path d="M153.9988 123.8405 L142.1230 123.8405 "/>
<path d="M142.1230 123.8405 L138.1644 119.8819 "/>
<path d="M138.1644 119.8819 L138.1644 108.0061 "/>
<path d="M153.9988 108.0061 L153.9988 123.8405 "/>
<path d="M138.1644 108.0061 L153.9988 108.0061 "/>
<path d="M186.1823 184.6744 L191.1306 184.6744 "/>
<path d="M191.1306 184.6744 L191.1306 192.5917 "/>
<path d="M186.1823 192.5917 L186.1823 184.6744 "/>
<path d="M191.1306 192.5917 L186.1823 192.5917 "/>
</g>
<g style="fill:#000084; fill-opacity:0.0;  stroke:#000084; stroke-width:0.5938; stroke-opacity:1;  stroke-linecap:round; stroke-linejoin:round;">
<path d="M217.8710 97.3574 L217.8710 106.8581 "/>
<path d="M217.8710 106.8581 L198.0779 106.8581 "/>
<path d="M198.0779 97.3574 L217.8710 97.3574 "/>
<path d="M198.0779 106.8581 L198.0779 97.3574 "/>
</g>
<g style="fill:#000084; fill-opacity:0.0;  stroke:#000084; stroke-width:0.3959; stroke-opacity:1;  stroke-linecap:round; stroke-linejoin:round;">
<path d="M181.7883 84.1159 L186.7365 84.1159 "/>
<path d="M186.7365 84.1159 L186.7365 92.0331 "/>
<path d="M181.7883 92.0331 L181.7883 84.1159 "/>
<path d="M186.7365 92.0331 L181.7883 92.0331 "/>
</g>
<g style="fill:#000084; fill-opacity:0.0;  stroke:#000084; stroke-width:0.5938; stroke-opacity:1;  stroke-linecap:round; stroke-linejoin:round;">
<path d="M217.8314 147.7703 L217.8314 157.2710 "/>
<path d="M217.8314 157.2710 L198.0383 157.2710 "/>
<path d="M198.0383 147.7703 L217.8314 147.7703 "/>
<path d="M198.0383 157.2710 L198.0383 147.7703 "/>
</g>
<g style="fill:#000084; fill-opacity:0.0;  stroke:#000084; stroke-width:0.3959; stroke-opacity:1;  stroke-linecap:round; stroke-linejoin:round;">
<path d="M217.4553 85.1847 L222.4036 85.1847 "/>
<path d="M222.4036 85.1847 L222.4036 93.1019 "/>
<path d="M217.4553 93.1019 L217.4553 85.1847 "/>
<path d="M222.4036 93.1019 L217.4553 93.1019 "/>
<path d="M209.3402 85.1847 L214.2884 85.1847 "/>
<path d="M214.2884 85.1847 L214.2884 93.1019 "/>
<path d="M209.3402 93.1019 L209.3402 85.1847 "/>
<path d="M214.2884 93.1019 L209.3402 93.1019 "/>
<path d="M131.3358 116.7546 L131.3358 121.7029 "/>
<path d="M131.3358 121.7029 L123.4186 121.7029 "/>
<path d="M123.4186 116.7546 L131.3358 116.7546 "/>
<path d="M123.4186 121.7029 L123.4186 116.7546 "/>
<path d="M194.5350 178.7959 L189.5867 178.7959 "/>
<path d="M189.5867 178.7959 L189.5867 170.8787 "/>
<path d="M194.5350 170.8787 L194.5350 178.7959 "/>
<path d="M189.5867 170.8787 L194.5350 170.8787 "/>
<path d="M105.1100 148.2849 L100.1617 148.2849 "/>
<path d="M100.1617 148.2849 L100.1617 140.3677 "/>
<path d="M105.1100 140.3677 L105.1100 148.2849 "/>
<path d="M100.1617 140.3677 L105.1100 140.3677 "/>
<path d="M152.1185 46.8456 L152.1185 41.8973 "/>
<path d="M152.1185 41.8973 L160.0357 41.8973 "/>
<path d="M160.0357 46.8456 L152.1185 46.8456 "/>
<path d="M160.0357 41.8973 L160.0357 46.8456 "/>
<path d="M139.5994 92.0529 L139.5994 87.1046 "/>
<path d="M139.5994 87.1046 L147.5166 87.1046 "/>
<path d="M147.5166 92.0529 L139.5994 92.0529 "/>
<path d="M147.5166 87.1046 L147.5166 92.0529 "/>
<path d="M217.5345 172.1850 L212.5862 172.1850 "/>
<path d="M212.5862 172.1850 L212.5862 164.2678 "/>
<path d="M217.5345 164.2678 L217.5345 172.1850 "/>
<path d="M212.5862 164.2678 L217.5345 164.2678 "/>
<path d="M108.0790 140.5162 L113.0272 140.5162 "/>
<path d="M113.0272 140.5162 L113.0272 148.4334 "/>
<path d="M108.0790 148.4334 L108.0790 140.5162 "/>
<path d="M113.0272 148.4334 L108.0790 148.4334 "/>
<path d="M178.0672 178.8157 L173.1189 178.8157 "/>
<path d="M173.1189 178.8157 L173.1189 170.8985 "/>
<path d="M178.0672 170.8985 L178.0672 178.8157 "/>
<path d="M173.1189 170.8985 L178.0672 170.8985 "/>
<g>
</g>
<g>
</g>
<g>
</g>
<g>
</g>
<g>
</g>
<g>
</g>
<g>
</g>
<g>
</g>
<g>
</g>
<g>
</g>
<g>
</g>
<g>
</g>
<g>
</g>
<g>
</g>
<g>
</g>
<g>
</g>
<g>
</g>
<g>
</g>
<g>
</g>
<g>
</g>
<g>
</g>
<g>
</g>
<g>
</g>
<g>
</g>
<g>
</g>
<g>
</g>
<g>
</g>
<g>
</g>
<g>
</g>
<g>
</g>
<g>
</g>
<g>
</g>
<g>
</g>
<g>
</g>
<g>
</g>
<g>
</g>
<g>
</g>
<g>
</g>
<g>
</g>
<g>
</g>
<g>
</g>
<g>
</g>
<g>
</g>
<g>
</g>
<g>
</g>
<g>
</g>
<g>
</g>
<g>
</g>
<g>
</g>
<g>
</g>
<g>
</g>
<g>
</g>
<g>
</g>
<g>
</g>
<g>
</g>
<g>
</g>
</g> 
<svg:g><svg:g><svg:title>SVG Image created as USBPDSINK01-Edge_Cuts.svg date 2023/10/04 13:44:24 </svg:title>
  <svg:desc>Image generated by PCBNEW </svg:desc>
<svg:g style="fill:#C2C200; fill-opacity:1.0000;stroke:#C2C200; stroke-opacity:1.0000; stroke-linecap:round; stroke-linejoin:round;" transform="translate(0 0) scale(1 1)">
</svg:g>
<svg:g style="fill:#C2C200; fill-opacity:0.0;  stroke:#C2C200; stroke-width:0.0000; stroke-opacity:1;  stroke-linecap:round; stroke-linejoin:round;">
</svg:g>
<svg:g style="fill:#C2C200; fill-opacity:0.0;  stroke:#C2C200; stroke-width:0.2212; stroke-opacity:1;  stroke-linecap:round; stroke-linejoin:round;">
<svg:path d="M228.0106 60.6809 L238.5167 60.6809 "/>
<svg:path d="M148.5557 10.6204 L148.5557 0.1142 "/>
</svg:g>
<svg:g style="fill:#C2C200; fill-opacity:0.0;  stroke:#C2C200; stroke-width:0.5938; stroke-opacity:1;  stroke-linecap:round; stroke-linejoin:round;">
<svg:path style="fill:#C2C200; fill-opacity:0.0;  stroke:#C2C200; stroke-width:0.5938; stroke-opacity:1;  stroke-linecap:round; stroke-linejoin:round;fill:none" d="M 227.9892,10.6204 69.1223,10.6204 69.1223,209.7067 227.9892,209.7067 Z"/> 
</svg:g>
<svg:g style="fill:#C2C200; fill-opacity:0.0;  stroke:#C2C200; stroke-width:0.2212; stroke-opacity:1;  stroke-linecap:round; stroke-linejoin:round;">
<svg:path d="M68.9916 169.5427 L58.4855 169.5427 "/>
<svg:path d="M238.5412 169.5427 L228.0351 169.5427 "/>
<svg:path d="M58.4610 60.6809 L68.9671 60.6809 "/>
</svg:g>
<svg:g style="fill:#C2C200; fill-opacity:0.0;  stroke:#C2C200; stroke-width:0.1979; stroke-opacity:1;  stroke-linecap:round; stroke-linejoin:round;">
<svg:path d="M212.1904 124.8104 L212.1904 119.2683 "/>
<svg:path d="M211.0028 118.0807 L204.6690 118.0807 "/>
<svg:path d="M204.6690 125.9980 L211.0028 125.9980 "/>
<svg:path d="M203.4814 119.2683 L203.4814 124.8104 "/>
<svg:path d="M212.1904 119.2683 A1.1876 1.1876 0.0 0 0 211.0028 118.0807"/>
<svg:path d="M211.0028 125.9980 A1.1876 1.1876 0.0 0 0 212.1904 124.8104"/>
<svg:path d="M204.6690 118.0807 A1.1876 1.1876 0.0 0 0 203.4814 119.2683"/>
<svg:path d="M203.4814 124.8104 A1.1876 1.1876 0.0 0 0 204.6690 125.9980"/>
<svg:path d="M212.2300 145.1312 L212.2300 139.5892 "/>
<svg:path d="M211.0424 138.4016 L204.7086 138.4016 "/>
<svg:path d="M204.7086 146.3188 L211.0424 146.3188 "/>
<svg:path d="M203.5210 139.5892 L203.5210 145.1312 "/>
<svg:path d="M212.2300 139.5892 A1.1876 1.1876 0.0 0 0 211.0424 138.4016"/>
<svg:path d="M211.0424 146.3188 A1.1876 1.1876 0.0 0 0 212.2300 145.1312"/>
<svg:path d="M204.7086 138.4016 A1.1876 1.1876 0.0 0 0 203.5210 139.5892"/>
<svg:path d="M203.5210 145.1312 A1.1876 1.1876 0.0 0 0 204.7086 146.3188"/>
<svg:path d="M212.1904 134.9708 L212.1904 129.4288 "/>
<svg:path d="M211.0028 128.2412 L204.6690 128.2412 "/>
<svg:path d="M204.6690 136.1584 L211.0028 136.1584 "/>
<svg:path d="M203.4814 129.4288 L203.4814 134.9708 "/>
<svg:path d="M212.1904 129.4288 A1.1876 1.1876 0.0 0 0 211.0028 128.2412"/>
<svg:path d="M211.0028 136.1584 A1.1876 1.1876 0.0 0 0 212.1904 134.9708"/>
<svg:path d="M204.6690 128.2412 A1.1876 1.1876 0.0 0 0 203.4814 129.4288"/>
<svg:path d="M203.4814 134.9708 A1.1876 1.1876 0.0 0 0 204.6690 136.1584"/>
<svg:path d="M212.3289 104.8788 L212.3289 99.3367 "/>
<svg:path d="M211.1413 98.1492 L204.8076 98.1492 "/>
<svg:path d="M204.8076 106.0664 L211.1413 106.0664 "/>
<svg:path d="M203.6200 99.3367 L203.6200 104.8788 "/>
<svg:path d="M212.3289 99.3367 A1.1876 1.1876 0.0 0 0 211.1413 98.1492"/>
<svg:path d="M211.1413 106.0664 A1.1876 1.1876 0.0 0 0 212.3289 104.8788"/>
<svg:path d="M204.8076 98.1492 A1.1876 1.1876 0.0 0 0 203.6200 99.3367"/>
<svg:path d="M203.6200 104.8788 A1.1876 1.1876 0.0 0 0 204.8076 106.0664"/>
<svg:path d="M212.2893 155.2917 L212.2893 149.7496 "/>
<svg:path d="M211.1017 148.5620 L204.7680 148.5620 "/>
<svg:path d="M204.7680 156.4793 L211.1017 156.4793 "/>
<svg:path d="M203.5804 149.7496 L203.5804 155.2917 "/>
<svg:path d="M212.2893 149.7496 A1.1876 1.1876 0.0 0 0 211.1017 148.5620"/>
<svg:path d="M211.1017 156.4793 A1.1876 1.1876 0.0 0 0 212.2893 155.2917"/>
<svg:path d="M204.7680 148.5620 A1.1876 1.1876 0.0 0 0 203.5804 149.7496"/>
<svg:path d="M203.5804 155.2917 A1.1876 1.1876 0.0 0 0 204.7680 156.4793"/>
<svg:g>
</svg:g>
<svg:g>
</svg:g>
<svg:g>
</svg:g>
<svg:g>
</svg:g>
<svg:g>
</svg:g>
<svg:g>
</svg:g>
<svg:g>
</svg:g>
<svg:g>
</svg:g>
<svg:g>
</svg:g>
<svg:g>
</svg:g>
<svg:g>
</svg:g>
<svg:g>
</svg:g>
<svg:g>
</svg:g>
<svg:g>
</svg:g>
<svg:g>
</svg:g>
<svg:g>
</svg:g>
<svg:g>
</svg:g>
<svg:g>
</svg:g>
<svg:g>
</svg:g>
<svg:g>
</svg:g>
<svg:g>
</svg:g>
<svg:g>
</svg:g>
<svg:g>
</svg:g>
<svg:g>
</svg:g>
<svg:g>
</svg:g>
<svg:g>
</svg:g>
<svg:g>
</svg:g>
<svg:g>
</svg:g>
<svg:g>
</svg:g>
<svg:g>
</svg:g>
<svg:g>
</svg:g>
<svg:g>
</svg:g>
<svg:g>
</svg:g>
<svg:g>
</svg:g>
<svg:g>
</svg:g>
<svg:g>
</svg:g>
<svg:g>
</svg:g>
<svg:g>
</svg:g>
<svg:g>
</svg:g>
<svg:g>
</svg:g>
<svg:g>
</svg:g>
<svg:g>
</svg:g>
<svg:g>
</svg:g>
<svg:g>
</svg:g>
<svg:g>
</svg:g>
<svg:g>
</svg:g>
<svg:g>
</svg:g>
<svg:g>
</svg:g>
<svg:g>
</svg:g>
<svg:g>
</svg:g>
<svg:g>
</svg:g>
<svg:g>
</svg:g>
<svg:g>
</svg:g>
<svg:g>
</svg:g>
<svg:g>
</svg:g>
<svg:g>
</svg:g>
</svg:g> 
</svg:g></svg:g></svg>
