<?xml version='1.0' encoding='ASCII' standalone='yes'?>
<svg xmlns:svg="http://www.w3.org/2000/svg" xmlns="http://www.w3.org/2000/svg" xmlns:xlink="http://www.w3.org/1999/xlink" version="1.1" width="297.0022mm" height="210.0072mm" viewBox="0.0000 0.0000 297.0022 210.0072">
<title>SVG Image created as USBPDSINK01-F_Fab.svg date 2023/08/23 22:23:17 </title>
  <desc>Image generated by PCBNEW </desc>
<g style="fill:#848484; fill-opacity:1.0000;stroke:#848484; stroke-opacity:1.0000; stroke-linecap:round; stroke-linejoin:round;" transform="translate(0 0) scale(1 1)">
</g>
<g style="fill:#848484; fill-opacity:0.0;  stroke:#848484; stroke-width:0.0000; stroke-opacity:1;  stroke-linecap:round; stroke-linejoin:round;">
</g>
<g style="fill:#848484; fill-opacity:0.01;  stroke:#848484; stroke-width:0.6245; stroke-opacity:1;  stroke-linecap:round; stroke-linejoin:round;">
<g transform="rotate(-270.000000 190.9657 66.7022)">
<text x="190.9657" y="68.7838" textLength="57.9378" font-size="5.5509" lengthAdjust="spacingAndGlyphs" text-anchor="middle" opacity="0.01" style="font-family:monospace">WAGO_2604-3102</text>
</g>
<g class="stroked-text"><desc>WAGO_2604-3102</desc>
<path d="M193.2354 38.8484 L189.0722 39.8397 "/>
<path d="M189.0722 39.8397 L192.0459 40.6326 "/>
<path d="M192.0459 40.6326 L189.0722 41.4256 "/>
<path d="M189.0722 41.4256 L193.2354 42.4169 "/>
<path d="M190.2617 43.8046 L190.2617 45.7871 "/>
<path d="M189.0722 43.4081 L193.2354 44.7958 "/>
<path d="M193.2354 44.7958 L189.0722 46.1836 "/>
<path d="M193.0372 49.7520 L193.2354 49.3555 "/>
<path d="M193.2354 49.3555 L193.2354 48.7608 "/>
<path d="M193.2354 48.7608 L193.0372 48.1660 "/>
<path d="M193.0372 48.1660 L192.6407 47.7696 "/>
<path d="M192.6407 47.7696 L192.2442 47.5713 "/>
<path d="M192.2442 47.5713 L191.4512 47.3731 "/>
<path d="M191.4512 47.3731 L190.8564 47.3731 "/>
<path d="M190.8564 47.3731 L190.0635 47.5713 "/>
<path d="M190.0635 47.5713 L189.6670 47.7696 "/>
<path d="M189.6670 47.7696 L189.2705 48.1660 "/>
<path d="M189.2705 48.1660 L189.0722 48.7608 "/>
<path d="M189.0722 48.7608 L189.0722 49.1573 "/>
<path d="M189.0722 49.1573 L189.2705 49.7520 "/>
<path d="M189.2705 49.7520 L189.4687 49.9503 "/>
<path d="M189.4687 49.9503 L190.8564 49.9503 "/>
<path d="M190.8564 49.9503 L190.8564 49.1573 "/>
<path d="M193.2354 52.5275 L193.2354 53.3205 "/>
<path d="M193.2354 53.3205 L193.0372 53.7170 "/>
<path d="M193.0372 53.7170 L192.6407 54.1135 "/>
<path d="M192.6407 54.1135 L191.8477 54.3117 "/>
<path d="M191.8477 54.3117 L190.4599 54.3117 "/>
<path d="M190.4599 54.3117 L189.6670 54.1135 "/>
<path d="M189.6670 54.1135 L189.2705 53.7170 "/>
<path d="M189.2705 53.7170 L189.0722 53.3205 "/>
<path d="M189.0722 53.3205 L189.0722 52.5275 "/>
<path d="M189.0722 52.5275 L189.2705 52.1310 "/>
<path d="M189.2705 52.1310 L189.6670 51.7345 "/>
<path d="M189.6670 51.7345 L190.4599 51.5363 "/>
<path d="M190.4599 51.5363 L191.8477 51.5363 "/>
<path d="M191.8477 51.5363 L192.6407 51.7345 "/>
<path d="M192.6407 51.7345 L193.0372 52.1310 "/>
<path d="M193.0372 52.1310 L193.2354 52.5275 "/>
<path d="M188.6757 55.1047 L188.6757 58.2767 "/>
<path d="M192.8389 59.0697 L193.0372 59.2679 "/>
<path d="M193.0372 59.2679 L193.2354 59.6644 "/>
<path d="M193.2354 59.6644 L193.2354 60.6556 "/>
<path d="M193.2354 60.6556 L193.0372 61.0521 "/>
<path d="M193.0372 61.0521 L192.8389 61.2504 "/>
<path d="M192.8389 61.2504 L192.4424 61.4486 "/>
<path d="M192.4424 61.4486 L192.0459 61.4486 "/>
<path d="M192.0459 61.4486 L191.4512 61.2504 "/>
<path d="M191.4512 61.2504 L189.0722 58.8714 "/>
<path d="M189.0722 58.8714 L189.0722 61.4486 "/>
<path d="M193.2354 65.0171 L193.2354 64.2241 "/>
<path d="M193.2354 64.2241 L193.0372 63.8276 "/>
<path d="M193.0372 63.8276 L192.8389 63.6294 "/>
<path d="M192.8389 63.6294 L192.2442 63.2329 "/>
<path d="M192.2442 63.2329 L191.4512 63.0346 "/>
<path d="M191.4512 63.0346 L189.8652 63.0346 "/>
<path d="M189.8652 63.0346 L189.4687 63.2329 "/>
<path d="M189.4687 63.2329 L189.2705 63.4311 "/>
<path d="M189.2705 63.4311 L189.0722 63.8276 "/>
<path d="M189.0722 63.8276 L189.0722 64.6206 "/>
<path d="M189.0722 64.6206 L189.2705 65.0171 "/>
<path d="M189.2705 65.0171 L189.4687 65.2153 "/>
<path d="M189.4687 65.2153 L189.8652 65.4136 "/>
<path d="M189.8652 65.4136 L190.8564 65.4136 "/>
<path d="M190.8564 65.4136 L191.2529 65.2153 "/>
<path d="M191.2529 65.2153 L191.4512 65.0171 "/>
<path d="M191.4512 65.0171 L191.6494 64.6206 "/>
<path d="M191.6494 64.6206 L191.6494 63.8276 "/>
<path d="M191.6494 63.8276 L191.4512 63.4311 "/>
<path d="M191.4512 63.4311 L191.2529 63.2329 "/>
<path d="M191.2529 63.2329 L190.8564 63.0346 "/>
<path d="M193.2354 67.9908 L193.2354 68.3873 "/>
<path d="M193.2354 68.3873 L193.0372 68.7838 "/>
<path d="M193.0372 68.7838 L192.8389 68.9820 "/>
<path d="M192.8389 68.9820 L192.4424 69.1803 "/>
<path d="M192.4424 69.1803 L191.6494 69.3785 "/>
<path d="M191.6494 69.3785 L190.6582 69.3785 "/>
<path d="M190.6582 69.3785 L189.8652 69.1803 "/>
<path d="M189.8652 69.1803 L189.4687 68.9820 "/>
<path d="M189.4687 68.9820 L189.2705 68.7838 "/>
<path d="M189.2705 68.7838 L189.0722 68.3873 "/>
<path d="M189.0722 68.3873 L189.0722 67.9908 "/>
<path d="M189.0722 67.9908 L189.2705 67.5943 "/>
<path d="M189.2705 67.5943 L189.4687 67.3961 "/>
<path d="M189.4687 67.3961 L189.8652 67.1978 "/>
<path d="M189.8652 67.1978 L190.6582 66.9996 "/>
<path d="M190.6582 66.9996 L191.6494 66.9996 "/>
<path d="M191.6494 66.9996 L192.4424 67.1978 "/>
<path d="M192.4424 67.1978 L192.8389 67.3961 "/>
<path d="M192.8389 67.3961 L193.0372 67.5943 "/>
<path d="M193.0372 67.5943 L193.2354 67.9908 "/>
<path d="M191.8477 72.9470 L189.0722 72.9470 "/>
<path d="M193.4337 71.9557 L190.4599 70.9645 "/>
<path d="M190.4599 70.9645 L190.4599 73.5417 "/>
<path d="M190.6582 75.1277 L190.6582 78.2997 "/>
<path d="M193.2354 79.8856 L193.2354 82.4629 "/>
<path d="M193.2354 82.4629 L191.6494 81.0751 "/>
<path d="M191.6494 81.0751 L191.6494 81.6699 "/>
<path d="M191.6494 81.6699 L191.4512 82.0664 "/>
<path d="M191.4512 82.0664 L191.2529 82.2646 "/>
<path d="M191.2529 82.2646 L190.8564 82.4629 "/>
<path d="M190.8564 82.4629 L189.8652 82.4629 "/>
<path d="M189.8652 82.4629 L189.4687 82.2646 "/>
<path d="M189.4687 82.2646 L189.2705 82.0664 "/>
<path d="M189.2705 82.0664 L189.0722 81.6699 "/>
<path d="M189.0722 81.6699 L189.0722 80.4804 "/>
<path d="M189.0722 80.4804 L189.2705 80.0839 "/>
<path d="M189.2705 80.0839 L189.4687 79.8856 "/>
<path d="M189.0722 86.4278 L189.0722 84.0488 "/>
<path d="M189.0722 85.2383 L193.2354 85.2383 "/>
<path d="M193.2354 85.2383 L192.6407 84.8418 "/>
<path d="M192.6407 84.8418 L192.2442 84.4453 "/>
<path d="M192.2442 84.4453 L192.0459 84.0488 "/>
<path d="M193.2354 89.0050 L193.2354 89.4015 "/>
<path d="M193.2354 89.4015 L193.0372 89.7980 "/>
<path d="M193.0372 89.7980 L192.8389 89.9963 "/>
<path d="M192.8389 89.9963 L192.4424 90.1945 "/>
<path d="M192.4424 90.1945 L191.6494 90.3928 "/>
<path d="M191.6494 90.3928 L190.6582 90.3928 "/>
<path d="M190.6582 90.3928 L189.8652 90.1945 "/>
<path d="M189.8652 90.1945 L189.4687 89.9963 "/>
<path d="M189.4687 89.9963 L189.2705 89.7980 "/>
<path d="M189.2705 89.7980 L189.0722 89.4015 "/>
<path d="M189.0722 89.4015 L189.0722 89.0050 "/>
<path d="M189.0722 89.0050 L189.2705 88.6085 "/>
<path d="M189.2705 88.6085 L189.4687 88.4103 "/>
<path d="M189.4687 88.4103 L189.8652 88.2120 "/>
<path d="M189.8652 88.2120 L190.6582 88.0138 "/>
<path d="M190.6582 88.0138 L191.6494 88.0138 "/>
<path d="M191.6494 88.0138 L192.4424 88.2120 "/>
<path d="M192.4424 88.2120 L192.8389 88.4103 "/>
<path d="M192.8389 88.4103 L193.0372 88.6085 "/>
<path d="M193.0372 88.6085 L193.2354 89.0050 "/>
<path d="M192.8389 91.9787 L193.0372 92.1770 "/>
<path d="M193.0372 92.1770 L193.2354 92.5735 "/>
<path d="M193.2354 92.5735 L193.2354 93.5647 "/>
<path d="M193.2354 93.5647 L193.0372 93.9612 "/>
<path d="M193.0372 93.9612 L192.8389 94.1595 "/>
<path d="M192.8389 94.1595 L192.4424 94.3577 "/>
<path d="M192.4424 94.3577 L192.0459 94.3577 "/>
<path d="M192.0459 94.3577 L191.4512 94.1595 "/>
<path d="M191.4512 94.1595 L189.0722 91.7805 "/>
<path d="M189.0722 91.7805 L189.0722 94.3577 "/>
</g><g transform="rotate(-270.000000 197.2105 66.7022)">
<text x="197.2105" y="68.7838" textLength="8.1777" font-size="5.5509" lengthAdjust="spacingAndGlyphs" text-anchor="middle" opacity="0.01" style="font-family:monospace">J7</text>
</g>
<g class="stroked-text"><desc>J7</desc>
<path d="M199.4802 65.3145 L196.5065 65.3145 "/>
<path d="M196.5065 65.3145 L195.9118 65.1162 "/>
<path d="M195.9118 65.1162 L195.5153 64.7197 "/>
<path d="M195.5153 64.7197 L195.3170 64.1250 "/>
<path d="M195.3170 64.1250 L195.3170 63.7285 "/>
<path d="M199.4802 66.9004 L199.4802 69.6759 "/>
<path d="M199.4802 69.6759 L195.3170 67.8917 "/>
</g><text x="148.4803" y="20.6989" textLength="8.1777" font-size="5.5509" lengthAdjust="spacingAndGlyphs" text-anchor="middle" opacity="0.01" style="font-family:monospace">J2</text>
<g class="stroked-text"><desc>J2</desc>
<path d="M147.0926 16.3476 L147.0926 19.3213 "/>
<path d="M147.0926 19.3213 L146.8943 19.9160 "/>
<path d="M146.8943 19.9160 L146.4978 20.3125 "/>
<path d="M146.4978 20.3125 L145.9031 20.5108 "/>
<path d="M145.9031 20.5108 L145.5066 20.5108 "/>
<path d="M148.8768 16.7441 L149.0750 16.5458 "/>
<path d="M149.0750 16.5458 L149.4715 16.3476 "/>
<path d="M149.4715 16.3476 L150.4628 16.3476 "/>
<path d="M150.4628 16.3476 L150.8593 16.5458 "/>
<path d="M150.8593 16.5458 L151.0575 16.7441 "/>
<path d="M151.0575 16.7441 L151.2557 17.1405 "/>
<path d="M151.2557 17.1405 L151.2557 17.5370 "/>
<path d="M151.2557 17.5370 L151.0575 18.1318 "/>
<path d="M151.0575 18.1318 L148.6785 20.5108 "/>
<path d="M148.6785 20.5108 L151.2557 20.5108 "/>
</g><g transform="rotate(-90.000000 115.1955 54.8787)">
<text x="115.1955" y="56.9603" textLength="12.3409" font-size="5.5509" lengthAdjust="spacingAndGlyphs" text-anchor="middle" opacity="0.01" style="font-family:monospace">JP3</text>
</g>
<g class="stroked-text"><desc>JP3</desc>
<path d="M112.9258 58.3480 L115.8995 58.3480 "/>
<path d="M115.8995 58.3480 L116.4943 58.5463 "/>
<path d="M116.4943 58.5463 L116.8908 58.9428 "/>
<path d="M116.8908 58.9428 L117.0890 59.5375 "/>
<path d="M117.0890 59.5375 L117.0890 59.9340 "/>
<path d="M117.0890 56.3656 L112.9258 56.3656 "/>
<path d="M112.9258 56.3656 L112.9258 54.7796 "/>
<path d="M112.9258 54.7796 L113.1241 54.3831 "/>
<path d="M113.1241 54.3831 L113.3223 54.1848 "/>
<path d="M113.3223 54.1848 L113.7188 53.9866 "/>
<path d="M113.7188 53.9866 L114.3136 53.9866 "/>
<path d="M114.3136 53.9866 L114.7101 54.1848 "/>
<path d="M114.7101 54.1848 L114.9083 54.3831 "/>
<path d="M114.9083 54.3831 L115.1065 54.7796 "/>
<path d="M115.1065 54.7796 L115.1065 56.3656 "/>
<path d="M112.9258 52.5989 L112.9258 50.0216 "/>
<path d="M112.9258 50.0216 L114.5118 51.4094 "/>
<path d="M114.5118 51.4094 L114.5118 50.8146 "/>
<path d="M114.5118 50.8146 L114.7101 50.4181 "/>
<path d="M114.7101 50.4181 L114.9083 50.2199 "/>
<path d="M114.9083 50.2199 L115.3048 50.0216 "/>
<path d="M115.3048 50.0216 L116.2960 50.0216 "/>
<path d="M116.2960 50.0216 L116.6925 50.2199 "/>
<path d="M116.6925 50.2199 L116.8908 50.4181 "/>
<path d="M116.8908 50.4181 L117.0890 50.8146 "/>
<path d="M117.0890 50.8146 L117.0890 52.0041 "/>
<path d="M117.0890 52.0041 L116.8908 52.4006 "/>
<path d="M116.8908 52.4006 L116.6925 52.5989 "/>
</g><g transform="rotate(-90.000000 81.5985 56.2317)">
<text x="81.5985" y="58.3133" textLength="8.1777" font-size="5.5509" lengthAdjust="spacingAndGlyphs" text-anchor="middle" opacity="0.01" style="font-family:monospace">J4</text>
</g>
<g class="stroked-text"><desc>J4</desc>
<path d="M79.3288 57.6195 L82.3025 57.6195 "/>
<path d="M82.3025 57.6195 L82.8973 57.8177 "/>
<path d="M82.8973 57.8177 L83.2938 58.2142 "/>
<path d="M83.2938 58.2142 L83.4920 58.8090 "/>
<path d="M83.4920 58.8090 L83.4920 59.2055 "/>
<path d="M80.7166 53.8528 L83.4920 53.8528 "/>
<path d="M79.1306 54.8440 L82.1043 55.8352 "/>
<path d="M82.1043 55.8352 L82.1043 53.2580 "/>
</g><g transform="rotate(-90.000000 147.9599 162.9137)">
<text x="147.9599" y="164.9953" textLength="8.1777" font-size="5.5509" lengthAdjust="spacingAndGlyphs" text-anchor="middle" opacity="0.01" style="font-family:monospace">J5</text>
</g>
<g class="stroked-text"><desc>J5</desc>
<path d="M145.6902 164.3014 L148.6639 164.3014 "/>
<path d="M148.6639 164.3014 L149.2586 164.4997 "/>
<path d="M149.2586 164.4997 L149.6551 164.8962 "/>
<path d="M149.6551 164.8962 L149.8534 165.4909 "/>
<path d="M149.8534 165.4909 L149.8534 165.8874 "/>
<path d="M145.6902 160.3365 L145.6902 162.3189 "/>
<path d="M145.6902 162.3189 L147.6727 162.5172 "/>
<path d="M147.6727 162.5172 L147.4744 162.3189 "/>
<path d="M147.4744 162.3189 L147.2762 161.9224 "/>
<path d="M147.2762 161.9224 L147.2762 160.9312 "/>
<path d="M147.2762 160.9312 L147.4744 160.5347 "/>
<path d="M147.4744 160.5347 L147.6727 160.3365 "/>
<path d="M147.6727 160.3365 L148.0692 160.1382 "/>
<path d="M148.0692 160.1382 L149.0604 160.1382 "/>
<path d="M149.0604 160.1382 L149.4569 160.3365 "/>
<path d="M149.4569 160.3365 L149.6551 160.5347 "/>
<path d="M149.6551 160.5347 L149.8534 160.9312 "/>
<path d="M149.8534 160.9312 L149.8534 161.9224 "/>
<path d="M149.8534 161.9224 L149.6551 162.3189 "/>
<path d="M149.6551 162.3189 L149.4569 162.5172 "/>
</g><g transform="rotate(-90.000000 214.5710 147.4266)">
<text x="214.5710" y="149.5082" textLength="8.1777" font-size="5.5509" lengthAdjust="spacingAndGlyphs" text-anchor="middle" opacity="0.01" style="font-family:monospace">J3</text>
</g>
<g class="stroked-text"><desc>J3</desc>
<path d="M212.3013 148.8143 L215.2751 148.8143 "/>
<path d="M215.2751 148.8143 L215.8698 149.0126 "/>
<path d="M215.8698 149.0126 L216.2663 149.4091 "/>
<path d="M216.2663 149.4091 L216.4645 150.0038 "/>
<path d="M216.4645 150.0038 L216.4645 150.4003 "/>
<path d="M212.3013 147.2283 L212.3013 144.6511 "/>
<path d="M212.3013 144.6511 L213.8873 146.0388 "/>
<path d="M213.8873 146.0388 L213.8873 145.4441 "/>
<path d="M213.8873 145.4441 L214.0856 145.0476 "/>
<path d="M214.0856 145.0476 L214.2838 144.8494 "/>
<path d="M214.2838 144.8494 L214.6803 144.6511 "/>
<path d="M214.6803 144.6511 L215.6716 144.6511 "/>
<path d="M215.6716 144.6511 L216.0680 144.8494 "/>
<path d="M216.0680 144.8494 L216.2663 145.0476 "/>
<path d="M216.2663 145.0476 L216.4645 145.4441 "/>
<path d="M216.4645 145.4441 L216.4645 146.6336 "/>
<path d="M216.4645 146.6336 L216.2663 147.0301 "/>
<path d="M216.2663 147.0301 L216.0680 147.2283 "/>
</g><g transform="rotate(-90.000000 107.3895 128.2134)">
<text x="107.3895" y="130.2950" textLength="8.1777" font-size="5.5509" lengthAdjust="spacingAndGlyphs" text-anchor="middle" opacity="0.01" style="font-family:monospace">J6</text>
</g>
<g class="stroked-text"><desc>J6</desc>
<path d="M105.1198 129.6012 L108.0935 129.6012 "/>
<path d="M108.0935 129.6012 L108.6883 129.7994 "/>
<path d="M108.6883 129.7994 L109.0848 130.1959 "/>
<path d="M109.0848 130.1959 L109.2830 130.7906 "/>
<path d="M109.2830 130.7906 L109.2830 131.1871 "/>
<path d="M105.1198 125.8345 L105.1198 126.6274 "/>
<path d="M105.1198 126.6274 L105.3181 127.0239 "/>
<path d="M105.3181 127.0239 L105.5163 127.2222 "/>
<path d="M105.5163 127.2222 L106.1111 127.6187 "/>
<path d="M106.1111 127.6187 L106.9041 127.8169 "/>
<path d="M106.9041 127.8169 L108.4900 127.8169 "/>
<path d="M108.4900 127.8169 L108.8865 127.6187 "/>
<path d="M108.8865 127.6187 L109.0848 127.4204 "/>
<path d="M109.0848 127.4204 L109.2830 127.0239 "/>
<path d="M109.2830 127.0239 L109.2830 126.2310 "/>
<path d="M109.2830 126.2310 L109.0848 125.8345 "/>
<path d="M109.0848 125.8345 L108.8865 125.6362 "/>
<path d="M108.8865 125.6362 L108.4900 125.4380 "/>
<path d="M108.4900 125.4380 L107.4988 125.4380 "/>
<path d="M107.4988 125.4380 L107.1023 125.6362 "/>
<path d="M107.1023 125.6362 L106.9041 125.8345 "/>
<path d="M106.9041 125.8345 L106.7058 126.2310 "/>
<path d="M106.7058 126.2310 L106.7058 127.0239 "/>
<path d="M106.7058 127.0239 L106.9041 127.4204 "/>
<path d="M106.9041 127.4204 L107.1023 127.6187 "/>
<path d="M107.1023 127.6187 L107.4988 127.8169 "/>
</g><g transform="rotate(-90.000000 125.8949 81.2734)">
<text x="125.8949" y="83.3550" textLength="12.3409" font-size="5.5509" lengthAdjust="spacingAndGlyphs" text-anchor="middle" opacity="0.01" style="font-family:monospace">JP1</text>
</g>
<g class="stroked-text"><desc>JP1</desc>
<path d="M123.6252 84.7427 L126.5990 84.7427 "/>
<path d="M126.5990 84.7427 L127.1937 84.9410 "/>
<path d="M127.1937 84.9410 L127.5902 85.3374 "/>
<path d="M127.5902 85.3374 L127.7884 85.9322 "/>
<path d="M127.7884 85.9322 L127.7884 86.3287 "/>
<path d="M127.7884 82.7602 L123.6252 82.7602 "/>
<path d="M123.6252 82.7602 L123.6252 81.1743 "/>
<path d="M123.6252 81.1743 L123.8235 80.7778 "/>
<path d="M123.8235 80.7778 L124.0217 80.5795 "/>
<path d="M124.0217 80.5795 L124.4182 80.3813 "/>
<path d="M124.4182 80.3813 L125.0130 80.3813 "/>
<path d="M125.0130 80.3813 L125.4095 80.5795 "/>
<path d="M125.4095 80.5795 L125.6077 80.7778 "/>
<path d="M125.6077 80.7778 L125.8060 81.1743 "/>
<path d="M125.8060 81.1743 L125.8060 82.7602 "/>
<path d="M127.7884 76.4163 L127.7884 78.7953 "/>
<path d="M127.7884 77.6058 L123.6252 77.6058 "/>
<path d="M123.6252 77.6058 L124.2200 78.0023 "/>
<path d="M124.2200 78.0023 L124.6165 78.3988 "/>
<path d="M124.6165 78.3988 L124.8147 78.7953 "/>
</g><g transform="rotate(-180.000000 90.9532 114.3467)">
<text x="90.9532" y="116.4282" transform="scale(-1 1) translate(-181.906448 0)" textLength="5.2040" font-size="5.5509" lengthAdjust="spacingAndGlyphs" text-anchor="middle" opacity="0.01" style="font-family:monospace">K</text>
</g>
<g class="stroked-text"><desc>K</desc>
<path d="M89.8629 112.4531 L89.8629 116.6163 "/>
<path d="M92.2418 112.4531 L90.4576 114.8321 "/>
<path d="M92.2418 116.6163 L89.8629 114.2374 "/>
</g><g transform="rotate(-180.000000 90.9116 139.5756)">
<text x="90.9116" y="141.6572" transform="scale(-1 1) translate(-181.823184 0)" textLength="5.2040" font-size="5.5509" lengthAdjust="spacingAndGlyphs" text-anchor="middle" opacity="0.01" style="font-family:monospace">K</text>
</g>
<g class="stroked-text"><desc>K</desc>
<path d="M89.8212 137.6821 L89.8212 141.8453 "/>
<path d="M92.2002 137.6821 L90.4160 140.0611 "/>
<path d="M92.2002 141.8453 L89.8212 139.4664 "/>
</g><g transform="rotate(-180.000000 90.9532 126.9611)">
<text x="90.9532" y="129.0427" transform="scale(-1 1) translate(-181.906448 0)" textLength="5.2040" font-size="5.5509" lengthAdjust="spacingAndGlyphs" text-anchor="middle" opacity="0.01" style="font-family:monospace">K</text>
</g>
<g class="stroked-text"><desc>K</desc>
<path d="M89.8629 125.0676 L89.8629 129.2308 "/>
<path d="M92.2418 125.0676 L90.4576 127.4466 "/>
<path d="M92.2418 129.2308 L89.8629 126.8519 "/>
</g><g transform="rotate(-180.000000 90.8075 96.3200)">
<text x="90.8075" y="98.4016" transform="scale(-1 1) translate(-181.615024 0)" textLength="5.2040" font-size="5.5509" lengthAdjust="spacingAndGlyphs" text-anchor="middle" opacity="0.01" style="font-family:monospace">K</text>
</g>
<g class="stroked-text"><desc>K</desc>
<path d="M89.7171 94.4265 L89.7171 98.5897 "/>
<path d="M92.0961 94.4265 L90.3119 96.8055 "/>
<path d="M92.0961 98.5897 L89.7171 96.2107 "/>
</g><g transform="rotate(-180.000000 90.8491 152.1901)">
<text x="90.8491" y="154.2717" transform="scale(-1 1) translate(-181.698288 0)" textLength="5.2040" font-size="5.5509" lengthAdjust="spacingAndGlyphs" text-anchor="middle" opacity="0.01" style="font-family:monospace">K</text>
</g>
<g class="stroked-text"><desc>K</desc>
<path d="M89.7588 150.2966 L89.7588 154.4598 "/>
<path d="M92.1377 150.2966 L90.3535 152.6756 "/>
<path d="M92.1377 154.4598 L89.7588 152.0808 "/>
</g></g>
<g style="fill:#848484; fill-opacity:0.01;  stroke:#848484; stroke-width:0.3331; stroke-opacity:1;  stroke-linecap:round; stroke-linejoin:round;">
<text x="144.6397" y="73.4882" textLength="4.6469" font-size="2.7755" lengthAdjust="spacingAndGlyphs" text-anchor="middle" opacity="0.01" style="font-family:monospace">R2</text>
<g class="stroked-text"><desc>R2</desc>
<path d="M144.2928 73.3931 L143.5989 72.4018 "/>
<path d="M143.1033 73.3931 L143.1033 71.3115 "/>
<path d="M143.1033 71.3115 L143.8963 71.3115 "/>
<path d="M143.8963 71.3115 L144.0946 71.4106 "/>
<path d="M144.0946 71.4106 L144.1937 71.5097 "/>
<path d="M144.1937 71.5097 L144.2928 71.7080 "/>
<path d="M144.2928 71.7080 L144.2928 72.0053 "/>
<path d="M144.2928 72.0053 L144.1937 72.2036 "/>
<path d="M144.1937 72.2036 L144.0946 72.3027 "/>
<path d="M144.0946 72.3027 L143.8963 72.4018 "/>
<path d="M143.8963 72.4018 L143.1033 72.4018 "/>
<path d="M145.0858 71.5097 L145.1849 71.4106 "/>
<path d="M145.1849 71.4106 L145.3832 71.3115 "/>
<path d="M145.3832 71.3115 L145.8788 71.3115 "/>
<path d="M145.8788 71.3115 L146.0770 71.4106 "/>
<path d="M146.0770 71.4106 L146.1762 71.5097 "/>
<path d="M146.1762 71.5097 L146.2753 71.7080 "/>
<path d="M146.2753 71.7080 L146.2753 71.9062 "/>
<path d="M146.2753 71.9062 L146.1762 72.2036 "/>
<path d="M146.1762 72.2036 L144.9867 73.3931 "/>
<path d="M144.9867 73.3931 L146.2753 73.3931 "/>
</g></g>
<g style="fill:#848484; fill-opacity:0.0;  stroke:#848484; stroke-width:0.4163; stroke-opacity:1;  stroke-linecap:round; stroke-linejoin:round;">
<path d="M226.7692 40.4740 L226.7692 92.0977 "/>
<path d="M157.2438 40.4740 L226.7692 40.4740 "/>
<path d="M226.7692 51.7147 L222.1897 56.2942 "/>
<path d="M222.1897 56.2942 L226.7692 60.8737 "/>
<path d="M226.7692 92.0977 L157.2438 92.0977 "/>
<path d="M157.2438 92.0977 L157.2438 40.4740 "/>
</g>
<g style="fill:#848484; fill-opacity:0.0;  stroke:#848484; stroke-width:1.5862; stroke-opacity:1;  stroke-linecap:round; stroke-linejoin:round;">
<circle cx="85.0540" cy="189.5998" r="12.4885"/> 
</g>
<g style="fill:#848484; fill-opacity:0.0;  stroke:#848484; stroke-width:0.4163; stroke-opacity:1;  stroke-linecap:round; stroke-linejoin:round;">
<path d="M169.6293 8.0427 L174.9166 13.3300 "/>
<path d="M122.0440 8.0427 L169.6293 8.0427 "/>
<path d="M174.9166 13.3300 L174.9166 29.1918 "/>
<path d="M174.9166 29.1918 L122.0440 29.1918 "/>
<path d="M122.0440 29.1918 L122.0440 8.0427 "/>
<path d="M120.4828 68.0969 L117.8392 70.7405 "/>
<path d="M120.4828 39.0169 L120.4828 68.0969 "/>
<path d="M117.8392 70.7405 L109.9083 70.7405 "/>
<path d="M109.9083 70.7405 L109.9083 39.0169 "/>
<path d="M109.9083 39.0169 L120.4828 39.0169 "/>
<path d="M92.1730 66.8063 L86.8858 72.0935 "/>
<path d="M92.1730 40.3700 L92.1730 66.8063 "/>
<path d="M86.8858 72.0935 L71.0240 72.0935 "/>
<path d="M71.0240 72.0935 L71.0240 40.3700 "/>
<path d="M71.0240 40.3700 L92.1730 40.3700 "/>
<path d="M137.3854 162.9137 L142.6726 157.6264 "/>
<path d="M137.3854 168.2009 L137.3854 162.9137 "/>
<path d="M142.6726 157.6264 L158.5344 157.6264 "/>
<path d="M158.5344 157.6264 L158.5344 168.2009 "/>
<path d="M158.5344 168.2009 L137.3854 168.2009 "/>
</g>
<g style="fill:#848484; fill-opacity:0.0;  stroke:#848484; stroke-width:1.5862; stroke-opacity:1;  stroke-linecap:round; stroke-linejoin:round;">
<circle cx="211.9482" cy="20.4074" r="12.4885"/> 
<circle cx="85.0540" cy="20.4074" r="12.4885"/> 
</g>
<g style="fill:#848484; fill-opacity:0.0;  stroke:#848484; stroke-width:0.4163; stroke-opacity:1;  stroke-linecap:round; stroke-linejoin:round;">
<path d="M203.9965 131.5648 L209.2838 126.2775 "/>
<path d="M203.9965 168.5756 L203.9965 131.5648 "/>
<path d="M209.2838 126.2775 L225.1456 126.2775 "/>
<path d="M225.1456 126.2775 L225.1456 168.5756 "/>
<path d="M225.1456 168.5756 L203.9965 168.5756 "/>
<path d="M96.8150 96.4899 L102.1023 91.2026 "/>
<path d="M96.8150 165.2243 L96.8150 96.4899 "/>
<path d="M102.1023 91.2026 L117.9640 91.2026 "/>
<path d="M117.9640 91.2026 L117.9640 165.2243 "/>
<path d="M117.9640 165.2243 L96.8150 165.2243 "/>
</g>
<g style="fill:#848484; fill-opacity:0.0;  stroke:#848484; stroke-width:1.5862; stroke-opacity:1;  stroke-linecap:round; stroke-linejoin:round;">
<circle cx="211.9482" cy="189.5998" r="12.4885"/> 
</g>
<g style="fill:#848484; fill-opacity:0.0;  stroke:#848484; stroke-width:0.4163; stroke-opacity:1;  stroke-linecap:round; stroke-linejoin:round;">
<path d="M136.4695 81.2734 L131.1822 86.5606 "/>
<path d="M136.4695 75.9861 L136.4695 81.2734 "/>
<path d="M131.1822 86.5606 L115.3204 86.5606 "/>
<path d="M115.3204 86.5606 L115.3204 75.9861 "/>
<path d="M115.3204 75.9861 L136.4695 75.9861 "/>
<g>
</g>
<g>
</g>
<g>
</g>
<g>
</g>
<g>
</g>
<g>
</g>
<g>
</g>
<g>
</g>
<g>
</g>
<g>
</g>
<g>
</g>
<g>
</g>
<g>
</g>
<g>
</g>
<g>
</g>
<g>
</g>
<g>
</g>
<g>
</g>
<g>
</g>
<g>
</g>
<g>
</g>
<g>
</g>
<g>
</g>
<g>
</g>
<g>
</g>
<g>
</g>
<g>
</g>
<g>
</g>
<g>
</g>
<g>
</g>
<g>
</g>
<g>
</g>
<g>
</g>
<g>
</g>
<g>
</g>
<g>
</g>
<g>
</g>
<g>
</g>
<g>
</g>
<g>
</g>
<g>
</g>
<g>
</g>
<g>
</g>
<g>
</g>
<g>
</g>
<g>
</g>
<g>
</g>
<g>
</g>
<g>
</g>
<g>
</g>
<g>
</g>
<g>
</g>
<g>
</g>
<g>
</g>
</g> 
<svg:g><svg:g><svg:title>SVG Image created as USBPDSINK01-Edge_Cuts.svg date 2023/08/23 22:23:17 </svg:title>
  <svg:desc>Image generated by PCBNEW </svg:desc>
<svg:g style="fill:#C2C200; fill-opacity:1.0000;stroke:#C2C200; stroke-opacity:1.0000; stroke-linecap:round; stroke-linejoin:round;" transform="translate(0 0) scale(1 1)">
</svg:g>
<svg:g style="fill:#C2C200; fill-opacity:0.0;  stroke:#C2C200; stroke-width:0.0000; stroke-opacity:1;  stroke-linecap:round; stroke-linejoin:round;">
</svg:g>
<svg:g style="fill:#C2C200; fill-opacity:0.0;  stroke:#C2C200; stroke-width:0.6245; stroke-opacity:1;  stroke-linecap:round; stroke-linejoin:round;">
<svg:path style="fill:#C2C200; fill-opacity:0.0;  stroke:#C2C200; stroke-width:0.6245; stroke-opacity:1;  stroke-linecap:round; stroke-linejoin:round;fill:none" d="M 64.9624,0.3158 232.0398,0.3158 232.0398,209.6914 64.9624,209.6914 Z"/> 
</svg:g>
<svg:g style="fill:#C2C200; fill-opacity:0.0;  stroke:#C2C200; stroke-width:0.2082; stroke-opacity:1;  stroke-linecap:round; stroke-linejoin:round;">
<svg:path d="M77.9141 111.6439 L77.9141 117.4724 "/>
<svg:path d="M79.9957 109.5623 L84.9915 109.5623 "/>
<svg:path d="M79.9957 119.5540 L84.9915 119.5540 "/>
<svg:path d="M87.0731 111.6439 L87.0731 117.4724 "/>
<svg:path d="M79.9957 109.5623 A2.0816 2.0816 0.0 0 0 77.9141 111.6439"/>
<svg:path d="M77.9141 117.4724 A2.0816 2.0816 0.0 0 0 79.9957 119.5540"/>
<svg:path d="M87.0731 111.6439 A2.0816 2.0816 0.0 0 0 84.9915 109.5623"/>
<svg:path d="M84.9915 119.5540 A2.0816 2.0816 0.0 0 0 87.0731 117.4724"/>
<svg:path d="M77.8725 136.8729 L77.8725 142.7014 "/>
<svg:path d="M79.9541 134.7913 L84.9499 134.7913 "/>
<svg:path d="M79.9541 144.7830 L84.9499 144.7830 "/>
<svg:path d="M87.0315 136.8729 L87.0315 142.7014 "/>
<svg:path d="M79.9541 134.7913 A2.0816 2.0816 0.0 0 0 77.8725 136.8729"/>
<svg:path d="M77.8725 142.7014 A2.0816 2.0816 0.0 0 0 79.9541 144.7830"/>
<svg:path d="M87.0315 136.8729 A2.0816 2.0816 0.0 0 0 84.9499 134.7913"/>
<svg:path d="M84.9499 144.7830 A2.0816 2.0816 0.0 0 0 87.0315 142.7014"/>
<svg:path d="M77.9141 124.2584 L77.9141 130.0869 "/>
<svg:path d="M79.9957 122.1768 L84.9915 122.1768 "/>
<svg:path d="M79.9957 132.1685 L84.9915 132.1685 "/>
<svg:path d="M87.0731 124.2584 L87.0731 130.0869 "/>
<svg:path d="M79.9957 122.1768 A2.0816 2.0816 0.0 0 0 77.9141 124.2584"/>
<svg:path d="M77.9141 130.0869 A2.0816 2.0816 0.0 0 0 79.9957 132.1685"/>
<svg:path d="M87.0731 124.2584 A2.0816 2.0816 0.0 0 0 84.9915 122.1768"/>
<svg:path d="M84.9915 132.1685 A2.0816 2.0816 0.0 0 0 87.0731 130.0869"/>
<svg:path d="M77.7684 93.6173 L77.7684 99.4457 "/>
<svg:path d="M79.8500 91.5357 L84.8458 91.5357 "/>
<svg:path d="M79.8500 101.5273 L84.8458 101.5273 "/>
<svg:path d="M86.9274 93.6173 L86.9274 99.4457 "/>
<svg:path d="M79.8500 91.5357 A2.0816 2.0816 0.0 0 0 77.7684 93.6173"/>
<svg:path d="M77.7684 99.4457 A2.0816 2.0816 0.0 0 0 79.8500 101.5273"/>
<svg:path d="M86.9274 93.6173 A2.0816 2.0816 0.0 0 0 84.8458 91.5357"/>
<svg:path d="M84.8458 101.5273 A2.0816 2.0816 0.0 0 0 86.9274 99.4457"/>
<svg:path d="M77.8100 149.4874 L77.8100 155.3158 "/>
<svg:path d="M79.8916 147.4058 L84.8874 147.4058 "/>
<svg:path d="M79.8916 157.3974 L84.8874 157.3974 "/>
<svg:path d="M86.9690 149.4874 L86.9690 155.3158 "/>
<svg:path d="M79.8916 147.4058 A2.0816 2.0816 0.0 0 0 77.8100 149.4874"/>
<svg:path d="M77.8100 155.3158 A2.0816 2.0816 0.0 0 0 79.8916 157.3974"/>
<svg:path d="M86.9690 149.4874 A2.0816 2.0816 0.0 0 0 84.8874 147.4058"/>
<svg:path d="M84.8874 157.3974 A2.0816 2.0816 0.0 0 0 86.9690 155.3158"/>
<svg:g>
</svg:g>
<svg:g>
</svg:g>
<svg:g>
</svg:g>
<svg:g>
</svg:g>
<svg:g>
</svg:g>
<svg:g>
</svg:g>
<svg:g>
</svg:g>
<svg:g>
</svg:g>
<svg:g>
</svg:g>
<svg:g>
</svg:g>
<svg:g>
</svg:g>
<svg:g>
</svg:g>
<svg:g>
</svg:g>
<svg:g>
</svg:g>
<svg:g>
</svg:g>
<svg:g>
</svg:g>
<svg:g>
</svg:g>
<svg:g>
</svg:g>
<svg:g>
</svg:g>
<svg:g>
</svg:g>
<svg:g>
</svg:g>
<svg:g>
</svg:g>
<svg:g>
</svg:g>
<svg:g>
</svg:g>
<svg:g>
</svg:g>
<svg:g>
</svg:g>
<svg:g>
</svg:g>
<svg:g>
</svg:g>
<svg:g>
</svg:g>
<svg:g>
</svg:g>
<svg:g>
</svg:g>
<svg:g>
</svg:g>
<svg:g>
</svg:g>
<svg:g>
</svg:g>
<svg:g>
</svg:g>
<svg:g>
</svg:g>
<svg:g>
</svg:g>
<svg:g>
</svg:g>
<svg:g>
</svg:g>
<svg:g>
</svg:g>
<svg:g>
</svg:g>
<svg:g>
</svg:g>
<svg:g>
</svg:g>
<svg:g>
</svg:g>
<svg:g>
</svg:g>
<svg:g>
</svg:g>
<svg:g>
</svg:g>
<svg:g>
</svg:g>
<svg:g>
</svg:g>
<svg:g>
</svg:g>
<svg:g>
</svg:g>
<svg:g>
</svg:g>
<svg:g>
</svg:g>
<svg:g>
</svg:g>
</svg:g> 
</svg:g></svg:g></svg>
