<?xml version='1.0' encoding='ASCII' standalone='yes'?>
<svg xmlns:svg="http://www.w3.org/2000/svg" xmlns="http://www.w3.org/2000/svg" xmlns:xlink="http://www.w3.org/1999/xlink" version="1.1" width="297.0022mm" height="210.0072mm" viewBox="0.0000 0.0000 297.0022 210.0072">
<title>SVG Image created as USBPDSINK01-F_Fab.svg date 2023/09/11 00:56:44 </title>
  <desc>Image generated by PCBNEW </desc>
<g style="fill:#848484; fill-opacity:1.0000;stroke:#848484; stroke-opacity:1.0000; stroke-linecap:round; stroke-linejoin:round;" transform="translate(0 0) scale(1 1)">
</g>
<g style="fill:#848484; fill-opacity:0.0;  stroke:#848484; stroke-width:0.0000; stroke-opacity:1;  stroke-linecap:round; stroke-linejoin:round;">
</g>
<g style="fill:#848484; fill-opacity:0.01;  stroke:#848484; stroke-width:0.5938; stroke-opacity:1;  stroke-linecap:round; stroke-linejoin:round;">
<g transform="rotate(-270.000000 188.8243 73.7443)">
<text x="188.8243" y="75.7236" textLength="55.0906" font-size="5.2781" lengthAdjust="spacingAndGlyphs" text-anchor="middle" opacity="0.01" style="font-family:monospace">WAGO_2604-3102</text>
</g>
<g class="stroked-text"><desc>WAGO_2604-3102</desc>
<path d="M190.9824 47.2594 L187.0238 48.2019 "/>
<path d="M187.0238 48.2019 L189.8514 48.9559 "/>
<path d="M189.8514 48.9559 L187.0238 49.7099 "/>
<path d="M187.0238 49.7099 L190.9824 50.6524 "/>
<path d="M188.1549 51.9720 L188.1549 53.8570 "/>
<path d="M187.0238 51.5950 L190.9824 52.9145 "/>
<path d="M190.9824 52.9145 L187.0238 54.2340 "/>
<path d="M190.7939 57.6271 L190.9824 57.2501 "/>
<path d="M190.9824 57.2501 L190.9824 56.6846 "/>
<path d="M190.9824 56.6846 L190.7939 56.1191 "/>
<path d="M190.7939 56.1191 L190.4169 55.7421 "/>
<path d="M190.4169 55.7421 L190.0399 55.5536 "/>
<path d="M190.0399 55.5536 L189.2859 55.3651 "/>
<path d="M189.2859 55.3651 L188.7204 55.3651 "/>
<path d="M188.7204 55.3651 L187.9664 55.5536 "/>
<path d="M187.9664 55.5536 L187.5893 55.7421 "/>
<path d="M187.5893 55.7421 L187.2123 56.1191 "/>
<path d="M187.2123 56.1191 L187.0238 56.6846 "/>
<path d="M187.0238 56.6846 L187.0238 57.0616 "/>
<path d="M187.0238 57.0616 L187.2123 57.6271 "/>
<path d="M187.2123 57.6271 L187.4008 57.8156 "/>
<path d="M187.4008 57.8156 L188.7204 57.8156 "/>
<path d="M188.7204 57.8156 L188.7204 57.0616 "/>
<path d="M190.9824 60.2662 L190.9824 61.0202 "/>
<path d="M190.9824 61.0202 L190.7939 61.3972 "/>
<path d="M190.7939 61.3972 L190.4169 61.7742 "/>
<path d="M190.4169 61.7742 L189.6629 61.9628 "/>
<path d="M189.6629 61.9628 L188.3434 61.9628 "/>
<path d="M188.3434 61.9628 L187.5893 61.7742 "/>
<path d="M187.5893 61.7742 L187.2123 61.3972 "/>
<path d="M187.2123 61.3972 L187.0238 61.0202 "/>
<path d="M187.0238 61.0202 L187.0238 60.2662 "/>
<path d="M187.0238 60.2662 L187.2123 59.8892 "/>
<path d="M187.2123 59.8892 L187.5893 59.5122 "/>
<path d="M187.5893 59.5122 L188.3434 59.3237 "/>
<path d="M188.3434 59.3237 L189.6629 59.3237 "/>
<path d="M189.6629 59.3237 L190.4169 59.5122 "/>
<path d="M190.4169 59.5122 L190.7939 59.8892 "/>
<path d="M190.7939 59.8892 L190.9824 60.2662 "/>
<path d="M186.6468 62.7168 L186.6468 65.7329 "/>
<path d="M190.6054 66.4869 L190.7939 66.6754 "/>
<path d="M190.7939 66.6754 L190.9824 67.0524 "/>
<path d="M190.9824 67.0524 L190.9824 67.9949 "/>
<path d="M190.9824 67.9949 L190.7939 68.3719 "/>
<path d="M190.7939 68.3719 L190.6054 68.5604 "/>
<path d="M190.6054 68.5604 L190.2284 68.7489 "/>
<path d="M190.2284 68.7489 L189.8514 68.7489 "/>
<path d="M189.8514 68.7489 L189.2859 68.5604 "/>
<path d="M189.2859 68.5604 L187.0238 66.2984 "/>
<path d="M187.0238 66.2984 L187.0238 68.7489 "/>
<path d="M190.9824 72.1420 L190.9824 71.3880 "/>
<path d="M190.9824 71.3880 L190.7939 71.0110 "/>
<path d="M190.7939 71.0110 L190.6054 70.8225 "/>
<path d="M190.6054 70.8225 L190.0399 70.4455 "/>
<path d="M190.0399 70.4455 L189.2859 70.2570 "/>
<path d="M189.2859 70.2570 L187.7779 70.2570 "/>
<path d="M187.7779 70.2570 L187.4008 70.4455 "/>
<path d="M187.4008 70.4455 L187.2123 70.6340 "/>
<path d="M187.2123 70.6340 L187.0238 71.0110 "/>
<path d="M187.0238 71.0110 L187.0238 71.7650 "/>
<path d="M187.0238 71.7650 L187.2123 72.1420 "/>
<path d="M187.2123 72.1420 L187.4008 72.3305 "/>
<path d="M187.4008 72.3305 L187.7779 72.5190 "/>
<path d="M187.7779 72.5190 L188.7204 72.5190 "/>
<path d="M188.7204 72.5190 L189.0974 72.3305 "/>
<path d="M189.0974 72.3305 L189.2859 72.1420 "/>
<path d="M189.2859 72.1420 L189.4744 71.7650 "/>
<path d="M189.4744 71.7650 L189.4744 71.0110 "/>
<path d="M189.4744 71.0110 L189.2859 70.6340 "/>
<path d="M189.2859 70.6340 L189.0974 70.4455 "/>
<path d="M189.0974 70.4455 L188.7204 70.2570 "/>
<path d="M190.9824 74.9696 L190.9824 75.3466 "/>
<path d="M190.9824 75.3466 L190.7939 75.7236 "/>
<path d="M190.7939 75.7236 L190.6054 75.9121 "/>
<path d="M190.6054 75.9121 L190.2284 76.1006 "/>
<path d="M190.2284 76.1006 L189.4744 76.2892 "/>
<path d="M189.4744 76.2892 L188.5319 76.2892 "/>
<path d="M188.5319 76.2892 L187.7779 76.1006 "/>
<path d="M187.7779 76.1006 L187.4008 75.9121 "/>
<path d="M187.4008 75.9121 L187.2123 75.7236 "/>
<path d="M187.2123 75.7236 L187.0238 75.3466 "/>
<path d="M187.0238 75.3466 L187.0238 74.9696 "/>
<path d="M187.0238 74.9696 L187.2123 74.5926 "/>
<path d="M187.2123 74.5926 L187.4008 74.4041 "/>
<path d="M187.4008 74.4041 L187.7779 74.2156 "/>
<path d="M187.7779 74.2156 L188.5319 74.0271 "/>
<path d="M188.5319 74.0271 L189.4744 74.0271 "/>
<path d="M189.4744 74.0271 L190.2284 74.2156 "/>
<path d="M190.2284 74.2156 L190.6054 74.4041 "/>
<path d="M190.6054 74.4041 L190.7939 74.5926 "/>
<path d="M190.7939 74.5926 L190.9824 74.9696 "/>
<path d="M189.6629 79.6822 L187.0238 79.6822 "/>
<path d="M191.1709 78.7397 L188.3434 77.7972 "/>
<path d="M188.3434 77.7972 L188.3434 80.2478 "/>
<path d="M188.5319 81.7558 L188.5319 84.7719 "/>
<path d="M190.9824 86.2799 L190.9824 88.7305 "/>
<path d="M190.9824 88.7305 L189.4744 87.4110 "/>
<path d="M189.4744 87.4110 L189.4744 87.9765 "/>
<path d="M189.4744 87.9765 L189.2859 88.3535 "/>
<path d="M189.2859 88.3535 L189.0974 88.5420 "/>
<path d="M189.0974 88.5420 L188.7204 88.7305 "/>
<path d="M188.7204 88.7305 L187.7779 88.7305 "/>
<path d="M187.7779 88.7305 L187.4008 88.5420 "/>
<path d="M187.4008 88.5420 L187.2123 88.3535 "/>
<path d="M187.2123 88.3535 L187.0238 87.9765 "/>
<path d="M187.0238 87.9765 L187.0238 86.8454 "/>
<path d="M187.0238 86.8454 L187.2123 86.4684 "/>
<path d="M187.2123 86.4684 L187.4008 86.2799 "/>
<path d="M187.0238 92.5006 L187.0238 90.2385 "/>
<path d="M187.0238 91.3696 L190.9824 91.3696 "/>
<path d="M190.9824 91.3696 L190.4169 90.9926 "/>
<path d="M190.4169 90.9926 L190.0399 90.6155 "/>
<path d="M190.0399 90.6155 L189.8514 90.2385 "/>
<path d="M190.9824 94.9512 L190.9824 95.3282 "/>
<path d="M190.9824 95.3282 L190.7939 95.7052 "/>
<path d="M190.7939 95.7052 L190.6054 95.8937 "/>
<path d="M190.6054 95.8937 L190.2284 96.0822 "/>
<path d="M190.2284 96.0822 L189.4744 96.2707 "/>
<path d="M189.4744 96.2707 L188.5319 96.2707 "/>
<path d="M188.5319 96.2707 L187.7779 96.0822 "/>
<path d="M187.7779 96.0822 L187.4008 95.8937 "/>
<path d="M187.4008 95.8937 L187.2123 95.7052 "/>
<path d="M187.2123 95.7052 L187.0238 95.3282 "/>
<path d="M187.0238 95.3282 L187.0238 94.9512 "/>
<path d="M187.0238 94.9512 L187.2123 94.5742 "/>
<path d="M187.2123 94.5742 L187.4008 94.3856 "/>
<path d="M187.4008 94.3856 L187.7779 94.1971 "/>
<path d="M187.7779 94.1971 L188.5319 94.0086 "/>
<path d="M188.5319 94.0086 L189.4744 94.0086 "/>
<path d="M189.4744 94.0086 L190.2284 94.1971 "/>
<path d="M190.2284 94.1971 L190.6054 94.3856 "/>
<path d="M190.6054 94.3856 L190.7939 94.5742 "/>
<path d="M190.7939 94.5742 L190.9824 94.9512 "/>
<path d="M190.6054 97.7787 L190.7939 97.9672 "/>
<path d="M190.7939 97.9672 L190.9824 98.3443 "/>
<path d="M190.9824 98.3443 L190.9824 99.2868 "/>
<path d="M190.9824 99.2868 L190.7939 99.6638 "/>
<path d="M190.7939 99.6638 L190.6054 99.8523 "/>
<path d="M190.6054 99.8523 L190.2284 100.0408 "/>
<path d="M190.2284 100.0408 L189.8514 100.0408 "/>
<path d="M189.8514 100.0408 L189.2859 99.8523 "/>
<path d="M189.2859 99.8523 L187.0238 97.5902 "/>
<path d="M187.0238 97.5902 L187.0238 100.0408 "/>
</g><g transform="rotate(-270.000000 194.7622 73.7443)">
<text x="194.7622" y="75.7236" textLength="7.7758" font-size="5.2781" lengthAdjust="spacingAndGlyphs" text-anchor="middle" opacity="0.01" style="font-family:monospace">J7</text>
</g>
<g class="stroked-text"><desc>J7</desc>
<path d="M196.9203 72.4248 L194.0928 72.4248 "/>
<path d="M194.0928 72.4248 L193.5273 72.2363 "/>
<path d="M193.5273 72.2363 L193.1502 71.8593 "/>
<path d="M193.1502 71.8593 L192.9617 71.2938 "/>
<path d="M192.9617 71.2938 L192.9617 70.9168 "/>
<path d="M196.9203 73.9328 L196.9203 76.5719 "/>
<path d="M196.9203 76.5719 L192.9617 74.8754 "/>
</g><text x="148.4267" y="30.4767" textLength="7.7758" font-size="5.2781" lengthAdjust="spacingAndGlyphs" text-anchor="middle" opacity="0.01" style="font-family:monospace">J2</text>
<g class="stroked-text"><desc>J2</desc>
<path d="M147.1071 26.3393 L147.1071 29.1668 "/>
<path d="M147.1071 29.1668 L146.9186 29.7324 "/>
<path d="M146.9186 29.7324 L146.5416 30.1094 "/>
<path d="M146.5416 30.1094 L145.9761 30.2979 "/>
<path d="M145.9761 30.2979 L145.5991 30.2979 "/>
<path d="M148.8037 26.7163 L148.9922 26.5278 "/>
<path d="M148.9922 26.5278 L149.3692 26.3393 "/>
<path d="M149.3692 26.3393 L150.3117 26.3393 "/>
<path d="M150.3117 26.3393 L150.6887 26.5278 "/>
<path d="M150.6887 26.5278 L150.8772 26.7163 "/>
<path d="M150.8772 26.7163 L151.0657 27.0933 "/>
<path d="M151.0657 27.0933 L151.0657 27.4703 "/>
<path d="M151.0657 27.4703 L150.8772 28.0358 "/>
<path d="M150.8772 28.0358 L148.6152 30.2979 "/>
<path d="M148.6152 30.2979 L151.0657 30.2979 "/>
</g><g transform="rotate(-90.000000 116.7776 62.5019)">
<text x="116.7776" y="64.4812" textLength="11.7344" font-size="5.2781" lengthAdjust="spacingAndGlyphs" text-anchor="middle" opacity="0.01" style="font-family:monospace">JP3</text>
</g>
<g class="stroked-text"><desc>JP3</desc>
<path d="M114.6194 65.8007 L117.4470 65.8007 "/>
<path d="M117.4470 65.8007 L118.0125 65.9892 "/>
<path d="M118.0125 65.9892 L118.3895 66.3662 "/>
<path d="M118.3895 66.3662 L118.5781 66.9318 "/>
<path d="M118.5781 66.9318 L118.5781 67.3088 "/>
<path d="M118.5781 63.9157 L114.6194 63.9157 "/>
<path d="M114.6194 63.9157 L114.6194 62.4076 "/>
<path d="M114.6194 62.4076 L114.8079 62.0306 "/>
<path d="M114.8079 62.0306 L114.9965 61.8421 "/>
<path d="M114.9965 61.8421 L115.3735 61.6536 "/>
<path d="M115.3735 61.6536 L115.9390 61.6536 "/>
<path d="M115.9390 61.6536 L116.3160 61.8421 "/>
<path d="M116.3160 61.8421 L116.5045 62.0306 "/>
<path d="M116.5045 62.0306 L116.6930 62.4076 "/>
<path d="M116.6930 62.4076 L116.6930 63.9157 "/>
<path d="M114.6194 60.3341 L114.6194 57.8835 "/>
<path d="M114.6194 57.8835 L116.1275 59.2030 "/>
<path d="M116.1275 59.2030 L116.1275 58.6375 "/>
<path d="M116.1275 58.6375 L116.3160 58.2605 "/>
<path d="M116.3160 58.2605 L116.5045 58.0720 "/>
<path d="M116.5045 58.0720 L116.8815 57.8835 "/>
<path d="M116.8815 57.8835 L117.8240 57.8835 "/>
<path d="M117.8240 57.8835 L118.2010 58.0720 "/>
<path d="M118.2010 58.0720 L118.3895 58.2605 "/>
<path d="M118.3895 58.2605 L118.5781 58.6375 "/>
<path d="M118.5781 58.6375 L118.5781 59.7686 "/>
<path d="M118.5781 59.7686 L118.3895 60.1456 "/>
<path d="M118.3895 60.1456 L118.2010 60.3341 "/>
</g><g transform="rotate(-90.000000 84.8316 63.7884)">
<text x="84.8316" y="65.7677" textLength="7.7758" font-size="5.2781" lengthAdjust="spacingAndGlyphs" text-anchor="middle" opacity="0.01" style="font-family:monospace">J4</text>
</g>
<g class="stroked-text"><desc>J4</desc>
<path d="M82.6735 65.1080 L85.5010 65.1080 "/>
<path d="M85.5010 65.1080 L86.0666 65.2965 "/>
<path d="M86.0666 65.2965 L86.4436 65.6735 "/>
<path d="M86.4436 65.6735 L86.6321 66.2390 "/>
<path d="M86.6321 66.2390 L86.6321 66.6160 "/>
<path d="M83.9930 61.5264 L86.6321 61.5264 "/>
<path d="M82.4850 62.4689 L85.3125 63.4114 "/>
<path d="M85.3125 63.4114 L85.3125 60.9609 "/>
</g><g transform="rotate(-90.000000 147.9319 165.2278)">
<text x="147.9319" y="167.2071" textLength="7.7758" font-size="5.2781" lengthAdjust="spacingAndGlyphs" text-anchor="middle" opacity="0.01" style="font-family:monospace">J5</text>
</g>
<g class="stroked-text"><desc>J5</desc>
<path d="M145.7737 166.5473 L148.6013 166.5473 "/>
<path d="M148.6013 166.5473 L149.1668 166.7358 "/>
<path d="M149.1668 166.7358 L149.5438 167.1128 "/>
<path d="M149.5438 167.1128 L149.7323 167.6783 "/>
<path d="M149.7323 167.6783 L149.7323 168.0554 "/>
<path d="M145.7737 162.7772 L145.7737 164.6623 "/>
<path d="M145.7737 164.6623 L147.6587 164.8508 "/>
<path d="M147.6587 164.8508 L147.4702 164.6623 "/>
<path d="M147.4702 164.6623 L147.2817 164.2853 "/>
<path d="M147.2817 164.2853 L147.2817 163.3427 "/>
<path d="M147.2817 163.3427 L147.4702 162.9657 "/>
<path d="M147.4702 162.9657 L147.6587 162.7772 "/>
<path d="M147.6587 162.7772 L148.0358 162.5887 "/>
<path d="M148.0358 162.5887 L148.9783 162.5887 "/>
<path d="M148.9783 162.5887 L149.3553 162.7772 "/>
<path d="M149.3553 162.7772 L149.5438 162.9657 "/>
<path d="M149.5438 162.9657 L149.7323 163.3427 "/>
<path d="M149.7323 163.3427 L149.7323 164.2853 "/>
<path d="M149.7323 164.2853 L149.5438 164.6623 "/>
<path d="M149.5438 164.6623 L149.3553 164.8508 "/>
</g><g transform="rotate(-90.000000 211.2696 150.5018)">
<text x="211.2696" y="152.4811" textLength="7.7758" font-size="5.2781" lengthAdjust="spacingAndGlyphs" text-anchor="middle" opacity="0.01" style="font-family:monospace">J3</text>
</g>
<g class="stroked-text"><desc>J3</desc>
<path d="M209.1114 151.8213 L211.9390 151.8213 "/>
<path d="M211.9390 151.8213 L212.5045 152.0098 "/>
<path d="M212.5045 152.0098 L212.8815 152.3868 "/>
<path d="M212.8815 152.3868 L213.0700 152.9523 "/>
<path d="M213.0700 152.9523 L213.0700 153.3293 "/>
<path d="M209.1114 150.3132 L209.1114 147.8627 "/>
<path d="M209.1114 147.8627 L210.6195 149.1822 "/>
<path d="M210.6195 149.1822 L210.6195 148.6167 "/>
<path d="M210.6195 148.6167 L210.8080 148.2397 "/>
<path d="M210.8080 148.2397 L210.9965 148.0512 "/>
<path d="M210.9965 148.0512 L211.3735 147.8627 "/>
<path d="M211.3735 147.8627 L212.3160 147.8627 "/>
<path d="M212.3160 147.8627 L212.6930 148.0512 "/>
<path d="M212.6930 148.0512 L212.8815 148.2397 "/>
<path d="M212.8815 148.2397 L213.0700 148.6167 "/>
<path d="M213.0700 148.6167 L213.0700 149.7477 "/>
<path d="M213.0700 149.7477 L212.8815 150.1247 "/>
<path d="M212.8815 150.1247 L212.6930 150.3132 "/>
</g><g transform="rotate(-90.000000 109.3552 132.2328)">
<text x="109.3552" y="134.2121" textLength="7.7758" font-size="5.2781" lengthAdjust="spacingAndGlyphs" text-anchor="middle" opacity="0.01" style="font-family:monospace">J6</text>
</g>
<g class="stroked-text"><desc>J6</desc>
<path d="M107.1970 133.5523 L110.0246 133.5523 "/>
<path d="M110.0246 133.5523 L110.5901 133.7408 "/>
<path d="M110.5901 133.7408 L110.9672 134.1178 "/>
<path d="M110.9672 134.1178 L111.1557 134.6833 "/>
<path d="M111.1557 134.6833 L111.1557 135.0604 "/>
<path d="M107.1970 129.9707 L107.1970 130.7247 "/>
<path d="M107.1970 130.7247 L107.3856 131.1017 "/>
<path d="M107.3856 131.1017 L107.5741 131.2902 "/>
<path d="M107.5741 131.2902 L108.1396 131.6673 "/>
<path d="M108.1396 131.6673 L108.8936 131.8558 "/>
<path d="M108.8936 131.8558 L110.4016 131.8558 "/>
<path d="M110.4016 131.8558 L110.7786 131.6673 "/>
<path d="M110.7786 131.6673 L110.9672 131.4788 "/>
<path d="M110.9672 131.4788 L111.1557 131.1017 "/>
<path d="M111.1557 131.1017 L111.1557 130.3477 "/>
<path d="M111.1557 130.3477 L110.9672 129.9707 "/>
<path d="M110.9672 129.9707 L110.7786 129.7822 "/>
<path d="M110.7786 129.7822 L110.4016 129.5937 "/>
<path d="M110.4016 129.5937 L109.4591 129.5937 "/>
<path d="M109.4591 129.5937 L109.0821 129.7822 "/>
<path d="M109.0821 129.7822 L108.8936 129.9707 "/>
<path d="M108.8936 129.9707 L108.7051 130.3477 "/>
<path d="M108.7051 130.3477 L108.7051 131.1017 "/>
<path d="M108.7051 131.1017 L108.8936 131.4788 "/>
<path d="M108.8936 131.4788 L109.0821 131.6673 "/>
<path d="M109.0821 131.6673 L109.4591 131.8558 "/>
</g><g transform="rotate(-90.000000 126.9512 87.5995)">
<text x="126.9512" y="89.5788" textLength="11.7344" font-size="5.2781" lengthAdjust="spacingAndGlyphs" text-anchor="middle" opacity="0.01" style="font-family:monospace">JP1</text>
</g>
<g class="stroked-text"><desc>JP1</desc>
<path d="M124.7931 90.8983 L127.6206 90.8983 "/>
<path d="M127.6206 90.8983 L128.1862 91.0868 "/>
<path d="M128.1862 91.0868 L128.5632 91.4638 "/>
<path d="M128.5632 91.4638 L128.7517 92.0293 "/>
<path d="M128.7517 92.0293 L128.7517 92.4063 "/>
<path d="M128.7517 89.0132 L124.7931 89.0132 "/>
<path d="M124.7931 89.0132 L124.7931 87.5052 "/>
<path d="M124.7931 87.5052 L124.9816 87.1282 "/>
<path d="M124.9816 87.1282 L125.1701 86.9397 "/>
<path d="M125.1701 86.9397 L125.5471 86.7512 "/>
<path d="M125.5471 86.7512 L126.1126 86.7512 "/>
<path d="M126.1126 86.7512 L126.4896 86.9397 "/>
<path d="M126.4896 86.9397 L126.6781 87.1282 "/>
<path d="M126.6781 87.1282 L126.8666 87.5052 "/>
<path d="M126.8666 87.5052 L126.8666 89.0132 "/>
<path d="M128.7517 82.9811 L128.7517 85.2431 "/>
<path d="M128.7517 84.1121 L124.7931 84.1121 "/>
<path d="M124.7931 84.1121 L125.3586 84.4891 "/>
<path d="M125.3586 84.4891 L125.7356 84.8661 "/>
<path d="M125.7356 84.8661 L125.9241 85.2431 "/>
</g><g transform="rotate(-180.000000 97.2102 121.8383)">
<text x="97.2102" y="123.8176" transform="scale(-1 1) translate(-194.420392 0)" textLength="4.9483" font-size="5.2781" lengthAdjust="spacingAndGlyphs" text-anchor="middle" opacity="0.01" style="font-family:monospace">K</text>
</g>
<g class="stroked-text"><desc>K</desc>
<path d="M96.1734 120.0378 L96.1734 123.9964 "/>
<path d="M98.4355 120.0378 L96.7389 122.2999 "/>
<path d="M98.4355 123.9964 L96.1734 121.7344 "/>
</g><g transform="rotate(-180.000000 97.1706 142.1591)">
<text x="97.1706" y="144.1384" transform="scale(-1 1) translate(-194.341220 0)" textLength="4.9483" font-size="5.2781" lengthAdjust="spacingAndGlyphs" text-anchor="middle" opacity="0.01" style="font-family:monospace">K</text>
</g>
<g class="stroked-text"><desc>K</desc>
<path d="M96.1338 140.3587 L96.1338 144.3173 "/>
<path d="M98.3959 140.3587 L96.6993 142.6207 "/>
<path d="M98.3959 144.3173 L96.1338 142.0552 "/>
</g><g transform="rotate(-180.000000 97.2102 131.9987)">
<text x="97.2102" y="133.9780" transform="scale(-1 1) translate(-194.420392 0)" textLength="4.9483" font-size="5.2781" lengthAdjust="spacingAndGlyphs" text-anchor="middle" opacity="0.01" style="font-family:monospace">K</text>
</g>
<g class="stroked-text"><desc>K</desc>
<path d="M96.1734 130.1982 L96.1734 134.1568 "/>
<path d="M98.4355 130.1982 L96.7389 132.4603 "/>
<path d="M98.4355 134.1568 L96.1734 131.8948 "/>
</g><g transform="rotate(-180.000000 97.0716 101.9067)">
<text x="97.0716" y="103.8860" transform="scale(-1 1) translate(-194.143289 0)" textLength="4.9483" font-size="5.2781" lengthAdjust="spacingAndGlyphs" text-anchor="middle" opacity="0.01" style="font-family:monospace">K</text>
</g>
<g class="stroked-text"><desc>K</desc>
<path d="M96.0349 100.1062 L96.0349 104.0648 "/>
<path d="M98.2969 100.1062 L96.6004 102.3683 "/>
<path d="M98.2969 104.0648 L96.0349 101.8028 "/>
</g><g transform="rotate(-180.000000 97.1112 152.3195)">
<text x="97.1112" y="154.2989" transform="scale(-1 1) translate(-194.222462 0)" textLength="4.9483" font-size="5.2781" lengthAdjust="spacingAndGlyphs" text-anchor="middle" opacity="0.01" style="font-family:monospace">K</text>
</g>
<g class="stroked-text"><desc>K</desc>
<path d="M96.0745 150.5191 L96.0745 154.4777 "/>
<path d="M98.3365 150.5191 L96.6400 152.7812 "/>
<path d="M98.3365 154.4777 L96.0745 152.2156 "/>
</g></g>
<g style="fill:#848484; fill-opacity:0.0;  stroke:#848484; stroke-width:0.3959; stroke-opacity:1;  stroke-linecap:round; stroke-linejoin:round;">
<path d="M222.8683 48.8051 L222.8683 97.8918 "/>
<path d="M156.7595 48.8051 L222.8683 48.8051 "/>
<path d="M222.8683 59.4933 L218.5138 63.8478 "/>
<path d="M218.5138 63.8478 L222.8683 68.2023 "/>
<path d="M222.8683 97.8918 L156.7595 97.8918 "/>
<path d="M156.7595 97.8918 L156.7595 48.8051 "/>
</g>
<g style="fill:#848484; fill-opacity:0.0;  stroke:#848484; stroke-width:1.5082; stroke-opacity:1;  stroke-linecap:round; stroke-linejoin:round;">
<circle cx="88.1173" cy="190.6025" r="11.8748"/> 
</g>
<g style="fill:#848484; fill-opacity:0.0;  stroke:#848484; stroke-width:0.3959; stroke-opacity:1;  stroke-linecap:round; stroke-linejoin:round;">
<path d="M168.5364 18.4426 L173.5638 23.4700 "/>
<path d="M123.2895 18.4426 L168.5364 18.4426 "/>
<path d="M173.5638 23.4700 L173.5638 38.5523 "/>
<path d="M173.5638 38.5523 L123.2895 38.5523 "/>
<path d="M123.2895 38.5523 L123.2895 18.4426 "/>
<path d="M121.8050 75.0705 L119.2913 77.5842 "/>
<path d="M121.8050 47.4196 L121.8050 75.0705 "/>
<path d="M119.2913 77.5842 L111.7502 77.5842 "/>
<path d="M111.7502 77.5842 L111.7502 47.4196 "/>
<path d="M111.7502 47.4196 L121.8050 47.4196 "/>
<path d="M94.8865 73.8433 L89.8591 78.8707 "/>
<path d="M94.8865 48.7061 L94.8865 73.8433 "/>
<path d="M89.8591 78.8707 L74.7768 78.8707 "/>
<path d="M74.7768 78.8707 L74.7768 48.7061 "/>
<path d="M74.7768 48.7061 L94.8865 48.7061 "/>
<path d="M137.8770 165.2278 L142.9044 160.2003 "/>
<path d="M137.8770 170.2552 L137.8770 165.2278 "/>
<path d="M142.9044 160.2003 L157.9867 160.2003 "/>
<path d="M157.9867 160.2003 L157.9867 170.2552 "/>
<path d="M157.9867 170.2552 L137.8770 170.2552 "/>
</g>
<g style="fill:#848484; fill-opacity:0.0;  stroke:#848484; stroke-width:1.5082; stroke-opacity:1;  stroke-linecap:round; stroke-linejoin:round;">
<circle cx="208.7757" cy="29.7246" r="11.8748"/> 
<circle cx="88.1173" cy="29.7246" r="11.8748"/> 
</g>
<g style="fill:#848484; fill-opacity:0.0;  stroke:#848484; stroke-width:0.3959; stroke-opacity:1;  stroke-linecap:round; stroke-linejoin:round;">
<path d="M201.2147 135.4195 L206.2422 130.3920 "/>
<path d="M201.2147 170.6115 L201.2147 135.4195 "/>
<path d="M206.2422 130.3920 L221.3245 130.3920 "/>
<path d="M221.3245 130.3920 L221.3245 170.6115 "/>
<path d="M221.3245 170.6115 L201.2147 170.6115 "/>
<path d="M99.3003 102.0682 L104.3278 97.0407 "/>
<path d="M99.3003 167.4248 L99.3003 102.0682 "/>
<path d="M104.3278 97.0407 L119.4101 97.0407 "/>
<path d="M119.4101 97.0407 L119.4101 167.4248 "/>
<path d="M119.4101 167.4248 L99.3003 167.4248 "/>
</g>
<g style="fill:#848484; fill-opacity:0.0;  stroke:#848484; stroke-width:1.5082; stroke-opacity:1;  stroke-linecap:round; stroke-linejoin:round;">
<circle cx="208.7757" cy="190.6025" r="11.8748"/> 
</g>
<g style="fill:#848484; fill-opacity:0.0;  stroke:#848484; stroke-width:0.3959; stroke-opacity:1;  stroke-linecap:round; stroke-linejoin:round;">
<path d="M137.0061 87.5995 L131.9787 92.6269 "/>
<path d="M137.0061 82.5720 L137.0061 87.5995 "/>
<path d="M131.9787 92.6269 L116.8964 92.6269 "/>
<path d="M116.8964 92.6269 L116.8964 82.5720 "/>
<path d="M116.8964 82.5720 L137.0061 82.5720 "/>
<g>
</g>
<g>
</g>
<g>
</g>
<g>
</g>
<g>
</g>
<g>
</g>
<g>
</g>
<g>
</g>
<g>
</g>
<g>
</g>
<g>
</g>
<g>
</g>
<g>
</g>
<g>
</g>
<g>
</g>
<g>
</g>
<g>
</g>
<g>
</g>
<g>
</g>
<g>
</g>
<g>
</g>
<g>
</g>
<g>
</g>
<g>
</g>
<g>
</g>
<g>
</g>
<g>
</g>
<g>
</g>
<g>
</g>
<g>
</g>
<g>
</g>
<g>
</g>
<g>
</g>
<g>
</g>
<g>
</g>
<g>
</g>
<g>
</g>
<g>
</g>
<g>
</g>
<g>
</g>
<g>
</g>
<g>
</g>
<g>
</g>
<g>
</g>
<g>
</g>
<g>
</g>
<g>
</g>
<g>
</g>
<g>
</g>
<g>
</g>
<g>
</g>
<g>
</g>
<g>
</g>
<g>
</g>
<g>
</g>
<g>
</g>
</g> 
<svg:g><svg:g><svg:title>SVG Image created as USBPDSINK01-Edge_Cuts.svg date 2023/09/11 00:56:44 </svg:title>
  <svg:desc>Image generated by PCBNEW </svg:desc>
<svg:g style="fill:#C2C200; fill-opacity:1.0000;stroke:#C2C200; stroke-opacity:1.0000; stroke-linecap:round; stroke-linejoin:round;" transform="translate(0 0) scale(1 1)">
</svg:g>
<svg:g style="fill:#C2C200; fill-opacity:0.0;  stroke:#C2C200; stroke-width:0.0000; stroke-opacity:1;  stroke-linecap:round; stroke-linejoin:round;">
</svg:g>
<svg:g style="fill:#C2C200; fill-opacity:0.0;  stroke:#C2C200; stroke-width:0.2212; stroke-opacity:1;  stroke-linecap:round; stroke-linejoin:round;">
<svg:path d="M68.9916 60.6809 L58.4855 60.6809 "/>
<svg:path d="M148.4465 10.6204 L148.4465 0.1142 "/>
</svg:g>
<svg:g style="fill:#C2C200; fill-opacity:0.0;  stroke:#C2C200; stroke-width:0.5938; stroke-opacity:1;  stroke-linecap:round; stroke-linejoin:round;">
<svg:path style="fill:#C2C200; fill-opacity:0.0;  stroke:#C2C200; stroke-width:0.5938; stroke-opacity:1;  stroke-linecap:round; stroke-linejoin:round;fill:none" d="M 69.0130,10.6204 227.8799,10.6204 227.8799,209.7067 69.0130,209.7067 Z"/> 
</svg:g>
<svg:g style="fill:#C2C200; fill-opacity:0.0;  stroke:#C2C200; stroke-width:0.2212; stroke-opacity:1;  stroke-linecap:round; stroke-linejoin:round;">
<svg:path d="M228.0106 169.5427 L238.5167 169.5427 "/>
<svg:path d="M58.4610 169.5427 L68.9671 169.5427 "/>
<svg:path d="M238.5412 60.6809 L228.0351 60.6809 "/>
</svg:g>
<svg:g style="fill:#C2C200; fill-opacity:0.0;  stroke:#C2C200; stroke-width:0.1979; stroke-opacity:1;  stroke-linecap:round; stroke-linejoin:round;">
<svg:path d="M84.8118 119.2683 L84.8118 124.7624 "/>
<svg:path d="M85.9994 118.0807 L92.3332 118.0807 "/>
<svg:path d="M85.9994 125.9499 L92.3332 125.9499 "/>
<svg:path d="M93.5208 119.2683 L93.5208 124.7624 "/>
<svg:path d="M85.9994 118.0807 A1.1876 1.1876 0.0 0 0 84.8118 119.2683"/>
<svg:path d="M84.8118 124.7624 A1.1876 1.1876 0.0 0 0 85.9994 125.9499"/>
<svg:path d="M93.5208 119.2683 A1.1876 1.1876 0.0 0 0 92.3332 118.0807"/>
<svg:path d="M92.3332 125.9499 A1.1876 1.1876 0.0 0 0 93.5208 124.7624"/>
<svg:path d="M84.7722 139.5892 L84.7722 145.0832 "/>
<svg:path d="M85.9598 138.4016 L92.2936 138.4016 "/>
<svg:path d="M85.9598 146.2708 L92.2936 146.2708 "/>
<svg:path d="M93.4812 139.5892 L93.4812 145.0832 "/>
<svg:path d="M85.9598 138.4016 A1.1876 1.1876 0.0 0 0 84.7722 139.5892"/>
<svg:path d="M84.7723 145.0832 A1.1876 1.1876 0.0 0 0 85.9598 146.2708"/>
<svg:path d="M93.4812 139.5892 A1.1876 1.1876 0.0 0 0 92.2936 138.4016"/>
<svg:path d="M92.2936 146.2708 A1.1876 1.1876 0.0 0 0 93.4812 145.0832"/>
<svg:path d="M84.8118 129.4288 L84.8118 134.9228 "/>
<svg:path d="M85.9994 128.2412 L92.3332 128.2412 "/>
<svg:path d="M85.9994 136.1104 L92.3332 136.1104 "/>
<svg:path d="M93.5208 129.4288 L93.5208 134.9228 "/>
<svg:path d="M85.9994 128.2412 A1.1876 1.1876 0.0 0 0 84.8118 129.4288"/>
<svg:path d="M84.8118 134.9228 A1.1876 1.1876 0.0 0 0 85.9994 136.1104"/>
<svg:path d="M93.5208 129.4288 A1.1876 1.1876 0.0 0 0 92.3332 128.2412"/>
<svg:path d="M92.3332 136.1104 A1.1876 1.1876 0.0 0 0 93.5208 134.9228"/>
<svg:path d="M84.6733 99.3367 L84.6733 104.8308 "/>
<svg:path d="M85.8609 98.1492 L92.1946 98.1492 "/>
<svg:path d="M85.8609 106.0183 L92.1946 106.0183 "/>
<svg:path d="M93.3822 99.3367 L93.3822 104.8308 "/>
<svg:path d="M85.8609 98.1492 A1.1876 1.1876 0.0 0 0 84.6733 99.3367"/>
<svg:path d="M84.6733 104.8308 A1.1876 1.1876 0.0 0 0 85.8609 106.0183"/>
<svg:path d="M93.3822 99.3367 A1.1876 1.1876 0.0 0 0 92.1946 98.1492"/>
<svg:path d="M92.1946 106.0183 A1.1876 1.1876 0.0 0 0 93.3822 104.8308"/>
<svg:path d="M84.7129 149.7496 L84.7129 155.2436 "/>
<svg:path d="M85.9005 148.5620 L92.2342 148.5620 "/>
<svg:path d="M85.9005 156.4312 L92.2342 156.4312 "/>
<svg:path d="M93.4218 149.7496 L93.4218 155.2436 "/>
<svg:path d="M85.9005 148.5620 A1.1876 1.1876 0.0 0 0 84.7129 149.7496"/>
<svg:path d="M84.7129 155.2436 A1.1876 1.1876 0.0 0 0 85.9005 156.4312"/>
<svg:path d="M93.4218 149.7496 A1.1876 1.1876 0.0 0 0 92.2342 148.5620"/>
<svg:path d="M92.2342 156.4312 A1.1876 1.1876 0.0 0 0 93.4218 155.2436"/>
<svg:g>
</svg:g>
<svg:g>
</svg:g>
<svg:g>
</svg:g>
<svg:g>
</svg:g>
<svg:g>
</svg:g>
<svg:g>
</svg:g>
<svg:g>
</svg:g>
<svg:g>
</svg:g>
<svg:g>
</svg:g>
<svg:g>
</svg:g>
<svg:g>
</svg:g>
<svg:g>
</svg:g>
<svg:g>
</svg:g>
<svg:g>
</svg:g>
<svg:g>
</svg:g>
<svg:g>
</svg:g>
<svg:g>
</svg:g>
<svg:g>
</svg:g>
<svg:g>
</svg:g>
<svg:g>
</svg:g>
<svg:g>
</svg:g>
<svg:g>
</svg:g>
<svg:g>
</svg:g>
<svg:g>
</svg:g>
<svg:g>
</svg:g>
<svg:g>
</svg:g>
<svg:g>
</svg:g>
<svg:g>
</svg:g>
<svg:g>
</svg:g>
<svg:g>
</svg:g>
<svg:g>
</svg:g>
<svg:g>
</svg:g>
<svg:g>
</svg:g>
<svg:g>
</svg:g>
<svg:g>
</svg:g>
<svg:g>
</svg:g>
<svg:g>
</svg:g>
<svg:g>
</svg:g>
<svg:g>
</svg:g>
<svg:g>
</svg:g>
<svg:g>
</svg:g>
<svg:g>
</svg:g>
<svg:g>
</svg:g>
<svg:g>
</svg:g>
<svg:g>
</svg:g>
<svg:g>
</svg:g>
<svg:g>
</svg:g>
<svg:g>
</svg:g>
<svg:g>
</svg:g>
<svg:g>
</svg:g>
<svg:g>
</svg:g>
<svg:g>
</svg:g>
<svg:g>
</svg:g>
<svg:g>
</svg:g>
<svg:g>
</svg:g>
<svg:g>
</svg:g>
</svg:g> 
</svg:g></svg:g></svg>
