<?xml version='1.0' encoding='ASCII' standalone='yes'?>
<svg xmlns:svg="http://www.w3.org/2000/svg" xmlns="http://www.w3.org/2000/svg" xmlns:xlink="http://www.w3.org/1999/xlink" version="1.1" width="297.0022mm" height="210.0072mm" viewBox="0.0000 0.0000 297.0022 210.0072">
<title>SVG Image created as USBPDSINK01-F_Fab.svg date 2023/08/23 14:37:22 </title>
  <desc>Image generated by PCBNEW </desc>
<g style="fill:#848484; fill-opacity:1.0000;stroke:#848484; stroke-opacity:1.0000; stroke-linecap:round; stroke-linejoin:round;" transform="translate(0 0) scale(1 1)">
</g>
<g style="fill:#848484; fill-opacity:0.0;  stroke:#848484; stroke-width:0.0000; stroke-opacity:1;  stroke-linecap:round; stroke-linejoin:round;">
</g>
<g style="fill:#848484; fill-opacity:0.01;  stroke:#848484; stroke-width:0.6245; stroke-opacity:1;  stroke-linecap:round; stroke-linejoin:round;">
<text x="163.6551" y="21.3650" textLength="8.1777" font-size="5.5509" lengthAdjust="spacingAndGlyphs" text-anchor="middle" opacity="0.01" style="font-family:monospace">J2</text>
<g class="stroked-text"><desc>J2</desc>
<path d="M162.2674 17.0137 L162.2674 19.9874 "/>
<path d="M162.2674 19.9874 L162.0692 20.5821 "/>
<path d="M162.0692 20.5821 L161.6727 20.9786 "/>
<path d="M161.6727 20.9786 L161.0779 21.1769 "/>
<path d="M161.0779 21.1769 L160.6814 21.1769 "/>
<path d="M164.0516 17.4102 L164.2499 17.2119 "/>
<path d="M164.2499 17.2119 L164.6464 17.0137 "/>
<path d="M164.6464 17.0137 L165.6376 17.0137 "/>
<path d="M165.6376 17.0137 L166.0341 17.2119 "/>
<path d="M166.0341 17.2119 L166.2324 17.4102 "/>
<path d="M166.2324 17.4102 L166.4306 17.8067 "/>
<path d="M166.4306 17.8067 L166.4306 18.2032 "/>
<path d="M166.4306 18.2032 L166.2324 18.7979 "/>
<path d="M166.2324 18.7979 L163.8534 21.1769 "/>
<path d="M163.8534 21.1769 L166.4306 21.1769 "/>
</g><g transform="rotate(-90.000000 107.2438 55.2950)">
<text x="107.2438" y="57.3766" textLength="12.3409" font-size="5.5509" lengthAdjust="spacingAndGlyphs" text-anchor="middle" opacity="0.01" style="font-family:monospace">JP3</text>
</g>
<g class="stroked-text"><desc>JP3</desc>
<path d="M104.9741 58.7644 L107.9478 58.7644 "/>
<path d="M107.9478 58.7644 L108.5426 58.9626 "/>
<path d="M108.5426 58.9626 L108.9391 59.3591 "/>
<path d="M108.9391 59.3591 L109.1373 59.9538 "/>
<path d="M109.1373 59.9538 L109.1373 60.3503 "/>
<path d="M109.1373 56.7819 L104.9741 56.7819 "/>
<path d="M104.9741 56.7819 L104.9741 55.1959 "/>
<path d="M104.9741 55.1959 L105.1724 54.7994 "/>
<path d="M105.1724 54.7994 L105.3706 54.6012 "/>
<path d="M105.3706 54.6012 L105.7671 54.4029 "/>
<path d="M105.7671 54.4029 L106.3619 54.4029 "/>
<path d="M106.3619 54.4029 L106.7583 54.6012 "/>
<path d="M106.7583 54.6012 L106.9566 54.7994 "/>
<path d="M106.9566 54.7994 L107.1548 55.1959 "/>
<path d="M107.1548 55.1959 L107.1548 56.7819 "/>
<path d="M104.9741 53.0152 L104.9741 50.4380 "/>
<path d="M104.9741 50.4380 L106.5601 51.8257 "/>
<path d="M106.5601 51.8257 L106.5601 51.2310 "/>
<path d="M106.5601 51.2310 L106.7583 50.8345 "/>
<path d="M106.7583 50.8345 L106.9566 50.6362 "/>
<path d="M106.9566 50.6362 L107.3531 50.4380 "/>
<path d="M107.3531 50.4380 L108.3443 50.4380 "/>
<path d="M108.3443 50.4380 L108.7408 50.6362 "/>
<path d="M108.7408 50.6362 L108.9391 50.8345 "/>
<path d="M108.9391 50.8345 L109.1373 51.2310 "/>
<path d="M109.1373 51.2310 L109.1373 52.4204 "/>
<path d="M109.1373 52.4204 L108.9391 52.8169 "/>
<path d="M108.9391 52.8169 L108.7408 53.0152 "/>
</g><g transform="rotate(-90.000000 84.4087 59.0627)">
<text x="84.4087" y="61.1443" textLength="8.1777" font-size="5.5509" lengthAdjust="spacingAndGlyphs" text-anchor="middle" opacity="0.01" style="font-family:monospace">J4</text>
</g>
<g class="stroked-text"><desc>J4</desc>
<path d="M82.1390 60.4505 L85.1127 60.4505 "/>
<path d="M85.1127 60.4505 L85.7074 60.6487 "/>
<path d="M85.7074 60.6487 L86.1039 61.0452 "/>
<path d="M86.1039 61.0452 L86.3022 61.6399 "/>
<path d="M86.3022 61.6399 L86.3022 62.0364 "/>
<path d="M83.5267 56.6837 L86.3022 56.6837 "/>
<path d="M81.9407 57.6750 L84.9144 58.6662 "/>
<path d="M84.9144 58.6662 L84.9144 56.0890 "/>
</g><g transform="rotate(-90.000000 155.3912 162.9137)">
<text x="155.3912" y="164.9953" textLength="8.1777" font-size="5.5509" lengthAdjust="spacingAndGlyphs" text-anchor="middle" opacity="0.01" style="font-family:monospace">J5</text>
</g>
<g class="stroked-text"><desc>J5</desc>
<path d="M153.1215 164.3014 L156.0952 164.3014 "/>
<path d="M156.0952 164.3014 L156.6899 164.4997 "/>
<path d="M156.6899 164.4997 L157.0864 164.8962 "/>
<path d="M157.0864 164.8962 L157.2847 165.4909 "/>
<path d="M157.2847 165.4909 L157.2847 165.8874 "/>
<path d="M153.1215 160.3365 L153.1215 162.3189 "/>
<path d="M153.1215 162.3189 L155.1040 162.5172 "/>
<path d="M155.1040 162.5172 L154.9057 162.3189 "/>
<path d="M154.9057 162.3189 L154.7075 161.9224 "/>
<path d="M154.7075 161.9224 L154.7075 160.9312 "/>
<path d="M154.7075 160.9312 L154.9057 160.5347 "/>
<path d="M154.9057 160.5347 L155.1040 160.3365 "/>
<path d="M155.1040 160.3365 L155.5005 160.1382 "/>
<path d="M155.5005 160.1382 L156.4917 160.1382 "/>
<path d="M156.4917 160.1382 L156.8882 160.3365 "/>
<path d="M156.8882 160.3365 L157.0864 160.5347 "/>
<path d="M157.0864 160.5347 L157.2847 160.9312 "/>
<path d="M157.2847 160.9312 L157.2847 161.9224 "/>
<path d="M157.2847 161.9224 L157.0864 162.3189 "/>
<path d="M157.0864 162.3189 L156.8882 162.5172 "/>
</g><g transform="rotate(-90.000000 214.5710 147.4266)">
<text x="214.5710" y="149.5082" textLength="8.1777" font-size="5.5509" lengthAdjust="spacingAndGlyphs" text-anchor="middle" opacity="0.01" style="font-family:monospace">J3</text>
</g>
<g class="stroked-text"><desc>J3</desc>
<path d="M212.3013 148.8143 L215.2751 148.8143 "/>
<path d="M215.2751 148.8143 L215.8698 149.0126 "/>
<path d="M215.8698 149.0126 L216.2663 149.4091 "/>
<path d="M216.2663 149.4091 L216.4645 150.0038 "/>
<path d="M216.4645 150.0038 L216.4645 150.4003 "/>
<path d="M212.3013 147.2283 L212.3013 144.6511 "/>
<path d="M212.3013 144.6511 L213.8873 146.0388 "/>
<path d="M213.8873 146.0388 L213.8873 145.4441 "/>
<path d="M213.8873 145.4441 L214.0856 145.0476 "/>
<path d="M214.0856 145.0476 L214.2838 144.8494 "/>
<path d="M214.2838 144.8494 L214.6803 144.6511 "/>
<path d="M214.6803 144.6511 L215.6716 144.6511 "/>
<path d="M215.6716 144.6511 L216.0680 144.8494 "/>
<path d="M216.0680 144.8494 L216.2663 145.0476 "/>
<path d="M216.2663 145.0476 L216.4645 145.4441 "/>
<path d="M216.4645 145.4441 L216.4645 146.6336 "/>
<path d="M216.4645 146.6336 L216.2663 147.0301 "/>
<path d="M216.2663 147.0301 L216.0680 147.2283 "/>
</g><g transform="rotate(-90.000000 107.3895 128.2134)">
<text x="107.3895" y="130.2950" textLength="8.1777" font-size="5.5509" lengthAdjust="spacingAndGlyphs" text-anchor="middle" opacity="0.01" style="font-family:monospace">J6</text>
</g>
<g class="stroked-text"><desc>J6</desc>
<path d="M105.1198 129.6012 L108.0935 129.6012 "/>
<path d="M108.0935 129.6012 L108.6883 129.7994 "/>
<path d="M108.6883 129.7994 L109.0848 130.1959 "/>
<path d="M109.0848 130.1959 L109.2830 130.7906 "/>
<path d="M109.2830 130.7906 L109.2830 131.1871 "/>
<path d="M105.1198 125.8345 L105.1198 126.6274 "/>
<path d="M105.1198 126.6274 L105.3181 127.0239 "/>
<path d="M105.3181 127.0239 L105.5163 127.2222 "/>
<path d="M105.5163 127.2222 L106.1111 127.6187 "/>
<path d="M106.1111 127.6187 L106.9041 127.8169 "/>
<path d="M106.9041 127.8169 L108.4900 127.8169 "/>
<path d="M108.4900 127.8169 L108.8865 127.6187 "/>
<path d="M108.8865 127.6187 L109.0848 127.4204 "/>
<path d="M109.0848 127.4204 L109.2830 127.0239 "/>
<path d="M109.2830 127.0239 L109.2830 126.2310 "/>
<path d="M109.2830 126.2310 L109.0848 125.8345 "/>
<path d="M109.0848 125.8345 L108.8865 125.6362 "/>
<path d="M108.8865 125.6362 L108.4900 125.4380 "/>
<path d="M108.4900 125.4380 L107.4988 125.4380 "/>
<path d="M107.4988 125.4380 L107.1023 125.6362 "/>
<path d="M107.1023 125.6362 L106.9041 125.8345 "/>
<path d="M106.9041 125.8345 L106.7058 126.2310 "/>
<path d="M106.7058 126.2310 L106.7058 127.0239 "/>
<path d="M106.7058 127.0239 L106.9041 127.4204 "/>
<path d="M106.9041 127.4204 L107.1023 127.6187 "/>
<path d="M107.1023 127.6187 L107.4988 127.8169 "/>
</g><g transform="rotate(-90.000000 206.0781 107.8346)">
<text x="206.0781" y="109.9162" textLength="12.3409" font-size="5.5509" lengthAdjust="spacingAndGlyphs" text-anchor="middle" opacity="0.01" style="font-family:monospace">JP4</text>
</g>
<g class="stroked-text"><desc>JP4</desc>
<path d="M203.8084 111.3039 L206.7821 111.3039 "/>
<path d="M206.7821 111.3039 L207.3769 111.5022 "/>
<path d="M207.3769 111.5022 L207.7734 111.8986 "/>
<path d="M207.7734 111.8986 L207.9716 112.4934 "/>
<path d="M207.9716 112.4934 L207.9716 112.8899 "/>
<path d="M207.9716 109.3214 L203.8084 109.3214 "/>
<path d="M203.8084 109.3214 L203.8084 107.7355 "/>
<path d="M203.8084 107.7355 L204.0067 107.3390 "/>
<path d="M204.0067 107.3390 L204.2049 107.1407 "/>
<path d="M204.2049 107.1407 L204.6014 106.9425 "/>
<path d="M204.6014 106.9425 L205.1962 106.9425 "/>
<path d="M205.1962 106.9425 L205.5927 107.1407 "/>
<path d="M205.5927 107.1407 L205.7909 107.3390 "/>
<path d="M205.7909 107.3390 L205.9891 107.7355 "/>
<path d="M205.9891 107.7355 L205.9891 109.3214 "/>
<path d="M205.1962 103.3740 L207.9716 103.3740 "/>
<path d="M203.6102 104.3652 L206.5839 105.3565 "/>
<path d="M206.5839 105.3565 L206.5839 102.7793 "/>
</g><g transform="rotate(-90.000000 150.4578 84.1772)">
<text x="150.4578" y="86.2588" textLength="12.3409" font-size="5.5509" lengthAdjust="spacingAndGlyphs" text-anchor="middle" opacity="0.01" style="font-family:monospace">JP1</text>
</g>
<g class="stroked-text"><desc>JP1</desc>
<path d="M148.1881 87.6465 L151.1618 87.6465 "/>
<path d="M151.1618 87.6465 L151.7566 87.8448 "/>
<path d="M151.7566 87.8448 L152.1531 88.2413 "/>
<path d="M152.1531 88.2413 L152.3513 88.8360 "/>
<path d="M152.3513 88.8360 L152.3513 89.2325 "/>
<path d="M152.3513 85.6641 L148.1881 85.6641 "/>
<path d="M148.1881 85.6641 L148.1881 84.0781 "/>
<path d="M148.1881 84.0781 L148.3864 83.6816 "/>
<path d="M148.3864 83.6816 L148.5846 83.4833 "/>
<path d="M148.5846 83.4833 L148.9811 83.2851 "/>
<path d="M148.9811 83.2851 L149.5758 83.2851 "/>
<path d="M149.5758 83.2851 L149.9723 83.4833 "/>
<path d="M149.9723 83.4833 L150.1706 83.6816 "/>
<path d="M150.1706 83.6816 L150.3688 84.0781 "/>
<path d="M150.3688 84.0781 L150.3688 85.6641 "/>
<path d="M152.3513 79.3201 L152.3513 81.6991 "/>
<path d="M152.3513 80.5096 L148.1881 80.5096 "/>
<path d="M148.1881 80.5096 L148.7829 80.9061 "/>
<path d="M148.7829 80.9061 L149.1793 81.3026 "/>
<path d="M149.1793 81.3026 L149.3776 81.6991 "/>
</g><g transform="rotate(-180.000000 90.9532 114.3467)">
<text x="90.9532" y="116.4282" transform="scale(-1 1) translate(-181.906448 0)" textLength="5.2040" font-size="5.5509" lengthAdjust="spacingAndGlyphs" text-anchor="middle" opacity="0.01" style="font-family:monospace">K</text>
</g>
<g class="stroked-text"><desc>K</desc>
<path d="M89.8629 112.4531 L89.8629 116.6163 "/>
<path d="M92.2418 112.4531 L90.4576 114.8321 "/>
<path d="M92.2418 116.6163 L89.8629 114.2374 "/>
</g><g transform="rotate(-180.000000 90.9116 139.5756)">
<text x="90.9116" y="141.6572" transform="scale(-1 1) translate(-181.823184 0)" textLength="5.2040" font-size="5.5509" lengthAdjust="spacingAndGlyphs" text-anchor="middle" opacity="0.01" style="font-family:monospace">K</text>
</g>
<g class="stroked-text"><desc>K</desc>
<path d="M89.8212 137.6821 L89.8212 141.8453 "/>
<path d="M92.2002 137.6821 L90.4160 140.0611 "/>
<path d="M92.2002 141.8453 L89.8212 139.4664 "/>
</g><g transform="rotate(-180.000000 90.9532 126.9611)">
<text x="90.9532" y="129.0427" transform="scale(-1 1) translate(-181.906448 0)" textLength="5.2040" font-size="5.5509" lengthAdjust="spacingAndGlyphs" text-anchor="middle" opacity="0.01" style="font-family:monospace">K</text>
</g>
<g class="stroked-text"><desc>K</desc>
<path d="M89.8629 125.0676 L89.8629 129.2308 "/>
<path d="M92.2418 125.0676 L90.4576 127.4466 "/>
<path d="M92.2418 129.2308 L89.8629 126.8519 "/>
</g><g transform="rotate(-180.000000 90.8075 96.3200)">
<text x="90.8075" y="98.4016" transform="scale(-1 1) translate(-181.615024 0)" textLength="5.2040" font-size="5.5509" lengthAdjust="spacingAndGlyphs" text-anchor="middle" opacity="0.01" style="font-family:monospace">K</text>
</g>
<g class="stroked-text"><desc>K</desc>
<path d="M89.7171 94.4265 L89.7171 98.5897 "/>
<path d="M92.0961 94.4265 L90.3119 96.8055 "/>
<path d="M92.0961 98.5897 L89.7171 96.2107 "/>
</g><g transform="rotate(-180.000000 90.8491 152.1901)">
<text x="90.8491" y="154.2717" transform="scale(-1 1) translate(-181.698288 0)" textLength="5.2040" font-size="5.5509" lengthAdjust="spacingAndGlyphs" text-anchor="middle" opacity="0.01" style="font-family:monospace">K</text>
</g>
<g class="stroked-text"><desc>K</desc>
<path d="M89.7588 150.2966 L89.7588 154.4598 "/>
<path d="M92.1377 150.2966 L90.3535 152.6756 "/>
<path d="M92.1377 154.4598 L89.7588 152.0808 "/>
</g></g>
<g style="fill:#848484; fill-opacity:0.01;  stroke:#848484; stroke-width:0.3331; stroke-opacity:1;  stroke-linecap:round; stroke-linejoin:round;">
<text x="144.6397" y="73.4882" textLength="4.6469" font-size="2.7755" lengthAdjust="spacingAndGlyphs" text-anchor="middle" opacity="0.01" style="font-family:monospace">R2</text>
<g class="stroked-text"><desc>R2</desc>
<path d="M144.2928 73.3931 L143.5989 72.4018 "/>
<path d="M143.1033 73.3931 L143.1033 71.3115 "/>
<path d="M143.1033 71.3115 L143.8963 71.3115 "/>
<path d="M143.8963 71.3115 L144.0946 71.4106 "/>
<path d="M144.0946 71.4106 L144.1937 71.5097 "/>
<path d="M144.1937 71.5097 L144.2928 71.7080 "/>
<path d="M144.2928 71.7080 L144.2928 72.0053 "/>
<path d="M144.2928 72.0053 L144.1937 72.2036 "/>
<path d="M144.1937 72.2036 L144.0946 72.3027 "/>
<path d="M144.0946 72.3027 L143.8963 72.4018 "/>
<path d="M143.8963 72.4018 L143.1033 72.4018 "/>
<path d="M145.0858 71.5097 L145.1849 71.4106 "/>
<path d="M145.1849 71.4106 L145.3832 71.3115 "/>
<path d="M145.3832 71.3115 L145.8788 71.3115 "/>
<path d="M145.8788 71.3115 L146.0770 71.4106 "/>
<path d="M146.0770 71.4106 L146.1762 71.5097 "/>
<path d="M146.1762 71.5097 L146.2753 71.7080 "/>
<path d="M146.2753 71.7080 L146.2753 71.9062 "/>
<path d="M146.2753 71.9062 L146.1762 72.2036 "/>
<path d="M146.1762 72.2036 L144.9867 73.3931 "/>
<path d="M144.9867 73.3931 L146.2753 73.3931 "/>
</g></g>
<g style="fill:#848484; fill-opacity:0.0;  stroke:#848484; stroke-width:1.5862; stroke-opacity:1;  stroke-linecap:round; stroke-linejoin:round;">
<circle cx="85.0540" cy="189.5998" r="12.4885"/> 
</g>
<g style="fill:#848484; fill-opacity:0.0;  stroke:#848484; stroke-width:0.4163; stroke-opacity:1;  stroke-linecap:round; stroke-linejoin:round;">
<path d="M142.5061 29.8579 L137.2188 24.5706 "/>
<path d="M190.0914 29.8579 L142.5061 29.8579 "/>
<path d="M137.2188 24.5706 L137.2188 8.7088 "/>
<path d="M137.2188 8.7088 L190.0914 8.7088 "/>
<path d="M190.0914 8.7088 L190.0914 29.8579 "/>
<path d="M112.5311 68.5132 L109.8874 71.1568 "/>
<path d="M112.5311 39.4332 L112.5311 68.5132 "/>
<path d="M109.8874 71.1568 L101.9566 71.1568 "/>
<path d="M101.9566 71.1568 L101.9566 39.4332 "/>
<path d="M101.9566 39.4332 L112.5311 39.4332 "/>
<path d="M94.9832 69.6372 L89.6959 74.9245 "/>
<path d="M94.9832 43.2009 L94.9832 69.6372 "/>
<path d="M89.6959 74.9245 L73.8342 74.9245 "/>
<path d="M73.8342 74.9245 L73.8342 43.2009 "/>
<path d="M73.8342 43.2009 L94.9832 43.2009 "/>
<path d="M144.8167 162.9137 L150.1039 157.6264 "/>
<path d="M144.8167 168.2009 L144.8167 162.9137 "/>
<path d="M150.1039 157.6264 L165.9657 157.6264 "/>
<path d="M165.9657 157.6264 L165.9657 168.2009 "/>
<path d="M165.9657 168.2009 L144.8167 168.2009 "/>
</g>
<g style="fill:#848484; fill-opacity:0.0;  stroke:#848484; stroke-width:1.5862; stroke-opacity:1;  stroke-linecap:round; stroke-linejoin:round;">
<circle cx="211.9482" cy="20.4074" r="12.4885"/> 
<circle cx="85.0540" cy="20.4074" r="12.4885"/> 
</g>
<g style="fill:#848484; fill-opacity:0.0;  stroke:#848484; stroke-width:0.4163; stroke-opacity:1;  stroke-linecap:round; stroke-linejoin:round;">
<path d="M203.9965 131.5648 L209.2838 126.2775 "/>
<path d="M203.9965 168.5756 L203.9965 131.5648 "/>
<path d="M209.2838 126.2775 L225.1456 126.2775 "/>
<path d="M225.1456 126.2775 L225.1456 168.5756 "/>
<path d="M225.1456 168.5756 L203.9965 168.5756 "/>
<path d="M96.8150 96.4899 L102.1023 91.2026 "/>
<path d="M96.8150 165.2243 L96.8150 96.4899 "/>
<path d="M102.1023 91.2026 L117.9640 91.2026 "/>
<path d="M117.9640 91.2026 L117.9640 165.2243 "/>
<path d="M117.9640 165.2243 L96.8150 165.2243 "/>
<path d="M195.5036 107.8346 L200.7909 102.5473 "/>
<path d="M195.5036 113.1218 L195.5036 107.8346 "/>
<path d="M200.7909 102.5473 L216.6526 102.5473 "/>
<path d="M216.6526 102.5473 L216.6526 113.1218 "/>
<path d="M216.6526 113.1218 L195.5036 113.1218 "/>
</g>
<g style="fill:#848484; fill-opacity:0.0;  stroke:#848484; stroke-width:1.5862; stroke-opacity:1;  stroke-linecap:round; stroke-linejoin:round;">
<circle cx="211.9482" cy="189.5998" r="12.4885"/> 
</g>
<g style="fill:#848484; fill-opacity:0.0;  stroke:#848484; stroke-width:0.4163; stroke-opacity:1;  stroke-linecap:round; stroke-linejoin:round;">
<path d="M139.8833 84.1772 L145.1705 78.8899 "/>
<path d="M139.8833 89.4645 L139.8833 84.1772 "/>
<path d="M145.1705 78.8899 L161.0323 78.8899 "/>
<path d="M161.0323 78.8899 L161.0323 89.4645 "/>
<path d="M161.0323 89.4645 L139.8833 89.4645 "/>
<g>
</g>
<g>
</g>
<g>
</g>
<g>
</g>
<g>
</g>
<g>
</g>
<g>
</g>
<g>
</g>
<g>
</g>
<g>
</g>
<g>
</g>
<g>
</g>
<g>
</g>
<g>
</g>
<g>
</g>
<g>
</g>
<g>
</g>
<g>
</g>
<g>
</g>
<g>
</g>
<g>
</g>
<g>
</g>
<g>
</g>
<g>
</g>
<g>
</g>
<g>
</g>
<g>
</g>
<g>
</g>
<g>
</g>
<g>
</g>
<g>
</g>
<g>
</g>
<g>
</g>
<g>
</g>
<g>
</g>
<g>
</g>
<g>
</g>
<g>
</g>
<g>
</g>
<g>
</g>
<g>
</g>
<g>
</g>
<g>
</g>
<g>
</g>
<g>
</g>
<g>
</g>
<g>
</g>
<g>
</g>
<g>
</g>
<g>
</g>
<g>
</g>
<g>
</g>
<g>
</g>
<g>
</g>
</g> 
<svg:g><svg:g><svg:title>SVG Image created as USBPDSINK01-Edge_Cuts.svg date 2023/08/23 14:37:22 </svg:title>
  <svg:desc>Image generated by PCBNEW </svg:desc>
<svg:g style="fill:#C2C200; fill-opacity:1.0000;stroke:#C2C200; stroke-opacity:1.0000; stroke-linecap:round; stroke-linejoin:round;" transform="translate(0 0) scale(1 1)">
</svg:g>
<svg:g style="fill:#C2C200; fill-opacity:0.0;  stroke:#C2C200; stroke-width:0.0000; stroke-opacity:1;  stroke-linecap:round; stroke-linejoin:round;">
</svg:g>
<svg:g style="fill:#C2C200; fill-opacity:0.0;  stroke:#C2C200; stroke-width:0.6245; stroke-opacity:1;  stroke-linecap:round; stroke-linejoin:round;">
<svg:path style="fill:#C2C200; fill-opacity:0.0;  stroke:#C2C200; stroke-width:0.6245; stroke-opacity:1;  stroke-linecap:round; stroke-linejoin:round;fill:none" d="M 64.9624,0.3158 232.0398,0.3158 232.0398,209.6914 64.9624,209.6914 Z"/> 
</svg:g>
<svg:g style="fill:#C2C200; fill-opacity:0.0;  stroke:#C2C200; stroke-width:0.2082; stroke-opacity:1;  stroke-linecap:round; stroke-linejoin:round;">
<svg:path d="M77.9141 111.6439 L77.9141 117.4724 "/>
<svg:path d="M79.9957 109.5623 L84.9915 109.5623 "/>
<svg:path d="M79.9957 119.5540 L84.9915 119.5540 "/>
<svg:path d="M87.0731 111.6439 L87.0731 117.4724 "/>
<svg:path d="M79.9957 109.5623 A2.0816 2.0816 0.0 0 0 77.9141 111.6439"/>
<svg:path d="M77.9141 117.4724 A2.0816 2.0816 0.0 0 0 79.9957 119.5540"/>
<svg:path d="M87.0731 111.6439 A2.0816 2.0816 0.0 0 0 84.9915 109.5623"/>
<svg:path d="M84.9915 119.5540 A2.0816 2.0816 0.0 0 0 87.0731 117.4724"/>
<svg:path d="M77.8725 136.8729 L77.8725 142.7014 "/>
<svg:path d="M79.9541 134.7913 L84.9499 134.7913 "/>
<svg:path d="M79.9541 144.7830 L84.9499 144.7830 "/>
<svg:path d="M87.0315 136.8729 L87.0315 142.7014 "/>
<svg:path d="M79.9541 134.7913 A2.0816 2.0816 0.0 0 0 77.8725 136.8729"/>
<svg:path d="M77.8725 142.7014 A2.0816 2.0816 0.0 0 0 79.9541 144.7830"/>
<svg:path d="M87.0315 136.8729 A2.0816 2.0816 0.0 0 0 84.9499 134.7913"/>
<svg:path d="M84.9499 144.7830 A2.0816 2.0816 0.0 0 0 87.0315 142.7014"/>
<svg:path d="M77.9141 124.2584 L77.9141 130.0869 "/>
<svg:path d="M79.9957 122.1768 L84.9915 122.1768 "/>
<svg:path d="M79.9957 132.1685 L84.9915 132.1685 "/>
<svg:path d="M87.0731 124.2584 L87.0731 130.0869 "/>
<svg:path d="M79.9957 122.1768 A2.0816 2.0816 0.0 0 0 77.9141 124.2584"/>
<svg:path d="M77.9141 130.0869 A2.0816 2.0816 0.0 0 0 79.9957 132.1685"/>
<svg:path d="M87.0731 124.2584 A2.0816 2.0816 0.0 0 0 84.9915 122.1768"/>
<svg:path d="M84.9915 132.1685 A2.0816 2.0816 0.0 0 0 87.0731 130.0869"/>
<svg:path d="M77.7684 93.6173 L77.7684 99.4457 "/>
<svg:path d="M79.8500 91.5357 L84.8458 91.5357 "/>
<svg:path d="M79.8500 101.5273 L84.8458 101.5273 "/>
<svg:path d="M86.9274 93.6173 L86.9274 99.4457 "/>
<svg:path d="M79.8500 91.5357 A2.0816 2.0816 0.0 0 0 77.7684 93.6173"/>
<svg:path d="M77.7684 99.4457 A2.0816 2.0816 0.0 0 0 79.8500 101.5273"/>
<svg:path d="M86.9274 93.6173 A2.0816 2.0816 0.0 0 0 84.8458 91.5357"/>
<svg:path d="M84.8458 101.5273 A2.0816 2.0816 0.0 0 0 86.9274 99.4457"/>
<svg:path d="M77.8100 149.4874 L77.8100 155.3158 "/>
<svg:path d="M79.8916 147.4058 L84.8874 147.4058 "/>
<svg:path d="M79.8916 157.3974 L84.8874 157.3974 "/>
<svg:path d="M86.9690 149.4874 L86.9690 155.3158 "/>
<svg:path d="M79.8916 147.4058 A2.0816 2.0816 0.0 0 0 77.8100 149.4874"/>
<svg:path d="M77.8100 155.3158 A2.0816 2.0816 0.0 0 0 79.8916 157.3974"/>
<svg:path d="M86.9690 149.4874 A2.0816 2.0816 0.0 0 0 84.8874 147.4058"/>
<svg:path d="M84.8874 157.3974 A2.0816 2.0816 0.0 0 0 86.9690 155.3158"/>
<svg:g>
</svg:g>
<svg:g>
</svg:g>
<svg:g>
</svg:g>
<svg:g>
</svg:g>
<svg:g>
</svg:g>
<svg:g>
</svg:g>
<svg:g>
</svg:g>
<svg:g>
</svg:g>
<svg:g>
</svg:g>
<svg:g>
</svg:g>
<svg:g>
</svg:g>
<svg:g>
</svg:g>
<svg:g>
</svg:g>
<svg:g>
</svg:g>
<svg:g>
</svg:g>
<svg:g>
</svg:g>
<svg:g>
</svg:g>
<svg:g>
</svg:g>
<svg:g>
</svg:g>
<svg:g>
</svg:g>
<svg:g>
</svg:g>
<svg:g>
</svg:g>
<svg:g>
</svg:g>
<svg:g>
</svg:g>
<svg:g>
</svg:g>
<svg:g>
</svg:g>
<svg:g>
</svg:g>
<svg:g>
</svg:g>
<svg:g>
</svg:g>
<svg:g>
</svg:g>
<svg:g>
</svg:g>
<svg:g>
</svg:g>
<svg:g>
</svg:g>
<svg:g>
</svg:g>
<svg:g>
</svg:g>
<svg:g>
</svg:g>
<svg:g>
</svg:g>
<svg:g>
</svg:g>
<svg:g>
</svg:g>
<svg:g>
</svg:g>
<svg:g>
</svg:g>
<svg:g>
</svg:g>
<svg:g>
</svg:g>
<svg:g>
</svg:g>
<svg:g>
</svg:g>
<svg:g>
</svg:g>
<svg:g>
</svg:g>
<svg:g>
</svg:g>
<svg:g>
</svg:g>
<svg:g>
</svg:g>
<svg:g>
</svg:g>
<svg:g>
</svg:g>
<svg:g>
</svg:g>
<svg:g>
</svg:g>
</svg:g> 
</svg:g></svg:g></svg>
