<?xml version='1.0' encoding='ASCII' standalone='yes'?>
<svg xmlns:svg="http://www.w3.org/2000/svg" xmlns="http://www.w3.org/2000/svg" xmlns:xlink="http://www.w3.org/1999/xlink" version="1.1" width="297.0022mm" height="210.0072mm" viewBox="0.0000 0.0000 297.0022 210.0072">
<title>SVG Image created as USBPDSINK01-F_Fab.svg date 2023/08/23 20:10:36 </title>
  <desc>Image generated by PCBNEW </desc>
<g style="fill:#848484; fill-opacity:1.0000;stroke:#848484; stroke-opacity:1.0000; stroke-linecap:round; stroke-linejoin:round;" transform="translate(0 0) scale(1 1)">
</g>
<g style="fill:#848484; fill-opacity:0.0;  stroke:#848484; stroke-width:0.0000; stroke-opacity:1;  stroke-linecap:round; stroke-linejoin:round;">
</g>
<g style="fill:#848484; fill-opacity:0.01;  stroke:#848484; stroke-width:0.6245; stroke-opacity:1;  stroke-linecap:round; stroke-linejoin:round;">
<g transform="rotate(-90.000000 222.6060 69.3250)">
<text x="222.6060" y="71.4066" textLength="17.8918" font-size="5.5509" lengthAdjust="spacingAndGlyphs" text-anchor="middle" opacity="0.01" style="font-family:monospace">WAGO</text>
</g>
<g class="stroked-text"><desc>WAGO</desc>
<path d="M220.3363 77.1558 L224.4995 76.1645 "/>
<path d="M224.4995 76.1645 L221.5258 75.3715 "/>
<path d="M221.5258 75.3715 L224.4995 74.5786 "/>
<path d="M224.4995 74.5786 L220.3363 73.5873 "/>
<path d="M223.3100 72.1996 L223.3100 70.2171 "/>
<path d="M224.4995 72.5961 L220.3363 71.2083 "/>
<path d="M220.3363 71.2083 L224.4995 69.8206 "/>
<path d="M220.5346 66.2522 L220.3363 66.6487 "/>
<path d="M220.3363 66.6487 L220.3363 67.2434 "/>
<path d="M220.3363 67.2434 L220.5346 67.8381 "/>
<path d="M220.5346 67.8381 L220.9311 68.2346 "/>
<path d="M220.9311 68.2346 L221.3276 68.4329 "/>
<path d="M221.3276 68.4329 L222.1205 68.6311 "/>
<path d="M222.1205 68.6311 L222.7153 68.6311 "/>
<path d="M222.7153 68.6311 L223.5083 68.4329 "/>
<path d="M223.5083 68.4329 L223.9048 68.2346 "/>
<path d="M223.9048 68.2346 L224.3013 67.8381 "/>
<path d="M224.3013 67.8381 L224.4995 67.2434 "/>
<path d="M224.4995 67.2434 L224.4995 66.8469 "/>
<path d="M224.4995 66.8469 L224.3013 66.2522 "/>
<path d="M224.3013 66.2522 L224.1030 66.0539 "/>
<path d="M224.1030 66.0539 L222.7153 66.0539 "/>
<path d="M222.7153 66.0539 L222.7153 66.8469 "/>
<path d="M220.3363 63.4767 L220.3363 62.6837 "/>
<path d="M220.3363 62.6837 L220.5346 62.2872 "/>
<path d="M220.5346 62.2872 L220.9311 61.8907 "/>
<path d="M220.9311 61.8907 L221.7241 61.6925 "/>
<path d="M221.7241 61.6925 L223.1118 61.6925 "/>
<path d="M223.1118 61.6925 L223.9048 61.8907 "/>
<path d="M223.9048 61.8907 L224.3013 62.2872 "/>
<path d="M224.3013 62.2872 L224.4995 62.6837 "/>
<path d="M224.4995 62.6837 L224.4995 63.4767 "/>
<path d="M224.4995 63.4767 L224.3013 63.8732 "/>
<path d="M224.3013 63.8732 L223.9048 64.2697 "/>
<path d="M223.9048 64.2697 L223.1118 64.4679 "/>
<path d="M223.1118 64.4679 L221.7241 64.4679 "/>
<path d="M221.7241 64.4679 L220.9311 64.2697 "/>
<path d="M220.9311 64.2697 L220.5346 63.8732 "/>
<path d="M220.5346 63.8732 L220.3363 63.4767 "/>
</g><g transform="rotate(-90.000000 193.4636 69.3250)">
<text x="193.4636" y="71.4066" textLength="8.1777" font-size="5.5509" lengthAdjust="spacingAndGlyphs" text-anchor="middle" opacity="0.01" style="font-family:monospace">J7</text>
</g>
<g class="stroked-text"><desc>J7</desc>
<path d="M191.1939 70.7127 L194.1676 70.7127 "/>
<path d="M194.1676 70.7127 L194.7624 70.9110 "/>
<path d="M194.7624 70.9110 L195.1589 71.3075 "/>
<path d="M195.1589 71.3075 L195.3571 71.9022 "/>
<path d="M195.3571 71.9022 L195.3571 72.2987 "/>
<path d="M191.1939 69.1267 L191.1939 66.3513 "/>
<path d="M191.1939 66.3513 L195.3571 68.1355 "/>
</g><text x="148.4803" y="20.6989" textLength="8.1777" font-size="5.5509" lengthAdjust="spacingAndGlyphs" text-anchor="middle" opacity="0.01" style="font-family:monospace">J2</text>
<g class="stroked-text"><desc>J2</desc>
<path d="M147.0926 16.3476 L147.0926 19.3213 "/>
<path d="M147.0926 19.3213 L146.8943 19.9160 "/>
<path d="M146.8943 19.9160 L146.4978 20.3125 "/>
<path d="M146.4978 20.3125 L145.9031 20.5108 "/>
<path d="M145.9031 20.5108 L145.5066 20.5108 "/>
<path d="M148.8768 16.7441 L149.0750 16.5458 "/>
<path d="M149.0750 16.5458 L149.4715 16.3476 "/>
<path d="M149.4715 16.3476 L150.4628 16.3476 "/>
<path d="M150.4628 16.3476 L150.8593 16.5458 "/>
<path d="M150.8593 16.5458 L151.0575 16.7441 "/>
<path d="M151.0575 16.7441 L151.2557 17.1405 "/>
<path d="M151.2557 17.1405 L151.2557 17.5370 "/>
<path d="M151.2557 17.5370 L151.0575 18.1318 "/>
<path d="M151.0575 18.1318 L148.6785 20.5108 "/>
<path d="M148.6785 20.5108 L151.2557 20.5108 "/>
</g><g transform="rotate(-90.000000 115.1955 56.1485)">
<text x="115.1955" y="58.2301" textLength="12.3409" font-size="5.5509" lengthAdjust="spacingAndGlyphs" text-anchor="middle" opacity="0.01" style="font-family:monospace">JP3</text>
</g>
<g class="stroked-text"><desc>JP3</desc>
<path d="M112.9258 59.6178 L115.8995 59.6178 "/>
<path d="M115.8995 59.6178 L116.4943 59.8161 "/>
<path d="M116.4943 59.8161 L116.8908 60.2126 "/>
<path d="M116.8908 60.2126 L117.0890 60.8073 "/>
<path d="M117.0890 60.8073 L117.0890 61.2038 "/>
<path d="M117.0890 57.6353 L112.9258 57.6353 "/>
<path d="M112.9258 57.6353 L112.9258 56.0494 "/>
<path d="M112.9258 56.0494 L113.1241 55.6529 "/>
<path d="M113.1241 55.6529 L113.3223 55.4546 "/>
<path d="M113.3223 55.4546 L113.7188 55.2564 "/>
<path d="M113.7188 55.2564 L114.3136 55.2564 "/>
<path d="M114.3136 55.2564 L114.7101 55.4546 "/>
<path d="M114.7101 55.4546 L114.9083 55.6529 "/>
<path d="M114.9083 55.6529 L115.1065 56.0494 "/>
<path d="M115.1065 56.0494 L115.1065 57.6353 "/>
<path d="M112.9258 53.8686 L112.9258 51.2914 "/>
<path d="M112.9258 51.2914 L114.5118 52.6791 "/>
<path d="M114.5118 52.6791 L114.5118 52.0844 "/>
<path d="M114.5118 52.0844 L114.7101 51.6879 "/>
<path d="M114.7101 51.6879 L114.9083 51.4897 "/>
<path d="M114.9083 51.4897 L115.3048 51.2914 "/>
<path d="M115.3048 51.2914 L116.2960 51.2914 "/>
<path d="M116.2960 51.2914 L116.6925 51.4897 "/>
<path d="M116.6925 51.4897 L116.8908 51.6879 "/>
<path d="M116.8908 51.6879 L117.0890 52.0844 "/>
<path d="M117.0890 52.0844 L117.0890 53.2739 "/>
<path d="M117.0890 53.2739 L116.8908 53.6704 "/>
<path d="M116.8908 53.6704 L116.6925 53.8686 "/>
</g><g transform="rotate(-90.000000 81.5985 56.2317)">
<text x="81.5985" y="58.3133" textLength="8.1777" font-size="5.5509" lengthAdjust="spacingAndGlyphs" text-anchor="middle" opacity="0.01" style="font-family:monospace">J4</text>
</g>
<g class="stroked-text"><desc>J4</desc>
<path d="M79.3288 57.6195 L82.3025 57.6195 "/>
<path d="M82.3025 57.6195 L82.8973 57.8177 "/>
<path d="M82.8973 57.8177 L83.2938 58.2142 "/>
<path d="M83.2938 58.2142 L83.4920 58.8090 "/>
<path d="M83.4920 58.8090 L83.4920 59.2055 "/>
<path d="M80.7166 53.8528 L83.4920 53.8528 "/>
<path d="M79.1306 54.8440 L82.1043 55.8352 "/>
<path d="M82.1043 55.8352 L82.1043 53.2580 "/>
</g><g transform="rotate(-90.000000 147.9599 162.9137)">
<text x="147.9599" y="164.9953" textLength="8.1777" font-size="5.5509" lengthAdjust="spacingAndGlyphs" text-anchor="middle" opacity="0.01" style="font-family:monospace">J5</text>
</g>
<g class="stroked-text"><desc>J5</desc>
<path d="M145.6902 164.3014 L148.6639 164.3014 "/>
<path d="M148.6639 164.3014 L149.2586 164.4997 "/>
<path d="M149.2586 164.4997 L149.6551 164.8962 "/>
<path d="M149.6551 164.8962 L149.8534 165.4909 "/>
<path d="M149.8534 165.4909 L149.8534 165.8874 "/>
<path d="M145.6902 160.3365 L145.6902 162.3189 "/>
<path d="M145.6902 162.3189 L147.6727 162.5172 "/>
<path d="M147.6727 162.5172 L147.4744 162.3189 "/>
<path d="M147.4744 162.3189 L147.2762 161.9224 "/>
<path d="M147.2762 161.9224 L147.2762 160.9312 "/>
<path d="M147.2762 160.9312 L147.4744 160.5347 "/>
<path d="M147.4744 160.5347 L147.6727 160.3365 "/>
<path d="M147.6727 160.3365 L148.0692 160.1382 "/>
<path d="M148.0692 160.1382 L149.0604 160.1382 "/>
<path d="M149.0604 160.1382 L149.4569 160.3365 "/>
<path d="M149.4569 160.3365 L149.6551 160.5347 "/>
<path d="M149.6551 160.5347 L149.8534 160.9312 "/>
<path d="M149.8534 160.9312 L149.8534 161.9224 "/>
<path d="M149.8534 161.9224 L149.6551 162.3189 "/>
<path d="M149.6551 162.3189 L149.4569 162.5172 "/>
</g><g transform="rotate(-90.000000 214.5710 147.4266)">
<text x="214.5710" y="149.5082" textLength="8.1777" font-size="5.5509" lengthAdjust="spacingAndGlyphs" text-anchor="middle" opacity="0.01" style="font-family:monospace">J3</text>
</g>
<g class="stroked-text"><desc>J3</desc>
<path d="M212.3013 148.8143 L215.2751 148.8143 "/>
<path d="M215.2751 148.8143 L215.8698 149.0126 "/>
<path d="M215.8698 149.0126 L216.2663 149.4091 "/>
<path d="M216.2663 149.4091 L216.4645 150.0038 "/>
<path d="M216.4645 150.0038 L216.4645 150.4003 "/>
<path d="M212.3013 147.2283 L212.3013 144.6511 "/>
<path d="M212.3013 144.6511 L213.8873 146.0388 "/>
<path d="M213.8873 146.0388 L213.8873 145.4441 "/>
<path d="M213.8873 145.4441 L214.0856 145.0476 "/>
<path d="M214.0856 145.0476 L214.2838 144.8494 "/>
<path d="M214.2838 144.8494 L214.6803 144.6511 "/>
<path d="M214.6803 144.6511 L215.6716 144.6511 "/>
<path d="M215.6716 144.6511 L216.0680 144.8494 "/>
<path d="M216.0680 144.8494 L216.2663 145.0476 "/>
<path d="M216.2663 145.0476 L216.4645 145.4441 "/>
<path d="M216.4645 145.4441 L216.4645 146.6336 "/>
<path d="M216.4645 146.6336 L216.2663 147.0301 "/>
<path d="M216.2663 147.0301 L216.0680 147.2283 "/>
</g><g transform="rotate(-90.000000 107.3895 128.2134)">
<text x="107.3895" y="130.2950" textLength="8.1777" font-size="5.5509" lengthAdjust="spacingAndGlyphs" text-anchor="middle" opacity="0.01" style="font-family:monospace">J6</text>
</g>
<g class="stroked-text"><desc>J6</desc>
<path d="M105.1198 129.6012 L108.0935 129.6012 "/>
<path d="M108.0935 129.6012 L108.6883 129.7994 "/>
<path d="M108.6883 129.7994 L109.0848 130.1959 "/>
<path d="M109.0848 130.1959 L109.2830 130.7906 "/>
<path d="M109.2830 130.7906 L109.2830 131.1871 "/>
<path d="M105.1198 125.8345 L105.1198 126.6274 "/>
<path d="M105.1198 126.6274 L105.3181 127.0239 "/>
<path d="M105.3181 127.0239 L105.5163 127.2222 "/>
<path d="M105.5163 127.2222 L106.1111 127.6187 "/>
<path d="M106.1111 127.6187 L106.9041 127.8169 "/>
<path d="M106.9041 127.8169 L108.4900 127.8169 "/>
<path d="M108.4900 127.8169 L108.8865 127.6187 "/>
<path d="M108.8865 127.6187 L109.0848 127.4204 "/>
<path d="M109.0848 127.4204 L109.2830 127.0239 "/>
<path d="M109.2830 127.0239 L109.2830 126.2310 "/>
<path d="M109.2830 126.2310 L109.0848 125.8345 "/>
<path d="M109.0848 125.8345 L108.8865 125.6362 "/>
<path d="M108.8865 125.6362 L108.4900 125.4380 "/>
<path d="M108.4900 125.4380 L107.4988 125.4380 "/>
<path d="M107.4988 125.4380 L107.1023 125.6362 "/>
<path d="M107.1023 125.6362 L106.9041 125.8345 "/>
<path d="M106.9041 125.8345 L106.7058 126.2310 "/>
<path d="M106.7058 126.2310 L106.7058 127.0239 "/>
<path d="M106.7058 127.0239 L106.9041 127.4204 "/>
<path d="M106.9041 127.4204 L107.1023 127.6187 "/>
<path d="M107.1023 127.6187 L107.4988 127.8169 "/>
</g><g transform="rotate(-90.000000 133.8466 83.4799)">
<text x="133.8466" y="85.5615" textLength="12.3409" font-size="5.5509" lengthAdjust="spacingAndGlyphs" text-anchor="middle" opacity="0.01" style="font-family:monospace">JP1</text>
</g>
<g class="stroked-text"><desc>JP1</desc>
<path d="M131.5770 86.9492 L134.5507 86.9492 "/>
<path d="M134.5507 86.9492 L135.1454 87.1474 "/>
<path d="M135.1454 87.1474 L135.5419 87.5439 "/>
<path d="M135.5419 87.5439 L135.7401 88.1387 "/>
<path d="M135.7401 88.1387 L135.7401 88.5352 "/>
<path d="M135.7401 84.9667 L131.5770 84.9667 "/>
<path d="M131.5770 84.9667 L131.5770 83.3807 "/>
<path d="M131.5770 83.3807 L131.7752 82.9843 "/>
<path d="M131.7752 82.9843 L131.9734 82.7860 "/>
<path d="M131.9734 82.7860 L132.3699 82.5878 "/>
<path d="M132.3699 82.5878 L132.9647 82.5878 "/>
<path d="M132.9647 82.5878 L133.3612 82.7860 "/>
<path d="M133.3612 82.7860 L133.5594 82.9843 "/>
<path d="M133.5594 82.9843 L133.7577 83.3807 "/>
<path d="M133.7577 83.3807 L133.7577 84.9667 "/>
<path d="M135.7401 78.6228 L135.7401 81.0018 "/>
<path d="M135.7401 79.8123 L131.5770 79.8123 "/>
<path d="M131.5770 79.8123 L132.1717 80.2088 "/>
<path d="M132.1717 80.2088 L132.5682 80.6053 "/>
<path d="M132.5682 80.6053 L132.7664 81.0018 "/>
</g><g transform="rotate(-180.000000 90.9532 114.3467)">
<text x="90.9532" y="116.4282" transform="scale(-1 1) translate(-181.906448 0)" textLength="5.2040" font-size="5.5509" lengthAdjust="spacingAndGlyphs" text-anchor="middle" opacity="0.01" style="font-family:monospace">K</text>
</g>
<g class="stroked-text"><desc>K</desc>
<path d="M89.8629 112.4531 L89.8629 116.6163 "/>
<path d="M92.2418 112.4531 L90.4576 114.8321 "/>
<path d="M92.2418 116.6163 L89.8629 114.2374 "/>
</g><g transform="rotate(-180.000000 90.9116 139.5756)">
<text x="90.9116" y="141.6572" transform="scale(-1 1) translate(-181.823184 0)" textLength="5.2040" font-size="5.5509" lengthAdjust="spacingAndGlyphs" text-anchor="middle" opacity="0.01" style="font-family:monospace">K</text>
</g>
<g class="stroked-text"><desc>K</desc>
<path d="M89.8212 137.6821 L89.8212 141.8453 "/>
<path d="M92.2002 137.6821 L90.4160 140.0611 "/>
<path d="M92.2002 141.8453 L89.8212 139.4664 "/>
</g><g transform="rotate(-180.000000 90.9532 126.9611)">
<text x="90.9532" y="129.0427" transform="scale(-1 1) translate(-181.906448 0)" textLength="5.2040" font-size="5.5509" lengthAdjust="spacingAndGlyphs" text-anchor="middle" opacity="0.01" style="font-family:monospace">K</text>
</g>
<g class="stroked-text"><desc>K</desc>
<path d="M89.8629 125.0676 L89.8629 129.2308 "/>
<path d="M92.2418 125.0676 L90.4576 127.4466 "/>
<path d="M92.2418 129.2308 L89.8629 126.8519 "/>
</g><g transform="rotate(-180.000000 90.8075 96.3200)">
<text x="90.8075" y="98.4016" transform="scale(-1 1) translate(-181.615024 0)" textLength="5.2040" font-size="5.5509" lengthAdjust="spacingAndGlyphs" text-anchor="middle" opacity="0.01" style="font-family:monospace">K</text>
</g>
<g class="stroked-text"><desc>K</desc>
<path d="M89.7171 94.4265 L89.7171 98.5897 "/>
<path d="M92.0961 94.4265 L90.3119 96.8055 "/>
<path d="M92.0961 98.5897 L89.7171 96.2107 "/>
</g><g transform="rotate(-180.000000 90.8491 152.1901)">
<text x="90.8491" y="154.2717" transform="scale(-1 1) translate(-181.698288 0)" textLength="5.2040" font-size="5.5509" lengthAdjust="spacingAndGlyphs" text-anchor="middle" opacity="0.01" style="font-family:monospace">K</text>
</g>
<g class="stroked-text"><desc>K</desc>
<path d="M89.7588 150.2966 L89.7588 154.4598 "/>
<path d="M92.1377 150.2966 L90.3535 152.6756 "/>
<path d="M92.1377 154.4598 L89.7588 152.0808 "/>
</g></g>
<g style="fill:#848484; fill-opacity:0.01;  stroke:#848484; stroke-width:0.3331; stroke-opacity:1;  stroke-linecap:round; stroke-linejoin:round;">
<text x="144.6397" y="73.4882" textLength="4.6469" font-size="2.7755" lengthAdjust="spacingAndGlyphs" text-anchor="middle" opacity="0.01" style="font-family:monospace">R2</text>
<g class="stroked-text"><desc>R2</desc>
<path d="M144.2928 73.3931 L143.5989 72.4018 "/>
<path d="M143.1033 73.3931 L143.1033 71.3115 "/>
<path d="M143.1033 71.3115 L143.8963 71.3115 "/>
<path d="M143.8963 71.3115 L144.0946 71.4106 "/>
<path d="M144.0946 71.4106 L144.1937 71.5097 "/>
<path d="M144.1937 71.5097 L144.2928 71.7080 "/>
<path d="M144.2928 71.7080 L144.2928 72.0053 "/>
<path d="M144.2928 72.0053 L144.1937 72.2036 "/>
<path d="M144.1937 72.2036 L144.0946 72.3027 "/>
<path d="M144.0946 72.3027 L143.8963 72.4018 "/>
<path d="M143.8963 72.4018 L143.1033 72.4018 "/>
<path d="M145.0858 71.5097 L145.1849 71.4106 "/>
<path d="M145.1849 71.4106 L145.3832 71.3115 "/>
<path d="M145.3832 71.3115 L145.8788 71.3115 "/>
<path d="M145.8788 71.3115 L146.0770 71.4106 "/>
<path d="M146.0770 71.4106 L146.1762 71.5097 "/>
<path d="M146.1762 71.5097 L146.2753 71.7080 "/>
<path d="M146.2753 71.7080 L146.2753 71.9062 "/>
<path d="M146.2753 71.9062 L146.1762 72.2036 "/>
<path d="M146.1762 72.2036 L144.9867 73.3931 "/>
<path d="M144.9867 73.3931 L146.2753 73.3931 "/>
</g></g>
<g style="fill:#848484; fill-opacity:0.0;  stroke:#848484; stroke-width:0.4163; stroke-opacity:1;  stroke-linecap:round; stroke-linejoin:round;">
<path d="M168.4844 94.9287 L168.4844 43.7213 "/>
<path d="M187.2188 94.9287 L187.2188 43.7213 "/>
<path d="M198.8758 94.9287 L198.8758 43.7213 "/>
<path d="M222.6060 94.9287 L168.4844 94.9287 "/>
<path d="M222.6060 94.9287 L222.6060 43.7213 "/>
<path d="M226.7692 90.7655 L222.6060 94.9287 "/>
<path d="M168.4844 88.6839 L226.7692 88.6839 "/>
<path d="M226.7692 88.6839 L226.7692 67.8679 "/>
<path d="M200.5411 86.6023 L204.7043 86.6023 "/>
<path d="M204.7043 86.6023 L204.7043 69.9495 "/>
<path d="M207.6185 86.6023 L221.3571 86.6023 "/>
<path d="M221.3571 86.6023 L221.3571 69.9495 "/>
<path d="M169.9416 80.3575 L180.3496 80.3575 "/>
<path d="M180.3496 80.3575 L180.3496 76.1943 "/>
<path d="M169.9416 76.1943 L169.9416 80.3575 "/>
<path d="M180.3496 76.1943 L169.9416 76.1943 "/>
<path d="M200.5411 69.9495 L200.5411 86.6023 "/>
<path d="M204.7043 69.9495 L200.5411 69.9495 "/>
<path d="M207.6185 69.9495 L207.6185 86.6023 "/>
<path d="M221.3571 69.9495 L207.6185 69.9495 "/>
<path d="M168.4844 67.8679 L168.4844 88.6839 "/>
<path d="M168.4844 67.8679 L226.7692 67.8679 "/>
<path d="M226.7692 67.8679 L168.4844 67.8679 "/>
<path d="M226.7692 67.8679 L226.7692 47.0519 "/>
<path d="M200.5411 65.7863 L204.7043 65.7863 "/>
<path d="M204.7043 65.7863 L204.7043 49.1335 "/>
<path d="M207.6185 65.7863 L221.3571 65.7863 "/>
<path d="M221.3571 65.7863 L221.3571 49.1335 "/>
<path d="M169.9416 59.5415 L180.3496 59.5415 "/>
<path d="M180.3496 59.5415 L180.3496 55.3783 "/>
<path d="M169.9416 55.3783 L169.9416 59.5415 "/>
<path d="M180.3496 55.3783 L169.9416 55.3783 "/>
<path d="M200.5411 49.1335 L200.5411 65.7863 "/>
<path d="M204.7043 49.1335 L200.5411 49.1335 "/>
<path d="M207.6185 49.1335 L207.6185 65.7863 "/>
<path d="M221.3571 49.1335 L207.6185 49.1335 "/>
<path d="M168.4844 47.0519 L168.4844 67.8679 "/>
<path d="M226.7692 47.0519 L168.4844 47.0519 "/>
<path d="M168.4844 43.7213 L226.7692 43.7213 "/>
<path d="M226.7692 43.7213 L226.7692 90.7655 "/>
</g>
<g style="fill:#848484; fill-opacity:0.0;  stroke:#848484; stroke-width:1.5862; stroke-opacity:1;  stroke-linecap:round; stroke-linejoin:round;">
<circle cx="85.0540" cy="189.5998" r="12.4885"/> 
</g>
<g style="fill:#848484; fill-opacity:0.0;  stroke:#848484; stroke-width:0.4163; stroke-opacity:1;  stroke-linecap:round; stroke-linejoin:round;">
<path d="M169.6293 8.0427 L174.9166 13.3300 "/>
<path d="M122.0440 8.0427 L169.6293 8.0427 "/>
<path d="M174.9166 13.3300 L174.9166 29.1918 "/>
<path d="M174.9166 29.1918 L122.0440 29.1918 "/>
<path d="M122.0440 29.1918 L122.0440 8.0427 "/>
<path d="M120.4828 69.3666 L117.8392 72.0103 "/>
<path d="M120.4828 40.2867 L120.4828 69.3666 "/>
<path d="M117.8392 72.0103 L109.9083 72.0103 "/>
<path d="M109.9083 72.0103 L109.9083 40.2867 "/>
<path d="M109.9083 40.2867 L120.4828 40.2867 "/>
<path d="M92.1730 66.8063 L86.8858 72.0935 "/>
<path d="M92.1730 40.3700 L92.1730 66.8063 "/>
<path d="M86.8858 72.0935 L71.0240 72.0935 "/>
<path d="M71.0240 72.0935 L71.0240 40.3700 "/>
<path d="M71.0240 40.3700 L92.1730 40.3700 "/>
<path d="M137.3854 162.9137 L142.6726 157.6264 "/>
<path d="M137.3854 168.2009 L137.3854 162.9137 "/>
<path d="M142.6726 157.6264 L158.5344 157.6264 "/>
<path d="M158.5344 157.6264 L158.5344 168.2009 "/>
<path d="M158.5344 168.2009 L137.3854 168.2009 "/>
</g>
<g style="fill:#848484; fill-opacity:0.0;  stroke:#848484; stroke-width:1.5862; stroke-opacity:1;  stroke-linecap:round; stroke-linejoin:round;">
<circle cx="211.9482" cy="20.4074" r="12.4885"/> 
<circle cx="85.0540" cy="20.4074" r="12.4885"/> 
</g>
<g style="fill:#848484; fill-opacity:0.0;  stroke:#848484; stroke-width:0.4163; stroke-opacity:1;  stroke-linecap:round; stroke-linejoin:round;">
<path d="M203.9965 131.5648 L209.2838 126.2775 "/>
<path d="M203.9965 168.5756 L203.9965 131.5648 "/>
<path d="M209.2838 126.2775 L225.1456 126.2775 "/>
<path d="M225.1456 126.2775 L225.1456 168.5756 "/>
<path d="M225.1456 168.5756 L203.9965 168.5756 "/>
<path d="M96.8150 96.4899 L102.1023 91.2026 "/>
<path d="M96.8150 165.2243 L96.8150 96.4899 "/>
<path d="M102.1023 91.2026 L117.9640 91.2026 "/>
<path d="M117.9640 91.2026 L117.9640 165.2243 "/>
<path d="M117.9640 165.2243 L96.8150 165.2243 "/>
</g>
<g style="fill:#848484; fill-opacity:0.0;  stroke:#848484; stroke-width:1.5862; stroke-opacity:1;  stroke-linecap:round; stroke-linejoin:round;">
<circle cx="211.9482" cy="189.5998" r="12.4885"/> 
</g>
<g style="fill:#848484; fill-opacity:0.0;  stroke:#848484; stroke-width:0.4163; stroke-opacity:1;  stroke-linecap:round; stroke-linejoin:round;">
<path d="M144.4212 83.4799 L139.1339 88.7671 "/>
<path d="M144.4212 78.1926 L144.4212 83.4799 "/>
<path d="M139.1339 88.7671 L123.2721 88.7671 "/>
<path d="M123.2721 88.7671 L123.2721 78.1926 "/>
<path d="M123.2721 78.1926 L144.4212 78.1926 "/>
<g>
</g>
<g>
</g>
<g>
</g>
<g>
</g>
<g>
</g>
<g>
</g>
<g>
</g>
<g>
</g>
<g>
</g>
<g>
</g>
<g>
</g>
<g>
</g>
<g>
</g>
<g>
</g>
<g>
</g>
<g>
</g>
<g>
</g>
<g>
</g>
<g>
</g>
<g>
</g>
<g>
</g>
<g>
</g>
<g>
</g>
<g>
</g>
<g>
</g>
<g>
</g>
<g>
</g>
<g>
</g>
<g>
</g>
<g>
</g>
<g>
</g>
<g>
</g>
<g>
</g>
<g>
</g>
<g>
</g>
<g>
</g>
<g>
</g>
<g>
</g>
<g>
</g>
<g>
</g>
<g>
</g>
<g>
</g>
<g>
</g>
<g>
</g>
<g>
</g>
<g>
</g>
<g>
</g>
<g>
</g>
<g>
</g>
<g>
</g>
<g>
</g>
<g>
</g>
<g>
</g>
<g>
</g>
</g> 
<svg:g><svg:g><svg:title>SVG Image created as USBPDSINK01-Edge_Cuts.svg date 2023/08/23 20:10:36 </svg:title>
  <svg:desc>Image generated by PCBNEW </svg:desc>
<svg:g style="fill:#C2C200; fill-opacity:1.0000;stroke:#C2C200; stroke-opacity:1.0000; stroke-linecap:round; stroke-linejoin:round;" transform="translate(0 0) scale(1 1)">
</svg:g>
<svg:g style="fill:#C2C200; fill-opacity:0.0;  stroke:#C2C200; stroke-width:0.0000; stroke-opacity:1;  stroke-linecap:round; stroke-linejoin:round;">
</svg:g>
<svg:g style="fill:#C2C200; fill-opacity:0.0;  stroke:#C2C200; stroke-width:0.6245; stroke-opacity:1;  stroke-linecap:round; stroke-linejoin:round;">
<svg:path style="fill:#C2C200; fill-opacity:0.0;  stroke:#C2C200; stroke-width:0.6245; stroke-opacity:1;  stroke-linecap:round; stroke-linejoin:round;fill:none" d="M 64.9624,0.3158 232.0398,0.3158 232.0398,209.6914 64.9624,209.6914 Z"/> 
</svg:g>
<svg:g style="fill:#C2C200; fill-opacity:0.0;  stroke:#C2C200; stroke-width:0.2082; stroke-opacity:1;  stroke-linecap:round; stroke-linejoin:round;">
<svg:path d="M77.9141 111.6439 L77.9141 117.4724 "/>
<svg:path d="M79.9957 109.5623 L84.9915 109.5623 "/>
<svg:path d="M79.9957 119.5540 L84.9915 119.5540 "/>
<svg:path d="M87.0731 111.6439 L87.0731 117.4724 "/>
<svg:path d="M79.9957 109.5623 A2.0816 2.0816 0.0 0 0 77.9141 111.6439"/>
<svg:path d="M77.9141 117.4724 A2.0816 2.0816 0.0 0 0 79.9957 119.5540"/>
<svg:path d="M87.0731 111.6439 A2.0816 2.0816 0.0 0 0 84.9915 109.5623"/>
<svg:path d="M84.9915 119.5540 A2.0816 2.0816 0.0 0 0 87.0731 117.4724"/>
<svg:path d="M77.8725 136.8729 L77.8725 142.7014 "/>
<svg:path d="M79.9541 134.7913 L84.9499 134.7913 "/>
<svg:path d="M79.9541 144.7830 L84.9499 144.7830 "/>
<svg:path d="M87.0315 136.8729 L87.0315 142.7014 "/>
<svg:path d="M79.9541 134.7913 A2.0816 2.0816 0.0 0 0 77.8725 136.8729"/>
<svg:path d="M77.8725 142.7014 A2.0816 2.0816 0.0 0 0 79.9541 144.7830"/>
<svg:path d="M87.0315 136.8729 A2.0816 2.0816 0.0 0 0 84.9499 134.7913"/>
<svg:path d="M84.9499 144.7830 A2.0816 2.0816 0.0 0 0 87.0315 142.7014"/>
<svg:path d="M77.9141 124.2584 L77.9141 130.0869 "/>
<svg:path d="M79.9957 122.1768 L84.9915 122.1768 "/>
<svg:path d="M79.9957 132.1685 L84.9915 132.1685 "/>
<svg:path d="M87.0731 124.2584 L87.0731 130.0869 "/>
<svg:path d="M79.9957 122.1768 A2.0816 2.0816 0.0 0 0 77.9141 124.2584"/>
<svg:path d="M77.9141 130.0869 A2.0816 2.0816 0.0 0 0 79.9957 132.1685"/>
<svg:path d="M87.0731 124.2584 A2.0816 2.0816 0.0 0 0 84.9915 122.1768"/>
<svg:path d="M84.9915 132.1685 A2.0816 2.0816 0.0 0 0 87.0731 130.0869"/>
<svg:path d="M77.7684 93.6173 L77.7684 99.4457 "/>
<svg:path d="M79.8500 91.5357 L84.8458 91.5357 "/>
<svg:path d="M79.8500 101.5273 L84.8458 101.5273 "/>
<svg:path d="M86.9274 93.6173 L86.9274 99.4457 "/>
<svg:path d="M79.8500 91.5357 A2.0816 2.0816 0.0 0 0 77.7684 93.6173"/>
<svg:path d="M77.7684 99.4457 A2.0816 2.0816 0.0 0 0 79.8500 101.5273"/>
<svg:path d="M86.9274 93.6173 A2.0816 2.0816 0.0 0 0 84.8458 91.5357"/>
<svg:path d="M84.8458 101.5273 A2.0816 2.0816 0.0 0 0 86.9274 99.4457"/>
<svg:path d="M77.8100 149.4874 L77.8100 155.3158 "/>
<svg:path d="M79.8916 147.4058 L84.8874 147.4058 "/>
<svg:path d="M79.8916 157.3974 L84.8874 157.3974 "/>
<svg:path d="M86.9690 149.4874 L86.9690 155.3158 "/>
<svg:path d="M79.8916 147.4058 A2.0816 2.0816 0.0 0 0 77.8100 149.4874"/>
<svg:path d="M77.8100 155.3158 A2.0816 2.0816 0.0 0 0 79.8916 157.3974"/>
<svg:path d="M86.9690 149.4874 A2.0816 2.0816 0.0 0 0 84.8874 147.4058"/>
<svg:path d="M84.8874 157.3974 A2.0816 2.0816 0.0 0 0 86.9690 155.3158"/>
<svg:g>
</svg:g>
<svg:g>
</svg:g>
<svg:g>
</svg:g>
<svg:g>
</svg:g>
<svg:g>
</svg:g>
<svg:g>
</svg:g>
<svg:g>
</svg:g>
<svg:g>
</svg:g>
<svg:g>
</svg:g>
<svg:g>
</svg:g>
<svg:g>
</svg:g>
<svg:g>
</svg:g>
<svg:g>
</svg:g>
<svg:g>
</svg:g>
<svg:g>
</svg:g>
<svg:g>
</svg:g>
<svg:g>
</svg:g>
<svg:g>
</svg:g>
<svg:g>
</svg:g>
<svg:g>
</svg:g>
<svg:g>
</svg:g>
<svg:g>
</svg:g>
<svg:g>
</svg:g>
<svg:g>
</svg:g>
<svg:g>
</svg:g>
<svg:g>
</svg:g>
<svg:g>
</svg:g>
<svg:g>
</svg:g>
<svg:g>
</svg:g>
<svg:g>
</svg:g>
<svg:g>
</svg:g>
<svg:g>
</svg:g>
<svg:g>
</svg:g>
<svg:g>
</svg:g>
<svg:g>
</svg:g>
<svg:g>
</svg:g>
<svg:g>
</svg:g>
<svg:g>
</svg:g>
<svg:g>
</svg:g>
<svg:g>
</svg:g>
<svg:g>
</svg:g>
<svg:g>
</svg:g>
<svg:g>
</svg:g>
<svg:g>
</svg:g>
<svg:g>
</svg:g>
<svg:g>
</svg:g>
<svg:g>
</svg:g>
<svg:g>
</svg:g>
<svg:g>
</svg:g>
<svg:g>
</svg:g>
<svg:g>
</svg:g>
<svg:g>
</svg:g>
<svg:g>
</svg:g>
<svg:g>
</svg:g>
</svg:g> 
</svg:g></svg:g></svg>
