%TF.GenerationSoftware,KiCad,Pcbnew,7.0.7-7.0.7~ubuntu23.04.1*%
%TF.CreationDate,2023-08-23T20:09:55+00:00*%
%TF.ProjectId,USBPDSINK01,55534250-4453-4494-9e4b-30312e6b6963,rev?*%
%TF.SameCoordinates,Original*%
%TF.FileFunction,Copper,L1,Top*%
%TF.FilePolarity,Positive*%
%FSLAX46Y46*%
G04 Gerber Fmt 4.6, Leading zero omitted, Abs format (unit mm)*
G04 Created by KiCad (PCBNEW 7.0.7-7.0.7~ubuntu23.04.1) date 2023-08-23 20:09:55*
%MOMM*%
%LPD*%
G01*
G04 APERTURE LIST*
%TA.AperFunction,ComponentPad*%
%ADD10R,3.000000X1.500000*%
%TD*%
%TA.AperFunction,ComponentPad*%
%ADD11O,3.000000X1.500000*%
%TD*%
%TA.AperFunction,ComponentPad*%
%ADD12C,6.000000*%
%TD*%
%TA.AperFunction,ComponentPad*%
%ADD13R,1.700000X1.700000*%
%TD*%
%TA.AperFunction,ComponentPad*%
%ADD14O,1.700000X1.700000*%
%TD*%
%TA.AperFunction,ComponentPad*%
%ADD15O,1.000000X2.000000*%
%TD*%
%TA.AperFunction,ComponentPad*%
%ADD16O,1.050000X2.100000*%
%TD*%
%TA.AperFunction,ViaPad*%
%ADD17C,0.800000*%
%TD*%
%TA.AperFunction,ViaPad*%
%ADD18C,0.500000*%
%TD*%
%TA.AperFunction,Conductor*%
%ADD19C,0.250000*%
%TD*%
%TA.AperFunction,Conductor*%
%ADD20C,0.300000*%
%TD*%
%TA.AperFunction,Conductor*%
%ADD21C,0.500000*%
%TD*%
%TA.AperFunction,Conductor*%
%ADD22C,0.600000*%
%TD*%
%TA.AperFunction,Conductor*%
%ADD23C,1.000000*%
%TD*%
G04 APERTURE END LIST*
D10*
%TO.P,J7,1*%
%TO.N,VDC*%
X35200000Y36400000D03*
D11*
%TO.P,J7,2*%
%TO.N,GND*%
X35200000Y41400000D03*
%TD*%
D12*
%TO.P,M3,1*%
%TO.N,GND*%
X10160000Y10160000D03*
%TD*%
D13*
%TO.P,J2,1*%
%TO.N,GND*%
X30475000Y52500000D03*
D14*
%TO.P,J2,2*%
X30475000Y49960000D03*
%TO.P,J2,3*%
%TO.N,/SDA*%
X27935000Y52500000D03*
%TO.P,J2,4*%
X27935000Y49960000D03*
%TO.P,J2,5*%
%TO.N,/EXT_PWR*%
X25395000Y52500000D03*
%TO.P,J2,6*%
X25395000Y49960000D03*
%TO.P,J2,7*%
%TO.N,/SCL*%
X22855000Y52500000D03*
%TO.P,J2,8*%
X22855000Y49960000D03*
%TO.P,J2,9*%
%TO.N,GND*%
X20315000Y52500000D03*
%TO.P,J2,10*%
X20315000Y49960000D03*
%TD*%
D13*
%TO.P,JP3,1,A*%
%TO.N,+3V3*%
X17400000Y39675000D03*
D14*
%TO.P,JP3,2,C*%
%TO.N,VCC*%
X17400000Y42215000D03*
%TO.P,JP3,3,B*%
%TO.N,/EXT_PWR*%
X17400000Y44755000D03*
%TD*%
D13*
%TO.P,J4,1*%
%TO.N,GND*%
X10600000Y39655000D03*
D14*
%TO.P,J4,2*%
X8060000Y39655000D03*
%TO.P,J4,3*%
%TO.N,/EXT_PWR*%
X10600000Y42195000D03*
%TO.P,J4,4*%
X8060000Y42195000D03*
%TO.P,J4,5*%
%TO.N,GND*%
X10600000Y44735000D03*
%TO.P,J4,6*%
X8060000Y44735000D03*
%TD*%
D13*
%TO.P,J5,1*%
%TO.N,Net-(J1-D+-PadA6)*%
X24000000Y16570000D03*
D14*
%TO.P,J5,2*%
%TO.N,Net-(J1-D--PadA7)*%
X26540000Y16570000D03*
%TD*%
D12*
%TO.P,M2,1*%
%TO.N,GND*%
X40640000Y50800000D03*
%TD*%
%TO.P,M1,1*%
%TO.N,GND*%
X10160000Y50800000D03*
%TD*%
D13*
%TO.P,J3,1*%
%TO.N,GND*%
X40000000Y24100000D03*
D14*
%TO.P,J3,2*%
X42540000Y24100000D03*
%TO.P,J3,3*%
%TO.N,VDC*%
X40000000Y21560000D03*
%TO.P,J3,4*%
X42540000Y21560000D03*
%TO.P,J3,5*%
X40000000Y19020000D03*
%TO.P,J3,6*%
X42540000Y19020000D03*
%TO.P,J3,7*%
%TO.N,GND*%
X40000000Y16480000D03*
%TO.P,J3,8*%
X42540000Y16480000D03*
%TD*%
D13*
%TO.P,J6,1*%
%TO.N,/ALERT*%
X14255000Y32525000D03*
D14*
%TO.P,J6,2*%
X16795000Y32525000D03*
%TO.P,J6,3*%
%TO.N,/SIDE*%
X14255000Y29985000D03*
%TO.P,J6,4*%
X16795000Y29985000D03*
%TO.P,J6,5*%
%TO.N,/ATTACH*%
X14255000Y27445000D03*
%TO.P,J6,6*%
X16795000Y27445000D03*
%TO.P,J6,7*%
%TO.N,/GPIO*%
X14255000Y24905000D03*
%TO.P,J6,8*%
X16795000Y24905000D03*
%TO.P,J6,9*%
%TO.N,/PWR_OK2*%
X14255000Y22365000D03*
%TO.P,J6,10*%
X16795000Y22365000D03*
%TO.P,J6,11*%
%TO.N,/PWR_OK3*%
X14255000Y19825000D03*
%TO.P,J6,12*%
X16795000Y19825000D03*
%TO.P,J6,13*%
%TO.N,/RESET*%
X14255000Y17285000D03*
%TO.P,J6,14*%
X16795000Y17285000D03*
%TD*%
D12*
%TO.P,M4,1*%
%TO.N,GND*%
X40640000Y10160000D03*
%TD*%
D13*
%TO.P,JP1,1,A*%
%TO.N,/ADDR0*%
X23150000Y35650000D03*
D14*
%TO.P,JP1,2,B*%
%TO.N,GND*%
X20610000Y35650000D03*
%TD*%
D15*
%TO.P,J1,G1,SHIELD*%
%TO.N,GND*%
X29720000Y8135000D03*
%TO.P,J1,G2,SHIELD*%
X21080000Y8135000D03*
D16*
%TO.P,J1,G3,SHIELD*%
X29720000Y12315000D03*
%TO.P,J1,G4,SHIELD*%
X21080000Y12315000D03*
%TD*%
D17*
%TO.N,GND*%
X29800000Y14150000D03*
X18000000Y31300000D03*
D18*
X25300000Y28400000D03*
X25300000Y29700000D03*
D17*
X9400000Y30300000D03*
X23100000Y22050000D03*
D18*
X26700000Y29700000D03*
D17*
X25850000Y48100000D03*
X22800000Y10550000D03*
X19950000Y31450000D03*
X20800000Y24000000D03*
X22100000Y32850000D03*
D18*
%TO.N,/ALERT*%
X27849500Y31100000D03*
%TO.N,Net-(D1-A)*%
X8100000Y31400000D03*
X10595646Y35450500D03*
%TO.N,/GPIO*%
X25849500Y32457135D03*
X16450000Y10520000D03*
%TO.N,/PWR_OK2*%
X18560000Y15930000D03*
X28850500Y29849500D03*
X17830000Y15490000D03*
%TO.N,/PWR_OK3*%
X25349075Y32945796D03*
X19300000Y28250000D03*
%TO.N,/ATTACH*%
X15700000Y10400000D03*
X22450000Y31900000D03*
%TO.N,Net-(D5-A)*%
X7510000Y29312500D03*
X8270500Y34900000D03*
%TO.N,Net-(J1-CC1)*%
X26694401Y13842195D03*
X26800000Y25600000D03*
%TO.N,Net-(J1-CC2)*%
X23800000Y14100000D03*
X25300000Y25600000D03*
%TO.N,/SIDE*%
X13225000Y34175000D03*
X27088642Y32000500D03*
D17*
%TO.N,+3V3*%
X34900000Y39700000D03*
X9600000Y14870000D03*
X35900000Y39700000D03*
%TO.N,VCC*%
X22800000Y38100000D03*
X30000000Y35800000D03*
X17500000Y37400000D03*
D18*
X30000000Y28900000D03*
D17*
X12900000Y13900000D03*
D18*
%TO.N,/DISCH*%
X21900000Y22200000D03*
X34400000Y12400000D03*
X21900500Y15500000D03*
X23000000Y28700000D03*
D17*
%TO.N,/VBUS_EN_SINK*%
X32109500Y32600000D03*
X34000000Y23800000D03*
%TD*%
D19*
%TO.N,/ALERT*%
X16795000Y32525000D02*
X17845000Y33575000D01*
X27175940Y31100000D02*
X27849500Y31100000D01*
X25544808Y33575000D02*
X26424500Y32695308D01*
X26424500Y31851440D02*
X27175940Y31100000D01*
X17845000Y33575000D02*
X25544808Y33575000D01*
X26424500Y32695308D02*
X26424500Y31851440D01*
D20*
%TO.N,Net-(D1-A)*%
X9700500Y35450500D02*
X8000000Y33750000D01*
X8000000Y31500000D02*
X8100000Y31400000D01*
X10595646Y35450500D02*
X9700500Y35450500D01*
X8000000Y33750000D02*
X8000000Y31500000D01*
%TO.N,/GPIO*%
X25849500Y32457135D02*
X23542365Y30150000D01*
X23542365Y30150000D02*
X22450000Y30150000D01*
X13055000Y16145000D02*
X13055000Y23705000D01*
X17205000Y24905000D02*
X16795000Y24905000D01*
X16450000Y10520000D02*
X16450000Y12750000D01*
X16450000Y12750000D02*
X13055000Y16145000D01*
X13055000Y23705000D02*
X14255000Y24905000D01*
X22450000Y30150000D02*
X17205000Y24905000D01*
%TO.N,/PWR_OK2*%
X24950000Y27600000D02*
X24050000Y26700000D01*
X24050000Y26700000D02*
X24050000Y21500000D01*
X28850500Y29849500D02*
X28850500Y29700500D01*
X18560000Y16010000D02*
X18560000Y15930000D01*
X18335000Y22365000D02*
X16795000Y22365000D01*
X28850500Y29700500D02*
X26750000Y27600000D01*
X26750000Y27600000D02*
X24950000Y27600000D01*
X24050000Y21500000D02*
X18560000Y16010000D01*
X21650000Y19100000D02*
X21600000Y19100000D01*
X21600000Y19100000D02*
X18335000Y22365000D01*
D19*
%TO.N,/PWR_OK3*%
X19300000Y28250000D02*
X19400000Y28250000D01*
X23003279Y30600000D02*
X25349075Y32945796D01*
X21750000Y30600000D02*
X23003279Y30600000D01*
X19400000Y28250000D02*
X21750000Y30600000D01*
D20*
%TO.N,/ATTACH*%
X15700000Y12792894D02*
X12555000Y15937894D01*
X15700000Y10400000D02*
X15700000Y12792894D01*
X22425000Y31875000D02*
X21225000Y31875000D01*
X12555000Y15937894D02*
X12555000Y25745000D01*
X12555000Y25745000D02*
X14255000Y27445000D01*
X22450000Y31900000D02*
X22425000Y31875000D01*
X21225000Y31875000D02*
X16795000Y27445000D01*
%TO.N,Net-(D5-A)*%
X7500000Y34129500D02*
X7500000Y29322500D01*
X7500000Y29322500D02*
X7510000Y29312500D01*
X8270500Y34900000D02*
X7500000Y34129500D01*
D19*
%TO.N,Net-(J1-CC1)*%
X27715000Y15515000D02*
X27715000Y24685000D01*
X26694401Y14494401D02*
X27715000Y15515000D01*
X27715000Y24685000D02*
X26800000Y25600000D01*
X26694401Y13842195D02*
X26694401Y14494401D01*
%TO.N,Net-(J1-CC2)*%
X25300000Y15600000D02*
X23800000Y14100000D01*
X25300000Y25600000D02*
X25300000Y15600000D01*
D20*
%TO.N,/SIDE*%
X25750000Y34050000D02*
X27088642Y32711358D01*
X13225000Y34175000D02*
X13350000Y34050000D01*
X13350000Y34050000D02*
X25750000Y34050000D01*
X27088642Y32711358D02*
X27088642Y32000500D01*
X13225000Y34175000D02*
X12955000Y33905000D01*
X13275000Y29985000D02*
X14255000Y29985000D01*
X12670000Y33610000D02*
X12670000Y30590000D01*
X12955000Y33895000D02*
X12670000Y33610000D01*
X12955000Y33905000D02*
X12955000Y33895000D01*
X12670000Y30590000D02*
X13275000Y29985000D01*
D21*
%TO.N,/RESET*%
X16795000Y17285000D02*
X14255000Y17285000D01*
D22*
%TO.N,+3V3*%
X6700000Y17770000D02*
X9600000Y14870000D01*
X8509839Y36200000D02*
X6700000Y34390161D01*
X6700000Y34390161D02*
X6700000Y17770000D01*
X14300000Y39675000D02*
X35875000Y39675000D01*
X14300000Y39675000D02*
X10825000Y36200000D01*
X35875000Y39675000D02*
X35900000Y39700000D01*
X10825000Y36200000D02*
X8509839Y36200000D01*
%TO.N,VCC*%
X11600000Y34300000D02*
X11600000Y15200000D01*
X14700000Y37400000D02*
X11600000Y34300000D01*
X17500000Y37400000D02*
X22100000Y37400000D01*
X11600000Y15200000D02*
X12900000Y13900000D01*
D20*
X28875000Y38100000D02*
X22800000Y38100000D01*
X30000000Y28900000D02*
X30000000Y36975000D01*
D22*
X22100000Y37400000D02*
X22800000Y38100000D01*
D20*
X30000000Y36975000D02*
X28875000Y38100000D01*
D22*
X17500000Y37400000D02*
X14700000Y37400000D01*
D20*
%TO.N,/DISCH*%
X26265000Y10135000D02*
X32135000Y10135000D01*
X21900500Y15500000D02*
X21900500Y14499500D01*
X32135000Y10135000D02*
X34400000Y12400000D01*
X22650000Y28350000D02*
X23000000Y28700000D01*
X21900000Y22200000D02*
X22650000Y22950000D01*
X22650000Y22950000D02*
X22650000Y28350000D01*
X21900500Y14499500D02*
X26265000Y10135000D01*
%TO.N,/VBUS_EN_SINK*%
X34000000Y30709500D02*
X32109500Y32600000D01*
X34000000Y23800000D02*
X34000000Y30709500D01*
D22*
%TO.N,/EXT_PWR*%
X17400000Y44755000D02*
X15605000Y44755000D01*
X15605000Y44755000D02*
X13045000Y42195000D01*
X13045000Y42195000D02*
X8060000Y42195000D01*
X17400000Y44755000D02*
X20190000Y44755000D01*
X20190000Y44755000D02*
X25395000Y49960000D01*
X25395000Y49960000D02*
X25395000Y52500000D01*
D23*
%TO.N,VDC*%
X37050000Y23250000D02*
X38740000Y21560000D01*
X37050000Y31500000D02*
X37050000Y23250000D01*
X35100000Y33450000D02*
X37050000Y31500000D01*
X38740000Y21560000D02*
X42540000Y21560000D01*
X35100000Y36400000D02*
X35100000Y33450000D01*
%TD*%
%TA.AperFunction,Conductor*%
%TO.N,GND*%
G36*
X17176194Y36835297D02*
G01*
X17267635Y36787304D01*
X17337091Y36770185D01*
X17421014Y36749500D01*
X17421015Y36749500D01*
X17578985Y36749500D01*
X17732365Y36787304D01*
X17823805Y36835297D01*
X17881431Y36849500D01*
X20131646Y36849500D01*
X20198685Y36829815D01*
X20244440Y36777011D01*
X20254384Y36707853D01*
X20225359Y36644297D01*
X20190099Y36616142D01*
X20023833Y36527272D01*
X20023826Y36527268D01*
X19863944Y36396056D01*
X19732732Y36236174D01*
X19732728Y36236167D01*
X19635233Y36053767D01*
X19588590Y35900000D01*
X19996653Y35900000D01*
X20063692Y35880315D01*
X20109447Y35827511D01*
X20119391Y35758353D01*
X20115631Y35741067D01*
X20110000Y35721889D01*
X20110000Y35578112D01*
X20115631Y35558933D01*
X20115630Y35489064D01*
X20077855Y35430286D01*
X20014299Y35401262D01*
X19996653Y35400000D01*
X19588590Y35400000D01*
X19635233Y35246234D01*
X19732728Y35063834D01*
X19732732Y35063827D01*
X19863944Y34903945D01*
X20023826Y34772733D01*
X20023833Y34772729D01*
X20190099Y34683858D01*
X20239943Y34634896D01*
X20255404Y34566759D01*
X20231573Y34501079D01*
X20176015Y34458710D01*
X20131646Y34450500D01*
X13705163Y34450500D01*
X13638124Y34470185D01*
X13611450Y34493297D01*
X13556128Y34557143D01*
X13435053Y34634953D01*
X13435051Y34634954D01*
X13435049Y34634955D01*
X13435050Y34634955D01*
X13296963Y34675500D01*
X13296961Y34675500D01*
X13153039Y34675500D01*
X13153035Y34675500D01*
X13054307Y34646511D01*
X12984437Y34646511D01*
X12925659Y34684286D01*
X12896635Y34747842D01*
X12906579Y34817000D01*
X12931689Y34853166D01*
X14891704Y36813181D01*
X14953028Y36846666D01*
X14979386Y36849500D01*
X17118569Y36849500D01*
X17176194Y36835297D01*
G37*
%TD.AperFunction*%
%TA.AperFunction,Conductor*%
G36*
X22067306Y36829815D02*
G01*
X22113061Y36777011D01*
X22123005Y36707853D01*
X22103369Y36656612D01*
X22095142Y36644297D01*
X22064034Y36597741D01*
X22064032Y36597736D01*
X22049500Y36524679D01*
X22049499Y36524677D01*
X22049499Y34775324D01*
X22049500Y34775322D01*
X22064032Y34702265D01*
X22064034Y34702260D01*
X22103369Y34643390D01*
X22124247Y34576713D01*
X22105762Y34509333D01*
X22053783Y34462643D01*
X22000267Y34450500D01*
X21088354Y34450500D01*
X21021315Y34470185D01*
X20975560Y34522989D01*
X20965616Y34592147D01*
X20994641Y34655703D01*
X21029901Y34683858D01*
X21196166Y34772729D01*
X21196173Y34772733D01*
X21356055Y34903945D01*
X21487267Y35063827D01*
X21487271Y35063834D01*
X21584766Y35246234D01*
X21631410Y35400000D01*
X21223347Y35400000D01*
X21156308Y35419685D01*
X21110553Y35472489D01*
X21100609Y35541647D01*
X21104369Y35558933D01*
X21110000Y35578112D01*
X21110000Y35721889D01*
X21104369Y35741067D01*
X21104370Y35810936D01*
X21142145Y35869714D01*
X21205701Y35898738D01*
X21223347Y35900000D01*
X21631410Y35900000D01*
X21584766Y36053767D01*
X21487271Y36236167D01*
X21487267Y36236174D01*
X21356055Y36396056D01*
X21196173Y36527268D01*
X21196166Y36527272D01*
X21029901Y36616142D01*
X20980057Y36665104D01*
X20964596Y36733241D01*
X20988427Y36798921D01*
X21043985Y36841290D01*
X21088354Y36849500D01*
X22000267Y36849500D01*
X22067306Y36829815D01*
G37*
%TD.AperFunction*%
%TA.AperFunction,Conductor*%
G36*
X45343039Y55580315D02*
G01*
X45388794Y55527511D01*
X45400000Y55476000D01*
X45400000Y5524000D01*
X45380315Y5456961D01*
X45327511Y5411206D01*
X45276000Y5400000D01*
X5524000Y5400000D01*
X5456961Y5419685D01*
X5411206Y5472489D01*
X5400000Y5524000D01*
X5400000Y7592658D01*
X20380000Y7592658D01*
X20395348Y7466251D01*
X20395349Y7466249D01*
X20455630Y7307303D01*
X20552192Y7167407D01*
X20552198Y7167401D01*
X20679432Y7054681D01*
X20829951Y6975684D01*
X20830000Y6975672D01*
X20830000Y7330022D01*
X20849685Y7397061D01*
X20902489Y7442816D01*
X20971647Y7452760D01*
X20987926Y7449291D01*
X21051840Y7431105D01*
X21163521Y7441454D01*
X21163526Y7441457D01*
X21172063Y7443885D01*
X21241930Y7443299D01*
X21300390Y7405034D01*
X21328881Y7341237D01*
X21330000Y7324619D01*
X21330000Y6975672D01*
X21330048Y6975684D01*
X21480567Y7054681D01*
X21607801Y7167401D01*
X21607807Y7167407D01*
X21704369Y7307303D01*
X21764650Y7466249D01*
X21764651Y7466251D01*
X21780000Y7592658D01*
X29020000Y7592658D01*
X29035348Y7466251D01*
X29035349Y7466249D01*
X29095630Y7307303D01*
X29192192Y7167407D01*
X29192198Y7167401D01*
X29319432Y7054681D01*
X29469951Y6975684D01*
X29470000Y6975672D01*
X29470000Y7330022D01*
X29489685Y7397061D01*
X29542489Y7442816D01*
X29611647Y7452760D01*
X29627926Y7449291D01*
X29691840Y7431105D01*
X29803521Y7441454D01*
X29803526Y7441457D01*
X29812063Y7443885D01*
X29881930Y7443299D01*
X29940390Y7405034D01*
X29968881Y7341237D01*
X29970000Y7324619D01*
X29970000Y6975672D01*
X29970048Y6975684D01*
X30120567Y7054681D01*
X30247801Y7167401D01*
X30247807Y7167407D01*
X30344369Y7307303D01*
X30404650Y7466249D01*
X30404651Y7466251D01*
X30420000Y7592658D01*
X30420000Y7885000D01*
X30144000Y7885000D01*
X30076961Y7904685D01*
X30031206Y7957489D01*
X30020000Y8009000D01*
X30020000Y8261000D01*
X30039685Y8328039D01*
X30092489Y8373794D01*
X30144000Y8385000D01*
X30420000Y8385000D01*
X30420000Y8677343D01*
X30404651Y8803750D01*
X30404650Y8803752D01*
X30344369Y8962698D01*
X30247807Y9102594D01*
X30247801Y9102600D01*
X30120567Y9215320D01*
X29970044Y9294319D01*
X29970045Y9294319D01*
X29970000Y9294331D01*
X29970000Y8939979D01*
X29950315Y8872940D01*
X29897511Y8827185D01*
X29828353Y8817241D01*
X29812066Y8820713D01*
X29748162Y8838895D01*
X29748162Y8838896D01*
X29636475Y8828546D01*
X29627931Y8826115D01*
X29558064Y8826703D01*
X29499606Y8864972D01*
X29471118Y8928770D01*
X29470000Y8945382D01*
X29470000Y9294331D01*
X29469954Y9294319D01*
X29319432Y9215320D01*
X29192198Y9102600D01*
X29192192Y9102594D01*
X29095630Y8962698D01*
X29035349Y8803752D01*
X29035348Y8803750D01*
X29020000Y8677343D01*
X29020000Y8385000D01*
X29296000Y8385000D01*
X29363039Y8365315D01*
X29408794Y8312511D01*
X29420000Y8261000D01*
X29420000Y8009000D01*
X29400315Y7941961D01*
X29347511Y7896206D01*
X29296000Y7885000D01*
X29020000Y7885000D01*
X29020000Y7592658D01*
X21780000Y7592658D01*
X21780000Y7885000D01*
X21504000Y7885000D01*
X21436961Y7904685D01*
X21391206Y7957489D01*
X21380000Y8009000D01*
X21380000Y8261000D01*
X21399685Y8328039D01*
X21452489Y8373794D01*
X21504000Y8385000D01*
X21780000Y8385000D01*
X21780000Y8677343D01*
X21764651Y8803750D01*
X21764650Y8803752D01*
X21704369Y8962698D01*
X21607807Y9102594D01*
X21607801Y9102600D01*
X21480567Y9215320D01*
X21330044Y9294319D01*
X21330045Y9294319D01*
X21330000Y9294331D01*
X21330000Y8939979D01*
X21310315Y8872940D01*
X21257511Y8827185D01*
X21188353Y8817241D01*
X21172066Y8820713D01*
X21108162Y8838895D01*
X21108162Y8838896D01*
X20996475Y8828546D01*
X20987931Y8826115D01*
X20918064Y8826703D01*
X20859606Y8864972D01*
X20831118Y8928770D01*
X20830000Y8945382D01*
X20830000Y9294331D01*
X20829954Y9294319D01*
X20679432Y9215320D01*
X20552198Y9102600D01*
X20552192Y9102594D01*
X20455630Y8962698D01*
X20395349Y8803752D01*
X20395348Y8803750D01*
X20380000Y8677343D01*
X20380000Y8385000D01*
X20656000Y8385000D01*
X20723039Y8365315D01*
X20768794Y8312511D01*
X20780000Y8261000D01*
X20780000Y8009000D01*
X20760315Y7941961D01*
X20707511Y7896206D01*
X20656000Y7885000D01*
X20380000Y7885000D01*
X20380000Y7592658D01*
X5400000Y7592658D01*
X5400000Y34371186D01*
X6144648Y34371186D01*
X6147697Y34353501D01*
X6149499Y34332437D01*
X6149499Y17779398D01*
X6147238Y17713176D01*
X6147238Y17713174D01*
X6157715Y17670179D01*
X6158901Y17663939D01*
X6164929Y17620080D01*
X6172079Y17603621D01*
X6178818Y17583581D01*
X6183067Y17566148D01*
X6191506Y17551138D01*
X6204763Y17527561D01*
X6207582Y17521885D01*
X6216475Y17501413D01*
X6225221Y17481278D01*
X6236541Y17467364D01*
X6248439Y17449883D01*
X6257234Y17434240D01*
X6257236Y17434239D01*
X6288532Y17402943D01*
X6292783Y17398234D01*
X6320722Y17363892D01*
X6335381Y17353545D01*
X6351552Y17339923D01*
X8936063Y14755413D01*
X8964323Y14711704D01*
X9019780Y14565477D01*
X9109517Y14435470D01*
X9227760Y14330717D01*
X9227762Y14330716D01*
X9367634Y14257304D01*
X9521014Y14219500D01*
X9521015Y14219500D01*
X9678985Y14219500D01*
X9832365Y14257304D01*
X9839712Y14261160D01*
X9972240Y14330717D01*
X10090483Y14435470D01*
X10180220Y14565477D01*
X10236237Y14713182D01*
X10255278Y14870000D01*
X10251956Y14897364D01*
X10236237Y15026819D01*
X10210781Y15093939D01*
X10180220Y15174523D01*
X10090483Y15304530D01*
X9972240Y15409283D01*
X9972238Y15409284D01*
X9972237Y15409285D01*
X9832366Y15482696D01*
X9777626Y15496188D01*
X9719620Y15528904D01*
X7286819Y17961706D01*
X7253334Y18023029D01*
X7250500Y18049387D01*
X7250500Y18453444D01*
X8412305Y18453444D01*
X8418969Y18402832D01*
X8419500Y18394731D01*
X8419500Y18338605D01*
X8421249Y18330943D01*
X8419794Y18307218D01*
X8431090Y18279948D01*
X8437420Y18260090D01*
X8444596Y18228650D01*
X8455015Y18207015D01*
X8459280Y18181108D01*
X8473537Y18162528D01*
X8486880Y18140846D01*
X8493531Y18127036D01*
X8493533Y18127032D01*
X8516965Y18097650D01*
X8527803Y18071101D01*
X8542420Y18059885D01*
X8558880Y18043729D01*
X8558930Y18043778D01*
X8568778Y18033930D01*
X8568728Y18033881D01*
X8584882Y18017422D01*
X8591528Y18008761D01*
X8596167Y18008122D01*
X8622649Y17991966D01*
X8652031Y17968534D01*
X8665844Y17961882D01*
X8687531Y17948536D01*
X8698509Y17940112D01*
X8700333Y17940306D01*
X8732015Y17930015D01*
X8752016Y17920384D01*
X8753649Y17919597D01*
X8785095Y17912420D01*
X8804952Y17906091D01*
X8822149Y17898968D01*
X8855942Y17896249D01*
X8863601Y17894501D01*
X8863604Y17894501D01*
X8863607Y17894500D01*
X8863609Y17894500D01*
X8919738Y17894500D01*
X8927839Y17893969D01*
X8966549Y17888873D01*
X9002940Y17894500D01*
X10037062Y17894500D01*
X10061558Y17887307D01*
X10112162Y17893969D01*
X10120263Y17894500D01*
X10176391Y17894500D01*
X10176393Y17894500D01*
X10184060Y17896250D01*
X10207782Y17894798D01*
X10235048Y17906091D01*
X10254904Y17912420D01*
X10286351Y17919597D01*
X10307986Y17930017D01*
X10333890Y17934283D01*
X10352465Y17948535D01*
X10374152Y17961880D01*
X10387967Y17968533D01*
X10387968Y17968534D01*
X10417348Y17991965D01*
X10443902Y18002806D01*
X10455116Y18017420D01*
X10471271Y18033881D01*
X10471222Y18033930D01*
X10481070Y18043778D01*
X10481119Y18043729D01*
X10497580Y18059884D01*
X10506242Y18066531D01*
X10506882Y18071177D01*
X10523036Y18097652D01*
X10546465Y18127031D01*
X10546467Y18127033D01*
X10553120Y18140848D01*
X10566465Y18162535D01*
X10574885Y18173510D01*
X10574692Y18175328D01*
X10584984Y18207014D01*
X10595403Y18228649D01*
X10602580Y18260096D01*
X10608909Y18279952D01*
X10616028Y18297140D01*
X10618750Y18330941D01*
X10620500Y18338607D01*
X10620500Y18394739D01*
X10621031Y18402840D01*
X10626126Y18441545D01*
X10620500Y18477939D01*
X10620500Y19712063D01*
X10627693Y19736560D01*
X10621031Y19787163D01*
X10620500Y19795264D01*
X10620500Y19851392D01*
X10620499Y19851400D01*
X10618749Y19859067D01*
X10620202Y19882787D01*
X10608908Y19910054D01*
X10602578Y19929915D01*
X10595403Y19961351D01*
X10584982Y19982989D01*
X10580716Y20008896D01*
X10566463Y20027471D01*
X10553119Y20049155D01*
X10546467Y20062967D01*
X10546466Y20062969D01*
X10523033Y20092352D01*
X10512192Y20118906D01*
X10497577Y20130120D01*
X10481119Y20146272D01*
X10481070Y20146222D01*
X10471222Y20156070D01*
X10471271Y20156120D01*
X10455117Y20172579D01*
X10448468Y20181244D01*
X10443819Y20181884D01*
X10417350Y20198035D01*
X10387969Y20221467D01*
X10387966Y20221468D01*
X10374155Y20228119D01*
X10352470Y20241463D01*
X10341489Y20249889D01*
X10339665Y20249694D01*
X10307989Y20259984D01*
X10286352Y20270404D01*
X10286353Y20270404D01*
X10254913Y20277579D01*
X10235053Y20283909D01*
X10217864Y20291029D01*
X10184069Y20293749D01*
X10176400Y20295499D01*
X10176394Y20295500D01*
X10176393Y20295500D01*
X10120271Y20295500D01*
X10112169Y20296031D01*
X10073453Y20301129D01*
X10037063Y20295500D01*
X9002939Y20295500D01*
X8978439Y20302694D01*
X8927830Y20296031D01*
X8919729Y20295500D01*
X8863607Y20295500D01*
X8863605Y20295500D01*
X8863598Y20295499D01*
X8855934Y20293750D01*
X8832216Y20295205D01*
X8804943Y20283908D01*
X8785085Y20277579D01*
X8753645Y20270403D01*
X8732009Y20259984D01*
X8706105Y20255720D01*
X8687523Y20241461D01*
X8665846Y20228121D01*
X8652037Y20221471D01*
X8652026Y20221464D01*
X8622647Y20198034D01*
X8596096Y20187195D01*
X8584880Y20172577D01*
X8568728Y20156120D01*
X8568778Y20156070D01*
X8558930Y20146222D01*
X8558880Y20146272D01*
X8542423Y20130120D01*
X8533756Y20123470D01*
X8533117Y20118825D01*
X8516966Y20092353D01*
X8493536Y20062974D01*
X8493529Y20062963D01*
X8486879Y20049154D01*
X8473539Y20027477D01*
X8465110Y20016493D01*
X8465305Y20014668D01*
X8455016Y19982991D01*
X8444597Y19961355D01*
X8437421Y19929915D01*
X8431092Y19910057D01*
X8423968Y19892860D01*
X8421250Y19859066D01*
X8419501Y19851402D01*
X8419500Y19851392D01*
X8419500Y19795271D01*
X8418969Y19787170D01*
X8413871Y19748453D01*
X8419500Y19712061D01*
X8419499Y18477941D01*
X8412305Y18453444D01*
X7250500Y18453444D01*
X7250500Y21483442D01*
X8427306Y21483442D01*
X8433969Y21432832D01*
X8434500Y21424731D01*
X8434500Y21368605D01*
X8436249Y21360943D01*
X8434794Y21337218D01*
X8446090Y21309948D01*
X8452420Y21290090D01*
X8459596Y21258650D01*
X8470015Y21237015D01*
X8474280Y21211108D01*
X8488537Y21192528D01*
X8501880Y21170846D01*
X8508531Y21157036D01*
X8508533Y21157032D01*
X8531965Y21127650D01*
X8542803Y21101101D01*
X8557420Y21089885D01*
X8573880Y21073729D01*
X8573930Y21073778D01*
X8583778Y21063930D01*
X8583728Y21063881D01*
X8599882Y21047422D01*
X8606528Y21038761D01*
X8611167Y21038122D01*
X8637649Y21021966D01*
X8667031Y20998534D01*
X8667032Y20998534D01*
X8667033Y20998533D01*
X8667290Y20998409D01*
X8680844Y20991882D01*
X8702531Y20978536D01*
X8713509Y20970112D01*
X8715333Y20970306D01*
X8747015Y20960015D01*
X8767016Y20950384D01*
X8768649Y20949597D01*
X8800095Y20942420D01*
X8819952Y20936091D01*
X8837149Y20928968D01*
X8870942Y20926249D01*
X8878601Y20924501D01*
X8878604Y20924501D01*
X8878607Y20924500D01*
X8878609Y20924500D01*
X8934738Y20924500D01*
X8942839Y20923969D01*
X8981549Y20918873D01*
X9017940Y20924500D01*
X10052062Y20924500D01*
X10076558Y20917307D01*
X10127162Y20923969D01*
X10135263Y20924500D01*
X10191391Y20924500D01*
X10191393Y20924500D01*
X10199060Y20926250D01*
X10222782Y20924798D01*
X10250048Y20936091D01*
X10269904Y20942420D01*
X10301351Y20949597D01*
X10322986Y20960017D01*
X10348890Y20964283D01*
X10367465Y20978535D01*
X10389152Y20991880D01*
X10402967Y20998533D01*
X10402968Y20998534D01*
X10432348Y21021965D01*
X10458902Y21032806D01*
X10470116Y21047420D01*
X10486271Y21063881D01*
X10486222Y21063930D01*
X10496070Y21073778D01*
X10496119Y21073729D01*
X10512580Y21089884D01*
X10521242Y21096531D01*
X10521882Y21101177D01*
X10538036Y21127652D01*
X10561465Y21157031D01*
X10561467Y21157033D01*
X10568120Y21170848D01*
X10581465Y21192535D01*
X10589885Y21203510D01*
X10589692Y21205328D01*
X10599984Y21237014D01*
X10610403Y21258649D01*
X10617580Y21290096D01*
X10623909Y21309952D01*
X10631028Y21327140D01*
X10633750Y21360941D01*
X10635500Y21368607D01*
X10635500Y21424739D01*
X10636031Y21432840D01*
X10641126Y21471545D01*
X10635500Y21507939D01*
X10635500Y22742063D01*
X10642693Y22766560D01*
X10636031Y22817163D01*
X10635500Y22825264D01*
X10635500Y22881392D01*
X10635499Y22881400D01*
X10633749Y22889067D01*
X10635202Y22912787D01*
X10623908Y22940054D01*
X10617578Y22959915D01*
X10610403Y22991351D01*
X10599982Y23012989D01*
X10595716Y23038896D01*
X10581463Y23057471D01*
X10568119Y23079155D01*
X10561467Y23092967D01*
X10561466Y23092969D01*
X10538033Y23122352D01*
X10527192Y23148906D01*
X10512577Y23160120D01*
X10496119Y23176272D01*
X10496070Y23176222D01*
X10486222Y23186070D01*
X10486271Y23186120D01*
X10470117Y23202579D01*
X10463468Y23211244D01*
X10458819Y23211884D01*
X10432350Y23228035D01*
X10402969Y23251467D01*
X10402966Y23251468D01*
X10389155Y23258119D01*
X10367470Y23271463D01*
X10356489Y23279889D01*
X10354665Y23279694D01*
X10322989Y23289984D01*
X10301352Y23300404D01*
X10301353Y23300404D01*
X10269913Y23307579D01*
X10250053Y23313909D01*
X10232864Y23321029D01*
X10199069Y23323749D01*
X10191400Y23325499D01*
X10191394Y23325500D01*
X10191393Y23325500D01*
X10135271Y23325500D01*
X10127169Y23326031D01*
X10088453Y23331129D01*
X10052063Y23325500D01*
X9017939Y23325500D01*
X8993439Y23332694D01*
X8942830Y23326031D01*
X8934729Y23325500D01*
X8878607Y23325500D01*
X8878605Y23325500D01*
X8878598Y23325499D01*
X8870934Y23323750D01*
X8847216Y23325205D01*
X8819943Y23313908D01*
X8800085Y23307579D01*
X8768645Y23300403D01*
X8747009Y23289984D01*
X8721105Y23285720D01*
X8702523Y23271461D01*
X8680846Y23258121D01*
X8667037Y23251471D01*
X8667026Y23251464D01*
X8637647Y23228034D01*
X8611096Y23217195D01*
X8599880Y23202577D01*
X8583728Y23186120D01*
X8583778Y23186070D01*
X8573930Y23176222D01*
X8573880Y23176272D01*
X8557423Y23160120D01*
X8548756Y23153470D01*
X8548117Y23148825D01*
X8531966Y23122353D01*
X8508536Y23092974D01*
X8508529Y23092963D01*
X8501879Y23079154D01*
X8488539Y23057477D01*
X8480110Y23046493D01*
X8480305Y23044668D01*
X8470016Y23012991D01*
X8459597Y22991355D01*
X8452421Y22959915D01*
X8446092Y22940057D01*
X8438968Y22922860D01*
X8436250Y22889066D01*
X8434501Y22881402D01*
X8434500Y22881392D01*
X8434500Y22825274D01*
X8433969Y22817173D01*
X8428871Y22778453D01*
X8434500Y22742058D01*
X8434500Y21507941D01*
X8427306Y21483442D01*
X7250500Y21483442D01*
X7250500Y24513442D01*
X8437306Y24513442D01*
X8443969Y24462832D01*
X8444500Y24454731D01*
X8444500Y24398605D01*
X8446249Y24390943D01*
X8444794Y24367218D01*
X8456090Y24339948D01*
X8462420Y24320090D01*
X8469596Y24288650D01*
X8480015Y24267015D01*
X8484280Y24241108D01*
X8498537Y24222528D01*
X8511880Y24200846D01*
X8518531Y24187036D01*
X8518533Y24187032D01*
X8541965Y24157650D01*
X8552803Y24131101D01*
X8567420Y24119885D01*
X8583880Y24103729D01*
X8583930Y24103778D01*
X8593778Y24093930D01*
X8593728Y24093881D01*
X8609882Y24077422D01*
X8616528Y24068761D01*
X8621167Y24068122D01*
X8647649Y24051966D01*
X8677031Y24028534D01*
X8690844Y24021882D01*
X8712531Y24008536D01*
X8723509Y24000112D01*
X8725333Y24000306D01*
X8757015Y23990015D01*
X8777016Y23980384D01*
X8778649Y23979597D01*
X8810095Y23972420D01*
X8829952Y23966091D01*
X8847149Y23958968D01*
X8880942Y23956249D01*
X8888601Y23954501D01*
X8888604Y23954501D01*
X8888607Y23954500D01*
X8888609Y23954500D01*
X8944738Y23954500D01*
X8952839Y23953969D01*
X8991549Y23948873D01*
X9027940Y23954500D01*
X10062062Y23954500D01*
X10086558Y23947307D01*
X10137162Y23953969D01*
X10145263Y23954500D01*
X10201391Y23954500D01*
X10201393Y23954500D01*
X10209060Y23956250D01*
X10232782Y23954798D01*
X10260048Y23966091D01*
X10279904Y23972420D01*
X10311351Y23979597D01*
X10332986Y23990017D01*
X10358890Y23994283D01*
X10377465Y24008535D01*
X10399152Y24021880D01*
X10412967Y24028533D01*
X10412968Y24028534D01*
X10442348Y24051965D01*
X10468902Y24062806D01*
X10480116Y24077420D01*
X10496271Y24093881D01*
X10496222Y24093930D01*
X10506070Y24103778D01*
X10506119Y24103729D01*
X10522580Y24119884D01*
X10531242Y24126531D01*
X10531882Y24131177D01*
X10548036Y24157652D01*
X10571465Y24187031D01*
X10571467Y24187033D01*
X10578120Y24200848D01*
X10591465Y24222535D01*
X10599885Y24233510D01*
X10599692Y24235328D01*
X10609984Y24267014D01*
X10620403Y24288649D01*
X10627580Y24320096D01*
X10633909Y24339952D01*
X10641028Y24357140D01*
X10643750Y24390941D01*
X10645500Y24398607D01*
X10645500Y24454739D01*
X10646031Y24462840D01*
X10651126Y24501545D01*
X10645500Y24537939D01*
X10645500Y25772063D01*
X10652693Y25796560D01*
X10646031Y25847163D01*
X10645500Y25855264D01*
X10645500Y25911392D01*
X10645499Y25911400D01*
X10643749Y25919067D01*
X10645202Y25942787D01*
X10633908Y25970054D01*
X10627578Y25989915D01*
X10620403Y26021351D01*
X10609982Y26042989D01*
X10605716Y26068896D01*
X10591463Y26087471D01*
X10578119Y26109155D01*
X10571467Y26122967D01*
X10571466Y26122969D01*
X10548033Y26152352D01*
X10537192Y26178906D01*
X10522577Y26190120D01*
X10506119Y26206272D01*
X10506070Y26206222D01*
X10496222Y26216070D01*
X10496271Y26216120D01*
X10480117Y26232579D01*
X10473468Y26241244D01*
X10468819Y26241884D01*
X10442350Y26258035D01*
X10412969Y26281467D01*
X10412966Y26281468D01*
X10399155Y26288119D01*
X10377470Y26301463D01*
X10366489Y26309889D01*
X10364665Y26309694D01*
X10332989Y26319984D01*
X10311352Y26330404D01*
X10311353Y26330404D01*
X10279913Y26337579D01*
X10260053Y26343909D01*
X10242864Y26351029D01*
X10209069Y26353749D01*
X10201400Y26355499D01*
X10201394Y26355500D01*
X10201393Y26355500D01*
X10145271Y26355500D01*
X10137169Y26356031D01*
X10098453Y26361129D01*
X10062063Y26355500D01*
X9027939Y26355500D01*
X9003439Y26362694D01*
X8952830Y26356031D01*
X8944729Y26355500D01*
X8888607Y26355500D01*
X8888605Y26355500D01*
X8888598Y26355499D01*
X8880934Y26353750D01*
X8857216Y26355205D01*
X8829943Y26343908D01*
X8810085Y26337579D01*
X8778645Y26330403D01*
X8757009Y26319984D01*
X8731105Y26315720D01*
X8712523Y26301461D01*
X8690846Y26288121D01*
X8677037Y26281471D01*
X8677026Y26281464D01*
X8647647Y26258034D01*
X8621096Y26247195D01*
X8609880Y26232577D01*
X8593728Y26216120D01*
X8593778Y26216070D01*
X8583930Y26206222D01*
X8583880Y26206272D01*
X8567423Y26190120D01*
X8558756Y26183470D01*
X8558117Y26178825D01*
X8541966Y26152353D01*
X8518536Y26122974D01*
X8518529Y26122963D01*
X8511879Y26109154D01*
X8498539Y26087477D01*
X8490110Y26076493D01*
X8490305Y26074668D01*
X8480016Y26042991D01*
X8469597Y26021355D01*
X8462421Y25989915D01*
X8456092Y25970057D01*
X8448968Y25952860D01*
X8446250Y25919066D01*
X8444501Y25911402D01*
X8444500Y25911392D01*
X8444500Y25855273D01*
X8443969Y25847172D01*
X8438868Y25808427D01*
X8444500Y25772018D01*
X8444500Y24537941D01*
X8437306Y24513442D01*
X7250500Y24513442D01*
X7250500Y27543442D01*
X8437306Y27543442D01*
X8443969Y27492832D01*
X8444500Y27484731D01*
X8444500Y27428605D01*
X8446249Y27420943D01*
X8444794Y27397218D01*
X8456090Y27369948D01*
X8462420Y27350090D01*
X8469596Y27318650D01*
X8480015Y27297015D01*
X8484280Y27271108D01*
X8498537Y27252528D01*
X8511880Y27230846D01*
X8518531Y27217036D01*
X8518533Y27217032D01*
X8541965Y27187650D01*
X8552803Y27161101D01*
X8567420Y27149885D01*
X8583880Y27133729D01*
X8583930Y27133778D01*
X8593778Y27123930D01*
X8593728Y27123881D01*
X8609882Y27107422D01*
X8616528Y27098761D01*
X8621167Y27098122D01*
X8647649Y27081966D01*
X8677031Y27058534D01*
X8690844Y27051882D01*
X8712531Y27038536D01*
X8723509Y27030112D01*
X8725333Y27030306D01*
X8757015Y27020015D01*
X8777016Y27010384D01*
X8778649Y27009597D01*
X8810095Y27002420D01*
X8829952Y26996091D01*
X8847149Y26988968D01*
X8880942Y26986249D01*
X8888601Y26984501D01*
X8888604Y26984501D01*
X8888607Y26984500D01*
X8888609Y26984500D01*
X8944738Y26984500D01*
X8952839Y26983969D01*
X8991549Y26978873D01*
X9027940Y26984500D01*
X10062062Y26984500D01*
X10086558Y26977307D01*
X10137162Y26983969D01*
X10145263Y26984500D01*
X10201391Y26984500D01*
X10201393Y26984500D01*
X10209060Y26986250D01*
X10232782Y26984798D01*
X10260048Y26996091D01*
X10279904Y27002420D01*
X10311351Y27009597D01*
X10332986Y27020017D01*
X10358890Y27024283D01*
X10377465Y27038535D01*
X10399152Y27051880D01*
X10412967Y27058533D01*
X10412968Y27058534D01*
X10442348Y27081965D01*
X10468902Y27092806D01*
X10480116Y27107420D01*
X10496271Y27123881D01*
X10496222Y27123930D01*
X10506070Y27133778D01*
X10506119Y27133729D01*
X10522580Y27149884D01*
X10531242Y27156531D01*
X10531882Y27161177D01*
X10548036Y27187652D01*
X10571467Y27217033D01*
X10578119Y27230848D01*
X10591465Y27252535D01*
X10599885Y27263510D01*
X10599692Y27265328D01*
X10609984Y27297014D01*
X10620403Y27318649D01*
X10627580Y27350096D01*
X10633909Y27369952D01*
X10641028Y27387140D01*
X10643750Y27420941D01*
X10645500Y27428607D01*
X10645500Y27484739D01*
X10646031Y27492840D01*
X10651126Y27531545D01*
X10645500Y27567939D01*
X10645500Y28802063D01*
X10652693Y28826560D01*
X10646031Y28877163D01*
X10645500Y28885264D01*
X10645500Y28941392D01*
X10645499Y28941400D01*
X10643749Y28949067D01*
X10645202Y28972787D01*
X10633908Y29000054D01*
X10627578Y29019915D01*
X10620403Y29051351D01*
X10609982Y29072989D01*
X10605716Y29098896D01*
X10591463Y29117471D01*
X10578119Y29139155D01*
X10571467Y29152967D01*
X10571466Y29152969D01*
X10548033Y29182352D01*
X10537192Y29208906D01*
X10522577Y29220120D01*
X10506119Y29236272D01*
X10506070Y29236222D01*
X10496222Y29246070D01*
X10496271Y29246120D01*
X10480117Y29262579D01*
X10473468Y29271244D01*
X10468819Y29271884D01*
X10442350Y29288035D01*
X10412969Y29311467D01*
X10412966Y29311468D01*
X10399155Y29318119D01*
X10377470Y29331463D01*
X10366489Y29339889D01*
X10364665Y29339694D01*
X10332989Y29349984D01*
X10311352Y29360404D01*
X10311353Y29360404D01*
X10279913Y29367579D01*
X10260053Y29373909D01*
X10242864Y29381029D01*
X10209069Y29383749D01*
X10201400Y29385499D01*
X10201394Y29385500D01*
X10201393Y29385500D01*
X10145271Y29385500D01*
X10137169Y29386031D01*
X10098453Y29391129D01*
X10062063Y29385500D01*
X9027939Y29385500D01*
X9003439Y29392694D01*
X8952830Y29386031D01*
X8944729Y29385500D01*
X8888607Y29385500D01*
X8888605Y29385500D01*
X8888598Y29385499D01*
X8880934Y29383750D01*
X8857216Y29385205D01*
X8829943Y29373908D01*
X8810085Y29367579D01*
X8778645Y29360403D01*
X8757009Y29349984D01*
X8731105Y29345720D01*
X8712523Y29331461D01*
X8690846Y29318121D01*
X8677037Y29311471D01*
X8677026Y29311464D01*
X8647647Y29288034D01*
X8621096Y29277195D01*
X8609880Y29262577D01*
X8593728Y29246120D01*
X8593778Y29246070D01*
X8583930Y29236222D01*
X8583880Y29236272D01*
X8567423Y29220120D01*
X8558756Y29213470D01*
X8558117Y29208825D01*
X8541966Y29182353D01*
X8518536Y29152974D01*
X8518529Y29152963D01*
X8511879Y29139154D01*
X8498539Y29117477D01*
X8490110Y29106493D01*
X8490305Y29104668D01*
X8480016Y29072991D01*
X8469597Y29051355D01*
X8462421Y29019915D01*
X8456092Y29000057D01*
X8448968Y28982860D01*
X8446250Y28949066D01*
X8444501Y28941402D01*
X8444500Y28941392D01*
X8444500Y28885276D01*
X8443969Y28877174D01*
X8438868Y28838436D01*
X8444500Y28802022D01*
X8444500Y27567941D01*
X8437306Y27543442D01*
X7250500Y27543442D01*
X7250500Y28701422D01*
X7270185Y28768461D01*
X7322989Y28814216D01*
X7392147Y28824160D01*
X7409429Y28820401D01*
X7438039Y28812000D01*
X7581962Y28812000D01*
X7581962Y28812001D01*
X7720053Y28852547D01*
X7841128Y28930357D01*
X7935377Y29039127D01*
X7995165Y29170043D01*
X8015647Y29312500D01*
X7995165Y29454957D01*
X7935377Y29585873D01*
X7930783Y29591175D01*
X7901761Y29654732D01*
X7900500Y29672374D01*
X7900500Y30775500D01*
X7920185Y30842539D01*
X7972989Y30888294D01*
X8024500Y30899500D01*
X8171962Y30899500D01*
X8171962Y30899501D01*
X8310053Y30940047D01*
X8431128Y31017857D01*
X8525377Y31126627D01*
X8585165Y31257543D01*
X8585165Y31257544D01*
X8588849Y31265610D01*
X8590146Y31265018D01*
X8622780Y31315806D01*
X8686332Y31344837D01*
X8736586Y31339954D01*
X8736859Y31341146D01*
X8775086Y31332421D01*
X8794947Y31326091D01*
X8812139Y31318970D01*
X8845943Y31316250D01*
X8853607Y31314500D01*
X8853609Y31314500D01*
X8909738Y31314500D01*
X8917839Y31313969D01*
X8956549Y31308873D01*
X8992940Y31314500D01*
X10027062Y31314500D01*
X10051558Y31307307D01*
X10102162Y31313969D01*
X10110263Y31314500D01*
X10166391Y31314500D01*
X10166393Y31314500D01*
X10174060Y31316250D01*
X10197782Y31314798D01*
X10225048Y31326091D01*
X10244904Y31332420D01*
X10276351Y31339597D01*
X10297986Y31350017D01*
X10323890Y31354283D01*
X10342465Y31368535D01*
X10364152Y31381880D01*
X10377967Y31388533D01*
X10407348Y31411965D01*
X10433902Y31422806D01*
X10445116Y31437420D01*
X10461271Y31453881D01*
X10461222Y31453930D01*
X10471070Y31463778D01*
X10471119Y31463729D01*
X10487580Y31479884D01*
X10496242Y31486531D01*
X10496882Y31491177D01*
X10513036Y31517652D01*
X10536467Y31547033D01*
X10543119Y31560848D01*
X10556465Y31582535D01*
X10564885Y31593510D01*
X10564692Y31595328D01*
X10574984Y31627014D01*
X10582691Y31643018D01*
X10585403Y31648649D01*
X10592580Y31680096D01*
X10598909Y31699952D01*
X10606028Y31717140D01*
X10608750Y31750941D01*
X10610257Y31757544D01*
X10610500Y31758607D01*
X10610500Y31814739D01*
X10611031Y31822840D01*
X10616126Y31861541D01*
X10610500Y31897933D01*
X10610500Y33132067D01*
X10617692Y33156562D01*
X10611031Y33207163D01*
X10610500Y33215264D01*
X10610500Y33271392D01*
X10610499Y33271400D01*
X10608749Y33279067D01*
X10610202Y33302787D01*
X10598908Y33330054D01*
X10592578Y33349911D01*
X10585403Y33381351D01*
X10574982Y33402989D01*
X10570716Y33428896D01*
X10556463Y33447471D01*
X10543119Y33469155D01*
X10536467Y33482967D01*
X10536466Y33482969D01*
X10513033Y33512352D01*
X10502192Y33538906D01*
X10487577Y33550120D01*
X10471119Y33566272D01*
X10471070Y33566222D01*
X10461222Y33576070D01*
X10461271Y33576120D01*
X10445117Y33592579D01*
X10438468Y33601244D01*
X10433819Y33601884D01*
X10407350Y33618035D01*
X10377969Y33641467D01*
X10377966Y33641468D01*
X10364155Y33648119D01*
X10342470Y33661463D01*
X10331489Y33669889D01*
X10329665Y33669694D01*
X10297989Y33679984D01*
X10276352Y33690404D01*
X10276353Y33690404D01*
X10244913Y33697579D01*
X10225053Y33703909D01*
X10207864Y33711029D01*
X10174069Y33713749D01*
X10166400Y33715499D01*
X10166394Y33715500D01*
X10166393Y33715500D01*
X10110271Y33715500D01*
X10102169Y33716031D01*
X10063453Y33721129D01*
X10027063Y33715500D01*
X8992939Y33715500D01*
X8968439Y33722694D01*
X8917830Y33716031D01*
X8909729Y33715500D01*
X8853607Y33715500D01*
X8853605Y33715500D01*
X8846685Y33714720D01*
X8846458Y33716734D01*
X8786605Y33720412D01*
X8730255Y33761722D01*
X8705185Y33826939D01*
X8719353Y33895357D01*
X8741089Y33924699D01*
X9097415Y34281025D01*
X11044648Y34281025D01*
X11047697Y34263344D01*
X11049500Y34242276D01*
X11049500Y15209398D01*
X11047238Y15143171D01*
X11057715Y15100181D01*
X11058901Y15093939D01*
X11064929Y15050080D01*
X11072079Y15033621D01*
X11078819Y15013580D01*
X11083067Y14996148D01*
X11104763Y14957561D01*
X11107582Y14951885D01*
X11125220Y14911280D01*
X11125221Y14911278D01*
X11136541Y14897364D01*
X11148439Y14879883D01*
X11157234Y14864240D01*
X11157236Y14864239D01*
X11188532Y14832943D01*
X11192783Y14828234D01*
X11220722Y14793892D01*
X11235381Y14783545D01*
X11251552Y14769923D01*
X12236063Y13785412D01*
X12264324Y13741702D01*
X12319780Y13595477D01*
X12409517Y13465470D01*
X12527760Y13360717D01*
X12527762Y13360716D01*
X12667634Y13287304D01*
X12821014Y13249500D01*
X12821015Y13249500D01*
X12978985Y13249500D01*
X13132365Y13287304D01*
X13132364Y13287304D01*
X13272240Y13360717D01*
X13390483Y13465470D01*
X13480220Y13595477D01*
X13536237Y13743182D01*
X13555278Y13900000D01*
X13536237Y14056818D01*
X13536235Y14056822D01*
X13534442Y14064102D01*
X13536529Y14064617D01*
X13531984Y14123520D01*
X13565123Y14185030D01*
X13626257Y14218859D01*
X13695976Y14214266D01*
X13740977Y14185524D01*
X15263181Y12663321D01*
X15296666Y12601998D01*
X15299500Y12575640D01*
X15299500Y10748333D01*
X15279815Y10681294D01*
X15279094Y10680331D01*
X15274622Y10673372D01*
X15214834Y10542457D01*
X15194353Y10400000D01*
X15214834Y10257544D01*
X15219819Y10246629D01*
X15274623Y10126627D01*
X15368872Y10017857D01*
X15489947Y9940047D01*
X15489950Y9940046D01*
X15489949Y9940046D01*
X15628036Y9899501D01*
X15628038Y9899500D01*
X15628039Y9899500D01*
X15771962Y9899500D01*
X15771962Y9899501D01*
X15910053Y9940047D01*
X16031128Y10017857D01*
X16058939Y10049954D01*
X16117715Y10087727D01*
X16187585Y10087727D01*
X16219685Y10073068D01*
X16239947Y10060047D01*
X16239948Y10060047D01*
X16239951Y10060045D01*
X16378036Y10019501D01*
X16378038Y10019500D01*
X16378039Y10019500D01*
X16521962Y10019500D01*
X16521962Y10019501D01*
X16629121Y10050965D01*
X16660050Y10060046D01*
X16660050Y10060047D01*
X16660053Y10060047D01*
X16781128Y10137857D01*
X16875377Y10246627D01*
X16935165Y10377543D01*
X16955647Y10520000D01*
X16935165Y10662457D01*
X16875377Y10793373D01*
X16875374Y10793376D01*
X16870582Y10800834D01*
X16873621Y10802788D01*
X16851749Y10850776D01*
X16850500Y10868333D01*
X16850500Y11747779D01*
X20355000Y11747779D01*
X20369740Y11621664D01*
X20427704Y11462407D01*
X20427706Y11462403D01*
X20520834Y11320809D01*
X20520835Y11320808D01*
X20644108Y11204504D01*
X20644114Y11204500D01*
X20790885Y11119762D01*
X20830000Y11108052D01*
X20830000Y11360022D01*
X20849685Y11427061D01*
X20902489Y11472816D01*
X20971647Y11482760D01*
X20987926Y11479291D01*
X21051840Y11461105D01*
X21163521Y11471454D01*
X21163526Y11471457D01*
X21172063Y11473885D01*
X21241930Y11473299D01*
X21300390Y11435034D01*
X21328881Y11371237D01*
X21330000Y11354619D01*
X21330000Y11108266D01*
X21444967Y11157858D01*
X21444973Y11157861D01*
X21580912Y11259065D01*
X21689850Y11388892D01*
X21765913Y11540345D01*
X21766733Y11542597D01*
X21767713Y11543930D01*
X21769156Y11546801D01*
X21769646Y11546555D01*
X21808152Y11598866D01*
X21873417Y11623810D01*
X21941808Y11609509D01*
X21991610Y11560503D01*
X21997820Y11547656D01*
X22007299Y11524772D01*
X22007299Y11524771D01*
X22007301Y11524768D01*
X22007302Y11524767D01*
X22099549Y11404549D01*
X22219767Y11312302D01*
X22359764Y11254313D01*
X22472280Y11239500D01*
X22472287Y11239500D01*
X22547713Y11239500D01*
X22547720Y11239500D01*
X22660236Y11254313D01*
X22800233Y11312302D01*
X22920451Y11404549D01*
X23012698Y11524767D01*
X23070687Y11664764D01*
X23090466Y11815000D01*
X23070687Y11965236D01*
X23012698Y12105233D01*
X22920451Y12225451D01*
X22800233Y12317698D01*
X22800229Y12317700D01*
X22736801Y12343973D01*
X22660236Y12375687D01*
X22646171Y12377539D01*
X22547727Y12390500D01*
X22547720Y12390500D01*
X22472280Y12390500D01*
X22472272Y12390500D01*
X22359764Y12375687D01*
X22359763Y12375687D01*
X22219770Y12317700D01*
X22099549Y12225451D01*
X22007299Y12105230D01*
X22007298Y12105227D01*
X22007277Y12105175D01*
X22007247Y12105138D01*
X22003236Y12098191D01*
X22002151Y12098817D01*
X21963429Y12050777D01*
X21897132Y12028719D01*
X21829435Y12046007D01*
X21805040Y12064960D01*
X21805000Y12065000D01*
X21504000Y12065000D01*
X21436961Y12084685D01*
X21391206Y12137489D01*
X21380000Y12189000D01*
X21380000Y12441000D01*
X21399685Y12508039D01*
X21452489Y12553794D01*
X21504000Y12565000D01*
X21805000Y12565000D01*
X21805000Y12882222D01*
X21790259Y13008337D01*
X21732295Y13167594D01*
X21732293Y13167598D01*
X21639165Y13309192D01*
X21639164Y13309193D01*
X21515891Y13425497D01*
X21515885Y13425500D01*
X21369113Y13510239D01*
X21369108Y13510241D01*
X21330000Y13521950D01*
X21330000Y13269979D01*
X21310315Y13202940D01*
X21257511Y13157185D01*
X21188353Y13147241D01*
X21172066Y13150713D01*
X21108162Y13168895D01*
X21108162Y13168896D01*
X20996475Y13158546D01*
X20987931Y13156115D01*
X20918064Y13156703D01*
X20859606Y13194972D01*
X20831118Y13258770D01*
X20830000Y13275382D01*
X20830000Y13521736D01*
X20715030Y13472143D01*
X20579087Y13370936D01*
X20470149Y13241109D01*
X20394085Y13089654D01*
X20355000Y12924739D01*
X20355000Y12565000D01*
X20656000Y12565000D01*
X20723039Y12545315D01*
X20768794Y12492511D01*
X20780000Y12441000D01*
X20780000Y12189000D01*
X20760315Y12121961D01*
X20707511Y12076206D01*
X20656000Y12065000D01*
X20355000Y12065000D01*
X20355000Y11747779D01*
X16850500Y11747779D01*
X16850500Y12813432D01*
X16850500Y12813433D01*
X16843652Y12834509D01*
X16839111Y12853422D01*
X16835646Y12875304D01*
X16825588Y12895042D01*
X16818140Y12913024D01*
X16811296Y12934090D01*
X16798271Y12952018D01*
X16788106Y12968606D01*
X16778050Y12988342D01*
X16757398Y13008994D01*
X16757380Y13009014D01*
X13701975Y16064418D01*
X13668490Y16125741D01*
X13673474Y16195433D01*
X13715346Y16251366D01*
X13780810Y16275783D01*
X13834448Y16267727D01*
X13952544Y16221976D01*
X14153024Y16184500D01*
X14153026Y16184500D01*
X14356974Y16184500D01*
X14356976Y16184500D01*
X14557456Y16221976D01*
X14747637Y16295652D01*
X14921041Y16403019D01*
X15071764Y16540421D01*
X15194673Y16703179D01*
X15200945Y16715774D01*
X15248449Y16767010D01*
X15311944Y16784500D01*
X15738056Y16784500D01*
X15805095Y16764815D01*
X15849055Y16715774D01*
X15855326Y16703179D01*
X15978237Y16540419D01*
X16128958Y16403020D01*
X16128960Y16403018D01*
X16228141Y16341608D01*
X16302363Y16295652D01*
X16492544Y16221976D01*
X16693024Y16184500D01*
X16693026Y16184500D01*
X16896974Y16184500D01*
X16896976Y16184500D01*
X17097456Y16221976D01*
X17287637Y16295652D01*
X17461041Y16403019D01*
X17611764Y16540421D01*
X17734673Y16703179D01*
X17825582Y16885750D01*
X17881397Y17081917D01*
X17900215Y17285000D01*
X17881397Y17488083D01*
X17825582Y17684250D01*
X17734673Y17866821D01*
X17657862Y17968535D01*
X17611762Y18029582D01*
X17461041Y18166981D01*
X17461039Y18166983D01*
X17287642Y18274345D01*
X17287635Y18274349D01*
X17192546Y18311187D01*
X17097456Y18348024D01*
X16896976Y18385500D01*
X16693024Y18385500D01*
X16492544Y18348024D01*
X16492541Y18348024D01*
X16492541Y18348023D01*
X16302364Y18274349D01*
X16302357Y18274345D01*
X16128960Y18166983D01*
X16128958Y18166981D01*
X15978237Y18029582D01*
X15855326Y17866822D01*
X15849055Y17854226D01*
X15801551Y17802990D01*
X15738056Y17785500D01*
X15311944Y17785500D01*
X15244905Y17805185D01*
X15200945Y17854226D01*
X15194673Y17866822D01*
X15071762Y18029582D01*
X14921041Y18166981D01*
X14921039Y18166983D01*
X14747642Y18274345D01*
X14747635Y18274349D01*
X14652546Y18311187D01*
X14557456Y18348024D01*
X14356976Y18385500D01*
X14153024Y18385500D01*
X13952544Y18348024D01*
X13952541Y18348024D01*
X13952541Y18348023D01*
X13762364Y18274349D01*
X13762357Y18274345D01*
X13644777Y18201543D01*
X13577416Y18182988D01*
X13510717Y18203796D01*
X13465856Y18257361D01*
X13455500Y18306970D01*
X13455500Y18803031D01*
X13475185Y18870070D01*
X13527989Y18915825D01*
X13597147Y18925769D01*
X13644775Y18908459D01*
X13762363Y18835652D01*
X13952544Y18761976D01*
X14153024Y18724500D01*
X14153026Y18724500D01*
X14356974Y18724500D01*
X14356976Y18724500D01*
X14557456Y18761976D01*
X14747637Y18835652D01*
X14921041Y18943019D01*
X15071764Y19080421D01*
X15194673Y19243179D01*
X15285582Y19425750D01*
X15341397Y19621917D01*
X15360215Y19825000D01*
X15689785Y19825000D01*
X15708602Y19621918D01*
X15764417Y19425753D01*
X15764422Y19425740D01*
X15855327Y19243179D01*
X15978237Y19080419D01*
X16128958Y18943020D01*
X16128960Y18943018D01*
X16172879Y18915825D01*
X16302363Y18835652D01*
X16492544Y18761976D01*
X16693024Y18724500D01*
X16693026Y18724500D01*
X16896974Y18724500D01*
X16896976Y18724500D01*
X17097456Y18761976D01*
X17287637Y18835652D01*
X17461041Y18943019D01*
X17611764Y19080421D01*
X17734673Y19243179D01*
X17825582Y19425750D01*
X17881397Y19621917D01*
X17900215Y19825000D01*
X17897769Y19851392D01*
X17881397Y20028083D01*
X17871473Y20062963D01*
X17825582Y20224250D01*
X17823655Y20228119D01*
X17781272Y20313236D01*
X17734673Y20406821D01*
X17611764Y20569579D01*
X17611762Y20569582D01*
X17461041Y20706981D01*
X17461039Y20706983D01*
X17287642Y20814345D01*
X17287635Y20814349D01*
X17106746Y20884425D01*
X17097456Y20888024D01*
X16896976Y20925500D01*
X16693024Y20925500D01*
X16492544Y20888024D01*
X16492541Y20888024D01*
X16492541Y20888023D01*
X16302364Y20814349D01*
X16302357Y20814345D01*
X16128960Y20706983D01*
X16128958Y20706981D01*
X15978237Y20569582D01*
X15855327Y20406822D01*
X15764422Y20224261D01*
X15764417Y20224248D01*
X15708602Y20028083D01*
X15689785Y19825001D01*
X15689785Y19825000D01*
X15360215Y19825000D01*
X15357769Y19851392D01*
X15341397Y20028083D01*
X15331473Y20062963D01*
X15285582Y20224250D01*
X15283655Y20228119D01*
X15241272Y20313236D01*
X15194673Y20406821D01*
X15071764Y20569579D01*
X15071762Y20569582D01*
X14921041Y20706981D01*
X14921039Y20706983D01*
X14747642Y20814345D01*
X14747635Y20814349D01*
X14566746Y20884425D01*
X14557456Y20888024D01*
X14356976Y20925500D01*
X14153024Y20925500D01*
X13952544Y20888024D01*
X13952541Y20888024D01*
X13952541Y20888023D01*
X13762364Y20814349D01*
X13762357Y20814345D01*
X13644777Y20741543D01*
X13577416Y20722988D01*
X13510717Y20743796D01*
X13465856Y20797361D01*
X13455500Y20846970D01*
X13455500Y21343031D01*
X13475185Y21410070D01*
X13527989Y21455825D01*
X13597147Y21465769D01*
X13644775Y21448459D01*
X13762363Y21375652D01*
X13952544Y21301976D01*
X14153024Y21264500D01*
X14153026Y21264500D01*
X14356974Y21264500D01*
X14356976Y21264500D01*
X14557456Y21301976D01*
X14747637Y21375652D01*
X14921041Y21483019D01*
X15071764Y21620421D01*
X15194673Y21783179D01*
X15285582Y21965750D01*
X15341397Y22161917D01*
X15360215Y22365000D01*
X15689785Y22365000D01*
X15708602Y22161918D01*
X15764417Y21965753D01*
X15764422Y21965740D01*
X15855327Y21783179D01*
X15978237Y21620419D01*
X16128958Y21483020D01*
X16128960Y21483018D01*
X16172879Y21455825D01*
X16302363Y21375652D01*
X16492544Y21301976D01*
X16693024Y21264500D01*
X16693026Y21264500D01*
X16896974Y21264500D01*
X16896976Y21264500D01*
X17097456Y21301976D01*
X17287637Y21375652D01*
X17461041Y21483019D01*
X17611764Y21620421D01*
X17734673Y21783179D01*
X17790737Y21895772D01*
X17838239Y21947008D01*
X17901737Y21964500D01*
X18117745Y21964500D01*
X18184784Y21944815D01*
X18205426Y21928181D01*
X20970925Y19162682D01*
X21004410Y19101359D01*
X20999426Y19031667D01*
X20970925Y18987320D01*
X18405753Y16422148D01*
X18357947Y16393783D01*
X18358014Y16393637D01*
X18356663Y16393021D01*
X18353011Y16390853D01*
X18349949Y16389954D01*
X18349947Y16389953D01*
X18228873Y16312144D01*
X18134623Y16203374D01*
X18134622Y16203372D01*
X18074833Y16072455D01*
X18073890Y16069241D01*
X18072084Y16066432D01*
X18071151Y16064390D01*
X18070857Y16064524D01*
X18036110Y16010467D01*
X17972552Y15981448D01*
X17919985Y15985209D01*
X17901964Y15990500D01*
X17901961Y15990500D01*
X17758039Y15990500D01*
X17758036Y15990500D01*
X17619949Y15949955D01*
X17498873Y15872144D01*
X17404623Y15763374D01*
X17404622Y15763372D01*
X17344834Y15632457D01*
X17324353Y15490000D01*
X17344834Y15347544D01*
X17398980Y15228983D01*
X17404623Y15216627D01*
X17498872Y15107857D01*
X17619947Y15030047D01*
X17619950Y15030046D01*
X17619949Y15030046D01*
X17758036Y14989501D01*
X17758038Y14989500D01*
X17758039Y14989500D01*
X17901962Y14989500D01*
X17901962Y14989501D01*
X18029056Y15026818D01*
X18040050Y15030046D01*
X18040050Y15030047D01*
X18040053Y15030047D01*
X18161128Y15107857D01*
X18255377Y15216627D01*
X18315165Y15347543D01*
X18315166Y15347551D01*
X18316106Y15350750D01*
X18317914Y15353565D01*
X18318849Y15355610D01*
X18319143Y15355476D01*
X18353881Y15409528D01*
X18417438Y15438552D01*
X18470017Y15434791D01*
X18488035Y15429501D01*
X18488038Y15429500D01*
X18488039Y15429500D01*
X18631962Y15429500D01*
X18631962Y15429501D01*
X18768190Y15469500D01*
X18770050Y15470046D01*
X18770050Y15470047D01*
X18770053Y15470047D01*
X18816662Y15500001D01*
X21394853Y15500001D01*
X21415334Y15357544D01*
X21445955Y15290496D01*
X21475123Y15226627D01*
X21475127Y15226622D01*
X21479918Y15219167D01*
X21476864Y15217205D01*
X21498735Y15169337D01*
X21500000Y15151668D01*
X21500000Y14436071D01*
X21500001Y14436061D01*
X21506846Y14414993D01*
X21511387Y14396082D01*
X21514854Y14374196D01*
X21514855Y14374193D01*
X21524912Y14354455D01*
X21532357Y14336482D01*
X21539204Y14315410D01*
X21552226Y14297486D01*
X21562390Y14280900D01*
X21572450Y14261158D01*
X21593364Y14240244D01*
X21593393Y14240213D01*
X24965275Y10868333D01*
X25936950Y9896658D01*
X26026658Y9806950D01*
X26046395Y9796894D01*
X26062981Y9786731D01*
X26080910Y9773704D01*
X26101981Y9766858D01*
X26119958Y9759412D01*
X26139696Y9749354D01*
X26161578Y9745889D01*
X26180491Y9741348D01*
X26201567Y9734500D01*
X26201568Y9734500D01*
X32198431Y9734500D01*
X32198433Y9734500D01*
X32219501Y9741346D01*
X32238417Y9745888D01*
X32260304Y9749354D01*
X32280044Y9759414D01*
X32298011Y9766856D01*
X32319090Y9773704D01*
X32337026Y9786737D01*
X32353588Y9796886D01*
X32373342Y9806950D01*
X32388834Y9822443D01*
X32388841Y9822448D01*
X33388476Y10822083D01*
X34440992Y11874600D01*
X34493737Y11905894D01*
X34610050Y11940046D01*
X34610050Y11940047D01*
X34610053Y11940047D01*
X34731128Y12017857D01*
X34825377Y12126627D01*
X34885165Y12257543D01*
X34905647Y12400000D01*
X34885165Y12542457D01*
X34825377Y12673373D01*
X34731128Y12782143D01*
X34610053Y12859953D01*
X34610051Y12859954D01*
X34610049Y12859955D01*
X34610050Y12859955D01*
X34471963Y12900500D01*
X34471961Y12900500D01*
X34328039Y12900500D01*
X34328036Y12900500D01*
X34189949Y12859955D01*
X34068873Y12782144D01*
X33974623Y12673374D01*
X33974622Y12673372D01*
X33914835Y12542459D01*
X33914834Y12542455D01*
X33910426Y12511796D01*
X33881400Y12448241D01*
X33875369Y12441764D01*
X32005426Y10571819D01*
X31944103Y10538334D01*
X31917745Y10535500D01*
X26482254Y10535500D01*
X26415215Y10555185D01*
X26394573Y10571819D01*
X25151392Y11815000D01*
X27709534Y11815000D01*
X27729312Y11664766D01*
X27729313Y11664764D01*
X27780848Y11540347D01*
X27787302Y11524767D01*
X27879549Y11404549D01*
X27999767Y11312302D01*
X28139764Y11254313D01*
X28252280Y11239500D01*
X28252287Y11239500D01*
X28327713Y11239500D01*
X28327720Y11239500D01*
X28440236Y11254313D01*
X28580233Y11312302D01*
X28700451Y11404549D01*
X28792698Y11524767D01*
X28804972Y11554402D01*
X28848812Y11608805D01*
X28915105Y11630871D01*
X28982805Y11613593D01*
X29030417Y11562457D01*
X29036056Y11549360D01*
X29067704Y11462407D01*
X29067706Y11462403D01*
X29160834Y11320809D01*
X29160835Y11320808D01*
X29284108Y11204504D01*
X29284114Y11204500D01*
X29430885Y11119762D01*
X29470000Y11108052D01*
X29470000Y11360022D01*
X29489685Y11427061D01*
X29542489Y11472816D01*
X29611647Y11482760D01*
X29627926Y11479291D01*
X29691840Y11461105D01*
X29803521Y11471454D01*
X29803526Y11471457D01*
X29812063Y11473885D01*
X29881930Y11473299D01*
X29940390Y11435034D01*
X29968881Y11371237D01*
X29970000Y11354619D01*
X29970000Y11108266D01*
X30084967Y11157858D01*
X30084973Y11157861D01*
X30220912Y11259065D01*
X30329850Y11388892D01*
X30405914Y11540347D01*
X30445000Y11705262D01*
X30445000Y12065000D01*
X30144000Y12065000D01*
X30076961Y12084685D01*
X30031206Y12137489D01*
X30020000Y12189000D01*
X30020000Y12441000D01*
X30039685Y12508039D01*
X30092489Y12553794D01*
X30144000Y12565000D01*
X30445000Y12565000D01*
X30445000Y12882222D01*
X30430259Y13008337D01*
X30372295Y13167594D01*
X30372293Y13167598D01*
X30279165Y13309192D01*
X30279164Y13309193D01*
X30155891Y13425497D01*
X30155885Y13425500D01*
X30009113Y13510239D01*
X30009108Y13510241D01*
X29970000Y13521950D01*
X29970000Y13269979D01*
X29950315Y13202940D01*
X29897511Y13157185D01*
X29828353Y13147241D01*
X29812066Y13150713D01*
X29748162Y13168895D01*
X29748162Y13168896D01*
X29636475Y13158546D01*
X29627931Y13156115D01*
X29558064Y13156703D01*
X29499606Y13194972D01*
X29471118Y13258770D01*
X29470000Y13275382D01*
X29470000Y13521736D01*
X29355030Y13472143D01*
X29219087Y13370936D01*
X29110149Y13241109D01*
X29034085Y13089654D01*
X28995000Y12924739D01*
X28995000Y12565000D01*
X29296000Y12565000D01*
X29363039Y12545315D01*
X29408794Y12492511D01*
X29420000Y12441000D01*
X29420000Y12189000D01*
X29400315Y12121961D01*
X29347511Y12076206D01*
X29296000Y12065000D01*
X28994999Y12065000D01*
X28994958Y12064959D01*
X28933634Y12031474D01*
X28863943Y12036460D01*
X28808010Y12078332D01*
X28792717Y12105188D01*
X28792699Y12105230D01*
X28792698Y12105233D01*
X28700451Y12225451D01*
X28580233Y12317698D01*
X28580229Y12317700D01*
X28516801Y12343973D01*
X28440236Y12375687D01*
X28426171Y12377539D01*
X28327727Y12390500D01*
X28327720Y12390500D01*
X28252280Y12390500D01*
X28252272Y12390500D01*
X28139764Y12375687D01*
X28139763Y12375687D01*
X27999770Y12317700D01*
X27999767Y12317699D01*
X27999767Y12317698D01*
X27879549Y12225451D01*
X27803719Y12126627D01*
X27787300Y12105230D01*
X27729313Y11965237D01*
X27729312Y11965235D01*
X27709534Y11815001D01*
X27709534Y11815000D01*
X25151392Y11815000D01*
X23560302Y13406091D01*
X23526817Y13467414D01*
X23531801Y13537106D01*
X23573673Y13593039D01*
X23639137Y13617456D01*
X23682915Y13612750D01*
X23728039Y13599500D01*
X23871962Y13599500D01*
X23871962Y13599501D01*
X24010053Y13640047D01*
X24131128Y13717857D01*
X24225377Y13826627D01*
X24225684Y13827298D01*
X24258788Y13899786D01*
X24285165Y13957543D01*
X24295509Y14029498D01*
X24324533Y14093051D01*
X24330552Y14099517D01*
X25528889Y15297854D01*
X25548746Y15313978D01*
X25557836Y15319916D01*
X25579638Y15347929D01*
X25584733Y15353697D01*
X25587519Y15356482D01*
X25587528Y15356494D01*
X25601086Y15375484D01*
X25634807Y15418808D01*
X25638547Y15425722D01*
X25642006Y15432797D01*
X25642010Y15432801D01*
X25652936Y15469501D01*
X25657672Y15485407D01*
X25675500Y15537339D01*
X25676791Y15545076D01*
X25677768Y15552914D01*
X25676522Y15583047D01*
X25693419Y15650843D01*
X25744288Y15698740D01*
X25812976Y15711533D01*
X25868319Y15689803D01*
X25869084Y15691037D01*
X25924659Y15656627D01*
X26047363Y15580652D01*
X26237544Y15506976D01*
X26438024Y15469500D01*
X26438026Y15469500D01*
X26641974Y15469500D01*
X26641976Y15469500D01*
X26842456Y15506976D01*
X26842460Y15506978D01*
X26842467Y15506979D01*
X26847977Y15508546D01*
X26848602Y15506349D01*
X26908295Y15511388D01*
X26970042Y15478693D01*
X27004311Y15417804D01*
X27000221Y15348054D01*
X26971174Y15302213D01*
X26465509Y14796549D01*
X26445655Y14780425D01*
X26436566Y14774487D01*
X26436565Y14774486D01*
X26414764Y14746478D01*
X26409687Y14740727D01*
X26406885Y14737924D01*
X26406875Y14737913D01*
X26393306Y14718906D01*
X26359593Y14675593D01*
X26355848Y14668672D01*
X26352389Y14661597D01*
X26336730Y14608998D01*
X26318901Y14557063D01*
X26317607Y14549309D01*
X26316632Y14541490D01*
X26318901Y14486646D01*
X26318901Y14219380D01*
X26299216Y14152341D01*
X26288616Y14138179D01*
X26269024Y14115568D01*
X26269023Y14115567D01*
X26209235Y13984652D01*
X26188754Y13842196D01*
X26209235Y13699739D01*
X26256851Y13595477D01*
X26269024Y13568822D01*
X26363273Y13460052D01*
X26484348Y13382242D01*
X26484351Y13382241D01*
X26484350Y13382241D01*
X26622437Y13341696D01*
X26622439Y13341695D01*
X26622440Y13341695D01*
X26766363Y13341695D01*
X26766363Y13341696D01*
X26904454Y13382242D01*
X27025529Y13460052D01*
X27119778Y13568822D01*
X27179566Y13699738D01*
X27200048Y13842195D01*
X27179566Y13984652D01*
X27119778Y14115568D01*
X27100186Y14138179D01*
X27071163Y14201735D01*
X27069901Y14219380D01*
X27069901Y14287502D01*
X27089586Y14354541D01*
X27106220Y14375183D01*
X27524929Y14793892D01*
X27943892Y15212856D01*
X27963741Y15228975D01*
X27972836Y15234916D01*
X27994644Y15262938D01*
X27999721Y15268684D01*
X28002520Y15271482D01*
X28016094Y15290496D01*
X28038994Y15319916D01*
X28049807Y15333808D01*
X28053547Y15340720D01*
X28057003Y15347793D01*
X28057010Y15347801D01*
X28072670Y15400404D01*
X28090500Y15452340D01*
X28090500Y15452345D01*
X28091790Y15460076D01*
X28092768Y15467915D01*
X28090500Y15522756D01*
X28090500Y16230000D01*
X38978590Y16230000D01*
X39025233Y16076234D01*
X39122728Y15893834D01*
X39122732Y15893827D01*
X39253944Y15733945D01*
X39413826Y15602733D01*
X39413833Y15602729D01*
X39596233Y15505234D01*
X39750000Y15458590D01*
X39750000Y15867699D01*
X39769685Y15934738D01*
X39822489Y15980493D01*
X39891647Y15990437D01*
X39964237Y15980000D01*
X39964238Y15980000D01*
X40035762Y15980000D01*
X40035763Y15980000D01*
X40108353Y15990437D01*
X40177512Y15980493D01*
X40230315Y15934738D01*
X40250000Y15867699D01*
X40250000Y15458590D01*
X40403766Y15505234D01*
X40586166Y15602729D01*
X40586173Y15602733D01*
X40746055Y15733945D01*
X40877267Y15893827D01*
X40877271Y15893834D01*
X40974766Y16076234D01*
X41021410Y16230000D01*
X41518590Y16230000D01*
X41565233Y16076234D01*
X41662728Y15893834D01*
X41662732Y15893827D01*
X41793944Y15733945D01*
X41953826Y15602733D01*
X41953833Y15602729D01*
X42136233Y15505234D01*
X42290000Y15458590D01*
X42290000Y15867699D01*
X42309685Y15934738D01*
X42362489Y15980493D01*
X42431647Y15990437D01*
X42504237Y15980000D01*
X42504238Y15980000D01*
X42575762Y15980000D01*
X42575763Y15980000D01*
X42648353Y15990437D01*
X42717512Y15980493D01*
X42770315Y15934738D01*
X42790000Y15867699D01*
X42790000Y15458590D01*
X42943766Y15505234D01*
X43126166Y15602729D01*
X43126173Y15602733D01*
X43286055Y15733945D01*
X43417267Y15893827D01*
X43417271Y15893834D01*
X43514766Y16076234D01*
X43561410Y16230000D01*
X43153347Y16230000D01*
X43086308Y16249685D01*
X43040553Y16302489D01*
X43030609Y16371647D01*
X43034369Y16388933D01*
X43036143Y16394978D01*
X43040000Y16408111D01*
X43040000Y16551889D01*
X43034368Y16571067D01*
X43034370Y16640936D01*
X43072145Y16699714D01*
X43135701Y16728738D01*
X43153347Y16730000D01*
X43561410Y16730000D01*
X43514766Y16883767D01*
X43417271Y17066167D01*
X43417267Y17066174D01*
X43286055Y17226056D01*
X43126173Y17357268D01*
X43126166Y17357272D01*
X42943763Y17454768D01*
X42790000Y17501413D01*
X42790000Y17092302D01*
X42770315Y17025263D01*
X42717511Y16979508D01*
X42648355Y16969564D01*
X42575766Y16980000D01*
X42575763Y16980000D01*
X42504237Y16980000D01*
X42504233Y16980000D01*
X42431645Y16969564D01*
X42362487Y16979508D01*
X42309684Y17025264D01*
X42290000Y17092302D01*
X42290000Y17501413D01*
X42136236Y17454768D01*
X41953833Y17357272D01*
X41953826Y17357268D01*
X41793944Y17226056D01*
X41662732Y17066174D01*
X41662728Y17066167D01*
X41565233Y16883767D01*
X41518590Y16730000D01*
X41926653Y16730000D01*
X41993692Y16710315D01*
X42039447Y16657511D01*
X42049391Y16588353D01*
X42045631Y16571067D01*
X42040000Y16551889D01*
X42040000Y16408111D01*
X42043856Y16394978D01*
X42045631Y16388933D01*
X42045630Y16319064D01*
X42007855Y16260286D01*
X41944299Y16231262D01*
X41926653Y16230000D01*
X41518590Y16230000D01*
X41021410Y16230000D01*
X40613347Y16230000D01*
X40546308Y16249685D01*
X40500553Y16302489D01*
X40490609Y16371647D01*
X40494369Y16388933D01*
X40496143Y16394978D01*
X40500000Y16408111D01*
X40500000Y16551889D01*
X40494368Y16571067D01*
X40494370Y16640936D01*
X40532145Y16699714D01*
X40595701Y16728738D01*
X40613347Y16730000D01*
X41021410Y16730000D01*
X40974766Y16883767D01*
X40877271Y17066167D01*
X40877267Y17066174D01*
X40746055Y17226056D01*
X40586173Y17357268D01*
X40586166Y17357272D01*
X40403763Y17454768D01*
X40250000Y17501413D01*
X40250000Y17092302D01*
X40230315Y17025263D01*
X40177511Y16979508D01*
X40108355Y16969564D01*
X40035766Y16980000D01*
X40035763Y16980000D01*
X39964237Y16980000D01*
X39964233Y16980000D01*
X39891645Y16969564D01*
X39822487Y16979508D01*
X39769684Y17025264D01*
X39750000Y17092302D01*
X39750000Y17501413D01*
X39596236Y17454768D01*
X39413833Y17357272D01*
X39413826Y17357268D01*
X39253944Y17226056D01*
X39122732Y17066174D01*
X39122728Y17066167D01*
X39025233Y16883767D01*
X38978590Y16730000D01*
X39386653Y16730000D01*
X39453692Y16710315D01*
X39499447Y16657511D01*
X39509391Y16588353D01*
X39505631Y16571067D01*
X39500000Y16551889D01*
X39500000Y16408111D01*
X39503856Y16394978D01*
X39505631Y16388933D01*
X39505630Y16319064D01*
X39467855Y16260286D01*
X39404299Y16231262D01*
X39386653Y16230000D01*
X38978590Y16230000D01*
X28090500Y16230000D01*
X28090500Y19020000D01*
X38894785Y19020000D01*
X38913602Y18816918D01*
X38969417Y18620753D01*
X38969422Y18620740D01*
X39060327Y18438179D01*
X39183237Y18275419D01*
X39333958Y18138020D01*
X39333960Y18138018D01*
X39351705Y18127031D01*
X39507363Y18030652D01*
X39697544Y17956976D01*
X39898024Y17919500D01*
X39898026Y17919500D01*
X40101974Y17919500D01*
X40101976Y17919500D01*
X40302456Y17956976D01*
X40492637Y18030652D01*
X40666041Y18138019D01*
X40796953Y18257361D01*
X40816762Y18275419D01*
X40816764Y18275421D01*
X40939673Y18438179D01*
X41030582Y18620750D01*
X41086397Y18816917D01*
X41105215Y19020000D01*
X41434785Y19020000D01*
X41453602Y18816918D01*
X41509417Y18620753D01*
X41509422Y18620740D01*
X41600327Y18438179D01*
X41723237Y18275419D01*
X41873958Y18138020D01*
X41873960Y18138018D01*
X41891705Y18127031D01*
X42047363Y18030652D01*
X42237544Y17956976D01*
X42438024Y17919500D01*
X42438026Y17919500D01*
X42641974Y17919500D01*
X42641976Y17919500D01*
X42842456Y17956976D01*
X43032637Y18030652D01*
X43206041Y18138019D01*
X43336953Y18257361D01*
X43356762Y18275419D01*
X43356764Y18275421D01*
X43479673Y18438179D01*
X43570582Y18620750D01*
X43626397Y18816917D01*
X43645215Y19020000D01*
X43639616Y19080419D01*
X43626397Y19223083D01*
X43620679Y19243179D01*
X43570582Y19419250D01*
X43567350Y19425740D01*
X43526272Y19508236D01*
X43479673Y19601821D01*
X43396422Y19712063D01*
X43356762Y19764582D01*
X43206041Y19901981D01*
X43206039Y19901983D01*
X43032642Y20009345D01*
X43032635Y20009349D01*
X42894211Y20062974D01*
X42842456Y20083024D01*
X42641976Y20120500D01*
X42438024Y20120500D01*
X42237544Y20083024D01*
X42237541Y20083024D01*
X42237541Y20083023D01*
X42047364Y20009349D01*
X42047357Y20009345D01*
X41873960Y19901983D01*
X41873958Y19901981D01*
X41723237Y19764582D01*
X41600327Y19601822D01*
X41509422Y19419261D01*
X41509417Y19419248D01*
X41453602Y19223083D01*
X41434785Y19020001D01*
X41434785Y19020000D01*
X41105215Y19020000D01*
X41099616Y19080419D01*
X41086397Y19223083D01*
X41080679Y19243179D01*
X41030582Y19419250D01*
X41027350Y19425740D01*
X40986272Y19508236D01*
X40939673Y19601821D01*
X40856422Y19712063D01*
X40816762Y19764582D01*
X40666041Y19901981D01*
X40666039Y19901983D01*
X40492642Y20009345D01*
X40492635Y20009349D01*
X40354211Y20062974D01*
X40302456Y20083024D01*
X40101976Y20120500D01*
X39898024Y20120500D01*
X39697544Y20083024D01*
X39697541Y20083024D01*
X39697541Y20083023D01*
X39507364Y20009349D01*
X39507357Y20009345D01*
X39333960Y19901983D01*
X39333958Y19901981D01*
X39183237Y19764582D01*
X39060327Y19601822D01*
X38969422Y19419261D01*
X38969417Y19419248D01*
X38913602Y19223083D01*
X38894785Y19020001D01*
X38894785Y19020000D01*
X28090500Y19020000D01*
X28090500Y24633197D01*
X28093139Y24658642D01*
X28093785Y24661726D01*
X28095367Y24669269D01*
X28093260Y24686174D01*
X28090977Y24704492D01*
X28090500Y24712168D01*
X28090500Y24716111D01*
X28090499Y24716117D01*
X28086655Y24739154D01*
X28079865Y24793627D01*
X28077617Y24801173D01*
X28075065Y24808610D01*
X28048942Y24856881D01*
X28024826Y24906212D01*
X28024823Y24906215D01*
X28024823Y24906216D01*
X28020267Y24912598D01*
X28015423Y24918822D01*
X28015419Y24918826D01*
X27975041Y24955997D01*
X27330566Y25600472D01*
X27297081Y25661795D01*
X27295509Y25670508D01*
X27285165Y25742456D01*
X27271665Y25772018D01*
X27225377Y25873373D01*
X27131128Y25982143D01*
X27010053Y26059953D01*
X27010051Y26059954D01*
X27010049Y26059955D01*
X27010050Y26059955D01*
X26871963Y26100500D01*
X26871961Y26100500D01*
X26728039Y26100500D01*
X26728036Y26100500D01*
X26589949Y26059955D01*
X26468873Y25982144D01*
X26374623Y25873374D01*
X26374622Y25873372D01*
X26314834Y25742457D01*
X26294353Y25600000D01*
X26314834Y25457544D01*
X26374622Y25326629D01*
X26374623Y25326627D01*
X26468872Y25217857D01*
X26589947Y25140047D01*
X26589950Y25140046D01*
X26589949Y25140046D01*
X26728037Y25099500D01*
X26735564Y25098418D01*
X26799120Y25069396D01*
X26805602Y25063361D01*
X27303181Y24565782D01*
X27336666Y24504459D01*
X27339500Y24478101D01*
X27339500Y17591970D01*
X27319815Y17524931D01*
X27267011Y17479176D01*
X27197853Y17469232D01*
X27150223Y17486543D01*
X27032642Y17559345D01*
X27032635Y17559349D01*
X26918354Y17603621D01*
X26842456Y17633024D01*
X26641976Y17670500D01*
X26438024Y17670500D01*
X26237544Y17633024D01*
X26237541Y17633024D01*
X26237541Y17633023D01*
X26047364Y17559349D01*
X26047357Y17559345D01*
X25869084Y17448963D01*
X25868443Y17449997D01*
X25808856Y17427491D01*
X25740523Y17442061D01*
X25690914Y17491263D01*
X25675500Y17551138D01*
X25675500Y25222817D01*
X25695185Y25289856D01*
X25705783Y25304015D01*
X25725377Y25326627D01*
X25785165Y25457543D01*
X25805647Y25600000D01*
X25785165Y25742457D01*
X25725377Y25873373D01*
X25631128Y25982143D01*
X25510053Y26059953D01*
X25510051Y26059954D01*
X25510049Y26059955D01*
X25510050Y26059955D01*
X25371963Y26100500D01*
X25371961Y26100500D01*
X25228039Y26100500D01*
X25228036Y26100500D01*
X25089949Y26059955D01*
X24968873Y25982144D01*
X24874623Y25873374D01*
X24874622Y25873372D01*
X24814834Y25742457D01*
X24794353Y25600000D01*
X24814834Y25457544D01*
X24874622Y25326629D01*
X24874623Y25326627D01*
X24894212Y25304020D01*
X24923238Y25240466D01*
X24924500Y25222817D01*
X24924500Y17794500D01*
X24904815Y17727461D01*
X24852011Y17681706D01*
X24800500Y17670500D01*
X23125323Y17670500D01*
X23052264Y17655968D01*
X23052260Y17655967D01*
X22969399Y17600601D01*
X22914033Y17517740D01*
X22914032Y17517736D01*
X22899500Y17444679D01*
X22899499Y17444677D01*
X22899499Y15695324D01*
X22899500Y15695322D01*
X22914032Y15622265D01*
X22914033Y15622261D01*
X22914034Y15622260D01*
X22969399Y15539399D01*
X23028365Y15500000D01*
X23052260Y15484034D01*
X23052264Y15484033D01*
X23125321Y15469501D01*
X23125324Y15469500D01*
X23125326Y15469500D01*
X24339100Y15469500D01*
X24406139Y15449815D01*
X24451894Y15397011D01*
X24461838Y15327853D01*
X24432813Y15264297D01*
X24426781Y15257819D01*
X23805601Y14636640D01*
X23744278Y14603155D01*
X23735571Y14601584D01*
X23728040Y14600502D01*
X23589949Y14559955D01*
X23468873Y14482144D01*
X23374623Y14373374D01*
X23374622Y14373372D01*
X23314834Y14242457D01*
X23294353Y14100000D01*
X23313195Y13968944D01*
X23303251Y13899786D01*
X23257496Y13846982D01*
X23190456Y13827298D01*
X23123417Y13846983D01*
X23102776Y13863617D01*
X22337319Y14629074D01*
X22303834Y14690397D01*
X22301000Y14716755D01*
X22301000Y15151668D01*
X22320685Y15218707D01*
X22321401Y15219664D01*
X22325868Y15226618D01*
X22325877Y15226627D01*
X22385665Y15357543D01*
X22406147Y15500000D01*
X22385665Y15642457D01*
X22325877Y15773373D01*
X22231628Y15882143D01*
X22110553Y15959953D01*
X22110551Y15959954D01*
X22110549Y15959955D01*
X22110550Y15959955D01*
X21972463Y16000500D01*
X21972461Y16000500D01*
X21828539Y16000500D01*
X21828536Y16000500D01*
X21690449Y15959955D01*
X21569373Y15882144D01*
X21475123Y15773374D01*
X21475122Y15773372D01*
X21415334Y15642457D01*
X21394853Y15500001D01*
X18816662Y15500001D01*
X18891128Y15547857D01*
X18985377Y15656627D01*
X19045165Y15787543D01*
X19063007Y15911640D01*
X19092030Y15975193D01*
X19098049Y15981658D01*
X24355483Y21239091D01*
X24382316Y21265924D01*
X24386401Y21278050D01*
X24388118Y21281421D01*
X24398271Y21297986D01*
X24411296Y21315910D01*
X24418140Y21336978D01*
X24425586Y21354955D01*
X24435646Y21374696D01*
X24439112Y21396585D01*
X24443652Y21415499D01*
X24450499Y21436567D01*
X24450499Y21465924D01*
X24450500Y21465949D01*
X24450500Y26482746D01*
X24470185Y26549785D01*
X24486819Y26570427D01*
X25079573Y27163181D01*
X25140896Y27196666D01*
X25167254Y27199500D01*
X26813431Y27199500D01*
X26813433Y27199500D01*
X26834501Y27206346D01*
X26853417Y27210888D01*
X26875304Y27214354D01*
X26895044Y27224414D01*
X26913011Y27231856D01*
X26934090Y27238704D01*
X26952026Y27251737D01*
X26968588Y27261886D01*
X26988342Y27271950D01*
X27003834Y27287443D01*
X27003841Y27287448D01*
X29163052Y29446659D01*
X29163057Y29446666D01*
X29178550Y29462158D01*
X29178553Y29462166D01*
X29184388Y29470195D01*
X29187695Y29474359D01*
X29275877Y29576127D01*
X29335665Y29707043D01*
X29352762Y29825958D01*
X29362279Y29846799D01*
X29356523Y29855756D01*
X29352762Y29873044D01*
X29335665Y29991957D01*
X29275877Y30122872D01*
X29275876Y30122874D01*
X29181628Y30231643D01*
X29060553Y30309453D01*
X29060551Y30309454D01*
X29060549Y30309455D01*
X29060550Y30309455D01*
X28922463Y30350000D01*
X28922461Y30350000D01*
X28778539Y30350000D01*
X28778536Y30350000D01*
X28640449Y30309455D01*
X28519373Y30231644D01*
X28425123Y30122874D01*
X28425122Y30122872D01*
X28365334Y29991957D01*
X28344853Y29849500D01*
X28344853Y29849498D01*
X28347113Y29833776D01*
X28337168Y29764618D01*
X28312056Y29728451D01*
X26620426Y28036819D01*
X26559103Y28003334D01*
X26532745Y28000500D01*
X24915948Y28000500D01*
X24915924Y28000499D01*
X24886564Y28000499D01*
X24865499Y27993654D01*
X24846582Y27989113D01*
X24824700Y27985648D01*
X24824695Y27985646D01*
X24804950Y27975586D01*
X24786986Y27968145D01*
X24765907Y27961295D01*
X24747984Y27948273D01*
X24731398Y27938109D01*
X24711659Y27928051D01*
X24711656Y27928049D01*
X24630530Y27846927D01*
X24630504Y27846897D01*
X23744513Y26960906D01*
X23721949Y26938341D01*
X23721948Y26938340D01*
X23711891Y26918603D01*
X23701731Y26902023D01*
X23688706Y26884095D01*
X23688703Y26884090D01*
X23681854Y26863012D01*
X23674413Y26845048D01*
X23664354Y26825305D01*
X23660887Y26803418D01*
X23656347Y26784509D01*
X23649500Y26763433D01*
X23649500Y21717256D01*
X23629815Y21650217D01*
X23613181Y21629575D01*
X21712680Y19729075D01*
X21651357Y19695590D01*
X21581665Y19700574D01*
X21537318Y19729075D01*
X19066394Y22200000D01*
X21394353Y22200000D01*
X21414834Y22057544D01*
X21456756Y21965750D01*
X21474623Y21926627D01*
X21568872Y21817857D01*
X21689947Y21740047D01*
X21689950Y21740046D01*
X21689949Y21740046D01*
X21828036Y21699501D01*
X21828038Y21699500D01*
X21828039Y21699500D01*
X21971962Y21699500D01*
X21971962Y21699501D01*
X22110053Y21740047D01*
X22231128Y21817857D01*
X22325377Y21926627D01*
X22385165Y22057543D01*
X22389572Y22088203D01*
X22418597Y22151759D01*
X22424616Y22158225D01*
X22955483Y22689091D01*
X22955483Y22689092D01*
X22978050Y22711658D01*
X22988106Y22731397D01*
X22998270Y22747984D01*
X23011296Y22765910D01*
X23018142Y22786984D01*
X23025585Y22804953D01*
X23035646Y22824696D01*
X23039112Y22846583D01*
X23043655Y22865502D01*
X23048818Y22881392D01*
X23050500Y22886567D01*
X23050500Y23013433D01*
X23050500Y28100373D01*
X23070185Y28167412D01*
X23122989Y28213167D01*
X23139566Y28219350D01*
X23210050Y28240046D01*
X23210050Y28240047D01*
X23210053Y28240047D01*
X23331128Y28317857D01*
X23425377Y28426627D01*
X23485165Y28557543D01*
X23505647Y28700000D01*
X23485165Y28842457D01*
X23425377Y28973373D01*
X23331128Y29082143D01*
X23210053Y29159953D01*
X23210051Y29159954D01*
X23210049Y29159955D01*
X23210050Y29159955D01*
X23071963Y29200500D01*
X23071961Y29200500D01*
X22928039Y29200500D01*
X22928036Y29200500D01*
X22789949Y29159955D01*
X22668873Y29082144D01*
X22574623Y28973374D01*
X22574622Y28973372D01*
X22514835Y28842459D01*
X22514834Y28842455D01*
X22510426Y28811796D01*
X22481399Y28748241D01*
X22475370Y28741766D01*
X22385635Y28652029D01*
X22344516Y28610909D01*
X22344513Y28610906D01*
X22321949Y28588341D01*
X22321948Y28588340D01*
X22311891Y28568603D01*
X22301731Y28552023D01*
X22288706Y28534095D01*
X22288703Y28534090D01*
X22281854Y28513012D01*
X22274413Y28495048D01*
X22264354Y28475305D01*
X22260887Y28453418D01*
X22256347Y28434509D01*
X22249500Y28413433D01*
X22249500Y23167255D01*
X22229815Y23100216D01*
X22213181Y23079574D01*
X21859009Y22725403D01*
X21806263Y22694107D01*
X21689949Y22659955D01*
X21568873Y22582144D01*
X21474623Y22473374D01*
X21474622Y22473372D01*
X21414834Y22342457D01*
X21394353Y22200000D01*
X19066394Y22200000D01*
X18594287Y22672107D01*
X18594256Y22672136D01*
X18573342Y22693050D01*
X18573341Y22693051D01*
X18553600Y22703110D01*
X18537014Y22713274D01*
X18519090Y22726296D01*
X18519091Y22726296D01*
X18498018Y22733143D01*
X18480045Y22740588D01*
X18460307Y22750645D01*
X18460304Y22750646D01*
X18438418Y22754113D01*
X18419507Y22758654D01*
X18398439Y22765499D01*
X18398434Y22765500D01*
X18398433Y22765500D01*
X18398429Y22765500D01*
X17901737Y22765500D01*
X17834698Y22785185D01*
X17790737Y22834229D01*
X17734673Y22946821D01*
X17634423Y23079574D01*
X17611762Y23109582D01*
X17461041Y23246981D01*
X17461039Y23246983D01*
X17287642Y23354345D01*
X17287635Y23354349D01*
X17192546Y23391187D01*
X17097456Y23428024D01*
X16896976Y23465500D01*
X16693024Y23465500D01*
X16492544Y23428024D01*
X16492541Y23428024D01*
X16492541Y23428023D01*
X16302364Y23354349D01*
X16302357Y23354345D01*
X16128960Y23246983D01*
X16128958Y23246981D01*
X15978237Y23109582D01*
X15855327Y22946822D01*
X15764422Y22764261D01*
X15764417Y22764248D01*
X15708602Y22568083D01*
X15689785Y22365001D01*
X15689785Y22365000D01*
X15360215Y22365000D01*
X15341397Y22568083D01*
X15285582Y22764250D01*
X15285557Y22764300D01*
X15235165Y22865502D01*
X15194673Y22946821D01*
X15123005Y23041725D01*
X15071762Y23109582D01*
X14921041Y23246981D01*
X14921039Y23246983D01*
X14747642Y23354345D01*
X14747635Y23354349D01*
X14652546Y23391187D01*
X14557456Y23428024D01*
X14356976Y23465500D01*
X14153024Y23465500D01*
X13952544Y23428024D01*
X13952541Y23428024D01*
X13952541Y23428023D01*
X13762364Y23354349D01*
X13762357Y23354345D01*
X13644777Y23281543D01*
X13577416Y23262988D01*
X13510717Y23283796D01*
X13465856Y23337361D01*
X13455500Y23386970D01*
X13455500Y23487747D01*
X13475185Y23554786D01*
X13491815Y23575424D01*
X13755456Y23839066D01*
X13816777Y23872549D01*
X13886468Y23867565D01*
X13887756Y23867075D01*
X13952544Y23841976D01*
X14153024Y23804500D01*
X14153026Y23804500D01*
X14356974Y23804500D01*
X14356976Y23804500D01*
X14557456Y23841976D01*
X14747637Y23915652D01*
X14921041Y24023019D01*
X15053276Y24143567D01*
X15071762Y24160419D01*
X15080427Y24171893D01*
X15194673Y24323179D01*
X15285582Y24505750D01*
X15341397Y24701917D01*
X15360215Y24905000D01*
X15359581Y24911837D01*
X15341397Y25108083D01*
X15332772Y25138397D01*
X15285582Y25304250D01*
X15274439Y25326628D01*
X15241272Y25393236D01*
X15194673Y25486821D01*
X15124982Y25579107D01*
X15071762Y25649582D01*
X14921041Y25786981D01*
X14921039Y25786983D01*
X14747642Y25894345D01*
X14747635Y25894349D01*
X14652546Y25931187D01*
X14557456Y25968024D01*
X14356976Y26005500D01*
X14153024Y26005500D01*
X13952544Y25968024D01*
X13952541Y25968024D01*
X13952541Y25968023D01*
X13762364Y25894349D01*
X13762357Y25894345D01*
X13588960Y25786983D01*
X13588958Y25786981D01*
X13438237Y25649582D01*
X13315327Y25486822D01*
X13224422Y25304261D01*
X13224417Y25304248D01*
X13198766Y25214093D01*
X13161487Y25155000D01*
X13098177Y25125443D01*
X13028937Y25134805D01*
X12975751Y25180115D01*
X12955504Y25246987D01*
X12955500Y25248028D01*
X12955500Y25527746D01*
X12975185Y25594785D01*
X12991815Y25615423D01*
X13755455Y26379064D01*
X13816776Y26412547D01*
X13886467Y26407563D01*
X13887927Y26407008D01*
X13952538Y26381978D01*
X13952539Y26381978D01*
X13952544Y26381976D01*
X14153024Y26344500D01*
X14153026Y26344500D01*
X14356974Y26344500D01*
X14356976Y26344500D01*
X14557456Y26381976D01*
X14747637Y26455652D01*
X14921041Y26563019D01*
X15071764Y26700421D01*
X15194673Y26863179D01*
X15285582Y27045750D01*
X15341397Y27241917D01*
X15360215Y27445000D01*
X15689785Y27445000D01*
X15708602Y27241918D01*
X15764417Y27045753D01*
X15764422Y27045740D01*
X15855327Y26863179D01*
X15978237Y26700419D01*
X16128958Y26563020D01*
X16128960Y26563018D01*
X16175652Y26534108D01*
X16302363Y26455652D01*
X16492544Y26381976D01*
X16693024Y26344500D01*
X16693026Y26344500D01*
X16896974Y26344500D01*
X16896976Y26344500D01*
X17097456Y26381976D01*
X17287637Y26455652D01*
X17461041Y26563019D01*
X17611764Y26700421D01*
X17734673Y26863179D01*
X17825582Y27045750D01*
X17881397Y27241917D01*
X17900215Y27445000D01*
X17896533Y27484731D01*
X17881397Y27648082D01*
X17881092Y27649154D01*
X17831139Y27824720D01*
X17831725Y27894584D01*
X17862722Y27946331D01*
X21354573Y31438181D01*
X21415897Y31471666D01*
X21442255Y31474500D01*
X22149928Y31474500D01*
X22216967Y31454815D01*
X22216968Y31454815D01*
X22218345Y31453930D01*
X22239949Y31440046D01*
X22308824Y31419823D01*
X22376336Y31400000D01*
X22378036Y31399501D01*
X22378038Y31399500D01*
X22378039Y31399500D01*
X22521962Y31399500D01*
X22521962Y31399501D01*
X22660053Y31440047D01*
X22781128Y31517857D01*
X22875377Y31626627D01*
X22935165Y31757543D01*
X22955647Y31900000D01*
X22935165Y32042457D01*
X22875377Y32173373D01*
X22781128Y32282143D01*
X22660053Y32359953D01*
X22660051Y32359954D01*
X22660049Y32359955D01*
X22660050Y32359955D01*
X22521963Y32400500D01*
X22521961Y32400500D01*
X22378039Y32400500D01*
X22378036Y32400500D01*
X22239949Y32359955D01*
X22239948Y32359954D01*
X22139166Y32295185D01*
X22072126Y32275500D01*
X21161567Y32275500D01*
X21140491Y32268653D01*
X21121582Y32264113D01*
X21099695Y32260646D01*
X21079952Y32250587D01*
X21061988Y32243146D01*
X21040910Y32236297D01*
X21040905Y32236294D01*
X21022977Y32223269D01*
X21006397Y32213109D01*
X20986660Y32203052D01*
X20986659Y32203051D01*
X20964094Y32180487D01*
X20964091Y32180484D01*
X17294544Y28510939D01*
X17233221Y28477454D01*
X17163529Y28482438D01*
X17162119Y28482974D01*
X17097456Y28508024D01*
X16896976Y28545500D01*
X16693024Y28545500D01*
X16492544Y28508024D01*
X16492541Y28508024D01*
X16492541Y28508023D01*
X16302364Y28434349D01*
X16302357Y28434345D01*
X16128960Y28326983D01*
X16128958Y28326981D01*
X15978237Y28189582D01*
X15855327Y28026822D01*
X15764422Y27844261D01*
X15764417Y27844248D01*
X15708602Y27648083D01*
X15689785Y27445001D01*
X15689785Y27445000D01*
X15360215Y27445000D01*
X15356533Y27484731D01*
X15341397Y27648083D01*
X15312261Y27750484D01*
X15285582Y27844250D01*
X15273827Y27867857D01*
X15219665Y27976629D01*
X15194673Y28026821D01*
X15088504Y28167412D01*
X15071762Y28189582D01*
X14921041Y28326981D01*
X14921039Y28326983D01*
X14747642Y28434345D01*
X14747635Y28434349D01*
X14636367Y28477454D01*
X14557456Y28508024D01*
X14356976Y28545500D01*
X14153024Y28545500D01*
X13952544Y28508024D01*
X13952541Y28508024D01*
X13952541Y28508023D01*
X13762364Y28434349D01*
X13762357Y28434345D01*
X13588960Y28326983D01*
X13588958Y28326981D01*
X13438237Y28189582D01*
X13315327Y28026822D01*
X13224422Y27844261D01*
X13224417Y27844248D01*
X13168602Y27648083D01*
X13149785Y27445001D01*
X13149785Y27445000D01*
X13168602Y27241918D01*
X13168603Y27241915D01*
X13218859Y27065284D01*
X13218272Y26995417D01*
X13187274Y26943669D01*
X12362181Y26118575D01*
X12300858Y26085090D01*
X12231167Y26090074D01*
X12175233Y26131946D01*
X12150816Y26197410D01*
X12150500Y26206256D01*
X12150500Y30243745D01*
X12170185Y30310784D01*
X12222989Y30356539D01*
X12292147Y30366483D01*
X12355703Y30337458D01*
X12362181Y30331426D01*
X12364515Y30329092D01*
X12364516Y30329091D01*
X12946950Y29746658D01*
X13036658Y29656950D01*
X13056395Y29646894D01*
X13072981Y29636731D01*
X13090910Y29623704D01*
X13090912Y29623704D01*
X13090913Y29623703D01*
X13111974Y29616860D01*
X13129953Y29609414D01*
X13149694Y29599355D01*
X13149696Y29599354D01*
X13160341Y29597669D01*
X13223476Y29567742D01*
X13251944Y29530470D01*
X13289545Y29454957D01*
X13315328Y29403177D01*
X13438237Y29240419D01*
X13588958Y29103020D01*
X13588960Y29103018D01*
X13622673Y29082144D01*
X13762363Y28995652D01*
X13952544Y28921976D01*
X14153024Y28884500D01*
X14153026Y28884500D01*
X14356974Y28884500D01*
X14356976Y28884500D01*
X14557456Y28921976D01*
X14747637Y28995652D01*
X14921041Y29103019D01*
X15071764Y29240421D01*
X15194673Y29403179D01*
X15285582Y29585750D01*
X15341397Y29781917D01*
X15360215Y29985000D01*
X15689785Y29985000D01*
X15708602Y29781918D01*
X15764417Y29585753D01*
X15764422Y29585740D01*
X15855327Y29403179D01*
X15978237Y29240419D01*
X16128958Y29103020D01*
X16128960Y29103018D01*
X16162673Y29082144D01*
X16302363Y28995652D01*
X16492544Y28921976D01*
X16693024Y28884500D01*
X16693026Y28884500D01*
X16896974Y28884500D01*
X16896976Y28884500D01*
X17097456Y28921976D01*
X17287637Y28995652D01*
X17461041Y29103019D01*
X17611764Y29240421D01*
X17734673Y29403179D01*
X17825582Y29585750D01*
X17881397Y29781917D01*
X17900215Y29985000D01*
X17881397Y30188083D01*
X17825582Y30384250D01*
X17734673Y30566821D01*
X17620616Y30717857D01*
X17611762Y30729582D01*
X17461041Y30866981D01*
X17461039Y30866983D01*
X17287642Y30974345D01*
X17287635Y30974349D01*
X17190913Y31011819D01*
X17097456Y31048024D01*
X16896976Y31085500D01*
X16693024Y31085500D01*
X16492544Y31048024D01*
X16492541Y31048024D01*
X16492541Y31048023D01*
X16302364Y30974349D01*
X16302357Y30974345D01*
X16128960Y30866983D01*
X16128958Y30866981D01*
X15978237Y30729582D01*
X15855327Y30566822D01*
X15764422Y30384261D01*
X15764417Y30384248D01*
X15708602Y30188083D01*
X15689785Y29985001D01*
X15689785Y29985000D01*
X15360215Y29985000D01*
X15341397Y30188083D01*
X15285582Y30384250D01*
X15194673Y30566821D01*
X15080616Y30717857D01*
X15071762Y30729582D01*
X14921041Y30866981D01*
X14921039Y30866983D01*
X14747642Y30974345D01*
X14747635Y30974349D01*
X14650913Y31011819D01*
X14557456Y31048024D01*
X14356976Y31085500D01*
X14153024Y31085500D01*
X13952544Y31048024D01*
X13952541Y31048024D01*
X13952541Y31048023D01*
X13762364Y30974349D01*
X13762357Y30974345D01*
X13588960Y30866983D01*
X13588958Y30866981D01*
X13438237Y30729581D01*
X13377211Y30648770D01*
X13321101Y30607134D01*
X13251389Y30602443D01*
X13190578Y30635815D01*
X13106816Y30719576D01*
X13073334Y30780898D01*
X13070500Y30807255D01*
X13070500Y31365245D01*
X13090185Y31432284D01*
X13142989Y31478039D01*
X13212147Y31487983D01*
X13263385Y31468350D01*
X13307260Y31439034D01*
X13307262Y31439034D01*
X13307263Y31439033D01*
X13380321Y31424501D01*
X13380324Y31424500D01*
X13380326Y31424500D01*
X15129676Y31424500D01*
X15129677Y31424501D01*
X15202740Y31439034D01*
X15285601Y31494399D01*
X15340966Y31577260D01*
X15355500Y31650326D01*
X15355500Y33399674D01*
X15346624Y33444297D01*
X15340967Y33472736D01*
X15340966Y33472737D01*
X15340966Y33472740D01*
X15340964Y33472743D01*
X15338768Y33478046D01*
X15331299Y33547515D01*
X15362573Y33609995D01*
X15422662Y33645648D01*
X15453329Y33649500D01*
X16084826Y33649500D01*
X16151865Y33629815D01*
X16197620Y33577011D01*
X16207564Y33507853D01*
X16178539Y33444297D01*
X16150103Y33420073D01*
X16128960Y33406983D01*
X16128958Y33406981D01*
X15978237Y33269582D01*
X15855327Y33106822D01*
X15764422Y32924261D01*
X15764417Y32924248D01*
X15708602Y32728083D01*
X15689785Y32525001D01*
X15689785Y32525000D01*
X15708602Y32321918D01*
X15764417Y32125753D01*
X15764422Y32125740D01*
X15855327Y31943179D01*
X15978237Y31780419D01*
X16128958Y31643020D01*
X16128960Y31643018D01*
X16201223Y31598275D01*
X16302363Y31535652D01*
X16492544Y31461976D01*
X16693024Y31424500D01*
X16693026Y31424500D01*
X16896974Y31424500D01*
X16896976Y31424500D01*
X17097456Y31461976D01*
X17287637Y31535652D01*
X17461041Y31643019D01*
X17611764Y31780421D01*
X17734673Y31943179D01*
X17825582Y32125750D01*
X17881397Y32321917D01*
X17900215Y32525000D01*
X17898883Y32539370D01*
X17881397Y32728083D01*
X17868107Y32774792D01*
X17825582Y32924250D01*
X17825581Y32924252D01*
X17824013Y32929763D01*
X17825994Y32930327D01*
X17820902Y32990826D01*
X17853614Y33052565D01*
X17854608Y33053572D01*
X17964218Y33163182D01*
X18025542Y33196666D01*
X18051899Y33199500D01*
X24736801Y33199500D01*
X24803840Y33179815D01*
X24849595Y33127011D01*
X24859539Y33057853D01*
X24858779Y33052565D01*
X24853564Y33016299D01*
X24824538Y32952744D01*
X24818507Y32946267D01*
X22884060Y31011819D01*
X22822737Y30978334D01*
X22796379Y30975500D01*
X21801804Y30975500D01*
X21776359Y30978139D01*
X21765733Y30980367D01*
X21765730Y30980367D01*
X21730508Y30975977D01*
X21722832Y30975500D01*
X21718886Y30975500D01*
X21701615Y30972619D01*
X21695858Y30971658D01*
X21641370Y30964866D01*
X21633857Y30962629D01*
X21626387Y30960064D01*
X21578122Y30933945D01*
X21528792Y30909829D01*
X21522375Y30905247D01*
X21516175Y30900421D01*
X21478992Y30860030D01*
X19405781Y28786819D01*
X19344458Y28753334D01*
X19318100Y28750500D01*
X19228036Y28750500D01*
X19089949Y28709955D01*
X18968873Y28632144D01*
X18874623Y28523374D01*
X18874622Y28523372D01*
X18814834Y28392457D01*
X18794353Y28250001D01*
X18814834Y28107544D01*
X18862426Y28003334D01*
X18874623Y27976627D01*
X18968872Y27867857D01*
X19035999Y27824717D01*
X19089948Y27790046D01*
X19224686Y27750484D01*
X19283464Y27712710D01*
X19312489Y27649154D01*
X19302546Y27579996D01*
X19277432Y27543826D01*
X17567268Y25833662D01*
X17505945Y25800177D01*
X17436253Y25805161D01*
X17414310Y25815916D01*
X17287642Y25894345D01*
X17287635Y25894349D01*
X17192546Y25931187D01*
X17097456Y25968024D01*
X16896976Y26005500D01*
X16693024Y26005500D01*
X16492544Y25968024D01*
X16492541Y25968024D01*
X16492541Y25968023D01*
X16302364Y25894349D01*
X16302357Y25894345D01*
X16128960Y25786983D01*
X16128958Y25786981D01*
X15978237Y25649582D01*
X15855327Y25486822D01*
X15764422Y25304261D01*
X15764417Y25304248D01*
X15708602Y25108083D01*
X15689785Y24905001D01*
X15689785Y24905000D01*
X15708602Y24701918D01*
X15764417Y24505753D01*
X15764422Y24505740D01*
X15855327Y24323179D01*
X15978237Y24160419D01*
X16128958Y24023020D01*
X16128960Y24023018D01*
X16182262Y23990015D01*
X16302363Y23915652D01*
X16492544Y23841976D01*
X16693024Y23804500D01*
X16693026Y23804500D01*
X16896974Y23804500D01*
X16896976Y23804500D01*
X17097456Y23841976D01*
X17287637Y23915652D01*
X17461041Y24023019D01*
X17593276Y24143567D01*
X17611762Y24160419D01*
X17620427Y24171893D01*
X17734673Y24323179D01*
X17825582Y24505750D01*
X17881397Y24701917D01*
X17900215Y24905000D01*
X17894660Y24964939D01*
X17908074Y25033505D01*
X17930447Y25064056D01*
X22579573Y29713181D01*
X22640896Y29746666D01*
X22667254Y29749500D01*
X23605796Y29749500D01*
X23605798Y29749500D01*
X23626866Y29756346D01*
X23645782Y29760888D01*
X23667669Y29764354D01*
X23687409Y29774414D01*
X23705376Y29781856D01*
X23726455Y29788704D01*
X23744391Y29801737D01*
X23760953Y29811886D01*
X23780707Y29821950D01*
X23796199Y29837443D01*
X23796206Y29837448D01*
X24813305Y30854547D01*
X25840062Y31881305D01*
X25901383Y31914788D01*
X25971075Y31909804D01*
X26027008Y31867932D01*
X26050050Y31814031D01*
X26052842Y31797301D01*
X26059634Y31742813D01*
X26061873Y31735293D01*
X26064434Y31727832D01*
X26064435Y31727830D01*
X26090271Y31680088D01*
X26090555Y31679563D01*
X26114674Y31630229D01*
X26119242Y31623831D01*
X26124082Y31617613D01*
X26164471Y31580431D01*
X26873789Y30871114D01*
X26889918Y30851253D01*
X26895856Y30842164D01*
X26923869Y30820361D01*
X26929631Y30815272D01*
X26932423Y30812480D01*
X26951426Y30798912D01*
X26994751Y30765191D01*
X26994753Y30765191D01*
X27001675Y30761445D01*
X27008738Y30757992D01*
X27008741Y30757990D01*
X27061352Y30742327D01*
X27087316Y30733414D01*
X27113279Y30724500D01*
X27121041Y30723205D01*
X27128851Y30722232D01*
X27128852Y30722231D01*
X27128852Y30722232D01*
X27128853Y30722231D01*
X27156280Y30723366D01*
X27183709Y30724500D01*
X27471626Y30724500D01*
X27538665Y30704815D01*
X27538666Y30704815D01*
X27639447Y30640047D01*
X27639448Y30640047D01*
X27639449Y30640046D01*
X27777536Y30599501D01*
X27777538Y30599500D01*
X27777539Y30599500D01*
X27921462Y30599500D01*
X27921462Y30599501D01*
X28028621Y30630965D01*
X28059550Y30640046D01*
X28059550Y30640047D01*
X28059553Y30640047D01*
X28180628Y30717857D01*
X28274877Y30826627D01*
X28334665Y30957543D01*
X28355147Y31100000D01*
X28334665Y31242457D01*
X28274877Y31373373D01*
X28180628Y31482143D01*
X28059553Y31559953D01*
X28059551Y31559954D01*
X28059549Y31559955D01*
X28059550Y31559955D01*
X27921463Y31600500D01*
X27921461Y31600500D01*
X27777539Y31600500D01*
X27777536Y31600500D01*
X27666949Y31568029D01*
X27597080Y31568029D01*
X27538302Y31605804D01*
X27509277Y31669360D01*
X27519221Y31738518D01*
X27573807Y31858043D01*
X27594289Y32000500D01*
X27573807Y32142957D01*
X27514019Y32273873D01*
X27514016Y32273876D01*
X27509224Y32281334D01*
X27512263Y32283288D01*
X27490391Y32331276D01*
X27489142Y32348833D01*
X27489142Y32774789D01*
X27489142Y32774791D01*
X27482295Y32795861D01*
X27477753Y32814781D01*
X27474288Y32836662D01*
X27464226Y32856409D01*
X27456782Y32874382D01*
X27449937Y32895449D01*
X27436916Y32913371D01*
X27426750Y32929960D01*
X27426563Y32930327D01*
X27416692Y32949700D01*
X27396040Y32970352D01*
X27396022Y32970372D01*
X26009287Y34357107D01*
X26009256Y34357136D01*
X25988342Y34378050D01*
X25988341Y34378051D01*
X25968600Y34388110D01*
X25952014Y34398274D01*
X25934090Y34411296D01*
X25934091Y34411296D01*
X25913018Y34418143D01*
X25895045Y34425588D01*
X25875307Y34435645D01*
X25875304Y34435646D01*
X25853418Y34439113D01*
X25834507Y34443654D01*
X25813439Y34450499D01*
X25813434Y34450500D01*
X25813433Y34450500D01*
X25813429Y34450500D01*
X24299733Y34450500D01*
X24232694Y34470185D01*
X24186939Y34522989D01*
X24176995Y34592147D01*
X24196630Y34643389D01*
X24235966Y34702260D01*
X24250500Y34775326D01*
X24250500Y36524674D01*
X24250500Y36524677D01*
X24250499Y36524679D01*
X24235967Y36597736D01*
X24235966Y36597740D01*
X24204858Y36644297D01*
X24180601Y36680601D01*
X24116108Y36723693D01*
X24097739Y36735967D01*
X24097735Y36735968D01*
X24024677Y36750500D01*
X24024674Y36750500D01*
X22528388Y36750500D01*
X22461349Y36770185D01*
X22415594Y36822989D01*
X22405650Y36892147D01*
X22434675Y36955703D01*
X22440703Y36962178D01*
X22467058Y36988534D01*
X22471761Y36992780D01*
X22506108Y37020722D01*
X22516456Y37035384D01*
X22530074Y37051551D01*
X22919622Y37441100D01*
X22977624Y37473813D01*
X23032365Y37487304D01*
X23172240Y37560717D01*
X23290483Y37665470D01*
X23290483Y37665472D01*
X23293695Y37668316D01*
X23356929Y37698037D01*
X23375922Y37699500D01*
X28657745Y37699500D01*
X28724784Y37679815D01*
X28745426Y37663181D01*
X29563181Y36845427D01*
X29596666Y36784104D01*
X29599500Y36757746D01*
X29599500Y36370056D01*
X29579815Y36303017D01*
X29557727Y36277241D01*
X29509521Y36234535D01*
X29509515Y36234528D01*
X29419781Y36104525D01*
X29419780Y36104524D01*
X29363762Y35956819D01*
X29344722Y35800001D01*
X29344722Y35800000D01*
X29363762Y35643182D01*
X29398245Y35552260D01*
X29419780Y35495477D01*
X29437780Y35469400D01*
X29509517Y35365469D01*
X29557726Y35322761D01*
X29594853Y35263572D01*
X29599500Y35229945D01*
X29599500Y29890691D01*
X29587436Y29849609D01*
X29598238Y29825957D01*
X29599500Y29808310D01*
X29599500Y29248333D01*
X29579815Y29181294D01*
X29579094Y29180331D01*
X29574622Y29173372D01*
X29514834Y29042457D01*
X29494353Y28900000D01*
X29514834Y28757544D01*
X29540465Y28701422D01*
X29574623Y28626627D01*
X29668872Y28517857D01*
X29789947Y28440047D01*
X29789950Y28440046D01*
X29789949Y28440046D01*
X29928036Y28399501D01*
X29928038Y28399500D01*
X29928039Y28399500D01*
X30071962Y28399500D01*
X30071962Y28399501D01*
X30210053Y28440047D01*
X30331128Y28517857D01*
X30425377Y28626627D01*
X30485165Y28757543D01*
X30505647Y28900000D01*
X30485165Y29042457D01*
X30425377Y29173373D01*
X30425374Y29173376D01*
X30420582Y29180834D01*
X30423621Y29182788D01*
X30401749Y29230776D01*
X30400500Y29248333D01*
X30400500Y32600000D01*
X31454222Y32600000D01*
X31473262Y32443182D01*
X31526585Y32302583D01*
X31529280Y32295477D01*
X31619017Y32165470D01*
X31737260Y32060717D01*
X31737262Y32060716D01*
X31877134Y31987304D01*
X32030514Y31949500D01*
X32142245Y31949500D01*
X32209284Y31929815D01*
X32229926Y31913181D01*
X33563181Y30579926D01*
X33596666Y30518603D01*
X33599500Y30492245D01*
X33599500Y24370056D01*
X33579815Y24303017D01*
X33557727Y24277241D01*
X33509521Y24234535D01*
X33509515Y24234528D01*
X33419781Y24104525D01*
X33419780Y24104524D01*
X33363762Y23956819D01*
X33344722Y23800001D01*
X33344722Y23800000D01*
X33363762Y23643182D01*
X33397287Y23554786D01*
X33419780Y23495477D01*
X33509517Y23365470D01*
X33627760Y23260717D01*
X33627762Y23260716D01*
X33767634Y23187304D01*
X33921014Y23149500D01*
X33921015Y23149500D01*
X34078985Y23149500D01*
X34232365Y23187304D01*
X34261465Y23202577D01*
X34372240Y23260717D01*
X34490483Y23365470D01*
X34580220Y23495477D01*
X34636237Y23643182D01*
X34655278Y23800000D01*
X34641236Y23915652D01*
X34636237Y23956819D01*
X34611562Y24021880D01*
X34580220Y24104523D01*
X34490483Y24234530D01*
X34490480Y24234533D01*
X34490478Y24234535D01*
X34442273Y24277241D01*
X34405146Y24336430D01*
X34400500Y24370056D01*
X34400500Y30772931D01*
X34400500Y30772933D01*
X34393653Y30794003D01*
X34389111Y30812923D01*
X34385646Y30834804D01*
X34375584Y30854551D01*
X34368140Y30872524D01*
X34361295Y30893591D01*
X34348274Y30911513D01*
X34338108Y30928102D01*
X34332022Y30940046D01*
X34328050Y30947842D01*
X34307398Y30968494D01*
X34307380Y30968514D01*
X32797846Y32478047D01*
X32764361Y32539370D01*
X32762431Y32580673D01*
X32764778Y32600000D01*
X32745737Y32756818D01*
X32689720Y32904523D01*
X32599983Y33034530D01*
X32481740Y33139283D01*
X32481738Y33139284D01*
X32481737Y33139285D01*
X32341865Y33212697D01*
X32188486Y33250500D01*
X32188485Y33250500D01*
X32030515Y33250500D01*
X32030514Y33250500D01*
X31877134Y33212697D01*
X31737262Y33139285D01*
X31679658Y33088253D01*
X31632774Y33046717D01*
X31619016Y33034529D01*
X31529281Y32904525D01*
X31529280Y32904524D01*
X31473262Y32756819D01*
X31454222Y32600001D01*
X31454222Y32600000D01*
X30400500Y32600000D01*
X30400500Y35229945D01*
X30420185Y35296984D01*
X30442274Y35322761D01*
X30490482Y35365469D01*
X30491725Y35367270D01*
X30580220Y35495477D01*
X30629464Y35625324D01*
X33449499Y35625324D01*
X33449500Y35625322D01*
X33464032Y35552265D01*
X33464033Y35552261D01*
X33464034Y35552260D01*
X33519399Y35469399D01*
X33577937Y35430286D01*
X33602260Y35414034D01*
X33602264Y35414033D01*
X33675321Y35399501D01*
X33675324Y35399500D01*
X33675326Y35399500D01*
X34225500Y35399500D01*
X34292539Y35379815D01*
X34338294Y35327011D01*
X34349500Y35275500D01*
X34349500Y33513706D01*
X34348191Y33495737D01*
X34344710Y33471975D01*
X34349264Y33419936D01*
X34349500Y33414530D01*
X34349500Y33406291D01*
X34353306Y33373726D01*
X34360000Y33297209D01*
X34361461Y33290133D01*
X34361403Y33290122D01*
X34363034Y33282763D01*
X34363092Y33282776D01*
X34364757Y33275750D01*
X34391025Y33203576D01*
X34415185Y33130669D01*
X34418236Y33124126D01*
X34418182Y33124102D01*
X34421470Y33117312D01*
X34421521Y33117337D01*
X34424761Y33110887D01*
X34424762Y33110886D01*
X34424763Y33110883D01*
X34427435Y33106821D01*
X34466965Y33046717D01*
X34507287Y32981345D01*
X34511766Y32975681D01*
X34511719Y32975644D01*
X34516482Y32969798D01*
X34516528Y32969836D01*
X34521173Y32964300D01*
X34575156Y32913371D01*
X34577018Y32911614D01*
X35427916Y32060716D01*
X36263181Y31225452D01*
X36296666Y31164129D01*
X36299500Y31137771D01*
X36299500Y23313706D01*
X36298191Y23295737D01*
X36294710Y23271974D01*
X36299263Y23219937D01*
X36299499Y23214538D01*
X36299499Y23206297D01*
X36303306Y23173725D01*
X36310000Y23097209D01*
X36311461Y23090133D01*
X36311403Y23090122D01*
X36313034Y23082763D01*
X36313092Y23082776D01*
X36314757Y23075750D01*
X36341025Y23003576D01*
X36365185Y22930669D01*
X36368236Y22924126D01*
X36368182Y22924102D01*
X36371470Y22917312D01*
X36371521Y22917337D01*
X36374761Y22910887D01*
X36374762Y22910886D01*
X36374763Y22910883D01*
X36404610Y22865502D01*
X36416965Y22846717D01*
X36457287Y22781345D01*
X36461766Y22775681D01*
X36461719Y22775644D01*
X36466482Y22769798D01*
X36466528Y22769836D01*
X36471173Y22764300D01*
X36527017Y22711615D01*
X38164270Y21074362D01*
X38176051Y21060730D01*
X38190388Y21041472D01*
X38190389Y21041471D01*
X38190390Y21041470D01*
X38194380Y21038122D01*
X38230409Y21007889D01*
X38234397Y21004234D01*
X38240216Y20998415D01*
X38240220Y20998412D01*
X38240223Y20998409D01*
X38265959Y20978060D01*
X38324786Y20928698D01*
X38324787Y20928698D01*
X38324789Y20928696D01*
X38330818Y20924730D01*
X38330785Y20924681D01*
X38337147Y20920628D01*
X38337179Y20920679D01*
X38343319Y20916892D01*
X38343323Y20916889D01*
X38378132Y20900657D01*
X38412941Y20884425D01*
X38481565Y20849961D01*
X38481567Y20849960D01*
X38481569Y20849960D01*
X38488357Y20847489D01*
X38488336Y20847433D01*
X38495457Y20844957D01*
X38495476Y20845014D01*
X38502322Y20842746D01*
X38502327Y20842743D01*
X38502332Y20842742D01*
X38502335Y20842741D01*
X38577564Y20827208D01*
X38577565Y20827208D01*
X38652279Y20809500D01*
X38652282Y20809500D01*
X38652286Y20809499D01*
X38659453Y20808661D01*
X38659446Y20808602D01*
X38666944Y20807836D01*
X38666950Y20807895D01*
X38674139Y20807266D01*
X38674143Y20807267D01*
X38674144Y20807266D01*
X38750917Y20809500D01*
X39141693Y20809500D01*
X39208732Y20789815D01*
X39225231Y20777137D01*
X39333958Y20678020D01*
X39333960Y20678018D01*
X39433141Y20616608D01*
X39507363Y20570652D01*
X39697544Y20496976D01*
X39898024Y20459500D01*
X39898026Y20459500D01*
X40101974Y20459500D01*
X40101976Y20459500D01*
X40302456Y20496976D01*
X40492637Y20570652D01*
X40666041Y20678019D01*
X40738195Y20743796D01*
X40774769Y20777137D01*
X40837573Y20807754D01*
X40858307Y20809500D01*
X41681693Y20809500D01*
X41748732Y20789815D01*
X41765231Y20777137D01*
X41873958Y20678020D01*
X41873960Y20678018D01*
X41973141Y20616608D01*
X42047363Y20570652D01*
X42237544Y20496976D01*
X42438024Y20459500D01*
X42438026Y20459500D01*
X42641974Y20459500D01*
X42641976Y20459500D01*
X42842456Y20496976D01*
X43032637Y20570652D01*
X43206041Y20678019D01*
X43356764Y20815421D01*
X43479673Y20978179D01*
X43570582Y21160750D01*
X43626397Y21356917D01*
X43645215Y21560000D01*
X43639616Y21620419D01*
X43626397Y21763083D01*
X43620679Y21783179D01*
X43570582Y21959250D01*
X43567350Y21965740D01*
X43486030Y22129054D01*
X43479673Y22141821D01*
X43356764Y22304579D01*
X43356762Y22304582D01*
X43206041Y22441981D01*
X43206039Y22441983D01*
X43032642Y22549345D01*
X43032635Y22549349D01*
X42937546Y22586186D01*
X42842456Y22623024D01*
X42641976Y22660500D01*
X42438024Y22660500D01*
X42237544Y22623024D01*
X42237541Y22623024D01*
X42237541Y22623023D01*
X42047364Y22549349D01*
X42047357Y22549345D01*
X41873960Y22441983D01*
X41873958Y22441981D01*
X41765231Y22342863D01*
X41702427Y22312246D01*
X41681693Y22310500D01*
X40858307Y22310500D01*
X40791268Y22330185D01*
X40774769Y22342863D01*
X40666041Y22441981D01*
X40666039Y22441983D01*
X40492642Y22549345D01*
X40492635Y22549349D01*
X40397546Y22586186D01*
X40302456Y22623024D01*
X40101976Y22660500D01*
X39898024Y22660500D01*
X39697544Y22623024D01*
X39697541Y22623024D01*
X39697541Y22623023D01*
X39507364Y22549349D01*
X39507357Y22549345D01*
X39333960Y22441983D01*
X39333958Y22441981D01*
X39225231Y22342863D01*
X39162427Y22312246D01*
X39141693Y22310500D01*
X39102229Y22310500D01*
X39035190Y22330185D01*
X39014548Y22346819D01*
X38131069Y23230298D01*
X38950000Y23230298D01*
X38961602Y23171967D01*
X38961603Y23171966D01*
X39005808Y23105809D01*
X39071965Y23061604D01*
X39071966Y23061603D01*
X39130297Y23050001D01*
X39130301Y23050000D01*
X39750000Y23050000D01*
X39750000Y23487699D01*
X39769685Y23554738D01*
X39822489Y23600493D01*
X39891647Y23610437D01*
X39964237Y23600000D01*
X39964238Y23600000D01*
X40035762Y23600000D01*
X40035763Y23600000D01*
X40108353Y23610437D01*
X40177512Y23600493D01*
X40230315Y23554738D01*
X40250000Y23487699D01*
X40250000Y23050000D01*
X40869699Y23050000D01*
X40869702Y23050001D01*
X40928033Y23061603D01*
X40928034Y23061604D01*
X40994191Y23105809D01*
X41038396Y23171966D01*
X41038397Y23171967D01*
X41049999Y23230298D01*
X41050000Y23230301D01*
X41050000Y23850000D01*
X41518590Y23850000D01*
X41565233Y23696234D01*
X41662728Y23513834D01*
X41662732Y23513827D01*
X41793944Y23353945D01*
X41953826Y23222733D01*
X41953833Y23222729D01*
X42136233Y23125234D01*
X42290000Y23078590D01*
X42290000Y23487699D01*
X42309685Y23554738D01*
X42362489Y23600493D01*
X42431647Y23610437D01*
X42504237Y23600000D01*
X42504238Y23600000D01*
X42575762Y23600000D01*
X42575763Y23600000D01*
X42648353Y23610437D01*
X42717512Y23600493D01*
X42770315Y23554738D01*
X42790000Y23487699D01*
X42790000Y23078590D01*
X42943766Y23125234D01*
X43126166Y23222729D01*
X43126173Y23222733D01*
X43286055Y23353945D01*
X43417267Y23513827D01*
X43417271Y23513834D01*
X43514766Y23696234D01*
X43561410Y23850000D01*
X43153347Y23850000D01*
X43086308Y23869685D01*
X43040553Y23922489D01*
X43030609Y23991647D01*
X43034369Y24008933D01*
X43038171Y24021882D01*
X43040000Y24028111D01*
X43040000Y24171889D01*
X43035553Y24187033D01*
X43034369Y24191067D01*
X43034370Y24260936D01*
X43072145Y24319714D01*
X43135701Y24348738D01*
X43153347Y24350000D01*
X43561410Y24350000D01*
X43514766Y24503767D01*
X43417271Y24686167D01*
X43417267Y24686174D01*
X43286055Y24846056D01*
X43126173Y24977268D01*
X43126166Y24977272D01*
X42943763Y25074768D01*
X42790000Y25121413D01*
X42790000Y24712302D01*
X42770315Y24645263D01*
X42717511Y24599508D01*
X42648355Y24589564D01*
X42575766Y24600000D01*
X42575763Y24600000D01*
X42504237Y24600000D01*
X42504233Y24600000D01*
X42431645Y24589564D01*
X42362487Y24599508D01*
X42309684Y24645264D01*
X42290000Y24712302D01*
X42290000Y25121413D01*
X42136236Y25074768D01*
X41953833Y24977272D01*
X41953826Y24977268D01*
X41793944Y24846056D01*
X41662732Y24686174D01*
X41662728Y24686167D01*
X41565233Y24503767D01*
X41518590Y24350000D01*
X41926653Y24350000D01*
X41993692Y24330315D01*
X42039447Y24277511D01*
X42049391Y24208353D01*
X42045631Y24191067D01*
X42044447Y24187033D01*
X42040000Y24171889D01*
X42040000Y24028111D01*
X42041829Y24021882D01*
X42045631Y24008933D01*
X42045630Y23939064D01*
X42007855Y23880286D01*
X41944299Y23851262D01*
X41926653Y23850000D01*
X41518590Y23850000D01*
X41050000Y23850000D01*
X40613347Y23850000D01*
X40546308Y23869685D01*
X40500553Y23922489D01*
X40490609Y23991647D01*
X40494369Y24008933D01*
X40498171Y24021882D01*
X40500000Y24028111D01*
X40500000Y24171889D01*
X40495553Y24187033D01*
X40494369Y24191067D01*
X40494370Y24260936D01*
X40532145Y24319714D01*
X40595701Y24348738D01*
X40613347Y24350000D01*
X41050000Y24350000D01*
X41050000Y24969700D01*
X41049999Y24969703D01*
X41038397Y25028034D01*
X41038396Y25028035D01*
X40994191Y25094192D01*
X40928034Y25138397D01*
X40928033Y25138398D01*
X40869702Y25150000D01*
X40250000Y25150000D01*
X40250000Y24712302D01*
X40230315Y24645263D01*
X40177511Y24599508D01*
X40108355Y24589564D01*
X40035766Y24600000D01*
X40035763Y24600000D01*
X39964237Y24600000D01*
X39964233Y24600000D01*
X39891645Y24589564D01*
X39822487Y24599508D01*
X39769684Y24645264D01*
X39750000Y24712302D01*
X39750000Y25150000D01*
X39130297Y25150000D01*
X39071966Y25138398D01*
X39071965Y25138397D01*
X39005808Y25094192D01*
X38961603Y25028035D01*
X38961602Y25028034D01*
X38950000Y24969703D01*
X38950000Y24350000D01*
X39386653Y24350000D01*
X39453692Y24330315D01*
X39499447Y24277511D01*
X39509391Y24208353D01*
X39505631Y24191067D01*
X39504447Y24187033D01*
X39500000Y24171889D01*
X39500000Y24028111D01*
X39501829Y24021882D01*
X39505631Y24008933D01*
X39505630Y23939064D01*
X39467855Y23880286D01*
X39404299Y23851262D01*
X39386653Y23850000D01*
X38950000Y23850000D01*
X38950000Y23230298D01*
X38131069Y23230298D01*
X37836818Y23524549D01*
X37803333Y23585872D01*
X37800499Y23612230D01*
X37800499Y27492840D01*
X37800499Y31436309D01*
X37801808Y31454262D01*
X37805289Y31478023D01*
X37804928Y31482144D01*
X37800736Y31530061D01*
X37800500Y31535468D01*
X37800500Y31543703D01*
X37800500Y31543704D01*
X37800500Y31543709D01*
X37796691Y31576293D01*
X37789998Y31652798D01*
X37789996Y31652803D01*
X37788538Y31659867D01*
X37788597Y31659880D01*
X37786967Y31667236D01*
X37786908Y31667221D01*
X37785242Y31674247D01*
X37785241Y31674255D01*
X37758973Y31746427D01*
X37754936Y31758609D01*
X37734815Y31819334D01*
X37731763Y31825879D01*
X37731817Y31825905D01*
X37728533Y31832688D01*
X37728480Y31832660D01*
X37725238Y31839115D01*
X37710488Y31861541D01*
X37683029Y31903291D01*
X37642711Y31968656D01*
X37642710Y31968657D01*
X37642709Y31968659D01*
X37638233Y31974319D01*
X37638280Y31974357D01*
X37633519Y31980201D01*
X37633474Y31980162D01*
X37628834Y31985692D01*
X37627125Y31987304D01*
X37613139Y32000500D01*
X37572964Y32038404D01*
X35886819Y33724549D01*
X35853334Y33785872D01*
X35850500Y33812230D01*
X35850500Y35275500D01*
X35870185Y35342539D01*
X35922989Y35388294D01*
X35974500Y35399500D01*
X36724676Y35399500D01*
X36724677Y35399501D01*
X36797740Y35414034D01*
X36880601Y35469399D01*
X36935966Y35552260D01*
X36950500Y35625326D01*
X36950500Y37174674D01*
X36950500Y37174675D01*
X36950500Y37174677D01*
X36950499Y37174679D01*
X36935967Y37247736D01*
X36935966Y37247740D01*
X36880601Y37330601D01*
X36797740Y37385966D01*
X36797739Y37385967D01*
X36797735Y37385968D01*
X36724677Y37400500D01*
X36724674Y37400500D01*
X33675326Y37400500D01*
X33675323Y37400500D01*
X33602264Y37385968D01*
X33602260Y37385967D01*
X33519399Y37330601D01*
X33464033Y37247740D01*
X33464032Y37247736D01*
X33449500Y37174679D01*
X33449499Y37174677D01*
X33449499Y35625324D01*
X30629464Y35625324D01*
X30636237Y35643182D01*
X30655278Y35800000D01*
X30649930Y35844050D01*
X30636237Y35956819D01*
X30599469Y36053767D01*
X30580220Y36104523D01*
X30490483Y36234530D01*
X30490480Y36234533D01*
X30490478Y36234535D01*
X30442273Y36277241D01*
X30405146Y36336430D01*
X30400500Y36370056D01*
X30400500Y37008841D01*
X30400499Y37008871D01*
X30400499Y37038432D01*
X30400499Y37038433D01*
X30393653Y37059499D01*
X30389111Y37078420D01*
X30385646Y37100304D01*
X30375586Y37120048D01*
X30368140Y37138026D01*
X30361297Y37159087D01*
X30361296Y37159088D01*
X30361296Y37159090D01*
X30348269Y37177019D01*
X30338104Y37193608D01*
X30328050Y37213342D01*
X30238342Y37303050D01*
X29134287Y38407107D01*
X29134256Y38407136D01*
X29113342Y38428050D01*
X29113341Y38428051D01*
X29093600Y38438110D01*
X29077014Y38448274D01*
X29059090Y38461296D01*
X29059091Y38461296D01*
X29038018Y38468143D01*
X29020045Y38475588D01*
X29000307Y38485645D01*
X29000304Y38485646D01*
X28978418Y38489113D01*
X28959507Y38493654D01*
X28938439Y38500499D01*
X28938434Y38500500D01*
X28938433Y38500500D01*
X28938429Y38500500D01*
X23375922Y38500500D01*
X23308883Y38520185D01*
X23293695Y38531684D01*
X23290483Y38534529D01*
X23290483Y38534530D01*
X23172240Y38639283D01*
X23172238Y38639284D01*
X23172237Y38639285D01*
X23032365Y38712697D01*
X22878986Y38750500D01*
X22878985Y38750500D01*
X22721015Y38750500D01*
X22721014Y38750500D01*
X22567634Y38712697D01*
X22427762Y38639285D01*
X22309516Y38534529D01*
X22219781Y38404525D01*
X22219780Y38404524D01*
X22164325Y38258301D01*
X22136064Y38214591D01*
X21908292Y37986818D01*
X21846972Y37953334D01*
X21820613Y37950500D01*
X17881431Y37950500D01*
X17823805Y37964704D01*
X17732365Y38012696D01*
X17732364Y38012697D01*
X17732363Y38012697D01*
X17578986Y38050500D01*
X17578985Y38050500D01*
X17421015Y38050500D01*
X17421014Y38050500D01*
X17267636Y38012697D01*
X17221763Y37988621D01*
X17176194Y37964704D01*
X17118569Y37950500D01*
X14709397Y37950500D01*
X14643174Y37952762D01*
X14643173Y37952762D01*
X14643171Y37952762D01*
X14600170Y37942283D01*
X14593930Y37941098D01*
X14550079Y37935070D01*
X14533616Y37927919D01*
X14513575Y37921180D01*
X14496150Y37916934D01*
X14496145Y37916932D01*
X14457567Y37895242D01*
X14451881Y37892418D01*
X14411279Y37874780D01*
X14397357Y37863454D01*
X14379883Y37851562D01*
X14364246Y37842770D01*
X14364239Y37842765D01*
X14332940Y37811466D01*
X14328226Y37807212D01*
X14293893Y37779280D01*
X14283541Y37764615D01*
X14269920Y37748446D01*
X11217382Y34695908D01*
X11168957Y34650683D01*
X11145956Y34612861D01*
X11142384Y34607612D01*
X11115639Y34572342D01*
X11115636Y34572337D01*
X11109055Y34555648D01*
X11099653Y34536717D01*
X11090327Y34521381D01*
X11078385Y34478763D01*
X11076362Y34472745D01*
X11060122Y34431560D01*
X11058288Y34413716D01*
X11054342Y34392952D01*
X11049501Y34375672D01*
X11049500Y34375663D01*
X11049500Y34331406D01*
X11049175Y34325061D01*
X11044648Y34281030D01*
X11044648Y34281025D01*
X9097415Y34281025D01*
X9830072Y35013681D01*
X9891396Y35047166D01*
X9917754Y35050000D01*
X10256672Y35050000D01*
X10323710Y35030316D01*
X10385595Y34990546D01*
X10523682Y34950001D01*
X10523684Y34950000D01*
X10523685Y34950000D01*
X10667608Y34950000D01*
X10667608Y34950001D01*
X10805699Y34990547D01*
X10926774Y35068357D01*
X11021023Y35177127D01*
X11080811Y35308043D01*
X11101293Y35450500D01*
X11080811Y35592957D01*
X11080811Y35592958D01*
X11079036Y35599002D01*
X11079032Y35668872D01*
X11116804Y35727652D01*
X11119754Y35730129D01*
X11127635Y35736541D01*
X11145123Y35748443D01*
X11160755Y35757232D01*
X11160753Y35757232D01*
X11160759Y35757234D01*
X11192059Y35788536D01*
X11196771Y35792789D01*
X11231108Y35820722D01*
X11241456Y35835384D01*
X11255074Y35851551D01*
X14491705Y39088182D01*
X14553028Y39121666D01*
X14579386Y39124500D01*
X16175500Y39124500D01*
X16242539Y39104815D01*
X16288294Y39052011D01*
X16299500Y39000500D01*
X16299500Y38800322D01*
X16314032Y38727265D01*
X16314033Y38727261D01*
X16323765Y38712696D01*
X16369399Y38644399D01*
X16428365Y38605000D01*
X16452260Y38589034D01*
X16452264Y38589033D01*
X16525321Y38574501D01*
X16525324Y38574500D01*
X16525326Y38574500D01*
X18274676Y38574500D01*
X18274677Y38574501D01*
X18347740Y38589034D01*
X18430601Y38644399D01*
X18485966Y38727260D01*
X18500500Y38800326D01*
X18500500Y39000500D01*
X18520185Y39067539D01*
X18572989Y39113294D01*
X18624500Y39124500D01*
X34566202Y39124500D01*
X34623827Y39110297D01*
X34667635Y39087304D01*
X34742572Y39068834D01*
X34821014Y39049500D01*
X34821015Y39049500D01*
X34978985Y39049500D01*
X35132365Y39087304D01*
X35176172Y39110297D01*
X35233798Y39124500D01*
X35566202Y39124500D01*
X35623827Y39110297D01*
X35667635Y39087304D01*
X35742572Y39068834D01*
X35821014Y39049500D01*
X35821015Y39049500D01*
X35978985Y39049500D01*
X36132365Y39087304D01*
X36175109Y39109738D01*
X36272240Y39160717D01*
X36390483Y39265470D01*
X36480220Y39395477D01*
X36536237Y39543182D01*
X36555278Y39700000D01*
X36549685Y39746067D01*
X36536237Y39856819D01*
X36487321Y39985798D01*
X36480220Y40004523D01*
X36390483Y40134530D01*
X36272240Y40239283D01*
X36260995Y40245185D01*
X36219195Y40267124D01*
X36168983Y40315709D01*
X36153009Y40383728D01*
X36176345Y40449586D01*
X36231581Y40492373D01*
X36239702Y40495234D01*
X36326568Y40522488D01*
X36326571Y40522490D01*
X36495498Y40616252D01*
X36495505Y40616257D01*
X36642105Y40742108D01*
X36760368Y40894891D01*
X36760370Y40894895D01*
X36845457Y41068357D01*
X36866596Y41150000D01*
X35888443Y41150000D01*
X35821404Y41169685D01*
X35775649Y41222489D01*
X35765504Y41290186D01*
X35768511Y41313019D01*
X35779962Y41400000D01*
X35765504Y41509816D01*
X35776269Y41578849D01*
X35822649Y41631105D01*
X35888443Y41650000D01*
X36870471Y41650000D01*
X36807314Y41820528D01*
X36807312Y41820532D01*
X36705107Y41984504D01*
X36571997Y42124535D01*
X36571996Y42124536D01*
X36413413Y42234914D01*
X36235862Y42311107D01*
X36046606Y42350000D01*
X35450000Y42350000D01*
X35450000Y42088444D01*
X35430315Y42021405D01*
X35377511Y41975650D01*
X35309815Y41965505D01*
X35237700Y41974999D01*
X35237695Y41975000D01*
X35237690Y41975000D01*
X35162310Y41975000D01*
X35162304Y41975000D01*
X35162299Y41974999D01*
X35090185Y41965505D01*
X35021150Y41976271D01*
X34968894Y42022651D01*
X34950000Y42088444D01*
X34950000Y42350000D01*
X34401824Y42350000D01*
X34257778Y42335353D01*
X34073438Y42277516D01*
X34073428Y42277511D01*
X33904501Y42183749D01*
X33904494Y42183744D01*
X33757894Y42057893D01*
X33639631Y41905110D01*
X33639629Y41905106D01*
X33554542Y41731644D01*
X33533404Y41650000D01*
X34511557Y41650000D01*
X34578596Y41630315D01*
X34624351Y41577511D01*
X34634495Y41509816D01*
X34620038Y41400000D01*
X34631489Y41313019D01*
X34634496Y41290186D01*
X34623731Y41221151D01*
X34577351Y41168895D01*
X34511557Y41150000D01*
X33529529Y41150000D01*
X33592685Y40979473D01*
X33592687Y40979469D01*
X33694892Y40815497D01*
X33828002Y40675466D01*
X33828003Y40675465D01*
X33986586Y40565087D01*
X34164137Y40488894D01*
X34251392Y40470962D01*
X34313097Y40438185D01*
X34347286Y40377252D01*
X34343104Y40307507D01*
X34301880Y40251095D01*
X34236701Y40225926D01*
X34226431Y40225500D01*
X18624500Y40225500D01*
X18557461Y40245185D01*
X18511706Y40297989D01*
X18500500Y40349500D01*
X18500500Y40549677D01*
X18500499Y40549679D01*
X18485967Y40622736D01*
X18485966Y40622740D01*
X18481270Y40629768D01*
X18430601Y40705601D01*
X18347740Y40760966D01*
X18347739Y40760967D01*
X18347735Y40760968D01*
X18274677Y40775500D01*
X18274674Y40775500D01*
X16525326Y40775500D01*
X16525323Y40775500D01*
X16452264Y40760968D01*
X16452260Y40760967D01*
X16369399Y40705601D01*
X16314033Y40622740D01*
X16314032Y40622736D01*
X16299500Y40549679D01*
X16299500Y40349500D01*
X16279815Y40282461D01*
X16227011Y40236706D01*
X16175500Y40225500D01*
X14309397Y40225500D01*
X14243174Y40227762D01*
X14243173Y40227762D01*
X14243171Y40227762D01*
X14200170Y40217283D01*
X14193930Y40216098D01*
X14150079Y40210070D01*
X14133616Y40202919D01*
X14113575Y40196180D01*
X14096150Y40191934D01*
X14096145Y40191932D01*
X14057567Y40170242D01*
X14051881Y40167418D01*
X14011279Y40149780D01*
X13997357Y40138454D01*
X13979883Y40126562D01*
X13964246Y40117770D01*
X13964239Y40117765D01*
X13932940Y40086466D01*
X13928226Y40082212D01*
X13893893Y40054280D01*
X13883541Y40039615D01*
X13869920Y40023446D01*
X10633294Y36786819D01*
X10571971Y36753334D01*
X10545613Y36750500D01*
X8519236Y36750500D01*
X8453013Y36752762D01*
X8453012Y36752762D01*
X8453010Y36752762D01*
X8410009Y36742283D01*
X8403769Y36741098D01*
X8359918Y36735070D01*
X8343455Y36727919D01*
X8323414Y36721180D01*
X8305989Y36716934D01*
X8305982Y36716931D01*
X8267405Y36695241D01*
X8261718Y36692416D01*
X8221118Y36674780D01*
X8221115Y36674779D01*
X8207195Y36663454D01*
X8189725Y36651564D01*
X8174080Y36642767D01*
X8174079Y36642766D01*
X8142773Y36611461D01*
X8138060Y36607208D01*
X8103735Y36579283D01*
X8103730Y36579278D01*
X8093381Y36564617D01*
X8079762Y36548450D01*
X6317381Y34786068D01*
X6268957Y34740844D01*
X6245956Y34703022D01*
X6242384Y34697773D01*
X6215639Y34662503D01*
X6215636Y34662498D01*
X6209055Y34645809D01*
X6199653Y34626878D01*
X6190327Y34611542D01*
X6178385Y34568924D01*
X6176362Y34562906D01*
X6160122Y34521721D01*
X6158288Y34503877D01*
X6154342Y34483113D01*
X6149501Y34465833D01*
X6149500Y34465824D01*
X6149500Y34421567D01*
X6149175Y34415226D01*
X6147104Y34395088D01*
X6144648Y34371191D01*
X6144648Y34371186D01*
X5400000Y34371186D01*
X5400000Y39405000D01*
X7038590Y39405000D01*
X7085233Y39251234D01*
X7182728Y39068834D01*
X7182732Y39068827D01*
X7313944Y38908945D01*
X7473826Y38777733D01*
X7473833Y38777729D01*
X7656233Y38680234D01*
X7810000Y38633590D01*
X7810000Y39042699D01*
X7829685Y39109738D01*
X7882489Y39155493D01*
X7951647Y39165437D01*
X8024237Y39155000D01*
X8024238Y39155000D01*
X8095762Y39155000D01*
X8095763Y39155000D01*
X8168352Y39165437D01*
X8237510Y39155493D01*
X8290314Y39109739D01*
X8309999Y39042699D01*
X8309999Y38633590D01*
X8463766Y38680234D01*
X8646166Y38777729D01*
X8646173Y38777733D01*
X8655391Y38785298D01*
X9550000Y38785298D01*
X9561602Y38726967D01*
X9561603Y38726966D01*
X9605808Y38660809D01*
X9671965Y38616604D01*
X9671966Y38616603D01*
X9730297Y38605001D01*
X9730301Y38605000D01*
X10349999Y38605000D01*
X10349999Y39042699D01*
X10369683Y39109738D01*
X10422487Y39155493D01*
X10491646Y39165437D01*
X10498380Y39164469D01*
X10564237Y39155000D01*
X10564238Y39155000D01*
X10635762Y39155000D01*
X10635763Y39155000D01*
X10708353Y39165437D01*
X10777512Y39155493D01*
X10830315Y39109738D01*
X10850000Y39042699D01*
X10850000Y38605000D01*
X11469699Y38605000D01*
X11469702Y38605001D01*
X11528033Y38616603D01*
X11528034Y38616604D01*
X11594191Y38660809D01*
X11638396Y38726966D01*
X11638397Y38726967D01*
X11649999Y38785298D01*
X11650000Y38785301D01*
X11650000Y39405000D01*
X11213347Y39405000D01*
X11146308Y39424685D01*
X11100553Y39477489D01*
X11090609Y39546647D01*
X11094369Y39563933D01*
X11100000Y39583112D01*
X11100000Y39726889D01*
X11094369Y39746067D01*
X11094370Y39815936D01*
X11132145Y39874714D01*
X11195701Y39903738D01*
X11213347Y39905000D01*
X11650000Y39905000D01*
X11650000Y40524700D01*
X11649999Y40524703D01*
X11638397Y40583034D01*
X11638396Y40583035D01*
X11594191Y40649192D01*
X11528034Y40693397D01*
X11528033Y40693398D01*
X11469702Y40705000D01*
X10850000Y40705000D01*
X10850000Y40267302D01*
X10830315Y40200263D01*
X10777511Y40154508D01*
X10708355Y40144564D01*
X10635766Y40155000D01*
X10635763Y40155000D01*
X10564237Y40155000D01*
X10491646Y40144563D01*
X10422487Y40154507D01*
X10369683Y40200262D01*
X10349999Y40267301D01*
X10350000Y40705000D01*
X9730297Y40705000D01*
X9671966Y40693398D01*
X9671965Y40693397D01*
X9605808Y40649192D01*
X9561603Y40583035D01*
X9561602Y40583034D01*
X9550000Y40524703D01*
X9550000Y39905000D01*
X9986653Y39905000D01*
X10053692Y39885315D01*
X10099447Y39832511D01*
X10109391Y39763353D01*
X10105631Y39746067D01*
X10100000Y39726889D01*
X10100000Y39583112D01*
X10105631Y39563933D01*
X10105630Y39494064D01*
X10067855Y39435286D01*
X10004299Y39406262D01*
X9986653Y39405000D01*
X9550000Y39405000D01*
X9550000Y38785298D01*
X8655391Y38785298D01*
X8806055Y38908945D01*
X8937267Y39068827D01*
X8937271Y39068834D01*
X9034766Y39251234D01*
X9081410Y39405000D01*
X8673347Y39405000D01*
X8606308Y39424685D01*
X8560553Y39477489D01*
X8550609Y39546647D01*
X8554369Y39563933D01*
X8560000Y39583112D01*
X8560000Y39726889D01*
X8554369Y39746067D01*
X8554370Y39815936D01*
X8592145Y39874714D01*
X8655701Y39903738D01*
X8673347Y39905000D01*
X9081410Y39905000D01*
X9034766Y40058767D01*
X8937271Y40241167D01*
X8937267Y40241174D01*
X8806055Y40401056D01*
X8646173Y40532268D01*
X8646166Y40532272D01*
X8463763Y40629768D01*
X8310000Y40676413D01*
X8310000Y40267302D01*
X8290315Y40200263D01*
X8237511Y40154508D01*
X8168355Y40144564D01*
X8095766Y40155000D01*
X8095763Y40155000D01*
X8024237Y40155000D01*
X8024233Y40155000D01*
X7951645Y40144564D01*
X7882487Y40154508D01*
X7829684Y40200264D01*
X7810000Y40267302D01*
X7809999Y40676413D01*
X7656236Y40629768D01*
X7473833Y40532272D01*
X7473826Y40532268D01*
X7313944Y40401056D01*
X7182732Y40241174D01*
X7182728Y40241167D01*
X7085233Y40058767D01*
X7038590Y39905000D01*
X7446653Y39905000D01*
X7513692Y39885315D01*
X7559447Y39832511D01*
X7569391Y39763353D01*
X7565631Y39746067D01*
X7560000Y39726889D01*
X7560000Y39583112D01*
X7565631Y39563933D01*
X7565630Y39494064D01*
X7527855Y39435286D01*
X7464299Y39406262D01*
X7446653Y39405000D01*
X7038590Y39405000D01*
X5400000Y39405000D01*
X5400000Y42195000D01*
X6954785Y42195000D01*
X6973602Y41991918D01*
X7029417Y41795753D01*
X7029422Y41795740D01*
X7120327Y41613179D01*
X7243237Y41450419D01*
X7393958Y41313020D01*
X7393960Y41313018D01*
X7493141Y41251608D01*
X7567363Y41205652D01*
X7757544Y41131976D01*
X7958024Y41094500D01*
X7958026Y41094500D01*
X8161974Y41094500D01*
X8161976Y41094500D01*
X8362456Y41131976D01*
X8552637Y41205652D01*
X8726041Y41313019D01*
X8876764Y41450421D01*
X8986116Y41595228D01*
X9042225Y41636863D01*
X9085070Y41644500D01*
X9574930Y41644500D01*
X9641969Y41624815D01*
X9673884Y41595227D01*
X9783237Y41450419D01*
X9933958Y41313020D01*
X9933960Y41313018D01*
X10033141Y41251608D01*
X10107363Y41205652D01*
X10297544Y41131976D01*
X10498024Y41094500D01*
X10498026Y41094500D01*
X10701974Y41094500D01*
X10701976Y41094500D01*
X10902456Y41131976D01*
X11092637Y41205652D01*
X11266041Y41313019D01*
X11416764Y41450421D01*
X11526116Y41595228D01*
X11582225Y41636863D01*
X11625070Y41644500D01*
X13035603Y41644500D01*
X13101826Y41642238D01*
X13144832Y41652720D01*
X13151051Y41653902D01*
X13194920Y41659930D01*
X13211383Y41667082D01*
X13231416Y41673819D01*
X13248852Y41678067D01*
X13287465Y41699779D01*
X13293090Y41702573D01*
X13333720Y41720220D01*
X13347632Y41731540D01*
X13365123Y41743443D01*
X13380755Y41752232D01*
X13380753Y41752232D01*
X13380759Y41752234D01*
X13412059Y41783536D01*
X13416771Y41787789D01*
X13451108Y41815722D01*
X13461456Y41830384D01*
X13475074Y41846551D01*
X13843523Y42215000D01*
X16294785Y42215000D01*
X16313602Y42011918D01*
X16369417Y41815753D01*
X16369422Y41815740D01*
X16460327Y41633179D01*
X16583237Y41470419D01*
X16733958Y41333020D01*
X16733960Y41333018D01*
X16803137Y41290186D01*
X16907363Y41225652D01*
X17097544Y41151976D01*
X17298024Y41114500D01*
X17298026Y41114500D01*
X17501974Y41114500D01*
X17501976Y41114500D01*
X17702456Y41151976D01*
X17892637Y41225652D01*
X18066041Y41333019D01*
X18216764Y41470421D01*
X18339673Y41633179D01*
X18430582Y41815750D01*
X18486397Y42011917D01*
X18505215Y42215000D01*
X18486397Y42418083D01*
X18430582Y42614250D01*
X18339673Y42796821D01*
X18216764Y42959579D01*
X18216762Y42959582D01*
X18066041Y43096981D01*
X18066039Y43096983D01*
X17892642Y43204345D01*
X17892635Y43204349D01*
X17754082Y43258024D01*
X17702456Y43278024D01*
X17501976Y43315500D01*
X17298024Y43315500D01*
X17097544Y43278024D01*
X17097541Y43278024D01*
X17097541Y43278023D01*
X16907364Y43204349D01*
X16907357Y43204345D01*
X16733960Y43096983D01*
X16733958Y43096981D01*
X16583237Y42959582D01*
X16460327Y42796822D01*
X16369422Y42614261D01*
X16369417Y42614248D01*
X16313602Y42418083D01*
X16294785Y42215001D01*
X16294785Y42215000D01*
X13843523Y42215000D01*
X15796705Y44168181D01*
X15858029Y44201666D01*
X15884387Y44204500D01*
X16374930Y44204500D01*
X16441969Y44184815D01*
X16473883Y44155228D01*
X16478717Y44148827D01*
X16583237Y44010419D01*
X16733958Y43873020D01*
X16733960Y43873018D01*
X16758653Y43857729D01*
X16907363Y43765652D01*
X17097544Y43691976D01*
X17298024Y43654500D01*
X17298026Y43654500D01*
X17501974Y43654500D01*
X17501976Y43654500D01*
X17702456Y43691976D01*
X17892637Y43765652D01*
X18066041Y43873019D01*
X18216764Y44010421D01*
X18326116Y44155228D01*
X18382225Y44196863D01*
X18425070Y44204500D01*
X20180603Y44204500D01*
X20246826Y44202238D01*
X20289832Y44212720D01*
X20296051Y44213902D01*
X20339920Y44219930D01*
X20356383Y44227082D01*
X20376416Y44233819D01*
X20393852Y44238067D01*
X20432465Y44259779D01*
X20438090Y44262573D01*
X20478720Y44280220D01*
X20492632Y44291540D01*
X20510123Y44303443D01*
X20525755Y44312232D01*
X20525753Y44312232D01*
X20525759Y44312234D01*
X20557059Y44343536D01*
X20561771Y44347789D01*
X20596108Y44375722D01*
X20606456Y44390384D01*
X20620074Y44406551D01*
X25061456Y48847933D01*
X25122777Y48881416D01*
X25171915Y48882139D01*
X25293024Y48859500D01*
X25293026Y48859500D01*
X25496974Y48859500D01*
X25496976Y48859500D01*
X25697456Y48896976D01*
X25887637Y48970652D01*
X26061041Y49078019D01*
X26211764Y49215421D01*
X26334673Y49378179D01*
X26425582Y49560750D01*
X26481397Y49756917D01*
X26500215Y49960000D01*
X26829785Y49960000D01*
X26848602Y49756918D01*
X26904417Y49560753D01*
X26904422Y49560740D01*
X26995327Y49378179D01*
X27118237Y49215419D01*
X27268958Y49078020D01*
X27268960Y49078018D01*
X27368141Y49016608D01*
X27442363Y48970652D01*
X27632544Y48896976D01*
X27833024Y48859500D01*
X27833026Y48859500D01*
X28036974Y48859500D01*
X28036976Y48859500D01*
X28237456Y48896976D01*
X28427637Y48970652D01*
X28601041Y49078019D01*
X28751764Y49215421D01*
X28874673Y49378179D01*
X28965582Y49560750D01*
X29008048Y49710000D01*
X29453590Y49710000D01*
X29500233Y49556234D01*
X29597728Y49373834D01*
X29597732Y49373827D01*
X29728944Y49213945D01*
X29888826Y49082733D01*
X29888833Y49082729D01*
X30071233Y48985234D01*
X30225000Y48938590D01*
X30225000Y49347699D01*
X30244685Y49414738D01*
X30297489Y49460493D01*
X30366647Y49470437D01*
X30439237Y49460000D01*
X30439238Y49460000D01*
X30510762Y49460000D01*
X30510763Y49460000D01*
X30583353Y49470437D01*
X30652512Y49460493D01*
X30705315Y49414738D01*
X30725000Y49347699D01*
X30725000Y48938590D01*
X30878766Y48985234D01*
X31061166Y49082729D01*
X31061173Y49082733D01*
X31221055Y49213945D01*
X31352267Y49373827D01*
X31352271Y49373834D01*
X31449766Y49556234D01*
X31496410Y49710000D01*
X31088347Y49710000D01*
X31021308Y49729685D01*
X30975553Y49782489D01*
X30965609Y49851647D01*
X30969369Y49868933D01*
X30975000Y49888112D01*
X30975000Y50031889D01*
X30969369Y50051067D01*
X30969370Y50120936D01*
X31007145Y50179714D01*
X31070701Y50208738D01*
X31088347Y50210000D01*
X31496410Y50210000D01*
X31449766Y50363767D01*
X31352271Y50546167D01*
X31352267Y50546174D01*
X31221055Y50706056D01*
X31061173Y50837268D01*
X31061166Y50837272D01*
X30878763Y50934768D01*
X30725000Y50981413D01*
X30725000Y50572302D01*
X30705315Y50505263D01*
X30652511Y50459508D01*
X30583355Y50449564D01*
X30510766Y50460000D01*
X30510763Y50460000D01*
X30439237Y50460000D01*
X30439233Y50460000D01*
X30366645Y50449564D01*
X30297487Y50459508D01*
X30244684Y50505264D01*
X30225000Y50572302D01*
X30225000Y50981413D01*
X30071236Y50934768D01*
X29888833Y50837272D01*
X29888826Y50837268D01*
X29728944Y50706056D01*
X29597732Y50546174D01*
X29597728Y50546167D01*
X29500233Y50363767D01*
X29453590Y50210000D01*
X29861653Y50210000D01*
X29928692Y50190315D01*
X29974447Y50137511D01*
X29984391Y50068353D01*
X29980631Y50051067D01*
X29975000Y50031889D01*
X29975000Y49888112D01*
X29980631Y49868933D01*
X29980630Y49799064D01*
X29942855Y49740286D01*
X29879299Y49711262D01*
X29861653Y49710000D01*
X29453590Y49710000D01*
X29008048Y49710000D01*
X29021397Y49756917D01*
X29040215Y49960000D01*
X29021397Y50163083D01*
X28965582Y50359250D01*
X28874673Y50541821D01*
X28751764Y50704579D01*
X28751762Y50704582D01*
X28601041Y50841981D01*
X28601039Y50841983D01*
X28427642Y50949345D01*
X28427635Y50949349D01*
X28332546Y50986186D01*
X28237456Y51023024D01*
X28036976Y51060500D01*
X27833024Y51060500D01*
X27632544Y51023024D01*
X27632541Y51023024D01*
X27632541Y51023023D01*
X27442364Y50949349D01*
X27442357Y50949345D01*
X27268960Y50841983D01*
X27268958Y50841981D01*
X27118237Y50704582D01*
X26995327Y50541822D01*
X26904422Y50359261D01*
X26904417Y50359248D01*
X26848602Y50163083D01*
X26829785Y49960001D01*
X26829785Y49960000D01*
X26500215Y49960000D01*
X26481397Y50163083D01*
X26425582Y50359250D01*
X26334673Y50541821D01*
X26211764Y50704579D01*
X26211762Y50704582D01*
X26066211Y50837268D01*
X26061041Y50841981D01*
X26004222Y50877162D01*
X25957587Y50929190D01*
X25945500Y50982589D01*
X25945500Y51477413D01*
X25965185Y51544452D01*
X26004220Y51582838D01*
X26061041Y51618019D01*
X26211764Y51755421D01*
X26334673Y51918179D01*
X26425582Y52100750D01*
X26481397Y52296917D01*
X26500215Y52500000D01*
X26829785Y52500000D01*
X26848602Y52296918D01*
X26904417Y52100753D01*
X26904422Y52100740D01*
X26995327Y51918179D01*
X27118237Y51755419D01*
X27268958Y51618020D01*
X27268960Y51618018D01*
X27343336Y51571967D01*
X27442363Y51510652D01*
X27632544Y51436976D01*
X27833024Y51399500D01*
X27833026Y51399500D01*
X28036974Y51399500D01*
X28036976Y51399500D01*
X28237456Y51436976D01*
X28427637Y51510652D01*
X28601041Y51618019D01*
X28614510Y51630298D01*
X29425000Y51630298D01*
X29436602Y51571967D01*
X29436603Y51571966D01*
X29480808Y51505809D01*
X29546965Y51461604D01*
X29546966Y51461603D01*
X29605297Y51450001D01*
X29605301Y51450000D01*
X30225000Y51450000D01*
X30225000Y51887699D01*
X30244685Y51954738D01*
X30297489Y52000493D01*
X30366647Y52010437D01*
X30439237Y52000000D01*
X30439238Y52000000D01*
X30510762Y52000000D01*
X30510763Y52000000D01*
X30583353Y52010437D01*
X30652512Y52000493D01*
X30705315Y51954738D01*
X30725000Y51887699D01*
X30725000Y51450000D01*
X31344699Y51450000D01*
X31344702Y51450001D01*
X31403033Y51461603D01*
X31403034Y51461604D01*
X31469191Y51505809D01*
X31513396Y51571966D01*
X31513397Y51571967D01*
X31524999Y51630298D01*
X31525000Y51630301D01*
X31525000Y52250000D01*
X31088347Y52250000D01*
X31021308Y52269685D01*
X30975553Y52322489D01*
X30965609Y52391647D01*
X30969369Y52408933D01*
X30975000Y52428112D01*
X30975000Y52571889D01*
X30969369Y52591067D01*
X30969370Y52660936D01*
X31007145Y52719714D01*
X31070701Y52748738D01*
X31088347Y52750000D01*
X31525000Y52750000D01*
X31525000Y53369700D01*
X31524999Y53369703D01*
X31513397Y53428034D01*
X31513396Y53428035D01*
X31469191Y53494192D01*
X31403034Y53538397D01*
X31403033Y53538398D01*
X31344702Y53550000D01*
X30725000Y53550000D01*
X30725000Y53112302D01*
X30705315Y53045263D01*
X30652511Y52999508D01*
X30583355Y52989564D01*
X30510766Y53000000D01*
X30510763Y53000000D01*
X30439237Y53000000D01*
X30439233Y53000000D01*
X30366645Y52989564D01*
X30297487Y52999508D01*
X30244684Y53045264D01*
X30225000Y53112302D01*
X30225000Y53550000D01*
X29605297Y53550000D01*
X29546966Y53538398D01*
X29546965Y53538397D01*
X29480808Y53494192D01*
X29436603Y53428035D01*
X29436602Y53428034D01*
X29425000Y53369703D01*
X29425000Y52750000D01*
X29861653Y52750000D01*
X29928692Y52730315D01*
X29974447Y52677511D01*
X29984391Y52608353D01*
X29980631Y52591067D01*
X29975000Y52571889D01*
X29975000Y52428112D01*
X29980631Y52408933D01*
X29980630Y52339064D01*
X29942855Y52280286D01*
X29879299Y52251262D01*
X29861653Y52250000D01*
X29425000Y52250000D01*
X29425000Y51630298D01*
X28614510Y51630298D01*
X28751764Y51755421D01*
X28874673Y51918179D01*
X28965582Y52100750D01*
X29021397Y52296917D01*
X29040215Y52500000D01*
X29021397Y52703083D01*
X28965582Y52899250D01*
X28874673Y53081821D01*
X28751764Y53244579D01*
X28751762Y53244582D01*
X28601041Y53381981D01*
X28601039Y53381983D01*
X28427642Y53489345D01*
X28427635Y53489349D01*
X28271075Y53550000D01*
X28237456Y53563024D01*
X28036976Y53600500D01*
X27833024Y53600500D01*
X27632544Y53563024D01*
X27632541Y53563024D01*
X27632541Y53563023D01*
X27442364Y53489349D01*
X27442357Y53489345D01*
X27268960Y53381983D01*
X27268958Y53381981D01*
X27118237Y53244582D01*
X26995327Y53081822D01*
X26904422Y52899261D01*
X26904417Y52899248D01*
X26848602Y52703083D01*
X26829785Y52500001D01*
X26829785Y52500000D01*
X26500215Y52500000D01*
X26481397Y52703083D01*
X26425582Y52899250D01*
X26334673Y53081821D01*
X26211764Y53244579D01*
X26211762Y53244582D01*
X26061041Y53381981D01*
X26061039Y53381983D01*
X25887642Y53489345D01*
X25887635Y53489349D01*
X25731075Y53550000D01*
X25697456Y53563024D01*
X25496976Y53600500D01*
X25293024Y53600500D01*
X25092544Y53563024D01*
X25092541Y53563024D01*
X25092541Y53563023D01*
X24902364Y53489349D01*
X24902357Y53489345D01*
X24728960Y53381983D01*
X24728958Y53381981D01*
X24578237Y53244582D01*
X24455327Y53081822D01*
X24364422Y52899261D01*
X24364417Y52899248D01*
X24308602Y52703083D01*
X24289785Y52500001D01*
X24289785Y52500000D01*
X24308602Y52296918D01*
X24364417Y52100753D01*
X24364422Y52100740D01*
X24414585Y52000000D01*
X24455327Y51918179D01*
X24578236Y51755421D01*
X24728959Y51618019D01*
X24785778Y51582839D01*
X24832412Y51530813D01*
X24844500Y51477413D01*
X24844500Y50982589D01*
X24824815Y50915550D01*
X24785778Y50877162D01*
X24728957Y50841980D01*
X24578237Y50704582D01*
X24455327Y50541822D01*
X24364422Y50359261D01*
X24364417Y50359248D01*
X24308602Y50163083D01*
X24289785Y49960001D01*
X24289785Y49960000D01*
X24308602Y49756919D01*
X24311873Y49745423D01*
X24311283Y49675556D01*
X24280286Y49623813D01*
X24091303Y49434830D01*
X24029980Y49401345D01*
X23960288Y49406329D01*
X23904355Y49448201D01*
X23879938Y49513665D01*
X23884356Y49556446D01*
X23885578Y49560744D01*
X23885582Y49560750D01*
X23941397Y49756917D01*
X23960215Y49960000D01*
X23941397Y50163083D01*
X23885582Y50359250D01*
X23794673Y50541821D01*
X23671764Y50704579D01*
X23671762Y50704582D01*
X23521041Y50841981D01*
X23521039Y50841983D01*
X23347642Y50949345D01*
X23347635Y50949349D01*
X23252546Y50986186D01*
X23157456Y51023024D01*
X22956976Y51060500D01*
X22753024Y51060500D01*
X22552544Y51023024D01*
X22552541Y51023024D01*
X22552541Y51023023D01*
X22362364Y50949349D01*
X22362357Y50949345D01*
X22188960Y50841983D01*
X22188958Y50841981D01*
X22038237Y50704582D01*
X21915327Y50541822D01*
X21824422Y50359261D01*
X21824417Y50359248D01*
X21768602Y50163083D01*
X21749785Y49960001D01*
X21749785Y49960000D01*
X21768602Y49756918D01*
X21824417Y49560753D01*
X21824422Y49560740D01*
X21915327Y49378179D01*
X22038237Y49215419D01*
X22188958Y49078020D01*
X22188960Y49078018D01*
X22288141Y49016608D01*
X22362363Y48970652D01*
X22552544Y48896976D01*
X22753024Y48859500D01*
X22753026Y48859500D01*
X22956974Y48859500D01*
X22956976Y48859500D01*
X23157456Y48896976D01*
X23255744Y48935054D01*
X23325367Y48940915D01*
X23387108Y48908205D01*
X23421362Y48847309D01*
X23417257Y48777560D01*
X23388219Y48731745D01*
X19998294Y45341819D01*
X19936971Y45308334D01*
X19910613Y45305500D01*
X18425070Y45305500D01*
X18358031Y45325185D01*
X18326116Y45354773D01*
X18216762Y45499582D01*
X18066041Y45636981D01*
X18066039Y45636983D01*
X17892642Y45744345D01*
X17892635Y45744349D01*
X17797546Y45781187D01*
X17702456Y45818024D01*
X17501976Y45855500D01*
X17298024Y45855500D01*
X17097544Y45818024D01*
X17097541Y45818024D01*
X17097541Y45818023D01*
X16907364Y45744349D01*
X16907357Y45744345D01*
X16733960Y45636983D01*
X16733958Y45636981D01*
X16583237Y45499582D01*
X16473884Y45354773D01*
X16417775Y45313137D01*
X16374930Y45305500D01*
X15614415Y45305500D01*
X15548175Y45307763D01*
X15548174Y45307763D01*
X15505165Y45297283D01*
X15498931Y45296098D01*
X15455080Y45290070D01*
X15438615Y45282919D01*
X15418585Y45276183D01*
X15412701Y45274749D01*
X15401148Y45271933D01*
X15379973Y45260028D01*
X15362566Y45250241D01*
X15356880Y45247416D01*
X15316278Y45229780D01*
X15316276Y45229779D01*
X15302356Y45218454D01*
X15284886Y45206564D01*
X15269241Y45197767D01*
X15269240Y45197766D01*
X15237934Y45166461D01*
X15233221Y45162208D01*
X15198896Y45134283D01*
X15198891Y45134278D01*
X15188542Y45119617D01*
X15174923Y45103450D01*
X12853294Y42781819D01*
X12791971Y42748334D01*
X12765613Y42745500D01*
X11625070Y42745500D01*
X11558031Y42765185D01*
X11526116Y42794773D01*
X11524569Y42796821D01*
X11416764Y42939579D01*
X11416762Y42939582D01*
X11266041Y43076981D01*
X11266039Y43076983D01*
X11092642Y43184345D01*
X11092635Y43184349D01*
X10997546Y43221187D01*
X10902456Y43258024D01*
X10701976Y43295500D01*
X10498024Y43295500D01*
X10297544Y43258024D01*
X10297541Y43258024D01*
X10297541Y43258023D01*
X10107364Y43184349D01*
X10107357Y43184345D01*
X9933960Y43076983D01*
X9933958Y43076981D01*
X9783237Y42939582D01*
X9694495Y42822067D01*
X9675431Y42796821D01*
X9673884Y42794773D01*
X9617775Y42753137D01*
X9574930Y42745500D01*
X9085070Y42745500D01*
X9018031Y42765185D01*
X8986116Y42794773D01*
X8984569Y42796821D01*
X8876764Y42939579D01*
X8876762Y42939582D01*
X8726041Y43076981D01*
X8726039Y43076983D01*
X8552642Y43184345D01*
X8552635Y43184349D01*
X8457546Y43221187D01*
X8362456Y43258024D01*
X8161976Y43295500D01*
X7958024Y43295500D01*
X7757544Y43258024D01*
X7757541Y43258024D01*
X7757541Y43258023D01*
X7567364Y43184349D01*
X7567357Y43184345D01*
X7393960Y43076983D01*
X7393958Y43076981D01*
X7243237Y42939582D01*
X7120327Y42776822D01*
X7029422Y42594261D01*
X7029417Y42594248D01*
X6973602Y42398083D01*
X6954785Y42195001D01*
X6954785Y42195000D01*
X5400000Y42195000D01*
X5400000Y44485000D01*
X7038590Y44485000D01*
X7085233Y44331234D01*
X7182728Y44148834D01*
X7182732Y44148827D01*
X7313944Y43988945D01*
X7473826Y43857733D01*
X7473833Y43857729D01*
X7656233Y43760234D01*
X7810000Y43713590D01*
X7810000Y44122699D01*
X7829685Y44189738D01*
X7882489Y44235493D01*
X7951647Y44245437D01*
X8024237Y44235000D01*
X8024238Y44235000D01*
X8095762Y44235000D01*
X8095763Y44235000D01*
X8168352Y44245437D01*
X8237510Y44235493D01*
X8290314Y44189739D01*
X8309999Y44122699D01*
X8309999Y43713590D01*
X8463766Y43760234D01*
X8646166Y43857729D01*
X8646173Y43857733D01*
X8806055Y43988945D01*
X8937267Y44148827D01*
X8937271Y44148834D01*
X9034766Y44331234D01*
X9081410Y44485000D01*
X9578590Y44485000D01*
X9625233Y44331234D01*
X9722728Y44148834D01*
X9722732Y44148827D01*
X9853944Y43988945D01*
X10013826Y43857733D01*
X10013833Y43857729D01*
X10196233Y43760234D01*
X10349999Y43713590D01*
X10349999Y44122699D01*
X10369683Y44189738D01*
X10422487Y44235493D01*
X10491646Y44245437D01*
X10498380Y44244469D01*
X10564237Y44235000D01*
X10564238Y44235000D01*
X10635762Y44235000D01*
X10635763Y44235000D01*
X10708353Y44245437D01*
X10777512Y44235493D01*
X10830315Y44189738D01*
X10850000Y44122699D01*
X10850000Y43713590D01*
X11003766Y43760234D01*
X11186166Y43857729D01*
X11186173Y43857733D01*
X11346055Y43988945D01*
X11477267Y44148827D01*
X11477271Y44148834D01*
X11574766Y44331234D01*
X11621410Y44485000D01*
X11213347Y44485000D01*
X11146308Y44504685D01*
X11100553Y44557489D01*
X11090609Y44626647D01*
X11094369Y44643933D01*
X11100000Y44663112D01*
X11100000Y44806889D01*
X11094369Y44826067D01*
X11094370Y44895936D01*
X11132145Y44954714D01*
X11195701Y44983738D01*
X11213347Y44985000D01*
X11621410Y44985000D01*
X11574766Y45138767D01*
X11477271Y45321167D01*
X11477267Y45321174D01*
X11346055Y45481056D01*
X11186173Y45612268D01*
X11186166Y45612272D01*
X11003763Y45709768D01*
X10850000Y45756413D01*
X10850000Y45347302D01*
X10830315Y45280263D01*
X10777511Y45234508D01*
X10708355Y45224564D01*
X10635766Y45235000D01*
X10635763Y45235000D01*
X10564237Y45235000D01*
X10491646Y45224563D01*
X10422487Y45234507D01*
X10369683Y45280262D01*
X10349999Y45347301D01*
X10349999Y45756412D01*
X10196236Y45709768D01*
X10013833Y45612272D01*
X10013826Y45612268D01*
X9853944Y45481056D01*
X9722732Y45321174D01*
X9722728Y45321167D01*
X9625233Y45138767D01*
X9578590Y44985000D01*
X9986653Y44985000D01*
X10053692Y44965315D01*
X10099447Y44912511D01*
X10109391Y44843353D01*
X10105631Y44826067D01*
X10100000Y44806889D01*
X10100000Y44663112D01*
X10105631Y44643933D01*
X10105630Y44574064D01*
X10067855Y44515286D01*
X10004299Y44486262D01*
X9986653Y44485000D01*
X9578590Y44485000D01*
X9081410Y44485000D01*
X8673347Y44485000D01*
X8606308Y44504685D01*
X8560553Y44557489D01*
X8550609Y44626647D01*
X8554369Y44643933D01*
X8560000Y44663112D01*
X8560000Y44806889D01*
X8554369Y44826067D01*
X8554370Y44895936D01*
X8592145Y44954714D01*
X8655701Y44983738D01*
X8673347Y44985000D01*
X9081410Y44985000D01*
X9034766Y45138767D01*
X8937271Y45321167D01*
X8937267Y45321174D01*
X8806055Y45481056D01*
X8646173Y45612268D01*
X8646166Y45612272D01*
X8463763Y45709768D01*
X8310000Y45756413D01*
X8310000Y45347302D01*
X8290315Y45280263D01*
X8237511Y45234508D01*
X8168355Y45224564D01*
X8095766Y45235000D01*
X8095763Y45235000D01*
X8024237Y45235000D01*
X8024233Y45235000D01*
X7951645Y45224564D01*
X7882487Y45234508D01*
X7829684Y45280264D01*
X7810000Y45347302D01*
X7809999Y45756413D01*
X7656236Y45709768D01*
X7473833Y45612272D01*
X7473826Y45612268D01*
X7313944Y45481056D01*
X7182732Y45321174D01*
X7182728Y45321167D01*
X7085233Y45138767D01*
X7038590Y44985000D01*
X7446653Y44985000D01*
X7513692Y44965315D01*
X7559447Y44912511D01*
X7569391Y44843353D01*
X7565631Y44826067D01*
X7560000Y44806889D01*
X7560000Y44663112D01*
X7565631Y44643933D01*
X7565630Y44574064D01*
X7527855Y44515286D01*
X7464299Y44486262D01*
X7446653Y44485000D01*
X7038590Y44485000D01*
X5400000Y44485000D01*
X5400000Y49710000D01*
X19293590Y49710000D01*
X19340233Y49556234D01*
X19437728Y49373834D01*
X19437732Y49373827D01*
X19568944Y49213945D01*
X19728826Y49082733D01*
X19728833Y49082729D01*
X19911233Y48985234D01*
X20065000Y48938590D01*
X20065000Y49347699D01*
X20084685Y49414738D01*
X20137489Y49460493D01*
X20206647Y49470437D01*
X20279237Y49460000D01*
X20279238Y49460000D01*
X20350762Y49460000D01*
X20350763Y49460000D01*
X20423353Y49470437D01*
X20492512Y49460493D01*
X20545315Y49414738D01*
X20565000Y49347699D01*
X20565000Y48938590D01*
X20718766Y48985234D01*
X20901166Y49082729D01*
X20901173Y49082733D01*
X21061055Y49213945D01*
X21192267Y49373827D01*
X21192271Y49373834D01*
X21289766Y49556234D01*
X21336410Y49710000D01*
X20928347Y49710000D01*
X20861308Y49729685D01*
X20815553Y49782489D01*
X20805609Y49851647D01*
X20809369Y49868933D01*
X20815000Y49888112D01*
X20815000Y50031889D01*
X20809369Y50051067D01*
X20809370Y50120936D01*
X20847145Y50179714D01*
X20910701Y50208738D01*
X20928347Y50210000D01*
X21336410Y50210000D01*
X21289766Y50363767D01*
X21192271Y50546167D01*
X21192267Y50546174D01*
X21061055Y50706056D01*
X20901173Y50837268D01*
X20901166Y50837272D01*
X20718763Y50934768D01*
X20565000Y50981413D01*
X20565000Y50572302D01*
X20545315Y50505263D01*
X20492511Y50459508D01*
X20423355Y50449564D01*
X20350766Y50460000D01*
X20350763Y50460000D01*
X20279237Y50460000D01*
X20279233Y50460000D01*
X20206645Y50449564D01*
X20137487Y50459508D01*
X20084684Y50505264D01*
X20065000Y50572302D01*
X20065000Y50981413D01*
X19911236Y50934768D01*
X19728833Y50837272D01*
X19728826Y50837268D01*
X19568944Y50706056D01*
X19437732Y50546174D01*
X19437728Y50546167D01*
X19340233Y50363767D01*
X19293590Y50210000D01*
X19701653Y50210000D01*
X19768692Y50190315D01*
X19814447Y50137511D01*
X19824391Y50068353D01*
X19820631Y50051067D01*
X19815000Y50031889D01*
X19815000Y49888112D01*
X19820631Y49868933D01*
X19820630Y49799064D01*
X19782855Y49740286D01*
X19719299Y49711262D01*
X19701653Y49710000D01*
X19293590Y49710000D01*
X5400000Y49710000D01*
X5400000Y52250000D01*
X19293590Y52250000D01*
X19340233Y52096234D01*
X19437728Y51913834D01*
X19437732Y51913827D01*
X19568944Y51753945D01*
X19728826Y51622733D01*
X19728833Y51622729D01*
X19911233Y51525234D01*
X20065000Y51478590D01*
X20065000Y51887699D01*
X20084685Y51954738D01*
X20137489Y52000493D01*
X20206647Y52010437D01*
X20279237Y52000000D01*
X20279238Y52000000D01*
X20350762Y52000000D01*
X20350763Y52000000D01*
X20423353Y52010437D01*
X20492512Y52000493D01*
X20545315Y51954738D01*
X20565000Y51887699D01*
X20565000Y51478590D01*
X20718766Y51525234D01*
X20901166Y51622729D01*
X20901173Y51622733D01*
X21061055Y51753945D01*
X21192267Y51913827D01*
X21192271Y51913834D01*
X21289766Y52096234D01*
X21336410Y52250000D01*
X20928347Y52250000D01*
X20861308Y52269685D01*
X20815553Y52322489D01*
X20805609Y52391647D01*
X20809369Y52408933D01*
X20815000Y52428112D01*
X20815000Y52500000D01*
X21749785Y52500000D01*
X21768602Y52296918D01*
X21824417Y52100753D01*
X21824422Y52100740D01*
X21915327Y51918179D01*
X22038237Y51755419D01*
X22188958Y51618020D01*
X22188960Y51618018D01*
X22263336Y51571967D01*
X22362363Y51510652D01*
X22552544Y51436976D01*
X22753024Y51399500D01*
X22753026Y51399500D01*
X22956974Y51399500D01*
X22956976Y51399500D01*
X23157456Y51436976D01*
X23347637Y51510652D01*
X23521041Y51618019D01*
X23671764Y51755421D01*
X23794673Y51918179D01*
X23885582Y52100750D01*
X23941397Y52296917D01*
X23960215Y52500000D01*
X23941397Y52703083D01*
X23885582Y52899250D01*
X23794673Y53081821D01*
X23671764Y53244579D01*
X23671762Y53244582D01*
X23521041Y53381981D01*
X23521039Y53381983D01*
X23347642Y53489345D01*
X23347635Y53489349D01*
X23191075Y53550000D01*
X23157456Y53563024D01*
X22956976Y53600500D01*
X22753024Y53600500D01*
X22552544Y53563024D01*
X22552541Y53563024D01*
X22552541Y53563023D01*
X22362364Y53489349D01*
X22362357Y53489345D01*
X22188960Y53381983D01*
X22188958Y53381981D01*
X22038237Y53244582D01*
X21915327Y53081822D01*
X21824422Y52899261D01*
X21824417Y52899248D01*
X21768602Y52703083D01*
X21749785Y52500001D01*
X21749785Y52500000D01*
X20815000Y52500000D01*
X20815000Y52571889D01*
X20809369Y52591067D01*
X20809370Y52660936D01*
X20847145Y52719714D01*
X20910701Y52748738D01*
X20928347Y52750000D01*
X21336410Y52750000D01*
X21289766Y52903767D01*
X21192271Y53086167D01*
X21192267Y53086174D01*
X21061055Y53246056D01*
X20901173Y53377268D01*
X20901166Y53377272D01*
X20718763Y53474768D01*
X20565000Y53521413D01*
X20565000Y53112302D01*
X20545315Y53045263D01*
X20492511Y52999508D01*
X20423355Y52989564D01*
X20350766Y53000000D01*
X20350763Y53000000D01*
X20279237Y53000000D01*
X20279233Y53000000D01*
X20206645Y52989564D01*
X20137487Y52999508D01*
X20084684Y53045264D01*
X20065000Y53112302D01*
X20065000Y53521413D01*
X19911236Y53474768D01*
X19728833Y53377272D01*
X19728826Y53377268D01*
X19568944Y53246056D01*
X19437732Y53086174D01*
X19437728Y53086167D01*
X19340233Y52903767D01*
X19293590Y52750000D01*
X19701653Y52750000D01*
X19768692Y52730315D01*
X19814447Y52677511D01*
X19824391Y52608353D01*
X19820631Y52591067D01*
X19815000Y52571889D01*
X19815000Y52428112D01*
X19820631Y52408933D01*
X19820630Y52339064D01*
X19782855Y52280286D01*
X19719299Y52251262D01*
X19701653Y52250000D01*
X19293590Y52250000D01*
X5400000Y52250000D01*
X5400000Y55476000D01*
X5419685Y55543039D01*
X5472489Y55588794D01*
X5524000Y55600000D01*
X45276000Y55600000D01*
X45343039Y55580315D01*
G37*
%TD.AperFunction*%
%TD*%
M02*
