%TF.GenerationSoftware,KiCad,Pcbnew,7.0.7-7.0.7~ubuntu23.04.1*%
%TF.CreationDate,2023-08-23T20:38:48+00:00*%
%TF.ProjectId,USBPDSINK01,55534250-4453-4494-9e4b-30312e6b6963,rev?*%
%TF.SameCoordinates,Original*%
%TF.FileFunction,Soldermask,Top*%
%TF.FilePolarity,Negative*%
%FSLAX46Y46*%
G04 Gerber Fmt 4.6, Leading zero omitted, Abs format (unit mm)*
G04 Created by KiCad (PCBNEW 7.0.7-7.0.7~ubuntu23.04.1) date 2023-08-23 20:38:48*
%MOMM*%
%LPD*%
G01*
G04 APERTURE LIST*
%ADD10R,3.000000X1.500000*%
%ADD11O,3.000000X1.500000*%
%ADD12C,6.000000*%
%ADD13R,1.700000X1.700000*%
%ADD14O,1.700000X1.700000*%
%ADD15C,0.650000*%
%ADD16O,1.000000X2.000000*%
%ADD17O,1.050000X2.100000*%
G04 APERTURE END LIST*
D10*
%TO.C,J7*%
X35200000Y36600000D03*
D11*
X35200000Y41600000D03*
%TD*%
D12*
%TO.C,M3*%
X10160000Y10160000D03*
%TD*%
D13*
%TO.C,J2*%
X30475000Y52500000D03*
D14*
X30475000Y49960000D03*
X27935000Y52500000D03*
X27935000Y49960000D03*
X25395000Y52500000D03*
X25395000Y49960000D03*
X22855000Y52500000D03*
X22855000Y49960000D03*
X20315000Y52500000D03*
X20315000Y49960000D03*
%TD*%
D13*
%TO.C,JP3*%
X17400000Y39675000D03*
D14*
X17400000Y42215000D03*
X17400000Y44755000D03*
%TD*%
D13*
%TO.C,J4*%
X10600000Y39655000D03*
D14*
X8060000Y39655000D03*
X10600000Y42195000D03*
X8060000Y42195000D03*
X10600000Y44735000D03*
X8060000Y44735000D03*
%TD*%
D13*
%TO.C,J5*%
X24000000Y16570000D03*
D14*
X26540000Y16570000D03*
%TD*%
D12*
%TO.C,M2*%
X40640000Y50800000D03*
%TD*%
%TO.C,M1*%
X10160000Y50800000D03*
%TD*%
D13*
%TO.C,J3*%
X40000000Y24100000D03*
D14*
X42540000Y24100000D03*
X40000000Y21560000D03*
X42540000Y21560000D03*
X40000000Y19020000D03*
X42540000Y19020000D03*
X40000000Y16480000D03*
X42540000Y16480000D03*
%TD*%
D13*
%TO.C,J6*%
X14255000Y32525000D03*
D14*
X16795000Y32525000D03*
X14255000Y29985000D03*
X16795000Y29985000D03*
X14255000Y27445000D03*
X16795000Y27445000D03*
X14255000Y24905000D03*
X16795000Y24905000D03*
X14255000Y22365000D03*
X16795000Y22365000D03*
X14255000Y19825000D03*
X16795000Y19825000D03*
X14255000Y17285000D03*
X16795000Y17285000D03*
%TD*%
D12*
%TO.C,M4*%
X40640000Y10160000D03*
%TD*%
D13*
%TO.C,JP1*%
X23150000Y35650000D03*
D14*
X20610000Y35650000D03*
%TD*%
D15*
%TO.C,J1*%
X28290000Y11815000D03*
X22510000Y11815000D03*
D16*
X29720000Y8135000D03*
X21080000Y8135000D03*
D17*
X29720000Y12315000D03*
X21080000Y12315000D03*
%TD*%
M02*
