M48
; DRILL file {KiCad 7.0.7-7.0.7~ubuntu23.04.1} date Wed Sep  6 21:08:48 2023
; FORMAT={3:3/ absolute / metric / suppress leading zeros}
; #@! TF.CreationDate,2023-09-06T21:08:48+00:00
; #@! TF.GenerationSoftware,Kicad,Pcbnew,7.0.7-7.0.7~ubuntu23.04.1
; #@! TF.FileFunction,Plated,1,2,PTH
FMAT,2
METRIC,TZ
; #@! TA.AperFunction,Plated,PTH,ViaDrill
T1C0.300
; #@! TA.AperFunction,Plated,PTH,ViaDrill
T2C0.400
; #@! TA.AperFunction,Plated,PTH,ComponentDrill
T3C0.600
; #@! TA.AperFunction,Plated,PTH,ComponentDrill
T4C1.000
; #@! TA.AperFunction,Plated,PTH,ComponentDrill
T5C1.400
; #@! TA.AperFunction,Plated,PTH,ComponentDrill
T6C3.000
%
G90
G05
T1
X8271Y34900
X8800Y28380
X8900Y33380
X10565Y35219
X13700Y34200
X15300Y10400
X16500Y9180
X18560Y15930
X19050Y27750
X21850Y21600
X21900Y15500
X22450Y31580
X23000Y28700
X24078Y14400
X25062Y32518
X25300Y29700
X25300Y28400
X25300Y25600
X25854Y32446
X26694Y13842
X26700Y29700
X26800Y25600
X27231Y32143
X27988Y30962
X28851Y29850
X30000Y28900
X34400Y12400
T2
X9400Y30300
X9600Y14870
X13600Y13250
X17100Y36984
X18000Y31300
X19950Y31450
X20800Y27080
X22800Y38100
X23100Y22050
X23900Y11100
X25700Y36480
X26300Y48100
X26300Y18200
X29150Y36030
X29800Y14150
X32110Y32600
X33600Y23680
X34900Y39700
X35900Y39700
T4
X8060Y44735
X8060Y42195
X8060Y39655
X10600Y44735
X10600Y42195
X10600Y39655
X14255Y32525
X14255Y29985
X14255Y27445
X14255Y24905
X14255Y22365
X14255Y19825
X14255Y17285
X16795Y32525
X16795Y29985
X16795Y27445
X16795Y24905
X16795Y22365
X16795Y19825
X16795Y17285
X17400Y45060
X17400Y42520
X17400Y39980
X18700Y36180
X20315Y52380
X20315Y49840
X21240Y36180
X22855Y52380
X22855Y49840
X24000Y16570
X25395Y52380
X25395Y49840
X26540Y16570
X27935Y52380
X27935Y49840
X30475Y52380
X30475Y49840
X40000Y24100
X40000Y21560
X40000Y19020
X40000Y16480
X42540Y24100
X42540Y21560
X42540Y19020
X42540Y16480
T5
X32400Y42180
X32400Y37180
X40600Y42180
X40600Y37180
T6
X10160Y50800
X10160Y10160
X40640Y50800
X40640Y10160
T3
G00X21080Y11765
M15
G01X21080Y12865
M16
G05
G00X21080Y7735
M15
G01X21080Y8535
M16
G05
G00X29720Y11765
M15
G01X29720Y12865
M16
G05
G00X29720Y7735
M15
G01X29720Y8535
M16
G05
T0
M30
