%TF.GenerationSoftware,KiCad,Pcbnew,7.0.7-7.0.7~ubuntu23.04.1*%
%TF.CreationDate,2023-08-23T22:45:47+00:00*%
%TF.ProjectId,USBPDSINK01,55534250-4453-4494-9e4b-30312e6b6963,rev?*%
%TF.SameCoordinates,Original*%
%TF.FileFunction,Legend,Bot*%
%TF.FilePolarity,Positive*%
%FSLAX46Y46*%
G04 Gerber Fmt 4.6, Leading zero omitted, Abs format (unit mm)*
G04 Created by KiCad (PCBNEW 7.0.7-7.0.7~ubuntu23.04.1) date 2023-08-23 22:45:47*
%MOMM*%
%LPD*%
G01*
G04 APERTURE LIST*
%ADD10C,0.150000*%
%ADD11C,0.100000*%
%ADD12C,0.120000*%
%ADD13C,0.200000*%
G04 APERTURE END LIST*
D10*
X16650000Y15750000D02*
X17950000Y16500000D01*
X28910839Y40765896D02*
X28434649Y40765896D01*
X29006077Y40480181D02*
X28672744Y41480181D01*
X28672744Y41480181D02*
X28339411Y40480181D01*
X28006077Y40480181D02*
X28006077Y41480181D01*
X28006077Y41480181D02*
X27767982Y41480181D01*
X27767982Y41480181D02*
X27625125Y41432562D01*
X27625125Y41432562D02*
X27529887Y41337324D01*
X27529887Y41337324D02*
X27482268Y41242086D01*
X27482268Y41242086D02*
X27434649Y41051610D01*
X27434649Y41051610D02*
X27434649Y40908753D01*
X27434649Y40908753D02*
X27482268Y40718277D01*
X27482268Y40718277D02*
X27529887Y40623039D01*
X27529887Y40623039D02*
X27625125Y40527800D01*
X27625125Y40527800D02*
X27767982Y40480181D01*
X27767982Y40480181D02*
X28006077Y40480181D01*
X27006077Y40480181D02*
X27006077Y41480181D01*
X27006077Y41480181D02*
X26767982Y41480181D01*
X26767982Y41480181D02*
X26625125Y41432562D01*
X26625125Y41432562D02*
X26529887Y41337324D01*
X26529887Y41337324D02*
X26482268Y41242086D01*
X26482268Y41242086D02*
X26434649Y41051610D01*
X26434649Y41051610D02*
X26434649Y40908753D01*
X26434649Y40908753D02*
X26482268Y40718277D01*
X26482268Y40718277D02*
X26529887Y40623039D01*
X26529887Y40623039D02*
X26625125Y40527800D01*
X26625125Y40527800D02*
X26767982Y40480181D01*
X26767982Y40480181D02*
X27006077Y40480181D01*
X25434649Y40480181D02*
X25767982Y40956372D01*
X26006077Y40480181D02*
X26006077Y41480181D01*
X26006077Y41480181D02*
X25625125Y41480181D01*
X25625125Y41480181D02*
X25529887Y41432562D01*
X25529887Y41432562D02*
X25482268Y41384943D01*
X25482268Y41384943D02*
X25434649Y41289705D01*
X25434649Y41289705D02*
X25434649Y41146848D01*
X25434649Y41146848D02*
X25482268Y41051610D01*
X25482268Y41051610D02*
X25529887Y41003991D01*
X25529887Y41003991D02*
X25625125Y40956372D01*
X25625125Y40956372D02*
X26006077Y40956372D01*
X23720363Y40480181D02*
X24291791Y40480181D01*
X24006077Y40480181D02*
X24006077Y41480181D01*
X24006077Y41480181D02*
X24101315Y41337324D01*
X24101315Y41337324D02*
X24196553Y41242086D01*
X24196553Y41242086D02*
X24291791Y41194467D01*
D11*
X30714285Y22185105D02*
X30980952Y22566058D01*
X31171428Y22185105D02*
X31171428Y22985105D01*
X31171428Y22985105D02*
X30866666Y22985105D01*
X30866666Y22985105D02*
X30790476Y22947010D01*
X30790476Y22947010D02*
X30752381Y22908915D01*
X30752381Y22908915D02*
X30714285Y22832724D01*
X30714285Y22832724D02*
X30714285Y22718439D01*
X30714285Y22718439D02*
X30752381Y22642248D01*
X30752381Y22642248D02*
X30790476Y22604153D01*
X30790476Y22604153D02*
X30866666Y22566058D01*
X30866666Y22566058D02*
X31171428Y22566058D01*
X29952381Y22185105D02*
X30409524Y22185105D01*
X30180952Y22185105D02*
X30180952Y22985105D01*
X30180952Y22985105D02*
X30257143Y22870820D01*
X30257143Y22870820D02*
X30333333Y22794629D01*
X30333333Y22794629D02*
X30409524Y22756534D01*
X29457142Y22985105D02*
X29380952Y22985105D01*
X29380952Y22985105D02*
X29304761Y22947010D01*
X29304761Y22947010D02*
X29266666Y22908915D01*
X29266666Y22908915D02*
X29228571Y22832724D01*
X29228571Y22832724D02*
X29190476Y22680343D01*
X29190476Y22680343D02*
X29190476Y22489867D01*
X29190476Y22489867D02*
X29228571Y22337486D01*
X29228571Y22337486D02*
X29266666Y22261296D01*
X29266666Y22261296D02*
X29304761Y22223200D01*
X29304761Y22223200D02*
X29380952Y22185105D01*
X29380952Y22185105D02*
X29457142Y22185105D01*
X29457142Y22185105D02*
X29533333Y22223200D01*
X29533333Y22223200D02*
X29571428Y22261296D01*
X29571428Y22261296D02*
X29609523Y22337486D01*
X29609523Y22337486D02*
X29647619Y22489867D01*
X29647619Y22489867D02*
X29647619Y22680343D01*
X29647619Y22680343D02*
X29609523Y22832724D01*
X29609523Y22832724D02*
X29571428Y22908915D01*
X29571428Y22908915D02*
X29533333Y22947010D01*
X29533333Y22947010D02*
X29457142Y22985105D01*
X33264285Y23835105D02*
X33530952Y24216058D01*
X33721428Y23835105D02*
X33721428Y24635105D01*
X33721428Y24635105D02*
X33416666Y24635105D01*
X33416666Y24635105D02*
X33340476Y24597010D01*
X33340476Y24597010D02*
X33302381Y24558915D01*
X33302381Y24558915D02*
X33264285Y24482724D01*
X33264285Y24482724D02*
X33264285Y24368439D01*
X33264285Y24368439D02*
X33302381Y24292248D01*
X33302381Y24292248D02*
X33340476Y24254153D01*
X33340476Y24254153D02*
X33416666Y24216058D01*
X33416666Y24216058D02*
X33721428Y24216058D01*
X32502381Y23835105D02*
X32959524Y23835105D01*
X32730952Y23835105D02*
X32730952Y24635105D01*
X32730952Y24635105D02*
X32807143Y24520820D01*
X32807143Y24520820D02*
X32883333Y24444629D01*
X32883333Y24444629D02*
X32959524Y24406534D01*
X32197619Y24558915D02*
X32159523Y24597010D01*
X32159523Y24597010D02*
X32083333Y24635105D01*
X32083333Y24635105D02*
X31892857Y24635105D01*
X31892857Y24635105D02*
X31816666Y24597010D01*
X31816666Y24597010D02*
X31778571Y24558915D01*
X31778571Y24558915D02*
X31740476Y24482724D01*
X31740476Y24482724D02*
X31740476Y24406534D01*
X31740476Y24406534D02*
X31778571Y24292248D01*
X31778571Y24292248D02*
X32235714Y23835105D01*
X32235714Y23835105D02*
X31740476Y23835105D01*
X34838704Y36363333D02*
X34876800Y36401429D01*
X34876800Y36401429D02*
X34914895Y36515714D01*
X34914895Y36515714D02*
X34914895Y36591905D01*
X34914895Y36591905D02*
X34876800Y36706191D01*
X34876800Y36706191D02*
X34800609Y36782381D01*
X34800609Y36782381D02*
X34724419Y36820476D01*
X34724419Y36820476D02*
X34572038Y36858572D01*
X34572038Y36858572D02*
X34457752Y36858572D01*
X34457752Y36858572D02*
X34305371Y36820476D01*
X34305371Y36820476D02*
X34229180Y36782381D01*
X34229180Y36782381D02*
X34152990Y36706191D01*
X34152990Y36706191D02*
X34114895Y36591905D01*
X34114895Y36591905D02*
X34114895Y36515714D01*
X34114895Y36515714D02*
X34152990Y36401429D01*
X34152990Y36401429D02*
X34191085Y36363333D01*
X34114895Y35639524D02*
X34114895Y36020476D01*
X34114895Y36020476D02*
X34495847Y36058572D01*
X34495847Y36058572D02*
X34457752Y36020476D01*
X34457752Y36020476D02*
X34419657Y35944286D01*
X34419657Y35944286D02*
X34419657Y35753810D01*
X34419657Y35753810D02*
X34457752Y35677619D01*
X34457752Y35677619D02*
X34495847Y35639524D01*
X34495847Y35639524D02*
X34572038Y35601429D01*
X34572038Y35601429D02*
X34762514Y35601429D01*
X34762514Y35601429D02*
X34838704Y35639524D01*
X34838704Y35639524D02*
X34876800Y35677619D01*
X34876800Y35677619D02*
X34914895Y35753810D01*
X34914895Y35753810D02*
X34914895Y35944286D01*
X34914895Y35944286D02*
X34876800Y36020476D01*
X34876800Y36020476D02*
X34838704Y36058572D01*
X35745832Y11785105D02*
X36012499Y12166058D01*
X36202975Y11785105D02*
X36202975Y12585105D01*
X36202975Y12585105D02*
X35898213Y12585105D01*
X35898213Y12585105D02*
X35822023Y12547010D01*
X35822023Y12547010D02*
X35783928Y12508915D01*
X35783928Y12508915D02*
X35745832Y12432724D01*
X35745832Y12432724D02*
X35745832Y12318439D01*
X35745832Y12318439D02*
X35783928Y12242248D01*
X35783928Y12242248D02*
X35822023Y12204153D01*
X35822023Y12204153D02*
X35898213Y12166058D01*
X35898213Y12166058D02*
X36202975Y12166058D01*
X35288690Y12242248D02*
X35364880Y12280343D01*
X35364880Y12280343D02*
X35402975Y12318439D01*
X35402975Y12318439D02*
X35441071Y12394629D01*
X35441071Y12394629D02*
X35441071Y12432724D01*
X35441071Y12432724D02*
X35402975Y12508915D01*
X35402975Y12508915D02*
X35364880Y12547010D01*
X35364880Y12547010D02*
X35288690Y12585105D01*
X35288690Y12585105D02*
X35136309Y12585105D01*
X35136309Y12585105D02*
X35060118Y12547010D01*
X35060118Y12547010D02*
X35022023Y12508915D01*
X35022023Y12508915D02*
X34983928Y12432724D01*
X34983928Y12432724D02*
X34983928Y12394629D01*
X34983928Y12394629D02*
X35022023Y12318439D01*
X35022023Y12318439D02*
X35060118Y12280343D01*
X35060118Y12280343D02*
X35136309Y12242248D01*
X35136309Y12242248D02*
X35288690Y12242248D01*
X35288690Y12242248D02*
X35364880Y12204153D01*
X35364880Y12204153D02*
X35402975Y12166058D01*
X35402975Y12166058D02*
X35441071Y12089867D01*
X35441071Y12089867D02*
X35441071Y11937486D01*
X35441071Y11937486D02*
X35402975Y11861296D01*
X35402975Y11861296D02*
X35364880Y11823200D01*
X35364880Y11823200D02*
X35288690Y11785105D01*
X35288690Y11785105D02*
X35136309Y11785105D01*
X35136309Y11785105D02*
X35060118Y11823200D01*
X35060118Y11823200D02*
X35022023Y11861296D01*
X35022023Y11861296D02*
X34983928Y11937486D01*
X34983928Y11937486D02*
X34983928Y12089867D01*
X34983928Y12089867D02*
X35022023Y12166058D01*
X35022023Y12166058D02*
X35060118Y12204153D01*
X35060118Y12204153D02*
X35136309Y12242248D01*
X30726785Y32715105D02*
X30993452Y33096058D01*
X31183928Y32715105D02*
X31183928Y33515105D01*
X31183928Y33515105D02*
X30879166Y33515105D01*
X30879166Y33515105D02*
X30802976Y33477010D01*
X30802976Y33477010D02*
X30764881Y33438915D01*
X30764881Y33438915D02*
X30726785Y33362724D01*
X30726785Y33362724D02*
X30726785Y33248439D01*
X30726785Y33248439D02*
X30764881Y33172248D01*
X30764881Y33172248D02*
X30802976Y33134153D01*
X30802976Y33134153D02*
X30879166Y33096058D01*
X30879166Y33096058D02*
X31183928Y33096058D01*
X30422024Y33438915D02*
X30383928Y33477010D01*
X30383928Y33477010D02*
X30307738Y33515105D01*
X30307738Y33515105D02*
X30117262Y33515105D01*
X30117262Y33515105D02*
X30041071Y33477010D01*
X30041071Y33477010D02*
X30002976Y33438915D01*
X30002976Y33438915D02*
X29964881Y33362724D01*
X29964881Y33362724D02*
X29964881Y33286534D01*
X29964881Y33286534D02*
X30002976Y33172248D01*
X30002976Y33172248D02*
X30460119Y32715105D01*
X30460119Y32715105D02*
X29964881Y32715105D01*
X29660119Y33438915D02*
X29622023Y33477010D01*
X29622023Y33477010D02*
X29545833Y33515105D01*
X29545833Y33515105D02*
X29355357Y33515105D01*
X29355357Y33515105D02*
X29279166Y33477010D01*
X29279166Y33477010D02*
X29241071Y33438915D01*
X29241071Y33438915D02*
X29202976Y33362724D01*
X29202976Y33362724D02*
X29202976Y33286534D01*
X29202976Y33286534D02*
X29241071Y33172248D01*
X29241071Y33172248D02*
X29698214Y32715105D01*
X29698214Y32715105D02*
X29202976Y32715105D01*
X36133332Y30171296D02*
X36171428Y30133200D01*
X36171428Y30133200D02*
X36285713Y30095105D01*
X36285713Y30095105D02*
X36361904Y30095105D01*
X36361904Y30095105D02*
X36476190Y30133200D01*
X36476190Y30133200D02*
X36552380Y30209391D01*
X36552380Y30209391D02*
X36590475Y30285581D01*
X36590475Y30285581D02*
X36628571Y30437962D01*
X36628571Y30437962D02*
X36628571Y30552248D01*
X36628571Y30552248D02*
X36590475Y30704629D01*
X36590475Y30704629D02*
X36552380Y30780820D01*
X36552380Y30780820D02*
X36476190Y30857010D01*
X36476190Y30857010D02*
X36361904Y30895105D01*
X36361904Y30895105D02*
X36285713Y30895105D01*
X36285713Y30895105D02*
X36171428Y30857010D01*
X36171428Y30857010D02*
X36133332Y30818915D01*
X35447618Y30895105D02*
X35599999Y30895105D01*
X35599999Y30895105D02*
X35676190Y30857010D01*
X35676190Y30857010D02*
X35714285Y30818915D01*
X35714285Y30818915D02*
X35790475Y30704629D01*
X35790475Y30704629D02*
X35828571Y30552248D01*
X35828571Y30552248D02*
X35828571Y30247486D01*
X35828571Y30247486D02*
X35790475Y30171296D01*
X35790475Y30171296D02*
X35752380Y30133200D01*
X35752380Y30133200D02*
X35676190Y30095105D01*
X35676190Y30095105D02*
X35523809Y30095105D01*
X35523809Y30095105D02*
X35447618Y30133200D01*
X35447618Y30133200D02*
X35409523Y30171296D01*
X35409523Y30171296D02*
X35371428Y30247486D01*
X35371428Y30247486D02*
X35371428Y30437962D01*
X35371428Y30437962D02*
X35409523Y30514153D01*
X35409523Y30514153D02*
X35447618Y30552248D01*
X35447618Y30552248D02*
X35523809Y30590343D01*
X35523809Y30590343D02*
X35676190Y30590343D01*
X35676190Y30590343D02*
X35752380Y30552248D01*
X35752380Y30552248D02*
X35790475Y30514153D01*
X35790475Y30514153D02*
X35828571Y30437962D01*
X31826190Y13558915D02*
X31902380Y13597010D01*
X31902380Y13597010D02*
X31978571Y13673200D01*
X31978571Y13673200D02*
X32092857Y13787486D01*
X32092857Y13787486D02*
X32169047Y13825581D01*
X32169047Y13825581D02*
X32245238Y13825581D01*
X32207142Y13635105D02*
X32283333Y13673200D01*
X32283333Y13673200D02*
X32359523Y13749391D01*
X32359523Y13749391D02*
X32397619Y13901772D01*
X32397619Y13901772D02*
X32397619Y14168439D01*
X32397619Y14168439D02*
X32359523Y14320820D01*
X32359523Y14320820D02*
X32283333Y14397010D01*
X32283333Y14397010D02*
X32207142Y14435105D01*
X32207142Y14435105D02*
X32054761Y14435105D01*
X32054761Y14435105D02*
X31978571Y14397010D01*
X31978571Y14397010D02*
X31902380Y14320820D01*
X31902380Y14320820D02*
X31864285Y14168439D01*
X31864285Y14168439D02*
X31864285Y13901772D01*
X31864285Y13901772D02*
X31902380Y13749391D01*
X31902380Y13749391D02*
X31978571Y13673200D01*
X31978571Y13673200D02*
X32054761Y13635105D01*
X32054761Y13635105D02*
X32207142Y13635105D01*
X31559524Y14358915D02*
X31521428Y14397010D01*
X31521428Y14397010D02*
X31445238Y14435105D01*
X31445238Y14435105D02*
X31254762Y14435105D01*
X31254762Y14435105D02*
X31178571Y14397010D01*
X31178571Y14397010D02*
X31140476Y14358915D01*
X31140476Y14358915D02*
X31102381Y14282724D01*
X31102381Y14282724D02*
X31102381Y14206534D01*
X31102381Y14206534D02*
X31140476Y14092248D01*
X31140476Y14092248D02*
X31597619Y13635105D01*
X31597619Y13635105D02*
X31102381Y13635105D01*
X33188704Y30613333D02*
X33226800Y30651429D01*
X33226800Y30651429D02*
X33264895Y30765714D01*
X33264895Y30765714D02*
X33264895Y30841905D01*
X33264895Y30841905D02*
X33226800Y30956191D01*
X33226800Y30956191D02*
X33150609Y31032381D01*
X33150609Y31032381D02*
X33074419Y31070476D01*
X33074419Y31070476D02*
X32922038Y31108572D01*
X32922038Y31108572D02*
X32807752Y31108572D01*
X32807752Y31108572D02*
X32655371Y31070476D01*
X32655371Y31070476D02*
X32579180Y31032381D01*
X32579180Y31032381D02*
X32502990Y30956191D01*
X32502990Y30956191D02*
X32464895Y30841905D01*
X32464895Y30841905D02*
X32464895Y30765714D01*
X32464895Y30765714D02*
X32502990Y30651429D01*
X32502990Y30651429D02*
X32541085Y30613333D01*
X32541085Y30308572D02*
X32502990Y30270476D01*
X32502990Y30270476D02*
X32464895Y30194286D01*
X32464895Y30194286D02*
X32464895Y30003810D01*
X32464895Y30003810D02*
X32502990Y29927619D01*
X32502990Y29927619D02*
X32541085Y29889524D01*
X32541085Y29889524D02*
X32617276Y29851429D01*
X32617276Y29851429D02*
X32693466Y29851429D01*
X32693466Y29851429D02*
X32807752Y29889524D01*
X32807752Y29889524D02*
X33264895Y30346667D01*
X33264895Y30346667D02*
X33264895Y29851429D01*
X43164895Y34389524D02*
X43812514Y34389524D01*
X43812514Y34389524D02*
X43888704Y34351429D01*
X43888704Y34351429D02*
X43926800Y34313334D01*
X43926800Y34313334D02*
X43964895Y34237143D01*
X43964895Y34237143D02*
X43964895Y34084762D01*
X43964895Y34084762D02*
X43926800Y34008572D01*
X43926800Y34008572D02*
X43888704Y33970477D01*
X43888704Y33970477D02*
X43812514Y33932381D01*
X43812514Y33932381D02*
X43164895Y33932381D01*
X43241085Y33589525D02*
X43202990Y33551429D01*
X43202990Y33551429D02*
X43164895Y33475239D01*
X43164895Y33475239D02*
X43164895Y33284763D01*
X43164895Y33284763D02*
X43202990Y33208572D01*
X43202990Y33208572D02*
X43241085Y33170477D01*
X43241085Y33170477D02*
X43317276Y33132382D01*
X43317276Y33132382D02*
X43393466Y33132382D01*
X43393466Y33132382D02*
X43507752Y33170477D01*
X43507752Y33170477D02*
X43964895Y33627620D01*
X43964895Y33627620D02*
X43964895Y33132382D01*
X25363332Y24991296D02*
X25401428Y24953200D01*
X25401428Y24953200D02*
X25515713Y24915105D01*
X25515713Y24915105D02*
X25591904Y24915105D01*
X25591904Y24915105D02*
X25706190Y24953200D01*
X25706190Y24953200D02*
X25782380Y25029391D01*
X25782380Y25029391D02*
X25820475Y25105581D01*
X25820475Y25105581D02*
X25858571Y25257962D01*
X25858571Y25257962D02*
X25858571Y25372248D01*
X25858571Y25372248D02*
X25820475Y25524629D01*
X25820475Y25524629D02*
X25782380Y25600820D01*
X25782380Y25600820D02*
X25706190Y25677010D01*
X25706190Y25677010D02*
X25591904Y25715105D01*
X25591904Y25715105D02*
X25515713Y25715105D01*
X25515713Y25715105D02*
X25401428Y25677010D01*
X25401428Y25677010D02*
X25363332Y25638915D01*
X24906190Y25372248D02*
X24982380Y25410343D01*
X24982380Y25410343D02*
X25020475Y25448439D01*
X25020475Y25448439D02*
X25058571Y25524629D01*
X25058571Y25524629D02*
X25058571Y25562724D01*
X25058571Y25562724D02*
X25020475Y25638915D01*
X25020475Y25638915D02*
X24982380Y25677010D01*
X24982380Y25677010D02*
X24906190Y25715105D01*
X24906190Y25715105D02*
X24753809Y25715105D01*
X24753809Y25715105D02*
X24677618Y25677010D01*
X24677618Y25677010D02*
X24639523Y25638915D01*
X24639523Y25638915D02*
X24601428Y25562724D01*
X24601428Y25562724D02*
X24601428Y25524629D01*
X24601428Y25524629D02*
X24639523Y25448439D01*
X24639523Y25448439D02*
X24677618Y25410343D01*
X24677618Y25410343D02*
X24753809Y25372248D01*
X24753809Y25372248D02*
X24906190Y25372248D01*
X24906190Y25372248D02*
X24982380Y25334153D01*
X24982380Y25334153D02*
X25020475Y25296058D01*
X25020475Y25296058D02*
X25058571Y25219867D01*
X25058571Y25219867D02*
X25058571Y25067486D01*
X25058571Y25067486D02*
X25020475Y24991296D01*
X25020475Y24991296D02*
X24982380Y24953200D01*
X24982380Y24953200D02*
X24906190Y24915105D01*
X24906190Y24915105D02*
X24753809Y24915105D01*
X24753809Y24915105D02*
X24677618Y24953200D01*
X24677618Y24953200D02*
X24639523Y24991296D01*
X24639523Y24991296D02*
X24601428Y25067486D01*
X24601428Y25067486D02*
X24601428Y25219867D01*
X24601428Y25219867D02*
X24639523Y25296058D01*
X24639523Y25296058D02*
X24677618Y25334153D01*
X24677618Y25334153D02*
X24753809Y25372248D01*
X14664285Y37685105D02*
X14930952Y38066058D01*
X15121428Y37685105D02*
X15121428Y38485105D01*
X15121428Y38485105D02*
X14816666Y38485105D01*
X14816666Y38485105D02*
X14740476Y38447010D01*
X14740476Y38447010D02*
X14702381Y38408915D01*
X14702381Y38408915D02*
X14664285Y38332724D01*
X14664285Y38332724D02*
X14664285Y38218439D01*
X14664285Y38218439D02*
X14702381Y38142248D01*
X14702381Y38142248D02*
X14740476Y38104153D01*
X14740476Y38104153D02*
X14816666Y38066058D01*
X14816666Y38066058D02*
X15121428Y38066058D01*
X13902381Y37685105D02*
X14359524Y37685105D01*
X14130952Y37685105D02*
X14130952Y38485105D01*
X14130952Y38485105D02*
X14207143Y38370820D01*
X14207143Y38370820D02*
X14283333Y38294629D01*
X14283333Y38294629D02*
X14359524Y38256534D01*
X13216666Y38485105D02*
X13369047Y38485105D01*
X13369047Y38485105D02*
X13445238Y38447010D01*
X13445238Y38447010D02*
X13483333Y38408915D01*
X13483333Y38408915D02*
X13559523Y38294629D01*
X13559523Y38294629D02*
X13597619Y38142248D01*
X13597619Y38142248D02*
X13597619Y37837486D01*
X13597619Y37837486D02*
X13559523Y37761296D01*
X13559523Y37761296D02*
X13521428Y37723200D01*
X13521428Y37723200D02*
X13445238Y37685105D01*
X13445238Y37685105D02*
X13292857Y37685105D01*
X13292857Y37685105D02*
X13216666Y37723200D01*
X13216666Y37723200D02*
X13178571Y37761296D01*
X13178571Y37761296D02*
X13140476Y37837486D01*
X13140476Y37837486D02*
X13140476Y38027962D01*
X13140476Y38027962D02*
X13178571Y38104153D01*
X13178571Y38104153D02*
X13216666Y38142248D01*
X13216666Y38142248D02*
X13292857Y38180343D01*
X13292857Y38180343D02*
X13445238Y38180343D01*
X13445238Y38180343D02*
X13521428Y38142248D01*
X13521428Y38142248D02*
X13559523Y38104153D01*
X13559523Y38104153D02*
X13597619Y38027962D01*
X27433332Y21985105D02*
X27699999Y22366058D01*
X27890475Y21985105D02*
X27890475Y22785105D01*
X27890475Y22785105D02*
X27585713Y22785105D01*
X27585713Y22785105D02*
X27509523Y22747010D01*
X27509523Y22747010D02*
X27471428Y22708915D01*
X27471428Y22708915D02*
X27433332Y22632724D01*
X27433332Y22632724D02*
X27433332Y22518439D01*
X27433332Y22518439D02*
X27471428Y22442248D01*
X27471428Y22442248D02*
X27509523Y22404153D01*
X27509523Y22404153D02*
X27585713Y22366058D01*
X27585713Y22366058D02*
X27890475Y22366058D01*
X27052380Y21985105D02*
X26899999Y21985105D01*
X26899999Y21985105D02*
X26823809Y22023200D01*
X26823809Y22023200D02*
X26785713Y22061296D01*
X26785713Y22061296D02*
X26709523Y22175581D01*
X26709523Y22175581D02*
X26671428Y22327962D01*
X26671428Y22327962D02*
X26671428Y22632724D01*
X26671428Y22632724D02*
X26709523Y22708915D01*
X26709523Y22708915D02*
X26747618Y22747010D01*
X26747618Y22747010D02*
X26823809Y22785105D01*
X26823809Y22785105D02*
X26976190Y22785105D01*
X26976190Y22785105D02*
X27052380Y22747010D01*
X27052380Y22747010D02*
X27090475Y22708915D01*
X27090475Y22708915D02*
X27128571Y22632724D01*
X27128571Y22632724D02*
X27128571Y22442248D01*
X27128571Y22442248D02*
X27090475Y22366058D01*
X27090475Y22366058D02*
X27052380Y22327962D01*
X27052380Y22327962D02*
X26976190Y22289867D01*
X26976190Y22289867D02*
X26823809Y22289867D01*
X26823809Y22289867D02*
X26747618Y22327962D01*
X26747618Y22327962D02*
X26709523Y22366058D01*
X26709523Y22366058D02*
X26671428Y22442248D01*
X11583332Y37335105D02*
X11849999Y37716058D01*
X12040475Y37335105D02*
X12040475Y38135105D01*
X12040475Y38135105D02*
X11735713Y38135105D01*
X11735713Y38135105D02*
X11659523Y38097010D01*
X11659523Y38097010D02*
X11621428Y38058915D01*
X11621428Y38058915D02*
X11583332Y37982724D01*
X11583332Y37982724D02*
X11583332Y37868439D01*
X11583332Y37868439D02*
X11621428Y37792248D01*
X11621428Y37792248D02*
X11659523Y37754153D01*
X11659523Y37754153D02*
X11735713Y37716058D01*
X11735713Y37716058D02*
X12040475Y37716058D01*
X10897618Y38135105D02*
X11049999Y38135105D01*
X11049999Y38135105D02*
X11126190Y38097010D01*
X11126190Y38097010D02*
X11164285Y38058915D01*
X11164285Y38058915D02*
X11240475Y37944629D01*
X11240475Y37944629D02*
X11278571Y37792248D01*
X11278571Y37792248D02*
X11278571Y37487486D01*
X11278571Y37487486D02*
X11240475Y37411296D01*
X11240475Y37411296D02*
X11202380Y37373200D01*
X11202380Y37373200D02*
X11126190Y37335105D01*
X11126190Y37335105D02*
X10973809Y37335105D01*
X10973809Y37335105D02*
X10897618Y37373200D01*
X10897618Y37373200D02*
X10859523Y37411296D01*
X10859523Y37411296D02*
X10821428Y37487486D01*
X10821428Y37487486D02*
X10821428Y37677962D01*
X10821428Y37677962D02*
X10859523Y37754153D01*
X10859523Y37754153D02*
X10897618Y37792248D01*
X10897618Y37792248D02*
X10973809Y37830343D01*
X10973809Y37830343D02*
X11126190Y37830343D01*
X11126190Y37830343D02*
X11202380Y37792248D01*
X11202380Y37792248D02*
X11240475Y37754153D01*
X11240475Y37754153D02*
X11278571Y37677962D01*
X28464285Y39285105D02*
X28730952Y39666058D01*
X28921428Y39285105D02*
X28921428Y40085105D01*
X28921428Y40085105D02*
X28616666Y40085105D01*
X28616666Y40085105D02*
X28540476Y40047010D01*
X28540476Y40047010D02*
X28502381Y40008915D01*
X28502381Y40008915D02*
X28464285Y39932724D01*
X28464285Y39932724D02*
X28464285Y39818439D01*
X28464285Y39818439D02*
X28502381Y39742248D01*
X28502381Y39742248D02*
X28540476Y39704153D01*
X28540476Y39704153D02*
X28616666Y39666058D01*
X28616666Y39666058D02*
X28921428Y39666058D01*
X28159524Y40008915D02*
X28121428Y40047010D01*
X28121428Y40047010D02*
X28045238Y40085105D01*
X28045238Y40085105D02*
X27854762Y40085105D01*
X27854762Y40085105D02*
X27778571Y40047010D01*
X27778571Y40047010D02*
X27740476Y40008915D01*
X27740476Y40008915D02*
X27702381Y39932724D01*
X27702381Y39932724D02*
X27702381Y39856534D01*
X27702381Y39856534D02*
X27740476Y39742248D01*
X27740476Y39742248D02*
X28197619Y39285105D01*
X28197619Y39285105D02*
X27702381Y39285105D01*
X27435714Y40085105D02*
X26940476Y40085105D01*
X26940476Y40085105D02*
X27207142Y39780343D01*
X27207142Y39780343D02*
X27092857Y39780343D01*
X27092857Y39780343D02*
X27016666Y39742248D01*
X27016666Y39742248D02*
X26978571Y39704153D01*
X26978571Y39704153D02*
X26940476Y39627962D01*
X26940476Y39627962D02*
X26940476Y39437486D01*
X26940476Y39437486D02*
X26978571Y39361296D01*
X26978571Y39361296D02*
X27016666Y39323200D01*
X27016666Y39323200D02*
X27092857Y39285105D01*
X27092857Y39285105D02*
X27321428Y39285105D01*
X27321428Y39285105D02*
X27397619Y39323200D01*
X27397619Y39323200D02*
X27435714Y39361296D01*
X33188704Y26263333D02*
X33226800Y26301429D01*
X33226800Y26301429D02*
X33264895Y26415714D01*
X33264895Y26415714D02*
X33264895Y26491905D01*
X33264895Y26491905D02*
X33226800Y26606191D01*
X33226800Y26606191D02*
X33150609Y26682381D01*
X33150609Y26682381D02*
X33074419Y26720476D01*
X33074419Y26720476D02*
X32922038Y26758572D01*
X32922038Y26758572D02*
X32807752Y26758572D01*
X32807752Y26758572D02*
X32655371Y26720476D01*
X32655371Y26720476D02*
X32579180Y26682381D01*
X32579180Y26682381D02*
X32502990Y26606191D01*
X32502990Y26606191D02*
X32464895Y26491905D01*
X32464895Y26491905D02*
X32464895Y26415714D01*
X32464895Y26415714D02*
X32502990Y26301429D01*
X32502990Y26301429D02*
X32541085Y26263333D01*
X33264895Y25501429D02*
X33264895Y25958572D01*
X33264895Y25730000D02*
X32464895Y25730000D01*
X32464895Y25730000D02*
X32579180Y25806191D01*
X32579180Y25806191D02*
X32655371Y25882381D01*
X32655371Y25882381D02*
X32693466Y25958572D01*
X19714285Y16635105D02*
X19980952Y17016058D01*
X20171428Y16635105D02*
X20171428Y17435105D01*
X20171428Y17435105D02*
X19866666Y17435105D01*
X19866666Y17435105D02*
X19790476Y17397010D01*
X19790476Y17397010D02*
X19752381Y17358915D01*
X19752381Y17358915D02*
X19714285Y17282724D01*
X19714285Y17282724D02*
X19714285Y17168439D01*
X19714285Y17168439D02*
X19752381Y17092248D01*
X19752381Y17092248D02*
X19790476Y17054153D01*
X19790476Y17054153D02*
X19866666Y17016058D01*
X19866666Y17016058D02*
X20171428Y17016058D01*
X19409524Y17358915D02*
X19371428Y17397010D01*
X19371428Y17397010D02*
X19295238Y17435105D01*
X19295238Y17435105D02*
X19104762Y17435105D01*
X19104762Y17435105D02*
X19028571Y17397010D01*
X19028571Y17397010D02*
X18990476Y17358915D01*
X18990476Y17358915D02*
X18952381Y17282724D01*
X18952381Y17282724D02*
X18952381Y17206534D01*
X18952381Y17206534D02*
X18990476Y17092248D01*
X18990476Y17092248D02*
X19447619Y16635105D01*
X19447619Y16635105D02*
X18952381Y16635105D01*
X18457142Y17435105D02*
X18380952Y17435105D01*
X18380952Y17435105D02*
X18304761Y17397010D01*
X18304761Y17397010D02*
X18266666Y17358915D01*
X18266666Y17358915D02*
X18228571Y17282724D01*
X18228571Y17282724D02*
X18190476Y17130343D01*
X18190476Y17130343D02*
X18190476Y16939867D01*
X18190476Y16939867D02*
X18228571Y16787486D01*
X18228571Y16787486D02*
X18266666Y16711296D01*
X18266666Y16711296D02*
X18304761Y16673200D01*
X18304761Y16673200D02*
X18380952Y16635105D01*
X18380952Y16635105D02*
X18457142Y16635105D01*
X18457142Y16635105D02*
X18533333Y16673200D01*
X18533333Y16673200D02*
X18571428Y16711296D01*
X18571428Y16711296D02*
X18609523Y16787486D01*
X18609523Y16787486D02*
X18647619Y16939867D01*
X18647619Y16939867D02*
X18647619Y17130343D01*
X18647619Y17130343D02*
X18609523Y17282724D01*
X18609523Y17282724D02*
X18571428Y17358915D01*
X18571428Y17358915D02*
X18533333Y17397010D01*
X18533333Y17397010D02*
X18457142Y17435105D01*
X18214285Y7885105D02*
X18480952Y8266058D01*
X18671428Y7885105D02*
X18671428Y8685105D01*
X18671428Y8685105D02*
X18366666Y8685105D01*
X18366666Y8685105D02*
X18290476Y8647010D01*
X18290476Y8647010D02*
X18252381Y8608915D01*
X18252381Y8608915D02*
X18214285Y8532724D01*
X18214285Y8532724D02*
X18214285Y8418439D01*
X18214285Y8418439D02*
X18252381Y8342248D01*
X18252381Y8342248D02*
X18290476Y8304153D01*
X18290476Y8304153D02*
X18366666Y8266058D01*
X18366666Y8266058D02*
X18671428Y8266058D01*
X17452381Y7885105D02*
X17909524Y7885105D01*
X17680952Y7885105D02*
X17680952Y8685105D01*
X17680952Y8685105D02*
X17757143Y8570820D01*
X17757143Y8570820D02*
X17833333Y8494629D01*
X17833333Y8494629D02*
X17909524Y8456534D01*
X16995238Y8342248D02*
X17071428Y8380343D01*
X17071428Y8380343D02*
X17109523Y8418439D01*
X17109523Y8418439D02*
X17147619Y8494629D01*
X17147619Y8494629D02*
X17147619Y8532724D01*
X17147619Y8532724D02*
X17109523Y8608915D01*
X17109523Y8608915D02*
X17071428Y8647010D01*
X17071428Y8647010D02*
X16995238Y8685105D01*
X16995238Y8685105D02*
X16842857Y8685105D01*
X16842857Y8685105D02*
X16766666Y8647010D01*
X16766666Y8647010D02*
X16728571Y8608915D01*
X16728571Y8608915D02*
X16690476Y8532724D01*
X16690476Y8532724D02*
X16690476Y8494629D01*
X16690476Y8494629D02*
X16728571Y8418439D01*
X16728571Y8418439D02*
X16766666Y8380343D01*
X16766666Y8380343D02*
X16842857Y8342248D01*
X16842857Y8342248D02*
X16995238Y8342248D01*
X16995238Y8342248D02*
X17071428Y8304153D01*
X17071428Y8304153D02*
X17109523Y8266058D01*
X17109523Y8266058D02*
X17147619Y8189867D01*
X17147619Y8189867D02*
X17147619Y8037486D01*
X17147619Y8037486D02*
X17109523Y7961296D01*
X17109523Y7961296D02*
X17071428Y7923200D01*
X17071428Y7923200D02*
X16995238Y7885105D01*
X16995238Y7885105D02*
X16842857Y7885105D01*
X16842857Y7885105D02*
X16766666Y7923200D01*
X16766666Y7923200D02*
X16728571Y7961296D01*
X16728571Y7961296D02*
X16690476Y8037486D01*
X16690476Y8037486D02*
X16690476Y8189867D01*
X16690476Y8189867D02*
X16728571Y8266058D01*
X16728571Y8266058D02*
X16766666Y8304153D01*
X16766666Y8304153D02*
X16842857Y8342248D01*
X22514285Y44135105D02*
X22780952Y44516058D01*
X22971428Y44135105D02*
X22971428Y44935105D01*
X22971428Y44935105D02*
X22666666Y44935105D01*
X22666666Y44935105D02*
X22590476Y44897010D01*
X22590476Y44897010D02*
X22552381Y44858915D01*
X22552381Y44858915D02*
X22514285Y44782724D01*
X22514285Y44782724D02*
X22514285Y44668439D01*
X22514285Y44668439D02*
X22552381Y44592248D01*
X22552381Y44592248D02*
X22590476Y44554153D01*
X22590476Y44554153D02*
X22666666Y44516058D01*
X22666666Y44516058D02*
X22971428Y44516058D01*
X21752381Y44135105D02*
X22209524Y44135105D01*
X21980952Y44135105D02*
X21980952Y44935105D01*
X21980952Y44935105D02*
X22057143Y44820820D01*
X22057143Y44820820D02*
X22133333Y44744629D01*
X22133333Y44744629D02*
X22209524Y44706534D01*
X21485714Y44935105D02*
X20990476Y44935105D01*
X20990476Y44935105D02*
X21257142Y44630343D01*
X21257142Y44630343D02*
X21142857Y44630343D01*
X21142857Y44630343D02*
X21066666Y44592248D01*
X21066666Y44592248D02*
X21028571Y44554153D01*
X21028571Y44554153D02*
X20990476Y44477962D01*
X20990476Y44477962D02*
X20990476Y44287486D01*
X20990476Y44287486D02*
X21028571Y44211296D01*
X21028571Y44211296D02*
X21066666Y44173200D01*
X21066666Y44173200D02*
X21142857Y44135105D01*
X21142857Y44135105D02*
X21371428Y44135105D01*
X21371428Y44135105D02*
X21447619Y44173200D01*
X21447619Y44173200D02*
X21485714Y44211296D01*
X10414895Y15933333D02*
X10033942Y16200000D01*
X10414895Y16390476D02*
X9614895Y16390476D01*
X9614895Y16390476D02*
X9614895Y16085714D01*
X9614895Y16085714D02*
X9652990Y16009524D01*
X9652990Y16009524D02*
X9691085Y15971429D01*
X9691085Y15971429D02*
X9767276Y15933333D01*
X9767276Y15933333D02*
X9881561Y15933333D01*
X9881561Y15933333D02*
X9957752Y15971429D01*
X9957752Y15971429D02*
X9995847Y16009524D01*
X9995847Y16009524D02*
X10033942Y16085714D01*
X10033942Y16085714D02*
X10033942Y16390476D01*
X9614895Y15666667D02*
X9614895Y15171429D01*
X9614895Y15171429D02*
X9919657Y15438095D01*
X9919657Y15438095D02*
X9919657Y15323810D01*
X9919657Y15323810D02*
X9957752Y15247619D01*
X9957752Y15247619D02*
X9995847Y15209524D01*
X9995847Y15209524D02*
X10072038Y15171429D01*
X10072038Y15171429D02*
X10262514Y15171429D01*
X10262514Y15171429D02*
X10338704Y15209524D01*
X10338704Y15209524D02*
X10376800Y15247619D01*
X10376800Y15247619D02*
X10414895Y15323810D01*
X10414895Y15323810D02*
X10414895Y15552381D01*
X10414895Y15552381D02*
X10376800Y15628572D01*
X10376800Y15628572D02*
X10338704Y15666667D01*
X28314895Y27359524D02*
X28962514Y27359524D01*
X28962514Y27359524D02*
X29038704Y27321429D01*
X29038704Y27321429D02*
X29076800Y27283334D01*
X29076800Y27283334D02*
X29114895Y27207143D01*
X29114895Y27207143D02*
X29114895Y27054762D01*
X29114895Y27054762D02*
X29076800Y26978572D01*
X29076800Y26978572D02*
X29038704Y26940477D01*
X29038704Y26940477D02*
X28962514Y26902381D01*
X28962514Y26902381D02*
X28314895Y26902381D01*
X29114895Y26102382D02*
X29114895Y26559525D01*
X29114895Y26330953D02*
X28314895Y26330953D01*
X28314895Y26330953D02*
X28429180Y26407144D01*
X28429180Y26407144D02*
X28505371Y26483334D01*
X28505371Y26483334D02*
X28543466Y26559525D01*
X15614285Y7885105D02*
X15880952Y8266058D01*
X16071428Y7885105D02*
X16071428Y8685105D01*
X16071428Y8685105D02*
X15766666Y8685105D01*
X15766666Y8685105D02*
X15690476Y8647010D01*
X15690476Y8647010D02*
X15652381Y8608915D01*
X15652381Y8608915D02*
X15614285Y8532724D01*
X15614285Y8532724D02*
X15614285Y8418439D01*
X15614285Y8418439D02*
X15652381Y8342248D01*
X15652381Y8342248D02*
X15690476Y8304153D01*
X15690476Y8304153D02*
X15766666Y8266058D01*
X15766666Y8266058D02*
X16071428Y8266058D01*
X14852381Y7885105D02*
X15309524Y7885105D01*
X15080952Y7885105D02*
X15080952Y8685105D01*
X15080952Y8685105D02*
X15157143Y8570820D01*
X15157143Y8570820D02*
X15233333Y8494629D01*
X15233333Y8494629D02*
X15309524Y8456534D01*
X14585714Y8685105D02*
X14052380Y8685105D01*
X14052380Y8685105D02*
X14395238Y7885105D01*
X17214285Y37715105D02*
X17480952Y38096058D01*
X17671428Y37715105D02*
X17671428Y38515105D01*
X17671428Y38515105D02*
X17366666Y38515105D01*
X17366666Y38515105D02*
X17290476Y38477010D01*
X17290476Y38477010D02*
X17252381Y38438915D01*
X17252381Y38438915D02*
X17214285Y38362724D01*
X17214285Y38362724D02*
X17214285Y38248439D01*
X17214285Y38248439D02*
X17252381Y38172248D01*
X17252381Y38172248D02*
X17290476Y38134153D01*
X17290476Y38134153D02*
X17366666Y38096058D01*
X17366666Y38096058D02*
X17671428Y38096058D01*
X16452381Y37715105D02*
X16909524Y37715105D01*
X16680952Y37715105D02*
X16680952Y38515105D01*
X16680952Y38515105D02*
X16757143Y38400820D01*
X16757143Y38400820D02*
X16833333Y38324629D01*
X16833333Y38324629D02*
X16909524Y38286534D01*
X15728571Y38515105D02*
X16109523Y38515105D01*
X16109523Y38515105D02*
X16147619Y38134153D01*
X16147619Y38134153D02*
X16109523Y38172248D01*
X16109523Y38172248D02*
X16033333Y38210343D01*
X16033333Y38210343D02*
X15842857Y38210343D01*
X15842857Y38210343D02*
X15766666Y38172248D01*
X15766666Y38172248D02*
X15728571Y38134153D01*
X15728571Y38134153D02*
X15690476Y38057962D01*
X15690476Y38057962D02*
X15690476Y37867486D01*
X15690476Y37867486D02*
X15728571Y37791296D01*
X15728571Y37791296D02*
X15766666Y37753200D01*
X15766666Y37753200D02*
X15842857Y37715105D01*
X15842857Y37715105D02*
X16033333Y37715105D01*
X16033333Y37715105D02*
X16109523Y37753200D01*
X16109523Y37753200D02*
X16147619Y37791296D01*
X7383332Y37335105D02*
X7649999Y37716058D01*
X7840475Y37335105D02*
X7840475Y38135105D01*
X7840475Y38135105D02*
X7535713Y38135105D01*
X7535713Y38135105D02*
X7459523Y38097010D01*
X7459523Y38097010D02*
X7421428Y38058915D01*
X7421428Y38058915D02*
X7383332Y37982724D01*
X7383332Y37982724D02*
X7383332Y37868439D01*
X7383332Y37868439D02*
X7421428Y37792248D01*
X7421428Y37792248D02*
X7459523Y37754153D01*
X7459523Y37754153D02*
X7535713Y37716058D01*
X7535713Y37716058D02*
X7840475Y37716058D01*
X7116666Y38135105D02*
X6583332Y38135105D01*
X6583332Y38135105D02*
X6926190Y37335105D01*
X9533332Y37335105D02*
X9799999Y37716058D01*
X9990475Y37335105D02*
X9990475Y38135105D01*
X9990475Y38135105D02*
X9685713Y38135105D01*
X9685713Y38135105D02*
X9609523Y38097010D01*
X9609523Y38097010D02*
X9571428Y38058915D01*
X9571428Y38058915D02*
X9533332Y37982724D01*
X9533332Y37982724D02*
X9533332Y37868439D01*
X9533332Y37868439D02*
X9571428Y37792248D01*
X9571428Y37792248D02*
X9609523Y37754153D01*
X9609523Y37754153D02*
X9685713Y37716058D01*
X9685713Y37716058D02*
X9990475Y37716058D01*
X8809523Y38135105D02*
X9190475Y38135105D01*
X9190475Y38135105D02*
X9228571Y37754153D01*
X9228571Y37754153D02*
X9190475Y37792248D01*
X9190475Y37792248D02*
X9114285Y37830343D01*
X9114285Y37830343D02*
X8923809Y37830343D01*
X8923809Y37830343D02*
X8847618Y37792248D01*
X8847618Y37792248D02*
X8809523Y37754153D01*
X8809523Y37754153D02*
X8771428Y37677962D01*
X8771428Y37677962D02*
X8771428Y37487486D01*
X8771428Y37487486D02*
X8809523Y37411296D01*
X8809523Y37411296D02*
X8847618Y37373200D01*
X8847618Y37373200D02*
X8923809Y37335105D01*
X8923809Y37335105D02*
X9114285Y37335105D01*
X9114285Y37335105D02*
X9190475Y37373200D01*
X9190475Y37373200D02*
X9228571Y37411296D01*
X33188704Y28383333D02*
X33226800Y28421429D01*
X33226800Y28421429D02*
X33264895Y28535714D01*
X33264895Y28535714D02*
X33264895Y28611905D01*
X33264895Y28611905D02*
X33226800Y28726191D01*
X33226800Y28726191D02*
X33150609Y28802381D01*
X33150609Y28802381D02*
X33074419Y28840476D01*
X33074419Y28840476D02*
X32922038Y28878572D01*
X32922038Y28878572D02*
X32807752Y28878572D01*
X32807752Y28878572D02*
X32655371Y28840476D01*
X32655371Y28840476D02*
X32579180Y28802381D01*
X32579180Y28802381D02*
X32502990Y28726191D01*
X32502990Y28726191D02*
X32464895Y28611905D01*
X32464895Y28611905D02*
X32464895Y28535714D01*
X32464895Y28535714D02*
X32502990Y28421429D01*
X32502990Y28421429D02*
X32541085Y28383333D01*
X32464895Y28116667D02*
X32464895Y27583333D01*
X32464895Y27583333D02*
X33264895Y27926191D01*
X13514895Y14664286D02*
X13133942Y14930953D01*
X13514895Y15121429D02*
X12714895Y15121429D01*
X12714895Y15121429D02*
X12714895Y14816667D01*
X12714895Y14816667D02*
X12752990Y14740477D01*
X12752990Y14740477D02*
X12791085Y14702382D01*
X12791085Y14702382D02*
X12867276Y14664286D01*
X12867276Y14664286D02*
X12981561Y14664286D01*
X12981561Y14664286D02*
X13057752Y14702382D01*
X13057752Y14702382D02*
X13095847Y14740477D01*
X13095847Y14740477D02*
X13133942Y14816667D01*
X13133942Y14816667D02*
X13133942Y15121429D01*
X12791085Y14359525D02*
X12752990Y14321429D01*
X12752990Y14321429D02*
X12714895Y14245239D01*
X12714895Y14245239D02*
X12714895Y14054763D01*
X12714895Y14054763D02*
X12752990Y13978572D01*
X12752990Y13978572D02*
X12791085Y13940477D01*
X12791085Y13940477D02*
X12867276Y13902382D01*
X12867276Y13902382D02*
X12943466Y13902382D01*
X12943466Y13902382D02*
X13057752Y13940477D01*
X13057752Y13940477D02*
X13514895Y14397620D01*
X13514895Y14397620D02*
X13514895Y13902382D01*
X13514895Y13140477D02*
X13514895Y13597620D01*
X13514895Y13369048D02*
X12714895Y13369048D01*
X12714895Y13369048D02*
X12829180Y13445239D01*
X12829180Y13445239D02*
X12905371Y13521429D01*
X12905371Y13521429D02*
X12943466Y13597620D01*
X37633332Y23911296D02*
X37671428Y23873200D01*
X37671428Y23873200D02*
X37785713Y23835105D01*
X37785713Y23835105D02*
X37861904Y23835105D01*
X37861904Y23835105D02*
X37976190Y23873200D01*
X37976190Y23873200D02*
X38052380Y23949391D01*
X38052380Y23949391D02*
X38090475Y24025581D01*
X38090475Y24025581D02*
X38128571Y24177962D01*
X38128571Y24177962D02*
X38128571Y24292248D01*
X38128571Y24292248D02*
X38090475Y24444629D01*
X38090475Y24444629D02*
X38052380Y24520820D01*
X38052380Y24520820D02*
X37976190Y24597010D01*
X37976190Y24597010D02*
X37861904Y24635105D01*
X37861904Y24635105D02*
X37785713Y24635105D01*
X37785713Y24635105D02*
X37671428Y24597010D01*
X37671428Y24597010D02*
X37633332Y24558915D01*
X36947618Y24368439D02*
X36947618Y23835105D01*
X37138094Y24673200D02*
X37328571Y24101772D01*
X37328571Y24101772D02*
X36833332Y24101772D01*
X21264285Y46735105D02*
X21530952Y47116058D01*
X21721428Y46735105D02*
X21721428Y47535105D01*
X21721428Y47535105D02*
X21416666Y47535105D01*
X21416666Y47535105D02*
X21340476Y47497010D01*
X21340476Y47497010D02*
X21302381Y47458915D01*
X21302381Y47458915D02*
X21264285Y47382724D01*
X21264285Y47382724D02*
X21264285Y47268439D01*
X21264285Y47268439D02*
X21302381Y47192248D01*
X21302381Y47192248D02*
X21340476Y47154153D01*
X21340476Y47154153D02*
X21416666Y47116058D01*
X21416666Y47116058D02*
X21721428Y47116058D01*
X20502381Y46735105D02*
X20959524Y46735105D01*
X20730952Y46735105D02*
X20730952Y47535105D01*
X20730952Y47535105D02*
X20807143Y47420820D01*
X20807143Y47420820D02*
X20883333Y47344629D01*
X20883333Y47344629D02*
X20959524Y47306534D01*
X19816666Y47268439D02*
X19816666Y46735105D01*
X20007142Y47573200D02*
X20197619Y47001772D01*
X20197619Y47001772D02*
X19702380Y47001772D01*
X26783332Y34565105D02*
X27049999Y34946058D01*
X27240475Y34565105D02*
X27240475Y35365105D01*
X27240475Y35365105D02*
X26935713Y35365105D01*
X26935713Y35365105D02*
X26859523Y35327010D01*
X26859523Y35327010D02*
X26821428Y35288915D01*
X26821428Y35288915D02*
X26783332Y35212724D01*
X26783332Y35212724D02*
X26783332Y35098439D01*
X26783332Y35098439D02*
X26821428Y35022248D01*
X26821428Y35022248D02*
X26859523Y34984153D01*
X26859523Y34984153D02*
X26935713Y34946058D01*
X26935713Y34946058D02*
X27240475Y34946058D01*
X26021428Y34565105D02*
X26478571Y34565105D01*
X26249999Y34565105D02*
X26249999Y35365105D01*
X26249999Y35365105D02*
X26326190Y35250820D01*
X26326190Y35250820D02*
X26402380Y35174629D01*
X26402380Y35174629D02*
X26478571Y35136534D01*
X6514895Y15933333D02*
X6133942Y16200000D01*
X6514895Y16390476D02*
X5714895Y16390476D01*
X5714895Y16390476D02*
X5714895Y16085714D01*
X5714895Y16085714D02*
X5752990Y16009524D01*
X5752990Y16009524D02*
X5791085Y15971429D01*
X5791085Y15971429D02*
X5867276Y15933333D01*
X5867276Y15933333D02*
X5981561Y15933333D01*
X5981561Y15933333D02*
X6057752Y15971429D01*
X6057752Y15971429D02*
X6095847Y16009524D01*
X6095847Y16009524D02*
X6133942Y16085714D01*
X6133942Y16085714D02*
X6133942Y16390476D01*
X5981561Y15247619D02*
X6514895Y15247619D01*
X5676800Y15438095D02*
X6248228Y15628572D01*
X6248228Y15628572D02*
X6248228Y15133333D01*
X35814285Y23785105D02*
X36080952Y24166058D01*
X36271428Y23785105D02*
X36271428Y24585105D01*
X36271428Y24585105D02*
X35966666Y24585105D01*
X35966666Y24585105D02*
X35890476Y24547010D01*
X35890476Y24547010D02*
X35852381Y24508915D01*
X35852381Y24508915D02*
X35814285Y24432724D01*
X35814285Y24432724D02*
X35814285Y24318439D01*
X35814285Y24318439D02*
X35852381Y24242248D01*
X35852381Y24242248D02*
X35890476Y24204153D01*
X35890476Y24204153D02*
X35966666Y24166058D01*
X35966666Y24166058D02*
X36271428Y24166058D01*
X35052381Y23785105D02*
X35509524Y23785105D01*
X35280952Y23785105D02*
X35280952Y24585105D01*
X35280952Y24585105D02*
X35357143Y24470820D01*
X35357143Y24470820D02*
X35433333Y24394629D01*
X35433333Y24394629D02*
X35509524Y24356534D01*
X34290476Y23785105D02*
X34747619Y23785105D01*
X34519047Y23785105D02*
X34519047Y24585105D01*
X34519047Y24585105D02*
X34595238Y24470820D01*
X34595238Y24470820D02*
X34671428Y24394629D01*
X34671428Y24394629D02*
X34747619Y24356534D01*
X24633332Y39285105D02*
X24899999Y39666058D01*
X25090475Y39285105D02*
X25090475Y40085105D01*
X25090475Y40085105D02*
X24785713Y40085105D01*
X24785713Y40085105D02*
X24709523Y40047010D01*
X24709523Y40047010D02*
X24671428Y40008915D01*
X24671428Y40008915D02*
X24633332Y39932724D01*
X24633332Y39932724D02*
X24633332Y39818439D01*
X24633332Y39818439D02*
X24671428Y39742248D01*
X24671428Y39742248D02*
X24709523Y39704153D01*
X24709523Y39704153D02*
X24785713Y39666058D01*
X24785713Y39666058D02*
X25090475Y39666058D01*
X24328571Y40008915D02*
X24290475Y40047010D01*
X24290475Y40047010D02*
X24214285Y40085105D01*
X24214285Y40085105D02*
X24023809Y40085105D01*
X24023809Y40085105D02*
X23947618Y40047010D01*
X23947618Y40047010D02*
X23909523Y40008915D01*
X23909523Y40008915D02*
X23871428Y39932724D01*
X23871428Y39932724D02*
X23871428Y39856534D01*
X23871428Y39856534D02*
X23909523Y39742248D01*
X23909523Y39742248D02*
X24366666Y39285105D01*
X24366666Y39285105D02*
X23871428Y39285105D01*
X20264895Y14614286D02*
X19883942Y14880953D01*
X20264895Y15071429D02*
X19464895Y15071429D01*
X19464895Y15071429D02*
X19464895Y14766667D01*
X19464895Y14766667D02*
X19502990Y14690477D01*
X19502990Y14690477D02*
X19541085Y14652382D01*
X19541085Y14652382D02*
X19617276Y14614286D01*
X19617276Y14614286D02*
X19731561Y14614286D01*
X19731561Y14614286D02*
X19807752Y14652382D01*
X19807752Y14652382D02*
X19845847Y14690477D01*
X19845847Y14690477D02*
X19883942Y14766667D01*
X19883942Y14766667D02*
X19883942Y15071429D01*
X20264895Y13852382D02*
X20264895Y14309525D01*
X20264895Y14080953D02*
X19464895Y14080953D01*
X19464895Y14080953D02*
X19579180Y14157144D01*
X19579180Y14157144D02*
X19655371Y14233334D01*
X19655371Y14233334D02*
X19693466Y14309525D01*
X20264895Y13471429D02*
X20264895Y13319048D01*
X20264895Y13319048D02*
X20226800Y13242858D01*
X20226800Y13242858D02*
X20188704Y13204762D01*
X20188704Y13204762D02*
X20074419Y13128572D01*
X20074419Y13128572D02*
X19922038Y13090477D01*
X19922038Y13090477D02*
X19617276Y13090477D01*
X19617276Y13090477D02*
X19541085Y13128572D01*
X19541085Y13128572D02*
X19502990Y13166667D01*
X19502990Y13166667D02*
X19464895Y13242858D01*
X19464895Y13242858D02*
X19464895Y13395239D01*
X19464895Y13395239D02*
X19502990Y13471429D01*
X19502990Y13471429D02*
X19541085Y13509524D01*
X19541085Y13509524D02*
X19617276Y13547620D01*
X19617276Y13547620D02*
X19807752Y13547620D01*
X19807752Y13547620D02*
X19883942Y13509524D01*
X19883942Y13509524D02*
X19922038Y13471429D01*
X19922038Y13471429D02*
X19960133Y13395239D01*
X19960133Y13395239D02*
X19960133Y13242858D01*
X19960133Y13242858D02*
X19922038Y13166667D01*
X19922038Y13166667D02*
X19883942Y13128572D01*
X19883942Y13128572D02*
X19807752Y13090477D01*
D12*
%TO.C,R10*%
X29972936Y21835000D02*
X30427064Y21835000D01*
X29972936Y20365000D02*
X30427064Y20365000D01*
%TO.C,R12*%
X32265000Y21672936D02*
X32265000Y22127064D01*
X33735000Y21672936D02*
X33735000Y22127064D01*
D13*
%TO.C,J1*%
X30190000Y5535000D02*
X20610000Y5535000D01*
X30190000Y6815000D02*
X30190000Y5535000D01*
X30190000Y10785000D02*
X30190000Y9535000D01*
X20610000Y5535000D02*
X20610000Y6815000D01*
X20610000Y10785000D02*
X20610000Y9535000D01*
D12*
%TO.C,C5*%
X37111252Y35495000D02*
X36588748Y35495000D01*
X37111252Y36965000D02*
X36588748Y36965000D01*
%TO.C,R8*%
X35839564Y12865000D02*
X35385436Y12865000D01*
X35839564Y14335000D02*
X35385436Y14335000D01*
%TO.C,R22*%
X30439564Y33745000D02*
X29985436Y33745000D01*
X30439564Y35215000D02*
X29985436Y35215000D01*
%TO.C,C6*%
X35265000Y27868748D02*
X35265000Y28391252D01*
X36735000Y27868748D02*
X36735000Y28391252D01*
%TO.C,Q2*%
X34295000Y19925000D02*
X32345000Y19925000D01*
X34295000Y19925000D02*
X36245000Y19925000D01*
X34295000Y14805000D02*
X30845000Y14805000D01*
X34295000Y14805000D02*
X36245000Y14805000D01*
%TO.C,C2*%
X30488748Y31215000D02*
X31011252Y31215000D01*
X30488748Y29745000D02*
X31011252Y29745000D01*
%TO.C,U2*%
X44110000Y26680000D02*
X44110000Y32690000D01*
X37290000Y28930000D02*
X37290000Y32690000D01*
X37290000Y32690000D02*
X38550000Y32690000D01*
X44110000Y32690000D02*
X42850000Y32690000D01*
%TO.C,C8*%
X25511252Y23115000D02*
X24988748Y23115000D01*
X25511252Y24585000D02*
X24988748Y24585000D01*
%TO.C,R16*%
X14925000Y36289564D02*
X14925000Y35835436D01*
X13455000Y36289564D02*
X13455000Y35835436D01*
%TO.C,R9*%
X26565000Y20110436D02*
X26565000Y20564564D01*
X28035000Y20110436D02*
X28035000Y20564564D01*
%TO.C,R6*%
X12205000Y36029564D02*
X12205000Y35575436D01*
X10735000Y36029564D02*
X10735000Y35575436D01*
%TO.C,R23*%
X27700436Y39025000D02*
X28154564Y39025000D01*
X27700436Y37555000D02*
X28154564Y37555000D01*
%TO.C,C1*%
X30488748Y26815000D02*
X31011252Y26815000D01*
X30488748Y25345000D02*
X31011252Y25345000D01*
%TO.C,R20*%
X15745000Y13915436D02*
X15745000Y14369564D01*
X17215000Y13915436D02*
X17215000Y14369564D01*
%TO.C,R18*%
X18045000Y10874564D02*
X18045000Y10420436D01*
X16575000Y10874564D02*
X16575000Y10420436D01*
%TO.C,R13*%
X24585436Y45235000D02*
X25039564Y45235000D01*
X24585436Y43765000D02*
X25039564Y43765000D01*
%TO.C,R3*%
X10655000Y15555436D02*
X10655000Y16009564D01*
X12125000Y15555436D02*
X12125000Y16009564D01*
%TO.C,U1*%
X23915000Y26915000D02*
X24390000Y26915000D01*
X23915000Y27390000D02*
X23915000Y26915000D01*
X28135000Y27390000D02*
X28135000Y26915000D01*
X23915000Y30660000D02*
X23915000Y31135000D01*
X28135000Y30660000D02*
X28135000Y31135000D01*
X23915000Y31135000D02*
X24390000Y31135000D01*
X28135000Y31135000D02*
X27660000Y31135000D01*
%TO.C,R17*%
X16005000Y10884564D02*
X16005000Y10430436D01*
X14535000Y10884564D02*
X14535000Y10430436D01*
%TO.C,R15*%
X17115000Y36287064D02*
X17115000Y35832936D01*
X15645000Y36287064D02*
X15645000Y35832936D01*
%TO.C,R7*%
X8105000Y36017064D02*
X8105000Y35562936D01*
X6635000Y36017064D02*
X6635000Y35562936D01*
%TO.C,R5*%
X10155000Y36017064D02*
X10155000Y35562936D01*
X8685000Y36017064D02*
X8685000Y35562936D01*
%TO.C,C7*%
X30488748Y28925000D02*
X31011252Y28925000D01*
X30488748Y27455000D02*
X31011252Y27455000D01*
%TO.C,R21*%
X13675000Y13915436D02*
X13675000Y14369564D01*
X15145000Y13915436D02*
X15145000Y14369564D01*
%TO.C,C4*%
X36265000Y21588748D02*
X36265000Y22111252D01*
X37735000Y21588748D02*
X37735000Y22111252D01*
%TO.C,R14*%
X23727064Y46365000D02*
X23272936Y46365000D01*
X23727064Y47835000D02*
X23272936Y47835000D01*
%TO.C,R1*%
X26889564Y35545000D02*
X26435436Y35545000D01*
X26889564Y37015000D02*
X26435436Y37015000D01*
%TO.C,R4*%
X6735000Y15585436D02*
X6735000Y16039564D01*
X8205000Y15585436D02*
X8205000Y16039564D01*
%TO.C,R11*%
X35735000Y22039564D02*
X35735000Y21585436D01*
X34265000Y22039564D02*
X34265000Y21585436D01*
%TO.C,R2*%
X24262936Y39035000D02*
X24717064Y39035000D01*
X24262936Y37565000D02*
X24717064Y37565000D01*
%TO.C,R19*%
X17835000Y13910436D02*
X17835000Y14364564D01*
X19305000Y13910436D02*
X19305000Y14364564D01*
%TD*%
M02*
