%TF.GenerationSoftware,KiCad,Pcbnew,7.0.7-7.0.7~ubuntu23.04.1*%
%TF.CreationDate,2023-09-22T12:00:46+00:00*%
%TF.ProjectId,USBPDSINK01,55534250-4453-4494-9e4b-30312e6b6963,rev?*%
%TF.SameCoordinates,Original*%
%TF.FileFunction,Soldermask,Top*%
%TF.FilePolarity,Negative*%
%FSLAX46Y46*%
G04 Gerber Fmt 4.6, Leading zero omitted, Abs format (unit mm)*
G04 Created by KiCad (PCBNEW 7.0.7-7.0.7~ubuntu23.04.1) date 2023-09-22 12:00:46*
%MOMM*%
%LPD*%
G01*
G04 APERTURE LIST*
G04 Aperture macros list*
%AMRoundRect*
0 Rectangle with rounded corners*
0 $1 Rounding radius*
0 $2 $3 $4 $5 $6 $7 $8 $9 X,Y pos of 4 corners*
0 Add a 4 corners polygon primitive as box body*
4,1,4,$2,$3,$4,$5,$6,$7,$8,$9,$2,$3,0*
0 Add four circle primitives for the rounded corners*
1,1,$1+$1,$2,$3*
1,1,$1+$1,$4,$5*
1,1,$1+$1,$6,$7*
1,1,$1+$1,$8,$9*
0 Add four rect primitives between the rounded corners*
20,1,$1+$1,$2,$3,$4,$5,0*
20,1,$1+$1,$4,$5,$6,$7,0*
20,1,$1+$1,$6,$7,$8,$9,0*
20,1,$1+$1,$8,$9,$2,$3,0*%
G04 Aperture macros list end*
%ADD10RoundRect,0.200000X-1.250000X1.250000X-1.250000X-1.250000X1.250000X-1.250000X1.250000X1.250000X0*%
%ADD11C,2.900000*%
%ADD12C,6.400000*%
%ADD13RoundRect,0.200000X-0.850000X0.850000X-0.850000X-0.850000X0.850000X-0.850000X0.850000X0.850000X0*%
%ADD14O,2.100000X2.100000*%
%ADD15RoundRect,0.200000X0.850000X0.850000X-0.850000X0.850000X-0.850000X-0.850000X0.850000X-0.850000X0*%
%ADD16RoundRect,0.200000X-0.850000X-0.850000X0.850000X-0.850000X0.850000X0.850000X-0.850000X0.850000X0*%
%ADD17C,1.050000*%
%ADD18O,1.400000X2.400000*%
%ADD19O,1.450000X2.500000*%
G04 APERTURE END LIST*
D10*
%TO.C,J7*%
X40600000Y42180000D03*
X32400000Y42180000D03*
D11*
X40600000Y37180000D03*
X32400000Y37180000D03*
%TD*%
D12*
%TO.C,M3*%
X10160000Y10160000D03*
%TD*%
D13*
%TO.C,J2*%
X30475000Y52380000D03*
D14*
X30475000Y49840000D03*
X27935000Y52380000D03*
X27935000Y49840000D03*
X25395000Y52380000D03*
X25395000Y49840000D03*
X22855000Y52380000D03*
X22855000Y49840000D03*
X20315000Y52380000D03*
X20315000Y49840000D03*
%TD*%
D15*
%TO.C,JP3*%
X17400000Y39980000D03*
D14*
X17400000Y42520000D03*
X17400000Y45060000D03*
%TD*%
D15*
%TO.C,J4*%
X10600000Y39655000D03*
D14*
X8060000Y39655000D03*
X10600000Y42195000D03*
X8060000Y42195000D03*
X10600000Y44735000D03*
X8060000Y44735000D03*
%TD*%
D16*
%TO.C,J5*%
X24000000Y16570000D03*
D14*
X26540000Y16570000D03*
%TD*%
D12*
%TO.C,M2*%
X40640000Y50800000D03*
%TD*%
%TO.C,M1*%
X10160000Y50800000D03*
%TD*%
D16*
%TO.C,J3*%
X40000000Y24100000D03*
D14*
X42540000Y24100000D03*
X40000000Y21560000D03*
X42540000Y21560000D03*
X40000000Y19020000D03*
X42540000Y19020000D03*
X40000000Y16480000D03*
X42540000Y16480000D03*
%TD*%
D16*
%TO.C,J6*%
X14255000Y32525000D03*
D14*
X16795000Y32525000D03*
X14255000Y29985000D03*
X16795000Y29985000D03*
X14255000Y27445000D03*
X16795000Y27445000D03*
X14255000Y24905000D03*
X16795000Y24905000D03*
X14255000Y22365000D03*
X16795000Y22365000D03*
X14255000Y19825000D03*
X16795000Y19825000D03*
X14255000Y17285000D03*
X16795000Y17285000D03*
%TD*%
D12*
%TO.C,M4*%
X40640000Y10160000D03*
%TD*%
D15*
%TO.C,JP1*%
X21240000Y36180000D03*
D14*
X18700000Y36180000D03*
%TD*%
D17*
%TO.C,J1*%
X28290000Y11815000D03*
X22510000Y11815000D03*
D18*
X29720000Y8135000D03*
X21080000Y8135000D03*
D19*
X29720000Y12315000D03*
X21080000Y12315000D03*
%TD*%
M02*
