%TF.GenerationSoftware,KiCad,Pcbnew,7.0.7-7.0.7~ubuntu23.04.1*%
%TF.CreationDate,2023-08-23T20:15:37+00:00*%
%TF.ProjectId,USBPDSINK01,55534250-4453-4494-9e4b-30312e6b6963,rev?*%
%TF.SameCoordinates,Original*%
%TF.FileFunction,Legend,Bot*%
%TF.FilePolarity,Positive*%
%FSLAX46Y46*%
G04 Gerber Fmt 4.6, Leading zero omitted, Abs format (unit mm)*
G04 Created by KiCad (PCBNEW 7.0.7-7.0.7~ubuntu23.04.1) date 2023-08-23 20:15:37*
%MOMM*%
%LPD*%
G01*
G04 APERTURE LIST*
%ADD10C,0.150000*%
%ADD11C,0.100000*%
%ADD12C,0.120000*%
%ADD13C,0.200000*%
G04 APERTURE END LIST*
D10*
X16650000Y15750000D02*
X17950000Y16500000D01*
X28910839Y40765896D02*
X28434649Y40765896D01*
X29006077Y40480181D02*
X28672744Y41480181D01*
X28672744Y41480181D02*
X28339411Y40480181D01*
X28006077Y40480181D02*
X28006077Y41480181D01*
X28006077Y41480181D02*
X27767982Y41480181D01*
X27767982Y41480181D02*
X27625125Y41432562D01*
X27625125Y41432562D02*
X27529887Y41337324D01*
X27529887Y41337324D02*
X27482268Y41242086D01*
X27482268Y41242086D02*
X27434649Y41051610D01*
X27434649Y41051610D02*
X27434649Y40908753D01*
X27434649Y40908753D02*
X27482268Y40718277D01*
X27482268Y40718277D02*
X27529887Y40623039D01*
X27529887Y40623039D02*
X27625125Y40527800D01*
X27625125Y40527800D02*
X27767982Y40480181D01*
X27767982Y40480181D02*
X28006077Y40480181D01*
X27006077Y40480181D02*
X27006077Y41480181D01*
X27006077Y41480181D02*
X26767982Y41480181D01*
X26767982Y41480181D02*
X26625125Y41432562D01*
X26625125Y41432562D02*
X26529887Y41337324D01*
X26529887Y41337324D02*
X26482268Y41242086D01*
X26482268Y41242086D02*
X26434649Y41051610D01*
X26434649Y41051610D02*
X26434649Y40908753D01*
X26434649Y40908753D02*
X26482268Y40718277D01*
X26482268Y40718277D02*
X26529887Y40623039D01*
X26529887Y40623039D02*
X26625125Y40527800D01*
X26625125Y40527800D02*
X26767982Y40480181D01*
X26767982Y40480181D02*
X27006077Y40480181D01*
X25434649Y40480181D02*
X25767982Y40956372D01*
X26006077Y40480181D02*
X26006077Y41480181D01*
X26006077Y41480181D02*
X25625125Y41480181D01*
X25625125Y41480181D02*
X25529887Y41432562D01*
X25529887Y41432562D02*
X25482268Y41384943D01*
X25482268Y41384943D02*
X25434649Y41289705D01*
X25434649Y41289705D02*
X25434649Y41146848D01*
X25434649Y41146848D02*
X25482268Y41051610D01*
X25482268Y41051610D02*
X25529887Y41003991D01*
X25529887Y41003991D02*
X25625125Y40956372D01*
X25625125Y40956372D02*
X26006077Y40956372D01*
X23720363Y40480181D02*
X24291791Y40480181D01*
X24006077Y40480181D02*
X24006077Y41480181D01*
X24006077Y41480181D02*
X24101315Y41337324D01*
X24101315Y41337324D02*
X24196553Y41242086D01*
X24196553Y41242086D02*
X24291791Y41194467D01*
D11*
X30714285Y22185105D02*
X30980952Y22566058D01*
X31171428Y22185105D02*
X31171428Y22985105D01*
X31171428Y22985105D02*
X30866666Y22985105D01*
X30866666Y22985105D02*
X30790476Y22947010D01*
X30790476Y22947010D02*
X30752381Y22908915D01*
X30752381Y22908915D02*
X30714285Y22832724D01*
X30714285Y22832724D02*
X30714285Y22718439D01*
X30714285Y22718439D02*
X30752381Y22642248D01*
X30752381Y22642248D02*
X30790476Y22604153D01*
X30790476Y22604153D02*
X30866666Y22566058D01*
X30866666Y22566058D02*
X31171428Y22566058D01*
X29952381Y22185105D02*
X30409524Y22185105D01*
X30180952Y22185105D02*
X30180952Y22985105D01*
X30180952Y22985105D02*
X30257143Y22870820D01*
X30257143Y22870820D02*
X30333333Y22794629D01*
X30333333Y22794629D02*
X30409524Y22756534D01*
X29457142Y22985105D02*
X29380952Y22985105D01*
X29380952Y22985105D02*
X29304761Y22947010D01*
X29304761Y22947010D02*
X29266666Y22908915D01*
X29266666Y22908915D02*
X29228571Y22832724D01*
X29228571Y22832724D02*
X29190476Y22680343D01*
X29190476Y22680343D02*
X29190476Y22489867D01*
X29190476Y22489867D02*
X29228571Y22337486D01*
X29228571Y22337486D02*
X29266666Y22261296D01*
X29266666Y22261296D02*
X29304761Y22223200D01*
X29304761Y22223200D02*
X29380952Y22185105D01*
X29380952Y22185105D02*
X29457142Y22185105D01*
X29457142Y22185105D02*
X29533333Y22223200D01*
X29533333Y22223200D02*
X29571428Y22261296D01*
X29571428Y22261296D02*
X29609523Y22337486D01*
X29609523Y22337486D02*
X29647619Y22489867D01*
X29647619Y22489867D02*
X29647619Y22680343D01*
X29647619Y22680343D02*
X29609523Y22832724D01*
X29609523Y22832724D02*
X29571428Y22908915D01*
X29571428Y22908915D02*
X29533333Y22947010D01*
X29533333Y22947010D02*
X29457142Y22985105D01*
X33414285Y23785105D02*
X33680952Y24166058D01*
X33871428Y23785105D02*
X33871428Y24585105D01*
X33871428Y24585105D02*
X33566666Y24585105D01*
X33566666Y24585105D02*
X33490476Y24547010D01*
X33490476Y24547010D02*
X33452381Y24508915D01*
X33452381Y24508915D02*
X33414285Y24432724D01*
X33414285Y24432724D02*
X33414285Y24318439D01*
X33414285Y24318439D02*
X33452381Y24242248D01*
X33452381Y24242248D02*
X33490476Y24204153D01*
X33490476Y24204153D02*
X33566666Y24166058D01*
X33566666Y24166058D02*
X33871428Y24166058D01*
X32652381Y23785105D02*
X33109524Y23785105D01*
X32880952Y23785105D02*
X32880952Y24585105D01*
X32880952Y24585105D02*
X32957143Y24470820D01*
X32957143Y24470820D02*
X33033333Y24394629D01*
X33033333Y24394629D02*
X33109524Y24356534D01*
X32347619Y24508915D02*
X32309523Y24547010D01*
X32309523Y24547010D02*
X32233333Y24585105D01*
X32233333Y24585105D02*
X32042857Y24585105D01*
X32042857Y24585105D02*
X31966666Y24547010D01*
X31966666Y24547010D02*
X31928571Y24508915D01*
X31928571Y24508915D02*
X31890476Y24432724D01*
X31890476Y24432724D02*
X31890476Y24356534D01*
X31890476Y24356534D02*
X31928571Y24242248D01*
X31928571Y24242248D02*
X32385714Y23785105D01*
X32385714Y23785105D02*
X31890476Y23785105D01*
X40233332Y36481296D02*
X40271428Y36443200D01*
X40271428Y36443200D02*
X40385713Y36405105D01*
X40385713Y36405105D02*
X40461904Y36405105D01*
X40461904Y36405105D02*
X40576190Y36443200D01*
X40576190Y36443200D02*
X40652380Y36519391D01*
X40652380Y36519391D02*
X40690475Y36595581D01*
X40690475Y36595581D02*
X40728571Y36747962D01*
X40728571Y36747962D02*
X40728571Y36862248D01*
X40728571Y36862248D02*
X40690475Y37014629D01*
X40690475Y37014629D02*
X40652380Y37090820D01*
X40652380Y37090820D02*
X40576190Y37167010D01*
X40576190Y37167010D02*
X40461904Y37205105D01*
X40461904Y37205105D02*
X40385713Y37205105D01*
X40385713Y37205105D02*
X40271428Y37167010D01*
X40271428Y37167010D02*
X40233332Y37128915D01*
X39509523Y37205105D02*
X39890475Y37205105D01*
X39890475Y37205105D02*
X39928571Y36824153D01*
X39928571Y36824153D02*
X39890475Y36862248D01*
X39890475Y36862248D02*
X39814285Y36900343D01*
X39814285Y36900343D02*
X39623809Y36900343D01*
X39623809Y36900343D02*
X39547618Y36862248D01*
X39547618Y36862248D02*
X39509523Y36824153D01*
X39509523Y36824153D02*
X39471428Y36747962D01*
X39471428Y36747962D02*
X39471428Y36557486D01*
X39471428Y36557486D02*
X39509523Y36481296D01*
X39509523Y36481296D02*
X39547618Y36443200D01*
X39547618Y36443200D02*
X39623809Y36405105D01*
X39623809Y36405105D02*
X39814285Y36405105D01*
X39814285Y36405105D02*
X39890475Y36443200D01*
X39890475Y36443200D02*
X39928571Y36481296D01*
X35745832Y11785105D02*
X36012499Y12166058D01*
X36202975Y11785105D02*
X36202975Y12585105D01*
X36202975Y12585105D02*
X35898213Y12585105D01*
X35898213Y12585105D02*
X35822023Y12547010D01*
X35822023Y12547010D02*
X35783928Y12508915D01*
X35783928Y12508915D02*
X35745832Y12432724D01*
X35745832Y12432724D02*
X35745832Y12318439D01*
X35745832Y12318439D02*
X35783928Y12242248D01*
X35783928Y12242248D02*
X35822023Y12204153D01*
X35822023Y12204153D02*
X35898213Y12166058D01*
X35898213Y12166058D02*
X36202975Y12166058D01*
X35288690Y12242248D02*
X35364880Y12280343D01*
X35364880Y12280343D02*
X35402975Y12318439D01*
X35402975Y12318439D02*
X35441071Y12394629D01*
X35441071Y12394629D02*
X35441071Y12432724D01*
X35441071Y12432724D02*
X35402975Y12508915D01*
X35402975Y12508915D02*
X35364880Y12547010D01*
X35364880Y12547010D02*
X35288690Y12585105D01*
X35288690Y12585105D02*
X35136309Y12585105D01*
X35136309Y12585105D02*
X35060118Y12547010D01*
X35060118Y12547010D02*
X35022023Y12508915D01*
X35022023Y12508915D02*
X34983928Y12432724D01*
X34983928Y12432724D02*
X34983928Y12394629D01*
X34983928Y12394629D02*
X35022023Y12318439D01*
X35022023Y12318439D02*
X35060118Y12280343D01*
X35060118Y12280343D02*
X35136309Y12242248D01*
X35136309Y12242248D02*
X35288690Y12242248D01*
X35288690Y12242248D02*
X35364880Y12204153D01*
X35364880Y12204153D02*
X35402975Y12166058D01*
X35402975Y12166058D02*
X35441071Y12089867D01*
X35441071Y12089867D02*
X35441071Y11937486D01*
X35441071Y11937486D02*
X35402975Y11861296D01*
X35402975Y11861296D02*
X35364880Y11823200D01*
X35364880Y11823200D02*
X35288690Y11785105D01*
X35288690Y11785105D02*
X35136309Y11785105D01*
X35136309Y11785105D02*
X35060118Y11823200D01*
X35060118Y11823200D02*
X35022023Y11861296D01*
X35022023Y11861296D02*
X34983928Y11937486D01*
X34983928Y11937486D02*
X34983928Y12089867D01*
X34983928Y12089867D02*
X35022023Y12166058D01*
X35022023Y12166058D02*
X35060118Y12204153D01*
X35060118Y12204153D02*
X35136309Y12242248D01*
X32414895Y38076786D02*
X32033942Y38343453D01*
X32414895Y38533929D02*
X31614895Y38533929D01*
X31614895Y38533929D02*
X31614895Y38229167D01*
X31614895Y38229167D02*
X31652990Y38152977D01*
X31652990Y38152977D02*
X31691085Y38114882D01*
X31691085Y38114882D02*
X31767276Y38076786D01*
X31767276Y38076786D02*
X31881561Y38076786D01*
X31881561Y38076786D02*
X31957752Y38114882D01*
X31957752Y38114882D02*
X31995847Y38152977D01*
X31995847Y38152977D02*
X32033942Y38229167D01*
X32033942Y38229167D02*
X32033942Y38533929D01*
X31691085Y37772025D02*
X31652990Y37733929D01*
X31652990Y37733929D02*
X31614895Y37657739D01*
X31614895Y37657739D02*
X31614895Y37467263D01*
X31614895Y37467263D02*
X31652990Y37391072D01*
X31652990Y37391072D02*
X31691085Y37352977D01*
X31691085Y37352977D02*
X31767276Y37314882D01*
X31767276Y37314882D02*
X31843466Y37314882D01*
X31843466Y37314882D02*
X31957752Y37352977D01*
X31957752Y37352977D02*
X32414895Y37810120D01*
X32414895Y37810120D02*
X32414895Y37314882D01*
X31691085Y37010120D02*
X31652990Y36972024D01*
X31652990Y36972024D02*
X31614895Y36895834D01*
X31614895Y36895834D02*
X31614895Y36705358D01*
X31614895Y36705358D02*
X31652990Y36629167D01*
X31652990Y36629167D02*
X31691085Y36591072D01*
X31691085Y36591072D02*
X31767276Y36552977D01*
X31767276Y36552977D02*
X31843466Y36552977D01*
X31843466Y36552977D02*
X31957752Y36591072D01*
X31957752Y36591072D02*
X32414895Y37048215D01*
X32414895Y37048215D02*
X32414895Y36552977D01*
X37653332Y25521296D02*
X37691428Y25483200D01*
X37691428Y25483200D02*
X37805713Y25445105D01*
X37805713Y25445105D02*
X37881904Y25445105D01*
X37881904Y25445105D02*
X37996190Y25483200D01*
X37996190Y25483200D02*
X38072380Y25559391D01*
X38072380Y25559391D02*
X38110475Y25635581D01*
X38110475Y25635581D02*
X38148571Y25787962D01*
X38148571Y25787962D02*
X38148571Y25902248D01*
X38148571Y25902248D02*
X38110475Y26054629D01*
X38110475Y26054629D02*
X38072380Y26130820D01*
X38072380Y26130820D02*
X37996190Y26207010D01*
X37996190Y26207010D02*
X37881904Y26245105D01*
X37881904Y26245105D02*
X37805713Y26245105D01*
X37805713Y26245105D02*
X37691428Y26207010D01*
X37691428Y26207010D02*
X37653332Y26168915D01*
X36967618Y26245105D02*
X37119999Y26245105D01*
X37119999Y26245105D02*
X37196190Y26207010D01*
X37196190Y26207010D02*
X37234285Y26168915D01*
X37234285Y26168915D02*
X37310475Y26054629D01*
X37310475Y26054629D02*
X37348571Y25902248D01*
X37348571Y25902248D02*
X37348571Y25597486D01*
X37348571Y25597486D02*
X37310475Y25521296D01*
X37310475Y25521296D02*
X37272380Y25483200D01*
X37272380Y25483200D02*
X37196190Y25445105D01*
X37196190Y25445105D02*
X37043809Y25445105D01*
X37043809Y25445105D02*
X36967618Y25483200D01*
X36967618Y25483200D02*
X36929523Y25521296D01*
X36929523Y25521296D02*
X36891428Y25597486D01*
X36891428Y25597486D02*
X36891428Y25787962D01*
X36891428Y25787962D02*
X36929523Y25864153D01*
X36929523Y25864153D02*
X36967618Y25902248D01*
X36967618Y25902248D02*
X37043809Y25940343D01*
X37043809Y25940343D02*
X37196190Y25940343D01*
X37196190Y25940343D02*
X37272380Y25902248D01*
X37272380Y25902248D02*
X37310475Y25864153D01*
X37310475Y25864153D02*
X37348571Y25787962D01*
X31826190Y13558915D02*
X31902380Y13597010D01*
X31902380Y13597010D02*
X31978571Y13673200D01*
X31978571Y13673200D02*
X32092857Y13787486D01*
X32092857Y13787486D02*
X32169047Y13825581D01*
X32169047Y13825581D02*
X32245238Y13825581D01*
X32207142Y13635105D02*
X32283333Y13673200D01*
X32283333Y13673200D02*
X32359523Y13749391D01*
X32359523Y13749391D02*
X32397619Y13901772D01*
X32397619Y13901772D02*
X32397619Y14168439D01*
X32397619Y14168439D02*
X32359523Y14320820D01*
X32359523Y14320820D02*
X32283333Y14397010D01*
X32283333Y14397010D02*
X32207142Y14435105D01*
X32207142Y14435105D02*
X32054761Y14435105D01*
X32054761Y14435105D02*
X31978571Y14397010D01*
X31978571Y14397010D02*
X31902380Y14320820D01*
X31902380Y14320820D02*
X31864285Y14168439D01*
X31864285Y14168439D02*
X31864285Y13901772D01*
X31864285Y13901772D02*
X31902380Y13749391D01*
X31902380Y13749391D02*
X31978571Y13673200D01*
X31978571Y13673200D02*
X32054761Y13635105D01*
X32054761Y13635105D02*
X32207142Y13635105D01*
X31559524Y14358915D02*
X31521428Y14397010D01*
X31521428Y14397010D02*
X31445238Y14435105D01*
X31445238Y14435105D02*
X31254762Y14435105D01*
X31254762Y14435105D02*
X31178571Y14397010D01*
X31178571Y14397010D02*
X31140476Y14358915D01*
X31140476Y14358915D02*
X31102381Y14282724D01*
X31102381Y14282724D02*
X31102381Y14206534D01*
X31102381Y14206534D02*
X31140476Y14092248D01*
X31140476Y14092248D02*
X31597619Y13635105D01*
X31597619Y13635105D02*
X31102381Y13635105D01*
X33188704Y30333333D02*
X33226800Y30371429D01*
X33226800Y30371429D02*
X33264895Y30485714D01*
X33264895Y30485714D02*
X33264895Y30561905D01*
X33264895Y30561905D02*
X33226800Y30676191D01*
X33226800Y30676191D02*
X33150609Y30752381D01*
X33150609Y30752381D02*
X33074419Y30790476D01*
X33074419Y30790476D02*
X32922038Y30828572D01*
X32922038Y30828572D02*
X32807752Y30828572D01*
X32807752Y30828572D02*
X32655371Y30790476D01*
X32655371Y30790476D02*
X32579180Y30752381D01*
X32579180Y30752381D02*
X32502990Y30676191D01*
X32502990Y30676191D02*
X32464895Y30561905D01*
X32464895Y30561905D02*
X32464895Y30485714D01*
X32464895Y30485714D02*
X32502990Y30371429D01*
X32502990Y30371429D02*
X32541085Y30333333D01*
X32541085Y30028572D02*
X32502990Y29990476D01*
X32502990Y29990476D02*
X32464895Y29914286D01*
X32464895Y29914286D02*
X32464895Y29723810D01*
X32464895Y29723810D02*
X32502990Y29647619D01*
X32502990Y29647619D02*
X32541085Y29609524D01*
X32541085Y29609524D02*
X32617276Y29571429D01*
X32617276Y29571429D02*
X32693466Y29571429D01*
X32693466Y29571429D02*
X32807752Y29609524D01*
X32807752Y29609524D02*
X33264895Y30066667D01*
X33264895Y30066667D02*
X33264895Y29571429D01*
X43514895Y33609524D02*
X44162514Y33609524D01*
X44162514Y33609524D02*
X44238704Y33571429D01*
X44238704Y33571429D02*
X44276800Y33533334D01*
X44276800Y33533334D02*
X44314895Y33457143D01*
X44314895Y33457143D02*
X44314895Y33304762D01*
X44314895Y33304762D02*
X44276800Y33228572D01*
X44276800Y33228572D02*
X44238704Y33190477D01*
X44238704Y33190477D02*
X44162514Y33152381D01*
X44162514Y33152381D02*
X43514895Y33152381D01*
X43591085Y32809525D02*
X43552990Y32771429D01*
X43552990Y32771429D02*
X43514895Y32695239D01*
X43514895Y32695239D02*
X43514895Y32504763D01*
X43514895Y32504763D02*
X43552990Y32428572D01*
X43552990Y32428572D02*
X43591085Y32390477D01*
X43591085Y32390477D02*
X43667276Y32352382D01*
X43667276Y32352382D02*
X43743466Y32352382D01*
X43743466Y32352382D02*
X43857752Y32390477D01*
X43857752Y32390477D02*
X44314895Y32847620D01*
X44314895Y32847620D02*
X44314895Y32352382D01*
X26533332Y25011296D02*
X26571428Y24973200D01*
X26571428Y24973200D02*
X26685713Y24935105D01*
X26685713Y24935105D02*
X26761904Y24935105D01*
X26761904Y24935105D02*
X26876190Y24973200D01*
X26876190Y24973200D02*
X26952380Y25049391D01*
X26952380Y25049391D02*
X26990475Y25125581D01*
X26990475Y25125581D02*
X27028571Y25277962D01*
X27028571Y25277962D02*
X27028571Y25392248D01*
X27028571Y25392248D02*
X26990475Y25544629D01*
X26990475Y25544629D02*
X26952380Y25620820D01*
X26952380Y25620820D02*
X26876190Y25697010D01*
X26876190Y25697010D02*
X26761904Y25735105D01*
X26761904Y25735105D02*
X26685713Y25735105D01*
X26685713Y25735105D02*
X26571428Y25697010D01*
X26571428Y25697010D02*
X26533332Y25658915D01*
X26076190Y25392248D02*
X26152380Y25430343D01*
X26152380Y25430343D02*
X26190475Y25468439D01*
X26190475Y25468439D02*
X26228571Y25544629D01*
X26228571Y25544629D02*
X26228571Y25582724D01*
X26228571Y25582724D02*
X26190475Y25658915D01*
X26190475Y25658915D02*
X26152380Y25697010D01*
X26152380Y25697010D02*
X26076190Y25735105D01*
X26076190Y25735105D02*
X25923809Y25735105D01*
X25923809Y25735105D02*
X25847618Y25697010D01*
X25847618Y25697010D02*
X25809523Y25658915D01*
X25809523Y25658915D02*
X25771428Y25582724D01*
X25771428Y25582724D02*
X25771428Y25544629D01*
X25771428Y25544629D02*
X25809523Y25468439D01*
X25809523Y25468439D02*
X25847618Y25430343D01*
X25847618Y25430343D02*
X25923809Y25392248D01*
X25923809Y25392248D02*
X26076190Y25392248D01*
X26076190Y25392248D02*
X26152380Y25354153D01*
X26152380Y25354153D02*
X26190475Y25316058D01*
X26190475Y25316058D02*
X26228571Y25239867D01*
X26228571Y25239867D02*
X26228571Y25087486D01*
X26228571Y25087486D02*
X26190475Y25011296D01*
X26190475Y25011296D02*
X26152380Y24973200D01*
X26152380Y24973200D02*
X26076190Y24935105D01*
X26076190Y24935105D02*
X25923809Y24935105D01*
X25923809Y24935105D02*
X25847618Y24973200D01*
X25847618Y24973200D02*
X25809523Y25011296D01*
X25809523Y25011296D02*
X25771428Y25087486D01*
X25771428Y25087486D02*
X25771428Y25239867D01*
X25771428Y25239867D02*
X25809523Y25316058D01*
X25809523Y25316058D02*
X25847618Y25354153D01*
X25847618Y25354153D02*
X25923809Y25392248D01*
X14664285Y37685105D02*
X14930952Y38066058D01*
X15121428Y37685105D02*
X15121428Y38485105D01*
X15121428Y38485105D02*
X14816666Y38485105D01*
X14816666Y38485105D02*
X14740476Y38447010D01*
X14740476Y38447010D02*
X14702381Y38408915D01*
X14702381Y38408915D02*
X14664285Y38332724D01*
X14664285Y38332724D02*
X14664285Y38218439D01*
X14664285Y38218439D02*
X14702381Y38142248D01*
X14702381Y38142248D02*
X14740476Y38104153D01*
X14740476Y38104153D02*
X14816666Y38066058D01*
X14816666Y38066058D02*
X15121428Y38066058D01*
X13902381Y37685105D02*
X14359524Y37685105D01*
X14130952Y37685105D02*
X14130952Y38485105D01*
X14130952Y38485105D02*
X14207143Y38370820D01*
X14207143Y38370820D02*
X14283333Y38294629D01*
X14283333Y38294629D02*
X14359524Y38256534D01*
X13216666Y38485105D02*
X13369047Y38485105D01*
X13369047Y38485105D02*
X13445238Y38447010D01*
X13445238Y38447010D02*
X13483333Y38408915D01*
X13483333Y38408915D02*
X13559523Y38294629D01*
X13559523Y38294629D02*
X13597619Y38142248D01*
X13597619Y38142248D02*
X13597619Y37837486D01*
X13597619Y37837486D02*
X13559523Y37761296D01*
X13559523Y37761296D02*
X13521428Y37723200D01*
X13521428Y37723200D02*
X13445238Y37685105D01*
X13445238Y37685105D02*
X13292857Y37685105D01*
X13292857Y37685105D02*
X13216666Y37723200D01*
X13216666Y37723200D02*
X13178571Y37761296D01*
X13178571Y37761296D02*
X13140476Y37837486D01*
X13140476Y37837486D02*
X13140476Y38027962D01*
X13140476Y38027962D02*
X13178571Y38104153D01*
X13178571Y38104153D02*
X13216666Y38142248D01*
X13216666Y38142248D02*
X13292857Y38180343D01*
X13292857Y38180343D02*
X13445238Y38180343D01*
X13445238Y38180343D02*
X13521428Y38142248D01*
X13521428Y38142248D02*
X13559523Y38104153D01*
X13559523Y38104153D02*
X13597619Y38027962D01*
X27133332Y21735105D02*
X27399999Y22116058D01*
X27590475Y21735105D02*
X27590475Y22535105D01*
X27590475Y22535105D02*
X27285713Y22535105D01*
X27285713Y22535105D02*
X27209523Y22497010D01*
X27209523Y22497010D02*
X27171428Y22458915D01*
X27171428Y22458915D02*
X27133332Y22382724D01*
X27133332Y22382724D02*
X27133332Y22268439D01*
X27133332Y22268439D02*
X27171428Y22192248D01*
X27171428Y22192248D02*
X27209523Y22154153D01*
X27209523Y22154153D02*
X27285713Y22116058D01*
X27285713Y22116058D02*
X27590475Y22116058D01*
X26752380Y21735105D02*
X26599999Y21735105D01*
X26599999Y21735105D02*
X26523809Y21773200D01*
X26523809Y21773200D02*
X26485713Y21811296D01*
X26485713Y21811296D02*
X26409523Y21925581D01*
X26409523Y21925581D02*
X26371428Y22077962D01*
X26371428Y22077962D02*
X26371428Y22382724D01*
X26371428Y22382724D02*
X26409523Y22458915D01*
X26409523Y22458915D02*
X26447618Y22497010D01*
X26447618Y22497010D02*
X26523809Y22535105D01*
X26523809Y22535105D02*
X26676190Y22535105D01*
X26676190Y22535105D02*
X26752380Y22497010D01*
X26752380Y22497010D02*
X26790475Y22458915D01*
X26790475Y22458915D02*
X26828571Y22382724D01*
X26828571Y22382724D02*
X26828571Y22192248D01*
X26828571Y22192248D02*
X26790475Y22116058D01*
X26790475Y22116058D02*
X26752380Y22077962D01*
X26752380Y22077962D02*
X26676190Y22039867D01*
X26676190Y22039867D02*
X26523809Y22039867D01*
X26523809Y22039867D02*
X26447618Y22077962D01*
X26447618Y22077962D02*
X26409523Y22116058D01*
X26409523Y22116058D02*
X26371428Y22192248D01*
X11583332Y37335105D02*
X11849999Y37716058D01*
X12040475Y37335105D02*
X12040475Y38135105D01*
X12040475Y38135105D02*
X11735713Y38135105D01*
X11735713Y38135105D02*
X11659523Y38097010D01*
X11659523Y38097010D02*
X11621428Y38058915D01*
X11621428Y38058915D02*
X11583332Y37982724D01*
X11583332Y37982724D02*
X11583332Y37868439D01*
X11583332Y37868439D02*
X11621428Y37792248D01*
X11621428Y37792248D02*
X11659523Y37754153D01*
X11659523Y37754153D02*
X11735713Y37716058D01*
X11735713Y37716058D02*
X12040475Y37716058D01*
X10897618Y38135105D02*
X11049999Y38135105D01*
X11049999Y38135105D02*
X11126190Y38097010D01*
X11126190Y38097010D02*
X11164285Y38058915D01*
X11164285Y38058915D02*
X11240475Y37944629D01*
X11240475Y37944629D02*
X11278571Y37792248D01*
X11278571Y37792248D02*
X11278571Y37487486D01*
X11278571Y37487486D02*
X11240475Y37411296D01*
X11240475Y37411296D02*
X11202380Y37373200D01*
X11202380Y37373200D02*
X11126190Y37335105D01*
X11126190Y37335105D02*
X10973809Y37335105D01*
X10973809Y37335105D02*
X10897618Y37373200D01*
X10897618Y37373200D02*
X10859523Y37411296D01*
X10859523Y37411296D02*
X10821428Y37487486D01*
X10821428Y37487486D02*
X10821428Y37677962D01*
X10821428Y37677962D02*
X10859523Y37754153D01*
X10859523Y37754153D02*
X10897618Y37792248D01*
X10897618Y37792248D02*
X10973809Y37830343D01*
X10973809Y37830343D02*
X11126190Y37830343D01*
X11126190Y37830343D02*
X11202380Y37792248D01*
X11202380Y37792248D02*
X11240475Y37754153D01*
X11240475Y37754153D02*
X11278571Y37677962D01*
X28464285Y39285105D02*
X28730952Y39666058D01*
X28921428Y39285105D02*
X28921428Y40085105D01*
X28921428Y40085105D02*
X28616666Y40085105D01*
X28616666Y40085105D02*
X28540476Y40047010D01*
X28540476Y40047010D02*
X28502381Y40008915D01*
X28502381Y40008915D02*
X28464285Y39932724D01*
X28464285Y39932724D02*
X28464285Y39818439D01*
X28464285Y39818439D02*
X28502381Y39742248D01*
X28502381Y39742248D02*
X28540476Y39704153D01*
X28540476Y39704153D02*
X28616666Y39666058D01*
X28616666Y39666058D02*
X28921428Y39666058D01*
X28159524Y40008915D02*
X28121428Y40047010D01*
X28121428Y40047010D02*
X28045238Y40085105D01*
X28045238Y40085105D02*
X27854762Y40085105D01*
X27854762Y40085105D02*
X27778571Y40047010D01*
X27778571Y40047010D02*
X27740476Y40008915D01*
X27740476Y40008915D02*
X27702381Y39932724D01*
X27702381Y39932724D02*
X27702381Y39856534D01*
X27702381Y39856534D02*
X27740476Y39742248D01*
X27740476Y39742248D02*
X28197619Y39285105D01*
X28197619Y39285105D02*
X27702381Y39285105D01*
X27435714Y40085105D02*
X26940476Y40085105D01*
X26940476Y40085105D02*
X27207142Y39780343D01*
X27207142Y39780343D02*
X27092857Y39780343D01*
X27092857Y39780343D02*
X27016666Y39742248D01*
X27016666Y39742248D02*
X26978571Y39704153D01*
X26978571Y39704153D02*
X26940476Y39627962D01*
X26940476Y39627962D02*
X26940476Y39437486D01*
X26940476Y39437486D02*
X26978571Y39361296D01*
X26978571Y39361296D02*
X27016666Y39323200D01*
X27016666Y39323200D02*
X27092857Y39285105D01*
X27092857Y39285105D02*
X27321428Y39285105D01*
X27321428Y39285105D02*
X27397619Y39323200D01*
X27397619Y39323200D02*
X27435714Y39361296D01*
X33188704Y26383333D02*
X33226800Y26421429D01*
X33226800Y26421429D02*
X33264895Y26535714D01*
X33264895Y26535714D02*
X33264895Y26611905D01*
X33264895Y26611905D02*
X33226800Y26726191D01*
X33226800Y26726191D02*
X33150609Y26802381D01*
X33150609Y26802381D02*
X33074419Y26840476D01*
X33074419Y26840476D02*
X32922038Y26878572D01*
X32922038Y26878572D02*
X32807752Y26878572D01*
X32807752Y26878572D02*
X32655371Y26840476D01*
X32655371Y26840476D02*
X32579180Y26802381D01*
X32579180Y26802381D02*
X32502990Y26726191D01*
X32502990Y26726191D02*
X32464895Y26611905D01*
X32464895Y26611905D02*
X32464895Y26535714D01*
X32464895Y26535714D02*
X32502990Y26421429D01*
X32502990Y26421429D02*
X32541085Y26383333D01*
X33264895Y25621429D02*
X33264895Y26078572D01*
X33264895Y25850000D02*
X32464895Y25850000D01*
X32464895Y25850000D02*
X32579180Y25926191D01*
X32579180Y25926191D02*
X32655371Y26002381D01*
X32655371Y26002381D02*
X32693466Y26078572D01*
X19714285Y16635105D02*
X19980952Y17016058D01*
X20171428Y16635105D02*
X20171428Y17435105D01*
X20171428Y17435105D02*
X19866666Y17435105D01*
X19866666Y17435105D02*
X19790476Y17397010D01*
X19790476Y17397010D02*
X19752381Y17358915D01*
X19752381Y17358915D02*
X19714285Y17282724D01*
X19714285Y17282724D02*
X19714285Y17168439D01*
X19714285Y17168439D02*
X19752381Y17092248D01*
X19752381Y17092248D02*
X19790476Y17054153D01*
X19790476Y17054153D02*
X19866666Y17016058D01*
X19866666Y17016058D02*
X20171428Y17016058D01*
X19409524Y17358915D02*
X19371428Y17397010D01*
X19371428Y17397010D02*
X19295238Y17435105D01*
X19295238Y17435105D02*
X19104762Y17435105D01*
X19104762Y17435105D02*
X19028571Y17397010D01*
X19028571Y17397010D02*
X18990476Y17358915D01*
X18990476Y17358915D02*
X18952381Y17282724D01*
X18952381Y17282724D02*
X18952381Y17206534D01*
X18952381Y17206534D02*
X18990476Y17092248D01*
X18990476Y17092248D02*
X19447619Y16635105D01*
X19447619Y16635105D02*
X18952381Y16635105D01*
X18457142Y17435105D02*
X18380952Y17435105D01*
X18380952Y17435105D02*
X18304761Y17397010D01*
X18304761Y17397010D02*
X18266666Y17358915D01*
X18266666Y17358915D02*
X18228571Y17282724D01*
X18228571Y17282724D02*
X18190476Y17130343D01*
X18190476Y17130343D02*
X18190476Y16939867D01*
X18190476Y16939867D02*
X18228571Y16787486D01*
X18228571Y16787486D02*
X18266666Y16711296D01*
X18266666Y16711296D02*
X18304761Y16673200D01*
X18304761Y16673200D02*
X18380952Y16635105D01*
X18380952Y16635105D02*
X18457142Y16635105D01*
X18457142Y16635105D02*
X18533333Y16673200D01*
X18533333Y16673200D02*
X18571428Y16711296D01*
X18571428Y16711296D02*
X18609523Y16787486D01*
X18609523Y16787486D02*
X18647619Y16939867D01*
X18647619Y16939867D02*
X18647619Y17130343D01*
X18647619Y17130343D02*
X18609523Y17282724D01*
X18609523Y17282724D02*
X18571428Y17358915D01*
X18571428Y17358915D02*
X18533333Y17397010D01*
X18533333Y17397010D02*
X18457142Y17435105D01*
X18214285Y7885105D02*
X18480952Y8266058D01*
X18671428Y7885105D02*
X18671428Y8685105D01*
X18671428Y8685105D02*
X18366666Y8685105D01*
X18366666Y8685105D02*
X18290476Y8647010D01*
X18290476Y8647010D02*
X18252381Y8608915D01*
X18252381Y8608915D02*
X18214285Y8532724D01*
X18214285Y8532724D02*
X18214285Y8418439D01*
X18214285Y8418439D02*
X18252381Y8342248D01*
X18252381Y8342248D02*
X18290476Y8304153D01*
X18290476Y8304153D02*
X18366666Y8266058D01*
X18366666Y8266058D02*
X18671428Y8266058D01*
X17452381Y7885105D02*
X17909524Y7885105D01*
X17680952Y7885105D02*
X17680952Y8685105D01*
X17680952Y8685105D02*
X17757143Y8570820D01*
X17757143Y8570820D02*
X17833333Y8494629D01*
X17833333Y8494629D02*
X17909524Y8456534D01*
X16995238Y8342248D02*
X17071428Y8380343D01*
X17071428Y8380343D02*
X17109523Y8418439D01*
X17109523Y8418439D02*
X17147619Y8494629D01*
X17147619Y8494629D02*
X17147619Y8532724D01*
X17147619Y8532724D02*
X17109523Y8608915D01*
X17109523Y8608915D02*
X17071428Y8647010D01*
X17071428Y8647010D02*
X16995238Y8685105D01*
X16995238Y8685105D02*
X16842857Y8685105D01*
X16842857Y8685105D02*
X16766666Y8647010D01*
X16766666Y8647010D02*
X16728571Y8608915D01*
X16728571Y8608915D02*
X16690476Y8532724D01*
X16690476Y8532724D02*
X16690476Y8494629D01*
X16690476Y8494629D02*
X16728571Y8418439D01*
X16728571Y8418439D02*
X16766666Y8380343D01*
X16766666Y8380343D02*
X16842857Y8342248D01*
X16842857Y8342248D02*
X16995238Y8342248D01*
X16995238Y8342248D02*
X17071428Y8304153D01*
X17071428Y8304153D02*
X17109523Y8266058D01*
X17109523Y8266058D02*
X17147619Y8189867D01*
X17147619Y8189867D02*
X17147619Y8037486D01*
X17147619Y8037486D02*
X17109523Y7961296D01*
X17109523Y7961296D02*
X17071428Y7923200D01*
X17071428Y7923200D02*
X16995238Y7885105D01*
X16995238Y7885105D02*
X16842857Y7885105D01*
X16842857Y7885105D02*
X16766666Y7923200D01*
X16766666Y7923200D02*
X16728571Y7961296D01*
X16728571Y7961296D02*
X16690476Y8037486D01*
X16690476Y8037486D02*
X16690476Y8189867D01*
X16690476Y8189867D02*
X16728571Y8266058D01*
X16728571Y8266058D02*
X16766666Y8304153D01*
X16766666Y8304153D02*
X16842857Y8342248D01*
X21864285Y44135105D02*
X22130952Y44516058D01*
X22321428Y44135105D02*
X22321428Y44935105D01*
X22321428Y44935105D02*
X22016666Y44935105D01*
X22016666Y44935105D02*
X21940476Y44897010D01*
X21940476Y44897010D02*
X21902381Y44858915D01*
X21902381Y44858915D02*
X21864285Y44782724D01*
X21864285Y44782724D02*
X21864285Y44668439D01*
X21864285Y44668439D02*
X21902381Y44592248D01*
X21902381Y44592248D02*
X21940476Y44554153D01*
X21940476Y44554153D02*
X22016666Y44516058D01*
X22016666Y44516058D02*
X22321428Y44516058D01*
X21102381Y44135105D02*
X21559524Y44135105D01*
X21330952Y44135105D02*
X21330952Y44935105D01*
X21330952Y44935105D02*
X21407143Y44820820D01*
X21407143Y44820820D02*
X21483333Y44744629D01*
X21483333Y44744629D02*
X21559524Y44706534D01*
X20835714Y44935105D02*
X20340476Y44935105D01*
X20340476Y44935105D02*
X20607142Y44630343D01*
X20607142Y44630343D02*
X20492857Y44630343D01*
X20492857Y44630343D02*
X20416666Y44592248D01*
X20416666Y44592248D02*
X20378571Y44554153D01*
X20378571Y44554153D02*
X20340476Y44477962D01*
X20340476Y44477962D02*
X20340476Y44287486D01*
X20340476Y44287486D02*
X20378571Y44211296D01*
X20378571Y44211296D02*
X20416666Y44173200D01*
X20416666Y44173200D02*
X20492857Y44135105D01*
X20492857Y44135105D02*
X20721428Y44135105D01*
X20721428Y44135105D02*
X20797619Y44173200D01*
X20797619Y44173200D02*
X20835714Y44211296D01*
X10414895Y15933333D02*
X10033942Y16200000D01*
X10414895Y16390476D02*
X9614895Y16390476D01*
X9614895Y16390476D02*
X9614895Y16085714D01*
X9614895Y16085714D02*
X9652990Y16009524D01*
X9652990Y16009524D02*
X9691085Y15971429D01*
X9691085Y15971429D02*
X9767276Y15933333D01*
X9767276Y15933333D02*
X9881561Y15933333D01*
X9881561Y15933333D02*
X9957752Y15971429D01*
X9957752Y15971429D02*
X9995847Y16009524D01*
X9995847Y16009524D02*
X10033942Y16085714D01*
X10033942Y16085714D02*
X10033942Y16390476D01*
X9614895Y15666667D02*
X9614895Y15171429D01*
X9614895Y15171429D02*
X9919657Y15438095D01*
X9919657Y15438095D02*
X9919657Y15323810D01*
X9919657Y15323810D02*
X9957752Y15247619D01*
X9957752Y15247619D02*
X9995847Y15209524D01*
X9995847Y15209524D02*
X10072038Y15171429D01*
X10072038Y15171429D02*
X10262514Y15171429D01*
X10262514Y15171429D02*
X10338704Y15209524D01*
X10338704Y15209524D02*
X10376800Y15247619D01*
X10376800Y15247619D02*
X10414895Y15323810D01*
X10414895Y15323810D02*
X10414895Y15552381D01*
X10414895Y15552381D02*
X10376800Y15628572D01*
X10376800Y15628572D02*
X10338704Y15666667D01*
X28314895Y27359524D02*
X28962514Y27359524D01*
X28962514Y27359524D02*
X29038704Y27321429D01*
X29038704Y27321429D02*
X29076800Y27283334D01*
X29076800Y27283334D02*
X29114895Y27207143D01*
X29114895Y27207143D02*
X29114895Y27054762D01*
X29114895Y27054762D02*
X29076800Y26978572D01*
X29076800Y26978572D02*
X29038704Y26940477D01*
X29038704Y26940477D02*
X28962514Y26902381D01*
X28962514Y26902381D02*
X28314895Y26902381D01*
X29114895Y26102382D02*
X29114895Y26559525D01*
X29114895Y26330953D02*
X28314895Y26330953D01*
X28314895Y26330953D02*
X28429180Y26407144D01*
X28429180Y26407144D02*
X28505371Y26483334D01*
X28505371Y26483334D02*
X28543466Y26559525D01*
X15614285Y7885105D02*
X15880952Y8266058D01*
X16071428Y7885105D02*
X16071428Y8685105D01*
X16071428Y8685105D02*
X15766666Y8685105D01*
X15766666Y8685105D02*
X15690476Y8647010D01*
X15690476Y8647010D02*
X15652381Y8608915D01*
X15652381Y8608915D02*
X15614285Y8532724D01*
X15614285Y8532724D02*
X15614285Y8418439D01*
X15614285Y8418439D02*
X15652381Y8342248D01*
X15652381Y8342248D02*
X15690476Y8304153D01*
X15690476Y8304153D02*
X15766666Y8266058D01*
X15766666Y8266058D02*
X16071428Y8266058D01*
X14852381Y7885105D02*
X15309524Y7885105D01*
X15080952Y7885105D02*
X15080952Y8685105D01*
X15080952Y8685105D02*
X15157143Y8570820D01*
X15157143Y8570820D02*
X15233333Y8494629D01*
X15233333Y8494629D02*
X15309524Y8456534D01*
X14585714Y8685105D02*
X14052380Y8685105D01*
X14052380Y8685105D02*
X14395238Y7885105D01*
X18114895Y36564286D02*
X17733942Y36830953D01*
X18114895Y37021429D02*
X17314895Y37021429D01*
X17314895Y37021429D02*
X17314895Y36716667D01*
X17314895Y36716667D02*
X17352990Y36640477D01*
X17352990Y36640477D02*
X17391085Y36602382D01*
X17391085Y36602382D02*
X17467276Y36564286D01*
X17467276Y36564286D02*
X17581561Y36564286D01*
X17581561Y36564286D02*
X17657752Y36602382D01*
X17657752Y36602382D02*
X17695847Y36640477D01*
X17695847Y36640477D02*
X17733942Y36716667D01*
X17733942Y36716667D02*
X17733942Y37021429D01*
X18114895Y35802382D02*
X18114895Y36259525D01*
X18114895Y36030953D02*
X17314895Y36030953D01*
X17314895Y36030953D02*
X17429180Y36107144D01*
X17429180Y36107144D02*
X17505371Y36183334D01*
X17505371Y36183334D02*
X17543466Y36259525D01*
X17314895Y35078572D02*
X17314895Y35459524D01*
X17314895Y35459524D02*
X17695847Y35497620D01*
X17695847Y35497620D02*
X17657752Y35459524D01*
X17657752Y35459524D02*
X17619657Y35383334D01*
X17619657Y35383334D02*
X17619657Y35192858D01*
X17619657Y35192858D02*
X17657752Y35116667D01*
X17657752Y35116667D02*
X17695847Y35078572D01*
X17695847Y35078572D02*
X17772038Y35040477D01*
X17772038Y35040477D02*
X17962514Y35040477D01*
X17962514Y35040477D02*
X18038704Y35078572D01*
X18038704Y35078572D02*
X18076800Y35116667D01*
X18076800Y35116667D02*
X18114895Y35192858D01*
X18114895Y35192858D02*
X18114895Y35383334D01*
X18114895Y35383334D02*
X18076800Y35459524D01*
X18076800Y35459524D02*
X18038704Y35497620D01*
X7383332Y37335105D02*
X7649999Y37716058D01*
X7840475Y37335105D02*
X7840475Y38135105D01*
X7840475Y38135105D02*
X7535713Y38135105D01*
X7535713Y38135105D02*
X7459523Y38097010D01*
X7459523Y38097010D02*
X7421428Y38058915D01*
X7421428Y38058915D02*
X7383332Y37982724D01*
X7383332Y37982724D02*
X7383332Y37868439D01*
X7383332Y37868439D02*
X7421428Y37792248D01*
X7421428Y37792248D02*
X7459523Y37754153D01*
X7459523Y37754153D02*
X7535713Y37716058D01*
X7535713Y37716058D02*
X7840475Y37716058D01*
X7116666Y38135105D02*
X6583332Y38135105D01*
X6583332Y38135105D02*
X6926190Y37335105D01*
X9533332Y37335105D02*
X9799999Y37716058D01*
X9990475Y37335105D02*
X9990475Y38135105D01*
X9990475Y38135105D02*
X9685713Y38135105D01*
X9685713Y38135105D02*
X9609523Y38097010D01*
X9609523Y38097010D02*
X9571428Y38058915D01*
X9571428Y38058915D02*
X9533332Y37982724D01*
X9533332Y37982724D02*
X9533332Y37868439D01*
X9533332Y37868439D02*
X9571428Y37792248D01*
X9571428Y37792248D02*
X9609523Y37754153D01*
X9609523Y37754153D02*
X9685713Y37716058D01*
X9685713Y37716058D02*
X9990475Y37716058D01*
X8809523Y38135105D02*
X9190475Y38135105D01*
X9190475Y38135105D02*
X9228571Y37754153D01*
X9228571Y37754153D02*
X9190475Y37792248D01*
X9190475Y37792248D02*
X9114285Y37830343D01*
X9114285Y37830343D02*
X8923809Y37830343D01*
X8923809Y37830343D02*
X8847618Y37792248D01*
X8847618Y37792248D02*
X8809523Y37754153D01*
X8809523Y37754153D02*
X8771428Y37677962D01*
X8771428Y37677962D02*
X8771428Y37487486D01*
X8771428Y37487486D02*
X8809523Y37411296D01*
X8809523Y37411296D02*
X8847618Y37373200D01*
X8847618Y37373200D02*
X8923809Y37335105D01*
X8923809Y37335105D02*
X9114285Y37335105D01*
X9114285Y37335105D02*
X9190475Y37373200D01*
X9190475Y37373200D02*
X9228571Y37411296D01*
X33188704Y28383333D02*
X33226800Y28421429D01*
X33226800Y28421429D02*
X33264895Y28535714D01*
X33264895Y28535714D02*
X33264895Y28611905D01*
X33264895Y28611905D02*
X33226800Y28726191D01*
X33226800Y28726191D02*
X33150609Y28802381D01*
X33150609Y28802381D02*
X33074419Y28840476D01*
X33074419Y28840476D02*
X32922038Y28878572D01*
X32922038Y28878572D02*
X32807752Y28878572D01*
X32807752Y28878572D02*
X32655371Y28840476D01*
X32655371Y28840476D02*
X32579180Y28802381D01*
X32579180Y28802381D02*
X32502990Y28726191D01*
X32502990Y28726191D02*
X32464895Y28611905D01*
X32464895Y28611905D02*
X32464895Y28535714D01*
X32464895Y28535714D02*
X32502990Y28421429D01*
X32502990Y28421429D02*
X32541085Y28383333D01*
X32464895Y28116667D02*
X32464895Y27583333D01*
X32464895Y27583333D02*
X33264895Y27926191D01*
X13514895Y15664286D02*
X13133942Y15930953D01*
X13514895Y16121429D02*
X12714895Y16121429D01*
X12714895Y16121429D02*
X12714895Y15816667D01*
X12714895Y15816667D02*
X12752990Y15740477D01*
X12752990Y15740477D02*
X12791085Y15702382D01*
X12791085Y15702382D02*
X12867276Y15664286D01*
X12867276Y15664286D02*
X12981561Y15664286D01*
X12981561Y15664286D02*
X13057752Y15702382D01*
X13057752Y15702382D02*
X13095847Y15740477D01*
X13095847Y15740477D02*
X13133942Y15816667D01*
X13133942Y15816667D02*
X13133942Y16121429D01*
X12791085Y15359525D02*
X12752990Y15321429D01*
X12752990Y15321429D02*
X12714895Y15245239D01*
X12714895Y15245239D02*
X12714895Y15054763D01*
X12714895Y15054763D02*
X12752990Y14978572D01*
X12752990Y14978572D02*
X12791085Y14940477D01*
X12791085Y14940477D02*
X12867276Y14902382D01*
X12867276Y14902382D02*
X12943466Y14902382D01*
X12943466Y14902382D02*
X13057752Y14940477D01*
X13057752Y14940477D02*
X13514895Y15397620D01*
X13514895Y15397620D02*
X13514895Y14902382D01*
X13514895Y14140477D02*
X13514895Y14597620D01*
X13514895Y14369048D02*
X12714895Y14369048D01*
X12714895Y14369048D02*
X12829180Y14445239D01*
X12829180Y14445239D02*
X12905371Y14521429D01*
X12905371Y14521429D02*
X12943466Y14597620D01*
X37933332Y23861296D02*
X37971428Y23823200D01*
X37971428Y23823200D02*
X38085713Y23785105D01*
X38085713Y23785105D02*
X38161904Y23785105D01*
X38161904Y23785105D02*
X38276190Y23823200D01*
X38276190Y23823200D02*
X38352380Y23899391D01*
X38352380Y23899391D02*
X38390475Y23975581D01*
X38390475Y23975581D02*
X38428571Y24127962D01*
X38428571Y24127962D02*
X38428571Y24242248D01*
X38428571Y24242248D02*
X38390475Y24394629D01*
X38390475Y24394629D02*
X38352380Y24470820D01*
X38352380Y24470820D02*
X38276190Y24547010D01*
X38276190Y24547010D02*
X38161904Y24585105D01*
X38161904Y24585105D02*
X38085713Y24585105D01*
X38085713Y24585105D02*
X37971428Y24547010D01*
X37971428Y24547010D02*
X37933332Y24508915D01*
X37247618Y24318439D02*
X37247618Y23785105D01*
X37438094Y24623200D02*
X37628571Y24051772D01*
X37628571Y24051772D02*
X37133332Y24051772D01*
X20864285Y46735105D02*
X21130952Y47116058D01*
X21321428Y46735105D02*
X21321428Y47535105D01*
X21321428Y47535105D02*
X21016666Y47535105D01*
X21016666Y47535105D02*
X20940476Y47497010D01*
X20940476Y47497010D02*
X20902381Y47458915D01*
X20902381Y47458915D02*
X20864285Y47382724D01*
X20864285Y47382724D02*
X20864285Y47268439D01*
X20864285Y47268439D02*
X20902381Y47192248D01*
X20902381Y47192248D02*
X20940476Y47154153D01*
X20940476Y47154153D02*
X21016666Y47116058D01*
X21016666Y47116058D02*
X21321428Y47116058D01*
X20102381Y46735105D02*
X20559524Y46735105D01*
X20330952Y46735105D02*
X20330952Y47535105D01*
X20330952Y47535105D02*
X20407143Y47420820D01*
X20407143Y47420820D02*
X20483333Y47344629D01*
X20483333Y47344629D02*
X20559524Y47306534D01*
X19416666Y47268439D02*
X19416666Y46735105D01*
X19607142Y47573200D02*
X19797619Y47001772D01*
X19797619Y47001772D02*
X19302380Y47001772D01*
X26783332Y34085105D02*
X27049999Y34466058D01*
X27240475Y34085105D02*
X27240475Y34885105D01*
X27240475Y34885105D02*
X26935713Y34885105D01*
X26935713Y34885105D02*
X26859523Y34847010D01*
X26859523Y34847010D02*
X26821428Y34808915D01*
X26821428Y34808915D02*
X26783332Y34732724D01*
X26783332Y34732724D02*
X26783332Y34618439D01*
X26783332Y34618439D02*
X26821428Y34542248D01*
X26821428Y34542248D02*
X26859523Y34504153D01*
X26859523Y34504153D02*
X26935713Y34466058D01*
X26935713Y34466058D02*
X27240475Y34466058D01*
X26021428Y34085105D02*
X26478571Y34085105D01*
X26249999Y34085105D02*
X26249999Y34885105D01*
X26249999Y34885105D02*
X26326190Y34770820D01*
X26326190Y34770820D02*
X26402380Y34694629D01*
X26402380Y34694629D02*
X26478571Y34656534D01*
X6514895Y15933333D02*
X6133942Y16200000D01*
X6514895Y16390476D02*
X5714895Y16390476D01*
X5714895Y16390476D02*
X5714895Y16085714D01*
X5714895Y16085714D02*
X5752990Y16009524D01*
X5752990Y16009524D02*
X5791085Y15971429D01*
X5791085Y15971429D02*
X5867276Y15933333D01*
X5867276Y15933333D02*
X5981561Y15933333D01*
X5981561Y15933333D02*
X6057752Y15971429D01*
X6057752Y15971429D02*
X6095847Y16009524D01*
X6095847Y16009524D02*
X6133942Y16085714D01*
X6133942Y16085714D02*
X6133942Y16390476D01*
X5981561Y15247619D02*
X6514895Y15247619D01*
X5676800Y15438095D02*
X6248228Y15628572D01*
X6248228Y15628572D02*
X6248228Y15133333D01*
X35814285Y23785105D02*
X36080952Y24166058D01*
X36271428Y23785105D02*
X36271428Y24585105D01*
X36271428Y24585105D02*
X35966666Y24585105D01*
X35966666Y24585105D02*
X35890476Y24547010D01*
X35890476Y24547010D02*
X35852381Y24508915D01*
X35852381Y24508915D02*
X35814285Y24432724D01*
X35814285Y24432724D02*
X35814285Y24318439D01*
X35814285Y24318439D02*
X35852381Y24242248D01*
X35852381Y24242248D02*
X35890476Y24204153D01*
X35890476Y24204153D02*
X35966666Y24166058D01*
X35966666Y24166058D02*
X36271428Y24166058D01*
X35052381Y23785105D02*
X35509524Y23785105D01*
X35280952Y23785105D02*
X35280952Y24585105D01*
X35280952Y24585105D02*
X35357143Y24470820D01*
X35357143Y24470820D02*
X35433333Y24394629D01*
X35433333Y24394629D02*
X35509524Y24356534D01*
X34290476Y23785105D02*
X34747619Y23785105D01*
X34519047Y23785105D02*
X34519047Y24585105D01*
X34519047Y24585105D02*
X34595238Y24470820D01*
X34595238Y24470820D02*
X34671428Y24394629D01*
X34671428Y24394629D02*
X34747619Y24356534D01*
X24633332Y39285105D02*
X24899999Y39666058D01*
X25090475Y39285105D02*
X25090475Y40085105D01*
X25090475Y40085105D02*
X24785713Y40085105D01*
X24785713Y40085105D02*
X24709523Y40047010D01*
X24709523Y40047010D02*
X24671428Y40008915D01*
X24671428Y40008915D02*
X24633332Y39932724D01*
X24633332Y39932724D02*
X24633332Y39818439D01*
X24633332Y39818439D02*
X24671428Y39742248D01*
X24671428Y39742248D02*
X24709523Y39704153D01*
X24709523Y39704153D02*
X24785713Y39666058D01*
X24785713Y39666058D02*
X25090475Y39666058D01*
X24328571Y40008915D02*
X24290475Y40047010D01*
X24290475Y40047010D02*
X24214285Y40085105D01*
X24214285Y40085105D02*
X24023809Y40085105D01*
X24023809Y40085105D02*
X23947618Y40047010D01*
X23947618Y40047010D02*
X23909523Y40008915D01*
X23909523Y40008915D02*
X23871428Y39932724D01*
X23871428Y39932724D02*
X23871428Y39856534D01*
X23871428Y39856534D02*
X23909523Y39742248D01*
X23909523Y39742248D02*
X24366666Y39285105D01*
X24366666Y39285105D02*
X23871428Y39285105D01*
X21064285Y15235105D02*
X21330952Y15616058D01*
X21521428Y15235105D02*
X21521428Y16035105D01*
X21521428Y16035105D02*
X21216666Y16035105D01*
X21216666Y16035105D02*
X21140476Y15997010D01*
X21140476Y15997010D02*
X21102381Y15958915D01*
X21102381Y15958915D02*
X21064285Y15882724D01*
X21064285Y15882724D02*
X21064285Y15768439D01*
X21064285Y15768439D02*
X21102381Y15692248D01*
X21102381Y15692248D02*
X21140476Y15654153D01*
X21140476Y15654153D02*
X21216666Y15616058D01*
X21216666Y15616058D02*
X21521428Y15616058D01*
X20302381Y15235105D02*
X20759524Y15235105D01*
X20530952Y15235105D02*
X20530952Y16035105D01*
X20530952Y16035105D02*
X20607143Y15920820D01*
X20607143Y15920820D02*
X20683333Y15844629D01*
X20683333Y15844629D02*
X20759524Y15806534D01*
X19921428Y15235105D02*
X19769047Y15235105D01*
X19769047Y15235105D02*
X19692857Y15273200D01*
X19692857Y15273200D02*
X19654761Y15311296D01*
X19654761Y15311296D02*
X19578571Y15425581D01*
X19578571Y15425581D02*
X19540476Y15577962D01*
X19540476Y15577962D02*
X19540476Y15882724D01*
X19540476Y15882724D02*
X19578571Y15958915D01*
X19578571Y15958915D02*
X19616666Y15997010D01*
X19616666Y15997010D02*
X19692857Y16035105D01*
X19692857Y16035105D02*
X19845238Y16035105D01*
X19845238Y16035105D02*
X19921428Y15997010D01*
X19921428Y15997010D02*
X19959523Y15958915D01*
X19959523Y15958915D02*
X19997619Y15882724D01*
X19997619Y15882724D02*
X19997619Y15692248D01*
X19997619Y15692248D02*
X19959523Y15616058D01*
X19959523Y15616058D02*
X19921428Y15577962D01*
X19921428Y15577962D02*
X19845238Y15539867D01*
X19845238Y15539867D02*
X19692857Y15539867D01*
X19692857Y15539867D02*
X19616666Y15577962D01*
X19616666Y15577962D02*
X19578571Y15616058D01*
X19578571Y15616058D02*
X19540476Y15692248D01*
D12*
%TO.C,R10*%
X29972936Y21835000D02*
X30427064Y21835000D01*
X29972936Y20365000D02*
X30427064Y20365000D01*
%TO.C,R12*%
X32265000Y21672936D02*
X32265000Y22127064D01*
X33735000Y21672936D02*
X33735000Y22127064D01*
D13*
%TO.C,J1*%
X30190000Y5535000D02*
X20610000Y5535000D01*
X30190000Y6815000D02*
X30190000Y5535000D01*
X30190000Y10785000D02*
X30190000Y9535000D01*
X20610000Y5535000D02*
X20610000Y6815000D01*
X20610000Y10785000D02*
X20610000Y9535000D01*
D12*
%TO.C,C5*%
X39838748Y39185000D02*
X40361252Y39185000D01*
X39838748Y37715000D02*
X40361252Y37715000D01*
%TO.C,R8*%
X35839564Y12865000D02*
X35385436Y12865000D01*
X35839564Y14335000D02*
X35385436Y14335000D01*
%TO.C,R22*%
X31385000Y37789564D02*
X31385000Y37335436D01*
X29915000Y37789564D02*
X29915000Y37335436D01*
%TO.C,C6*%
X37258748Y28225000D02*
X37781252Y28225000D01*
X37258748Y26755000D02*
X37781252Y26755000D01*
%TO.C,Q2*%
X34295000Y19925000D02*
X32345000Y19925000D01*
X34295000Y19925000D02*
X36245000Y19925000D01*
X34295000Y14805000D02*
X30845000Y14805000D01*
X34295000Y14805000D02*
X36245000Y14805000D01*
%TO.C,C2*%
X30488748Y30935000D02*
X31011252Y30935000D01*
X30488748Y29465000D02*
X31011252Y29465000D01*
%TO.C,U2*%
X42860000Y28900000D02*
X42860000Y34910000D01*
X36040000Y31150000D02*
X36040000Y34910000D01*
X36040000Y34910000D02*
X37300000Y34910000D01*
X42860000Y34910000D02*
X41600000Y34910000D01*
%TO.C,C8*%
X26681252Y23135000D02*
X26158748Y23135000D01*
X26681252Y24605000D02*
X26158748Y24605000D01*
%TO.C,R16*%
X14925000Y36289564D02*
X14925000Y35835436D01*
X13455000Y36289564D02*
X13455000Y35835436D01*
%TO.C,R9*%
X26265000Y19860436D02*
X26265000Y20314564D01*
X27735000Y19860436D02*
X27735000Y20314564D01*
%TO.C,R6*%
X12205000Y36029564D02*
X12205000Y35575436D01*
X10735000Y36029564D02*
X10735000Y35575436D01*
%TO.C,R23*%
X27700436Y39025000D02*
X28154564Y39025000D01*
X27700436Y37555000D02*
X28154564Y37555000D01*
%TO.C,C1*%
X30488748Y26935000D02*
X31011252Y26935000D01*
X30488748Y25465000D02*
X31011252Y25465000D01*
%TO.C,R20*%
X15745000Y13915436D02*
X15745000Y14369564D01*
X17215000Y13915436D02*
X17215000Y14369564D01*
%TO.C,R18*%
X18045000Y10874564D02*
X18045000Y10420436D01*
X16575000Y10874564D02*
X16575000Y10420436D01*
%TO.C,R13*%
X24235436Y45235000D02*
X24689564Y45235000D01*
X24235436Y43765000D02*
X24689564Y43765000D01*
%TO.C,R3*%
X10655000Y15555436D02*
X10655000Y16009564D01*
X12125000Y15555436D02*
X12125000Y16009564D01*
%TO.C,U1*%
X23915000Y26915000D02*
X24390000Y26915000D01*
X23915000Y27390000D02*
X23915000Y26915000D01*
X28135000Y27390000D02*
X28135000Y26915000D01*
X23915000Y30660000D02*
X23915000Y31135000D01*
X28135000Y30660000D02*
X28135000Y31135000D01*
X23915000Y31135000D02*
X24390000Y31135000D01*
X28135000Y31135000D02*
X27660000Y31135000D01*
%TO.C,R17*%
X16005000Y10884564D02*
X16005000Y10430436D01*
X14535000Y10884564D02*
X14535000Y10430436D01*
%TO.C,R15*%
X17115000Y36287064D02*
X17115000Y35832936D01*
X15645000Y36287064D02*
X15645000Y35832936D01*
%TO.C,R7*%
X8105000Y36017064D02*
X8105000Y35562936D01*
X6635000Y36017064D02*
X6635000Y35562936D01*
%TO.C,R5*%
X10155000Y36017064D02*
X10155000Y35562936D01*
X8685000Y36017064D02*
X8685000Y35562936D01*
%TO.C,C7*%
X30488748Y28925000D02*
X31011252Y28925000D01*
X30488748Y27455000D02*
X31011252Y27455000D01*
%TO.C,R21*%
X13675000Y13915436D02*
X13675000Y14369564D01*
X15145000Y13915436D02*
X15145000Y14369564D01*
%TO.C,C4*%
X36265000Y21588748D02*
X36265000Y22111252D01*
X37735000Y21588748D02*
X37735000Y22111252D01*
%TO.C,R14*%
X23727064Y46365000D02*
X23272936Y46365000D01*
X23727064Y47835000D02*
X23272936Y47835000D01*
%TO.C,R1*%
X26889564Y35065000D02*
X26435436Y35065000D01*
X26889564Y36535000D02*
X26435436Y36535000D01*
%TO.C,R4*%
X6735000Y15585436D02*
X6735000Y16039564D01*
X8205000Y15585436D02*
X8205000Y16039564D01*
%TO.C,R11*%
X35735000Y22039564D02*
X35735000Y21585436D01*
X34265000Y22039564D02*
X34265000Y21585436D01*
%TO.C,R2*%
X24262936Y39035000D02*
X24717064Y39035000D01*
X24262936Y37565000D02*
X24717064Y37565000D01*
%TO.C,R19*%
X17835000Y13910436D02*
X17835000Y14364564D01*
X19305000Y13910436D02*
X19305000Y14364564D01*
%TD*%
M02*
