%TF.GenerationSoftware,KiCad,Pcbnew,7.0.7-7.0.7~ubuntu23.04.1*%
%TF.CreationDate,2023-08-23T14:36:55+00:00*%
%TF.ProjectId,USBPDSINK01,55534250-4453-4494-9e4b-30312e6b6963,rev?*%
%TF.SameCoordinates,Original*%
%TF.FileFunction,Copper,L1,Top*%
%TF.FilePolarity,Positive*%
%FSLAX46Y46*%
G04 Gerber Fmt 4.6, Leading zero omitted, Abs format (unit mm)*
G04 Created by KiCad (PCBNEW 7.0.7-7.0.7~ubuntu23.04.1) date 2023-08-23 14:36:55*
%MOMM*%
%LPD*%
G01*
G04 APERTURE LIST*
%TA.AperFunction,ComponentPad*%
%ADD10C,6.000000*%
%TD*%
%TA.AperFunction,ComponentPad*%
%ADD11R,1.700000X1.700000*%
%TD*%
%TA.AperFunction,ComponentPad*%
%ADD12O,1.700000X1.700000*%
%TD*%
%TA.AperFunction,ComponentPad*%
%ADD13O,1.000000X2.000000*%
%TD*%
%TA.AperFunction,ComponentPad*%
%ADD14O,1.050000X2.100000*%
%TD*%
%TA.AperFunction,ViaPad*%
%ADD15C,0.500000*%
%TD*%
%TA.AperFunction,Conductor*%
%ADD16C,0.250000*%
%TD*%
%TA.AperFunction,Conductor*%
%ADD17C,0.300000*%
%TD*%
%TA.AperFunction,Conductor*%
%ADD18C,0.500000*%
%TD*%
G04 APERTURE END LIST*
D10*
%TO.P,M3,1*%
%TO.N,GND*%
X10160000Y10160000D03*
%TD*%
D11*
%TO.P,J2,1*%
%TO.N,GND*%
X23960000Y49800000D03*
D12*
%TO.P,J2,2*%
X23960000Y52340000D03*
%TO.P,J2,3*%
%TO.N,/SDA*%
X26500000Y49800000D03*
%TO.P,J2,4*%
X26500000Y52340000D03*
%TO.P,J2,5*%
%TO.N,GND*%
X29040000Y49800000D03*
%TO.P,J2,6*%
X29040000Y52340000D03*
%TO.P,J2,7*%
%TO.N,/SCL*%
X31580000Y49800000D03*
%TO.P,J2,8*%
X31580000Y52340000D03*
%TO.P,J2,9*%
%TO.N,GND*%
X34120000Y49800000D03*
%TO.P,J2,10*%
X34120000Y52340000D03*
%TD*%
D11*
%TO.P,JP3,1,A*%
%TO.N,+3V3*%
X15490000Y39880000D03*
D12*
%TO.P,JP3,2,C*%
%TO.N,VCC*%
X15490000Y42420000D03*
%TO.P,JP3,3,B*%
%TO.N,GND*%
X15490000Y44960000D03*
%TD*%
D11*
%TO.P,J4,1*%
%TO.N,GND*%
X11275000Y38975000D03*
D12*
%TO.P,J4,2*%
X8735000Y38975000D03*
%TO.P,J4,3*%
X11275000Y41515000D03*
%TO.P,J4,4*%
X8735000Y41515000D03*
%TO.P,J4,5*%
X11275000Y44055000D03*
%TO.P,J4,6*%
X8735000Y44055000D03*
%TD*%
D11*
%TO.P,J5,1*%
%TO.N,Net-(J1-D+-PadA6)*%
X25785000Y16570000D03*
D12*
%TO.P,J5,2*%
%TO.N,Net-(J1-D--PadA7)*%
X28325000Y16570000D03*
%TD*%
D10*
%TO.P,M2,1*%
%TO.N,GND*%
X40640000Y50800000D03*
%TD*%
%TO.P,M1,1*%
%TO.N,GND*%
X10160000Y50800000D03*
%TD*%
D11*
%TO.P,J3,1*%
%TO.N,GND*%
X40000000Y24100000D03*
D12*
%TO.P,J3,2*%
X42540000Y24100000D03*
%TO.P,J3,3*%
%TO.N,/VOUT*%
X40000000Y21560000D03*
%TO.P,J3,4*%
X42540000Y21560000D03*
%TO.P,J3,5*%
X40000000Y19020000D03*
%TO.P,J3,6*%
X42540000Y19020000D03*
%TO.P,J3,7*%
%TO.N,GND*%
X40000000Y16480000D03*
%TO.P,J3,8*%
X42540000Y16480000D03*
%TD*%
D11*
%TO.P,J6,1*%
%TO.N,/ALERT*%
X14255000Y32525000D03*
D12*
%TO.P,J6,2*%
X16795000Y32525000D03*
%TO.P,J6,3*%
%TO.N,/SIDE*%
X14255000Y29985000D03*
%TO.P,J6,4*%
X16795000Y29985000D03*
%TO.P,J6,5*%
%TO.N,/ATTACH*%
X14255000Y27445000D03*
%TO.P,J6,6*%
X16795000Y27445000D03*
%TO.P,J6,7*%
%TO.N,/GPIO*%
X14255000Y24905000D03*
%TO.P,J6,8*%
X16795000Y24905000D03*
%TO.P,J6,9*%
%TO.N,/PWR_OK2*%
X14255000Y22365000D03*
%TO.P,J6,10*%
X16795000Y22365000D03*
%TO.P,J6,11*%
%TO.N,/PWR_OK3*%
X14255000Y19825000D03*
%TO.P,J6,12*%
X16795000Y19825000D03*
%TO.P,J6,13*%
%TO.N,/RESET*%
X14255000Y17285000D03*
%TO.P,J6,14*%
X16795000Y17285000D03*
%TD*%
D11*
%TO.P,JP4,1,A*%
%TO.N,/VSYS*%
X37960000Y29800000D03*
D12*
%TO.P,JP4,2,B*%
%TO.N,VCC*%
X40500000Y29800000D03*
%TD*%
D10*
%TO.P,M4,1*%
%TO.N,GND*%
X40640000Y10160000D03*
%TD*%
D11*
%TO.P,JP1,1,A*%
%TO.N,/ADDR0*%
X24600000Y35482500D03*
D12*
%TO.P,JP1,2,B*%
%TO.N,GND*%
X27140000Y35482500D03*
%TD*%
D13*
%TO.P,J1,G1,SHIELD*%
%TO.N,GND*%
X31382500Y8135000D03*
%TO.P,J1,G2,SHIELD*%
X22742500Y8135000D03*
D14*
%TO.P,J1,G3,SHIELD*%
X31382500Y12315000D03*
%TO.P,J1,G4,SHIELD*%
X22742500Y12315000D03*
%TD*%
D15*
%TO.N,GND*%
X25300000Y28400000D03*
X21300000Y26300000D03*
X25300000Y29700000D03*
X26700000Y29700000D03*
%TO.N,/ALERT*%
X27849500Y31100000D03*
%TO.N,Net-(D1-A)*%
X7570000Y31332500D03*
X11390000Y33972500D03*
%TO.N,/GPIO*%
X26021797Y32768922D03*
X16450000Y10520000D03*
%TO.N,/PWR_OK2*%
X18560000Y15930000D03*
X29119166Y31225500D03*
X17830000Y15490000D03*
%TO.N,/PWR_OK3*%
X25349040Y32960499D03*
X19200000Y27600000D03*
%TO.N,/ATTACH*%
X14650000Y10420000D03*
X21900000Y31400000D03*
%TO.N,Net-(D5-A)*%
X7510000Y29312500D03*
X6320000Y33982500D03*
%TO.N,Net-(J1-CC1)*%
X28400000Y14000000D03*
X26800000Y25600000D03*
%TO.N,Net-(J1-CC2)*%
X25412000Y14077734D03*
X25300000Y25600000D03*
%TO.N,/SIDE*%
X13520000Y34470000D03*
X27088613Y32000500D03*
%TO.N,/VSYS*%
X29800000Y27400000D03*
%TO.N,/DISCH*%
X23000000Y22500000D03*
X34400000Y12400000D03*
X21500000Y14400000D03*
X23000000Y28700000D03*
%TD*%
D16*
%TO.N,/ALERT*%
X26513613Y31762327D02*
X27175940Y31100000D01*
X24450396Y33650000D02*
X24200000Y33650000D01*
X25953892Y33650000D02*
X26596797Y33007095D01*
X27175940Y31100000D02*
X27849500Y31100000D01*
X24200000Y33650000D02*
X17920000Y33650000D01*
X26513613Y32269519D02*
X26513613Y31762327D01*
X17920000Y33650000D02*
X16795000Y32525000D01*
X26596797Y32352703D02*
X26513613Y32269519D01*
X24200000Y33650000D02*
X25953892Y33650000D01*
X26596797Y33007095D02*
X26596797Y32352703D01*
D17*
%TO.N,Net-(D1-A)*%
X11390000Y33972500D02*
X11390000Y32171714D01*
X8050000Y30882500D02*
X7600000Y31332500D01*
X11390000Y32171714D02*
X11390000Y31982500D01*
X11390000Y31982500D02*
X10290000Y30882500D01*
X7600000Y31332500D02*
X7570000Y31332500D01*
X10290000Y30882500D02*
X8050000Y30882500D01*
D16*
%TO.N,/GPIO*%
X17605000Y24905000D02*
X16795000Y24905000D01*
D17*
X13055000Y13915000D02*
X13055000Y23705000D01*
D16*
X23552875Y30300000D02*
X23000000Y30300000D01*
D17*
X13055000Y23705000D02*
X14255000Y24905000D01*
D16*
X23000000Y30300000D02*
X17605000Y24905000D01*
X26021797Y32768922D02*
X23552875Y30300000D01*
D17*
X16450000Y10520000D02*
X13055000Y13915000D01*
D16*
%TO.N,/PWR_OK2*%
X23575000Y25681334D02*
X29119166Y31225500D01*
X23575000Y22175000D02*
X23575000Y25681334D01*
D17*
X23575000Y22175000D02*
X18560000Y17160000D01*
X18560000Y17160000D02*
X18560000Y15930000D01*
D16*
%TO.N,/PWR_OK3*%
X19663604Y27600000D02*
X19200000Y27600000D01*
X25349040Y32960499D02*
X25024103Y32960499D01*
X25024103Y32960499D02*
X19663604Y27600000D01*
%TO.N,/ATTACH*%
X20750000Y31400000D02*
X16795000Y27445000D01*
D17*
X14650000Y11612894D02*
X12555000Y13707893D01*
X12555000Y25745000D02*
X14255000Y27445000D01*
X12555000Y13707893D02*
X12555000Y25745000D01*
D16*
X21900000Y31400000D02*
X20750000Y31400000D01*
D17*
X14650000Y10420000D02*
X14650000Y11612894D01*
%TO.N,Net-(D5-A)*%
X6320000Y30502500D02*
X7510000Y29312500D01*
X6320000Y33982500D02*
X6320000Y30502500D01*
D16*
%TO.N,Net-(J1-CC1)*%
X27100000Y25300000D02*
X27100000Y15300000D01*
X27100000Y15300000D02*
X28400000Y14000000D01*
X26800000Y25600000D02*
X27100000Y25300000D01*
%TO.N,Net-(J1-CC2)*%
X24200000Y18800000D02*
X24200000Y15200000D01*
X24200000Y15200000D02*
X25322266Y14077734D01*
X25300000Y19900000D02*
X24200000Y18800000D01*
X25322266Y14077734D02*
X25412000Y14077734D01*
X25300000Y25600000D02*
X25300000Y19900000D01*
D18*
%TO.N,/SIDE*%
X12670000Y30590000D02*
X13275000Y29985000D01*
D16*
X27088613Y33151675D02*
X26140288Y34100000D01*
D18*
X12955000Y33895000D02*
X12670000Y33610000D01*
D16*
X13890000Y34100000D02*
X13520000Y34470000D01*
D18*
X13275000Y29985000D02*
X14255000Y29985000D01*
X12955000Y33905000D02*
X12955000Y33895000D01*
X12670000Y33610000D02*
X12670000Y30590000D01*
D16*
X26140288Y34100000D02*
X13890000Y34100000D01*
X27088613Y32000500D02*
X27088613Y33151675D01*
D18*
X13520000Y34470000D02*
X12955000Y33905000D01*
%TO.N,/RESET*%
X16795000Y17285000D02*
X14255000Y17285000D01*
D16*
%TO.N,/VSYS*%
X29800000Y27400000D02*
X32200000Y29800000D01*
X32200000Y29800000D02*
X37960000Y29800000D01*
D17*
%TO.N,/DISCH*%
X21500000Y10500000D02*
X32500000Y10500000D01*
X21500000Y14400000D02*
X21500000Y10500000D01*
X32500000Y10500000D02*
X34400000Y12400000D01*
X23000000Y22500000D02*
X23000000Y28700000D01*
%TD*%
%TA.AperFunction,Conductor*%
%TO.N,GND*%
G36*
X45343039Y55580315D02*
G01*
X45388794Y55527511D01*
X45400000Y55476000D01*
X45400000Y5524000D01*
X45380315Y5456961D01*
X45327511Y5411206D01*
X45276000Y5400000D01*
X5524000Y5400000D01*
X5456961Y5419685D01*
X5411206Y5472489D01*
X5400000Y5524000D01*
X5400000Y7592658D01*
X22042500Y7592658D01*
X22057848Y7466251D01*
X22057849Y7466249D01*
X22118130Y7307303D01*
X22214692Y7167407D01*
X22214698Y7167401D01*
X22341932Y7054681D01*
X22492451Y6975684D01*
X22492500Y6975672D01*
X22492500Y7330022D01*
X22512185Y7397061D01*
X22564989Y7442816D01*
X22634147Y7452760D01*
X22650426Y7449291D01*
X22714340Y7431105D01*
X22826021Y7441454D01*
X22826026Y7441457D01*
X22834563Y7443885D01*
X22904430Y7443299D01*
X22962890Y7405034D01*
X22991381Y7341237D01*
X22992500Y7324619D01*
X22992500Y6975672D01*
X22992548Y6975684D01*
X23143067Y7054681D01*
X23270301Y7167401D01*
X23270307Y7167407D01*
X23366869Y7307303D01*
X23427150Y7466249D01*
X23427151Y7466251D01*
X23442500Y7592658D01*
X30682500Y7592658D01*
X30697848Y7466251D01*
X30697849Y7466249D01*
X30758130Y7307303D01*
X30854692Y7167407D01*
X30854698Y7167401D01*
X30981932Y7054681D01*
X31132451Y6975684D01*
X31132500Y6975672D01*
X31132500Y7330022D01*
X31152185Y7397061D01*
X31204989Y7442816D01*
X31274147Y7452760D01*
X31290426Y7449291D01*
X31354340Y7431105D01*
X31466021Y7441454D01*
X31466026Y7441457D01*
X31474563Y7443885D01*
X31544430Y7443299D01*
X31602890Y7405034D01*
X31631381Y7341237D01*
X31632500Y7324619D01*
X31632500Y6975672D01*
X31632548Y6975684D01*
X31783067Y7054681D01*
X31910301Y7167401D01*
X31910307Y7167407D01*
X32006869Y7307303D01*
X32067150Y7466249D01*
X32067151Y7466251D01*
X32082500Y7592658D01*
X32082500Y7885000D01*
X31806500Y7885000D01*
X31739461Y7904685D01*
X31693706Y7957489D01*
X31682500Y8009000D01*
X31682500Y8261000D01*
X31702185Y8328039D01*
X31754989Y8373794D01*
X31806500Y8385000D01*
X32082500Y8385000D01*
X32082500Y8677343D01*
X32067151Y8803750D01*
X32067150Y8803752D01*
X32006869Y8962698D01*
X31910307Y9102594D01*
X31910301Y9102600D01*
X31783067Y9215320D01*
X31632544Y9294319D01*
X31632545Y9294319D01*
X31632500Y9294331D01*
X31632500Y8939979D01*
X31612815Y8872940D01*
X31560011Y8827185D01*
X31490853Y8817241D01*
X31474566Y8820713D01*
X31410662Y8838895D01*
X31410662Y8838896D01*
X31298975Y8828546D01*
X31290431Y8826115D01*
X31220564Y8826703D01*
X31162106Y8864972D01*
X31133618Y8928770D01*
X31132500Y8945382D01*
X31132500Y9294331D01*
X31132454Y9294319D01*
X30981932Y9215320D01*
X30854698Y9102600D01*
X30854692Y9102594D01*
X30758130Y8962698D01*
X30697849Y8803752D01*
X30697848Y8803750D01*
X30682500Y8677343D01*
X30682500Y8385000D01*
X30958500Y8385000D01*
X31025539Y8365315D01*
X31071294Y8312511D01*
X31082500Y8261000D01*
X31082500Y8009000D01*
X31062815Y7941961D01*
X31010011Y7896206D01*
X30958500Y7885000D01*
X30682500Y7885000D01*
X30682500Y7592658D01*
X23442500Y7592658D01*
X23442500Y7885000D01*
X23166500Y7885000D01*
X23099461Y7904685D01*
X23053706Y7957489D01*
X23042500Y8009000D01*
X23042500Y8261000D01*
X23062185Y8328039D01*
X23114989Y8373794D01*
X23166500Y8385000D01*
X23442500Y8385000D01*
X23442500Y8677343D01*
X23427151Y8803750D01*
X23427150Y8803752D01*
X23366869Y8962698D01*
X23270307Y9102594D01*
X23270301Y9102600D01*
X23143067Y9215320D01*
X22992544Y9294319D01*
X22992545Y9294319D01*
X22992500Y9294331D01*
X22992500Y8939979D01*
X22972815Y8872940D01*
X22920011Y8827185D01*
X22850853Y8817241D01*
X22834566Y8820713D01*
X22770662Y8838895D01*
X22770662Y8838896D01*
X22658975Y8828546D01*
X22650431Y8826115D01*
X22580564Y8826703D01*
X22522106Y8864972D01*
X22493618Y8928770D01*
X22492500Y8945382D01*
X22492500Y9294331D01*
X22492454Y9294319D01*
X22341932Y9215320D01*
X22214698Y9102600D01*
X22214692Y9102594D01*
X22118130Y8962698D01*
X22057849Y8803752D01*
X22057848Y8803750D01*
X22042500Y8677343D01*
X22042500Y8385000D01*
X22318500Y8385000D01*
X22385539Y8365315D01*
X22431294Y8312511D01*
X22442500Y8261000D01*
X22442500Y8009000D01*
X22422815Y7941961D01*
X22370011Y7896206D01*
X22318500Y7885000D01*
X22042500Y7885000D01*
X22042500Y7592658D01*
X5400000Y7592658D01*
X5400000Y13644464D01*
X12154500Y13644464D01*
X12154501Y13644454D01*
X12161346Y13623386D01*
X12165887Y13604475D01*
X12169354Y13582589D01*
X12169355Y13582586D01*
X12179412Y13562848D01*
X12186857Y13544875D01*
X12193704Y13523803D01*
X12206726Y13505879D01*
X12216890Y13489293D01*
X12226950Y13469551D01*
X12247864Y13448637D01*
X12247893Y13448606D01*
X14213181Y11483320D01*
X14246666Y11421997D01*
X14249500Y11395639D01*
X14249500Y10768333D01*
X14229815Y10701294D01*
X14229094Y10700331D01*
X14224622Y10693372D01*
X14164834Y10562457D01*
X14144353Y10420000D01*
X14164834Y10277544D01*
X14213056Y10171955D01*
X14224623Y10146627D01*
X14318872Y10037857D01*
X14439947Y9960047D01*
X14439950Y9960046D01*
X14439949Y9960046D01*
X14578036Y9919501D01*
X14578038Y9919500D01*
X14578039Y9919500D01*
X14721962Y9919500D01*
X14721962Y9919501D01*
X14860053Y9960047D01*
X14981128Y10037857D01*
X15075377Y10146627D01*
X15135165Y10277543D01*
X15155647Y10420000D01*
X15135165Y10562457D01*
X15075377Y10693373D01*
X15075374Y10693376D01*
X15070582Y10700834D01*
X15073621Y10702788D01*
X15051749Y10750776D01*
X15050500Y10768333D01*
X15050500Y11053746D01*
X15070185Y11120785D01*
X15122989Y11166540D01*
X15192147Y11176484D01*
X15255703Y11147459D01*
X15262166Y11141441D01*
X15610233Y10793374D01*
X15925369Y10478238D01*
X15958854Y10416915D01*
X15960426Y10408205D01*
X15964834Y10377547D01*
X15964835Y10377542D01*
X16010504Y10277543D01*
X16024623Y10246627D01*
X16118872Y10137857D01*
X16239947Y10060047D01*
X16239950Y10060046D01*
X16239949Y10060046D01*
X16378036Y10019501D01*
X16378038Y10019500D01*
X16378039Y10019500D01*
X16521962Y10019500D01*
X16521962Y10019501D01*
X16660053Y10060047D01*
X16781128Y10137857D01*
X16875377Y10246627D01*
X16935165Y10377543D01*
X16955647Y10520000D01*
X16935165Y10662457D01*
X16875377Y10793373D01*
X16781128Y10902143D01*
X16710008Y10947849D01*
X16660051Y10979955D01*
X16543736Y11014107D01*
X16490990Y11045403D01*
X13491819Y14044575D01*
X13458334Y14105898D01*
X13455500Y14132256D01*
X13455500Y14400000D01*
X20994353Y14400000D01*
X21014834Y14257544D01*
X21031893Y14220191D01*
X21074623Y14126627D01*
X21074627Y14126622D01*
X21079418Y14119167D01*
X21076364Y14117205D01*
X21098235Y14069337D01*
X21099500Y14051668D01*
X21099500Y10541276D01*
X21097973Y10521879D01*
X21094508Y10500000D01*
X21099128Y10470830D01*
X21099131Y10470806D01*
X21114352Y10374699D01*
X21114354Y10374696D01*
X21171950Y10261658D01*
X21171952Y10261656D01*
X21171954Y10261653D01*
X21261652Y10171955D01*
X21261654Y10171954D01*
X21261658Y10171950D01*
X21374696Y10114354D01*
X21374697Y10114354D01*
X21374699Y10114353D01*
X21499997Y10094508D01*
X21500000Y10094508D01*
X21521879Y10097974D01*
X21541275Y10099500D01*
X32563431Y10099500D01*
X32563433Y10099500D01*
X32584501Y10106346D01*
X32603417Y10110888D01*
X32625304Y10114354D01*
X32645044Y10124414D01*
X32663011Y10131856D01*
X32684090Y10138704D01*
X32702026Y10151737D01*
X32718588Y10161886D01*
X32738342Y10171950D01*
X32753834Y10187443D01*
X32753841Y10187448D01*
X33590893Y11024500D01*
X34440992Y11874600D01*
X34493737Y11905894D01*
X34610050Y11940046D01*
X34610050Y11940047D01*
X34610053Y11940047D01*
X34731128Y12017857D01*
X34825377Y12126627D01*
X34885165Y12257543D01*
X34905647Y12400000D01*
X34885165Y12542457D01*
X34825377Y12673373D01*
X34731128Y12782143D01*
X34610053Y12859953D01*
X34610051Y12859954D01*
X34610049Y12859955D01*
X34610050Y12859955D01*
X34471963Y12900500D01*
X34471961Y12900500D01*
X34328039Y12900500D01*
X34328036Y12900500D01*
X34189949Y12859955D01*
X34068873Y12782144D01*
X33974623Y12673374D01*
X33974622Y12673372D01*
X33914835Y12542459D01*
X33914834Y12542455D01*
X33910426Y12511796D01*
X33881400Y12448241D01*
X33875369Y12441764D01*
X32370426Y10936819D01*
X32309103Y10903334D01*
X32282745Y10900500D01*
X31751380Y10900500D01*
X31684341Y10920185D01*
X31638586Y10972989D01*
X31628642Y11042147D01*
X31657667Y11105703D01*
X31702266Y11138359D01*
X31747469Y11157858D01*
X31883412Y11259065D01*
X31992350Y11388892D01*
X32068414Y11540347D01*
X32107500Y11705262D01*
X32107500Y12065000D01*
X31806500Y12065000D01*
X31739461Y12084685D01*
X31693706Y12137489D01*
X31682500Y12189000D01*
X31682500Y12441000D01*
X31702185Y12508039D01*
X31754989Y12553794D01*
X31806500Y12565000D01*
X32107500Y12565000D01*
X32107500Y12882222D01*
X32092759Y13008337D01*
X32034795Y13167594D01*
X32034793Y13167598D01*
X31941665Y13309192D01*
X31941664Y13309193D01*
X31818391Y13425497D01*
X31818385Y13425500D01*
X31671613Y13510239D01*
X31671608Y13510241D01*
X31632500Y13521950D01*
X31632500Y13269979D01*
X31612815Y13202940D01*
X31560011Y13157185D01*
X31490853Y13147241D01*
X31474566Y13150713D01*
X31410662Y13168895D01*
X31410662Y13168896D01*
X31298975Y13158546D01*
X31290431Y13156115D01*
X31220564Y13156703D01*
X31162106Y13194972D01*
X31133618Y13258770D01*
X31132500Y13275382D01*
X31132500Y13521736D01*
X31017530Y13472143D01*
X30881587Y13370936D01*
X30772649Y13241109D01*
X30696585Y13089654D01*
X30657500Y12924739D01*
X30657500Y12565000D01*
X30958500Y12565000D01*
X31025539Y12545315D01*
X31071294Y12492511D01*
X31082500Y12441000D01*
X31082500Y12189000D01*
X31062815Y12121961D01*
X31010011Y12076206D01*
X30958500Y12065000D01*
X30657499Y12065000D01*
X30657458Y12064959D01*
X30596134Y12031474D01*
X30526443Y12036460D01*
X30470510Y12078332D01*
X30455217Y12105188D01*
X30455199Y12105230D01*
X30455198Y12105233D01*
X30362951Y12225451D01*
X30242733Y12317698D01*
X30242729Y12317700D01*
X30179301Y12343973D01*
X30102736Y12375687D01*
X30088671Y12377539D01*
X29990227Y12390500D01*
X29990220Y12390500D01*
X29914780Y12390500D01*
X29914772Y12390500D01*
X29802264Y12375687D01*
X29802263Y12375687D01*
X29662270Y12317700D01*
X29662267Y12317699D01*
X29662267Y12317698D01*
X29542049Y12225451D01*
X29466219Y12126627D01*
X29449800Y12105230D01*
X29391813Y11965237D01*
X29391812Y11965235D01*
X29372034Y11815001D01*
X29372034Y11815000D01*
X29391812Y11664766D01*
X29391813Y11664764D01*
X29443348Y11540347D01*
X29449802Y11524767D01*
X29542049Y11404549D01*
X29662267Y11312302D01*
X29802264Y11254313D01*
X29914780Y11239500D01*
X29914787Y11239500D01*
X29990213Y11239500D01*
X29990220Y11239500D01*
X30102736Y11254313D01*
X30242733Y11312302D01*
X30362951Y11404549D01*
X30455198Y11524767D01*
X30467472Y11554402D01*
X30511312Y11608805D01*
X30577605Y11630871D01*
X30645305Y11613593D01*
X30692917Y11562457D01*
X30698556Y11549360D01*
X30730204Y11462407D01*
X30730206Y11462403D01*
X30823334Y11320809D01*
X30823335Y11320808D01*
X30946608Y11204504D01*
X30946617Y11204498D01*
X31072384Y11131887D01*
X31120600Y11081321D01*
X31133824Y11012714D01*
X31107856Y10947849D01*
X31050942Y10907320D01*
X31010385Y10900500D01*
X23111380Y10900500D01*
X23044341Y10920185D01*
X22998586Y10972989D01*
X22988642Y11042147D01*
X23017667Y11105703D01*
X23062266Y11138359D01*
X23107469Y11157858D01*
X23243412Y11259065D01*
X23352350Y11388892D01*
X23428413Y11540345D01*
X23429233Y11542597D01*
X23430213Y11543930D01*
X23431656Y11546801D01*
X23432146Y11546555D01*
X23470652Y11598866D01*
X23535917Y11623810D01*
X23604308Y11609509D01*
X23654110Y11560503D01*
X23660320Y11547656D01*
X23669799Y11524772D01*
X23669799Y11524771D01*
X23669801Y11524768D01*
X23669802Y11524767D01*
X23762049Y11404549D01*
X23882267Y11312302D01*
X24022264Y11254313D01*
X24134780Y11239500D01*
X24134787Y11239500D01*
X24210213Y11239500D01*
X24210220Y11239500D01*
X24322736Y11254313D01*
X24462733Y11312302D01*
X24582951Y11404549D01*
X24675198Y11524767D01*
X24733187Y11664764D01*
X24752966Y11815000D01*
X24733187Y11965236D01*
X24675198Y12105233D01*
X24582951Y12225451D01*
X24462733Y12317698D01*
X24462729Y12317700D01*
X24399301Y12343973D01*
X24322736Y12375687D01*
X24308671Y12377539D01*
X24210227Y12390500D01*
X24210220Y12390500D01*
X24134780Y12390500D01*
X24134772Y12390500D01*
X24022264Y12375687D01*
X24022263Y12375687D01*
X23882270Y12317700D01*
X23762049Y12225451D01*
X23669799Y12105230D01*
X23669798Y12105227D01*
X23669777Y12105175D01*
X23669747Y12105138D01*
X23665736Y12098191D01*
X23664651Y12098817D01*
X23625929Y12050777D01*
X23559632Y12028719D01*
X23491935Y12046007D01*
X23467540Y12064960D01*
X23467500Y12065000D01*
X23166500Y12065000D01*
X23099461Y12084685D01*
X23053706Y12137489D01*
X23042500Y12189000D01*
X23042500Y12441000D01*
X23062185Y12508039D01*
X23114989Y12553794D01*
X23166500Y12565000D01*
X23467500Y12565000D01*
X23467500Y12882222D01*
X23452759Y13008337D01*
X23394795Y13167594D01*
X23394793Y13167598D01*
X23301665Y13309192D01*
X23301664Y13309193D01*
X23178391Y13425497D01*
X23178385Y13425500D01*
X23031613Y13510239D01*
X23031608Y13510241D01*
X22992500Y13521950D01*
X22992500Y13269979D01*
X22972815Y13202940D01*
X22920011Y13157185D01*
X22850853Y13147241D01*
X22834566Y13150713D01*
X22770662Y13168895D01*
X22770662Y13168896D01*
X22658975Y13158546D01*
X22650431Y13156115D01*
X22580564Y13156703D01*
X22522106Y13194972D01*
X22493618Y13258770D01*
X22492500Y13275382D01*
X22492500Y13521736D01*
X22377530Y13472143D01*
X22241587Y13370936D01*
X22132647Y13241107D01*
X22128679Y13235073D01*
X22126236Y13236680D01*
X22087599Y13195316D01*
X22019872Y13178147D01*
X21953614Y13200320D01*
X21909862Y13254795D01*
X21900500Y13302061D01*
X21900500Y14051668D01*
X21920185Y14118707D01*
X21920901Y14119664D01*
X21925368Y14126618D01*
X21925377Y14126627D01*
X21985165Y14257543D01*
X22005647Y14400000D01*
X21985165Y14542457D01*
X21925377Y14673373D01*
X21831128Y14782143D01*
X21710053Y14859953D01*
X21710051Y14859954D01*
X21710049Y14859955D01*
X21710050Y14859955D01*
X21571963Y14900500D01*
X21571961Y14900500D01*
X21428039Y14900500D01*
X21428036Y14900500D01*
X21289949Y14859955D01*
X21168873Y14782144D01*
X21074623Y14673374D01*
X21074622Y14673372D01*
X21014834Y14542457D01*
X20994353Y14400000D01*
X13455500Y14400000D01*
X13455500Y16263031D01*
X13475185Y16330070D01*
X13527989Y16375825D01*
X13597147Y16385769D01*
X13644775Y16368459D01*
X13762363Y16295652D01*
X13952544Y16221976D01*
X14153024Y16184500D01*
X14153026Y16184500D01*
X14356974Y16184500D01*
X14356976Y16184500D01*
X14557456Y16221976D01*
X14747637Y16295652D01*
X14921041Y16403019D01*
X15071764Y16540421D01*
X15194673Y16703179D01*
X15200945Y16715774D01*
X15248449Y16767010D01*
X15311944Y16784500D01*
X15738056Y16784500D01*
X15805095Y16764815D01*
X15849055Y16715774D01*
X15855326Y16703179D01*
X15978237Y16540419D01*
X16128958Y16403020D01*
X16128960Y16403018D01*
X16184777Y16368458D01*
X16302363Y16295652D01*
X16492544Y16221976D01*
X16693024Y16184500D01*
X16693026Y16184500D01*
X16896974Y16184500D01*
X16896976Y16184500D01*
X17097456Y16221976D01*
X17287637Y16295652D01*
X17461041Y16403019D01*
X17611764Y16540421D01*
X17734673Y16703179D01*
X17825582Y16885750D01*
X17881397Y17081917D01*
X17900215Y17285000D01*
X17881397Y17488083D01*
X17825582Y17684250D01*
X17811240Y17713052D01*
X17765364Y17805185D01*
X17734673Y17866821D01*
X17657862Y17968535D01*
X17611762Y18029582D01*
X17461041Y18166981D01*
X17461039Y18166983D01*
X17287642Y18274345D01*
X17287635Y18274349D01*
X17192546Y18311187D01*
X17097456Y18348024D01*
X16896976Y18385500D01*
X16693024Y18385500D01*
X16492544Y18348024D01*
X16492541Y18348024D01*
X16492541Y18348023D01*
X16302364Y18274349D01*
X16302357Y18274345D01*
X16128960Y18166983D01*
X16128958Y18166981D01*
X15978237Y18029582D01*
X15855326Y17866822D01*
X15849055Y17854226D01*
X15801551Y17802990D01*
X15738056Y17785500D01*
X15311944Y17785500D01*
X15244905Y17805185D01*
X15200945Y17854226D01*
X15194673Y17866822D01*
X15071762Y18029582D01*
X14921041Y18166981D01*
X14921039Y18166983D01*
X14747642Y18274345D01*
X14747635Y18274349D01*
X14652546Y18311187D01*
X14557456Y18348024D01*
X14356976Y18385500D01*
X14153024Y18385500D01*
X13952544Y18348024D01*
X13952541Y18348024D01*
X13952541Y18348023D01*
X13762364Y18274349D01*
X13762357Y18274345D01*
X13644777Y18201543D01*
X13577416Y18182988D01*
X13510717Y18203796D01*
X13465856Y18257361D01*
X13455500Y18306970D01*
X13455500Y18803031D01*
X13475185Y18870070D01*
X13527989Y18915825D01*
X13597147Y18925769D01*
X13644775Y18908459D01*
X13762363Y18835652D01*
X13952544Y18761976D01*
X14153024Y18724500D01*
X14153026Y18724500D01*
X14356974Y18724500D01*
X14356976Y18724500D01*
X14557456Y18761976D01*
X14747637Y18835652D01*
X14921041Y18943019D01*
X15054500Y19064683D01*
X15071762Y19080419D01*
X15075995Y19086024D01*
X15194673Y19243179D01*
X15285582Y19425750D01*
X15341397Y19621917D01*
X15360215Y19825000D01*
X15689785Y19825000D01*
X15708602Y19621918D01*
X15764417Y19425753D01*
X15764422Y19425740D01*
X15855327Y19243179D01*
X15978237Y19080419D01*
X16128958Y18943020D01*
X16128960Y18943018D01*
X16172879Y18915825D01*
X16302363Y18835652D01*
X16492544Y18761976D01*
X16693024Y18724500D01*
X16693026Y18724500D01*
X16896974Y18724500D01*
X16896976Y18724500D01*
X17097456Y18761976D01*
X17287637Y18835652D01*
X17461041Y18943019D01*
X17594500Y19064683D01*
X17611762Y19080419D01*
X17615995Y19086024D01*
X17734673Y19243179D01*
X17825582Y19425750D01*
X17881397Y19621917D01*
X17900215Y19825000D01*
X17897769Y19851392D01*
X17881397Y20028083D01*
X17871473Y20062963D01*
X17825582Y20224250D01*
X17823655Y20228119D01*
X17781272Y20313236D01*
X17734673Y20406821D01*
X17611764Y20569579D01*
X17611762Y20569582D01*
X17461041Y20706981D01*
X17461039Y20706983D01*
X17287642Y20814345D01*
X17287635Y20814349D01*
X17192546Y20851187D01*
X17097456Y20888024D01*
X16896976Y20925500D01*
X16693024Y20925500D01*
X16492544Y20888024D01*
X16492541Y20888024D01*
X16492541Y20888023D01*
X16302364Y20814349D01*
X16302357Y20814345D01*
X16128960Y20706983D01*
X16128958Y20706981D01*
X15978237Y20569582D01*
X15855327Y20406822D01*
X15764422Y20224261D01*
X15764417Y20224248D01*
X15708602Y20028083D01*
X15689785Y19825001D01*
X15689785Y19825000D01*
X15360215Y19825000D01*
X15357769Y19851392D01*
X15341397Y20028083D01*
X15331473Y20062963D01*
X15285582Y20224250D01*
X15283655Y20228119D01*
X15241272Y20313236D01*
X15194673Y20406821D01*
X15071764Y20569579D01*
X15071762Y20569582D01*
X14921041Y20706981D01*
X14921039Y20706983D01*
X14747642Y20814345D01*
X14747635Y20814349D01*
X14652546Y20851187D01*
X14557456Y20888024D01*
X14356976Y20925500D01*
X14153024Y20925500D01*
X13952544Y20888024D01*
X13952541Y20888024D01*
X13952541Y20888023D01*
X13762364Y20814349D01*
X13762357Y20814345D01*
X13644777Y20741543D01*
X13577416Y20722988D01*
X13510717Y20743796D01*
X13465856Y20797361D01*
X13455500Y20846970D01*
X13455500Y21343031D01*
X13475185Y21410070D01*
X13527989Y21455825D01*
X13597147Y21465769D01*
X13644775Y21448459D01*
X13762363Y21375652D01*
X13952544Y21301976D01*
X14153024Y21264500D01*
X14153026Y21264500D01*
X14356974Y21264500D01*
X14356976Y21264500D01*
X14557456Y21301976D01*
X14747637Y21375652D01*
X14921041Y21483019D01*
X15071764Y21620421D01*
X15194673Y21783179D01*
X15285582Y21965750D01*
X15341397Y22161917D01*
X15360215Y22365000D01*
X15689785Y22365000D01*
X15708602Y22161918D01*
X15764417Y21965753D01*
X15764422Y21965740D01*
X15855327Y21783179D01*
X15978237Y21620419D01*
X16128958Y21483020D01*
X16128960Y21483018D01*
X16172879Y21455825D01*
X16302363Y21375652D01*
X16492544Y21301976D01*
X16693024Y21264500D01*
X16693026Y21264500D01*
X16896974Y21264500D01*
X16896976Y21264500D01*
X17097456Y21301976D01*
X17287637Y21375652D01*
X17461041Y21483019D01*
X17611764Y21620421D01*
X17734673Y21783179D01*
X17825582Y21965750D01*
X17881397Y22161917D01*
X17900215Y22365000D01*
X17881397Y22568083D01*
X17825582Y22764250D01*
X17821039Y22773373D01*
X17781272Y22853236D01*
X17734673Y22946821D01*
X17663005Y23041725D01*
X17611762Y23109582D01*
X17461041Y23246981D01*
X17461039Y23246983D01*
X17287642Y23354345D01*
X17287635Y23354349D01*
X17192546Y23391187D01*
X17097456Y23428024D01*
X16896976Y23465500D01*
X16693024Y23465500D01*
X16492544Y23428024D01*
X16492541Y23428024D01*
X16492541Y23428023D01*
X16302364Y23354349D01*
X16302357Y23354345D01*
X16128960Y23246983D01*
X16128958Y23246981D01*
X15978237Y23109582D01*
X15855327Y22946822D01*
X15764422Y22764261D01*
X15764417Y22764248D01*
X15708602Y22568083D01*
X15689785Y22365001D01*
X15689785Y22365000D01*
X15360215Y22365000D01*
X15341397Y22568083D01*
X15285582Y22764250D01*
X15281039Y22773373D01*
X15241272Y22853236D01*
X15194673Y22946821D01*
X15123005Y23041725D01*
X15071762Y23109582D01*
X14921041Y23246981D01*
X14921039Y23246983D01*
X14747642Y23354345D01*
X14747635Y23354349D01*
X14652546Y23391187D01*
X14557456Y23428024D01*
X14356976Y23465500D01*
X14153024Y23465500D01*
X13952544Y23428024D01*
X13952541Y23428024D01*
X13952541Y23428023D01*
X13762364Y23354349D01*
X13762357Y23354345D01*
X13644777Y23281543D01*
X13577416Y23262988D01*
X13510717Y23283796D01*
X13465856Y23337361D01*
X13455500Y23386970D01*
X13455500Y23487747D01*
X13475185Y23554786D01*
X13491815Y23575424D01*
X13755456Y23839066D01*
X13816777Y23872549D01*
X13886468Y23867565D01*
X13887756Y23867075D01*
X13952544Y23841976D01*
X14153024Y23804500D01*
X14153026Y23804500D01*
X14356974Y23804500D01*
X14356976Y23804500D01*
X14557456Y23841976D01*
X14747637Y23915652D01*
X14921041Y24023019D01*
X15053276Y24143567D01*
X15071762Y24160419D01*
X15080427Y24171893D01*
X15194673Y24323179D01*
X15285582Y24505750D01*
X15341397Y24701917D01*
X15360215Y24905000D01*
X15348814Y25028034D01*
X15341397Y25108083D01*
X15332772Y25138397D01*
X15285582Y25304250D01*
X15277991Y25319494D01*
X15226148Y25423610D01*
X15194673Y25486821D01*
X15124982Y25579107D01*
X15071762Y25649582D01*
X14921041Y25786981D01*
X14921039Y25786983D01*
X14747642Y25894345D01*
X14747635Y25894349D01*
X14652546Y25931187D01*
X14557456Y25968024D01*
X14356976Y26005500D01*
X14153024Y26005500D01*
X13952544Y25968024D01*
X13952541Y25968024D01*
X13952541Y25968023D01*
X13762364Y25894349D01*
X13762357Y25894345D01*
X13588960Y25786983D01*
X13588958Y25786981D01*
X13438237Y25649582D01*
X13315327Y25486822D01*
X13224422Y25304261D01*
X13224417Y25304248D01*
X13198766Y25214093D01*
X13161487Y25155000D01*
X13098177Y25125443D01*
X13028937Y25134805D01*
X12975751Y25180115D01*
X12955504Y25246987D01*
X12955500Y25248028D01*
X12955500Y25527746D01*
X12975185Y25594785D01*
X12991815Y25615423D01*
X13755455Y26379064D01*
X13816776Y26412547D01*
X13886467Y26407563D01*
X13887927Y26407008D01*
X13952538Y26381978D01*
X13952539Y26381978D01*
X13952544Y26381976D01*
X14153024Y26344500D01*
X14153026Y26344500D01*
X14356974Y26344500D01*
X14356976Y26344500D01*
X14557456Y26381976D01*
X14747637Y26455652D01*
X14921041Y26563019D01*
X15071764Y26700421D01*
X15194673Y26863179D01*
X15285582Y27045750D01*
X15341397Y27241917D01*
X15360215Y27445000D01*
X15356533Y27484731D01*
X15341397Y27648083D01*
X15285582Y27844250D01*
X15194673Y28026821D01*
X15071764Y28189579D01*
X15071762Y28189582D01*
X14921041Y28326981D01*
X14921039Y28326983D01*
X14747642Y28434345D01*
X14747635Y28434349D01*
X14575414Y28501067D01*
X14557456Y28508024D01*
X14356976Y28545500D01*
X14153024Y28545500D01*
X13952544Y28508024D01*
X13952541Y28508024D01*
X13952541Y28508023D01*
X13762364Y28434349D01*
X13762357Y28434345D01*
X13588960Y28326983D01*
X13588958Y28326981D01*
X13438237Y28189582D01*
X13315327Y28026822D01*
X13224422Y27844261D01*
X13224417Y27844248D01*
X13168602Y27648083D01*
X13149785Y27445001D01*
X13149785Y27445000D01*
X13168602Y27241918D01*
X13168603Y27241915D01*
X13218859Y27065284D01*
X13218272Y26995417D01*
X13187274Y26943669D01*
X12249516Y26005909D01*
X12249513Y26005906D01*
X12226949Y25983341D01*
X12226948Y25983340D01*
X12216891Y25963603D01*
X12206731Y25947023D01*
X12193706Y25929095D01*
X12193703Y25929090D01*
X12186854Y25908012D01*
X12179413Y25890048D01*
X12169354Y25870305D01*
X12165887Y25848418D01*
X12161347Y25829509D01*
X12154500Y25808433D01*
X12154500Y13644464D01*
X5400000Y13644464D01*
X5400000Y18453444D01*
X8412305Y18453444D01*
X8418969Y18402832D01*
X8419500Y18394731D01*
X8419500Y18338605D01*
X8421249Y18330943D01*
X8419794Y18307218D01*
X8431090Y18279948D01*
X8437420Y18260090D01*
X8444596Y18228650D01*
X8455015Y18207015D01*
X8459280Y18181108D01*
X8473537Y18162528D01*
X8486880Y18140846D01*
X8493531Y18127036D01*
X8493533Y18127032D01*
X8516965Y18097650D01*
X8527803Y18071101D01*
X8542420Y18059885D01*
X8558880Y18043729D01*
X8558930Y18043778D01*
X8568778Y18033930D01*
X8568728Y18033881D01*
X8584882Y18017422D01*
X8591528Y18008761D01*
X8596167Y18008122D01*
X8622649Y17991966D01*
X8652031Y17968534D01*
X8665844Y17961882D01*
X8687531Y17948536D01*
X8698509Y17940112D01*
X8700333Y17940306D01*
X8732015Y17930015D01*
X8752016Y17920384D01*
X8753649Y17919597D01*
X8785095Y17912420D01*
X8804952Y17906091D01*
X8822149Y17898968D01*
X8855942Y17896249D01*
X8863601Y17894501D01*
X8863604Y17894501D01*
X8863607Y17894500D01*
X8863609Y17894500D01*
X8919738Y17894500D01*
X8927839Y17893969D01*
X8966549Y17888873D01*
X9002940Y17894500D01*
X10037062Y17894500D01*
X10061558Y17887307D01*
X10112162Y17893969D01*
X10120263Y17894500D01*
X10176391Y17894500D01*
X10176393Y17894500D01*
X10184060Y17896250D01*
X10207782Y17894798D01*
X10235048Y17906091D01*
X10254904Y17912420D01*
X10286351Y17919597D01*
X10307986Y17930017D01*
X10333890Y17934283D01*
X10352465Y17948535D01*
X10374152Y17961880D01*
X10387967Y17968533D01*
X10387968Y17968534D01*
X10417348Y17991965D01*
X10443902Y18002806D01*
X10455116Y18017420D01*
X10471271Y18033881D01*
X10471222Y18033930D01*
X10481070Y18043778D01*
X10481119Y18043729D01*
X10497580Y18059884D01*
X10506242Y18066531D01*
X10506882Y18071177D01*
X10523036Y18097652D01*
X10546465Y18127031D01*
X10546467Y18127033D01*
X10553120Y18140848D01*
X10566465Y18162535D01*
X10574885Y18173510D01*
X10574692Y18175328D01*
X10584984Y18207014D01*
X10595403Y18228649D01*
X10602580Y18260096D01*
X10608909Y18279952D01*
X10616028Y18297140D01*
X10618750Y18330941D01*
X10620500Y18338607D01*
X10620500Y18394739D01*
X10621031Y18402840D01*
X10626126Y18441545D01*
X10620500Y18477939D01*
X10620500Y19712063D01*
X10627693Y19736560D01*
X10621031Y19787163D01*
X10620500Y19795264D01*
X10620500Y19851392D01*
X10620499Y19851400D01*
X10618749Y19859067D01*
X10620202Y19882787D01*
X10608908Y19910054D01*
X10602578Y19929915D01*
X10595403Y19961351D01*
X10584982Y19982989D01*
X10580716Y20008896D01*
X10566463Y20027471D01*
X10553119Y20049155D01*
X10546467Y20062967D01*
X10546466Y20062969D01*
X10523033Y20092352D01*
X10512192Y20118906D01*
X10497577Y20130120D01*
X10481119Y20146272D01*
X10481070Y20146222D01*
X10471222Y20156070D01*
X10471271Y20156120D01*
X10455117Y20172579D01*
X10448468Y20181244D01*
X10443819Y20181884D01*
X10417350Y20198035D01*
X10387969Y20221467D01*
X10387966Y20221468D01*
X10374155Y20228119D01*
X10352470Y20241463D01*
X10341489Y20249889D01*
X10339665Y20249694D01*
X10307989Y20259984D01*
X10286352Y20270404D01*
X10286353Y20270404D01*
X10254913Y20277579D01*
X10235053Y20283909D01*
X10217864Y20291029D01*
X10184069Y20293749D01*
X10176400Y20295499D01*
X10176394Y20295500D01*
X10176393Y20295500D01*
X10120271Y20295500D01*
X10112169Y20296031D01*
X10073453Y20301129D01*
X10037063Y20295500D01*
X9002939Y20295500D01*
X8978439Y20302694D01*
X8927830Y20296031D01*
X8919729Y20295500D01*
X8863607Y20295500D01*
X8863605Y20295500D01*
X8863598Y20295499D01*
X8855934Y20293750D01*
X8832216Y20295205D01*
X8804943Y20283908D01*
X8785085Y20277579D01*
X8753645Y20270403D01*
X8732009Y20259984D01*
X8706105Y20255720D01*
X8687523Y20241461D01*
X8665846Y20228121D01*
X8652037Y20221471D01*
X8652026Y20221464D01*
X8622647Y20198034D01*
X8596096Y20187195D01*
X8584880Y20172577D01*
X8568728Y20156120D01*
X8568778Y20156070D01*
X8558930Y20146222D01*
X8558880Y20146272D01*
X8542423Y20130120D01*
X8533756Y20123470D01*
X8533117Y20118825D01*
X8516966Y20092353D01*
X8493536Y20062974D01*
X8493529Y20062963D01*
X8486879Y20049154D01*
X8473539Y20027477D01*
X8465110Y20016493D01*
X8465305Y20014668D01*
X8455016Y19982991D01*
X8444597Y19961355D01*
X8437421Y19929915D01*
X8431092Y19910057D01*
X8423968Y19892860D01*
X8421250Y19859066D01*
X8419501Y19851402D01*
X8419500Y19851392D01*
X8419500Y19795271D01*
X8418969Y19787170D01*
X8413871Y19748453D01*
X8419500Y19712061D01*
X8419499Y18477941D01*
X8412305Y18453444D01*
X5400000Y18453444D01*
X5400000Y21483442D01*
X8427306Y21483442D01*
X8433969Y21432832D01*
X8434500Y21424731D01*
X8434500Y21368605D01*
X8436249Y21360943D01*
X8434794Y21337218D01*
X8446090Y21309948D01*
X8452420Y21290090D01*
X8459596Y21258650D01*
X8470015Y21237015D01*
X8474280Y21211108D01*
X8488537Y21192528D01*
X8501880Y21170846D01*
X8508531Y21157036D01*
X8508533Y21157032D01*
X8531965Y21127650D01*
X8542803Y21101101D01*
X8557420Y21089885D01*
X8573880Y21073729D01*
X8573930Y21073778D01*
X8583778Y21063930D01*
X8583728Y21063881D01*
X8599882Y21047422D01*
X8606528Y21038761D01*
X8611167Y21038122D01*
X8637649Y21021966D01*
X8667031Y20998534D01*
X8680844Y20991882D01*
X8702531Y20978536D01*
X8713509Y20970112D01*
X8715333Y20970306D01*
X8747015Y20960015D01*
X8767016Y20950384D01*
X8768649Y20949597D01*
X8800095Y20942420D01*
X8819952Y20936091D01*
X8837149Y20928968D01*
X8870942Y20926249D01*
X8878601Y20924501D01*
X8878604Y20924501D01*
X8878607Y20924500D01*
X8878609Y20924500D01*
X8934738Y20924500D01*
X8942839Y20923969D01*
X8981549Y20918873D01*
X9017940Y20924500D01*
X10052062Y20924500D01*
X10076558Y20917307D01*
X10127162Y20923969D01*
X10135263Y20924500D01*
X10191391Y20924500D01*
X10191393Y20924500D01*
X10199060Y20926250D01*
X10222782Y20924798D01*
X10250048Y20936091D01*
X10269904Y20942420D01*
X10301351Y20949597D01*
X10322986Y20960017D01*
X10348890Y20964283D01*
X10367465Y20978535D01*
X10389152Y20991880D01*
X10402967Y20998533D01*
X10402968Y20998534D01*
X10432348Y21021965D01*
X10458902Y21032806D01*
X10470116Y21047420D01*
X10486271Y21063881D01*
X10486222Y21063930D01*
X10496070Y21073778D01*
X10496119Y21073729D01*
X10512580Y21089884D01*
X10521242Y21096531D01*
X10521882Y21101177D01*
X10538036Y21127652D01*
X10561465Y21157031D01*
X10561467Y21157033D01*
X10568120Y21170848D01*
X10581465Y21192535D01*
X10589885Y21203510D01*
X10589692Y21205328D01*
X10599984Y21237014D01*
X10610403Y21258649D01*
X10617580Y21290096D01*
X10623909Y21309952D01*
X10631028Y21327140D01*
X10633750Y21360941D01*
X10635500Y21368607D01*
X10635500Y21424739D01*
X10636031Y21432840D01*
X10641126Y21471545D01*
X10635500Y21507939D01*
X10635500Y22742063D01*
X10642693Y22766560D01*
X10636031Y22817163D01*
X10635500Y22825264D01*
X10635500Y22881392D01*
X10635499Y22881400D01*
X10633749Y22889067D01*
X10635202Y22912787D01*
X10623908Y22940054D01*
X10617578Y22959915D01*
X10610403Y22991351D01*
X10599982Y23012989D01*
X10595716Y23038896D01*
X10581463Y23057471D01*
X10568119Y23079155D01*
X10561467Y23092967D01*
X10561466Y23092969D01*
X10538033Y23122352D01*
X10527192Y23148906D01*
X10512577Y23160120D01*
X10496119Y23176272D01*
X10496070Y23176222D01*
X10486222Y23186070D01*
X10486271Y23186120D01*
X10470117Y23202579D01*
X10463468Y23211244D01*
X10458819Y23211884D01*
X10432350Y23228035D01*
X10402969Y23251467D01*
X10402966Y23251468D01*
X10389155Y23258119D01*
X10367470Y23271463D01*
X10356489Y23279889D01*
X10354665Y23279694D01*
X10322989Y23289984D01*
X10301352Y23300404D01*
X10301353Y23300404D01*
X10269913Y23307579D01*
X10250053Y23313909D01*
X10232864Y23321029D01*
X10199069Y23323749D01*
X10191400Y23325499D01*
X10191394Y23325500D01*
X10191393Y23325500D01*
X10135271Y23325500D01*
X10127169Y23326031D01*
X10088453Y23331129D01*
X10052063Y23325500D01*
X9017939Y23325500D01*
X8993439Y23332694D01*
X8942830Y23326031D01*
X8934729Y23325500D01*
X8878607Y23325500D01*
X8878605Y23325500D01*
X8878598Y23325499D01*
X8870934Y23323750D01*
X8847216Y23325205D01*
X8819943Y23313908D01*
X8800085Y23307579D01*
X8768645Y23300403D01*
X8747009Y23289984D01*
X8721105Y23285720D01*
X8702523Y23271461D01*
X8680846Y23258121D01*
X8667037Y23251471D01*
X8667026Y23251464D01*
X8637647Y23228034D01*
X8611096Y23217195D01*
X8599880Y23202577D01*
X8583728Y23186120D01*
X8583778Y23186070D01*
X8573930Y23176222D01*
X8573880Y23176272D01*
X8557423Y23160120D01*
X8548756Y23153470D01*
X8548117Y23148825D01*
X8531966Y23122353D01*
X8508536Y23092974D01*
X8508529Y23092963D01*
X8501879Y23079154D01*
X8488539Y23057477D01*
X8480110Y23046493D01*
X8480305Y23044668D01*
X8470016Y23012991D01*
X8459597Y22991355D01*
X8452421Y22959915D01*
X8446092Y22940057D01*
X8438968Y22922860D01*
X8436250Y22889066D01*
X8434501Y22881402D01*
X8434500Y22881392D01*
X8434500Y22825274D01*
X8433969Y22817173D01*
X8428871Y22778453D01*
X8434500Y22742058D01*
X8434500Y21507941D01*
X8427306Y21483442D01*
X5400000Y21483442D01*
X5400000Y24513442D01*
X8437306Y24513442D01*
X8443969Y24462832D01*
X8444500Y24454731D01*
X8444500Y24398605D01*
X8446249Y24390943D01*
X8444794Y24367218D01*
X8456090Y24339948D01*
X8462420Y24320090D01*
X8469596Y24288650D01*
X8480015Y24267015D01*
X8484280Y24241108D01*
X8498537Y24222528D01*
X8511880Y24200846D01*
X8518531Y24187036D01*
X8518533Y24187032D01*
X8541965Y24157650D01*
X8552803Y24131101D01*
X8567420Y24119885D01*
X8583880Y24103729D01*
X8583930Y24103778D01*
X8593778Y24093930D01*
X8593728Y24093881D01*
X8609882Y24077422D01*
X8616528Y24068761D01*
X8621167Y24068122D01*
X8647649Y24051966D01*
X8677031Y24028534D01*
X8690844Y24021882D01*
X8712531Y24008536D01*
X8723509Y24000112D01*
X8725333Y24000306D01*
X8757015Y23990015D01*
X8777016Y23980384D01*
X8778649Y23979597D01*
X8810095Y23972420D01*
X8829952Y23966091D01*
X8847149Y23958968D01*
X8880942Y23956249D01*
X8888601Y23954501D01*
X8888604Y23954501D01*
X8888607Y23954500D01*
X8888609Y23954500D01*
X8944738Y23954500D01*
X8952839Y23953969D01*
X8991549Y23948873D01*
X9027940Y23954500D01*
X10062062Y23954500D01*
X10086558Y23947307D01*
X10137162Y23953969D01*
X10145263Y23954500D01*
X10201391Y23954500D01*
X10201393Y23954500D01*
X10209060Y23956250D01*
X10232782Y23954798D01*
X10260048Y23966091D01*
X10279904Y23972420D01*
X10311351Y23979597D01*
X10332986Y23990017D01*
X10358890Y23994283D01*
X10377465Y24008535D01*
X10399152Y24021880D01*
X10412967Y24028533D01*
X10412968Y24028534D01*
X10442348Y24051965D01*
X10468902Y24062806D01*
X10480116Y24077420D01*
X10496271Y24093881D01*
X10496222Y24093930D01*
X10506070Y24103778D01*
X10506119Y24103729D01*
X10522580Y24119884D01*
X10531242Y24126531D01*
X10531882Y24131177D01*
X10548036Y24157652D01*
X10571465Y24187031D01*
X10571467Y24187033D01*
X10578120Y24200848D01*
X10591465Y24222535D01*
X10599885Y24233510D01*
X10599692Y24235328D01*
X10609984Y24267014D01*
X10620403Y24288649D01*
X10627580Y24320096D01*
X10633909Y24339952D01*
X10641028Y24357140D01*
X10643750Y24390941D01*
X10645500Y24398607D01*
X10645500Y24454739D01*
X10646031Y24462840D01*
X10651126Y24501545D01*
X10645500Y24537939D01*
X10645500Y25772063D01*
X10652693Y25796560D01*
X10646031Y25847163D01*
X10645500Y25855264D01*
X10645500Y25911392D01*
X10645499Y25911400D01*
X10643749Y25919067D01*
X10645202Y25942787D01*
X10633908Y25970054D01*
X10627578Y25989915D01*
X10620403Y26021351D01*
X10609982Y26042989D01*
X10605716Y26068896D01*
X10591463Y26087471D01*
X10578119Y26109155D01*
X10571467Y26122967D01*
X10571466Y26122969D01*
X10548033Y26152352D01*
X10537192Y26178906D01*
X10522577Y26190120D01*
X10506119Y26206272D01*
X10506070Y26206222D01*
X10496222Y26216070D01*
X10496271Y26216120D01*
X10480117Y26232579D01*
X10473468Y26241244D01*
X10468819Y26241884D01*
X10442350Y26258035D01*
X10412969Y26281467D01*
X10412966Y26281468D01*
X10399155Y26288119D01*
X10377470Y26301463D01*
X10366489Y26309889D01*
X10364665Y26309694D01*
X10332989Y26319984D01*
X10311352Y26330404D01*
X10311353Y26330404D01*
X10279913Y26337579D01*
X10260053Y26343909D01*
X10242864Y26351029D01*
X10209069Y26353749D01*
X10201400Y26355499D01*
X10201394Y26355500D01*
X10201393Y26355500D01*
X10145271Y26355500D01*
X10137169Y26356031D01*
X10098453Y26361129D01*
X10062063Y26355500D01*
X9027939Y26355500D01*
X9003439Y26362694D01*
X8952830Y26356031D01*
X8944729Y26355500D01*
X8888607Y26355500D01*
X8888605Y26355500D01*
X8888598Y26355499D01*
X8880934Y26353750D01*
X8857216Y26355205D01*
X8829943Y26343908D01*
X8810085Y26337579D01*
X8778645Y26330403D01*
X8757009Y26319984D01*
X8731105Y26315720D01*
X8712523Y26301461D01*
X8690846Y26288121D01*
X8677037Y26281471D01*
X8677026Y26281464D01*
X8647647Y26258034D01*
X8621096Y26247195D01*
X8609880Y26232577D01*
X8593728Y26216120D01*
X8593778Y26216070D01*
X8583930Y26206222D01*
X8583880Y26206272D01*
X8567423Y26190120D01*
X8558756Y26183470D01*
X8558117Y26178825D01*
X8541966Y26152353D01*
X8518536Y26122974D01*
X8518529Y26122963D01*
X8511879Y26109154D01*
X8498539Y26087477D01*
X8490110Y26076493D01*
X8490305Y26074668D01*
X8480016Y26042991D01*
X8469597Y26021355D01*
X8462421Y25989915D01*
X8456092Y25970057D01*
X8448968Y25952860D01*
X8446250Y25919066D01*
X8444501Y25911402D01*
X8444500Y25911392D01*
X8444500Y25855273D01*
X8443969Y25847172D01*
X8438868Y25808427D01*
X8444500Y25772018D01*
X8444500Y24537941D01*
X8437306Y24513442D01*
X5400000Y24513442D01*
X5400000Y27543442D01*
X8437306Y27543442D01*
X8443969Y27492832D01*
X8444500Y27484731D01*
X8444500Y27428605D01*
X8446249Y27420943D01*
X8444794Y27397218D01*
X8456090Y27369948D01*
X8462420Y27350090D01*
X8469596Y27318650D01*
X8480015Y27297015D01*
X8484280Y27271108D01*
X8498537Y27252528D01*
X8511880Y27230846D01*
X8518531Y27217036D01*
X8518533Y27217032D01*
X8541965Y27187650D01*
X8552803Y27161101D01*
X8567420Y27149885D01*
X8583880Y27133729D01*
X8583930Y27133778D01*
X8593778Y27123930D01*
X8593728Y27123881D01*
X8609882Y27107422D01*
X8616528Y27098761D01*
X8621167Y27098122D01*
X8647649Y27081966D01*
X8677031Y27058534D01*
X8690844Y27051882D01*
X8712531Y27038536D01*
X8723509Y27030112D01*
X8725333Y27030306D01*
X8757015Y27020015D01*
X8777016Y27010384D01*
X8778649Y27009597D01*
X8810095Y27002420D01*
X8829952Y26996091D01*
X8847149Y26988968D01*
X8880942Y26986249D01*
X8888601Y26984501D01*
X8888604Y26984501D01*
X8888607Y26984500D01*
X8888609Y26984500D01*
X8944738Y26984500D01*
X8952839Y26983969D01*
X8991549Y26978873D01*
X9027940Y26984500D01*
X10062062Y26984500D01*
X10086558Y26977307D01*
X10137162Y26983969D01*
X10145263Y26984500D01*
X10201391Y26984500D01*
X10201393Y26984500D01*
X10209060Y26986250D01*
X10232782Y26984798D01*
X10260048Y26996091D01*
X10279904Y27002420D01*
X10311351Y27009597D01*
X10332986Y27020017D01*
X10358890Y27024283D01*
X10377465Y27038535D01*
X10399152Y27051880D01*
X10412967Y27058533D01*
X10412968Y27058534D01*
X10442348Y27081965D01*
X10468902Y27092806D01*
X10480116Y27107420D01*
X10496271Y27123881D01*
X10496222Y27123930D01*
X10506070Y27133778D01*
X10506119Y27133729D01*
X10522580Y27149884D01*
X10531242Y27156531D01*
X10531882Y27161177D01*
X10548036Y27187652D01*
X10571465Y27217031D01*
X10571467Y27217033D01*
X10578120Y27230848D01*
X10591465Y27252535D01*
X10599885Y27263510D01*
X10599692Y27265328D01*
X10609984Y27297014D01*
X10620403Y27318649D01*
X10627580Y27350096D01*
X10633909Y27369952D01*
X10641028Y27387140D01*
X10643750Y27420941D01*
X10645500Y27428607D01*
X10645500Y27484739D01*
X10646031Y27492840D01*
X10651126Y27531545D01*
X10645500Y27567939D01*
X10645500Y28802063D01*
X10652693Y28826560D01*
X10646031Y28877163D01*
X10645500Y28885264D01*
X10645500Y28941392D01*
X10645499Y28941400D01*
X10643749Y28949067D01*
X10645202Y28972787D01*
X10633908Y29000054D01*
X10627578Y29019915D01*
X10620403Y29051351D01*
X10609982Y29072989D01*
X10605716Y29098896D01*
X10591463Y29117471D01*
X10578119Y29139155D01*
X10571467Y29152967D01*
X10571466Y29152969D01*
X10548033Y29182352D01*
X10537192Y29208906D01*
X10522577Y29220120D01*
X10506119Y29236272D01*
X10506070Y29236222D01*
X10496222Y29246070D01*
X10496271Y29246120D01*
X10480117Y29262579D01*
X10473468Y29271244D01*
X10468819Y29271884D01*
X10442350Y29288035D01*
X10412969Y29311467D01*
X10412966Y29311468D01*
X10399155Y29318119D01*
X10377470Y29331463D01*
X10366489Y29339889D01*
X10364665Y29339694D01*
X10332989Y29349984D01*
X10311352Y29360404D01*
X10311353Y29360404D01*
X10279913Y29367579D01*
X10260053Y29373909D01*
X10242864Y29381029D01*
X10209069Y29383749D01*
X10201400Y29385499D01*
X10201394Y29385500D01*
X10201393Y29385500D01*
X10145271Y29385500D01*
X10137169Y29386031D01*
X10098453Y29391129D01*
X10062063Y29385500D01*
X9027939Y29385500D01*
X9003439Y29392694D01*
X8952830Y29386031D01*
X8944729Y29385500D01*
X8888607Y29385500D01*
X8888605Y29385500D01*
X8888598Y29385499D01*
X8880934Y29383750D01*
X8857216Y29385205D01*
X8829943Y29373908D01*
X8810085Y29367579D01*
X8778645Y29360403D01*
X8757009Y29349984D01*
X8731105Y29345720D01*
X8712523Y29331461D01*
X8690846Y29318121D01*
X8677037Y29311471D01*
X8677026Y29311464D01*
X8647647Y29288034D01*
X8621096Y29277195D01*
X8609880Y29262577D01*
X8593728Y29246120D01*
X8593778Y29246070D01*
X8583930Y29236222D01*
X8583880Y29236272D01*
X8567423Y29220120D01*
X8558756Y29213470D01*
X8558117Y29208825D01*
X8541966Y29182353D01*
X8518536Y29152974D01*
X8518529Y29152963D01*
X8511879Y29139154D01*
X8498539Y29117477D01*
X8490110Y29106493D01*
X8490305Y29104668D01*
X8480016Y29072991D01*
X8469597Y29051355D01*
X8462421Y29019915D01*
X8456092Y29000057D01*
X8448968Y28982860D01*
X8446250Y28949066D01*
X8444501Y28941402D01*
X8444500Y28941392D01*
X8444500Y28885276D01*
X8443969Y28877174D01*
X8438868Y28838436D01*
X8444500Y28802022D01*
X8444500Y27567941D01*
X8437306Y27543442D01*
X5400000Y27543442D01*
X5400000Y33982500D01*
X5814353Y33982500D01*
X5834834Y33840044D01*
X5851416Y33803736D01*
X5894623Y33709127D01*
X5894627Y33709122D01*
X5899418Y33701667D01*
X5896364Y33699705D01*
X5918235Y33651837D01*
X5919500Y33634168D01*
X5919500Y30439071D01*
X5919501Y30439061D01*
X5926346Y30417993D01*
X5930887Y30399082D01*
X5934354Y30377196D01*
X5934355Y30377193D01*
X5944412Y30357455D01*
X5951857Y30339482D01*
X5958704Y30318410D01*
X5971726Y30300486D01*
X5981890Y30283900D01*
X5991570Y30264903D01*
X5991950Y30264158D01*
X6012864Y30243244D01*
X6012893Y30243213D01*
X6985369Y29270739D01*
X7018854Y29209416D01*
X7020426Y29200706D01*
X7024834Y29170048D01*
X7024835Y29170042D01*
X7079040Y29051351D01*
X7084623Y29039127D01*
X7178872Y28930357D01*
X7299947Y28852547D01*
X7299950Y28852546D01*
X7299949Y28852546D01*
X7438036Y28812001D01*
X7438038Y28812000D01*
X7438039Y28812000D01*
X7581962Y28812000D01*
X7581962Y28812001D01*
X7720053Y28852547D01*
X7841128Y28930357D01*
X7935377Y29039127D01*
X7995165Y29170043D01*
X8015647Y29312500D01*
X7995165Y29454957D01*
X7935377Y29585873D01*
X7841128Y29694643D01*
X7720053Y29772453D01*
X7720051Y29772454D01*
X7720049Y29772455D01*
X7720050Y29772455D01*
X7603736Y29806607D01*
X7550989Y29837903D01*
X7156431Y30232461D01*
X6756816Y30632077D01*
X6723333Y30693397D01*
X6720500Y30719746D01*
X6720500Y31332500D01*
X7064353Y31332500D01*
X7084834Y31190044D01*
X7132579Y31085500D01*
X7144623Y31059127D01*
X7238872Y30950357D01*
X7359947Y30872547D01*
X7359950Y30872546D01*
X7359949Y30872546D01*
X7498037Y30832000D01*
X7499310Y30831817D01*
X7500480Y30831283D01*
X7506548Y30829501D01*
X7506291Y30828629D01*
X7562866Y30802794D01*
X7569335Y30796772D01*
X7721950Y30644158D01*
X7811658Y30554450D01*
X7831395Y30544394D01*
X7847981Y30534231D01*
X7865910Y30521204D01*
X7886981Y30514358D01*
X7904958Y30506912D01*
X7924696Y30496854D01*
X7946578Y30493389D01*
X7965491Y30488848D01*
X7986567Y30482000D01*
X7986568Y30482000D01*
X10353431Y30482000D01*
X10353433Y30482000D01*
X10374501Y30488846D01*
X10393417Y30493388D01*
X10415304Y30496854D01*
X10435044Y30506914D01*
X10453011Y30514356D01*
X10474090Y30521204D01*
X10492026Y30534237D01*
X10508588Y30544386D01*
X10528342Y30554450D01*
X10543834Y30569943D01*
X10543841Y30569948D01*
X10599963Y30626070D01*
X12165641Y30626070D01*
X12169342Y30574331D01*
X12169500Y30569906D01*
X12169500Y30554201D01*
X12171734Y30538657D01*
X12172207Y30534260D01*
X12175909Y30482515D01*
X12177593Y30478000D01*
X12184148Y30452318D01*
X12184834Y30447545D01*
X12184835Y30447543D01*
X12206383Y30400358D01*
X12208071Y30396284D01*
X12226203Y30347671D01*
X12229096Y30343806D01*
X12242617Y30321017D01*
X12244619Y30316633D01*
X12244622Y30316629D01*
X12244623Y30316627D01*
X12278598Y30277417D01*
X12281362Y30273987D01*
X12290775Y30261412D01*
X12290782Y30261404D01*
X12301886Y30250300D01*
X12304896Y30247068D01*
X12309642Y30241591D01*
X12338871Y30207858D01*
X12338874Y30207855D01*
X12342928Y30205250D01*
X12363571Y30188615D01*
X12873614Y29678572D01*
X12890246Y29657934D01*
X12892854Y29653875D01*
X12892857Y29653872D01*
X12932067Y29619897D01*
X12935283Y29616903D01*
X12946407Y29605779D01*
X12946412Y29605776D01*
X12946417Y29605771D01*
X12958979Y29596367D01*
X12962427Y29593589D01*
X12971486Y29585740D01*
X13001627Y29559623D01*
X13006010Y29557621D01*
X13028807Y29544095D01*
X13032669Y29541204D01*
X13081295Y29523068D01*
X13085351Y29521388D01*
X13107457Y29511292D01*
X13132540Y29499836D01*
X13132541Y29499836D01*
X13132543Y29499835D01*
X13137312Y29499150D01*
X13163002Y29492593D01*
X13167517Y29490909D01*
X13204884Y29488237D01*
X13270348Y29463820D01*
X13307038Y29419826D01*
X13315328Y29403177D01*
X13438237Y29240419D01*
X13588958Y29103020D01*
X13588960Y29103018D01*
X13665836Y29055419D01*
X13762363Y28995652D01*
X13952544Y28921976D01*
X14153024Y28884500D01*
X14153026Y28884500D01*
X14356974Y28884500D01*
X14356976Y28884500D01*
X14557456Y28921976D01*
X14747637Y28995652D01*
X14921041Y29103019D01*
X15071764Y29240421D01*
X15194673Y29403179D01*
X15285582Y29585750D01*
X15341397Y29781917D01*
X15360215Y29985000D01*
X15689785Y29985000D01*
X15708602Y29781918D01*
X15764417Y29585753D01*
X15764422Y29585740D01*
X15855327Y29403179D01*
X15978237Y29240419D01*
X16128958Y29103020D01*
X16128960Y29103018D01*
X16205836Y29055419D01*
X16302363Y28995652D01*
X16492544Y28921976D01*
X16693024Y28884500D01*
X16693026Y28884500D01*
X16896974Y28884500D01*
X16896976Y28884500D01*
X17097456Y28921976D01*
X17287637Y28995652D01*
X17461041Y29103019D01*
X17611764Y29240421D01*
X17734673Y29403179D01*
X17825582Y29585750D01*
X17881397Y29781917D01*
X17900215Y29985000D01*
X17899214Y29995798D01*
X17881397Y30188083D01*
X17878217Y30199261D01*
X17825582Y30384250D01*
X17817553Y30400374D01*
X17771998Y30491862D01*
X17734673Y30566821D01*
X17666466Y30657142D01*
X17611762Y30729582D01*
X17461041Y30866981D01*
X17461039Y30866983D01*
X17287642Y30974345D01*
X17287635Y30974349D01*
X17191529Y31011580D01*
X17097456Y31048024D01*
X16896976Y31085500D01*
X16693024Y31085500D01*
X16492544Y31048024D01*
X16492541Y31048024D01*
X16492541Y31048023D01*
X16302364Y30974349D01*
X16302357Y30974345D01*
X16128960Y30866983D01*
X16128958Y30866981D01*
X15978237Y30729582D01*
X15855327Y30566822D01*
X15764422Y30384261D01*
X15764417Y30384248D01*
X15708602Y30188083D01*
X15689785Y29985001D01*
X15689785Y29985000D01*
X15360215Y29985000D01*
X15359214Y29995798D01*
X15341397Y30188083D01*
X15338217Y30199261D01*
X15285582Y30384250D01*
X15277553Y30400374D01*
X15231998Y30491862D01*
X15194673Y30566821D01*
X15126466Y30657142D01*
X15071762Y30729582D01*
X14921041Y30866981D01*
X14921039Y30866983D01*
X14747642Y30974345D01*
X14747635Y30974349D01*
X14651529Y31011580D01*
X14557456Y31048024D01*
X14356976Y31085500D01*
X14153024Y31085500D01*
X13952544Y31048024D01*
X13952541Y31048024D01*
X13952541Y31048023D01*
X13762364Y30974349D01*
X13762357Y30974345D01*
X13588960Y30866983D01*
X13588958Y30866981D01*
X13438236Y30729581D01*
X13438228Y30729571D01*
X13438044Y30729327D01*
X13437926Y30729240D01*
X13434375Y30725344D01*
X13433612Y30726040D01*
X13381927Y30687701D01*
X13312215Y30683023D01*
X13251423Y30716391D01*
X13206819Y30760995D01*
X13173334Y30822318D01*
X13170500Y30848676D01*
X13170500Y31315143D01*
X13190185Y31382182D01*
X13242989Y31427937D01*
X13312147Y31437881D01*
X13318692Y31436760D01*
X13380324Y31424500D01*
X13380326Y31424500D01*
X15129676Y31424500D01*
X15129677Y31424501D01*
X15202740Y31439034D01*
X15285601Y31494399D01*
X15340966Y31577260D01*
X15355500Y31650326D01*
X15355500Y33399674D01*
X15348176Y33436493D01*
X15340967Y33472736D01*
X15340966Y33472738D01*
X15340966Y33472740D01*
X15301630Y33531611D01*
X15280753Y33598287D01*
X15299238Y33665667D01*
X15351217Y33712357D01*
X15404733Y33724500D01*
X16205955Y33724500D01*
X16272994Y33704815D01*
X16318749Y33652011D01*
X16328693Y33582853D01*
X16299668Y33519297D01*
X16271232Y33495073D01*
X16128960Y33406983D01*
X16128958Y33406981D01*
X15978237Y33269582D01*
X15855327Y33106822D01*
X15764422Y32924261D01*
X15764417Y32924248D01*
X15708602Y32728083D01*
X15689785Y32525001D01*
X15689785Y32525000D01*
X15708602Y32321918D01*
X15764417Y32125753D01*
X15764422Y32125740D01*
X15855327Y31943179D01*
X15978237Y31780419D01*
X16128958Y31643020D01*
X16128960Y31643018D01*
X16201223Y31598275D01*
X16302363Y31535652D01*
X16492544Y31461976D01*
X16693024Y31424500D01*
X16693026Y31424500D01*
X16896974Y31424500D01*
X16896976Y31424500D01*
X17097456Y31461976D01*
X17287637Y31535652D01*
X17461041Y31643019D01*
X17592078Y31762475D01*
X17611762Y31780419D01*
X17620850Y31792453D01*
X17734673Y31943179D01*
X17825582Y32125750D01*
X17881397Y32321917D01*
X17900215Y32525000D01*
X17881397Y32728083D01*
X17825582Y32924250D01*
X17825581Y32924252D01*
X17824013Y32929763D01*
X17825994Y32930327D01*
X17820902Y32990826D01*
X17853614Y33052565D01*
X17854546Y33053511D01*
X18039219Y33238184D01*
X18100542Y33271666D01*
X18126899Y33274500D01*
X24137340Y33274500D01*
X24481510Y33274500D01*
X24507702Y33274500D01*
X24574741Y33254815D01*
X24620496Y33202011D01*
X24630440Y33132853D01*
X24601415Y33069297D01*
X24595383Y33062819D01*
X22530772Y30998209D01*
X22469449Y30964724D01*
X22399757Y30969708D01*
X22343824Y31011580D01*
X22319407Y31077044D01*
X22330296Y31137399D01*
X22385165Y31257543D01*
X22405647Y31400000D01*
X22385165Y31542457D01*
X22325377Y31673373D01*
X22231128Y31782143D01*
X22110053Y31859953D01*
X22110051Y31859954D01*
X22110049Y31859955D01*
X22110050Y31859955D01*
X21971963Y31900500D01*
X21971961Y31900500D01*
X21828039Y31900500D01*
X21828036Y31900500D01*
X21689949Y31859955D01*
X21689948Y31859954D01*
X21589166Y31795185D01*
X21522126Y31775500D01*
X20801803Y31775500D01*
X20776358Y31778139D01*
X20765732Y31780367D01*
X20765729Y31780367D01*
X20730507Y31775977D01*
X20722831Y31775500D01*
X20718886Y31775500D01*
X20707371Y31773579D01*
X20695856Y31771658D01*
X20677696Y31769394D01*
X20641375Y31764866D01*
X20641371Y31764865D01*
X20633842Y31762623D01*
X20626383Y31760063D01*
X20578118Y31733942D01*
X20528791Y31709828D01*
X20522381Y31705252D01*
X20516175Y31700421D01*
X20478991Y31660029D01*
X17320028Y28501067D01*
X17258705Y28467582D01*
X17189013Y28472566D01*
X17187554Y28473121D01*
X17097461Y28508023D01*
X17097456Y28508024D01*
X16896976Y28545500D01*
X16693024Y28545500D01*
X16492544Y28508024D01*
X16492541Y28508024D01*
X16492541Y28508023D01*
X16302364Y28434349D01*
X16302357Y28434345D01*
X16128960Y28326983D01*
X16128958Y28326981D01*
X15978237Y28189582D01*
X15855327Y28026822D01*
X15764422Y27844261D01*
X15764417Y27844248D01*
X15708602Y27648083D01*
X15689785Y27445001D01*
X15689785Y27445000D01*
X15708602Y27241918D01*
X15764417Y27045753D01*
X15764422Y27045740D01*
X15855327Y26863179D01*
X15978237Y26700419D01*
X16128958Y26563020D01*
X16128960Y26563018D01*
X16228141Y26501608D01*
X16302363Y26455652D01*
X16492544Y26381976D01*
X16693024Y26344500D01*
X16693026Y26344500D01*
X16896974Y26344500D01*
X16896976Y26344500D01*
X17097456Y26381976D01*
X17287637Y26455652D01*
X17461041Y26563019D01*
X17611764Y26700421D01*
X17734673Y26863179D01*
X17825582Y27045750D01*
X17881397Y27241917D01*
X17900215Y27445000D01*
X17896533Y27484731D01*
X17881397Y27648083D01*
X17843253Y27782144D01*
X17825582Y27844250D01*
X17825581Y27844252D01*
X17824013Y27849763D01*
X17825994Y27850327D01*
X17820902Y27910826D01*
X17853614Y27972565D01*
X17854629Y27973594D01*
X20869217Y30988181D01*
X20930541Y31021666D01*
X20956899Y31024500D01*
X21522126Y31024500D01*
X21589165Y31004815D01*
X21589166Y31004815D01*
X21689947Y30940047D01*
X21689948Y30940047D01*
X21689949Y30940046D01*
X21772750Y30915734D01*
X21824633Y30900500D01*
X21828036Y30899501D01*
X21828038Y30899500D01*
X21828039Y30899500D01*
X21971962Y30899500D01*
X21971962Y30899501D01*
X22110050Y30940046D01*
X22110051Y30940046D01*
X22126096Y30950357D01*
X22154384Y30968538D01*
X22221423Y30988222D01*
X22288463Y30968538D01*
X22334218Y30915734D01*
X22344162Y30846575D01*
X22315137Y30783020D01*
X22309105Y30776541D01*
X19591789Y28059225D01*
X19530466Y28025740D01*
X19460774Y28030724D01*
X19437075Y28042587D01*
X19410053Y28059953D01*
X19410051Y28059954D01*
X19410049Y28059955D01*
X19271963Y28100500D01*
X19271961Y28100500D01*
X19128039Y28100500D01*
X19128036Y28100500D01*
X18989949Y28059955D01*
X18868873Y27982144D01*
X18774623Y27873374D01*
X18774622Y27873372D01*
X18714834Y27742457D01*
X18694353Y27600001D01*
X18714834Y27457544D01*
X18773313Y27329495D01*
X18774623Y27326627D01*
X18868872Y27217857D01*
X18989947Y27140047D01*
X18989950Y27140046D01*
X18989949Y27140046D01*
X19036062Y27126506D01*
X19094840Y27088732D01*
X19123866Y27025177D01*
X19113923Y26956018D01*
X19088809Y26919848D01*
X17801491Y25632531D01*
X17740168Y25599046D01*
X17670476Y25604030D01*
X17614858Y25645482D01*
X17611762Y25649582D01*
X17461041Y25786981D01*
X17461039Y25786983D01*
X17287642Y25894345D01*
X17287635Y25894349D01*
X17192546Y25931187D01*
X17097456Y25968024D01*
X16896976Y26005500D01*
X16693024Y26005500D01*
X16492544Y25968024D01*
X16492541Y25968024D01*
X16492541Y25968023D01*
X16302364Y25894349D01*
X16302357Y25894345D01*
X16128960Y25786983D01*
X16128958Y25786981D01*
X15978237Y25649582D01*
X15855327Y25486822D01*
X15764422Y25304261D01*
X15764417Y25304248D01*
X15708602Y25108083D01*
X15689785Y24905001D01*
X15689785Y24905000D01*
X15708602Y24701918D01*
X15764417Y24505753D01*
X15764422Y24505740D01*
X15855327Y24323179D01*
X15978237Y24160419D01*
X16128958Y24023020D01*
X16128960Y24023018D01*
X16182262Y23990015D01*
X16302363Y23915652D01*
X16492544Y23841976D01*
X16693024Y23804500D01*
X16693026Y23804500D01*
X16896974Y23804500D01*
X16896976Y23804500D01*
X17097456Y23841976D01*
X17287637Y23915652D01*
X17461041Y24023019D01*
X17593276Y24143567D01*
X17611762Y24160419D01*
X17620427Y24171893D01*
X17734673Y24323179D01*
X17825582Y24505750D01*
X17852080Y24598883D01*
X17883665Y24652629D01*
X23119218Y29888181D01*
X23180541Y29921666D01*
X23206899Y29924500D01*
X23501071Y29924500D01*
X23526516Y29921861D01*
X23530315Y29921065D01*
X23537143Y29919633D01*
X23558100Y29922246D01*
X23572367Y29924023D01*
X23580043Y29924500D01*
X23583987Y29924500D01*
X23583989Y29924500D01*
X23583991Y29924501D01*
X23583997Y29924501D01*
X23599362Y29927066D01*
X23607015Y29928343D01*
X23661501Y29935134D01*
X23661502Y29935135D01*
X23661504Y29935135D01*
X23669016Y29937372D01*
X23676481Y29939934D01*
X23676481Y29939935D01*
X23676485Y29939935D01*
X23724752Y29966056D01*
X23774086Y29990174D01*
X23774088Y29990177D01*
X23780469Y29994732D01*
X23786694Y29999578D01*
X23786701Y29999581D01*
X23823882Y30039971D01*
X25926433Y32142522D01*
X25987755Y32176005D01*
X26057447Y32171021D01*
X26113380Y32129149D01*
X26137797Y32063685D01*
X26138113Y32054839D01*
X26138113Y31814131D01*
X26135475Y31788693D01*
X26133246Y31778059D01*
X26133246Y31778058D01*
X26133246Y31778056D01*
X26137636Y31742836D01*
X26138113Y31735160D01*
X26138113Y31731211D01*
X26141955Y31708186D01*
X26148747Y31653700D01*
X26150986Y31646180D01*
X26153547Y31638719D01*
X26153548Y31638717D01*
X26179668Y31590450D01*
X26203787Y31541116D01*
X26208355Y31534718D01*
X26213195Y31528500D01*
X26253583Y31491319D01*
X26873790Y30871112D01*
X26889915Y30851256D01*
X26895853Y30842168D01*
X26895856Y30842164D01*
X26912125Y30829501D01*
X26923865Y30820364D01*
X26929627Y30815275D01*
X26932422Y30812480D01*
X26951435Y30798906D01*
X26994751Y30765191D01*
X26994758Y30765189D01*
X27001660Y30761453D01*
X27008736Y30757994D01*
X27008741Y30757990D01*
X27043171Y30747740D01*
X27061343Y30742330D01*
X27113278Y30724500D01*
X27121012Y30723210D01*
X27128850Y30722233D01*
X27128852Y30722232D01*
X27128853Y30722233D01*
X27128854Y30722232D01*
X27183696Y30724500D01*
X27471626Y30724500D01*
X27538665Y30704815D01*
X27538666Y30704815D01*
X27639447Y30640047D01*
X27719705Y30616482D01*
X27778482Y30578709D01*
X27807508Y30515154D01*
X27797565Y30445995D01*
X27772451Y30409824D01*
X23612181Y26249553D01*
X23550858Y26216068D01*
X23481166Y26221052D01*
X23425233Y26262924D01*
X23400816Y26328388D01*
X23400500Y26337234D01*
X23400500Y28351668D01*
X23420185Y28418707D01*
X23420901Y28419664D01*
X23425368Y28426618D01*
X23425377Y28426627D01*
X23485165Y28557543D01*
X23505647Y28700000D01*
X23485165Y28842457D01*
X23425377Y28973373D01*
X23331128Y29082143D01*
X23210053Y29159953D01*
X23210051Y29159954D01*
X23210049Y29159955D01*
X23210050Y29159955D01*
X23071963Y29200500D01*
X23071961Y29200500D01*
X22928039Y29200500D01*
X22928036Y29200500D01*
X22789949Y29159955D01*
X22668873Y29082144D01*
X22574623Y28973374D01*
X22574622Y28973372D01*
X22514834Y28842457D01*
X22494353Y28700000D01*
X22514834Y28557544D01*
X22537450Y28508024D01*
X22574623Y28426627D01*
X22574627Y28426622D01*
X22579418Y28419167D01*
X22576364Y28417205D01*
X22598235Y28369337D01*
X22599500Y28351668D01*
X22599500Y22848333D01*
X22579815Y22781294D01*
X22579094Y22780331D01*
X22574622Y22773372D01*
X22514834Y22642457D01*
X22494353Y22500000D01*
X22514834Y22357544D01*
X22539023Y22304579D01*
X22574623Y22226627D01*
X22668872Y22117857D01*
X22668874Y22117856D01*
X22668873Y22117856D01*
X22711457Y22090489D01*
X22757211Y22037685D01*
X22767155Y21968527D01*
X22738130Y21904971D01*
X22732098Y21898493D01*
X18254516Y17420909D01*
X18254513Y17420906D01*
X18231949Y17398341D01*
X18231948Y17398340D01*
X18221891Y17378603D01*
X18211731Y17362023D01*
X18198706Y17344095D01*
X18198703Y17344090D01*
X18191854Y17323012D01*
X18184413Y17305048D01*
X18174354Y17285305D01*
X18170887Y17263418D01*
X18166347Y17244509D01*
X18159500Y17223433D01*
X18159500Y16278333D01*
X18139815Y16211294D01*
X18139094Y16210331D01*
X18134622Y16203372D01*
X18074833Y16072455D01*
X18073890Y16069241D01*
X18072084Y16066432D01*
X18071151Y16064390D01*
X18070857Y16064524D01*
X18036110Y16010467D01*
X17972552Y15981448D01*
X17919985Y15985209D01*
X17901964Y15990500D01*
X17901961Y15990500D01*
X17758039Y15990500D01*
X17758036Y15990500D01*
X17619949Y15949955D01*
X17498873Y15872144D01*
X17404623Y15763374D01*
X17404622Y15763372D01*
X17344834Y15632457D01*
X17324353Y15490000D01*
X17344834Y15347544D01*
X17391273Y15245859D01*
X17404623Y15216627D01*
X17498872Y15107857D01*
X17619947Y15030047D01*
X17619950Y15030046D01*
X17619949Y15030046D01*
X17758036Y14989501D01*
X17758038Y14989500D01*
X17758039Y14989500D01*
X17901962Y14989500D01*
X17901962Y14989501D01*
X18009121Y15020965D01*
X18040050Y15030046D01*
X18040050Y15030047D01*
X18040053Y15030047D01*
X18161128Y15107857D01*
X18254599Y15215729D01*
X23819633Y15215729D01*
X23824023Y15180509D01*
X23824500Y15172833D01*
X23824500Y15168884D01*
X23828342Y15145859D01*
X23835134Y15091373D01*
X23837373Y15083853D01*
X23839934Y15076392D01*
X23839935Y15076390D01*
X23845464Y15066173D01*
X23866055Y15028123D01*
X23890174Y14978789D01*
X23894742Y14972391D01*
X23899582Y14966173D01*
X23939970Y14928992D01*
X24905257Y13963705D01*
X24930370Y13927536D01*
X24986623Y13804361D01*
X25080872Y13695591D01*
X25201947Y13617781D01*
X25201950Y13617780D01*
X25201949Y13617780D01*
X25309107Y13586317D01*
X25321801Y13582589D01*
X25340036Y13577235D01*
X25340038Y13577234D01*
X25340039Y13577234D01*
X25483962Y13577234D01*
X25483962Y13577235D01*
X25622053Y13617781D01*
X25743128Y13695591D01*
X25837377Y13804361D01*
X25897165Y13935277D01*
X25917647Y14077734D01*
X25897165Y14220191D01*
X25837377Y14351107D01*
X25743128Y14459877D01*
X25622053Y14537687D01*
X25622051Y14537688D01*
X25622049Y14537689D01*
X25622050Y14537689D01*
X25483963Y14578234D01*
X25483961Y14578234D01*
X25404165Y14578234D01*
X25337126Y14597919D01*
X25316484Y14614553D01*
X24611819Y15319219D01*
X24578334Y15380542D01*
X24575500Y15406900D01*
X24575500Y15426949D01*
X24595185Y15493988D01*
X24647989Y15539743D01*
X24717147Y15549687D01*
X24768387Y15530053D01*
X24837260Y15484034D01*
X24837262Y15484034D01*
X24837264Y15484033D01*
X24910321Y15469501D01*
X24910324Y15469500D01*
X26599179Y15469500D01*
X26666218Y15449815D01*
X26711973Y15397011D01*
X26721917Y15327853D01*
X26720539Y15320051D01*
X26719633Y15315732D01*
X26719633Y15315730D01*
X26724023Y15280509D01*
X26724500Y15272833D01*
X26724500Y15268884D01*
X26728342Y15245859D01*
X26735134Y15191373D01*
X26737373Y15183853D01*
X26739934Y15176392D01*
X26739935Y15176390D01*
X26741860Y15172833D01*
X26766055Y15128123D01*
X26790174Y15078789D01*
X26794742Y15072391D01*
X26799582Y15066173D01*
X26839971Y15028991D01*
X27869432Y13999531D01*
X27902917Y13938208D01*
X27904489Y13929498D01*
X27914834Y13857546D01*
X27914835Y13857542D01*
X27954209Y13771326D01*
X27974623Y13726627D01*
X28068872Y13617857D01*
X28189947Y13540047D01*
X28189950Y13540046D01*
X28189949Y13540046D01*
X28328036Y13499501D01*
X28328038Y13499500D01*
X28328039Y13499500D01*
X28471962Y13499500D01*
X28471962Y13499501D01*
X28610053Y13540047D01*
X28731128Y13617857D01*
X28825377Y13726627D01*
X28885165Y13857543D01*
X28905647Y14000000D01*
X28885165Y14142457D01*
X28825377Y14273373D01*
X28731128Y14382143D01*
X28610053Y14459953D01*
X28610051Y14459954D01*
X28610049Y14459955D01*
X28610050Y14459955D01*
X28471965Y14500500D01*
X28464429Y14501583D01*
X28400874Y14530609D01*
X28394397Y14536640D01*
X27511819Y15419219D01*
X27478334Y15480542D01*
X27475500Y15506900D01*
X27475500Y15578990D01*
X27495185Y15646029D01*
X27547989Y15691784D01*
X27617147Y15701728D01*
X27664774Y15684419D01*
X27832363Y15580652D01*
X28022544Y15506976D01*
X28223024Y15469500D01*
X28223026Y15469500D01*
X28426974Y15469500D01*
X28426976Y15469500D01*
X28627456Y15506976D01*
X28817637Y15580652D01*
X28991041Y15688019D01*
X29141764Y15825421D01*
X29264673Y15988179D01*
X29355582Y16170750D01*
X29372440Y16230000D01*
X38978590Y16230000D01*
X39025233Y16076234D01*
X39122728Y15893834D01*
X39122732Y15893827D01*
X39253944Y15733945D01*
X39413826Y15602733D01*
X39413833Y15602729D01*
X39596233Y15505234D01*
X39750000Y15458590D01*
X39750000Y15867699D01*
X39769685Y15934738D01*
X39822489Y15980493D01*
X39891647Y15990437D01*
X39964237Y15980000D01*
X39964238Y15980000D01*
X40035762Y15980000D01*
X40035763Y15980000D01*
X40108353Y15990437D01*
X40177512Y15980493D01*
X40230315Y15934738D01*
X40250000Y15867699D01*
X40250000Y15458590D01*
X40403766Y15505234D01*
X40586166Y15602729D01*
X40586173Y15602733D01*
X40746055Y15733945D01*
X40877267Y15893827D01*
X40877271Y15893834D01*
X40974766Y16076234D01*
X41021410Y16230000D01*
X41518590Y16230000D01*
X41565233Y16076234D01*
X41662728Y15893834D01*
X41662732Y15893827D01*
X41793944Y15733945D01*
X41953826Y15602733D01*
X41953833Y15602729D01*
X42136233Y15505234D01*
X42290000Y15458590D01*
X42290000Y15867699D01*
X42309685Y15934738D01*
X42362489Y15980493D01*
X42431647Y15990437D01*
X42504237Y15980000D01*
X42504238Y15980000D01*
X42575762Y15980000D01*
X42575763Y15980000D01*
X42648353Y15990437D01*
X42717512Y15980493D01*
X42770315Y15934738D01*
X42790000Y15867699D01*
X42790000Y15458590D01*
X42943766Y15505234D01*
X43126166Y15602729D01*
X43126173Y15602733D01*
X43286055Y15733945D01*
X43417267Y15893827D01*
X43417271Y15893834D01*
X43514766Y16076234D01*
X43561410Y16230000D01*
X43153347Y16230000D01*
X43086308Y16249685D01*
X43040553Y16302489D01*
X43030609Y16371647D01*
X43034369Y16388933D01*
X43036143Y16394978D01*
X43040000Y16408111D01*
X43040000Y16551889D01*
X43034368Y16571067D01*
X43034370Y16640936D01*
X43072145Y16699714D01*
X43135701Y16728738D01*
X43153347Y16730000D01*
X43561410Y16730000D01*
X43514766Y16883767D01*
X43417271Y17066167D01*
X43417267Y17066174D01*
X43286055Y17226056D01*
X43126173Y17357268D01*
X43126166Y17357272D01*
X42943763Y17454768D01*
X42790000Y17501413D01*
X42790000Y17092302D01*
X42770315Y17025263D01*
X42717511Y16979508D01*
X42648355Y16969564D01*
X42575766Y16980000D01*
X42575763Y16980000D01*
X42504237Y16980000D01*
X42504233Y16980000D01*
X42431645Y16969564D01*
X42362487Y16979508D01*
X42309684Y17025264D01*
X42290000Y17092302D01*
X42290000Y17501413D01*
X42136236Y17454768D01*
X41953833Y17357272D01*
X41953826Y17357268D01*
X41793944Y17226056D01*
X41662732Y17066174D01*
X41662728Y17066167D01*
X41565233Y16883767D01*
X41518590Y16730000D01*
X41926653Y16730000D01*
X41993692Y16710315D01*
X42039447Y16657511D01*
X42049391Y16588353D01*
X42045631Y16571067D01*
X42040000Y16551889D01*
X42040000Y16408111D01*
X42043856Y16394978D01*
X42045631Y16388933D01*
X42045630Y16319064D01*
X42007855Y16260286D01*
X41944299Y16231262D01*
X41926653Y16230000D01*
X41518590Y16230000D01*
X41021410Y16230000D01*
X40613347Y16230000D01*
X40546308Y16249685D01*
X40500553Y16302489D01*
X40490609Y16371647D01*
X40494369Y16388933D01*
X40496143Y16394978D01*
X40500000Y16408111D01*
X40500000Y16551889D01*
X40494368Y16571067D01*
X40494370Y16640936D01*
X40532145Y16699714D01*
X40595701Y16728738D01*
X40613347Y16730000D01*
X41021410Y16730000D01*
X40974766Y16883767D01*
X40877271Y17066167D01*
X40877267Y17066174D01*
X40746055Y17226056D01*
X40586173Y17357268D01*
X40586166Y17357272D01*
X40403763Y17454768D01*
X40250000Y17501413D01*
X40250000Y17092302D01*
X40230315Y17025263D01*
X40177511Y16979508D01*
X40108355Y16969564D01*
X40035766Y16980000D01*
X40035763Y16980000D01*
X39964237Y16980000D01*
X39964233Y16980000D01*
X39891645Y16969564D01*
X39822487Y16979508D01*
X39769684Y17025264D01*
X39750000Y17092302D01*
X39750000Y17501413D01*
X39596236Y17454768D01*
X39413833Y17357272D01*
X39413826Y17357268D01*
X39253944Y17226056D01*
X39122732Y17066174D01*
X39122728Y17066167D01*
X39025233Y16883767D01*
X38978590Y16730000D01*
X39386653Y16730000D01*
X39453692Y16710315D01*
X39499447Y16657511D01*
X39509391Y16588353D01*
X39505631Y16571067D01*
X39500000Y16551889D01*
X39500000Y16408111D01*
X39503856Y16394978D01*
X39505631Y16388933D01*
X39505630Y16319064D01*
X39467855Y16260286D01*
X39404299Y16231262D01*
X39386653Y16230000D01*
X38978590Y16230000D01*
X29372440Y16230000D01*
X29411397Y16366917D01*
X29430215Y16570000D01*
X29418195Y16699714D01*
X29411397Y16773083D01*
X29379339Y16885753D01*
X29355582Y16969250D01*
X29350474Y16979508D01*
X29294310Y17092302D01*
X29264673Y17151821D01*
X29194678Y17244509D01*
X29141762Y17314582D01*
X28991041Y17451981D01*
X28991039Y17451983D01*
X28817642Y17559345D01*
X28817635Y17559349D01*
X28687020Y17609949D01*
X28627456Y17633024D01*
X28426976Y17670500D01*
X28223024Y17670500D01*
X28022544Y17633024D01*
X28022541Y17633024D01*
X28022541Y17633023D01*
X27832364Y17559349D01*
X27832357Y17559345D01*
X27664777Y17455584D01*
X27597417Y17437029D01*
X27530717Y17457837D01*
X27485856Y17511402D01*
X27475500Y17561011D01*
X27475500Y19020000D01*
X38894785Y19020000D01*
X38913602Y18816918D01*
X38969417Y18620753D01*
X38969422Y18620740D01*
X39060327Y18438179D01*
X39183237Y18275419D01*
X39333958Y18138020D01*
X39333960Y18138018D01*
X39351705Y18127031D01*
X39507363Y18030652D01*
X39697544Y17956976D01*
X39898024Y17919500D01*
X39898026Y17919500D01*
X40101974Y17919500D01*
X40101976Y17919500D01*
X40302456Y17956976D01*
X40492637Y18030652D01*
X40666041Y18138019D01*
X40796953Y18257361D01*
X40816762Y18275419D01*
X40816764Y18275421D01*
X40939673Y18438179D01*
X41030582Y18620750D01*
X41086397Y18816917D01*
X41105215Y19020000D01*
X41434785Y19020000D01*
X41453602Y18816918D01*
X41509417Y18620753D01*
X41509422Y18620740D01*
X41600327Y18438179D01*
X41723237Y18275419D01*
X41873958Y18138020D01*
X41873960Y18138018D01*
X41891705Y18127031D01*
X42047363Y18030652D01*
X42237544Y17956976D01*
X42438024Y17919500D01*
X42438026Y17919500D01*
X42641974Y17919500D01*
X42641976Y17919500D01*
X42842456Y17956976D01*
X43032637Y18030652D01*
X43206041Y18138019D01*
X43336953Y18257361D01*
X43356762Y18275419D01*
X43356764Y18275421D01*
X43479673Y18438179D01*
X43570582Y18620750D01*
X43626397Y18816917D01*
X43645215Y19020000D01*
X43639616Y19080419D01*
X43626397Y19223083D01*
X43620679Y19243179D01*
X43570582Y19419250D01*
X43567350Y19425740D01*
X43526272Y19508236D01*
X43479673Y19601821D01*
X43356764Y19764579D01*
X43356762Y19764582D01*
X43206041Y19901981D01*
X43206039Y19901983D01*
X43032642Y20009345D01*
X43032635Y20009349D01*
X42894211Y20062974D01*
X42842456Y20083024D01*
X42641976Y20120500D01*
X42438024Y20120500D01*
X42237544Y20083024D01*
X42237541Y20083024D01*
X42237541Y20083023D01*
X42047364Y20009349D01*
X42047357Y20009345D01*
X41873960Y19901983D01*
X41873958Y19901981D01*
X41723237Y19764582D01*
X41600327Y19601822D01*
X41509422Y19419261D01*
X41509417Y19419248D01*
X41453602Y19223083D01*
X41434785Y19020001D01*
X41434785Y19020000D01*
X41105215Y19020000D01*
X41099616Y19080419D01*
X41086397Y19223083D01*
X41080679Y19243179D01*
X41030582Y19419250D01*
X41027350Y19425740D01*
X40986272Y19508236D01*
X40939673Y19601821D01*
X40816764Y19764579D01*
X40816762Y19764582D01*
X40666041Y19901981D01*
X40666039Y19901983D01*
X40492642Y20009345D01*
X40492635Y20009349D01*
X40354211Y20062974D01*
X40302456Y20083024D01*
X40101976Y20120500D01*
X39898024Y20120500D01*
X39697544Y20083024D01*
X39697541Y20083024D01*
X39697541Y20083023D01*
X39507364Y20009349D01*
X39507357Y20009345D01*
X39333960Y19901983D01*
X39333958Y19901981D01*
X39183237Y19764582D01*
X39060327Y19601822D01*
X38969422Y19419261D01*
X38969417Y19419248D01*
X38913602Y19223083D01*
X38894785Y19020001D01*
X38894785Y19020000D01*
X27475500Y19020000D01*
X27475500Y21560000D01*
X38894785Y21560000D01*
X38913602Y21356918D01*
X38969417Y21160753D01*
X38969422Y21160740D01*
X39060327Y20978179D01*
X39183237Y20815419D01*
X39333958Y20678020D01*
X39333960Y20678018D01*
X39433141Y20616608D01*
X39507363Y20570652D01*
X39697544Y20496976D01*
X39898024Y20459500D01*
X39898026Y20459500D01*
X40101974Y20459500D01*
X40101976Y20459500D01*
X40302456Y20496976D01*
X40492637Y20570652D01*
X40666041Y20678019D01*
X40816764Y20815421D01*
X40939673Y20978179D01*
X41030582Y21160750D01*
X41086397Y21356917D01*
X41105215Y21560000D01*
X41434785Y21560000D01*
X41453602Y21356918D01*
X41509417Y21160753D01*
X41509422Y21160740D01*
X41600327Y20978179D01*
X41723237Y20815419D01*
X41873958Y20678020D01*
X41873960Y20678018D01*
X41973141Y20616608D01*
X42047363Y20570652D01*
X42237544Y20496976D01*
X42438024Y20459500D01*
X42438026Y20459500D01*
X42641974Y20459500D01*
X42641976Y20459500D01*
X42842456Y20496976D01*
X43032637Y20570652D01*
X43206041Y20678019D01*
X43356764Y20815421D01*
X43479673Y20978179D01*
X43570582Y21160750D01*
X43626397Y21356917D01*
X43645215Y21560000D01*
X43639616Y21620419D01*
X43626397Y21763083D01*
X43587869Y21898493D01*
X43570582Y21959250D01*
X43567350Y21965740D01*
X43494738Y22111566D01*
X43479673Y22141821D01*
X43356764Y22304579D01*
X43356762Y22304582D01*
X43206041Y22441981D01*
X43206039Y22441983D01*
X43032642Y22549345D01*
X43032635Y22549349D01*
X42937546Y22586186D01*
X42842456Y22623024D01*
X42641976Y22660500D01*
X42438024Y22660500D01*
X42237544Y22623024D01*
X42237541Y22623024D01*
X42237541Y22623023D01*
X42047364Y22549349D01*
X42047357Y22549345D01*
X41873960Y22441983D01*
X41873958Y22441981D01*
X41723237Y22304582D01*
X41600327Y22141822D01*
X41509422Y21959261D01*
X41509417Y21959248D01*
X41453602Y21763083D01*
X41434785Y21560001D01*
X41434785Y21560000D01*
X41105215Y21560000D01*
X41099616Y21620419D01*
X41086397Y21763083D01*
X41047869Y21898493D01*
X41030582Y21959250D01*
X41027350Y21965740D01*
X40954738Y22111566D01*
X40939673Y22141821D01*
X40816764Y22304579D01*
X40816762Y22304582D01*
X40666041Y22441981D01*
X40666039Y22441983D01*
X40492642Y22549345D01*
X40492635Y22549349D01*
X40397546Y22586186D01*
X40302456Y22623024D01*
X40101976Y22660500D01*
X39898024Y22660500D01*
X39697544Y22623024D01*
X39697541Y22623024D01*
X39697541Y22623023D01*
X39507364Y22549349D01*
X39507357Y22549345D01*
X39333960Y22441983D01*
X39333958Y22441981D01*
X39183237Y22304582D01*
X39060327Y22141822D01*
X38969422Y21959261D01*
X38969417Y21959248D01*
X38913602Y21763083D01*
X38894785Y21560001D01*
X38894785Y21560000D01*
X27475500Y21560000D01*
X27475500Y23230298D01*
X38950000Y23230298D01*
X38961602Y23171967D01*
X38961603Y23171966D01*
X39005808Y23105809D01*
X39071965Y23061604D01*
X39071966Y23061603D01*
X39130297Y23050001D01*
X39130301Y23050000D01*
X39750000Y23050000D01*
X39750000Y23487699D01*
X39769685Y23554738D01*
X39822489Y23600493D01*
X39891647Y23610437D01*
X39964237Y23600000D01*
X39964238Y23600000D01*
X40035762Y23600000D01*
X40035763Y23600000D01*
X40108353Y23610437D01*
X40177512Y23600493D01*
X40230315Y23554738D01*
X40250000Y23487699D01*
X40250000Y23050000D01*
X40869699Y23050000D01*
X40869702Y23050001D01*
X40928033Y23061603D01*
X40928034Y23061604D01*
X40994191Y23105809D01*
X41038396Y23171966D01*
X41038397Y23171967D01*
X41049999Y23230298D01*
X41050000Y23230301D01*
X41050000Y23850000D01*
X41518590Y23850000D01*
X41565233Y23696234D01*
X41662728Y23513834D01*
X41662732Y23513827D01*
X41793944Y23353945D01*
X41953826Y23222733D01*
X41953833Y23222729D01*
X42136233Y23125234D01*
X42290000Y23078590D01*
X42290000Y23487699D01*
X42309685Y23554738D01*
X42362489Y23600493D01*
X42431647Y23610437D01*
X42504237Y23600000D01*
X42504238Y23600000D01*
X42575762Y23600000D01*
X42575763Y23600000D01*
X42648353Y23610437D01*
X42717512Y23600493D01*
X42770315Y23554738D01*
X42790000Y23487699D01*
X42790000Y23078590D01*
X42943766Y23125234D01*
X43126166Y23222729D01*
X43126173Y23222733D01*
X43286055Y23353945D01*
X43417267Y23513827D01*
X43417271Y23513834D01*
X43514766Y23696234D01*
X43561410Y23850000D01*
X43153347Y23850000D01*
X43086308Y23869685D01*
X43040553Y23922489D01*
X43030609Y23991647D01*
X43034369Y24008933D01*
X43038171Y24021882D01*
X43040000Y24028111D01*
X43040000Y24171889D01*
X43035553Y24187033D01*
X43034369Y24191067D01*
X43034370Y24260936D01*
X43072145Y24319714D01*
X43135701Y24348738D01*
X43153347Y24350000D01*
X43561410Y24350000D01*
X43514766Y24503767D01*
X43417271Y24686167D01*
X43417267Y24686174D01*
X43286055Y24846056D01*
X43126173Y24977268D01*
X43126166Y24977272D01*
X42943763Y25074768D01*
X42790000Y25121413D01*
X42790000Y24712302D01*
X42770315Y24645263D01*
X42717511Y24599508D01*
X42648355Y24589564D01*
X42575766Y24600000D01*
X42575763Y24600000D01*
X42504237Y24600000D01*
X42504233Y24600000D01*
X42431645Y24589564D01*
X42362487Y24599508D01*
X42309684Y24645264D01*
X42290000Y24712302D01*
X42290000Y25121413D01*
X42136236Y25074768D01*
X41953833Y24977272D01*
X41953826Y24977268D01*
X41793944Y24846056D01*
X41662732Y24686174D01*
X41662728Y24686167D01*
X41565233Y24503767D01*
X41518590Y24350000D01*
X41926653Y24350000D01*
X41993692Y24330315D01*
X42039447Y24277511D01*
X42049391Y24208353D01*
X42045631Y24191067D01*
X42044447Y24187033D01*
X42040000Y24171889D01*
X42040000Y24028111D01*
X42041829Y24021882D01*
X42045631Y24008933D01*
X42045630Y23939064D01*
X42007855Y23880286D01*
X41944299Y23851262D01*
X41926653Y23850000D01*
X41518590Y23850000D01*
X41050000Y23850000D01*
X40613347Y23850000D01*
X40546308Y23869685D01*
X40500553Y23922489D01*
X40490609Y23991647D01*
X40494369Y24008933D01*
X40498171Y24021882D01*
X40500000Y24028111D01*
X40500000Y24171889D01*
X40495553Y24187033D01*
X40494369Y24191067D01*
X40494370Y24260936D01*
X40532145Y24319714D01*
X40595701Y24348738D01*
X40613347Y24350000D01*
X41050000Y24350000D01*
X41050000Y24969700D01*
X41049999Y24969703D01*
X41038397Y25028034D01*
X41038396Y25028035D01*
X40994191Y25094192D01*
X40928034Y25138397D01*
X40928033Y25138398D01*
X40869702Y25150000D01*
X40250000Y25150000D01*
X40250000Y24712302D01*
X40230315Y24645263D01*
X40177511Y24599508D01*
X40108355Y24589564D01*
X40035766Y24600000D01*
X40035763Y24600000D01*
X39964237Y24600000D01*
X39964233Y24600000D01*
X39891645Y24589564D01*
X39822487Y24599508D01*
X39769684Y24645264D01*
X39750000Y24712302D01*
X39750000Y25150000D01*
X39130297Y25150000D01*
X39071966Y25138398D01*
X39071965Y25138397D01*
X39005808Y25094192D01*
X38961603Y25028035D01*
X38961602Y25028034D01*
X38950000Y24969703D01*
X38950000Y24350000D01*
X39386653Y24350000D01*
X39453692Y24330315D01*
X39499447Y24277511D01*
X39509391Y24208353D01*
X39505631Y24191067D01*
X39504447Y24187033D01*
X39500000Y24171889D01*
X39500000Y24028111D01*
X39501829Y24021882D01*
X39505631Y24008933D01*
X39505630Y23939064D01*
X39467855Y23880286D01*
X39404299Y23851262D01*
X39386653Y23850000D01*
X38950000Y23850000D01*
X38950000Y23230298D01*
X27475500Y23230298D01*
X27475500Y25248196D01*
X27478139Y25273641D01*
X27478785Y25276725D01*
X27480367Y25284268D01*
X27477875Y25304261D01*
X27475977Y25319494D01*
X27475500Y25327170D01*
X27475500Y25331111D01*
X27475498Y25331124D01*
X27471657Y25354141D01*
X27464866Y25408624D01*
X27464866Y25408626D01*
X27464864Y25408630D01*
X27462622Y25416160D01*
X27460065Y25423608D01*
X27460065Y25423610D01*
X27433944Y25471878D01*
X27409826Y25521211D01*
X27409824Y25521213D01*
X27409824Y25521214D01*
X27405276Y25527584D01*
X27400421Y25533823D01*
X27400419Y25533826D01*
X27400415Y25533830D01*
X27360031Y25571007D01*
X27345298Y25585739D01*
X27330565Y25600472D01*
X27297081Y25661792D01*
X27295509Y25670507D01*
X27285166Y25742452D01*
X27285165Y25742454D01*
X27285165Y25742457D01*
X27264831Y25786981D01*
X27225379Y25873370D01*
X27225376Y25873374D01*
X27210928Y25890048D01*
X27131128Y25982143D01*
X27010053Y26059953D01*
X27010051Y26059954D01*
X27010049Y26059955D01*
X27010050Y26059955D01*
X26871963Y26100500D01*
X26871961Y26100500D01*
X26728039Y26100500D01*
X26728036Y26100500D01*
X26589949Y26059955D01*
X26468873Y25982144D01*
X26374623Y25873374D01*
X26374622Y25873372D01*
X26314834Y25742457D01*
X26294353Y25600000D01*
X26314834Y25457544D01*
X26372569Y25331124D01*
X26374623Y25326627D01*
X26468872Y25217857D01*
X26589947Y25140047D01*
X26635433Y25126692D01*
X26694211Y25088920D01*
X26723237Y25025366D01*
X26724500Y25007715D01*
X26724500Y17794500D01*
X26704815Y17727461D01*
X26652011Y17681706D01*
X26600500Y17670500D01*
X24910323Y17670500D01*
X24837264Y17655968D01*
X24837260Y17655967D01*
X24768390Y17609949D01*
X24701712Y17589072D01*
X24634332Y17607557D01*
X24587643Y17659536D01*
X24575500Y17713052D01*
X24575500Y18593101D01*
X24595185Y18660140D01*
X24611819Y18680782D01*
X25033185Y19102148D01*
X25528892Y19597856D01*
X25548741Y19613975D01*
X25557836Y19619916D01*
X25579644Y19647938D01*
X25584721Y19653684D01*
X25587520Y19656482D01*
X25601094Y19675496D01*
X25634809Y19718811D01*
X25634809Y19718813D01*
X25638547Y19725720D01*
X25642003Y19732793D01*
X25642010Y19732801D01*
X25657670Y19785404D01*
X25675500Y19837340D01*
X25675500Y19837345D01*
X25676790Y19845076D01*
X25677768Y19852915D01*
X25675500Y19907756D01*
X25675500Y25222817D01*
X25695185Y25289856D01*
X25705783Y25304015D01*
X25725377Y25326627D01*
X25785165Y25457543D01*
X25805647Y25600000D01*
X25785165Y25742457D01*
X25725377Y25873373D01*
X25631128Y25982143D01*
X25510053Y26059953D01*
X25510051Y26059954D01*
X25510049Y26059955D01*
X25510050Y26059955D01*
X25371963Y26100500D01*
X25371961Y26100500D01*
X25228039Y26100500D01*
X25228036Y26100500D01*
X25089949Y26059955D01*
X24968873Y25982144D01*
X24874623Y25873374D01*
X24874622Y25873372D01*
X24814834Y25742457D01*
X24794353Y25600000D01*
X24814834Y25457544D01*
X24872569Y25331124D01*
X24874623Y25326627D01*
X24894212Y25304020D01*
X24923238Y25240466D01*
X24924500Y25222817D01*
X24924500Y20106901D01*
X24904815Y20039862D01*
X24888181Y20019220D01*
X23971108Y19102148D01*
X23951254Y19086024D01*
X23942165Y19080086D01*
X23942164Y19080085D01*
X23920363Y19052077D01*
X23915286Y19046326D01*
X23912484Y19043523D01*
X23912474Y19043512D01*
X23898905Y19024505D01*
X23865192Y18981192D01*
X23861447Y18974271D01*
X23857988Y18967196D01*
X23842329Y18914597D01*
X23824500Y18862662D01*
X23823206Y18854908D01*
X23822231Y18847089D01*
X23824500Y18792245D01*
X23824500Y15251804D01*
X23821862Y15226366D01*
X23819633Y15215732D01*
X23819633Y15215731D01*
X23819633Y15215729D01*
X18254599Y15215729D01*
X18255377Y15216627D01*
X18315165Y15347543D01*
X18315166Y15347551D01*
X18316106Y15350750D01*
X18317914Y15353565D01*
X18318849Y15355610D01*
X18319143Y15355476D01*
X18353881Y15409528D01*
X18417438Y15438552D01*
X18470017Y15434791D01*
X18488035Y15429501D01*
X18488038Y15429500D01*
X18488039Y15429500D01*
X18631962Y15429500D01*
X18631962Y15429501D01*
X18768190Y15469500D01*
X18770050Y15470046D01*
X18770050Y15470047D01*
X18770053Y15470047D01*
X18891128Y15547857D01*
X18985377Y15656627D01*
X19045165Y15787543D01*
X19065647Y15930000D01*
X19045165Y16072457D01*
X18985377Y16203373D01*
X18985374Y16203376D01*
X18980582Y16210834D01*
X18983621Y16212788D01*
X18961749Y16260776D01*
X18960500Y16278333D01*
X18960500Y16942746D01*
X18980185Y17009785D01*
X18996814Y17030422D01*
X23880484Y21914091D01*
X23936296Y21990910D01*
X23975500Y22111567D01*
X23975500Y22238433D01*
X23956568Y22296698D01*
X23950500Y22335015D01*
X23950500Y25474435D01*
X23970185Y25541474D01*
X23986819Y25562116D01*
X25824703Y27400000D01*
X29294353Y27400000D01*
X29314834Y27257544D01*
X29373606Y27128854D01*
X29374623Y27126627D01*
X29468872Y27017857D01*
X29589947Y26940047D01*
X29589950Y26940046D01*
X29589949Y26940046D01*
X29728036Y26899501D01*
X29728038Y26899500D01*
X29728039Y26899500D01*
X29871962Y26899500D01*
X29871962Y26899501D01*
X30010053Y26940047D01*
X30131128Y27017857D01*
X30225377Y27126627D01*
X30228621Y27133729D01*
X30246814Y27173567D01*
X30285165Y27257543D01*
X30295509Y27329498D01*
X30324533Y27393051D01*
X30330552Y27399517D01*
X32319217Y29388181D01*
X32380541Y29421666D01*
X32406899Y29424500D01*
X36735500Y29424500D01*
X36802539Y29404815D01*
X36848294Y29352011D01*
X36859500Y29300500D01*
X36859500Y28925322D01*
X36874032Y28852265D01*
X36874033Y28852261D01*
X36874034Y28852260D01*
X36929399Y28769399D01*
X37012260Y28714034D01*
X37012264Y28714033D01*
X37085321Y28699501D01*
X37085324Y28699500D01*
X37085326Y28699500D01*
X38834676Y28699500D01*
X38834677Y28699501D01*
X38907740Y28714034D01*
X38990601Y28769399D01*
X39045966Y28852260D01*
X39060500Y28925326D01*
X39060500Y29800000D01*
X39394785Y29800000D01*
X39413602Y29596918D01*
X39469417Y29400753D01*
X39469422Y29400740D01*
X39560327Y29218179D01*
X39683237Y29055419D01*
X39833958Y28918020D01*
X39833960Y28918018D01*
X39888094Y28884500D01*
X40007363Y28810652D01*
X40197544Y28736976D01*
X40398024Y28699500D01*
X40398026Y28699500D01*
X40601974Y28699500D01*
X40601976Y28699500D01*
X40802456Y28736976D01*
X40992637Y28810652D01*
X41166041Y28918019D01*
X41298893Y29039129D01*
X41316762Y29055419D01*
X41316764Y29055421D01*
X41439673Y29218179D01*
X41530582Y29400750D01*
X41586397Y29596917D01*
X41605215Y29800000D01*
X41592248Y29939934D01*
X41586397Y30003083D01*
X41558702Y30100419D01*
X41530582Y30199250D01*
X41527594Y30205250D01*
X41480173Y30300486D01*
X41439673Y30381821D01*
X41352804Y30496854D01*
X41316762Y30544582D01*
X41166041Y30681981D01*
X41166039Y30681983D01*
X40992642Y30789345D01*
X40992635Y30789349D01*
X40886150Y30830601D01*
X40802456Y30863024D01*
X40601976Y30900500D01*
X40398024Y30900500D01*
X40197544Y30863024D01*
X40197541Y30863024D01*
X40197541Y30863023D01*
X40007364Y30789349D01*
X40007357Y30789345D01*
X39833960Y30681983D01*
X39833958Y30681981D01*
X39683237Y30544582D01*
X39560327Y30381822D01*
X39469422Y30199261D01*
X39469417Y30199248D01*
X39413602Y30003083D01*
X39394785Y29800001D01*
X39394785Y29800000D01*
X39060500Y29800000D01*
X39060500Y30674674D01*
X39060500Y30674675D01*
X39060500Y30674677D01*
X39060499Y30674679D01*
X39045967Y30747736D01*
X39045966Y30747740D01*
X39034304Y30765193D01*
X38990601Y30830601D01*
X38907740Y30885966D01*
X38907739Y30885967D01*
X38907735Y30885968D01*
X38834677Y30900500D01*
X38834674Y30900500D01*
X37085326Y30900500D01*
X37085323Y30900500D01*
X37012264Y30885968D01*
X37012260Y30885967D01*
X36929399Y30830601D01*
X36874033Y30747740D01*
X36874032Y30747736D01*
X36859500Y30674679D01*
X36859500Y30299500D01*
X36839815Y30232461D01*
X36787011Y30186706D01*
X36735500Y30175500D01*
X32251803Y30175500D01*
X32226358Y30178139D01*
X32215732Y30180367D01*
X32215729Y30180367D01*
X32180507Y30175977D01*
X32172831Y30175500D01*
X32168886Y30175500D01*
X32157371Y30173579D01*
X32145856Y30171658D01*
X32127696Y30169394D01*
X32091375Y30164866D01*
X32091371Y30164865D01*
X32083842Y30162623D01*
X32076383Y30160063D01*
X32028118Y30133942D01*
X31978791Y30109828D01*
X31972381Y30105252D01*
X31966175Y30100421D01*
X31928992Y30060030D01*
X29805601Y27936640D01*
X29744278Y27903155D01*
X29735571Y27901584D01*
X29728040Y27900502D01*
X29589949Y27859955D01*
X29468873Y27782144D01*
X29374623Y27673374D01*
X29374622Y27673372D01*
X29314834Y27542457D01*
X29294353Y27400000D01*
X25824703Y27400000D01*
X26525203Y28100500D01*
X29113565Y30688863D01*
X29174886Y30722346D01*
X29183602Y30723919D01*
X29191120Y30725000D01*
X29191127Y30725000D01*
X29206732Y30729582D01*
X29329216Y30765546D01*
X29329216Y30765547D01*
X29329219Y30765547D01*
X29450294Y30843357D01*
X29544543Y30952127D01*
X29604331Y31083043D01*
X29624813Y31225500D01*
X29604331Y31367957D01*
X29544543Y31498873D01*
X29450294Y31607643D01*
X29329219Y31685453D01*
X29329217Y31685454D01*
X29329215Y31685455D01*
X29329216Y31685455D01*
X29191129Y31726000D01*
X29191127Y31726000D01*
X29047205Y31726000D01*
X29047202Y31726000D01*
X28909115Y31685455D01*
X28788039Y31607644D01*
X28788038Y31607644D01*
X28788038Y31607643D01*
X28781849Y31600500D01*
X28693789Y31498874D01*
X28693788Y31498872D01*
X28634001Y31367959D01*
X28634000Y31367954D01*
X28623655Y31296004D01*
X28594629Y31232449D01*
X28588598Y31225971D01*
X28543822Y31181195D01*
X28482499Y31147710D01*
X28412807Y31152694D01*
X28356874Y31194566D01*
X28341690Y31235274D01*
X28337165Y31233944D01*
X28334665Y31242456D01*
X28327775Y31257544D01*
X28274877Y31373373D01*
X28180628Y31482143D01*
X28059553Y31559953D01*
X28059551Y31559954D01*
X28059549Y31559955D01*
X28059550Y31559955D01*
X27921463Y31600500D01*
X27921461Y31600500D01*
X27777539Y31600500D01*
X27666914Y31568019D01*
X27597045Y31568020D01*
X27538267Y31605795D01*
X27509243Y31669351D01*
X27519186Y31738506D01*
X27573778Y31858043D01*
X27594260Y32000500D01*
X27573778Y32142957D01*
X27513990Y32273873D01*
X27494398Y32296484D01*
X27465375Y32360040D01*
X27464113Y32377685D01*
X27464113Y33099871D01*
X27466752Y33125316D01*
X27468332Y33132853D01*
X27468980Y33135943D01*
X27464928Y33168453D01*
X27464590Y33171169D01*
X27464113Y33178845D01*
X27464113Y33182786D01*
X27464111Y33182799D01*
X27460270Y33205816D01*
X27453479Y33260299D01*
X27453479Y33260301D01*
X27453477Y33260305D01*
X27451235Y33267835D01*
X27448678Y33275283D01*
X27448678Y33275285D01*
X27422557Y33323553D01*
X27398439Y33372886D01*
X27398437Y33372888D01*
X27398437Y33372889D01*
X27393889Y33379259D01*
X27389033Y33385499D01*
X27389032Y33385501D01*
X27348642Y33422683D01*
X26904460Y33866865D01*
X26442437Y34328889D01*
X26426310Y34348748D01*
X26420374Y34357833D01*
X26420371Y34357837D01*
X26392362Y34379637D01*
X26386598Y34384728D01*
X26383803Y34387523D01*
X26364793Y34401094D01*
X26321477Y34434810D01*
X26314562Y34438552D01*
X26307488Y34442010D01*
X26254884Y34457671D01*
X26202946Y34475501D01*
X26195211Y34476792D01*
X26187373Y34477769D01*
X26132532Y34475500D01*
X25824280Y34475500D01*
X25757241Y34495185D01*
X25711486Y34547989D01*
X25702530Y34601734D01*
X25700500Y34601734D01*
X25700500Y35232500D01*
X26118590Y35232500D01*
X26165233Y35078734D01*
X26262728Y34896334D01*
X26262732Y34896327D01*
X26393944Y34736445D01*
X26553826Y34605233D01*
X26553833Y34605229D01*
X26736233Y34507734D01*
X26890000Y34461090D01*
X26890000Y34870199D01*
X26909685Y34937238D01*
X26962489Y34982993D01*
X27031647Y34992937D01*
X27104237Y34982500D01*
X27104238Y34982500D01*
X27175762Y34982500D01*
X27175763Y34982500D01*
X27248353Y34992937D01*
X27317512Y34982993D01*
X27370315Y34937238D01*
X27390000Y34870199D01*
X27390000Y34461090D01*
X27543766Y34507734D01*
X27726166Y34605229D01*
X27726173Y34605233D01*
X27886055Y34736445D01*
X28017267Y34896327D01*
X28017271Y34896334D01*
X28114766Y35078734D01*
X28161410Y35232500D01*
X27753347Y35232500D01*
X27686308Y35252185D01*
X27640553Y35304989D01*
X27630609Y35374147D01*
X27634369Y35391433D01*
X27640000Y35410612D01*
X27640000Y35554389D01*
X27634369Y35573567D01*
X27634370Y35643436D01*
X27672145Y35702214D01*
X27735701Y35731238D01*
X27753347Y35732500D01*
X28161410Y35732500D01*
X28114766Y35886267D01*
X28017271Y36068667D01*
X28017267Y36068674D01*
X27886055Y36228556D01*
X27726173Y36359768D01*
X27726166Y36359772D01*
X27543763Y36457268D01*
X27390000Y36503913D01*
X27390000Y36094802D01*
X27370315Y36027763D01*
X27317511Y35982008D01*
X27248355Y35972064D01*
X27175766Y35982500D01*
X27175763Y35982500D01*
X27104237Y35982500D01*
X27104233Y35982500D01*
X27031645Y35972064D01*
X26962487Y35982008D01*
X26909684Y36027764D01*
X26890000Y36094802D01*
X26890000Y36503913D01*
X26736236Y36457268D01*
X26553833Y36359772D01*
X26553826Y36359768D01*
X26393944Y36228556D01*
X26262732Y36068674D01*
X26262728Y36068667D01*
X26165233Y35886267D01*
X26118590Y35732500D01*
X26526653Y35732500D01*
X26593692Y35712815D01*
X26639447Y35660011D01*
X26649391Y35590853D01*
X26645631Y35573567D01*
X26640000Y35554389D01*
X26640000Y35410612D01*
X26645631Y35391433D01*
X26645630Y35321564D01*
X26607855Y35262786D01*
X26544299Y35233762D01*
X26526653Y35232500D01*
X26118590Y35232500D01*
X25700500Y35232500D01*
X25700500Y36357177D01*
X25700499Y36357179D01*
X25685967Y36430236D01*
X25685966Y36430240D01*
X25685965Y36430240D01*
X25630601Y36513101D01*
X25547740Y36568466D01*
X25547739Y36568467D01*
X25547735Y36568468D01*
X25474677Y36583000D01*
X25474674Y36583000D01*
X23725326Y36583000D01*
X23725323Y36583000D01*
X23652264Y36568468D01*
X23652260Y36568467D01*
X23569399Y36513101D01*
X23514033Y36430240D01*
X23514032Y36430236D01*
X23499500Y36357179D01*
X23499499Y36357177D01*
X23499500Y34601734D01*
X23497242Y34601734D01*
X23486103Y34543007D01*
X23438038Y34492297D01*
X23375720Y34475500D01*
X14132303Y34475500D01*
X14065264Y34495185D01*
X14019509Y34547989D01*
X14009565Y34581854D01*
X14005165Y34612456D01*
X14005165Y34612457D01*
X14003162Y34616842D01*
X13994788Y34642005D01*
X13993765Y34646709D01*
X13968904Y34692237D01*
X13966921Y34696198D01*
X13945378Y34743371D01*
X13945376Y34743374D01*
X13942218Y34747019D01*
X13927103Y34768790D01*
X13924791Y34773023D01*
X13888111Y34809703D01*
X13885100Y34812937D01*
X13851128Y34852143D01*
X13851125Y34852146D01*
X13847066Y34854754D01*
X13826428Y34871386D01*
X13823023Y34874791D01*
X13777493Y34899653D01*
X13773688Y34901911D01*
X13755194Y34913796D01*
X13730053Y34929953D01*
X13725420Y34931314D01*
X13700939Y34941455D01*
X13696706Y34943766D01*
X13696704Y34943767D01*
X13696703Y34943767D01*
X13665368Y34950584D01*
X13646008Y34954796D01*
X13641727Y34955889D01*
X13591961Y34970500D01*
X13587143Y34970500D01*
X13560785Y34973334D01*
X13556074Y34974359D01*
X13556070Y34974359D01*
X13517552Y34971604D01*
X13504328Y34970658D01*
X13499906Y34970500D01*
X13448036Y34970500D01*
X13443412Y34969142D01*
X13417330Y34964436D01*
X13412517Y34964091D01*
X13412514Y34964091D01*
X13412514Y34964090D01*
X13363916Y34945965D01*
X13359717Y34944568D01*
X13309947Y34929954D01*
X13309942Y34929951D01*
X13305882Y34927342D01*
X13282194Y34915484D01*
X13277669Y34913796D01*
X13236147Y34882715D01*
X13232513Y34880191D01*
X13188877Y34852147D01*
X13188871Y34852142D01*
X13154898Y34812937D01*
X13151882Y34809697D01*
X12648568Y34306384D01*
X12627938Y34289757D01*
X12623876Y34287146D01*
X12623867Y34287139D01*
X12589905Y34247945D01*
X12586892Y34244709D01*
X12575780Y34233596D01*
X12566351Y34221003D01*
X12563578Y34217561D01*
X12524999Y34173038D01*
X12521982Y34169797D01*
X12363568Y34011384D01*
X12342938Y33994757D01*
X12338876Y33992146D01*
X12338867Y33992139D01*
X12304905Y33952945D01*
X12301892Y33949709D01*
X12290781Y33938598D01*
X12281354Y33926004D01*
X12278587Y33922572D01*
X12265375Y33907324D01*
X12244623Y33883374D01*
X12244617Y33883364D01*
X12242615Y33878980D01*
X12229100Y33856201D01*
X12226206Y33852336D01*
X12226200Y33852325D01*
X12208078Y33803736D01*
X12206385Y33799647D01*
X12184835Y33752457D01*
X12184833Y33752450D01*
X12184146Y33747673D01*
X12177598Y33722014D01*
X12175910Y33717487D01*
X12175909Y33717483D01*
X12172207Y33665740D01*
X12171734Y33661344D01*
X12169500Y33645801D01*
X12169500Y33630096D01*
X12169342Y33625671D01*
X12165641Y33573931D01*
X12165641Y33573927D01*
X12166666Y33569215D01*
X12169500Y33542857D01*
X12169500Y30657142D01*
X12166667Y30630794D01*
X12165641Y30626073D01*
X12165641Y30626071D01*
X12165641Y30626070D01*
X10599963Y30626070D01*
X11702552Y31728659D01*
X11702557Y31728666D01*
X11718050Y31744158D01*
X11728114Y31763912D01*
X11738263Y31780474D01*
X11751296Y31798410D01*
X11758144Y31819489D01*
X11765586Y31837456D01*
X11775646Y31857196D01*
X11779112Y31879083D01*
X11783655Y31898002D01*
X11784467Y31900500D01*
X11790500Y31919067D01*
X11790500Y32045933D01*
X11790500Y32203233D01*
X11790500Y33624169D01*
X11810185Y33691207D01*
X11810901Y33692164D01*
X11815368Y33699118D01*
X11815377Y33699127D01*
X11875165Y33830043D01*
X11895647Y33972500D01*
X11875165Y34114957D01*
X11815377Y34245873D01*
X11721128Y34354643D01*
X11600053Y34432453D01*
X11600051Y34432454D01*
X11600049Y34432455D01*
X11600050Y34432455D01*
X11461963Y34473000D01*
X11461961Y34473000D01*
X11318039Y34473000D01*
X11318036Y34473000D01*
X11179949Y34432455D01*
X11058873Y34354644D01*
X10964623Y34245874D01*
X10964622Y34245872D01*
X10904834Y34114957D01*
X10884353Y33972500D01*
X10904834Y33830044D01*
X10964622Y33699129D01*
X10969418Y33691666D01*
X10966364Y33689704D01*
X10988234Y33641838D01*
X10989499Y33624169D01*
X10989500Y32203215D01*
X10989499Y32199720D01*
X10969795Y32132687D01*
X10953180Y32112075D01*
X10822180Y31981075D01*
X10760859Y31947590D01*
X10691167Y31952574D01*
X10635233Y31994445D01*
X10610816Y32059909D01*
X10610500Y32068756D01*
X10610500Y32525001D01*
X10610500Y33132067D01*
X10617692Y33156563D01*
X10611031Y33207163D01*
X10610500Y33215264D01*
X10610500Y33271392D01*
X10610499Y33271400D01*
X10608749Y33279067D01*
X10610202Y33302787D01*
X10598908Y33330054D01*
X10592578Y33349915D01*
X10585403Y33381351D01*
X10574982Y33402989D01*
X10570716Y33428896D01*
X10556463Y33447471D01*
X10543119Y33469155D01*
X10536467Y33482967D01*
X10536466Y33482969D01*
X10513033Y33512352D01*
X10502192Y33538906D01*
X10487577Y33550120D01*
X10471119Y33566272D01*
X10471070Y33566222D01*
X10461222Y33576070D01*
X10461271Y33576120D01*
X10445117Y33592579D01*
X10438468Y33601244D01*
X10433819Y33601884D01*
X10407350Y33618035D01*
X10377969Y33641467D01*
X10377966Y33641468D01*
X10364155Y33648119D01*
X10342470Y33661463D01*
X10331489Y33669889D01*
X10329665Y33669694D01*
X10297989Y33679984D01*
X10276352Y33690404D01*
X10276353Y33690404D01*
X10244913Y33697579D01*
X10225053Y33703909D01*
X10207864Y33711029D01*
X10174069Y33713749D01*
X10166400Y33715499D01*
X10166394Y33715500D01*
X10166393Y33715500D01*
X10110271Y33715500D01*
X10102169Y33716031D01*
X10063453Y33721129D01*
X10027063Y33715500D01*
X8992939Y33715500D01*
X8968439Y33722694D01*
X8917830Y33716031D01*
X8909729Y33715500D01*
X8853607Y33715500D01*
X8853605Y33715500D01*
X8853598Y33715499D01*
X8845934Y33713750D01*
X8822216Y33715205D01*
X8794943Y33703908D01*
X8775085Y33697579D01*
X8743645Y33690403D01*
X8722009Y33679984D01*
X8696105Y33675720D01*
X8677523Y33661461D01*
X8655846Y33648121D01*
X8642037Y33641471D01*
X8642026Y33641464D01*
X8612647Y33618034D01*
X8586096Y33607195D01*
X8574880Y33592577D01*
X8558728Y33576120D01*
X8558778Y33576070D01*
X8548930Y33566222D01*
X8548880Y33566272D01*
X8532423Y33550120D01*
X8523756Y33543470D01*
X8523117Y33538825D01*
X8506966Y33512353D01*
X8483536Y33482974D01*
X8483529Y33482963D01*
X8476879Y33469154D01*
X8463539Y33447477D01*
X8455110Y33436493D01*
X8455305Y33434668D01*
X8445016Y33402991D01*
X8434597Y33381355D01*
X8427421Y33349915D01*
X8421092Y33330057D01*
X8413968Y33312860D01*
X8411250Y33279066D01*
X8409501Y33271402D01*
X8409500Y33271392D01*
X8409500Y33215274D01*
X8408969Y33207173D01*
X8403871Y33168453D01*
X8409500Y33132058D01*
X8409500Y31897941D01*
X8402306Y31873442D01*
X8408969Y31822832D01*
X8409500Y31814731D01*
X8409500Y31758605D01*
X8411249Y31750943D01*
X8409794Y31727218D01*
X8421090Y31699948D01*
X8427420Y31680090D01*
X8434596Y31648650D01*
X8445015Y31627015D01*
X8449280Y31601108D01*
X8463537Y31582528D01*
X8476880Y31560846D01*
X8483531Y31547036D01*
X8483533Y31547032D01*
X8506965Y31517650D01*
X8528178Y31465689D01*
X8540402Y31448948D01*
X8544557Y31379202D01*
X8510345Y31318282D01*
X8448628Y31285529D01*
X8423713Y31283000D01*
X8267255Y31283000D01*
X8200216Y31302685D01*
X8179573Y31319319D01*
X8089591Y31409302D01*
X8058290Y31466628D01*
X8057665Y31466444D01*
X8056820Y31469319D01*
X8056107Y31470626D01*
X8055581Y31473541D01*
X8055165Y31474956D01*
X8051883Y31482144D01*
X7995377Y31605873D01*
X7901128Y31714643D01*
X7780053Y31792453D01*
X7780051Y31792454D01*
X7780049Y31792455D01*
X7780050Y31792455D01*
X7641963Y31833000D01*
X7641961Y31833000D01*
X7498039Y31833000D01*
X7498036Y31833000D01*
X7359949Y31792455D01*
X7238873Y31714644D01*
X7144623Y31605874D01*
X7144622Y31605872D01*
X7084834Y31474957D01*
X7064353Y31332500D01*
X6720500Y31332500D01*
X6720500Y33634169D01*
X6740185Y33701207D01*
X6740901Y33702164D01*
X6745368Y33709118D01*
X6745377Y33709127D01*
X6805165Y33840043D01*
X6825647Y33982500D01*
X6805165Y34124957D01*
X6745377Y34255873D01*
X6651128Y34364643D01*
X6530053Y34442453D01*
X6530051Y34442454D01*
X6530049Y34442455D01*
X6530050Y34442455D01*
X6391963Y34483000D01*
X6391961Y34483000D01*
X6248039Y34483000D01*
X6248036Y34483000D01*
X6109949Y34442455D01*
X5988873Y34364644D01*
X5894623Y34255874D01*
X5894622Y34255872D01*
X5834834Y34124957D01*
X5814353Y33982500D01*
X5400000Y33982500D01*
X5400000Y38725000D01*
X7713590Y38725000D01*
X7760233Y38571234D01*
X7857728Y38388834D01*
X7857732Y38388827D01*
X7988944Y38228945D01*
X8148826Y38097733D01*
X8148833Y38097729D01*
X8331233Y38000234D01*
X8484999Y37953590D01*
X8484999Y38362699D01*
X8504683Y38429738D01*
X8557487Y38475493D01*
X8626646Y38485437D01*
X8633380Y38484469D01*
X8699237Y38475000D01*
X8699238Y38475000D01*
X8770762Y38475000D01*
X8770763Y38475000D01*
X8843353Y38485437D01*
X8912512Y38475493D01*
X8965315Y38429738D01*
X8985000Y38362699D01*
X8985000Y37953590D01*
X9138766Y38000234D01*
X9321166Y38097729D01*
X9321173Y38097733D01*
X9330391Y38105298D01*
X10225000Y38105298D01*
X10236602Y38046967D01*
X10236603Y38046966D01*
X10280808Y37980809D01*
X10346965Y37936604D01*
X10346966Y37936603D01*
X10405297Y37925001D01*
X10405301Y37925000D01*
X11025000Y37925000D01*
X11025000Y38362699D01*
X11044685Y38429738D01*
X11097489Y38475493D01*
X11166647Y38485437D01*
X11239237Y38475000D01*
X11239238Y38475000D01*
X11310762Y38475000D01*
X11310763Y38475000D01*
X11383353Y38485437D01*
X11452512Y38475493D01*
X11505315Y38429738D01*
X11525000Y38362699D01*
X11525000Y37925000D01*
X12144699Y37925000D01*
X12144702Y37925001D01*
X12203033Y37936603D01*
X12203034Y37936604D01*
X12269191Y37980809D01*
X12313396Y38046966D01*
X12313397Y38046967D01*
X12324999Y38105298D01*
X12325000Y38105301D01*
X12325000Y38725000D01*
X11888347Y38725000D01*
X11821308Y38744685D01*
X11775553Y38797489D01*
X11765609Y38866647D01*
X11769369Y38883933D01*
X11775000Y38903112D01*
X11775000Y39005324D01*
X14389499Y39005324D01*
X14389500Y39005322D01*
X14404032Y38932265D01*
X14404033Y38932261D01*
X14404034Y38932260D01*
X14459399Y38849399D01*
X14537089Y38797489D01*
X14542260Y38794034D01*
X14542264Y38794033D01*
X14615321Y38779501D01*
X14615324Y38779500D01*
X14615326Y38779500D01*
X16364676Y38779500D01*
X16364677Y38779501D01*
X16437740Y38794034D01*
X16520601Y38849399D01*
X16575966Y38932260D01*
X16590500Y39005326D01*
X16590500Y40754674D01*
X16590500Y40754677D01*
X16590499Y40754679D01*
X16575967Y40827736D01*
X16575966Y40827740D01*
X16575966Y40827741D01*
X16520601Y40910601D01*
X16437740Y40965966D01*
X16437739Y40965967D01*
X16437735Y40965968D01*
X16364677Y40980500D01*
X16364674Y40980500D01*
X14615326Y40980500D01*
X14615323Y40980500D01*
X14542264Y40965968D01*
X14542260Y40965967D01*
X14459399Y40910601D01*
X14404033Y40827740D01*
X14404032Y40827736D01*
X14389500Y40754679D01*
X14389499Y40754677D01*
X14389499Y39005324D01*
X11775000Y39005324D01*
X11775000Y39046889D01*
X11769369Y39066067D01*
X11769370Y39135936D01*
X11807145Y39194714D01*
X11870701Y39223738D01*
X11888347Y39225000D01*
X12325000Y39225000D01*
X12325000Y39844700D01*
X12324999Y39844703D01*
X12313397Y39903034D01*
X12313396Y39903035D01*
X12269191Y39969192D01*
X12203034Y40013397D01*
X12203033Y40013398D01*
X12144702Y40025000D01*
X11525000Y40025000D01*
X11525000Y39587302D01*
X11505315Y39520263D01*
X11452511Y39474508D01*
X11383355Y39464564D01*
X11310766Y39475000D01*
X11310763Y39475000D01*
X11239237Y39475000D01*
X11239233Y39475000D01*
X11166645Y39464564D01*
X11097487Y39474508D01*
X11044684Y39520264D01*
X11025000Y39587302D01*
X11025000Y40025000D01*
X10405297Y40025000D01*
X10346966Y40013398D01*
X10346965Y40013397D01*
X10280808Y39969192D01*
X10236603Y39903035D01*
X10236602Y39903034D01*
X10225000Y39844703D01*
X10225000Y39225000D01*
X10661653Y39225000D01*
X10728692Y39205315D01*
X10774447Y39152511D01*
X10784391Y39083353D01*
X10780631Y39066067D01*
X10775000Y39046889D01*
X10775000Y38903112D01*
X10780631Y38883933D01*
X10780630Y38814064D01*
X10742855Y38755286D01*
X10679299Y38726262D01*
X10661653Y38725000D01*
X10225000Y38725000D01*
X10225000Y38105298D01*
X9330391Y38105298D01*
X9481055Y38228945D01*
X9612267Y38388827D01*
X9612271Y38388834D01*
X9709766Y38571234D01*
X9756410Y38725000D01*
X9348347Y38725000D01*
X9281308Y38744685D01*
X9235553Y38797489D01*
X9225609Y38866647D01*
X9229369Y38883933D01*
X9235000Y38903112D01*
X9235000Y39046889D01*
X9229369Y39066067D01*
X9229370Y39135936D01*
X9267145Y39194714D01*
X9330701Y39223738D01*
X9348347Y39225000D01*
X9756410Y39225000D01*
X9709766Y39378767D01*
X9612271Y39561167D01*
X9612267Y39561174D01*
X9481055Y39721056D01*
X9321173Y39852268D01*
X9321166Y39852272D01*
X9138763Y39949768D01*
X8984999Y39996413D01*
X8985000Y39587302D01*
X8965315Y39520263D01*
X8912511Y39474508D01*
X8843355Y39464564D01*
X8770766Y39475000D01*
X8770763Y39475000D01*
X8699237Y39475000D01*
X8626646Y39464563D01*
X8557487Y39474507D01*
X8504683Y39520262D01*
X8484999Y39587301D01*
X8484999Y39996412D01*
X8331236Y39949768D01*
X8148833Y39852272D01*
X8148826Y39852268D01*
X7988944Y39721056D01*
X7857732Y39561174D01*
X7857728Y39561167D01*
X7760233Y39378767D01*
X7713590Y39225000D01*
X8121653Y39225000D01*
X8188692Y39205315D01*
X8234447Y39152511D01*
X8244391Y39083353D01*
X8240631Y39066067D01*
X8235000Y39046889D01*
X8235000Y38903112D01*
X8240631Y38883933D01*
X8240630Y38814064D01*
X8202855Y38755286D01*
X8139299Y38726262D01*
X8121653Y38725000D01*
X7713590Y38725000D01*
X5400000Y38725000D01*
X5400000Y41265000D01*
X7713590Y41265000D01*
X7760233Y41111234D01*
X7857728Y40928834D01*
X7857732Y40928827D01*
X7988944Y40768945D01*
X8148826Y40637733D01*
X8148833Y40637729D01*
X8331233Y40540234D01*
X8484999Y40493590D01*
X8484999Y40902699D01*
X8504683Y40969738D01*
X8557487Y41015493D01*
X8626646Y41025437D01*
X8633380Y41024469D01*
X8699237Y41015000D01*
X8699238Y41015000D01*
X8770762Y41015000D01*
X8770763Y41015000D01*
X8843353Y41025437D01*
X8912512Y41015493D01*
X8965315Y40969738D01*
X8985000Y40902699D01*
X8985000Y40493590D01*
X9138766Y40540234D01*
X9321166Y40637729D01*
X9321173Y40637733D01*
X9481055Y40768945D01*
X9612267Y40928827D01*
X9612271Y40928834D01*
X9709766Y41111234D01*
X9756410Y41265000D01*
X10253590Y41265000D01*
X10300233Y41111234D01*
X10397728Y40928834D01*
X10397732Y40928827D01*
X10528944Y40768945D01*
X10688826Y40637733D01*
X10688833Y40637729D01*
X10871233Y40540234D01*
X11025000Y40493590D01*
X11025000Y40902699D01*
X11044685Y40969738D01*
X11097489Y41015493D01*
X11166647Y41025437D01*
X11239237Y41015000D01*
X11239238Y41015000D01*
X11310762Y41015000D01*
X11310763Y41015000D01*
X11383353Y41025437D01*
X11452512Y41015493D01*
X11505315Y40969738D01*
X11525000Y40902699D01*
X11525000Y40493590D01*
X11678766Y40540234D01*
X11861166Y40637729D01*
X11861173Y40637733D01*
X12021055Y40768945D01*
X12152267Y40928827D01*
X12152271Y40928834D01*
X12249766Y41111234D01*
X12296410Y41265000D01*
X11888347Y41265000D01*
X11821308Y41284685D01*
X11775553Y41337489D01*
X11765609Y41406647D01*
X11769369Y41423933D01*
X11775000Y41443112D01*
X11775000Y41586889D01*
X11769369Y41606067D01*
X11769370Y41675936D01*
X11807145Y41734714D01*
X11870701Y41763738D01*
X11888347Y41765000D01*
X12296410Y41765000D01*
X12249766Y41918767D01*
X12152271Y42101167D01*
X12152267Y42101174D01*
X12021055Y42261056D01*
X11861173Y42392268D01*
X11861166Y42392272D01*
X11809290Y42420000D01*
X14384785Y42420000D01*
X14403602Y42216918D01*
X14459417Y42020753D01*
X14459422Y42020740D01*
X14550327Y41838179D01*
X14673237Y41675419D01*
X14823958Y41538020D01*
X14823960Y41538018D01*
X14923141Y41476608D01*
X14997363Y41430652D01*
X15187544Y41356976D01*
X15388024Y41319500D01*
X15388026Y41319500D01*
X15591974Y41319500D01*
X15591976Y41319500D01*
X15792456Y41356976D01*
X15982637Y41430652D01*
X16156041Y41538019D01*
X16306764Y41675421D01*
X16429673Y41838179D01*
X16520582Y42020750D01*
X16576397Y42216917D01*
X16595215Y42420000D01*
X16576397Y42623083D01*
X16520582Y42819250D01*
X16429673Y43001821D01*
X16306764Y43164579D01*
X16306762Y43164582D01*
X16156041Y43301981D01*
X16156039Y43301983D01*
X15982642Y43409345D01*
X15982635Y43409349D01*
X15829085Y43468834D01*
X15792456Y43483024D01*
X15591976Y43520500D01*
X15388024Y43520500D01*
X15187544Y43483024D01*
X15187541Y43483024D01*
X15187541Y43483023D01*
X14997364Y43409349D01*
X14997357Y43409345D01*
X14823960Y43301983D01*
X14823958Y43301981D01*
X14673237Y43164582D01*
X14550327Y43001822D01*
X14459422Y42819261D01*
X14459417Y42819248D01*
X14403602Y42623083D01*
X14384785Y42420001D01*
X14384785Y42420000D01*
X11809290Y42420000D01*
X11678763Y42489768D01*
X11525000Y42536413D01*
X11525000Y42127302D01*
X11505315Y42060263D01*
X11452511Y42014508D01*
X11383355Y42004564D01*
X11310766Y42015000D01*
X11310763Y42015000D01*
X11239237Y42015000D01*
X11239233Y42015000D01*
X11166645Y42004564D01*
X11097487Y42014508D01*
X11044684Y42060264D01*
X11025000Y42127302D01*
X11025000Y42536413D01*
X10871236Y42489768D01*
X10688833Y42392272D01*
X10688826Y42392268D01*
X10528944Y42261056D01*
X10397732Y42101174D01*
X10397728Y42101167D01*
X10300233Y41918767D01*
X10253590Y41765000D01*
X10661653Y41765000D01*
X10728692Y41745315D01*
X10774447Y41692511D01*
X10784391Y41623353D01*
X10780631Y41606067D01*
X10775000Y41586889D01*
X10775000Y41443112D01*
X10780631Y41423933D01*
X10780630Y41354064D01*
X10742855Y41295286D01*
X10679299Y41266262D01*
X10661653Y41265000D01*
X10253590Y41265000D01*
X9756410Y41265000D01*
X9348347Y41265000D01*
X9281308Y41284685D01*
X9235553Y41337489D01*
X9225609Y41406647D01*
X9229369Y41423933D01*
X9235000Y41443112D01*
X9235000Y41586889D01*
X9229369Y41606067D01*
X9229370Y41675936D01*
X9267145Y41734714D01*
X9330701Y41763738D01*
X9348347Y41765000D01*
X9756410Y41765000D01*
X9709766Y41918767D01*
X9612271Y42101167D01*
X9612267Y42101174D01*
X9481055Y42261056D01*
X9321173Y42392268D01*
X9321166Y42392272D01*
X9138763Y42489768D01*
X8984999Y42536413D01*
X8985000Y42127302D01*
X8965315Y42060263D01*
X8912511Y42014508D01*
X8843355Y42004564D01*
X8770766Y42015000D01*
X8770763Y42015000D01*
X8699237Y42015000D01*
X8626646Y42004563D01*
X8557487Y42014507D01*
X8504683Y42060262D01*
X8484999Y42127301D01*
X8484999Y42536412D01*
X8331236Y42489768D01*
X8148833Y42392272D01*
X8148826Y42392268D01*
X7988944Y42261056D01*
X7857732Y42101174D01*
X7857728Y42101167D01*
X7760233Y41918767D01*
X7713590Y41765000D01*
X8121653Y41765000D01*
X8188692Y41745315D01*
X8234447Y41692511D01*
X8244391Y41623353D01*
X8240631Y41606067D01*
X8235000Y41586889D01*
X8235000Y41443112D01*
X8240631Y41423933D01*
X8240630Y41354064D01*
X8202855Y41295286D01*
X8139299Y41266262D01*
X8121653Y41265000D01*
X7713590Y41265000D01*
X5400000Y41265000D01*
X5400000Y43805000D01*
X7713590Y43805000D01*
X7760233Y43651234D01*
X7857728Y43468834D01*
X7857732Y43468827D01*
X7988944Y43308945D01*
X8148826Y43177733D01*
X8148833Y43177729D01*
X8331233Y43080234D01*
X8484999Y43033590D01*
X8484999Y43442699D01*
X8504683Y43509738D01*
X8557487Y43555493D01*
X8626646Y43565437D01*
X8633380Y43564469D01*
X8699237Y43555000D01*
X8699238Y43555000D01*
X8770762Y43555000D01*
X8770763Y43555000D01*
X8843353Y43565437D01*
X8912512Y43555493D01*
X8965315Y43509738D01*
X8985000Y43442699D01*
X8985000Y43033590D01*
X9138766Y43080234D01*
X9321166Y43177729D01*
X9321173Y43177733D01*
X9481055Y43308945D01*
X9612267Y43468827D01*
X9612271Y43468834D01*
X9709766Y43651234D01*
X9756410Y43805000D01*
X10253590Y43805000D01*
X10300233Y43651234D01*
X10397728Y43468834D01*
X10397732Y43468827D01*
X10528944Y43308945D01*
X10688826Y43177733D01*
X10688833Y43177729D01*
X10871233Y43080234D01*
X11025000Y43033590D01*
X11025000Y43442699D01*
X11044685Y43509738D01*
X11097489Y43555493D01*
X11166647Y43565437D01*
X11239237Y43555000D01*
X11239238Y43555000D01*
X11310762Y43555000D01*
X11310763Y43555000D01*
X11383353Y43565437D01*
X11452512Y43555493D01*
X11505315Y43509738D01*
X11525000Y43442699D01*
X11525000Y43033590D01*
X11678766Y43080234D01*
X11861166Y43177729D01*
X11861173Y43177733D01*
X12021055Y43308945D01*
X12152267Y43468827D01*
X12152271Y43468834D01*
X12249766Y43651234D01*
X12296410Y43805000D01*
X11888347Y43805000D01*
X11821308Y43824685D01*
X11775553Y43877489D01*
X11765609Y43946647D01*
X11769369Y43963933D01*
X11775000Y43983112D01*
X11775000Y44126889D01*
X11769369Y44146067D01*
X11769370Y44215936D01*
X11807145Y44274714D01*
X11870701Y44303738D01*
X11888347Y44305000D01*
X12296410Y44305000D01*
X12249766Y44458767D01*
X12152271Y44641167D01*
X12152267Y44641174D01*
X12095783Y44710000D01*
X14468590Y44710000D01*
X14515233Y44556234D01*
X14612728Y44373834D01*
X14612732Y44373827D01*
X14743944Y44213945D01*
X14903826Y44082733D01*
X14903833Y44082729D01*
X15086233Y43985234D01*
X15240000Y43938590D01*
X15240000Y44347699D01*
X15259685Y44414738D01*
X15312489Y44460493D01*
X15381647Y44470437D01*
X15454237Y44460000D01*
X15454238Y44460000D01*
X15525762Y44460000D01*
X15525763Y44460000D01*
X15598353Y44470437D01*
X15667512Y44460493D01*
X15720315Y44414738D01*
X15740000Y44347699D01*
X15740000Y43938590D01*
X15893766Y43985234D01*
X16076166Y44082729D01*
X16076173Y44082733D01*
X16236055Y44213945D01*
X16367267Y44373827D01*
X16367271Y44373834D01*
X16464766Y44556234D01*
X16511410Y44710000D01*
X16103347Y44710000D01*
X16036308Y44729685D01*
X15990553Y44782489D01*
X15980609Y44851647D01*
X15984369Y44868933D01*
X15990000Y44888112D01*
X15990000Y45031889D01*
X15984369Y45051067D01*
X15984370Y45120936D01*
X16022145Y45179714D01*
X16085701Y45208738D01*
X16103347Y45210000D01*
X16511410Y45210000D01*
X16464766Y45363767D01*
X16367271Y45546167D01*
X16367267Y45546174D01*
X16236055Y45706056D01*
X16076173Y45837268D01*
X16076166Y45837272D01*
X15893763Y45934768D01*
X15740000Y45981413D01*
X15740000Y45572302D01*
X15720315Y45505263D01*
X15667511Y45459508D01*
X15598355Y45449564D01*
X15525766Y45460000D01*
X15525763Y45460000D01*
X15454237Y45460000D01*
X15454233Y45460000D01*
X15381645Y45449564D01*
X15312487Y45459508D01*
X15259684Y45505264D01*
X15240000Y45572302D01*
X15240000Y45981413D01*
X15086236Y45934768D01*
X14903833Y45837272D01*
X14903826Y45837268D01*
X14743944Y45706056D01*
X14612732Y45546174D01*
X14612728Y45546167D01*
X14515233Y45363767D01*
X14468590Y45210000D01*
X14876653Y45210000D01*
X14943692Y45190315D01*
X14989447Y45137511D01*
X14999391Y45068353D01*
X14995631Y45051067D01*
X14990000Y45031889D01*
X14990000Y44888112D01*
X14995631Y44868933D01*
X14995630Y44799064D01*
X14957855Y44740286D01*
X14894299Y44711262D01*
X14876653Y44710000D01*
X14468590Y44710000D01*
X12095783Y44710000D01*
X12021055Y44801056D01*
X11861173Y44932268D01*
X11861166Y44932272D01*
X11678763Y45029768D01*
X11525000Y45076413D01*
X11525000Y44667302D01*
X11505315Y44600263D01*
X11452511Y44554508D01*
X11383355Y44544564D01*
X11310766Y44555000D01*
X11310763Y44555000D01*
X11239237Y44555000D01*
X11239233Y44555000D01*
X11166645Y44544564D01*
X11097487Y44554508D01*
X11044684Y44600264D01*
X11025000Y44667302D01*
X11025000Y45076413D01*
X10871236Y45029768D01*
X10688833Y44932272D01*
X10688826Y44932268D01*
X10528944Y44801056D01*
X10397732Y44641174D01*
X10397728Y44641167D01*
X10300233Y44458767D01*
X10253590Y44305000D01*
X10661653Y44305000D01*
X10728692Y44285315D01*
X10774447Y44232511D01*
X10784391Y44163353D01*
X10780631Y44146067D01*
X10775000Y44126889D01*
X10775000Y43983112D01*
X10780631Y43963933D01*
X10780630Y43894064D01*
X10742855Y43835286D01*
X10679299Y43806262D01*
X10661653Y43805000D01*
X10253590Y43805000D01*
X9756410Y43805000D01*
X9348347Y43805000D01*
X9281308Y43824685D01*
X9235553Y43877489D01*
X9225609Y43946647D01*
X9229369Y43963933D01*
X9235000Y43983112D01*
X9235000Y44126889D01*
X9229369Y44146067D01*
X9229370Y44215936D01*
X9267145Y44274714D01*
X9330701Y44303738D01*
X9348347Y44305000D01*
X9756410Y44305000D01*
X9709766Y44458767D01*
X9612271Y44641167D01*
X9612267Y44641174D01*
X9481055Y44801056D01*
X9321173Y44932268D01*
X9321166Y44932272D01*
X9138763Y45029768D01*
X8984999Y45076413D01*
X8985000Y44667302D01*
X8965315Y44600263D01*
X8912511Y44554508D01*
X8843355Y44544564D01*
X8770766Y44555000D01*
X8770763Y44555000D01*
X8699237Y44555000D01*
X8626646Y44544563D01*
X8557487Y44554507D01*
X8504683Y44600262D01*
X8484999Y44667301D01*
X8484999Y45076412D01*
X8331236Y45029768D01*
X8148833Y44932272D01*
X8148826Y44932268D01*
X7988944Y44801056D01*
X7857732Y44641174D01*
X7857728Y44641167D01*
X7760233Y44458767D01*
X7713590Y44305000D01*
X8121653Y44305000D01*
X8188692Y44285315D01*
X8234447Y44232511D01*
X8244391Y44163353D01*
X8240631Y44146067D01*
X8235000Y44126889D01*
X8235000Y43983112D01*
X8240631Y43963933D01*
X8240630Y43894064D01*
X8202855Y43835286D01*
X8139299Y43806262D01*
X8121653Y43805000D01*
X7713590Y43805000D01*
X5400000Y43805000D01*
X5400000Y48930298D01*
X22910000Y48930298D01*
X22921602Y48871967D01*
X22921603Y48871966D01*
X22965808Y48805809D01*
X23031965Y48761604D01*
X23031966Y48761603D01*
X23090297Y48750001D01*
X23090301Y48750000D01*
X23710000Y48750000D01*
X23710000Y49187699D01*
X23729685Y49254738D01*
X23782489Y49300493D01*
X23851647Y49310437D01*
X23924237Y49300000D01*
X23924238Y49300000D01*
X23995762Y49300000D01*
X23995763Y49300000D01*
X24068353Y49310437D01*
X24137512Y49300493D01*
X24190315Y49254738D01*
X24210000Y49187699D01*
X24210000Y48750000D01*
X24829699Y48750000D01*
X24829702Y48750001D01*
X24888033Y48761603D01*
X24888034Y48761604D01*
X24954191Y48805809D01*
X24998396Y48871966D01*
X24998397Y48871967D01*
X25009999Y48930298D01*
X25010000Y48930301D01*
X25010000Y49550000D01*
X24573347Y49550000D01*
X24506308Y49569685D01*
X24460553Y49622489D01*
X24450609Y49691647D01*
X24454369Y49708933D01*
X24460000Y49728112D01*
X24460000Y49800000D01*
X25394785Y49800000D01*
X25413602Y49596918D01*
X25469417Y49400753D01*
X25469422Y49400740D01*
X25560327Y49218179D01*
X25683237Y49055419D01*
X25833958Y48918020D01*
X25833960Y48918018D01*
X25908336Y48871967D01*
X26007363Y48810652D01*
X26197544Y48736976D01*
X26398024Y48699500D01*
X26398026Y48699500D01*
X26601974Y48699500D01*
X26601976Y48699500D01*
X26802456Y48736976D01*
X26992637Y48810652D01*
X27166041Y48918019D01*
X27316764Y49055421D01*
X27439673Y49218179D01*
X27530582Y49400750D01*
X27573048Y49550000D01*
X28018590Y49550000D01*
X28065233Y49396234D01*
X28162728Y49213834D01*
X28162732Y49213827D01*
X28293944Y49053945D01*
X28453826Y48922733D01*
X28453833Y48922729D01*
X28636233Y48825234D01*
X28790000Y48778590D01*
X28790000Y49187699D01*
X28809685Y49254738D01*
X28862489Y49300493D01*
X28931647Y49310437D01*
X29004237Y49300000D01*
X29004238Y49300000D01*
X29075762Y49300000D01*
X29075763Y49300000D01*
X29148353Y49310437D01*
X29217512Y49300493D01*
X29270315Y49254738D01*
X29290000Y49187699D01*
X29290000Y48778590D01*
X29443766Y48825234D01*
X29626166Y48922729D01*
X29626173Y48922733D01*
X29786055Y49053945D01*
X29917267Y49213827D01*
X29917271Y49213834D01*
X30014766Y49396234D01*
X30061410Y49550000D01*
X29653347Y49550000D01*
X29586308Y49569685D01*
X29540553Y49622489D01*
X29530609Y49691647D01*
X29534369Y49708933D01*
X29540000Y49728112D01*
X29540000Y49800000D01*
X30474785Y49800000D01*
X30493602Y49596918D01*
X30549417Y49400753D01*
X30549422Y49400740D01*
X30640327Y49218179D01*
X30763237Y49055419D01*
X30913958Y48918020D01*
X30913960Y48918018D01*
X30988336Y48871967D01*
X31087363Y48810652D01*
X31277544Y48736976D01*
X31478024Y48699500D01*
X31478026Y48699500D01*
X31681974Y48699500D01*
X31681976Y48699500D01*
X31882456Y48736976D01*
X32072637Y48810652D01*
X32246041Y48918019D01*
X32396764Y49055421D01*
X32519673Y49218179D01*
X32610582Y49400750D01*
X32653048Y49550000D01*
X33098590Y49550000D01*
X33145233Y49396234D01*
X33242728Y49213834D01*
X33242732Y49213827D01*
X33373944Y49053945D01*
X33533826Y48922733D01*
X33533833Y48922729D01*
X33716233Y48825234D01*
X33870000Y48778590D01*
X33870000Y49187699D01*
X33889685Y49254738D01*
X33942489Y49300493D01*
X34011647Y49310437D01*
X34084237Y49300000D01*
X34084238Y49300000D01*
X34155762Y49300000D01*
X34155763Y49300000D01*
X34228353Y49310437D01*
X34297512Y49300493D01*
X34350315Y49254738D01*
X34370000Y49187699D01*
X34370000Y48778590D01*
X34523766Y48825234D01*
X34706166Y48922729D01*
X34706173Y48922733D01*
X34866055Y49053945D01*
X34997267Y49213827D01*
X34997271Y49213834D01*
X35094766Y49396234D01*
X35141410Y49550000D01*
X34733347Y49550000D01*
X34666308Y49569685D01*
X34620553Y49622489D01*
X34610609Y49691647D01*
X34614369Y49708933D01*
X34620000Y49728112D01*
X34620000Y49871889D01*
X34614369Y49891067D01*
X34614370Y49960936D01*
X34652145Y50019714D01*
X34715701Y50048738D01*
X34733347Y50050000D01*
X35141410Y50050000D01*
X35094766Y50203767D01*
X34997271Y50386167D01*
X34997267Y50386174D01*
X34866055Y50546056D01*
X34706173Y50677268D01*
X34706166Y50677272D01*
X34523763Y50774768D01*
X34370000Y50821413D01*
X34370000Y50412302D01*
X34350315Y50345263D01*
X34297511Y50299508D01*
X34228355Y50289564D01*
X34155766Y50300000D01*
X34155763Y50300000D01*
X34084237Y50300000D01*
X34084233Y50300000D01*
X34011645Y50289564D01*
X33942487Y50299508D01*
X33889684Y50345264D01*
X33870000Y50412302D01*
X33870000Y50821413D01*
X33716236Y50774768D01*
X33533833Y50677272D01*
X33533826Y50677268D01*
X33373944Y50546056D01*
X33242732Y50386174D01*
X33242728Y50386167D01*
X33145233Y50203767D01*
X33098590Y50050000D01*
X33506653Y50050000D01*
X33573692Y50030315D01*
X33619447Y49977511D01*
X33629391Y49908353D01*
X33625631Y49891067D01*
X33620000Y49871889D01*
X33620000Y49728112D01*
X33625631Y49708933D01*
X33625630Y49639064D01*
X33587855Y49580286D01*
X33524299Y49551262D01*
X33506653Y49550000D01*
X33098590Y49550000D01*
X32653048Y49550000D01*
X32666397Y49596917D01*
X32685215Y49800000D01*
X32666397Y50003083D01*
X32610582Y50199250D01*
X32519673Y50381821D01*
X32396764Y50544579D01*
X32396762Y50544582D01*
X32246041Y50681981D01*
X32246039Y50681983D01*
X32072642Y50789345D01*
X32072635Y50789349D01*
X31916075Y50850000D01*
X31882456Y50863024D01*
X31681976Y50900500D01*
X31478024Y50900500D01*
X31277544Y50863024D01*
X31277541Y50863024D01*
X31277541Y50863023D01*
X31087364Y50789349D01*
X31087357Y50789345D01*
X30913960Y50681983D01*
X30913958Y50681981D01*
X30763237Y50544582D01*
X30640327Y50381822D01*
X30549422Y50199261D01*
X30549417Y50199248D01*
X30493602Y50003083D01*
X30474785Y49800001D01*
X30474785Y49800000D01*
X29540000Y49800000D01*
X29540000Y49871889D01*
X29534369Y49891067D01*
X29534370Y49960936D01*
X29572145Y50019714D01*
X29635701Y50048738D01*
X29653347Y50050000D01*
X30061410Y50050000D01*
X30014766Y50203767D01*
X29917271Y50386167D01*
X29917267Y50386174D01*
X29786055Y50546056D01*
X29626173Y50677268D01*
X29626166Y50677272D01*
X29443763Y50774768D01*
X29290000Y50821413D01*
X29290000Y50412302D01*
X29270315Y50345263D01*
X29217511Y50299508D01*
X29148355Y50289564D01*
X29075766Y50300000D01*
X29075763Y50300000D01*
X29004237Y50300000D01*
X29004233Y50300000D01*
X28931645Y50289564D01*
X28862487Y50299508D01*
X28809684Y50345264D01*
X28790000Y50412302D01*
X28790000Y50821413D01*
X28636236Y50774768D01*
X28453833Y50677272D01*
X28453826Y50677268D01*
X28293944Y50546056D01*
X28162732Y50386174D01*
X28162728Y50386167D01*
X28065233Y50203767D01*
X28018590Y50050000D01*
X28426653Y50050000D01*
X28493692Y50030315D01*
X28539447Y49977511D01*
X28549391Y49908353D01*
X28545631Y49891067D01*
X28540000Y49871889D01*
X28540000Y49728112D01*
X28545631Y49708933D01*
X28545630Y49639064D01*
X28507855Y49580286D01*
X28444299Y49551262D01*
X28426653Y49550000D01*
X28018590Y49550000D01*
X27573048Y49550000D01*
X27586397Y49596917D01*
X27605215Y49800000D01*
X27586397Y50003083D01*
X27530582Y50199250D01*
X27439673Y50381821D01*
X27316764Y50544579D01*
X27316762Y50544582D01*
X27166041Y50681981D01*
X27166039Y50681983D01*
X26992642Y50789345D01*
X26992635Y50789349D01*
X26836075Y50850000D01*
X26802456Y50863024D01*
X26601976Y50900500D01*
X26398024Y50900500D01*
X26197544Y50863024D01*
X26197541Y50863024D01*
X26197541Y50863023D01*
X26007364Y50789349D01*
X26007357Y50789345D01*
X25833960Y50681983D01*
X25833958Y50681981D01*
X25683237Y50544582D01*
X25560327Y50381822D01*
X25469422Y50199261D01*
X25469417Y50199248D01*
X25413602Y50003083D01*
X25394785Y49800001D01*
X25394785Y49800000D01*
X24460000Y49800000D01*
X24460000Y49871889D01*
X24454369Y49891067D01*
X24454370Y49960936D01*
X24492145Y50019714D01*
X24555701Y50048738D01*
X24573347Y50050000D01*
X25010000Y50050000D01*
X25010000Y50669700D01*
X25009999Y50669703D01*
X24998397Y50728034D01*
X24998396Y50728035D01*
X24954191Y50794192D01*
X24888034Y50838397D01*
X24888033Y50838398D01*
X24829702Y50850000D01*
X24210000Y50850000D01*
X24210000Y50412302D01*
X24190315Y50345263D01*
X24137511Y50299508D01*
X24068355Y50289564D01*
X23995766Y50300000D01*
X23995763Y50300000D01*
X23924237Y50300000D01*
X23924233Y50300000D01*
X23851645Y50289564D01*
X23782487Y50299508D01*
X23729684Y50345264D01*
X23710000Y50412302D01*
X23710000Y50850000D01*
X23090297Y50850000D01*
X23031966Y50838398D01*
X23031965Y50838397D01*
X22965808Y50794192D01*
X22921603Y50728035D01*
X22921602Y50728034D01*
X22910000Y50669703D01*
X22910000Y50050000D01*
X23346653Y50050000D01*
X23413692Y50030315D01*
X23459447Y49977511D01*
X23469391Y49908353D01*
X23465631Y49891067D01*
X23460000Y49871889D01*
X23460000Y49728112D01*
X23465631Y49708933D01*
X23465630Y49639064D01*
X23427855Y49580286D01*
X23364299Y49551262D01*
X23346653Y49550000D01*
X22910000Y49550000D01*
X22910000Y48930298D01*
X5400000Y48930298D01*
X5400000Y52090000D01*
X22938590Y52090000D01*
X22985233Y51936234D01*
X23082728Y51753834D01*
X23082732Y51753827D01*
X23213944Y51593945D01*
X23373826Y51462733D01*
X23373833Y51462729D01*
X23556233Y51365234D01*
X23710000Y51318590D01*
X23710000Y51727699D01*
X23729685Y51794738D01*
X23782489Y51840493D01*
X23851647Y51850437D01*
X23924237Y51840000D01*
X23924238Y51840000D01*
X23995762Y51840000D01*
X23995763Y51840000D01*
X24068353Y51850437D01*
X24137512Y51840493D01*
X24190315Y51794738D01*
X24210000Y51727699D01*
X24210000Y51318590D01*
X24363766Y51365234D01*
X24546166Y51462729D01*
X24546173Y51462733D01*
X24706055Y51593945D01*
X24837267Y51753827D01*
X24837271Y51753834D01*
X24934766Y51936234D01*
X24981410Y52090000D01*
X24573347Y52090000D01*
X24506308Y52109685D01*
X24460553Y52162489D01*
X24450609Y52231647D01*
X24454369Y52248933D01*
X24460000Y52268112D01*
X24460000Y52340000D01*
X25394785Y52340000D01*
X25413602Y52136918D01*
X25469417Y51940753D01*
X25469422Y51940740D01*
X25560327Y51758179D01*
X25683237Y51595419D01*
X25833958Y51458020D01*
X25833960Y51458018D01*
X25933141Y51396608D01*
X26007363Y51350652D01*
X26197544Y51276976D01*
X26398024Y51239500D01*
X26398026Y51239500D01*
X26601974Y51239500D01*
X26601976Y51239500D01*
X26802456Y51276976D01*
X26992637Y51350652D01*
X27166041Y51458019D01*
X27316764Y51595421D01*
X27439673Y51758179D01*
X27530582Y51940750D01*
X27573048Y52090000D01*
X28018590Y52090000D01*
X28065233Y51936234D01*
X28162728Y51753834D01*
X28162732Y51753827D01*
X28293944Y51593945D01*
X28453826Y51462733D01*
X28453833Y51462729D01*
X28636233Y51365234D01*
X28790000Y51318590D01*
X28790000Y51727699D01*
X28809685Y51794738D01*
X28862489Y51840493D01*
X28931647Y51850437D01*
X29004237Y51840000D01*
X29004238Y51840000D01*
X29075762Y51840000D01*
X29075763Y51840000D01*
X29148353Y51850437D01*
X29217512Y51840493D01*
X29270315Y51794738D01*
X29290000Y51727699D01*
X29290000Y51318590D01*
X29443766Y51365234D01*
X29626166Y51462729D01*
X29626173Y51462733D01*
X29786055Y51593945D01*
X29917267Y51753827D01*
X29917271Y51753834D01*
X30014766Y51936234D01*
X30061410Y52090000D01*
X29653347Y52090000D01*
X29586308Y52109685D01*
X29540553Y52162489D01*
X29530609Y52231647D01*
X29534369Y52248933D01*
X29540000Y52268112D01*
X29540000Y52340000D01*
X30474785Y52340000D01*
X30493602Y52136918D01*
X30549417Y51940753D01*
X30549422Y51940740D01*
X30640327Y51758179D01*
X30763237Y51595419D01*
X30913958Y51458020D01*
X30913960Y51458018D01*
X31013141Y51396608D01*
X31087363Y51350652D01*
X31277544Y51276976D01*
X31478024Y51239500D01*
X31478026Y51239500D01*
X31681974Y51239500D01*
X31681976Y51239500D01*
X31882456Y51276976D01*
X32072637Y51350652D01*
X32246041Y51458019D01*
X32396764Y51595421D01*
X32519673Y51758179D01*
X32610582Y51940750D01*
X32653048Y52090000D01*
X33098590Y52090000D01*
X33145233Y51936234D01*
X33242728Y51753834D01*
X33242732Y51753827D01*
X33373944Y51593945D01*
X33533826Y51462733D01*
X33533833Y51462729D01*
X33716233Y51365234D01*
X33870000Y51318590D01*
X33870000Y51727699D01*
X33889685Y51794738D01*
X33942489Y51840493D01*
X34011647Y51850437D01*
X34084237Y51840000D01*
X34084238Y51840000D01*
X34155762Y51840000D01*
X34155763Y51840000D01*
X34228353Y51850437D01*
X34297512Y51840493D01*
X34350315Y51794738D01*
X34370000Y51727699D01*
X34370000Y51318590D01*
X34523766Y51365234D01*
X34706166Y51462729D01*
X34706173Y51462733D01*
X34866055Y51593945D01*
X34997267Y51753827D01*
X34997271Y51753834D01*
X35094766Y51936234D01*
X35141410Y52090000D01*
X34733347Y52090000D01*
X34666308Y52109685D01*
X34620553Y52162489D01*
X34610609Y52231647D01*
X34614369Y52248933D01*
X34620000Y52268112D01*
X34620000Y52411889D01*
X34614369Y52431067D01*
X34614370Y52500936D01*
X34652145Y52559714D01*
X34715701Y52588738D01*
X34733347Y52590000D01*
X35141410Y52590000D01*
X35094766Y52743767D01*
X34997271Y52926167D01*
X34997267Y52926174D01*
X34866055Y53086056D01*
X34706173Y53217268D01*
X34706166Y53217272D01*
X34523763Y53314768D01*
X34370000Y53361413D01*
X34370000Y52952302D01*
X34350315Y52885263D01*
X34297511Y52839508D01*
X34228355Y52829564D01*
X34155766Y52840000D01*
X34155763Y52840000D01*
X34084237Y52840000D01*
X34084233Y52840000D01*
X34011645Y52829564D01*
X33942487Y52839508D01*
X33889684Y52885264D01*
X33870000Y52952302D01*
X33870000Y53361413D01*
X33716236Y53314768D01*
X33533833Y53217272D01*
X33533826Y53217268D01*
X33373944Y53086056D01*
X33242732Y52926174D01*
X33242728Y52926167D01*
X33145233Y52743767D01*
X33098590Y52590000D01*
X33506653Y52590000D01*
X33573692Y52570315D01*
X33619447Y52517511D01*
X33629391Y52448353D01*
X33625631Y52431067D01*
X33620000Y52411889D01*
X33620000Y52268112D01*
X33625631Y52248933D01*
X33625630Y52179064D01*
X33587855Y52120286D01*
X33524299Y52091262D01*
X33506653Y52090000D01*
X33098590Y52090000D01*
X32653048Y52090000D01*
X32666397Y52136917D01*
X32685215Y52340000D01*
X32666397Y52543083D01*
X32610582Y52739250D01*
X32519673Y52921821D01*
X32396764Y53084579D01*
X32396762Y53084582D01*
X32246041Y53221981D01*
X32246039Y53221983D01*
X32072642Y53329345D01*
X32072635Y53329349D01*
X31977546Y53366186D01*
X31882456Y53403024D01*
X31681976Y53440500D01*
X31478024Y53440500D01*
X31277544Y53403024D01*
X31277541Y53403024D01*
X31277541Y53403023D01*
X31087364Y53329349D01*
X31087357Y53329345D01*
X30913960Y53221983D01*
X30913958Y53221981D01*
X30763237Y53084582D01*
X30640327Y52921822D01*
X30549422Y52739261D01*
X30549417Y52739248D01*
X30493602Y52543083D01*
X30474785Y52340001D01*
X30474785Y52340000D01*
X29540000Y52340000D01*
X29540000Y52411889D01*
X29534369Y52431067D01*
X29534370Y52500936D01*
X29572145Y52559714D01*
X29635701Y52588738D01*
X29653347Y52590000D01*
X30061410Y52590000D01*
X30014766Y52743767D01*
X29917271Y52926167D01*
X29917267Y52926174D01*
X29786055Y53086056D01*
X29626173Y53217268D01*
X29626166Y53217272D01*
X29443763Y53314768D01*
X29290000Y53361413D01*
X29290000Y52952302D01*
X29270315Y52885263D01*
X29217511Y52839508D01*
X29148355Y52829564D01*
X29075766Y52840000D01*
X29075763Y52840000D01*
X29004237Y52840000D01*
X29004233Y52840000D01*
X28931645Y52829564D01*
X28862487Y52839508D01*
X28809684Y52885264D01*
X28790000Y52952302D01*
X28790000Y53361413D01*
X28636236Y53314768D01*
X28453833Y53217272D01*
X28453826Y53217268D01*
X28293944Y53086056D01*
X28162732Y52926174D01*
X28162728Y52926167D01*
X28065233Y52743767D01*
X28018590Y52590000D01*
X28426653Y52590000D01*
X28493692Y52570315D01*
X28539447Y52517511D01*
X28549391Y52448353D01*
X28545631Y52431067D01*
X28540000Y52411889D01*
X28540000Y52268112D01*
X28545631Y52248933D01*
X28545630Y52179064D01*
X28507855Y52120286D01*
X28444299Y52091262D01*
X28426653Y52090000D01*
X28018590Y52090000D01*
X27573048Y52090000D01*
X27586397Y52136917D01*
X27605215Y52340000D01*
X27586397Y52543083D01*
X27530582Y52739250D01*
X27439673Y52921821D01*
X27316764Y53084579D01*
X27316762Y53084582D01*
X27166041Y53221981D01*
X27166039Y53221983D01*
X26992642Y53329345D01*
X26992635Y53329349D01*
X26897546Y53366186D01*
X26802456Y53403024D01*
X26601976Y53440500D01*
X26398024Y53440500D01*
X26197544Y53403024D01*
X26197541Y53403024D01*
X26197541Y53403023D01*
X26007364Y53329349D01*
X26007357Y53329345D01*
X25833960Y53221983D01*
X25833958Y53221981D01*
X25683237Y53084582D01*
X25560327Y52921822D01*
X25469422Y52739261D01*
X25469417Y52739248D01*
X25413602Y52543083D01*
X25394785Y52340001D01*
X25394785Y52340000D01*
X24460000Y52340000D01*
X24460000Y52411889D01*
X24454369Y52431067D01*
X24454370Y52500936D01*
X24492145Y52559714D01*
X24555701Y52588738D01*
X24573347Y52590000D01*
X24981410Y52590000D01*
X24934766Y52743767D01*
X24837271Y52926167D01*
X24837267Y52926174D01*
X24706055Y53086056D01*
X24546173Y53217268D01*
X24546166Y53217272D01*
X24363763Y53314768D01*
X24210000Y53361413D01*
X24210000Y52952302D01*
X24190315Y52885263D01*
X24137511Y52839508D01*
X24068355Y52829564D01*
X23995766Y52840000D01*
X23995763Y52840000D01*
X23924237Y52840000D01*
X23924233Y52840000D01*
X23851645Y52829564D01*
X23782487Y52839508D01*
X23729684Y52885264D01*
X23710000Y52952302D01*
X23710000Y53361413D01*
X23556236Y53314768D01*
X23373833Y53217272D01*
X23373826Y53217268D01*
X23213944Y53086056D01*
X23082732Y52926174D01*
X23082728Y52926167D01*
X22985233Y52743767D01*
X22938590Y52590000D01*
X23346653Y52590000D01*
X23413692Y52570315D01*
X23459447Y52517511D01*
X23469391Y52448353D01*
X23465631Y52431067D01*
X23460000Y52411889D01*
X23460000Y52268112D01*
X23465631Y52248933D01*
X23465630Y52179064D01*
X23427855Y52120286D01*
X23364299Y52091262D01*
X23346653Y52090000D01*
X22938590Y52090000D01*
X5400000Y52090000D01*
X5400000Y55476000D01*
X5419685Y55543039D01*
X5472489Y55588794D01*
X5524000Y55600000D01*
X45276000Y55600000D01*
X45343039Y55580315D01*
G37*
%TD.AperFunction*%
%TD*%
M02*
