%TF.GenerationSoftware,KiCad,Pcbnew,7.0.7-7.0.7~ubuntu23.04.1*%
%TF.CreationDate,2023-08-23T14:36:56+00:00*%
%TF.ProjectId,USBPDSINK01,55534250-4453-4494-9e4b-30312e6b6963,rev?*%
%TF.SameCoordinates,Original*%
%TF.FileFunction,Legend,Top*%
%TF.FilePolarity,Positive*%
%FSLAX46Y46*%
G04 Gerber Fmt 4.6, Leading zero omitted, Abs format (unit mm)*
G04 Created by KiCad (PCBNEW 7.0.7-7.0.7~ubuntu23.04.1) date 2023-08-23 14:36:56*
%MOMM*%
%LPD*%
G01*
G04 APERTURE LIST*
%ADD10C,0.150000*%
%ADD11C,0.280000*%
%ADD12C,0.300000*%
%ADD13C,0.120000*%
G04 APERTURE END LIST*
D10*
X10700000Y19100000D02*
X12760000Y19820000D01*
X12750000Y24900000D02*
X10750000Y25160000D01*
X10760000Y28180000D02*
X12750000Y27440000D01*
X10710000Y22130000D02*
X12770000Y22360000D01*
X12760000Y32510000D02*
X10730000Y32510000D01*
D11*
X18575876Y32364513D02*
X19242543Y32364513D01*
X18442543Y31907370D02*
X18909210Y33507370D01*
X18909210Y33507370D02*
X19375876Y31907370D01*
X20509210Y31907370D02*
X19842543Y31907370D01*
X19842543Y31907370D02*
X19842543Y33507370D01*
X20975876Y32745465D02*
X21442543Y32745465D01*
X21642543Y31907370D02*
X20975876Y31907370D01*
X20975876Y31907370D02*
X20975876Y33507370D01*
X20975876Y33507370D02*
X21642543Y33507370D01*
X23042543Y31907370D02*
X22575876Y32669275D01*
X22242543Y31907370D02*
X22242543Y33507370D01*
X22242543Y33507370D02*
X22775876Y33507370D01*
X22775876Y33507370D02*
X22909210Y33431180D01*
X22909210Y33431180D02*
X22975876Y33354989D01*
X22975876Y33354989D02*
X23042543Y33202608D01*
X23042543Y33202608D02*
X23042543Y32974037D01*
X23042543Y32974037D02*
X22975876Y32821656D01*
X22975876Y32821656D02*
X22909210Y32745465D01*
X22909210Y32745465D02*
X22775876Y32669275D01*
X22775876Y32669275D02*
X22242543Y32669275D01*
X23442543Y33507370D02*
X24242543Y33507370D01*
X23842543Y31907370D02*
X23842543Y33507370D01*
X18575876Y29407560D02*
X18775876Y29331370D01*
X18775876Y29331370D02*
X19109210Y29331370D01*
X19109210Y29331370D02*
X19242543Y29407560D01*
X19242543Y29407560D02*
X19309210Y29483751D01*
X19309210Y29483751D02*
X19375876Y29636132D01*
X19375876Y29636132D02*
X19375876Y29788513D01*
X19375876Y29788513D02*
X19309210Y29940894D01*
X19309210Y29940894D02*
X19242543Y30017084D01*
X19242543Y30017084D02*
X19109210Y30093275D01*
X19109210Y30093275D02*
X18842543Y30169465D01*
X18842543Y30169465D02*
X18709210Y30245656D01*
X18709210Y30245656D02*
X18642543Y30321846D01*
X18642543Y30321846D02*
X18575876Y30474227D01*
X18575876Y30474227D02*
X18575876Y30626608D01*
X18575876Y30626608D02*
X18642543Y30778989D01*
X18642543Y30778989D02*
X18709210Y30855180D01*
X18709210Y30855180D02*
X18842543Y30931370D01*
X18842543Y30931370D02*
X19175876Y30931370D01*
X19175876Y30931370D02*
X19375876Y30855180D01*
X19975876Y29331370D02*
X19975876Y30931370D01*
X20642543Y29331370D02*
X20642543Y30931370D01*
X20642543Y30931370D02*
X20975876Y30931370D01*
X20975876Y30931370D02*
X21175876Y30855180D01*
X21175876Y30855180D02*
X21309210Y30702799D01*
X21309210Y30702799D02*
X21375876Y30550418D01*
X21375876Y30550418D02*
X21442543Y30245656D01*
X21442543Y30245656D02*
X21442543Y30017084D01*
X21442543Y30017084D02*
X21375876Y29712322D01*
X21375876Y29712322D02*
X21309210Y29559941D01*
X21309210Y29559941D02*
X21175876Y29407560D01*
X21175876Y29407560D02*
X20975876Y29331370D01*
X20975876Y29331370D02*
X20642543Y29331370D01*
X22042543Y30169465D02*
X22509210Y30169465D01*
X22709210Y29331370D02*
X22042543Y29331370D01*
X22042543Y29331370D02*
X22042543Y30931370D01*
X22042543Y30931370D02*
X22709210Y30931370D01*
X18575876Y27212513D02*
X19242543Y27212513D01*
X18442543Y26755370D02*
X18909210Y28355370D01*
X18909210Y28355370D02*
X19375876Y26755370D01*
X19642543Y28355370D02*
X20442543Y28355370D01*
X20042543Y26755370D02*
X20042543Y28355370D01*
X21709210Y26907751D02*
X21642543Y26831560D01*
X21642543Y26831560D02*
X21442543Y26755370D01*
X21442543Y26755370D02*
X21309210Y26755370D01*
X21309210Y26755370D02*
X21109210Y26831560D01*
X21109210Y26831560D02*
X20975877Y26983941D01*
X20975877Y26983941D02*
X20909210Y27136322D01*
X20909210Y27136322D02*
X20842543Y27441084D01*
X20842543Y27441084D02*
X20842543Y27669656D01*
X20842543Y27669656D02*
X20909210Y27974418D01*
X20909210Y27974418D02*
X20975877Y28126799D01*
X20975877Y28126799D02*
X21109210Y28279180D01*
X21109210Y28279180D02*
X21309210Y28355370D01*
X21309210Y28355370D02*
X21442543Y28355370D01*
X21442543Y28355370D02*
X21642543Y28279180D01*
X21642543Y28279180D02*
X21709210Y28202989D01*
X22309210Y26755370D02*
X22309210Y28355370D01*
X22309210Y27593465D02*
X23109210Y27593465D01*
X23109210Y26755370D02*
X23109210Y28355370D01*
X19375876Y25703180D02*
X19242543Y25779370D01*
X19242543Y25779370D02*
X19042543Y25779370D01*
X19042543Y25779370D02*
X18842543Y25703180D01*
X18842543Y25703180D02*
X18709210Y25550799D01*
X18709210Y25550799D02*
X18642543Y25398418D01*
X18642543Y25398418D02*
X18575876Y25093656D01*
X18575876Y25093656D02*
X18575876Y24865084D01*
X18575876Y24865084D02*
X18642543Y24560322D01*
X18642543Y24560322D02*
X18709210Y24407941D01*
X18709210Y24407941D02*
X18842543Y24255560D01*
X18842543Y24255560D02*
X19042543Y24179370D01*
X19042543Y24179370D02*
X19175876Y24179370D01*
X19175876Y24179370D02*
X19375876Y24255560D01*
X19375876Y24255560D02*
X19442543Y24331751D01*
X19442543Y24331751D02*
X19442543Y24865084D01*
X19442543Y24865084D02*
X19175876Y24865084D01*
X20042543Y24179370D02*
X20042543Y25779370D01*
X20042543Y25779370D02*
X20575876Y25779370D01*
X20575876Y25779370D02*
X20709210Y25703180D01*
X20709210Y25703180D02*
X20775876Y25626989D01*
X20775876Y25626989D02*
X20842543Y25474608D01*
X20842543Y25474608D02*
X20842543Y25246037D01*
X20842543Y25246037D02*
X20775876Y25093656D01*
X20775876Y25093656D02*
X20709210Y25017465D01*
X20709210Y25017465D02*
X20575876Y24941275D01*
X20575876Y24941275D02*
X20042543Y24941275D01*
X21442543Y24179370D02*
X21442543Y25779370D01*
X22375877Y25779370D02*
X22642543Y25779370D01*
X22642543Y25779370D02*
X22775877Y25703180D01*
X22775877Y25703180D02*
X22909210Y25550799D01*
X22909210Y25550799D02*
X22975877Y25246037D01*
X22975877Y25246037D02*
X22975877Y24712703D01*
X22975877Y24712703D02*
X22909210Y24407941D01*
X22909210Y24407941D02*
X22775877Y24255560D01*
X22775877Y24255560D02*
X22642543Y24179370D01*
X22642543Y24179370D02*
X22375877Y24179370D01*
X22375877Y24179370D02*
X22242543Y24255560D01*
X22242543Y24255560D02*
X22109210Y24407941D01*
X22109210Y24407941D02*
X22042543Y24712703D01*
X22042543Y24712703D02*
X22042543Y25246037D01*
X22042543Y25246037D02*
X22109210Y25550799D01*
X22109210Y25550799D02*
X22242543Y25703180D01*
X22242543Y25703180D02*
X22375877Y25779370D01*
X18909210Y23203370D02*
X19175876Y23203370D01*
X19175876Y23203370D02*
X19309210Y23127180D01*
X19309210Y23127180D02*
X19442543Y22974799D01*
X19442543Y22974799D02*
X19509210Y22670037D01*
X19509210Y22670037D02*
X19509210Y22136703D01*
X19509210Y22136703D02*
X19442543Y21831941D01*
X19442543Y21831941D02*
X19309210Y21679560D01*
X19309210Y21679560D02*
X19175876Y21603370D01*
X19175876Y21603370D02*
X18909210Y21603370D01*
X18909210Y21603370D02*
X18775876Y21679560D01*
X18775876Y21679560D02*
X18642543Y21831941D01*
X18642543Y21831941D02*
X18575876Y22136703D01*
X18575876Y22136703D02*
X18575876Y22670037D01*
X18575876Y22670037D02*
X18642543Y22974799D01*
X18642543Y22974799D02*
X18775876Y23127180D01*
X18775876Y23127180D02*
X18909210Y23203370D01*
X20109210Y21603370D02*
X20109210Y23203370D01*
X20909210Y21603370D02*
X20309210Y22517656D01*
X20909210Y23203370D02*
X20109210Y22289084D01*
X21442543Y23050989D02*
X21509210Y23127180D01*
X21509210Y23127180D02*
X21642543Y23203370D01*
X21642543Y23203370D02*
X21975877Y23203370D01*
X21975877Y23203370D02*
X22109210Y23127180D01*
X22109210Y23127180D02*
X22175877Y23050989D01*
X22175877Y23050989D02*
X22242543Y22898608D01*
X22242543Y22898608D02*
X22242543Y22746227D01*
X22242543Y22746227D02*
X22175877Y22517656D01*
X22175877Y22517656D02*
X21375877Y21603370D01*
X21375877Y21603370D02*
X22242543Y21603370D01*
X18909210Y20627370D02*
X19175876Y20627370D01*
X19175876Y20627370D02*
X19309210Y20551180D01*
X19309210Y20551180D02*
X19442543Y20398799D01*
X19442543Y20398799D02*
X19509210Y20094037D01*
X19509210Y20094037D02*
X19509210Y19560703D01*
X19509210Y19560703D02*
X19442543Y19255941D01*
X19442543Y19255941D02*
X19309210Y19103560D01*
X19309210Y19103560D02*
X19175876Y19027370D01*
X19175876Y19027370D02*
X18909210Y19027370D01*
X18909210Y19027370D02*
X18775876Y19103560D01*
X18775876Y19103560D02*
X18642543Y19255941D01*
X18642543Y19255941D02*
X18575876Y19560703D01*
X18575876Y19560703D02*
X18575876Y20094037D01*
X18575876Y20094037D02*
X18642543Y20398799D01*
X18642543Y20398799D02*
X18775876Y20551180D01*
X18775876Y20551180D02*
X18909210Y20627370D01*
X20109210Y19027370D02*
X20109210Y20627370D01*
X20909210Y19027370D02*
X20309210Y19941656D01*
X20909210Y20627370D02*
X20109210Y19713084D01*
X21375877Y20627370D02*
X22242543Y20627370D01*
X22242543Y20627370D02*
X21775877Y20017846D01*
X21775877Y20017846D02*
X21975877Y20017846D01*
X21975877Y20017846D02*
X22109210Y19941656D01*
X22109210Y19941656D02*
X22175877Y19865465D01*
X22175877Y19865465D02*
X22242543Y19713084D01*
X22242543Y19713084D02*
X22242543Y19332132D01*
X22242543Y19332132D02*
X22175877Y19179751D01*
X22175877Y19179751D02*
X22109210Y19103560D01*
X22109210Y19103560D02*
X21975877Y19027370D01*
X21975877Y19027370D02*
X21575877Y19027370D01*
X21575877Y19027370D02*
X21442543Y19103560D01*
X21442543Y19103560D02*
X21375877Y19179751D01*
X19442543Y16451370D02*
X18975876Y17213275D01*
X18642543Y16451370D02*
X18642543Y18051370D01*
X18642543Y18051370D02*
X19175876Y18051370D01*
X19175876Y18051370D02*
X19309210Y17975180D01*
X19309210Y17975180D02*
X19375876Y17898989D01*
X19375876Y17898989D02*
X19442543Y17746608D01*
X19442543Y17746608D02*
X19442543Y17518037D01*
X19442543Y17518037D02*
X19375876Y17365656D01*
X19375876Y17365656D02*
X19309210Y17289465D01*
X19309210Y17289465D02*
X19175876Y17213275D01*
X19175876Y17213275D02*
X18642543Y17213275D01*
X19975876Y16527560D02*
X20175876Y16451370D01*
X20175876Y16451370D02*
X20509210Y16451370D01*
X20509210Y16451370D02*
X20642543Y16527560D01*
X20642543Y16527560D02*
X20709210Y16603751D01*
X20709210Y16603751D02*
X20775876Y16756132D01*
X20775876Y16756132D02*
X20775876Y16908513D01*
X20775876Y16908513D02*
X20709210Y17060894D01*
X20709210Y17060894D02*
X20642543Y17137084D01*
X20642543Y17137084D02*
X20509210Y17213275D01*
X20509210Y17213275D02*
X20242543Y17289465D01*
X20242543Y17289465D02*
X20109210Y17365656D01*
X20109210Y17365656D02*
X20042543Y17441846D01*
X20042543Y17441846D02*
X19975876Y17594227D01*
X19975876Y17594227D02*
X19975876Y17746608D01*
X19975876Y17746608D02*
X20042543Y17898989D01*
X20042543Y17898989D02*
X20109210Y17975180D01*
X20109210Y17975180D02*
X20242543Y18051370D01*
X20242543Y18051370D02*
X20575876Y18051370D01*
X20575876Y18051370D02*
X20775876Y17975180D01*
X21175876Y18051370D02*
X21975876Y18051370D01*
X21575876Y16451370D02*
X21575876Y18051370D01*
D12*
X29910828Y17461429D02*
X31125114Y17461429D01*
X31125114Y17461429D02*
X31267971Y17532858D01*
X31267971Y17532858D02*
X31339400Y17604286D01*
X31339400Y17604286D02*
X31410828Y17747144D01*
X31410828Y17747144D02*
X31410828Y18032858D01*
X31410828Y18032858D02*
X31339400Y18175715D01*
X31339400Y18175715D02*
X31267971Y18247144D01*
X31267971Y18247144D02*
X31125114Y18318572D01*
X31125114Y18318572D02*
X29910828Y18318572D01*
X31339400Y18961430D02*
X31410828Y19175715D01*
X31410828Y19175715D02*
X31410828Y19532858D01*
X31410828Y19532858D02*
X31339400Y19675715D01*
X31339400Y19675715D02*
X31267971Y19747144D01*
X31267971Y19747144D02*
X31125114Y19818573D01*
X31125114Y19818573D02*
X30982257Y19818573D01*
X30982257Y19818573D02*
X30839400Y19747144D01*
X30839400Y19747144D02*
X30767971Y19675715D01*
X30767971Y19675715D02*
X30696542Y19532858D01*
X30696542Y19532858D02*
X30625114Y19247144D01*
X30625114Y19247144D02*
X30553685Y19104287D01*
X30553685Y19104287D02*
X30482257Y19032858D01*
X30482257Y19032858D02*
X30339400Y18961430D01*
X30339400Y18961430D02*
X30196542Y18961430D01*
X30196542Y18961430D02*
X30053685Y19032858D01*
X30053685Y19032858D02*
X29982257Y19104287D01*
X29982257Y19104287D02*
X29910828Y19247144D01*
X29910828Y19247144D02*
X29910828Y19604287D01*
X29910828Y19604287D02*
X29982257Y19818573D01*
X30625114Y20961429D02*
X30696542Y21175715D01*
X30696542Y21175715D02*
X30767971Y21247144D01*
X30767971Y21247144D02*
X30910828Y21318572D01*
X30910828Y21318572D02*
X31125114Y21318572D01*
X31125114Y21318572D02*
X31267971Y21247144D01*
X31267971Y21247144D02*
X31339400Y21175715D01*
X31339400Y21175715D02*
X31410828Y21032858D01*
X31410828Y21032858D02*
X31410828Y20461429D01*
X31410828Y20461429D02*
X29910828Y20461429D01*
X29910828Y20461429D02*
X29910828Y20961429D01*
X29910828Y20961429D02*
X29982257Y21104286D01*
X29982257Y21104286D02*
X30053685Y21175715D01*
X30053685Y21175715D02*
X30196542Y21247144D01*
X30196542Y21247144D02*
X30339400Y21247144D01*
X30339400Y21247144D02*
X30482257Y21175715D01*
X30482257Y21175715D02*
X30553685Y21104286D01*
X30553685Y21104286D02*
X30625114Y20961429D01*
X30625114Y20961429D02*
X30625114Y20461429D01*
X31410828Y21961429D02*
X29910828Y21961429D01*
X29910828Y21961429D02*
X29910828Y22532858D01*
X29910828Y22532858D02*
X29982257Y22675715D01*
X29982257Y22675715D02*
X30053685Y22747144D01*
X30053685Y22747144D02*
X30196542Y22818572D01*
X30196542Y22818572D02*
X30410828Y22818572D01*
X30410828Y22818572D02*
X30553685Y22747144D01*
X30553685Y22747144D02*
X30625114Y22675715D01*
X30625114Y22675715D02*
X30696542Y22532858D01*
X30696542Y22532858D02*
X30696542Y21961429D01*
X31410828Y23461429D02*
X29910828Y23461429D01*
X29910828Y23461429D02*
X29910828Y23818572D01*
X29910828Y23818572D02*
X29982257Y24032858D01*
X29982257Y24032858D02*
X30125114Y24175715D01*
X30125114Y24175715D02*
X30267971Y24247144D01*
X30267971Y24247144D02*
X30553685Y24318572D01*
X30553685Y24318572D02*
X30767971Y24318572D01*
X30767971Y24318572D02*
X31053685Y24247144D01*
X31053685Y24247144D02*
X31196542Y24175715D01*
X31196542Y24175715D02*
X31339400Y24032858D01*
X31339400Y24032858D02*
X31410828Y23818572D01*
X31410828Y23818572D02*
X31410828Y23461429D01*
X31339400Y24890001D02*
X31410828Y25104286D01*
X31410828Y25104286D02*
X31410828Y25461429D01*
X31410828Y25461429D02*
X31339400Y25604286D01*
X31339400Y25604286D02*
X31267971Y25675715D01*
X31267971Y25675715D02*
X31125114Y25747144D01*
X31125114Y25747144D02*
X30982257Y25747144D01*
X30982257Y25747144D02*
X30839400Y25675715D01*
X30839400Y25675715D02*
X30767971Y25604286D01*
X30767971Y25604286D02*
X30696542Y25461429D01*
X30696542Y25461429D02*
X30625114Y25175715D01*
X30625114Y25175715D02*
X30553685Y25032858D01*
X30553685Y25032858D02*
X30482257Y24961429D01*
X30482257Y24961429D02*
X30339400Y24890001D01*
X30339400Y24890001D02*
X30196542Y24890001D01*
X30196542Y24890001D02*
X30053685Y24961429D01*
X30053685Y24961429D02*
X29982257Y25032858D01*
X29982257Y25032858D02*
X29910828Y25175715D01*
X29910828Y25175715D02*
X29910828Y25532858D01*
X29910828Y25532858D02*
X29982257Y25747144D01*
X31410828Y26390000D02*
X29910828Y26390000D01*
X31410828Y27104286D02*
X29910828Y27104286D01*
X29910828Y27104286D02*
X31410828Y27961429D01*
X31410828Y27961429D02*
X29910828Y27961429D01*
X31410828Y28675715D02*
X29910828Y28675715D01*
X31410828Y29532858D02*
X30553685Y28890001D01*
X29910828Y29532858D02*
X30767971Y28675715D01*
X29910828Y30461430D02*
X29910828Y30604287D01*
X29910828Y30604287D02*
X29982257Y30747144D01*
X29982257Y30747144D02*
X30053685Y30818572D01*
X30053685Y30818572D02*
X30196542Y30890001D01*
X30196542Y30890001D02*
X30482257Y30961430D01*
X30482257Y30961430D02*
X30839400Y30961430D01*
X30839400Y30961430D02*
X31125114Y30890001D01*
X31125114Y30890001D02*
X31267971Y30818572D01*
X31267971Y30818572D02*
X31339400Y30747144D01*
X31339400Y30747144D02*
X31410828Y30604287D01*
X31410828Y30604287D02*
X31410828Y30461430D01*
X31410828Y30461430D02*
X31339400Y30318572D01*
X31339400Y30318572D02*
X31267971Y30247144D01*
X31267971Y30247144D02*
X31125114Y30175715D01*
X31125114Y30175715D02*
X30839400Y30104287D01*
X30839400Y30104287D02*
X30482257Y30104287D01*
X30482257Y30104287D02*
X30196542Y30175715D01*
X30196542Y30175715D02*
X30053685Y30247144D01*
X30053685Y30247144D02*
X29982257Y30318572D01*
X29982257Y30318572D02*
X29910828Y30461430D01*
X31410828Y32390001D02*
X31410828Y31532858D01*
X31410828Y31961429D02*
X29910828Y31961429D01*
X29910828Y31961429D02*
X30125114Y31818572D01*
X30125114Y31818572D02*
X30267971Y31675715D01*
X30267971Y31675715D02*
X30339400Y31532858D01*
X32468685Y17390002D02*
X32397257Y17461430D01*
X32397257Y17461430D02*
X32325828Y17604287D01*
X32325828Y17604287D02*
X32325828Y17961430D01*
X32325828Y17961430D02*
X32397257Y18104287D01*
X32397257Y18104287D02*
X32468685Y18175716D01*
X32468685Y18175716D02*
X32611542Y18247145D01*
X32611542Y18247145D02*
X32754400Y18247145D01*
X32754400Y18247145D02*
X32968685Y18175716D01*
X32968685Y18175716D02*
X33825828Y17318573D01*
X33825828Y17318573D02*
X33825828Y18247145D01*
X32325828Y19175716D02*
X32325828Y19318573D01*
X32325828Y19318573D02*
X32397257Y19461430D01*
X32397257Y19461430D02*
X32468685Y19532858D01*
X32468685Y19532858D02*
X32611542Y19604287D01*
X32611542Y19604287D02*
X32897257Y19675716D01*
X32897257Y19675716D02*
X33254400Y19675716D01*
X33254400Y19675716D02*
X33540114Y19604287D01*
X33540114Y19604287D02*
X33682971Y19532858D01*
X33682971Y19532858D02*
X33754400Y19461430D01*
X33754400Y19461430D02*
X33825828Y19318573D01*
X33825828Y19318573D02*
X33825828Y19175716D01*
X33825828Y19175716D02*
X33754400Y19032858D01*
X33754400Y19032858D02*
X33682971Y18961430D01*
X33682971Y18961430D02*
X33540114Y18890001D01*
X33540114Y18890001D02*
X33254400Y18818573D01*
X33254400Y18818573D02*
X32897257Y18818573D01*
X32897257Y18818573D02*
X32611542Y18890001D01*
X32611542Y18890001D02*
X32468685Y18961430D01*
X32468685Y18961430D02*
X32397257Y19032858D01*
X32397257Y19032858D02*
X32325828Y19175716D01*
X32468685Y20247144D02*
X32397257Y20318572D01*
X32397257Y20318572D02*
X32325828Y20461429D01*
X32325828Y20461429D02*
X32325828Y20818572D01*
X32325828Y20818572D02*
X32397257Y20961429D01*
X32397257Y20961429D02*
X32468685Y21032858D01*
X32468685Y21032858D02*
X32611542Y21104287D01*
X32611542Y21104287D02*
X32754400Y21104287D01*
X32754400Y21104287D02*
X32968685Y21032858D01*
X32968685Y21032858D02*
X33825828Y20175715D01*
X33825828Y20175715D02*
X33825828Y21104287D01*
X32325828Y21604286D02*
X32325828Y22532858D01*
X32325828Y22532858D02*
X32897257Y22032858D01*
X32897257Y22032858D02*
X32897257Y22247143D01*
X32897257Y22247143D02*
X32968685Y22390000D01*
X32968685Y22390000D02*
X33040114Y22461429D01*
X33040114Y22461429D02*
X33182971Y22532858D01*
X33182971Y22532858D02*
X33540114Y22532858D01*
X33540114Y22532858D02*
X33682971Y22461429D01*
X33682971Y22461429D02*
X33754400Y22390000D01*
X33754400Y22390000D02*
X33825828Y22247143D01*
X33825828Y22247143D02*
X33825828Y21818572D01*
X33825828Y21818572D02*
X33754400Y21675715D01*
X33754400Y21675715D02*
X33682971Y21604286D01*
X33825828Y24318571D02*
X32825828Y24318571D01*
X32968685Y24318571D02*
X32897257Y24390000D01*
X32897257Y24390000D02*
X32825828Y24532857D01*
X32825828Y24532857D02*
X32825828Y24747143D01*
X32825828Y24747143D02*
X32897257Y24890000D01*
X32897257Y24890000D02*
X33040114Y24961428D01*
X33040114Y24961428D02*
X33825828Y24961428D01*
X33040114Y24961428D02*
X32897257Y25032857D01*
X32897257Y25032857D02*
X32825828Y25175714D01*
X32825828Y25175714D02*
X32825828Y25390000D01*
X32825828Y25390000D02*
X32897257Y25532857D01*
X32897257Y25532857D02*
X33040114Y25604286D01*
X33040114Y25604286D02*
X33825828Y25604286D01*
X33825828Y26532857D02*
X33754400Y26390000D01*
X33754400Y26390000D02*
X33611542Y26318571D01*
X33611542Y26318571D02*
X32325828Y26318571D01*
X33825828Y27747142D02*
X33040114Y27747142D01*
X33040114Y27747142D02*
X32897257Y27675714D01*
X32897257Y27675714D02*
X32825828Y27532857D01*
X32825828Y27532857D02*
X32825828Y27247142D01*
X32825828Y27247142D02*
X32897257Y27104285D01*
X33754400Y27747142D02*
X33825828Y27604285D01*
X33825828Y27604285D02*
X33825828Y27247142D01*
X33825828Y27247142D02*
X33754400Y27104285D01*
X33754400Y27104285D02*
X33611542Y27032857D01*
X33611542Y27032857D02*
X33468685Y27032857D01*
X33468685Y27032857D02*
X33325828Y27104285D01*
X33325828Y27104285D02*
X33254400Y27247142D01*
X33254400Y27247142D02*
X33254400Y27604285D01*
X33254400Y27604285D02*
X33182971Y27747142D01*
X33825828Y28461428D02*
X32325828Y28461428D01*
X32897257Y28461428D02*
X32825828Y28604285D01*
X32825828Y28604285D02*
X32825828Y28890000D01*
X32825828Y28890000D02*
X32897257Y29032857D01*
X32897257Y29032857D02*
X32968685Y29104285D01*
X32968685Y29104285D02*
X33111542Y29175714D01*
X33111542Y29175714D02*
X33540114Y29175714D01*
X33540114Y29175714D02*
X33682971Y29104285D01*
X33682971Y29104285D02*
X33754400Y29032857D01*
X33754400Y29032857D02*
X33825828Y28890000D01*
X33825828Y28890000D02*
X33825828Y28604285D01*
X33825828Y28604285D02*
X33754400Y28461428D01*
X33682971Y29818571D02*
X33754400Y29890000D01*
X33754400Y29890000D02*
X33825828Y29818571D01*
X33825828Y29818571D02*
X33754400Y29747143D01*
X33754400Y29747143D02*
X33682971Y29818571D01*
X33682971Y29818571D02*
X33825828Y29818571D01*
X33754400Y31175714D02*
X33825828Y31032857D01*
X33825828Y31032857D02*
X33825828Y30747143D01*
X33825828Y30747143D02*
X33754400Y30604286D01*
X33754400Y30604286D02*
X33682971Y30532857D01*
X33682971Y30532857D02*
X33540114Y30461429D01*
X33540114Y30461429D02*
X33111542Y30461429D01*
X33111542Y30461429D02*
X32968685Y30532857D01*
X32968685Y30532857D02*
X32897257Y30604286D01*
X32897257Y30604286D02*
X32825828Y30747143D01*
X32825828Y30747143D02*
X32825828Y31032857D01*
X32825828Y31032857D02*
X32897257Y31175714D01*
X32825828Y31675714D02*
X32825828Y32461428D01*
X32825828Y32461428D02*
X33825828Y31675714D01*
X33825828Y31675714D02*
X33825828Y32461428D01*
D10*
X21084819Y50736667D02*
X21799104Y50736667D01*
X21799104Y50736667D02*
X21941961Y50689048D01*
X21941961Y50689048D02*
X22037200Y50593810D01*
X22037200Y50593810D02*
X22084819Y50450953D01*
X22084819Y50450953D02*
X22084819Y50355715D01*
X21180057Y51165239D02*
X21132438Y51212858D01*
X21132438Y51212858D02*
X21084819Y51308096D01*
X21084819Y51308096D02*
X21084819Y51546191D01*
X21084819Y51546191D02*
X21132438Y51641429D01*
X21132438Y51641429D02*
X21180057Y51689048D01*
X21180057Y51689048D02*
X21275295Y51736667D01*
X21275295Y51736667D02*
X21370533Y51736667D01*
X21370533Y51736667D02*
X21513390Y51689048D01*
X21513390Y51689048D02*
X22084819Y51117620D01*
X22084819Y51117620D02*
X22084819Y51736667D01*
X14076666Y38117681D02*
X14076666Y37403396D01*
X14076666Y37403396D02*
X14029047Y37260539D01*
X14029047Y37260539D02*
X13933809Y37165300D01*
X13933809Y37165300D02*
X13790952Y37117681D01*
X13790952Y37117681D02*
X13695714Y37117681D01*
X14552857Y37117681D02*
X14552857Y38117681D01*
X14552857Y38117681D02*
X14933809Y38117681D01*
X14933809Y38117681D02*
X15029047Y38070062D01*
X15029047Y38070062D02*
X15076666Y38022443D01*
X15076666Y38022443D02*
X15124285Y37927205D01*
X15124285Y37927205D02*
X15124285Y37784348D01*
X15124285Y37784348D02*
X15076666Y37689110D01*
X15076666Y37689110D02*
X15029047Y37641491D01*
X15029047Y37641491D02*
X14933809Y37593872D01*
X14933809Y37593872D02*
X14552857Y37593872D01*
X15457619Y38117681D02*
X16076666Y38117681D01*
X16076666Y38117681D02*
X15743333Y37736729D01*
X15743333Y37736729D02*
X15886190Y37736729D01*
X15886190Y37736729D02*
X15981428Y37689110D01*
X15981428Y37689110D02*
X16029047Y37641491D01*
X16029047Y37641491D02*
X16076666Y37546253D01*
X16076666Y37546253D02*
X16076666Y37308158D01*
X16076666Y37308158D02*
X16029047Y37212920D01*
X16029047Y37212920D02*
X15981428Y37165300D01*
X15981428Y37165300D02*
X15886190Y37117681D01*
X15886190Y37117681D02*
X15600476Y37117681D01*
X15600476Y37117681D02*
X15505238Y37165300D01*
X15505238Y37165300D02*
X15457619Y37212920D01*
X9091666Y37212681D02*
X9091666Y36498396D01*
X9091666Y36498396D02*
X9044047Y36355539D01*
X9044047Y36355539D02*
X8948809Y36260300D01*
X8948809Y36260300D02*
X8805952Y36212681D01*
X8805952Y36212681D02*
X8710714Y36212681D01*
X9996428Y36879348D02*
X9996428Y36212681D01*
X9758333Y37260300D02*
X9520238Y36546015D01*
X9520238Y36546015D02*
X10139285Y36546015D01*
X26721666Y19445181D02*
X26721666Y18730896D01*
X26721666Y18730896D02*
X26674047Y18588039D01*
X26674047Y18588039D02*
X26578809Y18492800D01*
X26578809Y18492800D02*
X26435952Y18445181D01*
X26435952Y18445181D02*
X26340714Y18445181D01*
X27674047Y19445181D02*
X27197857Y19445181D01*
X27197857Y19445181D02*
X27150238Y18968991D01*
X27150238Y18968991D02*
X27197857Y19016610D01*
X27197857Y19016610D02*
X27293095Y19064229D01*
X27293095Y19064229D02*
X27531190Y19064229D01*
X27531190Y19064229D02*
X27626428Y19016610D01*
X27626428Y19016610D02*
X27674047Y18968991D01*
X27674047Y18968991D02*
X27721666Y18873753D01*
X27721666Y18873753D02*
X27721666Y18635658D01*
X27721666Y18635658D02*
X27674047Y18540420D01*
X27674047Y18540420D02*
X27626428Y18492800D01*
X27626428Y18492800D02*
X27531190Y18445181D01*
X27531190Y18445181D02*
X27293095Y18445181D01*
X27293095Y18445181D02*
X27197857Y18492800D01*
X27197857Y18492800D02*
X27150238Y18540420D01*
X40936666Y26975181D02*
X40936666Y26260896D01*
X40936666Y26260896D02*
X40889047Y26118039D01*
X40889047Y26118039D02*
X40793809Y26022800D01*
X40793809Y26022800D02*
X40650952Y25975181D01*
X40650952Y25975181D02*
X40555714Y25975181D01*
X41317619Y26975181D02*
X41936666Y26975181D01*
X41936666Y26975181D02*
X41603333Y26594229D01*
X41603333Y26594229D02*
X41746190Y26594229D01*
X41746190Y26594229D02*
X41841428Y26546610D01*
X41841428Y26546610D02*
X41889047Y26498991D01*
X41889047Y26498991D02*
X41936666Y26403753D01*
X41936666Y26403753D02*
X41936666Y26165658D01*
X41936666Y26165658D02*
X41889047Y26070420D01*
X41889047Y26070420D02*
X41841428Y26022800D01*
X41841428Y26022800D02*
X41746190Y25975181D01*
X41746190Y25975181D02*
X41460476Y25975181D01*
X41460476Y25975181D02*
X41365238Y26022800D01*
X41365238Y26022800D02*
X41317619Y26070420D01*
X38396666Y32675181D02*
X38396666Y31960896D01*
X38396666Y31960896D02*
X38349047Y31818039D01*
X38349047Y31818039D02*
X38253809Y31722800D01*
X38253809Y31722800D02*
X38110952Y31675181D01*
X38110952Y31675181D02*
X38015714Y31675181D01*
X38872857Y31675181D02*
X38872857Y32675181D01*
X38872857Y32675181D02*
X39253809Y32675181D01*
X39253809Y32675181D02*
X39349047Y32627562D01*
X39349047Y32627562D02*
X39396666Y32579943D01*
X39396666Y32579943D02*
X39444285Y32484705D01*
X39444285Y32484705D02*
X39444285Y32341848D01*
X39444285Y32341848D02*
X39396666Y32246610D01*
X39396666Y32246610D02*
X39349047Y32198991D01*
X39349047Y32198991D02*
X39253809Y32151372D01*
X39253809Y32151372D02*
X38872857Y32151372D01*
X40301428Y32341848D02*
X40301428Y31675181D01*
X40063333Y32722800D02*
X39825238Y32008515D01*
X39825238Y32008515D02*
X40444285Y32008515D01*
X25036666Y38357681D02*
X25036666Y37643396D01*
X25036666Y37643396D02*
X24989047Y37500539D01*
X24989047Y37500539D02*
X24893809Y37405300D01*
X24893809Y37405300D02*
X24750952Y37357681D01*
X24750952Y37357681D02*
X24655714Y37357681D01*
X25512857Y37357681D02*
X25512857Y38357681D01*
X25512857Y38357681D02*
X25893809Y38357681D01*
X25893809Y38357681D02*
X25989047Y38310062D01*
X25989047Y38310062D02*
X26036666Y38262443D01*
X26036666Y38262443D02*
X26084285Y38167205D01*
X26084285Y38167205D02*
X26084285Y38024348D01*
X26084285Y38024348D02*
X26036666Y37929110D01*
X26036666Y37929110D02*
X25989047Y37881491D01*
X25989047Y37881491D02*
X25893809Y37833872D01*
X25893809Y37833872D02*
X25512857Y37833872D01*
X27036666Y37357681D02*
X26465238Y37357681D01*
X26750952Y37357681D02*
X26750952Y38357681D01*
X26750952Y38357681D02*
X26655714Y38214824D01*
X26655714Y38214824D02*
X26560476Y38119586D01*
X26560476Y38119586D02*
X26465238Y38071967D01*
D13*
%TO.C,J2*%
X22630000Y48470000D02*
X22630000Y49800000D01*
X23960000Y48470000D02*
X22630000Y48470000D01*
X25230000Y48470000D02*
X35450000Y48470000D01*
X25230000Y48470000D02*
X25230000Y51070000D01*
X35450000Y48470000D02*
X35450000Y53670000D01*
X22630000Y51070000D02*
X22630000Y53670000D01*
X25230000Y51070000D02*
X22630000Y51070000D01*
X22630000Y53670000D02*
X35450000Y53670000D01*
%TO.C,JP3*%
X16820000Y38550000D02*
X15490000Y38550000D01*
X16820000Y39880000D02*
X16820000Y38550000D01*
X16820000Y41150000D02*
X16820000Y46290000D01*
X16820000Y41150000D02*
X14160000Y41150000D01*
X16820000Y46290000D02*
X14160000Y46290000D01*
X14160000Y41150000D02*
X14160000Y46290000D01*
%TO.C,J4*%
X12605000Y37645000D02*
X11275000Y37645000D01*
X12605000Y38975000D02*
X12605000Y37645000D01*
X12605000Y40245000D02*
X12605000Y45385000D01*
X12605000Y40245000D02*
X10005000Y40245000D01*
X12605000Y45385000D02*
X7405000Y45385000D01*
X10005000Y37645000D02*
X7405000Y37645000D01*
X10005000Y40245000D02*
X10005000Y37645000D01*
X7405000Y37645000D02*
X7405000Y45385000D01*
%TO.C,J5*%
X24455000Y17900000D02*
X25785000Y17900000D01*
X24455000Y16570000D02*
X24455000Y17900000D01*
X24455000Y15300000D02*
X24455000Y15240000D01*
X24455000Y15300000D02*
X27055000Y15300000D01*
X24455000Y15240000D02*
X29655000Y15240000D01*
X27055000Y17900000D02*
X29655000Y17900000D01*
X27055000Y15300000D02*
X27055000Y17900000D01*
X29655000Y17900000D02*
X29655000Y15240000D01*
%TO.C,J3*%
X38670000Y25430000D02*
X40000000Y25430000D01*
X38670000Y24100000D02*
X38670000Y25430000D01*
X38670000Y22830000D02*
X38670000Y15150000D01*
X38670000Y22830000D02*
X41270000Y22830000D01*
X38670000Y15150000D02*
X43870000Y15150000D01*
X41270000Y25430000D02*
X43870000Y25430000D01*
X41270000Y22830000D02*
X41270000Y25430000D01*
X43870000Y25430000D02*
X43870000Y15150000D01*
%TO.C,J6*%
X12925000Y33855000D02*
X14255000Y33855000D01*
X12925000Y32525000D02*
X12925000Y33855000D01*
X12925000Y31255000D02*
X12925000Y15955000D01*
X12925000Y31255000D02*
X15525000Y31255000D01*
X12925000Y15955000D02*
X18125000Y15955000D01*
X15525000Y33855000D02*
X18125000Y33855000D01*
X15525000Y31255000D02*
X15525000Y33855000D01*
X18125000Y33855000D02*
X18125000Y15955000D01*
%TO.C,JP4*%
X36630000Y31130000D02*
X37960000Y31130000D01*
X36630000Y29800000D02*
X36630000Y31130000D01*
X36630000Y28530000D02*
X36630000Y28470000D01*
X36630000Y28530000D02*
X39230000Y28530000D01*
X36630000Y28470000D02*
X41830000Y28470000D01*
X39230000Y31130000D02*
X41830000Y31130000D01*
X39230000Y28530000D02*
X39230000Y31130000D01*
X41830000Y31130000D02*
X41830000Y28470000D01*
%TO.C,JP1*%
X23270000Y36812500D02*
X24600000Y36812500D01*
X23270000Y35482500D02*
X23270000Y36812500D01*
X23270000Y34212500D02*
X23270000Y34152500D01*
X23270000Y34212500D02*
X25870000Y34212500D01*
X23270000Y34152500D02*
X28470000Y34152500D01*
X25870000Y36812500D02*
X28470000Y36812500D01*
X25870000Y34212500D02*
X25870000Y36812500D01*
X28470000Y36812500D02*
X28470000Y34152500D01*
%TD*%
M02*
