%TF.GenerationSoftware,KiCad,Pcbnew,7.0.7-7.0.7~ubuntu23.04.1*%
%TF.CreationDate,2023-09-24T09:00:55+00:00*%
%TF.ProjectId,USBPDSINK01,55534250-4453-4494-9e4b-30312e6b6963,rev?*%
%TF.SameCoordinates,Original*%
%TF.FileFunction,Profile,NP*%
%FSLAX46Y46*%
G04 Gerber Fmt 4.6, Leading zero omitted, Abs format (unit mm)*
G04 Created by KiCad (PCBNEW 7.0.7-7.0.7~ubuntu23.04.1) date 2023-09-24 09:00:55*
%MOMM*%
%LPD*%
G01*
G04 APERTURE LIST*
%TA.AperFunction,Profile*%
%ADD10C,0.055880*%
%TD*%
%TA.AperFunction,Profile*%
%ADD11C,0.150000*%
%TD*%
%TA.AperFunction,Profile*%
%ADD12C,0.050000*%
%TD*%
G04 APERTURE END LIST*
D10*
X5328600Y42980000D02*
X2674600Y42980000D01*
X25400000Y55626000D02*
X25400000Y58280000D01*
D11*
X5334000Y55626000D02*
X45466000Y55626000D01*
X45466000Y5334001D01*
X5334000Y5334001D01*
X5334000Y55626000D01*
D10*
X45499000Y15480000D02*
X48153000Y15480000D01*
X2668400Y15480000D02*
X5322400Y15480000D01*
X48159200Y42980000D02*
X45505200Y42980000D01*
D12*
%TO.C,D5*%
X9325000Y26780000D02*
X9325000Y28180000D01*
X9625000Y28480000D02*
X11225000Y28480000D01*
X11225000Y26480000D02*
X9625000Y26480000D01*
X11525000Y28180000D02*
X11525000Y26780000D01*
X9625000Y28480000D02*
G75*
G03*
X9325000Y28180000I0J-300000D01*
G01*
X9325000Y26780000D02*
G75*
G03*
X9625000Y26480000I300000J0D01*
G01*
X11525000Y28180000D02*
G75*
G03*
X11225000Y28480000I-300000J0D01*
G01*
X11225000Y26480000D02*
G75*
G03*
X11525000Y26780000I0J300000D01*
G01*
%TO.C,D3*%
X9315000Y21646668D02*
X9315000Y23046668D01*
X9615000Y23346668D02*
X11215000Y23346668D01*
X11215000Y21346668D02*
X9615000Y21346668D01*
X11515000Y23046668D02*
X11515000Y21646668D01*
X9615000Y23346668D02*
G75*
G03*
X9315000Y23046668I0J-300000D01*
G01*
X9315000Y21646668D02*
G75*
G03*
X9615000Y21346668I300000J0D01*
G01*
X11515000Y23046668D02*
G75*
G03*
X11215000Y23346668I-300000J0D01*
G01*
X11215000Y21346668D02*
G75*
G03*
X11515000Y21646668I0J300000D01*
G01*
%TO.C,D2*%
X9325000Y24213334D02*
X9325000Y25613334D01*
X9625000Y25913334D02*
X11225000Y25913334D01*
X11225000Y23913334D02*
X9625000Y23913334D01*
X11525000Y25613334D02*
X11525000Y24213334D01*
X9625000Y25913334D02*
G75*
G03*
X9325000Y25613334I0J-300000D01*
G01*
X9325000Y24213334D02*
G75*
G03*
X9625000Y23913334I300000J0D01*
G01*
X11525000Y25613334D02*
G75*
G03*
X11225000Y25913334I-300000J0D01*
G01*
X11225000Y23913334D02*
G75*
G03*
X11525000Y24213334I0J300000D01*
G01*
%TO.C,D1*%
X9290000Y31815000D02*
X9290000Y33215000D01*
X9590000Y33515000D02*
X11190000Y33515000D01*
X11190000Y31515000D02*
X9590000Y31515000D01*
X11490000Y33215000D02*
X11490000Y31815000D01*
X9590000Y33515000D02*
G75*
G03*
X9290000Y33215000I0J-300000D01*
G01*
X9290000Y31815000D02*
G75*
G03*
X9590000Y31515000I300000J0D01*
G01*
X11490000Y33215000D02*
G75*
G03*
X11190000Y33515000I-300000J0D01*
G01*
X11190000Y31515000D02*
G75*
G03*
X11490000Y31815000I0J300000D01*
G01*
%TO.C,D4*%
X9300000Y19080000D02*
X9300000Y20480000D01*
X9600000Y20780000D02*
X11200000Y20780000D01*
X11200000Y18780000D02*
X9600000Y18780000D01*
X11500000Y20480000D02*
X11500000Y19080000D01*
X9600000Y20780000D02*
G75*
G03*
X9300000Y20480000I0J-300000D01*
G01*
X9300000Y19080000D02*
G75*
G03*
X9600000Y18780000I300000J0D01*
G01*
X11500000Y20480000D02*
G75*
G03*
X11200000Y20780000I-300000J0D01*
G01*
X11200000Y18780000D02*
G75*
G03*
X11500000Y19080000I0J300000D01*
G01*
%TD*%
M02*
