%TF.GenerationSoftware,KiCad,Pcbnew,7.0.7-7.0.7~ubuntu23.04.1*%
%TF.CreationDate,2023-09-20T19:48:31+00:00*%
%TF.ProjectId,USBPDSINK01,55534250-4453-4494-9e4b-30312e6b6963,rev?*%
%TF.SameCoordinates,Original*%
%TF.FileFunction,Paste,Bot*%
%TF.FilePolarity,Positive*%
%FSLAX46Y46*%
G04 Gerber Fmt 4.6, Leading zero omitted, Abs format (unit mm)*
G04 Created by KiCad (PCBNEW 7.0.7-7.0.7~ubuntu23.04.1) date 2023-09-20 19:48:31*
%MOMM*%
%LPD*%
G01*
G04 APERTURE LIST*
G04 Aperture macros list*
%AMRoundRect*
0 Rectangle with rounded corners*
0 $1 Rounding radius*
0 $2 $3 $4 $5 $6 $7 $8 $9 X,Y pos of 4 corners*
0 Add a 4 corners polygon primitive as box body*
4,1,4,$2,$3,$4,$5,$6,$7,$8,$9,$2,$3,0*
0 Add four circle primitives for the rounded corners*
1,1,$1+$1,$2,$3*
1,1,$1+$1,$4,$5*
1,1,$1+$1,$6,$7*
1,1,$1+$1,$8,$9*
0 Add four rect primitives between the rounded corners*
20,1,$1+$1,$2,$3,$4,$5,0*
20,1,$1+$1,$4,$5,$6,$7,0*
20,1,$1+$1,$6,$7,$8,$9,0*
20,1,$1+$1,$8,$9,$2,$3,0*%
G04 Aperture macros list end*
%ADD10RoundRect,0.166667X0.458333X0.583333X-0.458333X0.583333X-0.458333X-0.583333X0.458333X-0.583333X0*%
%ADD11RoundRect,0.166667X-0.458333X-0.583333X0.458333X-0.583333X0.458333X0.583333X-0.458333X0.583333X0*%
%ADD12RoundRect,0.250000X-0.262500X-0.450000X0.262500X-0.450000X0.262500X0.450000X-0.262500X0.450000X0*%
%ADD13RoundRect,0.250000X0.450000X-0.262500X0.450000X0.262500X-0.450000X0.262500X-0.450000X-0.262500X0*%
%ADD14R,0.600000X1.150000*%
%ADD15R,0.300000X1.150000*%
%ADD16RoundRect,0.250000X0.250000X0.475000X-0.250000X0.475000X-0.250000X-0.475000X0.250000X-0.475000X0*%
%ADD17RoundRect,0.250000X0.262500X0.450000X-0.262500X0.450000X-0.262500X-0.450000X0.262500X-0.450000X0*%
%ADD18RoundRect,0.250000X0.475000X-0.250000X0.475000X0.250000X-0.475000X0.250000X-0.475000X-0.250000X0*%
%ADD19RoundRect,0.150000X-0.825000X-0.150000X0.825000X-0.150000X0.825000X0.150000X-0.825000X0.150000X0*%
%ADD20RoundRect,0.250000X-0.250000X-0.475000X0.250000X-0.475000X0.250000X0.475000X-0.250000X0.475000X0*%
%ADD21R,1.500000X2.000000*%
%ADD22R,3.800000X2.000000*%
%ADD23RoundRect,0.250000X-0.450000X0.262500X-0.450000X-0.262500X0.450000X-0.262500X0.450000X0.262500X0*%
%ADD24RoundRect,0.250000X0.295000X-0.295000X0.295000X0.295000X-0.295000X0.295000X-0.295000X-0.295000X0*%
%ADD25RoundRect,0.062500X0.062500X-0.350000X0.062500X0.350000X-0.062500X0.350000X-0.062500X-0.350000X0*%
%ADD26RoundRect,0.062500X0.350000X-0.062500X0.350000X0.062500X-0.350000X0.062500X-0.350000X-0.062500X0*%
G04 APERTURE END LIST*
D10*
%TO.C,D5*%
X12225000Y27480000D03*
D11*
X8625000Y27480000D03*
%TD*%
D12*
%TO.C,R10*%
X29287500Y21100000D03*
X31112500Y21100000D03*
%TD*%
D13*
%TO.C,R12*%
X33000000Y20987500D03*
X33000000Y22812500D03*
%TD*%
D14*
%TO.C,J1*%
X28600000Y12890000D03*
X27800000Y12890000D03*
D15*
X26650000Y12890000D03*
X25650000Y12890000D03*
X25150000Y12890000D03*
X24150000Y12890000D03*
D14*
X22200000Y12890000D03*
X23000000Y12890000D03*
D15*
X23650000Y12890000D03*
X24650000Y12890000D03*
X26150000Y12890000D03*
X27150000Y12890000D03*
%TD*%
D16*
%TO.C,C5*%
X37800000Y36230000D03*
X35900000Y36230000D03*
%TD*%
D17*
%TO.C,R8*%
X36525000Y13600000D03*
X34700000Y13600000D03*
%TD*%
%TO.C,R22*%
X31125000Y34480000D03*
X29300000Y34480000D03*
%TD*%
D18*
%TO.C,C6*%
X36000000Y25980000D03*
X36000000Y27880000D03*
%TD*%
D19*
%TO.C,Q2*%
X31820000Y15460000D03*
X31820000Y16730000D03*
X31820000Y18000000D03*
X31820000Y19270000D03*
X36770000Y19270000D03*
X36770000Y18000000D03*
X36770000Y16730000D03*
X36770000Y15460000D03*
%TD*%
D20*
%TO.C,C2*%
X29800000Y30480000D03*
X31700000Y30480000D03*
%TD*%
D21*
%TO.C,U2*%
X43000000Y27630000D03*
X40700000Y27630000D03*
D22*
X40700000Y33930000D03*
D21*
X38400000Y27630000D03*
%TD*%
D16*
%TO.C,C8*%
X26200000Y23850000D03*
X24300000Y23850000D03*
%TD*%
D23*
%TO.C,R16*%
X14190000Y36975000D03*
X14190000Y35150000D03*
%TD*%
D13*
%TO.C,R9*%
X27300000Y19425000D03*
X27300000Y21250000D03*
%TD*%
D23*
%TO.C,R6*%
X11470000Y36715000D03*
X11470000Y34890000D03*
%TD*%
D20*
%TO.C,C1*%
X29800000Y26080000D03*
X31700000Y26080000D03*
%TD*%
D13*
%TO.C,R20*%
X16480000Y13230000D03*
X16480000Y15055000D03*
%TD*%
D23*
%TO.C,R18*%
X17310000Y11560000D03*
X17310000Y9735000D03*
%TD*%
D10*
%TO.C,D3*%
X12215000Y22346668D03*
D11*
X8615000Y22346668D03*
%TD*%
D12*
%TO.C,R13*%
X23900000Y44500000D03*
X25725000Y44500000D03*
%TD*%
D10*
%TO.C,D2*%
X12225000Y24913334D03*
D11*
X8625000Y24913334D03*
%TD*%
D13*
%TO.C,R3*%
X11300000Y14870000D03*
X11300000Y16695000D03*
%TD*%
D24*
%TO.C,U1*%
X25350000Y28350000D03*
X26700000Y28350000D03*
X25350000Y29700000D03*
X26700000Y29700000D03*
D25*
X27275000Y27062500D03*
X26775000Y27062500D03*
X26275000Y27062500D03*
X25775000Y27062500D03*
X25275000Y27062500D03*
X24775000Y27062500D03*
D26*
X24062500Y27775000D03*
X24062500Y28275000D03*
X24062500Y28775000D03*
X24062500Y29275000D03*
X24062500Y29775000D03*
X24062500Y30275000D03*
D25*
X24775000Y30987500D03*
X25275000Y30987500D03*
X25775000Y30987500D03*
X26275000Y30987500D03*
X26775000Y30987500D03*
X27275000Y30987500D03*
D26*
X27987500Y30275000D03*
X27987500Y29775000D03*
X27987500Y29275000D03*
X27987500Y28775000D03*
X27987500Y28275000D03*
X27987500Y27775000D03*
%TD*%
D23*
%TO.C,R17*%
X15270000Y11570000D03*
X15270000Y9745000D03*
%TD*%
D10*
%TO.C,D1*%
X12190000Y32515000D03*
D11*
X8590000Y32515000D03*
%TD*%
D23*
%TO.C,R15*%
X16380000Y36972500D03*
X16380000Y35147500D03*
%TD*%
D10*
%TO.C,D4*%
X12200000Y19780000D03*
D11*
X8600000Y19780000D03*
%TD*%
D23*
%TO.C,R7*%
X7370000Y36702500D03*
X7370000Y34877500D03*
%TD*%
%TO.C,R5*%
X9420000Y36702500D03*
X9420000Y34877500D03*
%TD*%
D20*
%TO.C,C7*%
X29800000Y28190000D03*
X31700000Y28190000D03*
%TD*%
D13*
%TO.C,R21*%
X14410000Y13230000D03*
X14410000Y15055000D03*
%TD*%
D18*
%TO.C,C4*%
X37000000Y20900000D03*
X37000000Y22800000D03*
%TD*%
D17*
%TO.C,R14*%
X24412500Y47100000D03*
X22587500Y47100000D03*
%TD*%
%TO.C,R1*%
X27575000Y35680000D03*
X25750000Y35680000D03*
%TD*%
D13*
%TO.C,R4*%
X8600000Y14900000D03*
X8600000Y16725000D03*
%TD*%
D23*
%TO.C,R11*%
X35000000Y22725000D03*
X35000000Y20900000D03*
%TD*%
D13*
%TO.C,R19*%
X18570000Y13225000D03*
X18570000Y15050000D03*
%TD*%
M02*
