M48
; DRILL file {KiCad 7.0.7-7.0.7~ubuntu23.04.1} date Wed Aug 23 14:36:56 2023
; FORMAT={3:3/ absolute / metric / suppress leading zeros}
; #@! TF.CreationDate,2023-08-23T14:36:56+00:00
; #@! TF.GenerationSoftware,Kicad,Pcbnew,7.0.7-7.0.7~ubuntu23.04.1
; #@! TF.FileFunction,Plated,1,2,PTH
FMAT,2
METRIC,TZ
; #@! TA.AperFunction,Plated,PTH,ViaDrill
T1C0.300
; #@! TA.AperFunction,Plated,PTH,ComponentDrill
T2C0.600
; #@! TA.AperFunction,Plated,PTH,ComponentDrill
T3C1.000
; #@! TA.AperFunction,Plated,PTH,ComponentDrill
T4C3.000
%
G90
G05
T1
X6320Y33983
X7510Y29313
X7570Y31333
X11390Y33972
X13520Y34470
X14650Y10420
X16450Y10520
X17830Y15490
X18560Y15930
X19200Y27600
X21300Y26300
X21500Y14400
X21900Y31400
X23000Y28700
X23000Y22500
X25300Y29700
X25300Y28400
X25300Y25600
X25349Y32960
X25412Y14078
X26022Y32769
X26700Y29700
X26800Y25600
X27089Y32000
X27850Y31100
X28400Y14000
X29119Y31226
X29800Y27400
X34400Y12400
T3
X8735Y44055
X8735Y41515
X8735Y38975
X11275Y44055
X11275Y41515
X11275Y38975
X14255Y32525
X14255Y29985
X14255Y27445
X14255Y24905
X14255Y22365
X14255Y19825
X14255Y17285
X15490Y44960
X15490Y42420
X15490Y39880
X16795Y32525
X16795Y29985
X16795Y27445
X16795Y24905
X16795Y22365
X16795Y19825
X16795Y17285
X23960Y52340
X23960Y49800
X24600Y35483
X25785Y16570
X26500Y52340
X26500Y49800
X27140Y35483
X28325Y16570
X29040Y52340
X29040Y49800
X31580Y52340
X31580Y49800
X34120Y52340
X34120Y49800
X37960Y29800
X40000Y24100
X40000Y21560
X40000Y19020
X40000Y16480
X40500Y29800
X42540Y24100
X42540Y21560
X42540Y19020
X42540Y16480
T4
X10160Y50800
X10160Y10160
X40640Y50800
X40640Y10160
T2
G00X22743Y11765
M15
G01X22743Y12865
M16
G05
G00X22743Y7735
M15
G01X22743Y8535
M16
G05
G00X31383Y11765
M15
G01X31383Y12865
M16
G05
G00X31383Y7735
M15
G01X31383Y8535
M16
G05
T0
M30
